<?xml version="1.0" standalone="no"?>
<!DOCTYPE svg PUBLIC "-//W3C//DTD SVG 20010904//EN"
 "http://www.w3.org/TR/2001/REC-SVG-20010904/DTD/svg10.dtd">
<svg version="1.0" xmlns="http://www.w3.org/2000/svg"
 width="16.000000pt" height="16.000000pt" viewBox="0 0 16.000000 16.000000"
 preserveAspectRatio="xMidYMid meet">
<metadata>
Created by potrace 1.11, written by Peter Selinger 2001-2013
</metadata>
<g transform="translate(0.000000,16.000000) scale(0.006250,-0.006250)"
fill="#000000" stroke="none">
<path d="M24 2429 c3 -57 8 -117 11 -134 21 -127 25 -146 36 -190 132 -525
508 -914 1198 -1240 l63 -29 101 104 c199 206 227 240 215 264 -31 59 -289
492 -337 566 -31 47 -58 89 -60 94 -13 32 -167 223 -225 281 -190 189 -461
317 -765 361 -25 4 -55 8 -66 10 -11 2 -55 7 -99 10 l-78 7 6 -104z"/>
<path d="M1568 1621 c3 -8 26 -51 50 -95 71 -129 145 -277 171 -341 57 -143
135 -212 281 -250 67 -17 71 -13 64 58 -34 345 -254 607 -536 640 -30 4 -35 2
-30 -12z"/>
<path d="M1682 1032 c-56 -31 -276 -256 -269 -275 5 -17 48 -37 78 -37 48 0
128 68 257 218 49 57 48 68 -8 97 -24 12 -31 12 -58 -3z"/>
<path d="M847 954 c-10 -10 4 -117 23 -170 82 -234 316 -400 618 -440 l33 -4
-6 42 c-24 170 -78 242 -246 328 -95 49 -209 116 -360 213 -31 20 -59 34 -62
31z"/>
<path d="M1842 802 c-17 -3 -22 -8 -18 -20 2 -9 13 -39 22 -65 13 -36 14 -51
5 -56 -12 -8 -64 -6 -119 4 l-34 6 7 -43 c8 -51 35 -89 129 -184 113 -113 183
-155 542 -332 l161 -80 -120 187 c-214 334 -251 385 -332 467 -100 101 -159
129 -243 116z"/>
</g>
</svg>
