G04 Layer_Color=128*
%FSLAX26Y26*%
%MOIN*%
%TF.FileFunction,Paste,Bot*%
%TF.Part,Single*%
G01*
G75*
%TA.AperFunction,SMDPad,CuDef*%
%ADD15R,0.020472X0.020472*%
%ADD16R,0.017716X0.021654*%
%ADD17R,0.021654X0.017716*%
%ADD18R,0.020472X0.020472*%
%ADD19C,0.023622*%
%ADD38R,0.035433X0.027559*%
%ADD43R,0.027559X0.035433*%
%ADD46O,0.059055X0.015709*%
%ADD48R,0.025591X0.035433*%
%ADD49R,0.102362X0.037402*%
%ADD60O,0.055118X0.013780*%
%ADD73R,0.155512X0.059055*%
G04:AMPARAMS|DCode=97|XSize=21.654mil|YSize=31.496mil|CornerRadius=1.949mil|HoleSize=0mil|Usage=FLASHONLY|Rotation=90.000|XOffset=0mil|YOffset=0mil|HoleType=Round|Shape=RoundedRectangle|*
%AMROUNDEDRECTD97*
21,1,0.021654,0.027599,0,0,90.0*
21,1,0.017756,0.031496,0,0,90.0*
1,1,0.003898,0.013799,0.008878*
1,1,0.003898,0.013799,-0.008878*
1,1,0.003898,-0.013799,-0.008878*
1,1,0.003898,-0.013799,0.008878*
%
%ADD97ROUNDEDRECTD97*%
G04:AMPARAMS|DCode=98|XSize=15.744mil|YSize=47.244mil|CornerRadius=1.968mil|HoleSize=0mil|Usage=FLASHONLY|Rotation=90.000|XOffset=0mil|YOffset=0mil|HoleType=Round|Shape=RoundedRectangle|*
%AMROUNDEDRECTD98*
21,1,0.015744,0.043308,0,0,90.0*
21,1,0.011808,0.047244,0,0,90.0*
1,1,0.003936,0.021654,0.005904*
1,1,0.003936,0.021654,-0.005904*
1,1,0.003936,-0.021654,-0.005904*
1,1,0.003936,-0.021654,0.005904*
%
%ADD98ROUNDEDRECTD98*%
G04:AMPARAMS|DCode=99|XSize=15.709mil|YSize=45.276mil|CornerRadius=1.728mil|HoleSize=0mil|Usage=FLASHONLY|Rotation=0.000|XOffset=0mil|YOffset=0mil|HoleType=Round|Shape=RoundedRectangle|*
%AMROUNDEDRECTD99*
21,1,0.015709,0.041820,0,0,0.0*
21,1,0.012253,0.045276,0,0,0.0*
1,1,0.003456,0.006127,-0.020910*
1,1,0.003456,-0.006127,-0.020910*
1,1,0.003456,-0.006127,0.020910*
1,1,0.003456,0.006127,0.020910*
%
%ADD99ROUNDEDRECTD99*%
G04:AMPARAMS|DCode=100|XSize=15.709mil|YSize=25.591mil|CornerRadius=1.964mil|HoleSize=0mil|Usage=FLASHONLY|Rotation=270.000|XOffset=0mil|YOffset=0mil|HoleType=Round|Shape=RoundedRectangle|*
%AMROUNDEDRECTD100*
21,1,0.015709,0.021663,0,0,270.0*
21,1,0.011781,0.025591,0,0,270.0*
1,1,0.003927,-0.010832,-0.005891*
1,1,0.003927,-0.010832,0.005891*
1,1,0.003927,0.010832,0.005891*
1,1,0.003927,0.010832,-0.005891*
%
%ADD100ROUNDEDRECTD100*%
%ADD101R,0.047244X0.019685*%
%ADD102R,0.062992X0.019685*%
G04:AMPARAMS|DCode=103|XSize=70.866mil|YSize=118.11mil|CornerRadius=0mil|HoleSize=0mil|Usage=FLASHONLY|Rotation=270.000|XOffset=0mil|YOffset=0mil|HoleType=Round|Shape=Octagon|*
%AMOCTAGOND103*
4,1,8,0.059055,0.017716,0.059055,-0.017716,0.041339,-0.035433,-0.041339,-0.035433,-0.059055,-0.017716,-0.059055,0.017716,-0.041339,0.035433,0.041339,0.035433,0.059055,0.017716,0.0*
%
%ADD103OCTAGOND103*%

%ADD104R,0.031496X0.035433*%
%ADD105R,0.035433X0.031496*%
%ADD106R,0.035433X0.023622*%
G04:AMPARAMS|DCode=107|XSize=9.842mil|YSize=23.622mil|CornerRadius=1.968mil|HoleSize=0mil|Usage=FLASHONLY|Rotation=270.000|XOffset=0mil|YOffset=0mil|HoleType=Round|Shape=RoundedRectangle|*
%AMROUNDEDRECTD107*
21,1,0.009842,0.019685,0,0,270.0*
21,1,0.005905,0.023622,0,0,270.0*
1,1,0.003937,-0.009842,-0.002953*
1,1,0.003937,-0.009842,0.002953*
1,1,0.003937,0.009842,0.002953*
1,1,0.003937,0.009842,-0.002953*
%
%ADD107ROUNDEDRECTD107*%
%ADD110R,0.081890X0.038583*%
%TA.AperFunction,NonConductor*%
%ADD192R,0.051181X0.061024*%
%ADD193R,0.009055X0.035433*%
%TA.AperFunction,SMDPad,CuDef*%
%ADD194R,0.007874X0.017716*%
%ADD195O,0.031496X0.009842*%
D15*
X4322835Y4492126D02*
D03*
X4291339D02*
D03*
X4610236Y4031496D02*
D03*
X4578740D02*
D03*
X4098425Y4854331D02*
D03*
X4066929D02*
D03*
X4803150Y4901575D02*
D03*
X4771654D02*
D03*
X5141732Y4283465D02*
D03*
X5173228D02*
D03*
X5086614Y4468504D02*
D03*
X5118110D02*
D03*
X4515748Y3657480D02*
D03*
X4547244D02*
D03*
X5248032Y3460630D02*
D03*
X5216535D02*
D03*
X5358268Y3401575D02*
D03*
X5389764D02*
D03*
X5314961Y3555118D02*
D03*
X5346457D02*
D03*
X5358268Y3354331D02*
D03*
X5389764D02*
D03*
X5357283Y4566929D02*
D03*
X5325787D02*
D03*
X5249382Y4726378D02*
D03*
X5217886D02*
D03*
X5248032Y3413386D02*
D03*
X5216535D02*
D03*
X5391114Y4785433D02*
D03*
X5359618D02*
D03*
X5157480Y3669291D02*
D03*
X5125984D02*
D03*
X5027559Y3858268D02*
D03*
X5059055D02*
D03*
X5249382Y4679134D02*
D03*
X5217886D02*
D03*
X5391114Y4738189D02*
D03*
X5359618D02*
D03*
D16*
X4860236Y4023622D02*
D03*
X4824803D02*
D03*
X5320866Y4358268D02*
D03*
X5356299D02*
D03*
X5356299Y4322835D02*
D03*
X5320866D02*
D03*
X5462598Y3452756D02*
D03*
X5498031D02*
D03*
X5458661Y4637795D02*
D03*
X5494094D02*
D03*
X5431102Y4594488D02*
D03*
X5395669D02*
D03*
X5356299Y3783465D02*
D03*
X5320866D02*
D03*
X5320866Y3818898D02*
D03*
X5356299D02*
D03*
X5261811Y3633858D02*
D03*
X5226378D02*
D03*
X5226378Y3673228D02*
D03*
X5261811D02*
D03*
X5285433Y4311024D02*
D03*
X5250000D02*
D03*
X5320866Y3748032D02*
D03*
X5285433D02*
D03*
D17*
X4125984Y3779527D02*
D03*
Y3814961D02*
D03*
X4158603Y3779527D02*
D03*
Y3814961D02*
D03*
X4125984Y3748032D02*
D03*
Y3712599D02*
D03*
X4158603Y3748032D02*
D03*
Y3712599D02*
D03*
X4094488Y4098425D02*
D03*
Y4133858D02*
D03*
X4125984Y4100394D02*
D03*
Y4135827D02*
D03*
X4094488Y4068898D02*
D03*
Y4033465D02*
D03*
X4125984Y4068898D02*
D03*
Y4033465D02*
D03*
X4133858Y4368110D02*
D03*
Y4403543D02*
D03*
X4165354Y4368110D02*
D03*
Y4403543D02*
D03*
Y4340551D02*
D03*
Y4305118D02*
D03*
X4133858Y4340551D02*
D03*
Y4305118D02*
D03*
X4858268Y4096457D02*
D03*
Y4061024D02*
D03*
X4598425Y4887795D02*
D03*
Y4852362D02*
D03*
X4562992Y4852362D02*
D03*
Y4887795D02*
D03*
Y4812992D02*
D03*
Y4777559D02*
D03*
X4598425Y4777559D02*
D03*
Y4812992D02*
D03*
X5251968Y4470472D02*
D03*
Y4435039D02*
D03*
X4922610Y4484252D02*
D03*
Y4448819D02*
D03*
X5250000Y4274973D02*
D03*
Y4239540D02*
D03*
X5289370Y4239540D02*
D03*
Y4274973D02*
D03*
X5023622Y4257874D02*
D03*
Y4293307D02*
D03*
X4969855Y4366142D02*
D03*
Y4330708D02*
D03*
X4937008Y3482283D02*
D03*
Y3446850D02*
D03*
X4889764Y3407480D02*
D03*
Y3372047D02*
D03*
X5295276Y3466535D02*
D03*
Y3501968D02*
D03*
X5255905Y3860236D02*
D03*
Y3824803D02*
D03*
X4921260Y3655512D02*
D03*
Y3690945D02*
D03*
X5000000Y3647638D02*
D03*
Y3683071D02*
D03*
X4968504Y3773622D02*
D03*
Y3809055D02*
D03*
X5059055Y4293307D02*
D03*
Y4257874D02*
D03*
X5039370Y3647638D02*
D03*
Y3683071D02*
D03*
X5078740Y4529528D02*
D03*
Y4564961D02*
D03*
X5133858Y3431102D02*
D03*
Y3466535D02*
D03*
D18*
X3964567Y4370079D02*
D03*
Y4338583D02*
D03*
X3929134Y4094488D02*
D03*
Y4062992D02*
D03*
X3960630Y3797244D02*
D03*
Y3765748D02*
D03*
X4708661Y4468504D02*
D03*
Y4437008D02*
D03*
X4818898Y4098425D02*
D03*
Y4066929D02*
D03*
X5253319Y4391732D02*
D03*
Y4360236D02*
D03*
X4980315Y4279528D02*
D03*
Y4248032D02*
D03*
X4692913Y3429134D02*
D03*
Y3460630D02*
D03*
X4897638Y3480315D02*
D03*
Y3448819D02*
D03*
X5543307Y3444882D02*
D03*
Y3413386D02*
D03*
X5527559Y4685039D02*
D03*
Y4716535D02*
D03*
X5251968Y3779528D02*
D03*
Y3748032D02*
D03*
X4960630Y3688976D02*
D03*
Y3657480D02*
D03*
D19*
X3614173Y3547244D02*
D03*
X4503937Y3826772D02*
D03*
X5492126Y4023622D02*
D03*
X4877953Y4141732D02*
D03*
X4980315Y3484252D02*
D03*
X5295276Y3425197D02*
D03*
X5429134Y4555118D02*
D03*
X5440945Y3413386D02*
D03*
X5305118Y4604331D02*
D03*
X5039370Y3602362D02*
D03*
X5334646Y4281496D02*
D03*
X4720472Y4377953D02*
D03*
D38*
X4511811Y4433071D02*
D03*
Y4377953D02*
D03*
X5299212Y4059055D02*
D03*
Y4114173D02*
D03*
X5480315Y4090551D02*
D03*
Y4145669D02*
D03*
X4456693Y3783465D02*
D03*
Y3728347D02*
D03*
X5043307Y3342520D02*
D03*
Y3287402D02*
D03*
X3476378Y3346457D02*
D03*
Y3401575D02*
D03*
X3535433Y3472441D02*
D03*
Y3527559D02*
D03*
X4854331Y3728347D02*
D03*
Y3673228D02*
D03*
X5181102Y4129921D02*
D03*
Y4185039D02*
D03*
D43*
X4645669Y4338583D02*
D03*
X4590551D02*
D03*
X4779528Y4165354D02*
D03*
X4724409D02*
D03*
X4629921Y4165354D02*
D03*
X4685039D02*
D03*
X4610236Y3830709D02*
D03*
X4665354D02*
D03*
X4700787Y3539370D02*
D03*
X4755905D02*
D03*
X4795276Y3543307D02*
D03*
X4850394D02*
D03*
X4996063Y4653543D02*
D03*
X5051181D02*
D03*
D46*
X5034449Y4339567D02*
D03*
Y4365158D02*
D03*
Y4390748D02*
D03*
Y4416339D02*
D03*
X5193898Y4339567D02*
D03*
Y4365158D02*
D03*
Y4390748D02*
D03*
Y4416339D02*
D03*
X5030512Y3725394D02*
D03*
Y3750984D02*
D03*
Y3776575D02*
D03*
Y3802165D02*
D03*
X5189961Y3725394D02*
D03*
Y3750984D02*
D03*
Y3776575D02*
D03*
Y3802165D02*
D03*
D48*
X5352362Y4157480D02*
D03*
X5389764D02*
D03*
X5427165D02*
D03*
Y4062992D02*
D03*
X5352362D02*
D03*
D49*
X3551181Y3295276D02*
D03*
Y3185039D02*
D03*
D60*
X4196850Y4693898D02*
D03*
Y4719488D02*
D03*
Y4745079D02*
D03*
Y4770669D02*
D03*
Y4796260D02*
D03*
Y4821850D02*
D03*
Y4847441D02*
D03*
Y4873032D02*
D03*
X4417323Y4693898D02*
D03*
Y4719488D02*
D03*
Y4745079D02*
D03*
Y4770669D02*
D03*
Y4796260D02*
D03*
Y4821850D02*
D03*
Y4847441D02*
D03*
Y4873032D02*
D03*
D73*
X6477362Y3002756D02*
D03*
Y2784646D02*
D03*
Y5364960D02*
D03*
Y5146850D02*
D03*
Y4420079D02*
D03*
Y4201968D02*
D03*
Y3947638D02*
D03*
Y3729528D02*
D03*
Y3475197D02*
D03*
Y3257087D02*
D03*
Y4892520D02*
D03*
Y4674409D02*
D03*
D97*
X4613189Y3777559D02*
D03*
Y3740157D02*
D03*
Y3702756D02*
D03*
X4512795D02*
D03*
Y3777559D02*
D03*
D98*
X4864173Y4725394D02*
D03*
Y4750984D02*
D03*
Y4776575D02*
D03*
Y4802165D02*
D03*
Y4827756D02*
D03*
Y4853346D02*
D03*
Y4878937D02*
D03*
Y4904528D02*
D03*
X5088583Y4725394D02*
D03*
Y4750984D02*
D03*
Y4776575D02*
D03*
Y4802165D02*
D03*
Y4827756D02*
D03*
Y4853346D02*
D03*
Y4878937D02*
D03*
Y4904528D02*
D03*
D99*
X4081831Y3695866D02*
D03*
X4056240D02*
D03*
X4030650D02*
D03*
X4005059D02*
D03*
X4081831Y3863189D02*
D03*
X4056240D02*
D03*
X4030650D02*
D03*
X4005059D02*
D03*
X4050335Y3993110D02*
D03*
X4024744D02*
D03*
X3999154D02*
D03*
X3973563D02*
D03*
X4050335Y4160433D02*
D03*
X4024744D02*
D03*
X3999154D02*
D03*
X3973563D02*
D03*
X4085768Y4268701D02*
D03*
X4060178D02*
D03*
X4034587D02*
D03*
X4008997D02*
D03*
X4085768Y4436024D02*
D03*
X4060178D02*
D03*
X4034587D02*
D03*
X4008997D02*
D03*
D100*
X5176181Y3505905D02*
D03*
Y3531496D02*
D03*
Y3557087D02*
D03*
X5256890D02*
D03*
Y3505905D02*
D03*
X5180118Y4580709D02*
D03*
Y4606299D02*
D03*
Y4631890D02*
D03*
X5260827D02*
D03*
Y4580709D02*
D03*
X5422244Y4639764D02*
D03*
Y4665354D02*
D03*
Y4690945D02*
D03*
X5341535D02*
D03*
Y4665354D02*
D03*
Y4639764D02*
D03*
X5333661Y3501969D02*
D03*
Y3476378D02*
D03*
Y3450787D02*
D03*
X5414370D02*
D03*
Y3476378D02*
D03*
Y3501969D02*
D03*
D101*
X3594488Y3366142D02*
D03*
Y3484252D02*
D03*
D102*
X3602362Y3425197D02*
D03*
D103*
X3692913D02*
D03*
D104*
X3354331Y3358268D02*
D03*
X3409449D02*
D03*
X4629921Y4224409D02*
D03*
X4574803D02*
D03*
X5165354Y4007874D02*
D03*
X5110236D02*
D03*
X4578740Y3889764D02*
D03*
X4633858D02*
D03*
X5242480Y3357914D02*
D03*
X5297598D02*
D03*
X4562992Y3551181D02*
D03*
X4618110D02*
D03*
X5243831Y4781850D02*
D03*
X5298949D02*
D03*
D105*
X4511811Y4275591D02*
D03*
Y4330709D02*
D03*
D106*
X4665354Y4399606D02*
D03*
Y4474409D02*
D03*
X4570866D02*
D03*
Y4437008D02*
D03*
Y4399606D02*
D03*
D107*
X4240158Y4525591D02*
D03*
Y4545275D02*
D03*
Y4564961D02*
D03*
Y4584646D02*
D03*
X4358268Y4525591D02*
D03*
Y4545275D02*
D03*
Y4564961D02*
D03*
Y4584646D02*
D03*
D110*
X3669291Y3177559D02*
D03*
Y3098032D02*
D03*
D192*
X4791339Y3433071D02*
D03*
X4716523Y4062993D02*
D03*
D193*
X4804134Y3489173D02*
D03*
X4778543D02*
D03*
Y3376968D02*
D03*
X4804134D02*
D03*
X4729331Y4006891D02*
D03*
X4703740Y4006890D02*
D03*
Y4119094D02*
D03*
X4729331Y4119095D02*
D03*
D194*
X4791339Y3433071D02*
D03*
X4716535Y4062992D02*
D03*
D195*
X4733268Y3471457D02*
D03*
Y3445866D02*
D03*
Y3420276D02*
D03*
Y3394685D02*
D03*
X4849410D02*
D03*
Y3420276D02*
D03*
Y3445866D02*
D03*
Y3471457D02*
D03*
X4774606Y4101378D02*
D03*
Y4075787D02*
D03*
Y4050197D02*
D03*
Y4024606D02*
D03*
X4658465D02*
D03*
Y4050197D02*
D03*
Y4075787D02*
D03*
Y4101378D02*
D03*
%TF.MD5,02bedf036637483fb8c7eef032ea2f3d*%
M02*
