G04 Layer_Color=16711935*
%FSLAX26Y26*%
%MOIN*%
%TF.FileFunction,Soldermask,Bot*%
%TF.Part,Single*%
G01*
G75*
%TA.AperFunction,SMDPad,CuDef*%
G04:AMPARAMS|DCode=111|XSize=27.559mil|YSize=37.402mil|CornerRadius=4.902mil|HoleSize=0mil|Usage=FLASHONLY|Rotation=90.000|XOffset=0mil|YOffset=0mil|HoleType=Round|Shape=RoundedRectangle|*
%AMROUNDEDRECTD111*
21,1,0.027559,0.027599,0,0,90.0*
21,1,0.017756,0.037402,0,0,90.0*
1,1,0.009803,0.013799,0.008878*
1,1,0.009803,0.013799,-0.008878*
1,1,0.009803,-0.013799,-0.008878*
1,1,0.009803,-0.013799,0.008878*
%
%ADD111ROUNDEDRECTD111*%
G04:AMPARAMS|DCode=112|XSize=21.65mil|YSize=53.15mil|CornerRadius=4.921mil|HoleSize=0mil|Usage=FLASHONLY|Rotation=90.000|XOffset=0mil|YOffset=0mil|HoleType=Round|Shape=RoundedRectangle|*
%AMROUNDEDRECTD112*
21,1,0.021650,0.043308,0,0,90.0*
21,1,0.011808,0.053150,0,0,90.0*
1,1,0.009842,0.021654,0.005904*
1,1,0.009842,0.021654,-0.005904*
1,1,0.009842,-0.021654,-0.005904*
1,1,0.009842,-0.021654,0.005904*
%
%ADD112ROUNDEDRECTD112*%
G04:AMPARAMS|DCode=113|XSize=21.614mil|YSize=51.181mil|CornerRadius=4.681mil|HoleSize=0mil|Usage=FLASHONLY|Rotation=0.000|XOffset=0mil|YOffset=0mil|HoleType=Round|Shape=RoundedRectangle|*
%AMROUNDEDRECTD113*
21,1,0.021614,0.041820,0,0,0.0*
21,1,0.012253,0.051181,0,0,0.0*
1,1,0.009361,0.006127,-0.020910*
1,1,0.009361,-0.006127,-0.020910*
1,1,0.009361,-0.006127,0.020910*
1,1,0.009361,0.006127,0.020910*
%
%ADD113ROUNDEDRECTD113*%
G04:AMPARAMS|DCode=114|XSize=21.614mil|YSize=31.496mil|CornerRadius=4.916mil|HoleSize=0mil|Usage=FLASHONLY|Rotation=270.000|XOffset=0mil|YOffset=0mil|HoleType=Round|Shape=RoundedRectangle|*
%AMROUNDEDRECTD114*
21,1,0.021614,0.021663,0,0,270.0*
21,1,0.011781,0.031496,0,0,270.0*
1,1,0.009833,-0.010832,-0.005891*
1,1,0.009833,-0.010832,0.005891*
1,1,0.009833,0.010832,0.005891*
1,1,0.009833,0.010832,-0.005891*
%
%ADD114ROUNDEDRECTD114*%
%ADD115R,0.026378X0.026378*%
%ADD116R,0.053150X0.025591*%
%ADD117R,0.068898X0.025591*%
G04:AMPARAMS|DCode=118|XSize=76.772mil|YSize=124.016mil|CornerRadius=0mil|HoleSize=0mil|Usage=FLASHONLY|Rotation=270.000|XOffset=0mil|YOffset=0mil|HoleType=Round|Shape=Octagon|*
%AMOCTAGOND118*
4,1,8,0.062008,0.019193,0.062008,-0.019193,0.042815,-0.038386,-0.042815,-0.038386,-0.062008,-0.019193,-0.062008,0.019193,-0.042815,0.038386,0.042815,0.038386,0.062008,0.019193,0.0*
%
%ADD118OCTAGOND118*%

%ADD119C,0.029528*%
%ADD120R,0.037402X0.041339*%
%ADD121R,0.027559X0.023622*%
%ADD122R,0.026378X0.026378*%
%ADD123R,0.041339X0.037402*%
%ADD124R,0.041339X0.033465*%
%ADD125R,0.041339X0.029528*%
%ADD126R,0.033465X0.041339*%
%ADD127R,0.023622X0.027559*%
%ADD128O,0.061024X0.019685*%
G04:AMPARAMS|DCode=129|XSize=15.748mil|YSize=29.528mil|CornerRadius=4.921mil|HoleSize=0mil|Usage=FLASHONLY|Rotation=270.000|XOffset=0mil|YOffset=0mil|HoleType=Round|Shape=RoundedRectangle|*
%AMROUNDEDRECTD129*
21,1,0.015748,0.019685,0,0,270.0*
21,1,0.005905,0.029528,0,0,270.0*
1,1,0.009843,-0.009842,-0.002953*
1,1,0.009843,-0.009842,0.002953*
1,1,0.009843,0.009842,0.002953*
1,1,0.009843,0.009842,-0.002953*
%
%ADD129ROUNDEDRECTD129*%
%ADD130R,0.031496X0.041339*%
%ADD131R,0.064567X0.074409*%
%ADD132O,0.038976X0.017323*%
%ADD133O,0.064961X0.021614*%
%ADD134R,0.108268X0.043307*%
%ADD135R,0.087795X0.044488*%
%ADD136R,0.161417X0.064961*%
%TA.AperFunction,ComponentPad*%
%ADD137C,0.061024*%
%ADD138R,0.061024X0.061024*%
%ADD139C,0.065906*%
%ADD140R,0.065906X0.065906*%
G36*
X4810078Y3510604D02*
X4810500Y3510503D01*
X4810901Y3510337D01*
X4811271Y3510110D01*
X4811601Y3509829D01*
X4811882Y3509499D01*
X4812109Y3509129D01*
X4812275Y3508728D01*
X4812376Y3508306D01*
X4812410Y3507874D01*
Y3470284D01*
X4820867D01*
X4821299Y3470250D01*
X4821721Y3470149D01*
X4822122Y3469983D01*
X4822492Y3469756D01*
X4822821Y3469474D01*
X4823103Y3469144D01*
X4823330Y3468775D01*
X4823496Y3468374D01*
X4823597Y3467952D01*
X4823631Y3467520D01*
Y3398622D01*
X4823597Y3398190D01*
X4823496Y3397768D01*
X4823330Y3397367D01*
X4823103Y3396997D01*
X4822821Y3396667D01*
X4822492Y3396386D01*
X4822122Y3396159D01*
X4821721Y3395993D01*
X4821299Y3395892D01*
X4820867Y3395858D01*
X4812410D01*
Y3358268D01*
X4812376Y3357835D01*
X4812275Y3357414D01*
X4812109Y3357013D01*
X4811882Y3356643D01*
X4811601Y3356313D01*
X4811271Y3356031D01*
X4810901Y3355805D01*
X4810500Y3355639D01*
X4810078Y3355537D01*
X4809646Y3355503D01*
X4798622D01*
X4798190Y3355537D01*
X4797768Y3355639D01*
X4797367Y3355805D01*
X4796997Y3356031D01*
X4796668Y3356313D01*
X4796386Y3356643D01*
X4796159Y3357013D01*
X4795993Y3357414D01*
X4795892Y3357835D01*
X4795858Y3358268D01*
Y3395858D01*
X4786820D01*
Y3358268D01*
X4786786Y3357835D01*
X4786685Y3357414D01*
X4786519Y3357013D01*
X4786292Y3356643D01*
X4786010Y3356313D01*
X4785680Y3356031D01*
X4785310Y3355805D01*
X4784910Y3355639D01*
X4784488Y3355537D01*
X4784056Y3355503D01*
X4773032D01*
X4772600Y3355537D01*
X4772178Y3355639D01*
X4771777Y3355805D01*
X4771407Y3356031D01*
X4771077Y3356313D01*
X4770796Y3356643D01*
X4770569Y3357013D01*
X4770403Y3357414D01*
X4770301Y3357835D01*
X4770267Y3358268D01*
Y3395858D01*
X4761811D01*
X4761379Y3395892D01*
X4760957Y3395993D01*
X4760556Y3396159D01*
X4760186Y3396386D01*
X4759857Y3396667D01*
X4759575Y3396997D01*
X4759348Y3397367D01*
X4759182Y3397768D01*
X4759081Y3398190D01*
X4759047Y3398622D01*
Y3467520D01*
X4759081Y3467952D01*
X4759182Y3468374D01*
X4759348Y3468775D01*
X4759575Y3469144D01*
X4759857Y3469474D01*
X4760186Y3469756D01*
X4760556Y3469983D01*
X4760957Y3470149D01*
X4761379Y3470250D01*
X4761811Y3470284D01*
X4770267D01*
Y3507874D01*
X4770301Y3508306D01*
X4770403Y3508728D01*
X4770569Y3509129D01*
X4770796Y3509499D01*
X4771077Y3509829D01*
X4771407Y3510110D01*
X4771777Y3510337D01*
X4772178Y3510503D01*
X4772600Y3510604D01*
X4773032Y3510638D01*
X4784056D01*
X4784488Y3510604D01*
X4784910Y3510503D01*
X4785310Y3510337D01*
X4785680Y3510110D01*
X4786010Y3509829D01*
X4786292Y3509499D01*
X4786519Y3509129D01*
X4786685Y3508728D01*
X4786786Y3508306D01*
X4786820Y3507874D01*
Y3470284D01*
X4795858D01*
Y3507874D01*
X4795892Y3508306D01*
X4795993Y3508728D01*
X4796159Y3509129D01*
X4796386Y3509499D01*
X4796668Y3509829D01*
X4796997Y3510110D01*
X4797367Y3510337D01*
X4797768Y3510503D01*
X4798190Y3510604D01*
X4798622Y3510638D01*
X4809646D01*
X4810078Y3510604D01*
D02*
G37*
G36*
X4735275Y4140526D02*
X4735697Y4140424D01*
X4736097Y4140258D01*
X4736467Y4140032D01*
X4736797Y4139750D01*
X4737079Y4139420D01*
X4737305Y4139050D01*
X4737471Y4138650D01*
X4737573Y4138228D01*
X4737607Y4137795D01*
Y4100205D01*
X4746063D01*
X4746495Y4100171D01*
X4746917Y4100070D01*
X4747318Y4099904D01*
X4747688Y4099677D01*
X4748018Y4099396D01*
X4748299Y4099066D01*
X4748526Y4098696D01*
X4748692Y4098295D01*
X4748793Y4097873D01*
X4748827Y4097441D01*
Y4028543D01*
X4748793Y4028111D01*
X4748692Y4027689D01*
X4748526Y4027288D01*
X4748299Y4026919D01*
X4748018Y4026589D01*
X4747688Y4026307D01*
X4747318Y4026080D01*
X4746917Y4025914D01*
X4746495Y4025813D01*
X4746063Y4025779D01*
X4737607D01*
Y3988189D01*
X4737573Y3987757D01*
X4737471Y3987335D01*
X4737305Y3986934D01*
X4737079Y3986564D01*
X4736797Y3986234D01*
X4736467Y3985953D01*
X4736097Y3985726D01*
X4735697Y3985560D01*
X4735275Y3985459D01*
X4734842Y3985425D01*
X4723819D01*
X4723386Y3985459D01*
X4722965Y3985560D01*
X4722564Y3985726D01*
X4722194Y3985953D01*
X4721864Y3986234D01*
X4721582Y3986564D01*
X4721356Y3986934D01*
X4721190Y3987335D01*
X4721088Y3987757D01*
X4721054Y3988189D01*
Y4025779D01*
X4712016D01*
Y3988189D01*
X4711982Y3987757D01*
X4711881Y3987335D01*
X4711715Y3986934D01*
X4711488Y3986564D01*
X4711207Y3986234D01*
X4710877Y3985953D01*
X4710507Y3985726D01*
X4710106Y3985560D01*
X4709684Y3985459D01*
X4709252Y3985425D01*
X4698228D01*
X4697796Y3985459D01*
X4697374Y3985560D01*
X4696973Y3985726D01*
X4696603Y3985953D01*
X4696274Y3986234D01*
X4695992Y3986564D01*
X4695765Y3986934D01*
X4695599Y3987335D01*
X4695498Y3987757D01*
X4695464Y3988189D01*
Y4025779D01*
X4687008D01*
X4686575Y4025813D01*
X4686154Y4025914D01*
X4685753Y4026080D01*
X4685383Y4026307D01*
X4685053Y4026589D01*
X4684771Y4026919D01*
X4684545Y4027288D01*
X4684379Y4027689D01*
X4684277Y4028111D01*
X4684243Y4028543D01*
Y4097441D01*
X4684277Y4097873D01*
X4684379Y4098295D01*
X4684545Y4098696D01*
X4684771Y4099066D01*
X4685053Y4099396D01*
X4685383Y4099677D01*
X4685753Y4099904D01*
X4686154Y4100070D01*
X4686575Y4100171D01*
X4687008Y4100205D01*
X4695464D01*
Y4137795D01*
X4695498Y4138228D01*
X4695599Y4138650D01*
X4695765Y4139050D01*
X4695992Y4139420D01*
X4696274Y4139750D01*
X4696603Y4140032D01*
X4696973Y4140258D01*
X4697374Y4140424D01*
X4697796Y4140526D01*
X4698228Y4140560D01*
X4709252D01*
X4709684Y4140526D01*
X4710106Y4140424D01*
X4710507Y4140258D01*
X4710877Y4140032D01*
X4711207Y4139750D01*
X4711488Y4139420D01*
X4711715Y4139050D01*
X4711881Y4138650D01*
X4711982Y4138228D01*
X4712016Y4137795D01*
Y4100205D01*
X4721054D01*
Y4137795D01*
X4721088Y4138228D01*
X4721190Y4138650D01*
X4721356Y4139050D01*
X4721582Y4139420D01*
X4721864Y4139750D01*
X4722194Y4140032D01*
X4722564Y4140258D01*
X4722965Y4140424D01*
X4723386Y4140526D01*
X4723819Y4140560D01*
X4734842D01*
X4735275Y4140526D01*
D02*
G37*
D111*
X4613189Y3777559D02*
D03*
Y3740157D02*
D03*
Y3702756D02*
D03*
X4512795D02*
D03*
Y3777559D02*
D03*
D112*
X4864173Y4725394D02*
D03*
Y4750984D02*
D03*
Y4776575D02*
D03*
Y4802165D02*
D03*
Y4827756D02*
D03*
Y4853346D02*
D03*
Y4878937D02*
D03*
Y4904528D02*
D03*
X5088583Y4725394D02*
D03*
Y4750984D02*
D03*
Y4776575D02*
D03*
Y4802165D02*
D03*
Y4827756D02*
D03*
Y4853346D02*
D03*
Y4878937D02*
D03*
Y4904528D02*
D03*
D113*
X4081831Y3695866D02*
D03*
X4056240D02*
D03*
X4030650D02*
D03*
X4005059D02*
D03*
X4081831Y3863189D02*
D03*
X4056240D02*
D03*
X4030650D02*
D03*
X4005059D02*
D03*
X4050335Y3993110D02*
D03*
X4024744D02*
D03*
X3999154D02*
D03*
X3973563D02*
D03*
X4050335Y4160433D02*
D03*
X4024744D02*
D03*
X3999154D02*
D03*
X3973563D02*
D03*
X4085768Y4268701D02*
D03*
X4060178D02*
D03*
X4034587D02*
D03*
X4008997D02*
D03*
X4085768Y4436024D02*
D03*
X4060178D02*
D03*
X4034587D02*
D03*
X4008997D02*
D03*
D114*
X5176181Y3505905D02*
D03*
Y3531496D02*
D03*
Y3557087D02*
D03*
X5256890D02*
D03*
Y3505905D02*
D03*
X5180118Y4580709D02*
D03*
Y4606299D02*
D03*
Y4631890D02*
D03*
X5260827D02*
D03*
Y4580709D02*
D03*
X5422244Y4639764D02*
D03*
Y4665354D02*
D03*
Y4690945D02*
D03*
X5341535D02*
D03*
Y4665354D02*
D03*
Y4639764D02*
D03*
X5333661Y3501969D02*
D03*
Y3476378D02*
D03*
Y3450787D02*
D03*
X5414370D02*
D03*
Y3476378D02*
D03*
Y3501969D02*
D03*
D115*
X3964567Y4370079D02*
D03*
Y4338583D02*
D03*
X3929134Y4094488D02*
D03*
Y4062992D02*
D03*
X3960630Y3797244D02*
D03*
Y3765748D02*
D03*
X4708661Y4468504D02*
D03*
Y4437008D02*
D03*
X4818898Y4098425D02*
D03*
Y4066929D02*
D03*
X5253319Y4391732D02*
D03*
Y4360236D02*
D03*
X4980315Y4279528D02*
D03*
Y4248032D02*
D03*
X4692913Y3429134D02*
D03*
Y3460630D02*
D03*
X4897638Y3480315D02*
D03*
Y3448819D02*
D03*
X5543307Y3444882D02*
D03*
Y3413386D02*
D03*
X5527559Y4685039D02*
D03*
Y4716535D02*
D03*
X5251968Y3779528D02*
D03*
Y3748032D02*
D03*
X4960630Y3688976D02*
D03*
Y3657480D02*
D03*
D116*
X3594488Y3366142D02*
D03*
Y3484252D02*
D03*
D117*
X3602362Y3425197D02*
D03*
D118*
X3692913D02*
D03*
D119*
X3614173Y3547244D02*
D03*
X4503937Y3826772D02*
D03*
X5492126Y4023622D02*
D03*
X4877953Y4141732D02*
D03*
X4980315Y3484252D02*
D03*
X5295276Y3425197D02*
D03*
X5429134Y4555118D02*
D03*
X5440945Y3413386D02*
D03*
X5305118Y4604331D02*
D03*
X5039370Y3602362D02*
D03*
X5334646Y4281496D02*
D03*
X4720472Y4377953D02*
D03*
D120*
X3354331Y3358268D02*
D03*
X3409449D02*
D03*
X4629921Y4224409D02*
D03*
X4574803D02*
D03*
X5165354Y4007874D02*
D03*
X5110236D02*
D03*
X4578740Y3889764D02*
D03*
X4633858D02*
D03*
X5242480Y3357914D02*
D03*
X5297598D02*
D03*
X4562992Y3551181D02*
D03*
X4618110D02*
D03*
X5243831Y4781850D02*
D03*
X5298949D02*
D03*
D121*
X4125984Y3779527D02*
D03*
Y3814961D02*
D03*
X4158603Y3779527D02*
D03*
Y3814961D02*
D03*
X4125984Y3748032D02*
D03*
Y3712599D02*
D03*
X4158603Y3748032D02*
D03*
Y3712599D02*
D03*
X4094488Y4098425D02*
D03*
Y4133858D02*
D03*
X4125984Y4100394D02*
D03*
Y4135827D02*
D03*
X4094488Y4068898D02*
D03*
Y4033465D02*
D03*
X4125984Y4068898D02*
D03*
Y4033465D02*
D03*
X4133858Y4368110D02*
D03*
Y4403543D02*
D03*
X4165354Y4368110D02*
D03*
Y4403543D02*
D03*
Y4340551D02*
D03*
Y4305118D02*
D03*
X4133858Y4340551D02*
D03*
Y4305118D02*
D03*
X4858268Y4096457D02*
D03*
Y4061024D02*
D03*
X4598425Y4887795D02*
D03*
Y4852362D02*
D03*
X4562992Y4852362D02*
D03*
Y4887795D02*
D03*
Y4812992D02*
D03*
Y4777559D02*
D03*
X4598425Y4777559D02*
D03*
Y4812992D02*
D03*
X5251968Y4470472D02*
D03*
Y4435039D02*
D03*
X4922610Y4484252D02*
D03*
Y4448819D02*
D03*
X5250000Y4274973D02*
D03*
Y4239540D02*
D03*
X5289370Y4239540D02*
D03*
Y4274973D02*
D03*
X5023622Y4257874D02*
D03*
Y4293307D02*
D03*
X4969855Y4366142D02*
D03*
Y4330708D02*
D03*
X4937008Y3482283D02*
D03*
Y3446850D02*
D03*
X4889764Y3407480D02*
D03*
Y3372047D02*
D03*
X5295276Y3466535D02*
D03*
Y3501968D02*
D03*
X5255905Y3860236D02*
D03*
Y3824803D02*
D03*
X4921260Y3655512D02*
D03*
Y3690945D02*
D03*
X5000000Y3647638D02*
D03*
Y3683071D02*
D03*
X4968504Y3773622D02*
D03*
Y3809055D02*
D03*
X5059055Y4293307D02*
D03*
Y4257874D02*
D03*
X5039370Y3647638D02*
D03*
Y3683071D02*
D03*
X5078740Y4529528D02*
D03*
Y4564961D02*
D03*
X5133858Y3431102D02*
D03*
Y3466535D02*
D03*
D122*
X4322835Y4492126D02*
D03*
X4291339D02*
D03*
X4610236Y4031496D02*
D03*
X4578740D02*
D03*
X4098425Y4854331D02*
D03*
X4066929D02*
D03*
X4803150Y4901575D02*
D03*
X4771654D02*
D03*
X5141732Y4283465D02*
D03*
X5173228D02*
D03*
X5086614Y4468504D02*
D03*
X5118110D02*
D03*
X4515748Y3657480D02*
D03*
X4547244D02*
D03*
X5248032Y3460630D02*
D03*
X5216535D02*
D03*
X5358268Y3401575D02*
D03*
X5389764D02*
D03*
X5314961Y3555118D02*
D03*
X5346457D02*
D03*
X5358268Y3354331D02*
D03*
X5389764D02*
D03*
X5357283Y4566929D02*
D03*
X5325787D02*
D03*
X5249382Y4726378D02*
D03*
X5217886D02*
D03*
X5248032Y3413386D02*
D03*
X5216535D02*
D03*
X5391114Y4785433D02*
D03*
X5359618D02*
D03*
X5157480Y3669291D02*
D03*
X5125984D02*
D03*
X5027559Y3858268D02*
D03*
X5059055D02*
D03*
X5249382Y4679134D02*
D03*
X5217886D02*
D03*
X5391114Y4738189D02*
D03*
X5359618D02*
D03*
D123*
X4511811Y4275591D02*
D03*
Y4330709D02*
D03*
D124*
X4511811Y4433071D02*
D03*
Y4377953D02*
D03*
X5299212Y4059055D02*
D03*
Y4114173D02*
D03*
X5480315Y4090551D02*
D03*
Y4145669D02*
D03*
X4456693Y3783465D02*
D03*
Y3728347D02*
D03*
X5043307Y3342520D02*
D03*
Y3287402D02*
D03*
X3476378Y3346457D02*
D03*
Y3401575D02*
D03*
X3535433Y3472441D02*
D03*
Y3527559D02*
D03*
X4854331Y3728347D02*
D03*
Y3673228D02*
D03*
X5181102Y4129921D02*
D03*
Y4185039D02*
D03*
D125*
X4665354Y4399606D02*
D03*
Y4474409D02*
D03*
X4570866D02*
D03*
Y4437008D02*
D03*
Y4399606D02*
D03*
D126*
X4645669Y4338583D02*
D03*
X4590551D02*
D03*
X4779528Y4165354D02*
D03*
X4724409D02*
D03*
X4629921Y4165354D02*
D03*
X4685039D02*
D03*
X4610236Y3830709D02*
D03*
X4665354D02*
D03*
X4700787Y3539370D02*
D03*
X4755905D02*
D03*
X4795276Y3543307D02*
D03*
X4850394D02*
D03*
X4996063Y4653543D02*
D03*
X5051181D02*
D03*
D127*
X4860236Y4023622D02*
D03*
X4824803D02*
D03*
X5320866Y4358268D02*
D03*
X5356299D02*
D03*
X5356299Y4322835D02*
D03*
X5320866D02*
D03*
X5462598Y3452756D02*
D03*
X5498031D02*
D03*
X5458661Y4637795D02*
D03*
X5494094D02*
D03*
X5431102Y4594488D02*
D03*
X5395669D02*
D03*
X5356299Y3783465D02*
D03*
X5320866D02*
D03*
X5320866Y3818898D02*
D03*
X5356299D02*
D03*
X5261811Y3633858D02*
D03*
X5226378D02*
D03*
X5226378Y3673228D02*
D03*
X5261811D02*
D03*
X5285433Y4311024D02*
D03*
X5250000D02*
D03*
X5320866Y3748032D02*
D03*
X5285433D02*
D03*
D128*
X4196850Y4693898D02*
D03*
Y4719488D02*
D03*
Y4745079D02*
D03*
Y4770669D02*
D03*
Y4796260D02*
D03*
Y4821850D02*
D03*
Y4847441D02*
D03*
Y4873032D02*
D03*
X4417323Y4693898D02*
D03*
Y4719488D02*
D03*
Y4745079D02*
D03*
Y4770669D02*
D03*
Y4796260D02*
D03*
Y4821850D02*
D03*
Y4847441D02*
D03*
Y4873032D02*
D03*
D129*
X4240158Y4525591D02*
D03*
Y4545275D02*
D03*
Y4564961D02*
D03*
Y4584646D02*
D03*
X4358268Y4525591D02*
D03*
Y4545275D02*
D03*
Y4564961D02*
D03*
Y4584646D02*
D03*
D130*
X5352362Y4157480D02*
D03*
X5389764D02*
D03*
X5427165D02*
D03*
Y4062992D02*
D03*
X5352362D02*
D03*
D131*
X4791339Y3433071D02*
D03*
X4716535Y4062992D02*
D03*
D132*
X4733268Y3471457D02*
D03*
Y3445866D02*
D03*
Y3420276D02*
D03*
Y3394685D02*
D03*
X4849410D02*
D03*
Y3420276D02*
D03*
Y3445866D02*
D03*
Y3471457D02*
D03*
X4774606Y4101378D02*
D03*
Y4075787D02*
D03*
Y4050197D02*
D03*
Y4024606D02*
D03*
X4658465D02*
D03*
Y4050197D02*
D03*
Y4075787D02*
D03*
Y4101378D02*
D03*
D133*
X5034449Y4339567D02*
D03*
Y4365158D02*
D03*
Y4390748D02*
D03*
Y4416339D02*
D03*
X5193898Y4339567D02*
D03*
Y4365158D02*
D03*
Y4390748D02*
D03*
Y4416339D02*
D03*
X5030512Y3725394D02*
D03*
Y3750984D02*
D03*
Y3776575D02*
D03*
Y3802165D02*
D03*
X5189961Y3725394D02*
D03*
Y3750984D02*
D03*
Y3776575D02*
D03*
Y3802165D02*
D03*
D134*
X3551181Y3295276D02*
D03*
Y3185039D02*
D03*
D135*
X3669291Y3177559D02*
D03*
Y3098032D02*
D03*
D136*
X6477362Y3002756D02*
D03*
Y2784646D02*
D03*
Y5364960D02*
D03*
Y5146850D02*
D03*
Y4420079D02*
D03*
Y4201968D02*
D03*
Y3947638D02*
D03*
Y3729528D02*
D03*
Y3475197D02*
D03*
Y3257087D02*
D03*
Y4892520D02*
D03*
Y4674409D02*
D03*
D137*
X3858268Y4176378D02*
D03*
Y4376378D02*
D03*
Y4276378D02*
D03*
Y4076378D02*
D03*
Y3976378D02*
D03*
Y3876378D02*
D03*
D138*
Y4476378D02*
D03*
D139*
X5975000Y5075000D02*
D03*
X5875000D02*
D03*
X5775000D02*
D03*
X5675000D02*
D03*
X5575000D02*
D03*
X5475000D02*
D03*
X5375000D02*
D03*
X5275000D02*
D03*
X5175000D02*
D03*
X5075000D02*
D03*
X4975000D02*
D03*
X4875000D02*
D03*
X4775000D02*
D03*
X4675000D02*
D03*
X4575000D02*
D03*
X4475000D02*
D03*
X4375000D02*
D03*
X4275000D02*
D03*
X4175000D02*
D03*
X4075000D02*
D03*
X3975000D02*
D03*
X3875000D02*
D03*
X3775000D02*
D03*
X5975000Y4975000D02*
D03*
X5875000D02*
D03*
X5775000D02*
D03*
X5675000D02*
D03*
X5575000D02*
D03*
X5475000D02*
D03*
X5375000D02*
D03*
X5275000D02*
D03*
X5175000D02*
D03*
X5075000D02*
D03*
X4975000D02*
D03*
X4875000D02*
D03*
X4775000D02*
D03*
X4675000D02*
D03*
X4575000D02*
D03*
X4475000D02*
D03*
X4375000D02*
D03*
X4275000D02*
D03*
X4175000D02*
D03*
X4075000D02*
D03*
X3975000D02*
D03*
X3875000D02*
D03*
Y3075000D02*
D03*
X3975000D02*
D03*
X4075000D02*
D03*
X4175000D02*
D03*
X4275000D02*
D03*
X4375000D02*
D03*
X4475000D02*
D03*
X4575000D02*
D03*
X4675000D02*
D03*
X4775000D02*
D03*
X4875000D02*
D03*
X4975000D02*
D03*
X5075000D02*
D03*
X5175000D02*
D03*
X5275000D02*
D03*
X5375000D02*
D03*
X5475000D02*
D03*
X5575000D02*
D03*
X5675000D02*
D03*
X5775000D02*
D03*
X5875000D02*
D03*
X5975000D02*
D03*
X3775000Y3175000D02*
D03*
X3875000D02*
D03*
X3975000D02*
D03*
X4075000D02*
D03*
X4175000D02*
D03*
X4275000D02*
D03*
X4375000D02*
D03*
X4475000D02*
D03*
X4575000D02*
D03*
X4675000D02*
D03*
X4775000D02*
D03*
X4875000D02*
D03*
X4975000D02*
D03*
X5075000D02*
D03*
X5175000D02*
D03*
X5275000D02*
D03*
X5375000D02*
D03*
X5475000D02*
D03*
X5575000D02*
D03*
X5675000D02*
D03*
X5775000D02*
D03*
X5875000D02*
D03*
X5975000D02*
D03*
D140*
X3775000Y4975000D02*
D03*
Y3075000D02*
D03*
%TF.MD5,b0ee6ecac036cf5a56c628f5a8b27637*%
M02*
