G04 Layer_Physical_Order=2*
G04 Layer_Color=16440176*
%FSLAX26Y26*%
%MOIN*%
%TF.FileFunction,Copper,L2,Inr,Signal*%
%TF.Part,Single*%
G01*
G75*
%TA.AperFunction,Conductor*%
%ADD77C,0.007874*%
%ADD78C,0.039370*%
%ADD79C,0.013780*%
%TA.AperFunction,ComponentPad*%
%ADD91C,0.055118*%
%ADD92R,0.055118X0.055118*%
%ADD93C,0.060000*%
%ADD94R,0.060000X0.060000*%
%TA.AperFunction,ViaPad*%
%ADD95C,0.023622*%
%ADD96C,0.017716*%
G36*
X6140005Y3465010D02*
X6149606Y3463101D01*
X6164508D01*
X6167180Y3458101D01*
X6165341Y3455347D01*
X6164042Y3448819D01*
X6165341Y3442290D01*
X6169039Y3436756D01*
X6174574Y3433057D01*
X6181102Y3431759D01*
X6187631Y3433057D01*
X6193166Y3436756D01*
X6196864Y3442290D01*
X6198162Y3448819D01*
X6196864Y3455347D01*
X6195024Y3458101D01*
X6197697Y3463101D01*
X6229766D01*
X6320842Y3372024D01*
X6320842Y3372024D01*
X6344464Y3348402D01*
X6344465Y3348402D01*
X6372023Y3320843D01*
X6372024Y3320843D01*
X6380163Y3315404D01*
X6389764Y3313494D01*
X6389764Y3313494D01*
X6457290D01*
X6459318Y3311023D01*
X6460617Y3304495D01*
X6464315Y3298960D01*
X6469849Y3295262D01*
X6476378Y3293963D01*
X6482907Y3295262D01*
X6488441Y3298960D01*
X6492140Y3304495D01*
X6493438Y3311023D01*
X6495466Y3313494D01*
X6535434D01*
X6545034Y3315404D01*
X6549887Y3318646D01*
X6554887Y3315974D01*
Y2943869D01*
X6549887Y2941196D01*
X6545034Y2944439D01*
X6535434Y2946348D01*
X6495466D01*
X6493438Y2948819D01*
X6492140Y2955347D01*
X6488441Y2960882D01*
X6482907Y2964580D01*
X6476378Y2965879D01*
X6469849Y2964580D01*
X6464315Y2960882D01*
X6460617Y2955347D01*
X6459318Y2948819D01*
X6457290Y2946348D01*
X6385827D01*
X6385827Y2946348D01*
X6376226Y2944439D01*
X6368087Y2939000D01*
X6343939Y2914852D01*
X6215116D01*
X6092017Y3037951D01*
Y3318898D01*
Y3347876D01*
X6123055Y3378913D01*
X6128494Y3387053D01*
X6130403Y3396653D01*
X6130403Y3396654D01*
Y3465413D01*
X6130751Y3465770D01*
X6134935Y3468398D01*
X6140005Y3465010D01*
D02*
G37*
G36*
X6375961Y5206669D02*
X6384100Y5201231D01*
X6393701Y5199321D01*
X6467484D01*
X6468490Y5194259D01*
X6472189Y5188724D01*
X6477723Y5185026D01*
X6484252Y5183727D01*
X6490781Y5185026D01*
X6496315Y5188724D01*
X6500014Y5194259D01*
X6501020Y5199321D01*
X6531497D01*
X6541097Y5201231D01*
X6549237Y5206669D01*
X6549887Y5207320D01*
X6554887Y5205249D01*
Y4833632D01*
X6549887Y4830960D01*
X6545034Y4834202D01*
X6535434Y4836112D01*
X6495466D01*
X6493438Y4838583D01*
X6492140Y4845111D01*
X6488441Y4850646D01*
X6482907Y4854344D01*
X6476378Y4855643D01*
X6469849Y4854344D01*
X6464315Y4850646D01*
X6460617Y4845111D01*
X6459318Y4838583D01*
X6457290Y4836112D01*
X6385827D01*
X6376226Y4834202D01*
X6368087Y4828764D01*
X6348402Y4809079D01*
X6316905Y4777583D01*
X6249450Y4710128D01*
X6244095D01*
X6234493Y4708218D01*
X6226354Y4702779D01*
X6206669Y4683095D01*
X6206669Y4683095D01*
X6206669Y4683094D01*
X6165789Y4642214D01*
X6140886D01*
X6138214Y4647214D01*
X6141289Y4651816D01*
X6143199Y4661417D01*
X6141289Y4671018D01*
X6135850Y4679158D01*
X6127711Y4684596D01*
X6118110Y4686506D01*
X6056139D01*
X6055132Y4691568D01*
X6051433Y4697103D01*
X6045899Y4700801D01*
X6039370Y4702100D01*
X6032842Y4700801D01*
X6027307Y4697103D01*
X6026361Y4695688D01*
X6021385Y4695198D01*
X5997529Y4719053D01*
Y4735046D01*
X6005664Y4736664D01*
X6013803Y4742102D01*
X6048755Y4777054D01*
X6054517Y4771292D01*
X6053806Y4767717D01*
X6055105Y4761188D01*
X6058803Y4755653D01*
X6064337Y4751955D01*
X6070866Y4750656D01*
X6077395Y4751955D01*
X6082929Y4755653D01*
X6086628Y4761188D01*
X6087926Y4767717D01*
X6086628Y4774245D01*
X6082929Y4779780D01*
X6077395Y4783478D01*
X6070866Y4784777D01*
X6067290Y4784065D01*
X6061528Y4789827D01*
X6068921Y4797220D01*
X6074360Y4805360D01*
X6076270Y4814961D01*
Y5040789D01*
X6266297Y5230817D01*
X6351813D01*
X6375961Y5206669D01*
D02*
G37*
G36*
X6554887Y5302136D02*
X6549887Y5299464D01*
X6545034Y5302706D01*
X6535434Y5304616D01*
X6500041D01*
X6496869Y5308481D01*
X6497375Y5311024D01*
X6496077Y5317552D01*
X6492378Y5323087D01*
X6486844Y5326785D01*
X6480315Y5328084D01*
X6473786Y5326785D01*
X6468252Y5323087D01*
X6464553Y5317552D01*
X6463255Y5311024D01*
X6463761Y5308481D01*
X6460589Y5304616D01*
X6389764D01*
X6380163Y5302706D01*
X6372024Y5297268D01*
X6355750Y5280994D01*
X6255905D01*
X6246305Y5279084D01*
X6238165Y5273646D01*
X6033441Y5068921D01*
X6028002Y5060782D01*
X6026093Y5051181D01*
Y4825353D01*
X6005356Y4804616D01*
X5972441D01*
X5962840Y4802706D01*
X5954701Y4797268D01*
X5949262Y4789128D01*
X5947352Y4779528D01*
Y4759842D01*
Y4708661D01*
X5949262Y4699060D01*
X5954701Y4690921D01*
X6001945Y4643677D01*
X6010084Y4638239D01*
X6019685Y4636329D01*
X6022602D01*
X6023609Y4631267D01*
X6027307Y4625732D01*
X6032842Y4622034D01*
X6039370Y4620735D01*
X6044556Y4621767D01*
X6049016Y4618561D01*
X6048730Y4617126D01*
Y4609587D01*
X6047687Y4608026D01*
X6045778Y4598425D01*
X6047687Y4588824D01*
X6053126Y4580685D01*
X6061265Y4575247D01*
X6070866Y4573337D01*
X6181102D01*
X6190703Y4575247D01*
X6198842Y4580685D01*
X6210654Y4592496D01*
X6216092Y4600635D01*
X6218002Y4610236D01*
Y4623466D01*
X6235763Y4641228D01*
X6237708Y4639283D01*
X6240638Y4637325D01*
X6241467Y4637160D01*
X6243842Y4633606D01*
X6249377Y4629908D01*
X6255905Y4628609D01*
X6262434Y4629908D01*
X6267969Y4633606D01*
X6271667Y4639141D01*
X6272966Y4645669D01*
X6271667Y4652198D01*
X6268714Y4656618D01*
X6269249Y4660460D01*
X6270117Y4662311D01*
X6277583Y4667299D01*
X6345038Y4734754D01*
X6456652D01*
X6459824Y4730889D01*
X6459318Y4728346D01*
X6460617Y4721818D01*
X6464315Y4716283D01*
X6469849Y4712585D01*
X6476378Y4711286D01*
X6482907Y4712585D01*
X6488441Y4716283D01*
X6492140Y4721818D01*
X6493438Y4728346D01*
X6492932Y4730889D01*
X6496104Y4734754D01*
X6535434D01*
X6545034Y4736664D01*
X6549887Y4739906D01*
X6554887Y4737234D01*
Y3412373D01*
X6549887Y3409700D01*
X6545034Y3412943D01*
X6535434Y3414852D01*
X6496104D01*
X6492932Y3418717D01*
X6493438Y3421260D01*
X6492140Y3427788D01*
X6488441Y3433323D01*
X6482907Y3437021D01*
X6476378Y3438320D01*
X6469849Y3437021D01*
X6464315Y3433323D01*
X6460617Y3427788D01*
X6459318Y3421260D01*
X6459824Y3418717D01*
X6456652Y3414852D01*
X6348975D01*
X6257898Y3505929D01*
X6214591Y3549236D01*
X6206451Y3554675D01*
X6196850Y3556584D01*
X6051181D01*
X6041580Y3554675D01*
X6033441Y3549236D01*
X6028002Y3541097D01*
X6026093Y3531496D01*
X6028002Y3521895D01*
X6033441Y3513756D01*
X6041580Y3508317D01*
X6051181Y3506408D01*
X6054976D01*
X6055118Y3501466D01*
X6045517Y3499557D01*
X6037378Y3494118D01*
X6031939Y3485979D01*
X6030030Y3476378D01*
Y3404093D01*
X6005882Y3379945D01*
X6000443Y3371806D01*
X5998534Y3362205D01*
X6000443Y3352604D01*
X6005882Y3344465D01*
X6041841Y3308506D01*
Y3027559D01*
X6043750Y3017958D01*
X6048401Y3010997D01*
X6045266Y3006884D01*
X6043213Y3007735D01*
X6042050Y3007966D01*
X6040954Y3008420D01*
X6025815Y3011431D01*
X6024922D01*
X6024056Y3011648D01*
X6016339Y3012027D01*
X6016042Y3011983D01*
X6015748Y3012042D01*
X3199977Y3012042D01*
X3187659Y3012042D01*
X3163231Y3015258D01*
X3139434Y3021635D01*
X3116671Y3031064D01*
X3095335Y3043383D01*
X3075789Y3058383D01*
X3058369Y3075805D01*
X3043372Y3095353D01*
X3031054Y3116691D01*
X3021628Y3139453D01*
X3015254Y3163253D01*
X3012040Y3187679D01*
X3012042Y3199998D01*
X3012042Y3199999D01*
X3012042Y3200000D01*
X3012042Y3775000D01*
X3012041Y3775005D01*
X3012042Y3775010D01*
X3012039Y3778748D01*
X3013493Y3786082D01*
X3016352Y3792991D01*
X3020504Y3799208D01*
X3025792Y3804495D01*
X3032009Y3808648D01*
X3038918Y3811506D01*
X3046252Y3812961D01*
X3049990Y3812958D01*
X3049995Y3812959D01*
X3050000Y3812958D01*
X3799999Y3812958D01*
X3804608Y3813875D01*
X3808515Y3816485D01*
X3811125Y3820392D01*
X3812042Y3825001D01*
Y4524687D01*
X3812469Y4525128D01*
X3813454Y4526113D01*
X3814454Y4527081D01*
X3814960Y4527559D01*
X3814809Y4529858D01*
X3812907Y4534056D01*
X3809647Y4537316D01*
X3805449Y4539218D01*
X3803150Y4539369D01*
X3803149Y4539370D01*
X3798494Y4537042D01*
X3275000Y4537042D01*
X3274999Y4537042D01*
X3274998Y4537042D01*
X3271259Y4537041D01*
X3263925Y4538499D01*
X3257018Y4541360D01*
X3250801Y4545514D01*
X3245514Y4550801D01*
X3241360Y4557018D01*
X3238499Y4563926D01*
X3237041Y4571260D01*
X3237042Y4574998D01*
X3237042Y4574999D01*
X3237042Y4575000D01*
X3237041Y5099952D01*
X3237069Y5103650D01*
X3238582Y5110972D01*
X3241496Y5117858D01*
X3245698Y5124043D01*
X3251027Y5129288D01*
X3257277Y5133393D01*
X3264208Y5136198D01*
X3271553Y5137596D01*
X3275292Y5137565D01*
X3275343Y5137574D01*
X3275393Y5137564D01*
X6015748Y5137565D01*
X6016042Y5137623D01*
X6016339Y5137579D01*
X6024056Y5137958D01*
X6024922Y5138175D01*
X6025815D01*
X6040954Y5141186D01*
X6042050Y5141640D01*
X6043213Y5141871D01*
X6057474Y5147778D01*
X6058460Y5148437D01*
X6059556Y5148891D01*
X6072391Y5157466D01*
X6073229Y5158305D01*
X6074216Y5158964D01*
X6085130Y5169879D01*
X6085789Y5170865D01*
X6086628Y5171704D01*
X6095204Y5184538D01*
X6095658Y5185634D01*
X6096317Y5186620D01*
X6102223Y5200881D01*
X6102455Y5202044D01*
X6102909Y5203140D01*
X6105920Y5218279D01*
Y5219172D01*
X6106137Y5220038D01*
X6106516Y5227756D01*
X6106471Y5228052D01*
X6106530Y5228346D01*
X6106530Y5346457D01*
X6106530Y5351475D01*
X6108488Y5361318D01*
X6112329Y5370591D01*
X6117904Y5378936D01*
X6125001Y5386032D01*
X6133346Y5391608D01*
X6142619Y5395449D01*
X6152461Y5397407D01*
X6157480Y5397407D01*
X6554887Y5397407D01*
Y5302136D01*
D02*
G37*
G36*
X6186984Y2872024D02*
X6195123Y2866585D01*
X6204724Y2864675D01*
X6363624D01*
X6383834Y2844465D01*
X6383835Y2844465D01*
X6391974Y2839026D01*
X6401575Y2837116D01*
X6401575Y2837116D01*
X6455672D01*
X6456679Y2832054D01*
X6460378Y2826519D01*
X6465912Y2822821D01*
X6472441Y2821523D01*
X6478970Y2822821D01*
X6484504Y2826519D01*
X6488202Y2832054D01*
X6489209Y2837116D01*
X6535434D01*
X6545034Y2839026D01*
X6549887Y2842269D01*
X6554887Y2839596D01*
Y2752199D01*
X6196850Y2752200D01*
X6187954Y2752199D01*
X6170504Y2755670D01*
X6154067Y2762479D01*
X6139274Y2772363D01*
X6126694Y2784944D01*
X6116809Y2799737D01*
X6110001Y2816174D01*
X6106530Y2833623D01*
X6106530Y2842519D01*
X6106530Y2921260D01*
X6106472Y2921554D01*
X6106516Y2921851D01*
X6106136Y2929569D01*
X6105919Y2930434D01*
Y2931326D01*
X6102908Y2946465D01*
X6102454Y2947561D01*
X6102223Y2948724D01*
X6101427Y2950646D01*
X6105584Y2953423D01*
X6186984Y2872024D01*
D02*
G37*
%LPC*%
G36*
X6139764Y4782808D02*
X6133235Y4781510D01*
X6127701Y4777811D01*
X6124002Y4772277D01*
X6122704Y4765748D01*
X6124002Y4759220D01*
X6127701Y4753685D01*
X6133235Y4749987D01*
X6139764Y4748688D01*
X6146292Y4749987D01*
X6151827Y4753685D01*
X6155525Y4759220D01*
X6156824Y4765748D01*
X6155525Y4772277D01*
X6151827Y4777811D01*
X6146292Y4781510D01*
X6139764Y4782808D01*
D02*
G37*
G36*
X6145669Y4729658D02*
X6139141Y4728360D01*
X6133606Y4724662D01*
X6129908Y4719127D01*
X6128609Y4712598D01*
X6129908Y4706070D01*
X6133606Y4700535D01*
X6139141Y4696837D01*
X6145669Y4695538D01*
X6152198Y4696837D01*
X6157733Y4700535D01*
X6161431Y4706070D01*
X6162729Y4712598D01*
X6161431Y4719127D01*
X6157733Y4724662D01*
X6152198Y4728360D01*
X6145669Y4729658D01*
D02*
G37*
G36*
X5907480Y3597769D02*
X5900952Y3596470D01*
X5895417Y3592772D01*
X5891719Y3587237D01*
X5890420Y3580709D01*
X5891719Y3574180D01*
X5895417Y3568645D01*
X5900952Y3564947D01*
X5907480Y3563648D01*
X5914009Y3564947D01*
X5919543Y3568645D01*
X5923242Y3574180D01*
X5924540Y3580709D01*
X5923242Y3587237D01*
X5919543Y3592772D01*
X5914009Y3596470D01*
X5907480Y3597769D01*
D02*
G37*
G36*
X4212598Y3584916D02*
X4207222Y3583846D01*
X4202664Y3580801D01*
X4199618Y3576243D01*
X4198549Y3570866D01*
X4199618Y3565490D01*
X4202664Y3560932D01*
X4207222Y3557886D01*
X4212598Y3556817D01*
X4217975Y3557886D01*
X4222533Y3560932D01*
X4225578Y3565490D01*
X4226648Y3570866D01*
X4225578Y3576243D01*
X4222533Y3580801D01*
X4217975Y3583846D01*
X4212598Y3584916D01*
D02*
G37*
G36*
X4901575Y3627296D02*
X4895046Y3625998D01*
X4889511Y3622300D01*
X4885813Y3616765D01*
X4884515Y3610236D01*
X4885813Y3603708D01*
X4889511Y3598173D01*
X4895046Y3594475D01*
X4901575Y3593176D01*
X4908103Y3594475D01*
X4913638Y3598173D01*
X4917336Y3603708D01*
X4918635Y3610236D01*
X4917336Y3616765D01*
X4913638Y3622300D01*
X4908103Y3625998D01*
X4901575Y3627296D01*
D02*
G37*
G36*
X4125984Y3616412D02*
X4120608Y3615342D01*
X4116050Y3612297D01*
X4113004Y3607739D01*
X4111935Y3602362D01*
X4113004Y3596986D01*
X4116050Y3592428D01*
X4120608Y3589382D01*
X4125984Y3588313D01*
X4126473Y3588410D01*
X4127065Y3588086D01*
X4130322Y3584077D01*
X4129651Y3580709D01*
X4130721Y3575332D01*
X4133766Y3570774D01*
X4138324Y3567729D01*
X4143701Y3566659D01*
X4149077Y3567729D01*
X4153635Y3570774D01*
X4156681Y3575332D01*
X4157750Y3580709D01*
X4156802Y3585478D01*
X4158494Y3587560D01*
X4160577Y3589254D01*
X4165346Y3588305D01*
X4170722Y3589375D01*
X4175280Y3592421D01*
X4178326Y3596979D01*
X4179395Y3602355D01*
X4178326Y3607731D01*
X4175280Y3612289D01*
X4170722Y3615335D01*
X4165346Y3616405D01*
X4159970Y3615335D01*
X4155412Y3612289D01*
X4152366Y3607731D01*
X4151297Y3602355D01*
X4152245Y3597585D01*
X4150553Y3595504D01*
X4148470Y3593809D01*
X4143701Y3594758D01*
X4143212Y3594661D01*
X4142620Y3594985D01*
X4139364Y3598993D01*
X4140034Y3602362D01*
X4138964Y3607739D01*
X4135919Y3612297D01*
X4131361Y3615342D01*
X4125984Y3616412D01*
D02*
G37*
G36*
X4051181Y3620349D02*
X4045805Y3619279D01*
X4041247Y3616234D01*
X4038201Y3611676D01*
X4037132Y3606299D01*
X4038201Y3600923D01*
X4041247Y3596365D01*
X4044470Y3594211D01*
X4045219Y3588941D01*
X4045184Y3588675D01*
X4042138Y3584117D01*
X4041069Y3578740D01*
X4042138Y3573364D01*
X4045184Y3568806D01*
X4049742Y3565760D01*
X4055118Y3564691D01*
X4060495Y3565760D01*
X4065053Y3568806D01*
X4068098Y3573364D01*
X4068292Y3574340D01*
X4069928Y3575200D01*
X4073725Y3576023D01*
X4077301Y3573634D01*
X4082677Y3572565D01*
X4088054Y3573634D01*
X4092250Y3570866D01*
X4093319Y3565490D01*
X4096365Y3560932D01*
X4100923Y3557886D01*
X4106299Y3556817D01*
X4111676Y3557886D01*
X4116234Y3560932D01*
X4119279Y3565490D01*
X4120349Y3570866D01*
X4119279Y3576243D01*
X4116234Y3580801D01*
X4111676Y3583846D01*
X4106299Y3584916D01*
X4100923Y3583846D01*
X4096727Y3586614D01*
X4095657Y3591991D01*
X4092612Y3596549D01*
X4088054Y3599594D01*
X4082677Y3600664D01*
X4077301Y3599594D01*
X4072743Y3596549D01*
X4070075Y3592556D01*
X4065939Y3591129D01*
X4064821Y3590873D01*
X4061497Y3593168D01*
X4061080Y3596099D01*
X4061116Y3596365D01*
X4064161Y3600923D01*
X4065231Y3606299D01*
X4064161Y3611676D01*
X4061116Y3616234D01*
X4056558Y3619279D01*
X4051181Y3620349D01*
D02*
G37*
G36*
X3122047Y3611548D02*
X3115519Y3610250D01*
X3109984Y3606552D01*
X3106286Y3601017D01*
X3104987Y3594488D01*
X3106286Y3587960D01*
X3109984Y3582425D01*
Y3578992D01*
X3106286Y3573458D01*
X3104987Y3566929D01*
X3106286Y3560401D01*
X3109815Y3555118D01*
X3106286Y3549836D01*
X3104987Y3543307D01*
X3106286Y3536778D01*
X3109984Y3531244D01*
X3115519Y3527546D01*
X3122047Y3526247D01*
X3128576Y3527546D01*
X3134110Y3531244D01*
X3137809Y3536778D01*
X3139107Y3543307D01*
X3137809Y3549836D01*
X3134279Y3555118D01*
X3137809Y3560401D01*
X3139107Y3566929D01*
X3137809Y3573458D01*
X3134110Y3578992D01*
Y3582425D01*
X3137809Y3587960D01*
X3139107Y3594488D01*
X3137809Y3601017D01*
X3134110Y3606552D01*
X3128576Y3610250D01*
X3122047Y3611548D01*
D02*
G37*
G36*
X4255897Y3553412D02*
X4250520Y3552343D01*
X4245962Y3549298D01*
X4242917Y3544740D01*
X4241847Y3539363D01*
X4242917Y3533986D01*
X4245962Y3529428D01*
X4250520Y3526383D01*
X4255897Y3525314D01*
X4261274Y3526383D01*
X4265832Y3529428D01*
X4268877Y3533986D01*
X4269947Y3539363D01*
X4268877Y3544740D01*
X4265832Y3549298D01*
X4261274Y3552343D01*
X4255897Y3553412D01*
D02*
G37*
G36*
X4956693Y3556430D02*
X4950164Y3555132D01*
X4944882Y3551602D01*
X4939600Y3555132D01*
X4933071Y3556430D01*
X4926542Y3555132D01*
X4921260Y3551602D01*
X4915977Y3555132D01*
X4909449Y3556430D01*
X4902920Y3555132D01*
X4897386Y3551433D01*
X4893687Y3545899D01*
X4892389Y3539370D01*
X4893687Y3532841D01*
X4897386Y3527307D01*
X4902920Y3523609D01*
X4909449Y3522310D01*
X4915977Y3523609D01*
X4921260Y3527138D01*
X4926542Y3523609D01*
X4933071Y3522310D01*
X4939600Y3523609D01*
X4944882Y3527138D01*
X4950164Y3523609D01*
X4956693Y3522310D01*
X4963221Y3523609D01*
X4968756Y3527307D01*
X4972454Y3532841D01*
X4973753Y3539370D01*
X4972454Y3545899D01*
X4968756Y3551433D01*
X4963221Y3555132D01*
X4956693Y3556430D01*
D02*
G37*
G36*
X5003937Y3557357D02*
X4998560Y3556287D01*
X4994002Y3553242D01*
X4990957Y3548684D01*
X4989887Y3543307D01*
X4990957Y3537931D01*
X4994002Y3533373D01*
X4998560Y3530327D01*
X5003937Y3529258D01*
X5009314Y3530327D01*
X5013872Y3533373D01*
X5016917Y3537931D01*
X5017986Y3543307D01*
X5016917Y3548684D01*
X5013872Y3553242D01*
X5009314Y3556287D01*
X5003937Y3557357D01*
D02*
G37*
G36*
X5562992Y3684383D02*
X5556463Y3683084D01*
X5550929Y3679386D01*
X5547231Y3673851D01*
X5545932Y3667323D01*
X5547231Y3660794D01*
X5550929Y3655260D01*
X5556463Y3651561D01*
X5562992Y3650263D01*
X5569521Y3651561D01*
X5575055Y3655260D01*
X5578754Y3660794D01*
X5580052Y3667323D01*
X5578754Y3673851D01*
X5575055Y3679386D01*
X5569521Y3683084D01*
X5562992Y3684383D01*
D02*
G37*
G36*
X5803138Y3674533D02*
X5796609Y3673235D01*
X5791075Y3669536D01*
X5787377Y3664002D01*
X5786078Y3657473D01*
X5787377Y3650944D01*
X5791075Y3645410D01*
X5796609Y3641711D01*
X5803138Y3640413D01*
X5809667Y3641711D01*
X5815201Y3645410D01*
X5818900Y3650944D01*
X5820198Y3657473D01*
X5818900Y3664002D01*
X5815201Y3669536D01*
X5809667Y3673235D01*
X5803138Y3674533D01*
D02*
G37*
G36*
X3885819Y3714829D02*
X3880443Y3713760D01*
X3875885Y3710715D01*
X3872839Y3706157D01*
X3871769Y3700780D01*
X3872839Y3695403D01*
X3875885Y3690845D01*
X3880443Y3687800D01*
X3885819Y3686731D01*
X3891195Y3687800D01*
X3895753Y3690845D01*
X3898799Y3695403D01*
X3899869Y3700780D01*
X3898799Y3706157D01*
X3895753Y3710715D01*
X3891195Y3713760D01*
X3885819Y3714829D01*
D02*
G37*
G36*
X3917323Y3691215D02*
X3911946Y3690145D01*
X3907388Y3687100D01*
X3904343Y3682542D01*
X3903273Y3677166D01*
X3899077Y3674397D01*
X3893701Y3675467D01*
X3888324Y3674397D01*
X3883766Y3671352D01*
X3880721Y3666794D01*
X3879651Y3661417D01*
X3880721Y3656041D01*
X3883766Y3651483D01*
X3888324Y3648437D01*
X3893701Y3647368D01*
X3899077Y3648437D01*
X3903635Y3651483D01*
X3906681Y3656041D01*
X3907750Y3661417D01*
X3911946Y3664185D01*
X3917323Y3663116D01*
X3922699Y3664185D01*
X3927257Y3667231D01*
X3930303Y3671789D01*
X3931372Y3677165D01*
X3930303Y3682542D01*
X3927257Y3687100D01*
X3922699Y3690145D01*
X3917323Y3691215D01*
D02*
G37*
G36*
X4480315Y3659719D02*
X4474939Y3658649D01*
X4470381Y3655604D01*
X4467335Y3651046D01*
X4466266Y3645669D01*
X4467335Y3640293D01*
X4470381Y3635735D01*
X4474939Y3632689D01*
X4480315Y3631620D01*
X4485691Y3632689D01*
X4490249Y3635735D01*
X4493295Y3640293D01*
X4494364Y3645669D01*
X4493295Y3651046D01*
X4490249Y3655604D01*
X4485691Y3658649D01*
X4480315Y3659719D01*
D02*
G37*
G36*
X5000000Y3627296D02*
X4993471Y3625998D01*
X4987937Y3622300D01*
X4984239Y3616765D01*
X4982940Y3610236D01*
X4984239Y3603708D01*
X4987937Y3598173D01*
X4993471Y3594475D01*
X5000000Y3593176D01*
X5006529Y3594475D01*
X5012063Y3598173D01*
X5015761Y3603708D01*
X5017060Y3610236D01*
X5015761Y3616765D01*
X5012063Y3622300D01*
X5006529Y3625998D01*
X5000000Y3627296D01*
D02*
G37*
G36*
X4944882D02*
X4938353Y3625998D01*
X4932819Y3622300D01*
X4929120Y3616765D01*
X4927822Y3610236D01*
X4929120Y3603708D01*
X4932819Y3598173D01*
X4938353Y3594475D01*
X4944882Y3593176D01*
X4951410Y3594475D01*
X4956945Y3598173D01*
X4960643Y3603708D01*
X4961942Y3610236D01*
X4960643Y3616765D01*
X4956945Y3622300D01*
X4951410Y3625998D01*
X4944882Y3627296D01*
D02*
G37*
G36*
X5525862Y3650111D02*
X5519334Y3648813D01*
X5513799Y3645115D01*
X5510101Y3639580D01*
X5508802Y3633051D01*
X5510101Y3626523D01*
X5513799Y3620988D01*
X5519334Y3617290D01*
X5525862Y3615991D01*
X5532391Y3617290D01*
X5537926Y3620988D01*
X5541624Y3626523D01*
X5542922Y3633051D01*
X5541624Y3639580D01*
X5537926Y3645115D01*
X5532391Y3648813D01*
X5525862Y3650111D01*
D02*
G37*
G36*
X5129921Y3643044D02*
X5123393Y3641746D01*
X5117858Y3638048D01*
X5114160Y3632513D01*
X5112861Y3625984D01*
X5114160Y3619456D01*
X5117858Y3613921D01*
X5123393Y3610223D01*
X5129921Y3608924D01*
X5136450Y3610223D01*
X5141984Y3613921D01*
X5145683Y3619456D01*
X5146981Y3625984D01*
X5145683Y3632513D01*
X5141984Y3638048D01*
X5136450Y3641746D01*
X5129921Y3643044D01*
D02*
G37*
G36*
X4023622Y3426355D02*
X4020166Y3425667D01*
X4017236Y3423709D01*
X4015278Y3420779D01*
X4014590Y3417323D01*
Y3413386D01*
X4015278Y3409930D01*
X4017236Y3406999D01*
X4020166Y3405042D01*
X4023622Y3404354D01*
X4027078Y3405042D01*
X4030008Y3406999D01*
X4031966Y3409930D01*
X4032654Y3413386D01*
Y3417323D01*
X4031966Y3420779D01*
X4030008Y3423709D01*
X4027078Y3425667D01*
X4023622Y3426355D01*
D02*
G37*
G36*
X5476378Y3421491D02*
X5471770Y3420575D01*
X5467863Y3417964D01*
X5465252Y3414057D01*
X5464335Y3409449D01*
X5465252Y3404840D01*
X5467863Y3400934D01*
X5471806Y3396990D01*
X5475713Y3394379D01*
X5480322Y3393463D01*
X5484930Y3394379D01*
X5488837Y3396990D01*
X5491447Y3400897D01*
X5492364Y3405505D01*
X5491447Y3410113D01*
X5488837Y3414020D01*
X5484893Y3417964D01*
X5480986Y3420575D01*
X5476378Y3421491D01*
D02*
G37*
G36*
X4011811Y3465879D02*
X4005282Y3464580D01*
X3999748Y3460882D01*
X3996050Y3455347D01*
X3994751Y3448819D01*
X3996050Y3442290D01*
X3999748Y3436756D01*
X4005282Y3433057D01*
X4011811Y3431759D01*
X4018340Y3433057D01*
X4023874Y3436756D01*
X4027573Y3442290D01*
X4028871Y3448819D01*
X4027573Y3455347D01*
X4023874Y3460882D01*
X4018340Y3464580D01*
X4011811Y3465879D01*
D02*
G37*
G36*
X5098425Y3446194D02*
X5091897Y3444895D01*
X5086362Y3441197D01*
X5082664Y3435662D01*
X5081365Y3429134D01*
X5082664Y3422605D01*
X5086362Y3417071D01*
X5091897Y3413372D01*
X5098425Y3412074D01*
X5104954Y3413372D01*
X5110489Y3417071D01*
X5114187Y3422605D01*
X5115485Y3429134D01*
X5114187Y3435662D01*
X5110489Y3441197D01*
X5104954Y3444895D01*
X5098425Y3446194D01*
D02*
G37*
G36*
X4472441Y3414698D02*
X4465912Y3413399D01*
X4460378Y3409701D01*
X4456680Y3404166D01*
X4455381Y3397638D01*
X4456680Y3391109D01*
X4460378Y3385575D01*
X4465912Y3381876D01*
X4472441Y3380578D01*
X4478970Y3381876D01*
X4484504Y3385575D01*
X4488203Y3391109D01*
X4489501Y3397638D01*
X4488203Y3404166D01*
X4484504Y3409701D01*
X4478970Y3413399D01*
X4472441Y3414698D01*
D02*
G37*
G36*
X4196850Y3363517D02*
X4190322Y3362218D01*
X4184787Y3358520D01*
X4181089Y3352985D01*
X4179790Y3346457D01*
X4181089Y3339928D01*
X4184787Y3334393D01*
X4190322Y3330695D01*
X4196850Y3329397D01*
X4203379Y3330695D01*
X4208914Y3334393D01*
X4212612Y3339928D01*
X4213910Y3346457D01*
X4212612Y3352985D01*
X4208914Y3358520D01*
X4203379Y3362218D01*
X4196850Y3363517D01*
D02*
G37*
G36*
X5881890Y3359580D02*
X5875361Y3358281D01*
X5869827Y3354583D01*
X5866128Y3349048D01*
X5864830Y3342520D01*
X5866128Y3335991D01*
X5869827Y3330456D01*
X5875361Y3326758D01*
X5881890Y3325460D01*
X5888418Y3326758D01*
X5893953Y3330456D01*
X5897651Y3335991D01*
X5898950Y3342520D01*
X5897651Y3349048D01*
X5893953Y3354583D01*
X5888418Y3358281D01*
X5881890Y3359580D01*
D02*
G37*
G36*
X4027559Y3398950D02*
X4021030Y3397651D01*
X4015496Y3393953D01*
X4011798Y3388418D01*
X4010499Y3381890D01*
X4011798Y3375361D01*
X4015496Y3369827D01*
X4021030Y3366128D01*
X4027559Y3364830D01*
X4034088Y3366128D01*
X4039622Y3369827D01*
X4043321Y3375361D01*
X4044619Y3381890D01*
X4043321Y3388418D01*
X4039622Y3393953D01*
X4034088Y3397651D01*
X4027559Y3398950D01*
D02*
G37*
G36*
X4311024Y3360506D02*
X4305647Y3359437D01*
X4301089Y3356391D01*
X4298044Y3351833D01*
X4296974Y3346457D01*
X4298044Y3341080D01*
X4301089Y3336522D01*
X4305647Y3333477D01*
X4311024Y3332407D01*
X4316400Y3333477D01*
X4320958Y3336522D01*
X4324004Y3341080D01*
X4325073Y3346457D01*
X4324004Y3351833D01*
X4320958Y3356391D01*
X4316400Y3359437D01*
X4311024Y3360506D01*
D02*
G37*
G36*
X3917323Y3501312D02*
X3910794Y3500014D01*
X3905512Y3496484D01*
X3900229Y3500014D01*
X3893701Y3501312D01*
X3887172Y3500014D01*
X3881637Y3496315D01*
X3877939Y3490781D01*
X3876641Y3484252D01*
X3877939Y3477723D01*
X3881637Y3472189D01*
X3887172Y3468490D01*
X3893701Y3467192D01*
X3900229Y3468490D01*
X3905512Y3472020D01*
X3910794Y3468490D01*
X3917323Y3467192D01*
X3923851Y3468490D01*
X3928200Y3471396D01*
X3933432Y3467900D01*
X3939961Y3466601D01*
X3946489Y3467900D01*
X3952024Y3471598D01*
X3955722Y3477133D01*
X3957021Y3483661D01*
X3955722Y3490190D01*
X3952024Y3495725D01*
X3946489Y3499423D01*
X3939961Y3500722D01*
X3933432Y3499423D01*
X3929084Y3496517D01*
X3923851Y3500014D01*
X3917323Y3501312D01*
D02*
G37*
G36*
X5909449Y3517060D02*
X5902920Y3515762D01*
X5897386Y3512063D01*
X5893687Y3506529D01*
X5892389Y3500000D01*
X5893687Y3493471D01*
X5897386Y3487937D01*
X5902920Y3484238D01*
X5909449Y3482940D01*
X5915977Y3484238D01*
X5921512Y3487937D01*
X5925210Y3493471D01*
X5926509Y3500000D01*
X5925210Y3506529D01*
X5921512Y3512063D01*
X5915977Y3515762D01*
X5909449Y3517060D01*
D02*
G37*
G36*
X5240158Y3552493D02*
X5233629Y3551195D01*
X5228094Y3547496D01*
X5224396Y3541962D01*
X5223097Y3535433D01*
X5224396Y3528905D01*
X5228094Y3523370D01*
X5233629Y3519672D01*
X5240158Y3518373D01*
X5246686Y3519672D01*
X5252221Y3523370D01*
X5255919Y3528905D01*
X5257218Y3535433D01*
X5255919Y3541962D01*
X5252221Y3547496D01*
X5246686Y3551195D01*
X5240158Y3552493D01*
D02*
G37*
G36*
X4353346Y3537729D02*
X4346818Y3536431D01*
X4341283Y3532733D01*
X4337585Y3527198D01*
X4336286Y3520669D01*
X4337585Y3514141D01*
X4341283Y3508606D01*
X4346818Y3504908D01*
X4353346Y3503609D01*
X4359875Y3504908D01*
X4365410Y3508606D01*
X4369108Y3514141D01*
X4370407Y3520669D01*
X4369108Y3527198D01*
X4365410Y3532733D01*
X4359875Y3536431D01*
X4353346Y3537729D01*
D02*
G37*
G36*
X5370079Y3517060D02*
X5363550Y3515762D01*
X5358015Y3512063D01*
X5354317Y3506529D01*
X5353019Y3500000D01*
X5354317Y3493471D01*
X5358015Y3487937D01*
X5363550Y3484238D01*
X5370079Y3482940D01*
X5376607Y3484238D01*
X5382142Y3487937D01*
X5385840Y3493471D01*
X5387139Y3500000D01*
X5385840Y3506529D01*
X5382142Y3512063D01*
X5376607Y3515762D01*
X5370079Y3517060D01*
D02*
G37*
G36*
X5535433Y3513123D02*
X5528904Y3511825D01*
X5523370Y3508126D01*
X5519672Y3502592D01*
X5518373Y3496063D01*
X5519672Y3489534D01*
X5523370Y3484000D01*
X5528904Y3480302D01*
X5535433Y3479003D01*
X5541962Y3480302D01*
X5547496Y3484000D01*
X5551195Y3489534D01*
X5552493Y3496063D01*
X5551195Y3502592D01*
X5547496Y3508126D01*
X5541962Y3511825D01*
X5535433Y3513123D01*
D02*
G37*
G36*
X4464567Y3465879D02*
X4458038Y3464580D01*
X4452504Y3460882D01*
X4448805Y3455347D01*
X4447507Y3448819D01*
X4448805Y3442290D01*
X4452504Y3436756D01*
X4458038Y3433057D01*
X4464567Y3431759D01*
X4471096Y3433057D01*
X4476630Y3436756D01*
X4480328Y3442290D01*
X4481627Y3448819D01*
X4480328Y3455347D01*
X4476630Y3460882D01*
X4471096Y3464580D01*
X4464567Y3465879D01*
D02*
G37*
G36*
X4838583Y3517060D02*
X4832054Y3515762D01*
X4826519Y3512063D01*
X4822821Y3506529D01*
X4821523Y3500000D01*
X4822821Y3493471D01*
X4826519Y3487937D01*
X4832054Y3484238D01*
X4838583Y3482940D01*
X4845111Y3484238D01*
X4850646Y3487937D01*
X4854344Y3493471D01*
X4855643Y3500000D01*
X4854344Y3506529D01*
X4850646Y3512063D01*
X4845111Y3515762D01*
X4838583Y3517060D01*
D02*
G37*
G36*
X5728351Y3504168D02*
X5720472D01*
X5715864Y3503252D01*
X5711957Y3500641D01*
X5709347Y3496734D01*
X5708430Y3492126D01*
X5709347Y3487518D01*
X5711957Y3483611D01*
X5715864Y3481000D01*
X5720472Y3480084D01*
X5728351D01*
X5732959Y3481000D01*
X5736866Y3483611D01*
X5739477Y3487518D01*
X5740394Y3492126D01*
X5739477Y3496734D01*
X5736866Y3500641D01*
X5732959Y3503252D01*
X5728351Y3504168D01*
D02*
G37*
G36*
X4224409Y3726648D02*
X4219033Y3725579D01*
X4214475Y3722533D01*
X4211429Y3717975D01*
X4210360Y3712599D01*
X4211429Y3707222D01*
X4214475Y3702664D01*
X4219033Y3699619D01*
X4224409Y3698549D01*
X4229786Y3699619D01*
X4234344Y3702664D01*
X4237389Y3707222D01*
X4238459Y3712599D01*
X4237389Y3717975D01*
X4234344Y3722533D01*
X4229786Y3725579D01*
X4224409Y3726648D01*
D02*
G37*
G36*
X5362205Y3958005D02*
X5355676Y3956706D01*
X5350141Y3953008D01*
X5346443Y3947474D01*
X5346319Y3946847D01*
X5341011Y3945791D01*
X5338824Y3949063D01*
X5333289Y3952762D01*
X5326761Y3954060D01*
X5320232Y3952762D01*
X5314698Y3949063D01*
X5310999Y3943529D01*
X5309701Y3937000D01*
X5310999Y3930471D01*
X5314698Y3924937D01*
X5320232Y3921238D01*
X5326761Y3919940D01*
X5333289Y3921238D01*
X5338824Y3924937D01*
X5342522Y3930471D01*
X5342647Y3931098D01*
X5347955Y3932154D01*
X5350141Y3928882D01*
X5355676Y3925183D01*
X5362205Y3923885D01*
X5368733Y3925183D01*
X5374268Y3928882D01*
X5377966Y3934416D01*
X5379265Y3940945D01*
X5377966Y3947474D01*
X5374268Y3953008D01*
X5368733Y3956706D01*
X5362205Y3958005D01*
D02*
G37*
G36*
X3858268Y4009139D02*
X3849789Y4008022D01*
X3841887Y4004749D01*
X3835102Y3999543D01*
X3829896Y3992758D01*
X3826623Y3984857D01*
X3825507Y3976378D01*
X3826623Y3967899D01*
X3829896Y3959998D01*
X3835102Y3953213D01*
X3841887Y3948006D01*
X3849789Y3944734D01*
X3858268Y3943617D01*
X3866747Y3944734D01*
X3874648Y3948006D01*
X3881433Y3953213D01*
X3886639Y3959998D01*
X3889912Y3967899D01*
X3891028Y3976378D01*
X3889912Y3984857D01*
X3886639Y3992758D01*
X3881433Y3999543D01*
X3874648Y4004749D01*
X3866747Y4008022D01*
X3858268Y4009139D01*
D02*
G37*
G36*
X4291339Y3993438D02*
X4284810Y3992140D01*
X4279275Y3988441D01*
X4275577Y3982907D01*
X4274279Y3976378D01*
X4275577Y3969849D01*
X4279275Y3964315D01*
X4284810Y3960617D01*
X4291339Y3959318D01*
X4297867Y3960617D01*
X4303402Y3964315D01*
X4307100Y3969849D01*
X4308399Y3976378D01*
X4307100Y3982907D01*
X4303402Y3988441D01*
X4297867Y3992140D01*
X4291339Y3993438D01*
D02*
G37*
G36*
X5877941Y3993430D02*
X5871412Y3992131D01*
X5865878Y3988433D01*
X5862180Y3982899D01*
X5860881Y3976370D01*
X5862180Y3969841D01*
X5865878Y3964307D01*
X5871412Y3960608D01*
X5877941Y3959310D01*
X5884470Y3960608D01*
X5890004Y3964307D01*
X5893703Y3969841D01*
X5895001Y3976370D01*
X5893703Y3982899D01*
X5890004Y3988433D01*
X5884470Y3992131D01*
X5877941Y3993430D01*
D02*
G37*
G36*
X5208661Y3977690D02*
X5202133Y3976391D01*
X5196598Y3972693D01*
X5192900Y3967159D01*
X5191601Y3960630D01*
X5192900Y3954101D01*
X5196598Y3948567D01*
X5202133Y3944868D01*
X5208661Y3943570D01*
X5215190Y3944868D01*
X5220725Y3948567D01*
X5224423Y3954101D01*
X5225721Y3960630D01*
X5224423Y3967159D01*
X5220725Y3972693D01*
X5215190Y3976391D01*
X5208661Y3977690D01*
D02*
G37*
G36*
X4990157Y3952100D02*
X4983629Y3950801D01*
X4978094Y3947103D01*
X4974396Y3941568D01*
X4973097Y3935039D01*
X4974396Y3928511D01*
X4978094Y3922976D01*
X4983629Y3919278D01*
X4990157Y3917979D01*
X4996686Y3919278D01*
X5002221Y3922976D01*
X5005919Y3928511D01*
X5007217Y3935039D01*
X5005919Y3941568D01*
X5002221Y3947103D01*
X4996686Y3950801D01*
X4990157Y3952100D01*
D02*
G37*
G36*
X4358267Y3981627D02*
X4351739Y3980328D01*
X4346204Y3976630D01*
X4342506Y3971095D01*
X4341207Y3964567D01*
X4342506Y3958038D01*
X4346204Y3952504D01*
X4351739Y3948805D01*
X4357611Y3947637D01*
X4359292Y3945281D01*
X4360417Y3942836D01*
X4358254Y3939599D01*
X4356956Y3933071D01*
X4358254Y3926542D01*
X4361952Y3921008D01*
X4367487Y3917309D01*
X4374016Y3916011D01*
X4380544Y3917309D01*
X4386079Y3921008D01*
X4389777Y3926542D01*
X4391076Y3933071D01*
X4389777Y3939599D01*
X4386079Y3945134D01*
X4380544Y3948832D01*
X4374672Y3950001D01*
X4372991Y3952356D01*
X4371866Y3954801D01*
X4374029Y3958038D01*
X4375327Y3964567D01*
X4374029Y3971095D01*
X4370331Y3976630D01*
X4364796Y3980328D01*
X4358267Y3981627D01*
D02*
G37*
G36*
X5153543Y3961942D02*
X5147015Y3960643D01*
X5141480Y3956945D01*
X5137782Y3951410D01*
X5136483Y3944882D01*
X5137782Y3938353D01*
X5141480Y3932819D01*
X5147015Y3929120D01*
X5153543Y3927822D01*
X5160072Y3929120D01*
X5165607Y3932819D01*
X5169305Y3938353D01*
X5170603Y3944882D01*
X5169305Y3951410D01*
X5165607Y3956945D01*
X5160072Y3960643D01*
X5153543Y3961942D01*
D02*
G37*
G36*
X5287391Y3954060D02*
X5280862Y3952762D01*
X5275328Y3949063D01*
X5271630Y3943529D01*
X5270331Y3937000D01*
X5271630Y3930471D01*
X5275328Y3924937D01*
X5280862Y3921238D01*
X5287391Y3919940D01*
X5293920Y3921238D01*
X5299454Y3924937D01*
X5303153Y3930471D01*
X5304451Y3937000D01*
X5303153Y3943529D01*
X5299454Y3949063D01*
X5293920Y3952762D01*
X5287391Y3954060D01*
D02*
G37*
G36*
X4204724Y4080052D02*
X4198196Y4078754D01*
X4192661Y4075055D01*
X4188963Y4069521D01*
X4187664Y4062992D01*
X4188963Y4056463D01*
X4192661Y4050929D01*
X4198196Y4047231D01*
X4204724Y4045932D01*
X4211253Y4047231D01*
X4216788Y4050929D01*
X4220486Y4056463D01*
X4221784Y4062992D01*
X4220486Y4069521D01*
X4216788Y4075055D01*
X4211253Y4078754D01*
X4204724Y4080052D01*
D02*
G37*
G36*
X4003937D02*
X3997408Y4078754D01*
X3991874Y4075055D01*
X3988175Y4069521D01*
X3986877Y4062992D01*
X3988175Y4056463D01*
X3991874Y4050929D01*
X3997408Y4047231D01*
X4003937Y4045932D01*
X4010466Y4047231D01*
X4016000Y4050929D01*
X4019698Y4056463D01*
X4020997Y4062992D01*
X4019698Y4069521D01*
X4016000Y4075055D01*
X4010466Y4078754D01*
X4003937Y4080052D01*
D02*
G37*
G36*
X4059055Y4103674D02*
X4052526Y4102376D01*
X4046992Y4098677D01*
X4043294Y4093143D01*
X4041995Y4086614D01*
X4043294Y4080086D01*
X4046992Y4074551D01*
X4052526Y4070853D01*
X4059055Y4069554D01*
X4065584Y4070853D01*
X4071118Y4074551D01*
X4074817Y4080086D01*
X4076115Y4086614D01*
X4074817Y4093143D01*
X4071118Y4098677D01*
X4065584Y4102376D01*
X4059055Y4103674D01*
D02*
G37*
G36*
X4161417Y4087926D02*
X4154889Y4086628D01*
X4149354Y4082929D01*
X4145656Y4077395D01*
X4144357Y4070866D01*
X4145656Y4064338D01*
X4149354Y4058803D01*
X4154889Y4055105D01*
X4161417Y4053806D01*
X4167946Y4055105D01*
X4173481Y4058803D01*
X4177179Y4064338D01*
X4178477Y4070866D01*
X4177179Y4077395D01*
X4173481Y4082929D01*
X4167946Y4086628D01*
X4161417Y4087926D01*
D02*
G37*
G36*
X3858268Y4109139D02*
X3849789Y4108022D01*
X3841887Y4104749D01*
X3835102Y4099543D01*
X3829896Y4092758D01*
X3826623Y4084857D01*
X3825507Y4076378D01*
X3826623Y4067899D01*
X3829896Y4059998D01*
X3835102Y4053213D01*
X3841887Y4048006D01*
X3849789Y4044734D01*
X3858268Y4043617D01*
X3866747Y4044734D01*
X3874648Y4048006D01*
X3881433Y4053213D01*
X3886639Y4059998D01*
X3889912Y4067899D01*
X3891028Y4076378D01*
X3889912Y4084857D01*
X3886639Y4092758D01*
X3881433Y4099543D01*
X3874648Y4104749D01*
X3866747Y4108022D01*
X3858268Y4109139D01*
D02*
G37*
G36*
X4157480Y4049483D02*
X4152104Y4048413D01*
X4147546Y4045368D01*
X4144500Y4040810D01*
X4143431Y4035433D01*
X4144500Y4030057D01*
X4147546Y4025499D01*
X4152104Y4022453D01*
X4157480Y4021384D01*
X4162857Y4022453D01*
X4167415Y4025499D01*
X4170460Y4030057D01*
X4171530Y4035433D01*
X4170460Y4040810D01*
X4167415Y4045368D01*
X4162857Y4048413D01*
X4157480Y4049483D01*
D02*
G37*
G36*
X4988189Y4036745D02*
X4981660Y4035447D01*
X4976126Y4031748D01*
X4972427Y4026214D01*
X4971129Y4019685D01*
X4972427Y4013156D01*
X4976126Y4007622D01*
X4981660Y4003923D01*
X4988189Y4002625D01*
X4994718Y4003923D01*
X5000252Y4007622D01*
X5003950Y4013156D01*
X5005249Y4019685D01*
X5003950Y4026214D01*
X5000252Y4031748D01*
X4994718Y4035447D01*
X4988189Y4036745D01*
D02*
G37*
G36*
X5818898Y4068241D02*
X5812369Y4066943D01*
X5806834Y4063244D01*
X5803136Y4057710D01*
X5801837Y4051181D01*
X5803136Y4044653D01*
X5806834Y4039118D01*
X5812369Y4035420D01*
X5818898Y4034121D01*
X5825426Y4035420D01*
X5830961Y4039118D01*
X5834659Y4044653D01*
X5835958Y4051181D01*
X5834659Y4057710D01*
X5830961Y4063244D01*
X5825426Y4066943D01*
X5818898Y4068241D01*
D02*
G37*
G36*
X5673228Y4056430D02*
X5666700Y4055132D01*
X5661165Y4051433D01*
X5657467Y4045899D01*
X5656168Y4039370D01*
X5657467Y4032841D01*
X5661165Y4027307D01*
X5666700Y4023609D01*
X5673228Y4022310D01*
X5679757Y4023609D01*
X5685292Y4027307D01*
X5688990Y4032841D01*
X5690288Y4039370D01*
X5688990Y4045899D01*
X5685292Y4051433D01*
X5679757Y4055132D01*
X5673228Y4056430D01*
D02*
G37*
G36*
X5244084Y3942249D02*
X5237555Y3940950D01*
X5232021Y3937252D01*
X5228323Y3931718D01*
X5227024Y3925189D01*
X5228323Y3918660D01*
X5232021Y3913126D01*
X5237555Y3909427D01*
X5244084Y3908129D01*
X5250613Y3909427D01*
X5256147Y3913126D01*
X5259846Y3918660D01*
X5261144Y3925189D01*
X5259846Y3931718D01*
X5256147Y3937252D01*
X5250613Y3940950D01*
X5244084Y3942249D01*
D02*
G37*
G36*
X4830699Y3867446D02*
X4824170Y3866148D01*
X4818636Y3862449D01*
X4814937Y3856915D01*
X4813639Y3850386D01*
X4814937Y3843857D01*
X4818636Y3838323D01*
X4824170Y3834624D01*
X4830699Y3833326D01*
X4837227Y3834624D01*
X4842762Y3838323D01*
X4846460Y3843857D01*
X4847759Y3850386D01*
X4846460Y3856915D01*
X4842762Y3862449D01*
X4837227Y3866148D01*
X4830699Y3867446D01*
D02*
G37*
G36*
X5196850Y3855643D02*
X5190322Y3854344D01*
X5184787Y3850646D01*
X5181089Y3845111D01*
X5179790Y3838583D01*
X5181089Y3832054D01*
X5184787Y3826519D01*
X5190322Y3822821D01*
X5196850Y3821523D01*
X5203379Y3822821D01*
X5208914Y3826519D01*
X5212612Y3832054D01*
X5213910Y3838583D01*
X5212612Y3845111D01*
X5208914Y3850646D01*
X5203379Y3854344D01*
X5196850Y3855643D01*
D02*
G37*
G36*
X3895762Y3873425D02*
X3861220D01*
Y3838884D01*
X3868073Y3839786D01*
X3877209Y3843570D01*
X3885055Y3849591D01*
X3891075Y3857436D01*
X3894860Y3866573D01*
X3895762Y3873425D01*
D02*
G37*
G36*
X4748032Y3871391D02*
X4741503Y3870092D01*
X4735968Y3866394D01*
X4732270Y3860859D01*
X4730971Y3854331D01*
X4732270Y3847802D01*
X4735968Y3842267D01*
X4741503Y3838569D01*
X4748032Y3837271D01*
X4754560Y3838569D01*
X4760095Y3842267D01*
X4763793Y3847802D01*
X4765092Y3854331D01*
X4763793Y3860859D01*
X4760095Y3866394D01*
X4754560Y3870092D01*
X4748032Y3871391D01*
D02*
G37*
G36*
X3944882Y3851706D02*
X3938353Y3850407D01*
X3932819Y3846709D01*
X3929120Y3841174D01*
X3927822Y3834646D01*
X3929120Y3828117D01*
X3932819Y3822582D01*
X3938353Y3818884D01*
X3944882Y3817586D01*
X3951410Y3818884D01*
X3956945Y3822582D01*
X3960643Y3828117D01*
X3961942Y3834646D01*
X3960643Y3841174D01*
X3956945Y3846709D01*
X3951410Y3850407D01*
X3944882Y3851706D01*
D02*
G37*
G36*
X4224409Y3777829D02*
X4219033Y3776760D01*
X4214475Y3773714D01*
X4211429Y3769156D01*
X4210540Y3764685D01*
X4207658Y3763445D01*
X4205531Y3763182D01*
X4204968Y3764024D01*
X4199434Y3767722D01*
X4192905Y3769021D01*
X4186376Y3767722D01*
X4180842Y3764024D01*
X4177144Y3758490D01*
X4175845Y3751961D01*
X4177144Y3745432D01*
X4180842Y3739898D01*
X4186376Y3736200D01*
X4192905Y3734901D01*
X4199434Y3736200D01*
X4204968Y3739898D01*
X4208667Y3745432D01*
X4209909Y3751679D01*
X4211430Y3752573D01*
X4213014Y3753235D01*
X4214721Y3753680D01*
X4219033Y3750800D01*
X4224409Y3749730D01*
X4229786Y3750800D01*
X4234344Y3753845D01*
X4237389Y3758403D01*
X4238459Y3763780D01*
X4237389Y3769156D01*
X4234344Y3773714D01*
X4229786Y3776760D01*
X4224409Y3777829D01*
D02*
G37*
G36*
X3846457Y3754207D02*
X3841080Y3753137D01*
X3836522Y3750092D01*
X3833477Y3745534D01*
X3832407Y3740157D01*
X3833477Y3734781D01*
X3836522Y3730223D01*
X3841080Y3727177D01*
X3846457Y3726108D01*
X3851833Y3727177D01*
X3856391Y3730223D01*
X3859437Y3734781D01*
X3860506Y3740157D01*
X3859437Y3745534D01*
X3856391Y3750092D01*
X3851833Y3753137D01*
X3846457Y3754207D01*
D02*
G37*
G36*
X4460630Y3843184D02*
X4455253Y3842114D01*
X4450695Y3839068D01*
X4447650Y3834510D01*
X4446580Y3829134D01*
X4447650Y3823758D01*
X4450695Y3819200D01*
X4455253Y3816154D01*
X4460630Y3815084D01*
X4466006Y3816154D01*
X4470564Y3819200D01*
X4473610Y3823758D01*
X4474679Y3829134D01*
X4473610Y3834510D01*
X4470564Y3839068D01*
X4466006Y3842114D01*
X4460630Y3843184D01*
D02*
G37*
G36*
X3870079Y3813262D02*
X3864702Y3812193D01*
X3860144Y3809147D01*
X3857099Y3804589D01*
X3856029Y3799213D01*
X3857099Y3793836D01*
X3860144Y3789278D01*
X3864702Y3786233D01*
X3870079Y3785163D01*
X3875455Y3786233D01*
X3880013Y3789278D01*
X3883059Y3793836D01*
X3884128Y3799213D01*
X3883059Y3804589D01*
X3880013Y3809147D01*
X3875455Y3812193D01*
X3870079Y3813262D01*
D02*
G37*
G36*
X5536417Y3913714D02*
X5529889Y3912415D01*
X5524354Y3908717D01*
X5520656Y3903182D01*
X5519357Y3896653D01*
X5520656Y3890125D01*
X5524354Y3884590D01*
X5529889Y3880892D01*
X5536417Y3879593D01*
X5542946Y3880892D01*
X5548481Y3884590D01*
X5552179Y3890125D01*
X5553477Y3896653D01*
X5552179Y3903182D01*
X5548481Y3908717D01*
X5542946Y3912415D01*
X5536417Y3913714D01*
D02*
G37*
G36*
X3861220Y3913872D02*
Y3879331D01*
X3895762D01*
X3894860Y3886183D01*
X3891075Y3895320D01*
X3885055Y3903165D01*
X3877209Y3909186D01*
X3868073Y3912970D01*
X3861220Y3913872D01*
D02*
G37*
G36*
X4909449Y3938320D02*
X4902920Y3937021D01*
X4897386Y3933323D01*
X4893687Y3927788D01*
X4892389Y3921260D01*
X4893687Y3914731D01*
X4897386Y3909197D01*
X4902920Y3905498D01*
X4909449Y3904200D01*
X4915977Y3905498D01*
X4921512Y3909197D01*
X4925210Y3914731D01*
X4926509Y3921260D01*
X4925210Y3927788D01*
X4921512Y3933323D01*
X4915977Y3937021D01*
X4909449Y3938320D01*
D02*
G37*
G36*
X5122047Y3934383D02*
X5115519Y3933084D01*
X5109984Y3929386D01*
X5106286Y3923851D01*
X5104987Y3917323D01*
X5106286Y3910794D01*
X5109984Y3905260D01*
X5115519Y3901561D01*
X5122047Y3900263D01*
X5128576Y3901561D01*
X5134110Y3905260D01*
X5137809Y3910794D01*
X5139107Y3917323D01*
X5137809Y3923851D01*
X5134110Y3929386D01*
X5128576Y3933084D01*
X5122047Y3934383D01*
D02*
G37*
G36*
X3855315Y3913872D02*
X3848463Y3912970D01*
X3839326Y3909186D01*
X3831480Y3903165D01*
X3825460Y3895320D01*
X3821675Y3886183D01*
X3820773Y3879331D01*
X3855315D01*
Y3913872D01*
D02*
G37*
G36*
X4417323Y3844758D02*
X4411946Y3843689D01*
X4407480Y3840705D01*
X4403014Y3843689D01*
X4397638Y3844758D01*
X4392261Y3843689D01*
X4387703Y3840643D01*
X4384658Y3836085D01*
X4383588Y3830709D01*
X4384658Y3825332D01*
X4387703Y3820774D01*
X4392261Y3817729D01*
X4397638Y3816659D01*
X4403014Y3817729D01*
X4407480Y3820713D01*
X4411946Y3817729D01*
X4417323Y3816659D01*
X4422699Y3817729D01*
X4427257Y3820774D01*
X4430303Y3825332D01*
X4431372Y3830709D01*
X4430303Y3836085D01*
X4427257Y3840643D01*
X4422699Y3843689D01*
X4417323Y3844758D01*
D02*
G37*
G36*
X3855315Y3873425D02*
X3820773D01*
X3821675Y3866573D01*
X3825460Y3857436D01*
X3831480Y3849591D01*
X3839326Y3843570D01*
X3848463Y3839786D01*
X3855315Y3838884D01*
Y3873425D01*
D02*
G37*
G36*
X5874016Y3883202D02*
X5867487Y3881903D01*
X5861952Y3878205D01*
X5858254Y3872670D01*
X5856956Y3866142D01*
X5858254Y3859613D01*
X5861952Y3854078D01*
X5867487Y3850380D01*
X5874016Y3849082D01*
X5880544Y3850380D01*
X5886079Y3854078D01*
X5889777Y3859613D01*
X5891076Y3866142D01*
X5889777Y3872670D01*
X5886079Y3878205D01*
X5880544Y3881903D01*
X5874016Y3883202D01*
D02*
G37*
G36*
X5228336Y3879257D02*
X5221807Y3877959D01*
X5216273Y3874260D01*
X5212574Y3868726D01*
X5211276Y3862197D01*
X5212574Y3855668D01*
X5216273Y3850134D01*
X5221807Y3846436D01*
X5228336Y3845137D01*
X5234865Y3846436D01*
X5240399Y3850134D01*
X5244097Y3855668D01*
X5245396Y3862197D01*
X5244097Y3868726D01*
X5240399Y3874260D01*
X5234865Y3877959D01*
X5228336Y3879257D01*
D02*
G37*
G36*
X5578729Y3359573D02*
X5572200Y3358274D01*
X5566666Y3354576D01*
X5562967Y3349042D01*
X5561669Y3342513D01*
X5562967Y3335984D01*
X5566666Y3330450D01*
X5572200Y3326751D01*
X5578729Y3325453D01*
X5585257Y3326751D01*
X5590792Y3330450D01*
X5594490Y3335984D01*
X5595789Y3342513D01*
X5594490Y3349042D01*
X5590792Y3354576D01*
X5585257Y3358274D01*
X5578729Y3359573D01*
D02*
G37*
G36*
X3772047Y3115000D02*
X3735000D01*
Y3077953D01*
X3772047D01*
Y3115000D01*
D02*
G37*
G36*
X5775000Y3110223D02*
X5765884Y3109022D01*
X5757389Y3105504D01*
X5750094Y3099906D01*
X5744496Y3092611D01*
X5740978Y3084116D01*
X5739777Y3075000D01*
X5740978Y3065884D01*
X5744496Y3057389D01*
X5750094Y3050094D01*
X5757389Y3044496D01*
X5765884Y3040978D01*
X5775000Y3039777D01*
X5784116Y3040978D01*
X5792611Y3044496D01*
X5799906Y3050094D01*
X5805504Y3057389D01*
X5809022Y3065884D01*
X5810223Y3075000D01*
X5809022Y3084116D01*
X5805504Y3092611D01*
X5799906Y3099906D01*
X5792611Y3105504D01*
X5784116Y3109022D01*
X5775000Y3110223D01*
D02*
G37*
G36*
X5972047Y3114956D02*
X5964558Y3113970D01*
X5954827Y3109940D01*
X5946472Y3103528D01*
X5940060Y3095173D01*
X5936029Y3085442D01*
X5935043Y3077953D01*
X5972047D01*
Y3114956D01*
D02*
G37*
G36*
X5872047D02*
X5864558Y3113970D01*
X5854827Y3109940D01*
X5846472Y3103528D01*
X5840060Y3095173D01*
X5836029Y3085442D01*
X5835043Y3077953D01*
X5872047D01*
Y3114956D01*
D02*
G37*
G36*
X5675000Y3110223D02*
X5665884Y3109022D01*
X5657389Y3105504D01*
X5650094Y3099906D01*
X5644496Y3092611D01*
X5640978Y3084116D01*
X5639777Y3075000D01*
X5640978Y3065884D01*
X5644496Y3057389D01*
X5650094Y3050094D01*
X5657389Y3044496D01*
X5665884Y3040978D01*
X5675000Y3039777D01*
X5684116Y3040978D01*
X5692611Y3044496D01*
X5699906Y3050094D01*
X5705504Y3057389D01*
X5709022Y3065884D01*
X5710223Y3075000D01*
X5709022Y3084116D01*
X5705504Y3092611D01*
X5699906Y3099906D01*
X5692611Y3105504D01*
X5684116Y3109022D01*
X5675000Y3110223D01*
D02*
G37*
G36*
X5375000D02*
X5365884Y3109022D01*
X5357389Y3105504D01*
X5350094Y3099906D01*
X5344496Y3092611D01*
X5340978Y3084116D01*
X5339777Y3075000D01*
X5340978Y3065884D01*
X5344496Y3057389D01*
X5350094Y3050094D01*
X5357389Y3044496D01*
X5365884Y3040978D01*
X5375000Y3039777D01*
X5384116Y3040978D01*
X5392611Y3044496D01*
X5399906Y3050094D01*
X5405504Y3057389D01*
X5409022Y3065884D01*
X5410223Y3075000D01*
X5409022Y3084116D01*
X5405504Y3092611D01*
X5399906Y3099906D01*
X5392611Y3105504D01*
X5384116Y3109022D01*
X5375000Y3110223D01*
D02*
G37*
G36*
X5275000D02*
X5265884Y3109022D01*
X5257389Y3105504D01*
X5250094Y3099906D01*
X5244496Y3092611D01*
X5240978Y3084116D01*
X5239777Y3075000D01*
X5240978Y3065884D01*
X5244496Y3057389D01*
X5250094Y3050094D01*
X5257389Y3044496D01*
X5265884Y3040978D01*
X5275000Y3039777D01*
X5284116Y3040978D01*
X5292611Y3044496D01*
X5299906Y3050094D01*
X5305504Y3057389D01*
X5309022Y3065884D01*
X5310223Y3075000D01*
X5309022Y3084116D01*
X5305504Y3092611D01*
X5299906Y3099906D01*
X5292611Y3105504D01*
X5284116Y3109022D01*
X5275000Y3110223D01*
D02*
G37*
G36*
X5575000D02*
X5565884Y3109022D01*
X5557389Y3105504D01*
X5550094Y3099906D01*
X5544496Y3092611D01*
X5540978Y3084116D01*
X5539777Y3075000D01*
X5540978Y3065884D01*
X5544496Y3057389D01*
X5550094Y3050094D01*
X5557389Y3044496D01*
X5565884Y3040978D01*
X5575000Y3039777D01*
X5584116Y3040978D01*
X5592611Y3044496D01*
X5599906Y3050094D01*
X5605504Y3057389D01*
X5609022Y3065884D01*
X5610223Y3075000D01*
X5609022Y3084116D01*
X5605504Y3092611D01*
X5599906Y3099906D01*
X5592611Y3105504D01*
X5584116Y3109022D01*
X5575000Y3110223D01*
D02*
G37*
G36*
X5475000D02*
X5465884Y3109022D01*
X5457389Y3105504D01*
X5450094Y3099906D01*
X5444496Y3092611D01*
X5440978Y3084116D01*
X5439777Y3075000D01*
X5440978Y3065884D01*
X5444496Y3057389D01*
X5450094Y3050094D01*
X5457389Y3044496D01*
X5465884Y3040978D01*
X5475000Y3039777D01*
X5484116Y3040978D01*
X5492611Y3044496D01*
X5499906Y3050094D01*
X5505504Y3057389D01*
X5509022Y3065884D01*
X5510223Y3075000D01*
X5509022Y3084116D01*
X5505504Y3092611D01*
X5499906Y3099906D01*
X5492611Y3105504D01*
X5484116Y3109022D01*
X5475000Y3110223D01*
D02*
G37*
G36*
X5872047Y3172047D02*
X5835043D01*
X5836029Y3164558D01*
X5840060Y3154827D01*
X5846472Y3146472D01*
X5854827Y3140060D01*
X5864558Y3136030D01*
X5872047Y3135044D01*
Y3172047D01*
D02*
G37*
G36*
X3772047D02*
X3735044D01*
X3736030Y3164558D01*
X3740060Y3154827D01*
X3746472Y3146472D01*
X3754827Y3140060D01*
X3764558Y3136030D01*
X3772047Y3135044D01*
Y3172047D01*
D02*
G37*
G36*
X3814956D02*
X3777953D01*
Y3135044D01*
X3785442Y3136030D01*
X3795173Y3140060D01*
X3803528Y3146472D01*
X3809940Y3154827D01*
X3813970Y3164558D01*
X3814956Y3172047D01*
D02*
G37*
G36*
X5972047D02*
X5935043D01*
X5936029Y3164558D01*
X5940060Y3154827D01*
X5946472Y3146472D01*
X5954827Y3140060D01*
X5964558Y3136030D01*
X5972047Y3135044D01*
Y3172047D01*
D02*
G37*
G36*
X4000000Y3139107D02*
X3993471Y3137809D01*
X3987937Y3134110D01*
X3984238Y3128576D01*
X3982940Y3122047D01*
X3984238Y3115519D01*
X3985492Y3113642D01*
X3985369Y3113228D01*
X3982416Y3109246D01*
X3975000Y3110223D01*
X3965884Y3109022D01*
X3957389Y3105504D01*
X3950094Y3099906D01*
X3944496Y3092611D01*
X3940978Y3084116D01*
X3939777Y3075000D01*
X3940978Y3065884D01*
X3944496Y3057389D01*
X3950094Y3050094D01*
X3957389Y3044496D01*
X3965884Y3040978D01*
X3975000Y3039777D01*
X3984116Y3040978D01*
X3992611Y3044496D01*
X3999906Y3050094D01*
X4005504Y3057389D01*
X4009022Y3065884D01*
X4010223Y3075000D01*
X4009022Y3084116D01*
X4005504Y3092611D01*
X3999906Y3099906D01*
X3999541Y3100186D01*
X3999669Y3101524D01*
X4001190Y3105224D01*
X4006529Y3106286D01*
X4012063Y3109984D01*
X4015762Y3115519D01*
X4017060Y3122047D01*
X4015762Y3128576D01*
X4012063Y3134110D01*
X4006529Y3137809D01*
X4000000Y3139107D01*
D02*
G37*
G36*
X5877953Y3114956D02*
Y3077953D01*
X5914957D01*
X5913971Y3085442D01*
X5909940Y3095173D01*
X5903528Y3103528D01*
X5895173Y3109940D01*
X5885442Y3113970D01*
X5877953Y3114956D01*
D02*
G37*
G36*
X3815000Y3115000D02*
X3777953D01*
Y3077953D01*
X3815000D01*
Y3115000D01*
D02*
G37*
G36*
X4625984Y3127296D02*
X4619456Y3125998D01*
X4613921Y3122300D01*
X4610223Y3116765D01*
X4608924Y3110236D01*
X4610223Y3103708D01*
X4613921Y3098173D01*
X4619456Y3094475D01*
X4625984Y3093176D01*
X4632513Y3094475D01*
X4638048Y3098173D01*
X4641746Y3103708D01*
X4643044Y3110236D01*
X4641746Y3116765D01*
X4638048Y3122300D01*
X4632513Y3125998D01*
X4625984Y3127296D01*
D02*
G37*
G36*
X5977953Y3114956D02*
Y3077953D01*
X6014957D01*
X6013971Y3085442D01*
X6009940Y3095173D01*
X6003528Y3103528D01*
X5995173Y3109940D01*
X5985442Y3113970D01*
X5977953Y3114956D01*
D02*
G37*
G36*
X5175000Y3110223D02*
X5165884Y3109022D01*
X5157389Y3105504D01*
X5150094Y3099906D01*
X5144496Y3092611D01*
X5140978Y3084116D01*
X5139777Y3075000D01*
X5140978Y3065884D01*
X5144496Y3057389D01*
X5150094Y3050094D01*
X5157389Y3044496D01*
X5165884Y3040978D01*
X5175000Y3039777D01*
X5184116Y3040978D01*
X5192611Y3044496D01*
X5199906Y3050094D01*
X5205504Y3057389D01*
X5209022Y3065884D01*
X5210223Y3075000D01*
X5209022Y3084116D01*
X5205504Y3092611D01*
X5199906Y3099906D01*
X5192611Y3105504D01*
X5184116Y3109022D01*
X5175000Y3110223D01*
D02*
G37*
G36*
X3875000D02*
X3865884Y3109022D01*
X3857389Y3105504D01*
X3850094Y3099906D01*
X3844496Y3092611D01*
X3840978Y3084116D01*
X3839777Y3075000D01*
X3840978Y3065884D01*
X3844496Y3057389D01*
X3850094Y3050094D01*
X3857389Y3044496D01*
X3865884Y3040978D01*
X3875000Y3039777D01*
X3884116Y3040978D01*
X3892611Y3044496D01*
X3899906Y3050094D01*
X3905504Y3057389D01*
X3909022Y3065884D01*
X3910223Y3075000D01*
X3909022Y3084116D01*
X3905504Y3092611D01*
X3899906Y3099906D01*
X3892611Y3105504D01*
X3884116Y3109022D01*
X3875000Y3110223D01*
D02*
G37*
G36*
X6014957Y3072047D02*
X5977953D01*
Y3035044D01*
X5985442Y3036030D01*
X5995173Y3040060D01*
X6003528Y3046472D01*
X6009940Y3054827D01*
X6013971Y3064558D01*
X6014957Y3072047D01*
D02*
G37*
G36*
X4175000Y3110223D02*
X4165884Y3109022D01*
X4157389Y3105504D01*
X4150094Y3099906D01*
X4144496Y3092611D01*
X4140978Y3084116D01*
X4139777Y3075000D01*
X4140978Y3065884D01*
X4144496Y3057389D01*
X4150094Y3050094D01*
X4157389Y3044496D01*
X4165884Y3040978D01*
X4175000Y3039777D01*
X4184116Y3040978D01*
X4192611Y3044496D01*
X4199906Y3050094D01*
X4205504Y3057389D01*
X4209022Y3065884D01*
X4210223Y3075000D01*
X4209022Y3084116D01*
X4205504Y3092611D01*
X4199906Y3099906D01*
X4192611Y3105504D01*
X4184116Y3109022D01*
X4175000Y3110223D01*
D02*
G37*
G36*
X4047244Y3139107D02*
X4040715Y3137809D01*
X4035181Y3134110D01*
X4031483Y3128576D01*
X4030184Y3122047D01*
X4031483Y3115519D01*
X4035181Y3109984D01*
X4040715Y3106286D01*
X4047244Y3104987D01*
X4048942Y3105325D01*
X4051061Y3100648D01*
X4050094Y3099906D01*
X4044496Y3092611D01*
X4040978Y3084116D01*
X4039777Y3075000D01*
X4040978Y3065884D01*
X4044496Y3057389D01*
X4050094Y3050094D01*
X4057389Y3044496D01*
X4065884Y3040978D01*
X4075000Y3039777D01*
X4084116Y3040978D01*
X4092611Y3044496D01*
X4099906Y3050094D01*
X4105504Y3057389D01*
X4109022Y3065884D01*
X4110223Y3075000D01*
X4109022Y3084116D01*
X4105504Y3092611D01*
X4099906Y3099906D01*
X4092611Y3105504D01*
X4084116Y3109022D01*
X4075000Y3110223D01*
X4065884Y3109022D01*
X4064217Y3108332D01*
X4060903Y3112371D01*
X4063006Y3115519D01*
X4064304Y3122047D01*
X4063006Y3128576D01*
X4059307Y3134110D01*
X4053773Y3137809D01*
X4047244Y3139107D01*
D02*
G37*
G36*
X5914957Y3072047D02*
X5877953D01*
Y3035044D01*
X5885442Y3036030D01*
X5895173Y3040060D01*
X5903528Y3046472D01*
X5909940Y3054827D01*
X5913971Y3064558D01*
X5914957Y3072047D01*
D02*
G37*
G36*
X3815000D02*
X3777953D01*
Y3035000D01*
X3815000D01*
Y3072047D01*
D02*
G37*
G36*
X3772047D02*
X3735000D01*
Y3035000D01*
X3772047D01*
Y3072047D01*
D02*
G37*
G36*
X5972047D02*
X5935043D01*
X5936029Y3064558D01*
X5940060Y3054827D01*
X5946472Y3046472D01*
X5954827Y3040060D01*
X5964558Y3036030D01*
X5972047Y3035044D01*
Y3072047D01*
D02*
G37*
G36*
X5872047D02*
X5835043D01*
X5836029Y3064558D01*
X5840060Y3054827D01*
X5846472Y3046472D01*
X5854827Y3040060D01*
X5864558Y3036030D01*
X5872047Y3035044D01*
Y3072047D01*
D02*
G37*
G36*
X4875000Y3110223D02*
X4865884Y3109022D01*
X4857389Y3105504D01*
X4850094Y3099906D01*
X4844496Y3092611D01*
X4840978Y3084116D01*
X4839777Y3075000D01*
X4840978Y3065884D01*
X4844496Y3057389D01*
X4850094Y3050094D01*
X4857389Y3044496D01*
X4865884Y3040978D01*
X4875000Y3039777D01*
X4884116Y3040978D01*
X4892611Y3044496D01*
X4899906Y3050094D01*
X4905504Y3057389D01*
X4909022Y3065884D01*
X4910223Y3075000D01*
X4909022Y3084116D01*
X4905504Y3092611D01*
X4899906Y3099906D01*
X4892611Y3105504D01*
X4884116Y3109022D01*
X4875000Y3110223D01*
D02*
G37*
G36*
X4775000D02*
X4765884Y3109022D01*
X4757389Y3105504D01*
X4750094Y3099906D01*
X4744496Y3092611D01*
X4740978Y3084116D01*
X4739777Y3075000D01*
X4740978Y3065884D01*
X4744496Y3057389D01*
X4750094Y3050094D01*
X4757389Y3044496D01*
X4765884Y3040978D01*
X4775000Y3039777D01*
X4784116Y3040978D01*
X4792611Y3044496D01*
X4799906Y3050094D01*
X4805504Y3057389D01*
X4809022Y3065884D01*
X4810223Y3075000D01*
X4809022Y3084116D01*
X4805504Y3092611D01*
X4799906Y3099906D01*
X4792611Y3105504D01*
X4784116Y3109022D01*
X4775000Y3110223D01*
D02*
G37*
G36*
X5075000D02*
X5065884Y3109022D01*
X5057389Y3105504D01*
X5050094Y3099906D01*
X5044496Y3092611D01*
X5040978Y3084116D01*
X5039777Y3075000D01*
X5040978Y3065884D01*
X5044496Y3057389D01*
X5050094Y3050094D01*
X5057389Y3044496D01*
X5065884Y3040978D01*
X5075000Y3039777D01*
X5084116Y3040978D01*
X5092611Y3044496D01*
X5099906Y3050094D01*
X5105504Y3057389D01*
X5109022Y3065884D01*
X5110223Y3075000D01*
X5109022Y3084116D01*
X5105504Y3092611D01*
X5099906Y3099906D01*
X5092611Y3105504D01*
X5084116Y3109022D01*
X5075000Y3110223D01*
D02*
G37*
G36*
X4975000D02*
X4965884Y3109022D01*
X4957389Y3105504D01*
X4950094Y3099906D01*
X4944496Y3092611D01*
X4940978Y3084116D01*
X4939777Y3075000D01*
X4940978Y3065884D01*
X4944496Y3057389D01*
X4950094Y3050094D01*
X4957389Y3044496D01*
X4965884Y3040978D01*
X4975000Y3039777D01*
X4984116Y3040978D01*
X4992611Y3044496D01*
X4999906Y3050094D01*
X5005504Y3057389D01*
X5009022Y3065884D01*
X5010223Y3075000D01*
X5009022Y3084116D01*
X5005504Y3092611D01*
X4999906Y3099906D01*
X4992611Y3105504D01*
X4984116Y3109022D01*
X4975000Y3110223D01*
D02*
G37*
G36*
X4675000D02*
X4665884Y3109022D01*
X4657389Y3105504D01*
X4650094Y3099906D01*
X4644496Y3092611D01*
X4640978Y3084116D01*
X4639777Y3075000D01*
X4640978Y3065884D01*
X4644496Y3057389D01*
X4650094Y3050094D01*
X4657389Y3044496D01*
X4665884Y3040978D01*
X4675000Y3039777D01*
X4684116Y3040978D01*
X4692611Y3044496D01*
X4699906Y3050094D01*
X4705504Y3057389D01*
X4709022Y3065884D01*
X4710223Y3075000D01*
X4709022Y3084116D01*
X4705504Y3092611D01*
X4699906Y3099906D01*
X4692611Y3105504D01*
X4684116Y3109022D01*
X4675000Y3110223D01*
D02*
G37*
G36*
X4375000D02*
X4365884Y3109022D01*
X4357389Y3105504D01*
X4350094Y3099906D01*
X4344496Y3092611D01*
X4340978Y3084116D01*
X4339777Y3075000D01*
X4340978Y3065884D01*
X4344496Y3057389D01*
X4350094Y3050094D01*
X4357389Y3044496D01*
X4365884Y3040978D01*
X4375000Y3039777D01*
X4384116Y3040978D01*
X4392611Y3044496D01*
X4399906Y3050094D01*
X4405504Y3057389D01*
X4409022Y3065884D01*
X4410223Y3075000D01*
X4409022Y3084116D01*
X4405504Y3092611D01*
X4399906Y3099906D01*
X4392611Y3105504D01*
X4384116Y3109022D01*
X4375000Y3110223D01*
D02*
G37*
G36*
X4275000D02*
X4265884Y3109022D01*
X4257389Y3105504D01*
X4250094Y3099906D01*
X4244496Y3092611D01*
X4240978Y3084116D01*
X4239777Y3075000D01*
X4240978Y3065884D01*
X4244496Y3057389D01*
X4250094Y3050094D01*
X4257389Y3044496D01*
X4265884Y3040978D01*
X4275000Y3039777D01*
X4284116Y3040978D01*
X4292611Y3044496D01*
X4299906Y3050094D01*
X4305504Y3057389D01*
X4309022Y3065884D01*
X4310223Y3075000D01*
X4309022Y3084116D01*
X4305504Y3092611D01*
X4299906Y3099906D01*
X4292611Y3105504D01*
X4284116Y3109022D01*
X4275000Y3110223D01*
D02*
G37*
G36*
X4511811Y3146981D02*
X4505282Y3145683D01*
X4499748Y3141985D01*
X4496050Y3136450D01*
X4494751Y3129921D01*
X4496050Y3123393D01*
X4499748Y3117858D01*
X4505282Y3114160D01*
X4511811Y3112861D01*
X4518340Y3114160D01*
X4521504Y3116274D01*
X4527008Y3114233D01*
X4527537Y3111575D01*
X4531235Y3106041D01*
X4536769Y3102343D01*
X4543298Y3101044D01*
X4544911Y3101365D01*
X4547732Y3096828D01*
X4544496Y3092611D01*
X4540978Y3084116D01*
X4539777Y3075000D01*
X4540978Y3065884D01*
X4544496Y3057389D01*
X4550094Y3050094D01*
X4557389Y3044496D01*
X4565884Y3040978D01*
X4575000Y3039777D01*
X4584116Y3040978D01*
X4592611Y3044496D01*
X4599906Y3050094D01*
X4605504Y3057389D01*
X4609022Y3065884D01*
X4610223Y3075000D01*
X4609022Y3084116D01*
X4605504Y3092611D01*
X4599906Y3099906D01*
X4592611Y3105504D01*
X4584116Y3109022D01*
X4575000Y3110223D01*
X4565884Y3109022D01*
X4562404Y3107581D01*
X4559060Y3111575D01*
X4560358Y3118104D01*
X4559060Y3124633D01*
X4555361Y3130167D01*
X4549827Y3133865D01*
X4543298Y3135164D01*
X4536769Y3133865D01*
X4533605Y3131751D01*
X4528101Y3133792D01*
X4527573Y3136450D01*
X4523874Y3141985D01*
X4518340Y3145683D01*
X4511811Y3146981D01*
D02*
G37*
G36*
X4475000Y3110223D02*
X4465884Y3109022D01*
X4457389Y3105504D01*
X4450094Y3099906D01*
X4444496Y3092611D01*
X4440978Y3084116D01*
X4439777Y3075000D01*
X4440978Y3065884D01*
X4444496Y3057389D01*
X4450094Y3050094D01*
X4457389Y3044496D01*
X4465884Y3040978D01*
X4475000Y3039777D01*
X4484116Y3040978D01*
X4492611Y3044496D01*
X4499906Y3050094D01*
X4505504Y3057389D01*
X4509022Y3065884D01*
X4510223Y3075000D01*
X4509022Y3084116D01*
X4505504Y3092611D01*
X4499906Y3099906D01*
X4492611Y3105504D01*
X4484116Y3109022D01*
X4475000Y3110223D01*
D02*
G37*
G36*
X3777953Y3214956D02*
Y3177953D01*
X3814956D01*
X3813970Y3185442D01*
X3809940Y3195173D01*
X3803528Y3203528D01*
X3795173Y3209940D01*
X3785442Y3213970D01*
X3777953Y3214956D01*
D02*
G37*
G36*
X5972047D02*
X5964558Y3213970D01*
X5954827Y3209940D01*
X5946472Y3203528D01*
X5940060Y3195173D01*
X5936029Y3185442D01*
X5935043Y3177953D01*
X5972047D01*
Y3214956D01*
D02*
G37*
G36*
X5977953D02*
Y3177953D01*
X6014957D01*
X6013971Y3185442D01*
X6009940Y3195173D01*
X6003528Y3203528D01*
X5995173Y3209940D01*
X5985442Y3213970D01*
X5977953Y3214956D01*
D02*
G37*
G36*
X5877953D02*
Y3177953D01*
X5914957D01*
X5913971Y3185442D01*
X5909940Y3195173D01*
X5903528Y3203528D01*
X5895173Y3209940D01*
X5885442Y3213970D01*
X5877953Y3214956D01*
D02*
G37*
G36*
X5872047D02*
X5864558Y3213970D01*
X5854827Y3209940D01*
X5846472Y3203528D01*
X5840060Y3195173D01*
X5836029Y3185442D01*
X5835043Y3177953D01*
X5872047D01*
Y3214956D01*
D02*
G37*
G36*
X5775000Y3210223D02*
X5765884Y3209022D01*
X5757389Y3205504D01*
X5750094Y3199906D01*
X5744496Y3192611D01*
X5740978Y3184116D01*
X5739777Y3175000D01*
X5740978Y3165884D01*
X5744496Y3157389D01*
X5750094Y3150094D01*
X5757389Y3144496D01*
X5765884Y3140978D01*
X5775000Y3139777D01*
X5784116Y3140978D01*
X5792611Y3144496D01*
X5799906Y3150094D01*
X5805504Y3157389D01*
X5809022Y3165884D01*
X5810223Y3175000D01*
X5809022Y3184116D01*
X5805504Y3192611D01*
X5799906Y3199906D01*
X5792611Y3205504D01*
X5784116Y3209022D01*
X5775000Y3210223D01*
D02*
G37*
G36*
X5675000D02*
X5665884Y3209022D01*
X5657389Y3205504D01*
X5650094Y3199906D01*
X5644496Y3192611D01*
X5640978Y3184116D01*
X5639777Y3175000D01*
X5640978Y3165884D01*
X5644496Y3157389D01*
X5650094Y3150094D01*
X5657389Y3144496D01*
X5665884Y3140978D01*
X5675000Y3139777D01*
X5684116Y3140978D01*
X5692611Y3144496D01*
X5699906Y3150094D01*
X5705504Y3157389D01*
X5709022Y3165884D01*
X5710223Y3175000D01*
X5709022Y3184116D01*
X5705504Y3192611D01*
X5699906Y3199906D01*
X5692611Y3205504D01*
X5684116Y3209022D01*
X5675000Y3210223D01*
D02*
G37*
G36*
X3772047Y3214956D02*
X3764558Y3213970D01*
X3754827Y3209940D01*
X3746472Y3203528D01*
X3740060Y3195173D01*
X3736030Y3185442D01*
X3735044Y3177953D01*
X3772047D01*
Y3214956D01*
D02*
G37*
G36*
X4175000Y3210223D02*
X4165884Y3209022D01*
X4157389Y3205504D01*
X4150094Y3199906D01*
X4144496Y3192611D01*
X4140978Y3184116D01*
X4139777Y3175000D01*
X4140978Y3165884D01*
X4144496Y3157389D01*
X4149642Y3150682D01*
X4149011Y3148646D01*
X4147098Y3146091D01*
X4146427Y3146224D01*
X4139898Y3144925D01*
X4134363Y3141227D01*
X4130665Y3135693D01*
X4130382Y3134267D01*
X4130200Y3134194D01*
X4125178Y3133739D01*
X4122300Y3138048D01*
X4116765Y3141746D01*
X4110236Y3143044D01*
X4103708Y3141746D01*
X4098173Y3138048D01*
X4094475Y3132513D01*
X4093176Y3125984D01*
X4094475Y3119456D01*
X4098173Y3113921D01*
X4103708Y3110223D01*
X4110236Y3108924D01*
X4116765Y3110223D01*
X4122300Y3113921D01*
X4125998Y3119456D01*
X4126281Y3120881D01*
X4126463Y3120954D01*
X4131484Y3121409D01*
X4134363Y3117101D01*
X4139898Y3113403D01*
X4146427Y3112104D01*
X4152955Y3113403D01*
X4158490Y3117101D01*
X4162188Y3122635D01*
X4163487Y3129164D01*
X4162188Y3135693D01*
X4160891Y3137634D01*
X4164206Y3141673D01*
X4165884Y3140978D01*
X4175000Y3139777D01*
X4184116Y3140978D01*
X4192611Y3144496D01*
X4199906Y3150094D01*
X4205504Y3157389D01*
X4209022Y3165884D01*
X4210223Y3175000D01*
X4209022Y3184116D01*
X4205504Y3192611D01*
X4199906Y3199906D01*
X4192611Y3205504D01*
X4184116Y3209022D01*
X4175000Y3210223D01*
D02*
G37*
G36*
X4342520Y3300525D02*
X4335991Y3299226D01*
X4330456Y3295528D01*
X4326758Y3289993D01*
X4325460Y3283465D01*
X4326758Y3276936D01*
X4330456Y3271401D01*
X4335991Y3267703D01*
X4342520Y3266405D01*
X4349048Y3267703D01*
X4354583Y3271401D01*
X4358281Y3276936D01*
X4359580Y3283465D01*
X4358281Y3289993D01*
X4354583Y3295528D01*
X4349048Y3299226D01*
X4342520Y3300525D01*
D02*
G37*
G36*
X4279528Y3296588D02*
X4272999Y3295289D01*
X4267464Y3291591D01*
X4263766Y3286056D01*
X4262467Y3279528D01*
X4263766Y3272999D01*
X4267464Y3267464D01*
X4272999Y3263766D01*
X4279528Y3262468D01*
X4286056Y3263766D01*
X4291591Y3267464D01*
X4295289Y3272999D01*
X4296588Y3279528D01*
X4295289Y3286056D01*
X4291591Y3291591D01*
X4286056Y3295289D01*
X4279528Y3296588D01*
D02*
G37*
G36*
X3842520Y3284777D02*
X3835991Y3283478D01*
X3830709Y3279948D01*
X3825426Y3283478D01*
X3818898Y3284777D01*
X3812369Y3283478D01*
X3807087Y3279948D01*
X3801804Y3283478D01*
X3795276Y3284777D01*
X3788747Y3283478D01*
X3783465Y3279948D01*
X3778182Y3283478D01*
X3771653Y3284777D01*
X3765125Y3283478D01*
X3759843Y3279948D01*
X3754560Y3283478D01*
X3748032Y3284777D01*
X3741503Y3283478D01*
X3735968Y3279780D01*
X3732270Y3274245D01*
X3730971Y3267716D01*
X3732270Y3261188D01*
X3735968Y3255653D01*
X3741503Y3251955D01*
X3748032Y3250656D01*
X3754560Y3251955D01*
X3759843Y3255485D01*
X3765125Y3251955D01*
X3771653Y3250656D01*
X3778182Y3251955D01*
X3783465Y3255485D01*
X3788747Y3251955D01*
X3795276Y3250656D01*
X3801804Y3251955D01*
X3807087Y3255485D01*
X3812369Y3251955D01*
X3818898Y3250656D01*
X3825426Y3251955D01*
X3830709Y3255485D01*
X3835991Y3251955D01*
X3842520Y3250656D01*
X3849048Y3251955D01*
X3854583Y3255653D01*
X3858281Y3261188D01*
X3859580Y3267716D01*
X3858281Y3274245D01*
X3854583Y3279780D01*
X3849048Y3283478D01*
X3842520Y3284777D01*
D02*
G37*
G36*
X3196850Y3310591D02*
X3190322Y3309292D01*
X3184787Y3305594D01*
X3181089Y3300059D01*
X3179790Y3293531D01*
X3181089Y3287002D01*
X3184787Y3281468D01*
X3190322Y3277769D01*
X3196850Y3276471D01*
X3203379Y3277769D01*
X3208914Y3281468D01*
X3212612Y3287002D01*
X3213910Y3293531D01*
X3212612Y3300059D01*
X3208914Y3305594D01*
X3203379Y3309292D01*
X3196850Y3310591D01*
D02*
G37*
G36*
X4055118Y3296588D02*
X4048590Y3295289D01*
X4043055Y3291591D01*
X4039357Y3286056D01*
X4038058Y3279528D01*
X4039357Y3272999D01*
X4043055Y3267464D01*
X4048590Y3263766D01*
X4055118Y3262468D01*
X4061647Y3263766D01*
X4067181Y3267464D01*
X4070880Y3272999D01*
X4072178Y3279528D01*
X4070880Y3286056D01*
X4067181Y3291591D01*
X4061647Y3295289D01*
X4055118Y3296588D01*
D02*
G37*
G36*
X3279528Y3265092D02*
X3272999Y3263793D01*
X3267464Y3260095D01*
X3263766Y3254560D01*
X3262468Y3248032D01*
X3263766Y3241503D01*
X3267464Y3235968D01*
X3272999Y3232270D01*
X3279528Y3230971D01*
X3286056Y3232270D01*
X3291591Y3235968D01*
X3295289Y3241503D01*
X3296588Y3248032D01*
X3295289Y3254560D01*
X3291591Y3260095D01*
X3286056Y3263793D01*
X3279528Y3265092D01*
D02*
G37*
G36*
X3314961Y3194226D02*
X3308432Y3192927D01*
X3304682Y3190421D01*
X3301181Y3189621D01*
X3297680Y3190421D01*
X3293930Y3192927D01*
X3287402Y3194226D01*
X3280873Y3192927D01*
X3277123Y3190421D01*
X3273622Y3189621D01*
X3270121Y3190421D01*
X3266371Y3192927D01*
X3259843Y3194226D01*
X3253314Y3192927D01*
X3249564Y3190421D01*
X3246063Y3189621D01*
X3242562Y3190421D01*
X3238812Y3192927D01*
X3232284Y3194226D01*
X3225755Y3192927D01*
X3222005Y3190421D01*
X3218504Y3189621D01*
X3215003Y3190421D01*
X3211253Y3192927D01*
X3204724Y3194226D01*
X3198196Y3192927D01*
X3194445Y3190421D01*
X3190945Y3189621D01*
X3187444Y3190421D01*
X3183694Y3192927D01*
X3177165Y3194226D01*
X3170637Y3192927D01*
X3165102Y3189229D01*
X3161404Y3183694D01*
X3160105Y3177165D01*
X3161404Y3170637D01*
X3165102Y3165102D01*
X3170637Y3161404D01*
X3177165Y3160105D01*
X3183694Y3161404D01*
X3187444Y3163910D01*
X3190945Y3164710D01*
X3194445Y3163910D01*
X3198196Y3161404D01*
X3204724Y3160105D01*
X3211253Y3161404D01*
X3215003Y3163910D01*
X3218504Y3164710D01*
X3222005Y3163910D01*
X3225755Y3161404D01*
X3232284Y3160105D01*
X3238812Y3161404D01*
X3242562Y3163910D01*
X3246063Y3164710D01*
X3249564Y3163910D01*
X3253314Y3161404D01*
X3259843Y3160105D01*
X3266371Y3161404D01*
X3270121Y3163910D01*
X3273622Y3164710D01*
X3277123Y3163910D01*
X3280873Y3161404D01*
X3287402Y3160105D01*
X3293930Y3161404D01*
X3297680Y3163910D01*
X3301181Y3164710D01*
X3304682Y3163910D01*
X3308432Y3161404D01*
X3314961Y3160105D01*
X3321489Y3161404D01*
X3327024Y3165102D01*
X3330722Y3170637D01*
X3332021Y3177165D01*
X3330722Y3183694D01*
X3327024Y3189229D01*
X3321489Y3192927D01*
X3314961Y3194226D01*
D02*
G37*
G36*
X4232283Y3292651D02*
X4225755Y3291352D01*
X4220220Y3287654D01*
X4216522Y3282119D01*
X4215223Y3275591D01*
X4216522Y3269062D01*
X4220220Y3263527D01*
X4225755Y3259829D01*
X4232283Y3258530D01*
X4238812Y3259829D01*
X4244347Y3263527D01*
X4248045Y3269062D01*
X4249344Y3275591D01*
X4248045Y3282119D01*
X4244347Y3287654D01*
X4238812Y3291352D01*
X4232283Y3292651D01*
D02*
G37*
G36*
X4098425Y3284777D02*
X4091897Y3283478D01*
X4086362Y3279780D01*
X4082664Y3274245D01*
X4081365Y3267716D01*
X4082664Y3261188D01*
X4086362Y3255653D01*
X4091897Y3251955D01*
X4098425Y3250656D01*
X4104954Y3251955D01*
X4110489Y3255653D01*
X4114187Y3261188D01*
X4115485Y3267716D01*
X4114187Y3274245D01*
X4110489Y3279780D01*
X4104954Y3283478D01*
X4098425Y3284777D01*
D02*
G37*
G36*
X5575000Y3210223D02*
X5565884Y3209022D01*
X5557389Y3205504D01*
X5550094Y3199906D01*
X5544496Y3192611D01*
X5540978Y3184116D01*
X5539777Y3175000D01*
X5540978Y3165884D01*
X5544496Y3157389D01*
X5550094Y3150094D01*
X5557389Y3144496D01*
X5565884Y3140978D01*
X5575000Y3139777D01*
X5584116Y3140978D01*
X5592611Y3144496D01*
X5599906Y3150094D01*
X5605504Y3157389D01*
X5609022Y3165884D01*
X5610223Y3175000D01*
X5609022Y3184116D01*
X5605504Y3192611D01*
X5599906Y3199906D01*
X5592611Y3205504D01*
X5584116Y3209022D01*
X5575000Y3210223D01*
D02*
G37*
G36*
X4375000D02*
X4365884Y3209022D01*
X4357389Y3205504D01*
X4350094Y3199906D01*
X4344496Y3192611D01*
X4340978Y3184116D01*
X4339777Y3175000D01*
X4340978Y3165884D01*
X4344496Y3157389D01*
X4350094Y3150094D01*
X4357389Y3144496D01*
X4365884Y3140978D01*
X4375000Y3139777D01*
X4384116Y3140978D01*
X4392611Y3144496D01*
X4399906Y3150094D01*
X4405504Y3157389D01*
X4409022Y3165884D01*
X4410223Y3175000D01*
X4409022Y3184116D01*
X4405504Y3192611D01*
X4399906Y3199906D01*
X4392611Y3205504D01*
X4384116Y3209022D01*
X4375000Y3210223D01*
D02*
G37*
G36*
X4275000D02*
X4265884Y3209022D01*
X4257389Y3205504D01*
X4250094Y3199906D01*
X4244496Y3192611D01*
X4240978Y3184116D01*
X4239777Y3175000D01*
X4240978Y3165884D01*
X4244496Y3157389D01*
X4250094Y3150094D01*
X4257389Y3144496D01*
X4265884Y3140978D01*
X4275000Y3139777D01*
X4284116Y3140978D01*
X4292611Y3144496D01*
X4299906Y3150094D01*
X4305504Y3157389D01*
X4309022Y3165884D01*
X4310223Y3175000D01*
X4309022Y3184116D01*
X4305504Y3192611D01*
X4299906Y3199906D01*
X4292611Y3205504D01*
X4284116Y3209022D01*
X4275000Y3210223D01*
D02*
G37*
G36*
X4575000D02*
X4565884Y3209022D01*
X4557389Y3205504D01*
X4550094Y3199906D01*
X4544496Y3192611D01*
X4540978Y3184116D01*
X4539777Y3175000D01*
X4540978Y3165884D01*
X4544496Y3157389D01*
X4550094Y3150094D01*
X4557389Y3144496D01*
X4565884Y3140978D01*
X4575000Y3139777D01*
X4584116Y3140978D01*
X4592611Y3144496D01*
X4599906Y3150094D01*
X4605504Y3157389D01*
X4609022Y3165884D01*
X4610223Y3175000D01*
X4609022Y3184116D01*
X4605504Y3192611D01*
X4599906Y3199906D01*
X4592611Y3205504D01*
X4584116Y3209022D01*
X4575000Y3210223D01*
D02*
G37*
G36*
X4475000D02*
X4465884Y3209022D01*
X4457389Y3205504D01*
X4450094Y3199906D01*
X4444496Y3192611D01*
X4440978Y3184116D01*
X4439777Y3175000D01*
X4440978Y3165884D01*
X4444496Y3157389D01*
X4450094Y3150094D01*
X4457389Y3144496D01*
X4465884Y3140978D01*
X4475000Y3139777D01*
X4484116Y3140978D01*
X4492611Y3144496D01*
X4499906Y3150094D01*
X4505504Y3157389D01*
X4509022Y3165884D01*
X4510223Y3175000D01*
X4509022Y3184116D01*
X4505504Y3192611D01*
X4499906Y3199906D01*
X4492611Y3205504D01*
X4484116Y3209022D01*
X4475000Y3210223D01*
D02*
G37*
G36*
X4075000D02*
X4065884Y3209022D01*
X4057389Y3205504D01*
X4050094Y3199906D01*
X4044496Y3192611D01*
X4040978Y3184116D01*
X4039777Y3175000D01*
X4040978Y3165884D01*
X4044496Y3157389D01*
X4050094Y3150094D01*
X4057389Y3144496D01*
X4065884Y3140978D01*
X4075000Y3139777D01*
X4084116Y3140978D01*
X4092611Y3144496D01*
X4099906Y3150094D01*
X4105504Y3157389D01*
X4109022Y3165884D01*
X4110223Y3175000D01*
X4109022Y3184116D01*
X4105504Y3192611D01*
X4099906Y3199906D01*
X4092611Y3205504D01*
X4084116Y3209022D01*
X4075000Y3210223D01*
D02*
G37*
G36*
X6014957Y3172047D02*
X5977953D01*
Y3135044D01*
X5985442Y3136030D01*
X5995173Y3140060D01*
X6003528Y3146472D01*
X6009940Y3154827D01*
X6013971Y3164558D01*
X6014957Y3172047D01*
D02*
G37*
G36*
X5914957D02*
X5877953D01*
Y3135044D01*
X5885442Y3136030D01*
X5895173Y3140060D01*
X5903528Y3146472D01*
X5909940Y3154827D01*
X5913971Y3164558D01*
X5914957Y3172047D01*
D02*
G37*
G36*
X3975000Y3210223D02*
X3965884Y3209022D01*
X3957389Y3205504D01*
X3950094Y3199906D01*
X3944496Y3192611D01*
X3940978Y3184116D01*
X3939777Y3175000D01*
X3940978Y3165884D01*
X3944496Y3157389D01*
X3950094Y3150094D01*
X3957389Y3144496D01*
X3965884Y3140978D01*
X3975000Y3139777D01*
X3984116Y3140978D01*
X3992611Y3144496D01*
X3999906Y3150094D01*
X4005504Y3157389D01*
X4009022Y3165884D01*
X4010223Y3175000D01*
X4009022Y3184116D01*
X4005504Y3192611D01*
X3999906Y3199906D01*
X3992611Y3205504D01*
X3984116Y3209022D01*
X3975000Y3210223D01*
D02*
G37*
G36*
X3875000D02*
X3865884Y3209022D01*
X3857389Y3205504D01*
X3850094Y3199906D01*
X3844496Y3192611D01*
X3840978Y3184116D01*
X3839777Y3175000D01*
X3840978Y3165884D01*
X3844496Y3157389D01*
X3850094Y3150094D01*
X3857389Y3144496D01*
X3865884Y3140978D01*
X3875000Y3139777D01*
X3884116Y3140978D01*
X3892611Y3144496D01*
X3899906Y3150094D01*
X3905504Y3157389D01*
X3909022Y3165884D01*
X3910223Y3175000D01*
X3909022Y3184116D01*
X3905504Y3192611D01*
X3899906Y3199906D01*
X3892611Y3205504D01*
X3884116Y3209022D01*
X3875000Y3210223D01*
D02*
G37*
G36*
X5275000D02*
X5265884Y3209022D01*
X5257389Y3205504D01*
X5250094Y3199906D01*
X5244496Y3192611D01*
X5240978Y3184116D01*
X5239777Y3175000D01*
X5240978Y3165884D01*
X5244496Y3157389D01*
X5250094Y3150094D01*
X5257389Y3144496D01*
X5265884Y3140978D01*
X5275000Y3139777D01*
X5284116Y3140978D01*
X5292611Y3144496D01*
X5299906Y3150094D01*
X5305504Y3157389D01*
X5309022Y3165884D01*
X5310223Y3175000D01*
X5309022Y3184116D01*
X5305504Y3192611D01*
X5299906Y3199906D01*
X5292611Y3205504D01*
X5284116Y3209022D01*
X5275000Y3210223D01*
D02*
G37*
G36*
X5175000D02*
X5165884Y3209022D01*
X5157389Y3205504D01*
X5150094Y3199906D01*
X5144496Y3192611D01*
X5140978Y3184116D01*
X5139777Y3175000D01*
X5140978Y3165884D01*
X5144496Y3157389D01*
X5150094Y3150094D01*
X5157389Y3144496D01*
X5165884Y3140978D01*
X5175000Y3139777D01*
X5184116Y3140978D01*
X5192611Y3144496D01*
X5199906Y3150094D01*
X5205504Y3157389D01*
X5209022Y3165884D01*
X5210223Y3175000D01*
X5209022Y3184116D01*
X5205504Y3192611D01*
X5199906Y3199906D01*
X5192611Y3205504D01*
X5184116Y3209022D01*
X5175000Y3210223D01*
D02*
G37*
G36*
X5475000D02*
X5465884Y3209022D01*
X5457389Y3205504D01*
X5450094Y3199906D01*
X5444496Y3192611D01*
X5440978Y3184116D01*
X5439777Y3175000D01*
X5440978Y3165884D01*
X5444496Y3157389D01*
X5450094Y3150094D01*
X5457389Y3144496D01*
X5465884Y3140978D01*
X5475000Y3139777D01*
X5484116Y3140978D01*
X5492611Y3144496D01*
X5499906Y3150094D01*
X5505504Y3157389D01*
X5509022Y3165884D01*
X5510223Y3175000D01*
X5509022Y3184116D01*
X5505504Y3192611D01*
X5499906Y3199906D01*
X5492611Y3205504D01*
X5484116Y3209022D01*
X5475000Y3210223D01*
D02*
G37*
G36*
X5375000D02*
X5365884Y3209022D01*
X5357389Y3205504D01*
X5350094Y3199906D01*
X5344496Y3192611D01*
X5340978Y3184116D01*
X5339777Y3175000D01*
X5340978Y3165884D01*
X5344496Y3157389D01*
X5350094Y3150094D01*
X5357389Y3144496D01*
X5365884Y3140978D01*
X5375000Y3139777D01*
X5384116Y3140978D01*
X5392611Y3144496D01*
X5399906Y3150094D01*
X5405504Y3157389D01*
X5409022Y3165884D01*
X5410223Y3175000D01*
X5409022Y3184116D01*
X5405504Y3192611D01*
X5399906Y3199906D01*
X5392611Y3205504D01*
X5384116Y3209022D01*
X5375000Y3210223D01*
D02*
G37*
G36*
X5075000D02*
X5065884Y3209022D01*
X5057389Y3205504D01*
X5050094Y3199906D01*
X5044496Y3192611D01*
X5040978Y3184116D01*
X5039777Y3175000D01*
X5040978Y3165884D01*
X5044496Y3157389D01*
X5050094Y3150094D01*
X5057389Y3144496D01*
X5065884Y3140978D01*
X5075000Y3139777D01*
X5084116Y3140978D01*
X5092611Y3144496D01*
X5099906Y3150094D01*
X5105504Y3157389D01*
X5109022Y3165884D01*
X5110223Y3175000D01*
X5109022Y3184116D01*
X5105504Y3192611D01*
X5099906Y3199906D01*
X5092611Y3205504D01*
X5084116Y3209022D01*
X5075000Y3210223D01*
D02*
G37*
G36*
X4775000D02*
X4765884Y3209022D01*
X4757389Y3205504D01*
X4750094Y3199906D01*
X4744496Y3192611D01*
X4740978Y3184116D01*
X4739777Y3175000D01*
X4740978Y3165884D01*
X4744496Y3157389D01*
X4750094Y3150094D01*
X4757389Y3144496D01*
X4765884Y3140978D01*
X4775000Y3139777D01*
X4784116Y3140978D01*
X4792611Y3144496D01*
X4799906Y3150094D01*
X4805504Y3157389D01*
X4809022Y3165884D01*
X4810223Y3175000D01*
X4809022Y3184116D01*
X4805504Y3192611D01*
X4799906Y3199906D01*
X4792611Y3205504D01*
X4784116Y3209022D01*
X4775000Y3210223D01*
D02*
G37*
G36*
X4675000D02*
X4665884Y3209022D01*
X4657389Y3205504D01*
X4650094Y3199906D01*
X4644496Y3192611D01*
X4640978Y3184116D01*
X4639777Y3175000D01*
X4640978Y3165884D01*
X4644496Y3157389D01*
X4650094Y3150094D01*
X4657389Y3144496D01*
X4665884Y3140978D01*
X4675000Y3139777D01*
X4684116Y3140978D01*
X4692611Y3144496D01*
X4699906Y3150094D01*
X4705504Y3157389D01*
X4709022Y3165884D01*
X4710223Y3175000D01*
X4709022Y3184116D01*
X4705504Y3192611D01*
X4699906Y3199906D01*
X4692611Y3205504D01*
X4684116Y3209022D01*
X4675000Y3210223D01*
D02*
G37*
G36*
X4975000D02*
X4965884Y3209022D01*
X4957389Y3205504D01*
X4950094Y3199906D01*
X4944496Y3192611D01*
X4940978Y3184116D01*
X4939777Y3175000D01*
X4940978Y3165884D01*
X4944496Y3157389D01*
X4950094Y3150094D01*
X4957389Y3144496D01*
X4965884Y3140978D01*
X4975000Y3139777D01*
X4984116Y3140978D01*
X4992611Y3144496D01*
X4999906Y3150094D01*
X5005504Y3157389D01*
X5009022Y3165884D01*
X5010223Y3175000D01*
X5009022Y3184116D01*
X5005504Y3192611D01*
X4999906Y3199906D01*
X4992611Y3205504D01*
X4984116Y3209022D01*
X4975000Y3210223D01*
D02*
G37*
G36*
X4875000D02*
X4865884Y3209022D01*
X4857389Y3205504D01*
X4850094Y3199906D01*
X4844496Y3192611D01*
X4840978Y3184116D01*
X4839777Y3175000D01*
X4840978Y3165884D01*
X4844496Y3157389D01*
X4850094Y3150094D01*
X4857389Y3144496D01*
X4865884Y3140978D01*
X4875000Y3139777D01*
X4884116Y3140978D01*
X4892611Y3144496D01*
X4899906Y3150094D01*
X4905504Y3157389D01*
X4909022Y3165884D01*
X4910223Y3175000D01*
X4909022Y3184116D01*
X4905504Y3192611D01*
X4899906Y3199906D01*
X4892611Y3205504D01*
X4884116Y3209022D01*
X4875000Y3210223D01*
D02*
G37*
G36*
X5015748Y4111548D02*
X5009219Y4110250D01*
X5003685Y4106551D01*
X4999986Y4101017D01*
X4998688Y4094488D01*
X4999986Y4087960D01*
X5003685Y4082425D01*
X5009219Y4078727D01*
X5015748Y4077428D01*
X5022277Y4078727D01*
X5027811Y4082425D01*
X5031510Y4087960D01*
X5032808Y4094488D01*
X5031510Y4101017D01*
X5027811Y4106551D01*
X5022277Y4110250D01*
X5015748Y4111548D01*
D02*
G37*
G36*
X4375000Y5010223D02*
X4365884Y5009022D01*
X4357389Y5005504D01*
X4350094Y4999906D01*
X4344496Y4992611D01*
X4340978Y4984116D01*
X4339777Y4975000D01*
X4340978Y4965884D01*
X4344496Y4957389D01*
X4350094Y4950094D01*
X4357389Y4944496D01*
X4365884Y4940978D01*
X4375000Y4939777D01*
X4384116Y4940978D01*
X4392611Y4944496D01*
X4399906Y4950094D01*
X4405504Y4957389D01*
X4409022Y4965884D01*
X4410223Y4975000D01*
X4409022Y4984116D01*
X4405504Y4992611D01*
X4399906Y4999906D01*
X4392611Y5005504D01*
X4384116Y5009022D01*
X4375000Y5010223D01*
D02*
G37*
G36*
X4275000D02*
X4265884Y5009022D01*
X4257389Y5005504D01*
X4250094Y4999906D01*
X4244496Y4992611D01*
X4240978Y4984116D01*
X4239777Y4975000D01*
X4240978Y4965884D01*
X4244496Y4957389D01*
X4250094Y4950094D01*
X4257389Y4944496D01*
X4265884Y4940978D01*
X4275000Y4939777D01*
X4284116Y4940978D01*
X4292611Y4944496D01*
X4299906Y4950094D01*
X4305504Y4957389D01*
X4309022Y4965884D01*
X4310223Y4975000D01*
X4309022Y4984116D01*
X4305504Y4992611D01*
X4299906Y4999906D01*
X4292611Y5005504D01*
X4284116Y5009022D01*
X4275000Y5010223D01*
D02*
G37*
G36*
X4575000D02*
X4565884Y5009022D01*
X4557389Y5005504D01*
X4550094Y4999906D01*
X4544496Y4992611D01*
X4540978Y4984116D01*
X4539777Y4975000D01*
X4540768Y4967475D01*
X4538812Y4964189D01*
X4536891Y4962685D01*
X4531526Y4961618D01*
X4525991Y4957919D01*
X4522293Y4952385D01*
X4520994Y4945856D01*
X4522293Y4939328D01*
X4523438Y4937614D01*
X4524953Y4933091D01*
X4522163Y4931207D01*
X4519424Y4929376D01*
X4515725Y4923842D01*
X4514427Y4917313D01*
X4515725Y4910784D01*
X4519424Y4905250D01*
X4524958Y4901551D01*
X4531487Y4900253D01*
X4538016Y4901551D01*
X4543550Y4905250D01*
X4547248Y4910784D01*
X4548547Y4917313D01*
X4547248Y4923842D01*
X4546104Y4925555D01*
X4544589Y4930078D01*
X4547378Y4931962D01*
X4550118Y4933793D01*
X4553816Y4939328D01*
X4554093Y4940722D01*
X4554660Y4941371D01*
X4559748Y4943519D01*
X4565884Y4940978D01*
X4575000Y4939777D01*
X4584116Y4940978D01*
X4592611Y4944496D01*
X4599906Y4950094D01*
X4605504Y4957389D01*
X4609022Y4965884D01*
X4610223Y4975000D01*
X4609022Y4984116D01*
X4605504Y4992611D01*
X4599906Y4999906D01*
X4592611Y5005504D01*
X4584116Y5009022D01*
X4575000Y5010223D01*
D02*
G37*
G36*
X4475000D02*
X4465884Y5009022D01*
X4457389Y5005504D01*
X4450094Y4999906D01*
X4444496Y4992611D01*
X4440978Y4984116D01*
X4439777Y4975000D01*
X4440978Y4965884D01*
X4444496Y4957389D01*
X4450094Y4950094D01*
X4457389Y4944496D01*
X4465884Y4940978D01*
X4475000Y4939777D01*
X4484116Y4940978D01*
X4492611Y4944496D01*
X4499906Y4950094D01*
X4505504Y4957389D01*
X4509022Y4965884D01*
X4510223Y4975000D01*
X4509022Y4984116D01*
X4505504Y4992611D01*
X4499906Y4999906D01*
X4492611Y5005504D01*
X4484116Y5009022D01*
X4475000Y5010223D01*
D02*
G37*
G36*
X4175000D02*
X4165884Y5009022D01*
X4157389Y5005504D01*
X4150094Y4999906D01*
X4144496Y4992611D01*
X4140978Y4984116D01*
X4139777Y4975000D01*
X4140978Y4965884D01*
X4144496Y4957389D01*
X4150094Y4950094D01*
X4157389Y4944496D01*
X4165884Y4940978D01*
X4175000Y4939777D01*
X4184116Y4940978D01*
X4192611Y4944496D01*
X4199906Y4950094D01*
X4205504Y4957389D01*
X4209022Y4965884D01*
X4210223Y4975000D01*
X4209022Y4984116D01*
X4205504Y4992611D01*
X4199906Y4999906D01*
X4192611Y5005504D01*
X4184116Y5009022D01*
X4175000Y5010223D01*
D02*
G37*
G36*
X3772047Y4972047D02*
X3735000D01*
Y4935000D01*
X3772047D01*
Y4972047D01*
D02*
G37*
G36*
X3578740Y4965879D02*
X3572212Y4964580D01*
X3566677Y4960882D01*
X3562979Y4955347D01*
X3561680Y4948819D01*
X3562979Y4942290D01*
X3566677Y4936756D01*
X3572212Y4933057D01*
X3578740Y4931759D01*
X3585269Y4933057D01*
X3590803Y4936756D01*
X3594502Y4942290D01*
X3595800Y4948819D01*
X3594502Y4955347D01*
X3590803Y4960882D01*
X3585269Y4964580D01*
X3578740Y4965879D01*
D02*
G37*
G36*
X3875000Y5010223D02*
X3865884Y5009022D01*
X3857389Y5005504D01*
X3850094Y4999906D01*
X3844496Y4992611D01*
X3840978Y4984116D01*
X3839777Y4975000D01*
X3840978Y4965884D01*
X3844496Y4957389D01*
X3850094Y4950094D01*
X3857389Y4944496D01*
X3865884Y4940978D01*
X3875000Y4939777D01*
X3884116Y4940978D01*
X3892611Y4944496D01*
X3899906Y4950094D01*
X3905504Y4957389D01*
X3909022Y4965884D01*
X3910223Y4975000D01*
X3909022Y4984116D01*
X3905504Y4992611D01*
X3899906Y4999906D01*
X3892611Y5005504D01*
X3884116Y5009022D01*
X3875000Y5010223D01*
D02*
G37*
G36*
X3815000Y4972047D02*
X3777953D01*
Y4935000D01*
X3815000D01*
Y4972047D01*
D02*
G37*
G36*
X5475000Y5010223D02*
X5465884Y5009022D01*
X5457389Y5005504D01*
X5450094Y4999906D01*
X5444496Y4992611D01*
X5440978Y4984116D01*
X5439777Y4975000D01*
X5440978Y4965884D01*
X5444496Y4957389D01*
X5450094Y4950094D01*
X5457389Y4944496D01*
X5465884Y4940978D01*
X5475000Y4939777D01*
X5484116Y4940978D01*
X5492611Y4944496D01*
X5499906Y4950094D01*
X5505504Y4957389D01*
X5509022Y4965884D01*
X5510223Y4975000D01*
X5509022Y4984116D01*
X5505504Y4992611D01*
X5499906Y4999906D01*
X5492611Y5005504D01*
X5484116Y5009022D01*
X5475000Y5010223D01*
D02*
G37*
G36*
X5375000D02*
X5365884Y5009022D01*
X5357389Y5005504D01*
X5350094Y4999906D01*
X5344496Y4992611D01*
X5340978Y4984116D01*
X5339777Y4975000D01*
X5340978Y4965884D01*
X5344496Y4957389D01*
X5350094Y4950094D01*
X5357389Y4944496D01*
X5365884Y4940978D01*
X5375000Y4939777D01*
X5384116Y4940978D01*
X5392611Y4944496D01*
X5399906Y4950094D01*
X5405504Y4957389D01*
X5409022Y4965884D01*
X5410223Y4975000D01*
X5409022Y4984116D01*
X5405504Y4992611D01*
X5399906Y4999906D01*
X5392611Y5005504D01*
X5384116Y5009022D01*
X5375000Y5010223D01*
D02*
G37*
G36*
X5675000D02*
X5665884Y5009022D01*
X5657389Y5005504D01*
X5650094Y4999906D01*
X5644496Y4992611D01*
X5640978Y4984116D01*
X5639777Y4975000D01*
X5640978Y4965884D01*
X5644496Y4957389D01*
X5650094Y4950094D01*
X5657389Y4944496D01*
X5665884Y4940978D01*
X5675000Y4939777D01*
X5684116Y4940978D01*
X5692611Y4944496D01*
X5699906Y4950094D01*
X5705504Y4957389D01*
X5709022Y4965884D01*
X5710223Y4975000D01*
X5709022Y4984116D01*
X5705504Y4992611D01*
X5699906Y4999906D01*
X5692611Y5005504D01*
X5684116Y5009022D01*
X5675000Y5010223D01*
D02*
G37*
G36*
X5575000D02*
X5565884Y5009022D01*
X5557389Y5005504D01*
X5550094Y4999906D01*
X5544496Y4992611D01*
X5540978Y4984116D01*
X5539777Y4975000D01*
X5540978Y4965884D01*
X5544496Y4957389D01*
X5550094Y4950094D01*
X5557389Y4944496D01*
X5565884Y4940978D01*
X5575000Y4939777D01*
X5584116Y4940978D01*
X5592611Y4944496D01*
X5599906Y4950094D01*
X5605504Y4957389D01*
X5609022Y4965884D01*
X5610223Y4975000D01*
X5609022Y4984116D01*
X5605504Y4992611D01*
X5599906Y4999906D01*
X5592611Y5005504D01*
X5584116Y5009022D01*
X5575000Y5010223D01*
D02*
G37*
G36*
X5275000D02*
X5265884Y5009022D01*
X5257389Y5005504D01*
X5250094Y4999906D01*
X5244496Y4992611D01*
X5240978Y4984116D01*
X5239777Y4975000D01*
X5240978Y4965884D01*
X5244496Y4957389D01*
X5250094Y4950094D01*
X5257389Y4944496D01*
X5265884Y4940978D01*
X5275000Y4939777D01*
X5284116Y4940978D01*
X5292611Y4944496D01*
X5299906Y4950094D01*
X5305504Y4957389D01*
X5309022Y4965884D01*
X5310223Y4975000D01*
X5309022Y4984116D01*
X5305504Y4992611D01*
X5299906Y4999906D01*
X5292611Y5005504D01*
X5284116Y5009022D01*
X5275000Y5010223D01*
D02*
G37*
G36*
X4775000D02*
X4765884Y5009022D01*
X4757389Y5005504D01*
X4750094Y4999906D01*
X4744496Y4992611D01*
X4740978Y4984116D01*
X4739777Y4975000D01*
X4740978Y4965884D01*
X4744496Y4957389D01*
X4750094Y4950094D01*
X4757389Y4944496D01*
X4765884Y4940978D01*
X4775000Y4939777D01*
X4784116Y4940978D01*
X4792611Y4944496D01*
X4799906Y4950094D01*
X4805504Y4957389D01*
X4809022Y4965884D01*
X4810223Y4975000D01*
X4809022Y4984116D01*
X4805504Y4992611D01*
X4799906Y4999906D01*
X4792611Y5005504D01*
X4784116Y5009022D01*
X4775000Y5010223D01*
D02*
G37*
G36*
X4675000D02*
X4665884Y5009022D01*
X4657389Y5005504D01*
X4650094Y4999906D01*
X4644496Y4992611D01*
X4640978Y4984116D01*
X4639777Y4975000D01*
X4640978Y4965884D01*
X4644496Y4957389D01*
X4650094Y4950094D01*
X4657389Y4944496D01*
X4665884Y4940978D01*
X4675000Y4939777D01*
X4684116Y4940978D01*
X4692611Y4944496D01*
X4699906Y4950094D01*
X4705504Y4957389D01*
X4709022Y4965884D01*
X4710223Y4975000D01*
X4709022Y4984116D01*
X4705504Y4992611D01*
X4699906Y4999906D01*
X4692611Y5005504D01*
X4684116Y5009022D01*
X4675000Y5010223D01*
D02*
G37*
G36*
X5129921Y5024934D02*
X5123393Y5023636D01*
X5117858Y5019937D01*
X5114160Y5014403D01*
X5112861Y5007874D01*
X5114160Y5001345D01*
X5117858Y4995811D01*
X5123393Y4992113D01*
X5129921Y4990814D01*
X5136450Y4992113D01*
X5139807Y4994355D01*
X5143846Y4991041D01*
X5140978Y4984116D01*
X5139777Y4975000D01*
X5140978Y4965884D01*
X5144496Y4957389D01*
X5150094Y4950094D01*
X5157389Y4944496D01*
X5165884Y4940978D01*
X5175000Y4939777D01*
X5184116Y4940978D01*
X5192611Y4944496D01*
X5199906Y4950094D01*
X5205504Y4957389D01*
X5209022Y4965884D01*
X5210223Y4975000D01*
X5209022Y4984116D01*
X5205504Y4992611D01*
X5199906Y4999906D01*
X5192611Y5005504D01*
X5184116Y5009022D01*
X5175000Y5010223D01*
X5165884Y5009022D01*
X5157389Y5005504D01*
X5150469Y5000194D01*
X5149068Y5000606D01*
X5145958Y5002730D01*
X5146981Y5007874D01*
X5145683Y5014403D01*
X5141985Y5019937D01*
X5136450Y5023636D01*
X5129921Y5024934D01*
D02*
G37*
G36*
X4975000Y5010223D02*
X4965884Y5009022D01*
X4957389Y5005504D01*
X4950094Y4999906D01*
X4944496Y4992611D01*
X4940978Y4984116D01*
X4939777Y4975000D01*
X4940978Y4965884D01*
X4944496Y4957389D01*
X4950094Y4950094D01*
X4957389Y4944496D01*
X4965884Y4940978D01*
X4975000Y4939777D01*
X4984116Y4940978D01*
X4992611Y4944496D01*
X4999906Y4950094D01*
X5005504Y4957389D01*
X5009022Y4965884D01*
X5010223Y4975000D01*
X5009022Y4984116D01*
X5005504Y4992611D01*
X4999906Y4999906D01*
X4992611Y5005504D01*
X4984116Y5009022D01*
X4975000Y5010223D01*
D02*
G37*
G36*
X4425197Y4961942D02*
X4418668Y4960643D01*
X4413134Y4956945D01*
X4409435Y4951410D01*
X4408137Y4944882D01*
X4409435Y4938353D01*
X4413134Y4932819D01*
X4418668Y4929120D01*
X4425197Y4927822D01*
X4431725Y4929120D01*
X4437260Y4932819D01*
X4440958Y4938353D01*
X4442257Y4944882D01*
X4440958Y4951410D01*
X4437260Y4956945D01*
X4431725Y4960643D01*
X4425197Y4961942D01*
D02*
G37*
G36*
X3748032Y4902887D02*
X3741503Y4901588D01*
X3735968Y4897890D01*
X3732270Y4892355D01*
X3730971Y4885827D01*
X3732270Y4879298D01*
X3735968Y4873764D01*
X3741503Y4870065D01*
X3748032Y4868767D01*
X3754560Y4870065D01*
X3760095Y4873764D01*
X3763793Y4879298D01*
X3765092Y4885827D01*
X3763793Y4892355D01*
X3760095Y4897890D01*
X3754560Y4901588D01*
X3748032Y4902887D01*
D02*
G37*
G36*
X4133858Y4895939D02*
X4128482Y4894870D01*
X4123924Y4891824D01*
X4120878Y4887266D01*
X4119809Y4881890D01*
X4120878Y4876513D01*
X4123924Y4871955D01*
X4128482Y4868910D01*
X4133858Y4867840D01*
X4139235Y4868910D01*
X4143793Y4871955D01*
X4146838Y4876513D01*
X4147908Y4881890D01*
X4146838Y4887266D01*
X4143793Y4891824D01*
X4139235Y4894870D01*
X4133858Y4895939D01*
D02*
G37*
G36*
X5161417Y4934383D02*
X5154889Y4933084D01*
X5149354Y4929386D01*
X5145656Y4923851D01*
X5144357Y4917323D01*
X5145656Y4910794D01*
X5149354Y4905260D01*
X5154889Y4901561D01*
X5161417Y4900263D01*
X5167946Y4901561D01*
X5168896Y4902196D01*
X5169415Y4901960D01*
X5172949Y4898891D01*
X5171916Y4893701D01*
X5173215Y4887172D01*
X5176913Y4881637D01*
X5182448Y4877939D01*
X5188976Y4876641D01*
X5195505Y4877939D01*
X5201040Y4881637D01*
X5204738Y4887172D01*
X5206037Y4893701D01*
X5204738Y4900229D01*
X5201040Y4905764D01*
X5195505Y4909462D01*
X5188976Y4910761D01*
X5182448Y4909462D01*
X5181498Y4908827D01*
X5180979Y4909064D01*
X5177445Y4912133D01*
X5178477Y4917323D01*
X5177179Y4923851D01*
X5173481Y4929386D01*
X5167946Y4933084D01*
X5161417Y4934383D01*
D02*
G37*
G36*
X3696850Y4910761D02*
X3690322Y4909462D01*
X3684787Y4905764D01*
X3681089Y4900229D01*
X3679790Y4893701D01*
X3681089Y4887172D01*
X3684787Y4881637D01*
X3690322Y4877939D01*
X3696850Y4876641D01*
X3703379Y4877939D01*
X3708914Y4881637D01*
X3712612Y4887172D01*
X3713910Y4893701D01*
X3712612Y4900229D01*
X3708914Y4905764D01*
X3703379Y4909462D01*
X3696850Y4910761D01*
D02*
G37*
G36*
X4358268Y4895013D02*
X4351739Y4893714D01*
X4346204Y4890016D01*
X4342506Y4884481D01*
X4341208Y4877953D01*
X4342506Y4871424D01*
X4346204Y4865890D01*
X4351739Y4862191D01*
X4358268Y4860893D01*
X4364796Y4862191D01*
X4370331Y4865890D01*
X4374029Y4871424D01*
X4375328Y4877953D01*
X4374029Y4884481D01*
X4370331Y4890016D01*
X4364796Y4893714D01*
X4358268Y4895013D01*
D02*
G37*
G36*
X3322828Y4871381D02*
X3316299Y4870083D01*
X3310765Y4866384D01*
X3307066Y4860850D01*
X3305768Y4854321D01*
X3307066Y4847792D01*
X3310765Y4842258D01*
X3316299Y4838560D01*
X3322828Y4837261D01*
X3329357Y4838560D01*
X3334891Y4842258D01*
X3338590Y4847792D01*
X3339888Y4854321D01*
X3338590Y4860850D01*
X3334891Y4866384D01*
X3329357Y4870083D01*
X3322828Y4871381D01*
D02*
G37*
G36*
X4330709Y4863517D02*
X4324180Y4862218D01*
X4318645Y4858520D01*
X4314947Y4852985D01*
X4313649Y4846457D01*
X4314947Y4839928D01*
X4318645Y4834393D01*
X4324180Y4830695D01*
X4330709Y4829397D01*
X4337237Y4830695D01*
X4342772Y4834393D01*
X4346470Y4839928D01*
X4347769Y4846457D01*
X4346470Y4852985D01*
X4342772Y4858520D01*
X4337237Y4862218D01*
X4330709Y4863517D01*
D02*
G37*
G36*
X4476378Y4879265D02*
X4469849Y4877966D01*
X4464315Y4874268D01*
X4460617Y4868733D01*
X4459318Y4862205D01*
X4460617Y4855676D01*
X4464315Y4850141D01*
X4469849Y4846443D01*
X4476378Y4845145D01*
X4482907Y4846443D01*
X4488441Y4850141D01*
X4492140Y4855676D01*
X4493438Y4862205D01*
X4492140Y4868733D01*
X4488441Y4874268D01*
X4482907Y4877966D01*
X4476378Y4879265D01*
D02*
G37*
G36*
X4295276Y4856569D02*
X4289899Y4855500D01*
X4285341Y4852454D01*
X4282296Y4847896D01*
X4281226Y4842520D01*
X4281286Y4842218D01*
X4276576Y4840267D01*
X4274698Y4843077D01*
X4270140Y4846123D01*
X4264764Y4847192D01*
X4259387Y4846123D01*
X4254829Y4843077D01*
X4251784Y4838519D01*
X4250714Y4833143D01*
X4251784Y4827766D01*
X4254829Y4823208D01*
X4259387Y4820163D01*
X4264764Y4819093D01*
X4270140Y4820163D01*
X4274698Y4823208D01*
X4277744Y4827766D01*
X4278813Y4833143D01*
X4278753Y4833445D01*
X4283463Y4835396D01*
X4285341Y4832585D01*
X4289899Y4829540D01*
X4295276Y4828470D01*
X4300652Y4829540D01*
X4305210Y4832585D01*
X4308256Y4837143D01*
X4309325Y4842520D01*
X4308256Y4847896D01*
X4305210Y4852454D01*
X4300652Y4855500D01*
X4295276Y4856569D01*
D02*
G37*
G36*
X4875000Y5010223D02*
X4865884Y5009022D01*
X4857389Y5005504D01*
X4850094Y4999906D01*
X4844496Y4992611D01*
X4840978Y4984116D01*
X4839777Y4975000D01*
X4840978Y4965884D01*
X4844496Y4957389D01*
X4850094Y4950094D01*
X4857389Y4944496D01*
X4865884Y4940978D01*
X4875000Y4939777D01*
X4884116Y4940978D01*
X4888502Y4942794D01*
X4891817Y4938755D01*
X4889750Y4935663D01*
X4888452Y4929134D01*
X4889750Y4922605D01*
X4893449Y4917071D01*
X4898983Y4913372D01*
X4905512Y4912074D01*
X4912040Y4913372D01*
X4917575Y4917071D01*
X4921273Y4922605D01*
X4922572Y4929134D01*
X4921273Y4935663D01*
X4917575Y4941197D01*
X4912040Y4944895D01*
X4905512Y4946194D01*
X4902171Y4945529D01*
X4900038Y4949829D01*
X4899981Y4950192D01*
X4905504Y4957389D01*
X4909022Y4965884D01*
X4910223Y4975000D01*
X4909022Y4984116D01*
X4905504Y4992611D01*
X4899906Y4999906D01*
X4892611Y5005504D01*
X4884116Y5009022D01*
X4875000Y5010223D01*
D02*
G37*
G36*
X4968504Y4926509D02*
X4961975Y4925210D01*
X4956441Y4921512D01*
X4952742Y4915977D01*
X4951444Y4909449D01*
X4952742Y4902920D01*
X4956441Y4897386D01*
X4961975Y4893687D01*
X4968504Y4892389D01*
X4975033Y4893687D01*
X4980567Y4897386D01*
X4984265Y4902920D01*
X4985564Y4909449D01*
X4984265Y4915977D01*
X4980567Y4921512D01*
X4975033Y4925210D01*
X4968504Y4926509D01*
D02*
G37*
G36*
X4724409Y4958005D02*
X4717881Y4956706D01*
X4712346Y4953008D01*
X4708648Y4947474D01*
X4707349Y4940945D01*
X4708648Y4934416D01*
X4712346Y4928882D01*
X4717881Y4925183D01*
X4724409Y4923885D01*
X4730938Y4925183D01*
X4736473Y4928882D01*
X4740171Y4934416D01*
X4741470Y4940945D01*
X4740171Y4947474D01*
X4736473Y4953008D01*
X4730938Y4956706D01*
X4724409Y4958005D01*
D02*
G37*
G36*
X4822825Y4954058D02*
X4816296Y4952760D01*
X4810762Y4949061D01*
X4807064Y4943527D01*
X4805765Y4936998D01*
X4807064Y4930469D01*
X4810762Y4924935D01*
X4816296Y4921236D01*
X4822825Y4919938D01*
X4829354Y4921236D01*
X4834888Y4924935D01*
X4838587Y4930469D01*
X4839885Y4936998D01*
X4838587Y4943527D01*
X4834888Y4949061D01*
X4829354Y4952760D01*
X4822825Y4954058D01*
D02*
G37*
G36*
X4637795Y4922572D02*
X4631267Y4921273D01*
X4625732Y4917575D01*
X4622034Y4912040D01*
X4620735Y4905512D01*
X4622034Y4898983D01*
X4625732Y4893449D01*
X4631267Y4889750D01*
X4637795Y4888452D01*
X4644324Y4889750D01*
X4649859Y4893449D01*
X4653557Y4898983D01*
X4654855Y4905512D01*
X4653557Y4912040D01*
X4649859Y4917575D01*
X4644324Y4921273D01*
X4637795Y4922572D01*
D02*
G37*
G36*
X4086614Y4918635D02*
X4080086Y4917336D01*
X4074551Y4913638D01*
X4070853Y4908103D01*
X4069554Y4901575D01*
X4070853Y4895046D01*
X4074551Y4889511D01*
X4080086Y4885813D01*
X4086614Y4884515D01*
X4093143Y4885813D01*
X4098677Y4889511D01*
X4102376Y4895046D01*
X4103674Y4901575D01*
X4102376Y4908103D01*
X4098677Y4913638D01*
X4093143Y4917336D01*
X4086614Y4918635D01*
D02*
G37*
G36*
X4251968Y4914698D02*
X4245440Y4913399D01*
X4239905Y4909701D01*
X4236207Y4904166D01*
X4234908Y4897638D01*
X4236207Y4891109D01*
X4239905Y4885574D01*
X4245440Y4881876D01*
X4251968Y4880578D01*
X4258497Y4881876D01*
X4264032Y4885574D01*
X4267730Y4891109D01*
X4269029Y4897638D01*
X4267730Y4904166D01*
X4264032Y4909701D01*
X4258497Y4913399D01*
X4251968Y4914698D01*
D02*
G37*
G36*
X3385827Y4922572D02*
X3379298Y4921273D01*
X3373764Y4917575D01*
X3370065Y4912040D01*
X3368767Y4905512D01*
X3370065Y4898983D01*
X3373764Y4893449D01*
X3379298Y4889750D01*
X3385827Y4888452D01*
X3392355Y4889750D01*
X3397890Y4893449D01*
X3401588Y4898983D01*
X3402887Y4905512D01*
X3401588Y4912040D01*
X3397890Y4917575D01*
X3392355Y4921273D01*
X3385827Y4922572D01*
D02*
G37*
G36*
X4677165Y4918635D02*
X4670637Y4917336D01*
X4665102Y4913638D01*
X4661404Y4908103D01*
X4660105Y4901575D01*
X4661404Y4895046D01*
X4665102Y4889511D01*
X4670637Y4885813D01*
X4677165Y4884515D01*
X4683694Y4885813D01*
X4689229Y4889511D01*
X4692927Y4895046D01*
X4694225Y4901575D01*
X4692927Y4908103D01*
X4689229Y4913638D01*
X4683694Y4917336D01*
X4677165Y4918635D01*
D02*
G37*
G36*
X5775000Y5010223D02*
X5765884Y5009022D01*
X5757389Y5005504D01*
X5750094Y4999906D01*
X5744496Y4992611D01*
X5740978Y4984116D01*
X5739777Y4975000D01*
X5740978Y4965884D01*
X5744496Y4957389D01*
X5750094Y4950094D01*
X5757389Y4944496D01*
X5765884Y4940978D01*
X5775000Y4939777D01*
X5784116Y4940978D01*
X5792611Y4944496D01*
X5799906Y4950094D01*
X5805504Y4957389D01*
X5809022Y4965884D01*
X5810223Y4975000D01*
X5809022Y4984116D01*
X5805504Y4992611D01*
X5799906Y4999906D01*
X5792611Y5005504D01*
X5784116Y5009022D01*
X5775000Y5010223D01*
D02*
G37*
G36*
X5175000Y5110223D02*
X5165884Y5109022D01*
X5157389Y5105504D01*
X5150094Y5099906D01*
X5144496Y5092611D01*
X5140978Y5084116D01*
X5139777Y5075000D01*
X5140978Y5065884D01*
X5144496Y5057389D01*
X5150094Y5050094D01*
X5157389Y5044496D01*
X5165884Y5040978D01*
X5175000Y5039777D01*
X5184116Y5040978D01*
X5192611Y5044496D01*
X5199906Y5050094D01*
X5205504Y5057389D01*
X5209022Y5065884D01*
X5210223Y5075000D01*
X5209022Y5084116D01*
X5205504Y5092611D01*
X5199906Y5099906D01*
X5192611Y5105504D01*
X5184116Y5109022D01*
X5175000Y5110223D01*
D02*
G37*
G36*
X5075000D02*
X5065884Y5109022D01*
X5057389Y5105504D01*
X5050094Y5099906D01*
X5044496Y5092611D01*
X5040978Y5084116D01*
X5039777Y5075000D01*
X5040978Y5065884D01*
X5044496Y5057389D01*
X5050094Y5050094D01*
X5057389Y5044496D01*
X5065884Y5040978D01*
X5075000Y5039777D01*
X5084116Y5040978D01*
X5092611Y5044496D01*
X5099906Y5050094D01*
X5105504Y5057389D01*
X5109022Y5065884D01*
X5110223Y5075000D01*
X5109022Y5084116D01*
X5105504Y5092611D01*
X5099906Y5099906D01*
X5092611Y5105504D01*
X5084116Y5109022D01*
X5075000Y5110223D01*
D02*
G37*
G36*
X5375000D02*
X5365884Y5109022D01*
X5357389Y5105504D01*
X5350094Y5099906D01*
X5344496Y5092611D01*
X5340978Y5084116D01*
X5339777Y5075000D01*
X5340978Y5065884D01*
X5344496Y5057389D01*
X5350094Y5050094D01*
X5357389Y5044496D01*
X5365884Y5040978D01*
X5375000Y5039777D01*
X5384116Y5040978D01*
X5392611Y5044496D01*
X5399906Y5050094D01*
X5405504Y5057389D01*
X5409022Y5065884D01*
X5410223Y5075000D01*
X5409022Y5084116D01*
X5405504Y5092611D01*
X5399906Y5099906D01*
X5392611Y5105504D01*
X5384116Y5109022D01*
X5375000Y5110223D01*
D02*
G37*
G36*
X5275000D02*
X5265884Y5109022D01*
X5257389Y5105504D01*
X5250094Y5099906D01*
X5244496Y5092611D01*
X5240978Y5084116D01*
X5239777Y5075000D01*
X5240978Y5065884D01*
X5244496Y5057389D01*
X5250094Y5050094D01*
X5257389Y5044496D01*
X5265884Y5040978D01*
X5275000Y5039777D01*
X5284116Y5040978D01*
X5292611Y5044496D01*
X5299906Y5050094D01*
X5305504Y5057389D01*
X5309022Y5065884D01*
X5310223Y5075000D01*
X5309022Y5084116D01*
X5305504Y5092611D01*
X5299906Y5099906D01*
X5292611Y5105504D01*
X5284116Y5109022D01*
X5275000Y5110223D01*
D02*
G37*
G36*
X4975000D02*
X4965884Y5109022D01*
X4957389Y5105504D01*
X4950094Y5099906D01*
X4944496Y5092611D01*
X4940978Y5084116D01*
X4939777Y5075000D01*
X4940978Y5065884D01*
X4944496Y5057389D01*
X4950094Y5050094D01*
X4957389Y5044496D01*
X4965884Y5040978D01*
X4975000Y5039777D01*
X4984116Y5040978D01*
X4992611Y5044496D01*
X4999906Y5050094D01*
X5005504Y5057389D01*
X5009022Y5065884D01*
X5010223Y5075000D01*
X5009022Y5084116D01*
X5005504Y5092611D01*
X4999906Y5099906D01*
X4992611Y5105504D01*
X4984116Y5109022D01*
X4975000Y5110223D01*
D02*
G37*
G36*
X4675000D02*
X4665884Y5109022D01*
X4657389Y5105504D01*
X4650094Y5099906D01*
X4644496Y5092611D01*
X4640978Y5084116D01*
X4639777Y5075000D01*
X4640978Y5065884D01*
X4644496Y5057389D01*
X4650094Y5050094D01*
X4657389Y5044496D01*
X4665884Y5040978D01*
X4675000Y5039777D01*
X4684116Y5040978D01*
X4692611Y5044496D01*
X4699906Y5050094D01*
X4705504Y5057389D01*
X4709022Y5065884D01*
X4710223Y5075000D01*
X4709022Y5084116D01*
X4705504Y5092611D01*
X4699906Y5099906D01*
X4692611Y5105504D01*
X4684116Y5109022D01*
X4675000Y5110223D01*
D02*
G37*
G36*
X4575000D02*
X4565884Y5109022D01*
X4557389Y5105504D01*
X4550094Y5099906D01*
X4544496Y5092611D01*
X4540978Y5084116D01*
X4539777Y5075000D01*
X4540978Y5065884D01*
X4544496Y5057389D01*
X4550094Y5050094D01*
X4557389Y5044496D01*
X4565884Y5040978D01*
X4575000Y5039777D01*
X4584116Y5040978D01*
X4592611Y5044496D01*
X4599906Y5050094D01*
X4605504Y5057389D01*
X4609022Y5065884D01*
X4610223Y5075000D01*
X4609022Y5084116D01*
X4605504Y5092611D01*
X4599906Y5099906D01*
X4592611Y5105504D01*
X4584116Y5109022D01*
X4575000Y5110223D01*
D02*
G37*
G36*
X4875000D02*
X4865884Y5109022D01*
X4857389Y5105504D01*
X4850094Y5099906D01*
X4844496Y5092611D01*
X4840978Y5084116D01*
X4839777Y5075000D01*
X4840978Y5065884D01*
X4844496Y5057389D01*
X4850094Y5050094D01*
X4857389Y5044496D01*
X4865884Y5040978D01*
X4875000Y5039777D01*
X4884116Y5040978D01*
X4892611Y5044496D01*
X4899906Y5050094D01*
X4905504Y5057389D01*
X4909022Y5065884D01*
X4910223Y5075000D01*
X4909022Y5084116D01*
X4905504Y5092611D01*
X4899906Y5099906D01*
X4892611Y5105504D01*
X4884116Y5109022D01*
X4875000Y5110223D01*
D02*
G37*
G36*
X4775000D02*
X4765884Y5109022D01*
X4757389Y5105504D01*
X4750094Y5099906D01*
X4744496Y5092611D01*
X4740978Y5084116D01*
X4739777Y5075000D01*
X4740978Y5065884D01*
X4744496Y5057389D01*
X4750094Y5050094D01*
X4757389Y5044496D01*
X4765884Y5040978D01*
X4775000Y5039777D01*
X4784116Y5040978D01*
X4792611Y5044496D01*
X4799906Y5050094D01*
X4805504Y5057389D01*
X4809022Y5065884D01*
X4810223Y5075000D01*
X4809022Y5084116D01*
X4805504Y5092611D01*
X4799906Y5099906D01*
X4792611Y5105504D01*
X4784116Y5109022D01*
X4775000Y5110223D01*
D02*
G37*
G36*
X3570866Y5091863D02*
X3564338Y5090565D01*
X3558803Y5086866D01*
X3555105Y5081332D01*
X3553806Y5074803D01*
X3555105Y5068275D01*
X3558803Y5062740D01*
X3564338Y5059042D01*
X3570866Y5057743D01*
X3577395Y5059042D01*
X3582929Y5062740D01*
X3586628Y5068275D01*
X3587926Y5074803D01*
X3586628Y5081332D01*
X3582929Y5086866D01*
X3577395Y5090565D01*
X3570866Y5091863D01*
D02*
G37*
G36*
X5975000Y5110223D02*
X5965884Y5109022D01*
X5957389Y5105504D01*
X5950094Y5099906D01*
X5944496Y5092611D01*
X5940978Y5084116D01*
X5939777Y5075000D01*
X5940978Y5065884D01*
X5944496Y5057389D01*
X5950094Y5050094D01*
X5957389Y5044496D01*
X5965884Y5040978D01*
X5975000Y5039777D01*
X5984116Y5040978D01*
X5992611Y5044496D01*
X5999906Y5050094D01*
X6005504Y5057389D01*
X6009022Y5065884D01*
X6010223Y5075000D01*
X6009022Y5084116D01*
X6005504Y5092611D01*
X5999906Y5099906D01*
X5992611Y5105504D01*
X5984116Y5109022D01*
X5975000Y5110223D01*
D02*
G37*
G36*
X3777953Y5114957D02*
Y5077953D01*
X3814956D01*
X3813970Y5085442D01*
X3809940Y5095173D01*
X3803528Y5103528D01*
X3795173Y5109940D01*
X3785442Y5113971D01*
X3777953Y5114957D01*
D02*
G37*
G36*
X3772047D02*
X3764558Y5113971D01*
X3754827Y5109940D01*
X3746472Y5103528D01*
X3740060Y5095173D01*
X3736030Y5085442D01*
X3735044Y5077953D01*
X3772047D01*
Y5114957D01*
D02*
G37*
G36*
X5875000Y5110223D02*
X5865884Y5109022D01*
X5857389Y5105504D01*
X5850094Y5099906D01*
X5844496Y5092611D01*
X5840978Y5084116D01*
X5839777Y5075000D01*
X5840978Y5065884D01*
X5844496Y5057389D01*
X5850094Y5050094D01*
X5857389Y5044496D01*
X5865884Y5040978D01*
X5875000Y5039777D01*
X5884116Y5040978D01*
X5892611Y5044496D01*
X5899906Y5050094D01*
X5905504Y5057389D01*
X5909022Y5065884D01*
X5910223Y5075000D01*
X5909022Y5084116D01*
X5905504Y5092611D01*
X5899906Y5099906D01*
X5892611Y5105504D01*
X5884116Y5109022D01*
X5875000Y5110223D01*
D02*
G37*
G36*
X5575000D02*
X5565884Y5109022D01*
X5557389Y5105504D01*
X5550094Y5099906D01*
X5544496Y5092611D01*
X5540978Y5084116D01*
X5539777Y5075000D01*
X5540978Y5065884D01*
X5544496Y5057389D01*
X5550094Y5050094D01*
X5557389Y5044496D01*
X5565884Y5040978D01*
X5575000Y5039777D01*
X5584116Y5040978D01*
X5592611Y5044496D01*
X5599906Y5050094D01*
X5605504Y5057389D01*
X5609022Y5065884D01*
X5610223Y5075000D01*
X5609022Y5084116D01*
X5605504Y5092611D01*
X5599906Y5099906D01*
X5592611Y5105504D01*
X5584116Y5109022D01*
X5575000Y5110223D01*
D02*
G37*
G36*
X5475000D02*
X5465884Y5109022D01*
X5457389Y5105504D01*
X5450094Y5099906D01*
X5444496Y5092611D01*
X5440978Y5084116D01*
X5439777Y5075000D01*
X5440978Y5065884D01*
X5444496Y5057389D01*
X5450094Y5050094D01*
X5457389Y5044496D01*
X5465884Y5040978D01*
X5475000Y5039777D01*
X5484116Y5040978D01*
X5492611Y5044496D01*
X5499906Y5050094D01*
X5505504Y5057389D01*
X5509022Y5065884D01*
X5510223Y5075000D01*
X5509022Y5084116D01*
X5505504Y5092611D01*
X5499906Y5099906D01*
X5492611Y5105504D01*
X5484116Y5109022D01*
X5475000Y5110223D01*
D02*
G37*
G36*
X5775000D02*
X5765884Y5109022D01*
X5757389Y5105504D01*
X5750094Y5099906D01*
X5744496Y5092611D01*
X5740978Y5084116D01*
X5739777Y5075000D01*
X5740978Y5065884D01*
X5744496Y5057389D01*
X5750094Y5050094D01*
X5757389Y5044496D01*
X5765884Y5040978D01*
X5775000Y5039777D01*
X5784116Y5040978D01*
X5792611Y5044496D01*
X5799906Y5050094D01*
X5805504Y5057389D01*
X5809022Y5065884D01*
X5810223Y5075000D01*
X5809022Y5084116D01*
X5805504Y5092611D01*
X5799906Y5099906D01*
X5792611Y5105504D01*
X5784116Y5109022D01*
X5775000Y5110223D01*
D02*
G37*
G36*
X5675000D02*
X5665884Y5109022D01*
X5657389Y5105504D01*
X5650094Y5099906D01*
X5644496Y5092611D01*
X5640978Y5084116D01*
X5639777Y5075000D01*
X5640978Y5065884D01*
X5644496Y5057389D01*
X5650094Y5050094D01*
X5657389Y5044496D01*
X5665884Y5040978D01*
X5675000Y5039777D01*
X5684116Y5040978D01*
X5692611Y5044496D01*
X5699906Y5050094D01*
X5705504Y5057389D01*
X5709022Y5065884D01*
X5710223Y5075000D01*
X5709022Y5084116D01*
X5705504Y5092611D01*
X5699906Y5099906D01*
X5692611Y5105504D01*
X5684116Y5109022D01*
X5675000Y5110223D01*
D02*
G37*
G36*
X4475000D02*
X4465884Y5109022D01*
X4457389Y5105504D01*
X4450094Y5099906D01*
X4444496Y5092611D01*
X4440978Y5084116D01*
X4439777Y5075000D01*
X4440978Y5065884D01*
X4444496Y5057389D01*
X4450094Y5050094D01*
X4457389Y5044496D01*
X4465884Y5040978D01*
X4475000Y5039777D01*
X4484116Y5040978D01*
X4492611Y5044496D01*
X4499906Y5050094D01*
X4505504Y5057389D01*
X4509022Y5065884D01*
X4510223Y5075000D01*
X4509022Y5084116D01*
X4505504Y5092611D01*
X4499906Y5099906D01*
X4492611Y5105504D01*
X4484116Y5109022D01*
X4475000Y5110223D01*
D02*
G37*
G36*
X3326772Y5032808D02*
X3320243Y5031510D01*
X3314708Y5027811D01*
X3311010Y5022277D01*
X3309712Y5015748D01*
X3311010Y5009219D01*
X3314708Y5003685D01*
X3320243Y4999986D01*
X3326772Y4998688D01*
X3333300Y4999986D01*
X3338835Y5003685D01*
X3342533Y5009219D01*
X3343832Y5015748D01*
X3342533Y5022277D01*
X3338835Y5027811D01*
X3333300Y5031510D01*
X3326772Y5032808D01*
D02*
G37*
G36*
X3815000Y5015000D02*
X3777953D01*
Y4977953D01*
X3815000D01*
Y5015000D01*
D02*
G37*
G36*
X4936142Y5037611D02*
X4929613Y5036313D01*
X4924078Y5032615D01*
X4920380Y5027080D01*
X4919082Y5020551D01*
X4920380Y5014023D01*
X4924078Y5008488D01*
X4929613Y5004790D01*
X4936142Y5003491D01*
X4942670Y5004790D01*
X4948205Y5008488D01*
X4951903Y5014023D01*
X4953202Y5020551D01*
X4951903Y5027080D01*
X4948205Y5032615D01*
X4942670Y5036313D01*
X4936142Y5037611D01*
D02*
G37*
G36*
X4724409Y5032808D02*
X4717881Y5031510D01*
X4712346Y5027811D01*
X4708648Y5022277D01*
X4707349Y5015748D01*
X4708648Y5009219D01*
X4712346Y5003685D01*
X4717881Y4999986D01*
X4724409Y4998688D01*
X4730938Y4999986D01*
X4736473Y5003685D01*
X4740171Y5009219D01*
X4741470Y5015748D01*
X4740171Y5022277D01*
X4736473Y5027811D01*
X4730938Y5031510D01*
X4724409Y5032808D01*
D02*
G37*
G36*
X3772047Y5015000D02*
X3735000D01*
Y4977953D01*
X3772047D01*
Y5015000D01*
D02*
G37*
G36*
X5975000Y5010223D02*
X5965884Y5009022D01*
X5957389Y5005504D01*
X5950094Y4999906D01*
X5944496Y4992611D01*
X5940978Y4984116D01*
X5939777Y4975000D01*
X5940978Y4965884D01*
X5944496Y4957389D01*
X5950094Y4950094D01*
X5957389Y4944496D01*
X5965884Y4940978D01*
X5975000Y4939777D01*
X5984116Y4940978D01*
X5992611Y4944496D01*
X5999906Y4950094D01*
X6005504Y4957389D01*
X6009022Y4965884D01*
X6010223Y4975000D01*
X6009022Y4984116D01*
X6005504Y4992611D01*
X5999906Y4999906D01*
X5992611Y5005504D01*
X5984116Y5009022D01*
X5975000Y5010223D01*
D02*
G37*
G36*
X5875000D02*
X5865884Y5009022D01*
X5857389Y5005504D01*
X5850094Y4999906D01*
X5844496Y4992611D01*
X5840978Y4984116D01*
X5839777Y4975000D01*
X5840978Y4965884D01*
X5844496Y4957389D01*
X5850094Y4950094D01*
X5857389Y4944496D01*
X5865884Y4940978D01*
X5875000Y4939777D01*
X5884116Y4940978D01*
X5892611Y4944496D01*
X5899906Y4950094D01*
X5905504Y4957389D01*
X5909022Y4965884D01*
X5910223Y4975000D01*
X5909022Y4984116D01*
X5905504Y4992611D01*
X5899906Y4999906D01*
X5892611Y5005504D01*
X5884116Y5009022D01*
X5875000Y5010223D01*
D02*
G37*
G36*
X4075000D02*
X4065884Y5009022D01*
X4057389Y5005504D01*
X4050094Y4999906D01*
X4044496Y4992611D01*
X4040978Y4984116D01*
X4039777Y4975000D01*
X4040978Y4965884D01*
X4036530Y4963554D01*
X4035685Y4964819D01*
X4030151Y4968517D01*
X4023622Y4969816D01*
X4017093Y4968517D01*
X4014154Y4966553D01*
X4009492Y4969452D01*
X4010223Y4975000D01*
X4009022Y4984116D01*
X4005504Y4992611D01*
X3999906Y4999906D01*
X3992611Y5005504D01*
X3984116Y5009022D01*
X3975000Y5010223D01*
X3965884Y5009022D01*
X3957389Y5005504D01*
X3950094Y4999906D01*
X3944496Y4992611D01*
X3940978Y4984116D01*
X3939777Y4975000D01*
X3940978Y4965884D01*
X3944496Y4957389D01*
X3950094Y4950094D01*
X3957389Y4944496D01*
X3965884Y4940978D01*
X3975000Y4939777D01*
X3984116Y4940978D01*
X3992611Y4944496D01*
X3999906Y4950094D01*
X4001818Y4952586D01*
X4006910Y4951008D01*
X4007860Y4946227D01*
X4011559Y4940693D01*
X4017093Y4936994D01*
X4023622Y4935696D01*
X4030151Y4936994D01*
X4035685Y4940693D01*
X4039383Y4946227D01*
X4040682Y4952756D01*
X4040673Y4952799D01*
X4041267Y4953383D01*
X4047927Y4952918D01*
X4050094Y4950094D01*
X4057389Y4944496D01*
X4065884Y4940978D01*
X4075000Y4939777D01*
X4084116Y4940978D01*
X4092611Y4944496D01*
X4099906Y4950094D01*
X4105504Y4957389D01*
X4109022Y4965884D01*
X4110223Y4975000D01*
X4109022Y4984116D01*
X4105504Y4992611D01*
X4099906Y4999906D01*
X4092611Y5005504D01*
X4084116Y5009022D01*
X4075000Y5010223D01*
D02*
G37*
G36*
X5075000D02*
X5065884Y5009022D01*
X5057389Y5005504D01*
X5050094Y4999906D01*
X5044496Y4992611D01*
X5040978Y4984116D01*
X5039777Y4975000D01*
X5040978Y4965884D01*
X5041674Y4964202D01*
X5038910Y4961507D01*
X5037716Y4960693D01*
X5031486Y4961932D01*
X5024957Y4960633D01*
X5019423Y4956935D01*
X5015725Y4951401D01*
X5014426Y4944872D01*
X5015725Y4938343D01*
X5019423Y4932809D01*
X5024957Y4929110D01*
X5031486Y4927812D01*
X5038015Y4929110D01*
X5043549Y4932809D01*
X5047248Y4938343D01*
X5048546Y4944872D01*
X5048521Y4944998D01*
X5053058Y4947820D01*
X5057389Y4944496D01*
X5065884Y4940978D01*
X5075000Y4939777D01*
X5084116Y4940978D01*
X5092611Y4944496D01*
X5099906Y4950094D01*
X5105504Y4957389D01*
X5109022Y4965884D01*
X5110223Y4975000D01*
X5109022Y4984116D01*
X5105504Y4992611D01*
X5099906Y4999906D01*
X5092611Y5005504D01*
X5084116Y5009022D01*
X5075000Y5010223D01*
D02*
G37*
G36*
X4175000Y5110223D02*
X4165884Y5109022D01*
X4157389Y5105504D01*
X4150094Y5099906D01*
X4144496Y5092611D01*
X4140978Y5084116D01*
X4139777Y5075000D01*
X4140978Y5065884D01*
X4144496Y5057389D01*
X4150094Y5050094D01*
X4157389Y5044496D01*
X4165884Y5040978D01*
X4175000Y5039777D01*
X4184116Y5040978D01*
X4192611Y5044496D01*
X4199906Y5050094D01*
X4205504Y5057389D01*
X4209022Y5065884D01*
X4210223Y5075000D01*
X4209022Y5084116D01*
X4205504Y5092611D01*
X4199906Y5099906D01*
X4192611Y5105504D01*
X4184116Y5109022D01*
X4175000Y5110223D01*
D02*
G37*
G36*
X4075000D02*
X4065884Y5109022D01*
X4057389Y5105504D01*
X4050094Y5099906D01*
X4044496Y5092611D01*
X4040978Y5084116D01*
X4039777Y5075000D01*
X4040978Y5065884D01*
X4044496Y5057389D01*
X4050094Y5050094D01*
X4057389Y5044496D01*
X4065884Y5040978D01*
X4075000Y5039777D01*
X4084116Y5040978D01*
X4092611Y5044496D01*
X4099906Y5050094D01*
X4105504Y5057389D01*
X4109022Y5065884D01*
X4110223Y5075000D01*
X4109022Y5084116D01*
X4105504Y5092611D01*
X4099906Y5099906D01*
X4092611Y5105504D01*
X4084116Y5109022D01*
X4075000Y5110223D01*
D02*
G37*
G36*
X4375000D02*
X4365884Y5109022D01*
X4357389Y5105504D01*
X4350094Y5099906D01*
X4344496Y5092611D01*
X4340978Y5084116D01*
X4339777Y5075000D01*
X4340978Y5065884D01*
X4344496Y5057389D01*
X4350094Y5050094D01*
X4357389Y5044496D01*
X4365884Y5040978D01*
X4375000Y5039777D01*
X4384116Y5040978D01*
X4392611Y5044496D01*
X4399906Y5050094D01*
X4405504Y5057389D01*
X4409022Y5065884D01*
X4410223Y5075000D01*
X4409022Y5084116D01*
X4405504Y5092611D01*
X4399906Y5099906D01*
X4392611Y5105504D01*
X4384116Y5109022D01*
X4375000Y5110223D01*
D02*
G37*
G36*
X4275000D02*
X4265884Y5109022D01*
X4257389Y5105504D01*
X4250094Y5099906D01*
X4244496Y5092611D01*
X4240978Y5084116D01*
X4239777Y5075000D01*
X4240978Y5065884D01*
X4244496Y5057389D01*
X4250094Y5050094D01*
X4257389Y5044496D01*
X4265884Y5040978D01*
X4275000Y5039777D01*
X4284116Y5040978D01*
X4292611Y5044496D01*
X4299906Y5050094D01*
X4305504Y5057389D01*
X4309022Y5065884D01*
X4310223Y5075000D01*
X4309022Y5084116D01*
X4305504Y5092611D01*
X4299906Y5099906D01*
X4292611Y5105504D01*
X4284116Y5109022D01*
X4275000Y5110223D01*
D02*
G37*
G36*
X3975000D02*
X3965884Y5109022D01*
X3957389Y5105504D01*
X3950094Y5099906D01*
X3944496Y5092611D01*
X3940978Y5084116D01*
X3939777Y5075000D01*
X3940978Y5065884D01*
X3944496Y5057389D01*
X3950094Y5050094D01*
X3957389Y5044496D01*
X3965884Y5040978D01*
X3975000Y5039777D01*
X3984116Y5040978D01*
X3992611Y5044496D01*
X3999906Y5050094D01*
X4005504Y5057389D01*
X4009022Y5065884D01*
X4010223Y5075000D01*
X4009022Y5084116D01*
X4005504Y5092611D01*
X3999906Y5099906D01*
X3992611Y5105504D01*
X3984116Y5109022D01*
X3975000Y5110223D01*
D02*
G37*
G36*
X3772047Y5072047D02*
X3735044D01*
X3736030Y5064558D01*
X3740060Y5054827D01*
X3746472Y5046472D01*
X3754827Y5040060D01*
X3764558Y5036029D01*
X3772047Y5035043D01*
Y5072047D01*
D02*
G37*
G36*
X3377953Y5040682D02*
X3371424Y5039383D01*
X3365890Y5035685D01*
X3362191Y5030151D01*
X3360893Y5023622D01*
X3362191Y5017093D01*
X3365890Y5011559D01*
X3371424Y5007860D01*
X3377953Y5006562D01*
X3384481Y5007860D01*
X3390016Y5011559D01*
X3393714Y5017093D01*
X3395013Y5023622D01*
X3393714Y5030151D01*
X3390016Y5035685D01*
X3384481Y5039383D01*
X3377953Y5040682D01*
D02*
G37*
G36*
X3875000Y5110223D02*
X3865884Y5109022D01*
X3857389Y5105504D01*
X3850094Y5099906D01*
X3844496Y5092611D01*
X3840978Y5084116D01*
X3839777Y5075000D01*
X3840978Y5065884D01*
X3844496Y5057389D01*
X3850094Y5050094D01*
X3857389Y5044496D01*
X3865884Y5040978D01*
X3875000Y5039777D01*
X3884116Y5040978D01*
X3892611Y5044496D01*
X3899906Y5050094D01*
X3905504Y5057389D01*
X3909022Y5065884D01*
X3910223Y5075000D01*
X3909022Y5084116D01*
X3905504Y5092611D01*
X3899906Y5099906D01*
X3892611Y5105504D01*
X3884116Y5109022D01*
X3875000Y5110223D01*
D02*
G37*
G36*
X3814956Y5072047D02*
X3777953D01*
Y5035043D01*
X3785442Y5036029D01*
X3795173Y5040060D01*
X3803528Y5046472D01*
X3809940Y5054827D01*
X3813970Y5064558D01*
X3814956Y5072047D01*
D02*
G37*
G36*
X3342520Y4835958D02*
X3335991Y4834659D01*
X3330456Y4830961D01*
X3326758Y4825426D01*
X3325460Y4818898D01*
X3326758Y4812369D01*
X3330456Y4806834D01*
X3335991Y4803136D01*
X3342520Y4801837D01*
X3349048Y4803136D01*
X3354583Y4806834D01*
X3358281Y4812369D01*
X3359580Y4818898D01*
X3358281Y4825426D01*
X3354583Y4830961D01*
X3349048Y4834659D01*
X3342520Y4835958D01*
D02*
G37*
G36*
X4358268Y4422572D02*
X4351739Y4421273D01*
X4346204Y4417575D01*
X4342506Y4412040D01*
X4341208Y4405512D01*
X4342506Y4398983D01*
X4346204Y4393449D01*
X4350508Y4390573D01*
X4350817Y4389385D01*
Y4386205D01*
X4350508Y4385017D01*
X4346204Y4382142D01*
X4342506Y4376607D01*
X4341208Y4370079D01*
X4342506Y4363550D01*
X4346204Y4358015D01*
X4351197Y4354679D01*
X4349039Y4350399D01*
X4342511Y4351697D01*
X4335982Y4350399D01*
X4330448Y4346700D01*
X4326749Y4341166D01*
X4325451Y4334637D01*
X4326749Y4328108D01*
X4330448Y4322574D01*
X4335982Y4318876D01*
X4342511Y4317577D01*
X4349040Y4318876D01*
X4354574Y4322574D01*
X4358273Y4328108D01*
X4359571Y4334637D01*
X4358273Y4341166D01*
X4354574Y4346700D01*
X4349582Y4350037D01*
X4351739Y4354317D01*
X4358268Y4353019D01*
X4364796Y4354317D01*
X4370331Y4358015D01*
X4374029Y4363550D01*
X4375328Y4370079D01*
X4374029Y4376607D01*
X4370331Y4382142D01*
X4366028Y4385017D01*
X4365719Y4386205D01*
Y4389385D01*
X4366028Y4390573D01*
X4370331Y4393449D01*
X4374029Y4398983D01*
X4375328Y4405512D01*
X4374029Y4412040D01*
X4370331Y4417575D01*
X4364796Y4421273D01*
X4358268Y4422572D01*
D02*
G37*
G36*
X5807087Y4379265D02*
X5800558Y4377966D01*
X5795023Y4374268D01*
X5791325Y4368733D01*
X5790026Y4362205D01*
X5791325Y4355676D01*
X5795023Y4350141D01*
X5800558Y4346443D01*
X5807087Y4345145D01*
X5813615Y4346443D01*
X5819150Y4350141D01*
X5822848Y4355676D01*
X5824147Y4362205D01*
X5822848Y4368733D01*
X5819150Y4374268D01*
X5813615Y4377966D01*
X5807087Y4379265D01*
D02*
G37*
G36*
X5358268Y4422572D02*
X5351739Y4421273D01*
X5346204Y4417575D01*
X5342506Y4412040D01*
X5341208Y4405512D01*
X5342506Y4398983D01*
X5346204Y4393449D01*
X5351739Y4389750D01*
X5358268Y4388452D01*
X5364796Y4389750D01*
X5370331Y4393449D01*
X5374029Y4398983D01*
X5375328Y4405512D01*
X5374029Y4412040D01*
X5370331Y4417575D01*
X5364796Y4421273D01*
X5358268Y4422572D01*
D02*
G37*
G36*
X3929134Y4418635D02*
X3922605Y4417336D01*
X3917071Y4413638D01*
X3913372Y4408103D01*
X3912074Y4401575D01*
X3913372Y4395046D01*
X3917071Y4389511D01*
X3922605Y4385813D01*
X3929134Y4384515D01*
X3935662Y4385813D01*
X3941197Y4389511D01*
X3944895Y4395046D01*
X3946194Y4401575D01*
X3944895Y4408103D01*
X3941197Y4413638D01*
X3935662Y4417336D01*
X3929134Y4418635D01*
D02*
G37*
G36*
X3858268Y4409139D02*
X3849789Y4408022D01*
X3841887Y4404749D01*
X3835102Y4399543D01*
X3829896Y4392758D01*
X3826623Y4384857D01*
X3825507Y4376378D01*
X3826623Y4367899D01*
X3829896Y4359998D01*
X3835102Y4353213D01*
X3841887Y4348007D01*
X3849789Y4344734D01*
X3858268Y4343617D01*
X3866747Y4344734D01*
X3874648Y4348007D01*
X3881433Y4353213D01*
X3886639Y4359998D01*
X3889912Y4367899D01*
X3891028Y4376378D01*
X3889912Y4384857D01*
X3886639Y4392758D01*
X3881433Y4399543D01*
X3874648Y4404749D01*
X3866747Y4408022D01*
X3858268Y4409139D01*
D02*
G37*
G36*
X4208661Y4371391D02*
X4202133Y4370092D01*
X4196598Y4366394D01*
X4192900Y4360859D01*
X4191601Y4354331D01*
X4192900Y4347802D01*
X4196598Y4342267D01*
X4197441Y4341704D01*
X4197176Y4339574D01*
X4195937Y4336695D01*
X4191466Y4335806D01*
X4186908Y4332761D01*
X4183862Y4328203D01*
X4182792Y4322826D01*
X4183862Y4317449D01*
X4186908Y4312891D01*
X4191466Y4309846D01*
X4196842Y4308776D01*
X4202218Y4309846D01*
X4206776Y4312891D01*
X4209822Y4317449D01*
X4210891Y4322826D01*
X4209822Y4328203D01*
X4206941Y4332515D01*
X4207384Y4334215D01*
X4208052Y4335813D01*
X4208943Y4337327D01*
X4215190Y4338569D01*
X4220725Y4342267D01*
X4224423Y4347802D01*
X4225721Y4354331D01*
X4224423Y4360859D01*
X4220725Y4366394D01*
X4215190Y4370092D01*
X4208661Y4371391D01*
D02*
G37*
G36*
X4074803Y4332947D02*
X4069427Y4331878D01*
X4064869Y4328832D01*
X4061823Y4324274D01*
X4060754Y4318898D01*
X4061823Y4313521D01*
X4064869Y4308963D01*
X4069427Y4305918D01*
X4074803Y4304848D01*
X4080180Y4305918D01*
X4084738Y4308963D01*
X4087783Y4313521D01*
X4088853Y4318898D01*
X4087783Y4324274D01*
X4084738Y4328832D01*
X4080180Y4331878D01*
X4074803Y4332947D01*
D02*
G37*
G36*
X4049212Y4366412D02*
X4043836Y4365343D01*
X4039278Y4362297D01*
X4036232Y4357739D01*
X4035163Y4352363D01*
X4036232Y4346986D01*
X4039278Y4342428D01*
X4043836Y4339383D01*
X4049212Y4338313D01*
X4054589Y4339383D01*
X4059147Y4342428D01*
X4062192Y4346986D01*
X4063262Y4352363D01*
X4062192Y4357739D01*
X4059147Y4362297D01*
X4054589Y4365343D01*
X4049212Y4366412D01*
D02*
G37*
G36*
X4248032Y4355136D02*
X4242655Y4354067D01*
X4238097Y4351021D01*
X4235051Y4346463D01*
X4233982Y4341087D01*
X4235051Y4335710D01*
X4238097Y4331152D01*
X4242655Y4328107D01*
X4248032Y4327037D01*
X4253408Y4328107D01*
X4257966Y4331152D01*
X4261011Y4335710D01*
X4262081Y4341087D01*
X4261011Y4346463D01*
X4257966Y4351021D01*
X4253408Y4354067D01*
X4248032Y4355136D01*
D02*
G37*
G36*
X5035433Y4481627D02*
X5028904Y4480328D01*
X5023370Y4476630D01*
X5019672Y4471096D01*
X5018373Y4464567D01*
X5019672Y4458038D01*
X5023370Y4452504D01*
X5028904Y4448805D01*
X5035433Y4447507D01*
X5041962Y4448805D01*
X5047496Y4452504D01*
X5051195Y4458038D01*
X5052493Y4464567D01*
X5051195Y4471096D01*
X5047496Y4476630D01*
X5041962Y4480328D01*
X5035433Y4481627D01*
D02*
G37*
G36*
X4141732Y4474679D02*
X4136356Y4473610D01*
X4131798Y4470564D01*
X4128752Y4466006D01*
X4127683Y4460630D01*
X4128752Y4455253D01*
X4131798Y4450695D01*
X4136356Y4447650D01*
X4141732Y4446580D01*
X4147109Y4447650D01*
X4151667Y4450695D01*
X4154712Y4455253D01*
X4155782Y4460630D01*
X4154712Y4466006D01*
X4151667Y4470564D01*
X4147109Y4473610D01*
X4141732Y4474679D01*
D02*
G37*
G36*
X5153543Y4505249D02*
X5147015Y4503950D01*
X5141480Y4500252D01*
X5137782Y4494718D01*
X5136483Y4488189D01*
X5137782Y4481660D01*
X5141480Y4476126D01*
X5147015Y4472427D01*
X5153543Y4471129D01*
X5160072Y4472427D01*
X5165607Y4476126D01*
X5169305Y4481660D01*
X5170603Y4488189D01*
X5169305Y4494718D01*
X5165607Y4500252D01*
X5160072Y4503950D01*
X5153543Y4505249D01*
D02*
G37*
G36*
X5740158Y4489501D02*
X5733629Y4488202D01*
X5728094Y4484504D01*
X5724396Y4478970D01*
X5723097Y4472441D01*
X5724396Y4465912D01*
X5728094Y4460378D01*
X5733629Y4456679D01*
X5740158Y4455381D01*
X5746686Y4456679D01*
X5752221Y4460378D01*
X5755919Y4465912D01*
X5757218Y4472441D01*
X5755919Y4478970D01*
X5752221Y4484504D01*
X5746686Y4488202D01*
X5740158Y4489501D01*
D02*
G37*
G36*
X3890748Y4508858D02*
X3825787D01*
Y4443898D01*
X3890748D01*
Y4508858D01*
D02*
G37*
G36*
X5322835Y4454068D02*
X5316306Y4452769D01*
X5310771Y4449071D01*
X5307073Y4443537D01*
X5305775Y4437008D01*
X5307073Y4430479D01*
X5310771Y4424945D01*
X5316306Y4421246D01*
X5322835Y4419948D01*
X5329363Y4421246D01*
X5334898Y4424945D01*
X5338596Y4430479D01*
X5339895Y4437008D01*
X5338596Y4443537D01*
X5334898Y4449071D01*
X5329363Y4452769D01*
X5322835Y4454068D01*
D02*
G37*
G36*
X4173228Y4447120D02*
X4167852Y4446051D01*
X4163294Y4443005D01*
X4160248Y4438447D01*
X4159179Y4433071D01*
X4160248Y4427694D01*
X4163294Y4423136D01*
X4167852Y4420091D01*
X4173228Y4419021D01*
X4178605Y4420091D01*
X4183163Y4423136D01*
X4186208Y4427694D01*
X4187278Y4433071D01*
X4186208Y4438447D01*
X4183163Y4443005D01*
X4178605Y4446051D01*
X4173228Y4447120D01*
D02*
G37*
G36*
X4307087Y4469816D02*
X4300558Y4468517D01*
X4295023Y4464819D01*
X4291325Y4459284D01*
X4290026Y4452756D01*
X4291325Y4446227D01*
X4295023Y4440693D01*
X4300558Y4436994D01*
X4307087Y4435696D01*
X4313615Y4436994D01*
X4319150Y4440693D01*
X4322848Y4446227D01*
X4324147Y4452756D01*
X4322848Y4459284D01*
X4319150Y4464819D01*
X4313615Y4468517D01*
X4307087Y4469816D01*
D02*
G37*
G36*
X3929126Y4465870D02*
X3922597Y4464572D01*
X3917063Y4460873D01*
X3913365Y4455339D01*
X3912066Y4448810D01*
X3913365Y4442281D01*
X3917063Y4436747D01*
X3922597Y4433048D01*
X3929126Y4431750D01*
X3935655Y4433048D01*
X3941189Y4436747D01*
X3944887Y4442281D01*
X3946186Y4448810D01*
X3944887Y4455339D01*
X3941189Y4460873D01*
X3935655Y4464572D01*
X3929126Y4465870D01*
D02*
G37*
G36*
X4637795Y4288714D02*
X4631267Y4287415D01*
X4625984Y4283885D01*
X4620702Y4287415D01*
X4614173Y4288714D01*
X4607645Y4287415D01*
X4602362Y4283885D01*
X4597080Y4287415D01*
X4590551Y4288714D01*
X4584023Y4287415D01*
X4578488Y4283717D01*
X4574790Y4278182D01*
X4573491Y4271654D01*
X4574790Y4265125D01*
X4578488Y4259590D01*
X4584023Y4255892D01*
X4590551Y4254593D01*
X4597080Y4255892D01*
X4602362Y4259422D01*
X4607645Y4255892D01*
X4614173Y4254593D01*
X4620702Y4255892D01*
X4625984Y4259422D01*
X4631267Y4255892D01*
X4637795Y4254593D01*
X4644324Y4255892D01*
X4649859Y4259590D01*
X4653557Y4265125D01*
X4654855Y4271654D01*
X4653557Y4278182D01*
X4649859Y4283717D01*
X4644324Y4287415D01*
X4637795Y4288714D01*
D02*
G37*
G36*
X3858268Y4209139D02*
X3849789Y4208022D01*
X3841887Y4204749D01*
X3835102Y4199543D01*
X3829896Y4192758D01*
X3826623Y4184857D01*
X3825507Y4176378D01*
X3826623Y4167899D01*
X3829896Y4159998D01*
X3835102Y4153213D01*
X3841887Y4148007D01*
X3849789Y4144734D01*
X3858268Y4143617D01*
X3866747Y4144734D01*
X3874648Y4148007D01*
X3881433Y4153213D01*
X3886639Y4159998D01*
X3889912Y4167899D01*
X3891028Y4176378D01*
X3889912Y4184857D01*
X3886639Y4192758D01*
X3881433Y4199543D01*
X3874648Y4204749D01*
X3866747Y4208022D01*
X3858268Y4209139D01*
D02*
G37*
G36*
X5543307Y4174540D02*
X5536779Y4173242D01*
X5531244Y4169544D01*
X5527546Y4164009D01*
X5526247Y4157480D01*
X5527546Y4150952D01*
X5531244Y4145417D01*
X5536779Y4141719D01*
X5543307Y4140420D01*
X5549836Y4141719D01*
X5555370Y4145417D01*
X5559069Y4150952D01*
X5560367Y4157480D01*
X5559069Y4164009D01*
X5555370Y4169544D01*
X5549836Y4173242D01*
X5543307Y4174540D01*
D02*
G37*
G36*
X5291522Y4202283D02*
X5284993Y4200984D01*
X5279459Y4197286D01*
X5275761Y4191751D01*
X5274462Y4185223D01*
X5275761Y4178694D01*
X5279459Y4173159D01*
X5284993Y4169461D01*
X5291522Y4168163D01*
X5298051Y4169461D01*
X5303585Y4173159D01*
X5307283Y4178694D01*
X5308582Y4185223D01*
X5307283Y4191751D01*
X5303585Y4197286D01*
X5298051Y4200984D01*
X5291522Y4202283D01*
D02*
G37*
G36*
X5124016Y4178477D02*
X5117487Y4177179D01*
X5111952Y4173481D01*
X5108254Y4167946D01*
X5106956Y4161417D01*
X5108254Y4154889D01*
X5111952Y4149354D01*
X5117487Y4145656D01*
X5124016Y4144357D01*
X5130544Y4145656D01*
X5136079Y4149354D01*
X5139777Y4154889D01*
X5141076Y4161417D01*
X5139777Y4167946D01*
X5136079Y4173481D01*
X5130544Y4177179D01*
X5124016Y4178477D01*
D02*
G37*
G36*
X4909449Y4170603D02*
X4902920Y4169305D01*
X4897386Y4165607D01*
X4893687Y4160072D01*
X4892389Y4153543D01*
X4893687Y4147015D01*
X4897386Y4141480D01*
X4902920Y4137782D01*
X4909449Y4136483D01*
X4915977Y4137782D01*
X4921512Y4141480D01*
X4925210Y4147015D01*
X4926509Y4153543D01*
X4925210Y4160072D01*
X4921512Y4165607D01*
X4915977Y4169305D01*
X4909449Y4170603D01*
D02*
G37*
G36*
X3933063Y4146973D02*
X3926534Y4145675D01*
X3921000Y4141976D01*
X3917302Y4136442D01*
X3916003Y4129913D01*
X3917302Y4123384D01*
X3921000Y4117850D01*
X3926534Y4114151D01*
X3933063Y4112853D01*
X3939592Y4114151D01*
X3945126Y4117850D01*
X3948825Y4123384D01*
X3950123Y4129913D01*
X3948825Y4136442D01*
X3945126Y4141976D01*
X3939592Y4145675D01*
X3933063Y4146973D01*
D02*
G37*
G36*
X4531496Y4135170D02*
X4524967Y4133872D01*
X4519433Y4130173D01*
X4515735Y4124639D01*
X4514436Y4118110D01*
X4515735Y4111582D01*
X4519433Y4106047D01*
X4524967Y4102349D01*
X4531496Y4101050D01*
X4538025Y4102349D01*
X4543559Y4106047D01*
X4547258Y4111582D01*
X4548556Y4118110D01*
X4547258Y4124639D01*
X4543559Y4130173D01*
X4538025Y4133872D01*
X4531496Y4135170D01*
D02*
G37*
G36*
X4279528Y4163656D02*
X4274151Y4162586D01*
X4269593Y4159541D01*
X4266548Y4154983D01*
X4265478Y4149606D01*
X4266548Y4144230D01*
X4269593Y4139672D01*
X4274151Y4136626D01*
X4279528Y4135557D01*
X4284904Y4136626D01*
X4289462Y4139672D01*
X4292508Y4144230D01*
X4293577Y4149606D01*
X4292508Y4154983D01*
X4289462Y4159541D01*
X4284904Y4162586D01*
X4279528Y4163656D01*
D02*
G37*
G36*
X4216535Y4167593D02*
X4211159Y4166523D01*
X4206601Y4163478D01*
X4203555Y4158920D01*
X4202486Y4153543D01*
X4203555Y4148167D01*
X4206601Y4143609D01*
X4211159Y4140563D01*
X4216535Y4139494D01*
X4221912Y4140563D01*
X4226470Y4143609D01*
X4226736Y4143644D01*
X4232006Y4142895D01*
X4234160Y4139672D01*
X4238718Y4136626D01*
X4244095Y4135557D01*
X4249471Y4136626D01*
X4254029Y4139672D01*
X4257074Y4144230D01*
X4258144Y4149606D01*
X4257074Y4154983D01*
X4254029Y4159541D01*
X4249471Y4162586D01*
X4244095Y4163656D01*
X4238718Y4162586D01*
X4234160Y4159541D01*
X4233894Y4159505D01*
X4228623Y4160255D01*
X4226470Y4163478D01*
X4221912Y4166523D01*
X4216535Y4167593D01*
D02*
G37*
G36*
X5880905Y4279855D02*
X5874377Y4278557D01*
X5868842Y4274859D01*
X5865144Y4269324D01*
X5863845Y4262795D01*
X5865144Y4256267D01*
X5868842Y4250732D01*
X5874377Y4247034D01*
X5880905Y4245735D01*
X5887434Y4247034D01*
X5892969Y4250732D01*
X5896667Y4256267D01*
X5897966Y4262795D01*
X5896667Y4269324D01*
X5892969Y4274859D01*
X5887434Y4278557D01*
X5880905Y4279855D01*
D02*
G37*
G36*
X3858268Y4309139D02*
X3849789Y4308022D01*
X3841887Y4304749D01*
X3835102Y4299543D01*
X3829896Y4292758D01*
X3826623Y4284857D01*
X3825507Y4276378D01*
X3826623Y4267899D01*
X3829896Y4259998D01*
X3835102Y4253213D01*
X3841887Y4248007D01*
X3849789Y4244734D01*
X3858268Y4243617D01*
X3866747Y4244734D01*
X3874648Y4248007D01*
X3881433Y4253213D01*
X3886639Y4259998D01*
X3889912Y4267899D01*
X3891028Y4276378D01*
X3889912Y4284857D01*
X3886639Y4292758D01*
X3881433Y4299543D01*
X3874648Y4304749D01*
X3866747Y4308022D01*
X3858268Y4309139D01*
D02*
G37*
G36*
X4464567Y4316273D02*
X4458038Y4314974D01*
X4452504Y4311276D01*
X4448805Y4305741D01*
X4447507Y4299213D01*
X4448805Y4292684D01*
X4452504Y4287149D01*
X4458038Y4283451D01*
X4464567Y4282153D01*
X4471096Y4283451D01*
X4476630Y4287149D01*
X4480328Y4292684D01*
X4481627Y4299213D01*
X4480328Y4305741D01*
X4476630Y4311276D01*
X4471096Y4314974D01*
X4464567Y4316273D01*
D02*
G37*
G36*
X5606299Y4284777D02*
X5599771Y4283478D01*
X5594236Y4279780D01*
X5590538Y4274245D01*
X5589239Y4267717D01*
X5590538Y4261188D01*
X5594236Y4255653D01*
X5599771Y4251955D01*
X5606299Y4250656D01*
X5612828Y4251955D01*
X5618363Y4255653D01*
X5622061Y4261188D01*
X5623359Y4267717D01*
X5622061Y4274245D01*
X5618363Y4279780D01*
X5612828Y4283478D01*
X5606299Y4284777D01*
D02*
G37*
G36*
X5161417Y4265092D02*
X5154889Y4263793D01*
X5149354Y4260095D01*
X5145656Y4254560D01*
X5144357Y4248032D01*
X5145656Y4241503D01*
X5149354Y4235968D01*
X5154889Y4232270D01*
X5161417Y4230971D01*
X5167946Y4232270D01*
X5173481Y4235968D01*
X5177179Y4241503D01*
X5178477Y4248032D01*
X5177179Y4254560D01*
X5173481Y4260095D01*
X5167946Y4263793D01*
X5161417Y4265092D01*
D02*
G37*
G36*
X4035425Y4221638D02*
X4031969Y4220951D01*
X4029039Y4218993D01*
X4027081Y4216063D01*
X4026393Y4212606D01*
Y4212590D01*
X4027081Y4209134D01*
X4029039Y4206204D01*
X4031969Y4204246D01*
X4035425Y4203558D01*
X4038881Y4204246D01*
X4041811Y4206204D01*
X4043769Y4209134D01*
X4044457Y4212590D01*
Y4212606D01*
X4043769Y4216063D01*
X4041811Y4218993D01*
X4038881Y4220951D01*
X4035425Y4221638D01*
D02*
G37*
G36*
X5230933Y4237533D02*
X5224404Y4236234D01*
X5218870Y4232536D01*
X5215171Y4227001D01*
X5213873Y4220472D01*
X5215171Y4213944D01*
X5218870Y4208409D01*
X5224404Y4204711D01*
X5230933Y4203412D01*
X5237462Y4204711D01*
X5242996Y4208409D01*
X5246694Y4213944D01*
X5247993Y4220472D01*
X5246694Y4227001D01*
X5242996Y4232536D01*
X5237462Y4236234D01*
X5230933Y4237533D01*
D02*
G37*
G36*
X5041339Y4242454D02*
X5034810Y4241155D01*
X5029275Y4237457D01*
X5025577Y4231922D01*
X5024279Y4225394D01*
X5025577Y4218865D01*
X5029275Y4213330D01*
X5034810Y4209632D01*
X5041339Y4208334D01*
X5047867Y4209632D01*
X5053402Y4213330D01*
X5057100Y4218865D01*
X5058399Y4225394D01*
X5057100Y4231922D01*
X5053402Y4237457D01*
X5047867Y4241155D01*
X5041339Y4242454D01*
D02*
G37*
G36*
X4736221Y4288714D02*
X4729692Y4287415D01*
X4724157Y4283717D01*
X4720459Y4278182D01*
X4719160Y4271654D01*
X4720459Y4265125D01*
X4723989Y4259842D01*
X4720459Y4254560D01*
X4719160Y4248032D01*
X4720459Y4241503D01*
X4723989Y4236220D01*
X4720459Y4230938D01*
X4719160Y4224409D01*
X4720459Y4217881D01*
X4724157Y4212346D01*
X4729692Y4208648D01*
X4736221Y4207349D01*
X4742749Y4208648D01*
X4748284Y4212346D01*
X4751982Y4217881D01*
X4753281Y4224409D01*
X4751982Y4230938D01*
X4748452Y4236220D01*
X4751982Y4241503D01*
X4753281Y4248032D01*
X4751982Y4254560D01*
X4748452Y4259842D01*
X4751982Y4265125D01*
X4753281Y4271654D01*
X4751982Y4278182D01*
X4748284Y4283717D01*
X4742749Y4287415D01*
X4736221Y4288714D01*
D02*
G37*
G36*
X3913386Y4502239D02*
X3908009Y4501169D01*
X3903451Y4498123D01*
X3900406Y4493565D01*
X3899336Y4488189D01*
X3900406Y4482812D01*
X3903451Y4478255D01*
X3908009Y4475209D01*
X3913386Y4474140D01*
X3918762Y4475209D01*
X3923320Y4478255D01*
X3926366Y4482812D01*
X3927435Y4488189D01*
X3926366Y4493565D01*
X3923320Y4498123D01*
X3918762Y4501169D01*
X3913386Y4502239D01*
D02*
G37*
G36*
X4452756Y4679404D02*
X4447379Y4678334D01*
X4442821Y4675289D01*
X4439776Y4670731D01*
X4438706Y4665354D01*
X4439776Y4659978D01*
X4442821Y4655420D01*
X4447379Y4652374D01*
X4452756Y4651305D01*
X4458132Y4652374D01*
X4462690Y4655420D01*
X4465736Y4659978D01*
X4466805Y4665354D01*
X4465736Y4670731D01*
X4462690Y4675289D01*
X4458132Y4678334D01*
X4452756Y4679404D01*
D02*
G37*
G36*
X4775581Y4658783D02*
X4769052Y4657484D01*
X4763518Y4653786D01*
X4759819Y4648252D01*
X4758521Y4641723D01*
X4759819Y4635194D01*
X4763518Y4629660D01*
X4769052Y4625962D01*
X4775581Y4624663D01*
X4782109Y4625962D01*
X4787644Y4629660D01*
X4791342Y4635194D01*
X4792641Y4641723D01*
X4791342Y4648252D01*
X4787644Y4653786D01*
X4782109Y4657484D01*
X4775581Y4658783D01*
D02*
G37*
G36*
X4814951Y4717838D02*
X4808422Y4716539D01*
X4802888Y4712841D01*
X4799190Y4707307D01*
X4797891Y4700778D01*
X4799190Y4694249D01*
X4802888Y4688715D01*
X4808422Y4685016D01*
X4814951Y4683718D01*
X4821480Y4685016D01*
X4827014Y4688715D01*
X4830712Y4694249D01*
X4832011Y4700778D01*
X4830712Y4707307D01*
X4827014Y4712841D01*
X4821480Y4716539D01*
X4814951Y4717838D01*
D02*
G37*
G36*
X5931102Y4702100D02*
X5924574Y4700801D01*
X5919039Y4697103D01*
X5915341Y4691568D01*
X5914042Y4685039D01*
X5915341Y4678511D01*
X5919039Y4672976D01*
X5924574Y4669278D01*
X5931102Y4667979D01*
X5937631Y4669278D01*
X5943166Y4672976D01*
X5946864Y4678511D01*
X5948162Y4685039D01*
X5946864Y4691568D01*
X5943166Y4697103D01*
X5937631Y4700801D01*
X5931102Y4702100D01*
D02*
G37*
G36*
X5929134Y4654855D02*
X5922605Y4653557D01*
X5917070Y4649859D01*
X5913372Y4644324D01*
X5912074Y4637795D01*
X5913372Y4631267D01*
X5917070Y4625732D01*
X5922605Y4622034D01*
X5929134Y4620735D01*
X5935662Y4622034D01*
X5941197Y4625732D01*
X5944895Y4631267D01*
X5946194Y4637795D01*
X5944895Y4644324D01*
X5941197Y4649859D01*
X5935662Y4653557D01*
X5929134Y4654855D01*
D02*
G37*
G36*
X4937008Y4635170D02*
X4930479Y4633872D01*
X4924945Y4630173D01*
X4921246Y4624639D01*
X4919948Y4618110D01*
X4921246Y4611582D01*
X4924945Y4606047D01*
X4930479Y4602349D01*
X4937008Y4601050D01*
X4943537Y4602349D01*
X4949071Y4606047D01*
X4952769Y4611582D01*
X4954068Y4618110D01*
X4952769Y4624639D01*
X4949071Y4630173D01*
X4943537Y4633872D01*
X4937008Y4635170D01*
D02*
G37*
G36*
X3891732Y4626254D02*
X3886356Y4625185D01*
X3881798Y4622139D01*
X3878752Y4617581D01*
X3877683Y4612205D01*
X3878752Y4606828D01*
X3881798Y4602270D01*
X3886356Y4599225D01*
X3891732Y4598155D01*
X3897109Y4599225D01*
X3901667Y4602270D01*
X3904712Y4606828D01*
X3905782Y4612205D01*
X3904712Y4617581D01*
X3901667Y4622139D01*
X3897109Y4625185D01*
X3891732Y4626254D01*
D02*
G37*
G36*
X4370079Y4654855D02*
X4363550Y4653557D01*
X4358015Y4649859D01*
X4354317Y4644324D01*
X4353019Y4637795D01*
X4354317Y4631267D01*
X4358015Y4625732D01*
X4363550Y4622034D01*
X4370079Y4620735D01*
X4376607Y4622034D01*
X4382142Y4625732D01*
X4385840Y4631267D01*
X4387139Y4637795D01*
X4385840Y4644324D01*
X4382142Y4649859D01*
X4376607Y4653557D01*
X4370079Y4654855D01*
D02*
G37*
G36*
X5531496Y4635170D02*
X5524967Y4633872D01*
X5519433Y4630173D01*
X5515735Y4624639D01*
X5514436Y4618110D01*
X5515735Y4611582D01*
X5519433Y4606047D01*
X5524967Y4602349D01*
X5531496Y4601050D01*
X5538025Y4602349D01*
X5543559Y4606047D01*
X5547258Y4611582D01*
X5548556Y4618110D01*
X5547258Y4624639D01*
X5543559Y4630173D01*
X5538025Y4633872D01*
X5531496Y4635170D01*
D02*
G37*
G36*
X4366142Y4766018D02*
X4360765Y4764949D01*
X4356207Y4761903D01*
X4353162Y4757345D01*
X4352092Y4751968D01*
X4353162Y4746592D01*
X4356207Y4742034D01*
X4360765Y4738989D01*
X4366142Y4737919D01*
X4371518Y4738989D01*
X4376076Y4742034D01*
X4379122Y4746592D01*
X4380191Y4751968D01*
X4379122Y4757345D01*
X4376076Y4761903D01*
X4371518Y4764949D01*
X4366142Y4766018D01*
D02*
G37*
G36*
X4724400Y4765082D02*
X4717871Y4763783D01*
X4712337Y4760085D01*
X4708638Y4754551D01*
X4707340Y4748022D01*
X4708638Y4741493D01*
X4712337Y4735959D01*
X4717871Y4732261D01*
X4724400Y4730962D01*
X4730928Y4732261D01*
X4736463Y4735959D01*
X4740161Y4741493D01*
X4741460Y4748022D01*
X4740161Y4754551D01*
X4736463Y4760085D01*
X4730928Y4763783D01*
X4724400Y4765082D01*
D02*
G37*
G36*
X5822835Y4824147D02*
X5816306Y4822848D01*
X5810771Y4819150D01*
X5807073Y4813615D01*
X5805775Y4807087D01*
X5807073Y4800558D01*
X5810771Y4795023D01*
X5816306Y4791325D01*
X5822835Y4790026D01*
X5829363Y4791325D01*
X5834898Y4795023D01*
X5838596Y4800558D01*
X5839895Y4807087D01*
X5838596Y4813615D01*
X5834898Y4819150D01*
X5829363Y4822848D01*
X5822835Y4824147D01*
D02*
G37*
G36*
X3746063Y4763123D02*
X3739535Y4761824D01*
X3734000Y4758126D01*
X3730302Y4752592D01*
X3729003Y4746063D01*
X3730302Y4739534D01*
X3734000Y4734000D01*
X3739535Y4730301D01*
X3746063Y4729003D01*
X3752592Y4730301D01*
X3758126Y4734000D01*
X3761825Y4739534D01*
X3763123Y4746063D01*
X3761825Y4752592D01*
X3758126Y4758126D01*
X3752592Y4761824D01*
X3746063Y4763123D01*
D02*
G37*
G36*
X3771653Y4703026D02*
X3766277Y4701956D01*
X3761719Y4698911D01*
X3758673Y4694353D01*
X3758063Y4691283D01*
X3754475Y4690652D01*
X3752872Y4690814D01*
X3750092Y4694974D01*
X3745534Y4698019D01*
X3740157Y4699089D01*
X3734781Y4698019D01*
X3730223Y4694974D01*
X3727177Y4690416D01*
X3726108Y4685039D01*
X3727177Y4679663D01*
X3730223Y4675105D01*
X3734781Y4672059D01*
X3740157Y4670990D01*
X3745534Y4672059D01*
X3750092Y4675105D01*
X3753137Y4679663D01*
X3753748Y4682732D01*
X3757336Y4683364D01*
X3758939Y4683202D01*
X3761719Y4679042D01*
X3766277Y4675996D01*
X3771653Y4674927D01*
X3777030Y4675996D01*
X3781588Y4679042D01*
X3784633Y4683600D01*
X3785703Y4688976D01*
X3784633Y4694353D01*
X3781588Y4698911D01*
X3777030Y4701956D01*
X3771653Y4703026D01*
D02*
G37*
G36*
X4763779Y4774637D02*
X4757251Y4773339D01*
X4751716Y4769641D01*
X4748018Y4764106D01*
X4746719Y4757577D01*
X4748018Y4751049D01*
X4751716Y4745514D01*
X4757251Y4741816D01*
X4763779Y4740517D01*
X4764837Y4740727D01*
X4766797Y4737535D01*
X4767213Y4736102D01*
X4763757Y4730929D01*
X4762458Y4724400D01*
X4763757Y4717871D01*
X4767455Y4712337D01*
X4772989Y4708639D01*
X4779518Y4707340D01*
X4786047Y4708639D01*
X4791581Y4712337D01*
X4795279Y4717871D01*
X4796578Y4724400D01*
X4795279Y4730929D01*
X4791581Y4736463D01*
X4786047Y4740162D01*
X4779518Y4741460D01*
X4778461Y4741250D01*
X4776501Y4744443D01*
X4776084Y4745875D01*
X4779541Y4751049D01*
X4780840Y4757577D01*
X4779541Y4764106D01*
X4775843Y4769641D01*
X4770308Y4773339D01*
X4763779Y4774637D01*
D02*
G37*
G36*
X5421260Y4734522D02*
X5415883Y4733452D01*
X5411325Y4730407D01*
X5408280Y4725849D01*
X5407210Y4720472D01*
X5408280Y4715096D01*
X5411325Y4710538D01*
X5415883Y4707492D01*
X5421260Y4706423D01*
X5426636Y4707492D01*
X5431194Y4710538D01*
X5434240Y4715096D01*
X5435309Y4720472D01*
X5434240Y4725849D01*
X5431194Y4730407D01*
X5426636Y4733452D01*
X5421260Y4734522D01*
D02*
G37*
G36*
X4850394Y4627296D02*
X4843865Y4625998D01*
X4838330Y4622300D01*
X4834632Y4616765D01*
X4833334Y4610236D01*
X4834632Y4603708D01*
X4838330Y4598173D01*
X4843865Y4594475D01*
X4850394Y4593176D01*
X4856922Y4594475D01*
X4862457Y4598173D01*
X4866155Y4603708D01*
X4867454Y4610236D01*
X4866155Y4616765D01*
X4862457Y4622300D01*
X4856922Y4625998D01*
X4850394Y4627296D01*
D02*
G37*
G36*
X4883240Y4546588D02*
X4876712Y4545289D01*
X4871177Y4541591D01*
X4867479Y4536056D01*
X4866180Y4529528D01*
X4867479Y4522999D01*
X4871177Y4517464D01*
X4876712Y4513766D01*
X4883240Y4512467D01*
X4889769Y4513766D01*
X4895304Y4517464D01*
X4899002Y4522999D01*
X4900301Y4529528D01*
X4899002Y4536056D01*
X4895304Y4541591D01*
X4889769Y4545289D01*
X4883240Y4546588D01*
D02*
G37*
G36*
X5334646Y4536745D02*
X5328117Y4535447D01*
X5322582Y4531748D01*
X5318884Y4526214D01*
X5317586Y4519685D01*
X5318884Y4513156D01*
X5322582Y4507622D01*
X5328117Y4503923D01*
X5334646Y4502625D01*
X5341174Y4503923D01*
X5346709Y4507622D01*
X5350407Y4513156D01*
X5351706Y4519685D01*
X5350407Y4526214D01*
X5346709Y4531748D01*
X5341174Y4535447D01*
X5334646Y4536745D01*
D02*
G37*
G36*
X4275591Y4548950D02*
X4269062Y4547651D01*
X4263527Y4543953D01*
X4259829Y4538418D01*
X4258530Y4531890D01*
X4259829Y4525361D01*
X4263527Y4519826D01*
X4269062Y4516128D01*
X4275591Y4514830D01*
X4282119Y4516128D01*
X4287654Y4519826D01*
X4291352Y4525361D01*
X4292651Y4531890D01*
X4291352Y4538418D01*
X4287654Y4543953D01*
X4282119Y4547651D01*
X4275591Y4548950D01*
D02*
G37*
G36*
X4946233Y4546588D02*
X4939704Y4545289D01*
X4934169Y4541591D01*
X4930471Y4536056D01*
X4929172Y4529528D01*
X4930471Y4522999D01*
X4934169Y4517464D01*
X4939704Y4513766D01*
X4946233Y4512467D01*
X4952761Y4513766D01*
X4958296Y4517464D01*
X4961994Y4522999D01*
X4963293Y4529528D01*
X4961994Y4536056D01*
X4958296Y4541591D01*
X4952761Y4545289D01*
X4946233Y4546588D01*
D02*
G37*
G36*
X3937008Y4529797D02*
X3931631Y4528728D01*
X3927073Y4525682D01*
X3924028Y4521124D01*
X3922958Y4515748D01*
X3924028Y4510372D01*
X3927073Y4505814D01*
X3931631Y4502768D01*
X3937008Y4501699D01*
X3942384Y4502768D01*
X3946942Y4505814D01*
X3949988Y4510372D01*
X3951057Y4515748D01*
X3949988Y4521124D01*
X3946942Y4525682D01*
X3942384Y4528728D01*
X3937008Y4529797D01*
D02*
G37*
G36*
X4137795Y4514050D02*
X4132419Y4512980D01*
X4127861Y4509935D01*
X4124815Y4505377D01*
X4123746Y4500000D01*
X4124815Y4494623D01*
X4127861Y4490065D01*
X4132419Y4487020D01*
X4137795Y4485950D01*
X4143172Y4487020D01*
X4147730Y4490065D01*
X4150775Y4494623D01*
X4151845Y4500000D01*
X4150775Y4505377D01*
X4147730Y4509935D01*
X4143172Y4512980D01*
X4137795Y4514050D01*
D02*
G37*
G36*
X4480315Y4502239D02*
X4474939Y4501169D01*
X4470381Y4498123D01*
X4467335Y4493565D01*
X4466266Y4488189D01*
X4467335Y4482812D01*
X4470381Y4478255D01*
X4474939Y4475209D01*
X4480315Y4474140D01*
X4485691Y4475209D01*
X4490249Y4478255D01*
X4493295Y4482812D01*
X4494364Y4488189D01*
X4493295Y4493565D01*
X4490249Y4498123D01*
X4485691Y4501169D01*
X4480315Y4502239D01*
D02*
G37*
G36*
X4039370Y4525860D02*
X4033994Y4524791D01*
X4029436Y4521745D01*
X4026390Y4517188D01*
X4025321Y4511811D01*
X4026390Y4506435D01*
X4029436Y4501877D01*
X4033994Y4498831D01*
X4039370Y4497761D01*
X4044747Y4498831D01*
X4049305Y4501877D01*
X4052350Y4506435D01*
X4053420Y4511811D01*
X4052350Y4517188D01*
X4049305Y4521745D01*
X4044747Y4524791D01*
X4039370Y4525860D01*
D02*
G37*
G36*
X5638779Y4524934D02*
X5632251Y4523636D01*
X5626716Y4519937D01*
X5623018Y4514403D01*
X5621719Y4507874D01*
X5623018Y4501345D01*
X5626716Y4495811D01*
X5632251Y4492113D01*
X5638779Y4490814D01*
X5645308Y4492113D01*
X5650843Y4495811D01*
X5654541Y4501345D01*
X5655840Y4507874D01*
X5654541Y4514403D01*
X5650843Y4519937D01*
X5645308Y4523636D01*
X5638779Y4524934D01*
D02*
G37*
G36*
X4795276Y4603674D02*
X4788747Y4602376D01*
X4783212Y4598677D01*
X4779514Y4593143D01*
X4778216Y4586614D01*
X4779514Y4580086D01*
X4783212Y4574551D01*
X4788747Y4570853D01*
X4795276Y4569554D01*
X4801804Y4570853D01*
X4807339Y4574551D01*
X4811037Y4580086D01*
X4812336Y4586614D01*
X4811037Y4593143D01*
X4807339Y4598677D01*
X4801804Y4602376D01*
X4795276Y4603674D01*
D02*
G37*
G36*
X4322826Y4591854D02*
X4316297Y4590556D01*
X4310763Y4586857D01*
X4307065Y4581323D01*
X4305766Y4574794D01*
X4307065Y4568265D01*
X4310763Y4562731D01*
X4316297Y4559033D01*
X4322826Y4557734D01*
X4329355Y4559033D01*
X4334889Y4562731D01*
X4338587Y4568265D01*
X4339886Y4574794D01*
X4338587Y4581323D01*
X4334889Y4586857D01*
X4329355Y4590556D01*
X4322826Y4591854D01*
D02*
G37*
G36*
X4751968Y4619422D02*
X4745440Y4618124D01*
X4739905Y4614426D01*
X4736207Y4608891D01*
X4734908Y4602362D01*
X4736207Y4595834D01*
X4739905Y4590299D01*
X4745440Y4586601D01*
X4751968Y4585302D01*
X4758497Y4586601D01*
X4764032Y4590299D01*
X4767730Y4595834D01*
X4769029Y4602362D01*
X4767730Y4608891D01*
X4764032Y4614426D01*
X4758497Y4618124D01*
X4751968Y4619422D01*
D02*
G37*
G36*
X4996063Y4615485D02*
X4989534Y4614187D01*
X4984000Y4610489D01*
X4980301Y4604954D01*
X4979003Y4598425D01*
X4980301Y4591897D01*
X4984000Y4586362D01*
X4989534Y4582664D01*
X4996063Y4581365D01*
X5002592Y4582664D01*
X5008126Y4586362D01*
X5011824Y4591897D01*
X5013123Y4598425D01*
X5011824Y4604954D01*
X5008126Y4610489D01*
X5002592Y4614187D01*
X4996063Y4615485D01*
D02*
G37*
G36*
X5125984Y4587926D02*
X5119456Y4586628D01*
X5113921Y4582929D01*
X5110223Y4577395D01*
X5108924Y4570866D01*
X5110223Y4564337D01*
X5113921Y4558803D01*
X5119456Y4555105D01*
X5125984Y4553806D01*
X5132513Y4555105D01*
X5138047Y4558803D01*
X5141746Y4564337D01*
X5143044Y4570866D01*
X5141746Y4577395D01*
X5138047Y4582929D01*
X5132513Y4586628D01*
X5125984Y4587926D01*
D02*
G37*
G36*
X5921260Y4572178D02*
X5914731Y4570880D01*
X5909197Y4567181D01*
X5905498Y4561647D01*
X5904200Y4555118D01*
X5905498Y4548590D01*
X5909197Y4543055D01*
X5914731Y4539357D01*
X5921260Y4538058D01*
X5927788Y4539357D01*
X5933323Y4543055D01*
X5937021Y4548590D01*
X5938320Y4555118D01*
X5937021Y4561647D01*
X5933323Y4567181D01*
X5927788Y4570880D01*
X5921260Y4572178D01*
D02*
G37*
G36*
X5385827Y4556430D02*
X5379298Y4555132D01*
X5373764Y4551433D01*
X5370065Y4545899D01*
X5368767Y4539370D01*
X5370065Y4532842D01*
X5373764Y4527307D01*
X5379298Y4523609D01*
X5385827Y4522310D01*
X5392355Y4523609D01*
X5397890Y4527307D01*
X5401588Y4532842D01*
X5402887Y4539370D01*
X5401588Y4545899D01*
X5397890Y4551433D01*
X5392355Y4555132D01*
X5385827Y4556430D01*
D02*
G37*
G36*
X4728346Y4587926D02*
X4721818Y4586628D01*
X4716283Y4582929D01*
X4712585Y4577395D01*
X4711286Y4570866D01*
X4712585Y4564337D01*
X4716283Y4558803D01*
X4721818Y4555105D01*
X4728346Y4553806D01*
X4734875Y4555105D01*
X4740410Y4558803D01*
X4744108Y4564337D01*
X4745407Y4570866D01*
X4744108Y4577395D01*
X4740410Y4582929D01*
X4734875Y4586628D01*
X4728346Y4587926D01*
D02*
G37*
G36*
X4279519Y4587917D02*
X4272990Y4586618D01*
X4267456Y4582920D01*
X4263757Y4577386D01*
X4262459Y4570857D01*
X4263757Y4564328D01*
X4267456Y4558794D01*
X4272990Y4555096D01*
X4279519Y4553797D01*
X4286048Y4555096D01*
X4291582Y4558794D01*
X4295280Y4564328D01*
X4296579Y4570857D01*
X4295280Y4577386D01*
X4291582Y4582920D01*
X4286048Y4586618D01*
X4279519Y4587917D01*
D02*
G37*
%LPD*%
D77*
X6480315Y5255905D02*
Y5279528D01*
Y5224409D02*
Y5255905D01*
X6033465Y4797244D02*
X6041338D01*
X6039370Y4637795D02*
Y4661417D01*
X6480315Y5200787D02*
X6484252D01*
X6480315D02*
Y5224409D01*
X6041338Y4797244D02*
X6070866Y4767717D01*
X4035425Y4212590D02*
Y4212606D01*
X6480315Y5279528D02*
Y5311024D01*
X6039370Y4661417D02*
Y4685039D01*
X6476378Y3311024D02*
Y3338583D01*
Y3366142D01*
Y3389764D01*
Y3421260D01*
X4023622Y3413386D02*
Y3417323D01*
X6476378Y2921260D02*
Y2948819D01*
X6472441Y2862205D02*
Y2889764D01*
Y2838583D02*
Y2862205D01*
X6476378Y4811024D02*
Y4838583D01*
Y4791339D02*
Y4811024D01*
Y4728346D02*
Y4759842D01*
Y4791339D01*
X6224409Y4665354D02*
X6244094Y4645669D01*
X6255905D01*
D78*
X6366142Y5255905D02*
X6480315D01*
X6362205D02*
X6366142D01*
X6255905D02*
X6362205D01*
X6389764Y5279528D02*
X6480315D01*
X6535434Y5228346D02*
Y5255905D01*
X6366142D02*
X6389764Y5279528D01*
X6362205Y5255905D02*
X6393701Y5224409D01*
X5996063Y4759842D02*
X6015748Y4779528D01*
X5972441Y4759842D02*
X5996063D01*
X6039370Y4661417D02*
X6118110D01*
X6393701Y5224409D02*
X6480315D01*
X6531497D02*
X6535434Y5228346D01*
X6118110Y4661417D02*
X6118110Y4661417D01*
X5972441Y4759842D02*
Y4779528D01*
X6015748D02*
X6033465Y4797244D01*
X6196850Y3531496D02*
X6240158Y3488189D01*
X6106299Y3531496D02*
X6196850D01*
X6200787Y3488189D02*
X6240158D01*
X6149606D02*
X6200787D01*
X6181102Y3507874D02*
X6200787Y3488189D01*
X6129921Y3507874D02*
X6181102D01*
X6129921D02*
X6149606Y3488189D01*
X6051181Y3531496D02*
X6106299D01*
X6129921Y3507874D01*
X6480315Y5279528D02*
X6535434D01*
Y5255905D02*
Y5279528D01*
X6480315Y5255905D02*
X6535434D01*
X6033465Y4797244D02*
X6051181Y4814961D01*
X5972441Y4779528D02*
X6015748D01*
X6019685Y4661417D02*
X6039370D01*
X5972441Y4708661D02*
Y4759842D01*
X6389764Y3338583D02*
X6476378D01*
X6535434D01*
X6362205Y3366142D02*
X6476378D01*
X6535433D01*
X6362205D02*
X6389764Y3338583D01*
X6535434D02*
Y3389764D01*
X6338583D02*
X6476378D01*
X6535434D01*
X6240158Y3488189D02*
X6338583Y3389764D01*
X6362205Y3366142D01*
X6051181Y4814961D02*
Y5051181D01*
X6255905Y5255905D01*
X6535434Y2889764D02*
Y2921260D01*
X6476378D02*
X6535434D01*
X6472441Y2889764D02*
X6535434D01*
Y2862205D02*
Y2889764D01*
X6401575Y2862205D02*
X6472441D01*
X6535434D01*
X6105315Y3396653D02*
Y3465551D01*
X6094488Y3385827D02*
Y3476378D01*
X6055118D02*
X6094488D01*
X6105315Y3465551D01*
X6094488Y3385827D02*
X6105315Y3396653D01*
X6070866Y3362205D02*
X6094488Y3385827D01*
X6055118Y3393701D02*
Y3476378D01*
X6066929Y3358268D02*
X6070866Y3362205D01*
X6023622D02*
X6055118Y3393701D01*
X6023622Y3362205D02*
X6066929Y3318898D01*
Y3358268D01*
X6023622Y3362205D02*
X6070866D01*
X6385827Y2921260D02*
X6476378D01*
X6374016Y2889764D02*
X6472441D01*
X6354331D02*
X6385827Y2921260D01*
X6374016Y2889764D02*
X6401575Y2862205D01*
X6204724Y2889764D02*
X6354331D01*
X6374016D01*
X6066929Y3027559D02*
Y3318898D01*
Y3027559D02*
X6204724Y2889764D01*
X6476378Y4811024D02*
X6535434D01*
X6476378Y4791339D02*
X6535433D01*
X6385827Y4811024D02*
X6476378D01*
X6366142Y4791339D02*
X6476378D01*
X6366142D02*
X6385827Y4811024D01*
X6535434Y4759842D02*
Y4811024D01*
X6334646Y4759842D02*
X6476378D01*
X6535434D01*
X6334646D02*
X6366142Y4791339D01*
X6259842Y4685039D02*
X6334646Y4759842D01*
X6244095Y4685039D02*
X6259842D01*
X6224409Y4665354D02*
X6244095Y4685039D01*
X6224409Y4665354D02*
Y4665354D01*
X6192913Y4633858D02*
X6224409Y4665354D01*
X6176181Y4617126D02*
X6192913Y4633858D01*
Y4610236D02*
Y4633858D01*
X6181102Y4598425D02*
X6192913Y4610236D01*
X6073819Y4617126D02*
X6176181D01*
X6073819Y4601378D02*
Y4617126D01*
X6070866Y4598425D02*
X6073819Y4601378D01*
X6070866Y4598425D02*
X6181102D01*
X5972441Y4708661D02*
X6019685Y4661417D01*
X6480315Y5224409D02*
X6531497D01*
D79*
X5476378Y3409449D02*
X5480322Y3405505D01*
X5720472Y3492126D02*
X5728351D01*
D91*
X3858268Y4176378D02*
D03*
Y4376378D02*
D03*
Y4276378D02*
D03*
Y4076378D02*
D03*
Y3976378D02*
D03*
Y3876378D02*
D03*
D92*
Y4476378D02*
D03*
D93*
X5975000Y5075000D02*
D03*
X5875000D02*
D03*
X5775000D02*
D03*
X5675000D02*
D03*
X5575000D02*
D03*
X5475000D02*
D03*
X5375000D02*
D03*
X5275000D02*
D03*
X5175000D02*
D03*
X5075000D02*
D03*
X4975000D02*
D03*
X4875000D02*
D03*
X4775000D02*
D03*
X4675000D02*
D03*
X4575000D02*
D03*
X4475000D02*
D03*
X4375000D02*
D03*
X4275000D02*
D03*
X4175000D02*
D03*
X4075000D02*
D03*
X3975000D02*
D03*
X3875000D02*
D03*
X3775000D02*
D03*
X5975000Y4975000D02*
D03*
X5875000D02*
D03*
X5775000D02*
D03*
X5675000D02*
D03*
X5575000D02*
D03*
X5475000D02*
D03*
X5375000D02*
D03*
X5275000D02*
D03*
X5175000D02*
D03*
X5075000D02*
D03*
X4975000D02*
D03*
X4875000D02*
D03*
X4775000D02*
D03*
X4675000D02*
D03*
X4575000D02*
D03*
X4475000D02*
D03*
X4375000D02*
D03*
X4275000D02*
D03*
X4175000D02*
D03*
X4075000D02*
D03*
X3975000D02*
D03*
X3875000D02*
D03*
Y3075000D02*
D03*
X3975000D02*
D03*
X4075000D02*
D03*
X4175000D02*
D03*
X4275000D02*
D03*
X4375000D02*
D03*
X4475000D02*
D03*
X4575000D02*
D03*
X4675000D02*
D03*
X4775000D02*
D03*
X4875000D02*
D03*
X4975000D02*
D03*
X5075000D02*
D03*
X5175000D02*
D03*
X5275000D02*
D03*
X5375000D02*
D03*
X5475000D02*
D03*
X5575000D02*
D03*
X5675000D02*
D03*
X5775000D02*
D03*
X5875000D02*
D03*
X5975000D02*
D03*
X3775000Y3175000D02*
D03*
X3875000D02*
D03*
X3975000D02*
D03*
X4075000D02*
D03*
X4175000D02*
D03*
X4275000D02*
D03*
X4375000D02*
D03*
X4475000D02*
D03*
X4575000D02*
D03*
X4675000D02*
D03*
X4775000D02*
D03*
X4875000D02*
D03*
X4975000D02*
D03*
X5075000D02*
D03*
X5175000D02*
D03*
X5275000D02*
D03*
X5375000D02*
D03*
X5475000D02*
D03*
X5575000D02*
D03*
X5675000D02*
D03*
X5775000D02*
D03*
X5875000D02*
D03*
X5975000D02*
D03*
D94*
X3775000Y4975000D02*
D03*
Y3075000D02*
D03*
D95*
X6070866Y4767717D02*
D03*
X6039370Y4637795D02*
D03*
X3023622Y3204724D02*
D03*
X3078740D02*
D03*
X6275591Y4574803D02*
D03*
X4775581Y4641723D02*
D03*
X4779518Y4724400D02*
D03*
X5769685Y4221457D02*
D03*
X5425197Y4110236D02*
D03*
X5188976Y4893701D02*
D03*
X5228346D02*
D03*
X4358267Y3964567D02*
D03*
X4208661Y4354331D02*
D03*
X4192905Y3751961D02*
D03*
X3590551Y3259843D02*
D03*
X3562992D02*
D03*
X3535433D02*
D03*
X3507874D02*
D03*
X3314961Y3177165D02*
D03*
X3287402D02*
D03*
X3259843D02*
D03*
X3232284D02*
D03*
X3204724D02*
D03*
X3122047Y3543307D02*
D03*
Y3594488D02*
D03*
Y3566929D02*
D03*
X3177165Y3177165D02*
D03*
X4618110Y4074803D02*
D03*
X4535433Y4724409D02*
D03*
X4196850Y3346457D02*
D03*
X4011811Y3448819D02*
D03*
X4027559Y3381890D02*
D03*
X4988189Y4019685D02*
D03*
X4909449Y4153543D02*
D03*
Y3921260D02*
D03*
X4531496Y4118110D02*
D03*
X3748032Y4885827D02*
D03*
X3746063Y4746063D02*
D03*
X5322835Y4437008D02*
D03*
X5035433Y4464567D02*
D03*
X5041339Y4225394D02*
D03*
X5000000Y3610236D02*
D03*
X5370079Y3500000D02*
D03*
X5240158Y3535433D02*
D03*
X5929134Y4637795D02*
D03*
X5880905Y4262795D02*
D03*
X5638779Y4507874D02*
D03*
X5153543Y4488189D02*
D03*
X5909449Y3500000D02*
D03*
X5536417Y3896653D02*
D03*
X5525862Y3633051D02*
D03*
X4946233Y4529528D02*
D03*
X5124016Y4161417D02*
D03*
X5122047Y3917323D02*
D03*
X6145669Y4712598D02*
D03*
X5606299Y4267717D02*
D03*
X5874016Y3866142D02*
D03*
X6181102Y3448819D02*
D03*
X5673228Y4039370D02*
D03*
X5578729Y3342513D02*
D03*
X5230933Y4220472D02*
D03*
X5161417Y4248032D02*
D03*
X4883240Y4529528D02*
D03*
X4990157Y3935039D02*
D03*
X5129921Y3625984D02*
D03*
X6381890Y4618110D02*
D03*
X6196850Y4314961D02*
D03*
X6181102Y4893701D02*
D03*
X6177165Y4724409D02*
D03*
X5929134Y4885827D02*
D03*
X5794291Y4490158D02*
D03*
Y4450787D02*
D03*
X6125984Y4295276D02*
D03*
X5795276Y4401575D02*
D03*
X6199803Y4127953D02*
D03*
X6197835Y4082677D02*
D03*
X6094488Y4153543D02*
D03*
X6072725Y4139764D02*
D03*
X5696850Y4885827D02*
D03*
X5464567D02*
D03*
X5734252Y4635827D02*
D03*
X5178150Y4711614D02*
D03*
X5295276Y4692913D02*
D03*
X5196850Y4484252D02*
D03*
X4946233Y4403543D02*
D03*
X5091535Y4251968D02*
D03*
X5059055Y4165354D02*
D03*
X6275591Y4082677D02*
D03*
X6200787Y4058071D02*
D03*
X6201772Y4007874D02*
D03*
X6188976Y3830709D02*
D03*
X6125010Y3965278D02*
D03*
X6275591Y3559055D02*
D03*
X6173228Y3255905D02*
D03*
X5925197D02*
D03*
X5798228Y3792323D02*
D03*
X5566929Y4056102D02*
D03*
X5798228Y3744095D02*
D03*
X5797244Y3696850D02*
D03*
X5051181Y3960630D02*
D03*
X5062992Y3893701D02*
D03*
X5586614Y3543307D02*
D03*
X5665354Y3393701D02*
D03*
X5696850Y3255905D02*
D03*
X5173228Y3429134D02*
D03*
X5476378Y3409449D02*
D03*
X5436997Y3377946D02*
D03*
X5456693Y3255905D02*
D03*
X5228346D02*
D03*
X4988189D02*
D03*
X4729331Y4311024D02*
D03*
X3370079Y3255905D02*
D03*
X3325197Y3254331D02*
D03*
X3338583Y3094488D02*
D03*
X5358268Y4405512D02*
D03*
X5291522Y4185223D02*
D03*
X3279528Y3248032D02*
D03*
X5208661Y3960630D02*
D03*
X4830699Y3850386D02*
D03*
X4748032Y3854331D02*
D03*
X5807087Y4362205D02*
D03*
X6139764Y4765748D02*
D03*
X5931102Y4685039D02*
D03*
X5822835Y4807087D02*
D03*
X5921260Y4555118D02*
D03*
X5907480Y3580709D02*
D03*
X5881890Y3342520D02*
D03*
X5125984Y4570866D02*
D03*
X3578740Y4948819D02*
D03*
X3570866Y5074803D02*
D03*
X4530512Y3872047D02*
D03*
X4098425Y3267716D02*
D03*
X4055118Y3279528D02*
D03*
X5535433Y3496063D02*
D03*
X5681102Y4005905D02*
D03*
X5543307Y4157480D02*
D03*
X5582677Y4125984D02*
D03*
X4724409Y3803150D02*
D03*
X4440945Y3972441D02*
D03*
X4374016Y3933071D02*
D03*
X4204724Y4062992D02*
D03*
X4291339Y3976378D02*
D03*
X3527559Y3429134D02*
D03*
X3401575Y3484252D02*
D03*
X3437008Y3543307D02*
D03*
X3374016Y3586614D02*
D03*
X3330315Y3617716D02*
D03*
X3051181Y3204724D02*
D03*
X3570866Y3055118D02*
D03*
X3594488D02*
D03*
X3618110D02*
D03*
X3547244D02*
D03*
X3818898Y3267716D02*
D03*
X3842520D02*
D03*
X4015748Y3311024D02*
D03*
X4232283Y3275591D02*
D03*
X4279528Y3279528D02*
D03*
X4637795Y3295276D02*
D03*
X4669291Y3724409D02*
D03*
X4468495Y4822825D02*
D03*
X3196850Y3293531D02*
D03*
X3543307Y4775591D02*
D03*
X4665354Y4437008D02*
D03*
X5897638Y4078740D02*
D03*
X6110224Y4405503D02*
D03*
X6480315Y5311024D02*
D03*
X6484252Y5200787D02*
D03*
X6039370Y4685039D02*
D03*
X6476378Y3311024D02*
D03*
Y3421260D02*
D03*
X5688976Y3862205D02*
D03*
X5606299Y3866142D02*
D03*
X5555118Y4590551D02*
D03*
X4850394Y4610236D02*
D03*
X4795276Y4586614D02*
D03*
X4996063Y4598425D02*
D03*
X5877941Y3976370D02*
D03*
X4736221Y4271654D02*
D03*
Y4248032D02*
D03*
Y4224409D02*
D03*
X5334646Y4519685D02*
D03*
X5740158Y4472441D02*
D03*
X5531496Y4618110D02*
D03*
X5385827Y4539370D02*
D03*
X4724409Y3594488D02*
D03*
X4838583Y3500000D02*
D03*
X4956693Y3539370D02*
D03*
X5098425Y3429134D02*
D03*
X3771653Y3267716D02*
D03*
X3748032D02*
D03*
X4472441Y3397638D02*
D03*
X4464567Y3448819D02*
D03*
X5228336Y3862197D02*
D03*
X4944882Y3736220D02*
D03*
X4937008Y4618110D02*
D03*
X4933071Y3539370D02*
D03*
X4909449D02*
D03*
X4901575Y3610236D02*
D03*
X4944882D02*
D03*
X5015748Y4094488D02*
D03*
X4992126Y4055118D02*
D03*
X5153543Y3944882D02*
D03*
X5192913Y3897638D02*
D03*
X5244084Y3925189D02*
D03*
X5287391Y3937000D02*
D03*
X5326761D02*
D03*
X5362205Y3940945D02*
D03*
X5095472Y4205709D02*
D03*
X4353346Y3520669D02*
D03*
X4342520Y3283465D02*
D03*
X3795276Y3267716D02*
D03*
X3917323Y3484252D02*
D03*
X3893701D02*
D03*
X4637795Y4271654D02*
D03*
X4614173D02*
D03*
X5090551Y4649606D02*
D03*
X4814951Y4700778D02*
D03*
X4342511Y4334637D02*
D03*
X4724400Y4748022D02*
D03*
X4358268Y4370079D02*
D03*
X4590551Y4271654D02*
D03*
X3939961Y3483661D02*
D03*
X4023622Y3417323D02*
D03*
X4161417Y4070866D02*
D03*
X4039370Y4905512D02*
D03*
X4728346Y4570866D02*
D03*
X4724400Y4515739D02*
D03*
X4822825Y4936998D02*
D03*
X4736221Y4901575D02*
D03*
X4724409Y5015748D02*
D03*
X4531487Y4917313D02*
D03*
X4538055Y4945856D02*
D03*
X4637795Y4905512D02*
D03*
X4677165Y4901575D02*
D03*
X4023622Y4952756D02*
D03*
X4425197Y4944882D02*
D03*
X4464567Y4299213D02*
D03*
X4476378Y4862205D02*
D03*
X4251968Y4897638D02*
D03*
X4330709Y4846457D02*
D03*
X4358268Y4877953D02*
D03*
X4322826Y4574794D02*
D03*
X4763779Y4757577D02*
D03*
X4086614Y4901575D02*
D03*
X4078740Y4629921D02*
D03*
X4275591Y4531890D02*
D03*
X4267717Y4456693D02*
D03*
X4405512Y4665354D02*
D03*
X4003937Y4062992D02*
D03*
X4936142Y5020551D02*
D03*
X5031486Y4944872D02*
D03*
X4905512Y4929134D02*
D03*
X5129921Y5007874D02*
D03*
X5161417Y4917323D02*
D03*
X4146427Y3129164D02*
D03*
X4511811Y3129921D02*
D03*
X4543298Y3118104D02*
D03*
X5818898Y4051181D02*
D03*
X3244095Y3720472D02*
D03*
X3220472D02*
D03*
X3196850D02*
D03*
X3173228D02*
D03*
X4625984Y3110236D02*
D03*
X4000000Y3122047D02*
D03*
X4047244D02*
D03*
X4110236Y3125984D02*
D03*
X5720472Y3492126D02*
D03*
X3216535Y3366142D02*
D03*
X5681102Y4275591D02*
D03*
X5425197Y3618110D02*
D03*
X5429134Y4775591D02*
D03*
X3929134Y4401575D02*
D03*
X3929126Y4448810D02*
D03*
X3933063Y4129913D02*
D03*
X4637795Y3413386D02*
D03*
X4968504Y4909449D02*
D03*
X5003937Y4897638D02*
D03*
X4279519Y4570857D02*
D03*
X4724409Y4940945D02*
D03*
X4751968Y4602362D02*
D03*
X4307087Y4452756D02*
D03*
X3944882Y3834646D02*
D03*
X4059055Y4086614D02*
D03*
X5196850Y3838583D02*
D03*
X5118110Y4503937D02*
D03*
X5192913Y3661417D02*
D03*
X5287402Y4551181D02*
D03*
X5374016Y3582677D02*
D03*
X4370079Y4637795D02*
D03*
X5803138Y3657473D02*
D03*
X3590551Y4897638D02*
D03*
X3696850Y4893701D02*
D03*
X5637795Y4602362D02*
D03*
X4354331Y3602362D02*
D03*
X4358268Y4405512D02*
D03*
X3377953Y5023622D02*
D03*
X3326772Y5015748D02*
D03*
X3385827Y4905512D02*
D03*
X3322828Y4854321D02*
D03*
X3342520Y4818898D02*
D03*
X6476378Y2948819D02*
D03*
X6472441Y2838583D02*
D03*
X6181102Y3413386D02*
D03*
X6476378Y4838583D02*
D03*
Y4728346D02*
D03*
X6255905Y4645669D02*
D03*
X5562992Y3667323D02*
D03*
D96*
X6535437Y4370081D02*
D03*
Y4133860D02*
D03*
Y4055120D02*
D03*
Y3897640D02*
D03*
Y3661419D02*
D03*
X6496066Y4370081D02*
D03*
X6515752Y4251971D02*
D03*
X6496066Y4133860D02*
D03*
X6515752Y4094490D02*
D03*
X6496066Y4055120D02*
D03*
X6515752Y4015750D02*
D03*
X6496066Y3897640D02*
D03*
X6515752Y3779530D02*
D03*
X6496066Y3661419D02*
D03*
X6456696Y4370081D02*
D03*
X6476381Y4251971D02*
D03*
X6456696Y4133860D02*
D03*
X6476381Y4094490D02*
D03*
X6456696Y4055120D02*
D03*
X6476381Y4015750D02*
D03*
X6456696Y3897640D02*
D03*
X6476381Y3779530D02*
D03*
X6456696Y3661419D02*
D03*
X6417326Y4370081D02*
D03*
X6437011Y4251971D02*
D03*
X6417326Y4133860D02*
D03*
X6437011Y4094490D02*
D03*
X6417326Y4055120D02*
D03*
X6437011Y4015750D02*
D03*
Y3779530D02*
D03*
X6417326Y3661419D02*
D03*
X4224409Y3712599D02*
D03*
X4244095Y4149606D02*
D03*
X4216535Y4153543D02*
D03*
X4248032Y4341087D02*
D03*
X4196842Y4322826D02*
D03*
X4173228Y4433071D02*
D03*
X4074803Y4318898D02*
D03*
X4035425Y4212590D02*
D03*
X3968504Y4275591D02*
D03*
X4279528Y4149606D02*
D03*
X4452756Y4665354D02*
D03*
X4133858Y4881890D02*
D03*
X3891732Y4612205D02*
D03*
X4311024Y3346457D02*
D03*
X5148622Y4063976D02*
D03*
X4566929Y3417323D02*
D03*
Y4283465D02*
D03*
X5003937Y3543307D02*
D03*
X4846457Y4133858D02*
D03*
X4255897Y3539363D02*
D03*
X4212598Y3570866D02*
D03*
X4055118Y3578740D02*
D03*
X4082677Y3586614D02*
D03*
X4125984Y3602362D02*
D03*
X4143701Y3580709D02*
D03*
X4165346Y3602355D02*
D03*
X3937008Y4515748D02*
D03*
X3885819Y3700780D02*
D03*
X3740157Y4685039D02*
D03*
X3913386Y4488189D02*
D03*
X3917323Y3677165D02*
D03*
X3893701Y3661417D02*
D03*
X3771653Y4688976D02*
D03*
X4141732Y4460630D02*
D03*
X4137795Y4500000D02*
D03*
X4039370Y4511811D02*
D03*
X4049212Y4352363D02*
D03*
X4480315Y3645669D02*
D03*
X4496054Y3578733D02*
D03*
X3846457Y3740157D02*
D03*
X4417323Y3830709D02*
D03*
X4460630Y3829134D02*
D03*
X3870079Y3799213D02*
D03*
X4051181Y3606299D02*
D03*
X4295276Y4842520D02*
D03*
X4264764Y4833143D02*
D03*
X4480315Y4488189D02*
D03*
X4397638Y3830709D02*
D03*
X4366142Y4751968D02*
D03*
X4157480Y4035433D02*
D03*
X4106299Y3570866D02*
D03*
X4224409Y3763780D02*
D03*
X5421260Y4720472D02*
D03*
X5463583Y4437992D02*
D03*
%TF.MD5,f37a4abe7cffe4a890479c66717a6d4d*%
M02*
