G04 Layer_Physical_Order=3*
G04 Layer_Color=36540*
%FSLAX26Y26*%
%MOIN*%
%TF.FileFunction,Copper,L3,Inr,Signal*%
%TF.Part,Single*%
G01*
G75*
%TA.AperFunction,Conductor*%
%ADD77C,0.007874*%
%TA.AperFunction,ComponentPad*%
%ADD91C,0.055118*%
%ADD92R,0.055118X0.055118*%
%ADD93C,0.060000*%
%ADD94R,0.060000X0.060000*%
%TA.AperFunction,ViaPad*%
%ADD95C,0.023622*%
%ADD96C,0.017716*%
G36*
X6554887Y2752199D02*
X6196850Y2752200D01*
X6187954Y2752199D01*
X6170504Y2755670D01*
X6154067Y2762479D01*
X6139274Y2772363D01*
X6126694Y2784944D01*
X6116809Y2799737D01*
X6110001Y2816174D01*
X6106530Y2833623D01*
X6106530Y2842519D01*
X6106530Y2921260D01*
X6106472Y2921554D01*
X6106516Y2921851D01*
X6106136Y2929569D01*
X6105919Y2930434D01*
Y2931326D01*
X6102908Y2946465D01*
X6102454Y2947561D01*
X6102223Y2948724D01*
X6096316Y2962985D01*
X6095657Y2963972D01*
X6095203Y2965067D01*
X6086627Y2977902D01*
X6085789Y2978741D01*
X6085130Y2979727D01*
X6074215Y2990641D01*
X6073229Y2991300D01*
X6072390Y2992139D01*
X6059556Y3000715D01*
X6058460Y3001169D01*
X6057474Y3001827D01*
X6043213Y3007735D01*
X6042050Y3007966D01*
X6040954Y3008420D01*
X6025815Y3011431D01*
X6024922D01*
X6024056Y3011648D01*
X6016339Y3012027D01*
X6016042Y3011983D01*
X6015748Y3012042D01*
X3199977Y3012042D01*
X3187659Y3012042D01*
X3163231Y3015258D01*
X3139434Y3021635D01*
X3116671Y3031064D01*
X3095335Y3043383D01*
X3075789Y3058383D01*
X3058369Y3075805D01*
X3043372Y3095353D01*
X3031054Y3116691D01*
X3021628Y3139453D01*
X3015254Y3163253D01*
X3012040Y3187679D01*
X3012042Y3199998D01*
X3012042Y3199999D01*
X3012042Y3200000D01*
X3012042Y3775000D01*
X3012041Y3775005D01*
X3012042Y3775010D01*
X3012039Y3778748D01*
X3013493Y3786082D01*
X3016352Y3792991D01*
X3020504Y3799208D01*
X3025792Y3804495D01*
X3032009Y3808648D01*
X3038918Y3811506D01*
X3046252Y3812961D01*
X3049990Y3812958D01*
X3049995Y3812959D01*
X3050000Y3812958D01*
X3799999Y3812958D01*
X3804608Y3813875D01*
X3808515Y3816485D01*
X3811125Y3820392D01*
X3812042Y3825001D01*
Y4524999D01*
X3811125Y4529608D01*
X3808515Y4533515D01*
X3804608Y4536125D01*
X3799999Y4537042D01*
X3275000Y4537042D01*
X3274999Y4537042D01*
X3274998Y4537042D01*
X3271259Y4537041D01*
X3263925Y4538499D01*
X3257018Y4541360D01*
X3250801Y4545514D01*
X3245514Y4550801D01*
X3241360Y4557018D01*
X3238499Y4563926D01*
X3237041Y4571260D01*
X3237042Y4574998D01*
X3237042Y4574999D01*
X3237042Y4575000D01*
X3237041Y5099952D01*
X3237069Y5103650D01*
X3238582Y5110972D01*
X3241496Y5117858D01*
X3245698Y5124043D01*
X3251027Y5129288D01*
X3257277Y5133393D01*
X3264208Y5136198D01*
X3271553Y5137596D01*
X3275292Y5137565D01*
X3275343Y5137574D01*
X3275393Y5137564D01*
X6015748Y5137565D01*
X6016042Y5137623D01*
X6016339Y5137579D01*
X6024056Y5137958D01*
X6024922Y5138175D01*
X6025815D01*
X6040954Y5141186D01*
X6042050Y5141640D01*
X6043213Y5141871D01*
X6057474Y5147778D01*
X6058460Y5148437D01*
X6059556Y5148891D01*
X6072391Y5157466D01*
X6073229Y5158305D01*
X6074216Y5158964D01*
X6085130Y5169879D01*
X6085789Y5170865D01*
X6086628Y5171704D01*
X6095204Y5184538D01*
X6095658Y5185634D01*
X6096317Y5186620D01*
X6102223Y5200881D01*
X6102455Y5202044D01*
X6102909Y5203140D01*
X6105920Y5218279D01*
Y5219172D01*
X6106137Y5220038D01*
X6106516Y5227756D01*
X6106471Y5228052D01*
X6106530Y5228346D01*
X6106530Y5346457D01*
X6106530Y5351475D01*
X6108488Y5361318D01*
X6112329Y5370591D01*
X6117904Y5378936D01*
X6125001Y5386032D01*
X6133346Y5391608D01*
X6142619Y5395449D01*
X6152461Y5397407D01*
X6157480Y5397407D01*
X6554887Y5397407D01*
Y2752199D01*
D02*
G37*
%LPC*%
G36*
X4279528Y3296588D02*
X4272999Y3295289D01*
X4267464Y3291591D01*
X4263766Y3286056D01*
X4262467Y3279528D01*
X4263766Y3272999D01*
X4267464Y3267464D01*
X4272999Y3263766D01*
X4279528Y3262468D01*
X4286056Y3263766D01*
X4291591Y3267464D01*
X4295289Y3272999D01*
X4296588Y3279528D01*
X4295289Y3286056D01*
X4291591Y3291591D01*
X4286056Y3295289D01*
X4279528Y3296588D01*
D02*
G37*
G36*
X3842520Y3284777D02*
X3835991Y3283478D01*
X3830709Y3279948D01*
X3825426Y3283478D01*
X3818898Y3284777D01*
X3812369Y3283478D01*
X3807087Y3279948D01*
X3801804Y3283478D01*
X3795276Y3284777D01*
X3788747Y3283478D01*
X3783465Y3279948D01*
X3778182Y3283478D01*
X3771653Y3284777D01*
X3765125Y3283478D01*
X3759843Y3279948D01*
X3754560Y3283478D01*
X3748032Y3284777D01*
X3741503Y3283478D01*
X3735968Y3279780D01*
X3732270Y3274245D01*
X3730971Y3267716D01*
X3732270Y3261188D01*
X3735968Y3255653D01*
X3741503Y3251955D01*
X3748032Y3250656D01*
X3754560Y3251955D01*
X3759843Y3255485D01*
X3765125Y3251955D01*
X3771653Y3250656D01*
X3778182Y3251955D01*
X3783465Y3255485D01*
X3788747Y3251955D01*
X3795276Y3250656D01*
X3801804Y3251955D01*
X3807087Y3255485D01*
X3812369Y3251955D01*
X3818898Y3250656D01*
X3825426Y3251955D01*
X3830709Y3255485D01*
X3835991Y3251955D01*
X3842520Y3250656D01*
X3849048Y3251955D01*
X3854583Y3255653D01*
X3858281Y3261188D01*
X3859580Y3267716D01*
X3858281Y3274245D01*
X3854583Y3279780D01*
X3849048Y3283478D01*
X3842520Y3284777D01*
D02*
G37*
G36*
X4098425D02*
X4091897Y3283478D01*
X4086362Y3279780D01*
X4082664Y3274245D01*
X4081365Y3267716D01*
X4082664Y3261188D01*
X4086362Y3255653D01*
X4091897Y3251955D01*
X4098425Y3250656D01*
X4104954Y3251955D01*
X4110489Y3255653D01*
X4114187Y3261188D01*
X4115485Y3267716D01*
X4114187Y3274245D01*
X4110489Y3279780D01*
X4104954Y3283478D01*
X4098425Y3284777D01*
D02*
G37*
G36*
X4232283Y3292651D02*
X4225755Y3291352D01*
X4220220Y3287654D01*
X4216522Y3282119D01*
X4215223Y3275591D01*
X4216522Y3269062D01*
X4220220Y3263527D01*
X4225755Y3259829D01*
X4232283Y3258530D01*
X4238812Y3259829D01*
X4244347Y3263527D01*
X4248045Y3269062D01*
X4249344Y3275591D01*
X4248045Y3282119D01*
X4244347Y3287654D01*
X4238812Y3291352D01*
X4232283Y3292651D01*
D02*
G37*
G36*
X6476378Y3328084D02*
X6469849Y3326785D01*
X6464315Y3323087D01*
X6460617Y3317552D01*
X6459318Y3311024D01*
X6460617Y3304495D01*
X6464315Y3298960D01*
X6469849Y3295262D01*
X6476378Y3293963D01*
X6482907Y3295262D01*
X6488441Y3298960D01*
X6492140Y3304495D01*
X6493438Y3311024D01*
X6492140Y3317552D01*
X6488441Y3323087D01*
X6482907Y3326785D01*
X6476378Y3328084D01*
D02*
G37*
G36*
X5098425Y3446194D02*
X5091897Y3444895D01*
X5090663Y3444071D01*
X4509843D01*
X4506386Y3443384D01*
X4503456Y3441426D01*
X4476017Y3413987D01*
X4472441Y3414698D01*
X4465912Y3413399D01*
X4460378Y3409701D01*
X4456680Y3404166D01*
X4455381Y3397638D01*
X4456680Y3391109D01*
X4460378Y3385575D01*
X4465912Y3381876D01*
X4472441Y3380578D01*
X4478970Y3381876D01*
X4484504Y3385575D01*
X4488203Y3391109D01*
X4489501Y3397638D01*
X4488790Y3401214D01*
X4513584Y3426008D01*
X5081987D01*
X5082664Y3422605D01*
X5086362Y3417071D01*
X5091897Y3413372D01*
X5098425Y3412074D01*
X5104954Y3413372D01*
X5110489Y3417071D01*
X5114187Y3422605D01*
X5115485Y3429134D01*
X5114187Y3435662D01*
X5110489Y3441197D01*
X5104954Y3444895D01*
X5098425Y3446194D01*
D02*
G37*
G36*
X4464567Y3465879D02*
X4458038Y3464580D01*
X4452504Y3460882D01*
X4448805Y3455347D01*
X4447507Y3448819D01*
X4448805Y3442290D01*
X4452504Y3436756D01*
X4458038Y3433057D01*
X4464567Y3431759D01*
X4471096Y3433057D01*
X4476630Y3436756D01*
X4480328Y3442290D01*
X4481627Y3448819D01*
X4480328Y3455347D01*
X4476630Y3460882D01*
X4471096Y3464580D01*
X4464567Y3465879D01*
D02*
G37*
G36*
X5578729Y3359573D02*
X5572200Y3358274D01*
X5566666Y3354576D01*
X5562967Y3349042D01*
X5561669Y3342513D01*
X5562967Y3335984D01*
X5566666Y3330450D01*
X5572200Y3326751D01*
X5578729Y3325453D01*
X5585257Y3326751D01*
X5590792Y3330450D01*
X5594490Y3335984D01*
X5595789Y3342513D01*
X5594490Y3349042D01*
X5590792Y3354576D01*
X5585257Y3358274D01*
X5578729Y3359573D01*
D02*
G37*
G36*
X6476378Y3438320D02*
X6469849Y3437021D01*
X6464315Y3433323D01*
X6460617Y3427788D01*
X6459318Y3421260D01*
X6460617Y3414731D01*
X6464315Y3409197D01*
X6469849Y3405498D01*
X6476378Y3404200D01*
X6482907Y3405498D01*
X6488441Y3409197D01*
X6492140Y3414731D01*
X6493438Y3421260D01*
X6492140Y3427788D01*
X6488441Y3433323D01*
X6482907Y3437021D01*
X6476378Y3438320D01*
D02*
G37*
G36*
X3196850Y3310591D02*
X3190322Y3309292D01*
X3184787Y3305594D01*
X3181089Y3300059D01*
X3179790Y3293531D01*
X3181089Y3287002D01*
X3184787Y3281468D01*
X3190322Y3277769D01*
X3196850Y3276471D01*
X3200426Y3277182D01*
X3235963Y3241645D01*
X3238893Y3239687D01*
X3242350Y3239000D01*
X3243333Y3239195D01*
X3244317Y3239000D01*
X3265439D01*
X3267464Y3235968D01*
X3272999Y3232270D01*
X3279528Y3230971D01*
X3286056Y3232270D01*
X3291591Y3235968D01*
X3295289Y3241503D01*
X3296588Y3248032D01*
X3295289Y3254560D01*
X3291591Y3260095D01*
X3286056Y3263793D01*
X3279528Y3265092D01*
X3272999Y3263793D01*
X3267464Y3260095D01*
X3265439Y3257063D01*
X3247233D01*
X3246790Y3257359D01*
X3245548Y3257606D01*
X3213199Y3289955D01*
X3213910Y3293531D01*
X3212612Y3300059D01*
X3208914Y3305594D01*
X3203379Y3309292D01*
X3196850Y3310591D01*
D02*
G37*
G36*
X3772047Y3214956D02*
X3764558Y3213970D01*
X3754827Y3209940D01*
X3746472Y3203528D01*
X3740060Y3195173D01*
X3736030Y3185442D01*
X3735044Y3177953D01*
X3772047D01*
Y3214956D01*
D02*
G37*
G36*
X5872047D02*
X5864558Y3213970D01*
X5854827Y3209940D01*
X5846472Y3203528D01*
X5840060Y3195173D01*
X5836029Y3185442D01*
X5835043Y3177953D01*
X5872047D01*
Y3214956D01*
D02*
G37*
G36*
X5675000Y3210223D02*
X5665884Y3209022D01*
X5657389Y3205504D01*
X5650094Y3199906D01*
X5644496Y3192611D01*
X5640978Y3184116D01*
X5639777Y3175000D01*
X5640978Y3165884D01*
X5644496Y3157389D01*
X5650094Y3150094D01*
X5657389Y3144496D01*
X5665884Y3140978D01*
X5675000Y3139777D01*
X5684116Y3140978D01*
X5692611Y3144496D01*
X5699906Y3150094D01*
X5705504Y3157389D01*
X5709022Y3165884D01*
X5710223Y3175000D01*
X5709022Y3184116D01*
X5705504Y3192611D01*
X5699906Y3199906D01*
X5692611Y3205504D01*
X5684116Y3209022D01*
X5675000Y3210223D01*
D02*
G37*
G36*
X5775000D02*
X5765884Y3209022D01*
X5757389Y3205504D01*
X5750094Y3199906D01*
X5744496Y3192611D01*
X5740978Y3184116D01*
X5739777Y3175000D01*
X5740978Y3165884D01*
X5744496Y3157389D01*
X5750094Y3150094D01*
X5757389Y3144496D01*
X5765884Y3140978D01*
X5775000Y3139777D01*
X5784116Y3140978D01*
X5792611Y3144496D01*
X5799906Y3150094D01*
X5805504Y3157389D01*
X5809022Y3165884D01*
X5810223Y3175000D01*
X5809022Y3184116D01*
X5805504Y3192611D01*
X5799906Y3199906D01*
X5792611Y3205504D01*
X5784116Y3209022D01*
X5775000Y3210223D01*
D02*
G37*
G36*
X5972047Y3214956D02*
X5964558Y3213970D01*
X5954827Y3209940D01*
X5946472Y3203528D01*
X5940060Y3195173D01*
X5936029Y3185442D01*
X5935043Y3177953D01*
X5972047D01*
Y3214956D01*
D02*
G37*
G36*
X5977953D02*
Y3177953D01*
X6014957D01*
X6013971Y3185442D01*
X6009940Y3195173D01*
X6003528Y3203528D01*
X5995173Y3209940D01*
X5985442Y3213970D01*
X5977953Y3214956D01*
D02*
G37*
G36*
X3314961Y3194226D02*
X3308432Y3192927D01*
X3302897Y3189229D01*
X3299465D01*
X3293930Y3192927D01*
X3287402Y3194226D01*
X3280873Y3192927D01*
X3275338Y3189229D01*
X3271906D01*
X3266371Y3192927D01*
X3259843Y3194226D01*
X3253314Y3192927D01*
X3247779Y3189229D01*
X3244347D01*
X3238812Y3192927D01*
X3232284Y3194226D01*
X3225755Y3192927D01*
X3220220Y3189229D01*
X3216788D01*
X3211253Y3192927D01*
X3204724Y3194226D01*
X3198196Y3192927D01*
X3194445Y3190421D01*
X3190945Y3189621D01*
X3187444Y3190421D01*
X3183694Y3192927D01*
X3177165Y3194226D01*
X3170637Y3192927D01*
X3165102Y3189229D01*
X3161404Y3183694D01*
X3160105Y3177165D01*
X3161404Y3170637D01*
X3165102Y3165102D01*
X3170637Y3161404D01*
X3177165Y3160105D01*
X3183694Y3161404D01*
X3187444Y3163910D01*
X3190945Y3164710D01*
X3194445Y3163910D01*
X3198196Y3161404D01*
X3204724Y3160105D01*
X3211253Y3161404D01*
X3216788Y3165102D01*
X3220220D01*
X3225755Y3161404D01*
X3232284Y3160105D01*
X3238812Y3161404D01*
X3242562Y3163910D01*
X3246063Y3164710D01*
X3249564Y3163910D01*
X3253314Y3161404D01*
X3259843Y3160105D01*
X3266371Y3161404D01*
X3271906Y3165102D01*
X3275338D01*
X3280873Y3161404D01*
X3287402Y3160105D01*
X3293930Y3161404D01*
X3299465Y3165102D01*
X3302897D01*
X3308432Y3161404D01*
X3314961Y3160105D01*
X3321489Y3161404D01*
X3327024Y3165102D01*
X3330722Y3170637D01*
X3332021Y3177165D01*
X3330722Y3183694D01*
X3327024Y3189229D01*
X3321489Y3192927D01*
X3314961Y3194226D01*
D02*
G37*
G36*
X3777953Y3214956D02*
Y3177953D01*
X3814956D01*
X3813970Y3185442D01*
X3809940Y3195173D01*
X3803528Y3203528D01*
X3795173Y3209940D01*
X3785442Y3213970D01*
X3777953Y3214956D01*
D02*
G37*
G36*
X5877953D02*
Y3177953D01*
X5914957D01*
X5913971Y3185442D01*
X5909940Y3195173D01*
X5903528Y3203528D01*
X5895173Y3209940D01*
X5885442Y3213970D01*
X5877953Y3214956D01*
D02*
G37*
G36*
X6181102Y3465879D02*
X6174574Y3464580D01*
X6169039Y3460882D01*
X6165341Y3455347D01*
X6164042Y3448819D01*
X6165341Y3442290D01*
X6169039Y3436756D01*
X6174574Y3433057D01*
X6181102Y3431759D01*
X6187631Y3433057D01*
X6193166Y3436756D01*
X6196864Y3442290D01*
X6198162Y3448819D01*
X6196864Y3455347D01*
X6193166Y3460882D01*
X6187631Y3464580D01*
X6181102Y3465879D01*
D02*
G37*
G36*
X5874016Y3883202D02*
X5867487Y3881903D01*
X5861952Y3878205D01*
X5858254Y3872670D01*
X5856956Y3866142D01*
X5858254Y3859613D01*
X5861952Y3854078D01*
X5867487Y3850380D01*
X5874016Y3849082D01*
X5880544Y3850380D01*
X5886079Y3854078D01*
X5889777Y3859613D01*
X5891076Y3866142D01*
X5889777Y3872670D01*
X5886079Y3878205D01*
X5880544Y3881903D01*
X5874016Y3883202D01*
D02*
G37*
G36*
X3855315Y3913872D02*
X3848463Y3912970D01*
X3839326Y3909186D01*
X3831480Y3903165D01*
X3825460Y3895320D01*
X3821675Y3886183D01*
X3820773Y3879331D01*
X3855315D01*
Y3913872D01*
D02*
G37*
G36*
Y3873425D02*
X3820773D01*
X3821675Y3866573D01*
X3825460Y3857436D01*
X3831480Y3849591D01*
X3839326Y3843570D01*
X3848463Y3839786D01*
X3855315Y3838884D01*
Y3873425D01*
D02*
G37*
G36*
X4417323Y3844758D02*
X4411946Y3843689D01*
X4407480Y3840705D01*
X4403014Y3843689D01*
X4397638Y3844758D01*
X4392261Y3843689D01*
X4387703Y3840643D01*
X4384658Y3836085D01*
X4383588Y3830709D01*
X4384658Y3825332D01*
X4387703Y3820774D01*
X4392261Y3817729D01*
X4397638Y3816659D01*
X4403014Y3817729D01*
X4407480Y3820713D01*
X4411946Y3817729D01*
X4417323Y3816659D01*
X4422699Y3817729D01*
X4427257Y3820774D01*
X4430303Y3825332D01*
X4431372Y3830709D01*
X4430303Y3836085D01*
X4427257Y3840643D01*
X4422699Y3843689D01*
X4417323Y3844758D01*
D02*
G37*
G36*
X5536417Y3913714D02*
X5529889Y3912415D01*
X5524354Y3908717D01*
X5520656Y3903182D01*
X5519357Y3896653D01*
X5520656Y3890125D01*
X5524354Y3884590D01*
X5529889Y3880892D01*
X5536417Y3879593D01*
X5542946Y3880892D01*
X5548481Y3884590D01*
X5552179Y3890125D01*
X5553477Y3896653D01*
X5552179Y3903182D01*
X5548481Y3908717D01*
X5542946Y3912415D01*
X5536417Y3913714D01*
D02*
G37*
G36*
X4358267Y3981627D02*
X4351739Y3980328D01*
X4346204Y3976630D01*
X4342506Y3971095D01*
X4341207Y3964567D01*
X4342506Y3958038D01*
X4346204Y3952504D01*
X4351739Y3948805D01*
X4357611Y3947637D01*
X4359292Y3945281D01*
X4360417Y3942836D01*
X4358254Y3939599D01*
X4356956Y3933071D01*
X4358254Y3926542D01*
X4361952Y3921008D01*
X4367487Y3917309D01*
X4374016Y3916011D01*
X4380544Y3917309D01*
X4386079Y3921008D01*
X4389777Y3926542D01*
X4391076Y3933071D01*
X4389777Y3939599D01*
X4386079Y3945134D01*
X4380544Y3948832D01*
X4374672Y3950001D01*
X4372991Y3952356D01*
X4371866Y3954801D01*
X4374029Y3958038D01*
X4375327Y3964567D01*
X4374029Y3971095D01*
X4370331Y3976630D01*
X4364796Y3980328D01*
X4358267Y3981627D01*
D02*
G37*
G36*
X4990157Y3952100D02*
X4983629Y3950801D01*
X4978094Y3947103D01*
X4974396Y3941568D01*
X4973097Y3935039D01*
X4974396Y3928511D01*
X4978094Y3922976D01*
X4983629Y3919278D01*
X4990157Y3917979D01*
X4996686Y3919278D01*
X5002221Y3922976D01*
X5005919Y3928511D01*
X5007217Y3935039D01*
X5005919Y3941568D01*
X5002221Y3947103D01*
X4996686Y3950801D01*
X4990157Y3952100D01*
D02*
G37*
G36*
X5122047Y3934383D02*
X5115519Y3933084D01*
X5109984Y3929386D01*
X5106286Y3923851D01*
X5104987Y3917323D01*
X5106286Y3910794D01*
X5109984Y3905260D01*
X5115519Y3901561D01*
X5122047Y3900263D01*
X5128576Y3901561D01*
X5134110Y3905260D01*
X5137809Y3910794D01*
X5139107Y3917323D01*
X5137809Y3923851D01*
X5134110Y3929386D01*
X5128576Y3933084D01*
X5122047Y3934383D01*
D02*
G37*
G36*
X4909449Y4170603D02*
X4902920Y4169305D01*
X4897386Y4165607D01*
X4893687Y4160072D01*
X4892389Y4153543D01*
X4893687Y4147015D01*
X4897386Y4141480D01*
X4900417Y4139454D01*
Y3935349D01*
X4897386Y3933323D01*
X4893687Y3927788D01*
X4892389Y3921260D01*
X4893687Y3914731D01*
X4897386Y3909197D01*
X4902920Y3905498D01*
X4909449Y3904200D01*
X4915977Y3905498D01*
X4921512Y3909197D01*
X4925210Y3914731D01*
X4926509Y3921260D01*
X4925210Y3927788D01*
X4921512Y3933323D01*
X4918481Y3935349D01*
Y4139454D01*
X4921512Y4141480D01*
X4925210Y4147015D01*
X4926509Y4153543D01*
X4925210Y4160072D01*
X4921512Y4165607D01*
X4915977Y4169305D01*
X4909449Y4170603D01*
D02*
G37*
G36*
X4748032Y3871391D02*
X4741503Y3870092D01*
X4735968Y3866394D01*
X4732270Y3860859D01*
X4730971Y3854331D01*
X4732270Y3847802D01*
X4735968Y3842267D01*
X4741503Y3838569D01*
X4748032Y3837271D01*
X4754560Y3838569D01*
X4758728Y3841354D01*
X4816610D01*
X4818636Y3838323D01*
X4824170Y3834624D01*
X4830699Y3833326D01*
X4837227Y3834624D01*
X4842762Y3838323D01*
X4846460Y3843857D01*
X4847759Y3850386D01*
X4846460Y3856915D01*
X4842762Y3862449D01*
X4837227Y3866148D01*
X4830699Y3867446D01*
X4824170Y3866148D01*
X4818636Y3862449D01*
X4816610Y3859418D01*
X4764080D01*
X4763793Y3860859D01*
X4760095Y3866394D01*
X4754560Y3870092D01*
X4748032Y3871391D01*
D02*
G37*
G36*
X4901575Y3627296D02*
X4895046Y3625998D01*
X4889511Y3622300D01*
X4885813Y3616765D01*
X4884515Y3610236D01*
X4885813Y3603708D01*
X4889511Y3598173D01*
X4895046Y3594475D01*
X4901575Y3593176D01*
X4908103Y3594475D01*
X4913638Y3598173D01*
X4917336Y3603708D01*
X4918635Y3610236D01*
X4917336Y3616765D01*
X4913638Y3622300D01*
X4908103Y3625998D01*
X4901575Y3627296D01*
D02*
G37*
G36*
X5129921Y3643044D02*
X5123393Y3641746D01*
X5117858Y3638048D01*
X5114160Y3632513D01*
X5112861Y3625984D01*
X5114160Y3619456D01*
X5117858Y3613921D01*
X5123393Y3610223D01*
X5129921Y3608924D01*
X5136450Y3610223D01*
X5141984Y3613921D01*
X5145683Y3619456D01*
X5146981Y3625984D01*
X5145683Y3632513D01*
X5141984Y3638048D01*
X5136450Y3641746D01*
X5129921Y3643044D01*
D02*
G37*
G36*
X3122047Y3611548D02*
X3115519Y3610250D01*
X3109984Y3606552D01*
X3106286Y3601017D01*
X3104987Y3594488D01*
X3106286Y3587960D01*
X3109984Y3582425D01*
Y3578992D01*
X3106286Y3573458D01*
X3104987Y3566929D01*
X3106286Y3560401D01*
X3109815Y3555118D01*
X3106286Y3549836D01*
X3104987Y3543307D01*
X3106286Y3536778D01*
X3109984Y3531244D01*
X3115519Y3527546D01*
X3122047Y3526247D01*
X3128576Y3527546D01*
X3134110Y3531244D01*
X3137809Y3536778D01*
X3139107Y3543307D01*
X3137809Y3549836D01*
X3134279Y3555118D01*
X3137809Y3560401D01*
X3139107Y3566929D01*
X3137809Y3573458D01*
X3134110Y3578992D01*
Y3582425D01*
X3137809Y3587960D01*
X3139107Y3594488D01*
X3137809Y3601017D01*
X3134110Y3606552D01*
X3128576Y3610250D01*
X3122047Y3611548D01*
D02*
G37*
G36*
X5907480Y3597769D02*
X5900952Y3596470D01*
X5895417Y3592772D01*
X5891719Y3587237D01*
X5890420Y3580709D01*
X5891131Y3577133D01*
X5875503Y3561505D01*
X5873546Y3558575D01*
X5872858Y3555118D01*
Y3356609D01*
X5869827Y3354583D01*
X5866128Y3349048D01*
X5864830Y3342520D01*
X5866128Y3335991D01*
X5869827Y3330456D01*
X5875361Y3326758D01*
X5881890Y3325460D01*
X5888418Y3326758D01*
X5893953Y3330456D01*
X5897651Y3335991D01*
X5898950Y3342520D01*
X5897651Y3349048D01*
X5893953Y3354583D01*
X5890922Y3356609D01*
Y3488611D01*
X5895922Y3490128D01*
X5897386Y3487937D01*
X5902920Y3484238D01*
X5909449Y3482940D01*
X5915977Y3484238D01*
X5921512Y3487937D01*
X5925210Y3493471D01*
X5926509Y3500000D01*
X5925210Y3506529D01*
X5921512Y3512063D01*
X5915977Y3515762D01*
X5909449Y3517060D01*
X5902920Y3515762D01*
X5897386Y3512063D01*
X5895922Y3509872D01*
X5890922Y3511389D01*
Y3551377D01*
X5903904Y3564360D01*
X5907480Y3563648D01*
X5914009Y3564947D01*
X5919543Y3568645D01*
X5923242Y3574180D01*
X5924540Y3580709D01*
X5923242Y3587237D01*
X5919543Y3592772D01*
X5914009Y3596470D01*
X5907480Y3597769D01*
D02*
G37*
G36*
X5525862Y3650111D02*
X5519334Y3648813D01*
X5513799Y3645115D01*
X5510101Y3639580D01*
X5508802Y3633051D01*
X5510101Y3626523D01*
X5513799Y3620988D01*
X5519334Y3617290D01*
X5525862Y3615991D01*
X5532391Y3617290D01*
X5537926Y3620988D01*
X5541624Y3626523D01*
X5542922Y3633051D01*
X5541624Y3639580D01*
X5537926Y3645115D01*
X5532391Y3648813D01*
X5525862Y3650111D01*
D02*
G37*
G36*
X5562992Y3684383D02*
X5556463Y3683084D01*
X5550929Y3679386D01*
X5547231Y3673851D01*
X5545932Y3667323D01*
X5547231Y3660794D01*
X5550929Y3655260D01*
X5556463Y3651561D01*
X5562992Y3650263D01*
X5569521Y3651561D01*
X5575055Y3655260D01*
X5578754Y3660794D01*
X5580052Y3667323D01*
X5578754Y3673851D01*
X5575055Y3679386D01*
X5569521Y3683084D01*
X5562992Y3684383D01*
D02*
G37*
G36*
X4460630Y3843184D02*
X4455253Y3842114D01*
X4450695Y3839068D01*
X4447650Y3834510D01*
X4446580Y3829134D01*
X4447650Y3823758D01*
X4450695Y3819200D01*
X4455253Y3816154D01*
X4460630Y3815084D01*
X4466006Y3816154D01*
X4470564Y3819200D01*
X4473610Y3823758D01*
X4474679Y3829134D01*
X4473610Y3834510D01*
X4470564Y3839068D01*
X4466006Y3842114D01*
X4460630Y3843184D01*
D02*
G37*
G36*
X4480315Y3659719D02*
X4474939Y3658649D01*
X4470381Y3655604D01*
X4467335Y3651046D01*
X4466266Y3645669D01*
X4467335Y3640293D01*
X4470381Y3635735D01*
X4474939Y3632689D01*
X4480315Y3631620D01*
X4485691Y3632689D01*
X4490249Y3635735D01*
X4493295Y3640293D01*
X4494364Y3645669D01*
X4493295Y3651046D01*
X4490249Y3655604D01*
X4485691Y3658649D01*
X4480315Y3659719D01*
D02*
G37*
G36*
X5803138Y3674533D02*
X5796609Y3673235D01*
X5791075Y3669536D01*
X5787377Y3664002D01*
X5786078Y3657473D01*
X5787377Y3650944D01*
X5791075Y3645410D01*
X5796609Y3641711D01*
X5803138Y3640413D01*
X5809667Y3641711D01*
X5815201Y3645410D01*
X5818900Y3650944D01*
X5820198Y3657473D01*
X5818900Y3664002D01*
X5815201Y3669536D01*
X5809667Y3673235D01*
X5803138Y3674533D01*
D02*
G37*
G36*
X5275000Y3110223D02*
X5265884Y3109022D01*
X5257389Y3105504D01*
X5250094Y3099906D01*
X5244496Y3092611D01*
X5240978Y3084116D01*
X5239777Y3075000D01*
X5240978Y3065884D01*
X5244496Y3057389D01*
X5250094Y3050094D01*
X5257389Y3044496D01*
X5265884Y3040978D01*
X5275000Y3039777D01*
X5284116Y3040978D01*
X5292611Y3044496D01*
X5299906Y3050094D01*
X5305504Y3057389D01*
X5309022Y3065884D01*
X5310223Y3075000D01*
X5309022Y3084116D01*
X5305504Y3092611D01*
X5299906Y3099906D01*
X5292611Y3105504D01*
X5284116Y3109022D01*
X5275000Y3110223D01*
D02*
G37*
G36*
X5375000D02*
X5365884Y3109022D01*
X5357389Y3105504D01*
X5350094Y3099906D01*
X5344496Y3092611D01*
X5340978Y3084116D01*
X5339777Y3075000D01*
X5340978Y3065884D01*
X5344496Y3057389D01*
X5350094Y3050094D01*
X5357389Y3044496D01*
X5365884Y3040978D01*
X5375000Y3039777D01*
X5384116Y3040978D01*
X5392611Y3044496D01*
X5399906Y3050094D01*
X5405504Y3057389D01*
X5409022Y3065884D01*
X5410223Y3075000D01*
X5409022Y3084116D01*
X5405504Y3092611D01*
X5399906Y3099906D01*
X5392611Y3105504D01*
X5384116Y3109022D01*
X5375000Y3110223D01*
D02*
G37*
G36*
X4375000D02*
X4365884Y3109022D01*
X4357389Y3105504D01*
X4350094Y3099906D01*
X4344496Y3092611D01*
X4340978Y3084116D01*
X4339777Y3075000D01*
X4340978Y3065884D01*
X4344496Y3057389D01*
X4350094Y3050094D01*
X4357389Y3044496D01*
X4365884Y3040978D01*
X4375000Y3039777D01*
X4384116Y3040978D01*
X4392611Y3044496D01*
X4399906Y3050094D01*
X4405504Y3057389D01*
X4409022Y3065884D01*
X4410223Y3075000D01*
X4409022Y3084116D01*
X4405504Y3092611D01*
X4399906Y3099906D01*
X4392611Y3105504D01*
X4384116Y3109022D01*
X4375000Y3110223D01*
D02*
G37*
G36*
X4475000D02*
X4465884Y3109022D01*
X4457389Y3105504D01*
X4450094Y3099906D01*
X4444496Y3092611D01*
X4440978Y3084116D01*
X4439777Y3075000D01*
X4440978Y3065884D01*
X4444496Y3057389D01*
X4450094Y3050094D01*
X4457389Y3044496D01*
X4465884Y3040978D01*
X4475000Y3039777D01*
X4484116Y3040978D01*
X4492611Y3044496D01*
X4499906Y3050094D01*
X4505504Y3057389D01*
X4509022Y3065884D01*
X4510223Y3075000D01*
X4509022Y3084116D01*
X4505504Y3092611D01*
X4499906Y3099906D01*
X4492611Y3105504D01*
X4484116Y3109022D01*
X4475000Y3110223D01*
D02*
G37*
G36*
X5475000D02*
X5465884Y3109022D01*
X5457389Y3105504D01*
X5450094Y3099906D01*
X5444496Y3092611D01*
X5440978Y3084116D01*
X5439777Y3075000D01*
X5440978Y3065884D01*
X5444496Y3057389D01*
X5450094Y3050094D01*
X5457389Y3044496D01*
X5465884Y3040978D01*
X5475000Y3039777D01*
X5484116Y3040978D01*
X5492611Y3044496D01*
X5499906Y3050094D01*
X5505504Y3057389D01*
X5509022Y3065884D01*
X5510223Y3075000D01*
X5509022Y3084116D01*
X5505504Y3092611D01*
X5499906Y3099906D01*
X5492611Y3105504D01*
X5484116Y3109022D01*
X5475000Y3110223D01*
D02*
G37*
G36*
X5775000D02*
X5765884Y3109022D01*
X5757389Y3105504D01*
X5750094Y3099906D01*
X5744496Y3092611D01*
X5740978Y3084116D01*
X5739777Y3075000D01*
X5740978Y3065884D01*
X5744496Y3057389D01*
X5750094Y3050094D01*
X5757389Y3044496D01*
X5765884Y3040978D01*
X5775000Y3039777D01*
X5784116Y3040978D01*
X5792611Y3044496D01*
X5799906Y3050094D01*
X5805504Y3057389D01*
X5809022Y3065884D01*
X5810223Y3075000D01*
X5809022Y3084116D01*
X5805504Y3092611D01*
X5799906Y3099906D01*
X5792611Y3105504D01*
X5784116Y3109022D01*
X5775000Y3110223D01*
D02*
G37*
G36*
X3772047Y3115000D02*
X3735000D01*
Y3077953D01*
X3772047D01*
Y3115000D01*
D02*
G37*
G36*
X5575000Y3110223D02*
X5565884Y3109022D01*
X5557389Y3105504D01*
X5550094Y3099906D01*
X5544496Y3092611D01*
X5540978Y3084116D01*
X5539777Y3075000D01*
X5540978Y3065884D01*
X5544496Y3057389D01*
X5550094Y3050094D01*
X5557389Y3044496D01*
X5565884Y3040978D01*
X5575000Y3039777D01*
X5584116Y3040978D01*
X5592611Y3044496D01*
X5599906Y3050094D01*
X5605504Y3057389D01*
X5609022Y3065884D01*
X5610223Y3075000D01*
X5609022Y3084116D01*
X5605504Y3092611D01*
X5599906Y3099906D01*
X5592611Y3105504D01*
X5584116Y3109022D01*
X5575000Y3110223D01*
D02*
G37*
G36*
X5675000D02*
X5665884Y3109022D01*
X5657389Y3105504D01*
X5650094Y3099906D01*
X5644496Y3092611D01*
X5640978Y3084116D01*
X5639777Y3075000D01*
X5640978Y3065884D01*
X5644496Y3057389D01*
X5650094Y3050094D01*
X5657389Y3044496D01*
X5665884Y3040978D01*
X5675000Y3039777D01*
X5684116Y3040978D01*
X5692611Y3044496D01*
X5699906Y3050094D01*
X5705504Y3057389D01*
X5709022Y3065884D01*
X5710223Y3075000D01*
X5709022Y3084116D01*
X5705504Y3092611D01*
X5699906Y3099906D01*
X5692611Y3105504D01*
X5684116Y3109022D01*
X5675000Y3110223D01*
D02*
G37*
G36*
X4175000D02*
X4165884Y3109022D01*
X4157389Y3105504D01*
X4150094Y3099906D01*
X4144496Y3092611D01*
X4140978Y3084116D01*
X4139777Y3075000D01*
X4140978Y3065884D01*
X4144496Y3057389D01*
X4150094Y3050094D01*
X4157389Y3044496D01*
X4165884Y3040978D01*
X4175000Y3039777D01*
X4184116Y3040978D01*
X4192611Y3044496D01*
X4199906Y3050094D01*
X4205504Y3057389D01*
X4209022Y3065884D01*
X4210223Y3075000D01*
X4209022Y3084116D01*
X4205504Y3092611D01*
X4199906Y3099906D01*
X4192611Y3105504D01*
X4184116Y3109022D01*
X4175000Y3110223D01*
D02*
G37*
G36*
X3772047Y3072047D02*
X3735000D01*
Y3035000D01*
X3772047D01*
Y3072047D01*
D02*
G37*
G36*
X3815000D02*
X3777953D01*
Y3035000D01*
X3815000D01*
Y3072047D01*
D02*
G37*
G36*
X6472441Y2855643D02*
X6465912Y2854344D01*
X6460378Y2850646D01*
X6456679Y2845111D01*
X6455381Y2838583D01*
X6456679Y2832054D01*
X6460378Y2826519D01*
X6465912Y2822821D01*
X6472441Y2821523D01*
X6478970Y2822821D01*
X6484504Y2826519D01*
X6488202Y2832054D01*
X6489501Y2838583D01*
X6488202Y2845111D01*
X6484504Y2850646D01*
X6478970Y2854344D01*
X6472441Y2855643D01*
D02*
G37*
G36*
X6476378Y2965879D02*
X6469849Y2964580D01*
X6464315Y2960882D01*
X6460617Y2955347D01*
X6459318Y2948819D01*
X6460617Y2942290D01*
X6464315Y2936756D01*
X6469849Y2933057D01*
X6476378Y2931759D01*
X6482907Y2933057D01*
X6488441Y2936756D01*
X6492140Y2942290D01*
X6493438Y2948819D01*
X6492140Y2955347D01*
X6488441Y2960882D01*
X6482907Y2964580D01*
X6476378Y2965879D01*
D02*
G37*
G36*
X5872047Y3072047D02*
X5835043D01*
X5836029Y3064558D01*
X5840060Y3054827D01*
X5846472Y3046472D01*
X5854827Y3040060D01*
X5864558Y3036030D01*
X5872047Y3035044D01*
Y3072047D01*
D02*
G37*
G36*
X6014957D02*
X5977953D01*
Y3035044D01*
X5985442Y3036030D01*
X5995173Y3040060D01*
X6003528Y3046472D01*
X6009940Y3054827D01*
X6013971Y3064558D01*
X6014957Y3072047D01*
D02*
G37*
G36*
X3875000Y3110223D02*
X3865884Y3109022D01*
X3857389Y3105504D01*
X3850094Y3099906D01*
X3844496Y3092611D01*
X3840978Y3084116D01*
X3839777Y3075000D01*
X3840978Y3065884D01*
X3844496Y3057389D01*
X3850094Y3050094D01*
X3857389Y3044496D01*
X3865884Y3040978D01*
X3875000Y3039777D01*
X3884116Y3040978D01*
X3892611Y3044496D01*
X3899906Y3050094D01*
X3905504Y3057389D01*
X3909022Y3065884D01*
X3910223Y3075000D01*
X3909022Y3084116D01*
X3905504Y3092611D01*
X3899906Y3099906D01*
X3892611Y3105504D01*
X3884116Y3109022D01*
X3875000Y3110223D01*
D02*
G37*
G36*
X5972047Y3072047D02*
X5935043D01*
X5936029Y3064558D01*
X5940060Y3054827D01*
X5946472Y3046472D01*
X5954827Y3040060D01*
X5964558Y3036030D01*
X5972047Y3035044D01*
Y3072047D01*
D02*
G37*
G36*
X5914957D02*
X5877953D01*
Y3035044D01*
X5885442Y3036030D01*
X5895173Y3040060D01*
X5903528Y3046472D01*
X5909940Y3054827D01*
X5913971Y3064558D01*
X5914957Y3072047D01*
D02*
G37*
G36*
X5872047Y3114956D02*
X5864558Y3113970D01*
X5854827Y3109940D01*
X5846472Y3103528D01*
X5840060Y3095173D01*
X5836029Y3085442D01*
X5835043Y3077953D01*
X5872047D01*
Y3114956D01*
D02*
G37*
G36*
X4975000Y3210223D02*
X4965884Y3209022D01*
X4957389Y3205504D01*
X4950094Y3199906D01*
X4944496Y3192611D01*
X4940978Y3184116D01*
X4939777Y3175000D01*
X4940978Y3165884D01*
X4944496Y3157389D01*
X4950094Y3150094D01*
X4957389Y3144496D01*
X4965884Y3140978D01*
X4975000Y3139777D01*
X4984116Y3140978D01*
X4992611Y3144496D01*
X4999906Y3150094D01*
X5005504Y3157389D01*
X5009022Y3165884D01*
X5010223Y3175000D01*
X5009022Y3184116D01*
X5005504Y3192611D01*
X4999906Y3199906D01*
X4992611Y3205504D01*
X4984116Y3209022D01*
X4975000Y3210223D01*
D02*
G37*
G36*
X5075000D02*
X5065884Y3209022D01*
X5057389Y3205504D01*
X5050094Y3199906D01*
X5044496Y3192611D01*
X5040978Y3184116D01*
X5039777Y3175000D01*
X5040978Y3165884D01*
X5044496Y3157389D01*
X5050094Y3150094D01*
X5057389Y3144496D01*
X5065884Y3140978D01*
X5075000Y3139777D01*
X5084116Y3140978D01*
X5092611Y3144496D01*
X5099906Y3150094D01*
X5105504Y3157389D01*
X5109022Y3165884D01*
X5110223Y3175000D01*
X5109022Y3184116D01*
X5105504Y3192611D01*
X5099906Y3199906D01*
X5092611Y3205504D01*
X5084116Y3209022D01*
X5075000Y3210223D01*
D02*
G37*
G36*
X3875000D02*
X3865884Y3209022D01*
X3857389Y3205504D01*
X3850094Y3199906D01*
X3844496Y3192611D01*
X3840978Y3184116D01*
X3839777Y3175000D01*
X3840978Y3165884D01*
X3844496Y3157389D01*
X3850094Y3150094D01*
X3857389Y3144496D01*
X3865884Y3140978D01*
X3875000Y3139777D01*
X3884116Y3140978D01*
X3892611Y3144496D01*
X3899906Y3150094D01*
X3905504Y3157389D01*
X3909022Y3165884D01*
X3910223Y3175000D01*
X3909022Y3184116D01*
X3905504Y3192611D01*
X3899906Y3199906D01*
X3892611Y3205504D01*
X3884116Y3209022D01*
X3875000Y3210223D01*
D02*
G37*
G36*
X4275000D02*
X4265884Y3209022D01*
X4257389Y3205504D01*
X4250094Y3199906D01*
X4244496Y3192611D01*
X4240978Y3184116D01*
X4239777Y3175000D01*
X4240978Y3165884D01*
X4244496Y3157389D01*
X4250094Y3150094D01*
X4257389Y3144496D01*
X4265884Y3140978D01*
X4275000Y3139777D01*
X4284116Y3140978D01*
X4292611Y3144496D01*
X4299906Y3150094D01*
X4305504Y3157389D01*
X4309022Y3165884D01*
X4310223Y3175000D01*
X4309022Y3184116D01*
X4305504Y3192611D01*
X4299906Y3199906D01*
X4292611Y3205504D01*
X4284116Y3209022D01*
X4275000Y3210223D01*
D02*
G37*
G36*
X5175000D02*
X5165884Y3209022D01*
X5157389Y3205504D01*
X5150094Y3199906D01*
X5144496Y3192611D01*
X5140978Y3184116D01*
X5139777Y3175000D01*
X5140978Y3165884D01*
X5144496Y3157389D01*
X5150094Y3150094D01*
X5157389Y3144496D01*
X5165884Y3140978D01*
X5175000Y3139777D01*
X5184116Y3140978D01*
X5192611Y3144496D01*
X5199906Y3150094D01*
X5205504Y3157389D01*
X5209022Y3165884D01*
X5210223Y3175000D01*
X5209022Y3184116D01*
X5205504Y3192611D01*
X5199906Y3199906D01*
X5192611Y3205504D01*
X5184116Y3209022D01*
X5175000Y3210223D01*
D02*
G37*
G36*
X5475000D02*
X5465884Y3209022D01*
X5457389Y3205504D01*
X5450094Y3199906D01*
X5444496Y3192611D01*
X5440978Y3184116D01*
X5439777Y3175000D01*
X5440978Y3165884D01*
X5444496Y3157389D01*
X5450094Y3150094D01*
X5457389Y3144496D01*
X5465884Y3140978D01*
X5475000Y3139777D01*
X5484116Y3140978D01*
X5492611Y3144496D01*
X5499906Y3150094D01*
X5505504Y3157389D01*
X5509022Y3165884D01*
X5510223Y3175000D01*
X5509022Y3184116D01*
X5505504Y3192611D01*
X5499906Y3199906D01*
X5492611Y3205504D01*
X5484116Y3209022D01*
X5475000Y3210223D01*
D02*
G37*
G36*
X5575000D02*
X5565884Y3209022D01*
X5557389Y3205504D01*
X5550094Y3199906D01*
X5544496Y3192611D01*
X5540978Y3184116D01*
X5539777Y3175000D01*
X5540978Y3165884D01*
X5544496Y3157389D01*
X5550094Y3150094D01*
X5557389Y3144496D01*
X5565884Y3140978D01*
X5575000Y3139777D01*
X5584116Y3140978D01*
X5592611Y3144496D01*
X5599906Y3150094D01*
X5605504Y3157389D01*
X5609022Y3165884D01*
X5610223Y3175000D01*
X5609022Y3184116D01*
X5605504Y3192611D01*
X5599906Y3199906D01*
X5592611Y3205504D01*
X5584116Y3209022D01*
X5575000Y3210223D01*
D02*
G37*
G36*
X5275000D02*
X5265884Y3209022D01*
X5257389Y3205504D01*
X5250094Y3199906D01*
X5244496Y3192611D01*
X5240978Y3184116D01*
X5239777Y3175000D01*
X5240978Y3165884D01*
X5244496Y3157389D01*
X5250094Y3150094D01*
X5257389Y3144496D01*
X5265884Y3140978D01*
X5275000Y3139777D01*
X5284116Y3140978D01*
X5292611Y3144496D01*
X5299906Y3150094D01*
X5305504Y3157389D01*
X5309022Y3165884D01*
X5310223Y3175000D01*
X5309022Y3184116D01*
X5305504Y3192611D01*
X5299906Y3199906D01*
X5292611Y3205504D01*
X5284116Y3209022D01*
X5275000Y3210223D01*
D02*
G37*
G36*
X5375000D02*
X5365884Y3209022D01*
X5357389Y3205504D01*
X5350094Y3199906D01*
X5344496Y3192611D01*
X5340978Y3184116D01*
X5339777Y3175000D01*
X5340978Y3165884D01*
X5344496Y3157389D01*
X5350094Y3150094D01*
X5357389Y3144496D01*
X5365884Y3140978D01*
X5375000Y3139777D01*
X5384116Y3140978D01*
X5392611Y3144496D01*
X5399906Y3150094D01*
X5405504Y3157389D01*
X5409022Y3165884D01*
X5410223Y3175000D01*
X5409022Y3184116D01*
X5405504Y3192611D01*
X5399906Y3199906D01*
X5392611Y3205504D01*
X5384116Y3209022D01*
X5375000Y3210223D01*
D02*
G37*
G36*
X6014957Y3172047D02*
X5977953D01*
Y3135044D01*
X5985442Y3136030D01*
X5995173Y3140060D01*
X6003528Y3146472D01*
X6009940Y3154827D01*
X6013971Y3164558D01*
X6014957Y3172047D01*
D02*
G37*
G36*
X5877953Y3114956D02*
Y3077953D01*
X5914957D01*
X5913971Y3085442D01*
X5909940Y3095173D01*
X5903528Y3103528D01*
X5895173Y3109940D01*
X5885442Y3113970D01*
X5877953Y3114956D01*
D02*
G37*
G36*
X5977953D02*
Y3077953D01*
X6014957D01*
X6013971Y3085442D01*
X6009940Y3095173D01*
X6003528Y3103528D01*
X5995173Y3109940D01*
X5985442Y3113970D01*
X5977953Y3114956D01*
D02*
G37*
G36*
X5972047D02*
X5964558Y3113970D01*
X5954827Y3109940D01*
X5946472Y3103528D01*
X5940060Y3095173D01*
X5936029Y3085442D01*
X5935043Y3077953D01*
X5972047D01*
Y3114956D01*
D02*
G37*
G36*
X3815000Y3115000D02*
X3777953D01*
Y3077953D01*
X3815000D01*
Y3115000D01*
D02*
G37*
G36*
X3772047Y3172047D02*
X3735044D01*
X3736030Y3164558D01*
X3740060Y3154827D01*
X3746472Y3146472D01*
X3754827Y3140060D01*
X3764558Y3136030D01*
X3772047Y3135044D01*
Y3172047D01*
D02*
G37*
G36*
X3814956D02*
X3777953D01*
Y3135044D01*
X3785442Y3136030D01*
X3795173Y3140060D01*
X3803528Y3146472D01*
X3809940Y3154827D01*
X3813970Y3164558D01*
X3814956Y3172047D01*
D02*
G37*
G36*
X5914957D02*
X5877953D01*
Y3135044D01*
X5885442Y3136030D01*
X5895173Y3140060D01*
X5903528Y3146472D01*
X5909940Y3154827D01*
X5913971Y3164558D01*
X5914957Y3172047D01*
D02*
G37*
G36*
X5872047D02*
X5835043D01*
X5836029Y3164558D01*
X5840060Y3154827D01*
X5846472Y3146472D01*
X5854827Y3140060D01*
X5864558Y3136030D01*
X5872047Y3135044D01*
Y3172047D01*
D02*
G37*
G36*
X5972047D02*
X5935043D01*
X5936029Y3164558D01*
X5940060Y3154827D01*
X5946472Y3146472D01*
X5954827Y3140060D01*
X5964558Y3136030D01*
X5972047Y3135044D01*
Y3172047D01*
D02*
G37*
G36*
X4086614Y4918635D02*
X4080086Y4917336D01*
X4074551Y4913638D01*
X4070853Y4908103D01*
X4069554Y4901575D01*
X4070853Y4895046D01*
X4074551Y4889511D01*
X4080086Y4885813D01*
X4086614Y4884515D01*
X4093143Y4885813D01*
X4098677Y4889511D01*
X4102376Y4895046D01*
X4103674Y4901575D01*
X4102376Y4908103D01*
X4098677Y4913638D01*
X4093143Y4917336D01*
X4086614Y4918635D01*
D02*
G37*
G36*
X3385827Y4922572D02*
X3379298Y4921273D01*
X3373764Y4917575D01*
X3370065Y4912040D01*
X3368767Y4905512D01*
X3370065Y4898983D01*
X3373764Y4893449D01*
X3379298Y4889750D01*
X3385827Y4888452D01*
X3392355Y4889750D01*
X3397890Y4893449D01*
X3401588Y4898983D01*
X3402887Y4905512D01*
X3401588Y4912040D01*
X3397890Y4917575D01*
X3392355Y4921273D01*
X3385827Y4922572D01*
D02*
G37*
G36*
X3696850Y4910761D02*
X3690322Y4909462D01*
X3684787Y4905764D01*
X3681089Y4900229D01*
X3679790Y4893701D01*
X3681089Y4887172D01*
X3684787Y4881637D01*
X3690322Y4877939D01*
X3696850Y4876641D01*
X3703379Y4877939D01*
X3708914Y4881637D01*
X3712612Y4887172D01*
X3713910Y4893701D01*
X3712612Y4900229D01*
X3708914Y4905764D01*
X3703379Y4909462D01*
X3696850Y4910761D01*
D02*
G37*
G36*
X5161417Y4934383D02*
X5154889Y4933084D01*
X5149354Y4929386D01*
X5145656Y4923851D01*
X5144357Y4917323D01*
X5145656Y4910794D01*
X5149354Y4905260D01*
X5154889Y4901561D01*
X5161417Y4900263D01*
X5167946Y4901561D01*
X5168896Y4902196D01*
X5169415Y4901960D01*
X5172949Y4898891D01*
X5171916Y4893701D01*
X5173215Y4887172D01*
X5176913Y4881637D01*
X5182448Y4877939D01*
X5188976Y4876641D01*
X5195505Y4877939D01*
X5201040Y4881637D01*
X5204738Y4887172D01*
X5206037Y4893701D01*
X5204738Y4900229D01*
X5201040Y4905764D01*
X5195505Y4909462D01*
X5188976Y4910761D01*
X5182448Y4909462D01*
X5181498Y4908827D01*
X5180979Y4909064D01*
X5177445Y4912133D01*
X5178477Y4917323D01*
X5177179Y4923851D01*
X5173481Y4929386D01*
X5167946Y4933084D01*
X5161417Y4934383D01*
D02*
G37*
G36*
X3578740Y4965879D02*
X3572212Y4964580D01*
X3566677Y4960882D01*
X3562979Y4955347D01*
X3561680Y4948819D01*
X3562979Y4942290D01*
X3566677Y4936756D01*
X3572212Y4933057D01*
X3578740Y4931759D01*
X3585269Y4933057D01*
X3590803Y4936756D01*
X3594502Y4942290D01*
X3595800Y4948819D01*
X3594502Y4955347D01*
X3590803Y4960882D01*
X3585269Y4964580D01*
X3578740Y4965879D01*
D02*
G37*
G36*
X3875000Y5010223D02*
X3865884Y5009022D01*
X3857389Y5005504D01*
X3850094Y4999906D01*
X3844496Y4992611D01*
X3840978Y4984116D01*
X3839777Y4975000D01*
X3840978Y4965884D01*
X3844496Y4957389D01*
X3850094Y4950094D01*
X3857389Y4944496D01*
X3865884Y4940978D01*
X3875000Y4939777D01*
X3884116Y4940978D01*
X3892611Y4944496D01*
X3899906Y4950094D01*
X3905504Y4957389D01*
X3909022Y4965884D01*
X3910223Y4975000D01*
X3909022Y4984116D01*
X3905504Y4992611D01*
X3899906Y4999906D01*
X3892611Y5005504D01*
X3884116Y5009022D01*
X3875000Y5010223D01*
D02*
G37*
G36*
X4175000D02*
X4165884Y5009022D01*
X4157389Y5005504D01*
X4150094Y4999906D01*
X4144496Y4992611D01*
X4140978Y4984116D01*
X4139777Y4975000D01*
X4140978Y4965884D01*
X4144496Y4957389D01*
X4150094Y4950094D01*
X4157389Y4944496D01*
X4165884Y4940978D01*
X4175000Y4939777D01*
X4184116Y4940978D01*
X4192611Y4944496D01*
X4199906Y4950094D01*
X4205504Y4957389D01*
X4209022Y4965884D01*
X4210223Y4975000D01*
X4209022Y4984116D01*
X4205504Y4992611D01*
X4199906Y4999906D01*
X4192611Y5005504D01*
X4184116Y5009022D01*
X4175000Y5010223D01*
D02*
G37*
G36*
X3772047Y4972047D02*
X3735000D01*
Y4935000D01*
X3772047D01*
Y4972047D01*
D02*
G37*
G36*
X3815000D02*
X3777953D01*
Y4935000D01*
X3815000D01*
Y4972047D01*
D02*
G37*
G36*
X6139764Y4782808D02*
X6133235Y4781510D01*
X6127701Y4777811D01*
X6124002Y4772277D01*
X6122704Y4765748D01*
X6123415Y4762172D01*
X6075984Y4714740D01*
X6030809D01*
X6027352Y4714053D01*
X6024422Y4712095D01*
X6006398Y4694071D01*
X5945191D01*
X5943166Y4697103D01*
X5937631Y4700801D01*
X5931102Y4702100D01*
X5924574Y4700801D01*
X5919039Y4697103D01*
X5915341Y4691568D01*
X5914042Y4685039D01*
X5915341Y4678511D01*
X5919039Y4672976D01*
X5924574Y4669278D01*
X5931102Y4667979D01*
X5937631Y4669278D01*
X5943166Y4672976D01*
X5945191Y4676008D01*
X6010139D01*
X6013596Y4676695D01*
X6016526Y4678653D01*
X6018660Y4680787D01*
X6023444Y4679336D01*
X6023609Y4678511D01*
X6027307Y4672976D01*
X6030338Y4670950D01*
Y4651884D01*
X6027307Y4649859D01*
X6023609Y4644324D01*
X6022310Y4637795D01*
X6023609Y4631267D01*
X6027307Y4625732D01*
X6032842Y4622034D01*
X6039370Y4620735D01*
X6045899Y4622034D01*
X6051433Y4625732D01*
X6055132Y4631267D01*
X6056430Y4637795D01*
X6055132Y4644324D01*
X6051433Y4649859D01*
X6048402Y4651884D01*
Y4670950D01*
X6051433Y4672976D01*
X6055132Y4678511D01*
X6056430Y4685039D01*
X6055132Y4691568D01*
X6054664Y4692267D01*
X6057021Y4696677D01*
X6079725D01*
X6083181Y4697364D01*
X6086111Y4699322D01*
X6136188Y4749399D01*
X6139764Y4748688D01*
X6146292Y4749987D01*
X6151827Y4753685D01*
X6155525Y4759220D01*
X6156824Y4765748D01*
X6155525Y4772277D01*
X6151827Y4777811D01*
X6146292Y4781510D01*
X6139764Y4782808D01*
D02*
G37*
G36*
X6070866Y4784777D02*
X6064337Y4783478D01*
X6058803Y4779780D01*
X6055105Y4774245D01*
X6053806Y4767717D01*
X6055105Y4761188D01*
X6058803Y4755653D01*
X6064337Y4751955D01*
X6070866Y4750656D01*
X6077395Y4751955D01*
X6082929Y4755653D01*
X6086628Y4761188D01*
X6087926Y4767717D01*
X6086628Y4774245D01*
X6082929Y4779780D01*
X6077395Y4783478D01*
X6070866Y4784777D01*
D02*
G37*
G36*
X6476378Y4745407D02*
X6469849Y4744108D01*
X6464315Y4740410D01*
X6460617Y4734875D01*
X6459318Y4728346D01*
X6460617Y4721818D01*
X6464315Y4716283D01*
X6469849Y4712585D01*
X6476378Y4711286D01*
X6482907Y4712585D01*
X6488441Y4716283D01*
X6492140Y4721818D01*
X6493438Y4728346D01*
X6492140Y4734875D01*
X6488441Y4740410D01*
X6482907Y4744108D01*
X6476378Y4745407D01*
D02*
G37*
G36*
X3746063Y4763123D02*
X3739535Y4761824D01*
X3734000Y4758126D01*
X3730302Y4752592D01*
X3729003Y4746063D01*
X3730302Y4739534D01*
X3734000Y4734000D01*
X3739535Y4730301D01*
X3746063Y4729003D01*
X3752592Y4730301D01*
X3758126Y4734000D01*
X3761825Y4739534D01*
X3763123Y4746063D01*
X3761825Y4752592D01*
X3758126Y4758126D01*
X3752592Y4761824D01*
X3746063Y4763123D01*
D02*
G37*
G36*
X3342520Y4835958D02*
X3335991Y4834659D01*
X3330456Y4830961D01*
X3326758Y4825426D01*
X3325460Y4818898D01*
X3326758Y4812369D01*
X3330456Y4806834D01*
X3335991Y4803136D01*
X3342520Y4801837D01*
X3349048Y4803136D01*
X3354583Y4806834D01*
X3358281Y4812369D01*
X3359580Y4818898D01*
X3358281Y4825426D01*
X3354583Y4830961D01*
X3349048Y4834659D01*
X3342520Y4835958D01*
D02*
G37*
G36*
X4133858Y4895939D02*
X4128482Y4894870D01*
X4123924Y4891824D01*
X4120878Y4887266D01*
X4119809Y4881890D01*
X4120878Y4876513D01*
X4123924Y4871955D01*
X4128482Y4868910D01*
X4133858Y4867840D01*
X4139235Y4868910D01*
X4143793Y4871955D01*
X4146838Y4876513D01*
X4147908Y4881890D01*
X4146838Y4887266D01*
X4143793Y4891824D01*
X4139235Y4894870D01*
X4133858Y4895939D01*
D02*
G37*
G36*
X3748032Y4902887D02*
X3741503Y4901588D01*
X3735968Y4897890D01*
X3732270Y4892355D01*
X3730971Y4885827D01*
X3732270Y4879298D01*
X3735968Y4873764D01*
X3741503Y4870065D01*
X3748032Y4868767D01*
X3754560Y4870065D01*
X3760095Y4873764D01*
X3763793Y4879298D01*
X3765092Y4885827D01*
X3763793Y4892355D01*
X3760095Y4897890D01*
X3754560Y4901588D01*
X3748032Y4902887D01*
D02*
G37*
G36*
X6476378Y4855643D02*
X6469849Y4854344D01*
X6464315Y4850646D01*
X6460617Y4845111D01*
X6459318Y4838583D01*
X6460617Y4832054D01*
X6464315Y4826519D01*
X6469849Y4822821D01*
X6476378Y4821523D01*
X6482907Y4822821D01*
X6488441Y4826519D01*
X6492140Y4832054D01*
X6493438Y4838583D01*
X6492140Y4845111D01*
X6488441Y4850646D01*
X6482907Y4854344D01*
X6476378Y4855643D01*
D02*
G37*
G36*
X3322828Y4871381D02*
X3316299Y4870083D01*
X3310765Y4866384D01*
X3307066Y4860850D01*
X3305768Y4854321D01*
X3307066Y4847792D01*
X3310765Y4842258D01*
X3316299Y4838560D01*
X3322828Y4837261D01*
X3329357Y4838560D01*
X3334891Y4842258D01*
X3338590Y4847792D01*
X3339888Y4854321D01*
X3338590Y4860850D01*
X3334891Y4866384D01*
X3329357Y4870083D01*
X3322828Y4871381D01*
D02*
G37*
G36*
X4875000Y5110223D02*
X4865884Y5109022D01*
X4857389Y5105504D01*
X4850094Y5099906D01*
X4844496Y5092611D01*
X4840978Y5084116D01*
X4839777Y5075000D01*
X4840978Y5065884D01*
X4844496Y5057389D01*
X4850094Y5050094D01*
X4857389Y5044496D01*
X4865884Y5040978D01*
X4875000Y5039777D01*
X4884116Y5040978D01*
X4892611Y5044496D01*
X4899906Y5050094D01*
X4905504Y5057389D01*
X4909022Y5065884D01*
X4910223Y5075000D01*
X4909022Y5084116D01*
X4905504Y5092611D01*
X4899906Y5099906D01*
X4892611Y5105504D01*
X4884116Y5109022D01*
X4875000Y5110223D01*
D02*
G37*
G36*
X5675000D02*
X5665884Y5109022D01*
X5657389Y5105504D01*
X5650094Y5099906D01*
X5644496Y5092611D01*
X5640978Y5084116D01*
X5639777Y5075000D01*
X5640978Y5065884D01*
X5644496Y5057389D01*
X5650094Y5050094D01*
X5657389Y5044496D01*
X5665884Y5040978D01*
X5675000Y5039777D01*
X5684116Y5040978D01*
X5692611Y5044496D01*
X5699906Y5050094D01*
X5705504Y5057389D01*
X5709022Y5065884D01*
X5710223Y5075000D01*
X5709022Y5084116D01*
X5705504Y5092611D01*
X5699906Y5099906D01*
X5692611Y5105504D01*
X5684116Y5109022D01*
X5675000Y5110223D01*
D02*
G37*
G36*
X4075000Y5010223D02*
X4065884Y5009022D01*
X4057389Y5005504D01*
X4050094Y4999906D01*
X4044496Y4992611D01*
X4040978Y4984116D01*
X4039777Y4975000D01*
X4040978Y4965884D01*
X4036530Y4963554D01*
X4035685Y4964819D01*
X4030151Y4968517D01*
X4023622Y4969816D01*
X4017093Y4968517D01*
X4014154Y4966553D01*
X4009492Y4969452D01*
X4010223Y4975000D01*
X4009022Y4984116D01*
X4005504Y4992611D01*
X3999906Y4999906D01*
X3992611Y5005504D01*
X3984116Y5009022D01*
X3975000Y5010223D01*
X3965884Y5009022D01*
X3957389Y5005504D01*
X3950094Y4999906D01*
X3944496Y4992611D01*
X3940978Y4984116D01*
X3939777Y4975000D01*
X3940978Y4965884D01*
X3944496Y4957389D01*
X3950094Y4950094D01*
X3957389Y4944496D01*
X3965884Y4940978D01*
X3975000Y4939777D01*
X3984116Y4940978D01*
X3992611Y4944496D01*
X3999906Y4950094D01*
X4001818Y4952586D01*
X4006910Y4951008D01*
X4007860Y4946227D01*
X4011559Y4940693D01*
X4017093Y4936994D01*
X4023622Y4935696D01*
X4030151Y4936994D01*
X4035685Y4940693D01*
X4039383Y4946227D01*
X4040682Y4952756D01*
X4040673Y4952799D01*
X4041267Y4953383D01*
X4047927Y4952918D01*
X4050094Y4950094D01*
X4057389Y4944496D01*
X4065884Y4940978D01*
X4075000Y4939777D01*
X4084116Y4940978D01*
X4092611Y4944496D01*
X4099906Y4950094D01*
X4105504Y4957389D01*
X4109022Y4965884D01*
X4110223Y4975000D01*
X4109022Y4984116D01*
X4105504Y4992611D01*
X4099906Y4999906D01*
X4092611Y5005504D01*
X4084116Y5009022D01*
X4075000Y5010223D01*
D02*
G37*
G36*
X3326772Y5032808D02*
X3320243Y5031510D01*
X3314708Y5027811D01*
X3311010Y5022277D01*
X3309712Y5015748D01*
X3311010Y5009219D01*
X3314708Y5003685D01*
X3320243Y4999986D01*
X3326772Y4998688D01*
X3333300Y4999986D01*
X3338835Y5003685D01*
X3342533Y5009219D01*
X3343832Y5015748D01*
X3342533Y5022277D01*
X3338835Y5027811D01*
X3333300Y5031510D01*
X3326772Y5032808D01*
D02*
G37*
G36*
X5775000Y5110223D02*
X5765884Y5109022D01*
X5757389Y5105504D01*
X5750094Y5099906D01*
X5744496Y5092611D01*
X5740978Y5084116D01*
X5739777Y5075000D01*
X5740978Y5065884D01*
X5744496Y5057389D01*
X5750094Y5050094D01*
X5757389Y5044496D01*
X5765884Y5040978D01*
X5775000Y5039777D01*
X5784116Y5040978D01*
X5792611Y5044496D01*
X5799906Y5050094D01*
X5805504Y5057389D01*
X5809022Y5065884D01*
X5810223Y5075000D01*
X5809022Y5084116D01*
X5805504Y5092611D01*
X5799906Y5099906D01*
X5792611Y5105504D01*
X5784116Y5109022D01*
X5775000Y5110223D01*
D02*
G37*
G36*
X6484252Y5217847D02*
X6477723Y5216549D01*
X6472189Y5212851D01*
X6468490Y5207316D01*
X6467192Y5200787D01*
X6468490Y5194259D01*
X6472189Y5188724D01*
X6477723Y5185026D01*
X6484252Y5183727D01*
X6490781Y5185026D01*
X6496315Y5188724D01*
X6500014Y5194259D01*
X6501312Y5200787D01*
X6500014Y5207316D01*
X6496315Y5212851D01*
X6490781Y5216549D01*
X6484252Y5217847D01*
D02*
G37*
G36*
X6480315Y5328084D02*
X6473786Y5326785D01*
X6468252Y5323087D01*
X6464553Y5317552D01*
X6463255Y5311024D01*
X6464553Y5304495D01*
X6468252Y5298960D01*
X6473786Y5295262D01*
X6480315Y5293963D01*
X6486844Y5295262D01*
X6492378Y5298960D01*
X6496077Y5304495D01*
X6497375Y5311024D01*
X6496077Y5317552D01*
X6492378Y5323087D01*
X6486844Y5326785D01*
X6480315Y5328084D01*
D02*
G37*
G36*
X5875000Y5110223D02*
X5865884Y5109022D01*
X5857389Y5105504D01*
X5850094Y5099906D01*
X5844496Y5092611D01*
X5840978Y5084116D01*
X5839777Y5075000D01*
X5840978Y5065884D01*
X5844496Y5057389D01*
X5850094Y5050094D01*
X5857389Y5044496D01*
X5865884Y5040978D01*
X5875000Y5039777D01*
X5884116Y5040978D01*
X5892611Y5044496D01*
X5899906Y5050094D01*
X5905504Y5057389D01*
X5909022Y5065884D01*
X5910223Y5075000D01*
X5909022Y5084116D01*
X5905504Y5092611D01*
X5899906Y5099906D01*
X5892611Y5105504D01*
X5884116Y5109022D01*
X5875000Y5110223D01*
D02*
G37*
G36*
X5975000D02*
X5965884Y5109022D01*
X5957389Y5105504D01*
X5950094Y5099906D01*
X5944496Y5092611D01*
X5940978Y5084116D01*
X5939777Y5075000D01*
X5940978Y5065884D01*
X5944496Y5057389D01*
X5950094Y5050094D01*
X5957389Y5044496D01*
X5965884Y5040978D01*
X5975000Y5039777D01*
X5984116Y5040978D01*
X5992611Y5044496D01*
X5999906Y5050094D01*
X6005504Y5057389D01*
X6009022Y5065884D01*
X6010223Y5075000D01*
X6009022Y5084116D01*
X6005504Y5092611D01*
X5999906Y5099906D01*
X5992611Y5105504D01*
X5984116Y5109022D01*
X5975000Y5110223D01*
D02*
G37*
G36*
X5475000Y5010223D02*
X5465884Y5009022D01*
X5457389Y5005504D01*
X5450094Y4999906D01*
X5444496Y4992611D01*
X5440978Y4984116D01*
X5439777Y4975000D01*
X5440978Y4965884D01*
X5444496Y4957389D01*
X5450094Y4950094D01*
X5457389Y4944496D01*
X5465884Y4940978D01*
X5475000Y4939777D01*
X5484116Y4940978D01*
X5492611Y4944496D01*
X5499906Y4950094D01*
X5505504Y4957389D01*
X5509022Y4965884D01*
X5510223Y4975000D01*
X5509022Y4984116D01*
X5505504Y4992611D01*
X5499906Y4999906D01*
X5492611Y5005504D01*
X5484116Y5009022D01*
X5475000Y5010223D01*
D02*
G37*
G36*
X5575000D02*
X5565884Y5009022D01*
X5557389Y5005504D01*
X5550094Y4999906D01*
X5544496Y4992611D01*
X5540978Y4984116D01*
X5539777Y4975000D01*
X5540978Y4965884D01*
X5544496Y4957389D01*
X5550094Y4950094D01*
X5557389Y4944496D01*
X5565884Y4940978D01*
X5575000Y4939777D01*
X5584116Y4940978D01*
X5592611Y4944496D01*
X5599906Y4950094D01*
X5605504Y4957389D01*
X5609022Y4965884D01*
X5610223Y4975000D01*
X5609022Y4984116D01*
X5605504Y4992611D01*
X5599906Y4999906D01*
X5592611Y5005504D01*
X5584116Y5009022D01*
X5575000Y5010223D01*
D02*
G37*
G36*
X5275000D02*
X5265884Y5009022D01*
X5257389Y5005504D01*
X5250094Y4999906D01*
X5244496Y4992611D01*
X5240978Y4984116D01*
X5239777Y4975000D01*
X5240978Y4965884D01*
X5244496Y4957389D01*
X5250094Y4950094D01*
X5257389Y4944496D01*
X5265884Y4940978D01*
X5275000Y4939777D01*
X5284116Y4940978D01*
X5292611Y4944496D01*
X5299906Y4950094D01*
X5305504Y4957389D01*
X5309022Y4965884D01*
X5310223Y4975000D01*
X5309022Y4984116D01*
X5305504Y4992611D01*
X5299906Y4999906D01*
X5292611Y5005504D01*
X5284116Y5009022D01*
X5275000Y5010223D01*
D02*
G37*
G36*
X5375000D02*
X5365884Y5009022D01*
X5357389Y5005504D01*
X5350094Y4999906D01*
X5344496Y4992611D01*
X5340978Y4984116D01*
X5339777Y4975000D01*
X5340978Y4965884D01*
X5344496Y4957389D01*
X5350094Y4950094D01*
X5357389Y4944496D01*
X5365884Y4940978D01*
X5375000Y4939777D01*
X5384116Y4940978D01*
X5392611Y4944496D01*
X5399906Y4950094D01*
X5405504Y4957389D01*
X5409022Y4965884D01*
X5410223Y4975000D01*
X5409022Y4984116D01*
X5405504Y4992611D01*
X5399906Y4999906D01*
X5392611Y5005504D01*
X5384116Y5009022D01*
X5375000Y5010223D01*
D02*
G37*
G36*
X4791339Y5122890D02*
X3758904D01*
X3755448Y5122203D01*
X3752518Y5120245D01*
X3716108Y5083835D01*
X3584955D01*
X3582929Y5086866D01*
X3577395Y5090565D01*
X3570866Y5091863D01*
X3564338Y5090565D01*
X3558803Y5086866D01*
X3555105Y5081332D01*
X3553806Y5074803D01*
X3555105Y5068275D01*
X3558803Y5062740D01*
X3564338Y5059042D01*
X3570866Y5057743D01*
X3577395Y5059042D01*
X3582929Y5062740D01*
X3584955Y5065771D01*
X3719849D01*
X3723305Y5066459D01*
X3726236Y5068417D01*
X3729985Y5072166D01*
X3735264Y5070374D01*
X3736030Y5064558D01*
X3740060Y5054827D01*
X3746472Y5046472D01*
X3752832Y5041591D01*
X3751135Y5036591D01*
X3388661D01*
X3384481Y5039383D01*
X3377953Y5040682D01*
X3371424Y5039383D01*
X3365890Y5035685D01*
X3362191Y5030151D01*
X3360893Y5023622D01*
X3362191Y5017093D01*
X3365890Y5011559D01*
X3371424Y5007860D01*
X3377953Y5006562D01*
X3384481Y5007860D01*
X3390016Y5011559D01*
X3393714Y5017093D01*
X3393999Y5018527D01*
X3731461D01*
X3735000Y5015000D01*
X3735000Y5013527D01*
Y4977953D01*
X3775000D01*
X3815000D01*
Y5013527D01*
X3815000Y5015000D01*
X3818539Y5018527D01*
X4327559D01*
X4331015Y5019215D01*
X4333945Y5021173D01*
X4357321Y5044548D01*
X4357389Y5044496D01*
X4365884Y5040978D01*
X4375000Y5039777D01*
X4384116Y5040978D01*
X4392611Y5044496D01*
X4399906Y5050094D01*
X4405504Y5057389D01*
X4409022Y5065884D01*
X4410223Y5075000D01*
X4409022Y5084116D01*
X4405504Y5092611D01*
X4399967Y5099827D01*
X4400215Y5101713D01*
X4401271Y5104827D01*
X4448729D01*
X4449785Y5101713D01*
X4450033Y5099827D01*
X4444496Y5092611D01*
X4440978Y5084116D01*
X4439777Y5075000D01*
X4440978Y5065884D01*
X4444496Y5057389D01*
X4450094Y5050094D01*
X4457389Y5044496D01*
X4465884Y5040978D01*
X4475000Y5039777D01*
X4484116Y5040978D01*
X4492611Y5044496D01*
X4499906Y5050094D01*
X4505504Y5057389D01*
X4509022Y5065884D01*
X4510223Y5075000D01*
X4509022Y5084116D01*
X4505504Y5092611D01*
X4499967Y5099827D01*
X4500215Y5101713D01*
X4501271Y5104827D01*
X4548729D01*
X4549785Y5101713D01*
X4550033Y5099827D01*
X4544496Y5092611D01*
X4540978Y5084116D01*
X4539777Y5075000D01*
X4540978Y5065884D01*
X4544496Y5057389D01*
X4550094Y5050094D01*
X4557389Y5044496D01*
X4565884Y5040978D01*
X4575000Y5039777D01*
X4584116Y5040978D01*
X4592611Y5044496D01*
X4599906Y5050094D01*
X4605504Y5057389D01*
X4609022Y5065884D01*
X4610223Y5075000D01*
X4609022Y5084116D01*
X4605504Y5092611D01*
X4599967Y5099827D01*
X4600215Y5101713D01*
X4601271Y5104827D01*
X4648729D01*
X4649785Y5101713D01*
X4650033Y5099827D01*
X4644496Y5092611D01*
X4640978Y5084116D01*
X4639777Y5075000D01*
X4640978Y5065884D01*
X4644496Y5057389D01*
X4650094Y5050094D01*
X4657389Y5044496D01*
X4665884Y5040978D01*
X4675000Y5039777D01*
X4684116Y5040978D01*
X4692611Y5044496D01*
X4699906Y5050094D01*
X4705504Y5057389D01*
X4709022Y5065884D01*
X4710223Y5075000D01*
X4709022Y5084116D01*
X4705504Y5092611D01*
X4699967Y5099827D01*
X4700215Y5101713D01*
X4701271Y5104827D01*
X4748729D01*
X4749785Y5101713D01*
X4750033Y5099827D01*
X4744496Y5092611D01*
X4740978Y5084116D01*
X4739777Y5075000D01*
X4740978Y5065884D01*
X4744496Y5057389D01*
X4750094Y5050094D01*
X4757389Y5044496D01*
X4765884Y5040978D01*
X4775000Y5039777D01*
X4784116Y5040978D01*
X4792611Y5044496D01*
X4799906Y5050094D01*
X4805504Y5057389D01*
X4809022Y5065884D01*
X4813803Y5064925D01*
Y4985075D01*
X4809022Y4984116D01*
X4805504Y4992611D01*
X4799906Y4999906D01*
X4792611Y5005504D01*
X4784116Y5009022D01*
X4775000Y5010223D01*
X4765884Y5009022D01*
X4757389Y5005504D01*
X4750094Y4999906D01*
X4744496Y4992611D01*
X4740978Y4984116D01*
X4739777Y4975000D01*
X4740978Y4965884D01*
X4744496Y4957389D01*
X4750094Y4950094D01*
X4757389Y4944496D01*
X4765884Y4940978D01*
X4775000Y4939777D01*
X4784116Y4940978D01*
X4792611Y4944496D01*
X4799906Y4950094D01*
X4805504Y4957389D01*
X4809022Y4965884D01*
X4813803Y4966219D01*
X4814490Y4962763D01*
X4816448Y4959833D01*
X4818573Y4957708D01*
X4817121Y4952924D01*
X4816296Y4952760D01*
X4810762Y4949061D01*
X4807064Y4943527D01*
X4805765Y4936998D01*
X4807064Y4930469D01*
X4810762Y4924935D01*
X4816296Y4921236D01*
X4822825Y4919938D01*
X4829354Y4921236D01*
X4834888Y4924935D01*
X4839693Y4923125D01*
X4840070Y4922747D01*
X4843000Y4920790D01*
X4846457Y4920102D01*
X4891423D01*
X4893449Y4917071D01*
X4898983Y4913372D01*
X4905512Y4912074D01*
X4912040Y4913372D01*
X4917575Y4917071D01*
X4919601Y4920102D01*
X4929134D01*
X4932590Y4920790D01*
X4935520Y4922748D01*
X4937786Y4925014D01*
X4953366D01*
X4955439Y4920014D01*
X4952742Y4915977D01*
X4951444Y4909449D01*
X4952742Y4902920D01*
X4956441Y4897386D01*
X4961975Y4893687D01*
X4968504Y4892389D01*
X4975033Y4893687D01*
X4980567Y4897386D01*
X4984265Y4902920D01*
X4985529Y4909275D01*
X5000984D01*
X5004441Y4909963D01*
X5007371Y4911921D01*
X5010621Y4915171D01*
X5124203D01*
X5127659Y4915858D01*
X5130589Y4917816D01*
X5157321Y4944548D01*
X5157389Y4944496D01*
X5165884Y4940978D01*
X5175000Y4939777D01*
X5184116Y4940978D01*
X5192611Y4944496D01*
X5199906Y4950094D01*
X5205504Y4957389D01*
X5209022Y4965884D01*
X5210223Y4975000D01*
X5209022Y4984116D01*
X5205504Y4992611D01*
X5199906Y4999906D01*
X5192611Y5005504D01*
X5184116Y5009022D01*
X5175000Y5010223D01*
X5165884Y5009022D01*
X5157389Y5005504D01*
X5150469Y5000194D01*
X5149068Y5000606D01*
X5145958Y5002730D01*
X5146981Y5007874D01*
X5145683Y5014403D01*
X5145216Y5015102D01*
X5147573Y5019511D01*
X5617716D01*
X5644548Y4992679D01*
X5644496Y4992611D01*
X5640978Y4984116D01*
X5639777Y4975000D01*
X5640978Y4965884D01*
X5644496Y4957389D01*
X5650094Y4950094D01*
X5657389Y4944496D01*
X5665884Y4940978D01*
X5675000Y4939777D01*
X5684116Y4940978D01*
X5692611Y4944496D01*
X5699906Y4950094D01*
X5705504Y4957389D01*
X5709022Y4965884D01*
X5710223Y4975000D01*
X5709022Y4984116D01*
X5705504Y4992611D01*
X5699906Y4999906D01*
X5692611Y5005504D01*
X5684116Y5009022D01*
X5675000Y5010223D01*
X5665884Y5009022D01*
X5657389Y5005504D01*
X5657321Y5005452D01*
X5627843Y5034930D01*
X5624913Y5036888D01*
X5621457Y5037575D01*
X5588968D01*
X5587973Y5042575D01*
X5592611Y5044496D01*
X5599906Y5050094D01*
X5605504Y5057389D01*
X5609022Y5065884D01*
X5610223Y5075000D01*
X5609022Y5084116D01*
X5605504Y5092611D01*
X5599906Y5099906D01*
X5592611Y5105504D01*
X5584116Y5109022D01*
X5575000Y5110223D01*
X5565884Y5109022D01*
X5557389Y5105504D01*
X5550094Y5099906D01*
X5544496Y5092611D01*
X5540978Y5084116D01*
X5539777Y5075000D01*
X5540978Y5065884D01*
X5544496Y5057389D01*
X5550094Y5050094D01*
X5557389Y5044496D01*
X5562027Y5042575D01*
X5561032Y5037575D01*
X5488968D01*
X5487973Y5042575D01*
X5492611Y5044496D01*
X5499906Y5050094D01*
X5505504Y5057389D01*
X5509022Y5065884D01*
X5510223Y5075000D01*
X5509022Y5084116D01*
X5505504Y5092611D01*
X5499906Y5099906D01*
X5492611Y5105504D01*
X5484116Y5109022D01*
X5475000Y5110223D01*
X5465884Y5109022D01*
X5457389Y5105504D01*
X5450094Y5099906D01*
X5444496Y5092611D01*
X5440978Y5084116D01*
X5439777Y5075000D01*
X5440978Y5065884D01*
X5444496Y5057389D01*
X5450094Y5050094D01*
X5457389Y5044496D01*
X5462027Y5042575D01*
X5461032Y5037575D01*
X5388968D01*
X5387973Y5042575D01*
X5392611Y5044496D01*
X5399906Y5050094D01*
X5405504Y5057389D01*
X5409022Y5065884D01*
X5410223Y5075000D01*
X5409022Y5084116D01*
X5405504Y5092611D01*
X5399906Y5099906D01*
X5392611Y5105504D01*
X5384116Y5109022D01*
X5375000Y5110223D01*
X5365884Y5109022D01*
X5357389Y5105504D01*
X5350094Y5099906D01*
X5344496Y5092611D01*
X5340978Y5084116D01*
X5339777Y5075000D01*
X5340978Y5065884D01*
X5344496Y5057389D01*
X5350094Y5050094D01*
X5357389Y5044496D01*
X5362027Y5042575D01*
X5361032Y5037575D01*
X5288968D01*
X5287973Y5042575D01*
X5292611Y5044496D01*
X5299906Y5050094D01*
X5305504Y5057389D01*
X5309022Y5065884D01*
X5310223Y5075000D01*
X5309022Y5084116D01*
X5305504Y5092611D01*
X5299906Y5099906D01*
X5292611Y5105504D01*
X5284116Y5109022D01*
X5275000Y5110223D01*
X5265884Y5109022D01*
X5257389Y5105504D01*
X5250094Y5099906D01*
X5244496Y5092611D01*
X5240978Y5084116D01*
X5239777Y5075000D01*
X5240978Y5065884D01*
X5244496Y5057389D01*
X5250094Y5050094D01*
X5257389Y5044496D01*
X5262027Y5042575D01*
X5261032Y5037575D01*
X5188968D01*
X5187973Y5042575D01*
X5192611Y5044496D01*
X5199906Y5050094D01*
X5205504Y5057389D01*
X5209022Y5065884D01*
X5210223Y5075000D01*
X5209022Y5084116D01*
X5205504Y5092611D01*
X5199906Y5099906D01*
X5192611Y5105504D01*
X5184116Y5109022D01*
X5175000Y5110223D01*
X5165884Y5109022D01*
X5157389Y5105504D01*
X5150094Y5099906D01*
X5144496Y5092611D01*
X5140978Y5084116D01*
X5139777Y5075000D01*
X5140978Y5065884D01*
X5144496Y5057389D01*
X5150094Y5050094D01*
X5157389Y5044496D01*
X5162027Y5042575D01*
X5161032Y5037575D01*
X5088968D01*
X5087973Y5042575D01*
X5092611Y5044496D01*
X5099906Y5050094D01*
X5105504Y5057389D01*
X5109022Y5065884D01*
X5110223Y5075000D01*
X5109022Y5084116D01*
X5105504Y5092611D01*
X5099906Y5099906D01*
X5092611Y5105504D01*
X5084116Y5109022D01*
X5075000Y5110223D01*
X5065884Y5109022D01*
X5057389Y5105504D01*
X5050094Y5099906D01*
X5044496Y5092611D01*
X5040978Y5084116D01*
X5039777Y5075000D01*
X5040978Y5065884D01*
X5044496Y5057389D01*
X5050094Y5050094D01*
X5057389Y5044496D01*
X5062027Y5042575D01*
X5061032Y5037575D01*
X4988968D01*
X4987973Y5042575D01*
X4992611Y5044496D01*
X4999906Y5050094D01*
X5005504Y5057389D01*
X5009022Y5065884D01*
X5010223Y5075000D01*
X5009022Y5084116D01*
X5005504Y5092611D01*
X4999906Y5099906D01*
X4992611Y5105504D01*
X4984116Y5109022D01*
X4975000Y5110223D01*
X4965884Y5109022D01*
X4957389Y5105504D01*
X4950094Y5099906D01*
X4944496Y5092611D01*
X4940978Y5084116D01*
X4939777Y5075000D01*
X4940978Y5065884D01*
X4944496Y5057389D01*
X4950094Y5050094D01*
X4957389Y5044496D01*
X4962027Y5042575D01*
X4961032Y5037575D01*
X4944134D01*
X4940677Y5036888D01*
X4940472Y5036750D01*
X4936142Y5037611D01*
X4929613Y5036313D01*
X4924078Y5032615D01*
X4920380Y5027080D01*
X4919082Y5020551D01*
X4920380Y5014023D01*
X4924078Y5008488D01*
X4929613Y5004790D01*
X4936142Y5003491D01*
X4942670Y5004790D01*
X4948205Y5008488D01*
X4951903Y5014023D01*
X4952995Y5019511D01*
X5112270D01*
X5114627Y5015102D01*
X5114160Y5014403D01*
X5112861Y5007874D01*
X5114160Y5001345D01*
X5117858Y4995811D01*
X5123393Y4992113D01*
X5129921Y4990814D01*
X5136450Y4992113D01*
X5139807Y4994355D01*
X5143846Y4991041D01*
X5140978Y4984116D01*
X5139777Y4975000D01*
X5140978Y4965884D01*
X5144496Y4957389D01*
X5144548Y4957321D01*
X5120462Y4933234D01*
X5049137D01*
X5046780Y4937644D01*
X5047248Y4938343D01*
X5048546Y4944872D01*
X5048521Y4944998D01*
X5053058Y4947820D01*
X5057389Y4944496D01*
X5065884Y4940978D01*
X5075000Y4939777D01*
X5084116Y4940978D01*
X5092611Y4944496D01*
X5099906Y4950094D01*
X5105504Y4957389D01*
X5109022Y4965884D01*
X5110223Y4975000D01*
X5109022Y4984116D01*
X5105504Y4992611D01*
X5099906Y4999906D01*
X5092611Y5005504D01*
X5084116Y5009022D01*
X5075000Y5010223D01*
X5065884Y5009022D01*
X5057389Y5005504D01*
X5050094Y4999906D01*
X5044496Y4992611D01*
X5040978Y4984116D01*
X5039777Y4975000D01*
X5040978Y4965884D01*
X5041674Y4964202D01*
X5038910Y4961507D01*
X5037716Y4960693D01*
X5031486Y4961932D01*
X5024957Y4960633D01*
X5019423Y4956935D01*
X5015725Y4951401D01*
X5014656Y4946030D01*
X5002823D01*
X5001057Y4948490D01*
X5000541Y4950921D01*
X5005504Y4957389D01*
X5009022Y4965884D01*
X5010223Y4975000D01*
X5009022Y4984116D01*
X5005504Y4992611D01*
X4999906Y4999906D01*
X4992611Y5005504D01*
X4984116Y5009022D01*
X4975000Y5010223D01*
X4965884Y5009022D01*
X4957389Y5005504D01*
X4950094Y4999906D01*
X4944496Y4992611D01*
X4940978Y4984116D01*
X4939777Y4975000D01*
X4940978Y4965884D01*
X4944496Y4957389D01*
X4950094Y4950094D01*
X4952722Y4948077D01*
X4951025Y4943077D01*
X4934045D01*
X4930589Y4942390D01*
X4927659Y4940432D01*
X4925393Y4938166D01*
X4919601D01*
X4917575Y4941197D01*
X4912040Y4944895D01*
X4905512Y4946194D01*
X4902171Y4945529D01*
X4900038Y4949829D01*
X4899981Y4950192D01*
X4905504Y4957389D01*
X4909022Y4965884D01*
X4910223Y4975000D01*
X4909022Y4984116D01*
X4905504Y4992611D01*
X4899906Y4999906D01*
X4892611Y5005504D01*
X4884116Y5009022D01*
X4875000Y5010223D01*
X4865884Y5009022D01*
X4857389Y5005504D01*
X4850094Y4999906D01*
X4844496Y4992611D01*
X4840978Y4984116D01*
X4839777Y4975000D01*
X4840669Y4968229D01*
X4835933Y4965894D01*
X4831866Y4969960D01*
Y5082362D01*
X4831179Y5085819D01*
X4829221Y5088749D01*
X4797725Y5120245D01*
X4794795Y5122203D01*
X4791339Y5122890D01*
D02*
G37*
G36*
X5975000Y5010223D02*
X5965884Y5009022D01*
X5957389Y5005504D01*
X5950094Y4999906D01*
X5944496Y4992611D01*
X5940978Y4984116D01*
X5939777Y4975000D01*
X5940978Y4965884D01*
X5944496Y4957389D01*
X5950094Y4950094D01*
X5957389Y4944496D01*
X5965884Y4940978D01*
X5975000Y4939777D01*
X5984116Y4940978D01*
X5992611Y4944496D01*
X5999906Y4950094D01*
X6005504Y4957389D01*
X6009022Y4965884D01*
X6010223Y4975000D01*
X6009022Y4984116D01*
X6005504Y4992611D01*
X5999906Y4999906D01*
X5992611Y5005504D01*
X5984116Y5009022D01*
X5975000Y5010223D01*
D02*
G37*
G36*
X4724409Y5032808D02*
X4717881Y5031510D01*
X4712346Y5027811D01*
X4710320Y5024780D01*
X4649606D01*
X4646150Y5024092D01*
X4643220Y5022135D01*
X4619598Y4998512D01*
X4617640Y4995582D01*
X4616953Y4992126D01*
Y4964371D01*
X4611584Y4959003D01*
X4607345Y4961835D01*
X4609022Y4965884D01*
X4610223Y4975000D01*
X4609022Y4984116D01*
X4605504Y4992611D01*
X4599906Y4999906D01*
X4592611Y5005504D01*
X4584116Y5009022D01*
X4575000Y5010223D01*
X4565884Y5009022D01*
X4557389Y5005504D01*
X4550094Y4999906D01*
X4544496Y4992611D01*
X4540978Y4984116D01*
X4539777Y4975000D01*
X4540768Y4967475D01*
X4538812Y4964189D01*
X4536891Y4962685D01*
X4531526Y4961618D01*
X4525991Y4957919D01*
X4522293Y4952385D01*
X4520994Y4945856D01*
X4522293Y4939328D01*
X4523438Y4937614D01*
X4524953Y4933091D01*
X4522163Y4931207D01*
X4519424Y4929376D01*
X4515725Y4923842D01*
X4514427Y4917313D01*
X4515725Y4910784D01*
X4519424Y4905250D01*
X4524958Y4901551D01*
X4531487Y4900253D01*
X4538016Y4901551D01*
X4538265Y4901718D01*
X4558882Y4881101D01*
Y4634646D01*
X4504793Y4580558D01*
X4500173Y4582471D01*
Y4599227D01*
X4511308Y4610361D01*
X4513266Y4613291D01*
X4513953Y4616747D01*
Y4839681D01*
X4516229Y4841957D01*
X4518187Y4844887D01*
X4518874Y4848343D01*
Y4876066D01*
X4518187Y4879522D01*
X4516229Y4882453D01*
X4482846Y4915835D01*
X4479916Y4917793D01*
X4476460Y4918481D01*
X4457471D01*
X4455558Y4923100D01*
X4472557Y4940099D01*
X4475000Y4939777D01*
X4484116Y4940978D01*
X4492611Y4944496D01*
X4499906Y4950094D01*
X4505504Y4957389D01*
X4509022Y4965884D01*
X4510223Y4975000D01*
X4509022Y4984116D01*
X4505504Y4992611D01*
X4499906Y4999906D01*
X4492611Y5005504D01*
X4484116Y5009022D01*
X4475000Y5010223D01*
X4465884Y5009022D01*
X4457389Y5005504D01*
X4450094Y4999906D01*
X4444496Y4992611D01*
X4440978Y4984116D01*
X4439777Y4975000D01*
X4440978Y4965884D01*
X4444496Y4957389D01*
X4450094Y4950094D01*
X4450997Y4949401D01*
X4451324Y4944412D01*
X4446253Y4939341D01*
X4441645Y4941804D01*
X4442257Y4944882D01*
X4440958Y4951410D01*
X4437260Y4956945D01*
X4431725Y4960643D01*
X4425197Y4961942D01*
X4418668Y4960643D01*
X4413134Y4956945D01*
X4409435Y4951410D01*
X4408137Y4944882D01*
X4408312Y4943999D01*
X4405140Y4940134D01*
X4394782D01*
X4393926Y4941854D01*
X4393443Y4945134D01*
X4399906Y4950094D01*
X4405504Y4957389D01*
X4409022Y4965884D01*
X4410223Y4975000D01*
X4409022Y4984116D01*
X4405504Y4992611D01*
X4399906Y4999906D01*
X4392611Y5005504D01*
X4384116Y5009022D01*
X4375000Y5010223D01*
X4365884Y5009022D01*
X4357389Y5005504D01*
X4350094Y4999906D01*
X4344496Y4992611D01*
X4340978Y4984116D01*
X4339777Y4975000D01*
X4340978Y4965884D01*
X4344496Y4957389D01*
X4350094Y4950094D01*
X4356557Y4945134D01*
X4356074Y4941854D01*
X4355218Y4940134D01*
X4294782D01*
X4293926Y4941854D01*
X4293443Y4945134D01*
X4299906Y4950094D01*
X4305504Y4957389D01*
X4309022Y4965884D01*
X4310223Y4975000D01*
X4309022Y4984116D01*
X4305504Y4992611D01*
X4299906Y4999906D01*
X4292611Y5005504D01*
X4284116Y5009022D01*
X4275000Y5010223D01*
X4265884Y5009022D01*
X4257389Y5005504D01*
X4250094Y4999906D01*
X4244496Y4992611D01*
X4240978Y4984116D01*
X4239777Y4975000D01*
X4240978Y4965884D01*
X4244496Y4957389D01*
X4250094Y4950094D01*
X4256557Y4945134D01*
X4256074Y4941854D01*
X4255218Y4940134D01*
X4218504D01*
X4215048Y4939447D01*
X4212118Y4937489D01*
X4158968Y4884339D01*
X4157010Y4881409D01*
X4156323Y4877953D01*
Y4503118D01*
X4151323Y4502626D01*
X4150775Y4505377D01*
X4147730Y4509935D01*
X4143172Y4512980D01*
X4137795Y4514050D01*
X4132419Y4512980D01*
X4127861Y4509935D01*
X4124815Y4505377D01*
X4123746Y4500000D01*
X4124815Y4494623D01*
X4127861Y4490065D01*
X4132419Y4487020D01*
X4137795Y4485950D01*
X4143172Y4487020D01*
X4147730Y4490065D01*
X4150775Y4494623D01*
X4151323Y4497374D01*
X4156323Y4496882D01*
Y4472596D01*
X4153107Y4471193D01*
X4151323Y4470794D01*
X4147109Y4473610D01*
X4141732Y4474679D01*
X4136356Y4473610D01*
X4131798Y4470564D01*
X4128752Y4466006D01*
X4127683Y4460630D01*
X4127895Y4459565D01*
X4106495Y4438166D01*
X4015748D01*
X4012292Y4437478D01*
X4009362Y4435520D01*
X3996919Y4423078D01*
X3992300Y4424991D01*
Y4483464D01*
X4011615Y4502779D01*
X4028832D01*
X4029436Y4501877D01*
X4033994Y4498831D01*
X4039370Y4497761D01*
X4044747Y4498831D01*
X4049305Y4501877D01*
X4052350Y4506435D01*
X4053420Y4511811D01*
X4052350Y4517188D01*
X4049305Y4521745D01*
X4044747Y4524791D01*
X4039370Y4525860D01*
X4033994Y4524791D01*
X4029436Y4521745D01*
X4028832Y4520843D01*
X4007874D01*
X4004418Y4520155D01*
X4001488Y4518197D01*
X3984124Y4500834D01*
X3979504Y4502747D01*
Y4525434D01*
X3978817Y4528890D01*
X3976859Y4531820D01*
X3956033Y4552646D01*
X3953102Y4554604D01*
X3949646Y4555292D01*
X3900773D01*
X3782062Y4674003D01*
X3781588Y4679042D01*
X3784633Y4683600D01*
X3785703Y4688976D01*
X3784633Y4694353D01*
X3781588Y4698911D01*
X3777030Y4701956D01*
X3771653Y4703026D01*
X3766277Y4701956D01*
X3761719Y4698911D01*
X3758673Y4694353D01*
X3758063Y4691283D01*
X3754475Y4690652D01*
X3752872Y4690814D01*
X3750092Y4694974D01*
X3745534Y4698019D01*
X3740157Y4699089D01*
X3734781Y4698019D01*
X3730223Y4694974D01*
X3727177Y4690416D01*
X3726108Y4685039D01*
X3727177Y4679663D01*
X3730223Y4675105D01*
X3734781Y4672059D01*
X3740157Y4670990D01*
X3741222Y4671202D01*
X3885346Y4527078D01*
X3888276Y4525120D01*
X3891732Y4524433D01*
X3920683D01*
X3923691Y4519433D01*
X3922958Y4515748D01*
X3924028Y4510372D01*
X3927073Y4505814D01*
X3927976Y4505210D01*
Y4500155D01*
X3924761Y4498752D01*
X3922976Y4498354D01*
X3918762Y4501169D01*
X3913386Y4502239D01*
X3908009Y4501169D01*
X3903451Y4498123D01*
X3900406Y4493565D01*
X3899336Y4488189D01*
X3900406Y4482812D01*
X3901457Y4481240D01*
X3895367Y4475150D01*
X3890748Y4477064D01*
Y4508858D01*
X3825787D01*
Y4443898D01*
X3886630D01*
Y4434949D01*
X3886637Y4434909D01*
Y4400538D01*
X3881903Y4398931D01*
X3881433Y4399543D01*
X3874648Y4404749D01*
X3866747Y4408022D01*
X3858268Y4409139D01*
X3849789Y4408022D01*
X3841887Y4404749D01*
X3835102Y4399543D01*
X3829896Y4392758D01*
X3826623Y4384857D01*
X3825507Y4376378D01*
X3826623Y4367899D01*
X3829896Y4359998D01*
X3835102Y4353213D01*
X3841887Y4348007D01*
X3849789Y4344734D01*
X3858268Y4343617D01*
X3866747Y4344734D01*
X3874648Y4348007D01*
X3881433Y4353213D01*
X3881903Y4353825D01*
X3886637Y4352218D01*
Y4300538D01*
X3881903Y4298931D01*
X3881433Y4299543D01*
X3874648Y4304749D01*
X3866747Y4308022D01*
X3858268Y4309139D01*
X3849789Y4308022D01*
X3841887Y4304749D01*
X3835102Y4299543D01*
X3829896Y4292758D01*
X3826623Y4284857D01*
X3825507Y4276378D01*
X3826623Y4267899D01*
X3829896Y4259998D01*
X3835102Y4253213D01*
X3841887Y4248007D01*
X3849789Y4244734D01*
X3858268Y4243617D01*
X3866747Y4244734D01*
X3874648Y4248007D01*
X3881433Y4253213D01*
X3881903Y4253825D01*
X3886637Y4252218D01*
Y4200538D01*
X3881903Y4198931D01*
X3881433Y4199543D01*
X3874648Y4204749D01*
X3866747Y4208022D01*
X3858268Y4209139D01*
X3849789Y4208022D01*
X3841887Y4204749D01*
X3835102Y4199543D01*
X3829896Y4192758D01*
X3826623Y4184857D01*
X3825507Y4176378D01*
X3826623Y4167899D01*
X3829896Y4159998D01*
X3835102Y4153213D01*
X3841887Y4148007D01*
X3849789Y4144734D01*
X3858268Y4143617D01*
X3866747Y4144734D01*
X3869685Y4145951D01*
X3873842Y4143173D01*
Y4110495D01*
X3868842Y4107154D01*
X3866747Y4108022D01*
X3858268Y4109139D01*
X3849789Y4108022D01*
X3841887Y4104749D01*
X3835102Y4099543D01*
X3829896Y4092758D01*
X3826623Y4084857D01*
X3825507Y4076378D01*
X3826623Y4067899D01*
X3829896Y4059998D01*
X3835102Y4053213D01*
X3841887Y4048006D01*
X3849789Y4044734D01*
X3858268Y4043617D01*
X3866747Y4044734D01*
X3874648Y4048006D01*
X3881433Y4053213D01*
X3881903Y4053825D01*
X3886637Y4052218D01*
Y4000538D01*
X3881903Y3998931D01*
X3881433Y3999543D01*
X3874648Y4004749D01*
X3866747Y4008022D01*
X3858268Y4009139D01*
X3849789Y4008022D01*
X3841887Y4004749D01*
X3835102Y3999543D01*
X3829896Y3992758D01*
X3826623Y3984857D01*
X3825507Y3976378D01*
X3826623Y3967899D01*
X3829896Y3959998D01*
X3835102Y3953213D01*
X3841887Y3948006D01*
X3849789Y3944734D01*
X3858268Y3943617D01*
X3866747Y3944734D01*
X3874648Y3948006D01*
X3881433Y3953213D01*
X3881903Y3953825D01*
X3886637Y3952218D01*
Y3908254D01*
X3881637Y3905788D01*
X3877209Y3909186D01*
X3868073Y3912970D01*
X3861220Y3913872D01*
Y3876378D01*
Y3838884D01*
X3868073Y3839786D01*
X3877209Y3843570D01*
X3881637Y3846968D01*
X3886637Y3844502D01*
Y3808233D01*
X3881637Y3806716D01*
X3880013Y3809147D01*
X3875455Y3812193D01*
X3870079Y3813262D01*
X3864702Y3812193D01*
X3860144Y3809147D01*
X3857099Y3804589D01*
X3856029Y3799213D01*
X3857099Y3793836D01*
X3859071Y3790885D01*
Y3754315D01*
X3854071Y3751643D01*
X3851833Y3753137D01*
X3846457Y3754207D01*
X3841080Y3753137D01*
X3836522Y3750092D01*
X3833477Y3745534D01*
X3832407Y3740157D01*
X3833477Y3734781D01*
X3836522Y3730223D01*
X3841080Y3727177D01*
X3846457Y3726108D01*
X3851833Y3727177D01*
X3854071Y3728672D01*
X3859071Y3726386D01*
X3859758Y3722930D01*
X3861716Y3719999D01*
X3873928Y3707787D01*
X3872839Y3706157D01*
X3871769Y3700780D01*
X3872839Y3695403D01*
X3875885Y3690845D01*
X3880443Y3687800D01*
X3885819Y3686731D01*
X3885923Y3686751D01*
X3887294Y3686089D01*
X3890574Y3682578D01*
Y3674845D01*
X3888324Y3674397D01*
X3883766Y3671352D01*
X3880721Y3666794D01*
X3879651Y3661417D01*
X3880721Y3656041D01*
X3883766Y3651483D01*
X3888324Y3648437D01*
X3893701Y3647368D01*
X3899077Y3648437D01*
X3903635Y3651483D01*
X3906681Y3656041D01*
X3907750Y3661417D01*
X3911566Y3663934D01*
X3913068Y3663962D01*
X3917323Y3663116D01*
X3920102Y3660835D01*
Y3531496D01*
X3920790Y3528040D01*
X3922747Y3525110D01*
X3942553Y3505304D01*
X3940090Y3500696D01*
X3939961Y3500722D01*
X3933432Y3499423D01*
X3929084Y3496517D01*
X3923851Y3500014D01*
X3917323Y3501312D01*
X3910794Y3500014D01*
X3905512Y3496484D01*
X3900229Y3500014D01*
X3893701Y3501312D01*
X3887172Y3500014D01*
X3881637Y3496315D01*
X3877939Y3490781D01*
X3876641Y3484252D01*
X3877939Y3477723D01*
X3881637Y3472189D01*
X3887172Y3468490D01*
X3893701Y3467192D01*
X3900229Y3468490D01*
X3905512Y3472020D01*
X3910794Y3468490D01*
X3917323Y3467192D01*
X3923851Y3468490D01*
X3928200Y3471396D01*
X3933432Y3467900D01*
X3939961Y3466601D01*
X3946489Y3467900D01*
X3950535Y3470603D01*
X3955535Y3468538D01*
Y3255905D01*
X3956223Y3252449D01*
X3958180Y3249519D01*
X4004072Y3203627D01*
X4003905Y3202909D01*
X4002994Y3202225D01*
X3998349Y3201101D01*
X3992611Y3205504D01*
X3984116Y3209022D01*
X3975000Y3210223D01*
X3965884Y3209022D01*
X3957389Y3205504D01*
X3950094Y3199906D01*
X3944496Y3192611D01*
X3940978Y3184116D01*
X3939777Y3175000D01*
X3940978Y3165884D01*
X3944496Y3157389D01*
X3950094Y3150094D01*
X3957389Y3144496D01*
X3965884Y3140978D01*
X3975000Y3139777D01*
X3984116Y3140978D01*
X3992611Y3144496D01*
X3999906Y3150094D01*
X4001716Y3152453D01*
X4006716Y3150756D01*
Y3142869D01*
X4001716Y3138766D01*
X4000000Y3139107D01*
X3993471Y3137809D01*
X3987937Y3134110D01*
X3984238Y3128576D01*
X3982940Y3122047D01*
X3984238Y3115519D01*
X3985492Y3113642D01*
X3985369Y3113228D01*
X3982416Y3109246D01*
X3975000Y3110223D01*
X3965884Y3109022D01*
X3957389Y3105504D01*
X3950094Y3099906D01*
X3944496Y3092611D01*
X3940978Y3084116D01*
X3939777Y3075000D01*
X3940978Y3065884D01*
X3944496Y3057389D01*
X3950094Y3050094D01*
X3957389Y3044496D01*
X3965884Y3040978D01*
X3975000Y3039777D01*
X3984116Y3040978D01*
X3992611Y3044496D01*
X3999906Y3050094D01*
X4005504Y3057389D01*
X4009022Y3065884D01*
X4010223Y3075000D01*
X4009022Y3084116D01*
X4005504Y3092611D01*
X3999906Y3099906D01*
X3999541Y3100186D01*
X3999669Y3101524D01*
X4001190Y3105224D01*
X4006529Y3106286D01*
X4012063Y3109984D01*
X4015762Y3115519D01*
X4017060Y3122047D01*
X4017002Y3122339D01*
X4022135Y3127472D01*
X4023303Y3129221D01*
X4028380Y3129849D01*
X4031134Y3126823D01*
X4030184Y3122047D01*
X4031483Y3115519D01*
X4035181Y3109984D01*
X4040715Y3106286D01*
X4047244Y3104987D01*
X4048942Y3105325D01*
X4051061Y3100648D01*
X4050094Y3099906D01*
X4044496Y3092611D01*
X4040978Y3084116D01*
X4039777Y3075000D01*
X4040978Y3065884D01*
X4044496Y3057389D01*
X4050094Y3050094D01*
X4057389Y3044496D01*
X4065884Y3040978D01*
X4075000Y3039777D01*
X4084116Y3040978D01*
X4092611Y3044496D01*
X4099906Y3050094D01*
X4105504Y3057389D01*
X4109022Y3065884D01*
X4110223Y3075000D01*
X4109022Y3084116D01*
X4105504Y3092611D01*
X4099906Y3099906D01*
X4092611Y3105504D01*
X4084116Y3109022D01*
X4075000Y3110223D01*
X4065884Y3109022D01*
X4064217Y3108332D01*
X4060903Y3112371D01*
X4063006Y3115519D01*
X4064304Y3122047D01*
X4063006Y3128576D01*
X4059307Y3134110D01*
X4053773Y3137809D01*
X4047244Y3139107D01*
X4046952Y3139049D01*
X4037575Y3148426D01*
Y3161032D01*
X4042575Y3162027D01*
X4044496Y3157389D01*
X4050094Y3150094D01*
X4057389Y3144496D01*
X4065884Y3140978D01*
X4075000Y3139777D01*
X4084116Y3140978D01*
X4092611Y3144496D01*
X4099827Y3150033D01*
X4101713Y3149785D01*
X4104827Y3148729D01*
Y3141968D01*
X4103708Y3141746D01*
X4098173Y3138048D01*
X4094475Y3132513D01*
X4093176Y3125984D01*
X4094475Y3119456D01*
X4098173Y3113921D01*
X4103708Y3110223D01*
X4110236Y3108924D01*
X4116765Y3110223D01*
X4122300Y3113921D01*
X4125998Y3119456D01*
X4126281Y3120881D01*
X4126463Y3120954D01*
X4131484Y3121409D01*
X4134363Y3117101D01*
X4139898Y3113403D01*
X4146427Y3112104D01*
X4152955Y3113403D01*
X4158490Y3117101D01*
X4162188Y3122635D01*
X4163487Y3129164D01*
X4162188Y3135693D01*
X4160891Y3137634D01*
X4164206Y3141673D01*
X4165884Y3140978D01*
X4175000Y3139777D01*
X4184116Y3140978D01*
X4192611Y3144496D01*
X4199906Y3150094D01*
X4205504Y3157389D01*
X4209022Y3165884D01*
X4210223Y3175000D01*
X4209022Y3184116D01*
X4205504Y3192611D01*
X4199906Y3199906D01*
X4192611Y3205504D01*
X4184116Y3209022D01*
X4175000Y3210223D01*
X4165884Y3209022D01*
X4157389Y3205504D01*
X4150094Y3199906D01*
X4144496Y3192611D01*
X4140978Y3184116D01*
X4136000Y3184617D01*
Y3196081D01*
X4135313Y3199537D01*
X4133355Y3202467D01*
X4102782Y3233040D01*
X4099852Y3234998D01*
X4096395Y3235685D01*
X4053435D01*
X4040528Y3248593D01*
Y3263139D01*
X4045528Y3265812D01*
X4048590Y3263766D01*
X4055118Y3262468D01*
X4061647Y3263766D01*
X4067181Y3267464D01*
X4070880Y3272999D01*
X4072178Y3279528D01*
X4070880Y3286056D01*
X4067181Y3291591D01*
X4061647Y3295289D01*
X4059298Y3295756D01*
X4056606Y3300618D01*
X4056710Y3301369D01*
X4057260Y3304134D01*
Y3332883D01*
X4061880Y3334796D01*
X4092039Y3304637D01*
X4094969Y3302679D01*
X4098425Y3301992D01*
X4331131D01*
X4332647Y3296992D01*
X4330456Y3295528D01*
X4326758Y3289993D01*
X4325460Y3283465D01*
X4326171Y3279889D01*
X4324322Y3278040D01*
X4322364Y3275110D01*
X4321677Y3271654D01*
Y3134450D01*
X4292679Y3105452D01*
X4292611Y3105504D01*
X4284116Y3109022D01*
X4275000Y3110223D01*
X4265884Y3109022D01*
X4257389Y3105504D01*
X4250094Y3099906D01*
X4244496Y3092611D01*
X4240978Y3084116D01*
X4239777Y3075000D01*
X4240978Y3065884D01*
X4244496Y3057389D01*
X4250094Y3050094D01*
X4257389Y3044496D01*
X4265884Y3040978D01*
X4275000Y3039777D01*
X4284116Y3040978D01*
X4292611Y3044496D01*
X4299906Y3050094D01*
X4305504Y3057389D01*
X4309022Y3065884D01*
X4310223Y3075000D01*
X4309022Y3084116D01*
X4305504Y3092611D01*
X4305452Y3092679D01*
X4337095Y3124322D01*
X4339053Y3127252D01*
X4339740Y3130709D01*
Y3154435D01*
X4344207Y3157094D01*
X4344740Y3157070D01*
X4350094Y3150094D01*
X4357389Y3144496D01*
X4365884Y3140978D01*
X4375000Y3139777D01*
X4384116Y3140978D01*
X4392611Y3144496D01*
X4399906Y3150094D01*
X4405504Y3157389D01*
X4409022Y3165884D01*
X4410223Y3175000D01*
X4409022Y3184116D01*
X4405504Y3192611D01*
X4399906Y3199906D01*
X4392611Y3205504D01*
X4384116Y3209022D01*
X4384032Y3209034D01*
Y3276175D01*
X4388651Y3278088D01*
X4456651Y3210088D01*
X4455565Y3204104D01*
X4450094Y3199906D01*
X4444496Y3192611D01*
X4440978Y3184116D01*
X4439777Y3175000D01*
X4440978Y3165884D01*
X4444496Y3157389D01*
X4450094Y3150094D01*
X4457389Y3144496D01*
X4465884Y3140978D01*
X4475000Y3139777D01*
X4484116Y3140978D01*
X4492611Y3144496D01*
X4499906Y3150094D01*
X4501716Y3152453D01*
X4506716Y3150756D01*
Y3145968D01*
X4505282Y3145683D01*
X4499748Y3141985D01*
X4496050Y3136450D01*
X4494751Y3129921D01*
X4496050Y3123393D01*
X4499748Y3117858D01*
X4505282Y3114160D01*
X4511811Y3112861D01*
X4518340Y3114160D01*
X4521504Y3116274D01*
X4527008Y3114233D01*
X4527537Y3111575D01*
X4531235Y3106041D01*
X4536769Y3102343D01*
X4543298Y3101044D01*
X4544911Y3101365D01*
X4547732Y3096828D01*
X4544496Y3092611D01*
X4540978Y3084116D01*
X4539777Y3075000D01*
X4540978Y3065884D01*
X4544496Y3057389D01*
X4550094Y3050094D01*
X4557389Y3044496D01*
X4565884Y3040978D01*
X4575000Y3039777D01*
X4584116Y3040978D01*
X4592611Y3044496D01*
X4599906Y3050094D01*
X4605504Y3057389D01*
X4609022Y3065884D01*
X4610223Y3075000D01*
X4609022Y3084116D01*
X4605504Y3092611D01*
X4599906Y3099906D01*
X4592611Y3105504D01*
X4584116Y3109022D01*
X4575000Y3110223D01*
X4565884Y3109022D01*
X4562404Y3107581D01*
X4559060Y3111575D01*
X4560358Y3118104D01*
X4559060Y3124633D01*
X4556104Y3129056D01*
X4556276Y3129921D01*
X4555588Y3133378D01*
X4553631Y3136308D01*
X4545413Y3144525D01*
X4545815Y3147457D01*
X4547542Y3148521D01*
X4551012Y3149389D01*
X4557389Y3144496D01*
X4565884Y3140978D01*
X4575000Y3139777D01*
X4584116Y3140978D01*
X4592611Y3144496D01*
X4599906Y3150094D01*
X4605504Y3157389D01*
X4609022Y3165884D01*
X4609315Y3168103D01*
X4614315Y3167775D01*
Y3153604D01*
X4615002Y3150148D01*
X4616953Y3147229D01*
Y3124325D01*
X4613921Y3122300D01*
X4610223Y3116765D01*
X4608924Y3110236D01*
X4610223Y3103708D01*
X4613921Y3098173D01*
X4619456Y3094475D01*
X4625984Y3093176D01*
X4632513Y3094475D01*
X4638048Y3098173D01*
X4641746Y3103708D01*
X4643044Y3110236D01*
X4641746Y3116765D01*
X4638048Y3122300D01*
X4635016Y3124325D01*
Y3140724D01*
X4639636Y3142638D01*
X4667937Y3114336D01*
X4666145Y3109057D01*
X4665884Y3109022D01*
X4657389Y3105504D01*
X4650094Y3099906D01*
X4644496Y3092611D01*
X4640978Y3084116D01*
X4639777Y3075000D01*
X4640978Y3065884D01*
X4644496Y3057389D01*
X4650094Y3050094D01*
X4657389Y3044496D01*
X4665884Y3040978D01*
X4675000Y3039777D01*
X4684116Y3040978D01*
X4692611Y3044496D01*
X4699906Y3050094D01*
X4705504Y3057389D01*
X4709022Y3065884D01*
X4710223Y3075000D01*
X4709022Y3084116D01*
X4705504Y3092611D01*
X4699906Y3099906D01*
X4694469Y3104078D01*
X4696166Y3109078D01*
X4753834D01*
X4755531Y3104078D01*
X4750094Y3099906D01*
X4744496Y3092611D01*
X4740978Y3084116D01*
X4739777Y3075000D01*
X4740978Y3065884D01*
X4744496Y3057389D01*
X4750094Y3050094D01*
X4757389Y3044496D01*
X4765884Y3040978D01*
X4775000Y3039777D01*
X4784116Y3040978D01*
X4792611Y3044496D01*
X4799906Y3050094D01*
X4805504Y3057389D01*
X4809022Y3065884D01*
X4810223Y3075000D01*
X4809022Y3084116D01*
X4805504Y3092611D01*
X4799906Y3099906D01*
X4794469Y3104078D01*
X4796166Y3109078D01*
X4853834D01*
X4855531Y3104078D01*
X4850094Y3099906D01*
X4844496Y3092611D01*
X4840978Y3084116D01*
X4839777Y3075000D01*
X4840978Y3065884D01*
X4844496Y3057389D01*
X4850094Y3050094D01*
X4857389Y3044496D01*
X4865884Y3040978D01*
X4875000Y3039777D01*
X4884116Y3040978D01*
X4892611Y3044496D01*
X4899906Y3050094D01*
X4905504Y3057389D01*
X4909022Y3065884D01*
X4910209Y3074900D01*
X4911719Y3076060D01*
X4914667Y3077514D01*
X4923567Y3068614D01*
X4926498Y3066656D01*
X4929954Y3065968D01*
X4940967D01*
X4940978Y3065884D01*
X4944496Y3057389D01*
X4950094Y3050094D01*
X4957389Y3044496D01*
X4965884Y3040978D01*
X4975000Y3039777D01*
X4984116Y3040978D01*
X4992611Y3044496D01*
X4999906Y3050094D01*
X5005504Y3057389D01*
X5009022Y3065884D01*
X5010223Y3075000D01*
X5009022Y3084116D01*
X5005504Y3092611D01*
X4999906Y3099906D01*
X4999254Y3100407D01*
X5000861Y3105141D01*
X5049139D01*
X5050746Y3100407D01*
X5050094Y3099906D01*
X5044496Y3092611D01*
X5040978Y3084116D01*
X5039777Y3075000D01*
X5040978Y3065884D01*
X5044496Y3057389D01*
X5050094Y3050094D01*
X5057389Y3044496D01*
X5065884Y3040978D01*
X5075000Y3039777D01*
X5084116Y3040978D01*
X5092611Y3044496D01*
X5099906Y3050094D01*
X5105504Y3057389D01*
X5109022Y3065884D01*
X5110223Y3075000D01*
X5109022Y3084116D01*
X5105504Y3092611D01*
X5099906Y3099906D01*
X5099254Y3100407D01*
X5100861Y3105141D01*
X5132086D01*
X5144548Y3092679D01*
X5144496Y3092611D01*
X5140978Y3084116D01*
X5139777Y3075000D01*
X5140978Y3065884D01*
X5144496Y3057389D01*
X5150094Y3050094D01*
X5157389Y3044496D01*
X5165884Y3040978D01*
X5175000Y3039777D01*
X5184116Y3040978D01*
X5192611Y3044496D01*
X5199906Y3050094D01*
X5205504Y3057389D01*
X5209022Y3065884D01*
X5210223Y3075000D01*
X5209022Y3084116D01*
X5205504Y3092611D01*
X5199906Y3099906D01*
X5192611Y3105504D01*
X5184116Y3109022D01*
X5175000Y3110223D01*
X5165884Y3109022D01*
X5157389Y3105504D01*
X5157321Y3105452D01*
X5142213Y3120560D01*
X5139283Y3122517D01*
X5135827Y3123205D01*
X4968308D01*
X4934229Y3157284D01*
Y3200787D01*
X4933541Y3204244D01*
X4931583Y3207174D01*
X4874609Y3264148D01*
X4871679Y3266106D01*
X4868222Y3266794D01*
X4541409D01*
X4332328Y3475875D01*
X4329398Y3477833D01*
X4325942Y3478520D01*
X4215280D01*
X4160607Y3533193D01*
Y3559787D01*
X4171733Y3570912D01*
X4173690Y3573842D01*
X4174378Y3577299D01*
Y3591817D01*
X4175280Y3592421D01*
X4178326Y3596979D01*
X4179395Y3602355D01*
X4178326Y3607731D01*
X4175280Y3612289D01*
X4170722Y3615335D01*
X4165346Y3616405D01*
X4159970Y3615335D01*
X4155412Y3612289D01*
X4152366Y3607731D01*
X4151297Y3602355D01*
X4152245Y3597585D01*
X4150553Y3595504D01*
X4148470Y3593809D01*
X4143701Y3594758D01*
X4143212Y3594661D01*
X4142620Y3594985D01*
X4139364Y3598993D01*
X4140034Y3602362D01*
X4138964Y3607739D01*
X4135919Y3612297D01*
X4131361Y3615342D01*
X4125984Y3616412D01*
X4120608Y3615342D01*
X4116050Y3612297D01*
X4113004Y3607739D01*
X4111935Y3602362D01*
X4113004Y3596986D01*
X4116050Y3592428D01*
X4116953Y3591824D01*
Y3586334D01*
X4111953Y3583661D01*
X4111676Y3583846D01*
X4106299Y3584916D01*
X4100923Y3583846D01*
X4096727Y3586614D01*
X4095657Y3591991D01*
X4092612Y3596549D01*
X4090347Y3598062D01*
X4089275Y3604061D01*
X4148803Y3663589D01*
X4155010Y3662915D01*
X4155110Y3662825D01*
X4203567Y3614369D01*
Y3581404D01*
X4202664Y3580801D01*
X4199618Y3576243D01*
X4198549Y3570866D01*
X4199618Y3565490D01*
X4202664Y3560932D01*
X4207222Y3557886D01*
X4212598Y3556817D01*
X4217975Y3557886D01*
X4222533Y3560932D01*
X4225578Y3565490D01*
X4226648Y3570866D01*
X4225578Y3576243D01*
X4222533Y3580801D01*
X4221630Y3581404D01*
Y3618110D01*
X4220943Y3621567D01*
X4218985Y3624497D01*
X4170441Y3673041D01*
Y3786631D01*
X4175060Y3788545D01*
X4190053Y3773552D01*
X4188407Y3768126D01*
X4186376Y3767722D01*
X4180842Y3764024D01*
X4177144Y3758490D01*
X4175845Y3751961D01*
X4177144Y3745432D01*
X4180842Y3739898D01*
X4186376Y3736200D01*
X4192905Y3734901D01*
X4199434Y3736200D01*
X4204968Y3739898D01*
X4208667Y3745432D01*
X4209623Y3750242D01*
X4210538Y3751627D01*
X4215819Y3752947D01*
X4219033Y3750800D01*
X4220321Y3750543D01*
X4221967Y3745118D01*
X4218023Y3741174D01*
X4216065Y3738244D01*
X4215377Y3734787D01*
Y3723136D01*
X4214475Y3722533D01*
X4211429Y3717975D01*
X4210360Y3712599D01*
X4211429Y3707222D01*
X4214475Y3702664D01*
X4219033Y3699619D01*
X4224409Y3698549D01*
X4229786Y3699619D01*
X4234344Y3702664D01*
X4237389Y3707222D01*
X4238459Y3712599D01*
X4237389Y3717975D01*
X4234344Y3722533D01*
X4233441Y3723136D01*
Y3731046D01*
X4242254Y3739860D01*
X4246874Y3737946D01*
Y3549906D01*
X4245962Y3549298D01*
X4242917Y3544740D01*
X4241847Y3539363D01*
X4242917Y3533986D01*
X4245962Y3529428D01*
X4250520Y3526383D01*
X4255897Y3525314D01*
X4261274Y3526383D01*
X4265832Y3529428D01*
X4268877Y3533986D01*
X4269947Y3539363D01*
X4268877Y3544740D01*
X4265832Y3549298D01*
X4264937Y3549895D01*
Y3775590D01*
X4264250Y3779047D01*
X4262292Y3781977D01*
X4213756Y3830513D01*
Y3931002D01*
X4276756Y3994001D01*
X4278143Y3993698D01*
X4279275Y3988441D01*
X4275577Y3982907D01*
X4274279Y3976378D01*
X4275577Y3969849D01*
X4279275Y3964315D01*
X4284810Y3960617D01*
X4291339Y3959318D01*
X4297867Y3960617D01*
X4303402Y3964315D01*
X4307100Y3969849D01*
X4308399Y3976378D01*
X4307100Y3982907D01*
X4303402Y3988441D01*
X4299750Y3990881D01*
X4301267Y3995881D01*
X4472601D01*
X4476057Y3996569D01*
X4478987Y3998527D01*
X4558552Y4078091D01*
X4560510Y4081021D01*
X4561197Y4084478D01*
Y4126672D01*
X4560510Y4130128D01*
X4558552Y4133058D01*
X4551355Y4140255D01*
Y4449020D01*
X4555599Y4453265D01*
X4557557Y4456195D01*
X4558245Y4459651D01*
Y4524601D01*
X4557557Y4528057D01*
X4555599Y4530987D01*
X4551355Y4535232D01*
Y4546077D01*
X4612686Y4607408D01*
X4614644Y4610338D01*
X4615331Y4613794D01*
Y4901280D01*
X4615471Y4901585D01*
X4616314Y4902109D01*
X4621893Y4899689D01*
X4622034Y4898983D01*
X4625732Y4893449D01*
X4631267Y4889750D01*
X4637795Y4888452D01*
X4644324Y4889750D01*
X4644562Y4889909D01*
X4676008Y4858464D01*
Y4720390D01*
X4676695Y4716934D01*
X4678653Y4714004D01*
X4691715Y4700942D01*
Y4594333D01*
X4688495Y4591114D01*
X4686538Y4588184D01*
X4685850Y4584727D01*
Y4557005D01*
X4686538Y4553548D01*
X4688495Y4550618D01*
X4708099Y4531015D01*
X4711029Y4529057D01*
X4714485Y4528370D01*
X4736101D01*
X4767914Y4496557D01*
X4770844Y4494599D01*
X4774300Y4493912D01*
X4967511D01*
X4970967Y4494599D01*
X4973897Y4496557D01*
X4998820Y4521480D01*
X5257004D01*
X5267154Y4511330D01*
X5270084Y4509372D01*
X5273540Y4508685D01*
X5301263D01*
X5304719Y4509372D01*
X5306636Y4510653D01*
X5320557D01*
X5322582Y4507622D01*
X5328117Y4503923D01*
X5334646Y4502625D01*
X5341174Y4503923D01*
X5346709Y4507622D01*
X5350407Y4513156D01*
X5351706Y4519685D01*
X5350581Y4525338D01*
X5353207Y4530338D01*
X5371738D01*
X5373764Y4527307D01*
X5379298Y4523609D01*
X5385827Y4522310D01*
X5392355Y4523609D01*
X5397890Y4527307D01*
X5401588Y4532842D01*
X5402538Y4537614D01*
X5406571Y4540070D01*
X5407782Y4540300D01*
X5408291Y4539995D01*
Y4421064D01*
X5312511Y4325284D01*
X5310553Y4322354D01*
X5309866Y4318898D01*
Y4196886D01*
X5304866Y4195370D01*
X5303585Y4197286D01*
X5300554Y4199312D01*
Y4331088D01*
X5357976Y4388510D01*
X5358268Y4388452D01*
X5364796Y4389750D01*
X5370331Y4393449D01*
X5374029Y4398983D01*
X5375328Y4405512D01*
X5374029Y4412040D01*
X5370331Y4417575D01*
X5364796Y4421273D01*
X5358268Y4422572D01*
X5351739Y4421273D01*
X5346204Y4417575D01*
X5342506Y4412040D01*
X5341208Y4405512D01*
X5342506Y4398983D01*
X5342665Y4398745D01*
X5285136Y4341216D01*
X5283178Y4338285D01*
X5282490Y4334829D01*
Y4199312D01*
X5279459Y4197286D01*
X5275761Y4191751D01*
X5274462Y4185223D01*
X5275761Y4178694D01*
X5279459Y4173159D01*
X5284993Y4169461D01*
X5291522Y4168163D01*
X5298051Y4169461D01*
X5303585Y4173159D01*
X5304866Y4175076D01*
X5309866Y4173559D01*
Y4027363D01*
X5272834Y3990331D01*
X5200100D01*
X5196644Y3989644D01*
X5193713Y3987686D01*
X5174716Y3968688D01*
X5172758Y3965758D01*
X5172071Y3962302D01*
Y3956271D01*
X5167071Y3954754D01*
X5165607Y3956945D01*
X5160072Y3960643D01*
X5153543Y3961942D01*
X5147015Y3960643D01*
X5141480Y3956945D01*
X5137782Y3951410D01*
X5136483Y3944882D01*
X5137782Y3938353D01*
X5141480Y3932819D01*
X5147015Y3929120D01*
X5153543Y3927822D01*
X5160072Y3929120D01*
X5165607Y3932819D01*
X5167071Y3935010D01*
X5172071Y3933493D01*
Y3918799D01*
X5165858Y3912586D01*
X5163900Y3909655D01*
X5163212Y3906199D01*
Y3889076D01*
X5163900Y3885620D01*
X5165858Y3882690D01*
X5172071Y3876477D01*
Y3873902D01*
X4972944Y3674775D01*
X4970986Y3671845D01*
X4970299Y3668389D01*
Y3609056D01*
X4965938Y3604695D01*
X4961330Y3607158D01*
X4961942Y3610236D01*
X4960643Y3616765D01*
X4956945Y3622300D01*
X4951410Y3625998D01*
X4944882Y3627296D01*
X4938353Y3625998D01*
X4932819Y3622300D01*
X4929120Y3616765D01*
X4927822Y3610236D01*
X4929120Y3603708D01*
X4932819Y3598173D01*
X4938353Y3594475D01*
X4944882Y3593176D01*
X4947960Y3593788D01*
X4950423Y3589180D01*
X4930314Y3569071D01*
X4900887D01*
X4897431Y3568384D01*
X4894501Y3566426D01*
X4863682Y3535607D01*
X4426181D01*
X4422725Y3534919D01*
X4419795Y3532961D01*
X4416534Y3529701D01*
X4367435D01*
X4365410Y3532733D01*
X4359875Y3536431D01*
X4353346Y3537729D01*
X4346818Y3536431D01*
X4341283Y3532733D01*
X4337585Y3527198D01*
X4336286Y3520669D01*
X4337585Y3514141D01*
X4341283Y3508606D01*
X4346818Y3504908D01*
X4353346Y3503609D01*
X4359875Y3504908D01*
X4365410Y3508606D01*
X4367435Y3511637D01*
X4420275D01*
X4423732Y3512325D01*
X4426662Y3514283D01*
X4429922Y3517543D01*
X4825721D01*
X4827237Y3512543D01*
X4826519Y3512063D01*
X4822821Y3506529D01*
X4821523Y3500000D01*
X4822821Y3493471D01*
X4826519Y3487937D01*
X4832054Y3484238D01*
X4838583Y3482940D01*
X4845111Y3484238D01*
X4850646Y3487937D01*
X4854344Y3493471D01*
X4855643Y3500000D01*
X4855467Y3500883D01*
X4858639Y3504748D01*
X5255723D01*
X5287526Y3472944D01*
X5290456Y3470986D01*
X5293913Y3470299D01*
X5378640D01*
X5382096Y3470986D01*
X5385027Y3472944D01*
X5415846Y3503764D01*
X5514960D01*
X5519084Y3499639D01*
X5518373Y3496063D01*
X5519672Y3489534D01*
X5523370Y3484000D01*
X5528904Y3480302D01*
X5535433Y3479003D01*
X5541962Y3480302D01*
X5547496Y3484000D01*
X5551195Y3489534D01*
X5552493Y3496063D01*
X5551195Y3502592D01*
X5547496Y3508126D01*
X5541962Y3511825D01*
X5535433Y3513123D01*
X5531857Y3512412D01*
X5525087Y3519182D01*
X5522157Y3521140D01*
X5518701Y3521827D01*
X5412105D01*
X5408649Y3521140D01*
X5405718Y3519182D01*
X5390789Y3504252D01*
X5386004Y3505704D01*
X5385840Y3506529D01*
X5382142Y3512063D01*
X5376607Y3515762D01*
X5370079Y3517060D01*
X5363550Y3515762D01*
X5358015Y3512063D01*
X5355990Y3509032D01*
X5295080D01*
X5262292Y3541820D01*
X5259362Y3543777D01*
X5255905Y3544465D01*
X5254246D01*
X5252221Y3547496D01*
X5246686Y3551195D01*
X5240158Y3552493D01*
X5233629Y3551195D01*
X5228094Y3547496D01*
X5224396Y3541962D01*
X5223097Y3535433D01*
X5224396Y3528905D01*
X5225126Y3527811D01*
X5222454Y3522811D01*
X4971028D01*
X4969673Y3525493D01*
X4969093Y3527811D01*
X4972454Y3532841D01*
X4973753Y3539370D01*
X4972454Y3545899D01*
X4968756Y3551433D01*
X4963221Y3555132D01*
X4956693Y3556430D01*
X4950164Y3555132D01*
X4947928Y3553637D01*
X4947685Y3553825D01*
X4947263Y3560474D01*
X4983140Y3596352D01*
X4986596Y3597664D01*
X4990968Y3594916D01*
Y3548700D01*
X4990957Y3548684D01*
X4989887Y3543307D01*
X4990957Y3537931D01*
X4994002Y3533373D01*
X4998560Y3530327D01*
X5003937Y3529258D01*
X5009314Y3530327D01*
X5013872Y3533373D01*
X5016917Y3537931D01*
X5017986Y3543307D01*
X5016917Y3548684D01*
X5013872Y3553242D01*
X5009314Y3556287D01*
X5009032Y3556343D01*
Y3596147D01*
X5012063Y3598173D01*
X5015761Y3603708D01*
X5017060Y3610236D01*
X5015761Y3616765D01*
X5012063Y3622300D01*
X5009032Y3624325D01*
Y3667222D01*
X5176140Y3834330D01*
X5180925Y3832879D01*
X5181089Y3832054D01*
X5184787Y3826519D01*
X5190322Y3822821D01*
X5196850Y3821523D01*
X5201201Y3822388D01*
X5201237Y3822364D01*
X5204693Y3821677D01*
X5204714D01*
X5204819Y3821698D01*
X5216430D01*
X5216535Y3821677D01*
X5251968D01*
X5255425Y3822364D01*
X5258355Y3824322D01*
X5358629Y3924596D01*
X5362205Y3923885D01*
X5368733Y3925183D01*
X5374268Y3928882D01*
X5377966Y3934416D01*
X5379265Y3940945D01*
X5377966Y3947474D01*
X5374268Y3953008D01*
X5368733Y3956706D01*
X5362205Y3958005D01*
X5355676Y3956706D01*
X5350141Y3953008D01*
X5346443Y3947474D01*
X5346319Y3946847D01*
X5341011Y3945791D01*
X5338824Y3949063D01*
X5333289Y3952762D01*
X5326761Y3954060D01*
X5320232Y3952762D01*
X5314698Y3949063D01*
X5310999Y3943529D01*
X5309701Y3937000D01*
X5309821Y3936394D01*
X5309351Y3936045D01*
X5307799Y3936347D01*
X5304167Y3938426D01*
X5303153Y3943529D01*
X5299454Y3949063D01*
X5293920Y3952762D01*
X5287391Y3954060D01*
X5280862Y3952762D01*
X5280624Y3952602D01*
X5266210Y3967016D01*
X5265835Y3967267D01*
X5267351Y3972267D01*
X5276575D01*
X5280031Y3972955D01*
X5282961Y3974913D01*
X5325284Y4017236D01*
X5327242Y4020166D01*
X5327929Y4023622D01*
Y4315157D01*
X5423709Y4410936D01*
X5425667Y4413867D01*
X5426355Y4417323D01*
Y4547244D01*
X5425667Y4550700D01*
X5423709Y4553631D01*
X5383355Y4593985D01*
X5380425Y4595943D01*
X5376968Y4596630D01*
X5287698D01*
X5284242Y4595943D01*
X5281312Y4593985D01*
X5267225Y4579898D01*
X5140073D01*
X5138047Y4582929D01*
X5132513Y4586628D01*
X5125984Y4587926D01*
X5119456Y4586628D01*
X5113921Y4582929D01*
X5110223Y4577395D01*
X5108924Y4570866D01*
X5110223Y4564337D01*
X5113921Y4558803D01*
X5116112Y4557339D01*
X5114595Y4552339D01*
X4995867D01*
X4991623Y4556583D01*
X4988693Y4558541D01*
X4985236Y4559229D01*
X4976710D01*
X4974639Y4564229D01*
X4992487Y4582076D01*
X4996063Y4581365D01*
X5002592Y4582664D01*
X5008126Y4586362D01*
X5011824Y4591897D01*
X5013123Y4598425D01*
X5011824Y4604954D01*
X5008126Y4610489D01*
X5002592Y4614187D01*
X4996063Y4615485D01*
X4989534Y4614187D01*
X4984000Y4610489D01*
X4980301Y4604954D01*
X4979003Y4598425D01*
X4979714Y4594849D01*
X4959842Y4574977D01*
X4812927D01*
X4810570Y4579386D01*
X4811037Y4580086D01*
X4812336Y4586614D01*
X4811037Y4593143D01*
X4807339Y4598677D01*
X4801804Y4602376D01*
X4795276Y4603674D01*
X4788747Y4602376D01*
X4786558Y4600913D01*
X4781670Y4603660D01*
Y4615435D01*
X4780982Y4618892D01*
X4779951Y4620434D01*
X4781365Y4625813D01*
X4782109Y4625962D01*
X4787644Y4629660D01*
X4791342Y4635194D01*
X4792641Y4641723D01*
X4791342Y4648252D01*
X4787644Y4653786D01*
X4784613Y4655812D01*
Y4708353D01*
X4786047Y4708639D01*
X4791581Y4712337D01*
X4795279Y4717871D01*
X4796578Y4724400D01*
X4795279Y4730929D01*
X4791581Y4736463D01*
X4786047Y4740162D01*
X4779518Y4741460D01*
X4778461Y4741250D01*
X4776501Y4744443D01*
X4776084Y4745875D01*
X4779541Y4751049D01*
X4780840Y4757577D01*
X4779541Y4764106D01*
X4775843Y4769641D01*
X4770308Y4773339D01*
X4763779Y4774637D01*
X4757251Y4773339D01*
X4751716Y4769641D01*
X4748018Y4764106D01*
X4746719Y4757577D01*
X4747590Y4753202D01*
X4747561Y4753159D01*
X4746999Y4750333D01*
X4745212Y4749053D01*
X4741874Y4747745D01*
X4741865Y4747751D01*
X4741361Y4748521D01*
X4740161Y4754551D01*
X4736463Y4760085D01*
X4730928Y4763783D01*
X4724400Y4765082D01*
X4717871Y4763783D01*
X4714819Y4761744D01*
X4709819Y4764417D01*
Y4877934D01*
X4709132Y4881390D01*
X4707174Y4884320D01*
X4693511Y4897983D01*
X4694225Y4901575D01*
X4692927Y4908103D01*
X4689229Y4913638D01*
X4683694Y4917336D01*
X4677165Y4918635D01*
X4670637Y4917336D01*
X4665102Y4913638D01*
X4661404Y4908104D01*
X4656252Y4907831D01*
X4654118Y4909218D01*
X4653557Y4912040D01*
X4649859Y4917575D01*
X4644324Y4921273D01*
X4640118Y4922110D01*
X4640610Y4927110D01*
X4714998D01*
X4717881Y4925183D01*
X4724409Y4923885D01*
X4730938Y4925183D01*
X4736473Y4928882D01*
X4740171Y4934416D01*
X4741470Y4940945D01*
X4740171Y4947474D01*
X4736473Y4953008D01*
X4730938Y4956706D01*
X4724409Y4958005D01*
X4717881Y4956706D01*
X4712346Y4953008D01*
X4708648Y4947474D01*
X4708190Y4945173D01*
X4701271D01*
X4700215Y4948287D01*
X4699967Y4950173D01*
X4705504Y4957389D01*
X4709022Y4965884D01*
X4710223Y4975000D01*
X4709022Y4984116D01*
X4705504Y4992611D01*
X4699906Y4999906D01*
X4697547Y5001716D01*
X4699244Y5006716D01*
X4710320D01*
X4712346Y5003685D01*
X4717881Y4999986D01*
X4724409Y4998688D01*
X4730938Y4999986D01*
X4736473Y5003685D01*
X4740171Y5009219D01*
X4741470Y5015748D01*
X4740171Y5022277D01*
X4736473Y5027811D01*
X4730938Y5031510D01*
X4724409Y5032808D01*
D02*
G37*
G36*
X5775000Y5010223D02*
X5765884Y5009022D01*
X5757389Y5005504D01*
X5750094Y4999906D01*
X5744496Y4992611D01*
X5740978Y4984116D01*
X5739777Y4975000D01*
X5740978Y4965884D01*
X5744496Y4957389D01*
X5750094Y4950094D01*
X5757389Y4944496D01*
X5765884Y4940978D01*
X5775000Y4939777D01*
X5784116Y4940978D01*
X5792611Y4944496D01*
X5799906Y4950094D01*
X5805504Y4957389D01*
X5809022Y4965884D01*
X5810223Y4975000D01*
X5809022Y4984116D01*
X5805504Y4992611D01*
X5799906Y4999906D01*
X5792611Y5005504D01*
X5784116Y5009022D01*
X5775000Y5010223D01*
D02*
G37*
G36*
X5875000D02*
X5865884Y5009022D01*
X5857389Y5005504D01*
X5850094Y4999906D01*
X5844496Y4992611D01*
X5840978Y4984116D01*
X5839777Y4975000D01*
X5840978Y4965884D01*
X5844496Y4957389D01*
X5850094Y4950094D01*
X5857389Y4944496D01*
X5865884Y4940978D01*
X5875000Y4939777D01*
X5884116Y4940978D01*
X5892611Y4944496D01*
X5899906Y4950094D01*
X5905504Y4957389D01*
X5909022Y4965884D01*
X5910223Y4975000D01*
X5909022Y4984116D01*
X5905504Y4992611D01*
X5899906Y4999906D01*
X5892611Y5005504D01*
X5884116Y5009022D01*
X5875000Y5010223D01*
D02*
G37*
G36*
X5807087Y4379265D02*
X5800558Y4377966D01*
X5795023Y4374268D01*
X5791325Y4368733D01*
X5790026Y4362205D01*
X5791325Y4355676D01*
X5795023Y4350141D01*
X5800558Y4346443D01*
X5807087Y4345145D01*
X5813615Y4346443D01*
X5819150Y4350141D01*
X5822848Y4355676D01*
X5824147Y4362205D01*
X5822848Y4368733D01*
X5819150Y4374268D01*
X5813615Y4377966D01*
X5807087Y4379265D01*
D02*
G37*
G36*
X5035433Y4481627D02*
X5028904Y4480328D01*
X5023370Y4476630D01*
X5019672Y4471096D01*
X5018373Y4464567D01*
X5019672Y4458038D01*
X5023370Y4452504D01*
X5028904Y4448805D01*
X5032307Y4448129D01*
Y4239483D01*
X5029275Y4237457D01*
X5025577Y4231922D01*
X5024279Y4225394D01*
X5025577Y4218865D01*
X5029275Y4213330D01*
X5034810Y4209632D01*
X5041339Y4208334D01*
X5042452Y4208555D01*
X5072354Y4178653D01*
X5075284Y4176695D01*
X5078740Y4176008D01*
X5107627D01*
X5110300Y4171008D01*
X5108254Y4167946D01*
X5106956Y4161417D01*
X5108254Y4154889D01*
X5111952Y4149354D01*
X5117487Y4145656D01*
X5124016Y4144357D01*
X5130544Y4145656D01*
X5136079Y4149354D01*
X5139777Y4154889D01*
X5141076Y4161417D01*
X5139777Y4167946D01*
X5137731Y4171008D01*
X5140404Y4176008D01*
X5141732D01*
X5145189Y4176695D01*
X5148119Y4178653D01*
X5226241Y4256775D01*
X5228199Y4259705D01*
X5228886Y4263162D01*
Y4330287D01*
X5319259Y4420659D01*
X5322835Y4419948D01*
X5329363Y4421246D01*
X5334898Y4424945D01*
X5338596Y4430479D01*
X5339895Y4437008D01*
X5338596Y4443537D01*
X5334898Y4449071D01*
X5329363Y4452769D01*
X5322835Y4454068D01*
X5316306Y4452769D01*
X5310771Y4449071D01*
X5307073Y4443537D01*
X5305775Y4437008D01*
X5306486Y4433432D01*
X5213468Y4340414D01*
X5211510Y4337484D01*
X5210823Y4334028D01*
Y4266903D01*
X5178700Y4234780D01*
X5174817Y4237968D01*
X5174876Y4238056D01*
X5177179Y4241503D01*
X5178477Y4248032D01*
X5177179Y4254560D01*
X5173481Y4260095D01*
X5167946Y4263793D01*
X5161417Y4265092D01*
X5154889Y4263793D01*
X5149354Y4260095D01*
X5145656Y4254560D01*
X5144357Y4248032D01*
X5145656Y4241503D01*
X5149354Y4235968D01*
X5154889Y4232270D01*
X5161417Y4230971D01*
X5167946Y4232270D01*
X5171393Y4234573D01*
X5171481Y4234632D01*
X5172475Y4233421D01*
X5174668Y4230748D01*
X5137991Y4194071D01*
X5082481D01*
X5057198Y4219355D01*
X5058399Y4225394D01*
X5057100Y4231922D01*
X5053402Y4237457D01*
X5050370Y4239483D01*
Y4456805D01*
X5051195Y4458038D01*
X5052493Y4464567D01*
X5051195Y4471096D01*
X5047496Y4476630D01*
X5041962Y4480328D01*
X5035433Y4481627D01*
D02*
G37*
G36*
X5606299Y4284777D02*
X5599771Y4283478D01*
X5594236Y4279780D01*
X5590538Y4274245D01*
X5589239Y4267717D01*
X5590538Y4261188D01*
X5594236Y4255653D01*
X5599771Y4251955D01*
X5606299Y4250656D01*
X5612828Y4251955D01*
X5618363Y4255653D01*
X5622061Y4261188D01*
X5623359Y4267717D01*
X5622061Y4274245D01*
X5618363Y4279780D01*
X5612828Y4283478D01*
X5606299Y4284777D01*
D02*
G37*
G36*
X4637795Y4288714D02*
X4631267Y4287415D01*
X4625984Y4283885D01*
X4620702Y4287415D01*
X4614173Y4288714D01*
X4607645Y4287415D01*
X4602362Y4283885D01*
X4597080Y4287415D01*
X4590551Y4288714D01*
X4584023Y4287415D01*
X4578488Y4283717D01*
X4574790Y4278182D01*
X4573491Y4271654D01*
X4574790Y4265125D01*
X4578488Y4259590D01*
X4584023Y4255892D01*
X4590551Y4254593D01*
X4597080Y4255892D01*
X4602362Y4259422D01*
X4607645Y4255892D01*
X4614173Y4254593D01*
X4620702Y4255892D01*
X4625984Y4259422D01*
X4631267Y4255892D01*
X4637795Y4254593D01*
X4644324Y4255892D01*
X4649859Y4259590D01*
X4653557Y4265125D01*
X4654855Y4271654D01*
X4653557Y4278182D01*
X4649859Y4283717D01*
X4644324Y4287415D01*
X4637795Y4288714D01*
D02*
G37*
G36*
X5638779Y4524934D02*
X5632251Y4523636D01*
X5626716Y4519937D01*
X5623018Y4514403D01*
X5621719Y4507874D01*
X5623018Y4501345D01*
X5626716Y4495811D01*
X5632251Y4492113D01*
X5638779Y4490814D01*
X5645308Y4492113D01*
X5650843Y4495811D01*
X5654541Y4501345D01*
X5655840Y4507874D01*
X5654541Y4514403D01*
X5650843Y4519937D01*
X5645308Y4523636D01*
X5638779Y4524934D01*
D02*
G37*
G36*
X5822835Y4824147D02*
X5816306Y4822848D01*
X5810771Y4819150D01*
X5807073Y4813615D01*
X5805775Y4807087D01*
X5807073Y4800558D01*
X5810771Y4795023D01*
X5816306Y4791325D01*
X5822835Y4790026D01*
X5826411Y4790738D01*
X5849236Y4767912D01*
Y4618110D01*
X5849923Y4614654D01*
X5851881Y4611724D01*
X5904911Y4558694D01*
X5904200Y4555118D01*
X5905498Y4548590D01*
X5909197Y4543055D01*
X5914731Y4539357D01*
X5921260Y4538058D01*
X5927788Y4539357D01*
X5933323Y4543055D01*
X5937021Y4548590D01*
X5938320Y4555118D01*
X5937021Y4561647D01*
X5933323Y4567181D01*
X5927788Y4570880D01*
X5921260Y4572178D01*
X5917684Y4571467D01*
X5867300Y4621851D01*
Y4771654D01*
X5866612Y4775110D01*
X5864654Y4778040D01*
X5839183Y4803511D01*
X5839895Y4807087D01*
X5838596Y4813615D01*
X5834898Y4819150D01*
X5829363Y4822848D01*
X5822835Y4824147D01*
D02*
G37*
G36*
X5531496Y4635170D02*
X5524967Y4633872D01*
X5519433Y4630173D01*
X5515735Y4624639D01*
X5514436Y4618110D01*
X5515735Y4611582D01*
X5519433Y4606047D01*
X5522464Y4604021D01*
Y4559055D01*
X5523152Y4555599D01*
X5525110Y4552669D01*
X5540858Y4536921D01*
X5543788Y4534963D01*
X5547244Y4534275D01*
X5665550D01*
X5723809Y4476017D01*
X5723097Y4472441D01*
X5724396Y4465912D01*
X5728094Y4460378D01*
X5733629Y4456679D01*
X5740158Y4455381D01*
X5746686Y4456679D01*
X5752221Y4460378D01*
X5755919Y4465912D01*
X5757218Y4472441D01*
X5755919Y4478970D01*
X5752221Y4484504D01*
X5746686Y4488202D01*
X5740158Y4489501D01*
X5736582Y4488790D01*
X5675678Y4549694D01*
X5672748Y4551651D01*
X5669291Y4552339D01*
X5550985D01*
X5540528Y4562796D01*
Y4604021D01*
X5543559Y4606047D01*
X5547258Y4611582D01*
X5548556Y4618110D01*
X5547258Y4624639D01*
X5543559Y4630173D01*
X5538025Y4633872D01*
X5531496Y4635170D01*
D02*
G37*
G36*
X5153543Y4505249D02*
X5147015Y4503950D01*
X5141480Y4500252D01*
X5137782Y4494718D01*
X5136483Y4488189D01*
X5137782Y4481660D01*
X5141480Y4476126D01*
X5147015Y4472427D01*
X5153543Y4471129D01*
X5160072Y4472427D01*
X5165607Y4476126D01*
X5169305Y4481660D01*
X5170603Y4488189D01*
X5169305Y4494718D01*
X5165607Y4500252D01*
X5160072Y4503950D01*
X5153543Y4505249D01*
D02*
G37*
G36*
X5818898Y4068241D02*
X5812369Y4066943D01*
X5806834Y4063244D01*
X5803136Y4057710D01*
X5801837Y4051181D01*
X5803136Y4044653D01*
X5806834Y4039118D01*
X5812369Y4035420D01*
X5818898Y4034121D01*
X5825426Y4035420D01*
X5830961Y4039118D01*
X5834659Y4044653D01*
X5835958Y4051181D01*
X5834659Y4057710D01*
X5830961Y4063244D01*
X5825426Y4066943D01*
X5818898Y4068241D01*
D02*
G37*
G36*
X5015748Y4111548D02*
X5009219Y4110250D01*
X5003685Y4106551D01*
X4999986Y4101017D01*
X4998688Y4094488D01*
X4999986Y4087960D01*
X5003685Y4082425D01*
X5006716Y4080399D01*
Y4050985D01*
X4991765Y4036034D01*
X4988189Y4036745D01*
X4981660Y4035447D01*
X4976126Y4031748D01*
X4972427Y4026214D01*
X4971129Y4019685D01*
X4972427Y4013156D01*
X4976126Y4007622D01*
X4981660Y4003923D01*
X4988189Y4002625D01*
X4994718Y4003923D01*
X5000252Y4007622D01*
X5003950Y4013156D01*
X5005249Y4019685D01*
X5004538Y4023261D01*
X5022134Y4040858D01*
X5024092Y4043788D01*
X5024780Y4047244D01*
Y4080399D01*
X5027811Y4082425D01*
X5031510Y4087960D01*
X5032808Y4094488D01*
X5031510Y4101017D01*
X5027811Y4106551D01*
X5022277Y4110250D01*
X5015748Y4111548D01*
D02*
G37*
G36*
X5877941Y3993430D02*
X5871412Y3992131D01*
X5865878Y3988433D01*
X5862180Y3982899D01*
X5860881Y3976370D01*
X5862180Y3969841D01*
X5865878Y3964307D01*
X5871412Y3960608D01*
X5877941Y3959310D01*
X5884470Y3960608D01*
X5890004Y3964307D01*
X5893703Y3969841D01*
X5895001Y3976370D01*
X5893703Y3982899D01*
X5890004Y3988433D01*
X5884470Y3992131D01*
X5877941Y3993430D01*
D02*
G37*
G36*
X5673228Y4056430D02*
X5666700Y4055132D01*
X5661165Y4051433D01*
X5657467Y4045899D01*
X5656168Y4039370D01*
X5657467Y4032841D01*
X5661165Y4027307D01*
X5666700Y4023609D01*
X5673228Y4022310D01*
X5679757Y4023609D01*
X5685292Y4027307D01*
X5688990Y4032841D01*
X5690288Y4039370D01*
X5688990Y4045899D01*
X5685292Y4051433D01*
X5679757Y4055132D01*
X5673228Y4056430D01*
D02*
G37*
G36*
X4736221Y4288714D02*
X4729692Y4287415D01*
X4724157Y4283717D01*
X4720459Y4278182D01*
X4719160Y4271654D01*
X4720459Y4265125D01*
X4723989Y4259842D01*
X4720459Y4254560D01*
X4719160Y4248032D01*
X4720459Y4241503D01*
X4723989Y4236220D01*
X4720459Y4230938D01*
X4719160Y4224409D01*
X4720459Y4217881D01*
X4724157Y4212346D01*
X4729692Y4208648D01*
X4736221Y4207349D01*
X4742749Y4208648D01*
X4748284Y4212346D01*
X4751982Y4217881D01*
X4753281Y4224409D01*
X4751982Y4230938D01*
X4748452Y4236220D01*
X4751982Y4241503D01*
X4753281Y4248032D01*
X4751982Y4254560D01*
X4748452Y4259842D01*
X4751982Y4265125D01*
X4753281Y4271654D01*
X4751982Y4278182D01*
X4748284Y4283717D01*
X4742749Y4287415D01*
X4736221Y4288714D01*
D02*
G37*
G36*
X5880905Y4279855D02*
X5874377Y4278557D01*
X5868842Y4274859D01*
X5865144Y4269324D01*
X5863845Y4262795D01*
X5865144Y4256267D01*
X5868842Y4250732D01*
X5874377Y4247034D01*
X5880905Y4245735D01*
X5887434Y4247034D01*
X5892969Y4250732D01*
X5896667Y4256267D01*
X5897966Y4262795D01*
X5896667Y4269324D01*
X5892969Y4274859D01*
X5887434Y4278557D01*
X5880905Y4279855D01*
D02*
G37*
G36*
X5543307Y4174540D02*
X5536779Y4173242D01*
X5531244Y4169544D01*
X5527546Y4164009D01*
X5526247Y4157480D01*
X5527546Y4150952D01*
X5531244Y4145417D01*
X5536779Y4141719D01*
X5543307Y4140420D01*
X5549836Y4141719D01*
X5555370Y4145417D01*
X5559069Y4150952D01*
X5560367Y4157480D01*
X5559069Y4164009D01*
X5555370Y4169544D01*
X5549836Y4173242D01*
X5543307Y4174540D01*
D02*
G37*
G36*
X5230933Y4237533D02*
X5224404Y4236234D01*
X5218870Y4232536D01*
X5215171Y4227001D01*
X5213873Y4220472D01*
X5215171Y4213944D01*
X5218870Y4208409D01*
X5224404Y4204711D01*
X5230933Y4203412D01*
X5237462Y4204711D01*
X5242996Y4208409D01*
X5246694Y4213944D01*
X5247993Y4220472D01*
X5246694Y4227001D01*
X5242996Y4232536D01*
X5237462Y4236234D01*
X5230933Y4237533D01*
D02*
G37*
G36*
X3891732Y4626254D02*
X3886356Y4625185D01*
X3881798Y4622139D01*
X3878752Y4617581D01*
X3877683Y4612205D01*
X3878752Y4606828D01*
X3881798Y4602270D01*
X3886356Y4599225D01*
X3891732Y4598155D01*
X3897109Y4599225D01*
X3901667Y4602270D01*
X3904712Y4606828D01*
X3905782Y4612205D01*
X3904712Y4617581D01*
X3901667Y4622139D01*
X3897109Y4625185D01*
X3891732Y4626254D01*
D02*
G37*
G36*
X4814951Y4717838D02*
X4808422Y4716539D01*
X4802888Y4712841D01*
X4799190Y4707307D01*
X4797891Y4700778D01*
X4799190Y4694249D01*
X4801992Y4690056D01*
Y4649606D01*
X4802679Y4646150D01*
X4804637Y4643220D01*
X4834045Y4613812D01*
X4833334Y4610236D01*
X4834632Y4603708D01*
X4838330Y4598173D01*
X4843865Y4594475D01*
X4850394Y4593176D01*
X4856922Y4594475D01*
X4862457Y4598173D01*
X4866155Y4603708D01*
X4867454Y4610236D01*
X4866155Y4616765D01*
X4862457Y4622300D01*
X4856922Y4625998D01*
X4850394Y4627296D01*
X4846818Y4626585D01*
X4820055Y4653347D01*
Y4684733D01*
X4821480Y4685016D01*
X4827014Y4688715D01*
X4830712Y4694249D01*
X4832011Y4700778D01*
X4830712Y4707307D01*
X4827014Y4712841D01*
X4821480Y4716539D01*
X4814951Y4717838D01*
D02*
G37*
G36*
X5929134Y4654855D02*
X5922605Y4653557D01*
X5917070Y4649859D01*
X5913372Y4644324D01*
X5912074Y4637795D01*
X5913372Y4631267D01*
X5917070Y4625732D01*
X5922605Y4622034D01*
X5929134Y4620735D01*
X5935662Y4622034D01*
X5941197Y4625732D01*
X5944895Y4631267D01*
X5946194Y4637795D01*
X5944895Y4644324D01*
X5941197Y4649859D01*
X5935662Y4653557D01*
X5929134Y4654855D01*
D02*
G37*
G36*
X4937008Y4635170D02*
X4930479Y4633872D01*
X4924945Y4630173D01*
X4921246Y4624639D01*
X4919948Y4618110D01*
X4921246Y4611582D01*
X4924945Y4606047D01*
X4930479Y4602349D01*
X4937008Y4601050D01*
X4943537Y4602349D01*
X4949071Y4606047D01*
X4952769Y4611582D01*
X4954068Y4618110D01*
X4952769Y4624639D01*
X4949071Y4630173D01*
X4943537Y4633872D01*
X4937008Y4635170D01*
D02*
G37*
G36*
X6255905Y4662729D02*
X6249377Y4661431D01*
X6243842Y4657733D01*
X6240144Y4652198D01*
X6238845Y4645669D01*
X6240144Y4639141D01*
X6243842Y4633606D01*
X6249377Y4629908D01*
X6255905Y4628609D01*
X6262434Y4629908D01*
X6267969Y4633606D01*
X6271667Y4639141D01*
X6272966Y4645669D01*
X6271667Y4652198D01*
X6267969Y4657733D01*
X6262434Y4661431D01*
X6255905Y4662729D01*
D02*
G37*
G36*
X6145669Y4729658D02*
X6139141Y4728360D01*
X6133606Y4724662D01*
X6129908Y4719127D01*
X6128609Y4712598D01*
X6129908Y4706070D01*
X6133606Y4700535D01*
X6139141Y4696837D01*
X6145669Y4695538D01*
X6152198Y4696837D01*
X6157733Y4700535D01*
X6161431Y4706070D01*
X6162729Y4712598D01*
X6161431Y4719127D01*
X6157733Y4724662D01*
X6152198Y4728360D01*
X6145669Y4729658D01*
D02*
G37*
G36*
X5421260Y4734522D02*
X5415883Y4733452D01*
X5411325Y4730407D01*
X5408280Y4725849D01*
X5407210Y4720472D01*
X5408280Y4715096D01*
X5411325Y4710538D01*
X5415883Y4707492D01*
X5421260Y4706423D01*
X5426636Y4707492D01*
X5431194Y4710538D01*
X5434240Y4715096D01*
X5435309Y4720472D01*
X5434240Y4725849D01*
X5431194Y4730407D01*
X5426636Y4733452D01*
X5421260Y4734522D01*
D02*
G37*
%LPD*%
G36*
X3849785Y5101713D02*
X3850033Y5099827D01*
X3844496Y5092611D01*
X3840978Y5084116D01*
X3839777Y5075000D01*
X3840978Y5065884D01*
X3844496Y5057389D01*
X3850094Y5050094D01*
X3857389Y5044496D01*
X3864403Y5041591D01*
X3863408Y5036591D01*
X3798865D01*
X3797168Y5041591D01*
X3803528Y5046472D01*
X3809940Y5054827D01*
X3813970Y5064558D01*
X3814956Y5072047D01*
X3775000D01*
Y5077953D01*
X3814956D01*
X3813970Y5085442D01*
X3809940Y5095173D01*
X3806369Y5099827D01*
X3808835Y5104827D01*
X3848729D01*
X3849785Y5101713D01*
D02*
G37*
G36*
X3949785D02*
X3950033Y5099827D01*
X3944496Y5092611D01*
X3940978Y5084116D01*
X3939777Y5075000D01*
X3940978Y5065884D01*
X3944496Y5057389D01*
X3950094Y5050094D01*
X3957389Y5044496D01*
X3964403Y5041591D01*
X3963408Y5036591D01*
X3886592D01*
X3885597Y5041591D01*
X3892611Y5044496D01*
X3899906Y5050094D01*
X3905504Y5057389D01*
X3909022Y5065884D01*
X3910223Y5075000D01*
X3909022Y5084116D01*
X3905504Y5092611D01*
X3899967Y5099827D01*
X3900215Y5101713D01*
X3901271Y5104827D01*
X3948729D01*
X3949785Y5101713D01*
D02*
G37*
G36*
X4249785D02*
X4250033Y5099827D01*
X4244496Y5092611D01*
X4240978Y5084116D01*
X4239777Y5075000D01*
X4240978Y5065884D01*
X4244496Y5057389D01*
X4250094Y5050094D01*
X4257389Y5044496D01*
X4264403Y5041591D01*
X4263408Y5036591D01*
X4186592D01*
X4185597Y5041591D01*
X4192611Y5044496D01*
X4199906Y5050094D01*
X4205504Y5057389D01*
X4209022Y5065884D01*
X4210223Y5075000D01*
X4209022Y5084116D01*
X4205504Y5092611D01*
X4199967Y5099827D01*
X4200215Y5101713D01*
X4201271Y5104827D01*
X4248729D01*
X4249785Y5101713D01*
D02*
G37*
G36*
X4349785D02*
X4350033Y5099827D01*
X4344496Y5092611D01*
X4340978Y5084116D01*
X4339777Y5075000D01*
X4340978Y5065884D01*
X4344496Y5057389D01*
X4344548Y5057321D01*
X4323818Y5036591D01*
X4286592D01*
X4285597Y5041591D01*
X4292611Y5044496D01*
X4299906Y5050094D01*
X4305504Y5057389D01*
X4309022Y5065884D01*
X4310223Y5075000D01*
X4309022Y5084116D01*
X4305504Y5092611D01*
X4299967Y5099827D01*
X4300215Y5101713D01*
X4301271Y5104827D01*
X4348729D01*
X4349785Y5101713D01*
D02*
G37*
G36*
X4049785D02*
X4050033Y5099827D01*
X4044496Y5092611D01*
X4040978Y5084116D01*
X4039777Y5075000D01*
X4040978Y5065884D01*
X4044496Y5057389D01*
X4050094Y5050094D01*
X4057389Y5044496D01*
X4064403Y5041591D01*
X4063408Y5036591D01*
X3986592D01*
X3985597Y5041591D01*
X3992611Y5044496D01*
X3999906Y5050094D01*
X4005504Y5057389D01*
X4009022Y5065884D01*
X4010223Y5075000D01*
X4009022Y5084116D01*
X4005504Y5092611D01*
X3999967Y5099827D01*
X4000215Y5101713D01*
X4001271Y5104827D01*
X4048729D01*
X4049785Y5101713D01*
D02*
G37*
G36*
X4149785D02*
X4150033Y5099827D01*
X4144496Y5092611D01*
X4140978Y5084116D01*
X4139777Y5075000D01*
X4140978Y5065884D01*
X4144496Y5057389D01*
X4150094Y5050094D01*
X4157389Y5044496D01*
X4164403Y5041591D01*
X4163408Y5036591D01*
X4086592D01*
X4085597Y5041591D01*
X4092611Y5044496D01*
X4099906Y5050094D01*
X4105504Y5057389D01*
X4109022Y5065884D01*
X4110223Y5075000D01*
X4109022Y5084116D01*
X4105504Y5092611D01*
X4099967Y5099827D01*
X4100215Y5101713D01*
X4101271Y5104827D01*
X4148729D01*
X4149785Y5101713D01*
D02*
G37*
G36*
X5270389Y3937292D02*
X5270331Y3937000D01*
X5271630Y3930471D01*
X5273670Y3927418D01*
X5270997Y3922418D01*
X5263419D01*
X5261144Y3925189D01*
X5259846Y3931718D01*
X5256147Y3937252D01*
X5250613Y3940950D01*
X5244084Y3942249D01*
X5237555Y3940950D01*
X5232021Y3937252D01*
X5228323Y3931718D01*
X5227024Y3925189D01*
X5228323Y3918660D01*
X5232021Y3913126D01*
X5237555Y3909427D01*
X5244084Y3908129D01*
X5247660Y3908840D01*
X5249501Y3906999D01*
X5252431Y3905041D01*
X5255887Y3904354D01*
X5303147D01*
X5306421Y3905005D01*
X5306780Y3904776D01*
X5309369Y3900882D01*
X5248227Y3839740D01*
X5216620D01*
X5216514Y3839762D01*
X5213676D01*
X5212612Y3845111D01*
X5216772Y3847873D01*
X5218958Y3848339D01*
X5221807Y3846436D01*
X5228336Y3845137D01*
X5234865Y3846436D01*
X5240399Y3850134D01*
X5244097Y3855668D01*
X5245396Y3862197D01*
X5244097Y3868726D01*
X5240399Y3874260D01*
X5234865Y3877959D01*
X5228336Y3879257D01*
X5221807Y3877959D01*
X5216273Y3874260D01*
X5212574Y3868726D01*
X5212487Y3868284D01*
X5191675D01*
X5190134Y3870161D01*
Y3880218D01*
X5189447Y3883674D01*
X5187489Y3886604D01*
X5181276Y3892817D01*
Y3902458D01*
X5187489Y3908671D01*
X5189447Y3911601D01*
X5190134Y3915057D01*
Y3949241D01*
X5195134Y3950757D01*
X5196598Y3948567D01*
X5202133Y3944868D01*
X5208661Y3943570D01*
X5215190Y3944868D01*
X5220725Y3948567D01*
X5222750Y3951598D01*
X5256083D01*
X5270389Y3937292D01*
D02*
G37*
G36*
X4229778Y4917451D02*
X4204540Y4892213D01*
X4202582Y4889283D01*
X4201895Y4885827D01*
Y4623719D01*
X4202582Y4620263D01*
X4204540Y4617333D01*
X4265267Y4556606D01*
X4268197Y4554648D01*
X4271654Y4553960D01*
X4275110Y4554648D01*
X4275140Y4554668D01*
X4279519Y4553797D01*
X4286048Y4555096D01*
X4286199Y4555197D01*
X4290573Y4552967D01*
X4290938Y4548592D01*
X4286841Y4544496D01*
X4282119Y4547651D01*
X4275591Y4548950D01*
X4269062Y4547651D01*
X4263527Y4543953D01*
X4259829Y4538418D01*
X4258530Y4531890D01*
X4259829Y4525361D01*
X4263527Y4519826D01*
X4269062Y4516128D01*
X4275591Y4514830D01*
X4282119Y4516128D01*
X4287654Y4519826D01*
X4290089Y4523471D01*
X4290464Y4523545D01*
X4293394Y4525503D01*
X4306583Y4538692D01*
X4308541Y4541622D01*
X4309229Y4545079D01*
Y4557742D01*
X4314229Y4560415D01*
X4316297Y4559033D01*
X4322826Y4557734D01*
X4329355Y4559033D01*
X4334889Y4562731D01*
X4338587Y4568265D01*
X4339886Y4574794D01*
X4338587Y4581323D01*
X4334889Y4586857D01*
X4331858Y4588883D01*
Y4752156D01*
X4364654Y4784952D01*
X4366612Y4787882D01*
X4367300Y4791338D01*
Y4863864D01*
X4370331Y4865890D01*
X4374029Y4871424D01*
X4375328Y4877953D01*
X4374399Y4882622D01*
X4377487Y4887622D01*
X4437810D01*
X4448944Y4876488D01*
X4449995Y4875785D01*
X4449300Y4870549D01*
X4446369Y4868591D01*
X4422748Y4844969D01*
X4420790Y4842039D01*
X4420102Y4838583D01*
Y4793647D01*
X4383827Y4757371D01*
X4378163Y4758779D01*
X4376076Y4761903D01*
X4371518Y4764949D01*
X4366142Y4766018D01*
X4360765Y4764949D01*
X4356207Y4761903D01*
X4353162Y4757345D01*
X4352092Y4751968D01*
X4353162Y4746592D01*
X4356207Y4742034D01*
X4358472Y4740521D01*
X4359544Y4734521D01*
X4343023Y4718001D01*
X4341065Y4715070D01*
X4340378Y4711614D01*
Y4629234D01*
X4341065Y4625778D01*
X4343023Y4622847D01*
X4355131Y4610740D01*
X4358061Y4608782D01*
X4361517Y4608094D01*
X4435841D01*
X4450614Y4593321D01*
Y4522285D01*
X4443417Y4515088D01*
X4441459Y4512158D01*
X4440771Y4508701D01*
Y4475551D01*
X4441459Y4472094D01*
X4443417Y4469164D01*
X4447661Y4464920D01*
Y4350198D01*
X4421763Y4324300D01*
X4419805Y4321370D01*
X4419118Y4317913D01*
Y4274228D01*
X4419805Y4270771D01*
X4421763Y4267841D01*
X4454551Y4235053D01*
Y4173645D01*
X4440464Y4159558D01*
X4438506Y4156627D01*
X4437819Y4153171D01*
Y4097018D01*
X4431517Y4090717D01*
X4264576D01*
X4231780Y4123512D01*
X4228850Y4125470D01*
X4225394Y4126158D01*
X4142256D01*
X4138800Y4125470D01*
X4135869Y4123512D01*
X4107787Y4095430D01*
X4105829Y4092499D01*
X4105141Y4089043D01*
Y3950409D01*
X4105829Y3946953D01*
X4107787Y3944023D01*
X4113991Y3937818D01*
Y3709441D01*
X4050393Y3645843D01*
X4038543D01*
X4035086Y3645155D01*
X4032156Y3643198D01*
X4014283Y3625324D01*
X4012325Y3622394D01*
X4011637Y3618938D01*
Y3523122D01*
X4006637Y3521051D01*
X3982457Y3545231D01*
Y3784645D01*
X3997528Y3799716D01*
X3999486Y3802646D01*
X4000174Y3806102D01*
Y3853807D01*
X3999486Y3857263D01*
X3997528Y3860193D01*
X3976552Y3881170D01*
Y4095208D01*
X3985709Y4104365D01*
X3987667Y4107295D01*
X3988355Y4110752D01*
Y4149091D01*
X3987667Y4152547D01*
X3985709Y4155477D01*
X3970646Y4170540D01*
Y4241338D01*
X3978724Y4249415D01*
X3979299Y4249530D01*
X3982229Y4251488D01*
X3992607Y4261866D01*
X3994565Y4264796D01*
X3995252Y4268252D01*
Y4282929D01*
X3994565Y4286385D01*
X3992607Y4289315D01*
X3979883Y4302039D01*
Y4336431D01*
X4002450Y4358998D01*
X4004407Y4361928D01*
X4005095Y4365385D01*
Y4405708D01*
X4019489Y4420102D01*
X4042529D01*
X4044442Y4415483D01*
X4042826Y4413866D01*
X4040868Y4410936D01*
X4040180Y4407480D01*
Y4362900D01*
X4039278Y4362297D01*
X4036232Y4357739D01*
X4035163Y4352363D01*
X4036232Y4346986D01*
X4039278Y4342428D01*
X4043836Y4339383D01*
X4049212Y4338313D01*
X4054589Y4339383D01*
X4059147Y4342428D01*
X4062192Y4346986D01*
X4063262Y4352363D01*
X4062192Y4357739D01*
X4059147Y4362297D01*
X4058244Y4362900D01*
Y4403739D01*
X4061812Y4407307D01*
X4115536D01*
X4118993Y4407994D01*
X4121923Y4409952D01*
X4145852Y4433882D01*
X4149071D01*
X4152527Y4434569D01*
X4154663Y4435996D01*
X4157230Y4434955D01*
X4159205Y4433204D01*
X4159179Y4433071D01*
X4160248Y4427694D01*
X4163294Y4423136D01*
X4167852Y4420091D01*
X4173228Y4419021D01*
X4174293Y4419233D01*
X4221913Y4371614D01*
X4218725Y4367730D01*
X4215190Y4370092D01*
X4208661Y4371391D01*
X4202133Y4370092D01*
X4196598Y4366394D01*
X4192900Y4360859D01*
X4191601Y4354331D01*
X4192900Y4347802D01*
X4196598Y4342267D01*
X4197085Y4341942D01*
X4197320Y4340735D01*
X4197176Y4339574D01*
X4195937Y4336695D01*
X4191466Y4335806D01*
X4186908Y4332761D01*
X4183862Y4328203D01*
X4182792Y4322826D01*
X4183862Y4317449D01*
X4186908Y4312891D01*
X4191466Y4309846D01*
X4196842Y4308776D01*
X4202218Y4309846D01*
X4206776Y4312891D01*
X4209822Y4317449D01*
X4210465Y4320684D01*
X4217215D01*
X4220671Y4321371D01*
X4223601Y4323329D01*
X4232638Y4332366D01*
X4237614Y4331876D01*
X4238097Y4331152D01*
X4242655Y4328107D01*
X4248032Y4327037D01*
X4253408Y4328107D01*
X4257966Y4331152D01*
X4258569Y4332055D01*
X4325965D01*
X4326749Y4328108D01*
X4330448Y4322574D01*
X4335982Y4318876D01*
X4342511Y4317577D01*
X4349040Y4318876D01*
X4354574Y4322574D01*
X4358273Y4328108D01*
X4359571Y4334637D01*
X4358273Y4341166D01*
X4354574Y4346700D01*
X4356293Y4351475D01*
X4358021Y4353068D01*
X4358268Y4353019D01*
X4364796Y4354317D01*
X4370331Y4358015D01*
X4374029Y4363550D01*
X4375328Y4370079D01*
X4374029Y4376607D01*
X4370331Y4382142D01*
X4366028Y4385017D01*
X4365719Y4386205D01*
Y4389385D01*
X4366028Y4390573D01*
X4370331Y4393449D01*
X4374029Y4398983D01*
X4375328Y4405512D01*
X4374029Y4412040D01*
X4370331Y4417575D01*
X4364796Y4421273D01*
X4358268Y4422572D01*
X4351739Y4421273D01*
X4346204Y4417575D01*
X4342506Y4412040D01*
X4341208Y4405512D01*
X4341919Y4401936D01*
X4315692Y4375709D01*
X4269332D01*
X4267056Y4377985D01*
X4264126Y4379943D01*
X4260670Y4380630D01*
X4238442D01*
X4187066Y4432006D01*
X4187278Y4433071D01*
X4186208Y4438447D01*
X4183163Y4443005D01*
X4178605Y4446051D01*
X4173228Y4447120D01*
X4173095Y4447094D01*
X4170632Y4451702D01*
X4171741Y4452810D01*
X4173699Y4455741D01*
X4174386Y4459197D01*
Y4874212D01*
X4222245Y4922071D01*
X4227865D01*
X4229778Y4917451D01*
D02*
G37*
G36*
X4916165Y3197046D02*
Y3153543D01*
X4916853Y3150087D01*
X4918810Y3147157D01*
X4955736Y3110231D01*
X4955993Y3109495D01*
X4955376Y3104032D01*
X4955248Y3103861D01*
X4950094Y3099906D01*
X4944496Y3092611D01*
X4940978Y3084116D01*
X4940967Y3084032D01*
X4933695D01*
X4893230Y3124497D01*
X4890300Y3126454D01*
X4886844Y3127142D01*
X4680677D01*
X4672486Y3135333D01*
X4673940Y3138281D01*
X4675100Y3139791D01*
X4684116Y3140978D01*
X4692611Y3144496D01*
X4699906Y3150094D01*
X4705504Y3157389D01*
X4709022Y3165884D01*
X4710223Y3175000D01*
X4709022Y3184116D01*
X4705504Y3192611D01*
X4699906Y3199906D01*
X4692611Y3205504D01*
X4684116Y3209022D01*
X4675000Y3210223D01*
X4665884Y3209022D01*
X4657389Y3205504D01*
X4650094Y3199906D01*
X4647664Y3196740D01*
X4645857Y3196278D01*
X4641298Y3196657D01*
X4607020Y3230935D01*
X4609091Y3235935D01*
X4701292D01*
X4744548Y3192679D01*
X4744496Y3192611D01*
X4740978Y3184116D01*
X4739777Y3175000D01*
X4740978Y3165884D01*
X4744496Y3157389D01*
X4750094Y3150094D01*
X4757389Y3144496D01*
X4765884Y3140978D01*
X4775000Y3139777D01*
X4784116Y3140978D01*
X4792611Y3144496D01*
X4799906Y3150094D01*
X4805504Y3157389D01*
X4809022Y3165884D01*
X4810223Y3175000D01*
X4809022Y3184116D01*
X4805504Y3192611D01*
X4799906Y3199906D01*
X4792611Y3205504D01*
X4784116Y3209022D01*
X4775000Y3210223D01*
X4765884Y3209022D01*
X4757389Y3205504D01*
X4757321Y3205452D01*
X4718662Y3244111D01*
X4720576Y3248730D01*
X4864481D01*
X4916165Y3197046D01*
D02*
G37*
G36*
X5391368Y4560426D02*
X5388905Y4555818D01*
X5385827Y4556430D01*
X5379298Y4555132D01*
X5373764Y4551433D01*
X5371738Y4548402D01*
X5347108D01*
X5346663Y4548699D01*
X5343207Y4549386D01*
X5326084D01*
X5322628Y4548699D01*
X5322184Y4548402D01*
X5304821D01*
X5301365Y4547714D01*
X5298435Y4545757D01*
X5292222Y4539544D01*
X5282581D01*
X5272431Y4549694D01*
X5269501Y4551651D01*
X5266045Y4552339D01*
X5137373D01*
X5135857Y4557339D01*
X5138047Y4558803D01*
X5140073Y4561834D01*
X5270966D01*
X5274422Y4562522D01*
X5277352Y4564480D01*
X5291439Y4578567D01*
X5373227D01*
X5391368Y4560426D01*
D02*
G37*
G36*
X4039197Y3444093D02*
Y3399541D01*
X4034787Y3397184D01*
X4034088Y3397651D01*
X4027559Y3398950D01*
X4021030Y3397651D01*
X4015496Y3393953D01*
X4011798Y3388418D01*
X4010499Y3381890D01*
X4011798Y3375361D01*
X4015496Y3369827D01*
X4021030Y3366128D01*
X4027559Y3364830D01*
X4034088Y3366128D01*
X4034787Y3366595D01*
X4039197Y3364238D01*
Y3307875D01*
X4025110Y3293788D01*
X4023152Y3290858D01*
X4022464Y3287402D01*
Y3255094D01*
X4017845Y3253181D01*
X3999189Y3271836D01*
Y3431115D01*
X4004189Y3433788D01*
X4005282Y3433057D01*
X4011811Y3431759D01*
X4018340Y3433057D01*
X4023874Y3436756D01*
X4027573Y3442290D01*
X4028627Y3447592D01*
X4032114Y3449314D01*
X4033729Y3449561D01*
X4039197Y3444093D01*
D02*
G37*
G36*
X4048732Y3529047D02*
X4178653Y3399125D01*
X4181583Y3397168D01*
X4185039Y3396480D01*
X4288355D01*
X4347365Y3337470D01*
X4345451Y3332851D01*
X4324061D01*
X4323540Y3333467D01*
X4321846Y3337851D01*
X4324004Y3341080D01*
X4325073Y3346457D01*
X4324004Y3351833D01*
X4320958Y3356391D01*
X4316400Y3359437D01*
X4311024Y3360506D01*
X4305647Y3359437D01*
X4301089Y3356391D01*
X4298044Y3351833D01*
X4296974Y3346457D01*
X4298044Y3341080D01*
X4300201Y3337851D01*
X4298507Y3333467D01*
X4297987Y3332851D01*
X4213896D01*
X4211224Y3337851D01*
X4212612Y3339928D01*
X4213910Y3346457D01*
X4212612Y3352985D01*
X4208914Y3358520D01*
X4203379Y3362218D01*
X4196850Y3363517D01*
X4190322Y3362218D01*
X4184787Y3358520D01*
X4181089Y3352985D01*
X4179790Y3346457D01*
X4181089Y3339928D01*
X4182477Y3337851D01*
X4179804Y3332851D01*
X4107466D01*
X4083835Y3356482D01*
Y3460630D01*
X4083147Y3464086D01*
X4081189Y3467017D01*
X4042496Y3505710D01*
Y3529803D01*
X4047496Y3530896D01*
X4048732Y3529047D01*
D02*
G37*
G36*
X4867946Y4536755D02*
X4867479Y4536056D01*
X4866180Y4529528D01*
X4867479Y4522999D01*
X4871177Y4517464D01*
X4871908Y4516975D01*
X4870392Y4511975D01*
X4778041D01*
X4753471Y4536546D01*
X4755385Y4541165D01*
X4865589D01*
X4867946Y4536755D01*
D02*
G37*
G36*
X4236043Y4891934D02*
X4236207Y4891109D01*
X4239905Y4885574D01*
X4245440Y4881876D01*
X4251968Y4880578D01*
X4258497Y4881876D01*
X4264032Y4885574D01*
X4265400Y4887622D01*
X4339049D01*
X4342136Y4882622D01*
X4341208Y4877953D01*
X4342506Y4871424D01*
X4346204Y4865890D01*
X4349236Y4863864D01*
Y4857846D01*
X4344236Y4856329D01*
X4342772Y4858520D01*
X4337237Y4862218D01*
X4330709Y4863517D01*
X4324180Y4862218D01*
X4318645Y4858520D01*
X4314947Y4852985D01*
X4313947Y4847954D01*
X4313424Y4847544D01*
X4312008Y4847641D01*
X4307401Y4849176D01*
X4305210Y4852454D01*
X4300652Y4855500D01*
X4295276Y4856569D01*
X4289899Y4855500D01*
X4285341Y4852454D01*
X4282296Y4847896D01*
X4281226Y4842520D01*
X4281286Y4842218D01*
X4276576Y4840267D01*
X4274698Y4843077D01*
X4270140Y4846123D01*
X4264764Y4847192D01*
X4259387Y4846123D01*
X4254829Y4843077D01*
X4251784Y4838519D01*
X4250714Y4833143D01*
X4251784Y4827766D01*
X4254829Y4823208D01*
X4259387Y4820163D01*
X4264764Y4819093D01*
X4270140Y4820163D01*
X4274698Y4823208D01*
X4277744Y4827766D01*
X4278813Y4833143D01*
X4278753Y4833445D01*
X4283463Y4835396D01*
X4285341Y4832585D01*
X4289899Y4829540D01*
X4293276Y4828868D01*
X4295230Y4823751D01*
X4291842Y4820363D01*
X4289884Y4817433D01*
X4289197Y4813976D01*
Y4590070D01*
X4284196Y4586987D01*
X4279519Y4587917D01*
X4272990Y4586618D01*
X4267456Y4582920D01*
X4264763Y4582655D01*
X4219958Y4627460D01*
Y4882086D01*
X4231258Y4893385D01*
X4236043Y4891934D01*
D02*
G37*
G36*
X4349236Y4835068D02*
Y4795080D01*
X4316440Y4762283D01*
X4314482Y4759353D01*
X4313794Y4755897D01*
Y4592635D01*
X4312260Y4591610D01*
X4307260Y4594283D01*
Y4810235D01*
X4327133Y4830108D01*
X4330709Y4829397D01*
X4337237Y4830695D01*
X4342772Y4834393D01*
X4344236Y4836584D01*
X4349236Y4835068D01*
D02*
G37*
G36*
X4464315Y4850141D02*
X4469849Y4846443D01*
X4476378Y4845145D01*
X4478094Y4845486D01*
X4483094Y4841382D01*
Y4625788D01*
X4472441Y4615135D01*
X4451268Y4636308D01*
X4448338Y4638266D01*
X4444882Y4638953D01*
X4386908D01*
X4385840Y4644324D01*
X4382142Y4649859D01*
X4376607Y4653557D01*
X4370079Y4654855D01*
X4363550Y4653557D01*
X4362851Y4653090D01*
X4358441Y4655447D01*
Y4707873D01*
X4376361Y4725793D01*
X4376936Y4725908D01*
X4379867Y4727865D01*
X4435520Y4783519D01*
X4437478Y4786449D01*
X4438166Y4789906D01*
Y4834842D01*
X4456497Y4853173D01*
X4462289D01*
X4464315Y4850141D01*
D02*
G37*
%LPC*%
G36*
X4279528Y4163656D02*
X4274151Y4162586D01*
X4269593Y4159541D01*
X4266548Y4154983D01*
X4265478Y4149606D01*
X4266548Y4144230D01*
X4269593Y4139672D01*
X4274151Y4136626D01*
X4279528Y4135557D01*
X4284904Y4136626D01*
X4289462Y4139672D01*
X4292508Y4144230D01*
X4293577Y4149606D01*
X4292508Y4154983D01*
X4289462Y4159541D01*
X4284904Y4162586D01*
X4279528Y4163656D01*
D02*
G37*
G36*
X4216535Y4167593D02*
X4211159Y4166523D01*
X4206601Y4163478D01*
X4203555Y4158920D01*
X4202486Y4153543D01*
X4203555Y4148167D01*
X4206601Y4143609D01*
X4211159Y4140563D01*
X4216535Y4139494D01*
X4221912Y4140563D01*
X4226470Y4143609D01*
X4226736Y4143644D01*
X4232006Y4142895D01*
X4234160Y4139672D01*
X4238718Y4136626D01*
X4244095Y4135557D01*
X4249471Y4136626D01*
X4254029Y4139672D01*
X4257074Y4144230D01*
X4258144Y4149606D01*
X4257074Y4154983D01*
X4254029Y4159541D01*
X4249471Y4162586D01*
X4244095Y4163656D01*
X4238718Y4162586D01*
X4234160Y4159541D01*
X4233894Y4159505D01*
X4228623Y4160255D01*
X4226470Y4163478D01*
X4221912Y4166523D01*
X4216535Y4167593D01*
D02*
G37*
G36*
X4307087Y4469816D02*
X4300558Y4468517D01*
X4295023Y4464819D01*
X4291325Y4459284D01*
X4290026Y4452756D01*
X4291325Y4446227D01*
X4295023Y4440693D01*
X4300558Y4436994D01*
X4307087Y4435696D01*
X4313615Y4436994D01*
X4319150Y4440693D01*
X4322848Y4446227D01*
X4324147Y4452756D01*
X4322848Y4459284D01*
X4319150Y4464819D01*
X4313615Y4468517D01*
X4307087Y4469816D01*
D02*
G37*
G36*
X4074803Y4332947D02*
X4069427Y4331878D01*
X4064869Y4328832D01*
X4061823Y4324274D01*
X4060754Y4318898D01*
X4061823Y4313521D01*
X4064869Y4308963D01*
X4069427Y4305918D01*
X4074803Y4304848D01*
X4080180Y4305918D01*
X4084738Y4308963D01*
X4087783Y4313521D01*
X4088853Y4318898D01*
X4087783Y4324274D01*
X4084738Y4328832D01*
X4080180Y4331878D01*
X4074803Y4332947D01*
D02*
G37*
G36*
X4003937Y4080052D02*
X3997408Y4078754D01*
X3991874Y4075055D01*
X3988175Y4069521D01*
X3986877Y4062992D01*
X3988175Y4056463D01*
X3991874Y4050929D01*
X3997408Y4047231D01*
X4003937Y4045932D01*
X4010466Y4047231D01*
X4016000Y4050929D01*
X4019698Y4056463D01*
X4020997Y4062992D01*
X4019698Y4069521D01*
X4016000Y4075055D01*
X4010466Y4078754D01*
X4003937Y4080052D01*
D02*
G37*
G36*
X4059055Y4103674D02*
X4052526Y4102376D01*
X4046992Y4098677D01*
X4043294Y4093143D01*
X4041995Y4086614D01*
X4043294Y4080086D01*
X4046992Y4074551D01*
X4052526Y4070853D01*
X4059055Y4069554D01*
X4065584Y4070853D01*
X4071118Y4074551D01*
X4074817Y4080086D01*
X4076115Y4086614D01*
X4074817Y4093143D01*
X4071118Y4098677D01*
X4065584Y4102376D01*
X4059055Y4103674D01*
D02*
G37*
G36*
X4875000Y3210223D02*
X4865884Y3209022D01*
X4857389Y3205504D01*
X4850094Y3199906D01*
X4844496Y3192611D01*
X4840978Y3184116D01*
X4839777Y3175000D01*
X4840978Y3165884D01*
X4844496Y3157389D01*
X4850094Y3150094D01*
X4857389Y3144496D01*
X4865884Y3140978D01*
X4875000Y3139777D01*
X4884116Y3140978D01*
X4892611Y3144496D01*
X4899906Y3150094D01*
X4905504Y3157389D01*
X4909022Y3165884D01*
X4910223Y3175000D01*
X4909022Y3184116D01*
X4905504Y3192611D01*
X4899906Y3199906D01*
X4892611Y3205504D01*
X4884116Y3209022D01*
X4875000Y3210223D01*
D02*
G37*
G36*
X4452756Y4679404D02*
X4447379Y4678334D01*
X4442821Y4675289D01*
X4439776Y4670731D01*
X4438706Y4665354D01*
X4439776Y4659978D01*
X4442821Y4655420D01*
X4447379Y4652374D01*
X4452756Y4651305D01*
X4458132Y4652374D01*
X4462690Y4655420D01*
X4465736Y4659978D01*
X4466805Y4665354D01*
X4465736Y4670731D01*
X4462690Y4675289D01*
X4458132Y4678334D01*
X4452756Y4679404D01*
D02*
G37*
%LPD*%
D77*
X6039370Y4637795D02*
Y4685039D01*
X4002953Y3493110D02*
Y3497426D01*
X4775581Y4641723D02*
Y4720463D01*
X4779518Y4724400D01*
X4217215Y4329716D02*
X4229331Y4341832D01*
Y4347441D01*
X4240693Y4358803D01*
X4260670Y4371599D02*
X4265591Y4366677D01*
X4234701Y4371599D02*
X4260670D01*
X4173228Y4433071D02*
X4234701Y4371599D01*
X4260291Y4353882D02*
X4326323D01*
X4255370Y4358803D02*
X4260291Y4353882D01*
X4240693Y4358803D02*
X4255370D01*
X4203732Y4329716D02*
X4217215D01*
X4196842Y4322826D02*
X4203732Y4329716D01*
X4909449Y3921260D02*
Y4153543D01*
X5219855Y4334028D02*
X5322835Y4437008D01*
X5219855Y4263162D02*
Y4334028D01*
X5041339Y4222441D02*
Y4225394D01*
Y4458661D01*
X5035433Y4464567D02*
X5041339Y4458661D01*
X5291339Y3500000D02*
X5370079D01*
X5358268Y4401575D02*
Y4405512D01*
X5291522Y4334829D02*
X5358268Y4401575D01*
X5291522Y4185223D02*
Y4334829D01*
X3242350Y3248032D02*
X3243333Y3249015D01*
X3196850Y3293531D02*
X3242350Y3248032D01*
X3244317D02*
X3279528D01*
X3243333Y3249015D02*
X3244317Y3248032D01*
X5208661Y3960630D02*
X5259824D01*
X4751976Y3850386D02*
X4830699D01*
X4748032Y3854331D02*
X4751976Y3850386D01*
X5807069Y4362205D02*
X5807087D01*
X5803141Y4366133D02*
X5807069Y4362205D01*
X6079725Y4705709D02*
X6139764Y4765748D01*
X6010139Y4685039D02*
X6030809Y4705709D01*
X6079725D01*
X5931102Y4685039D02*
X6010139D01*
X5881890Y3555118D02*
X5907480Y3580709D01*
X5881890Y3342520D02*
Y3555118D01*
X5000000Y3547244D02*
X5003937Y3543307D01*
X5000000Y3547244D02*
Y3610236D01*
X4224409Y3712599D02*
Y3734787D01*
X4255905Y3539372D02*
Y3775590D01*
X4204724Y3826772D02*
X4255905Y3775590D01*
X4255897Y3539363D02*
X4255905Y3539372D01*
X4138780Y3575787D02*
X4143701Y3580709D01*
X4138780Y3524152D02*
Y3575787D01*
X4055118Y3535433D02*
Y3578740D01*
X4082677Y3525969D02*
Y3586614D01*
X4125984Y3518852D02*
Y3602362D01*
X4138780Y3524152D02*
X4206239Y3456693D01*
X4165346Y3577299D02*
Y3602355D01*
X4151575Y3563528D02*
X4165346Y3577299D01*
X4151575Y3529452D02*
Y3563528D01*
Y3529452D02*
X4211539Y3469488D01*
X4325942D01*
X4161409Y3669300D02*
X4212598Y3618110D01*
Y3570866D02*
Y3618110D01*
X3899606Y3667323D02*
Y3684504D01*
X3903536Y3688433D01*
X3740157Y4685039D02*
X3891732Y4533465D01*
X3944346D01*
X3954724Y4523086D01*
X3937008Y4481987D02*
Y4515748D01*
X3954724Y4464270D02*
Y4523086D01*
Y4464270D02*
X3957677Y4461317D01*
X3916339Y3678150D02*
X3917323Y3677165D01*
X3893701Y3661417D02*
X3899606Y3667323D01*
X3771653Y4671639D02*
Y4688976D01*
Y4671639D02*
X3897032Y4546260D01*
X3949646D01*
X3970472Y4525434D01*
X3921260Y4350394D02*
X3957677Y4386811D01*
Y4461317D01*
X3970472Y4375984D02*
Y4525434D01*
X4110236Y4429134D02*
X4141732Y4460630D01*
X4015748Y4429134D02*
X4110236D01*
X4007874Y4511811D02*
X4039370D01*
X3983268Y4487205D02*
X4007874Y4511811D01*
X3983268Y4370684D02*
Y4487205D01*
X3996063Y4409449D02*
X4015748Y4429134D01*
X3996063Y4365385D02*
Y4409449D01*
X4049212Y4352363D02*
Y4407480D01*
X4058071Y4416339D01*
X4115536D01*
X4142111Y4442913D01*
X4149071D01*
X4165354Y4459197D01*
Y4877953D01*
X3570866Y5074803D02*
X3719849D01*
X3758904Y5113858D01*
X5240158Y3535433D02*
X5255905D01*
X5291339Y3500000D01*
X4837898Y3503930D02*
X4847747Y3513780D01*
X5259464D01*
X5293913Y3479331D01*
X5378640D01*
X5412105Y3512795D01*
X5518701D01*
X5535433Y3496063D01*
X4261803Y4017708D02*
X4467301D01*
X4170267Y4008932D02*
Y4034441D01*
X4159449Y3998114D02*
X4170267Y4008932D01*
X4213286Y4042323D02*
X4214262Y4043299D01*
X4172244Y3992814D02*
X4208958Y4029528D01*
X4218586D01*
X4219562Y4030504D01*
X4162385Y4042323D02*
X4213286D01*
X4204724Y3934743D02*
X4274895Y4004913D01*
X4204724Y3826772D02*
Y3934743D01*
X3903536Y3688433D02*
Y3771110D01*
X3885819Y3700780D02*
Y3708669D01*
X3868102Y3726386D02*
X3885819Y3708669D01*
X4755905Y4651278D02*
Y4749703D01*
X4783465Y4586614D02*
X4795276D01*
X4811024Y4649606D02*
X4850394Y4610236D01*
X4733268Y4565945D02*
X4963583D01*
X4996063Y4598425D01*
X5669291Y4543307D02*
X5740158Y4472441D01*
X5531496Y4559055D02*
Y4618110D01*
Y4559055D02*
X5547244Y4543307D01*
X5669291D01*
X4837898Y3503930D02*
X4838583Y3503245D01*
Y3500000D02*
Y3503245D01*
X5092520Y3435039D02*
X5098425Y3429134D01*
X5259824Y3960630D02*
X5283454Y3937000D01*
X5225391Y3859252D02*
X5228336Y3862197D01*
X4988189Y4019685D02*
X5015748Y4047244D01*
Y4094488D01*
X5125984Y4570866D02*
X5270966D01*
X5287698Y4587599D01*
X5376968D01*
X5417323Y4547244D01*
Y4417323D02*
Y4547244D01*
X5318898Y4318898D02*
X5417323Y4417323D01*
X5318898Y4023622D02*
Y4318898D01*
X5283454Y3937000D02*
X5287391D01*
X5251968Y3830709D02*
X5362205Y3940945D01*
X5041339Y4222441D02*
X5078740Y4185039D01*
X5141732D01*
X5219855Y4263162D01*
X5276575Y3981299D02*
X5318898Y4023622D01*
X5200100Y3981299D02*
X5276575D01*
X5181102Y3962302D02*
X5200100Y3981299D01*
X5181102Y3915057D02*
Y3962302D01*
X5172244Y3906199D02*
X5181102Y3915057D01*
X5172244Y3889076D02*
Y3906199D01*
Y3889076D02*
X5181102Y3880218D01*
X4934055Y3560039D02*
X4979331Y3605315D01*
X4900887Y3560039D02*
X4934055D01*
X4867423Y3526575D02*
X4900887Y3560039D01*
X4426181Y3526575D02*
X4867423D01*
X4420275Y3520669D02*
X4426181Y3526575D01*
X4353346Y3520669D02*
X4420275D01*
X4330709Y3271654D02*
X4342520Y3283465D01*
X4330709Y3130709D02*
Y3271654D01*
X4275000Y3075000D02*
X4330709Y3130709D01*
X3882874Y4106823D02*
X3895669Y4094028D01*
Y4112123D02*
X3916339Y4091454D01*
X3922244Y4105315D02*
X3929134Y4098425D01*
X3920572Y4105315D02*
X3922244D01*
X3908465Y4117423D02*
X3920572Y4105315D01*
X3758904Y5113858D02*
X4791339D01*
X4811024Y4696850D02*
X4814951Y4700778D01*
X4811024Y4649606D02*
Y4696850D01*
X4248032Y4341087D02*
X4336061D01*
X4342511Y4334637D01*
X4724400Y4748022D02*
X4740158Y4732264D01*
X4326323Y4353882D02*
X4327747Y4355306D01*
X4343495D01*
X4358268Y4370079D01*
X4265591Y4366677D02*
X4319433D01*
X4219562Y4030504D02*
X4462001D01*
X4516732Y4085235D01*
X4214262Y4043299D02*
X4456701D01*
X4516732Y4085235D02*
Y4085548D01*
X4498032Y4104249D02*
X4516732Y4085548D01*
X4498032Y4104249D02*
Y4131972D01*
X4516732Y4150672D01*
X4485236Y4137271D02*
X4503937Y4155972D01*
X4456701Y4043299D02*
X4485236Y4071834D01*
Y4137271D01*
X4467301Y4017708D02*
X4529528Y4079935D01*
Y4090848D01*
X4510827Y4109549D02*
X4529528Y4090848D01*
X4510827Y4109549D02*
Y4126672D01*
X4529528Y4145373D01*
X4274895Y4004913D02*
X4472601D01*
X4552165Y4084478D01*
Y4126672D01*
X4542323Y4136514D02*
X4552165Y4126672D01*
X3929134Y3531496D02*
X3964567Y3496063D01*
X3944882Y3533843D02*
X3977362Y3501363D01*
X3960630Y3536190D02*
X3990157Y3506663D01*
X3973425Y3541490D02*
X4002953Y3511963D01*
X4048228Y3304134D02*
Y3447835D01*
X4031496Y3287402D02*
X4048228Y3304134D01*
X4375000Y3175000D02*
Y3286417D01*
X4350394Y3311024D02*
X4375000Y3286417D01*
X4098425Y3311024D02*
X4350394D01*
X4061024Y3348425D02*
X4098425Y3311024D01*
X4103725Y3323819D02*
X4355694D01*
X4061024Y3348425D02*
Y3453135D01*
X4002953Y3493110D02*
X4048228Y3447835D01*
X4002953Y3497426D02*
X4002953Y3497426D01*
Y3511963D01*
X3868102Y3726386D02*
Y3797236D01*
X3895669Y3778977D02*
X3903536Y3771110D01*
X3868102Y3797236D02*
X3870079Y3799213D01*
X3895669Y3778977D02*
Y4094028D01*
X3911417Y3812910D02*
X3916339Y3807989D01*
Y3678150D02*
Y3807989D01*
X3929134Y3531496D02*
Y3663921D01*
X3935039Y3669827D01*
Y3807383D01*
X3924213Y3818210D02*
X3935039Y3807383D01*
X3944882Y3533843D02*
Y3661574D01*
X3947835Y3664527D01*
Y3800494D01*
X3960630Y3536190D02*
Y3795194D01*
X3934055Y4339567D02*
X3970472Y4375984D01*
X3948819Y4336235D02*
X3983268Y4370684D01*
X3970851Y4340172D02*
X3996063Y4365385D01*
X3970851Y4298298D02*
Y4340172D01*
X3961614Y4245079D02*
X3974409Y4257874D01*
X3975842D01*
X3986220Y4268252D01*
Y4282929D01*
X3970851Y4298298D02*
X3986220Y4282929D01*
X3973425Y3541490D02*
Y3788386D01*
X3947835Y3800494D02*
X3965551Y3818210D01*
X3960630Y3795194D02*
X3978347Y3812910D01*
X3973425Y3788386D02*
X3991142Y3806102D01*
X4152856Y4091535D02*
X4211614D01*
X4247055Y4056094D01*
X4445858D01*
X4472441Y4082677D01*
Y4142571D01*
X4491142Y4161272D01*
X4074803Y3352741D02*
X4103725Y3323819D01*
X4074803Y3352741D02*
Y3460630D01*
X4020669Y3493489D02*
X4061024Y3453135D01*
X4033465Y3501969D02*
X4074803Y3460630D01*
X4033465Y3501969D02*
Y3613638D01*
X4043843Y3624016D01*
X4020669Y3493489D02*
Y3618938D01*
X4043843Y3624016D02*
X4078362D01*
X4078740Y3606299D02*
X4148614Y3676173D01*
X4038543Y3636811D02*
X4054134D01*
X4020669Y3618938D02*
X4038543Y3636811D01*
X4051181Y3606299D02*
X4078740D01*
X4078362Y3624016D02*
X4135818Y3681473D01*
X4172244Y3975691D02*
Y3992814D01*
X4159449Y3970391D02*
Y3998114D01*
X4147556Y4104331D02*
X4216914D01*
X4252355Y4068890D01*
X4440558D01*
X4459646Y4087977D01*
Y4147871D01*
X4476378Y4164604D01*
Y4244095D01*
X4440945Y4279528D02*
X4476378Y4244095D01*
X4440945Y4279528D02*
Y4307087D01*
X4472441Y4338583D01*
X4054134Y3636811D02*
X4123023Y3705700D01*
X4172244Y3975691D02*
X4174204Y3973731D01*
X4159449Y3970391D02*
X4161409Y3968431D01*
X4187000Y3813000D02*
Y3942905D01*
X4261803Y4017708D01*
X4174204Y3802174D02*
Y3973731D01*
X4161409Y3669300D02*
Y3968431D01*
X4148614Y3676173D02*
Y3963131D01*
X4135818Y3681473D02*
Y3946859D01*
X4123023Y3705700D02*
Y3941559D01*
X4142256Y4117126D02*
X4225394D01*
X4260835Y4081685D01*
X4435258D01*
X4446850Y4093277D01*
Y4153171D01*
X4463583Y4169904D01*
Y4238795D01*
X4428150Y4274228D02*
X4463583Y4238795D01*
X4428150Y4274228D02*
Y4317913D01*
X4707677Y4562305D02*
Y4579428D01*
X4728346Y4570866D02*
X4733268Y4565945D01*
X4714485Y4537401D02*
X4739842D01*
X4707677Y4579428D02*
X4718801Y4590551D01*
X4700787Y4736221D02*
X4718801Y4718207D01*
Y4590551D02*
Y4718207D01*
X4694882Y4557005D02*
X4714485Y4537401D01*
X4694882Y4557005D02*
Y4584727D01*
X4700746Y4590592D01*
Y4704683D01*
X4685039Y4720390D02*
X4700746Y4704683D01*
X4685039Y4720390D02*
Y4862205D01*
X4641732Y4905512D02*
X4685039Y4862205D01*
X4567913Y4630905D02*
Y4884843D01*
X4791339Y5113858D02*
X4822835Y5082362D01*
X4843494Y4932096D02*
Y4945560D01*
X4822835Y4966219D02*
Y5082362D01*
Y4966219D02*
X4843494Y4945560D01*
X4700787Y4736221D02*
Y4877934D01*
X4566919Y4925187D02*
X4570866Y4929134D01*
X4535443Y4917313D02*
X4567913Y4884843D01*
X4531487Y4917313D02*
X4535443D01*
X4546250Y4945856D02*
X4566919Y4925187D01*
X4538055Y4945856D02*
X4546250D01*
X4570866Y4929134D02*
X4580709Y4919291D01*
X4593504Y4928150D02*
X4625984Y4960630D01*
Y4992126D01*
X4649606Y5015748D01*
X4724409D01*
X4637795Y4905512D02*
X4641732D01*
X4677165Y4901556D02*
X4700787Y4877934D01*
X4677165Y4901556D02*
Y4901575D01*
X4444882Y4629921D02*
X4472441Y4602362D01*
X4428150Y4317913D02*
X4456693Y4346457D01*
X4439582Y4617126D02*
X4459646Y4597062D01*
X4429134Y4838583D02*
X4452756Y4862205D01*
X4476378D01*
X4472441Y4602362D02*
X4492126Y4622047D01*
Y4848722D01*
X4497047Y4853643D01*
Y4870766D01*
X4484940Y4882874D02*
X4497047Y4870766D01*
X4455330Y4882874D02*
X4484940D01*
X4606299Y4613794D02*
Y4909449D01*
X4593504Y4619094D02*
Y4928150D01*
X4580709Y4624394D02*
Y4919291D01*
X4503937Y4566929D02*
X4567913Y4630905D01*
X4503937Y4515591D02*
X4510827Y4508701D01*
X4503937Y4515591D02*
Y4566929D01*
X4542323Y4531491D02*
X4549213Y4524601D01*
X4542323Y4531491D02*
Y4549818D01*
X4606299Y4613794D01*
X4529528Y4526191D02*
X4536417Y4519301D01*
X4529528Y4526191D02*
Y4555118D01*
X4593504Y4619094D01*
X4516732Y4520891D02*
X4523622Y4514001D01*
X4516732Y4520891D02*
Y4560418D01*
X4580709Y4624394D01*
X4449803Y4508701D02*
X4459646Y4518544D01*
Y4597062D01*
X4462598Y4503401D02*
X4472441Y4513244D01*
Y4602362D01*
X4491142Y4510291D02*
X4498032Y4503401D01*
X4491142Y4510291D02*
Y4602968D01*
X4504921Y4616747D01*
Y4843422D01*
X4509843Y4848343D01*
Y4876066D01*
X4243407Y4918307D02*
X4260530D01*
X4210927Y4885827D02*
X4243407Y4918307D01*
X4210927Y4623719D02*
Y4885827D01*
Y4623719D02*
X4271654Y4562992D01*
X4165354Y4877953D02*
X4218504Y4931102D01*
X4409746D01*
X4416635Y4924213D01*
X4443898D01*
X4475000Y4955315D01*
Y4975000D01*
X4260530Y4918307D02*
X4269388Y4909449D01*
X4476460D02*
X4509843Y4876066D01*
X4441551Y4896654D02*
X4455330Y4882874D01*
X4251968Y4897638D02*
X4252953Y4896654D01*
X4347738D01*
X4349706Y4898622D01*
X4366829D01*
X4368798Y4896654D01*
X4441551D01*
X4269388Y4909449D02*
X4342438D01*
X4344406Y4911417D01*
X4372129D01*
X4374098Y4909449D01*
X4476460D01*
X4298228Y4813976D02*
X4330709Y4846457D01*
X4322826Y4574794D02*
Y4755897D01*
X4358268Y4791338D01*
Y4877953D01*
X4755905Y4749703D02*
X4763779Y4757577D01*
X4275591Y4531890D02*
X4287008D01*
X4300197Y4545079D01*
X4462598Y4480851D02*
X4472441Y4471008D01*
Y4338583D02*
Y4471008D01*
X4456693Y4346457D02*
Y4468661D01*
X4449803Y4475551D02*
X4456693Y4468661D01*
X4491142Y4161272D02*
Y4473961D01*
X4498032Y4480851D01*
X4503937Y4155972D02*
Y4468661D01*
X4510827Y4475551D01*
X4516732Y4150672D02*
Y4463361D01*
X4523622Y4470251D01*
X4529528Y4145373D02*
Y4458061D01*
X4536417Y4464951D01*
X4542323Y4452761D02*
X4549213Y4459651D01*
X4542323Y4136514D02*
Y4452761D01*
X4462598Y4480851D02*
Y4503401D01*
X4449803Y4475551D02*
Y4508701D01*
X4498032Y4480851D02*
Y4503401D01*
X4510827Y4475551D02*
Y4508701D01*
X4523622Y4470251D02*
Y4514001D01*
X4536417Y4464951D02*
Y4519301D01*
X4549213Y4459651D02*
Y4524601D01*
X4843494Y4932096D02*
X4846457Y4929134D01*
X4905512D01*
X4929134D01*
X5006880Y4924203D02*
X5124203D01*
X4998627Y4934045D02*
X5001580Y4936998D01*
X5023612D01*
X5031486Y4944872D01*
X4944134Y5028543D02*
X5621457D01*
X4936142Y5020551D02*
X4944134Y5028543D01*
X5621457D02*
X5675000Y4975000D01*
X5124203Y4924203D02*
X5175000Y4975000D01*
X4031496Y3244852D02*
Y3287402D01*
X4046914Y3213858D02*
X4091096D01*
X4114173Y3190781D01*
X3964567Y3255905D02*
Y3496063D01*
X3977362Y3262795D02*
Y3501363D01*
X4045654Y3212598D02*
X4046914Y3213858D01*
X3990157Y3268095D02*
Y3506663D01*
X3964567Y3255905D02*
X4015748Y3204724D01*
X3977362Y3262795D02*
X4028543Y3211614D01*
X3990157Y3268095D02*
X4045654Y3212598D01*
X4031496Y3244852D02*
X4049694Y3226654D01*
X4096395D01*
X4126968Y3196081D01*
Y3149379D02*
Y3196081D01*
Y3149379D02*
X4146427Y3129921D01*
Y3129164D02*
Y3129921D01*
X4475000Y3175000D02*
Y3204512D01*
X4355694Y3323819D02*
X4475000Y3204512D01*
X4473198Y3224409D02*
X4480544D01*
X4478498Y3237205D02*
X4485844D01*
X4511811Y3129921D02*
X4515748Y3133858D01*
X4452569Y3288575D02*
X4527286Y3213858D01*
X4543298Y3118104D02*
Y3125975D01*
X4527286Y3213858D02*
X4593228D01*
X4451582Y3288575D02*
X4452569D01*
X4532586Y3226654D02*
X4598528D01*
X4636142Y3158904D02*
X4676936Y3118110D01*
X4886844D01*
X4929954Y3075000D01*
X4975000D01*
X4206239Y3456693D02*
X4320642D01*
X4532368Y3244966D01*
X4480544Y3224409D02*
X4515748Y3189206D01*
Y3133858D02*
Y3189206D01*
X4485844Y3237205D02*
X4535433Y3187616D01*
Y3141732D02*
Y3187616D01*
Y3141732D02*
X4547244Y3129921D01*
X4543298Y3125975D02*
X4547244Y3129921D01*
X4593228Y3213858D02*
X4623346Y3183740D01*
X4598528Y3226654D02*
X4636142Y3189040D01*
Y3158904D02*
Y3189040D01*
X4532368Y3244966D02*
X4705033D01*
X4775000Y3175000D01*
X4055118Y3535433D02*
X4185039Y3405512D01*
X4292096D01*
X4473198Y3224409D01*
X4082677Y3525969D02*
X4190339Y3418307D01*
X4297396D01*
X4478498Y3237205D01*
X4106299Y3520442D02*
X4195639Y3431102D01*
X4309055D01*
X4451582Y3288575D01*
X4125984Y3518852D02*
X4200939Y3443898D01*
X4315342D01*
X4532586Y3226654D01*
X4325942Y3469488D02*
X4537668Y3257762D01*
X4868222D01*
X4925197Y3200787D01*
Y3153543D02*
Y3200787D01*
Y3153543D02*
X4964567Y3114173D01*
X5135827D01*
X5175000Y3075000D01*
X4623346Y3153604D02*
Y3183740D01*
Y3153604D02*
X4625984Y3150967D01*
Y3110236D02*
Y3150967D01*
X4000000Y3122047D02*
X4003937D01*
X4028543Y3144685D02*
Y3211614D01*
X4003937Y3122047D02*
X4015748Y3133858D01*
Y3204724D01*
X4047244Y3122047D02*
X4051181D01*
X4113858Y3190466D02*
X4114173Y3190781D01*
X4110236Y3125984D02*
X4113858Y3129606D01*
Y3190466D01*
X4372047Y4734252D02*
X4373480D01*
X4429134Y4789906D01*
Y4838583D01*
X3908457Y4440248D02*
X3908465Y4440241D01*
X3908457Y4440248D02*
Y4457372D01*
X3920564Y4469479D01*
X3924501D01*
X3937008Y4481987D01*
X3895661Y4434949D02*
X3895669Y4434941D01*
X3895661Y4434949D02*
Y4462671D01*
X3913386Y4480396D01*
Y4488189D01*
X3948819Y4161499D02*
Y4336235D01*
X3961614Y4166799D02*
Y4245079D01*
X3953732Y4121351D02*
Y4138475D01*
X3941929Y4109548D02*
X3953732Y4121351D01*
X3941929Y3858268D02*
Y4109548D01*
X3954724Y4104248D02*
X3966528Y4116052D01*
X3967520Y4098949D02*
X3979323Y4110752D01*
X3961614Y4166799D02*
X3979323Y4149091D01*
Y4110752D02*
Y4149091D01*
X3966528Y4116052D02*
Y4143791D01*
X3948819Y4161499D02*
X3966528Y4143791D01*
X3934055Y4158152D02*
Y4339567D01*
Y4158152D02*
X3953732Y4138475D01*
X3908465Y4138883D02*
X3921260Y4151678D01*
Y4350394D01*
X3895669Y4144182D02*
X3908465Y4156978D01*
Y4440241D01*
X3882874Y4149482D02*
X3895669Y4162278D01*
Y4434941D01*
X3882874Y4106823D02*
Y4149482D01*
X3895669Y4112123D02*
Y4144182D01*
X3908465Y4117423D02*
Y4138883D01*
X4472441Y3397638D02*
X4509843Y3435039D01*
X5092520D01*
X4929134Y4929134D02*
X4934045Y4934045D01*
X4998627D01*
X4968504Y4909469D02*
X4972431Y4913396D01*
X4968504Y4909449D02*
Y4909469D01*
X5000984Y4918307D02*
X5006880Y4924203D01*
X4972431Y4913396D02*
X4977342Y4918307D01*
X5000984D01*
X4271654Y4562992D02*
X4279518Y4570857D01*
X4279519D01*
X4298228Y4581378D02*
Y4813976D01*
Y4581378D02*
X4300197Y4579410D01*
Y4545079D02*
Y4579410D01*
X4719606Y4936142D02*
X4724409Y4940945D01*
X4632992Y4936142D02*
X4719606D01*
X4606299Y4909449D02*
X4632992Y4936142D01*
X4772638Y4597441D02*
X4783465Y4586614D01*
X4772638Y4597441D02*
Y4615435D01*
X4754912Y4633162D02*
X4772638Y4615435D01*
X4754912Y4633162D02*
Y4650284D01*
X4755905Y4651278D01*
X4740158Y4614173D02*
Y4732264D01*
Y4614173D02*
X4751968Y4602362D01*
X4157480Y4037418D02*
X4162385Y4042323D01*
X4157480Y4035433D02*
Y4037418D01*
X4114173Y3950409D02*
Y4089043D01*
X4126968Y3955709D02*
Y4083743D01*
X4139764Y3971981D02*
Y4078443D01*
Y3971981D02*
X4148614Y3963131D01*
X4139764Y4078443D02*
X4152856Y4091535D01*
X4126968Y3955709D02*
X4135818Y3946859D01*
X4126968Y4083743D02*
X4147556Y4104331D01*
X4114173Y3950409D02*
X4123023Y3941559D01*
X4114173Y4089043D02*
X4142256Y4117126D01*
X4106299Y3520442D02*
Y3570866D01*
X4174204Y3802174D02*
X4212598Y3763780D01*
X4224409D01*
X4231748Y3781496D02*
X4242126Y3771118D01*
X4187000Y3813000D02*
X4218504Y3781496D01*
X4231748D01*
X4242126Y3752504D02*
Y3771118D01*
X4224409Y3734787D02*
X4242126Y3752504D01*
X3941929Y3858268D02*
X3944882Y3855315D01*
X3953443D01*
X3965551Y3843207D01*
X3967520Y3877429D02*
Y4098949D01*
Y3877429D02*
X3991142Y3853807D01*
X3924213Y3843207D02*
X3929134Y3848128D01*
Y4098425D01*
X3911417Y3848507D02*
X3916339Y3853428D01*
Y4091454D01*
X3954724Y3872129D02*
Y4104248D01*
Y3872129D02*
X3978347Y3848507D01*
X3965551Y3818210D02*
Y3843207D01*
X3978347Y3812910D02*
Y3848507D01*
X3991142Y3806102D02*
Y3853807D01*
X3924213Y3818210D02*
Y3843207D01*
X3911417Y3812910D02*
Y3848507D01*
X5181102Y3870161D02*
Y3880218D01*
X4979331Y3668389D02*
X5181102Y3870161D01*
X5000000Y3670963D02*
X5188289Y3859252D01*
X5000000Y3610236D02*
Y3670963D01*
X5188289Y3859252D02*
X5225391D01*
X4979331Y3605315D02*
Y3668389D01*
X5204714Y3830730D02*
X5204724Y3830719D01*
X5216535Y3830709D02*
X5251968D01*
X5216514Y3830730D02*
X5216535Y3830709D01*
X5204714Y3830730D02*
X5216514D01*
X5204693Y3830709D02*
X5204714D01*
X5196850Y3838583D02*
X5196861D01*
X5204714Y3830730D01*
X5278840Y4530512D02*
X5295963D01*
X4995079D02*
X5260745D01*
X5273540Y4517717D01*
X5301263D01*
X4992126Y4543307D02*
X5266045D01*
X5278840Y4530512D01*
X5301263Y4517717D02*
X5303231Y4519685D01*
X5334646D01*
X5295963Y4530512D02*
X5304821Y4539370D01*
X5325100D01*
X5326084Y4540354D01*
X5343207D01*
X5344191Y4539370D01*
X5385827D01*
X4349409Y4629234D02*
X4361517Y4617126D01*
X4349409Y4629234D02*
Y4711614D01*
X4372047Y4734252D01*
X4361517Y4617126D02*
X4439582D01*
X4370079Y4637795D02*
X4377953Y4629921D01*
X4444882D01*
X4319433Y4366677D02*
X4358268Y4405512D01*
X5822835Y4807087D02*
X5858268Y4771654D01*
Y4618110D02*
X5921260Y4555118D01*
X5858268Y4618110D02*
Y4771654D01*
X4967511Y4502944D02*
X4995079Y4530512D01*
X4739842Y4537401D02*
X4774300Y4502944D01*
X4967511D01*
X4985236Y4550197D02*
X4992126Y4543307D01*
X4707677Y4562305D02*
X4719785Y4550197D01*
X4985236D01*
X4327559Y5027559D02*
X4375000Y5075000D01*
X3381890Y5027559D02*
X4327559D01*
X3377953Y5023622D02*
X3381890Y5027559D01*
X5303147Y3913386D02*
X5326761Y3937000D01*
X5255887Y3913386D02*
X5303147D01*
X5244084Y3925189D02*
X5255887Y3913386D01*
X4028543Y3144685D02*
X4051181Y3122047D01*
X4972431Y4913396D02*
X4972441Y4913386D01*
X5204693Y3830709D02*
X5204714Y3830730D01*
Y3830709D02*
X5204724Y3830719D01*
X4162385Y4042323D02*
X4170267Y4034441D01*
D91*
X3858268Y4176378D02*
D03*
Y4376378D02*
D03*
Y4276378D02*
D03*
Y4076378D02*
D03*
Y3976378D02*
D03*
Y3876378D02*
D03*
D92*
Y4476378D02*
D03*
D93*
X5975000Y5075000D02*
D03*
X5875000D02*
D03*
X5775000D02*
D03*
X5675000D02*
D03*
X5575000D02*
D03*
X5475000D02*
D03*
X5375000D02*
D03*
X5275000D02*
D03*
X5175000D02*
D03*
X5075000D02*
D03*
X4975000D02*
D03*
X4875000D02*
D03*
X4775000D02*
D03*
X4675000D02*
D03*
X4575000D02*
D03*
X4475000D02*
D03*
X4375000D02*
D03*
X4275000D02*
D03*
X4175000D02*
D03*
X4075000D02*
D03*
X3975000D02*
D03*
X3875000D02*
D03*
X3775000D02*
D03*
X5975000Y4975000D02*
D03*
X5875000D02*
D03*
X5775000D02*
D03*
X5675000D02*
D03*
X5575000D02*
D03*
X5475000D02*
D03*
X5375000D02*
D03*
X5275000D02*
D03*
X5175000D02*
D03*
X5075000D02*
D03*
X4975000D02*
D03*
X4875000D02*
D03*
X4775000D02*
D03*
X4675000D02*
D03*
X4575000D02*
D03*
X4475000D02*
D03*
X4375000D02*
D03*
X4275000D02*
D03*
X4175000D02*
D03*
X4075000D02*
D03*
X3975000D02*
D03*
X3875000D02*
D03*
Y3075000D02*
D03*
X3975000D02*
D03*
X4075000D02*
D03*
X4175000D02*
D03*
X4275000D02*
D03*
X4375000D02*
D03*
X4475000D02*
D03*
X4575000D02*
D03*
X4675000D02*
D03*
X4775000D02*
D03*
X4875000D02*
D03*
X4975000D02*
D03*
X5075000D02*
D03*
X5175000D02*
D03*
X5275000D02*
D03*
X5375000D02*
D03*
X5475000D02*
D03*
X5575000D02*
D03*
X5675000D02*
D03*
X5775000D02*
D03*
X5875000D02*
D03*
X5975000D02*
D03*
X3775000Y3175000D02*
D03*
X3875000D02*
D03*
X3975000D02*
D03*
X4075000D02*
D03*
X4175000D02*
D03*
X4275000D02*
D03*
X4375000D02*
D03*
X4475000D02*
D03*
X4575000D02*
D03*
X4675000D02*
D03*
X4775000D02*
D03*
X4875000D02*
D03*
X4975000D02*
D03*
X5075000D02*
D03*
X5175000D02*
D03*
X5275000D02*
D03*
X5375000D02*
D03*
X5475000D02*
D03*
X5575000D02*
D03*
X5675000D02*
D03*
X5775000D02*
D03*
X5875000D02*
D03*
X5975000D02*
D03*
D94*
X3775000Y4975000D02*
D03*
Y3075000D02*
D03*
D95*
X6070866Y4767717D02*
D03*
X6039370Y4637795D02*
D03*
X3023622Y3204724D02*
D03*
X3078740D02*
D03*
X6275591Y4574803D02*
D03*
X4775581Y4641723D02*
D03*
X4779518Y4724400D02*
D03*
X5769685Y4221457D02*
D03*
X5425197Y4110236D02*
D03*
X5188976Y4893701D02*
D03*
X5228346D02*
D03*
X4358267Y3964567D02*
D03*
X4208661Y4354331D02*
D03*
X4192905Y3751961D02*
D03*
X3590551Y3259843D02*
D03*
X3562992D02*
D03*
X3535433D02*
D03*
X3507874D02*
D03*
X3314961Y3177165D02*
D03*
X3287402D02*
D03*
X3259843D02*
D03*
X3232284D02*
D03*
X3204724D02*
D03*
X3122047Y3543307D02*
D03*
Y3594488D02*
D03*
Y3566929D02*
D03*
X3177165Y3177165D02*
D03*
X4618110Y4074803D02*
D03*
X4535433Y4724409D02*
D03*
X4196850Y3346457D02*
D03*
X4011811Y3448819D02*
D03*
X4027559Y3381890D02*
D03*
X4988189Y4019685D02*
D03*
X4909449Y4153543D02*
D03*
Y3921260D02*
D03*
X4531496Y4118110D02*
D03*
X3748032Y4885827D02*
D03*
X3746063Y4746063D02*
D03*
X5322835Y4437008D02*
D03*
X5035433Y4464567D02*
D03*
X5041339Y4225394D02*
D03*
X5000000Y3610236D02*
D03*
X5370079Y3500000D02*
D03*
X5240158Y3535433D02*
D03*
X5929134Y4637795D02*
D03*
X5880905Y4262795D02*
D03*
X5638779Y4507874D02*
D03*
X5153543Y4488189D02*
D03*
X5909449Y3500000D02*
D03*
X5536417Y3896653D02*
D03*
X5525862Y3633051D02*
D03*
X4946233Y4529528D02*
D03*
X5124016Y4161417D02*
D03*
X5122047Y3917323D02*
D03*
X6145669Y4712598D02*
D03*
X5606299Y4267717D02*
D03*
X5874016Y3866142D02*
D03*
X6181102Y3448819D02*
D03*
X5673228Y4039370D02*
D03*
X5578729Y3342513D02*
D03*
X5230933Y4220472D02*
D03*
X5161417Y4248032D02*
D03*
X4883240Y4529528D02*
D03*
X4990157Y3935039D02*
D03*
X5129921Y3625984D02*
D03*
X6381890Y4618110D02*
D03*
X6196850Y4314961D02*
D03*
X6181102Y4893701D02*
D03*
X6177165Y4724409D02*
D03*
X5929134Y4885827D02*
D03*
X5794291Y4490158D02*
D03*
Y4450787D02*
D03*
X6125984Y4295276D02*
D03*
X5795276Y4401575D02*
D03*
X6199803Y4127953D02*
D03*
X6197835Y4082677D02*
D03*
X6094488Y4153543D02*
D03*
X6072725Y4139764D02*
D03*
X5696850Y4885827D02*
D03*
X5464567D02*
D03*
X5734252Y4635827D02*
D03*
X5178150Y4711614D02*
D03*
X5295276Y4692913D02*
D03*
X5196850Y4484252D02*
D03*
X4946233Y4403543D02*
D03*
X5091535Y4251968D02*
D03*
X5059055Y4165354D02*
D03*
X6275591Y4082677D02*
D03*
X6200787Y4058071D02*
D03*
X6201772Y4007874D02*
D03*
X6188976Y3830709D02*
D03*
X6125010Y3965278D02*
D03*
X6275591Y3559055D02*
D03*
X6173228Y3255905D02*
D03*
X5925197D02*
D03*
X5798228Y3792323D02*
D03*
X5566929Y4056102D02*
D03*
X5798228Y3744095D02*
D03*
X5797244Y3696850D02*
D03*
X5051181Y3960630D02*
D03*
X5062992Y3893701D02*
D03*
X5586614Y3543307D02*
D03*
X5665354Y3393701D02*
D03*
X5696850Y3255905D02*
D03*
X5173228Y3429134D02*
D03*
X5476378Y3409449D02*
D03*
X5436997Y3377946D02*
D03*
X5456693Y3255905D02*
D03*
X5228346D02*
D03*
X4988189D02*
D03*
X4729331Y4311024D02*
D03*
X3370079Y3255905D02*
D03*
X3325197Y3254331D02*
D03*
X3338583Y3094488D02*
D03*
X5358268Y4405512D02*
D03*
X5291522Y4185223D02*
D03*
X3279528Y3248032D02*
D03*
X5208661Y3960630D02*
D03*
X4830699Y3850386D02*
D03*
X4748032Y3854331D02*
D03*
X5807087Y4362205D02*
D03*
X6139764Y4765748D02*
D03*
X5931102Y4685039D02*
D03*
X5822835Y4807087D02*
D03*
X5921260Y4555118D02*
D03*
X5907480Y3580709D02*
D03*
X5881890Y3342520D02*
D03*
X5125984Y4570866D02*
D03*
X3578740Y4948819D02*
D03*
X3570866Y5074803D02*
D03*
X4530512Y3872047D02*
D03*
X4098425Y3267716D02*
D03*
X4055118Y3279528D02*
D03*
X5535433Y3496063D02*
D03*
X5681102Y4005905D02*
D03*
X5543307Y4157480D02*
D03*
X5582677Y4125984D02*
D03*
X4724409Y3803150D02*
D03*
X4440945Y3972441D02*
D03*
X4374016Y3933071D02*
D03*
X4204724Y4062992D02*
D03*
X4291339Y3976378D02*
D03*
X3527559Y3429134D02*
D03*
X3401575Y3484252D02*
D03*
X3437008Y3543307D02*
D03*
X3374016Y3586614D02*
D03*
X3330315Y3617716D02*
D03*
X3051181Y3204724D02*
D03*
X3570866Y3055118D02*
D03*
X3594488D02*
D03*
X3618110D02*
D03*
X3547244D02*
D03*
X3818898Y3267716D02*
D03*
X3842520D02*
D03*
X4015748Y3311024D02*
D03*
X4232283Y3275591D02*
D03*
X4279528Y3279528D02*
D03*
X4637795Y3295276D02*
D03*
X4669291Y3724409D02*
D03*
X4468495Y4822825D02*
D03*
X3196850Y3293531D02*
D03*
X3543307Y4775591D02*
D03*
X4665354Y4437008D02*
D03*
X5897638Y4078740D02*
D03*
X6110224Y4405503D02*
D03*
X6480315Y5311024D02*
D03*
X6484252Y5200787D02*
D03*
X6039370Y4685039D02*
D03*
X6476378Y3311024D02*
D03*
Y3421260D02*
D03*
X5688976Y3862205D02*
D03*
X5606299Y3866142D02*
D03*
X5555118Y4590551D02*
D03*
X4850394Y4610236D02*
D03*
X4795276Y4586614D02*
D03*
X4996063Y4598425D02*
D03*
X5877941Y3976370D02*
D03*
X4736221Y4271654D02*
D03*
Y4248032D02*
D03*
Y4224409D02*
D03*
X5334646Y4519685D02*
D03*
X5740158Y4472441D02*
D03*
X5531496Y4618110D02*
D03*
X5385827Y4539370D02*
D03*
X4724409Y3594488D02*
D03*
X4838583Y3500000D02*
D03*
X4956693Y3539370D02*
D03*
X5098425Y3429134D02*
D03*
X3771653Y3267716D02*
D03*
X3748032D02*
D03*
X4472441Y3397638D02*
D03*
X4464567Y3448819D02*
D03*
X5228336Y3862197D02*
D03*
X4944882Y3736220D02*
D03*
X4937008Y4618110D02*
D03*
X4933071Y3539370D02*
D03*
X4909449D02*
D03*
X4901575Y3610236D02*
D03*
X4944882D02*
D03*
X5015748Y4094488D02*
D03*
X4992126Y4055118D02*
D03*
X5153543Y3944882D02*
D03*
X5192913Y3897638D02*
D03*
X5244084Y3925189D02*
D03*
X5287391Y3937000D02*
D03*
X5326761D02*
D03*
X5362205Y3940945D02*
D03*
X5095472Y4205709D02*
D03*
X4353346Y3520669D02*
D03*
X4342520Y3283465D02*
D03*
X3795276Y3267716D02*
D03*
X3917323Y3484252D02*
D03*
X3893701D02*
D03*
X4637795Y4271654D02*
D03*
X4614173D02*
D03*
X5090551Y4649606D02*
D03*
X4814951Y4700778D02*
D03*
X4342511Y4334637D02*
D03*
X4724400Y4748022D02*
D03*
X4358268Y4370079D02*
D03*
X4590551Y4271654D02*
D03*
X3939961Y3483661D02*
D03*
X4023622Y3417323D02*
D03*
X4161417Y4070866D02*
D03*
X4039370Y4905512D02*
D03*
X4728346Y4570866D02*
D03*
X4724400Y4515739D02*
D03*
X4822825Y4936998D02*
D03*
X4736221Y4901575D02*
D03*
X4724409Y5015748D02*
D03*
X4531487Y4917313D02*
D03*
X4538055Y4945856D02*
D03*
X4637795Y4905512D02*
D03*
X4677165Y4901575D02*
D03*
X4023622Y4952756D02*
D03*
X4425197Y4944882D02*
D03*
X4464567Y4299213D02*
D03*
X4476378Y4862205D02*
D03*
X4251968Y4897638D02*
D03*
X4330709Y4846457D02*
D03*
X4358268Y4877953D02*
D03*
X4322826Y4574794D02*
D03*
X4763779Y4757577D02*
D03*
X4086614Y4901575D02*
D03*
X4078740Y4629921D02*
D03*
X4275591Y4531890D02*
D03*
X4267717Y4456693D02*
D03*
X4405512Y4665354D02*
D03*
X4003937Y4062992D02*
D03*
X4936142Y5020551D02*
D03*
X5031486Y4944872D02*
D03*
X4905512Y4929134D02*
D03*
X5129921Y5007874D02*
D03*
X5161417Y4917323D02*
D03*
X4146427Y3129164D02*
D03*
X4511811Y3129921D02*
D03*
X4543298Y3118104D02*
D03*
X5818898Y4051181D02*
D03*
X3244095Y3720472D02*
D03*
X3220472D02*
D03*
X3196850D02*
D03*
X3173228D02*
D03*
X4625984Y3110236D02*
D03*
X4000000Y3122047D02*
D03*
X4047244D02*
D03*
X4110236Y3125984D02*
D03*
X5720472Y3492126D02*
D03*
X3216535Y3366142D02*
D03*
X5681102Y4275591D02*
D03*
X5425197Y3618110D02*
D03*
X5429134Y4775591D02*
D03*
X3929134Y4401575D02*
D03*
X3929126Y4448810D02*
D03*
X3933063Y4129913D02*
D03*
X4637795Y3413386D02*
D03*
X4968504Y4909449D02*
D03*
X5003937Y4897638D02*
D03*
X4279519Y4570857D02*
D03*
X4724409Y4940945D02*
D03*
X4751968Y4602362D02*
D03*
X4307087Y4452756D02*
D03*
X3944882Y3834646D02*
D03*
X4059055Y4086614D02*
D03*
X5196850Y3838583D02*
D03*
X5118110Y4503937D02*
D03*
X5192913Y3661417D02*
D03*
X5287402Y4551181D02*
D03*
X5374016Y3582677D02*
D03*
X4370079Y4637795D02*
D03*
X5803138Y3657473D02*
D03*
X3590551Y4897638D02*
D03*
X3696850Y4893701D02*
D03*
X5637795Y4602362D02*
D03*
X4354331Y3602362D02*
D03*
X4358268Y4405512D02*
D03*
X3377953Y5023622D02*
D03*
X3326772Y5015748D02*
D03*
X3385827Y4905512D02*
D03*
X3322828Y4854321D02*
D03*
X3342520Y4818898D02*
D03*
X6476378Y2948819D02*
D03*
X6472441Y2838583D02*
D03*
X6181102Y3413386D02*
D03*
X6476378Y4838583D02*
D03*
Y4728346D02*
D03*
X6255905Y4645669D02*
D03*
X5562992Y3667323D02*
D03*
D96*
X6535437Y4370081D02*
D03*
Y4133860D02*
D03*
Y4055120D02*
D03*
Y3897640D02*
D03*
Y3661419D02*
D03*
X6496066Y4370081D02*
D03*
X6515752Y4251971D02*
D03*
X6496066Y4133860D02*
D03*
X6515752Y4094490D02*
D03*
X6496066Y4055120D02*
D03*
X6515752Y4015750D02*
D03*
X6496066Y3897640D02*
D03*
X6515752Y3779530D02*
D03*
X6496066Y3661419D02*
D03*
X6456696Y4370081D02*
D03*
X6476381Y4251971D02*
D03*
X6456696Y4133860D02*
D03*
X6476381Y4094490D02*
D03*
X6456696Y4055120D02*
D03*
X6476381Y4015750D02*
D03*
X6456696Y3897640D02*
D03*
X6476381Y3779530D02*
D03*
X6456696Y3661419D02*
D03*
X6417326Y4370081D02*
D03*
X6437011Y4251971D02*
D03*
X6417326Y4133860D02*
D03*
X6437011Y4094490D02*
D03*
X6417326Y4055120D02*
D03*
X6437011Y4015750D02*
D03*
Y3779530D02*
D03*
X6417326Y3661419D02*
D03*
X4224409Y3712599D02*
D03*
X4244095Y4149606D02*
D03*
X4216535Y4153543D02*
D03*
X4248032Y4341087D02*
D03*
X4196842Y4322826D02*
D03*
X4173228Y4433071D02*
D03*
X4074803Y4318898D02*
D03*
X4035425Y4212590D02*
D03*
X3968504Y4275591D02*
D03*
X4279528Y4149606D02*
D03*
X4452756Y4665354D02*
D03*
X4133858Y4881890D02*
D03*
X3891732Y4612205D02*
D03*
X4311024Y3346457D02*
D03*
X5148622Y4063976D02*
D03*
X4566929Y3417323D02*
D03*
Y4283465D02*
D03*
X5003937Y3543307D02*
D03*
X4846457Y4133858D02*
D03*
X4255897Y3539363D02*
D03*
X4212598Y3570866D02*
D03*
X4055118Y3578740D02*
D03*
X4082677Y3586614D02*
D03*
X4125984Y3602362D02*
D03*
X4143701Y3580709D02*
D03*
X4165346Y3602355D02*
D03*
X3937008Y4515748D02*
D03*
X3885819Y3700780D02*
D03*
X3740157Y4685039D02*
D03*
X3913386Y4488189D02*
D03*
X3917323Y3677165D02*
D03*
X3893701Y3661417D02*
D03*
X3771653Y4688976D02*
D03*
X4141732Y4460630D02*
D03*
X4137795Y4500000D02*
D03*
X4039370Y4511811D02*
D03*
X4049212Y4352363D02*
D03*
X4480315Y3645669D02*
D03*
X4496054Y3578733D02*
D03*
X3846457Y3740157D02*
D03*
X4417323Y3830709D02*
D03*
X4460630Y3829134D02*
D03*
X3870079Y3799213D02*
D03*
X4051181Y3606299D02*
D03*
X4295276Y4842520D02*
D03*
X4264764Y4833143D02*
D03*
X4480315Y4488189D02*
D03*
X4397638Y3830709D02*
D03*
X4366142Y4751968D02*
D03*
X4157480Y4035433D02*
D03*
X4106299Y3570866D02*
D03*
X4224409Y3763780D02*
D03*
X5421260Y4720472D02*
D03*
X5463583Y4437992D02*
D03*
%TF.MD5,cc3023e863a7f57c9b43d59c90e42bb8*%
M02*
