G04 Layer_Color=8421504*
%FSLAX26Y26*%
%MOIN*%
%TF.FileFunction,Paste,Top*%
%TF.Part,Single*%
G01*
G75*
%TA.AperFunction,SMDPad,CuDef*%
%ADD10R,0.161417X0.039370*%
%ADD11R,0.039370X0.161417*%
%ADD12R,0.149606X0.039370*%
%ADD13R,0.039370X0.149606*%
%ADD14R,0.031496X0.031496*%
%ADD15R,0.020472X0.020472*%
%ADD16R,0.017716X0.021654*%
%ADD17R,0.021654X0.017716*%
%ADD18R,0.020472X0.020472*%
%ADD19C,0.023622*%
%ADD20O,0.044291X0.008858*%
%ADD21O,0.043779X0.009842*%
%ADD22O,0.044764X0.007874*%
%ADD23O,0.043228X0.010827*%
%ADD24O,0.042598X0.011811*%
%ADD25O,0.029921X0.019685*%
%ADD26O,0.041850X0.012795*%
%ADD27O,0.040945X0.013780*%
%ADD28O,0.039882X0.014764*%
%ADD29O,0.038622X0.015748*%
%ADD30O,0.037126X0.016732*%
%ADD31O,0.035315X0.017716*%
%ADD32O,0.034055X0.018307*%
%ADD33O,0.033071X0.018701*%
%ADD34O,0.031496X0.019291*%
%ADD35O,0.024803X0.020472*%
%ADD36O,0.027953X0.020079*%
%ADD37C,0.020669*%
%ADD38R,0.035433X0.027559*%
%ADD39R,0.051181X0.051181*%
%ADD40R,0.035433X0.062992*%
%ADD41R,0.035433X0.039370*%
%ADD42R,0.015748X0.018898*%
%ADD43R,0.027559X0.035433*%
%ADD44R,0.053150X0.037402*%
%ADD45O,0.015709X0.059055*%
%ADD46O,0.059055X0.015709*%
%ADD47R,0.030000X0.039370*%
%ADD48R,0.025591X0.035433*%
%ADD49R,0.102362X0.037402*%
%ADD50O,0.061024X0.009842*%
%ADD51O,0.009842X0.061024*%
%ADD52R,0.025591X0.019685*%
%ADD53R,0.050000X0.025984*%
%ADD54R,0.040157X0.025984*%
%ADD55R,0.051181X0.051181*%
%ADD56R,0.062992X0.035433*%
%ADD57O,0.074803X0.023622*%
%ADD58R,0.030000X0.045000*%
%ADD59R,0.045000X0.030000*%
%ADD60O,0.055118X0.013780*%
%ADD61R,0.053543X0.057480*%
%ADD62R,0.029528X0.009842*%
%ADD63O,0.031496X0.009842*%
%ADD64O,0.009842X0.031496*%
%ADD65R,0.096457X0.096457*%
%ADD66R,0.031496X0.031496*%
%ADD67O,0.059055X0.015748*%
%ADD68R,0.038583X0.081890*%
%ADD69R,0.019685X0.025591*%
%ADD70R,0.035433X0.025591*%
%ADD71R,0.050000X0.029921*%
%ADD72R,0.023622X0.013780*%
%ADD73R,0.155512X0.059055*%
%ADD74R,0.167323X0.059055*%
%ADD75R,0.019685X0.039370*%
%ADD76R,0.102362X0.023622*%
%TA.AperFunction,Conductor*%
%ADD90R,0.150000X0.153937*%
D10*
X6171260Y3299213D02*
D03*
Y4850394D02*
D03*
X4742126D02*
D03*
Y3299213D02*
D03*
D11*
X6232283Y3360236D02*
D03*
Y4789370D02*
D03*
X4681102D02*
D03*
Y3360236D02*
D03*
D12*
X5929134Y3299213D02*
D03*
X5692913D02*
D03*
X5456693D02*
D03*
X5220472D02*
D03*
X4984252D02*
D03*
X4984252Y4850394D02*
D03*
X5220472D02*
D03*
X5456693D02*
D03*
X5692913D02*
D03*
X5929134D02*
D03*
D13*
X6232283Y4547244D02*
D03*
Y4311024D02*
D03*
Y4074803D02*
D03*
Y3838583D02*
D03*
Y3602362D02*
D03*
X4681102Y4547244D02*
D03*
Y4311024D02*
D03*
Y4074803D02*
D03*
Y3838583D02*
D03*
Y3602362D02*
D03*
D14*
X3673228Y5086614D02*
D03*
Y5023622D02*
D03*
X3618110D02*
D03*
Y5086614D02*
D03*
D15*
X4149606Y4114174D02*
D03*
X4181102D02*
D03*
X4149606Y4149606D02*
D03*
X4181102D02*
D03*
X5503937Y4444882D02*
D03*
X5535433D02*
D03*
X5523622Y4114173D02*
D03*
X5492126D02*
D03*
X5759842Y3503937D02*
D03*
X5791338D02*
D03*
X5779528Y4637795D02*
D03*
X5811024D02*
D03*
X6149606Y4677165D02*
D03*
X6181102D02*
D03*
X5629921Y3370079D02*
D03*
X5661417D02*
D03*
X5633858Y4031496D02*
D03*
X5602362D02*
D03*
X5704724Y4212598D02*
D03*
X5736220D02*
D03*
X5822835Y4086614D02*
D03*
X5854331D02*
D03*
X5724409Y4259842D02*
D03*
X5755905D02*
D03*
X5719498Y4016459D02*
D03*
X5750994D02*
D03*
X4503937Y4696850D02*
D03*
X4472441D02*
D03*
X4149606Y3311024D02*
D03*
X4181102D02*
D03*
X4149606Y3263780D02*
D03*
X4181102D02*
D03*
X5570866Y3850394D02*
D03*
X5539370D02*
D03*
X3113780Y3346457D02*
D03*
X3145276D02*
D03*
X4909449Y3956693D02*
D03*
X4940945D02*
D03*
X4992126Y3960630D02*
D03*
X5023622D02*
D03*
X5460630Y3602362D02*
D03*
X5492126D02*
D03*
X3460236Y3413386D02*
D03*
X3491732D02*
D03*
X5070866Y4141732D02*
D03*
X5102362D02*
D03*
X3468110Y3507874D02*
D03*
X3436614D02*
D03*
X4767717Y4019685D02*
D03*
X4736221D02*
D03*
X5133858Y3692913D02*
D03*
X5165354D02*
D03*
X5157480Y3877953D02*
D03*
X5125984D02*
D03*
X5165354Y4448819D02*
D03*
X5133858D02*
D03*
X5750994Y3882601D02*
D03*
X5719498D02*
D03*
X3661417Y4905512D02*
D03*
X3629921D02*
D03*
X4291339Y4185039D02*
D03*
X4259843D02*
D03*
X4196850D02*
D03*
X4228346D02*
D03*
D16*
X3927165Y4586615D02*
D03*
X3891732D02*
D03*
X5517717Y4023622D02*
D03*
X5553150D02*
D03*
X5450787D02*
D03*
X5486220D02*
D03*
X6185039Y4596457D02*
D03*
X6149606D02*
D03*
X6178159Y3553861D02*
D03*
X6142726D02*
D03*
X6100394Y4803150D02*
D03*
X6135827D02*
D03*
X6185039Y4635827D02*
D03*
X6149606D02*
D03*
X6178159Y3514491D02*
D03*
X6142726D02*
D03*
X6007874Y4773622D02*
D03*
X5972441D02*
D03*
X5687008Y4082677D02*
D03*
X5722441D02*
D03*
X3395669Y4968504D02*
D03*
X3360236D02*
D03*
X4407480Y4751969D02*
D03*
X4442913D02*
D03*
X4407480Y4787402D02*
D03*
X4442913D02*
D03*
X4407480Y3901575D02*
D03*
X4442913D02*
D03*
X4407480Y3937008D02*
D03*
X4442913D02*
D03*
X4836614Y4019685D02*
D03*
X4801181D02*
D03*
X3112205Y3311024D02*
D03*
X3147638D02*
D03*
X3746063Y4858268D02*
D03*
X3710630D02*
D03*
X3710630Y4779528D02*
D03*
X3746063D02*
D03*
X3710630Y4822835D02*
D03*
X3746063D02*
D03*
X3505905Y3338583D02*
D03*
X3470472D02*
D03*
X3497638Y3456693D02*
D03*
X3462205D02*
D03*
X3253937Y3094488D02*
D03*
X3289370D02*
D03*
X4734252Y3976378D02*
D03*
X4769685D02*
D03*
X3505512Y3374016D02*
D03*
X3470079D02*
D03*
X3927165Y3736221D02*
D03*
X3891732D02*
D03*
X5537402Y4476378D02*
D03*
X5501968D02*
D03*
X5564961Y4751968D02*
D03*
X5529528D02*
D03*
X5537401Y3377953D02*
D03*
X5572835D02*
D03*
X6178159Y3593231D02*
D03*
X6142726D02*
D03*
X6149606Y4557087D02*
D03*
X6185039D02*
D03*
X5961624Y3380632D02*
D03*
X5926191D02*
D03*
X5793307Y3618110D02*
D03*
X5757874D02*
D03*
X5857293Y3376695D02*
D03*
X5892726D02*
D03*
D17*
X5051181Y3714567D02*
D03*
Y3750000D02*
D03*
X3673228Y4974409D02*
D03*
Y4938976D02*
D03*
X4629921Y3777559D02*
D03*
Y3742126D02*
D03*
X4633858Y3482284D02*
D03*
Y3446851D02*
D03*
X4629921Y4348425D02*
D03*
Y4312992D02*
D03*
Y3553150D02*
D03*
Y3517717D02*
D03*
Y4419291D02*
D03*
Y4383858D02*
D03*
Y3706693D02*
D03*
Y3671260D02*
D03*
Y4557087D02*
D03*
Y4521654D02*
D03*
X4610236Y3848426D02*
D03*
Y3812992D02*
D03*
Y4698819D02*
D03*
Y4663386D02*
D03*
X4555118Y3482284D02*
D03*
Y3446851D02*
D03*
Y4348425D02*
D03*
Y4312992D02*
D03*
Y3553150D02*
D03*
Y3517717D02*
D03*
Y4419291D02*
D03*
Y4383858D02*
D03*
X4531496Y3840552D02*
D03*
Y3805119D02*
D03*
X4535433Y4690945D02*
D03*
Y4655512D02*
D03*
X3618110Y4974409D02*
D03*
Y4938976D02*
D03*
X4629921Y4454724D02*
D03*
Y4490157D02*
D03*
X4555118Y4454724D02*
D03*
Y4490157D02*
D03*
Y4624016D02*
D03*
Y4588583D02*
D03*
X4629921Y4624016D02*
D03*
Y4588583D02*
D03*
X5645669Y4076772D02*
D03*
Y4112205D02*
D03*
X6059055Y3348425D02*
D03*
Y3383858D02*
D03*
X4555118Y4517717D02*
D03*
Y4553150D02*
D03*
Y3671260D02*
D03*
Y3706693D02*
D03*
X6009842Y3348425D02*
D03*
Y3383858D02*
D03*
X4555118Y3604331D02*
D03*
Y3639764D02*
D03*
Y3777559D02*
D03*
Y3742126D02*
D03*
X4629921Y3604331D02*
D03*
Y3639764D02*
D03*
X4610236Y3895670D02*
D03*
Y3931103D02*
D03*
Y4746063D02*
D03*
Y4781496D02*
D03*
X4531496Y3903543D02*
D03*
Y3938976D02*
D03*
X4531496Y4755906D02*
D03*
Y4791339D02*
D03*
X5366142Y3765748D02*
D03*
Y3801181D02*
D03*
X5362205Y4328740D02*
D03*
Y4364173D02*
D03*
X3279528Y3482283D02*
D03*
Y3517716D02*
D03*
X3330315Y3580709D02*
D03*
Y3545276D02*
D03*
X3314567Y3517717D02*
D03*
Y3482284D02*
D03*
X4885827Y4064961D02*
D03*
Y4029528D02*
D03*
X5055118Y4372047D02*
D03*
Y4336614D02*
D03*
X3507874Y4895669D02*
D03*
Y4931102D02*
D03*
X3543307Y4895669D02*
D03*
Y4931102D02*
D03*
X3570866Y5025591D02*
D03*
Y4990158D02*
D03*
X6078740Y4253937D02*
D03*
Y4289370D02*
D03*
X6077766Y3880632D02*
D03*
Y3916066D02*
D03*
X5681102Y3525591D02*
D03*
Y3490157D02*
D03*
X5464567Y4620079D02*
D03*
Y4655512D02*
D03*
X5496063Y3490157D02*
D03*
Y3454724D02*
D03*
X6177165Y4801181D02*
D03*
Y4765748D02*
D03*
X5793307Y4712599D02*
D03*
Y4677165D02*
D03*
X5803150Y4549212D02*
D03*
Y4584646D02*
D03*
D18*
X5011811Y3748031D02*
D03*
Y3716535D02*
D03*
X4515748Y3637795D02*
D03*
Y3606299D02*
D03*
Y4488189D02*
D03*
Y4456693D02*
D03*
X4594488Y3476378D02*
D03*
Y3444882D02*
D03*
Y4342520D02*
D03*
Y4311024D02*
D03*
X6141732Y3464567D02*
D03*
Y3433071D02*
D03*
X5685039Y3602362D02*
D03*
Y3570866D02*
D03*
X4515748Y4346457D02*
D03*
Y4314961D02*
D03*
Y3480315D02*
D03*
Y3448819D02*
D03*
X4594488Y4488189D02*
D03*
Y4456693D02*
D03*
Y3637795D02*
D03*
Y3606299D02*
D03*
X4590551Y4629921D02*
D03*
Y4598425D02*
D03*
Y3779528D02*
D03*
Y3748032D02*
D03*
X4515748Y4625984D02*
D03*
Y4594488D02*
D03*
Y3519685D02*
D03*
Y3551181D02*
D03*
Y4385827D02*
D03*
Y4417323D02*
D03*
X4519685Y4531496D02*
D03*
Y4562992D02*
D03*
X4496063Y3842520D02*
D03*
Y3874016D02*
D03*
X5704724Y4129921D02*
D03*
Y4161417D02*
D03*
X4570866Y4665355D02*
D03*
Y4696851D02*
D03*
Y3814961D02*
D03*
Y3846457D02*
D03*
X4590551Y4523622D02*
D03*
Y4555118D02*
D03*
X4594488Y3673229D02*
D03*
Y3704725D02*
D03*
X4594488Y4385827D02*
D03*
Y4417323D02*
D03*
Y3519685D02*
D03*
Y3551181D02*
D03*
X4519685Y3677165D02*
D03*
Y3708661D02*
D03*
X4515748Y3771654D02*
D03*
Y3740157D02*
D03*
X4145669Y4759843D02*
D03*
Y4791339D02*
D03*
X4192913Y4775591D02*
D03*
Y4807087D02*
D03*
X4051181Y4759843D02*
D03*
Y4791339D02*
D03*
X4145669Y3909449D02*
D03*
Y3940945D02*
D03*
X4192913Y3925197D02*
D03*
Y3956693D02*
D03*
X4051181Y3909449D02*
D03*
Y3940945D02*
D03*
X3542913Y3354331D02*
D03*
Y3385827D02*
D03*
X4846457Y4078740D02*
D03*
Y4110236D02*
D03*
X5450787Y4713949D02*
D03*
Y4745445D02*
D03*
X5700787Y3933071D02*
D03*
Y3964567D02*
D03*
X3181102Y3326772D02*
D03*
Y3358268D02*
D03*
X3283071Y3590551D02*
D03*
Y3559055D02*
D03*
X5013162Y4391732D02*
D03*
Y4423228D02*
D03*
X4496063Y3937008D02*
D03*
Y3905512D02*
D03*
X4492126Y4771654D02*
D03*
Y4740158D02*
D03*
X5638779Y4566929D02*
D03*
Y4535433D02*
D03*
X5125984Y4267717D02*
D03*
Y4236221D02*
D03*
X4570866Y4779528D02*
D03*
Y4748032D02*
D03*
Y3929134D02*
D03*
Y3897638D02*
D03*
X3373622Y3515748D02*
D03*
Y3547244D02*
D03*
X4240157Y4759843D02*
D03*
Y4791339D02*
D03*
Y3909449D02*
D03*
Y3940945D02*
D03*
X4287401Y4759843D02*
D03*
Y4791339D02*
D03*
Y3909449D02*
D03*
Y3940945D02*
D03*
X4334646Y4759843D02*
D03*
Y4791339D02*
D03*
Y3909449D02*
D03*
Y3940945D02*
D03*
X4114173Y4153543D02*
D03*
Y4185039D02*
D03*
X4098425Y3303150D02*
D03*
Y3334646D02*
D03*
X4279528Y3346457D02*
D03*
Y3314961D02*
D03*
X4232283Y3346457D02*
D03*
Y3314961D02*
D03*
X4066929Y4196850D02*
D03*
Y4165354D02*
D03*
X4051181Y3346457D02*
D03*
Y3314961D02*
D03*
X3937008Y4307087D02*
D03*
Y4275591D02*
D03*
X3933071Y3456693D02*
D03*
Y3425197D02*
D03*
D19*
X4885827Y3995079D02*
D03*
X4838583Y3964567D02*
D03*
X6125984Y4437008D02*
D03*
X6122047Y4496063D02*
D03*
X5748032Y4125984D02*
D03*
Y4173228D02*
D03*
Y3972441D02*
D03*
Y3925197D02*
D03*
X5614173Y4437008D02*
D03*
X5496063Y4748032D02*
D03*
X5001351Y4466535D02*
D03*
X4984252Y4248032D02*
D03*
X5724409Y3622047D02*
D03*
X5815955Y3376695D02*
D03*
X5773622Y4517717D02*
D03*
X3472441Y3287402D02*
D03*
X3149606Y3503937D02*
D03*
X5027559Y3885827D02*
D03*
X5000000Y3673228D02*
D03*
X5500000Y3377953D02*
D03*
X5452756Y3551181D02*
D03*
X6128937Y3639764D02*
D03*
X6161417Y3688976D02*
D03*
X3086614Y3153543D02*
D03*
X5791339Y4744095D02*
D03*
X3456693Y4755905D02*
D03*
D20*
X3507874Y5007382D02*
D03*
Y4992618D02*
D03*
D21*
Y5007874D02*
D03*
Y4992126D02*
D03*
D22*
Y5006890D02*
D03*
Y4993110D02*
D03*
D23*
Y5008366D02*
D03*
Y4991634D02*
D03*
D24*
Y5008858D02*
D03*
Y4991142D02*
D03*
D25*
Y5012795D02*
D03*
Y4987205D02*
D03*
D26*
Y5009350D02*
D03*
Y4990650D02*
D03*
D27*
Y5009842D02*
D03*
Y4990158D02*
D03*
D28*
Y5010335D02*
D03*
Y4989665D02*
D03*
D29*
Y5010827D02*
D03*
Y4989173D02*
D03*
D30*
Y5011319D02*
D03*
Y4988681D02*
D03*
D31*
Y5011811D02*
D03*
Y4988189D02*
D03*
D32*
Y5012106D02*
D03*
Y4987894D02*
D03*
D33*
Y5012303D02*
D03*
Y4987697D02*
D03*
D34*
Y5012598D02*
D03*
Y4987402D02*
D03*
D35*
Y5013189D02*
D03*
Y4986811D02*
D03*
D36*
Y5012992D02*
D03*
Y4987008D02*
D03*
D37*
Y5013287D02*
D03*
Y4986713D02*
D03*
D38*
X3437008Y4968504D02*
D03*
Y4913386D02*
D03*
X4985603Y4297244D02*
D03*
Y4352362D02*
D03*
X4881890Y3649606D02*
D03*
Y3704724D02*
D03*
X4946233Y4435039D02*
D03*
Y4490157D02*
D03*
X4944882Y3704724D02*
D03*
Y3649606D02*
D03*
X3054724Y3303150D02*
D03*
Y3248032D02*
D03*
X4984252Y3842520D02*
D03*
Y3787402D02*
D03*
X4883241Y4490158D02*
D03*
Y4435039D02*
D03*
D39*
X3334646Y4755118D02*
D03*
D40*
X3279724Y4851181D02*
D03*
X3389567D02*
D03*
D41*
X3435039Y5023619D02*
D03*
X3273622D02*
D03*
X3435039Y5086611D02*
D03*
X3273622D02*
D03*
D42*
X4480315Y4581102D02*
D03*
Y4529134D02*
D03*
Y4663780D02*
D03*
Y4611811D02*
D03*
Y3809449D02*
D03*
Y3757480D02*
D03*
Y3726772D02*
D03*
Y3674803D02*
D03*
D43*
X4224409Y4850394D02*
D03*
X4169291D02*
D03*
X4224409Y3996063D02*
D03*
X4169291D02*
D03*
X6291338Y3897638D02*
D03*
X6346457D02*
D03*
X6291339Y4255905D02*
D03*
X6346457D02*
D03*
D44*
X4098425Y3980315D02*
D03*
Y3917323D02*
D03*
Y4830709D02*
D03*
Y4767717D02*
D03*
D45*
X5552165Y3436024D02*
D03*
X5577756D02*
D03*
X5603346D02*
D03*
X5628937D02*
D03*
X5552165Y3595472D02*
D03*
X5577756D02*
D03*
X5603346D02*
D03*
X5628937D02*
D03*
X5585630Y4697835D02*
D03*
X5560039D02*
D03*
X5534449D02*
D03*
X5508858D02*
D03*
X5585630Y4538386D02*
D03*
X5560039D02*
D03*
X5534449D02*
D03*
X5508858D02*
D03*
D46*
X4936024Y4089567D02*
D03*
Y4063976D02*
D03*
Y4038386D02*
D03*
Y4012795D02*
D03*
X5095472Y4089567D02*
D03*
Y4063976D02*
D03*
Y4038386D02*
D03*
Y4012795D02*
D03*
X5132874Y4388780D02*
D03*
Y4363189D02*
D03*
Y4337599D02*
D03*
Y4312008D02*
D03*
X5292323Y4388780D02*
D03*
Y4363189D02*
D03*
Y4337599D02*
D03*
Y4312008D02*
D03*
X5130905Y3821851D02*
D03*
Y3796260D02*
D03*
Y3770669D02*
D03*
Y3745079D02*
D03*
X5290354Y3821851D02*
D03*
Y3796260D02*
D03*
Y3770669D02*
D03*
Y3745079D02*
D03*
D47*
X6132572Y3897913D02*
D03*
Y3788543D02*
D03*
X6172572Y3788543D02*
D03*
Y3897913D02*
D03*
X6133547Y4248468D02*
D03*
Y4357838D02*
D03*
X6173547Y4357838D02*
D03*
Y4248468D02*
D03*
D48*
X6167323Y4192913D02*
D03*
X6129921D02*
D03*
X6092520D02*
D03*
Y4098425D02*
D03*
X6167323D02*
D03*
D49*
X3590158Y3102362D02*
D03*
Y3212598D02*
D03*
X3204331Y3677165D02*
D03*
Y3566929D02*
D03*
D50*
X4422244Y3482284D02*
D03*
Y3501969D02*
D03*
Y3521654D02*
D03*
Y3541339D02*
D03*
Y3561024D02*
D03*
Y3580709D02*
D03*
Y3600394D02*
D03*
Y3620079D02*
D03*
Y3639764D02*
D03*
Y3659449D02*
D03*
Y3679134D02*
D03*
Y3698819D02*
D03*
Y3718504D02*
D03*
Y3738189D02*
D03*
Y3757874D02*
D03*
Y3777559D02*
D03*
X3987205D02*
D03*
Y3757874D02*
D03*
Y3738189D02*
D03*
Y3718504D02*
D03*
Y3698819D02*
D03*
Y3679134D02*
D03*
Y3659449D02*
D03*
Y3639764D02*
D03*
Y3620079D02*
D03*
Y3600394D02*
D03*
Y3580709D02*
D03*
Y3561024D02*
D03*
Y3541339D02*
D03*
Y3521654D02*
D03*
Y3501969D02*
D03*
Y3482284D02*
D03*
X4422244Y4332678D02*
D03*
Y4352363D02*
D03*
Y4372048D02*
D03*
Y4391733D02*
D03*
Y4411418D02*
D03*
Y4431103D02*
D03*
Y4450788D02*
D03*
Y4470473D02*
D03*
Y4490158D02*
D03*
Y4509843D02*
D03*
Y4529528D02*
D03*
Y4549213D02*
D03*
Y4568898D02*
D03*
Y4588583D02*
D03*
Y4608268D02*
D03*
Y4627953D02*
D03*
X3987205D02*
D03*
Y4608268D02*
D03*
Y4588583D02*
D03*
Y4568898D02*
D03*
Y4549213D02*
D03*
Y4529528D02*
D03*
Y4509843D02*
D03*
Y4490158D02*
D03*
Y4470473D02*
D03*
Y4450788D02*
D03*
Y4431103D02*
D03*
Y4411418D02*
D03*
Y4391733D02*
D03*
Y4372048D02*
D03*
Y4352363D02*
D03*
Y4332678D02*
D03*
D51*
X4352362Y3847441D02*
D03*
X4332677D02*
D03*
X4312992D02*
D03*
X4293307D02*
D03*
X4273622D02*
D03*
X4253937D02*
D03*
X4234252D02*
D03*
X4214567D02*
D03*
X4194882D02*
D03*
X4175197D02*
D03*
X4155512D02*
D03*
X4135827D02*
D03*
X4116142D02*
D03*
X4096457D02*
D03*
X4076772D02*
D03*
X4057086D02*
D03*
Y3412402D02*
D03*
X4076772D02*
D03*
X4096457D02*
D03*
X4116142D02*
D03*
X4135827D02*
D03*
X4155512D02*
D03*
X4175197D02*
D03*
X4194882D02*
D03*
X4214567D02*
D03*
X4234252D02*
D03*
X4253937D02*
D03*
X4273622D02*
D03*
X4293307D02*
D03*
X4312992D02*
D03*
X4332677D02*
D03*
X4352362D02*
D03*
Y4697835D02*
D03*
X4332677D02*
D03*
X4312992D02*
D03*
X4293307D02*
D03*
X4273622D02*
D03*
X4253937D02*
D03*
X4234252D02*
D03*
X4214567D02*
D03*
X4194882D02*
D03*
X4175197D02*
D03*
X4155512D02*
D03*
X4135827D02*
D03*
X4116142D02*
D03*
X4096457D02*
D03*
X4076772D02*
D03*
X4057086D02*
D03*
Y4262796D02*
D03*
X4076772D02*
D03*
X4096457D02*
D03*
X4116142D02*
D03*
X4135827D02*
D03*
X4155512D02*
D03*
X4175197D02*
D03*
X4194882D02*
D03*
X4214567D02*
D03*
X4234252D02*
D03*
X4253937D02*
D03*
X4273622D02*
D03*
X4293307D02*
D03*
X4312992D02*
D03*
X4332677D02*
D03*
X4352362D02*
D03*
D52*
X5662402Y3742126D02*
D03*
Y3690945D02*
D03*
X5739173Y3716535D02*
D03*
D53*
X5851572Y3737273D02*
D03*
Y3687930D02*
D03*
Y3638586D02*
D03*
Y3786617D02*
D03*
X5843698Y4449872D02*
D03*
Y4400528D02*
D03*
Y4351184D02*
D03*
Y4499216D02*
D03*
D54*
X6066729Y3786617D02*
D03*
Y3737273D02*
D03*
Y3687930D02*
D03*
Y3638586D02*
D03*
X6058855Y4499216D02*
D03*
Y4449872D02*
D03*
Y4400528D02*
D03*
Y4351184D02*
D03*
D55*
X4918110Y3842520D02*
D03*
X4919461Y4297244D02*
D03*
D56*
X4822047Y3787598D02*
D03*
Y3897441D02*
D03*
X4823398Y4242323D02*
D03*
Y4352165D02*
D03*
D57*
X5823829Y4000908D02*
D03*
Y3950908D02*
D03*
Y3900908D02*
D03*
Y3850908D02*
D03*
X6008868Y4000908D02*
D03*
Y3950908D02*
D03*
Y3900908D02*
D03*
Y3850908D02*
D03*
X5824803Y4287598D02*
D03*
Y4237598D02*
D03*
Y4187598D02*
D03*
Y4137598D02*
D03*
X6009842Y4287598D02*
D03*
Y4237598D02*
D03*
Y4187598D02*
D03*
Y4137598D02*
D03*
D58*
X3204331Y3510827D02*
D03*
Y3418307D02*
D03*
D59*
X3406496Y3212599D02*
D03*
X3499016D02*
D03*
D60*
X6090551Y4561024D02*
D03*
Y4586614D02*
D03*
Y4612205D02*
D03*
Y4637795D02*
D03*
Y4663386D02*
D03*
Y4688976D02*
D03*
Y4714567D02*
D03*
X5870079Y4561024D02*
D03*
Y4586614D02*
D03*
Y4612205D02*
D03*
Y4637795D02*
D03*
Y4663386D02*
D03*
Y4688976D02*
D03*
Y4714567D02*
D03*
X6074803Y3427165D02*
D03*
Y3452756D02*
D03*
Y3478346D02*
D03*
Y3503937D02*
D03*
Y3529528D02*
D03*
Y3555118D02*
D03*
Y3580709D02*
D03*
X5854331Y3427165D02*
D03*
Y3452756D02*
D03*
Y3478346D02*
D03*
Y3503937D02*
D03*
Y3529528D02*
D03*
Y3555118D02*
D03*
Y3580709D02*
D03*
D61*
X3602362Y4834646D02*
D03*
D62*
X3543307Y4864173D02*
D03*
Y4844488D02*
D03*
Y4824803D02*
D03*
Y4805118D02*
D03*
X3661417D02*
D03*
Y4824803D02*
D03*
Y4844488D02*
D03*
Y4864173D02*
D03*
D63*
X3259449Y3419291D02*
D03*
Y3399606D02*
D03*
Y3379921D02*
D03*
Y3360236D02*
D03*
Y3340551D02*
D03*
Y3320866D02*
D03*
X3409055D02*
D03*
Y3340551D02*
D03*
Y3360236D02*
D03*
Y3379921D02*
D03*
Y3399606D02*
D03*
Y3419291D02*
D03*
D64*
X3285039Y3295276D02*
D03*
X3304724D02*
D03*
X3324409D02*
D03*
X3344095D02*
D03*
X3363780D02*
D03*
X3383465D02*
D03*
Y3444882D02*
D03*
X3363780D02*
D03*
X3344095D02*
D03*
X3324409D02*
D03*
X3304724D02*
D03*
X3285039D02*
D03*
D65*
X3334252Y3370079D02*
D03*
D66*
X3125984Y3094488D02*
D03*
X3188976D02*
D03*
D67*
X5634842Y3898622D02*
D03*
Y3924213D02*
D03*
Y3949803D02*
D03*
Y3975394D02*
D03*
X5475394Y3898622D02*
D03*
Y3924213D02*
D03*
Y3949803D02*
D03*
Y3975394D02*
D03*
X5642717Y4162401D02*
D03*
Y4187992D02*
D03*
Y4213583D02*
D03*
Y4239173D02*
D03*
X5483268Y4162401D02*
D03*
Y4187992D02*
D03*
Y4213583D02*
D03*
Y4239173D02*
D03*
D68*
X3488583Y3125984D02*
D03*
X3409055D02*
D03*
X3133858Y3425197D02*
D03*
X3054331D02*
D03*
D69*
X5742126Y4432087D02*
D03*
X5690945D02*
D03*
X5716535Y4355315D02*
D03*
D70*
X6083671Y4034176D02*
D03*
Y3996774D02*
D03*
Y3959373D02*
D03*
X6178159D02*
D03*
Y4034176D02*
D03*
D71*
X3602756Y4654921D02*
D03*
Y4604921D02*
D03*
X3302756D02*
D03*
Y4654921D02*
D03*
D72*
X4754921Y4098425D02*
D03*
Y4078740D02*
D03*
Y4059055D02*
D03*
X4812008D02*
D03*
Y4098425D02*
D03*
D73*
X6477362Y3002756D02*
D03*
Y2784646D02*
D03*
Y5364960D02*
D03*
Y5146850D02*
D03*
Y4420079D02*
D03*
Y4201968D02*
D03*
Y3947638D02*
D03*
Y3729528D02*
D03*
Y3475197D02*
D03*
Y3257087D02*
D03*
Y4892520D02*
D03*
Y4674409D02*
D03*
D74*
X6471457Y2893701D02*
D03*
Y5255905D02*
D03*
Y4311024D02*
D03*
Y3838583D02*
D03*
Y3366142D02*
D03*
Y4783465D02*
D03*
D75*
X6318898Y3842520D02*
D03*
Y3716535D02*
D03*
Y4314961D02*
D03*
Y4440945D02*
D03*
D76*
Y3779528D02*
D03*
Y4377953D02*
D03*
D90*
X5983855Y3712602D02*
D03*
X5975981Y4425200D02*
D03*
%TF.MD5,088ce0786427cd93e51dcc541f389e2e*%
M02*
