G04 Layer_Physical_Order=2*
G04 Layer_Color=16440176*
%FSLAX45Y45*%
%MOMM*%
%TF.FileFunction,Copper,L2,Inr,Signal*%
%TF.Part,Single*%
G01*
G75*
%TA.AperFunction,Conductor*%
%ADD59C,0.20000*%
%ADD60C,0.35000*%
%ADD66C,1.00000*%
%TA.AperFunction,ComponentPad*%
%ADD73C,1.40000*%
%ADD74R,1.40000X1.40000*%
%ADD75C,1.52400*%
%ADD76R,1.52400X1.52400*%
%TA.AperFunction,ViaPad*%
%ADD77C,0.45000*%
%ADD78C,0.60000*%
G36*
X15595613Y8801126D02*
X15620000Y8796276D01*
X15657851D01*
X15664638Y8783576D01*
X15659966Y8776583D01*
X15656667Y8760000D01*
X15659966Y8743417D01*
X15669359Y8729359D01*
X15683417Y8719966D01*
X15700000Y8716667D01*
X15716582Y8719966D01*
X15730641Y8729359D01*
X15740034Y8743417D01*
X15743332Y8760000D01*
X15740034Y8776583D01*
X15735362Y8783576D01*
X15742149Y8796276D01*
X15973604D01*
X16036276Y8733604D01*
Y8610000D01*
X16041125Y8585614D01*
X16054939Y8564940D01*
X16114938Y8504941D01*
X16114940Y8504940D01*
X16184940Y8434941D01*
X16184940Y8434940D01*
X16205614Y8421126D01*
X16230000Y8416275D01*
X16230000Y8416276D01*
X16401517D01*
X16406667Y8410000D01*
X16409966Y8393417D01*
X16419359Y8379359D01*
X16433417Y8369966D01*
X16450000Y8366667D01*
X16466583Y8369966D01*
X16480641Y8379359D01*
X16490034Y8393417D01*
X16493333Y8410000D01*
X16498483Y8416276D01*
X16600002D01*
X16624387Y8421126D01*
X16636713Y8429362D01*
X16649413Y8422574D01*
Y7477426D01*
X16636713Y7470638D01*
X16624387Y7478874D01*
X16600002Y7483724D01*
X16498483D01*
X16493333Y7490000D01*
X16490034Y7506583D01*
X16480641Y7520641D01*
X16466583Y7530034D01*
X16450000Y7533333D01*
X16433417Y7530034D01*
X16419359Y7520641D01*
X16409966Y7506583D01*
X16406667Y7490000D01*
X16401517Y7483724D01*
X16220001D01*
X16220000Y7483725D01*
X16195615Y7478874D01*
X16174940Y7465060D01*
X16113605Y7403725D01*
X15786395D01*
X15473724Y7716396D01*
Y8430000D01*
Y8503604D01*
X15552560Y8582440D01*
X15566374Y8603114D01*
X15571225Y8627500D01*
X15571223Y8627501D01*
Y8802148D01*
X15572108Y8803055D01*
X15582735Y8809731D01*
X15595613Y8801126D01*
D02*
G37*
G36*
X16194940Y13224940D02*
X16215613Y13211127D01*
X16239999Y13206274D01*
X16427408D01*
X16429967Y13193417D01*
X16439359Y13179359D01*
X16453416Y13169966D01*
X16470000Y13166667D01*
X16486583Y13169966D01*
X16500641Y13179359D01*
X16510034Y13193417D01*
X16512592Y13206274D01*
X16590001D01*
X16614388Y13211127D01*
X16635062Y13224940D01*
X16636713Y13226591D01*
X16649413Y13221330D01*
Y12277426D01*
X16636713Y12270638D01*
X16624387Y12278874D01*
X16600002Y12283724D01*
X16498483D01*
X16493333Y12290000D01*
X16490034Y12306583D01*
X16480641Y12320641D01*
X16466583Y12330034D01*
X16450000Y12333333D01*
X16433417Y12330034D01*
X16419359Y12320641D01*
X16409966Y12306583D01*
X16406667Y12290000D01*
X16401517Y12283724D01*
X16220000D01*
X16195615Y12278874D01*
X16174940Y12265060D01*
X16124940Y12215060D01*
X16044940Y12135060D01*
X16031126Y12114386D01*
X16026276Y12090000D01*
Y11963724D01*
X15860001D01*
X15835612Y11958874D01*
X15814940Y11945060D01*
X15764941Y11895061D01*
X15764940Y11895060D01*
X15764938Y11895059D01*
X15661104Y11791224D01*
X15597852D01*
X15591063Y11803924D01*
X15598874Y11815614D01*
X15603725Y11840000D01*
X15598874Y11864386D01*
X15585060Y11885060D01*
X15564386Y11898874D01*
X15539999Y11903725D01*
X15382591D01*
X15380034Y11916583D01*
X15370641Y11930641D01*
X15356583Y11940034D01*
X15339999Y11943333D01*
X15323418Y11940034D01*
X15309360Y11930641D01*
X15306956Y11927047D01*
X15294318Y11925802D01*
X15233723Y11986396D01*
Y12027016D01*
X15254387Y12031126D01*
X15275060Y12044940D01*
X15363838Y12133718D01*
X15378474Y12119083D01*
X15376666Y12110000D01*
X15379967Y12093417D01*
X15389359Y12079359D01*
X15403416Y12069966D01*
X15420000Y12066667D01*
X15436583Y12069966D01*
X15450641Y12079359D01*
X15460034Y12093417D01*
X15463333Y12110000D01*
X15460034Y12126583D01*
X15450641Y12140641D01*
X15436583Y12150034D01*
X15420000Y12153333D01*
X15410918Y12151526D01*
X15396281Y12166161D01*
X15415060Y12184940D01*
X15428874Y12205613D01*
X15433725Y12230000D01*
Y12803604D01*
X15916396Y13286275D01*
X16133604D01*
X16194940Y13224940D01*
D02*
G37*
G36*
X16649413Y13467426D02*
X16636713Y13460638D01*
X16624387Y13468874D01*
X16600002Y13473724D01*
X16510104D01*
X16502048Y13483542D01*
X16503333Y13489999D01*
X16500034Y13506583D01*
X16490640Y13520641D01*
X16476582Y13530034D01*
X16460001Y13533333D01*
X16443417Y13530034D01*
X16429359Y13520641D01*
X16419966Y13506583D01*
X16416667Y13489999D01*
X16417952Y13483542D01*
X16409895Y13473724D01*
X16230000D01*
X16205614Y13468874D01*
X16184940Y13455060D01*
X16143604Y13413725D01*
X15889999D01*
X15865613Y13408875D01*
X15844940Y13395061D01*
X15324940Y12875060D01*
X15311127Y12854387D01*
X15306274Y12830000D01*
Y12256396D01*
X15253604Y12203725D01*
X15170000D01*
X15145615Y12198874D01*
X15124940Y12185060D01*
X15111127Y12164386D01*
X15106274Y12140000D01*
Y12090000D01*
Y11960000D01*
X15111127Y11935613D01*
X15124940Y11914940D01*
X15244940Y11794940D01*
X15265613Y11781126D01*
X15289999Y11776276D01*
X15297408D01*
X15299966Y11763417D01*
X15309360Y11749359D01*
X15323418Y11739966D01*
X15339999Y11736667D01*
X15353171Y11739287D01*
X15364500Y11731145D01*
X15363776Y11727500D01*
Y11708352D01*
X15361127Y11704387D01*
X15356274Y11680000D01*
X15361127Y11655613D01*
X15374940Y11634940D01*
X15395613Y11621126D01*
X15420000Y11616275D01*
X15700000D01*
X15724387Y11621126D01*
X15745061Y11634940D01*
X15775060Y11664940D01*
X15788873Y11685614D01*
X15793726Y11710000D01*
Y11743604D01*
X15838840Y11788718D01*
X15843777Y11783778D01*
X15851221Y11778805D01*
X15853326Y11778386D01*
X15859360Y11769359D01*
X15873418Y11759966D01*
X15889999Y11756667D01*
X15906583Y11759966D01*
X15920641Y11769359D01*
X15930034Y11783417D01*
X15933333Y11800000D01*
X15930034Y11816583D01*
X15925362Y11823575D01*
X15932150Y11836275D01*
X16070000D01*
X16094386Y11841126D01*
X16115060Y11854940D01*
X16135060Y11874940D01*
X16148874Y11895614D01*
X16153725Y11920000D01*
Y12026275D01*
X16399895D01*
X16407951Y12016458D01*
X16406667Y12010000D01*
X16409966Y11993417D01*
X16419359Y11979359D01*
X16433417Y11969966D01*
X16450000Y11966667D01*
X16466583Y11969966D01*
X16480641Y11979359D01*
X16490034Y11993417D01*
X16493333Y12010000D01*
X16492049Y12016458D01*
X16500105Y12026275D01*
X16600002D01*
X16624387Y12031126D01*
X16636713Y12039362D01*
X16649413Y12032574D01*
Y8667426D01*
X16636713Y8660638D01*
X16624387Y8668874D01*
X16600002Y8673725D01*
X16500105D01*
X16492049Y8683542D01*
X16493333Y8690000D01*
X16490034Y8706583D01*
X16480641Y8720641D01*
X16466583Y8730034D01*
X16450000Y8733333D01*
X16433417Y8730034D01*
X16419359Y8720641D01*
X16409966Y8706583D01*
X16406667Y8690000D01*
X16407951Y8683542D01*
X16399895Y8673725D01*
X16163725D01*
Y8760000D01*
X16158875Y8784387D01*
X16145061Y8805060D01*
X16045061Y8905060D01*
X16024387Y8918874D01*
X16000000Y8923725D01*
X15876396D01*
X15785060Y9015060D01*
X15764388Y9028874D01*
X15739999Y9033725D01*
X15370000D01*
X15345615Y9028874D01*
X15324940Y9015060D01*
X15311127Y8994386D01*
X15306274Y8970000D01*
X15311127Y8945614D01*
X15324940Y8924940D01*
X15345615Y8911126D01*
X15370000Y8906276D01*
X15379640D01*
X15380000Y8893725D01*
X15355614Y8888874D01*
X15334940Y8875060D01*
X15321126Y8854386D01*
X15316275Y8830000D01*
Y8646396D01*
X15254939Y8585060D01*
X15241125Y8564386D01*
X15236275Y8540000D01*
X15241125Y8515613D01*
X15254939Y8494940D01*
X15346275Y8403604D01*
Y7690000D01*
X15351126Y7665614D01*
X15362939Y7647934D01*
X15354977Y7637485D01*
X15349762Y7639646D01*
X15346808Y7640233D01*
X15344025Y7641386D01*
X15305571Y7649036D01*
X15303304D01*
X15301105Y7649586D01*
X15281500Y7650549D01*
X15280746Y7650438D01*
X15280000Y7650586D01*
X8127943Y7650587D01*
X8096653Y7650586D01*
X8034607Y7658755D01*
X7974162Y7674952D01*
X7916345Y7698903D01*
X7862152Y7730194D01*
X7812505Y7768292D01*
X7768258Y7812545D01*
X7730164Y7862196D01*
X7698878Y7916394D01*
X7674936Y7974211D01*
X7658744Y8034662D01*
X7650583Y8096705D01*
X7650586Y8127996D01*
X7650586Y8127998D01*
X7650586Y8128000D01*
X7650587Y9588500D01*
X7650584Y9588512D01*
X7650587Y9588524D01*
X7650579Y9598019D01*
X7654273Y9616648D01*
X7661534Y9634197D01*
X7672081Y9649989D01*
X7685511Y9663419D01*
X7701303Y9673966D01*
X7718851Y9681227D01*
X7737480Y9684921D01*
X7746976Y9684913D01*
X7746988Y9684915D01*
X7747000Y9684913D01*
X9651999Y9684914D01*
X9663704Y9687242D01*
X9673628Y9693872D01*
X9680258Y9703796D01*
X9682586Y9715501D01*
Y11492705D01*
X9683672Y11493826D01*
X9686172Y11496327D01*
X9688713Y11498785D01*
X9689998Y11499999D01*
X9689615Y11505840D01*
X9684783Y11516504D01*
X9676504Y11524782D01*
X9665840Y11529615D01*
X9660000Y11529998D01*
X9659999Y11529999D01*
X9648174Y11524086D01*
X8318499Y11524086D01*
X8318496Y11524086D01*
X8318494Y11524086D01*
X8308999Y11524085D01*
X8290371Y11527788D01*
X8272825Y11535054D01*
X8257035Y11545604D01*
X8243605Y11559034D01*
X8233054Y11574825D01*
X8225788Y11592372D01*
X8222085Y11610999D01*
X8222086Y11620494D01*
X8222086Y11620497D01*
X8222086Y11620499D01*
X8222085Y12953877D01*
X8222154Y12963271D01*
X8225999Y12981870D01*
X8233400Y12999359D01*
X8244074Y13015070D01*
X8257608Y13028392D01*
X8273484Y13038817D01*
X8291089Y13045943D01*
X8309746Y13049493D01*
X8319242Y13049416D01*
X8319370Y13049438D01*
X8319498Y13049414D01*
X15280000Y13049414D01*
X15280746Y13049562D01*
X15281500Y13049451D01*
X15301103Y13050414D01*
X15303302Y13050964D01*
X15305569D01*
X15344023Y13058612D01*
X15346806Y13059766D01*
X15349762Y13060353D01*
X15385983Y13075356D01*
X15388487Y13077029D01*
X15391273Y13078181D01*
X15423872Y13099965D01*
X15426003Y13102095D01*
X15428508Y13103769D01*
X15456232Y13131493D01*
X15457906Y13133997D01*
X15460036Y13136127D01*
X15481818Y13168727D01*
X15482970Y13171510D01*
X15484644Y13174014D01*
X15499648Y13210239D01*
X15500235Y13213193D01*
X15501389Y13215976D01*
X15509036Y13254430D01*
Y13256697D01*
X15509587Y13258897D01*
X15510548Y13278500D01*
X15510439Y13279253D01*
X15510587Y13280000D01*
X15510587Y13580000D01*
X15510587Y13592746D01*
X15515559Y13617749D01*
X15525314Y13641301D01*
X15539478Y13662497D01*
X15557503Y13680522D01*
X15578699Y13694685D01*
X15602251Y13704440D01*
X15627252Y13709413D01*
X15639998Y13709413D01*
X16649413Y13709415D01*
Y13467426D01*
D02*
G37*
G36*
X15714940Y7294940D02*
X15735614Y7281126D01*
X15760001Y7276276D01*
X16163605D01*
X16214938Y7224941D01*
X16214940Y7224940D01*
X16235614Y7211126D01*
X16260001Y7206275D01*
X16260001Y7206275D01*
X16397408D01*
X16399966Y7193417D01*
X16409360Y7179359D01*
X16423418Y7169966D01*
X16439999Y7166667D01*
X16456583Y7169966D01*
X16470641Y7179359D01*
X16480034Y7193417D01*
X16482591Y7206275D01*
X16600002D01*
X16624387Y7211126D01*
X16636713Y7219362D01*
X16649413Y7212574D01*
Y6990586D01*
X15739999Y6990587D01*
X15717403Y6990586D01*
X15673080Y6999403D01*
X15631331Y7016696D01*
X15593756Y7041803D01*
X15561803Y7073757D01*
X15536696Y7111331D01*
X15519402Y7153082D01*
X15510587Y7197403D01*
X15510587Y7219999D01*
X15510587Y7419999D01*
X15510439Y7420747D01*
X15510550Y7421503D01*
X15509586Y7441104D01*
X15509035Y7443303D01*
Y7445569D01*
X15501385Y7484022D01*
X15500233Y7486805D01*
X15499646Y7489760D01*
X15497626Y7494640D01*
X15508183Y7501695D01*
X15714940Y7294940D01*
D02*
G37*
%LPC*%
G36*
X15610001Y12013333D02*
X15593417Y12010034D01*
X15579359Y12000641D01*
X15569966Y11986583D01*
X15566667Y11970000D01*
X15569966Y11953417D01*
X15579359Y11939359D01*
X15593417Y11929966D01*
X15610001Y11926667D01*
X15626582Y11929966D01*
X15640640Y11939359D01*
X15650034Y11953417D01*
X15653333Y11970000D01*
X15650034Y11986583D01*
X15640640Y12000641D01*
X15626582Y12010034D01*
X15610001Y12013333D01*
D02*
G37*
G36*
X15595000Y12148333D02*
X15578418Y12145034D01*
X15564360Y12135641D01*
X15554967Y12121583D01*
X15551668Y12105000D01*
X15554967Y12088418D01*
X15564360Y12074359D01*
X15578418Y12064966D01*
X15595000Y12061668D01*
X15611583Y12064966D01*
X15625641Y12074359D01*
X15635036Y12088418D01*
X15638333Y12105000D01*
X15635036Y12121583D01*
X15625641Y12135641D01*
X15611583Y12145034D01*
X15595000Y12148333D01*
D02*
G37*
G36*
X10480000Y9185685D02*
X10466344Y9182969D01*
X10454766Y9175233D01*
X10447031Y9163656D01*
X10444314Y9150000D01*
X10447031Y9136343D01*
X10454766Y9124766D01*
X10466344Y9117031D01*
X10480000Y9114314D01*
X10481242Y9114561D01*
X10482745Y9113739D01*
X10491017Y9103556D01*
X10489315Y9095000D01*
X10492031Y9081344D01*
X10499767Y9069766D01*
X10511344Y9062031D01*
X10525000Y9059314D01*
X10538657Y9062031D01*
X10550234Y9069766D01*
X10557969Y9081344D01*
X10560686Y9095000D01*
X10558276Y9107115D01*
X10562574Y9112402D01*
X10567865Y9116706D01*
X10579979Y9114296D01*
X10593635Y9117012D01*
X10605212Y9124748D01*
X10612948Y9136325D01*
X10615665Y9149982D01*
X10612948Y9163638D01*
X10605212Y9175215D01*
X10593635Y9182951D01*
X10579979Y9185667D01*
X10566323Y9182951D01*
X10554745Y9175215D01*
X10547010Y9163638D01*
X10544293Y9149982D01*
X10546703Y9137867D01*
X10542405Y9132580D01*
X10537114Y9128276D01*
X10525000Y9130686D01*
X10523758Y9130438D01*
X10522256Y9131261D01*
X10513984Y9141443D01*
X10515686Y9150000D01*
X10512969Y9163656D01*
X10505234Y9175233D01*
X10493656Y9182969D01*
X10480000Y9185685D01*
D02*
G37*
G36*
X15005000Y9138332D02*
X14988417Y9135034D01*
X14974359Y9125641D01*
X14964964Y9111582D01*
X14961667Y9095000D01*
X14964964Y9078417D01*
X14974359Y9064359D01*
X14988417Y9054966D01*
X15005000Y9051667D01*
X15021582Y9054966D01*
X15035640Y9064359D01*
X15045033Y9078417D01*
X15048332Y9095000D01*
X15045033Y9111582D01*
X15035640Y9125641D01*
X15021582Y9135034D01*
X15005000Y9138332D01*
D02*
G37*
G36*
X12560000Y9213333D02*
X12543417Y9210034D01*
X12529359Y9200641D01*
X12519966Y9186583D01*
X12516667Y9170000D01*
X12519966Y9153417D01*
X12529359Y9139359D01*
X12543417Y9129966D01*
X12560000Y9126667D01*
X12576583Y9129966D01*
X12590641Y9139359D01*
X12600034Y9153417D01*
X12603333Y9170000D01*
X12600034Y9186583D01*
X12590641Y9200641D01*
X12576583Y9210034D01*
X12560000Y9213333D01*
D02*
G37*
G36*
X12450000D02*
X12433417Y9210034D01*
X12419359Y9200641D01*
X12409966Y9186583D01*
X12406667Y9170000D01*
X12409966Y9153417D01*
X12419359Y9139359D01*
X12433417Y9129966D01*
X12450000Y9126667D01*
X12466583Y9129966D01*
X12480641Y9139359D01*
X12490034Y9153417D01*
X12493333Y9170000D01*
X12490034Y9186583D01*
X12480641Y9200641D01*
X12466583Y9210034D01*
X12450000Y9213333D01*
D02*
G37*
G36*
X10700000Y9105686D02*
X10686344Y9102969D01*
X10674766Y9095234D01*
X10667031Y9083656D01*
X10664314Y9070000D01*
X10667031Y9056344D01*
X10674766Y9044766D01*
X10686344Y9037031D01*
X10700000Y9034314D01*
X10713656Y9037031D01*
X10725234Y9044766D01*
X10732969Y9056344D01*
X10735686Y9070000D01*
X10732969Y9083656D01*
X10725234Y9095234D01*
X10713656Y9102969D01*
X10700000Y9105686D01*
D02*
G37*
G36*
X7930000Y9173333D02*
X7913417Y9170034D01*
X7899359Y9160641D01*
X7889966Y9146583D01*
X7886667Y9130000D01*
X7889966Y9113417D01*
X7899359Y9099359D01*
Y9090640D01*
X7889966Y9076583D01*
X7886667Y9060000D01*
X7889966Y9043417D01*
X7898931Y9030000D01*
X7889966Y9016583D01*
X7886667Y9000000D01*
X7889966Y8983417D01*
X7899359Y8969359D01*
X7913417Y8959966D01*
X7930000Y8956667D01*
X7946583Y8959966D01*
X7960641Y8969359D01*
X7970034Y8983417D01*
X7973333Y9000000D01*
X7970034Y9016583D01*
X7961069Y9030000D01*
X7970034Y9043417D01*
X7973333Y9060000D01*
X7970034Y9076583D01*
X7960641Y9090640D01*
Y9099359D01*
X7970034Y9113417D01*
X7973333Y9130000D01*
X7970034Y9146583D01*
X7960641Y9160641D01*
X7946583Y9170034D01*
X7930000Y9173333D01*
D02*
G37*
G36*
X10809978Y9025668D02*
X10796322Y9022951D01*
X10784745Y9015216D01*
X10777009Y9003638D01*
X10774293Y8989982D01*
X10777009Y8976326D01*
X10784745Y8964748D01*
X10796322Y8957013D01*
X10809978Y8954296D01*
X10823635Y8957013D01*
X10835212Y8964748D01*
X10842948Y8976326D01*
X10845664Y8989982D01*
X10842948Y9003638D01*
X10835212Y9015216D01*
X10823635Y9022951D01*
X10809978Y9025668D01*
D02*
G37*
G36*
X10290000Y9195686D02*
X10276344Y9192969D01*
X10264766Y9185234D01*
X10257031Y9173656D01*
X10254314Y9160000D01*
X10257031Y9146344D01*
X10264766Y9134766D01*
X10272953Y9129296D01*
X10274857Y9115909D01*
X10274766Y9115233D01*
X10267031Y9103656D01*
X10264314Y9090000D01*
X10267031Y9076344D01*
X10274766Y9064766D01*
X10286344Y9057031D01*
X10300000Y9054314D01*
X10313656Y9057031D01*
X10325234Y9064766D01*
X10332969Y9076344D01*
X10333463Y9078824D01*
X10337617Y9081008D01*
X10347262Y9083099D01*
X10356344Y9077031D01*
X10370000Y9074314D01*
X10383656Y9077031D01*
X10394314Y9070000D01*
X10397031Y9056344D01*
X10404766Y9044766D01*
X10416344Y9037031D01*
X10430000Y9034314D01*
X10443656Y9037031D01*
X10455234Y9044766D01*
X10462969Y9056344D01*
X10465686Y9070000D01*
X10462969Y9083656D01*
X10455234Y9095234D01*
X10443656Y9102969D01*
X10430000Y9105686D01*
X10416344Y9102969D01*
X10405686Y9110000D01*
X10402969Y9123656D01*
X10395234Y9135234D01*
X10383656Y9142969D01*
X10370000Y9145686D01*
X10356344Y9142969D01*
X10344766Y9135234D01*
X10337990Y9125092D01*
X10327485Y9121468D01*
X10324646Y9120817D01*
X10316202Y9126647D01*
X10315143Y9134091D01*
X10315234Y9134767D01*
X10322969Y9146344D01*
X10325686Y9160000D01*
X10322969Y9173656D01*
X10315234Y9185234D01*
X10303656Y9192969D01*
X10290000Y9195686D01*
D02*
G37*
G36*
X12590000Y9033333D02*
X12573417Y9030034D01*
X12560000Y9021069D01*
X12546583Y9030034D01*
X12530000Y9033333D01*
X12513417Y9030034D01*
X12500000Y9021069D01*
X12486583Y9030034D01*
X12470000Y9033333D01*
X12453417Y9030034D01*
X12439359Y9020641D01*
X12429966Y9006583D01*
X12426667Y8990000D01*
X12429966Y8973417D01*
X12439359Y8959359D01*
X12453417Y8949966D01*
X12470000Y8946667D01*
X12486583Y8949966D01*
X12500000Y8958931D01*
X12513417Y8949966D01*
X12530000Y8946667D01*
X12546583Y8949966D01*
X12560000Y8958931D01*
X12573417Y8949966D01*
X12590000Y8946667D01*
X12606583Y8949966D01*
X12620641Y8959359D01*
X12630034Y8973417D01*
X12633333Y8990000D01*
X12630034Y9006583D01*
X12620641Y9020641D01*
X12606583Y9030034D01*
X12590000Y9033333D01*
D02*
G37*
G36*
X9869980Y9435667D02*
X9856324Y9432950D01*
X9844747Y9425215D01*
X9837011Y9413638D01*
X9834295Y9399981D01*
X9837011Y9386325D01*
X9844747Y9374748D01*
X9856324Y9367012D01*
X9869980Y9364295D01*
X9883637Y9367012D01*
X9895214Y9374748D01*
X9902949Y9386325D01*
X9905666Y9399981D01*
X9902949Y9413638D01*
X9895214Y9425215D01*
X9883637Y9432950D01*
X9869980Y9435667D01*
D02*
G37*
G36*
X9950000Y9375686D02*
X9936344Y9372969D01*
X9924766Y9365234D01*
X9917031Y9353656D01*
X9914314Y9340000D01*
X9903656Y9332969D01*
X9890000Y9335686D01*
X9876344Y9332969D01*
X9864766Y9325234D01*
X9857031Y9313656D01*
X9854314Y9300000D01*
X9857031Y9286344D01*
X9864766Y9274766D01*
X9876344Y9267031D01*
X9890000Y9264314D01*
X9903656Y9267031D01*
X9915234Y9274766D01*
X9922969Y9286344D01*
X9925686Y9300000D01*
X9936344Y9307031D01*
X9950000Y9304314D01*
X9963656Y9307031D01*
X9975234Y9314766D01*
X9982969Y9326344D01*
X9985686Y9340000D01*
X9982969Y9353656D01*
X9975234Y9365234D01*
X9963656Y9372969D01*
X9950000Y9375686D01*
D02*
G37*
G36*
X9770000Y9535686D02*
X9756344Y9532969D01*
X9744766Y9525234D01*
X9737031Y9513656D01*
X9734314Y9500000D01*
X9737031Y9486344D01*
X9744766Y9474766D01*
X9756344Y9467031D01*
X9770000Y9464314D01*
X9783656Y9467031D01*
X9795234Y9474766D01*
X9802969Y9486344D01*
X9805686Y9500000D01*
X9802969Y9513656D01*
X9795234Y9525234D01*
X9783656Y9532969D01*
X9770000Y9535686D01*
D02*
G37*
G36*
X10730000Y9465686D02*
X10716343Y9462969D01*
X10704766Y9455234D01*
X10697030Y9443657D01*
X10694314Y9430000D01*
X10697030Y9416344D01*
X10704766Y9404767D01*
X10716343Y9397031D01*
X10730000Y9394314D01*
X10743656Y9397031D01*
X10755233Y9404767D01*
X10762969Y9416344D01*
X10765685Y9430000D01*
X10762969Y9443657D01*
X10755233Y9455234D01*
X10743656Y9462969D01*
X10730000Y9465686D01*
D02*
G37*
G36*
X14130000Y9358333D02*
X14113417Y9355034D01*
X14099359Y9345641D01*
X14089966Y9331583D01*
X14086667Y9315000D01*
X14089966Y9298417D01*
X14099359Y9284359D01*
X14113417Y9274966D01*
X14130000Y9271667D01*
X14146584Y9274966D01*
X14160641Y9284359D01*
X14170033Y9298417D01*
X14173334Y9315000D01*
X14170033Y9331583D01*
X14160641Y9345641D01*
X14146584Y9355034D01*
X14130000Y9358333D01*
D02*
G37*
G36*
X13030000Y9253333D02*
X13013417Y9250034D01*
X12999359Y9240641D01*
X12989966Y9226583D01*
X12986667Y9210000D01*
X12989966Y9193417D01*
X12999359Y9179359D01*
X13013417Y9169966D01*
X13030000Y9166667D01*
X13046582Y9169966D01*
X13060641Y9179359D01*
X13070033Y9193417D01*
X13073334Y9210000D01*
X13070033Y9226583D01*
X13060641Y9240641D01*
X13046582Y9250034D01*
X13030000Y9253333D01*
D02*
G37*
G36*
X12700000Y9213333D02*
X12683417Y9210034D01*
X12669359Y9200641D01*
X12659966Y9186583D01*
X12656667Y9170000D01*
X12659966Y9153417D01*
X12669359Y9139359D01*
X12683417Y9129966D01*
X12700000Y9126667D01*
X12716583Y9129966D01*
X12730641Y9139359D01*
X12740034Y9153417D01*
X12743333Y9170000D01*
X12740034Y9186583D01*
X12730641Y9200641D01*
X12716583Y9210034D01*
X12700000Y9213333D01*
D02*
G37*
G36*
X14739970Y9333314D02*
X14723389Y9330016D01*
X14709331Y9320622D01*
X14699936Y9306564D01*
X14696638Y9289981D01*
X14699936Y9273399D01*
X14709331Y9259341D01*
X14723389Y9249947D01*
X14739970Y9246649D01*
X14756554Y9249947D01*
X14770612Y9259341D01*
X14780005Y9273399D01*
X14783302Y9289981D01*
X14780005Y9306564D01*
X14770612Y9320622D01*
X14756554Y9330016D01*
X14739970Y9333314D01*
D02*
G37*
G36*
X14035690Y9271283D02*
X14019109Y9267985D01*
X14005049Y9258591D01*
X13995656Y9244533D01*
X13992358Y9227950D01*
X13995656Y9211368D01*
X14005049Y9197310D01*
X14019109Y9187916D01*
X14035690Y9184618D01*
X14052274Y9187916D01*
X14066331Y9197310D01*
X14075723Y9211368D01*
X14079024Y9227950D01*
X14075723Y9244533D01*
X14066331Y9258591D01*
X14052274Y9267985D01*
X14035690Y9271283D01*
D02*
G37*
G36*
X10230000Y8633333D02*
X10213417Y8630034D01*
X10199359Y8620641D01*
X10189966Y8606583D01*
X10186667Y8590000D01*
X10189966Y8573417D01*
X10199359Y8559359D01*
X10213417Y8549966D01*
X10230000Y8546667D01*
X10246583Y8549966D01*
X10260641Y8559359D01*
X10270034Y8573417D01*
X10273333Y8590000D01*
X10270034Y8606583D01*
X10260641Y8620641D01*
X10246583Y8630034D01*
X10230000Y8633333D01*
D02*
G37*
G36*
X10950000Y8535686D02*
X10936344Y8532969D01*
X10924766Y8525234D01*
X10917031Y8513656D01*
X10914314Y8500000D01*
X10917031Y8486344D01*
X10924766Y8474766D01*
X10936344Y8467031D01*
X10950000Y8464314D01*
X10963656Y8467031D01*
X10975234Y8474766D01*
X10982969Y8486344D01*
X10985686Y8500000D01*
X10982969Y8513656D01*
X10975234Y8525234D01*
X10963656Y8532969D01*
X10950000Y8535686D01*
D02*
G37*
G36*
X12950000Y8753333D02*
X12933417Y8750034D01*
X12919359Y8740641D01*
X12909966Y8726583D01*
X12906667Y8710000D01*
X12909966Y8693417D01*
X12919359Y8679359D01*
X12933417Y8669966D01*
X12950000Y8666667D01*
X12966583Y8669966D01*
X12980641Y8679359D01*
X12990034Y8693417D01*
X12993333Y8710000D01*
X12990034Y8726583D01*
X12980641Y8740641D01*
X12966583Y8750034D01*
X12950000Y8753333D01*
D02*
G37*
G36*
X11360000Y8673333D02*
X11343417Y8670034D01*
X11329359Y8660641D01*
X11319966Y8646583D01*
X11316667Y8630000D01*
X11319966Y8613417D01*
X11329359Y8599359D01*
X11343417Y8589966D01*
X11360000Y8586667D01*
X11376583Y8589966D01*
X11390641Y8599359D01*
X11400034Y8613417D01*
X11403333Y8630000D01*
X11400034Y8646583D01*
X11390641Y8660641D01*
X11376583Y8670034D01*
X11360000Y8673333D01*
D02*
G37*
G36*
X10660000Y8543333D02*
X10643417Y8540034D01*
X10629359Y8530641D01*
X10619966Y8516583D01*
X10616667Y8500000D01*
X10619966Y8483417D01*
X10629359Y8469359D01*
X10643417Y8459966D01*
X10660000Y8456667D01*
X10676583Y8459966D01*
X10690641Y8469359D01*
X10700034Y8483417D01*
X10703333Y8500000D01*
X10700034Y8516583D01*
X10690641Y8530641D01*
X10676583Y8540034D01*
X10660000Y8543333D01*
D02*
G37*
G36*
X9760000Y8343333D02*
X9743417Y8340034D01*
X9730000Y8331069D01*
X9716583Y8340034D01*
X9700000Y8343333D01*
X9683417Y8340034D01*
X9670000Y8331069D01*
X9656583Y8340034D01*
X9640000Y8343333D01*
X9623417Y8340034D01*
X9610000Y8331069D01*
X9596583Y8340034D01*
X9580000Y8343333D01*
X9563417Y8340034D01*
X9550000Y8331069D01*
X9536583Y8340034D01*
X9520000Y8343333D01*
X9503417Y8340034D01*
X9489359Y8330641D01*
X9479966Y8316583D01*
X9476667Y8300000D01*
X9479966Y8283417D01*
X9489359Y8269359D01*
X9503417Y8259966D01*
X9520000Y8256667D01*
X9536583Y8259966D01*
X9550000Y8268931D01*
X9563417Y8259966D01*
X9580000Y8256667D01*
X9596583Y8259966D01*
X9610000Y8268931D01*
X9623417Y8259966D01*
X9640000Y8256667D01*
X9656583Y8259966D01*
X9670000Y8268931D01*
X9683417Y8259966D01*
X9700000Y8256667D01*
X9716583Y8259966D01*
X9730000Y8268931D01*
X9743417Y8259966D01*
X9760000Y8256667D01*
X9776583Y8259966D01*
X9790641Y8269359D01*
X9800034Y8283417D01*
X9803333Y8300000D01*
X9800034Y8316583D01*
X9790641Y8330641D01*
X9776583Y8340034D01*
X9760000Y8343333D01*
D02*
G37*
G36*
X11030000Y8383333D02*
X11013417Y8380034D01*
X10999359Y8370641D01*
X10989966Y8356583D01*
X10986667Y8340000D01*
X10989966Y8323417D01*
X10999359Y8309359D01*
X11013417Y8299966D01*
X11030000Y8296667D01*
X11046583Y8299966D01*
X11060641Y8309359D01*
X11070034Y8323417D01*
X11073333Y8340000D01*
X11070034Y8356583D01*
X11060641Y8370641D01*
X11046583Y8380034D01*
X11030000Y8383333D01*
D02*
G37*
G36*
X14939999Y8533333D02*
X14923418Y8530034D01*
X14909360Y8520641D01*
X14899966Y8506583D01*
X14896667Y8490000D01*
X14899966Y8473417D01*
X14909360Y8459359D01*
X14923418Y8449966D01*
X14939999Y8446667D01*
X14956583Y8449966D01*
X14970641Y8459359D01*
X14980034Y8473417D01*
X14983333Y8490000D01*
X14980034Y8506583D01*
X14970641Y8520641D01*
X14956583Y8530034D01*
X14939999Y8533333D01*
D02*
G37*
G36*
X14169971Y8533316D02*
X14153389Y8530017D01*
X14139331Y8520624D01*
X14129938Y8506566D01*
X14126639Y8489983D01*
X14129938Y8473400D01*
X14139331Y8459342D01*
X14153389Y8449949D01*
X14169971Y8446650D01*
X14186554Y8449949D01*
X14200612Y8459342D01*
X14210007Y8473400D01*
X14213304Y8489983D01*
X14210007Y8506566D01*
X14200612Y8520624D01*
X14186554Y8530017D01*
X14169971Y8533316D01*
D02*
G37*
G36*
X9950000Y8893333D02*
X9933417Y8890034D01*
X9920000Y8881069D01*
X9906583Y8890034D01*
X9890000Y8893333D01*
X9873417Y8890034D01*
X9859359Y8880641D01*
X9849966Y8866583D01*
X9846667Y8850000D01*
X9849966Y8833417D01*
X9859359Y8819359D01*
X9873417Y8809966D01*
X9890000Y8806667D01*
X9906583Y8809966D01*
X9920000Y8818931D01*
X9933417Y8809966D01*
X9950000Y8806667D01*
X9966583Y8809966D01*
X9977627Y8817346D01*
X9990918Y8808466D01*
X10007500Y8805167D01*
X10024083Y8808466D01*
X10038141Y8817859D01*
X10047534Y8831917D01*
X10050833Y8848500D01*
X10047534Y8865083D01*
X10038141Y8879141D01*
X10024083Y8888534D01*
X10007500Y8891833D01*
X9990918Y8888534D01*
X9979873Y8881154D01*
X9966583Y8890034D01*
X9950000Y8893333D01*
D02*
G37*
G36*
X15010001Y8933333D02*
X14993417Y8930034D01*
X14979359Y8920641D01*
X14969966Y8906583D01*
X14966667Y8890000D01*
X14969966Y8873417D01*
X14979359Y8859359D01*
X14993417Y8849966D01*
X15010001Y8846667D01*
X15026582Y8849966D01*
X15040640Y8859359D01*
X15050034Y8873417D01*
X15053333Y8890000D01*
X15050034Y8906583D01*
X15040640Y8920641D01*
X15026582Y8930034D01*
X15010001Y8933333D01*
D02*
G37*
G36*
X13310001Y9023333D02*
X13293417Y9020034D01*
X13279359Y9010641D01*
X13269966Y8996583D01*
X13266667Y8980000D01*
X13269966Y8963417D01*
X13279359Y8949359D01*
X13293417Y8939966D01*
X13310001Y8936667D01*
X13326582Y8939966D01*
X13340640Y8949359D01*
X13350034Y8963417D01*
X13353333Y8980000D01*
X13350034Y8996583D01*
X13340640Y9010641D01*
X13326582Y9020034D01*
X13310001Y9023333D01*
D02*
G37*
G36*
X11057500Y8985833D02*
X11040917Y8982534D01*
X11026859Y8973141D01*
X11017466Y8959083D01*
X11014167Y8942500D01*
X11017466Y8925917D01*
X11026859Y8911859D01*
X11040917Y8902466D01*
X11057500Y8899167D01*
X11074083Y8902466D01*
X11088141Y8911859D01*
X11097534Y8925917D01*
X11100833Y8942500D01*
X11097534Y8959083D01*
X11088141Y8973141D01*
X11074083Y8982534D01*
X11057500Y8985833D01*
D02*
G37*
G36*
X13639999Y8933333D02*
X13623418Y8930034D01*
X13609360Y8920641D01*
X13599966Y8906583D01*
X13596667Y8890000D01*
X13599966Y8873417D01*
X13609360Y8859359D01*
X13623418Y8849966D01*
X13639999Y8846667D01*
X13656583Y8849966D01*
X13670641Y8859359D01*
X13680034Y8873417D01*
X13683333Y8890000D01*
X13680034Y8906583D01*
X13670641Y8920641D01*
X13656583Y8930034D01*
X13639999Y8933333D01*
D02*
G37*
G36*
X11340000Y8803333D02*
X11323417Y8800034D01*
X11309359Y8790641D01*
X11299966Y8776583D01*
X11296667Y8760000D01*
X11299966Y8743417D01*
X11309359Y8729359D01*
X11323417Y8719966D01*
X11340000Y8716667D01*
X11356583Y8719966D01*
X11370641Y8729359D01*
X11380034Y8743417D01*
X11383333Y8760000D01*
X11380034Y8776583D01*
X11370641Y8790641D01*
X11356583Y8800034D01*
X11340000Y8803333D01*
D02*
G37*
G36*
X10190000D02*
X10173417Y8800034D01*
X10159359Y8790641D01*
X10149966Y8776583D01*
X10146667Y8760000D01*
X10149966Y8743417D01*
X10159359Y8729359D01*
X10173417Y8719966D01*
X10190000Y8716667D01*
X10206583Y8719966D01*
X10220641Y8729359D01*
X10230034Y8743417D01*
X10233333Y8760000D01*
X10230034Y8776583D01*
X10220641Y8790641D01*
X10206583Y8800034D01*
X10190000Y8803333D01*
D02*
G37*
G36*
X12290000Y8933333D02*
X12273417Y8930034D01*
X12259359Y8920641D01*
X12249966Y8906583D01*
X12246667Y8890000D01*
X12249966Y8873417D01*
X12259359Y8859359D01*
X12273417Y8849966D01*
X12290000Y8846667D01*
X12306583Y8849966D01*
X12320641Y8859359D01*
X12330034Y8873417D01*
X12333333Y8890000D01*
X12330034Y8906583D01*
X12320641Y8920641D01*
X12306583Y8930034D01*
X12290000Y8933333D01*
D02*
G37*
G36*
X14060001Y8923333D02*
X14043417Y8920034D01*
X14029359Y8910641D01*
X14019966Y8896583D01*
X14016667Y8880000D01*
X14019966Y8863417D01*
X14029359Y8849359D01*
X14043417Y8839966D01*
X14060001Y8836667D01*
X14076582Y8839966D01*
X14090640Y8849359D01*
X14100034Y8863417D01*
X14103333Y8880000D01*
X14100034Y8896583D01*
X14090640Y8910641D01*
X14076582Y8920034D01*
X14060001Y8923333D01*
D02*
G37*
G36*
X13620000Y10053333D02*
X13603416Y10050034D01*
X13589359Y10040641D01*
X13579967Y10026583D01*
X13579649Y10024991D01*
X13566167Y10022310D01*
X13560612Y10030621D01*
X13546555Y10040014D01*
X13529973Y10043313D01*
X13513390Y10040014D01*
X13499332Y10030621D01*
X13489938Y10016563D01*
X13486639Y9999980D01*
X13489938Y9983397D01*
X13499332Y9969339D01*
X13513390Y9959946D01*
X13529973Y9956647D01*
X13546555Y9959946D01*
X13560612Y9969339D01*
X13570007Y9983397D01*
X13570323Y9984989D01*
X13583806Y9987670D01*
X13589359Y9979359D01*
X13603416Y9969966D01*
X13620000Y9966667D01*
X13636583Y9969966D01*
X13650641Y9979359D01*
X13660034Y9993417D01*
X13663333Y10010000D01*
X13660034Y10026583D01*
X13650641Y10040641D01*
X13636583Y10050034D01*
X13620000Y10053333D01*
D02*
G37*
G36*
X9800000Y10183212D02*
X9778463Y10180377D01*
X9758394Y10172064D01*
X9741160Y10158840D01*
X9727936Y10141606D01*
X9719623Y10121537D01*
X9716788Y10100000D01*
X9719623Y10078463D01*
X9727936Y10058394D01*
X9741160Y10041161D01*
X9758394Y10027937D01*
X9778463Y10019624D01*
X9800000Y10016788D01*
X9821537Y10019624D01*
X9841606Y10027937D01*
X9858840Y10041161D01*
X9872064Y10058394D01*
X9880376Y10078463D01*
X9883212Y10100000D01*
X9880376Y10121537D01*
X9872064Y10141606D01*
X9858840Y10158840D01*
X9841606Y10172064D01*
X9821537Y10180377D01*
X9800000Y10183212D01*
D02*
G37*
G36*
X10900000Y10143333D02*
X10883417Y10140034D01*
X10869359Y10130641D01*
X10859966Y10116583D01*
X10856667Y10100000D01*
X10859966Y10083417D01*
X10869359Y10069359D01*
X10883417Y10059966D01*
X10900000Y10056667D01*
X10916583Y10059966D01*
X10930641Y10069359D01*
X10940034Y10083417D01*
X10943333Y10100000D01*
X10940034Y10116583D01*
X10930641Y10130641D01*
X10916583Y10140034D01*
X10900000Y10143333D01*
D02*
G37*
G36*
X14929970Y10143312D02*
X14913387Y10140014D01*
X14899329Y10130621D01*
X14889935Y10116562D01*
X14886636Y10099980D01*
X14889935Y10083397D01*
X14899329Y10069339D01*
X14913387Y10059946D01*
X14929970Y10056647D01*
X14946553Y10059946D01*
X14960611Y10069339D01*
X14970004Y10083397D01*
X14973303Y10099980D01*
X14970004Y10116562D01*
X14960611Y10130621D01*
X14946553Y10140014D01*
X14929970Y10143312D01*
D02*
G37*
G36*
X13230000Y10103333D02*
X13213417Y10100034D01*
X13199359Y10090641D01*
X13189966Y10076583D01*
X13186667Y10060000D01*
X13189966Y10043417D01*
X13199359Y10029359D01*
X13213417Y10019966D01*
X13230000Y10016667D01*
X13246584Y10019966D01*
X13260641Y10029359D01*
X13270033Y10043417D01*
X13273334Y10060000D01*
X13270033Y10076583D01*
X13260641Y10090641D01*
X13246584Y10100034D01*
X13230000Y10103333D01*
D02*
G37*
G36*
X12675000Y10038333D02*
X12658417Y10035035D01*
X12644359Y10025641D01*
X12634966Y10011583D01*
X12631667Y9995000D01*
X12634966Y9978418D01*
X12644359Y9964360D01*
X12658417Y9954966D01*
X12675000Y9951668D01*
X12691582Y9954966D01*
X12705641Y9964360D01*
X12715034Y9978418D01*
X12718332Y9995000D01*
X12715034Y10011583D01*
X12705641Y10025641D01*
X12691582Y10035035D01*
X12675000Y10038333D01*
D02*
G37*
G36*
X11069999Y10113333D02*
X11053416Y10110034D01*
X11039358Y10100641D01*
X11029964Y10086583D01*
X11026666Y10070000D01*
X11029964Y10053417D01*
X11039358Y10039359D01*
X11053416Y10029966D01*
X11068333Y10026998D01*
X11072601Y10021015D01*
X11075459Y10014804D01*
X11069966Y10006583D01*
X11066667Y9990000D01*
X11069966Y9973417D01*
X11079359Y9959359D01*
X11093417Y9949966D01*
X11110000Y9946667D01*
X11126583Y9949966D01*
X11140641Y9959359D01*
X11150034Y9973417D01*
X11153333Y9990000D01*
X11150034Y10006583D01*
X11140641Y10020641D01*
X11126583Y10030034D01*
X11111666Y10033002D01*
X11107398Y10038985D01*
X11104539Y10045196D01*
X11110033Y10053417D01*
X11113331Y10070000D01*
X11110033Y10086583D01*
X11100639Y10100641D01*
X11086581Y10110034D01*
X11069999Y10113333D01*
D02*
G37*
G36*
X13089999Y10063333D02*
X13073418Y10060034D01*
X13059360Y10050641D01*
X13049966Y10036583D01*
X13046667Y10020000D01*
X13049966Y10003417D01*
X13059360Y9989359D01*
X13073418Y9979966D01*
X13089999Y9976667D01*
X13106583Y9979966D01*
X13120641Y9989359D01*
X13130034Y10003417D01*
X13133333Y10020000D01*
X13130034Y10036583D01*
X13120641Y10050641D01*
X13106583Y10060034D01*
X13089999Y10063333D01*
D02*
G37*
G36*
X13429973Y10043313D02*
X13413390Y10040014D01*
X13399332Y10030621D01*
X13389938Y10016563D01*
X13386639Y9999980D01*
X13389938Y9983397D01*
X13399332Y9969339D01*
X13413390Y9959946D01*
X13429973Y9956647D01*
X13446556Y9959946D01*
X13460614Y9969339D01*
X13470007Y9983397D01*
X13473306Y9999980D01*
X13470007Y10016563D01*
X13460614Y10030621D01*
X13446556Y10040014D01*
X13429973Y10043313D01*
D02*
G37*
G36*
X10680000Y10363333D02*
X10663417Y10360034D01*
X10649359Y10350641D01*
X10639966Y10336583D01*
X10636667Y10320000D01*
X10639966Y10303417D01*
X10649359Y10289359D01*
X10663417Y10279966D01*
X10680000Y10276667D01*
X10696583Y10279966D01*
X10710641Y10289359D01*
X10720034Y10303417D01*
X10723333Y10320000D01*
X10720034Y10336583D01*
X10710641Y10350641D01*
X10696583Y10360034D01*
X10680000Y10363333D01*
D02*
G37*
G36*
X10170000D02*
X10153417Y10360034D01*
X10139359Y10350641D01*
X10129966Y10336583D01*
X10126667Y10320000D01*
X10129966Y10303417D01*
X10139359Y10289359D01*
X10153417Y10279966D01*
X10170000Y10276667D01*
X10186583Y10279966D01*
X10200641Y10289359D01*
X10210034Y10303417D01*
X10213333Y10320000D01*
X10210034Y10336583D01*
X10200641Y10350641D01*
X10186583Y10360034D01*
X10170000Y10363333D01*
D02*
G37*
G36*
X10310000Y10423333D02*
X10293417Y10420034D01*
X10279359Y10410641D01*
X10269966Y10396583D01*
X10266667Y10380000D01*
X10269966Y10363417D01*
X10279359Y10349359D01*
X10293417Y10339966D01*
X10310000Y10336667D01*
X10326583Y10339966D01*
X10340641Y10349359D01*
X10350034Y10363417D01*
X10353333Y10380000D01*
X10350034Y10396583D01*
X10340641Y10410641D01*
X10326583Y10420034D01*
X10310000Y10423333D01*
D02*
G37*
G36*
X10570000Y10383333D02*
X10553417Y10380034D01*
X10539359Y10370641D01*
X10529966Y10356583D01*
X10526667Y10340000D01*
X10529966Y10323417D01*
X10539359Y10309359D01*
X10553417Y10299966D01*
X10570000Y10296667D01*
X10586583Y10299966D01*
X10600641Y10309359D01*
X10610034Y10323417D01*
X10613333Y10340000D01*
X10610034Y10356583D01*
X10600641Y10370641D01*
X10586583Y10380034D01*
X10570000Y10383333D01*
D02*
G37*
G36*
X9800000Y10437212D02*
X9778463Y10434377D01*
X9758394Y10426064D01*
X9741160Y10412840D01*
X9727936Y10395606D01*
X9719623Y10375537D01*
X9716788Y10354000D01*
X9719623Y10332463D01*
X9727936Y10312394D01*
X9741160Y10295161D01*
X9758394Y10281937D01*
X9778463Y10273624D01*
X9800000Y10270788D01*
X9821537Y10273624D01*
X9841606Y10281937D01*
X9858840Y10295161D01*
X9872064Y10312394D01*
X9880376Y10332463D01*
X9883212Y10354000D01*
X9880376Y10375537D01*
X9872064Y10395606D01*
X9858840Y10412840D01*
X9841606Y10426064D01*
X9821537Y10434377D01*
X9800000Y10437212D01*
D02*
G37*
G36*
X10560000Y10285686D02*
X10546344Y10282969D01*
X10534766Y10275234D01*
X10527031Y10263656D01*
X10524314Y10250000D01*
X10527031Y10236344D01*
X10534766Y10224766D01*
X10546344Y10217031D01*
X10560000Y10214314D01*
X10573656Y10217031D01*
X10585234Y10224766D01*
X10592969Y10236344D01*
X10595686Y10250000D01*
X10592969Y10263656D01*
X10585234Y10275234D01*
X10573656Y10282969D01*
X10560000Y10285686D01*
D02*
G37*
G36*
X12670000Y10253333D02*
X12653417Y10250034D01*
X12639359Y10240641D01*
X12629966Y10226583D01*
X12626667Y10210000D01*
X12629966Y10193417D01*
X12639359Y10179359D01*
X12653417Y10169966D01*
X12670000Y10166667D01*
X12686583Y10169966D01*
X12700641Y10179359D01*
X12710034Y10193417D01*
X12713333Y10210000D01*
X12710034Y10226583D01*
X12700641Y10240641D01*
X12686583Y10250034D01*
X12670000Y10253333D01*
D02*
G37*
G36*
X14780000Y10333333D02*
X14763417Y10330034D01*
X14749359Y10320641D01*
X14739966Y10306583D01*
X14736667Y10290000D01*
X14739966Y10273417D01*
X14749359Y10259359D01*
X14763417Y10249966D01*
X14780000Y10246667D01*
X14796584Y10249966D01*
X14810641Y10259359D01*
X14820033Y10273417D01*
X14823334Y10290000D01*
X14820033Y10306583D01*
X14810641Y10320641D01*
X14796584Y10330034D01*
X14780000Y10333333D01*
D02*
G37*
G36*
X14410001Y10303333D02*
X14393417Y10300034D01*
X14379359Y10290641D01*
X14369966Y10276583D01*
X14366667Y10260000D01*
X14369966Y10243417D01*
X14379359Y10229359D01*
X14393417Y10219966D01*
X14410001Y10216667D01*
X14426582Y10219966D01*
X14440640Y10229359D01*
X14450034Y10243417D01*
X14453333Y10260000D01*
X14450034Y10276583D01*
X14440640Y10290641D01*
X14426582Y10300034D01*
X14410001Y10303333D01*
D02*
G37*
G36*
X12270000Y10015686D02*
X12256344Y10012969D01*
X12244766Y10005234D01*
X12237031Y9993656D01*
X12234314Y9980000D01*
X12237031Y9966344D01*
X12244766Y9954766D01*
X12256344Y9947031D01*
X12270000Y9944314D01*
X12283656Y9947031D01*
X12295234Y9954766D01*
X12302969Y9966344D01*
X12305686Y9980000D01*
X12302969Y9993656D01*
X12295234Y10005234D01*
X12283656Y10012969D01*
X12270000Y10015686D01*
D02*
G37*
G36*
X12060000Y9833333D02*
X12043417Y9830034D01*
X12029359Y9820641D01*
X12019966Y9806583D01*
X12016667Y9790000D01*
X12019966Y9773417D01*
X12029359Y9759359D01*
X12043417Y9749966D01*
X12060000Y9746667D01*
X12076583Y9749966D01*
X12090641Y9759359D01*
X12100034Y9773417D01*
X12103333Y9790000D01*
X12100034Y9806583D01*
X12090641Y9820641D01*
X12076583Y9830034D01*
X12060000Y9833333D01*
D02*
G37*
G36*
X12269975Y9823313D02*
X12253393Y9820015D01*
X12239334Y9810621D01*
X12229941Y9796563D01*
X12226643Y9779980D01*
X12229941Y9763398D01*
X12239334Y9749340D01*
X12253393Y9739946D01*
X12269975Y9736648D01*
X12286558Y9739946D01*
X12300616Y9749340D01*
X12310009Y9763398D01*
X12313308Y9779980D01*
X12310009Y9796563D01*
X12300616Y9810621D01*
X12286558Y9820015D01*
X12269975Y9823313D01*
D02*
G37*
G36*
X9792500Y9838500D02*
X9704764D01*
X9707056Y9821096D01*
X9716668Y9797889D01*
X9731960Y9777960D01*
X9751888Y9762669D01*
X9775096Y9753056D01*
X9792500Y9750764D01*
Y9838500D01*
D02*
G37*
G36*
X9895236D02*
X9807500D01*
Y9750764D01*
X9824904Y9753056D01*
X9848112Y9762669D01*
X9868040Y9777960D01*
X9883332Y9797889D01*
X9892944Y9821096D01*
X9895236Y9838500D01*
D02*
G37*
G36*
X13200000Y9793333D02*
X13183417Y9790034D01*
X13169359Y9780641D01*
X13159966Y9766583D01*
X13156667Y9750000D01*
X13159966Y9733417D01*
X13169359Y9719359D01*
X13183417Y9709966D01*
X13200000Y9706667D01*
X13216583Y9709966D01*
X13230641Y9719359D01*
X13240034Y9733417D01*
X13243333Y9750000D01*
X13240034Y9766583D01*
X13230641Y9780641D01*
X13216583Y9790034D01*
X13200000Y9793333D01*
D02*
G37*
G36*
X9830000Y9685686D02*
X9816344Y9682969D01*
X9804766Y9675234D01*
X9797031Y9663656D01*
X9794314Y9650000D01*
X9797031Y9636344D01*
X9804766Y9624766D01*
X9816344Y9617031D01*
X9830000Y9614314D01*
X9843656Y9617031D01*
X9855234Y9624766D01*
X9862969Y9636344D01*
X9865686Y9650000D01*
X9862969Y9663656D01*
X9855234Y9675234D01*
X9843656Y9682969D01*
X9830000Y9685686D01*
D02*
G37*
G36*
X10730000Y9595686D02*
X10716344Y9592969D01*
X10704766Y9585234D01*
X10697031Y9573656D01*
X10694772Y9562301D01*
X10687452Y9559151D01*
X10682049Y9558482D01*
X10680619Y9560622D01*
X10666561Y9570015D01*
X10649979Y9573314D01*
X10633396Y9570015D01*
X10619338Y9560622D01*
X10609944Y9546564D01*
X10606646Y9529981D01*
X10609944Y9513398D01*
X10619338Y9499340D01*
X10633396Y9489947D01*
X10649979Y9486648D01*
X10666561Y9489947D01*
X10680619Y9499340D01*
X10690013Y9513398D01*
X10693169Y9529264D01*
X10697031Y9531535D01*
X10701056Y9533216D01*
X10705392Y9534348D01*
X10716344Y9527031D01*
X10730000Y9524314D01*
X10743656Y9527031D01*
X10755234Y9534766D01*
X10762969Y9546344D01*
X10765686Y9560000D01*
X10762969Y9573656D01*
X10755234Y9585234D01*
X10743656Y9592969D01*
X10730000Y9595686D01*
D02*
G37*
G36*
X10020000Y9783333D02*
X10003417Y9780034D01*
X9989359Y9770641D01*
X9979966Y9756583D01*
X9976667Y9740000D01*
X9979966Y9723417D01*
X9989359Y9709359D01*
X10003417Y9699966D01*
X10020000Y9696667D01*
X10036583Y9699966D01*
X10050641Y9709359D01*
X10060034Y9723417D01*
X10063333Y9740000D01*
X10060034Y9756583D01*
X10050641Y9770641D01*
X10036583Y9780034D01*
X10020000Y9783333D01*
D02*
G37*
G36*
X11330000Y9761686D02*
X11316344Y9758970D01*
X11304766Y9751234D01*
X11297031Y9739657D01*
X11294314Y9726000D01*
X11297031Y9712344D01*
X11304766Y9700767D01*
X11316344Y9693031D01*
X11330000Y9690315D01*
X11343656Y9693031D01*
X11355234Y9700767D01*
X11362969Y9712344D01*
X11365686Y9726000D01*
X11362969Y9739657D01*
X11355234Y9751234D01*
X11343656Y9758970D01*
X11330000Y9761686D01*
D02*
G37*
G36*
X13010001Y9993333D02*
X12993417Y9990034D01*
X12979359Y9980641D01*
X12969966Y9966583D01*
X12966667Y9950000D01*
X12969966Y9933417D01*
X12979359Y9919359D01*
X12993417Y9909966D01*
X13010001Y9906667D01*
X13026582Y9909966D01*
X13040640Y9919359D01*
X13050034Y9933417D01*
X13053333Y9950000D01*
X13050034Y9966583D01*
X13040640Y9980641D01*
X13026582Y9990034D01*
X13010001Y9993333D01*
D02*
G37*
G36*
X14062500Y9940833D02*
X14045917Y9937534D01*
X14031859Y9928141D01*
X14022466Y9914083D01*
X14019167Y9897500D01*
X14022466Y9880917D01*
X14031859Y9866859D01*
X14045917Y9857466D01*
X14062500Y9854167D01*
X14079083Y9857466D01*
X14093141Y9866859D01*
X14102534Y9880917D01*
X14105833Y9897500D01*
X14102534Y9914083D01*
X14093141Y9928141D01*
X14079083Y9937534D01*
X14062500Y9940833D01*
D02*
G37*
G36*
X13319974Y10013313D02*
X13303391Y10010014D01*
X13289333Y10000621D01*
X13279939Y9986563D01*
X13276640Y9969980D01*
X13279939Y9953397D01*
X13289333Y9939339D01*
X13303391Y9929946D01*
X13319974Y9926647D01*
X13336555Y9929946D01*
X13350613Y9939339D01*
X13360008Y9953397D01*
X13363306Y9969980D01*
X13360008Y9986563D01*
X13350613Y10000621D01*
X13336555Y10010014D01*
X13319974Y10013313D01*
D02*
G37*
G36*
X12470000Y10003333D02*
X12453417Y10000034D01*
X12439359Y9990641D01*
X12429966Y9976583D01*
X12426667Y9960000D01*
X12429966Y9943417D01*
X12439359Y9929359D01*
X12453417Y9919966D01*
X12470000Y9916667D01*
X12486583Y9919966D01*
X12500641Y9929359D01*
X12510034Y9943417D01*
X12513333Y9960000D01*
X12510034Y9976583D01*
X12500641Y9990641D01*
X12486583Y10000034D01*
X12470000Y10003333D01*
D02*
G37*
G36*
X9807500Y9941236D02*
Y9853500D01*
X9895236D01*
X9892944Y9870905D01*
X9883332Y9894112D01*
X9868040Y9914040D01*
X9848112Y9929332D01*
X9824904Y9938945D01*
X9807500Y9941236D01*
D02*
G37*
G36*
X13279973Y9853313D02*
X13263391Y9850015D01*
X13249333Y9840621D01*
X13239938Y9826563D01*
X13236641Y9809980D01*
X13239938Y9793398D01*
X13249333Y9779340D01*
X13263391Y9769946D01*
X13279973Y9766648D01*
X13296556Y9769946D01*
X13310614Y9779340D01*
X13320007Y9793398D01*
X13323306Y9809980D01*
X13320007Y9826563D01*
X13310614Y9840621D01*
X13296556Y9850015D01*
X13279973Y9853313D01*
D02*
G37*
G36*
X11220000Y9765686D02*
X11206344Y9762969D01*
X11195000Y9755390D01*
X11183656Y9762969D01*
X11170000Y9765686D01*
X11156344Y9762969D01*
X11144766Y9755234D01*
X11137031Y9743656D01*
X11134314Y9730000D01*
X11137031Y9716344D01*
X11144766Y9704766D01*
X11156344Y9697031D01*
X11170000Y9694314D01*
X11183656Y9697031D01*
X11195000Y9704610D01*
X11206344Y9697031D01*
X11220000Y9694314D01*
X11233656Y9697031D01*
X11245234Y9704766D01*
X11252969Y9716344D01*
X11255686Y9730000D01*
X11252969Y9743656D01*
X11245234Y9755234D01*
X11233656Y9762969D01*
X11220000Y9765686D01*
D02*
G37*
G36*
X9792500Y9941236D02*
X9775096Y9938945D01*
X9751888Y9929332D01*
X9731960Y9914040D01*
X9716668Y9894112D01*
X9707056Y9870905D01*
X9704764Y9853500D01*
X9792500D01*
Y9941236D01*
D02*
G37*
G36*
X14920000Y9863333D02*
X14903416Y9860034D01*
X14889359Y9850641D01*
X14879967Y9836583D01*
X14876666Y9820000D01*
X14879967Y9803417D01*
X14889359Y9789359D01*
X14903416Y9779966D01*
X14920000Y9776667D01*
X14936583Y9779966D01*
X14950641Y9789359D01*
X14960034Y9803417D01*
X14963333Y9820000D01*
X14960034Y9836583D01*
X14950641Y9850641D01*
X14936583Y9860034D01*
X14920000Y9863333D01*
D02*
G37*
G36*
X14668500Y7899965D02*
X14645345Y7896917D01*
X14623767Y7887979D01*
X14605238Y7873761D01*
X14591022Y7855233D01*
X14582083Y7833655D01*
X14579034Y7810500D01*
X14582083Y7787345D01*
X14591022Y7765767D01*
X14605238Y7747239D01*
X14623767Y7733021D01*
X14645345Y7724083D01*
X14668500Y7721035D01*
X14691655Y7724083D01*
X14713232Y7733021D01*
X14731761Y7747239D01*
X14745979Y7765767D01*
X14754916Y7787345D01*
X14757965Y7810500D01*
X14754916Y7833655D01*
X14745979Y7855233D01*
X14731761Y7873761D01*
X14713232Y7887979D01*
X14691655Y7896917D01*
X14668500Y7899965D01*
D02*
G37*
G36*
X14414500D02*
X14391345Y7896917D01*
X14369768Y7887979D01*
X14351239Y7873761D01*
X14337021Y7855233D01*
X14328082Y7833655D01*
X14325035Y7810500D01*
X14328082Y7787345D01*
X14337021Y7765767D01*
X14351239Y7747239D01*
X14369768Y7733021D01*
X14391345Y7724083D01*
X14414500Y7721035D01*
X14437656Y7724083D01*
X14459233Y7733021D01*
X14477760Y7747239D01*
X14491978Y7765767D01*
X14500917Y7787345D01*
X14503966Y7810500D01*
X14500917Y7833655D01*
X14491978Y7855233D01*
X14477760Y7873761D01*
X14459233Y7887979D01*
X14437656Y7896917D01*
X14414500Y7899965D01*
D02*
G37*
G36*
X14914999Y7911990D02*
X14895976Y7909485D01*
X14871262Y7899248D01*
X14850038Y7882962D01*
X14833752Y7861738D01*
X14823515Y7837023D01*
X14821010Y7818000D01*
X14914999D01*
Y7911990D01*
D02*
G37*
G36*
X9581000Y7912100D02*
X9486900D01*
Y7818000D01*
X9581000D01*
Y7912100D01*
D02*
G37*
G36*
X14160500Y7899965D02*
X14137344Y7896917D01*
X14115767Y7887979D01*
X14097240Y7873761D01*
X14083022Y7855233D01*
X14074083Y7833655D01*
X14071034Y7810500D01*
X14074083Y7787345D01*
X14083022Y7765767D01*
X14097240Y7747239D01*
X14115767Y7733021D01*
X14137344Y7724083D01*
X14160500Y7721035D01*
X14183655Y7724083D01*
X14205232Y7733021D01*
X14223761Y7747239D01*
X14237979Y7765767D01*
X14246918Y7787345D01*
X14249965Y7810500D01*
X14246918Y7833655D01*
X14237979Y7855233D01*
X14223761Y7873761D01*
X14205232Y7887979D01*
X14183655Y7896917D01*
X14160500Y7899965D01*
D02*
G37*
G36*
X13398500D02*
X13375345Y7896917D01*
X13353767Y7887979D01*
X13335239Y7873761D01*
X13321021Y7855233D01*
X13312083Y7833655D01*
X13309035Y7810500D01*
X13312083Y7787345D01*
X13321021Y7765767D01*
X13335239Y7747239D01*
X13353767Y7733021D01*
X13375345Y7724083D01*
X13398500Y7721035D01*
X13421655Y7724083D01*
X13443233Y7733021D01*
X13461761Y7747239D01*
X13475980Y7765767D01*
X13484917Y7787345D01*
X13487965Y7810500D01*
X13484917Y7833655D01*
X13475980Y7855233D01*
X13461761Y7873761D01*
X13443233Y7887979D01*
X13421655Y7896917D01*
X13398500Y7899965D01*
D02*
G37*
G36*
X13144501D02*
X13121346Y7896917D01*
X13099767Y7887979D01*
X13081239Y7873761D01*
X13067021Y7855233D01*
X13058083Y7833655D01*
X13055035Y7810500D01*
X13058083Y7787345D01*
X13067021Y7765767D01*
X13081239Y7747239D01*
X13099767Y7733021D01*
X13121346Y7724083D01*
X13144501Y7721035D01*
X13167654Y7724083D01*
X13189233Y7733021D01*
X13207761Y7747239D01*
X13221979Y7765767D01*
X13230917Y7787345D01*
X13233965Y7810500D01*
X13230917Y7833655D01*
X13221979Y7855233D01*
X13207761Y7873761D01*
X13189233Y7887979D01*
X13167654Y7896917D01*
X13144501Y7899965D01*
D02*
G37*
G36*
X13906500D02*
X13883345Y7896917D01*
X13861768Y7887979D01*
X13843239Y7873761D01*
X13829021Y7855233D01*
X13820084Y7833655D01*
X13817035Y7810500D01*
X13820084Y7787345D01*
X13829021Y7765767D01*
X13843239Y7747239D01*
X13861768Y7733021D01*
X13883345Y7724083D01*
X13906500Y7721035D01*
X13929655Y7724083D01*
X13951233Y7733021D01*
X13969762Y7747239D01*
X13983978Y7765767D01*
X13992917Y7787345D01*
X13995966Y7810500D01*
X13992917Y7833655D01*
X13983978Y7855233D01*
X13969762Y7873761D01*
X13951233Y7887979D01*
X13929655Y7896917D01*
X13906500Y7899965D01*
D02*
G37*
G36*
X13652499D02*
X13629346Y7896917D01*
X13607767Y7887979D01*
X13589240Y7873761D01*
X13575021Y7855233D01*
X13566083Y7833655D01*
X13563036Y7810500D01*
X13566083Y7787345D01*
X13575021Y7765767D01*
X13589240Y7747239D01*
X13607767Y7733021D01*
X13629346Y7724083D01*
X13652499Y7721035D01*
X13675655Y7724083D01*
X13697234Y7733021D01*
X13715761Y7747239D01*
X13729979Y7765767D01*
X13738918Y7787345D01*
X13741965Y7810500D01*
X13738918Y7833655D01*
X13729979Y7855233D01*
X13715761Y7873761D01*
X13697234Y7887979D01*
X13675655Y7896917D01*
X13652499Y7899965D01*
D02*
G37*
G36*
X9581000Y8057000D02*
X9487010D01*
X9489515Y8037977D01*
X9499752Y8013262D01*
X9516038Y7992038D01*
X9537262Y7975752D01*
X9561977Y7965515D01*
X9581000Y7963010D01*
Y8057000D01*
D02*
G37*
G36*
X10160000Y7973333D02*
X10143417Y7970034D01*
X10129359Y7960641D01*
X10119966Y7946583D01*
X10116667Y7930000D01*
X10119966Y7913417D01*
X10123151Y7908650D01*
X10122838Y7907600D01*
X10115337Y7897485D01*
X10096500Y7899965D01*
X10073345Y7896917D01*
X10051767Y7887979D01*
X10033239Y7873761D01*
X10019021Y7855233D01*
X10010083Y7833655D01*
X10007035Y7810500D01*
X10010083Y7787345D01*
X10019021Y7765767D01*
X10033239Y7747239D01*
X10051767Y7733021D01*
X10073345Y7724083D01*
X10096500Y7721035D01*
X10119655Y7724083D01*
X10141233Y7733021D01*
X10159761Y7747239D01*
X10173979Y7765767D01*
X10182917Y7787345D01*
X10185965Y7810500D01*
X10182917Y7833655D01*
X10173979Y7855233D01*
X10159761Y7873761D01*
X10158835Y7874472D01*
X10159160Y7877872D01*
X10163022Y7887268D01*
X10176583Y7889966D01*
X10190641Y7899359D01*
X10200034Y7913417D01*
X10203333Y7930000D01*
X10200034Y7946583D01*
X10190641Y7960641D01*
X10176583Y7970034D01*
X10160000Y7973333D01*
D02*
G37*
G36*
X15169000Y8057000D02*
X15075011D01*
X15077515Y8037977D01*
X15087752Y8013262D01*
X15104037Y7992038D01*
X15125262Y7975752D01*
X15149977Y7965515D01*
X15169000Y7963010D01*
Y8057000D01*
D02*
G37*
G36*
X14914999D02*
X14821010D01*
X14823515Y8037977D01*
X14833752Y8013262D01*
X14850038Y7992038D01*
X14871262Y7975752D01*
X14895976Y7965515D01*
X14914999Y7963010D01*
Y8057000D01*
D02*
G37*
G36*
X11750000Y7943333D02*
X11733417Y7940034D01*
X11719359Y7930641D01*
X11709966Y7916583D01*
X11706667Y7900000D01*
X11709966Y7883417D01*
X11719359Y7869359D01*
X11733417Y7859966D01*
X11750000Y7856667D01*
X11766583Y7859966D01*
X11780641Y7869359D01*
X11790034Y7883417D01*
X11793333Y7900000D01*
X11790034Y7916583D01*
X11780641Y7930641D01*
X11766583Y7940034D01*
X11750000Y7943333D01*
D02*
G37*
G36*
X9690100Y7912100D02*
X9596000D01*
Y7818000D01*
X9690100D01*
Y7912100D01*
D02*
G37*
G36*
X15169000Y7911990D02*
X15149977Y7909485D01*
X15125262Y7899248D01*
X15104037Y7882962D01*
X15087752Y7861738D01*
X15077515Y7837023D01*
X15075011Y7818000D01*
X15169000D01*
Y7911990D01*
D02*
G37*
G36*
X15184000D02*
Y7818000D01*
X15277991D01*
X15275485Y7837023D01*
X15265248Y7861738D01*
X15248962Y7882962D01*
X15227737Y7899248D01*
X15203023Y7909485D01*
X15184000Y7911990D01*
D02*
G37*
G36*
X14930000D02*
Y7818000D01*
X15023990D01*
X15021484Y7837023D01*
X15011247Y7861738D01*
X14994962Y7882962D01*
X14973738Y7899248D01*
X14949023Y7909485D01*
X14930000Y7911990D01*
D02*
G37*
G36*
X9842500Y7899965D02*
X9819345Y7896917D01*
X9797767Y7887979D01*
X9779239Y7873761D01*
X9765021Y7855233D01*
X9756083Y7833655D01*
X9753035Y7810500D01*
X9756083Y7787345D01*
X9765021Y7765767D01*
X9779239Y7747239D01*
X9797767Y7733021D01*
X9819345Y7724083D01*
X9842500Y7721035D01*
X9865655Y7724083D01*
X9887233Y7733021D01*
X9905761Y7747239D01*
X9919979Y7765767D01*
X9928917Y7787345D01*
X9931965Y7810500D01*
X9928917Y7833655D01*
X9919979Y7855233D01*
X9905761Y7873761D01*
X9887233Y7887979D01*
X9865655Y7896917D01*
X9842500Y7899965D01*
D02*
G37*
G36*
X15277991Y7803000D02*
X15184000D01*
Y7709010D01*
X15203023Y7711515D01*
X15227737Y7721752D01*
X15248962Y7738038D01*
X15265248Y7759262D01*
X15275485Y7783977D01*
X15277991Y7803000D01*
D02*
G37*
G36*
X10604500Y7899965D02*
X10581345Y7896917D01*
X10559767Y7887979D01*
X10541239Y7873761D01*
X10527021Y7855233D01*
X10518083Y7833655D01*
X10515035Y7810500D01*
X10518083Y7787345D01*
X10527021Y7765767D01*
X10541239Y7747239D01*
X10559767Y7733021D01*
X10581345Y7724083D01*
X10604500Y7721035D01*
X10627655Y7724083D01*
X10649233Y7733021D01*
X10667761Y7747239D01*
X10681979Y7765767D01*
X10690917Y7787345D01*
X10693965Y7810500D01*
X10690917Y7833655D01*
X10681979Y7855233D01*
X10667761Y7873761D01*
X10649233Y7887979D01*
X10627655Y7896917D01*
X10604500Y7899965D01*
D02*
G37*
G36*
X10280000Y7973333D02*
X10263417Y7970034D01*
X10249359Y7960641D01*
X10239966Y7946583D01*
X10236667Y7930000D01*
X10239966Y7913417D01*
X10249359Y7899359D01*
X10263417Y7889966D01*
X10280000Y7886667D01*
X10284313Y7887525D01*
X10289695Y7875647D01*
X10287239Y7873761D01*
X10273021Y7855233D01*
X10264083Y7833655D01*
X10261035Y7810500D01*
X10264083Y7787345D01*
X10273021Y7765767D01*
X10287239Y7747239D01*
X10305767Y7733021D01*
X10327345Y7724083D01*
X10350500Y7721035D01*
X10373655Y7724083D01*
X10395233Y7733021D01*
X10413761Y7747239D01*
X10427979Y7765767D01*
X10436917Y7787345D01*
X10439965Y7810500D01*
X10436917Y7833655D01*
X10427979Y7855233D01*
X10413761Y7873761D01*
X10395233Y7887979D01*
X10373655Y7896917D01*
X10350500Y7899965D01*
X10327345Y7896917D01*
X10323112Y7895164D01*
X10314692Y7905423D01*
X10320034Y7913417D01*
X10323333Y7930000D01*
X10320034Y7946583D01*
X10310641Y7960641D01*
X10296583Y7970034D01*
X10280000Y7973333D01*
D02*
G37*
G36*
X15023990Y7803000D02*
X14930000D01*
Y7709010D01*
X14949023Y7711515D01*
X14973738Y7721752D01*
X14994962Y7738038D01*
X15011247Y7759262D01*
X15021484Y7783977D01*
X15023990Y7803000D01*
D02*
G37*
G36*
X9690100D02*
X9596000D01*
Y7708900D01*
X9690100D01*
Y7803000D01*
D02*
G37*
G36*
X9581000D02*
X9486900D01*
Y7708900D01*
X9581000D01*
Y7803000D01*
D02*
G37*
G36*
X15169000D02*
X15075011D01*
X15077515Y7783977D01*
X15087752Y7759262D01*
X15104037Y7738038D01*
X15125262Y7721752D01*
X15149977Y7711515D01*
X15169000Y7709010D01*
Y7803000D01*
D02*
G37*
G36*
X14914999D02*
X14821010D01*
X14823515Y7783977D01*
X14833752Y7759262D01*
X14850038Y7738038D01*
X14871262Y7721752D01*
X14895976Y7711515D01*
X14914999Y7709010D01*
Y7803000D01*
D02*
G37*
G36*
X12382500Y7899965D02*
X12359345Y7896917D01*
X12337767Y7887979D01*
X12319239Y7873761D01*
X12305021Y7855233D01*
X12296083Y7833655D01*
X12293035Y7810500D01*
X12296083Y7787345D01*
X12305021Y7765767D01*
X12319239Y7747239D01*
X12337767Y7733021D01*
X12359345Y7724083D01*
X12382500Y7721035D01*
X12405655Y7724083D01*
X12427233Y7733021D01*
X12445761Y7747239D01*
X12459979Y7765767D01*
X12468917Y7787345D01*
X12471965Y7810500D01*
X12468917Y7833655D01*
X12459979Y7855233D01*
X12445761Y7873761D01*
X12427233Y7887979D01*
X12405655Y7896917D01*
X12382500Y7899965D01*
D02*
G37*
G36*
X12128500D02*
X12105345Y7896917D01*
X12083767Y7887979D01*
X12065239Y7873761D01*
X12051021Y7855233D01*
X12042083Y7833655D01*
X12039035Y7810500D01*
X12042083Y7787345D01*
X12051021Y7765767D01*
X12065239Y7747239D01*
X12083767Y7733021D01*
X12105345Y7724083D01*
X12128500Y7721035D01*
X12151655Y7724083D01*
X12173233Y7733021D01*
X12191761Y7747239D01*
X12205979Y7765767D01*
X12214917Y7787345D01*
X12217965Y7810500D01*
X12214917Y7833655D01*
X12205979Y7855233D01*
X12191761Y7873761D01*
X12173233Y7887979D01*
X12151655Y7896917D01*
X12128500Y7899965D01*
D02*
G37*
G36*
X12890500D02*
X12867345Y7896917D01*
X12845767Y7887979D01*
X12827238Y7873761D01*
X12813020Y7855233D01*
X12804083Y7833655D01*
X12801035Y7810500D01*
X12804083Y7787345D01*
X12813020Y7765767D01*
X12827238Y7747239D01*
X12845767Y7733021D01*
X12867345Y7724083D01*
X12890500Y7721035D01*
X12913655Y7724083D01*
X12935233Y7733021D01*
X12953761Y7747239D01*
X12967979Y7765767D01*
X12976917Y7787345D01*
X12979965Y7810500D01*
X12976917Y7833655D01*
X12967979Y7855233D01*
X12953761Y7873761D01*
X12935233Y7887979D01*
X12913655Y7896917D01*
X12890500Y7899965D01*
D02*
G37*
G36*
X12636500D02*
X12613345Y7896917D01*
X12591767Y7887979D01*
X12573239Y7873761D01*
X12559021Y7855233D01*
X12550083Y7833655D01*
X12547035Y7810500D01*
X12550083Y7787345D01*
X12559021Y7765767D01*
X12573239Y7747239D01*
X12591767Y7733021D01*
X12613345Y7724083D01*
X12636500Y7721035D01*
X12659655Y7724083D01*
X12681233Y7733021D01*
X12699761Y7747239D01*
X12713979Y7765767D01*
X12722917Y7787345D01*
X12725965Y7810500D01*
X12722917Y7833655D01*
X12713979Y7855233D01*
X12699761Y7873761D01*
X12681233Y7887979D01*
X12659655Y7896917D01*
X12636500Y7899965D01*
D02*
G37*
G36*
X11874500D02*
X11851345Y7896917D01*
X11829767Y7887979D01*
X11811239Y7873761D01*
X11797021Y7855233D01*
X11788083Y7833655D01*
X11785035Y7810500D01*
X11788083Y7787345D01*
X11797021Y7765767D01*
X11811239Y7747239D01*
X11829767Y7733021D01*
X11851345Y7724083D01*
X11874500Y7721035D01*
X11897655Y7724083D01*
X11919233Y7733021D01*
X11937761Y7747239D01*
X11951979Y7765767D01*
X11960917Y7787345D01*
X11963965Y7810500D01*
X11960917Y7833655D01*
X11951979Y7855233D01*
X11937761Y7873761D01*
X11919233Y7887979D01*
X11897655Y7896917D01*
X11874500Y7899965D01*
D02*
G37*
G36*
X11112500D02*
X11089345Y7896917D01*
X11067767Y7887979D01*
X11049239Y7873761D01*
X11035021Y7855233D01*
X11026083Y7833655D01*
X11023035Y7810500D01*
X11026083Y7787345D01*
X11035021Y7765767D01*
X11049239Y7747239D01*
X11067767Y7733021D01*
X11089345Y7724083D01*
X11112500Y7721035D01*
X11135655Y7724083D01*
X11157233Y7733021D01*
X11175761Y7747239D01*
X11189979Y7765767D01*
X11198917Y7787345D01*
X11201965Y7810500D01*
X11198917Y7833655D01*
X11189979Y7855233D01*
X11175761Y7873761D01*
X11157233Y7887979D01*
X11135655Y7896917D01*
X11112500Y7899965D01*
D02*
G37*
G36*
X10858500D02*
X10835345Y7896917D01*
X10813767Y7887979D01*
X10795239Y7873761D01*
X10781021Y7855233D01*
X10772083Y7833655D01*
X10769035Y7810500D01*
X10772083Y7787345D01*
X10781021Y7765767D01*
X10795239Y7747239D01*
X10813767Y7733021D01*
X10835345Y7724083D01*
X10858500Y7721035D01*
X10881655Y7724083D01*
X10903233Y7733021D01*
X10921761Y7747239D01*
X10935979Y7765767D01*
X10944917Y7787345D01*
X10947965Y7810500D01*
X10944917Y7833655D01*
X10935979Y7855233D01*
X10921761Y7873761D01*
X10903233Y7887979D01*
X10881655Y7896917D01*
X10858500Y7899965D01*
D02*
G37*
G36*
X11460000Y7993333D02*
X11443417Y7990034D01*
X11429359Y7980641D01*
X11419966Y7966583D01*
X11416667Y7950000D01*
X11419966Y7933417D01*
X11429359Y7919359D01*
X11443417Y7909966D01*
X11460000Y7906667D01*
X11476583Y7909966D01*
X11484620Y7915336D01*
X11498600Y7910152D01*
X11499943Y7903402D01*
X11509336Y7889343D01*
X11523394Y7879950D01*
X11539977Y7876652D01*
X11544073Y7877466D01*
X11551239Y7865943D01*
X11543021Y7855233D01*
X11534083Y7833655D01*
X11531035Y7810500D01*
X11534083Y7787345D01*
X11543021Y7765767D01*
X11557239Y7747239D01*
X11575767Y7733021D01*
X11597345Y7724083D01*
X11620500Y7721035D01*
X11643655Y7724083D01*
X11665233Y7733021D01*
X11683761Y7747239D01*
X11697979Y7765767D01*
X11706917Y7787345D01*
X11709965Y7810500D01*
X11706917Y7833655D01*
X11697979Y7855233D01*
X11683761Y7873761D01*
X11665233Y7887979D01*
X11643655Y7896917D01*
X11620500Y7899965D01*
X11597345Y7896917D01*
X11588506Y7893256D01*
X11580011Y7903402D01*
X11583310Y7919984D01*
X11580011Y7936567D01*
X11570618Y7950625D01*
X11556560Y7960018D01*
X11539977Y7963317D01*
X11523394Y7960018D01*
X11515357Y7954648D01*
X11501377Y7959832D01*
X11500034Y7966583D01*
X11490641Y7980641D01*
X11476583Y7990034D01*
X11460000Y7993333D01*
D02*
G37*
G36*
X11366500Y7899965D02*
X11343345Y7896917D01*
X11321767Y7887979D01*
X11303239Y7873761D01*
X11289021Y7855233D01*
X11280083Y7833655D01*
X11277035Y7810500D01*
X11280083Y7787345D01*
X11289021Y7765767D01*
X11303239Y7747239D01*
X11321767Y7733021D01*
X11343345Y7724083D01*
X11366500Y7721035D01*
X11389655Y7724083D01*
X11411233Y7733021D01*
X11429761Y7747239D01*
X11443979Y7765767D01*
X11452917Y7787345D01*
X11455965Y7810500D01*
X11452917Y7833655D01*
X11443979Y7855233D01*
X11429761Y7873761D01*
X11411233Y7887979D01*
X11389655Y7896917D01*
X11366500Y7899965D01*
D02*
G37*
G36*
X9689990Y8057000D02*
X9596000D01*
Y7963010D01*
X9615023Y7965515D01*
X9639738Y7975752D01*
X9660962Y7992038D01*
X9677248Y8013262D01*
X9687485Y8037977D01*
X9689990Y8057000D01*
D02*
G37*
G36*
X9581000Y8165990D02*
X9561977Y8163485D01*
X9537262Y8153248D01*
X9516038Y8136962D01*
X9499752Y8115738D01*
X9489515Y8091023D01*
X9487010Y8072000D01*
X9581000D01*
Y8165990D01*
D02*
G37*
G36*
X7790000Y8065686D02*
X7776344Y8062969D01*
X7764766Y8055234D01*
X7757031Y8043656D01*
X7754314Y8030000D01*
X7757031Y8016344D01*
X7764766Y8004766D01*
X7776344Y7997031D01*
X7790000Y7994314D01*
X7803656Y7997031D01*
X7815234Y8004766D01*
X7822969Y8016344D01*
X7825686Y8030000D01*
X7822969Y8043656D01*
X7815234Y8055234D01*
X7803656Y8062969D01*
X7790000Y8065686D01*
D02*
G37*
G36*
X15169000Y8165990D02*
X15149977Y8163485D01*
X15125262Y8153248D01*
X15104037Y8136962D01*
X15087752Y8115738D01*
X15077515Y8091023D01*
X15075011Y8072000D01*
X15169000D01*
Y8165990D01*
D02*
G37*
G36*
X14914999D02*
X14895976Y8163485D01*
X14871262Y8153248D01*
X14850038Y8136962D01*
X14833752Y8115738D01*
X14823515Y8091023D01*
X14821010Y8072000D01*
X14914999D01*
Y8165990D01*
D02*
G37*
G36*
X10604500Y8153965D02*
X10581345Y8150917D01*
X10559767Y8141979D01*
X10541239Y8127761D01*
X10527021Y8109233D01*
X10518083Y8087655D01*
X10515035Y8064500D01*
X10518083Y8041345D01*
X10527021Y8019767D01*
X10540091Y8002734D01*
X10538487Y7997562D01*
X10533628Y7991070D01*
X10531924Y7991409D01*
X10515341Y7988111D01*
X10501283Y7978717D01*
X10491889Y7964659D01*
X10491169Y7961038D01*
X10490708Y7960853D01*
X10477953Y7959697D01*
X10470641Y7970641D01*
X10456583Y7980034D01*
X10440000Y7983333D01*
X10423417Y7980034D01*
X10409359Y7970641D01*
X10399966Y7956583D01*
X10396667Y7940000D01*
X10399966Y7923417D01*
X10409359Y7909359D01*
X10423417Y7899966D01*
X10440000Y7896667D01*
X10456583Y7899966D01*
X10470641Y7909359D01*
X10480034Y7923417D01*
X10480755Y7927039D01*
X10481216Y7927223D01*
X10493970Y7928380D01*
X10501283Y7917436D01*
X10515341Y7908042D01*
X10531924Y7904744D01*
X10548506Y7908042D01*
X10562564Y7917436D01*
X10571958Y7931494D01*
X10575256Y7948077D01*
X10571958Y7964659D01*
X10568664Y7969589D01*
X10577083Y7979848D01*
X10581345Y7978083D01*
X10604500Y7975035D01*
X10627655Y7978083D01*
X10649233Y7987021D01*
X10667761Y8001239D01*
X10681979Y8019767D01*
X10690917Y8041345D01*
X10693965Y8064500D01*
X10690917Y8087655D01*
X10681979Y8109233D01*
X10667761Y8127761D01*
X10649233Y8141979D01*
X10627655Y8150917D01*
X10604500Y8153965D01*
D02*
G37*
G36*
X14414500D02*
X14391345Y8150917D01*
X14369768Y8141979D01*
X14351239Y8127761D01*
X14337021Y8109233D01*
X14328082Y8087655D01*
X14325035Y8064500D01*
X14328082Y8041345D01*
X14337021Y8019767D01*
X14351239Y8001239D01*
X14369768Y7987021D01*
X14391345Y7978083D01*
X14414500Y7975035D01*
X14437656Y7978083D01*
X14459233Y7987021D01*
X14477760Y8001239D01*
X14491978Y8019767D01*
X14500917Y8041345D01*
X14503966Y8064500D01*
X14500917Y8087655D01*
X14491978Y8109233D01*
X14477760Y8127761D01*
X14459233Y8141979D01*
X14437656Y8150917D01*
X14414500Y8153965D01*
D02*
G37*
G36*
X14160500D02*
X14137344Y8150917D01*
X14115767Y8141979D01*
X14097240Y8127761D01*
X14083022Y8109233D01*
X14074083Y8087655D01*
X14071034Y8064500D01*
X14074083Y8041345D01*
X14083022Y8019767D01*
X14097240Y8001239D01*
X14115767Y7987021D01*
X14137344Y7978083D01*
X14160500Y7975035D01*
X14183655Y7978083D01*
X14205232Y7987021D01*
X14223761Y8001239D01*
X14237979Y8019767D01*
X14246918Y8041345D01*
X14249965Y8064500D01*
X14246918Y8087655D01*
X14237979Y8109233D01*
X14223761Y8127761D01*
X14205232Y8141979D01*
X14183655Y8150917D01*
X14160500Y8153965D01*
D02*
G37*
G36*
X8250000Y7985686D02*
X8236344Y7982969D01*
X8225000Y7975390D01*
X8213656Y7982969D01*
X8200000Y7985686D01*
X8186344Y7982969D01*
X8175000Y7975390D01*
X8163656Y7982969D01*
X8150000Y7985686D01*
X8136344Y7982969D01*
X8125000Y7975390D01*
X8113656Y7982969D01*
X8100000Y7985686D01*
X8086344Y7982969D01*
X8074766Y7975234D01*
X8067031Y7963656D01*
X8064314Y7950000D01*
X8067031Y7936344D01*
X8074766Y7924766D01*
X8086344Y7917031D01*
X8100000Y7914314D01*
X8113656Y7917031D01*
X8125000Y7924610D01*
X8136344Y7917031D01*
X8150000Y7914314D01*
X8163656Y7917031D01*
X8175000Y7924611D01*
X8186344Y7917031D01*
X8200000Y7914314D01*
X8213656Y7917031D01*
X8225000Y7924610D01*
X8236344Y7917031D01*
X8250000Y7914314D01*
X8263656Y7917031D01*
X8275234Y7924766D01*
X8282969Y7936344D01*
X8285686Y7950000D01*
X8282969Y7963656D01*
X8275234Y7975234D01*
X8263656Y7982969D01*
X8250000Y7985686D01*
D02*
G37*
G36*
X14668500Y8153965D02*
X14645345Y8150917D01*
X14623767Y8141979D01*
X14605238Y8127761D01*
X14591022Y8109233D01*
X14582083Y8087655D01*
X14579034Y8064500D01*
X14582083Y8041345D01*
X14591022Y8019767D01*
X14605238Y8001239D01*
X14623767Y7987021D01*
X14645345Y7978083D01*
X14668500Y7975035D01*
X14691655Y7978083D01*
X14713232Y7987021D01*
X14731761Y8001239D01*
X14745979Y8019767D01*
X14754916Y8041345D01*
X14757965Y8064500D01*
X14754916Y8087655D01*
X14745979Y8109233D01*
X14731761Y8127761D01*
X14713232Y8141979D01*
X14691655Y8150917D01*
X14668500Y8153965D01*
D02*
G37*
G36*
X10750000Y8363333D02*
X10733417Y8360034D01*
X10719359Y8350641D01*
X10709966Y8336583D01*
X10706667Y8320000D01*
X10709966Y8303417D01*
X10719359Y8289359D01*
X10733417Y8279966D01*
X10750000Y8276667D01*
X10766583Y8279966D01*
X10780641Y8289359D01*
X10790034Y8303417D01*
X10793333Y8320000D01*
X10790034Y8336583D01*
X10780641Y8350641D01*
X10766583Y8360034D01*
X10750000Y8363333D01*
D02*
G37*
G36*
X10410000Y8343333D02*
X10393417Y8340034D01*
X10379359Y8330641D01*
X10369966Y8316583D01*
X10366667Y8300000D01*
X10369966Y8283417D01*
X10379359Y8269359D01*
X10393417Y8259966D01*
X10410000Y8256667D01*
X10426583Y8259966D01*
X10440641Y8269359D01*
X10450034Y8283417D01*
X10453333Y8300000D01*
X10450034Y8316583D01*
X10440641Y8330641D01*
X10426583Y8340034D01*
X10410000Y8343333D01*
D02*
G37*
G36*
X10870000Y8373333D02*
X10853417Y8370034D01*
X10839359Y8360641D01*
X10829966Y8346583D01*
X10826667Y8330000D01*
X10829966Y8313417D01*
X10839359Y8299359D01*
X10853417Y8289966D01*
X10870000Y8286667D01*
X10886583Y8289966D01*
X10900641Y8299359D01*
X10910034Y8313417D01*
X10913333Y8330000D01*
X10910034Y8346583D01*
X10900641Y8360641D01*
X10886583Y8370034D01*
X10870000Y8373333D01*
D02*
G37*
G36*
X10300000D02*
X10283417Y8370034D01*
X10269359Y8360641D01*
X10259966Y8346583D01*
X10256667Y8330000D01*
X10259966Y8313417D01*
X10269359Y8299359D01*
X10283417Y8289966D01*
X10300000Y8286667D01*
X10316583Y8289966D01*
X10330641Y8299359D01*
X10340034Y8313417D01*
X10343333Y8330000D01*
X10340034Y8346583D01*
X10330641Y8360641D01*
X10316583Y8370034D01*
X10300000Y8373333D01*
D02*
G37*
G36*
X8499983Y8255669D02*
X8486327Y8252953D01*
X8474749Y8245217D01*
X8467014Y8233640D01*
X8464297Y8219984D01*
X8467014Y8206327D01*
X8474749Y8194750D01*
X8486327Y8187014D01*
X8499983Y8184298D01*
X8513639Y8187014D01*
X8525217Y8194750D01*
X8532952Y8206327D01*
X8535669Y8219984D01*
X8532952Y8233640D01*
X8525217Y8245217D01*
X8513639Y8252953D01*
X8499983Y8255669D01*
D02*
G37*
G36*
X14930000Y8165990D02*
Y8072000D01*
X15023990D01*
X15021484Y8091023D01*
X15011247Y8115738D01*
X14994962Y8136962D01*
X14973738Y8153248D01*
X14949023Y8163485D01*
X14930000Y8165990D01*
D02*
G37*
G36*
X9596000D02*
Y8072000D01*
X9689990D01*
X9687485Y8091023D01*
X9677248Y8115738D01*
X9660962Y8136962D01*
X9639738Y8153248D01*
X9615023Y8163485D01*
X9596000Y8165990D01*
D02*
G37*
G36*
X8340000Y8225686D02*
X8326344Y8222969D01*
X8314766Y8215234D01*
X8307031Y8203656D01*
X8304314Y8190000D01*
X8307031Y8176344D01*
X8314766Y8164766D01*
X8326344Y8157031D01*
X8340000Y8154314D01*
X8353656Y8157031D01*
X8365234Y8164766D01*
X8372969Y8176344D01*
X8375686Y8190000D01*
X8372969Y8203656D01*
X8365234Y8215234D01*
X8353656Y8222969D01*
X8340000Y8225686D01*
D02*
G37*
G36*
X15184000Y8165990D02*
Y8072000D01*
X15277991D01*
X15275485Y8091023D01*
X15265248Y8115738D01*
X15248962Y8136962D01*
X15227737Y8153248D01*
X15203023Y8163485D01*
X15184000Y8165990D01*
D02*
G37*
G36*
X11112500Y8153965D02*
X11089345Y8150917D01*
X11067767Y8141979D01*
X11049239Y8127761D01*
X11035021Y8109233D01*
X11026083Y8087655D01*
X11023035Y8064500D01*
X11026083Y8041345D01*
X11035021Y8019767D01*
X11049239Y8001239D01*
X11067767Y7987021D01*
X11089345Y7978083D01*
X11112500Y7975035D01*
X11135655Y7978083D01*
X11157233Y7987021D01*
X11175761Y8001239D01*
X11189979Y8019767D01*
X11198917Y8041345D01*
X11201965Y8064500D01*
X11198917Y8087655D01*
X11189979Y8109233D01*
X11175761Y8127761D01*
X11157233Y8141979D01*
X11135655Y8150917D01*
X11112500Y8153965D01*
D02*
G37*
G36*
X10858500D02*
X10835345Y8150917D01*
X10813767Y8141979D01*
X10795239Y8127761D01*
X10781021Y8109233D01*
X10772083Y8087655D01*
X10769035Y8064500D01*
X10772083Y8041345D01*
X10781021Y8019767D01*
X10795239Y8001239D01*
X10813767Y7987021D01*
X10835345Y7978083D01*
X10858500Y7975035D01*
X10881655Y7978083D01*
X10903233Y7987021D01*
X10921761Y8001239D01*
X10935979Y8019767D01*
X10944917Y8041345D01*
X10947965Y8064500D01*
X10944917Y8087655D01*
X10935979Y8109233D01*
X10921761Y8127761D01*
X10903233Y8141979D01*
X10881655Y8150917D01*
X10858500Y8153965D01*
D02*
G37*
G36*
X11620500D02*
X11597345Y8150917D01*
X11575767Y8141979D01*
X11557239Y8127761D01*
X11543021Y8109233D01*
X11534083Y8087655D01*
X11531035Y8064500D01*
X11534083Y8041345D01*
X11543021Y8019767D01*
X11557239Y8001239D01*
X11575767Y7987021D01*
X11597345Y7978083D01*
X11620500Y7975035D01*
X11643655Y7978083D01*
X11665233Y7987021D01*
X11683761Y8001239D01*
X11697979Y8019767D01*
X11706917Y8041345D01*
X11709965Y8064500D01*
X11706917Y8087655D01*
X11697979Y8109233D01*
X11683761Y8127761D01*
X11665233Y8141979D01*
X11643655Y8150917D01*
X11620500Y8153965D01*
D02*
G37*
G36*
X11366500D02*
X11343345Y8150917D01*
X11321767Y8141979D01*
X11303239Y8127761D01*
X11289021Y8109233D01*
X11280083Y8087655D01*
X11277035Y8064500D01*
X11280083Y8041345D01*
X11289021Y8019767D01*
X11303239Y8001239D01*
X11321767Y7987021D01*
X11343345Y7978083D01*
X11366500Y7975035D01*
X11389655Y7978083D01*
X11411233Y7987021D01*
X11429761Y8001239D01*
X11443979Y8019767D01*
X11452917Y8041345D01*
X11455965Y8064500D01*
X11452917Y8087655D01*
X11443979Y8109233D01*
X11429761Y8127761D01*
X11411233Y8141979D01*
X11389655Y8150917D01*
X11366500Y8153965D01*
D02*
G37*
G36*
X10350500D02*
X10327345Y8150917D01*
X10305767Y8141979D01*
X10287239Y8127761D01*
X10273021Y8109233D01*
X10264083Y8087655D01*
X10261035Y8064500D01*
X10264083Y8041345D01*
X10273021Y8019767D01*
X10287239Y8001239D01*
X10305767Y7987021D01*
X10327345Y7978083D01*
X10350500Y7975035D01*
X10373655Y7978083D01*
X10395233Y7987021D01*
X10413761Y8001239D01*
X10427979Y8019767D01*
X10436917Y8041345D01*
X10439965Y8064500D01*
X10436917Y8087655D01*
X10427979Y8109233D01*
X10413761Y8127761D01*
X10395233Y8141979D01*
X10373655Y8150917D01*
X10350500Y8153965D01*
D02*
G37*
G36*
X15277991Y8057000D02*
X15184000D01*
Y7963010D01*
X15203023Y7965515D01*
X15227737Y7975752D01*
X15248962Y7992038D01*
X15265248Y8013262D01*
X15275485Y8037977D01*
X15277991Y8057000D01*
D02*
G37*
G36*
X15023990D02*
X14930000D01*
Y7963010D01*
X14949023Y7965515D01*
X14973738Y7975752D01*
X14994962Y7992038D01*
X15011247Y8013262D01*
X15021484Y8037977D01*
X15023990Y8057000D01*
D02*
G37*
G36*
X10096500Y8153965D02*
X10073345Y8150917D01*
X10051767Y8141979D01*
X10033239Y8127761D01*
X10019021Y8109233D01*
X10010083Y8087655D01*
X10007035Y8064500D01*
X10010083Y8041345D01*
X10019021Y8019767D01*
X10033239Y8001239D01*
X10051767Y7987021D01*
X10073345Y7978083D01*
X10096500Y7975035D01*
X10119655Y7978083D01*
X10141233Y7987021D01*
X10159761Y8001239D01*
X10173979Y8019767D01*
X10182917Y8041345D01*
X10185965Y8064500D01*
X10182917Y8087655D01*
X10173979Y8109233D01*
X10159761Y8127761D01*
X10141233Y8141979D01*
X10119655Y8150917D01*
X10096500Y8153965D01*
D02*
G37*
G36*
X9842500D02*
X9819345Y8150917D01*
X9797767Y8141979D01*
X9779239Y8127761D01*
X9765021Y8109233D01*
X9756083Y8087655D01*
X9753035Y8064500D01*
X9756083Y8041345D01*
X9765021Y8019767D01*
X9779239Y8001239D01*
X9797767Y7987021D01*
X9819345Y7978083D01*
X9842500Y7975035D01*
X9865655Y7978083D01*
X9887233Y7987021D01*
X9905761Y8001239D01*
X9919979Y8019767D01*
X9928917Y8041345D01*
X9931965Y8064500D01*
X9928917Y8087655D01*
X9919979Y8109233D01*
X9905761Y8127761D01*
X9887233Y8141979D01*
X9865655Y8150917D01*
X9842500Y8153965D01*
D02*
G37*
G36*
X13398500D02*
X13375345Y8150917D01*
X13353767Y8141979D01*
X13335239Y8127761D01*
X13321021Y8109233D01*
X13312083Y8087655D01*
X13309035Y8064500D01*
X13312083Y8041345D01*
X13321021Y8019767D01*
X13335239Y8001239D01*
X13353767Y7987021D01*
X13375345Y7978083D01*
X13398500Y7975035D01*
X13421655Y7978083D01*
X13443233Y7987021D01*
X13461761Y8001239D01*
X13475980Y8019767D01*
X13484917Y8041345D01*
X13487965Y8064500D01*
X13484917Y8087655D01*
X13475980Y8109233D01*
X13461761Y8127761D01*
X13443233Y8141979D01*
X13421655Y8150917D01*
X13398500Y8153965D01*
D02*
G37*
G36*
X13144501D02*
X13121346Y8150917D01*
X13099767Y8141979D01*
X13081239Y8127761D01*
X13067021Y8109233D01*
X13058083Y8087655D01*
X13055035Y8064500D01*
X13058083Y8041345D01*
X13067021Y8019767D01*
X13081239Y8001239D01*
X13099767Y7987021D01*
X13121346Y7978083D01*
X13144501Y7975035D01*
X13167654Y7978083D01*
X13189233Y7987021D01*
X13207761Y8001239D01*
X13221979Y8019767D01*
X13230917Y8041345D01*
X13233965Y8064500D01*
X13230917Y8087655D01*
X13221979Y8109233D01*
X13207761Y8127761D01*
X13189233Y8141979D01*
X13167654Y8150917D01*
X13144501Y8153965D01*
D02*
G37*
G36*
X13906500D02*
X13883345Y8150917D01*
X13861768Y8141979D01*
X13843239Y8127761D01*
X13829021Y8109233D01*
X13820084Y8087655D01*
X13817035Y8064500D01*
X13820084Y8041345D01*
X13829021Y8019767D01*
X13843239Y8001239D01*
X13861768Y7987021D01*
X13883345Y7978083D01*
X13906500Y7975035D01*
X13929655Y7978083D01*
X13951233Y7987021D01*
X13969762Y8001239D01*
X13983978Y8019767D01*
X13992917Y8041345D01*
X13995966Y8064500D01*
X13992917Y8087655D01*
X13983978Y8109233D01*
X13969762Y8127761D01*
X13951233Y8141979D01*
X13929655Y8150917D01*
X13906500Y8153965D01*
D02*
G37*
G36*
X13652499D02*
X13629346Y8150917D01*
X13607767Y8141979D01*
X13589240Y8127761D01*
X13575021Y8109233D01*
X13566083Y8087655D01*
X13563036Y8064500D01*
X13566083Y8041345D01*
X13575021Y8019767D01*
X13589240Y8001239D01*
X13607767Y7987021D01*
X13629346Y7978083D01*
X13652499Y7975035D01*
X13675655Y7978083D01*
X13697234Y7987021D01*
X13715761Y8001239D01*
X13729979Y8019767D01*
X13738918Y8041345D01*
X13741965Y8064500D01*
X13738918Y8087655D01*
X13729979Y8109233D01*
X13715761Y8127761D01*
X13697234Y8141979D01*
X13675655Y8150917D01*
X13652499Y8153965D01*
D02*
G37*
G36*
X12890500D02*
X12867345Y8150917D01*
X12845767Y8141979D01*
X12827238Y8127761D01*
X12813020Y8109233D01*
X12804083Y8087655D01*
X12801035Y8064500D01*
X12804083Y8041345D01*
X12813020Y8019767D01*
X12827238Y8001239D01*
X12845767Y7987021D01*
X12867345Y7978083D01*
X12890500Y7975035D01*
X12913655Y7978083D01*
X12935233Y7987021D01*
X12953761Y8001239D01*
X12967979Y8019767D01*
X12976917Y8041345D01*
X12979965Y8064500D01*
X12976917Y8087655D01*
X12967979Y8109233D01*
X12953761Y8127761D01*
X12935233Y8141979D01*
X12913655Y8150917D01*
X12890500Y8153965D01*
D02*
G37*
G36*
X12128500D02*
X12105345Y8150917D01*
X12083767Y8141979D01*
X12065239Y8127761D01*
X12051021Y8109233D01*
X12042083Y8087655D01*
X12039035Y8064500D01*
X12042083Y8041345D01*
X12051021Y8019767D01*
X12065239Y8001239D01*
X12083767Y7987021D01*
X12105345Y7978083D01*
X12128500Y7975035D01*
X12151655Y7978083D01*
X12173233Y7987021D01*
X12191761Y8001239D01*
X12205979Y8019767D01*
X12214917Y8041345D01*
X12217965Y8064500D01*
X12214917Y8087655D01*
X12205979Y8109233D01*
X12191761Y8127761D01*
X12173233Y8141979D01*
X12151655Y8150917D01*
X12128500Y8153965D01*
D02*
G37*
G36*
X11874500D02*
X11851345Y8150917D01*
X11829767Y8141979D01*
X11811239Y8127761D01*
X11797021Y8109233D01*
X11788083Y8087655D01*
X11785035Y8064500D01*
X11788083Y8041345D01*
X11797021Y8019767D01*
X11811239Y8001239D01*
X11829767Y7987021D01*
X11851345Y7978083D01*
X11874500Y7975035D01*
X11897655Y7978083D01*
X11919233Y7987021D01*
X11937761Y8001239D01*
X11951979Y8019767D01*
X11960917Y8041345D01*
X11963965Y8064500D01*
X11960917Y8087655D01*
X11951979Y8109233D01*
X11937761Y8127761D01*
X11919233Y8141979D01*
X11897655Y8150917D01*
X11874500Y8153965D01*
D02*
G37*
G36*
X12636500D02*
X12613345Y8150917D01*
X12591767Y8141979D01*
X12573239Y8127761D01*
X12559021Y8109233D01*
X12550083Y8087655D01*
X12547035Y8064500D01*
X12550083Y8041345D01*
X12559021Y8019767D01*
X12573239Y8001239D01*
X12591767Y7987021D01*
X12613345Y7978083D01*
X12636500Y7975035D01*
X12659655Y7978083D01*
X12681233Y7987021D01*
X12699761Y8001239D01*
X12713979Y8019767D01*
X12722917Y8041345D01*
X12725965Y8064500D01*
X12722917Y8087655D01*
X12713979Y8109233D01*
X12699761Y8127761D01*
X12681233Y8141979D01*
X12659655Y8150917D01*
X12636500Y8153965D01*
D02*
G37*
G36*
X12382500D02*
X12359345Y8150917D01*
X12337767Y8141979D01*
X12319239Y8127761D01*
X12305021Y8109233D01*
X12296083Y8087655D01*
X12293035Y8064500D01*
X12296083Y8041345D01*
X12305021Y8019767D01*
X12319239Y8001239D01*
X12337767Y7987021D01*
X12359345Y7978083D01*
X12382500Y7975035D01*
X12405655Y7978083D01*
X12427233Y7987021D01*
X12445761Y8001239D01*
X12459979Y8019767D01*
X12468917Y8041345D01*
X12471965Y8064500D01*
X12468917Y8087655D01*
X12459979Y8109233D01*
X12445761Y8127761D01*
X12427233Y8141979D01*
X12405655Y8150917D01*
X12382500Y8153965D01*
D02*
G37*
G36*
X12740000Y10443333D02*
X12723417Y10440034D01*
X12709359Y10430641D01*
X12699966Y10416583D01*
X12696667Y10400000D01*
X12699966Y10383417D01*
X12709359Y10369359D01*
X12723417Y10359966D01*
X12740000Y10356667D01*
X12756583Y10359966D01*
X12770641Y10369359D01*
X12780034Y10383417D01*
X12783333Y10400000D01*
X12780034Y10416583D01*
X12770641Y10430641D01*
X12756583Y10440034D01*
X12740000Y10443333D01*
D02*
G37*
G36*
X11112500Y12725965D02*
X11089345Y12722917D01*
X11067767Y12713979D01*
X11049239Y12699761D01*
X11035021Y12681233D01*
X11026083Y12659655D01*
X11023035Y12636500D01*
X11026083Y12613345D01*
X11035021Y12591767D01*
X11049239Y12573239D01*
X11067767Y12559021D01*
X11089345Y12550083D01*
X11112500Y12547035D01*
X11135655Y12550083D01*
X11157233Y12559021D01*
X11175761Y12573239D01*
X11189979Y12591767D01*
X11198917Y12613345D01*
X11201965Y12636500D01*
X11198917Y12659655D01*
X11189979Y12681233D01*
X11175761Y12699761D01*
X11157233Y12713979D01*
X11135655Y12722917D01*
X11112500Y12725965D01*
D02*
G37*
G36*
X10858500D02*
X10835345Y12722917D01*
X10813767Y12713979D01*
X10795239Y12699761D01*
X10781021Y12681233D01*
X10772083Y12659655D01*
X10769035Y12636500D01*
X10772083Y12613345D01*
X10781021Y12591767D01*
X10795239Y12573239D01*
X10813767Y12559021D01*
X10835345Y12550083D01*
X10858500Y12547035D01*
X10881655Y12550083D01*
X10903233Y12559021D01*
X10921761Y12573239D01*
X10935979Y12591767D01*
X10944917Y12613345D01*
X10947965Y12636500D01*
X10944917Y12659655D01*
X10935979Y12681233D01*
X10921761Y12699761D01*
X10903233Y12713979D01*
X10881655Y12722917D01*
X10858500Y12725965D01*
D02*
G37*
G36*
X11620500D02*
X11597345Y12722917D01*
X11575767Y12713979D01*
X11557239Y12699761D01*
X11543021Y12681233D01*
X11534083Y12659655D01*
X11531035Y12636500D01*
X11533551Y12617385D01*
X11528582Y12609039D01*
X11523702Y12605219D01*
X11510076Y12602509D01*
X11496018Y12593116D01*
X11486624Y12579057D01*
X11483326Y12562475D01*
X11486624Y12545892D01*
X11489532Y12541540D01*
X11493380Y12530052D01*
X11486295Y12525266D01*
X11479336Y12520616D01*
X11469943Y12506558D01*
X11466644Y12489975D01*
X11469943Y12473392D01*
X11479336Y12459334D01*
X11493394Y12449941D01*
X11509977Y12446642D01*
X11526560Y12449941D01*
X11540618Y12459334D01*
X11550011Y12473392D01*
X11553310Y12489975D01*
X11550011Y12506558D01*
X11547103Y12510910D01*
X11543256Y12522398D01*
X11550340Y12527184D01*
X11557299Y12531834D01*
X11566693Y12545892D01*
X11567397Y12549435D01*
X11568837Y12551083D01*
X11581759Y12556539D01*
X11597345Y12550083D01*
X11620500Y12547035D01*
X11643655Y12550083D01*
X11665233Y12559021D01*
X11683761Y12573239D01*
X11697979Y12591767D01*
X11706917Y12613345D01*
X11709965Y12636500D01*
X11706917Y12659655D01*
X11697979Y12681233D01*
X11683761Y12699761D01*
X11665233Y12713979D01*
X11643655Y12722917D01*
X11620500Y12725965D01*
D02*
G37*
G36*
X11366500D02*
X11343345Y12722917D01*
X11321767Y12713979D01*
X11303239Y12699761D01*
X11289021Y12681233D01*
X11280083Y12659655D01*
X11277035Y12636500D01*
X11280083Y12613345D01*
X11289021Y12591767D01*
X11303239Y12573239D01*
X11321767Y12559021D01*
X11343345Y12550083D01*
X11366500Y12547035D01*
X11389655Y12550083D01*
X11411233Y12559021D01*
X11429761Y12573239D01*
X11443979Y12591767D01*
X11452917Y12613345D01*
X11455965Y12636500D01*
X11452917Y12659655D01*
X11443979Y12681233D01*
X11429761Y12699761D01*
X11411233Y12713979D01*
X11389655Y12722917D01*
X11366500Y12725965D01*
D02*
G37*
G36*
X10604500D02*
X10581345Y12722917D01*
X10559767Y12713979D01*
X10541239Y12699761D01*
X10527021Y12681233D01*
X10518083Y12659655D01*
X10515035Y12636500D01*
X10518083Y12613345D01*
X10527021Y12591767D01*
X10541239Y12573239D01*
X10559767Y12559021D01*
X10581345Y12550083D01*
X10604500Y12547035D01*
X10627655Y12550083D01*
X10649233Y12559021D01*
X10667761Y12573239D01*
X10681979Y12591767D01*
X10690917Y12613345D01*
X10693965Y12636500D01*
X10690917Y12659655D01*
X10681979Y12681233D01*
X10667761Y12699761D01*
X10649233Y12713979D01*
X10627655Y12722917D01*
X10604500Y12725965D01*
D02*
G37*
G36*
X9581000Y12629000D02*
X9486900D01*
Y12534900D01*
X9581000D01*
Y12629000D01*
D02*
G37*
G36*
X9090000Y12613333D02*
X9073417Y12610034D01*
X9059359Y12600641D01*
X9049966Y12586583D01*
X9046667Y12570000D01*
X9049966Y12553417D01*
X9059359Y12539359D01*
X9073417Y12529966D01*
X9090000Y12526667D01*
X9106583Y12529966D01*
X9120641Y12539359D01*
X9130034Y12553417D01*
X9133333Y12570000D01*
X9130034Y12586583D01*
X9120641Y12600641D01*
X9106583Y12610034D01*
X9090000Y12613333D01*
D02*
G37*
G36*
X9842500Y12725965D02*
X9819345Y12722917D01*
X9797767Y12713979D01*
X9779239Y12699761D01*
X9765021Y12681233D01*
X9756083Y12659655D01*
X9753035Y12636500D01*
X9756083Y12613345D01*
X9765021Y12591767D01*
X9779239Y12573239D01*
X9797767Y12559021D01*
X9819345Y12550083D01*
X9842500Y12547035D01*
X9865655Y12550083D01*
X9887233Y12559021D01*
X9905761Y12573239D01*
X9919979Y12591767D01*
X9928917Y12613345D01*
X9931965Y12636500D01*
X9928917Y12659655D01*
X9919979Y12681233D01*
X9905761Y12699761D01*
X9887233Y12713979D01*
X9865655Y12722917D01*
X9842500Y12725965D01*
D02*
G37*
G36*
X9690100Y12629000D02*
X9596000D01*
Y12534900D01*
X9690100D01*
Y12629000D01*
D02*
G37*
G36*
X13652499Y12725965D02*
X13629346Y12722917D01*
X13607767Y12713979D01*
X13589240Y12699761D01*
X13575021Y12681233D01*
X13566083Y12659655D01*
X13563036Y12636500D01*
X13566083Y12613345D01*
X13575021Y12591767D01*
X13589240Y12573239D01*
X13607767Y12559021D01*
X13629346Y12550083D01*
X13652499Y12547035D01*
X13675655Y12550083D01*
X13697234Y12559021D01*
X13715761Y12573239D01*
X13729979Y12591767D01*
X13738918Y12613345D01*
X13741965Y12636500D01*
X13738918Y12659655D01*
X13729979Y12681233D01*
X13715761Y12699761D01*
X13697234Y12713979D01*
X13675655Y12722917D01*
X13652499Y12725965D01*
D02*
G37*
G36*
X13398500D02*
X13375345Y12722917D01*
X13353767Y12713979D01*
X13335239Y12699761D01*
X13321021Y12681233D01*
X13312083Y12659655D01*
X13309035Y12636500D01*
X13312083Y12613345D01*
X13321021Y12591767D01*
X13335239Y12573239D01*
X13353767Y12559021D01*
X13375345Y12550083D01*
X13398500Y12547035D01*
X13421655Y12550083D01*
X13443233Y12559021D01*
X13461761Y12573239D01*
X13475980Y12591767D01*
X13484917Y12613345D01*
X13487965Y12636500D01*
X13484917Y12659655D01*
X13475980Y12681233D01*
X13461761Y12699761D01*
X13443233Y12713979D01*
X13421655Y12722917D01*
X13398500Y12725965D01*
D02*
G37*
G36*
X14160500D02*
X14137344Y12722917D01*
X14115767Y12713979D01*
X14097240Y12699761D01*
X14083022Y12681233D01*
X14074083Y12659655D01*
X14071034Y12636500D01*
X14074083Y12613345D01*
X14083022Y12591767D01*
X14097240Y12573239D01*
X14115767Y12559021D01*
X14137344Y12550083D01*
X14160500Y12547035D01*
X14183655Y12550083D01*
X14205232Y12559021D01*
X14223761Y12573239D01*
X14237979Y12591767D01*
X14246918Y12613345D01*
X14249965Y12636500D01*
X14246918Y12659655D01*
X14237979Y12681233D01*
X14223761Y12699761D01*
X14205232Y12713979D01*
X14183655Y12722917D01*
X14160500Y12725965D01*
D02*
G37*
G36*
X13906500D02*
X13883345Y12722917D01*
X13861768Y12713979D01*
X13843239Y12699761D01*
X13829021Y12681233D01*
X13820084Y12659655D01*
X13817035Y12636500D01*
X13820084Y12613345D01*
X13829021Y12591767D01*
X13843239Y12573239D01*
X13861768Y12559021D01*
X13883345Y12550083D01*
X13906500Y12547035D01*
X13929655Y12550083D01*
X13951233Y12559021D01*
X13969762Y12573239D01*
X13983978Y12591767D01*
X13992917Y12613345D01*
X13995966Y12636500D01*
X13992917Y12659655D01*
X13983978Y12681233D01*
X13969762Y12699761D01*
X13951233Y12713979D01*
X13929655Y12722917D01*
X13906500Y12725965D01*
D02*
G37*
G36*
X13030000Y12763333D02*
X13013417Y12760034D01*
X12999359Y12750641D01*
X12989966Y12736583D01*
X12986667Y12720000D01*
X12989966Y12703417D01*
X12999359Y12689359D01*
X13013417Y12679966D01*
X13030000Y12676667D01*
X13046584Y12679966D01*
X13055109Y12685663D01*
X13065369Y12677244D01*
X13058083Y12659655D01*
X13055035Y12636500D01*
X13058083Y12613345D01*
X13067021Y12591767D01*
X13081239Y12573239D01*
X13099767Y12559021D01*
X13121346Y12550083D01*
X13144501Y12547035D01*
X13167654Y12550083D01*
X13189233Y12559021D01*
X13207761Y12573239D01*
X13221979Y12591767D01*
X13230917Y12613345D01*
X13233965Y12636500D01*
X13230917Y12659655D01*
X13221979Y12681233D01*
X13207761Y12699761D01*
X13189233Y12713979D01*
X13167654Y12722917D01*
X13144501Y12725965D01*
X13121346Y12722917D01*
X13099767Y12713979D01*
X13082191Y12700493D01*
X13078633Y12701540D01*
X13070734Y12706933D01*
X13073334Y12720000D01*
X13070033Y12736583D01*
X13060641Y12750641D01*
X13046584Y12760034D01*
X13030000Y12763333D01*
D02*
G37*
G36*
X12128500Y12725965D02*
X12105345Y12722917D01*
X12083767Y12713979D01*
X12065239Y12699761D01*
X12051021Y12681233D01*
X12042083Y12659655D01*
X12039035Y12636500D01*
X12042083Y12613345D01*
X12051021Y12591767D01*
X12065239Y12573239D01*
X12083767Y12559021D01*
X12105345Y12550083D01*
X12128500Y12547035D01*
X12151655Y12550083D01*
X12173233Y12559021D01*
X12191761Y12573239D01*
X12205979Y12591767D01*
X12214917Y12613345D01*
X12217965Y12636500D01*
X12214917Y12659655D01*
X12205979Y12681233D01*
X12191761Y12699761D01*
X12173233Y12713979D01*
X12151655Y12722917D01*
X12128500Y12725965D01*
D02*
G37*
G36*
X11874500D02*
X11851345Y12722917D01*
X11829767Y12713979D01*
X11811239Y12699761D01*
X11797021Y12681233D01*
X11788083Y12659655D01*
X11785035Y12636500D01*
X11788083Y12613345D01*
X11797021Y12591767D01*
X11811239Y12573239D01*
X11829767Y12559021D01*
X11851345Y12550083D01*
X11874500Y12547035D01*
X11897655Y12550083D01*
X11919233Y12559021D01*
X11937761Y12573239D01*
X11951979Y12591767D01*
X11960917Y12613345D01*
X11963965Y12636500D01*
X11960917Y12659655D01*
X11951979Y12681233D01*
X11937761Y12699761D01*
X11919233Y12713979D01*
X11897655Y12722917D01*
X11874500Y12725965D01*
D02*
G37*
G36*
X12890500D02*
X12867345Y12722917D01*
X12845767Y12713979D01*
X12827238Y12699761D01*
X12813020Y12681233D01*
X12804083Y12659655D01*
X12801035Y12636500D01*
X12804083Y12613345D01*
X12813020Y12591767D01*
X12827238Y12573239D01*
X12845767Y12559021D01*
X12867345Y12550083D01*
X12890500Y12547035D01*
X12913655Y12550083D01*
X12935233Y12559021D01*
X12953761Y12573239D01*
X12967979Y12591767D01*
X12976917Y12613345D01*
X12979965Y12636500D01*
X12976917Y12659655D01*
X12967979Y12681233D01*
X12953761Y12699761D01*
X12935233Y12713979D01*
X12913655Y12722917D01*
X12890500Y12725965D01*
D02*
G37*
G36*
X12636500D02*
X12613345Y12722917D01*
X12591767Y12713979D01*
X12573239Y12699761D01*
X12559021Y12681233D01*
X12550083Y12659655D01*
X12547035Y12636500D01*
X12550083Y12613345D01*
X12559021Y12591767D01*
X12573239Y12573239D01*
X12591767Y12559021D01*
X12613345Y12550083D01*
X12636500Y12547035D01*
X12659655Y12550083D01*
X12681233Y12559021D01*
X12699761Y12573239D01*
X12713979Y12591767D01*
X12722917Y12613345D01*
X12725965Y12636500D01*
X12722917Y12659655D01*
X12713979Y12681233D01*
X12699761Y12699761D01*
X12681233Y12713979D01*
X12659655Y12722917D01*
X12636500Y12725965D01*
D02*
G37*
G36*
X12770000Y12595686D02*
X12756344Y12592969D01*
X12744766Y12585234D01*
X12737031Y12573656D01*
X12734314Y12560000D01*
X12737031Y12546344D01*
X12744766Y12534766D01*
X12756344Y12527031D01*
X12770000Y12524314D01*
X12783656Y12527031D01*
X12795234Y12534766D01*
X12802969Y12546344D01*
X12805685Y12560000D01*
X12802969Y12573656D01*
X12795234Y12585234D01*
X12783656Y12592969D01*
X12770000Y12595686D01*
D02*
G37*
G36*
X9390000Y12473333D02*
X9373417Y12470034D01*
X9359359Y12460641D01*
X9349966Y12446583D01*
X9346667Y12430000D01*
X9349966Y12413417D01*
X9359359Y12399359D01*
X9373417Y12389966D01*
X9390000Y12386667D01*
X9406583Y12389966D01*
X9420641Y12399359D01*
X9430034Y12413417D01*
X9433333Y12430000D01*
X9430034Y12446583D01*
X9420641Y12460641D01*
X9406583Y12470034D01*
X9390000Y12473333D01*
D02*
G37*
G36*
X9520000Y12453333D02*
X9503417Y12450034D01*
X9489359Y12440641D01*
X9479966Y12426583D01*
X9476667Y12410000D01*
X9479966Y12393417D01*
X9489359Y12379359D01*
X9503417Y12369966D01*
X9520000Y12366667D01*
X9536583Y12369966D01*
X9550641Y12379359D01*
X9560034Y12393417D01*
X9563333Y12410000D01*
X9560034Y12426583D01*
X9550641Y12440641D01*
X9536583Y12450034D01*
X9520000Y12453333D01*
D02*
G37*
G36*
X10800000Y12483333D02*
X10783417Y12480034D01*
X10769359Y12470641D01*
X10759966Y12456583D01*
X10756667Y12440000D01*
X10759966Y12423417D01*
X10769359Y12409359D01*
X10783417Y12399966D01*
X10800000Y12396667D01*
X10816583Y12399966D01*
X10830641Y12409359D01*
X10840034Y12423417D01*
X10843333Y12440000D01*
X10840034Y12456583D01*
X10830641Y12470641D01*
X10816583Y12480034D01*
X10800000Y12483333D01*
D02*
G37*
G36*
X13110001Y12533333D02*
X13093417Y12530034D01*
X13079359Y12520641D01*
X13069966Y12506583D01*
X13066667Y12490000D01*
X13069966Y12473417D01*
X13079359Y12459359D01*
X13093417Y12449966D01*
X13110001Y12446667D01*
X13126582Y12449966D01*
X13128996Y12451579D01*
X13130315Y12450978D01*
X13139288Y12443182D01*
X13136667Y12430000D01*
X13139966Y12413417D01*
X13149359Y12399359D01*
X13163417Y12389966D01*
X13180000Y12386667D01*
X13196584Y12389966D01*
X13210641Y12399359D01*
X13220033Y12413417D01*
X13223334Y12430000D01*
X13220033Y12446583D01*
X13210641Y12460641D01*
X13196584Y12470034D01*
X13180000Y12473333D01*
X13163417Y12470034D01*
X13161005Y12468421D01*
X13159686Y12469022D01*
X13150711Y12476818D01*
X13153333Y12490000D01*
X13150034Y12506583D01*
X13140640Y12520641D01*
X13126582Y12530034D01*
X13110001Y12533333D01*
D02*
G37*
G36*
X10500000Y12435686D02*
X10486344Y12432969D01*
X10474766Y12425234D01*
X10467031Y12413656D01*
X10464314Y12400000D01*
X10467031Y12386344D01*
X10474766Y12374766D01*
X10486344Y12367031D01*
X10500000Y12364314D01*
X10513656Y12367031D01*
X10525234Y12374766D01*
X10532969Y12386344D01*
X10535686Y12400000D01*
X10532969Y12413656D01*
X10525234Y12425234D01*
X10513656Y12432969D01*
X10500000Y12435686D01*
D02*
G37*
G36*
X10910000Y12335686D02*
X10896344Y12332969D01*
X10884766Y12325234D01*
X10877031Y12313656D01*
X10874314Y12300000D01*
X10874467Y12299233D01*
X10862504Y12294278D01*
X10857734Y12301416D01*
X10846157Y12309152D01*
X10832500Y12311868D01*
X10818844Y12309152D01*
X10807267Y12301416D01*
X10799531Y12289839D01*
X10796815Y12276183D01*
X10799531Y12262526D01*
X10807267Y12250949D01*
X10818844Y12243214D01*
X10832500Y12240497D01*
X10846157Y12243214D01*
X10857734Y12250949D01*
X10865470Y12262526D01*
X10868186Y12276183D01*
X10868033Y12276950D01*
X10879997Y12281905D01*
X10884766Y12274766D01*
X10896344Y12267031D01*
X10910000Y12264314D01*
X10923656Y12267031D01*
X10935234Y12274766D01*
X10942969Y12286344D01*
X10945686Y12300000D01*
X10942969Y12313656D01*
X10935234Y12325234D01*
X10923656Y12332969D01*
X10910000Y12335686D01*
D02*
G37*
G36*
X8439983Y12373308D02*
X8423400Y12370010D01*
X8409342Y12360616D01*
X8399949Y12346558D01*
X8396650Y12329975D01*
X8399949Y12313393D01*
X8409342Y12299335D01*
X8423400Y12289941D01*
X8439983Y12286643D01*
X8456566Y12289941D01*
X8470624Y12299335D01*
X8480017Y12313393D01*
X8483316Y12329975D01*
X8480017Y12346558D01*
X8470624Y12360616D01*
X8456566Y12370010D01*
X8439983Y12373308D01*
D02*
G37*
G36*
X11070000Y12433333D02*
X11053417Y12430034D01*
X11039359Y12420641D01*
X11029966Y12406583D01*
X11026667Y12390000D01*
X11029966Y12373417D01*
X11039359Y12359359D01*
X11053417Y12349966D01*
X11070000Y12346667D01*
X11086583Y12349966D01*
X11100641Y12359359D01*
X11110034Y12373417D01*
X11113333Y12390000D01*
X11110034Y12406583D01*
X11100641Y12420641D01*
X11086583Y12430034D01*
X11070000Y12433333D01*
D02*
G37*
G36*
X11370000Y12393333D02*
X11353417Y12390034D01*
X11339359Y12380641D01*
X11329966Y12366583D01*
X11326667Y12350000D01*
X11329966Y12333417D01*
X11339359Y12319359D01*
X11353417Y12309966D01*
X11370000Y12306667D01*
X11386583Y12309966D01*
X11400641Y12319359D01*
X11410034Y12333417D01*
X11413333Y12350000D01*
X11410034Y12366583D01*
X11400641Y12380641D01*
X11386583Y12390034D01*
X11370000Y12393333D01*
D02*
G37*
G36*
X12382500Y12725965D02*
X12359345Y12722917D01*
X12337767Y12713979D01*
X12319239Y12699761D01*
X12305021Y12681233D01*
X12296083Y12659655D01*
X12293035Y12636500D01*
X12296083Y12613345D01*
X12305021Y12591767D01*
X12319239Y12573239D01*
X12337767Y12559021D01*
X12359345Y12550083D01*
X12382500Y12547035D01*
X12405655Y12550083D01*
X12426036Y12558525D01*
X12427026Y12558086D01*
X12430243Y12556014D01*
X12436297Y12549968D01*
X12434314Y12540000D01*
X12437031Y12526344D01*
X12444766Y12514766D01*
X12456344Y12507031D01*
X12470000Y12504314D01*
X12483656Y12507031D01*
X12495234Y12514766D01*
X12502969Y12526344D01*
X12505686Y12540000D01*
X12502969Y12553656D01*
X12495234Y12565234D01*
X12483656Y12572969D01*
X12470000Y12575686D01*
X12462503Y12574195D01*
X12455338Y12585718D01*
X12459979Y12591767D01*
X12468917Y12613345D01*
X12471965Y12636500D01*
X12468917Y12659655D01*
X12459979Y12681233D01*
X12445761Y12699761D01*
X12427233Y12713979D01*
X12405655Y12722917D01*
X12382500Y12725965D01*
D02*
G37*
G36*
X12249975Y12583308D02*
X12233393Y12580009D01*
X12219335Y12570616D01*
X12209941Y12556558D01*
X12206643Y12539975D01*
X12209941Y12523392D01*
X12219335Y12509334D01*
X12233393Y12499941D01*
X12249975Y12496642D01*
X12266558Y12499941D01*
X12280616Y12509334D01*
X12290010Y12523392D01*
X12293308Y12539975D01*
X12290010Y12556558D01*
X12280616Y12570616D01*
X12266558Y12580009D01*
X12249975Y12583308D01*
D02*
G37*
G36*
X11240000Y12603333D02*
X11223417Y12600034D01*
X11209359Y12590641D01*
X11199966Y12576583D01*
X11196667Y12560000D01*
X11199966Y12543417D01*
X11209359Y12529359D01*
X11223417Y12519966D01*
X11240000Y12516667D01*
X11256583Y12519966D01*
X11270641Y12529359D01*
X11280034Y12543417D01*
X11283333Y12560000D01*
X11280034Y12576583D01*
X11270641Y12590641D01*
X11256583Y12600034D01*
X11240000Y12603333D01*
D02*
G37*
G36*
X12000000Y12593333D02*
X11983417Y12590034D01*
X11969359Y12580641D01*
X11959966Y12566583D01*
X11956667Y12550000D01*
X11959966Y12533417D01*
X11969359Y12519359D01*
X11983417Y12509966D01*
X12000000Y12506667D01*
X12016583Y12509966D01*
X12030641Y12519359D01*
X12040034Y12533417D01*
X12043333Y12550000D01*
X12040034Y12566583D01*
X12030641Y12580641D01*
X12016583Y12590034D01*
X12000000Y12593333D01*
D02*
G37*
G36*
X12620000Y12513333D02*
X12603417Y12510034D01*
X12589359Y12500641D01*
X12579966Y12486583D01*
X12576667Y12470000D01*
X12579966Y12453417D01*
X12589359Y12439359D01*
X12603417Y12429966D01*
X12620000Y12426667D01*
X12636583Y12429966D01*
X12650641Y12439359D01*
X12660034Y12453417D01*
X12663333Y12470000D01*
X12660034Y12486583D01*
X12650641Y12500641D01*
X12636583Y12510034D01*
X12620000Y12513333D01*
D02*
G37*
G36*
X11880000Y12493333D02*
X11863417Y12490034D01*
X11849359Y12480641D01*
X11839966Y12466583D01*
X11836667Y12450000D01*
X11839966Y12433417D01*
X11849359Y12419359D01*
X11863417Y12409966D01*
X11880000Y12406667D01*
X11896583Y12409966D01*
X11910641Y12419359D01*
X11920034Y12433417D01*
X11923333Y12450000D01*
X11920034Y12466583D01*
X11910641Y12480641D01*
X11896583Y12490034D01*
X11880000Y12493333D01*
D02*
G37*
G36*
X10380000D02*
X10363417Y12490034D01*
X10349359Y12480641D01*
X10339966Y12466583D01*
X10336667Y12450000D01*
X10339966Y12433417D01*
X10349359Y12419359D01*
X10363417Y12409966D01*
X10380000Y12406667D01*
X10396583Y12409966D01*
X10410641Y12419359D01*
X10420034Y12433417D01*
X10423333Y12450000D01*
X10420034Y12466583D01*
X10410641Y12480641D01*
X10396583Y12490034D01*
X10380000Y12493333D01*
D02*
G37*
G36*
X11780000Y12503333D02*
X11763417Y12500034D01*
X11749359Y12490641D01*
X11739966Y12476583D01*
X11736667Y12460000D01*
X11739966Y12443417D01*
X11749359Y12429359D01*
X11763417Y12419966D01*
X11780000Y12416667D01*
X11796583Y12419966D01*
X11810641Y12429359D01*
X11820034Y12443417D01*
X11823333Y12460000D01*
X11820034Y12476583D01*
X11810641Y12490641D01*
X11796583Y12500034D01*
X11780000Y12503333D01*
D02*
G37*
G36*
X8600000D02*
X8583417Y12500034D01*
X8569359Y12490641D01*
X8559966Y12476583D01*
X8556667Y12460000D01*
X8559966Y12443417D01*
X8569359Y12429359D01*
X8583417Y12419966D01*
X8600000Y12416667D01*
X8616583Y12419966D01*
X8630641Y12429359D01*
X8640034Y12443417D01*
X8643333Y12460000D01*
X8640034Y12476583D01*
X8630641Y12490641D01*
X8616583Y12500034D01*
X8600000Y12503333D01*
D02*
G37*
G36*
X12890500Y12979965D02*
X12867345Y12976917D01*
X12845767Y12967979D01*
X12827238Y12953761D01*
X12813020Y12935233D01*
X12804083Y12913655D01*
X12801035Y12890500D01*
X12804083Y12867345D01*
X12813020Y12845767D01*
X12827238Y12827238D01*
X12845767Y12813020D01*
X12867345Y12804083D01*
X12890500Y12801035D01*
X12913655Y12804083D01*
X12935233Y12813020D01*
X12953761Y12827238D01*
X12967979Y12845767D01*
X12976917Y12867345D01*
X12979965Y12890500D01*
X12976917Y12913655D01*
X12967979Y12935233D01*
X12953761Y12953761D01*
X12935233Y12967979D01*
X12913655Y12976917D01*
X12890500Y12979965D01*
D02*
G37*
G36*
X12636500D02*
X12613345Y12976917D01*
X12591767Y12967979D01*
X12573239Y12953761D01*
X12559021Y12935233D01*
X12550083Y12913655D01*
X12547035Y12890500D01*
X12550083Y12867345D01*
X12559021Y12845767D01*
X12573239Y12827238D01*
X12591767Y12813020D01*
X12613345Y12804083D01*
X12636500Y12801035D01*
X12659655Y12804083D01*
X12681233Y12813020D01*
X12699761Y12827238D01*
X12713979Y12845767D01*
X12722917Y12867345D01*
X12725965Y12890500D01*
X12722917Y12913655D01*
X12713979Y12935233D01*
X12699761Y12953761D01*
X12681233Y12967979D01*
X12659655Y12976917D01*
X12636500Y12979965D01*
D02*
G37*
G36*
X13398500D02*
X13375345Y12976917D01*
X13353767Y12967979D01*
X13335239Y12953761D01*
X13321021Y12935233D01*
X13312083Y12913655D01*
X13309035Y12890500D01*
X13312083Y12867345D01*
X13321021Y12845767D01*
X13335239Y12827238D01*
X13353767Y12813020D01*
X13375345Y12804083D01*
X13398500Y12801035D01*
X13421655Y12804083D01*
X13443233Y12813020D01*
X13461761Y12827238D01*
X13475980Y12845767D01*
X13484917Y12867345D01*
X13487965Y12890500D01*
X13484917Y12913655D01*
X13475980Y12935233D01*
X13461761Y12953761D01*
X13443233Y12967979D01*
X13421655Y12976917D01*
X13398500Y12979965D01*
D02*
G37*
G36*
X13144501D02*
X13121346Y12976917D01*
X13099767Y12967979D01*
X13081239Y12953761D01*
X13067021Y12935233D01*
X13058083Y12913655D01*
X13055035Y12890500D01*
X13058083Y12867345D01*
X13067021Y12845767D01*
X13081239Y12827238D01*
X13099767Y12813020D01*
X13121346Y12804083D01*
X13144501Y12801035D01*
X13167654Y12804083D01*
X13189233Y12813020D01*
X13207761Y12827238D01*
X13221979Y12845767D01*
X13230917Y12867345D01*
X13233965Y12890500D01*
X13230917Y12913655D01*
X13221979Y12935233D01*
X13207761Y12953761D01*
X13189233Y12967979D01*
X13167654Y12976917D01*
X13144501Y12979965D01*
D02*
G37*
G36*
X12382500D02*
X12359345Y12976917D01*
X12337767Y12967979D01*
X12319239Y12953761D01*
X12305021Y12935233D01*
X12296083Y12913655D01*
X12293035Y12890500D01*
X12296083Y12867345D01*
X12305021Y12845767D01*
X12319239Y12827238D01*
X12337767Y12813020D01*
X12359345Y12804083D01*
X12382500Y12801035D01*
X12405655Y12804083D01*
X12427233Y12813020D01*
X12445761Y12827238D01*
X12459979Y12845767D01*
X12468917Y12867345D01*
X12471965Y12890500D01*
X12468917Y12913655D01*
X12459979Y12935233D01*
X12445761Y12953761D01*
X12427233Y12967979D01*
X12405655Y12976917D01*
X12382500Y12979965D01*
D02*
G37*
G36*
X11620500D02*
X11597345Y12976917D01*
X11575767Y12967979D01*
X11557239Y12953761D01*
X11543021Y12935233D01*
X11534083Y12913655D01*
X11531035Y12890500D01*
X11534083Y12867345D01*
X11543021Y12845767D01*
X11557239Y12827238D01*
X11575767Y12813020D01*
X11597345Y12804083D01*
X11620500Y12801035D01*
X11643655Y12804083D01*
X11665233Y12813020D01*
X11683761Y12827238D01*
X11697979Y12845767D01*
X11706917Y12867345D01*
X11709965Y12890500D01*
X11706917Y12913655D01*
X11697979Y12935233D01*
X11683761Y12953761D01*
X11665233Y12967979D01*
X11643655Y12976917D01*
X11620500Y12979965D01*
D02*
G37*
G36*
X11366500D02*
X11343345Y12976917D01*
X11321767Y12967979D01*
X11303239Y12953761D01*
X11289021Y12935233D01*
X11280083Y12913655D01*
X11277035Y12890500D01*
X11280083Y12867345D01*
X11289021Y12845767D01*
X11303239Y12827238D01*
X11321767Y12813020D01*
X11343345Y12804083D01*
X11366500Y12801035D01*
X11389655Y12804083D01*
X11411233Y12813020D01*
X11429761Y12827238D01*
X11443979Y12845767D01*
X11452917Y12867345D01*
X11455965Y12890500D01*
X11452917Y12913655D01*
X11443979Y12935233D01*
X11429761Y12953761D01*
X11411233Y12967979D01*
X11389655Y12976917D01*
X11366500Y12979965D01*
D02*
G37*
G36*
X12128500D02*
X12105345Y12976917D01*
X12083767Y12967979D01*
X12065239Y12953761D01*
X12051021Y12935233D01*
X12042083Y12913655D01*
X12039035Y12890500D01*
X12042083Y12867345D01*
X12051021Y12845767D01*
X12065239Y12827238D01*
X12083767Y12813020D01*
X12105345Y12804083D01*
X12128500Y12801035D01*
X12151655Y12804083D01*
X12173233Y12813020D01*
X12191761Y12827238D01*
X12205979Y12845767D01*
X12214917Y12867345D01*
X12217965Y12890500D01*
X12214917Y12913655D01*
X12205979Y12935233D01*
X12191761Y12953761D01*
X12173233Y12967979D01*
X12151655Y12976917D01*
X12128500Y12979965D01*
D02*
G37*
G36*
X11874500D02*
X11851345Y12976917D01*
X11829767Y12967979D01*
X11811239Y12953761D01*
X11797021Y12935233D01*
X11788083Y12913655D01*
X11785035Y12890500D01*
X11788083Y12867345D01*
X11797021Y12845767D01*
X11811239Y12827238D01*
X11829767Y12813020D01*
X11851345Y12804083D01*
X11874500Y12801035D01*
X11897655Y12804083D01*
X11919233Y12813020D01*
X11937761Y12827238D01*
X11951979Y12845767D01*
X11960917Y12867345D01*
X11963965Y12890500D01*
X11960917Y12913655D01*
X11951979Y12935233D01*
X11937761Y12953761D01*
X11919233Y12967979D01*
X11897655Y12976917D01*
X11874500Y12979965D01*
D02*
G37*
G36*
X15176500D02*
X15153345Y12976917D01*
X15131767Y12967979D01*
X15113239Y12953761D01*
X15099020Y12935233D01*
X15090083Y12913655D01*
X15087035Y12890500D01*
X15090083Y12867345D01*
X15099020Y12845767D01*
X15113239Y12827238D01*
X15131767Y12813020D01*
X15153345Y12804083D01*
X15176500Y12801035D01*
X15199655Y12804083D01*
X15221233Y12813020D01*
X15239761Y12827238D01*
X15253979Y12845767D01*
X15262917Y12867345D01*
X15265965Y12890500D01*
X15262917Y12913655D01*
X15253979Y12935233D01*
X15239761Y12953761D01*
X15221233Y12967979D01*
X15199655Y12976917D01*
X15176500Y12979965D01*
D02*
G37*
G36*
X14922501D02*
X14899345Y12976917D01*
X14877766Y12967979D01*
X14859239Y12953761D01*
X14845021Y12935233D01*
X14836082Y12913655D01*
X14833035Y12890500D01*
X14836082Y12867345D01*
X14845021Y12845767D01*
X14859239Y12827238D01*
X14877766Y12813020D01*
X14899345Y12804083D01*
X14922501Y12801035D01*
X14945654Y12804083D01*
X14967233Y12813020D01*
X14985760Y12827238D01*
X14999979Y12845767D01*
X15008917Y12867345D01*
X15011964Y12890500D01*
X15008917Y12913655D01*
X14999979Y12935233D01*
X14985760Y12953761D01*
X14967233Y12967979D01*
X14945654Y12976917D01*
X14922501Y12979965D01*
D02*
G37*
G36*
X9596000Y12991991D02*
Y12898000D01*
X9689990D01*
X9687485Y12917023D01*
X9677248Y12941737D01*
X9660962Y12962962D01*
X9639738Y12979248D01*
X9615023Y12989485D01*
X9596000Y12991991D01*
D02*
G37*
G36*
X9581000D02*
X9561977Y12989485D01*
X9537262Y12979248D01*
X9516038Y12962962D01*
X9499752Y12941737D01*
X9489515Y12917023D01*
X9487010Y12898000D01*
X9581000D01*
Y12991991D01*
D02*
G37*
G36*
X14668500Y12979965D02*
X14645345Y12976917D01*
X14623767Y12967979D01*
X14605238Y12953761D01*
X14591022Y12935233D01*
X14582083Y12913655D01*
X14579034Y12890500D01*
X14582083Y12867345D01*
X14591022Y12845767D01*
X14605238Y12827238D01*
X14623767Y12813020D01*
X14645345Y12804083D01*
X14668500Y12801035D01*
X14691655Y12804083D01*
X14713232Y12813020D01*
X14731761Y12827238D01*
X14745979Y12845767D01*
X14754916Y12867345D01*
X14757965Y12890500D01*
X14754916Y12913655D01*
X14745979Y12935233D01*
X14731761Y12953761D01*
X14713232Y12967979D01*
X14691655Y12976917D01*
X14668500Y12979965D01*
D02*
G37*
G36*
X13906500D02*
X13883345Y12976917D01*
X13861768Y12967979D01*
X13843239Y12953761D01*
X13829021Y12935233D01*
X13820084Y12913655D01*
X13817035Y12890500D01*
X13820084Y12867345D01*
X13829021Y12845767D01*
X13843239Y12827238D01*
X13861768Y12813020D01*
X13883345Y12804083D01*
X13906500Y12801035D01*
X13929655Y12804083D01*
X13951233Y12813020D01*
X13969762Y12827238D01*
X13983978Y12845767D01*
X13992917Y12867345D01*
X13995966Y12890500D01*
X13992917Y12913655D01*
X13983978Y12935233D01*
X13969762Y12953761D01*
X13951233Y12967979D01*
X13929655Y12976917D01*
X13906500Y12979965D01*
D02*
G37*
G36*
X13652499D02*
X13629346Y12976917D01*
X13607767Y12967979D01*
X13589240Y12953761D01*
X13575021Y12935233D01*
X13566083Y12913655D01*
X13563036Y12890500D01*
X13566083Y12867345D01*
X13575021Y12845767D01*
X13589240Y12827238D01*
X13607767Y12813020D01*
X13629346Y12804083D01*
X13652499Y12801035D01*
X13675655Y12804083D01*
X13697234Y12813020D01*
X13715761Y12827238D01*
X13729979Y12845767D01*
X13738918Y12867345D01*
X13741965Y12890500D01*
X13738918Y12913655D01*
X13729979Y12935233D01*
X13715761Y12953761D01*
X13697234Y12967979D01*
X13675655Y12976917D01*
X13652499Y12979965D01*
D02*
G37*
G36*
X14414500D02*
X14391345Y12976917D01*
X14369768Y12967979D01*
X14351239Y12953761D01*
X14337021Y12935233D01*
X14328082Y12913655D01*
X14325035Y12890500D01*
X14328082Y12867345D01*
X14337021Y12845767D01*
X14351239Y12827238D01*
X14369768Y12813020D01*
X14391345Y12804083D01*
X14414500Y12801035D01*
X14437656Y12804083D01*
X14459233Y12813020D01*
X14477760Y12827238D01*
X14491978Y12845767D01*
X14500917Y12867345D01*
X14503966Y12890500D01*
X14500917Y12913655D01*
X14491978Y12935233D01*
X14477760Y12953761D01*
X14459233Y12967979D01*
X14437656Y12976917D01*
X14414500Y12979965D01*
D02*
G37*
G36*
X14160500D02*
X14137344Y12976917D01*
X14115767Y12967979D01*
X14097240Y12953761D01*
X14083022Y12935233D01*
X14074083Y12913655D01*
X14071034Y12890500D01*
X14074083Y12867345D01*
X14083022Y12845767D01*
X14097240Y12827238D01*
X14115767Y12813020D01*
X14137344Y12804083D01*
X14160500Y12801035D01*
X14183655Y12804083D01*
X14205232Y12813020D01*
X14223761Y12827238D01*
X14237979Y12845767D01*
X14246918Y12867345D01*
X14249965Y12890500D01*
X14246918Y12913655D01*
X14237979Y12935233D01*
X14223761Y12953761D01*
X14205232Y12967979D01*
X14183655Y12976917D01*
X14160500Y12979965D01*
D02*
G37*
G36*
X11112500D02*
X11089345Y12976917D01*
X11067767Y12967979D01*
X11049239Y12953761D01*
X11035021Y12935233D01*
X11026083Y12913655D01*
X11023035Y12890500D01*
X11026083Y12867345D01*
X11035021Y12845767D01*
X11049239Y12827238D01*
X11067767Y12813020D01*
X11089345Y12804083D01*
X11112500Y12801035D01*
X11135655Y12804083D01*
X11157233Y12813020D01*
X11175761Y12827238D01*
X11189979Y12845767D01*
X11198917Y12867345D01*
X11201965Y12890500D01*
X11198917Y12913655D01*
X11189979Y12935233D01*
X11175761Y12953761D01*
X11157233Y12967979D01*
X11135655Y12976917D01*
X11112500Y12979965D01*
D02*
G37*
G36*
X9690100Y12738100D02*
X9596000D01*
Y12644000D01*
X9690100D01*
Y12738100D01*
D02*
G37*
G36*
X9581000D02*
X9486900D01*
Y12644000D01*
X9581000D01*
Y12738100D01*
D02*
G37*
G36*
X12000000Y12783333D02*
X11983417Y12780034D01*
X11969359Y12770641D01*
X11959966Y12756583D01*
X11956667Y12740000D01*
X11959966Y12723417D01*
X11969359Y12709359D01*
X11983417Y12699966D01*
X12000000Y12696667D01*
X12016583Y12699966D01*
X12030641Y12709359D01*
X12040034Y12723417D01*
X12043333Y12740000D01*
X12040034Y12756583D01*
X12030641Y12770641D01*
X12016583Y12780034D01*
X12000000Y12783333D01*
D02*
G37*
G36*
X8450000D02*
X8433417Y12780034D01*
X8419359Y12770641D01*
X8409966Y12756583D01*
X8406667Y12740000D01*
X8409966Y12723417D01*
X8419359Y12709359D01*
X8433417Y12699966D01*
X8450000Y12696667D01*
X8466583Y12699966D01*
X8480641Y12709359D01*
X8490034Y12723417D01*
X8493333Y12740000D01*
X8490034Y12756583D01*
X8480641Y12770641D01*
X8466583Y12780034D01*
X8450000Y12783333D01*
D02*
G37*
G36*
X10350500Y12725965D02*
X10327345Y12722917D01*
X10305767Y12713979D01*
X10287239Y12699761D01*
X10273021Y12681233D01*
X10264083Y12659655D01*
X10261035Y12636500D01*
X10264083Y12613345D01*
X10252787Y12607428D01*
X10250641Y12610641D01*
X10236583Y12620034D01*
X10220000Y12623333D01*
X10203417Y12620034D01*
X10195950Y12615045D01*
X10184110Y12622408D01*
X10185965Y12636500D01*
X10182917Y12659655D01*
X10173979Y12681233D01*
X10159761Y12699761D01*
X10141233Y12713979D01*
X10119655Y12722917D01*
X10096500Y12725965D01*
X10073345Y12722917D01*
X10051767Y12713979D01*
X10033239Y12699761D01*
X10019021Y12681233D01*
X10010083Y12659655D01*
X10007035Y12636500D01*
X10010083Y12613345D01*
X10019021Y12591767D01*
X10033239Y12573239D01*
X10051767Y12559021D01*
X10073345Y12550083D01*
X10096500Y12547035D01*
X10119655Y12550083D01*
X10141233Y12559021D01*
X10159761Y12573239D01*
X10164618Y12579567D01*
X10177551Y12575559D01*
X10179966Y12563417D01*
X10189359Y12549359D01*
X10203417Y12539966D01*
X10220000Y12536667D01*
X10236583Y12539966D01*
X10250641Y12549359D01*
X10260034Y12563417D01*
X10263333Y12580000D01*
X10263311Y12580110D01*
X10264819Y12581594D01*
X10281733Y12580413D01*
X10287239Y12573239D01*
X10305767Y12559021D01*
X10327345Y12550083D01*
X10350500Y12547035D01*
X10373655Y12550083D01*
X10395233Y12559021D01*
X10413761Y12573239D01*
X10427979Y12591767D01*
X10436917Y12613345D01*
X10439965Y12636500D01*
X10436917Y12659655D01*
X10427979Y12681233D01*
X10413761Y12699761D01*
X10395233Y12713979D01*
X10373655Y12722917D01*
X10350500Y12725965D01*
D02*
G37*
G36*
X14668500D02*
X14645345Y12722917D01*
X14623767Y12713979D01*
X14605238Y12699761D01*
X14591022Y12681233D01*
X14582083Y12659655D01*
X14579034Y12636500D01*
X14582083Y12613345D01*
X14591022Y12591767D01*
X14605238Y12573239D01*
X14623767Y12559021D01*
X14645345Y12550083D01*
X14668500Y12547035D01*
X14691655Y12550083D01*
X14713232Y12559021D01*
X14731761Y12573239D01*
X14745979Y12591767D01*
X14754916Y12613345D01*
X14757965Y12636500D01*
X14754916Y12659655D01*
X14745979Y12681233D01*
X14731761Y12699761D01*
X14713232Y12713979D01*
X14691655Y12722917D01*
X14668500Y12725965D01*
D02*
G37*
G36*
X14414500D02*
X14391345Y12722917D01*
X14369768Y12713979D01*
X14351239Y12699761D01*
X14337021Y12681233D01*
X14328082Y12659655D01*
X14325035Y12636500D01*
X14328082Y12613345D01*
X14337021Y12591767D01*
X14351239Y12573239D01*
X14369768Y12559021D01*
X14391345Y12550083D01*
X14414500Y12547035D01*
X14437656Y12550083D01*
X14459233Y12559021D01*
X14477760Y12573239D01*
X14491978Y12591767D01*
X14500917Y12613345D01*
X14503966Y12636500D01*
X14500917Y12659655D01*
X14491978Y12681233D01*
X14477760Y12699761D01*
X14459233Y12713979D01*
X14437656Y12722917D01*
X14414500Y12725965D01*
D02*
G37*
G36*
X15176500D02*
X15153345Y12722917D01*
X15131767Y12713979D01*
X15113239Y12699761D01*
X15099020Y12681233D01*
X15090083Y12659655D01*
X15087035Y12636500D01*
X15090083Y12613345D01*
X15099020Y12591767D01*
X15113239Y12573239D01*
X15131767Y12559021D01*
X15153345Y12550083D01*
X15176500Y12547035D01*
X15199655Y12550083D01*
X15221233Y12559021D01*
X15239761Y12573239D01*
X15253979Y12591767D01*
X15262917Y12613345D01*
X15265965Y12636500D01*
X15262917Y12659655D01*
X15253979Y12681233D01*
X15239761Y12699761D01*
X15221233Y12713979D01*
X15199655Y12722917D01*
X15176500Y12725965D01*
D02*
G37*
G36*
X14922501D02*
X14899345Y12722917D01*
X14877766Y12713979D01*
X14859239Y12699761D01*
X14845021Y12681233D01*
X14836082Y12659655D01*
X14833035Y12636500D01*
X14836082Y12613345D01*
X14845021Y12591767D01*
X14859239Y12573239D01*
X14877766Y12559021D01*
X14899345Y12550083D01*
X14922501Y12547035D01*
X14945654Y12550083D01*
X14967233Y12559021D01*
X14985760Y12573239D01*
X14999979Y12591767D01*
X15008917Y12613345D01*
X15011964Y12636500D01*
X15008917Y12659655D01*
X14999979Y12681233D01*
X14985760Y12699761D01*
X14967233Y12713979D01*
X14945654Y12722917D01*
X14922501Y12725965D01*
D02*
G37*
G36*
X10350500Y12979965D02*
X10327345Y12976917D01*
X10305767Y12967979D01*
X10287239Y12953761D01*
X10273021Y12935233D01*
X10264083Y12913655D01*
X10261035Y12890500D01*
X10264083Y12867345D01*
X10273021Y12845767D01*
X10287239Y12827238D01*
X10305767Y12813020D01*
X10327345Y12804083D01*
X10350500Y12801035D01*
X10373655Y12804083D01*
X10395233Y12813020D01*
X10413761Y12827238D01*
X10427979Y12845767D01*
X10436917Y12867345D01*
X10439965Y12890500D01*
X10436917Y12913655D01*
X10427979Y12935233D01*
X10413761Y12953761D01*
X10395233Y12967979D01*
X10373655Y12976917D01*
X10350500Y12979965D01*
D02*
G37*
G36*
X10096500D02*
X10073345Y12976917D01*
X10051767Y12967979D01*
X10033239Y12953761D01*
X10019021Y12935233D01*
X10010083Y12913655D01*
X10007035Y12890500D01*
X10010083Y12867345D01*
X10019021Y12845767D01*
X10033239Y12827238D01*
X10051767Y12813020D01*
X10073345Y12804083D01*
X10096500Y12801035D01*
X10119655Y12804083D01*
X10141233Y12813020D01*
X10159761Y12827238D01*
X10173979Y12845767D01*
X10182917Y12867345D01*
X10185965Y12890500D01*
X10182917Y12913655D01*
X10173979Y12935233D01*
X10159761Y12953761D01*
X10141233Y12967979D01*
X10119655Y12976917D01*
X10096500Y12979965D01*
D02*
G37*
G36*
X10858500D02*
X10835345Y12976917D01*
X10813767Y12967979D01*
X10795239Y12953761D01*
X10781021Y12935233D01*
X10772083Y12913655D01*
X10769035Y12890500D01*
X10772083Y12867345D01*
X10781021Y12845767D01*
X10795239Y12827238D01*
X10813767Y12813020D01*
X10835345Y12804083D01*
X10858500Y12801035D01*
X10881655Y12804083D01*
X10903233Y12813020D01*
X10921761Y12827238D01*
X10935979Y12845767D01*
X10944917Y12867345D01*
X10947965Y12890500D01*
X10944917Y12913655D01*
X10935979Y12935233D01*
X10921761Y12953761D01*
X10903233Y12967979D01*
X10881655Y12976917D01*
X10858500Y12979965D01*
D02*
G37*
G36*
X10604500D02*
X10581345Y12976917D01*
X10559767Y12967979D01*
X10541239Y12953761D01*
X10527021Y12935233D01*
X10518083Y12913655D01*
X10515035Y12890500D01*
X10518083Y12867345D01*
X10527021Y12845767D01*
X10541239Y12827238D01*
X10559767Y12813020D01*
X10581345Y12804083D01*
X10604500Y12801035D01*
X10627655Y12804083D01*
X10649233Y12813020D01*
X10667761Y12827238D01*
X10681979Y12845767D01*
X10690917Y12867345D01*
X10693965Y12890500D01*
X10690917Y12913655D01*
X10681979Y12935233D01*
X10667761Y12953761D01*
X10649233Y12967979D01*
X10627655Y12976917D01*
X10604500Y12979965D01*
D02*
G37*
G36*
X9842500D02*
X9819345Y12976917D01*
X9797767Y12967979D01*
X9779239Y12953761D01*
X9765021Y12935233D01*
X9756083Y12913655D01*
X9753035Y12890500D01*
X9756083Y12867345D01*
X9765021Y12845767D01*
X9779239Y12827238D01*
X9797767Y12813020D01*
X9819345Y12804083D01*
X9842500Y12801035D01*
X9865655Y12804083D01*
X9887233Y12813020D01*
X9905761Y12827238D01*
X9919979Y12845767D01*
X9928917Y12867345D01*
X9931965Y12890500D01*
X9928917Y12913655D01*
X9919979Y12935233D01*
X9905761Y12953761D01*
X9887233Y12967979D01*
X9865655Y12976917D01*
X9842500Y12979965D01*
D02*
G37*
G36*
X8580000Y12803333D02*
X8563417Y12800034D01*
X8549359Y12790641D01*
X8539966Y12776583D01*
X8536667Y12760000D01*
X8539966Y12743417D01*
X8549359Y12729359D01*
X8563417Y12719966D01*
X8580000Y12716667D01*
X8596583Y12719966D01*
X8610641Y12729359D01*
X8620034Y12743417D01*
X8623333Y12760000D01*
X8620034Y12776583D01*
X8610641Y12790641D01*
X8596583Y12800034D01*
X8580000Y12803333D01*
D02*
G37*
G36*
X12537800Y12795533D02*
X12521217Y12792235D01*
X12507159Y12782841D01*
X12497766Y12768783D01*
X12494467Y12752200D01*
X12497766Y12735618D01*
X12507159Y12721560D01*
X12521217Y12712166D01*
X12537800Y12708868D01*
X12554383Y12712166D01*
X12568441Y12721560D01*
X12577834Y12735618D01*
X12581133Y12752200D01*
X12577834Y12768783D01*
X12568441Y12782841D01*
X12554383Y12792235D01*
X12537800Y12795533D01*
D02*
G37*
G36*
X9689990Y12883000D02*
X9596000D01*
Y12789010D01*
X9615023Y12791515D01*
X9639738Y12801752D01*
X9660962Y12818037D01*
X9677248Y12839262D01*
X9687485Y12863977D01*
X9689990Y12883000D01*
D02*
G37*
G36*
X9581000D02*
X9487010D01*
X9489515Y12863977D01*
X9499752Y12839262D01*
X9516038Y12818037D01*
X9537262Y12801752D01*
X9561977Y12791515D01*
X9581000Y12789010D01*
Y12883000D01*
D02*
G37*
G36*
X9980000Y11223333D02*
X9963417Y11220034D01*
X9949359Y11210641D01*
X9939966Y11196583D01*
X9936667Y11180000D01*
X9939966Y11163417D01*
X9949359Y11149359D01*
X9963417Y11139966D01*
X9980000Y11136667D01*
X9996583Y11139966D01*
X10010641Y11149359D01*
X10020034Y11163417D01*
X10023333Y11180000D01*
X10020034Y11196583D01*
X10010641Y11210641D01*
X9996583Y11220034D01*
X9980000Y11223333D01*
D02*
G37*
G36*
X11070000Y11233333D02*
X11053417Y11230034D01*
X11039359Y11220641D01*
X11029966Y11206583D01*
X11026667Y11190000D01*
X11029966Y11173417D01*
X11039359Y11159359D01*
X11050290Y11152056D01*
X11051074Y11149039D01*
Y11140961D01*
X11050290Y11137944D01*
X11039359Y11130641D01*
X11029966Y11116583D01*
X11026667Y11100000D01*
X11029966Y11083417D01*
X11039359Y11069359D01*
X11052041Y11060885D01*
X11046560Y11050013D01*
X11029978Y11053311D01*
X11013395Y11050012D01*
X10999337Y11040619D01*
X10989944Y11026561D01*
X10986645Y11009978D01*
X10989944Y10993395D01*
X10999337Y10979337D01*
X11013395Y10969944D01*
X11029978Y10966645D01*
X11046561Y10969944D01*
X11060619Y10979337D01*
X11070012Y10993395D01*
X11073311Y11009978D01*
X11070012Y11026561D01*
X11060619Y11040619D01*
X11047937Y11049093D01*
X11053418Y11059965D01*
X11070000Y11056667D01*
X11086583Y11059966D01*
X11100641Y11069359D01*
X11110034Y11083417D01*
X11113333Y11100000D01*
X11110034Y11116583D01*
X11100641Y11130641D01*
X11089710Y11137944D01*
X11088925Y11140961D01*
Y11149039D01*
X11089710Y11152056D01*
X11100641Y11159359D01*
X11110034Y11173417D01*
X11113333Y11190000D01*
X11110034Y11206583D01*
X11100641Y11220641D01*
X11086583Y11230034D01*
X11070000Y11233333D01*
D02*
G37*
G36*
X10600000Y11295686D02*
X10586344Y11292969D01*
X10574766Y11285234D01*
X10567031Y11273656D01*
X10564314Y11260000D01*
X10567031Y11246344D01*
X10574766Y11234766D01*
X10586344Y11227031D01*
X10600000Y11224314D01*
X10613656Y11227031D01*
X10625234Y11234766D01*
X10632969Y11246344D01*
X10635686Y11260000D01*
X10632969Y11273656D01*
X10625234Y11285234D01*
X10613656Y11292969D01*
X10600000Y11295686D01*
D02*
G37*
G36*
X13610001Y11233333D02*
X13593417Y11230034D01*
X13579359Y11220641D01*
X13569966Y11206583D01*
X13566667Y11190000D01*
X13569966Y11173417D01*
X13579359Y11159359D01*
X13593417Y11149966D01*
X13610001Y11146667D01*
X13626582Y11149966D01*
X13640640Y11159359D01*
X13650034Y11173417D01*
X13653333Y11190000D01*
X13650034Y11206583D01*
X13640640Y11220641D01*
X13626582Y11230034D01*
X13610001Y11233333D01*
D02*
G37*
G36*
X14750000Y11123333D02*
X14733417Y11120034D01*
X14719359Y11110641D01*
X14709966Y11096583D01*
X14706667Y11080000D01*
X14709966Y11063417D01*
X14719359Y11049359D01*
X14733417Y11039966D01*
X14750000Y11036667D01*
X14766583Y11039966D01*
X14780641Y11049359D01*
X14790034Y11063417D01*
X14793333Y11080000D01*
X14790034Y11096583D01*
X14780641Y11110641D01*
X14766583Y11120034D01*
X14750000Y11123333D01*
D02*
G37*
G36*
X10790000Y11062046D02*
X10776344Y11059329D01*
X10764766Y11051594D01*
X10757031Y11040017D01*
X10754314Y11026360D01*
X10757031Y11012704D01*
X10764766Y11001127D01*
X10776344Y10993391D01*
X10790000Y10990674D01*
X10803656Y10993391D01*
X10815234Y11001127D01*
X10822969Y11012704D01*
X10825686Y11026360D01*
X10822969Y11040017D01*
X10815234Y11051594D01*
X10803656Y11059329D01*
X10790000Y11062046D01*
D02*
G37*
G36*
X10690000Y11103333D02*
X10673417Y11100034D01*
X10659359Y11090641D01*
X10649966Y11076583D01*
X10646667Y11060000D01*
X10649966Y11043417D01*
X10659359Y11029359D01*
X10661499Y11027929D01*
X10660828Y11022517D01*
X10657680Y11015207D01*
X10646322Y11012947D01*
X10634745Y11005212D01*
X10627009Y10993634D01*
X10624293Y10979978D01*
X10627009Y10966322D01*
X10634745Y10954744D01*
X10646322Y10947009D01*
X10659979Y10944292D01*
X10673635Y10947009D01*
X10685212Y10954744D01*
X10692948Y10966322D01*
X10695664Y10979978D01*
X10692948Y10993634D01*
X10685629Y11004588D01*
X10686756Y11008906D01*
X10688453Y11012964D01*
X10690714Y11016810D01*
X10706583Y11019966D01*
X10720641Y11029359D01*
X10730034Y11043417D01*
X10733333Y11060000D01*
X10730034Y11076583D01*
X10720641Y11090641D01*
X10706583Y11100034D01*
X10690000Y11103333D01*
D02*
G37*
G36*
X9800000Y11199212D02*
X9778463Y11196377D01*
X9758394Y11188064D01*
X9741160Y11174840D01*
X9727936Y11157606D01*
X9719623Y11137537D01*
X9716788Y11116000D01*
X9719623Y11094463D01*
X9727936Y11074394D01*
X9741160Y11057161D01*
X9758394Y11043937D01*
X9778463Y11035624D01*
X9800000Y11032788D01*
X9821537Y11035624D01*
X9841606Y11043937D01*
X9858840Y11057161D01*
X9872064Y11074394D01*
X9880376Y11094463D01*
X9883212Y11116000D01*
X9880376Y11137537D01*
X9872064Y11157606D01*
X9858840Y11174840D01*
X9841606Y11188064D01*
X9821537Y11196377D01*
X9800000Y11199212D01*
D02*
G37*
G36*
X10284999Y11090687D02*
X10271343Y11087970D01*
X10259765Y11080235D01*
X10252030Y11068657D01*
X10249313Y11055001D01*
X10252030Y11041345D01*
X10259765Y11029767D01*
X10271343Y11022032D01*
X10284999Y11019315D01*
X10298655Y11022032D01*
X10310233Y11029767D01*
X10317968Y11041345D01*
X10320685Y11055001D01*
X10317968Y11068657D01*
X10310233Y11080235D01*
X10298655Y11087970D01*
X10284999Y11090687D01*
D02*
G37*
G36*
X14580000Y11403333D02*
X14563417Y11400034D01*
X14549359Y11390641D01*
X14539966Y11376583D01*
X14536667Y11360000D01*
X14539966Y11343417D01*
X14549359Y11329359D01*
X14563417Y11319966D01*
X14580000Y11316667D01*
X14596584Y11319966D01*
X14610641Y11329359D01*
X14620033Y11343417D01*
X14623334Y11360000D01*
X14620033Y11376583D01*
X14610641Y11390641D01*
X14596584Y11400034D01*
X14580000Y11403333D01*
D02*
G37*
G36*
X12790000Y11383333D02*
X12773417Y11380034D01*
X12759359Y11370641D01*
X12749966Y11356583D01*
X12746667Y11340000D01*
X12749966Y11323417D01*
X12759359Y11309359D01*
X12773417Y11299966D01*
X12790000Y11296667D01*
X12806583Y11299966D01*
X12820641Y11309359D01*
X12830034Y11323417D01*
X12833333Y11340000D01*
X12830034Y11356583D01*
X12820641Y11370641D01*
X12806583Y11380034D01*
X12790000Y11383333D01*
D02*
G37*
G36*
X9940000Y11435686D02*
X9926344Y11432969D01*
X9914766Y11425234D01*
X9907031Y11413656D01*
X9904314Y11400000D01*
X9907031Y11386344D01*
X9914766Y11374766D01*
X9926344Y11367031D01*
X9940000Y11364314D01*
X9953656Y11367031D01*
X9965234Y11374766D01*
X9972969Y11386344D01*
X9975686Y11400000D01*
X9972969Y11413656D01*
X9965234Y11425234D01*
X9953656Y11432969D01*
X9940000Y11435686D01*
D02*
G37*
G36*
X13089999Y11443333D02*
X13073418Y11440034D01*
X13059360Y11430641D01*
X13049966Y11416583D01*
X13046667Y11400000D01*
X13049966Y11383417D01*
X13059360Y11369359D01*
X13073418Y11359966D01*
X13089999Y11356667D01*
X13106583Y11359966D01*
X13120641Y11369359D01*
X13130034Y11383417D01*
X13133333Y11400000D01*
X13130034Y11416583D01*
X13120641Y11430641D01*
X13106583Y11440034D01*
X13089999Y11443333D01*
D02*
G37*
G36*
X10520000Y11365686D02*
X10506344Y11362969D01*
X10494766Y11355234D01*
X10487031Y11343656D01*
X10484314Y11330000D01*
X10487031Y11316344D01*
X10494766Y11304766D01*
X10506344Y11297031D01*
X10520000Y11294314D01*
X10533656Y11297031D01*
X10545234Y11304766D01*
X10552969Y11316344D01*
X10555686Y11330000D01*
X10552969Y11343656D01*
X10545234Y11355234D01*
X10533656Y11362969D01*
X10520000Y11365686D01*
D02*
G37*
G36*
X9979980Y11343310D02*
X9963397Y11340012D01*
X9949339Y11330618D01*
X9939946Y11316560D01*
X9936647Y11299977D01*
X9939946Y11283395D01*
X9949339Y11269337D01*
X9963397Y11259943D01*
X9979980Y11256645D01*
X9996563Y11259943D01*
X10010621Y11269337D01*
X10020014Y11283395D01*
X10023313Y11299977D01*
X10020014Y11316560D01*
X10010621Y11330618D01*
X9996563Y11340012D01*
X9979980Y11343310D01*
D02*
G37*
G36*
X13520000Y11313333D02*
X13503416Y11310034D01*
X13489359Y11300641D01*
X13479967Y11286583D01*
X13476666Y11270000D01*
X13479967Y11253417D01*
X13489359Y11239359D01*
X13503416Y11229966D01*
X13520000Y11226667D01*
X13536583Y11229966D01*
X13550641Y11239359D01*
X13560034Y11253417D01*
X13563333Y11270000D01*
X13560034Y11286583D01*
X13550641Y11300641D01*
X13536583Y11310034D01*
X13520000Y11313333D01*
D02*
G37*
G36*
X9882500Y11452500D02*
X9717500D01*
Y11287500D01*
X9882500D01*
Y11452500D01*
D02*
G37*
G36*
X10940000Y11353333D02*
X10923417Y11350034D01*
X10909359Y11340641D01*
X10899966Y11326583D01*
X10896667Y11310000D01*
X10899966Y11293417D01*
X10909359Y11279359D01*
X10923417Y11269966D01*
X10940000Y11266667D01*
X10956583Y11269966D01*
X10970641Y11279359D01*
X10980034Y11293417D01*
X10983333Y11310000D01*
X10980034Y11326583D01*
X10970641Y11340641D01*
X10956583Y11350034D01*
X10940000Y11353333D01*
D02*
G37*
G36*
X10350000Y11005686D02*
X10336344Y11002969D01*
X10324766Y10995234D01*
X10317031Y10983656D01*
X10314314Y10970000D01*
X10317031Y10956344D01*
X10324766Y10944766D01*
X10336344Y10937031D01*
X10350000Y10934314D01*
X10363656Y10937031D01*
X10375234Y10944766D01*
X10382969Y10956344D01*
X10385686Y10970000D01*
X10382969Y10983656D01*
X10375234Y10995234D01*
X10363656Y11002969D01*
X10350000Y11005686D01*
D02*
G37*
G36*
X9800000Y10691212D02*
X9778463Y10688377D01*
X9758394Y10680064D01*
X9741160Y10666840D01*
X9727936Y10649606D01*
X9719623Y10629537D01*
X9716788Y10608000D01*
X9719623Y10586463D01*
X9727936Y10566394D01*
X9741160Y10549161D01*
X9758394Y10535937D01*
X9778463Y10527624D01*
X9800000Y10524788D01*
X9821537Y10527624D01*
X9841606Y10535937D01*
X9858840Y10549161D01*
X9872064Y10566394D01*
X9880376Y10586463D01*
X9883212Y10608000D01*
X9880376Y10629537D01*
X9872064Y10649606D01*
X9858840Y10666840D01*
X9841606Y10680064D01*
X9821537Y10688377D01*
X9800000Y10691212D01*
D02*
G37*
G36*
X14080000Y10603333D02*
X14063417Y10600034D01*
X14049359Y10590641D01*
X14039966Y10576583D01*
X14036667Y10560000D01*
X14039966Y10543417D01*
X14049359Y10529359D01*
X14063417Y10519966D01*
X14080000Y10516667D01*
X14096584Y10519966D01*
X14110641Y10529359D01*
X14120033Y10543417D01*
X14123334Y10560000D01*
X14120033Y10576583D01*
X14110641Y10590641D01*
X14096584Y10600034D01*
X14080000Y10603333D01*
D02*
G37*
G36*
X13440466Y10673799D02*
X13423883Y10670500D01*
X13409825Y10661107D01*
X13400432Y10647049D01*
X13397133Y10630466D01*
X13400432Y10613883D01*
X13409825Y10599825D01*
X13423883Y10590432D01*
X13440466Y10587133D01*
X13457050Y10590432D01*
X13471107Y10599825D01*
X13480499Y10613883D01*
X13483800Y10630466D01*
X13480499Y10647049D01*
X13471107Y10661107D01*
X13457050Y10670500D01*
X13440466Y10673799D01*
D02*
G37*
G36*
X13014999Y10613333D02*
X12998418Y10610034D01*
X12984360Y10600641D01*
X12974966Y10586583D01*
X12971667Y10570000D01*
X12974966Y10553417D01*
X12984360Y10539359D01*
X12998418Y10529966D01*
X13014999Y10526667D01*
X13031583Y10529966D01*
X13045641Y10539359D01*
X13055034Y10553417D01*
X13058333Y10570000D01*
X13055034Y10586583D01*
X13045641Y10600641D01*
X13031583Y10610034D01*
X13014999Y10613333D01*
D02*
G37*
G36*
X12470000Y10593333D02*
X12453417Y10590034D01*
X12439359Y10580641D01*
X12429966Y10566583D01*
X12426667Y10550000D01*
X12429966Y10533417D01*
X12439359Y10519359D01*
X12453417Y10509966D01*
X12470000Y10506667D01*
X12486583Y10509966D01*
X12500641Y10519359D01*
X12510034Y10533417D01*
X12513333Y10550000D01*
X12510034Y10566583D01*
X12500641Y10580641D01*
X12486583Y10590034D01*
X12470000Y10593333D01*
D02*
G37*
G36*
X9989980Y10533312D02*
X9973397Y10530013D01*
X9959339Y10520620D01*
X9949946Y10506562D01*
X9946647Y10489979D01*
X9949946Y10473396D01*
X9959339Y10459338D01*
X9973397Y10449945D01*
X9989980Y10446646D01*
X10006563Y10449945D01*
X10020621Y10459338D01*
X10030014Y10473396D01*
X10033313Y10489979D01*
X10030014Y10506562D01*
X10020621Y10520620D01*
X10006563Y10530013D01*
X9989980Y10533312D01*
D02*
G37*
G36*
X11510000Y10503333D02*
X11493417Y10500034D01*
X11479359Y10490641D01*
X11469966Y10476583D01*
X11466667Y10460000D01*
X11469966Y10443417D01*
X11479359Y10429359D01*
X11493417Y10419966D01*
X11510000Y10416667D01*
X11526583Y10419966D01*
X11540641Y10429359D01*
X11550034Y10443417D01*
X11553333Y10460000D01*
X11550034Y10476583D01*
X11540641Y10490641D01*
X11526583Y10500034D01*
X11510000Y10503333D01*
D02*
G37*
G36*
X10870000Y10575686D02*
X10856344Y10572969D01*
X10844766Y10565234D01*
X10837031Y10553656D01*
X10834314Y10540000D01*
X10837031Y10526344D01*
X10844766Y10514766D01*
X10856344Y10507031D01*
X10870000Y10504314D01*
X10883656Y10507031D01*
X10895234Y10514766D01*
X10902969Y10526344D01*
X10905686Y10540000D01*
X10902969Y10553656D01*
X10895234Y10565234D01*
X10883656Y10572969D01*
X10870000Y10575686D01*
D02*
G37*
G36*
X10710000Y10585686D02*
X10696344Y10582969D01*
X10684766Y10575234D01*
X10677031Y10563656D01*
X10674314Y10550000D01*
X10677031Y10536344D01*
X10684766Y10524766D01*
X10696344Y10517031D01*
X10710000Y10514314D01*
X10723656Y10517031D01*
X10735233Y10524766D01*
X10735910Y10524857D01*
X10749296Y10522953D01*
X10754766Y10514766D01*
X10766344Y10507031D01*
X10780000Y10504314D01*
X10793656Y10507031D01*
X10805234Y10514766D01*
X10812969Y10526344D01*
X10815686Y10540000D01*
X10812969Y10553656D01*
X10805234Y10565234D01*
X10793656Y10572969D01*
X10780000Y10575686D01*
X10766344Y10572969D01*
X10754767Y10565234D01*
X10754089Y10565143D01*
X10740704Y10567047D01*
X10735234Y10575234D01*
X10723656Y10582969D01*
X10710000Y10585686D01*
D02*
G37*
G36*
X14239999Y10883333D02*
X14223418Y10880034D01*
X14209360Y10870641D01*
X14199966Y10856583D01*
X14196667Y10840000D01*
X14199966Y10823417D01*
X14209360Y10809359D01*
X14223418Y10799966D01*
X14239999Y10796667D01*
X14256583Y10799966D01*
X14270641Y10809359D01*
X14280034Y10823417D01*
X14283333Y10840000D01*
X14280034Y10856583D01*
X14270641Y10870641D01*
X14256583Y10880034D01*
X14239999Y10883333D01*
D02*
G37*
G36*
X14937500Y10870833D02*
X14920917Y10867534D01*
X14906859Y10858141D01*
X14897466Y10844083D01*
X14894167Y10827500D01*
X14897466Y10810917D01*
X14906859Y10796859D01*
X14920917Y10787466D01*
X14937500Y10784167D01*
X14954083Y10787466D01*
X14968141Y10796859D01*
X14977534Y10810917D01*
X14980833Y10827500D01*
X14977534Y10844083D01*
X14968141Y10858141D01*
X14954083Y10867534D01*
X14937500Y10870833D01*
D02*
G37*
G36*
X11780000Y10893333D02*
X11763417Y10890034D01*
X11750000Y10881069D01*
X11736583Y10890034D01*
X11720000Y10893333D01*
X11703417Y10890034D01*
X11690000Y10881069D01*
X11676583Y10890034D01*
X11660000Y10893333D01*
X11643417Y10890034D01*
X11629359Y10880641D01*
X11619966Y10866583D01*
X11616667Y10850000D01*
X11619966Y10833417D01*
X11629359Y10819359D01*
X11643417Y10809966D01*
X11660000Y10806667D01*
X11676583Y10809966D01*
X11690000Y10818931D01*
X11703417Y10809966D01*
X11720000Y10806667D01*
X11736583Y10809966D01*
X11750000Y10818931D01*
X11763417Y10809966D01*
X11780000Y10806667D01*
X11796583Y10809966D01*
X11810641Y10819359D01*
X11820034Y10833417D01*
X11823333Y10850000D01*
X11820034Y10866583D01*
X11810641Y10880641D01*
X11796583Y10890034D01*
X11780000Y10893333D01*
D02*
G37*
G36*
X11340000Y10963333D02*
X11323417Y10960034D01*
X11309359Y10950641D01*
X11299966Y10936583D01*
X11296667Y10920000D01*
X11299966Y10903417D01*
X11309359Y10889359D01*
X11323417Y10879966D01*
X11340000Y10876667D01*
X11356583Y10879966D01*
X11370641Y10889359D01*
X11380034Y10903417D01*
X11383333Y10920000D01*
X11380034Y10936583D01*
X11370641Y10950641D01*
X11356583Y10960034D01*
X11340000Y10963333D01*
D02*
G37*
G36*
X9800000Y10945212D02*
X9778463Y10942377D01*
X9758394Y10934064D01*
X9741160Y10920840D01*
X9727936Y10903606D01*
X9719623Y10883537D01*
X9716788Y10862000D01*
X9719623Y10840463D01*
X9727936Y10820394D01*
X9741160Y10803161D01*
X9758394Y10789937D01*
X9778463Y10781624D01*
X9800000Y10778788D01*
X9821537Y10781624D01*
X9841606Y10789937D01*
X9858840Y10803161D01*
X9872064Y10820394D01*
X9880376Y10840463D01*
X9883212Y10862000D01*
X9880376Y10883537D01*
X9872064Y10903606D01*
X9858840Y10920840D01*
X9841606Y10934064D01*
X9821537Y10942377D01*
X9800000Y10945212D01*
D02*
G37*
G36*
X12030000Y10893333D02*
X12013417Y10890034D01*
X11999359Y10880641D01*
X11989966Y10866583D01*
X11986667Y10850000D01*
X11989966Y10833417D01*
X11998931Y10820000D01*
X11989966Y10806583D01*
X11986667Y10790000D01*
X11989966Y10773417D01*
X11998931Y10760000D01*
X11989966Y10746583D01*
X11986667Y10730000D01*
X11989966Y10713417D01*
X11999359Y10699359D01*
X12013417Y10689966D01*
X12030000Y10686667D01*
X12046583Y10689966D01*
X12060641Y10699359D01*
X12070034Y10713417D01*
X12073333Y10730000D01*
X12070034Y10746583D01*
X12061069Y10760000D01*
X12070034Y10773417D01*
X12073333Y10790000D01*
X12070034Y10806583D01*
X12061069Y10820000D01*
X12070034Y10833417D01*
X12073333Y10850000D01*
X12070034Y10866583D01*
X12060641Y10880641D01*
X12046583Y10890034D01*
X12030000Y10893333D01*
D02*
G37*
G36*
X13286571Y10763333D02*
X13269987Y10760034D01*
X13255930Y10750641D01*
X13246535Y10736583D01*
X13243237Y10720000D01*
X13246535Y10703417D01*
X13255930Y10689359D01*
X13269987Y10679966D01*
X13286571Y10676667D01*
X13303152Y10679966D01*
X13317210Y10689359D01*
X13326604Y10703417D01*
X13329903Y10720000D01*
X13326604Y10736583D01*
X13317210Y10750641D01*
X13303152Y10760034D01*
X13286571Y10763333D01*
D02*
G37*
G36*
X13110001Y10833333D02*
X13093417Y10830034D01*
X13079359Y10820641D01*
X13069966Y10806583D01*
X13066667Y10790000D01*
X13069966Y10773417D01*
X13079359Y10759359D01*
X13093417Y10749966D01*
X13110001Y10746667D01*
X13126582Y10749966D01*
X13140640Y10759359D01*
X13150034Y10773417D01*
X13153333Y10790000D01*
X13150034Y10806583D01*
X13140640Y10820641D01*
X13126582Y10830034D01*
X13110001Y10833333D01*
D02*
G37*
G36*
X12805000Y10775833D02*
X12788417Y10772534D01*
X12774359Y10763141D01*
X12764966Y10749083D01*
X12761667Y10732500D01*
X12764966Y10715917D01*
X12774359Y10701859D01*
X12788417Y10692466D01*
X12805000Y10689167D01*
X12821584Y10692466D01*
X12835641Y10701859D01*
X12845033Y10715917D01*
X12848334Y10732500D01*
X12845033Y10749083D01*
X12835641Y10763141D01*
X12821584Y10772534D01*
X12805000Y10775833D01*
D02*
G37*
G36*
X12229976Y11983309D02*
X12213393Y11980010D01*
X12199335Y11970617D01*
X12189941Y11956559D01*
X12186643Y11939976D01*
X12189941Y11923393D01*
X12199335Y11909335D01*
X12213393Y11899942D01*
X12229976Y11896643D01*
X12246558Y11899942D01*
X12260616Y11909335D01*
X12270010Y11923393D01*
X12273308Y11939976D01*
X12270010Y11956559D01*
X12260616Y11970617D01*
X12246558Y11980010D01*
X12229976Y11983309D01*
D02*
G37*
G36*
X15064999Y11943333D02*
X15048418Y11940034D01*
X15034360Y11930641D01*
X15024966Y11916583D01*
X15021667Y11900000D01*
X15024966Y11883417D01*
X15034360Y11869359D01*
X15048418Y11859966D01*
X15064999Y11856667D01*
X15081583Y11859966D01*
X15095641Y11869359D01*
X15105034Y11883417D01*
X15108331Y11900000D01*
X15105034Y11916583D01*
X15095641Y11930641D01*
X15081583Y11940034D01*
X15064999Y11943333D01*
D02*
G37*
G36*
X9580000Y11945686D02*
X9566344Y11942969D01*
X9554766Y11935234D01*
X9547031Y11923656D01*
X9545480Y11915860D01*
X9536367Y11914255D01*
X9532294Y11914668D01*
X9525234Y11925234D01*
X9513656Y11932969D01*
X9500000Y11935686D01*
X9486344Y11932969D01*
X9474766Y11925234D01*
X9467031Y11913656D01*
X9464314Y11900000D01*
X9467031Y11886344D01*
X9474766Y11874766D01*
X9486344Y11867031D01*
X9500000Y11864314D01*
X9513656Y11867031D01*
X9525234Y11874766D01*
X9532969Y11886344D01*
X9534520Y11894140D01*
X9543633Y11895745D01*
X9547706Y11895333D01*
X9554766Y11884766D01*
X9566344Y11877031D01*
X9580000Y11874314D01*
X9593656Y11877031D01*
X9605234Y11884766D01*
X9612969Y11896344D01*
X9615686Y11910000D01*
X9612969Y11923656D01*
X9605234Y11935234D01*
X9593656Y11942969D01*
X9580000Y11945686D01*
D02*
G37*
G36*
X12129975Y11833309D02*
X12113393Y11830011D01*
X12099335Y11820617D01*
X12089941Y11806559D01*
X12086643Y11789976D01*
X12089941Y11773394D01*
X12099335Y11759336D01*
X12113393Y11749942D01*
X12129975Y11746644D01*
X12146558Y11749942D01*
X12160616Y11759336D01*
X12170010Y11773394D01*
X12173308Y11789976D01*
X12170010Y11806559D01*
X12160616Y11820617D01*
X12146558Y11830011D01*
X12129975Y11833309D01*
D02*
G37*
G36*
X14050000Y11773333D02*
X14033417Y11770034D01*
X14019359Y11760641D01*
X14009966Y11746583D01*
X14006667Y11730000D01*
X14009966Y11713417D01*
X14019359Y11699359D01*
X14033417Y11689966D01*
X14050000Y11686667D01*
X14066583Y11689966D01*
X14080641Y11699359D01*
X14090034Y11713417D01*
X14093333Y11730000D01*
X14090034Y11746583D01*
X14080641Y11760641D01*
X14066583Y11770034D01*
X14050000Y11773333D01*
D02*
G37*
G36*
X12540000D02*
X12523417Y11770034D01*
X12509359Y11760641D01*
X12499966Y11746583D01*
X12496667Y11730000D01*
X12499966Y11713417D01*
X12509359Y11699359D01*
X12523417Y11689966D01*
X12540000Y11686667D01*
X12556583Y11689966D01*
X12570641Y11699359D01*
X12580034Y11713417D01*
X12583333Y11730000D01*
X12580034Y11746583D01*
X12570641Y11760641D01*
X12556583Y11770034D01*
X12540000Y11773333D01*
D02*
G37*
G36*
X15060001Y11823333D02*
X15043417Y11820034D01*
X15029359Y11810641D01*
X15019966Y11796583D01*
X15016667Y11780000D01*
X15019966Y11763417D01*
X15029359Y11749359D01*
X15043417Y11739966D01*
X15060001Y11736667D01*
X15076582Y11739966D01*
X15090640Y11749359D01*
X15100034Y11763417D01*
X15103333Y11780000D01*
X15100034Y11796583D01*
X15090640Y11810641D01*
X15076582Y11820034D01*
X15060001Y11823333D01*
D02*
G37*
G36*
X11100000D02*
X11083417Y11820034D01*
X11069359Y11810641D01*
X11059966Y11796583D01*
X11056667Y11780000D01*
X11059966Y11763417D01*
X11069359Y11749359D01*
X11083417Y11739966D01*
X11100000Y11736667D01*
X11116583Y11739966D01*
X11130641Y11749359D01*
X11140034Y11763417D01*
X11143333Y11780000D01*
X11140034Y11796583D01*
X11130641Y11810641D01*
X11116583Y11820034D01*
X11100000Y11823333D01*
D02*
G37*
G36*
X14789999Y12253333D02*
X14773418Y12250034D01*
X14759360Y12240641D01*
X14749966Y12226583D01*
X14746667Y12210000D01*
X14749966Y12193417D01*
X14759360Y12179359D01*
X14773418Y12169966D01*
X14789999Y12166667D01*
X14806583Y12169966D01*
X14820641Y12179359D01*
X14830034Y12193417D01*
X14833333Y12210000D01*
X14830034Y12226583D01*
X14820641Y12240641D01*
X14806583Y12250034D01*
X14789999Y12253333D01*
D02*
G37*
G36*
X11000000Y12353333D02*
X10983417Y12350034D01*
X10969359Y12340641D01*
X10959966Y12326583D01*
X10956667Y12310000D01*
X10959966Y12293417D01*
X10969359Y12279359D01*
X10983417Y12269966D01*
X11000000Y12266667D01*
X11016583Y12269966D01*
X11030641Y12279359D01*
X11040034Y12293417D01*
X11043333Y12310000D01*
X11040034Y12326583D01*
X11030641Y12340641D01*
X11016583Y12350034D01*
X11000000Y12353333D01*
D02*
G37*
G36*
X8490000Y12283333D02*
X8473417Y12280034D01*
X8459359Y12270641D01*
X8449966Y12256583D01*
X8446667Y12240000D01*
X8449966Y12223417D01*
X8459359Y12209359D01*
X8473417Y12199966D01*
X8490000Y12196667D01*
X8506583Y12199966D01*
X8520641Y12209359D01*
X8530034Y12223417D01*
X8533333Y12240000D01*
X8530034Y12256583D01*
X8520641Y12270641D01*
X8506583Y12280034D01*
X8490000Y12283333D01*
D02*
G37*
G36*
X11090000Y12105686D02*
X11076344Y12102969D01*
X11064766Y12095234D01*
X11057031Y12083656D01*
X11054314Y12070000D01*
X11057031Y12056344D01*
X11064766Y12044766D01*
X11076344Y12037031D01*
X11090000Y12034314D01*
X11103656Y12037031D01*
X11115234Y12044766D01*
X11122969Y12056344D01*
X11125686Y12070000D01*
X11122969Y12083656D01*
X11115234Y12095234D01*
X11103656Y12102969D01*
X11090000Y12105686D01*
D02*
G37*
G36*
X12100000Y12127579D02*
X12083417Y12124280D01*
X12069359Y12114887D01*
X12059966Y12100829D01*
X12056667Y12084246D01*
X12059966Y12067663D01*
X12069359Y12053605D01*
X12083417Y12044212D01*
X12100000Y12040913D01*
X12102685Y12041447D01*
X12107664Y12033338D01*
X12108722Y12029699D01*
X12099942Y12016559D01*
X12096643Y11999976D01*
X12099942Y11983393D01*
X12109335Y11969335D01*
X12123393Y11959942D01*
X12139976Y11956643D01*
X12156558Y11959942D01*
X12170617Y11969335D01*
X12180010Y11983393D01*
X12183308Y11999976D01*
X12180010Y12016559D01*
X12170617Y12030617D01*
X12156558Y12040010D01*
X12139976Y12043309D01*
X12137291Y12042775D01*
X12132312Y12050884D01*
X12131254Y12054523D01*
X12140034Y12067663D01*
X12143333Y12084246D01*
X12140034Y12100829D01*
X12130641Y12114887D01*
X12116583Y12124280D01*
X12100000Y12127579D01*
D02*
G37*
G36*
X13770000Y12025686D02*
X13756345Y12022969D01*
X13744766Y12015234D01*
X13737032Y12003656D01*
X13734314Y11990000D01*
X13737032Y11976344D01*
X13744766Y11964766D01*
X13756345Y11957031D01*
X13770000Y11954314D01*
X13783656Y11957031D01*
X13795235Y11964766D01*
X13802969Y11976344D01*
X13805685Y11990000D01*
X13802969Y12003656D01*
X13795235Y12015234D01*
X13783656Y12022969D01*
X13770000Y12025686D01*
D02*
G37*
G36*
X11999976Y12103309D02*
X11983393Y12100010D01*
X11969335Y12090617D01*
X11959942Y12076559D01*
X11956643Y12059976D01*
X11959942Y12043393D01*
X11969335Y12029335D01*
X11983393Y12019942D01*
X11999976Y12016643D01*
X12016558Y12019942D01*
X12030617Y12029335D01*
X12040010Y12043393D01*
X12043308Y12059976D01*
X12040010Y12076559D01*
X12030617Y12090617D01*
X12016558Y12100010D01*
X11999976Y12103309D01*
D02*
G37*
G36*
X9515000Y12098332D02*
X9498418Y12095034D01*
X9484359Y12085641D01*
X9474966Y12071582D01*
X9471668Y12055000D01*
X9474966Y12038417D01*
X9484359Y12024359D01*
X9498418Y12014966D01*
X9515000Y12011667D01*
X9531583Y12014966D01*
X9545641Y12024359D01*
X9555034Y12038417D01*
X9558333Y12055000D01*
X9555034Y12071582D01*
X9545641Y12085641D01*
X9531583Y12095034D01*
X9515000Y12098332D01*
D02*
G37*
G36*
X9885000Y11750686D02*
X9871343Y11747969D01*
X9859766Y11740234D01*
X9852031Y11728657D01*
X9849314Y11715000D01*
X9852031Y11701344D01*
X9859766Y11689767D01*
X9871343Y11682031D01*
X9885000Y11679314D01*
X9898656Y11682031D01*
X9910233Y11689767D01*
X9917969Y11701344D01*
X9920686Y11715000D01*
X9917969Y11728657D01*
X9910233Y11740234D01*
X9898656Y11747969D01*
X9885000Y11750686D01*
D02*
G37*
G36*
X12563431Y11548333D02*
X12546848Y11545034D01*
X12532790Y11535641D01*
X12523397Y11521582D01*
X12520098Y11505000D01*
X12523397Y11488417D01*
X12532790Y11474359D01*
X12546848Y11464966D01*
X12563431Y11461667D01*
X12580013Y11464966D01*
X12594072Y11474359D01*
X12603465Y11488417D01*
X12606763Y11505000D01*
X12603465Y11521582D01*
X12594072Y11535641D01*
X12580013Y11545034D01*
X12563431Y11548333D01*
D02*
G37*
G36*
X12403431D02*
X12386848Y11545034D01*
X12372790Y11535641D01*
X12363397Y11521582D01*
X12360098Y11505000D01*
X12363397Y11488417D01*
X12372790Y11474359D01*
X12386848Y11464966D01*
X12403431Y11461667D01*
X12420014Y11464966D01*
X12434072Y11474359D01*
X12443465Y11488417D01*
X12446764Y11505000D01*
X12443465Y11521582D01*
X12434072Y11535641D01*
X12420014Y11545034D01*
X12403431Y11548333D01*
D02*
G37*
G36*
X13680000Y11573333D02*
X13663417Y11570034D01*
X13649359Y11560641D01*
X13639966Y11546583D01*
X13636667Y11530000D01*
X13639966Y11513417D01*
X13649359Y11499359D01*
X13663417Y11489966D01*
X13680000Y11486667D01*
X13696584Y11489966D01*
X13710641Y11499359D01*
X13720033Y11513417D01*
X13723334Y11530000D01*
X13720033Y11546583D01*
X13710641Y11560641D01*
X13696584Y11570034D01*
X13680000Y11573333D01*
D02*
G37*
G36*
X10860000Y11554332D02*
X10843417Y11551034D01*
X10829359Y11541641D01*
X10819966Y11527582D01*
X10816667Y11511000D01*
X10819966Y11494417D01*
X10829359Y11480359D01*
X10843417Y11470966D01*
X10860000Y11467667D01*
X10876583Y11470966D01*
X10890641Y11480359D01*
X10900034Y11494417D01*
X10903333Y11511000D01*
X10900034Y11527582D01*
X10890641Y11541641D01*
X10876583Y11551034D01*
X10860000Y11554332D01*
D02*
G37*
G36*
X13550000Y11523333D02*
X13533417Y11520034D01*
X13519359Y11510641D01*
X13509966Y11496583D01*
X13506667Y11480000D01*
X13509966Y11463417D01*
X13519359Y11449359D01*
X13533417Y11439966D01*
X13550000Y11436667D01*
X13566583Y11439966D01*
X13580641Y11449359D01*
X13590034Y11463417D01*
X13593333Y11480000D01*
X13590034Y11496583D01*
X13580641Y11510641D01*
X13566583Y11520034D01*
X13550000Y11523333D01*
D02*
G37*
G36*
X14322501Y11493333D02*
X14305917Y11490034D01*
X14291859Y11480641D01*
X14282466Y11466583D01*
X14279167Y11450000D01*
X14282466Y11433417D01*
X14291859Y11419359D01*
X14305917Y11409966D01*
X14322501Y11406667D01*
X14339082Y11409966D01*
X14353140Y11419359D01*
X14362534Y11433417D01*
X14365833Y11450000D01*
X14362534Y11466583D01*
X14353140Y11480641D01*
X14339082Y11490034D01*
X14322501Y11493333D01*
D02*
G37*
G36*
X10510000Y11465686D02*
X10496344Y11462969D01*
X10484766Y11455234D01*
X10477031Y11443656D01*
X10474314Y11430000D01*
X10477031Y11416344D01*
X10484766Y11404766D01*
X10496344Y11397031D01*
X10510000Y11394314D01*
X10523656Y11397031D01*
X10535234Y11404766D01*
X10542969Y11416344D01*
X10545686Y11430000D01*
X10542969Y11443656D01*
X10535234Y11455234D01*
X10523656Y11462969D01*
X10510000Y11465686D01*
D02*
G37*
G36*
X10000000Y11505686D02*
X9986344Y11502969D01*
X9974766Y11495234D01*
X9967031Y11483656D01*
X9964314Y11470000D01*
X9967031Y11456344D01*
X9974766Y11444766D01*
X9986344Y11437031D01*
X10000000Y11434314D01*
X10013656Y11437031D01*
X10025234Y11444766D01*
X10032969Y11456344D01*
X10035686Y11470000D01*
X10032969Y11483656D01*
X10025234Y11495234D01*
X10013656Y11502969D01*
X10000000Y11505686D01*
D02*
G37*
G36*
X10260000Y11495686D02*
X10246344Y11492969D01*
X10234766Y11485234D01*
X10227031Y11473656D01*
X10224314Y11460000D01*
X10227031Y11446344D01*
X10234766Y11434766D01*
X10246344Y11427031D01*
X10260000Y11424314D01*
X10273656Y11427031D01*
X10285234Y11434766D01*
X10292969Y11446344D01*
X10295686Y11460000D01*
X10292969Y11473656D01*
X10285234Y11485234D01*
X10273656Y11492969D01*
X10260000Y11495686D01*
D02*
G37*
G36*
X12690000Y11723333D02*
X12673417Y11720034D01*
X12659359Y11710641D01*
X12649966Y11696583D01*
X12646667Y11680000D01*
X12649966Y11663417D01*
X12659359Y11649359D01*
X12673417Y11639966D01*
X12690000Y11636667D01*
X12706583Y11639966D01*
X12720641Y11649359D01*
X12730034Y11663417D01*
X12733333Y11680000D01*
X12730034Y11696583D01*
X12720641Y11710641D01*
X12706583Y11720034D01*
X12690000Y11723333D01*
D02*
G37*
G36*
X12180000Y11693333D02*
X12163417Y11690034D01*
X12149359Y11680641D01*
X12139966Y11666583D01*
X12136667Y11650000D01*
X12139966Y11633417D01*
X12149359Y11619359D01*
X12163417Y11609966D01*
X12180000Y11606667D01*
X12196583Y11609966D01*
X12210641Y11619359D01*
X12220034Y11633417D01*
X12223333Y11650000D01*
X12220034Y11666583D01*
X12210641Y11680641D01*
X12196583Y11690034D01*
X12180000Y11693333D01*
D02*
G37*
G36*
X12320000Y11753333D02*
X12303417Y11750034D01*
X12289359Y11740641D01*
X12279966Y11726583D01*
X12276667Y11710000D01*
X12279966Y11693417D01*
X12289359Y11679359D01*
X12303417Y11669966D01*
X12320000Y11666667D01*
X12336583Y11669966D01*
X12350641Y11679359D01*
X12360034Y11693417D01*
X12363333Y11710000D01*
X12360034Y11726583D01*
X12350641Y11740641D01*
X12336583Y11750034D01*
X12320000Y11753333D01*
D02*
G37*
G36*
X12070000Y11733333D02*
X12053417Y11730034D01*
X12039359Y11720641D01*
X12029966Y11706583D01*
X12026667Y11690000D01*
X12029966Y11673417D01*
X12039359Y11659359D01*
X12053417Y11649966D01*
X12070000Y11646667D01*
X12086583Y11649966D01*
X12100641Y11659359D01*
X12110034Y11673417D01*
X12113333Y11690000D01*
X12110034Y11706583D01*
X12100641Y11720641D01*
X12086583Y11730034D01*
X12070000Y11733333D01*
D02*
G37*
G36*
X10979978Y11663309D02*
X10963395Y11660011D01*
X10949337Y11650618D01*
X10939944Y11636559D01*
X10936645Y11619977D01*
X10939944Y11603394D01*
X10949337Y11589336D01*
X10963395Y11579943D01*
X10979978Y11576644D01*
X10996561Y11579943D01*
X11010619Y11589336D01*
X11020012Y11603394D01*
X11023311Y11619977D01*
X11020012Y11636559D01*
X11010619Y11650618D01*
X10996561Y11660011D01*
X10979978Y11663309D01*
D02*
G37*
G36*
X10869978Y11653309D02*
X10853396Y11650011D01*
X10839337Y11640618D01*
X10829944Y11626559D01*
X10826646Y11609977D01*
X10829944Y11593394D01*
X10839337Y11579336D01*
X10853396Y11569943D01*
X10869978Y11566644D01*
X10886561Y11569943D01*
X10900619Y11579336D01*
X10910012Y11593394D01*
X10913311Y11609977D01*
X10910012Y11626559D01*
X10900619Y11640618D01*
X10886561Y11650011D01*
X10869978Y11653309D01*
D02*
G37*
G36*
X15039999Y11613333D02*
X15023418Y11610034D01*
X15009360Y11600641D01*
X14999966Y11586583D01*
X14996667Y11570000D01*
X14999966Y11553417D01*
X15009360Y11539359D01*
X15023418Y11529966D01*
X15039999Y11526667D01*
X15056583Y11529966D01*
X15070641Y11539359D01*
X15080034Y11553417D01*
X15083333Y11570000D01*
X15080034Y11586583D01*
X15070641Y11600641D01*
X15056583Y11610034D01*
X15039999Y11613333D01*
D02*
G37*
G36*
X13020000Y11653333D02*
X13003416Y11650034D01*
X12989359Y11640641D01*
X12979967Y11626583D01*
X12976666Y11610000D01*
X12979967Y11593417D01*
X12989359Y11579359D01*
X13003416Y11569966D01*
X13020000Y11566667D01*
X13036583Y11569966D01*
X13050641Y11579359D01*
X13060034Y11593417D01*
X13063333Y11610000D01*
X13060034Y11626583D01*
X13050641Y11640641D01*
X13036583Y11650034D01*
X13020000Y11653333D01*
D02*
G37*
G36*
X12010000D02*
X11993417Y11650034D01*
X11979359Y11640641D01*
X11969966Y11626583D01*
X11966667Y11610000D01*
X11969966Y11593417D01*
X11979359Y11579359D01*
X11993417Y11569966D01*
X12010000Y11566667D01*
X12026582Y11569966D01*
X12040641Y11579359D01*
X12050034Y11593417D01*
X12053333Y11610000D01*
X12050034Y11626583D01*
X12040641Y11640641D01*
X12026582Y11650034D01*
X12010000Y11653333D01*
D02*
G37*
%LPD*%
D59*
X15860001Y11800000D02*
X15889999D01*
X15810001Y11850000D02*
X15860001Y11800000D01*
X16450000Y12090000D02*
Y12170000D01*
Y12010000D02*
Y12090000D01*
Y12170000D02*
Y12220000D01*
Y12290000D01*
X16439999Y7210000D02*
Y7270000D01*
Y7340000D01*
X16450000Y7420000D02*
Y7490000D01*
X10220000Y8670000D02*
Y8680000D01*
X16450000Y8610000D02*
Y8690000D01*
Y8550000D02*
Y8610000D01*
Y8480000D02*
Y8550000D01*
Y8410000D02*
Y8480000D01*
X15339999Y11840000D02*
Y11900000D01*
X16460001Y13410001D02*
Y13489999D01*
X10249979Y10699979D02*
Y10700020D01*
X15345000Y12185000D02*
X15420000Y12110000D01*
X16460001Y13210001D02*
Y13270000D01*
Y13210001D02*
X16470000D01*
X15339999Y11780000D02*
Y11840000D01*
X15325000Y12185000D02*
X15345000D01*
X16460001Y13270000D02*
Y13350000D01*
Y13410001D01*
D60*
X14530000Y8870000D02*
X14550012D01*
X13910001Y8660000D02*
X13920016Y8649983D01*
D66*
X16089999Y11920000D02*
Y12090000D01*
X16070000Y11900000D02*
X16089999Y11920000D01*
X15860001Y11900000D02*
X16070000D01*
X15850000Y8860000D02*
X16000000D01*
X15750000D02*
X15850000D01*
X16100000Y8610000D02*
Y8760000D01*
X16000000Y8860000D02*
X16100000Y8760000D01*
X15420000Y11680000D02*
X15700000D01*
X15420000D02*
X15427499Y11687500D01*
Y11727500D01*
X15687500D01*
X15700000Y11680000D02*
X15730000Y11710000D01*
Y11770000D01*
X15687500Y11727500D02*
X15730000Y11770000D01*
X15810001Y11850000D01*
Y11850000D01*
Y11850000D02*
X15860001Y11900000D01*
X16089999Y12090000D02*
X16170000Y12170000D01*
X16450000Y12090000D02*
X16600002D01*
X16089999D02*
X16450000D01*
X16600002D02*
Y12220000D01*
X16170000Y12170000D02*
X16220000Y12220000D01*
X16170000Y12170000D02*
X16450000D01*
X16220000Y12220000D02*
X16450000D01*
Y12170000D02*
X16600000D01*
X16450000Y12220000D02*
X16600002D01*
X15410001Y7690000D02*
X15760001Y7340000D01*
X15410001Y7690000D02*
Y8430000D01*
X16139999Y7340000D02*
X16189999D01*
X15760001D02*
X16139999D01*
X16189999D02*
X16260001Y7270000D01*
X16139999Y7340000D02*
X16220000Y7420000D01*
X16189999Y7340000D02*
X16439999D01*
X16220000Y7420000D02*
X16450000D01*
X15300000Y8540000D02*
X15420000D01*
X15410001Y8430000D02*
Y8530000D01*
X15300000Y8540000D02*
X15410001Y8430000D01*
X15300000Y8540000D02*
X15380000Y8620000D01*
X15410001Y8530000D02*
X15420000Y8540000D01*
X15380000Y8620000D02*
Y8830000D01*
X15420000Y8540000D02*
X15480000Y8600000D01*
X15507500Y8627500D01*
X15480000Y8830000D02*
X15507500Y8802500D01*
X15380000Y8830000D02*
X15480000D01*
Y8600000D02*
Y8830000D01*
X15507500Y8627500D02*
Y8802500D01*
X16439999Y7270000D02*
X16600002D01*
X16260001D02*
X16439999D01*
X16600002D02*
Y7340000D01*
X16439999D02*
X16600002D01*
X16450000Y7420000D02*
X16600002D01*
Y7340000D02*
Y7420000D01*
X15370000Y12830000D02*
X15889999Y13350000D01*
X15370000Y12230000D02*
Y12830000D01*
X16100000Y8610000D02*
X16160001Y8550000D01*
X16450000Y8610000D02*
X16600002D01*
X16100000D02*
X16450000D01*
X16600002Y8480000D02*
Y8610000D01*
X16160001Y8550000D02*
X16230000Y8480000D01*
X16450000Y8550000D02*
X16600002D01*
X16160001D02*
X16450000D01*
Y8480000D02*
X16600002D01*
X16230000D02*
X16450000D01*
X15170000Y11960000D02*
Y12090000D01*
X15289999Y11840000D02*
X15339999D01*
X15170000Y12140000D02*
X15280000D01*
X15325000Y12185000D02*
X15370000Y12230000D01*
X16460001Y13350000D02*
X16600002D01*
Y13410001D01*
X16460001D02*
X16600002D01*
X15510001Y8970000D02*
X15570000Y8910000D01*
X15370000Y8970000D02*
X15510001D01*
X15570000Y8910000D02*
X15620000Y8860000D01*
X15570000Y8910000D02*
X15700000D01*
X15750000Y8860000D01*
X15620000D02*
X15750000D01*
X15510001Y8970000D02*
X15739999D01*
X15850000Y8860000D01*
X15280000Y12140000D02*
X15325000Y12185000D01*
X15170000Y12090000D02*
Y12140000D01*
X15539999Y11840000D02*
X15539999Y11840000D01*
X16590001Y13270000D02*
X16600002Y13280000D01*
X16239999Y13270000D02*
X16460001D01*
X15339999Y11840000D02*
X15539999D01*
X15170000Y12090000D02*
X15230000D01*
X15280000Y12140000D01*
X16160001Y13350000D02*
X16239999Y13270000D01*
X16170000Y13350000D02*
X16230000Y13410001D01*
X16600002Y13280000D02*
Y13350000D01*
X16230000Y13410001D02*
X16460001D01*
X15889999Y13350000D02*
X16160001D01*
X16170000D01*
X16460001D01*
X15170000Y11960000D02*
X15289999Y11840000D01*
X16460001Y13270000D02*
X16590001D01*
D73*
X9800000Y10608000D02*
D03*
Y11116000D02*
D03*
Y10862000D02*
D03*
Y10354000D02*
D03*
Y10100000D02*
D03*
Y9846000D02*
D03*
D74*
Y11370000D02*
D03*
D75*
X15176500Y8064500D02*
D03*
X14922501D02*
D03*
X14668500D02*
D03*
X14414500D02*
D03*
X14160500D02*
D03*
X13906500D02*
D03*
X13652499D02*
D03*
X13398500D02*
D03*
X13144501D02*
D03*
X12890500D02*
D03*
X12636500D02*
D03*
X12382500D02*
D03*
X12128500D02*
D03*
X11874500D02*
D03*
X11620500D02*
D03*
X11366500D02*
D03*
X11112500D02*
D03*
X10858500D02*
D03*
X10604500D02*
D03*
X10350500D02*
D03*
X10096500D02*
D03*
X9842500D02*
D03*
X9588500D02*
D03*
X15176500Y7810500D02*
D03*
X14922501D02*
D03*
X14668500D02*
D03*
X14414500D02*
D03*
X14160500D02*
D03*
X13906500D02*
D03*
X13652499D02*
D03*
X13398500D02*
D03*
X13144501D02*
D03*
X12890500D02*
D03*
X12636500D02*
D03*
X12382500D02*
D03*
X12128500D02*
D03*
X11874500D02*
D03*
X11620500D02*
D03*
X11366500D02*
D03*
X11112500D02*
D03*
X10858500D02*
D03*
X10604500D02*
D03*
X10350500D02*
D03*
X10096500D02*
D03*
X9842500D02*
D03*
Y12636500D02*
D03*
X10096500D02*
D03*
X10350500D02*
D03*
X10604500D02*
D03*
X10858500D02*
D03*
X11112500D02*
D03*
X11366500D02*
D03*
X11620500D02*
D03*
X11874500D02*
D03*
X12128500D02*
D03*
X12382500D02*
D03*
X12636500D02*
D03*
X12890500D02*
D03*
X13144501D02*
D03*
X13398500D02*
D03*
X13652499D02*
D03*
X13906500D02*
D03*
X14160500D02*
D03*
X14414500D02*
D03*
X14668500D02*
D03*
X14922501D02*
D03*
X15176500D02*
D03*
X9588500Y12890500D02*
D03*
X9842500D02*
D03*
X10096500D02*
D03*
X10350500D02*
D03*
X10604500D02*
D03*
X10858500D02*
D03*
X11112500D02*
D03*
X11366500D02*
D03*
X11620500D02*
D03*
X11874500D02*
D03*
X12128500D02*
D03*
X12382500D02*
D03*
X12636500D02*
D03*
X12890500D02*
D03*
X13144501D02*
D03*
X13398500D02*
D03*
X13652499D02*
D03*
X13906500D02*
D03*
X14160500D02*
D03*
X14414500D02*
D03*
X14668500D02*
D03*
X14922501D02*
D03*
X15176500D02*
D03*
D76*
X9588500Y7810500D02*
D03*
Y12636500D02*
D03*
D77*
X7680000Y8410000D02*
D03*
X7730000D02*
D03*
X7780000D02*
D03*
X7830000D02*
D03*
X8270000Y8020000D02*
D03*
X8220000D02*
D03*
X8170000Y8020000D02*
D03*
X8250000Y7950000D02*
D03*
X8100000D02*
D03*
X8150000D02*
D03*
X12470000Y12540000D02*
D03*
X12770000Y12560000D02*
D03*
X7790000Y8030000D02*
D03*
X8340000Y8190000D02*
D03*
X8200000Y7950000D02*
D03*
X8499983Y8219984D02*
D03*
X13877499Y11272500D02*
D03*
X13770000Y11990000D02*
D03*
X10730000Y9560000D02*
D03*
X10430000Y9070000D02*
D03*
X10560000Y10250000D02*
D03*
X11090000Y12070000D02*
D03*
X11170000Y9730000D02*
D03*
X10832500Y12276183D02*
D03*
X10910000Y12300000D02*
D03*
X10290000Y9160000D02*
D03*
X9830000Y9650000D02*
D03*
X11220000Y9730000D02*
D03*
X9770000Y9500000D02*
D03*
X11419977Y9089982D02*
D03*
X10284999Y11055001D02*
D03*
X10260000Y11460000D02*
D03*
X10510000Y11430000D02*
D03*
X10520000Y11330000D02*
D03*
X9580000Y11910000D02*
D03*
X9890000Y9300000D02*
D03*
X9950000Y9340000D02*
D03*
X9940000Y11400000D02*
D03*
X9500000Y11900000D02*
D03*
X9869980Y9399981D02*
D03*
X10000000Y11470000D02*
D03*
X10579979Y9149982D02*
D03*
X10525000Y9095000D02*
D03*
X10480000Y9150000D02*
D03*
X10370000Y9110000D02*
D03*
X10300000Y9090000D02*
D03*
X10700000Y9070000D02*
D03*
X10809978Y8989982D02*
D03*
X12310000Y10500000D02*
D03*
X11600000Y10880000D02*
D03*
Y8680000D02*
D03*
X13077499Y10322500D02*
D03*
X10950000Y8500000D02*
D03*
X9885000Y11715000D02*
D03*
X10500000Y12400000D02*
D03*
X10870000Y10540000D02*
D03*
X10080000Y10860000D02*
D03*
X10249979Y10699979D02*
D03*
X10350000Y10970000D02*
D03*
X10600000Y11260000D02*
D03*
X10659979Y10979978D02*
D03*
X10790000Y11026360D02*
D03*
X10710000Y10550000D02*
D03*
X10780000Y10540000D02*
D03*
X10730000Y9430000D02*
D03*
X16300009Y9300005D02*
D03*
X16350009Y9600005D02*
D03*
Y10200006D02*
D03*
X16300009Y10300006D02*
D03*
X16350009Y10400006D02*
D03*
X16300009Y10500006D02*
D03*
X16350009Y10800006D02*
D03*
X16300009Y11100006D02*
D03*
X16400009Y9300005D02*
D03*
X16450009Y9600005D02*
D03*
X16400009Y9900005D02*
D03*
X16450009Y10200006D02*
D03*
X16400009Y10300006D02*
D03*
X16450009Y10400006D02*
D03*
X16400009Y10500006D02*
D03*
X16450009Y10800006D02*
D03*
X16400009Y11100006D02*
D03*
X16500009Y9300005D02*
D03*
X16550009Y9600005D02*
D03*
X16500009Y9900005D02*
D03*
X16550009Y10200006D02*
D03*
X16500009Y10300006D02*
D03*
X16550009Y10400006D02*
D03*
X16500009Y10500006D02*
D03*
X16550009Y10800006D02*
D03*
X16500009Y11100006D02*
D03*
X16600009Y9300005D02*
D03*
Y9900005D02*
D03*
Y10300006D02*
D03*
Y10500006D02*
D03*
Y11100006D02*
D03*
X11330000Y9726000D02*
D03*
X12270000Y9980000D02*
D03*
D78*
X12710000Y12440000D02*
D03*
X12620000Y12470000D02*
D03*
X10860000Y11511000D02*
D03*
X8446000Y8266000D02*
D03*
X12012500Y10950000D02*
D03*
X12030000Y10850000D02*
D03*
Y10790000D02*
D03*
X13014999Y10570000D02*
D03*
X14130000Y9315000D02*
D03*
X15889999Y11800000D02*
D03*
X16450000Y12010000D02*
D03*
Y12290000D02*
D03*
X15700000Y8670000D02*
D03*
X16439999Y7210000D02*
D03*
X16450000Y7490000D02*
D03*
X8490000Y12240000D02*
D03*
X8600000Y12460000D02*
D03*
X8450000Y12740000D02*
D03*
X8580000Y12760000D02*
D03*
X11070000Y11190000D02*
D03*
X11060000Y9150000D02*
D03*
X14320000Y11690000D02*
D03*
X9390000Y12430000D02*
D03*
X9120000Y12440000D02*
D03*
X14739970Y9289981D02*
D03*
X11100000Y11780000D02*
D03*
X13650000Y9100000D02*
D03*
X13430000Y11560000D02*
D03*
X13189999Y9300000D02*
D03*
X13000000Y11440000D02*
D03*
X13200000Y9750000D02*
D03*
X10310000Y10380000D02*
D03*
X10940000Y11310000D02*
D03*
X12070000Y11690000D02*
D03*
X12000000Y12550000D02*
D03*
X10869978Y11609977D02*
D03*
X11780000Y8670000D02*
D03*
X13789999Y12130000D02*
D03*
X13780000Y9190000D02*
D03*
X14430000Y10860000D02*
D03*
X8170000Y8550000D02*
D03*
X14530000Y8870000D02*
D03*
X10440000Y7940000D02*
D03*
X10280000Y7930000D02*
D03*
X10160000D02*
D03*
X11750000Y7900000D02*
D03*
X8060000Y9450000D02*
D03*
X8120000D02*
D03*
X8180000D02*
D03*
X8240000D02*
D03*
X14780000Y10290000D02*
D03*
X11539977Y7919984D02*
D03*
X11460000Y7950000D02*
D03*
X10531924Y7948077D02*
D03*
X13110001Y12490000D02*
D03*
X13030000Y12720000D02*
D03*
X12537800Y12752200D02*
D03*
X10170000Y10320000D02*
D03*
X11190000Y11850000D02*
D03*
X10840000Y11320000D02*
D03*
X10360000Y11760000D02*
D03*
X10380000Y12450000D02*
D03*
X12100000Y12084246D02*
D03*
X10979978Y11619977D02*
D03*
X11070000Y12390000D02*
D03*
X11000000Y12310000D02*
D03*
X10800000Y12440000D02*
D03*
X11370000Y12350000D02*
D03*
X11340000Y10920000D02*
D03*
X11240000Y12560000D02*
D03*
X10220000Y12580000D02*
D03*
X11880000Y12450000D02*
D03*
X11780000Y12460000D02*
D03*
X11526658Y12562475D02*
D03*
X11509977Y12489975D02*
D03*
X12000000Y12740000D02*
D03*
X12030000Y12450000D02*
D03*
X12249975Y12539975D02*
D03*
X11999976Y11469977D02*
D03*
X12010000Y11610000D02*
D03*
X10260000Y12460000D02*
D03*
X10570000Y10340000D02*
D03*
X10220000Y8680000D02*
D03*
X11660000Y10850000D02*
D03*
X11070000Y11100000D02*
D03*
X11999976Y12059976D02*
D03*
X11029978Y11009978D02*
D03*
X12229976Y11939976D02*
D03*
X12930000Y11810000D02*
D03*
X11720000Y10850000D02*
D03*
X11780000D02*
D03*
X9640000Y8300000D02*
D03*
X11030000Y8340000D02*
D03*
X11057500Y8942500D02*
D03*
X12942500Y10682500D02*
D03*
X13620000Y10010000D02*
D03*
X13529973Y9999980D02*
D03*
X13429973D02*
D03*
X13319974Y9969980D02*
D03*
X13189999Y9900000D02*
D03*
X13089999Y10020000D02*
D03*
X12680000Y10300000D02*
D03*
X12740000Y10400000D02*
D03*
X12560000Y9170000D02*
D03*
X12450000D02*
D03*
X12470000Y8990000D02*
D03*
X12530000D02*
D03*
X12540000Y11730000D02*
D03*
X12560000Y9490000D02*
D03*
X11340000Y8760000D02*
D03*
X11360000Y8630000D02*
D03*
X9520000Y8300000D02*
D03*
X9580000D02*
D03*
X12950000Y8710000D02*
D03*
X12590000Y8990000D02*
D03*
X12290000Y8890000D02*
D03*
X12000000Y9130000D02*
D03*
X13680000Y11530000D02*
D03*
X14050000Y11730000D02*
D03*
X14580000Y11360000D02*
D03*
X13550000Y11480000D02*
D03*
X12030000Y10730000D02*
D03*
X14929970Y10099980D02*
D03*
X12690000Y11680000D02*
D03*
X12180000Y11650000D02*
D03*
X12320000Y11710000D02*
D03*
X14110001Y11660000D02*
D03*
X14239999Y9820000D02*
D03*
X14450000Y9810000D02*
D03*
X16450000Y8690000D02*
D03*
Y8410000D02*
D03*
X15339999Y11900000D02*
D03*
X16470000Y13210001D02*
D03*
X16460001Y13489999D02*
D03*
X15519969Y11189978D02*
D03*
X14980000Y10360000D02*
D03*
X11850000Y11270000D02*
D03*
X9000000Y12130000D02*
D03*
X11349977Y12249975D02*
D03*
X11860000Y9460000D02*
D03*
X11780000Y8370000D02*
D03*
X10870000Y8330000D02*
D03*
X10750000Y8320000D02*
D03*
X10200000Y8410000D02*
D03*
X9760000Y8300000D02*
D03*
X9700000D02*
D03*
X9010000Y7760000D02*
D03*
X9190000D02*
D03*
X9130000D02*
D03*
X9070000D02*
D03*
X8459000Y9189000D02*
D03*
X8570000Y9110000D02*
D03*
X8730000Y9000000D02*
D03*
X8640000Y8850000D02*
D03*
X8960000Y8710000D02*
D03*
X10900000Y10100000D02*
D03*
X10680000Y10320000D02*
D03*
X11110000Y9990000D02*
D03*
X11280000Y10090000D02*
D03*
X12000000Y9660000D02*
D03*
X14180000Y10480000D02*
D03*
X14080000Y10560000D02*
D03*
X14430000Y10175000D02*
D03*
X14060001Y8880000D02*
D03*
X10300000Y8330000D02*
D03*
X10410000Y8300000D02*
D03*
X11507500Y9835000D02*
D03*
X9090000Y12570000D02*
D03*
X13020000Y11610000D02*
D03*
X14939999Y8490000D02*
D03*
X15005000Y9095000D02*
D03*
X15039999Y11570000D02*
D03*
X14789999Y12210000D02*
D03*
X15064999Y11900000D02*
D03*
X15595000Y12105000D02*
D03*
X14750000Y11080000D02*
D03*
X12060000Y9790000D02*
D03*
X12269975Y9779980D02*
D03*
X13230000Y10060000D02*
D03*
X13440466Y10630466D02*
D03*
X13610001Y11190000D02*
D03*
X8480000Y7840000D02*
D03*
X8560000Y8270000D02*
D03*
X12670000D02*
D03*
X13280000D02*
D03*
X13860001D02*
D03*
X13809972Y8579983D02*
D03*
X13910001Y8660000D02*
D03*
X13139999Y8710000D02*
D03*
X14470000Y8270000D02*
D03*
X14389999Y8620000D02*
D03*
X14189999Y9000000D02*
D03*
X12860001Y9890000D02*
D03*
X12830000Y10060000D02*
D03*
X14725000Y9390000D02*
D03*
X14727499Y9510000D02*
D03*
X14139999Y10302500D02*
D03*
X14727499Y9632500D02*
D03*
X15050000Y8270000D02*
D03*
X15680000D02*
D03*
X15939999Y9040000D02*
D03*
X15557526Y10071806D02*
D03*
X15720000Y9730000D02*
D03*
X15752499Y10180000D02*
D03*
X15750000Y10307500D02*
D03*
X15939999Y10370000D02*
D03*
X12850000Y10580000D02*
D03*
X12932500Y10800000D02*
D03*
X12563431Y11185000D02*
D03*
X13200000Y11390000D02*
D03*
X13450000Y11920000D02*
D03*
X13152499Y11967500D02*
D03*
X14564999Y11775000D02*
D03*
X13880000Y12410000D02*
D03*
X14470000D02*
D03*
X15424722Y10515000D02*
D03*
X15480000Y10550000D02*
D03*
X15742500Y10370000D02*
D03*
X15747501Y10485000D02*
D03*
X14720000Y11180000D02*
D03*
X15560001Y10910000D02*
D03*
X14717500Y11305000D02*
D03*
Y11405000D02*
D03*
X15060001Y12410000D02*
D03*
X15689999Y12000000D02*
D03*
X15700000Y12430000D02*
D03*
X15739999Y10960000D02*
D03*
X16210001Y11730000D02*
D03*
X13030000Y9210000D02*
D03*
X12675000Y9995000D02*
D03*
X12403431Y11505000D02*
D03*
X13110001Y10790000D02*
D03*
X13286571Y10720000D02*
D03*
X14169971Y8489983D02*
D03*
X14410001Y10260000D02*
D03*
X15700000Y8760000D02*
D03*
X14920000Y9820000D02*
D03*
X14239999Y10840000D02*
D03*
X15610001Y11970000D02*
D03*
X13010001Y9950000D02*
D03*
X12563431Y11505000D02*
D03*
X14035690Y9227950D02*
D03*
X14062500Y9897500D02*
D03*
X15010001Y8890000D02*
D03*
X13089999Y11400000D02*
D03*
X14322501Y11450000D02*
D03*
X14937500Y10827500D02*
D03*
X15060001Y11780000D02*
D03*
X13310001Y8980000D02*
D03*
X13639999Y8890000D02*
D03*
X12805000Y10732500D02*
D03*
X12790000Y11340000D02*
D03*
X13520000Y11270000D02*
D03*
X9515000Y12055000D02*
D03*
X9520000Y12410000D02*
D03*
X11510000Y10460000D02*
D03*
X12470000Y9960000D02*
D03*
Y10550000D02*
D03*
X12670000Y10210000D02*
D03*
X10230000Y8590000D02*
D03*
X10190000Y8760000D02*
D03*
X10660000Y8500000D02*
D03*
X11520000Y12000000D02*
D03*
X11730000Y10350000D02*
D03*
X8930000Y8280000D02*
D03*
X9000000D02*
D03*
X9070000D02*
D03*
X9140000D02*
D03*
X10649979Y9529981D02*
D03*
X10690000Y11060000D02*
D03*
X11069999Y10070000D02*
D03*
X13280000Y12430000D02*
D03*
X13180000D02*
D03*
X13780000Y10440000D02*
D03*
X14655000Y10722500D02*
D03*
X12139976Y11999976D02*
D03*
X12129975Y11789976D02*
D03*
X15939999Y11620000D02*
D03*
X15339999Y11780000D02*
D03*
X15420000Y12110000D02*
D03*
X9980000Y11180000D02*
D03*
X9979980Y11299977D02*
D03*
X9989980Y10489979D02*
D03*
X10020000Y9740000D02*
D03*
X10007500Y8848500D02*
D03*
X9950000Y8850000D02*
D03*
X8439983Y12329975D02*
D03*
X7930000Y9130000D02*
D03*
Y9060000D02*
D03*
X9890000Y8850000D02*
D03*
X7930000Y9000000D02*
D03*
X13279973Y9809980D02*
D03*
X12700000Y9170000D02*
D03*
%TF.MD5,da40b2d98105d57862dbf019f34c7198*%
M02*
