G04 Layer_Physical_Order=1*
G04 Layer_Color=255*
%FSLAX26Y26*%
%MOIN*%
%TF.FileFunction,Copper,L1,Top,Signal*%
%TF.Part,Single*%
G01*
G75*
%TA.AperFunction,SMDPad,CuDef*%
%ADD10R,0.020472X0.020472*%
%ADD11R,0.020472X0.020472*%
%ADD12R,0.017716X0.021654*%
%ADD13R,0.021654X0.017716*%
%ADD14R,0.102362X0.023622*%
%ADD15R,0.019685X0.039370*%
%ADD16R,0.167323X0.059055*%
%ADD17R,0.155512X0.059055*%
%ADD18C,0.023622*%
%ADD19R,0.023622X0.013780*%
%ADD20R,0.062992X0.035433*%
%ADD21R,0.051181X0.051181*%
%ADD22R,0.050000X0.029921*%
%ADD23R,0.035433X0.025591*%
%ADD24R,0.019685X0.025591*%
%ADD25R,0.035433X0.027559*%
%ADD26R,0.038583X0.081890*%
%ADD27O,0.059055X0.015748*%
%ADD28O,0.015709X0.059055*%
%ADD29R,0.031496X0.031496*%
%ADD30R,0.096457X0.096457*%
%ADD31O,0.009842X0.031496*%
%ADD32O,0.031496X0.009842*%
%ADD33R,0.029528X0.009842*%
%ADD34R,0.053543X0.057480*%
%ADD35O,0.055118X0.013780*%
%ADD36O,0.059055X0.015709*%
%ADD37R,0.045000X0.030000*%
%ADD38R,0.030000X0.045000*%
%ADD39R,0.102362X0.037402*%
%ADD40R,0.040157X0.025984*%
%ADD41R,0.050000X0.025984*%
%ADD42R,0.030000X0.039370*%
%ADD43O,0.074803X0.023622*%
%ADD44R,0.027559X0.035433*%
%ADD45R,0.025591X0.019685*%
%ADD46O,0.009842X0.061024*%
%ADD47O,0.061024X0.009842*%
%ADD48R,0.025591X0.035433*%
%ADD49R,0.053150X0.037402*%
%ADD50R,0.015748X0.018898*%
%ADD51R,0.035433X0.039370*%
%ADD52R,0.035433X0.062992*%
%ADD53R,0.051181X0.051181*%
%ADD54O,0.044291X0.008858*%
%ADD55O,0.043779X0.009842*%
%ADD56O,0.044764X0.007874*%
%ADD57O,0.043228X0.010827*%
%ADD58O,0.042598X0.011811*%
%ADD59O,0.029921X0.019685*%
%ADD60O,0.041850X0.012795*%
%ADD61O,0.040945X0.013780*%
%ADD62O,0.039882X0.014764*%
%ADD63O,0.038622X0.015748*%
%ADD64O,0.037126X0.016732*%
%ADD65O,0.035315X0.017716*%
%ADD66O,0.034055X0.018307*%
%ADD67O,0.033071X0.018701*%
%ADD68O,0.031496X0.019291*%
%ADD69O,0.024803X0.020472*%
%ADD70O,0.027953X0.020079*%
%ADD71C,0.020669*%
%ADD72R,0.031496X0.031496*%
%ADD73R,0.039370X0.161417*%
%ADD74R,0.161417X0.039370*%
%ADD75R,0.039370X0.149606*%
%ADD76R,0.149606X0.039370*%
%TA.AperFunction,Conductor*%
%ADD77C,0.007874*%
%ADD78C,0.013780*%
%ADD79C,0.004921*%
%ADD80C,0.039370*%
%ADD81C,0.005905*%
%ADD82C,0.029528*%
%ADD83C,0.011811*%
%ADD84C,0.019685*%
%ADD85C,0.025591*%
%ADD86C,0.010000*%
%ADD87C,0.009842*%
%TA.AperFunction,NonConductor*%
%ADD88C,0.007874*%
%ADD89C,0.004724*%
%TA.AperFunction,Conductor*%
%ADD90R,0.150000X0.153937*%
%TA.AperFunction,ComponentPad*%
%ADD91C,0.060000*%
%ADD92R,0.060000X0.060000*%
%ADD93C,0.055118*%
%ADD94R,0.055118X0.055118*%
%TA.AperFunction,ViaPad*%
%ADD95C,0.023622*%
%ADD96C,0.017716*%
G36*
X3614402Y3720409D02*
X3607055D01*
Y3720606D01*
X3607973Y3725854D01*
X3606924Y3724804D01*
X3605809Y3723886D01*
X3604628Y3723098D01*
X3603381Y3722377D01*
X3602201Y3721852D01*
X3600954Y3721327D01*
X3599708Y3720934D01*
X3598593Y3720606D01*
X3597477Y3720409D01*
X3596493Y3720212D01*
X3595575Y3720081D01*
X3594788Y3719950D01*
X3594132D01*
X3593607Y3719884D01*
X3593213D01*
X3591705Y3719950D01*
X3590261Y3720146D01*
X3589015Y3720474D01*
X3587965Y3720802D01*
X3587047Y3721130D01*
X3586391Y3721458D01*
X3586129Y3721524D01*
X3585932Y3721655D01*
X3585866Y3721721D01*
X3585801D01*
X3584685Y3722442D01*
X3583701Y3723230D01*
X3582849Y3724082D01*
X3582193Y3724935D01*
X3581602Y3725657D01*
X3581209Y3726247D01*
X3580946Y3726641D01*
X3580881Y3726706D01*
Y3726772D01*
X3580290Y3728018D01*
X3579831Y3729330D01*
X3579569Y3730577D01*
X3579306Y3731692D01*
X3579175Y3732742D01*
Y3733135D01*
X3579109Y3733529D01*
Y3733857D01*
Y3734054D01*
Y3734185D01*
Y3734250D01*
X3579175Y3735825D01*
X3579306Y3736612D01*
X3579372Y3737334D01*
X3579503Y3737924D01*
X3579569Y3738383D01*
X3579634Y3738711D01*
Y3738842D01*
X3586129Y3771446D01*
X3593607D01*
X3593541Y3771380D01*
X3587244Y3739958D01*
X3587047Y3739039D01*
X3586916Y3738121D01*
X3586850Y3737334D01*
X3586785Y3736612D01*
X3586719Y3736087D01*
Y3735628D01*
Y3735366D01*
Y3735234D01*
X3586850Y3733791D01*
X3587113Y3732545D01*
X3587506Y3731430D01*
X3587965Y3730511D01*
X3588359Y3729790D01*
X3588753Y3729265D01*
X3589015Y3728937D01*
X3589146Y3728806D01*
X3590130Y3728018D01*
X3591245Y3727494D01*
X3592361Y3727100D01*
X3593476Y3726772D01*
X3594394Y3726641D01*
X3595181Y3726575D01*
X3595509Y3726510D01*
X3595903D01*
X3597412Y3726575D01*
X3598133Y3726706D01*
X3598724Y3726838D01*
X3599249Y3726903D01*
X3599708Y3727034D01*
X3599970Y3727100D01*
X3600036D01*
X3601348Y3727559D01*
X3602529Y3728150D01*
X3603578Y3728740D01*
X3604431Y3729330D01*
X3605218Y3729921D01*
X3605743Y3730380D01*
X3606071Y3730642D01*
X3606202Y3730774D01*
X3607383Y3732217D01*
X3608301Y3733726D01*
X3609089Y3735300D01*
X3609745Y3736809D01*
X3609941Y3737530D01*
X3610204Y3738186D01*
X3610335Y3738777D01*
X3610466Y3739236D01*
X3610597Y3739630D01*
X3610663Y3739958D01*
X3610729Y3740154D01*
Y3740220D01*
X3616961Y3771446D01*
X3624505D01*
X3614402Y3720409D01*
D02*
G37*
G36*
X3726841Y3772036D02*
X3728481Y3771839D01*
X3729858Y3771511D01*
X3731105Y3771183D01*
X3732089Y3770855D01*
X3732482Y3770724D01*
X3732810Y3770527D01*
X3733138Y3770462D01*
X3733335Y3770330D01*
X3733401Y3770265D01*
X3733466D01*
X3734778Y3769543D01*
X3735959Y3768625D01*
X3737074Y3767706D01*
X3737993Y3766722D01*
X3738780Y3765870D01*
X3739370Y3765214D01*
X3739567Y3764951D01*
X3739698Y3764754D01*
X3739829Y3764623D01*
Y3764558D01*
X3739961Y3764426D01*
X3734319Y3759703D01*
X3734253Y3759900D01*
X3733466Y3760950D01*
X3732745Y3761802D01*
X3732023Y3762524D01*
X3731367Y3763114D01*
X3730777Y3763574D01*
X3730383Y3763902D01*
X3730121Y3764098D01*
X3729989Y3764164D01*
X3729137Y3764623D01*
X3728153Y3764951D01*
X3727234Y3765148D01*
X3726381Y3765345D01*
X3725594Y3765410D01*
X3725004Y3765476D01*
X3724413D01*
X3723233Y3765410D01*
X3722117Y3765279D01*
X3721002Y3765017D01*
X3719953Y3764689D01*
X3718969Y3764361D01*
X3718050Y3763967D01*
X3717197Y3763508D01*
X3716410Y3763049D01*
X3715754Y3762590D01*
X3715098Y3762130D01*
X3714573Y3761737D01*
X3714114Y3761409D01*
X3713721Y3761081D01*
X3713458Y3760818D01*
X3713327Y3760687D01*
X3713261Y3760622D01*
X3712277Y3759441D01*
X3711425Y3758260D01*
X3710637Y3757014D01*
X3709981Y3755833D01*
X3709457Y3754849D01*
X3709260Y3754390D01*
X3709063Y3753996D01*
X3708932Y3753734D01*
X3708801Y3753471D01*
X3708735Y3753340D01*
Y3753274D01*
X3708276Y3752028D01*
X3707817Y3750716D01*
X3707489Y3749535D01*
X3707161Y3748354D01*
X3706964Y3747370D01*
X3706833Y3746977D01*
X3706767Y3746649D01*
X3706701Y3746321D01*
Y3746124D01*
X3706636Y3745993D01*
Y3745927D01*
X3706373Y3744418D01*
X3706177Y3742975D01*
X3706045Y3741729D01*
X3705980Y3740614D01*
X3705914Y3739695D01*
X3705849Y3738974D01*
Y3738711D01*
Y3738514D01*
Y3738449D01*
Y3738383D01*
X3705914Y3737268D01*
X3705980Y3736218D01*
X3706177Y3735234D01*
X3706373Y3734382D01*
X3706636Y3733529D01*
X3706964Y3732807D01*
X3707292Y3732086D01*
X3707620Y3731495D01*
X3707882Y3730905D01*
X3708210Y3730446D01*
X3708538Y3730052D01*
X3708801Y3729724D01*
X3708997Y3729462D01*
X3709194Y3729265D01*
X3709260Y3729199D01*
X3709325Y3729134D01*
X3710506Y3728281D01*
X3711687Y3727625D01*
X3712933Y3727166D01*
X3714114Y3726838D01*
X3715164Y3726641D01*
X3715623Y3726575D01*
X3716017D01*
X3716279Y3726510D01*
X3716738D01*
X3718050Y3726575D01*
X3719231Y3726706D01*
X3720281Y3726903D01*
X3721265Y3727166D01*
X3722052Y3727428D01*
X3722577Y3727625D01*
X3722970Y3727756D01*
X3723101Y3727822D01*
X3724217Y3728412D01*
X3725266Y3729068D01*
X3726250Y3729790D01*
X3727169Y3730577D01*
X3727890Y3731233D01*
X3728481Y3731758D01*
X3728874Y3732151D01*
X3729005Y3732217D01*
Y3732282D01*
X3729071Y3732348D01*
Y3732282D01*
X3733401Y3727034D01*
X3733335Y3726969D01*
X3732023Y3725722D01*
X3730645Y3724673D01*
X3729333Y3723754D01*
X3728153Y3723033D01*
X3727103Y3722442D01*
X3726644Y3722246D01*
X3726250Y3722049D01*
X3725922Y3721918D01*
X3725725Y3721786D01*
X3725594Y3721721D01*
X3725529D01*
X3723889Y3721130D01*
X3722249Y3720671D01*
X3720740Y3720343D01*
X3719297Y3720146D01*
X3718706Y3720015D01*
X3718116D01*
X3717591Y3719950D01*
X3717197Y3719884D01*
X3716345D01*
X3714377Y3719950D01*
X3712540Y3720212D01*
X3710900Y3720606D01*
X3709522Y3720999D01*
X3708866Y3721196D01*
X3708341Y3721393D01*
X3707882Y3721590D01*
X3707489Y3721786D01*
X3707161Y3721918D01*
X3706964Y3722049D01*
X3706833Y3722114D01*
X3706767D01*
X3705324Y3723033D01*
X3704077Y3724017D01*
X3703028Y3725066D01*
X3702175Y3726050D01*
X3701453Y3726969D01*
X3700929Y3727756D01*
X3700797Y3728018D01*
X3700666Y3728215D01*
X3700535Y3728346D01*
Y3728412D01*
X3699813Y3730052D01*
X3699289Y3731692D01*
X3698895Y3733332D01*
X3698633Y3734841D01*
X3698567Y3735562D01*
X3698501Y3736153D01*
X3698436Y3736743D01*
Y3737268D01*
X3698370Y3737662D01*
Y3737924D01*
Y3738121D01*
Y3738186D01*
X3698436Y3739630D01*
X3698501Y3741073D01*
X3698633Y3742385D01*
X3698764Y3743631D01*
X3698895Y3744615D01*
X3698961Y3745009D01*
X3699026Y3745402D01*
X3699092Y3745665D01*
X3699157Y3745862D01*
Y3745993D01*
Y3746058D01*
X3699617Y3748289D01*
X3700207Y3750454D01*
X3700863Y3752422D01*
X3701519Y3754324D01*
X3702306Y3756030D01*
X3703028Y3757604D01*
X3703815Y3759047D01*
X3704537Y3760294D01*
X3705258Y3761474D01*
X3705980Y3762458D01*
X3706570Y3763311D01*
X3707095Y3764033D01*
X3707554Y3764558D01*
X3707948Y3764951D01*
X3708145Y3765214D01*
X3708210Y3765279D01*
X3709522Y3766460D01*
X3710900Y3767510D01*
X3712277Y3768428D01*
X3713721Y3769215D01*
X3715164Y3769871D01*
X3716541Y3770462D01*
X3717919Y3770921D01*
X3719231Y3771249D01*
X3720412Y3771511D01*
X3721593Y3771774D01*
X3722577Y3771905D01*
X3723429Y3771970D01*
X3724151Y3772036D01*
X3724676Y3772102D01*
X3725135D01*
X3726841Y3772036D01*
D02*
G37*
G36*
X3759837Y3766329D02*
X3760887Y3767378D01*
X3762068Y3768231D01*
X3763249Y3769018D01*
X3764429Y3769674D01*
X3765676Y3770199D01*
X3766857Y3770724D01*
X3768037Y3771052D01*
X3769218Y3771380D01*
X3770268Y3771642D01*
X3771252Y3771774D01*
X3772105Y3771905D01*
X3772892Y3772036D01*
X3773548D01*
X3774007Y3772102D01*
X3774401D01*
X3775909Y3772036D01*
X3777353Y3771839D01*
X3778599Y3771511D01*
X3779714Y3771183D01*
X3780567Y3770855D01*
X3781223Y3770527D01*
X3781485Y3770462D01*
X3781682Y3770330D01*
X3781748Y3770265D01*
X3781813D01*
X3782929Y3769543D01*
X3783978Y3768756D01*
X3784831Y3767903D01*
X3785487Y3767050D01*
X3786077Y3766329D01*
X3786471Y3765738D01*
X3786733Y3765345D01*
X3786799Y3765279D01*
Y3765214D01*
X3787389Y3763967D01*
X3787849Y3762655D01*
X3788111Y3761409D01*
X3788373Y3760228D01*
X3788505Y3759178D01*
Y3758785D01*
X3788570Y3758391D01*
Y3758063D01*
Y3757866D01*
Y3757735D01*
Y3757670D01*
Y3756882D01*
X3788505Y3756030D01*
X3788439Y3755177D01*
X3788308Y3754324D01*
X3788242Y3753668D01*
X3788111Y3753078D01*
X3788045Y3752684D01*
Y3752618D01*
Y3752553D01*
X3781485Y3720409D01*
X3774073D01*
X3780370Y3751831D01*
X3780567Y3752946D01*
X3780698Y3753930D01*
X3780829Y3754718D01*
X3780895Y3755374D01*
X3780961Y3755898D01*
Y3756292D01*
Y3756489D01*
Y3756554D01*
X3780829Y3758063D01*
X3780567Y3759375D01*
X3780173Y3760490D01*
X3779714Y3761409D01*
X3779255Y3762130D01*
X3778861Y3762655D01*
X3778599Y3762983D01*
X3778468Y3763114D01*
X3777484Y3763902D01*
X3776434Y3764492D01*
X3775319Y3764886D01*
X3774269Y3765214D01*
X3773285Y3765345D01*
X3772564Y3765410D01*
X3772236Y3765476D01*
X3771842D01*
X3770333Y3765345D01*
X3769612Y3765279D01*
X3768956Y3765148D01*
X3768431Y3765017D01*
X3768037Y3764951D01*
X3767709Y3764820D01*
X3767644D01*
X3766332Y3764361D01*
X3765151Y3763770D01*
X3764101Y3763180D01*
X3763183Y3762590D01*
X3762461Y3761999D01*
X3761937Y3761540D01*
X3761609Y3761212D01*
X3761477Y3761081D01*
X3760297Y3759703D01*
X3759313Y3758129D01*
X3758525Y3756554D01*
X3757935Y3755046D01*
X3757410Y3753734D01*
X3757279Y3753143D01*
X3757148Y3752618D01*
X3757017Y3752225D01*
X3756951Y3751897D01*
X3756885Y3751700D01*
Y3751634D01*
X3750653Y3720409D01*
X3743241D01*
X3758197Y3794734D01*
X3765610D01*
X3759837Y3766329D01*
D02*
G37*
G36*
X3573074Y3765214D02*
X3539225Y3727034D01*
X3566055D01*
X3564809Y3720409D01*
X3528794D01*
X3530041Y3726706D01*
X3563825Y3764820D01*
X3538503D01*
Y3765017D01*
X3539749Y3771446D01*
X3574321D01*
X3573074Y3765214D01*
D02*
G37*
G36*
X3680986Y3720409D02*
X3673573D01*
Y3720606D01*
X3683807Y3771446D01*
X3691154D01*
X3680986Y3720409D01*
D02*
G37*
G36*
X3621684Y3785484D02*
X3614271D01*
X3616173Y3794734D01*
X3623586D01*
X3621684Y3785484D01*
D02*
G37*
G36*
X3694041D02*
X3686562D01*
X3688465Y3794734D01*
X3695943D01*
X3694041Y3785484D01*
D02*
G37*
G36*
X3601873D02*
X3594460D01*
X3596362Y3794734D01*
X3603775D01*
X3601873Y3785484D01*
D02*
G37*
G36*
X3662749Y3772036D02*
X3663930Y3771905D01*
X3665045Y3771642D01*
X3666161Y3771380D01*
X3667145Y3770986D01*
X3668063Y3770593D01*
X3668850Y3770134D01*
X3669637Y3769740D01*
X3670293Y3769281D01*
X3670884Y3768822D01*
X3671343Y3768428D01*
X3671802Y3768034D01*
X3672130Y3767772D01*
X3672327Y3767510D01*
X3672458Y3767378D01*
X3672524Y3767313D01*
X3672655Y3767182D01*
X3666554Y3761868D01*
Y3761934D01*
X3666029Y3762590D01*
X3665439Y3763114D01*
X3664849Y3763574D01*
X3664258Y3763967D01*
X3663077Y3764623D01*
X3661897Y3765017D01*
X3660913Y3765279D01*
X3660519Y3765345D01*
X3660125Y3765410D01*
X3659797Y3765476D01*
X3659404D01*
X3658157Y3765410D01*
X3656977Y3765214D01*
X3655861Y3764886D01*
X3654877Y3764623D01*
X3654090Y3764295D01*
X3653434Y3763967D01*
X3653041Y3763770D01*
X3652975Y3763705D01*
X3652909D01*
X3651794Y3762983D01*
X3650810Y3762196D01*
X3649957Y3761343D01*
X3649170Y3760556D01*
X3648580Y3759834D01*
X3648121Y3759244D01*
X3647858Y3758850D01*
X3647727Y3758785D01*
Y3758719D01*
X3647005Y3757538D01*
X3646349Y3756292D01*
X3645825Y3755111D01*
X3645431Y3753996D01*
X3645169Y3753078D01*
X3644906Y3752290D01*
X3644841Y3752028D01*
Y3751831D01*
X3644775Y3751700D01*
Y3751634D01*
X3638543Y3720409D01*
X3631065D01*
X3631130Y3720606D01*
X3641233Y3771446D01*
X3648645D01*
X3648514Y3771380D01*
X3647465Y3765607D01*
X3648383Y3766722D01*
X3649367Y3767641D01*
X3650417Y3768494D01*
X3651335Y3769150D01*
X3652188Y3769674D01*
X3652844Y3770068D01*
X3653106Y3770199D01*
X3653303Y3770330D01*
X3653369Y3770396D01*
X3653434D01*
X3654812Y3770986D01*
X3656255Y3771380D01*
X3657567Y3771708D01*
X3658813Y3771905D01*
X3659863Y3772036D01*
X3660322D01*
X3660716Y3772102D01*
X3661437D01*
X3662749Y3772036D01*
D02*
G37*
G36*
X3509311Y3720409D02*
X3485957D01*
X3491730Y3749207D01*
X3475068D01*
X3469295Y3720409D01*
X3446073D01*
X3457225Y3776169D01*
X3437741D01*
X3426524Y3720409D01*
X3403236D01*
X3414519Y3776169D01*
X3361449D01*
X3359415Y3765935D01*
X3392871D01*
X3389460Y3749207D01*
X3356004D01*
X3353970Y3739039D01*
X3387492D01*
X3383753Y3720409D01*
X3327074D01*
X3342031Y3794734D01*
X3484252D01*
X3478348Y3765935D01*
X3495141D01*
X3500914Y3794734D01*
X3524268D01*
X3509311Y3720409D01*
D02*
G37*
D10*
X3933071Y3425197D02*
D03*
Y3456693D02*
D03*
X3937008Y4275591D02*
D03*
Y4307087D02*
D03*
X4051181Y3314961D02*
D03*
Y3346457D02*
D03*
X4066929Y4165354D02*
D03*
Y4196850D02*
D03*
X4232283Y3314961D02*
D03*
Y3346457D02*
D03*
X4279528Y3314961D02*
D03*
Y3346457D02*
D03*
X4098425Y3334646D02*
D03*
Y3303150D02*
D03*
X4114173Y4185039D02*
D03*
Y4153543D02*
D03*
X4334646Y3940945D02*
D03*
Y3909449D02*
D03*
Y4791339D02*
D03*
Y4759843D02*
D03*
X4287401Y3940945D02*
D03*
Y3909449D02*
D03*
Y4791339D02*
D03*
Y4759843D02*
D03*
X4240157Y3940945D02*
D03*
Y3909449D02*
D03*
Y4791339D02*
D03*
Y4759843D02*
D03*
X3373622Y3547244D02*
D03*
Y3515748D02*
D03*
X4570866Y3897638D02*
D03*
Y3929134D02*
D03*
Y4748032D02*
D03*
Y4779528D02*
D03*
X5125984Y4236221D02*
D03*
Y4267717D02*
D03*
X5638779Y4535433D02*
D03*
Y4566929D02*
D03*
X4492126Y4740158D02*
D03*
Y4771654D02*
D03*
X4496063Y3905512D02*
D03*
Y3937008D02*
D03*
X5013162Y4423228D02*
D03*
Y4391732D02*
D03*
X3283071Y3559055D02*
D03*
Y3590551D02*
D03*
X3181102Y3358268D02*
D03*
Y3326772D02*
D03*
X5700787Y3964567D02*
D03*
Y3933071D02*
D03*
X5450787Y4745445D02*
D03*
Y4713949D02*
D03*
X4846457Y4110236D02*
D03*
Y4078740D02*
D03*
X3542913Y3385827D02*
D03*
Y3354331D02*
D03*
X4051181Y3940945D02*
D03*
Y3909449D02*
D03*
X4192913Y3956693D02*
D03*
Y3925197D02*
D03*
X4145669Y3940945D02*
D03*
Y3909449D02*
D03*
X4051181Y4791339D02*
D03*
Y4759843D02*
D03*
X4192913Y4807087D02*
D03*
Y4775591D02*
D03*
X4145669Y4791339D02*
D03*
Y4759843D02*
D03*
X4515748Y3740157D02*
D03*
Y3771654D02*
D03*
X4519685Y3708661D02*
D03*
Y3677165D02*
D03*
X4594488Y3551181D02*
D03*
Y3519685D02*
D03*
Y4417323D02*
D03*
Y4385827D02*
D03*
X4594488Y3704725D02*
D03*
Y3673229D02*
D03*
X4590551Y4555118D02*
D03*
Y4523622D02*
D03*
X4570866Y3846457D02*
D03*
Y3814961D02*
D03*
Y4696851D02*
D03*
Y4665355D02*
D03*
X5704724Y4161417D02*
D03*
Y4129921D02*
D03*
X4496063Y3874016D02*
D03*
Y3842520D02*
D03*
X4519685Y4562992D02*
D03*
Y4531496D02*
D03*
X4515748Y4417323D02*
D03*
Y4385827D02*
D03*
Y3551181D02*
D03*
Y3519685D02*
D03*
Y4594488D02*
D03*
Y4625984D02*
D03*
X4590551Y3748032D02*
D03*
Y3779528D02*
D03*
Y4598425D02*
D03*
Y4629921D02*
D03*
X4594488Y3606299D02*
D03*
Y3637795D02*
D03*
Y4456693D02*
D03*
Y4488189D02*
D03*
X4515748Y3448819D02*
D03*
Y3480315D02*
D03*
Y4314961D02*
D03*
Y4346457D02*
D03*
X5685039Y3570866D02*
D03*
Y3602362D02*
D03*
X6141732Y3433071D02*
D03*
Y3464567D02*
D03*
X4594488Y4311024D02*
D03*
Y4342520D02*
D03*
Y3444882D02*
D03*
Y3476378D02*
D03*
X4515748Y4456693D02*
D03*
Y4488189D02*
D03*
Y3606299D02*
D03*
Y3637795D02*
D03*
X5011811Y3716535D02*
D03*
Y3748031D02*
D03*
D11*
X4228346Y4185039D02*
D03*
X4196850D02*
D03*
X4259843D02*
D03*
X4291339D02*
D03*
X3629921Y4905512D02*
D03*
X3661417D02*
D03*
X5719498Y3882601D02*
D03*
X5750994D02*
D03*
X5133858Y4448819D02*
D03*
X5165354D02*
D03*
X5125984Y3877953D02*
D03*
X5157480D02*
D03*
X5165354Y3692913D02*
D03*
X5133858D02*
D03*
X4736221Y4019685D02*
D03*
X4767717D02*
D03*
X3436614Y3507874D02*
D03*
X3468110D02*
D03*
X5102362Y4141732D02*
D03*
X5070866D02*
D03*
X3491732Y3413386D02*
D03*
X3460236D02*
D03*
X5492126Y3602362D02*
D03*
X5460630D02*
D03*
X5023622Y3960630D02*
D03*
X4992126D02*
D03*
X4940945Y3956693D02*
D03*
X4909449D02*
D03*
X3145276Y3346457D02*
D03*
X3113780D02*
D03*
X5539370Y3850394D02*
D03*
X5570866D02*
D03*
X4181102Y3263780D02*
D03*
X4149606D02*
D03*
X4181102Y3311024D02*
D03*
X4149606D02*
D03*
X4472441Y4696850D02*
D03*
X4503937D02*
D03*
X5750994Y4016459D02*
D03*
X5719498D02*
D03*
X5755905Y4259842D02*
D03*
X5724409D02*
D03*
X5854331Y4086614D02*
D03*
X5822835D02*
D03*
X5736220Y4212598D02*
D03*
X5704724D02*
D03*
X5602362Y4031496D02*
D03*
X5633858D02*
D03*
X5661417Y3370079D02*
D03*
X5629921D02*
D03*
X6181102Y4677165D02*
D03*
X6149606D02*
D03*
X5811024Y4637795D02*
D03*
X5779528D02*
D03*
X5791338Y3503937D02*
D03*
X5759842D02*
D03*
X5492126Y4114173D02*
D03*
X5523622D02*
D03*
X5535433Y4444882D02*
D03*
X5503937D02*
D03*
X4181102Y4149606D02*
D03*
X4149606D02*
D03*
X4181102Y4114174D02*
D03*
X4149606D02*
D03*
D12*
X5892726Y3376695D02*
D03*
X5857293D02*
D03*
X5757874Y3618110D02*
D03*
X5793307D02*
D03*
X5926191Y3380632D02*
D03*
X5961624D02*
D03*
X6185039Y4557087D02*
D03*
X6149606D02*
D03*
X6142726Y3593231D02*
D03*
X6178159D02*
D03*
X5572835Y3377953D02*
D03*
X5537401D02*
D03*
X5529528Y4751968D02*
D03*
X5564961D02*
D03*
X5501968Y4476378D02*
D03*
X5537402D02*
D03*
X3891732Y3736221D02*
D03*
X3927165D02*
D03*
X3470079Y3374016D02*
D03*
X3505512D02*
D03*
X4769685Y3976378D02*
D03*
X4734252D02*
D03*
X3289370Y3094488D02*
D03*
X3253937D02*
D03*
X3462205Y3456693D02*
D03*
X3497638D02*
D03*
X3470472Y3338583D02*
D03*
X3505905D02*
D03*
X3746063Y4822835D02*
D03*
X3710630D02*
D03*
X3746063Y4779528D02*
D03*
X3710630D02*
D03*
X3710630Y4858268D02*
D03*
X3746063D02*
D03*
X3147638Y3311024D02*
D03*
X3112205D02*
D03*
X4801181Y4019685D02*
D03*
X4836614D02*
D03*
X4442913Y3937008D02*
D03*
X4407480D02*
D03*
X4442913Y3901575D02*
D03*
X4407480D02*
D03*
X4442913Y4787402D02*
D03*
X4407480D02*
D03*
X4442913Y4751969D02*
D03*
X4407480D02*
D03*
X3360236Y4968504D02*
D03*
X3395669D02*
D03*
X5722441Y4082677D02*
D03*
X5687008D02*
D03*
X5972441Y4773622D02*
D03*
X6007874D02*
D03*
X6142726Y3514491D02*
D03*
X6178159D02*
D03*
X6149606Y4635827D02*
D03*
X6185039D02*
D03*
X6135827Y4803150D02*
D03*
X6100394D02*
D03*
X6142726Y3553861D02*
D03*
X6178159D02*
D03*
X6149606Y4596457D02*
D03*
X6185039D02*
D03*
X5486220Y4023622D02*
D03*
X5450787D02*
D03*
X5553150D02*
D03*
X5517717D02*
D03*
X3891732Y4586615D02*
D03*
X3927165D02*
D03*
D13*
X5803150Y4584646D02*
D03*
Y4549212D02*
D03*
X5793307Y4677165D02*
D03*
Y4712599D02*
D03*
X6177165Y4765748D02*
D03*
Y4801181D02*
D03*
X5496063Y3454724D02*
D03*
Y3490157D02*
D03*
X5464567Y4655512D02*
D03*
Y4620079D02*
D03*
X5681102Y3490157D02*
D03*
Y3525591D02*
D03*
X6077766Y3916066D02*
D03*
Y3880632D02*
D03*
X6078740Y4289370D02*
D03*
Y4253937D02*
D03*
X3570866Y4990158D02*
D03*
Y5025591D02*
D03*
X3543307Y4931102D02*
D03*
Y4895669D02*
D03*
X3507874Y4931102D02*
D03*
Y4895669D02*
D03*
X5055118Y4336614D02*
D03*
Y4372047D02*
D03*
X4885827Y4029528D02*
D03*
Y4064961D02*
D03*
X3314567Y3482284D02*
D03*
Y3517717D02*
D03*
X3330315Y3545276D02*
D03*
Y3580709D02*
D03*
X3279528Y3517716D02*
D03*
Y3482283D02*
D03*
X5362205Y4364173D02*
D03*
Y4328740D02*
D03*
X5366142Y3801181D02*
D03*
Y3765748D02*
D03*
X4531496Y4791339D02*
D03*
Y4755906D02*
D03*
X4531496Y3938976D02*
D03*
Y3903543D02*
D03*
X4610236Y4781496D02*
D03*
Y4746063D02*
D03*
Y3931103D02*
D03*
Y3895670D02*
D03*
X4629921Y3639764D02*
D03*
Y3604331D02*
D03*
X4555118Y3742126D02*
D03*
Y3777559D02*
D03*
Y3639764D02*
D03*
Y3604331D02*
D03*
X6009842Y3383858D02*
D03*
Y3348425D02*
D03*
X4555118Y3706693D02*
D03*
Y3671260D02*
D03*
Y4553150D02*
D03*
Y4517717D02*
D03*
X6059055Y3383858D02*
D03*
Y3348425D02*
D03*
X5645669Y4112205D02*
D03*
Y4076772D02*
D03*
X4629921Y4588583D02*
D03*
Y4624016D02*
D03*
X4555118Y4588583D02*
D03*
Y4624016D02*
D03*
Y4490157D02*
D03*
Y4454724D02*
D03*
X4629921Y4490157D02*
D03*
Y4454724D02*
D03*
X3618110Y4938976D02*
D03*
Y4974409D02*
D03*
X4535433Y4655512D02*
D03*
Y4690945D02*
D03*
X4531496Y3805119D02*
D03*
Y3840552D02*
D03*
X4555118Y4383858D02*
D03*
Y4419291D02*
D03*
Y3517717D02*
D03*
Y3553150D02*
D03*
Y4312992D02*
D03*
Y4348425D02*
D03*
Y3446851D02*
D03*
Y3482284D02*
D03*
X4610236Y4663386D02*
D03*
Y4698819D02*
D03*
Y3812992D02*
D03*
Y3848426D02*
D03*
X4629921Y4521654D02*
D03*
Y4557087D02*
D03*
Y3671260D02*
D03*
Y3706693D02*
D03*
Y4383858D02*
D03*
Y4419291D02*
D03*
Y3517717D02*
D03*
Y3553150D02*
D03*
Y4312992D02*
D03*
Y4348425D02*
D03*
X4633858Y3446851D02*
D03*
Y3482284D02*
D03*
X4629921Y3742126D02*
D03*
Y3777559D02*
D03*
X3673228Y4938976D02*
D03*
Y4974409D02*
D03*
X5051181Y3750000D02*
D03*
Y3714567D02*
D03*
D14*
X6318898Y4377953D02*
D03*
Y3779528D02*
D03*
D15*
Y4440945D02*
D03*
Y4314961D02*
D03*
Y3716535D02*
D03*
Y3842520D02*
D03*
D16*
X6471457Y4783465D02*
D03*
Y3366142D02*
D03*
Y3838583D02*
D03*
Y4311024D02*
D03*
Y5255905D02*
D03*
Y2893701D02*
D03*
D17*
X6477362Y4674409D02*
D03*
Y4892520D02*
D03*
Y3257087D02*
D03*
Y3475197D02*
D03*
Y3729528D02*
D03*
Y3947638D02*
D03*
Y4201968D02*
D03*
Y4420079D02*
D03*
Y5146850D02*
D03*
Y5364960D02*
D03*
Y2784646D02*
D03*
Y3002756D02*
D03*
D18*
X3456693Y4755905D02*
D03*
X5791339Y4744095D02*
D03*
X3086614Y3153543D02*
D03*
X6161417Y3688976D02*
D03*
X6128937Y3639764D02*
D03*
X5452756Y3551181D02*
D03*
X5500000Y3377953D02*
D03*
X5000000Y3673228D02*
D03*
X5027559Y3885827D02*
D03*
X3149606Y3503937D02*
D03*
X3472441Y3287402D02*
D03*
X5773622Y4517717D02*
D03*
X5815955Y3376695D02*
D03*
X5724409Y3622047D02*
D03*
X4984252Y4248032D02*
D03*
X5001351Y4466535D02*
D03*
X5496063Y4748032D02*
D03*
X5614173Y4437008D02*
D03*
X5748032Y3925197D02*
D03*
Y3972441D02*
D03*
Y4173228D02*
D03*
Y4125984D02*
D03*
X6122047Y4496063D02*
D03*
X6125984Y4437008D02*
D03*
X4838583Y3964567D02*
D03*
X4885827Y3995079D02*
D03*
D19*
X4812008Y4098425D02*
D03*
Y4059055D02*
D03*
X4754921D02*
D03*
Y4078740D02*
D03*
Y4098425D02*
D03*
D20*
X4823398Y4352165D02*
D03*
Y4242323D02*
D03*
X4822047Y3897441D02*
D03*
Y3787598D02*
D03*
D21*
X4919461Y4297244D02*
D03*
X4918110Y3842520D02*
D03*
D22*
X3302756Y4654921D02*
D03*
Y4604921D02*
D03*
X3602756D02*
D03*
Y4654921D02*
D03*
D23*
X6178159Y4034176D02*
D03*
Y3959373D02*
D03*
X6083671D02*
D03*
Y3996774D02*
D03*
Y4034176D02*
D03*
D24*
X5716535Y4355315D02*
D03*
X5690945Y4432087D02*
D03*
X5742126D02*
D03*
D25*
X4883241Y4435039D02*
D03*
Y4490158D02*
D03*
X4984252Y3787402D02*
D03*
Y3842520D02*
D03*
X3054724Y3248032D02*
D03*
Y3303150D02*
D03*
X4944882Y3649606D02*
D03*
Y3704724D02*
D03*
X4946233Y4490157D02*
D03*
Y4435039D02*
D03*
X4881890Y3704724D02*
D03*
Y3649606D02*
D03*
X4985603Y4352362D02*
D03*
Y4297244D02*
D03*
X3437008Y4913386D02*
D03*
Y4968504D02*
D03*
D26*
X3054331Y3425197D02*
D03*
X3133858D02*
D03*
X3409055Y3125984D02*
D03*
X3488583D02*
D03*
D27*
X5483268Y4239173D02*
D03*
Y4213583D02*
D03*
Y4187992D02*
D03*
Y4162401D02*
D03*
X5642717Y4239173D02*
D03*
Y4213583D02*
D03*
Y4187992D02*
D03*
Y4162401D02*
D03*
X5475394Y3975394D02*
D03*
Y3949803D02*
D03*
Y3924213D02*
D03*
Y3898622D02*
D03*
X5634842Y3975394D02*
D03*
Y3949803D02*
D03*
Y3924213D02*
D03*
Y3898622D02*
D03*
D28*
X5508858Y4538386D02*
D03*
X5534449D02*
D03*
X5560039D02*
D03*
X5585630D02*
D03*
X5508858Y4697835D02*
D03*
X5534449D02*
D03*
X5560039D02*
D03*
X5585630D02*
D03*
X5628937Y3595472D02*
D03*
X5603346D02*
D03*
X5577756D02*
D03*
X5552165D02*
D03*
X5628937Y3436024D02*
D03*
X5603346D02*
D03*
X5577756D02*
D03*
X5552165D02*
D03*
D29*
X3188976Y3094488D02*
D03*
X3125984D02*
D03*
D30*
X3334252Y3370079D02*
D03*
D31*
X3285039Y3444882D02*
D03*
X3304724D02*
D03*
X3324409D02*
D03*
X3344095D02*
D03*
X3363780D02*
D03*
X3383465D02*
D03*
Y3295276D02*
D03*
X3363780D02*
D03*
X3344095D02*
D03*
X3324409D02*
D03*
X3304724D02*
D03*
X3285039D02*
D03*
D32*
X3409055Y3419291D02*
D03*
Y3399606D02*
D03*
Y3379921D02*
D03*
Y3360236D02*
D03*
Y3340551D02*
D03*
Y3320866D02*
D03*
X3259449D02*
D03*
Y3340551D02*
D03*
Y3360236D02*
D03*
Y3379921D02*
D03*
Y3399606D02*
D03*
Y3419291D02*
D03*
D33*
X3661417Y4864173D02*
D03*
Y4844488D02*
D03*
Y4824803D02*
D03*
Y4805118D02*
D03*
X3543307D02*
D03*
Y4824803D02*
D03*
Y4844488D02*
D03*
Y4864173D02*
D03*
D34*
X3602362Y4834646D02*
D03*
D35*
X5854331Y3580709D02*
D03*
Y3555118D02*
D03*
Y3529528D02*
D03*
Y3503937D02*
D03*
Y3478346D02*
D03*
Y3452756D02*
D03*
Y3427165D02*
D03*
X6074803Y3580709D02*
D03*
Y3555118D02*
D03*
Y3529528D02*
D03*
Y3503937D02*
D03*
Y3478346D02*
D03*
Y3452756D02*
D03*
Y3427165D02*
D03*
X5870079Y4714567D02*
D03*
Y4688976D02*
D03*
Y4663386D02*
D03*
Y4637795D02*
D03*
Y4612205D02*
D03*
Y4586614D02*
D03*
Y4561024D02*
D03*
X6090551Y4714567D02*
D03*
Y4688976D02*
D03*
Y4663386D02*
D03*
Y4637795D02*
D03*
Y4612205D02*
D03*
Y4586614D02*
D03*
Y4561024D02*
D03*
D36*
X5290354Y3745079D02*
D03*
Y3770669D02*
D03*
Y3796260D02*
D03*
Y3821851D02*
D03*
X5130905Y3745079D02*
D03*
Y3770669D02*
D03*
Y3796260D02*
D03*
Y3821851D02*
D03*
X5292323Y4312008D02*
D03*
Y4337599D02*
D03*
Y4363189D02*
D03*
Y4388780D02*
D03*
X5132874Y4312008D02*
D03*
Y4337599D02*
D03*
Y4363189D02*
D03*
Y4388780D02*
D03*
X5095472Y4012795D02*
D03*
Y4038386D02*
D03*
Y4063976D02*
D03*
Y4089567D02*
D03*
X4936024Y4012795D02*
D03*
Y4038386D02*
D03*
Y4063976D02*
D03*
Y4089567D02*
D03*
D37*
X3499016Y3212599D02*
D03*
X3406496D02*
D03*
D38*
X3204331Y3418307D02*
D03*
Y3510827D02*
D03*
D39*
X3204331Y3566929D02*
D03*
Y3677165D02*
D03*
X3590158Y3212598D02*
D03*
Y3102362D02*
D03*
D40*
X6058855Y4351184D02*
D03*
Y4400528D02*
D03*
Y4449872D02*
D03*
Y4499216D02*
D03*
X6066729Y3638586D02*
D03*
Y3687930D02*
D03*
Y3737273D02*
D03*
Y3786617D02*
D03*
D41*
X5843698Y4499216D02*
D03*
Y4351184D02*
D03*
Y4400528D02*
D03*
Y4449872D02*
D03*
X5851572Y3786617D02*
D03*
Y3638586D02*
D03*
Y3687930D02*
D03*
Y3737273D02*
D03*
D42*
X6173547Y4248468D02*
D03*
Y4357838D02*
D03*
X6133547Y4357838D02*
D03*
Y4248468D02*
D03*
X6172572Y3897913D02*
D03*
Y3788543D02*
D03*
X6132572Y3788543D02*
D03*
Y3897913D02*
D03*
D43*
X6009842Y4137598D02*
D03*
Y4187598D02*
D03*
Y4237598D02*
D03*
Y4287598D02*
D03*
X5824803Y4137598D02*
D03*
Y4187598D02*
D03*
Y4237598D02*
D03*
Y4287598D02*
D03*
X6008868Y3850908D02*
D03*
Y3900908D02*
D03*
Y3950908D02*
D03*
Y4000908D02*
D03*
X5823829Y3850908D02*
D03*
Y3900908D02*
D03*
Y3950908D02*
D03*
Y4000908D02*
D03*
D44*
X6346457Y4255905D02*
D03*
X6291339D02*
D03*
X6346457Y3897638D02*
D03*
X6291338D02*
D03*
X4169291Y3996063D02*
D03*
X4224409D02*
D03*
X4169291Y4850394D02*
D03*
X4224409D02*
D03*
D45*
X5739173Y3716535D02*
D03*
X5662402Y3690945D02*
D03*
Y3742126D02*
D03*
D46*
X4352362Y4262796D02*
D03*
X4332677D02*
D03*
X4312992D02*
D03*
X4293307D02*
D03*
X4273622D02*
D03*
X4253937D02*
D03*
X4234252D02*
D03*
X4214567D02*
D03*
X4194882D02*
D03*
X4175197D02*
D03*
X4155512D02*
D03*
X4135827D02*
D03*
X4116142D02*
D03*
X4096457D02*
D03*
X4076772D02*
D03*
X4057086D02*
D03*
Y4697835D02*
D03*
X4076772D02*
D03*
X4096457D02*
D03*
X4116142D02*
D03*
X4135827D02*
D03*
X4155512D02*
D03*
X4175197D02*
D03*
X4194882D02*
D03*
X4214567D02*
D03*
X4234252D02*
D03*
X4253937D02*
D03*
X4273622D02*
D03*
X4293307D02*
D03*
X4312992D02*
D03*
X4332677D02*
D03*
X4352362D02*
D03*
Y3412402D02*
D03*
X4332677D02*
D03*
X4312992D02*
D03*
X4293307D02*
D03*
X4273622D02*
D03*
X4253937D02*
D03*
X4234252D02*
D03*
X4214567D02*
D03*
X4194882D02*
D03*
X4175197D02*
D03*
X4155512D02*
D03*
X4135827D02*
D03*
X4116142D02*
D03*
X4096457D02*
D03*
X4076772D02*
D03*
X4057086D02*
D03*
Y3847441D02*
D03*
X4076772D02*
D03*
X4096457D02*
D03*
X4116142D02*
D03*
X4135827D02*
D03*
X4155512D02*
D03*
X4175197D02*
D03*
X4194882D02*
D03*
X4214567D02*
D03*
X4234252D02*
D03*
X4253937D02*
D03*
X4273622D02*
D03*
X4293307D02*
D03*
X4312992D02*
D03*
X4332677D02*
D03*
X4352362D02*
D03*
D47*
X3987205Y4332678D02*
D03*
Y4352363D02*
D03*
Y4372048D02*
D03*
Y4391733D02*
D03*
Y4411418D02*
D03*
Y4431103D02*
D03*
Y4450788D02*
D03*
Y4470473D02*
D03*
Y4490158D02*
D03*
Y4509843D02*
D03*
Y4529528D02*
D03*
Y4549213D02*
D03*
Y4568898D02*
D03*
Y4588583D02*
D03*
Y4608268D02*
D03*
Y4627953D02*
D03*
X4422244D02*
D03*
Y4608268D02*
D03*
Y4588583D02*
D03*
Y4568898D02*
D03*
Y4549213D02*
D03*
Y4529528D02*
D03*
Y4509843D02*
D03*
Y4490158D02*
D03*
Y4470473D02*
D03*
Y4450788D02*
D03*
Y4431103D02*
D03*
Y4411418D02*
D03*
Y4391733D02*
D03*
Y4372048D02*
D03*
Y4352363D02*
D03*
Y4332678D02*
D03*
X3987205Y3482284D02*
D03*
Y3501969D02*
D03*
Y3521654D02*
D03*
Y3541339D02*
D03*
Y3561024D02*
D03*
Y3580709D02*
D03*
Y3600394D02*
D03*
Y3620079D02*
D03*
Y3639764D02*
D03*
Y3659449D02*
D03*
Y3679134D02*
D03*
Y3698819D02*
D03*
Y3718504D02*
D03*
Y3738189D02*
D03*
Y3757874D02*
D03*
Y3777559D02*
D03*
X4422244D02*
D03*
Y3757874D02*
D03*
Y3738189D02*
D03*
Y3718504D02*
D03*
Y3698819D02*
D03*
Y3679134D02*
D03*
Y3659449D02*
D03*
Y3639764D02*
D03*
Y3620079D02*
D03*
Y3600394D02*
D03*
Y3580709D02*
D03*
Y3561024D02*
D03*
Y3541339D02*
D03*
Y3521654D02*
D03*
Y3501969D02*
D03*
Y3482284D02*
D03*
D48*
X6167323Y4098425D02*
D03*
X6092520D02*
D03*
Y4192913D02*
D03*
X6129921D02*
D03*
X6167323D02*
D03*
D49*
X4098425Y4767717D02*
D03*
Y4830709D02*
D03*
Y3917323D02*
D03*
Y3980315D02*
D03*
D50*
X4480315Y3674803D02*
D03*
Y3726772D02*
D03*
Y3757480D02*
D03*
Y3809449D02*
D03*
Y4611811D02*
D03*
Y4663780D02*
D03*
Y4529134D02*
D03*
Y4581102D02*
D03*
D51*
X3273622Y5086611D02*
D03*
X3435039D02*
D03*
X3273622Y5023619D02*
D03*
X3435039D02*
D03*
D52*
X3389567Y4851181D02*
D03*
X3279724D02*
D03*
D53*
X3334646Y4755118D02*
D03*
D54*
X3507874Y4992618D02*
D03*
Y5007382D02*
D03*
D55*
Y4992126D02*
D03*
Y5007874D02*
D03*
D56*
Y4993110D02*
D03*
Y5006890D02*
D03*
D57*
Y4991634D02*
D03*
Y5008366D02*
D03*
D58*
Y4991142D02*
D03*
Y5008858D02*
D03*
D59*
Y4987205D02*
D03*
Y5012795D02*
D03*
D60*
Y4990650D02*
D03*
Y5009350D02*
D03*
D61*
Y4990158D02*
D03*
Y5009842D02*
D03*
D62*
Y4989665D02*
D03*
Y5010335D02*
D03*
D63*
Y4989173D02*
D03*
Y5010827D02*
D03*
D64*
Y4988681D02*
D03*
Y5011319D02*
D03*
D65*
Y4988189D02*
D03*
Y5011811D02*
D03*
D66*
Y4987894D02*
D03*
Y5012106D02*
D03*
D67*
Y4987697D02*
D03*
Y5012303D02*
D03*
D68*
Y4987402D02*
D03*
Y5012598D02*
D03*
D69*
Y4986811D02*
D03*
Y5013189D02*
D03*
D70*
Y4987008D02*
D03*
Y5012992D02*
D03*
D71*
Y4986713D02*
D03*
Y5013287D02*
D03*
D72*
X3618110Y5086614D02*
D03*
Y5023622D02*
D03*
X3673228D02*
D03*
Y5086614D02*
D03*
D73*
X4681102Y3360236D02*
D03*
Y4789370D02*
D03*
X6232283D02*
D03*
Y3360236D02*
D03*
D74*
X4742126Y3299213D02*
D03*
Y4850394D02*
D03*
X6171260D02*
D03*
Y3299213D02*
D03*
D75*
X4681102Y3602362D02*
D03*
Y3838583D02*
D03*
Y4074803D02*
D03*
Y4311024D02*
D03*
Y4547244D02*
D03*
X6232283Y3602362D02*
D03*
Y3838583D02*
D03*
Y4074803D02*
D03*
Y4311024D02*
D03*
Y4547244D02*
D03*
D76*
X5929134Y4850394D02*
D03*
X5692913D02*
D03*
X5456693D02*
D03*
X5220472D02*
D03*
X4984252D02*
D03*
X4984252Y3299213D02*
D03*
X5220472D02*
D03*
X5456693D02*
D03*
X5692913D02*
D03*
X5929134D02*
D03*
D77*
X6547245Y4673228D02*
Y4743110D01*
X6477362Y4674409D02*
Y4743110D01*
X6425197Y3497638D02*
X6480315D01*
X6425197Y3472820D02*
Y3497638D01*
X6550198Y3256890D02*
Y3325787D01*
X4181102Y4326772D02*
X4192913Y4314961D01*
X4287401Y4791339D02*
Y4842520D01*
X4232283Y3312993D02*
X4238189D01*
X4183071Y3958662D02*
X4192913D01*
X5823011Y4350197D02*
X5845472D01*
X4066929Y4165354D02*
X4068433D01*
X4065425D02*
X4066929D01*
X4114173Y4185039D02*
X4135827Y4206693D01*
X4334646Y4759843D02*
X4342520Y4751968D01*
X4334646Y4750086D02*
Y4757874D01*
Y3899693D02*
Y3907481D01*
X3937008Y4275591D02*
X3940945Y4271654D01*
X4066929Y4196850D02*
X4076772Y4206693D01*
X4240157Y4791339D02*
Y4822118D01*
X4244095Y4185039D02*
X4259843D01*
X4228346D02*
X4244095D01*
X4240157Y3940945D02*
Y3963216D01*
X4559055Y3812992D02*
X4610236D01*
X4523622Y3771654D02*
X4555118Y3740157D01*
X4279528Y3346457D02*
Y3352741D01*
X4114173Y4122047D02*
Y4153543D01*
X4543306Y3903543D02*
X4570866Y3931103D01*
X3937008Y4307087D02*
Y4322835D01*
X4559055Y3671260D02*
X4594488D01*
X4555118Y3675197D02*
X4559055Y3671260D01*
X4468504Y4750001D02*
X4492126Y4773623D01*
X5704724Y4163386D02*
X5706693D01*
X6073829Y3555829D02*
Y3581420D01*
Y3555829D02*
X6075797Y3553861D01*
X5803150Y4584646D02*
X5935039D01*
X5853356Y3453467D02*
X5878245D01*
X5803150Y4687008D02*
X5929134D01*
X5853356Y3555829D02*
X6004931D01*
X5634842Y3924213D02*
X5691929D01*
X5591535D02*
X5634842D01*
X5534449Y4475394D02*
Y4538386D01*
X4098425Y3921260D02*
X4107085Y3912600D01*
X3283071Y3592520D02*
X3292913D01*
X3529134Y3374016D02*
X3542914Y3387795D01*
X4098425Y4771654D02*
X4107085Y4762994D01*
X4610236Y4748032D02*
X4637795Y4720472D01*
X4826772Y3850394D02*
X4847244Y3870866D01*
X6074018Y3530428D02*
X6126789D01*
X6073829Y3530239D02*
X6074018Y3530428D01*
X3144291Y3510827D02*
X3204331D01*
X3253811D02*
X3300071Y3464567D01*
X6378937Y5296260D02*
X6551182D01*
Y5145669D02*
Y5215551D01*
X6028811Y4675197D02*
X6049213D01*
X4907480Y3923228D02*
Y3958661D01*
X6006900Y3853073D02*
X6111230D01*
X4942913Y3919291D02*
Y3982284D01*
X4147638Y3263780D02*
Y3317717D01*
X5517717Y3998032D02*
Y4023622D01*
X5266722Y3923908D02*
X5268690Y3921939D01*
X5266722Y3923908D02*
Y3954344D01*
X5355685Y4043307D01*
X5543307D01*
X5167026Y3929134D02*
X5220472D01*
X5224417Y3925189D01*
X5244084D01*
X5271654Y4212598D02*
X5307087D01*
X5251968Y4192913D02*
X5271654Y4212598D01*
X5111908Y4192913D02*
X5251968D01*
X5331693Y4187992D02*
X5483268D01*
X5307087Y4212598D02*
X5331693Y4187992D01*
X6158465Y4456693D02*
Y4498032D01*
X6133858Y4522638D02*
X6158465Y4498032D01*
X5562992Y3667323D02*
X5576772D01*
X5651575Y3742126D01*
X5977056Y3987697D02*
X5979537Y3990178D01*
X5976916Y3987697D02*
X5977056D01*
X5952766Y3963546D02*
X5976916Y3987697D01*
X6018864Y3900754D02*
X6033301D01*
X6050667Y3883388D01*
X6077766D01*
X6008868Y3950908D02*
X6030391D01*
X6065234Y3916066D01*
X6077766D01*
X5494095Y4620079D02*
X5508858Y4605315D01*
Y4538386D02*
Y4605315D01*
X5508858Y4538386D02*
X5508858Y4538386D01*
X5897638Y4522638D02*
X6133858D01*
X5874216Y4499216D02*
X5897638Y4522638D01*
X5845472Y4499216D02*
X5874216D01*
X6141732Y4456693D02*
X6142717Y4457677D01*
X6371063Y4219488D02*
X6388583Y4201968D01*
X6256890Y4219488D02*
X6371063D01*
X6232283Y4244095D02*
X6256890Y4219488D01*
X5959646Y4701393D02*
Y4747047D01*
X5951772Y4754921D02*
X5959646Y4747047D01*
X5951772Y4754921D02*
Y4791339D01*
X5956693Y4796260D02*
X6010913D01*
X5951772Y4791339D02*
X5956693Y4796260D01*
X6010913D02*
X6035354Y4820701D01*
X5959646Y4701393D02*
X6012417Y4648622D01*
X6021654Y4750984D02*
X6028543Y4757874D01*
X5994095Y4750984D02*
X6021654D01*
X5985236Y4742126D02*
X5994095Y4750984D01*
X5985236Y4718772D02*
Y4742126D01*
Y4718772D02*
X6028811Y4675197D01*
X6028543Y4757874D02*
Y4774693D01*
X6063071Y4809220D01*
X6251968Y4641732D02*
X6255905Y4645669D01*
X6185039Y4596457D02*
X6203740Y4615157D01*
Y4625717D02*
X6209520Y4631496D01*
X6203740Y4615157D02*
Y4625717D01*
X6209520Y4631496D02*
X6210290D01*
X6220526Y4641732D02*
X6251968D01*
X6210290Y4631496D02*
X6220526Y4641732D01*
X6547245Y4673228D02*
X6551182Y4669291D01*
X6477362Y4743110D02*
X6547245D01*
X6476378Y4823819D02*
Y4838583D01*
Y4891535D01*
Y4823819D02*
X6551181D01*
Y4862205D01*
X6520866Y4892520D02*
X6551181Y4862205D01*
X6204724Y2893701D02*
X6471457D01*
X6059055Y3039370D02*
Y3348425D01*
Y3039370D02*
X6204724Y2893701D01*
X6551182Y5296260D02*
Y5334646D01*
X6352441Y5269764D02*
X6378937Y5296260D01*
X6551182Y2811024D02*
Y2853347D01*
X6472441D02*
X6551182D01*
X6472441Y2838583D02*
Y2853347D01*
X6551182Y2934055D02*
Y2996063D01*
X6476378Y2934055D02*
X6551182D01*
X6476378D02*
Y2948819D01*
X6472441Y2789567D02*
Y2838583D01*
Y2789567D02*
X6477362Y2784646D01*
X6476378Y2948819D02*
Y3001772D01*
X6550197Y3406496D02*
Y3455709D01*
X3342520Y4826772D02*
X3366929Y4851181D01*
X3342520Y4818898D02*
Y4826772D01*
X3284439Y4854321D02*
X3322828D01*
X3280512Y4850394D02*
X3284439Y4854321D01*
X3279724Y4851181D02*
X3280512Y4850394D01*
X3393701Y4913386D02*
X3437008D01*
X3385827Y4905512D02*
X3393701Y4913386D01*
X3366929Y4851181D02*
X3389567D01*
X3433071Y4909449D02*
X3437008Y4913386D01*
X3433071Y4779528D02*
Y4909449D01*
Y4779528D02*
X3456693Y4755905D01*
X3503937Y4720472D02*
Y4830709D01*
X3490157Y4847173D02*
X3507157Y4864173D01*
X3490157Y4675197D02*
Y4847173D01*
X3488189Y4673228D02*
X3490157Y4675197D01*
X3468504Y4649606D02*
Y4729627D01*
X3477362Y4738486D01*
Y4764467D01*
X3468504Y4773325D02*
X3477362Y4764467D01*
X3468504Y4773325D02*
Y4917323D01*
X3334646Y4755118D02*
X3335433Y4755905D01*
X3456693D01*
X3503937Y4720472D02*
X3539370Y4685039D01*
X3503937Y4830709D02*
X3517716Y4844488D01*
X3602756Y4604921D02*
X3632480D01*
X3649606Y4622047D01*
Y4677165D01*
X3641732Y4685039D02*
X3649606Y4677165D01*
X3539370Y4685039D02*
X3641732D01*
X3517716Y4844488D02*
X3543307D01*
X3506496Y4654921D02*
X3602756D01*
X3488189Y4673228D02*
X3506496Y4654921D01*
X3482283Y4931102D02*
X3507874D01*
X3468504Y4917323D02*
X3482283Y4931102D01*
X3468504Y4649606D02*
X3513189Y4604921D01*
X3602756D01*
X3395669Y4984255D02*
X3435036Y5023622D01*
X3395669Y4968504D02*
Y4984255D01*
X3435036Y5023622D02*
X3435039Y5023619D01*
X3377953Y5023622D02*
X3435036D01*
X4267717Y4456693D02*
X4281793D01*
X4354628Y4529528D01*
X4422244D01*
X4381890Y4413386D02*
Y4421260D01*
Y4381890D02*
Y4413386D01*
X4383858Y4411418D01*
X4422244D01*
X4267717Y4440945D02*
Y4456693D01*
Y4440945D02*
X4279528Y4429134D01*
X4326772D01*
X4334646Y4437008D01*
X4366142D01*
X4381890Y4421260D01*
Y4381890D02*
X4391732Y4372048D01*
X4422244D01*
X4503937Y4346457D02*
X4515748D01*
X4458661Y4391733D02*
X4503937Y4346457D01*
X4422244Y4391733D02*
X4458661D01*
X4492126Y4385827D02*
X4515748D01*
X4484252Y4393701D02*
X4492126Y4385827D01*
X4484252Y4393701D02*
Y4421260D01*
X4474409Y4431103D02*
X4484252Y4421260D01*
X4422244Y4431103D02*
X4474409D01*
X4389467Y4627953D02*
X4422244D01*
X4378640Y4617126D02*
X4389467Y4627953D01*
X4376968Y4617126D02*
X4378640D01*
X4366142Y4606299D02*
X4376968Y4617126D01*
X4366142Y4594488D02*
Y4606299D01*
Y4594488D02*
X4372047Y4588583D01*
X4422244D01*
Y4568898D02*
X4449804D01*
X4463583Y4582677D01*
Y4617126D01*
X4364174Y4509843D02*
X4422244D01*
X4354331Y4500000D02*
X4364174Y4509843D01*
X4354331Y4480315D02*
Y4500000D01*
Y4480315D02*
X4364173Y4470473D01*
X4422244D01*
X4457229Y4450788D02*
X4474945Y4468504D01*
X4422244Y4450788D02*
X4457229D01*
X4507874Y4488189D02*
X4511811D01*
X4422244Y4490158D02*
X4454724D01*
X4462598Y4482283D01*
Y4480851D02*
Y4482283D01*
Y4480851D02*
X4474945Y4468504D01*
X4488189D01*
X4507874Y4488189D01*
X4518181Y4531496D02*
X4519685D01*
X4502236Y4547441D02*
X4518181Y4531496D01*
X4468772Y4547441D02*
X4502236D01*
X4463583Y4542252D02*
X4468772Y4547441D01*
X4463583Y4519685D02*
Y4542252D01*
X4469685Y4560236D02*
X4480315Y4570866D01*
X4463472Y4560236D02*
X4469685D01*
X4452449Y4549213D02*
X4463472Y4560236D01*
X4422244Y4549213D02*
X4452449D01*
X4453741Y4509843D02*
X4463583Y4519685D01*
X4422244Y4509843D02*
X4453741D01*
X4480315Y4570866D02*
Y4581102D01*
X4353346Y3602362D02*
Y3656496D01*
Y3579724D02*
Y3602362D01*
X4354331D01*
X4379921Y3521654D02*
X4422244D01*
X4374016Y3527559D02*
X4379921Y3521654D01*
X4374016Y3527559D02*
Y3559055D01*
X4372047Y3561024D02*
X4374016Y3559055D01*
X4372047Y3561024D02*
X4422244D01*
X4353346Y3579724D02*
X4372047Y3561024D01*
X4353346Y3656496D02*
X4375985Y3679134D01*
X4422244D01*
X4379921Y3738189D02*
X4422244D01*
X4370079Y3748032D02*
X4379921Y3738189D01*
X4370079Y3748032D02*
Y3767716D01*
X4379922Y3777559D01*
X4422244D01*
X4450859Y3757874D02*
X4463583Y3770598D01*
X4468772Y3775787D01*
X4463583Y3744362D02*
Y3770598D01*
Y3744362D02*
X4464209Y3743736D01*
Y3741142D02*
Y3743736D01*
X4463583Y3740516D02*
X4464209Y3741142D01*
X4463583Y3731299D02*
Y3740516D01*
X4450788Y3718504D02*
X4463583Y3731299D01*
X4422244Y3718504D02*
X4450788D01*
X4375985Y3659449D02*
X4422244D01*
X4366142Y3649606D02*
X4375985Y3659449D01*
X4366142Y3629921D02*
Y3649606D01*
Y3629921D02*
X4375984Y3620079D01*
X4422244D01*
X4475787Y3625394D02*
X4503346D01*
X4472441Y3622047D02*
X4475787Y3625394D01*
X4503346D02*
X4515748Y3637795D01*
X4458661Y3639764D02*
X4472441Y3625984D01*
X4422244Y3600394D02*
X4450788D01*
X4472441Y3622047D01*
Y3625984D01*
X4525591Y3677165D02*
X4555118Y3706693D01*
X4519685Y3677165D02*
X4525591D01*
X4518181D02*
X4519685D01*
X4502236Y3693110D02*
X4518181Y3677165D01*
X4468701Y3693110D02*
X4502236D01*
X4463583Y3687992D02*
X4468701Y3693110D01*
X4463583Y3669291D02*
Y3687992D01*
X4454725Y3698819D02*
X4480315Y3724410D01*
X4422244Y3698819D02*
X4454725D01*
X4453741Y3659449D02*
X4463583Y3669291D01*
X4422244Y3659449D02*
X4453741D01*
X4422244Y3639764D02*
X4458661D01*
X4480315Y3724410D02*
Y3726772D01*
X4422244Y3580709D02*
X4466535D01*
X4476378Y3570866D01*
Y3557551D02*
Y3570866D01*
Y3557551D02*
X4514244Y3519685D01*
X4515748D01*
X4492126Y3480315D02*
X4515748D01*
X4484252Y3488189D02*
X4492126Y3480315D01*
X4484252Y3488189D02*
Y3515748D01*
X4458661Y3541339D02*
X4484252Y3515748D01*
X4422244Y3541339D02*
X4458661D01*
X6090551Y4714567D02*
Y4755905D01*
Y4688976D02*
Y4714567D01*
Y4687008D02*
Y4688976D01*
Y4561024D02*
Y4584646D01*
Y4559055D02*
Y4561024D01*
X5830704Y3642247D02*
X5844498D01*
X5815477Y3657473D02*
X5830704Y3642247D01*
X5803138Y3657473D02*
X5815477D01*
X5239173Y4524606D02*
X5294291Y4469488D01*
X5095769Y4510827D02*
X5109549Y4524606D01*
X5034070Y4510827D02*
X5095769D01*
X5109549Y4524606D02*
X5239173D01*
X5196850Y3818898D02*
Y3838583D01*
X5174213Y3796260D02*
X5196850Y3818898D01*
X4078740Y4086614D02*
X4114173Y4122047D01*
X4059055Y4086614D02*
X4078740D01*
X4206693Y3719937D02*
X4224409Y3737654D01*
Y3763780D01*
X4209646Y3540354D02*
X4236221Y3566929D01*
X4194882Y3553149D02*
X4212598Y3570866D01*
X4098961Y3553149D02*
X4194882D01*
X3988189Y3540354D02*
X4209646D01*
X3987205Y3541339D02*
X3988189Y3540354D01*
X4091086Y3561024D02*
X4098961Y3553149D01*
X3987205Y3561024D02*
X4091086D01*
X4106299Y3570866D02*
Y3598425D01*
X4757865Y4470463D02*
Y4596466D01*
X4751968Y4602362D02*
X4757865Y4596466D01*
X4663386Y3498032D02*
X4683153D01*
X4636810Y3485236D02*
X4677853D01*
X4683153Y3498032D02*
X4704806Y3476378D01*
X5007874D01*
X4689961Y3461317D02*
X4690648Y3460630D01*
X4689961Y3461317D02*
Y3473128D01*
X4677853Y3485236D02*
X4689961Y3473128D01*
X4633858Y3482284D02*
X4636810Y3485236D01*
X4653543Y3507874D02*
X4663386Y3498032D01*
X4342520Y4751968D02*
X4366142D01*
X3173155Y3212598D02*
Y3216463D01*
X3224788Y3268095D02*
Y3320866D01*
X3244473Y3340551D01*
X3224788Y3320866D02*
X3259449D01*
X3244473Y3340551D02*
X3259449D01*
X3344095Y3264664D02*
Y3295276D01*
Y3264664D02*
X3345866Y3262892D01*
Y3245769D02*
Y3262892D01*
X3333758Y3233662D02*
X3345866Y3245769D01*
X3324409Y3379921D02*
X3334252Y3370079D01*
X3304724Y3399606D02*
X3324409Y3379921D01*
X3212598Y3326772D02*
X3246063Y3360236D01*
X3181102Y3326772D02*
X3212598D01*
X3253543Y3399606D02*
X3259449D01*
X3304724D01*
X3334252Y3370079D02*
X3383465Y3419291D01*
Y3444882D01*
X3246063Y3360236D02*
X3259449D01*
X4625984Y3047244D02*
X4645669Y3027559D01*
X4625984Y3047244D02*
Y3110236D01*
X5748032Y4173228D02*
X5755612D01*
X5708661Y4161417D02*
X5725787Y4144291D01*
X5706693Y4163386D02*
X5708661Y4161417D01*
X5736221D01*
X5704724D02*
X5708661D01*
X5736221D02*
X5748032Y4173228D01*
X5751968Y4165354D02*
X5752559D01*
X5075000Y3043504D02*
Y3075000D01*
X5059055Y3027559D02*
X5075000Y3043504D01*
X4645669Y3027559D02*
X5059055D01*
X4003937Y4062992D02*
Y4082677D01*
X4043307Y4122047D01*
X4078740D01*
X4090551Y4133858D01*
Y4162921D01*
X4112669Y4185039D01*
X4114173D01*
X4155512Y4193378D02*
Y4262796D01*
X4115677Y4153543D02*
X4155512Y4193378D01*
X4114173Y4153543D02*
X4115677D01*
X4076772Y4206693D02*
Y4262796D01*
X4135827Y4206693D02*
Y4262796D01*
X4480315Y4611811D02*
X4494488Y4625984D01*
X4515748D01*
X4517717D01*
X4555118Y4588583D01*
X4533465Y4531496D02*
X4555118Y4553150D01*
X4519685Y4531496D02*
X4533465D01*
X4426181Y4631890D02*
Y4673916D01*
X4422244Y4627953D02*
X4426181Y4631890D01*
X4422244Y4677853D02*
Y4693898D01*
Y4677853D02*
X4426181Y4673916D01*
X4076772Y4631890D02*
X4078740Y4629921D01*
X4076772Y4631890D02*
Y4697835D01*
X4763779Y4757577D02*
X4815257Y4809055D01*
X4306496Y4745938D02*
Y4776181D01*
X4293307Y4732748D02*
X4306496Y4745938D01*
X4501968Y4655512D02*
X4535433D01*
X4476575Y4630118D02*
X4501968Y4655512D01*
X4503937Y4687008D02*
X4535433Y4655512D01*
X4455709Y4299213D02*
X4464567D01*
X4422244Y4332678D02*
X4455709Y4299213D01*
X4247047Y4840481D02*
X4257426Y4850859D01*
X4247047Y4829008D02*
Y4840481D01*
X4240157Y4822118D02*
X4247047Y4829008D01*
X4287402Y4842520D02*
X4295276D01*
X4709646Y4457677D02*
X4745069Y4493101D01*
Y4554143D01*
X4728346Y4570866D02*
X4745069Y4554143D01*
X4287401Y4842520D02*
X4287402Y4842520D01*
X4257426Y4850859D02*
X4279062D01*
X4045276Y3600394D02*
X4051181Y3606299D01*
X4045275Y3659449D02*
X4106299Y3598425D01*
X3987205Y3659449D02*
X4045275D01*
X4049212Y3679134D02*
X4125984Y3602362D01*
X4054582Y3698819D02*
X4143701Y3609700D01*
X4017716Y3757874D02*
X4165346Y3610244D01*
X4042771Y3639764D02*
X4082677Y3599858D01*
X3987205Y3639764D02*
X4042771D01*
X3987205Y3679134D02*
X4049212D01*
X3987205Y3698819D02*
X4054582D01*
X4143701Y3580709D02*
Y3609700D01*
X3987205Y3757874D02*
X4017716D01*
X4165346Y3602355D02*
Y3610244D01*
X3870079Y3799213D02*
X3897638Y3826772D01*
X4023622Y3417323D02*
X4028543Y3412402D01*
X4000000Y3417323D02*
X4023622D01*
X4028543Y3412402D02*
X4057086D01*
X3992126Y3425197D02*
X4000000Y3417323D01*
X4468772Y4630118D02*
X4476575D01*
X4463583Y4624929D02*
X4468772Y4630118D01*
X4463583Y4617126D02*
Y4624929D01*
X4454725Y4608268D02*
X4463583Y4617126D01*
X4724400Y4748022D02*
Y4795266D01*
X4750984Y4821850D01*
X5763174D01*
X4815257Y4809055D02*
X5464946D01*
X3933071Y3425197D02*
X3992126D01*
X5079037Y4192913D02*
X5086911Y4185039D01*
X5027559Y4192913D02*
X5079037D01*
X4984252Y4236220D02*
X5027559Y4192913D01*
X5362205Y3940945D02*
X5371774Y3950514D01*
X5326761Y3937000D02*
X5346438Y3917323D01*
X5287391Y3937000D02*
X5299221D01*
X5268690Y3873320D02*
Y3921939D01*
X5130609Y3937992D02*
X5144388Y3924213D01*
X5095391Y3937992D02*
X5122950Y3965551D01*
X5203740D01*
X5208661Y3960630D01*
X5144388Y3924213D02*
X5162105D01*
X5167026Y3929134D01*
X4957677Y4089567D02*
X4992126Y4055118D01*
X4867913Y4242323D02*
X5015748Y4094488D01*
X4966535Y3561024D02*
X4986220Y3541339D01*
X4973425Y3573819D02*
X5003937Y3543307D01*
X4804361Y3561024D02*
X4966535D01*
X4986220Y3535969D02*
Y3541339D01*
X4809661Y3573819D02*
X4973425D01*
X4969488Y4038386D02*
X4988189Y4019685D01*
X4936024Y4038386D02*
X4969488D01*
X4831693Y4638483D02*
X4928150D01*
X4957677Y4605315D02*
Y4626672D01*
X4928150Y4638483D02*
X4928446Y4638779D01*
Y4597441D02*
X4947456D01*
X4915651Y4610236D02*
X4928446Y4597441D01*
X4850394Y4610236D02*
X4915651D01*
X4945569Y4638779D02*
X4957677Y4626672D01*
X4928446Y4638779D02*
X4945569D01*
X5244095Y3848725D02*
X5268690Y3873320D01*
X5244095Y3763780D02*
Y3848725D01*
X5139682Y3340551D02*
X5494095D01*
X5143013Y3355315D02*
X5500000D01*
X5077756Y3420572D02*
X5143013Y3355315D01*
X5077756Y3420572D02*
Y3444433D01*
X4986220Y3535969D02*
X5077756Y3444433D01*
X5064961Y3415273D02*
X5139682Y3340551D01*
X5064961Y3415273D02*
Y3419291D01*
X5007874Y3476378D02*
X5064961Y3419291D01*
X4814961Y3586614D02*
X5196850D01*
X4757874Y3607510D02*
X4804361Y3561024D01*
X4770669Y3612810D02*
X4809661Y3573819D01*
X5196850Y3586614D02*
X5292323Y3682087D01*
X4783465Y3618110D02*
X4814961Y3586614D01*
X4690648Y3460630D02*
X4972441D01*
X4745079Y3573819D02*
X4818898Y3500000D01*
X4838583D01*
X4745079Y3573819D02*
Y3603050D01*
X4732283Y3615845D02*
X4745079Y3603050D01*
X4732283Y3615845D02*
Y3669291D01*
X4770669Y3631745D02*
Y3804134D01*
X4757874Y3626445D02*
Y3694882D01*
X4745079Y3621145D02*
Y3680200D01*
X4783465Y3618110D02*
Y3618949D01*
X4770669Y3631745D02*
X4783465Y3618949D01*
X4770669Y3612810D02*
Y3613649D01*
X4757874Y3626445D02*
X4770669Y3613649D01*
X4757874Y3607510D02*
Y3608350D01*
X4745079Y3621145D02*
X4757874Y3608350D01*
X5742126Y4432087D02*
Y4470472D01*
X5740158Y4472441D02*
X5742126Y4470472D01*
X4440945Y3796260D02*
Y3862205D01*
X4422244Y3777559D02*
X4440945Y3796260D01*
X4867913Y4242323D02*
Y4307650D01*
X4984252Y4236220D02*
Y4248032D01*
X5952766Y3852189D02*
Y3963546D01*
Y3852189D02*
X5974716Y3830239D01*
X4703740Y4416339D02*
X4757865Y4470463D01*
X4996063Y4598425D02*
Y4602362D01*
X4709040Y4403543D02*
X4795276Y4489779D01*
Y4586614D01*
X4796250Y4621073D02*
Y4650284D01*
Y4621073D02*
X4834646Y4582677D01*
X4996063Y4602362D02*
X5446850D01*
X5464567Y4620079D01*
X5560039Y4666339D02*
Y4697835D01*
X5549213Y4655512D02*
X5560039Y4666339D01*
X5464567Y4655512D02*
X5549213D01*
X5464567Y4620079D02*
X5494095D01*
X5560039Y4747047D02*
X5564961Y4751968D01*
X5560039Y4697835D02*
Y4747047D01*
X5501968Y4446850D02*
X5503937Y4444882D01*
X5501968Y4446850D02*
Y4476378D01*
X5508858Y4483268D01*
Y4538386D01*
X5534449Y4475394D02*
X5535433Y4474409D01*
X5537402Y4476378D01*
X5535433Y4444882D02*
Y4474409D01*
Y4444882D02*
X5543307Y4437008D01*
X5614173D01*
X5619095Y4432087D01*
X5690945D01*
X5303150Y3874016D02*
Y3933071D01*
Y3834646D02*
Y3874016D01*
X5608716Y3826772D02*
X5685609Y3903664D01*
X5476378Y3826772D02*
X5608716D01*
X5429134Y3874016D02*
X5476378Y3826772D01*
X5303150Y3874016D02*
X5429134D01*
X5303150Y3933071D02*
Y3952756D01*
X5374016Y4023622D01*
X5450787D01*
X5685609Y3903664D02*
X5748032D01*
X5691929Y3924213D02*
X5700787Y3933071D01*
X6476378Y3406496D02*
Y3421260D01*
Y3474213D01*
Y3258071D02*
Y3311024D01*
Y3325787D01*
Y3406496D02*
X6550197D01*
X6476378Y3474213D02*
X6477362Y3475197D01*
X6476378Y3325787D02*
X6550198D01*
X6476378Y3258071D02*
X6477362Y3257087D01*
X6165355Y3688976D02*
X6192913Y3716535D01*
X6161417Y3688976D02*
X6165355D01*
X6360193Y5238232D02*
X6382874Y5215551D01*
X6039370Y4685039D02*
X6049213Y4675197D01*
X6063071Y4809220D02*
Y5043472D01*
Y4809220D02*
X6069142Y4803150D01*
X6074803D01*
X6063071Y5043472D02*
X6257831Y5238232D01*
X6484252Y5153740D02*
Y5200787D01*
Y5215551D01*
X6382874D02*
X6483268D01*
X6257831Y5238232D02*
X6360193D01*
X5844004Y4499216D02*
X5845472D01*
X5843698D02*
X5844004D01*
X5984252Y4535433D02*
X6163386D01*
X6098425Y4416230D02*
X6109688Y4404967D01*
X6098425Y4416230D02*
Y4452756D01*
X6110236Y4464567D01*
Y4468504D01*
X6109688Y4404967D02*
X6110224Y4405503D01*
X6110236Y4468504D02*
X6129921D01*
X6141732Y4456693D01*
X6232283Y4244095D02*
Y4311024D01*
X6388583Y4201968D02*
X6477362D01*
X6157480Y4437008D02*
X6188976Y4405512D01*
X6125984Y4437008D02*
X6157480D01*
X5651575Y3742126D02*
X5662402D01*
X4600394Y4342520D02*
X4629921Y4312992D01*
X4594488Y4342520D02*
X4600394D01*
X4632874Y4457677D02*
X4709646D01*
X4629921Y4454724D02*
X4632874Y4457677D01*
X4632874Y4416339D02*
X4703740D01*
X4629921Y4419291D02*
X4632874Y4416339D01*
X4661685Y4403543D02*
X4709040D01*
X4652559Y4394417D02*
X4661685Y4403543D01*
X4594488Y4437008D02*
X4615425D01*
X4594488D02*
Y4456693D01*
Y4417323D02*
Y4437008D01*
X4515748D02*
X4594488D01*
X4515748D02*
Y4456693D01*
Y4417323D02*
Y4437008D01*
X3179358Y3311024D02*
X3181102Y3309279D01*
X3147638Y3311024D02*
X3179358D01*
X3181102Y3309279D02*
Y3326772D01*
Y3309279D02*
X3196850Y3293531D01*
X3920724Y3757874D02*
X3987205D01*
X3897110Y3781489D02*
X3920724Y3757874D01*
X3878481Y3781489D02*
X3897110D01*
X3876519Y3779528D02*
X3878481Y3781489D01*
X4442913Y4812993D02*
X4452746Y4822825D01*
X4468495D01*
X4650591Y4676181D02*
X4793994D01*
X4627952Y4698819D02*
X4650591Y4676181D01*
X4610236Y4698819D02*
X4627952D01*
X4784142Y4662392D02*
X4796250Y4650284D01*
X4652559Y4365157D02*
Y4394417D01*
X4635827Y4348425D02*
X4652559Y4365157D01*
X4629921Y4348425D02*
X4635827D01*
X4594488Y4385827D02*
X4596457Y4383858D01*
X4629921D01*
X4823398Y4352165D02*
X4867913Y4307650D01*
X4823398Y4242323D02*
X4877953Y4187768D01*
Y4185039D02*
Y4187768D01*
X4734252Y3976378D02*
Y3990157D01*
X4744095Y4000000D01*
X4783465D01*
X4801181Y4017716D01*
Y4019685D01*
X4819882Y3985236D02*
X4843504D01*
X4811024Y3976378D02*
X4819882Y3985236D01*
X4769685Y3976378D02*
X4811024D01*
X4779528Y3917323D02*
Y3937008D01*
X4763779Y3952756D02*
X4779528Y3937008D01*
X4744095Y3952756D02*
X4763779D01*
X4734252Y3962599D02*
X4744095Y3952756D01*
X4734252Y3962599D02*
Y3976378D01*
X4843504Y3985236D02*
X4863189Y4004921D01*
Y4056102D01*
X4872047Y4064961D02*
X4885827D01*
X4863189Y4056102D02*
X4872047Y4064961D01*
X4826772Y3964567D02*
X4838583D01*
X4779528Y3917323D02*
X4826772Y3964567D01*
X4748032Y3854331D02*
Y3896764D01*
X4709757Y3935039D02*
X4748032Y3896764D01*
X4652448Y3935039D02*
X4709757D01*
X4727362Y3845769D02*
Y3899338D01*
X4704457Y3922244D02*
X4727362Y3899338D01*
X4657748Y3922244D02*
X4704457D01*
X4700787Y3751968D02*
X4757874Y3694882D01*
X4657480Y3751968D02*
X4700787D01*
X4631890Y3777559D02*
X4657480Y3751968D01*
X4647149Y3701772D02*
X4723507D01*
X4642227Y3706693D02*
X4647149Y3701772D01*
X4633858Y3706693D02*
X4642227D01*
X4657748Y3686024D02*
X4715551D01*
X4652559Y3680834D02*
X4657748Y3686024D01*
X4652559Y3614173D02*
Y3680834D01*
X4653543Y3507874D02*
Y3510559D01*
X4649606Y3514496D02*
X4653543Y3510559D01*
X4649606Y3514496D02*
Y3530244D01*
X4644417Y3535433D02*
X4649606Y3530244D01*
X4629921Y3535433D02*
X4644417D01*
X4779528Y3830118D02*
Y3917323D01*
X4907480Y3958661D02*
X4909449Y3956693D01*
X4901575Y3964567D02*
X4907480Y3958661D01*
X4838583Y3964567D02*
X4901575D01*
X4515748Y3712598D02*
Y3740157D01*
Y3712598D02*
X4519685Y3708661D01*
X4484237Y3757480D02*
X4498410Y3771654D01*
X4480315Y3757480D02*
X4484237D01*
X4498410Y3771654D02*
X4515748D01*
Y3700787D02*
Y3708661D01*
X4015748Y3311024D02*
X4017717Y3312993D01*
X3330315Y3580709D02*
Y3617716D01*
X3383465Y3444882D02*
X3401575Y3462992D01*
Y3484252D01*
X4358267Y3964567D02*
Y3976378D01*
X4330709Y4003937D02*
X4358267Y3976378D01*
X4280879Y4003937D02*
X4330709D01*
X4240157Y3963216D02*
X4280879Y4003937D01*
X4221063Y3996063D02*
X4224409D01*
X4221063Y3949409D02*
Y3996063D01*
X4196851Y3925197D02*
X4221063Y3949409D01*
X4192913Y3925197D02*
X4196851D01*
X4106299Y3980315D02*
X4145669Y3940945D01*
X4169291Y3933071D02*
Y3944882D01*
Y3901954D02*
Y3933071D01*
X4145669Y3940945D02*
X4161417D01*
X4169291Y3933071D01*
X4442913Y3937008D02*
Y3970472D01*
X4440945Y3972441D02*
X4442913Y3970472D01*
X4588583Y3777559D02*
X4590551Y3779528D01*
X4555118Y3777559D02*
X4588583D01*
X4590551Y3779528D02*
X4592520D01*
X4629921Y3742126D01*
Y3777559D02*
X4631890D01*
X4652559Y3917055D02*
X4657748Y3922244D01*
X4652559Y3904527D02*
Y3917055D01*
X4610236Y3862205D02*
X4652559Y3904527D01*
X4639764Y3922355D02*
X4652448Y3935039D01*
X4639764Y3915354D02*
Y3922355D01*
X4620079Y3895670D02*
X4639764Y3915354D01*
X4590551Y3724409D02*
Y3748032D01*
Y3708662D02*
Y3724409D01*
Y3708662D02*
X4594488Y3704725D01*
X4594488Y3578740D02*
Y3606299D01*
Y3551181D02*
Y3578740D01*
X4515748D02*
Y3606299D01*
Y3551181D02*
Y3578740D01*
X4594488D01*
X4507888D02*
X4515748D01*
X4507881Y3578733D02*
X4507888Y3578740D01*
X4496054Y3578733D02*
X4507881D01*
X4480315Y3645669D02*
Y3674803D01*
X4723507Y3701772D02*
X4745079Y3680200D01*
X4741142Y3833661D02*
X4770669Y3804134D01*
X4715551Y3686024D02*
X4732283Y3669291D01*
X4642716Y3604331D02*
X4652559Y3614173D01*
X4629921Y3604331D02*
X4642716D01*
X4629921Y3535433D02*
Y3553150D01*
Y3517717D02*
X4633858D01*
X4596457D02*
X4629921D01*
X5105315Y3327756D02*
X5546160D01*
X4972441Y3460630D02*
X5105315Y3327756D01*
X4739470Y3833661D02*
X4741142D01*
X4727362Y3845769D02*
X4739470Y3833661D01*
X4610236Y3848426D02*
Y3862205D01*
Y3895670D02*
X4620079D01*
X5550197Y3355315D02*
X5572835Y3377953D01*
X5500000Y3355315D02*
X5550197D01*
X5603346Y3394685D02*
Y3436024D01*
X5586614Y3377953D02*
X5603346Y3394685D01*
X5572835Y3377953D02*
X5586614D01*
X5537401Y3391732D02*
X5543307Y3397638D01*
X5562992D01*
X5577756Y3412402D01*
Y3436024D01*
X5475394Y3949803D02*
Y3975394D01*
X5474682Y3950514D02*
X5475394Y3949803D01*
X5371774Y3950514D02*
X5474682D01*
X5474409Y3925197D02*
X5475394Y3924213D01*
X5421260Y3925197D02*
X5474409D01*
X5413386Y3917323D02*
X5421260Y3925197D01*
X5346438Y3917323D02*
X5413386D01*
X5553150Y3990157D02*
Y4023622D01*
X5593504Y3949803D02*
X5634842D01*
X5553150Y3990157D02*
X5593504Y3949803D01*
X5517717Y3998032D02*
X5591535Y3924213D01*
X5688386Y3952165D02*
X5700787Y3964567D01*
X5634842Y3952165D02*
X5688386D01*
X5634842Y3949803D02*
Y3952165D01*
X5561926Y4098425D02*
X5624016D01*
X5540272Y4076772D02*
X5561926Y4098425D01*
X5624016D02*
X5645669Y4076772D01*
X5748032Y3903664D02*
X5823829D01*
X5748032D02*
Y3925197D01*
X5740158Y3964567D02*
X5748032Y3972441D01*
X5700787Y3964567D02*
X5740158D01*
X5748032Y3972441D02*
X5769564Y3950908D01*
X5823829D01*
X5496063Y3433071D02*
X5537401Y3391732D01*
X5496063Y3433071D02*
Y3454724D01*
X5535433Y3496063D02*
X5675197D01*
X5501968D02*
X5535433D01*
X5675197D02*
X5681102Y3490157D01*
X4055118Y3279528D02*
X4070276Y3294685D01*
Y3308000D01*
X4053150Y3312993D02*
X4077362Y3337205D01*
X4570866Y3846457D02*
Y3862205D01*
X4561024Y3872047D02*
X4570866Y3862205D01*
X4561024Y3872047D02*
X4561024D01*
X4570866Y3881890D02*
Y3897638D01*
X4561024Y3872047D02*
X4570866Y3881890D01*
X4530512Y3872047D02*
X4561024D01*
X4496063Y3874016D02*
X4528543D01*
X4530512Y3872047D01*
X4496063Y3874016D02*
Y3905512D01*
X3570866Y5025591D02*
Y5074803D01*
X4275000Y4975000D02*
X4320046D01*
X4358904Y5013858D01*
X4399685D01*
X4413858Y5028032D01*
Y5091096D01*
X4375033Y5129921D02*
X4413858Y5091096D01*
X4236142Y5113858D02*
X4275000Y5075000D01*
X3758904Y5113858D02*
X4236142D01*
X3673228Y4974409D02*
Y5023622D01*
X3618110Y4974409D02*
Y5023622D01*
X3568898Y5027559D02*
X3570866Y5025591D01*
X3522146Y5027559D02*
X3568898D01*
X3507874Y5013287D02*
X3522146Y5027559D01*
X3574803Y4948819D02*
X3578740D01*
X3536909Y4986713D02*
X3574803Y4948819D01*
X3507874Y4986713D02*
X3536909D01*
X3525591Y4913386D02*
X3543307Y4931102D01*
X3493378Y4913386D02*
X3525591D01*
X3488189Y4908197D02*
X3493378Y4913386D01*
X3488189Y4883142D02*
Y4908197D01*
Y4883142D02*
X3507157Y4864173D01*
X3543307D01*
X3987205Y4352363D02*
X4049212D01*
X4037402Y4509843D02*
X4039370Y4511811D01*
X3987205Y4509843D02*
X4037402D01*
X4088583Y4450788D02*
X4137795Y4500000D01*
X3987205Y4450788D02*
X4088583D01*
X4112205Y4431103D02*
X4141732Y4460630D01*
X3987205Y4431103D02*
X4112205D01*
X3771653Y4688976D02*
Y4790087D01*
X3758591Y4803150D02*
X3771653Y4790087D01*
X3758590Y4803150D02*
X3758591Y4803150D01*
X3730315Y4803150D02*
X3758590D01*
X3710630Y4822835D02*
X3730315Y4803150D01*
X3710630Y4771654D02*
Y4779528D01*
Y4714567D02*
Y4771654D01*
X3893701Y3661417D02*
X3915354Y3639764D01*
X3885819Y3700780D02*
X3985244D01*
X3913386Y4488189D02*
X3915355Y4490158D01*
X3895669Y4499464D02*
X3945418Y4549213D01*
X3895669Y4480851D02*
Y4499464D01*
Y4480851D02*
X3897638Y4478882D01*
Y3826772D02*
Y4478882D01*
X3815747Y3806300D02*
Y4579527D01*
X3710630Y4714567D02*
X3740157Y4685039D01*
X3915355Y4490158D02*
X3987205D01*
X3985244Y3700780D02*
X3987205Y3698819D01*
X3842520Y3779528D02*
X3876519D01*
X3917323Y3679134D02*
X3987205D01*
X3937008Y4515748D02*
X3950788Y4529528D01*
X3945418Y4549213D02*
X3987205D01*
X3950788Y4529528D02*
X3987205D01*
X3815747Y3806300D02*
X3842520Y3779528D01*
X3815747Y4579527D02*
X3870079Y4633858D01*
X3917323D01*
X3942913Y4608268D01*
X3987205D01*
X4082677Y3586614D02*
Y3599858D01*
X3987205Y3600394D02*
X4045276D01*
X3987205Y3718504D02*
Y3738189D01*
X4053149Y3580709D02*
X4055118Y3578740D01*
X3987205Y3580709D02*
X4053149D01*
X4236221Y3566929D02*
Y3675732D01*
X4249016Y3561629D02*
Y3687992D01*
X4209041Y3521654D02*
X4249016Y3561629D01*
X3987205Y3521654D02*
X4209041D01*
X4224409Y3712599D02*
X4249016Y3687992D01*
X4206693Y3705260D02*
X4236221Y3675732D01*
X4248024Y3539363D02*
X4255897D01*
X3915354Y3639764D02*
X3987205D01*
Y3501969D02*
X4210630D01*
X4248024Y3539363D01*
X4517716Y3639764D02*
X4555118D01*
X4480315Y3726772D02*
Y3757480D01*
X4440945Y3862205D02*
X4464567Y3885827D01*
X4531496Y3903543D02*
X4543306D01*
X4529528Y3937008D02*
X4531496Y3938976D01*
X4496063Y3937008D02*
X4529528D01*
X4476378D02*
X4496063D01*
X4464567Y3925197D02*
X4476378Y3937008D01*
X4464567Y3885827D02*
Y3925197D01*
X4484449Y3775787D02*
X4513780Y3805119D01*
X4422244Y3757874D02*
X4450859D01*
X4468772Y3775787D02*
X4484449D01*
X4513780Y3805119D02*
X4531496D01*
X4496063Y3840551D02*
Y3842520D01*
Y3840551D02*
X4531496Y3805119D01*
X4590551Y4629921D02*
X4592055D01*
X4588583Y4488189D02*
X4594488D01*
X3987205Y4470473D02*
X3994094D01*
X4175197Y4697835D02*
Y4728347D01*
X4145669Y4757874D02*
X4175197Y4728347D01*
X4442913Y4751969D02*
Y4787402D01*
X4515748Y4346457D02*
X4521654D01*
X4194882Y4697835D02*
Y4726757D01*
X4169291Y4752348D02*
X4194882Y4726757D01*
X4096457Y4697835D02*
Y4734252D01*
X4135827Y4697835D02*
Y4723228D01*
X4107085Y4751969D02*
X4135827Y4723228D01*
X4107085Y4751969D02*
Y4762994D01*
X4312992Y4728433D02*
X4334646Y4750086D01*
X4312992Y4697835D02*
Y4728433D01*
X4566929Y4283465D02*
X4594488Y4311024D01*
X4515748Y4314961D02*
X4547244Y4283465D01*
X4566929D01*
X4513779Y4773623D02*
X4531496Y4791339D01*
X4557087Y4781497D02*
X4570866D01*
X4531496Y4755906D02*
X4557087Y4781497D01*
X4515748Y4385827D02*
X4553150D01*
X4555118Y4383858D01*
X4588583Y4385827D02*
X4594488D01*
X4555118Y4419291D02*
X4588583Y4385827D01*
X4521654Y4346457D02*
X4555118Y4312992D01*
X4588583Y4348425D02*
X4594488Y4342520D01*
X4555118Y4348425D02*
X4588583D01*
X4570866Y4781496D02*
X4610236D01*
X4610236Y4663386D02*
X4610236Y4663386D01*
X4592055Y4629921D02*
X4609646Y4612331D01*
Y4608858D02*
Y4612331D01*
Y4608858D02*
X4629921Y4588583D01*
X4596457Y4490157D02*
X4629921D01*
X4584646Y4624016D02*
X4590551Y4629921D01*
X4555118Y4624016D02*
X4584646D01*
X4594488Y4488189D02*
X4596457Y4490157D01*
X4555118Y4454724D02*
X4588583Y4488189D01*
Y3637795D02*
X4594488D01*
X4555118Y3604331D02*
X4588583Y3637795D01*
X4515748Y3771654D02*
X4523622D01*
X4555118Y3738189D02*
Y3740157D01*
X4594488Y3637795D02*
X4596457Y3639764D01*
X4629921D01*
X4547244Y3417323D02*
X4566929D01*
X4515748Y3448819D02*
X4547244Y3417323D01*
X4566929D02*
X4594488Y3444882D01*
Y3519685D02*
X4596457Y3517717D01*
X4588583Y3519685D02*
X4594488D01*
X4555118Y3553150D02*
X4588583Y3519685D01*
X4553150D02*
X4555118Y3517717D01*
X4515748Y3519685D02*
X4553150D01*
X4624015Y3446851D02*
X4633858D01*
X4613583Y3457284D02*
X4624015Y3446851D01*
X4613583Y3457284D02*
Y3458787D01*
X4595992Y3476378D02*
X4613583Y3458787D01*
X4594488Y3476378D02*
X4595992D01*
X4588583Y3482284D02*
X4594488Y3476378D01*
X4555118Y3482284D02*
X4588583D01*
X4515748Y3480315D02*
X4521654D01*
X4555118Y3446851D01*
X5132874Y4363189D02*
X5195866D01*
X5130905D02*
X5132874D01*
X5130905Y3796260D02*
X5174213D01*
X5128937D02*
X5130905D01*
X5290354Y3821851D02*
X5303150Y3834646D01*
X4169291Y3901954D02*
X4194882Y3876363D01*
X4169291Y3944882D02*
X4183071Y3958662D01*
X4194882Y3847441D02*
Y3876363D01*
X5964850Y3383858D02*
X6009842D01*
X6026842D01*
X6070861Y3427877D01*
X6073829D01*
Y3452756D01*
X6090551Y4584646D02*
X6137795D01*
X6149606Y4596457D01*
Y4557087D02*
Y4596457D01*
X6149606Y4596457D01*
X6037411Y3523716D02*
Y3536762D01*
X6046636Y3545987D01*
X6063986D01*
X6073829Y3555829D01*
X6075797Y3553861D02*
X6142726D01*
Y3557798D01*
X6178159Y3593231D01*
X6090551Y4755905D02*
X6135827Y4801181D01*
X6177165D01*
X5546160Y3327756D02*
X5564868Y3309048D01*
X5592590D01*
X5606776Y3323234D01*
X5609919D01*
X5614441Y3327756D01*
X5859252D01*
X5874016Y3342520D01*
X5881890D01*
X5854331Y3580709D02*
X5907480D01*
X5793307Y4712599D02*
Y4742126D01*
X5791339Y4744095D02*
X5793307Y4742126D01*
Y4712599D02*
X5870079D01*
X5464946Y4809055D02*
X5466914Y4807087D01*
X5791339Y4744095D02*
Y4775591D01*
X5466914Y4807087D02*
X5759842D01*
X5791339Y4775591D01*
X5494095Y3340551D02*
X5496063Y3342520D01*
X5570167Y3321844D02*
X5587290D01*
X5601476Y3336029D01*
X5496063Y3342520D02*
X5549491D01*
X5570167Y3321844D01*
X5601476Y3336029D02*
X5604619D01*
X5609141Y3340551D01*
X5844488D01*
X5857283Y3353346D01*
Y3376686D02*
X5857293Y3376695D01*
X5857283Y3353346D02*
Y3376686D01*
X5857293Y3376695D02*
Y3424203D01*
X5815955Y3376695D02*
X5857293D01*
X5854331Y3427165D02*
X5857293Y3424203D01*
X5773622Y4517717D02*
X5803150Y4547244D01*
Y4549212D01*
X5812992Y4559055D01*
X5915354Y4561024D02*
X5921260Y4555118D01*
X5777938Y4807087D02*
X5822835D01*
X5763174Y4821850D02*
X5777938Y4807087D01*
X5812992Y4559055D02*
X5870079D01*
Y4561024D02*
X5915354D01*
X5500000Y3355315D02*
Y3374016D01*
X5534449Y4697835D02*
Y4747047D01*
X5529528Y4751968D02*
X5534449Y4747047D01*
X5496063Y4748032D02*
X5525591D01*
X5529528Y4751968D01*
X5533465Y4759842D02*
X5534449Y4758858D01*
X3188976Y3094488D02*
X3244094D01*
X3244094Y3094488D01*
X4570866Y3931103D02*
X4610236D01*
X5878245Y3453467D02*
X5892726Y3438986D01*
Y3376695D02*
Y3438986D01*
X5896663Y3380632D02*
X5926191D01*
X5803150Y4584646D02*
X5803150Y4584646D01*
X5935039D02*
X5984252Y4535433D01*
X6163386D02*
X6185039Y4557087D01*
X6004931Y3555829D02*
X6046270Y3597168D01*
X6142726Y3593231D02*
Y3597168D01*
X6046270D02*
X6142726D01*
X5793307Y4677165D02*
X5803150Y4687008D01*
X5929134D02*
X5931102Y4685039D01*
X6139764Y4765748D02*
X6177165D01*
X6090551Y4610236D02*
X6124016D01*
X6149606Y4635827D01*
X6185039Y4641732D02*
X6186024Y4642717D01*
X5051181Y3750000D02*
X5072835Y3771653D01*
X5118110D01*
X5055118Y4336614D02*
X5129921D01*
X5130905Y4337599D01*
X3661417Y4844488D02*
X3696850D01*
X3710630Y4858268D01*
X4107085Y3901575D02*
X4135827Y3872834D01*
X4107085Y3901575D02*
Y3912600D01*
X4135827Y3847441D02*
Y3872834D01*
X4096457Y3847441D02*
Y3883859D01*
X6126789Y3530428D02*
X6142726Y3514491D01*
X5972441Y4706693D02*
X6017717Y4661417D01*
X5972441Y4706693D02*
Y4773622D01*
X6017717Y4661417D02*
X6090551D01*
X6480315Y3497638D02*
X6480315Y3497638D01*
X5290354Y3770669D02*
X5361220D01*
X5366142Y3765748D01*
X5290354Y3796260D02*
X5361221D01*
X5366142Y3801181D01*
X5294291Y4337599D02*
X5353346D01*
X5362205Y4328740D01*
X5294291Y4363189D02*
X5295275Y4364173D01*
X5362205D01*
X5807087Y4362205D02*
X5811003D01*
X5823011Y4350197D01*
X4826772Y3850394D02*
X4826779Y3850386D01*
X4830699D01*
X4857212Y3870866D02*
X4870992Y3884646D01*
X4847244Y3870866D02*
X4857212D01*
X4870992Y3884646D02*
X4968994D01*
X5022341Y3937992D01*
X5095391D01*
X5823829Y3900908D02*
Y3903664D01*
X3302756Y3247541D02*
Y3248032D01*
X3304528Y3249803D01*
X3316635Y3233662D02*
X3333758D01*
X3302756Y3247541D02*
X3316635Y3233662D01*
X3279528Y3248032D02*
X3302756D01*
X3304528Y3249803D02*
Y3295079D01*
X3304724Y3295276D01*
X3505512Y3374016D02*
X3529134D01*
X5291522Y4185223D02*
X5399973Y4076772D01*
X5540272D01*
X5645669D02*
X5659449Y4062992D01*
X5744095D02*
X5759842Y4078740D01*
X5659449Y4062992D02*
X5744095D01*
X5759842Y4078740D02*
Y4114173D01*
X5748032Y4125984D02*
X5759842Y4114173D01*
X5294291Y4388780D02*
X5345472D01*
X5294291D02*
Y4469488D01*
X5345472Y4388780D02*
X5358268Y4401575D01*
Y4405512D01*
X3306693Y3568898D02*
Y3578740D01*
Y3568898D02*
X3330315Y3545276D01*
X3292913Y3592520D02*
X3306693Y3578740D01*
X3314567Y3482284D02*
X3324409Y3472441D01*
Y3444882D02*
Y3472441D01*
X3314567Y3482284D02*
X3334252Y3501969D01*
Y3541339D01*
X3330315Y3545276D02*
X3334252Y3541339D01*
X6077766Y3880632D02*
Y3883388D01*
X6009842Y4187598D02*
X6014370D01*
X6018307D01*
X6009842Y4237598D02*
X6034842D01*
X6059055Y4261811D01*
Y4266464D02*
X6064244Y4271654D01*
X6059055Y4261811D02*
Y4266464D01*
X6064244Y4271654D02*
X6068898D01*
X6078740Y4281496D01*
X3283071Y3517716D02*
Y3557087D01*
X3283071Y3557087D02*
X3283071Y3557087D01*
X4886811Y4063976D02*
X4936024D01*
X4885827Y4064961D02*
X4886811Y4063976D01*
X5496063Y3490157D02*
X5501968Y3496063D01*
X5681102Y3490157D02*
X5690945D01*
Y3503221D02*
X5706102Y3518378D01*
X5690945Y3490157D02*
Y3503221D01*
X5706102Y3518378D02*
Y3588350D01*
X5690122Y3604331D02*
X5706102Y3588350D01*
X3470079Y3342520D02*
X3472047Y3340551D01*
X3452362Y3360236D02*
X3470079Y3342520D01*
Y3374016D01*
X3409055Y3360236D02*
X3452362D01*
X3470079Y3374016D02*
X3470079Y3374016D01*
X3204331Y3510827D02*
X3253811D01*
X3300071Y3464567D02*
X3300787D01*
X3304724Y3460630D01*
X3283071Y3482283D02*
Y3486221D01*
X3296850Y3500000D01*
X3297567D01*
X3314567Y3517000D01*
X3304724Y3444882D02*
Y3460630D01*
X3314567Y3517000D02*
Y3517717D01*
X4918110Y3842520D02*
X4918110Y3842520D01*
X4984252D01*
X5027559Y3885827D01*
Y3887499D01*
X5054431Y3914370D01*
X5089864D01*
X5113486Y3937992D01*
X5130609D01*
X5086911Y4185039D02*
X5104034D01*
X5111908Y4192913D01*
X4984252Y4248032D02*
Y4295893D01*
X4919461Y4297244D02*
X4919461Y4297244D01*
X4985603D01*
X4984252Y4295893D02*
X4985603Y4297244D01*
X4077362Y3352488D02*
X4082551Y3357678D01*
X4082704D01*
X4096457Y3412402D02*
X4116142D01*
X4082704Y3357678D02*
X4116142Y3391115D01*
Y3412402D01*
X4442913Y3901575D02*
Y3937008D01*
X4936024Y4089567D02*
X4957677D01*
X5452756Y3551181D02*
X5549509D01*
X5578053Y3522638D02*
X5595176D01*
X5549509Y3551181D02*
X5578053Y3522638D01*
X5595176D02*
X5621335Y3548797D01*
X5602372Y3574081D02*
X5621335Y3555118D01*
Y3548797D02*
Y3555118D01*
X5671260D02*
X5681102Y3545276D01*
Y3525591D02*
Y3545276D01*
X5621335Y3555118D02*
X5671260D01*
X5685039Y3568898D01*
X5000000Y3610236D02*
Y3673228D01*
X5011811Y3685039D01*
Y3716535D01*
X5013779Y3714567D01*
X5051181D01*
X5013162Y4423228D02*
X5033465D01*
X5055118Y4401575D01*
X5013162Y4442296D02*
Y4454724D01*
Y4423228D02*
Y4442296D01*
X5001351Y4466535D02*
X5013162Y4454724D01*
Y4442296D02*
X5035433Y4464567D01*
X5013162Y4423228D02*
X5015130Y4425197D01*
X5055118Y4372047D02*
Y4401575D01*
X3746063Y4822835D02*
Y4858268D01*
Y4883858D01*
X3746063Y4746063D02*
Y4771654D01*
X3746063Y4883858D02*
X3748032Y4885827D01*
X5645669Y4112205D02*
X5685039D01*
X5662850Y4187992D02*
X5681102Y4169740D01*
X5642717Y4187992D02*
X5662850D01*
X5687008Y4082677D02*
Y4110236D01*
X5685039Y4112205D02*
X5687008Y4110236D01*
X5704724Y4127953D01*
X5681102Y4137795D02*
X5690945Y4127953D01*
X5681102Y4137795D02*
Y4169740D01*
X5690945Y4127953D02*
X5704724D01*
X5294291Y4311024D02*
X5401575D01*
X5452893D02*
X5463729Y4300188D01*
X5401575Y4311024D02*
Y4397638D01*
X5294291Y4311024D02*
Y4312008D01*
X5485225Y4282940D02*
X5550645Y4217520D01*
X5469181Y4300188D02*
X5485225Y4284144D01*
X5463729Y4300188D02*
X5469181D01*
X5401575Y4311024D02*
X5452893D01*
X5704724Y4163386D02*
X5706693Y4165354D01*
X5696850Y4171260D02*
X5704724Y4163386D01*
X5722441Y4082677D02*
X5725787Y4086024D01*
Y4144291D01*
X5642717Y4213583D02*
X5664370D01*
X5696850Y4181102D01*
X5485225Y4282940D02*
Y4284144D01*
X5638779Y4217520D02*
X5642717Y4213583D01*
X5550645Y4217520D02*
X5638779D01*
X5696850Y4171260D02*
Y4181102D01*
X5819982Y4237598D02*
X5824803D01*
X5486220Y4023622D02*
X5517717D01*
X5244095Y3763780D02*
X5262795Y3745079D01*
X5290354D01*
X5292323Y3682087D02*
Y3745079D01*
X5543307Y4043307D02*
X5553150Y4033465D01*
Y4023622D02*
Y4033465D01*
X4192913Y3897638D02*
Y3923229D01*
Y3897638D02*
X4214567Y3875985D01*
Y3847441D02*
Y3875985D01*
X4312992Y3878039D02*
X4334646Y3899693D01*
X4312992Y3847441D02*
Y3878039D01*
X4779528Y3830118D02*
X4822047Y3787598D01*
X4907480Y3923228D02*
X4909449Y3921260D01*
X4877953Y4185039D02*
X4909449Y4153543D01*
X4885827Y3995079D02*
Y4029528D01*
X4822047Y3897441D02*
X4921063D01*
X4885827Y3995079D02*
X4930118D01*
X4885827Y4029528D02*
X4894685Y4038386D01*
X4936024D01*
X4921063Y3897441D02*
X4942913Y3919291D01*
X4930118Y3995079D02*
X4942913Y3982284D01*
X3708661Y4824803D02*
X3710630Y4822835D01*
X3661417Y4824803D02*
X3708661D01*
X3661417Y4779528D02*
X3669291Y4771654D01*
X3710630D01*
X3661417Y4779528D02*
Y4805118D01*
X4145669Y3907481D02*
X4175197Y3877953D01*
Y3847441D02*
Y3877953D01*
X6009842Y4137598D02*
X6043110D01*
X6052056Y4146544D01*
Y4148325D01*
X6064164Y4160433D02*
X6065945D01*
X6052056Y4148325D02*
X6064164Y4160433D01*
X6065945D02*
X6070866Y4165354D01*
Y4214299D01*
X6076055Y4219488D01*
X6093504D01*
X6122484Y4248468D01*
X6133547D01*
X6009842Y4287598D02*
X6013055D01*
X6044354Y4318898D01*
X6125103D01*
X6133923Y4327717D01*
Y4351221D01*
X6111230Y3853073D02*
X6132572Y3874415D01*
Y3897913D01*
X5974716Y3830239D02*
X6043020D01*
X6108277Y3836341D02*
X6132572Y3812046D01*
X6043020Y3830239D02*
X6049123Y3836341D01*
X6132572Y3788543D02*
Y3812046D01*
X5979537Y4000711D02*
X5994892D01*
X5979537Y3990178D02*
Y4000711D01*
X6049123Y3836341D02*
X6108277D01*
X5994892Y4000711D02*
X5995088Y4000908D01*
X6008868D01*
X5216535Y4295276D02*
Y4342520D01*
Y4295276D02*
X5272638Y4239173D01*
X5195866Y4363189D02*
X5216535Y4342520D01*
X5483268Y4213583D02*
Y4239173D01*
X5272638D02*
X5483268D01*
X3987205Y3620079D02*
X3994094D01*
X4147638Y3317717D02*
X4175197Y3345276D01*
Y3412402D01*
X5299221Y3937000D02*
X5303150Y3933071D01*
X5095472Y4012795D02*
Y4038386D01*
X4214567Y3372047D02*
Y3412402D01*
Y3372047D02*
X4220472Y3366142D01*
X4248032D01*
X4255905Y3358268D01*
Y3330709D02*
Y3358268D01*
X4238189Y3312993D02*
X4255905Y3330709D01*
X4234252Y3379921D02*
Y3412402D01*
Y3379921D02*
X4248032Y3366142D01*
X4255905Y3330709D02*
X4271653Y3314961D01*
X4279528D01*
X4253937Y3378331D02*
X4279528Y3352741D01*
X4253937Y3378331D02*
Y3412402D01*
X4077362Y3337205D02*
Y3352488D01*
X4096921Y3334646D02*
X4098425D01*
X4070276Y3308000D02*
X4096921Y3334646D01*
X4610236Y3812992D02*
X4610236Y3812992D01*
X4531496Y3840552D02*
X4559055Y3812992D01*
X4442913Y4787402D02*
Y4812993D01*
X4090551Y4740158D02*
X4096457Y4734252D01*
X4051181Y4748032D02*
Y4757874D01*
Y4748032D02*
X4059055Y4740158D01*
X4090551D01*
X4169291Y4752348D02*
Y4807087D01*
X4169291Y4807087D01*
X4192913Y4775591D02*
X4194417D01*
X4221063Y4802237D01*
Y4850394D01*
X4224409D01*
X4192913Y4748032D02*
Y4773622D01*
X4214567Y4697835D02*
Y4726378D01*
X4192913Y4748032D02*
X4214567Y4726378D01*
X4234252Y4697835D02*
Y4730315D01*
X4216535Y4748032D02*
X4234252Y4730315D01*
X4216535Y4748032D02*
Y4779528D01*
X4228347Y4791339D01*
X4240157D01*
X4293307Y4697835D02*
Y4732748D01*
X4291338Y4791339D02*
X4306496Y4776181D01*
X4287401Y4791339D02*
X4291338D01*
X4334646D01*
X4279062Y4850859D02*
X4287401Y4842520D01*
X4027559Y4727363D02*
X4057086Y4697835D01*
X4027559Y4727363D02*
Y4779528D01*
X4039370Y4791339D01*
X4051181D01*
X4480315Y4582677D02*
Y4611811D01*
X4517716Y4490157D02*
X4555118D01*
X4531496Y4655512D02*
X4531496Y4655512D01*
X4535433Y4690945D02*
X4541339D01*
X4566929Y4665355D01*
X4570866D01*
X4572834Y4663386D02*
X4610236D01*
X4570866Y4665355D02*
X4572834Y4663386D01*
X4503937Y4687008D02*
Y4692913D01*
X4422244Y4608268D02*
X4454725D01*
X4478740Y4665354D02*
X4480315Y4663780D01*
X4452756Y4665354D02*
X4478740D01*
X4422244Y4693898D02*
X4468504Y4740157D01*
Y4750001D01*
X4492126Y4773623D02*
X4513779D01*
X5035433Y4464567D02*
Y4491369D01*
X4793994Y4676181D02*
X4831693Y4638483D01*
X4149606Y4149606D02*
X4149606Y4149606D01*
X4234252Y4230315D02*
Y4262796D01*
Y4230315D02*
X4259843Y4204724D01*
Y4185039D02*
Y4204724D01*
X4253937Y4234252D02*
Y4262796D01*
Y4234252D02*
X4291339Y4196850D01*
Y4185039D02*
Y4196850D01*
X4228346Y4185039D02*
Y4208661D01*
X4214567Y4222441D02*
X4228346Y4208661D01*
X4214567Y4222441D02*
Y4262796D01*
X4194882Y4187008D02*
Y4262796D01*
Y4187008D02*
X4196850Y4185039D01*
X4068433Y4165354D02*
X4090551Y4187473D01*
Y4216535D01*
X4116142Y4242126D02*
Y4262796D01*
X4090551Y4216535D02*
X4096457Y4222441D01*
X4043307Y4249016D02*
X4057086Y4262796D01*
X3946851Y4332678D02*
X3987205D01*
X3937008Y4322835D02*
X3946851Y4332678D01*
X3940945Y4271654D02*
X3944882Y4275591D01*
X3968504D01*
X3987205Y4332678D02*
X4061023D01*
X4422244D02*
Y4352363D01*
X4096457Y4222441D02*
X4116142Y4242126D01*
X4096457Y4222441D02*
Y4262796D01*
X4043307Y4220472D02*
Y4249016D01*
X4035425Y4195355D02*
X4065425Y4165354D01*
X3086614Y3133858D02*
X3125984Y3094488D01*
X3086614Y3133858D02*
Y3153543D01*
Y3157554D01*
X3157407Y3228347D01*
X4035425Y4195355D02*
Y4212590D01*
X4043307Y4220472D01*
X4076772Y4262796D02*
Y4316929D01*
X4074803Y4318898D02*
X4076772Y4316929D01*
X4061023Y4332678D02*
X4074803Y4318898D01*
X3987205Y4411418D02*
X4151575D01*
X4173228Y4433071D01*
X3987205Y4391733D02*
X4171260D01*
X4181102Y4381890D01*
Y4326772D02*
Y4381890D01*
X4192913Y4314961D02*
X4196842Y4318889D01*
Y4322826D01*
X3987205Y4372048D02*
X4117731D01*
X4187613Y4302165D01*
X4189174D01*
X4189174Y4302166D01*
X4209110D01*
X4248032Y4341087D01*
X4244095Y4149606D02*
Y4185039D01*
X4149606Y4114174D02*
Y4149606D01*
X4175197Y4183071D02*
Y4262796D01*
X4149606Y4149606D02*
Y4157480D01*
X4175197Y4183071D01*
X4293307Y3847441D02*
Y3879921D01*
X4311024Y3897638D01*
Y3940945D01*
X4234252Y3847441D02*
Y3879921D01*
X4216535Y3897638D02*
X4234252Y3879921D01*
X4216535Y3897638D02*
Y3918913D01*
X4238568Y3940945D01*
X4240157D01*
X4057086Y3847441D02*
Y3856299D01*
X4031496Y3881890D02*
X4057086Y3856299D01*
X4031496Y3933071D02*
X4039370Y3940945D01*
X4051181D01*
X4031496Y3881890D02*
Y3933071D01*
X4090552Y3889764D02*
X4096457Y3883859D01*
X4068898Y3889764D02*
X4090552D01*
X4068898Y3889764D02*
X4068898Y3889764D01*
X4051181Y3897638D02*
Y3907481D01*
Y3897638D02*
X4059055Y3889764D01*
X4068898D01*
X4206693Y3705260D02*
Y3719937D01*
X4594488Y3673229D02*
X4627953D01*
X4629921Y3671260D01*
X5748032Y4125984D02*
X5809646Y4187598D01*
X5824803D01*
X5755612Y4173228D02*
X5819982Y4237598D01*
X5472441Y4771654D02*
X5496063Y4748032D01*
X5459646Y4796260D02*
X5472441Y4783465D01*
X4855315Y4796260D02*
X5459646D01*
X5472441Y4771654D02*
Y4783465D01*
X4783455Y4724400D02*
X4855315Y4796260D01*
X4779518Y4724400D02*
X4783455D01*
X4652559Y4575788D02*
Y4625716D01*
X4633858Y4557087D02*
X4652559Y4575788D01*
X4629921Y4557087D02*
X4633858D01*
X4662014Y4662392D02*
X4784142D01*
X4652559Y4625716D02*
X4668565Y4641723D01*
X4775581D01*
X4629921Y4624016D02*
Y4630300D01*
X4662014Y4662392D01*
X3054724Y3346457D02*
X3113780D01*
X3173155Y3216463D02*
X3224788Y3268095D01*
X4813976Y4699803D02*
X4814951Y4700778D01*
X5039370Y4523622D02*
X5090469D01*
X5104249Y4537402D01*
X5261811D01*
X5401575Y4397638D01*
X4834646Y4582677D02*
X4944124D01*
X5035433Y4491369D01*
X4947456Y4597441D02*
X5034070Y4510827D01*
X4957677Y4605315D02*
X5039370Y4523622D01*
X4637795Y4708661D02*
X4657480Y4688976D01*
X4637795Y4708661D02*
Y4720472D01*
X4657480Y4688976D02*
X4803150D01*
X4814951Y4700778D01*
Y4700778D01*
X3618110Y5086614D02*
X3661417Y5129921D01*
Y5129921D01*
X4375033D01*
X3673228Y5086614D02*
X3731660D01*
X3758904Y5113858D01*
X6074803Y4803150D02*
X6100394D01*
X6245662Y5269764D02*
X6352441D01*
X6035354Y5059456D02*
X6245662Y5269764D01*
X6035354Y4820701D02*
Y5059456D01*
X6012417Y4648622D02*
X6039370D01*
X6050197D02*
X6056102D01*
X6039370D02*
X6050197D01*
X6039370Y4637795D02*
X6050197Y4648622D01*
X6039370Y4637795D02*
Y4648622D01*
X6070866Y4767717D02*
X6074803Y4771654D01*
Y4803150D01*
X6484252Y5215551D02*
X6551182D01*
X6049213Y4675197D02*
X6059055D01*
X6480315Y5311024D02*
Y5362008D01*
X6550197Y3455709D02*
X6551182Y3456693D01*
X6550198Y3256890D02*
X6551182Y3255905D01*
X4017717Y3312993D02*
X4053150D01*
X5627962Y3594215D02*
X5638078Y3604331D01*
X5690122D01*
D78*
X4181103Y3287402D02*
X4192914Y3275591D01*
X4281496Y3907481D02*
X4287402D01*
X4240158D02*
X4251575Y3918898D01*
X4194882Y3364174D02*
X4210630Y3348426D01*
X5425197Y4716535D02*
X5453374D01*
X6129210Y3479057D02*
X6143701Y3464567D01*
X5627953Y3370079D02*
Y3434756D01*
X4990157Y3935039D02*
Y3986221D01*
X5131890Y3627953D02*
Y3744095D01*
X4334646Y3940945D02*
X4358267Y3964567D01*
X4279528Y3279528D02*
Y3312992D01*
X4232283Y3275591D02*
Y3312992D01*
X4098425Y3334646D02*
X4135827Y3372048D01*
X4273622Y4744095D02*
X4287402Y4757874D01*
X4240158D02*
X4253937Y4744095D01*
X4240158Y3907481D02*
X4253937Y3893701D01*
X4273622Y3893701D02*
X4287402Y3907481D01*
X4098425Y3267716D02*
Y3303150D01*
X4051181Y3348579D02*
X4076028Y3373426D01*
X4027559Y3372048D02*
X4051181Y3348426D01*
X6141732Y4456693D02*
X6158465D01*
X6212598Y3858268D02*
Y3980052D01*
Y3858268D02*
X6230315Y3840551D01*
X6178159Y4014491D02*
Y4034176D01*
X6228038Y4192605D02*
Y4295584D01*
X6193290Y4157856D02*
X6228038Y4192605D01*
X6193290Y4139052D02*
Y4157856D01*
X6158465Y4456693D02*
X6200787D01*
X6114173Y4637795D02*
X6147638Y4671260D01*
X6157480Y3413386D02*
X6181102D01*
X6141732Y3429134D02*
X6157480Y3413386D01*
X6098796Y3503937D02*
X6123676Y3479057D01*
X6129210D01*
X3326772Y5001968D02*
Y5015748D01*
Y5001968D02*
X3360236Y4968504D01*
X5638780Y4568898D02*
Y4601378D01*
X5637795Y4602362D02*
X5638780Y4601378D01*
X3685039Y4905512D02*
X3696850Y4893701D01*
X3661417Y4905512D02*
X3685039D01*
X3590551Y4897638D02*
X3606299Y4881890D01*
Y4881890D02*
Y4881890D01*
X3661417Y4864173D02*
X3661417Y4864173D01*
Y4905512D01*
X3602362Y4834646D02*
X3606299Y4838583D01*
Y4881890D01*
X3629921Y4905512D01*
X3565945Y4912402D02*
Y4924213D01*
X3549213Y4895669D02*
X3565945Y4912402D01*
Y4924213D02*
X3578740Y4937008D01*
Y4948819D01*
X5421260Y4720472D02*
X5425197Y4716535D01*
X5450787Y4713949D02*
X5453374Y4716535D01*
X4182078Y4030800D02*
Y4040346D01*
X4169291Y4018013D02*
X4182078Y4030800D01*
X4169291Y3996063D02*
Y4018013D01*
X4182078Y4040346D02*
X4204724Y4062992D01*
X5003937Y4866142D02*
Y4897638D01*
X4988189Y4850394D02*
X5003937Y4866142D01*
X5432453Y4775591D02*
X5450787Y4757256D01*
X5429134Y4775591D02*
X5432453D01*
X5425197Y3618110D02*
X5442913D01*
X5681102Y4275591D02*
X5688976D01*
X5704724Y4259843D01*
X3259449Y3379921D02*
X3324409D01*
X3216535Y3366142D02*
X3230315Y3379921D01*
X3259449D01*
X3208661Y3358268D02*
X3216535Y3366142D01*
X3181102Y3358268D02*
X3208661D01*
X3363780Y3295276D02*
Y3340551D01*
X3324409Y3295276D02*
Y3360236D01*
X3334252Y3370079D01*
X3363780Y3340551D01*
X5720472Y3492126D02*
X5744081D01*
X3173228Y3693307D02*
Y3720472D01*
X3196850Y3693307D02*
Y3720472D01*
X3220472Y3693307D02*
Y3720472D01*
X3244095Y3693307D02*
Y3720472D01*
X5820866Y4133661D02*
X5822835Y4131693D01*
Y4086614D02*
Y4131693D01*
X5818898Y4051181D02*
X5822835Y4055118D01*
Y4086614D01*
X5820866Y4133661D02*
X5824803Y4137598D01*
X4480315Y4529134D02*
Y4530709D01*
Y4488189D02*
Y4529134D01*
X4504921Y4733268D02*
X4513780Y4724409D01*
X4500000Y4738189D02*
X4504921Y4733268D01*
X4500984D02*
X4504921D01*
X4472441Y4696850D02*
Y4704724D01*
X4263779Y4832158D02*
X4264764Y4833143D01*
X4681102Y4547244D02*
X4712607Y4515739D01*
X4724400D01*
X4460630Y3829134D02*
X4480315Y3809449D01*
X5095472Y4205709D02*
Y4209646D01*
X5101378Y4215551D01*
X5173229Y3877953D02*
X5192913Y3897638D01*
X4944882Y3610236D02*
X4944882Y3610236D01*
X4881890Y3629921D02*
X4901575Y3610236D01*
X4944882Y3704724D02*
Y3736220D01*
X4956693Y3748031D01*
X4455709Y3448819D02*
X4464567D01*
X4881890Y3629921D02*
Y3649606D01*
X4710589Y3594488D02*
X4724409D01*
X5877941Y3976370D02*
X5877961D01*
X5555118Y4590551D02*
X5560039Y4585630D01*
Y4570866D02*
Y4585630D01*
Y4538386D02*
Y4570866D01*
X5492744Y4713949D02*
X5508858Y4697835D01*
X5450787Y4713949D02*
X5492744D01*
X5536417Y3853347D02*
X5539370Y3850394D01*
X5536417Y3853347D02*
Y3896653D01*
X5602362Y3866142D02*
X5606299D01*
X5586614Y3850394D02*
X5602362Y3866142D01*
X5606299D02*
Y3870079D01*
X5634842Y3898622D01*
X5570866Y3850394D02*
X5586614D01*
X5507874D02*
X5539370D01*
X5688976Y3862205D02*
X5709373Y3882601D01*
X5717529D01*
X5475394Y3882874D02*
Y3898622D01*
Y3882874D02*
X5507874Y3850394D01*
X6334646Y4476378D02*
X6390945Y4420079D01*
X5845472Y4499216D02*
Y4500197D01*
Y4450197D02*
Y4499216D01*
X5844004D02*
X5845849Y4501060D01*
X6200787Y4456693D02*
X6220472Y4476378D01*
X6390945Y4420079D02*
X6477362D01*
X5856299Y4086614D02*
X5889764D01*
X5897638Y4078740D01*
X5612205Y3663386D02*
X5639764Y3690945D01*
X5612205Y3655430D02*
Y3663386D01*
X5603346Y3646571D02*
X5612205Y3655430D01*
X5603346Y3595472D02*
Y3646571D01*
X5639764Y3690945D02*
X5662402D01*
X5739173Y3716535D02*
Y3790354D01*
X5765672Y3816853D01*
X3543307Y4775591D02*
Y4805118D01*
X3157087Y3358268D02*
X3181102D01*
X3145276Y3346457D02*
X3157087Y3358268D01*
X3891732Y3736221D02*
Y3740157D01*
X3846457D02*
X3891732D01*
X4812008Y4059055D02*
X4836614Y4034449D01*
Y4019685D02*
Y4034449D01*
X4783465Y4062008D02*
Y4098425D01*
X4767717Y4046260D02*
X4783465Y4062008D01*
X4767717Y4019685D02*
Y4046260D01*
X4681102Y4311024D02*
X4729331D01*
X4688976Y3295276D02*
X4712598D01*
X4637795D02*
X4677165D01*
X4683071Y3289370D01*
X4673228Y3299213D02*
X4677165Y3295276D01*
X4712598D02*
X4716535Y3299213D01*
X4279527Y3312993D02*
X4279528Y3312992D01*
X4232283Y3312993D02*
X4232283Y3312992D01*
X4192914Y3275591D02*
X4232283D01*
X4683071Y3289370D02*
X4685040Y3291339D01*
X3547244Y3055118D02*
Y3086220D01*
X3543307D02*
X3551181Y3094094D01*
X3618110Y3055118D02*
Y3082677D01*
X3622047Y3086614D01*
X3594488Y3055118D02*
Y3090551D01*
X3570866Y3083071D02*
X3582283Y3094488D01*
X3570866Y3055118D02*
Y3083071D01*
X3054724Y3248032D02*
X3059055Y3243701D01*
X3374016Y3549606D02*
Y3586614D01*
X3373622Y3549213D02*
X3374016Y3549606D01*
X3437008Y3517323D02*
Y3543307D01*
X3433071Y3513386D02*
X3437008Y3517323D01*
X3519685Y3429134D02*
X3520065D01*
X3527559D01*
X3516121Y3425190D02*
X3520065Y3429134D01*
X3503937Y3413386D02*
X3519685Y3429134D01*
X4275591Y3976378D02*
X4291339D01*
X4265354Y3966142D02*
X4275591Y3976378D01*
X4265354Y3928966D02*
Y3966142D01*
Y3923622D02*
Y3928966D01*
Y3923622D02*
X4281496Y3907481D01*
X4255286Y3918898D02*
X4265354Y3928966D01*
X4251575Y3918898D02*
X4255286D01*
X4098425Y3980315D02*
X4114173Y3996063D01*
X4169291D01*
X4356299Y3907481D02*
X4374016Y3925197D01*
Y3933071D01*
X4692913Y3535433D02*
Y3576813D01*
X4685040Y3291339D02*
X4688976Y3295276D01*
X4590551Y4177165D02*
X4759842D01*
X5582677Y4114173D02*
X5594488D01*
X5523622D02*
X5582677D01*
Y4125984D01*
X5594488Y4114173D02*
X5642717Y4162401D01*
X5538386D02*
X5543307Y4157480D01*
X5483268Y4162401D02*
X5492126Y4153543D01*
Y4114173D02*
Y4153543D01*
X5642717Y4239173D02*
X5672244D01*
X5630905D02*
X5642717D01*
X5681102Y4005905D02*
Y4011265D01*
X4098425Y3303150D02*
X4098425Y3303150D01*
X3543307Y4895669D02*
X3549213D01*
X3507874D02*
X3543307D01*
X4685039Y4078740D02*
X4754921D01*
X4846457Y4110236D02*
Y4133858D01*
X4783465Y4098425D02*
Y4153543D01*
X4754921Y4098425D02*
X4783465D01*
X4759842Y4177165D02*
X4783465Y4153543D01*
X4812008Y4059055D02*
X4831693Y4078740D01*
X4846457D01*
X4881890Y3704724D02*
X4944882D01*
X4273622Y4697835D02*
Y4744095D01*
X4253937Y4697835D02*
Y4744095D01*
X5756617Y3504648D02*
X5758868D01*
X5124016Y3828740D02*
X5130905Y3821851D01*
X4051181Y3348426D02*
Y3348579D01*
X4076028Y3373426D02*
X4076181D01*
X4076772Y3374016D01*
Y3412402D01*
X3550787Y3094488D02*
X3551181Y3094094D01*
X3598425Y3094488D02*
X3613779D01*
X3054724Y3248032D02*
X3054724Y3248032D01*
X3324409Y3254331D02*
X3325197D01*
X3324409D02*
Y3295276D01*
X3370079Y3255905D02*
Y3259449D01*
X3365755Y3263773D02*
X3365755Y3263773D01*
X3370079Y3259449D01*
X3363780Y3265748D02*
X3365755Y3263773D01*
X3363780Y3265748D02*
Y3295276D01*
X3618110Y3090551D02*
X3622047Y3086614D01*
X3618110Y3090551D02*
X3625984Y3098425D01*
X3493701Y3413386D02*
X3503937D01*
X3433071Y3513386D02*
X3436614Y3509843D01*
X4673228Y3594488D02*
X4677165Y3598425D01*
X3543307Y4805118D02*
X3572835D01*
X3602362Y4834646D01*
X4334646Y3942914D02*
X4334646Y3942914D01*
X4688976Y3801181D02*
X4724409D01*
X4988189Y3255905D02*
Y3291339D01*
X5228346Y3255905D02*
Y3291339D01*
X5456693Y3255905D02*
Y3291339D01*
X5442913Y3618110D02*
X5458661Y3602362D01*
X5663386Y3391732D02*
X5665354Y3393701D01*
X5696850Y3255905D02*
Y3291339D01*
X5586614Y3543307D02*
X5586614D01*
X5576781Y3553140D02*
X5586614Y3543307D01*
X5576781Y3553140D02*
Y3594215D01*
X5744087Y3492119D02*
X5756617Y3504648D01*
X5744081Y3492126D02*
X5744087Y3492119D01*
X5758868Y3504648D02*
X5758868Y3504648D01*
X4881890Y3704724D02*
X4881890Y3704724D01*
X4980315Y3748031D02*
X4984252Y3751968D01*
X4956693Y3748031D02*
X4980315D01*
X5011811D01*
X4984252Y3751968D02*
Y3787402D01*
X5159449Y3877953D02*
X5173229D01*
X5025591Y3960630D02*
X5051181D01*
X5566929Y4055118D02*
X5590551Y4031496D01*
X5566929Y4055118D02*
Y4056102D01*
X5590551Y4031496D02*
X5600394D01*
X5681102Y4011265D02*
X5686297Y4016459D01*
X5717529D01*
X5925197Y3255905D02*
Y3283464D01*
X5933071Y3291338D01*
X5929134Y3295276D02*
X5933071Y3291338D01*
X6173228Y3255905D02*
Y3291339D01*
X5835322Y3696850D02*
X5842212Y3689961D01*
X5844498Y3692247D01*
X5797244Y3696850D02*
X5835322D01*
X5798228Y3744095D02*
X5842650D01*
X5844498Y3742247D01*
X6236221Y3551181D02*
X6275591D01*
X5798228Y3792323D02*
X5844422D01*
X5844498Y3792247D01*
X6083671Y3959373D02*
X6119104D01*
X6125010Y3965278D01*
X6178159Y4034176D02*
X6200787Y4056804D01*
X6188976Y3830709D02*
X6224409D01*
X6194882Y4064961D02*
X6200787Y4070866D01*
Y4056804D02*
Y4058071D01*
Y4064961D02*
Y4070866D01*
Y4058071D02*
Y4064961D01*
X5059055Y4165354D02*
X5068898Y4155512D01*
X5101378Y4215551D02*
X5102304D01*
X5116142Y4229389D02*
Y4230315D01*
X5102304Y4215551D02*
X5116142Y4229389D01*
Y4230315D02*
X5120079Y4234252D01*
X4946233Y4403543D02*
Y4435039D01*
X4883241Y4435039D02*
X4883241Y4435039D01*
X4958043Y4391732D02*
X4981666D01*
X4985603Y4352362D02*
Y4387795D01*
X4981666Y4391732D02*
X4985603Y4387795D01*
X4981666Y4391732D02*
X5013162D01*
X4883241Y4435039D02*
X4946233D01*
Y4403543D02*
X4958043Y4391732D01*
X5167323Y4454725D02*
X5196850Y4484252D01*
X5704724Y4259843D02*
X5722441D01*
X5734252Y4635827D02*
X5775591D01*
X5731299Y4638780D02*
X5734252Y4635827D01*
X5450787Y4747414D02*
Y4757256D01*
X5464567Y4850394D02*
Y4885827D01*
X5696850Y4850394D02*
Y4885827D01*
X6072725Y4139764D02*
X6080709D01*
X6092520Y4151575D01*
X6094488Y4153543D02*
Y4177165D01*
X6092520Y4175197D02*
Y4192913D01*
Y4175197D02*
X6094488Y4177165D01*
X6192913Y4088918D02*
X6197835Y4083997D01*
X6192913Y4088918D02*
X6193562Y4089567D01*
X6197835Y4082677D02*
Y4083997D01*
X6193562Y4089567D02*
X6197835Y4085295D01*
Y4083997D02*
Y4085295D01*
X6179510Y4105588D02*
Y4125273D01*
X6200787Y4070866D02*
X6202756Y4072835D01*
X6230315D01*
X6232283Y4074803D01*
X6275590D01*
X6179510Y4105588D02*
X6198819Y4086279D01*
X6200787Y4070866D02*
Y4081044D01*
X6197835Y4085295D02*
X6198819Y4086279D01*
X5795276Y4401575D02*
X5837854D01*
X5839822Y4403543D01*
X5845849Y4397517D02*
Y4400197D01*
X5794291Y4450787D02*
X5797562Y4447517D01*
X5794291Y4490158D02*
X5834946D01*
X5929134Y4850394D02*
Y4885827D01*
X6212599Y4330709D02*
X6232283Y4311024D01*
Y4547244D02*
X6259842Y4574803D01*
X6275591D01*
X6177165Y4724409D02*
X6183071Y4718504D01*
X6181102Y4858268D02*
Y4893701D01*
Y4858268D02*
X6185039Y4854331D01*
X5129921Y3625984D02*
X5131890Y3627953D01*
X4980315Y3996063D02*
X4990157Y3986221D01*
X4964567Y4009901D02*
X4978404Y3996063D01*
X4980315D01*
X4883241Y4490158D02*
Y4529527D01*
X4883240Y4529528D02*
X4883241Y4529527D01*
X4964567Y4009901D02*
Y4011811D01*
X4936024Y4012795D02*
X4963583D01*
X4964567Y4011811D01*
X5125984Y4297186D02*
Y4307087D01*
X5130905Y3745079D02*
X5131890Y3744095D01*
X5154302Y4247047D02*
X5155286Y4248032D01*
X5161417D01*
X5125984Y4269685D02*
X5129921Y4273622D01*
X5125984Y4297186D02*
X5129921Y4293249D01*
X5125984Y4269685D02*
X5131664D01*
X5154302Y4247047D01*
X5129921Y4273622D02*
Y4293249D01*
X5125984Y4307087D02*
X5130905Y4312008D01*
X5578729Y3342513D02*
X5582671D01*
X5610236Y3370079D01*
X5627953D01*
Y3434756D02*
X5627962Y3434766D01*
X5635827Y4031496D02*
X5639774Y4027550D01*
X5635827Y4031496D02*
X5653543D01*
X5752963Y3882601D02*
X5759585D01*
X5639774Y3976105D02*
Y4027550D01*
X5653543Y4031496D02*
X5661417Y4039370D01*
X6181102Y3448819D02*
Y3452756D01*
X6143701Y3464567D02*
X6169291D01*
X6181102Y3452756D01*
X5759585Y3882601D02*
X5791278Y3850908D01*
X5823829D01*
X5858782D01*
X5874016Y3866142D01*
X6074803Y3503937D02*
X6098796D01*
X5606299Y4263779D02*
X5630905Y4239173D01*
X5606299Y4263779D02*
Y4267717D01*
X5661417Y4039370D02*
X5673228D01*
X5672244Y4239173D02*
X5698819Y4212599D01*
X6090551Y4637795D02*
X6114173D01*
X6147638Y4671260D02*
Y4677165D01*
X6145669Y4712598D02*
Y4716536D01*
Y4679134D02*
X6147638Y4677165D01*
X6145669Y4679134D02*
Y4712598D01*
X4944882Y3610236D02*
Y3649606D01*
X5095472Y4089567D02*
X5104331Y4098425D01*
Y4141732D01*
X4946233Y4490157D02*
Y4529527D01*
X5122047Y3917323D02*
X5124016Y3915354D01*
X5104331Y4141732D02*
X5124016Y4161417D01*
X5128937Y4451772D02*
X5131890Y4448819D01*
X4946233Y4529527D02*
X4946233Y4529528D01*
X5494094Y3602362D02*
X5543044D01*
X5525862Y3602634D02*
Y3633051D01*
X5462975Y4162401D02*
Y4163659D01*
X5533738Y3899333D02*
X5536417Y3896653D01*
X5793307Y3503937D02*
X5793307Y3503937D01*
X5854331D01*
X5905512D02*
X5909449Y3500000D01*
X5854331Y3503937D02*
X5905512D01*
X5768514Y4000908D02*
X5823829D01*
X5752962Y4016459D02*
X5768514Y4000908D01*
X5823829D02*
X5853423D01*
X5131890Y4389764D02*
Y4448819D01*
X5153543Y4476378D02*
Y4488189D01*
X5483268Y4162401D02*
X5538386D01*
X5757874Y4259843D02*
Y4261221D01*
X5585630Y4538386D02*
X5590551Y4533465D01*
X5614173D01*
X5638779Y4507874D02*
Y4508858D01*
X5757874Y4261221D02*
X5798425D01*
X5795875Y4263771D02*
X5798425Y4261221D01*
X5795875Y4263771D02*
X5814584Y4282480D01*
X5798425Y4261221D02*
X5817135Y4279930D01*
X5834269Y4262795D01*
X5880905D01*
X5814584Y4282480D02*
X5817135Y4279930D01*
X5812992Y4637795D02*
X5870079D01*
X5817135Y4279930D02*
X5824803Y4287598D01*
X5870079Y4637795D02*
X5870079Y4637795D01*
X5929134D01*
X5765672Y3816853D02*
X5873012D01*
X5874905Y3814961D01*
X5915637D01*
X5928159Y3827483D01*
X4104331Y3301181D02*
X4122441Y3319292D01*
X4210630Y3348426D02*
X4232283D01*
X4194882Y3364174D02*
Y3412402D01*
X4273622Y3847441D02*
Y3893701D01*
X4253937Y3847441D02*
Y3893701D01*
X4422244Y3482284D02*
X4455709Y3448819D01*
X4422244Y3482284D02*
Y3501969D01*
X4334646Y3907481D02*
X4356299D01*
X4531496Y4118110D02*
Y4118110D01*
X4590551Y4177165D01*
X4135827Y3372048D02*
Y3412402D01*
X4122441Y3319292D02*
Y3331103D01*
X4155512Y3364174D01*
Y3412402D01*
X4027559Y3372048D02*
Y3381890D01*
X5095472Y4063976D02*
X5148622D01*
X4196850Y3346457D02*
X4198819Y3348426D01*
X4210630D01*
X4311023Y3346457D02*
X4311024Y3346457D01*
X4279528Y3346457D02*
X4311023D01*
X4181102Y3287402D02*
X4181103Y3287402D01*
X4181102Y3263780D02*
Y3287402D01*
Y3311024D01*
X3891732Y4586615D02*
Y4612205D01*
X4106299Y4830709D02*
X4145669Y4791339D01*
X4098425Y4830709D02*
X4106299D01*
X4145669Y4791339D02*
X4161417Y4807087D01*
X4169291D01*
X4192913D01*
Y4826772D01*
X4169291Y4850394D02*
X4192913Y4826772D01*
X4240157Y4759843D02*
X4245837D01*
X4263779Y4777785D01*
X4281722Y4759843D02*
X4287401D01*
X4263779Y4777785D02*
X4281722Y4759843D01*
X4263779Y4777785D02*
Y4777785D01*
Y4832158D01*
X4090551Y4830709D02*
X4098425D01*
X4051181Y4791339D02*
X4090551Y4830709D01*
X4098425D02*
Y4862205D01*
X4118110Y4881890D01*
X4133858D01*
X4570866Y4742126D02*
Y4746063D01*
X4549212Y4720473D02*
X4570866Y4742126D01*
X4549212Y4720472D02*
X4549212Y4720473D01*
X4570866Y4698819D01*
X4535433Y4724409D02*
X4545275D01*
X4513780D02*
X4535433D01*
X4545275D02*
X4549212Y4720472D01*
X4618110Y4074803D02*
X4681102D01*
X4685039Y4078740D01*
X4181102Y4114174D02*
Y4149606D01*
X4181102Y4114174D02*
X4181102Y4114174D01*
X4196850Y4173228D02*
Y4185039D01*
X4291339Y4161417D02*
Y4185039D01*
X4279528Y4149606D02*
X4291339Y4161417D01*
X4196850Y4173228D02*
X4216535Y4153543D01*
X4208662Y4114174D02*
X4244095Y4149606D01*
X4181102Y4114174D02*
X4208662D01*
X4090551Y3980315D02*
X4098425D01*
X4051181Y3940945D02*
X4090551Y3980315D01*
X4287401Y3940945D02*
X4311024D01*
X4334646D01*
X5228346Y4850394D02*
X5228346Y4850394D01*
Y4893701D01*
X5759842Y4212599D02*
X5767717Y4220472D01*
X5767725Y4220464D01*
X5767733Y4220472D01*
X5767717Y4220489D02*
X5767733Y4220472D01*
X5769685Y4224426D02*
X5770652Y4225394D01*
X5771637Y4224409D01*
X5769685Y4222458D02*
X5771637Y4224409D01*
X5769685Y4221457D02*
Y4222458D01*
Y4224426D01*
X3054724Y3208268D02*
Y3248032D01*
X3051181Y3204724D02*
X3054724Y3208268D01*
X5124016Y3828740D02*
Y3915354D01*
X5130905Y4388780D02*
X5131890Y4389764D01*
X5128937Y4451772D02*
X5153543Y4476378D01*
X5543044Y3602362D02*
X5551191Y3594215D01*
X5853423Y4000908D02*
X5877961Y3976370D01*
X5614173Y4533465D02*
X5638779Y4508858D01*
X5614173Y4533465D02*
X5638780D01*
X3594488Y3090551D02*
X3598425Y3094488D01*
X3434646Y3507874D02*
X3436614Y3509843D01*
X4677165Y3295276D02*
X4688976D01*
X4692913Y3576813D02*
X4710589Y3594488D01*
X4472441Y4704724D02*
X4500984Y4733268D01*
X4492126Y4738189D02*
X4500000D01*
X5068898Y4141732D02*
Y4155512D01*
X5120079Y4234252D02*
X5125984D01*
X5663386Y3370079D02*
Y3391732D01*
X5844498Y3692247D02*
Y3742247D01*
Y3792247D01*
X6178159Y4014491D02*
X6212598Y3980052D01*
X6194882Y4064961D02*
X6200787D01*
X6233634D01*
X5167323Y4448819D02*
Y4454725D01*
X5734252Y4212599D02*
X5759842D01*
X5767717Y4220489D02*
X5769685Y4222458D01*
X5797562Y4447517D02*
X5845849D01*
X5839822Y4403543D02*
X5845849Y4397517D01*
Y4400197D02*
Y4447517D01*
X5834946Y4490158D02*
X5844004Y4499216D01*
X6092520Y4151575D02*
Y4175197D01*
X6197835Y4083997D02*
X6200787Y4081044D01*
X6179510Y4125273D02*
X6193290Y4139052D01*
X6196850Y4314961D02*
X6212599Y4330709D01*
X6183071Y4675197D02*
Y4718504D01*
X6220472Y4476378D02*
X6334646D01*
D79*
X6065955Y3634569D02*
X6128947D01*
X6034458Y3666066D02*
X6065955Y3634569D01*
X6124737Y3666339D02*
X6144685D01*
X6104331Y3686744D02*
X6124737Y3666339D01*
X6144685D02*
X6164380Y3646644D01*
X5890748Y3615376D02*
X6153061D01*
X5820647D02*
X5890748D01*
X5890653Y3615472D02*
X5890748Y3615376D01*
X5890653Y3615472D02*
Y3660265D01*
X5807586Y3638280D02*
X5813976Y3631890D01*
Y3622047D02*
Y3631890D01*
Y3622047D02*
X5820647Y3615376D01*
X5787901Y3638280D02*
X5807586D01*
X5839840Y3581420D02*
X5853356D01*
X5807087Y3614173D02*
X5839840Y3581420D01*
X5793307Y3614173D02*
X5807087D01*
X5870307Y3680610D02*
X5890653Y3660265D01*
X5781496Y3644685D02*
X5787901Y3638280D01*
X5781496Y3644685D02*
Y3666907D01*
X5795200Y3680610D01*
X5780020D02*
X5795200D01*
X5692913Y3676181D02*
Y3714567D01*
Y3676181D02*
Y3676181D01*
X5713583Y3696850D02*
X5763779D01*
X5692913Y3676181D02*
X5713583Y3696850D01*
X5687008Y3670276D02*
X5692913Y3676181D01*
X5642717Y3670276D02*
X5687008D01*
X5626477Y3654036D02*
X5642717Y3670276D01*
X5577756Y3595472D02*
X5578740Y3596457D01*
Y3633858D01*
X5589075Y3644193D01*
Y3655020D01*
X5597933Y3663878D02*
Y3672477D01*
X5589075Y3655020D02*
X5597933Y3663878D01*
X5692913Y3714567D02*
X5708661D01*
X5640023D02*
X5692913D01*
X5708661D02*
X5714567Y3720472D01*
X5597933Y3672477D02*
X5640023Y3714567D01*
X5714567Y3789370D02*
X5756912Y3831715D01*
X5714567Y3720472D02*
Y3789370D01*
X6109754Y4012030D02*
X6132884Y3988900D01*
X6109367Y4012030D02*
X6109754D01*
X6132884Y3973152D02*
Y3988900D01*
X6158297Y4026124D02*
X6170108D01*
X6119461Y4064961D02*
X6158297Y4026124D01*
X6053652Y3989392D02*
Y4008858D01*
X6051683Y3987424D02*
X6053652Y3989392D01*
X6041841Y4020669D02*
X6053652Y4008858D01*
X5941447Y3845514D02*
Y4000000D01*
X5981604Y3976378D02*
X6040637D01*
X5964084Y3958858D02*
X5981604Y3976378D01*
X6040637D02*
X6051683Y3987424D01*
X6100613Y3864392D02*
X6110190Y3873970D01*
X6052931Y3864392D02*
X6100613D01*
X6042323Y3875000D02*
X6052931Y3864392D01*
X5971457Y3875000D02*
X6042323D01*
X5964084Y3882372D02*
X5971457Y3875000D01*
X5964084Y3882372D02*
Y3958858D01*
X6092301Y3825022D02*
X6104331Y3812992D01*
Y3686744D02*
Y3812992D01*
X6053811Y3825022D02*
X6092301D01*
X6164380Y3626695D02*
Y3646644D01*
X6232283Y3641732D02*
Y3678150D01*
Y3602362D02*
Y3641732D01*
Y3678150D02*
X6236220Y3682087D01*
X6340551D01*
X6346457Y3687992D01*
Y3719488D01*
X6356496Y3729528D01*
X6477362D01*
X6464567Y3947638D02*
X6477362D01*
X6403346D02*
X6464567D01*
X6232283Y3838583D02*
Y3899606D01*
X6259842Y3927165D01*
X6382874D01*
X6403346Y3947638D01*
X5904528Y4111220D02*
X5921260Y4094488D01*
X5880905Y4309055D02*
X5904528Y4285433D01*
Y4111220D02*
Y4285433D01*
X5463583Y4427165D02*
Y4437992D01*
Y4427165D02*
X5475394Y4415354D01*
X5643701D02*
X5692913Y4366142D01*
X5475394Y4415354D02*
X5643701D01*
X5718504Y4309055D02*
X5880905D01*
X5692913Y4334646D02*
X5718504Y4309055D01*
X5692913Y4334646D02*
Y4366142D01*
X5803048Y4330810D02*
X5877070D01*
X5878937Y4332677D01*
X5794783Y4339075D02*
X5803048Y4330810D01*
X5878937Y4332677D02*
Y4378445D01*
X5560039Y4465551D02*
X5569390Y4456201D01*
X5706201D01*
X5716535Y4445866D01*
Y4393701D02*
Y4445866D01*
Y4393701D02*
X5740158Y4370079D01*
X5857185Y4400197D02*
X5878937Y4378445D01*
X6170275Y4654528D02*
X6172244Y4656496D01*
X6167323Y4651575D02*
X6170275Y4654528D01*
X6151575D02*
X6170275D01*
X6193758Y4656496D02*
X6224270Y4687008D01*
X6172244Y4656496D02*
X6193758D01*
X6224270Y4687008D02*
X6314821D01*
X6167323Y4620079D02*
X6185039Y4602362D01*
X6167323Y4620079D02*
Y4651575D01*
X6203740Y4625717D02*
Y4638640D01*
X6232423Y4667323D01*
X6322975D01*
X6340551Y4684900D01*
Y4763640D01*
X6344628Y4767717D01*
X6354331D01*
X6378937Y4743110D01*
X6477362D01*
X6185039Y4596457D02*
Y4602362D01*
X6372892Y4823819D02*
X6476378D01*
X6320866Y4771793D02*
X6372892Y4823819D01*
X6320866Y4693053D02*
Y4771793D01*
X6314821Y4687008D02*
X6320866Y4693053D01*
X6185039Y4635827D02*
X6187008D01*
X6228346Y4677165D01*
X6318898D01*
X6330709Y4688976D01*
Y4767717D01*
X6346457Y4783465D01*
X6471457D01*
X6009842Y3348425D02*
X6014272D01*
X6047736Y3314961D01*
Y3034682D02*
Y3314961D01*
Y3034682D02*
X6200036Y2882382D01*
X6349902D01*
X6349902Y2905020D02*
X6378937Y2934055D01*
X6349902Y2882382D02*
X6378937Y2853347D01*
X6472441D01*
X6082677Y3334646D02*
Y3360236D01*
X6070374Y3322343D02*
X6082677Y3334646D01*
X6070374Y3044059D02*
Y3322343D01*
Y3044059D02*
X6209413Y2905020D01*
X6349902D01*
X6378937Y2934055D02*
X6476378D01*
X6082677Y3360236D02*
X6121565Y3399124D01*
Y3460988D01*
X6110236Y3515748D02*
X6132655Y3493329D01*
X6135122D01*
X6140262Y3488189D01*
X6190542D01*
X6100394Y3478346D02*
X6111722Y3467018D01*
Y3405289D02*
Y3467018D01*
X6190542Y3488189D02*
X6200384Y3478346D01*
X6295136D01*
X6320866Y3452616D01*
X6330709Y3397638D02*
Y3456693D01*
X6340551Y3401715D02*
Y3460770D01*
X6299213Y3488189D02*
X6330709Y3456693D01*
X6303289Y3498032D02*
X6340551Y3460770D01*
X6204461Y3488189D02*
X6299213D01*
X6208538Y3498032D02*
X6303289D01*
X6320866Y3383858D02*
Y3452616D01*
Y3383858D02*
X6378937Y3325787D01*
X6476378D01*
X6178159Y3553861D02*
X6182360D01*
X6196850Y3539370D01*
Y3509719D02*
Y3539370D01*
Y3509719D02*
X6208538Y3498032D01*
X6340551Y3401715D02*
X6352502Y3389764D01*
X6362205D01*
X6378937Y3406496D01*
X6476378D01*
X6330709Y3397638D02*
X6350394Y3377953D01*
X6459646D01*
X6471457Y3366142D01*
X6178159Y3514491D02*
X6204461Y3488189D01*
X3566929Y4830709D02*
Y4889764D01*
X3561024Y4895669D02*
X3566929Y4889764D01*
X3549213Y4895669D02*
X3561024D01*
X5773622Y3637795D02*
X5793307Y3618110D01*
X5744095Y3637795D02*
X5773622D01*
X4381890Y4759188D02*
Y4761811D01*
Y4759188D02*
X4382382Y4758695D01*
Y4745242D02*
Y4758695D01*
X4372869Y4735728D02*
X4382382Y4745242D01*
X4359415Y4735728D02*
X4372869D01*
X4358922Y4736221D02*
X4359415Y4735728D01*
X4342520Y4736221D02*
X4358922D01*
X4381890Y4761811D02*
X4407480Y4787402D01*
X4353346Y4697835D02*
X4407480Y4751969D01*
X4585138Y4569390D02*
X4590551Y4574803D01*
X4519685Y4569390D02*
X4585138D01*
X4519685Y4531446D02*
Y4531496D01*
X4515748Y4566929D02*
X4519685Y4562992D01*
X4515748Y4566929D02*
Y4594488D01*
X4519685Y4562992D02*
Y4569390D01*
X4511811Y4488189D02*
X4515748D01*
X5941447Y3845514D02*
X5968041Y3818920D01*
X6125010Y3932096D02*
Y3965278D01*
X6117893Y3924980D02*
X6125010Y3932096D01*
X6114514Y3924980D02*
X6117893D01*
X6110190Y3920655D02*
X6114514Y3924980D01*
X6110190Y3873970D02*
Y3920655D01*
X5897155Y3843723D02*
Y3989723D01*
X5885147Y3831715D02*
X5897155Y3843723D01*
X5896958Y3989920D02*
X5897155Y3989723D01*
X5941447Y4000000D02*
X5962116Y4020669D01*
X6086316Y4381595D02*
X6109688Y4404967D01*
X6086316Y4335135D02*
Y4381595D01*
X6081992Y4330810D02*
X6086316Y4335135D01*
X5981400Y4330810D02*
X6081992D01*
X5965059Y4314469D02*
X5981400Y4330810D01*
X5965059Y4260334D02*
Y4314469D01*
X5520177Y4574803D02*
X5520670Y4574311D01*
X5526738D01*
X5527722Y4575295D01*
X5555610D01*
X5560039Y4570866D01*
X5752959Y4339075D02*
X5794783D01*
X5740158Y4351876D02*
X5752959Y4339075D01*
X5740158Y4351876D02*
Y4370079D01*
X5560039Y4465551D02*
Y4538386D01*
X6112916Y4505194D02*
X6122047Y4496063D01*
X6070746Y4505194D02*
X6112916D01*
X5622047Y3633858D02*
X5626477Y3638288D01*
Y3654036D01*
X5763779Y3696850D02*
X5780020Y3680610D01*
X6153061Y3615376D02*
X6164380Y3626695D01*
X5756912Y3831715D02*
X5885147D01*
X5968041Y3818920D02*
X6047708D01*
X6053811Y3825022D01*
X6164380Y3626695D02*
X6217247D01*
X6232283Y3641732D01*
X6224409Y3649606D02*
X6232283Y3641732D01*
X6051683Y3987424D02*
X6079734Y3959373D01*
X5896958Y3989920D02*
Y4022325D01*
X5962116Y4020669D02*
X6041841D01*
X5896958Y4022325D02*
X5921260Y4046626D01*
X5897638Y4078740D02*
X5921260Y4055118D01*
Y4046626D02*
X5939594Y4064961D01*
X5921260Y4046626D02*
Y4055118D01*
X5939594Y4064961D02*
X6119461D01*
X5897638Y4078740D02*
X5905512D01*
X5921260Y4094488D01*
X5942421Y4073327D01*
X6119335D01*
X4515748Y3637795D02*
Y3643110D01*
X4381890Y3911418D02*
X4407480Y3937008D01*
X4381890Y3897638D02*
Y3911418D01*
X3561024Y4824803D02*
X3566929Y4830709D01*
X3543307Y4824803D02*
X3561024D01*
X3985236Y4586615D02*
X3987205Y4584646D01*
X3985236Y4586615D02*
X3987205Y4588583D01*
Y4568898D02*
Y4584646D01*
X4332677Y4726378D02*
X4342520Y4736221D01*
X4332677Y4697835D02*
Y4726378D01*
X4352362Y4697835D02*
X4353346D01*
X3927165Y4586615D02*
X3985236D01*
X6038888Y3484969D02*
X6045679Y3491761D01*
X6038888Y3473146D02*
X6059278Y3452756D01*
X6073829D01*
X6038888Y3473146D02*
Y3484969D01*
X5724409Y3625984D02*
X5732283D01*
X5744095Y3637795D01*
X5808563Y3596949D02*
X5818415Y3587097D01*
Y3575508D02*
X5838094Y3555829D01*
X5818415Y3575508D02*
Y3587097D01*
X5757874Y3604331D02*
X5765256Y3596949D01*
X5757874Y3604331D02*
Y3618110D01*
X5765256Y3596949D02*
X5808563D01*
X5838094Y3555829D02*
X5853356D01*
X6059055Y3383858D02*
X6090292D01*
X6074803Y3478346D02*
X6100394D01*
X6090292Y3383858D02*
X6111722Y3405289D01*
X4352362Y3847441D02*
X4353346D01*
X4407480Y3901575D01*
X4332677Y3847441D02*
Y3875985D01*
X4342520Y3885827D01*
X4370079D01*
X4381890Y3897638D01*
X6014370Y4187598D02*
X6049704Y4222933D01*
Y4223065D01*
X6067290Y4240650D01*
X6067422D01*
X6078740Y4251968D01*
Y4253937D01*
X6079734Y3959373D02*
X6083671D01*
X6125010Y3965278D02*
X6132884Y3973152D01*
X6106783Y4014614D02*
X6109367Y4012030D01*
X6170108Y4026124D02*
X6178159Y4034176D01*
X5965059Y4145548D02*
Y4260334D01*
Y4129648D02*
Y4145548D01*
X6043383Y4118405D02*
X6064742Y4139764D01*
X5965059Y4129648D02*
X5976302Y4118405D01*
X6043383D01*
X5965059Y4145548D02*
X5987916Y4168405D01*
X6064742Y4139764D02*
X6072725D01*
X6043383Y4168405D02*
X6054626Y4179648D01*
X5987916Y4168405D02*
X6043383D01*
X6054626Y4179648D02*
Y4180118D01*
X6059547Y4185039D02*
Y4218988D01*
X6054626Y4180118D02*
X6059547Y4185039D01*
X5965059Y4260334D02*
X6036918D01*
X6059547Y4218988D02*
X6071367Y4230807D01*
X6054626Y4278043D02*
Y4295768D01*
X6036918Y4260334D02*
X6054626Y4278043D01*
X6088816Y4230807D02*
X6110236Y4252228D01*
X6071367Y4230807D02*
X6088816D01*
X6064468Y4305610D02*
X6099901D01*
X6110236Y4252228D02*
Y4295276D01*
X6099901Y4305610D02*
X6110236Y4295276D01*
X6125984D01*
X5783465Y4350394D02*
X5794783Y4339075D01*
X5783465Y4350394D02*
Y4378570D01*
X5799213Y4394319D01*
X5795276Y4398256D02*
X5799213Y4394319D01*
X5795276Y4398256D02*
Y4401575D01*
X5845472Y4400197D02*
X5845849D01*
X6054626Y4295768D02*
X6064468Y4305610D01*
X5845849Y4400197D02*
X5857185D01*
X6067069Y4501517D02*
X6070746Y4505194D01*
X3927165Y3736221D02*
X3985236D01*
X5795200Y3680610D02*
X5870307D01*
X6119335Y4073327D02*
X6159648Y4113639D01*
X6171459D02*
X6179510Y4105588D01*
X6159648Y4113639D02*
X6171459D01*
D80*
X3412992Y3225393D02*
Y3326771D01*
X3397638Y3210039D02*
X3412992Y3225393D01*
X3795276Y3267716D02*
X3818898D01*
X3771653D02*
X3795276D01*
X3748032D02*
X3771653D01*
X3818898D02*
X3842520D01*
X3397638Y3125984D02*
Y3210039D01*
X3499016Y3212599D02*
X3499017Y3212598D01*
X3590158D01*
X3492520Y3125984D02*
X3516142Y3102362D01*
X3590158D01*
X3177165Y3177165D02*
Y3212598D01*
X3204331Y3566929D02*
X3204331Y3566928D01*
Y3510827D02*
Y3566928D01*
X3177165Y3177165D02*
X3204724D01*
X3232284D01*
X3259843D01*
X3287402D01*
X3314961D01*
X3054331Y3425197D02*
X3054724Y3424803D01*
Y3346457D02*
Y3424803D01*
X3173155Y3212598D02*
X3177165D01*
X3157407Y3228347D02*
X3173155Y3212598D01*
X3101305Y3284449D02*
X3157407Y3228347D01*
X3098736Y3284449D02*
X3101305D01*
X3097047Y3286137D02*
X3098736Y3284449D01*
X3097047Y3286137D02*
Y3286418D01*
X3071456D02*
X3097047D01*
X3054724Y3303150D02*
X3071456Y3286418D01*
X3054724Y3303150D02*
Y3346457D01*
X3692913Y3212598D02*
X3748032Y3267716D01*
X3590158Y3212598D02*
X3692913D01*
D81*
X3444488Y3399606D02*
X3462205Y3417323D01*
X3470079Y3503657D02*
Y3507874D01*
X3505512Y3342520D02*
X3533071D01*
X5751968Y4319882D02*
X5928526D01*
X5716535Y4355315D02*
X5751968Y4319882D01*
X4584646Y4517717D02*
X4590551Y4523622D01*
X4555118Y4517717D02*
X4584646D01*
X4590551Y4574803D02*
Y4598425D01*
Y4555118D02*
Y4574803D01*
X4592520Y4521654D02*
X4629921D01*
X4590551Y4523622D02*
X4592520Y4521654D01*
X4673228Y4539370D02*
X4681102Y4547244D01*
X4610236Y4539370D02*
X4673228D01*
X4594488Y4555118D02*
X4610236Y4539370D01*
X4590551Y4555118D02*
X4594488D01*
X4615425Y4437008D02*
X4665354D01*
X4590551Y3724409D02*
X4669291D01*
X4515748Y3740157D02*
X4524874D01*
X4540622Y3724409D01*
X3497638Y3456693D02*
X3527839D01*
X3527447Y3407874D02*
X3534138D01*
X3527839Y3456693D02*
X3547244Y3437288D01*
X3534138Y3407874D02*
X3547244Y3420980D01*
Y3437288D01*
X4540622Y3724409D02*
X4590551D01*
X3409055Y3379921D02*
X3445164D01*
X3486811Y3361220D02*
X3505512Y3342520D01*
X3445164Y3379921D02*
X3457959Y3392717D01*
X3486811Y3361220D02*
Y3388104D01*
X3482199Y3392717D02*
X3486811Y3388104D01*
X3457959Y3392717D02*
X3482199D01*
X3486811Y3388104D02*
X3492014Y3393307D01*
X3512880D01*
X3527447Y3407874D01*
X3533071Y3342520D02*
X3542914Y3352362D01*
X3409055Y3399606D02*
X3444488D01*
X3462205Y3417323D02*
Y3456693D01*
X3344095Y3484252D02*
X3373622Y3513780D01*
X3344095Y3444882D02*
Y3484252D01*
X3409055Y3419291D02*
Y3444882D01*
X3416929Y3452756D01*
X3419177D01*
X3470079Y3503657D01*
D82*
X6091618Y4096260D02*
X6167323Y4171964D01*
X6155029Y3982503D02*
Y3998073D01*
X6116343Y4036759D02*
X6155029Y3998073D01*
X5928526Y4319882D02*
Y4386100D01*
Y4118541D02*
Y4319882D01*
Y4386100D02*
X5929510Y4387084D01*
X5919301Y3836341D02*
Y4013348D01*
Y3836341D02*
X5928159Y3827483D01*
X5919301Y4013348D02*
X5948767Y4042815D01*
X6464567Y3944685D02*
Y3947638D01*
X6172572Y3736877D02*
Y3788543D01*
Y3736877D02*
X6192913Y3716535D01*
X6318898D01*
X6291338Y3870079D02*
X6318898Y3842520D01*
X6291338Y3870079D02*
Y3897638D01*
X6188976Y4405512D02*
X6224409Y4440945D01*
X6173547Y4390082D02*
X6188976Y4405512D01*
X6173547Y4357838D02*
Y4390082D01*
X6224409Y4440945D02*
X6318898D01*
X6291339Y4287402D02*
X6318898Y4314961D01*
X6291339Y4255905D02*
Y4287402D01*
X3137795Y3425197D02*
X3144686Y3418307D01*
X3204331D01*
X3210237Y3424213D01*
X3259449D01*
X3280118Y3444882D01*
X5928159Y3752680D02*
Y3827483D01*
X6172572Y3897913D02*
X6178159Y3903500D01*
X6083671Y4034176D02*
X6086255Y4036759D01*
X5948767Y4042815D02*
X6075032D01*
X6083671Y4034176D01*
X6086255Y4036759D02*
X6116343D01*
X6178159Y3903500D02*
Y3959373D01*
X6155029Y3982503D02*
X6178159Y3959373D01*
X5928526Y4118541D02*
X5950807Y4096260D01*
X6091618D01*
X6167323Y4171964D02*
Y4192913D01*
X6173547Y4199137D01*
Y4248468D01*
X6346457Y3897638D02*
X6405512Y3838583D01*
X6471457D01*
X6346457Y4255905D02*
Y4271654D01*
X6385827Y4311024D01*
X6471457D01*
D83*
X3472047Y3340551D02*
X3472441Y3340157D01*
Y3287402D02*
Y3340157D01*
Y3239174D02*
Y3287402D01*
Y3239174D02*
X3499016Y3212599D01*
D84*
X3122047Y3594488D02*
X3149606Y3566929D01*
X5167323Y3692913D02*
X5192913Y3667323D01*
Y3661417D02*
Y3667323D01*
X3299213Y3094488D02*
X3338583D01*
X3338583Y3094488D01*
X3157480Y3566929D02*
X3204331D01*
X3122047D02*
X3149606D01*
X3157480D01*
X3122047Y3566929D02*
X3122047Y3566929D01*
X3133858Y3543307D02*
X3157480Y3566929D01*
X3122047Y3543307D02*
X3133858D01*
X3023622Y3204724D02*
X3051181D01*
X3078740D01*
D85*
X4075000Y3175000D02*
X4076772Y3173228D01*
X4075000Y3075000D02*
X4076772Y3076772D01*
D86*
X6255905Y5255905D02*
X6471457D01*
X6049213Y5049213D02*
X6255905Y5255905D01*
X6049213Y4814961D02*
Y5049213D01*
X6007874Y4773622D02*
X6049213Y4814961D01*
D87*
X3933071Y3456693D02*
X3961614D01*
X3973425Y3468504D02*
X3992126D01*
X3961614Y3456693D02*
X3973425Y3468504D01*
X3987205Y3482284D01*
X3992126Y3468504D02*
X4011811Y3448819D01*
D88*
X3334646Y3661417D02*
Y3700775D01*
X3354324D01*
X3360884Y3694215D01*
Y3681096D01*
X3354324Y3674536D01*
X3334646D01*
X3347765D02*
X3360884Y3661417D01*
X3380563D02*
X3393682D01*
X3400241Y3667977D01*
Y3681096D01*
X3393682Y3687655D01*
X3380563D01*
X3374003Y3681096D01*
Y3667977D01*
X3380563Y3661417D01*
X3439599Y3687655D02*
X3419920D01*
X3413360Y3681096D01*
Y3667977D01*
X3419920Y3661417D01*
X3439599D01*
X3452718D02*
Y3700775D01*
Y3674536D02*
X3472397Y3687655D01*
X3452718Y3674536D02*
X3472397Y3661417D01*
X3511754D02*
X3498635D01*
X3492075Y3667977D01*
Y3681096D01*
X3498635Y3687655D01*
X3511754D01*
X3518314Y3681096D01*
Y3674536D01*
X3492075D01*
X3537992Y3694215D02*
Y3687655D01*
X3531433D01*
X3544552D01*
X3537992D01*
Y3667977D01*
X3544552Y3661417D01*
X3564231Y3700775D02*
Y3661417D01*
X3590469D01*
X3610148D02*
X3623267D01*
X3629826Y3667977D01*
Y3681096D01*
X3623267Y3687655D01*
X3610148D01*
X3603588Y3681096D01*
Y3667977D01*
X3610148Y3661417D01*
X3656064Y3648298D02*
X3662624D01*
X3669184Y3654858D01*
Y3687655D01*
X3649505D01*
X3642945Y3681096D01*
Y3667977D01*
X3649505Y3661417D01*
X3669184D01*
X3695422Y3648298D02*
X3701981D01*
X3708541Y3654858D01*
Y3687655D01*
X3688862D01*
X3682303Y3681096D01*
Y3667977D01*
X3688862Y3661417D01*
X3708541D01*
X3741339D02*
X3728220D01*
X3721660Y3667977D01*
Y3681096D01*
X3728220Y3687655D01*
X3741339D01*
X3747898Y3681096D01*
Y3674536D01*
X3721660D01*
X3761017Y3687655D02*
Y3661417D01*
Y3674536D01*
X3767577Y3681096D01*
X3774137Y3687655D01*
X3780696D01*
D89*
X3521464Y3607607D02*
X3528024Y3594488D01*
X3534583Y3607607D01*
X3541143Y3610887D02*
X3544423Y3614167D01*
X3550982D01*
X3554262Y3610887D01*
Y3597768D01*
X3550982Y3594488D01*
X3544423D01*
X3541143Y3597768D01*
Y3610887D01*
X3560822Y3594488D02*
Y3597768D01*
X3564101D01*
Y3594488D01*
X3560822D01*
X3590340D02*
X3577220D01*
X3590340Y3607607D01*
Y3610887D01*
X3587060Y3614167D01*
X3580500D01*
X3577220Y3610887D01*
X3669054Y3594488D02*
X3655935D01*
X3669054Y3607607D01*
Y3610887D01*
X3665774Y3614167D01*
X3659215D01*
X3655935Y3610887D01*
X3675613D02*
X3678893Y3614167D01*
X3685453D01*
X3688733Y3610887D01*
Y3597768D01*
X3685453Y3594488D01*
X3678893D01*
X3675613Y3597768D01*
Y3610887D01*
X3695292Y3594488D02*
X3701852D01*
X3698572D01*
Y3614167D01*
X3695292Y3610887D01*
X3724810Y3614167D02*
X3718250Y3610887D01*
X3711691Y3604327D01*
Y3597768D01*
X3714971Y3594488D01*
X3721530D01*
X3724810Y3597768D01*
Y3601048D01*
X3721530Y3604327D01*
X3711691D01*
X3731369D02*
X3744489D01*
X3751048Y3610887D02*
X3754328Y3614167D01*
X3760887D01*
X3764167Y3610887D01*
Y3597768D01*
X3760887Y3594488D01*
X3754328D01*
X3751048Y3597768D01*
Y3610887D01*
X3770727Y3597768D02*
X3774006Y3594488D01*
X3780566D01*
X3783846Y3597768D01*
Y3610887D01*
X3780566Y3614167D01*
X3774006D01*
X3770727Y3610887D01*
Y3607607D01*
X3774006Y3604327D01*
X3783846D01*
D90*
X5975981Y4425200D02*
D03*
X5983855Y3712602D02*
D03*
D91*
X5975000Y3175000D02*
D03*
X5875000D02*
D03*
X5775000D02*
D03*
X5675000D02*
D03*
X5575000D02*
D03*
X5475000D02*
D03*
X5375000D02*
D03*
X5275000D02*
D03*
X5175000D02*
D03*
X5075000D02*
D03*
X4975000D02*
D03*
X4875000D02*
D03*
X4775000D02*
D03*
X4675000D02*
D03*
X4575000D02*
D03*
X4475000D02*
D03*
X4375000D02*
D03*
X4275000D02*
D03*
X4175000D02*
D03*
X4075000D02*
D03*
X3975000D02*
D03*
X3875000D02*
D03*
X3775000D02*
D03*
X5975000Y3075000D02*
D03*
X5875000D02*
D03*
X5775000D02*
D03*
X5675000D02*
D03*
X5575000D02*
D03*
X5475000D02*
D03*
X5375000D02*
D03*
X5275000D02*
D03*
X5175000D02*
D03*
X5075000D02*
D03*
X4975000D02*
D03*
X4875000D02*
D03*
X4775000D02*
D03*
X4675000D02*
D03*
X4575000D02*
D03*
X4475000D02*
D03*
X4375000D02*
D03*
X4275000D02*
D03*
X4175000D02*
D03*
X4075000D02*
D03*
X3975000D02*
D03*
X3875000D02*
D03*
Y4975000D02*
D03*
X3975000D02*
D03*
X4075000D02*
D03*
X4175000D02*
D03*
X4275000D02*
D03*
X4375000D02*
D03*
X4475000D02*
D03*
X4575000D02*
D03*
X4675000D02*
D03*
X4775000D02*
D03*
X4875000D02*
D03*
X4975000D02*
D03*
X5075000D02*
D03*
X5175000D02*
D03*
X5275000D02*
D03*
X5375000D02*
D03*
X5475000D02*
D03*
X5575000D02*
D03*
X5675000D02*
D03*
X5775000D02*
D03*
X5875000D02*
D03*
X5975000D02*
D03*
X3775000Y5075000D02*
D03*
X3875000D02*
D03*
X3975000D02*
D03*
X4075000D02*
D03*
X4175000D02*
D03*
X4275000D02*
D03*
X4375000D02*
D03*
X4475000D02*
D03*
X4575000D02*
D03*
X4675000D02*
D03*
X4775000D02*
D03*
X4875000D02*
D03*
X4975000D02*
D03*
X5075000D02*
D03*
X5175000D02*
D03*
X5275000D02*
D03*
X5375000D02*
D03*
X5475000D02*
D03*
X5575000D02*
D03*
X5675000D02*
D03*
X5775000D02*
D03*
X5875000D02*
D03*
X5975000D02*
D03*
D92*
X3775000Y3075000D02*
D03*
Y4975000D02*
D03*
D93*
X3858268Y3876378D02*
D03*
Y3976378D02*
D03*
Y4076378D02*
D03*
Y4276378D02*
D03*
Y4376378D02*
D03*
Y4176378D02*
D03*
D94*
Y4476378D02*
D03*
D95*
X5562992Y3667323D02*
D03*
X6255905Y4645669D02*
D03*
X6476378Y4728346D02*
D03*
Y4838583D02*
D03*
X6181102Y3413386D02*
D03*
X6472441Y2838583D02*
D03*
X6476378Y2948819D02*
D03*
X3342520Y4818898D02*
D03*
X3322828Y4854321D02*
D03*
X3385827Y4905512D02*
D03*
X3326772Y5015748D02*
D03*
X3377953Y5023622D02*
D03*
X4358268Y4405512D02*
D03*
X4354331Y3602362D02*
D03*
X5637795Y4602362D02*
D03*
X3696850Y4893701D02*
D03*
X3590551Y4897638D02*
D03*
X5803138Y3657473D02*
D03*
X4370079Y4637795D02*
D03*
X5374016Y3582677D02*
D03*
X5287402Y4551181D02*
D03*
X5192913Y3661417D02*
D03*
X5118110Y4503937D02*
D03*
X5196850Y3838583D02*
D03*
X4059055Y4086614D02*
D03*
X3944882Y3834646D02*
D03*
X4307087Y4452756D02*
D03*
X4751968Y4602362D02*
D03*
X4724409Y4940945D02*
D03*
X4279519Y4570857D02*
D03*
X5003937Y4897638D02*
D03*
X4968504Y4909449D02*
D03*
X4637795Y3413386D02*
D03*
X3933063Y4129913D02*
D03*
X3929126Y4448810D02*
D03*
X3929134Y4401575D02*
D03*
X5429134Y4775591D02*
D03*
X5425197Y3618110D02*
D03*
X5681102Y4275591D02*
D03*
X3216535Y3366142D02*
D03*
X5720472Y3492126D02*
D03*
X4110236Y3125984D02*
D03*
X4047244Y3122047D02*
D03*
X4000000D02*
D03*
X4625984Y3110236D02*
D03*
X3173228Y3720472D02*
D03*
X3196850D02*
D03*
X3220472D02*
D03*
X3244095D02*
D03*
X5818898Y4051181D02*
D03*
X4543298Y3118104D02*
D03*
X4511811Y3129921D02*
D03*
X4146427Y3129164D02*
D03*
X5161417Y4917323D02*
D03*
X5129921Y5007874D02*
D03*
X4905512Y4929134D02*
D03*
X5031486Y4944872D02*
D03*
X4936142Y5020551D02*
D03*
X4003937Y4062992D02*
D03*
X4405512Y4665354D02*
D03*
X4267717Y4456693D02*
D03*
X4275591Y4531890D02*
D03*
X4078740Y4629921D02*
D03*
X4086614Y4901575D02*
D03*
X4763779Y4757577D02*
D03*
X4322826Y4574794D02*
D03*
X4358268Y4877953D02*
D03*
X4330709Y4846457D02*
D03*
X4251968Y4897638D02*
D03*
X4476378Y4862205D02*
D03*
X4464567Y4299213D02*
D03*
X4425197Y4944882D02*
D03*
X4023622Y4952756D02*
D03*
X4677165Y4901575D02*
D03*
X4637795Y4905512D02*
D03*
X4538055Y4945856D02*
D03*
X4531487Y4917313D02*
D03*
X4724409Y5015748D02*
D03*
X4736221Y4901575D02*
D03*
X4822825Y4936998D02*
D03*
X4724400Y4515739D02*
D03*
X4728346Y4570866D02*
D03*
X4039370Y4905512D02*
D03*
X4161417Y4070866D02*
D03*
X4023622Y3417323D02*
D03*
X3939961Y3483661D02*
D03*
X4590551Y4271654D02*
D03*
X4358268Y4370079D02*
D03*
X4724400Y4748022D02*
D03*
X4342511Y4334637D02*
D03*
X4814951Y4700778D02*
D03*
X5090551Y4649606D02*
D03*
X4614173Y4271654D02*
D03*
X4637795D02*
D03*
X3893701Y3484252D02*
D03*
X3917323D02*
D03*
X3795276Y3267716D02*
D03*
X4342520Y3283465D02*
D03*
X4353346Y3520669D02*
D03*
X5095472Y4205709D02*
D03*
X5362205Y3940945D02*
D03*
X5326761Y3937000D02*
D03*
X5287391D02*
D03*
X5244084Y3925189D02*
D03*
X5192913Y3897638D02*
D03*
X5153543Y3944882D02*
D03*
X4992126Y4055118D02*
D03*
X5015748Y4094488D02*
D03*
X4944882Y3610236D02*
D03*
X4901575D02*
D03*
X4909449Y3539370D02*
D03*
X4933071D02*
D03*
X4937008Y4618110D02*
D03*
X4944882Y3736220D02*
D03*
X5228336Y3862197D02*
D03*
X4464567Y3448819D02*
D03*
X4472441Y3397638D02*
D03*
X3748032Y3267716D02*
D03*
X3771653D02*
D03*
X5098425Y3429134D02*
D03*
X4956693Y3539370D02*
D03*
X4838583Y3500000D02*
D03*
X4724409Y3594488D02*
D03*
X5385827Y4539370D02*
D03*
X5531496Y4618110D02*
D03*
X5740158Y4472441D02*
D03*
X5334646Y4519685D02*
D03*
X4736221Y4224409D02*
D03*
Y4248032D02*
D03*
Y4271654D02*
D03*
X5877941Y3976370D02*
D03*
X4996063Y4598425D02*
D03*
X4795276Y4586614D02*
D03*
X4850394Y4610236D02*
D03*
X5555118Y4590551D02*
D03*
X5606299Y3866142D02*
D03*
X5688976Y3862205D02*
D03*
X6476378Y3421260D02*
D03*
Y3311024D02*
D03*
X6039370Y4685039D02*
D03*
X6484252Y5200787D02*
D03*
X6480315Y5311024D02*
D03*
X6110224Y4405503D02*
D03*
X5897638Y4078740D02*
D03*
X4665354Y4437008D02*
D03*
X3543307Y4775591D02*
D03*
X3196850Y3293531D02*
D03*
X4468495Y4822825D02*
D03*
X4669291Y3724409D02*
D03*
X4637795Y3295276D02*
D03*
X4279528Y3279528D02*
D03*
X4232283Y3275591D02*
D03*
X4015748Y3311024D02*
D03*
X3842520Y3267716D02*
D03*
X3818898D02*
D03*
X3547244Y3055118D02*
D03*
X3618110D02*
D03*
X3594488D02*
D03*
X3570866D02*
D03*
X3051181Y3204724D02*
D03*
X3330315Y3617716D02*
D03*
X3374016Y3586614D02*
D03*
X3437008Y3543307D02*
D03*
X3401575Y3484252D02*
D03*
X3527559Y3429134D02*
D03*
X4291339Y3976378D02*
D03*
X4204724Y4062992D02*
D03*
X4374016Y3933071D02*
D03*
X4440945Y3972441D02*
D03*
X4724409Y3803150D02*
D03*
X5582677Y4125984D02*
D03*
X5543307Y4157480D02*
D03*
X5681102Y4005905D02*
D03*
X5535433Y3496063D02*
D03*
X4055118Y3279528D02*
D03*
X4098425Y3267716D02*
D03*
X4530512Y3872047D02*
D03*
X3570866Y5074803D02*
D03*
X3578740Y4948819D02*
D03*
X5125984Y4570866D02*
D03*
X5881890Y3342520D02*
D03*
X5907480Y3580709D02*
D03*
X5921260Y4555118D02*
D03*
X5822835Y4807087D02*
D03*
X5931102Y4685039D02*
D03*
X6139764Y4765748D02*
D03*
X5807087Y4362205D02*
D03*
X4748032Y3854331D02*
D03*
X4830699Y3850386D02*
D03*
X5208661Y3960630D02*
D03*
X3279528Y3248032D02*
D03*
X5291522Y4185223D02*
D03*
X5358268Y4405512D02*
D03*
X3338583Y3094488D02*
D03*
X3325197Y3254331D02*
D03*
X3370079Y3255905D02*
D03*
X4729331Y4311024D02*
D03*
X4988189Y3255905D02*
D03*
X5228346D02*
D03*
X5456693D02*
D03*
X5436997Y3377946D02*
D03*
X5476378Y3409449D02*
D03*
X5173228Y3429134D02*
D03*
X5696850Y3255905D02*
D03*
X5665354Y3393701D02*
D03*
X5586614Y3543307D02*
D03*
X5062992Y3893701D02*
D03*
X5051181Y3960630D02*
D03*
X5797244Y3696850D02*
D03*
X5798228Y3744095D02*
D03*
X5566929Y4056102D02*
D03*
X5798228Y3792323D02*
D03*
X5925197Y3255905D02*
D03*
X6173228D02*
D03*
X6275591Y3559055D02*
D03*
X6125010Y3965278D02*
D03*
X6188976Y3830709D02*
D03*
X6201772Y4007874D02*
D03*
X6200787Y4058071D02*
D03*
X6275591Y4082677D02*
D03*
X5059055Y4165354D02*
D03*
X5091535Y4251968D02*
D03*
X4946233Y4403543D02*
D03*
X5196850Y4484252D02*
D03*
X5295276Y4692913D02*
D03*
X5178150Y4711614D02*
D03*
X5734252Y4635827D02*
D03*
X5464567Y4885827D02*
D03*
X5696850D02*
D03*
X6072725Y4139764D02*
D03*
X6094488Y4153543D02*
D03*
X6197835Y4082677D02*
D03*
X6199803Y4127953D02*
D03*
X5795276Y4401575D02*
D03*
X6125984Y4295276D02*
D03*
X5794291Y4450787D02*
D03*
Y4490158D02*
D03*
X5929134Y4885827D02*
D03*
X6177165Y4724409D02*
D03*
X6181102Y4893701D02*
D03*
X6196850Y4314961D02*
D03*
X6381890Y4618110D02*
D03*
X5129921Y3625984D02*
D03*
X4990157Y3935039D02*
D03*
X4883240Y4529528D02*
D03*
X5161417Y4248032D02*
D03*
X5230933Y4220472D02*
D03*
X5578729Y3342513D02*
D03*
X5673228Y4039370D02*
D03*
X6181102Y3448819D02*
D03*
X5874016Y3866142D02*
D03*
X5606299Y4267717D02*
D03*
X6145669Y4712598D02*
D03*
X5122047Y3917323D02*
D03*
X5124016Y4161417D02*
D03*
X4946233Y4529528D02*
D03*
X5525862Y3633051D02*
D03*
X5536417Y3896653D02*
D03*
X5909449Y3500000D02*
D03*
X5153543Y4488189D02*
D03*
X5638779Y4507874D02*
D03*
X5880905Y4262795D02*
D03*
X5929134Y4637795D02*
D03*
X5240158Y3535433D02*
D03*
X5370079Y3500000D02*
D03*
X5000000Y3610236D02*
D03*
X5041339Y4225394D02*
D03*
X5035433Y4464567D02*
D03*
X5322835Y4437008D02*
D03*
X3746063Y4746063D02*
D03*
X3748032Y4885827D02*
D03*
X4531496Y4118110D02*
D03*
X4909449Y3921260D02*
D03*
Y4153543D02*
D03*
X4988189Y4019685D02*
D03*
X4027559Y3381890D02*
D03*
X4011811Y3448819D02*
D03*
X4196850Y3346457D02*
D03*
X4535433Y4724409D02*
D03*
X4618110Y4074803D02*
D03*
X3177165Y3177165D02*
D03*
X3122047Y3566929D02*
D03*
Y3594488D02*
D03*
Y3543307D02*
D03*
X3204724Y3177165D02*
D03*
X3232284D02*
D03*
X3259843D02*
D03*
X3287402D02*
D03*
X3314961D02*
D03*
X3507874Y3259843D02*
D03*
X3535433D02*
D03*
X3562992D02*
D03*
X3590551D02*
D03*
X4192905Y3751961D02*
D03*
X4208661Y4354331D02*
D03*
X4358267Y3964567D02*
D03*
X5228346Y4893701D02*
D03*
X5188976D02*
D03*
X5425197Y4110236D02*
D03*
X5769685Y4221457D02*
D03*
X4779518Y4724400D02*
D03*
X4775581Y4641723D02*
D03*
X6275591Y4574803D02*
D03*
X3078740Y3204724D02*
D03*
X3023622D02*
D03*
X6039370Y4637795D02*
D03*
X6070866Y4767717D02*
D03*
D96*
X5463583Y4437992D02*
D03*
X5421260Y4720472D02*
D03*
X4224409Y3763780D02*
D03*
X4106299Y3570866D02*
D03*
X4157480Y4035433D02*
D03*
X4366142Y4751968D02*
D03*
X4397638Y3830709D02*
D03*
X4480315Y4488189D02*
D03*
X4264764Y4833143D02*
D03*
X4295276Y4842520D02*
D03*
X4051181Y3606299D02*
D03*
X3870079Y3799213D02*
D03*
X4460630Y3829134D02*
D03*
X4417323Y3830709D02*
D03*
X3846457Y3740157D02*
D03*
X4496054Y3578733D02*
D03*
X4480315Y3645669D02*
D03*
X4049212Y4352363D02*
D03*
X4039370Y4511811D02*
D03*
X4137795Y4500000D02*
D03*
X4141732Y4460630D02*
D03*
X3771653Y4688976D02*
D03*
X3893701Y3661417D02*
D03*
X3917323Y3677165D02*
D03*
X3913386Y4488189D02*
D03*
X3740157Y4685039D02*
D03*
X3885819Y3700780D02*
D03*
X3937008Y4515748D02*
D03*
X4165346Y3602355D02*
D03*
X4143701Y3580709D02*
D03*
X4125984Y3602362D02*
D03*
X4082677Y3586614D02*
D03*
X4055118Y3578740D02*
D03*
X4212598Y3570866D02*
D03*
X4255897Y3539363D02*
D03*
X4846457Y4133858D02*
D03*
X5003937Y3543307D02*
D03*
X4566929Y4283465D02*
D03*
Y3417323D02*
D03*
X5148622Y4063976D02*
D03*
X4311024Y3346457D02*
D03*
X3891732Y4612205D02*
D03*
X4133858Y4881890D02*
D03*
X4452756Y4665354D02*
D03*
X4279528Y4149606D02*
D03*
X3968504Y4275591D02*
D03*
X4035425Y4212590D02*
D03*
X4074803Y4318898D02*
D03*
X4173228Y4433071D02*
D03*
X4196842Y4322826D02*
D03*
X4248032Y4341087D02*
D03*
X4216535Y4153543D02*
D03*
X4244095Y4149606D02*
D03*
X4224409Y3712599D02*
D03*
X6417326Y3661419D02*
D03*
X6437011Y3779530D02*
D03*
Y4015750D02*
D03*
X6417326Y4055120D02*
D03*
X6437011Y4094490D02*
D03*
X6417326Y4133860D02*
D03*
X6437011Y4251971D02*
D03*
X6417326Y4370081D02*
D03*
X6456696Y3661419D02*
D03*
X6476381Y3779530D02*
D03*
X6456696Y3897640D02*
D03*
X6476381Y4015750D02*
D03*
X6456696Y4055120D02*
D03*
X6476381Y4094490D02*
D03*
X6456696Y4133860D02*
D03*
X6476381Y4251971D02*
D03*
X6456696Y4370081D02*
D03*
X6496066Y3661419D02*
D03*
X6515752Y3779530D02*
D03*
X6496066Y3897640D02*
D03*
X6515752Y4015750D02*
D03*
X6496066Y4055120D02*
D03*
X6515752Y4094490D02*
D03*
X6496066Y4133860D02*
D03*
X6515752Y4251971D02*
D03*
X6496066Y4370081D02*
D03*
X6535437Y3661419D02*
D03*
Y3897640D02*
D03*
Y4055120D02*
D03*
Y4133860D02*
D03*
Y4370081D02*
D03*
%TF.MD5,60c40f2e6c8b4d0b3f5cf4a0c79f7f7e*%
M02*
