G04 Layer_Color=2752767*
%FSLAX45Y45*%
%MOMM*%
%TF.FileFunction,Drawing*%
%TF.Part,Single*%
G01*
G75*
%TA.AperFunction,NonConductor*%
%ADD145C,0.12700*%
%ADD202C,0.16933*%
D145*
X15125700Y8013700D02*
Y8115300D01*
X15227299D01*
Y8013700D01*
X15125700D01*
X14871700D02*
Y8115300D01*
X14973300D01*
Y8013700D01*
X14871700D01*
X14617700D02*
Y8115300D01*
X14719299D01*
Y8013700D01*
X14617700D01*
X14363699D02*
Y8115300D01*
X14465300D01*
Y8013700D01*
X14363699D01*
X14109700D02*
Y8115300D01*
X14211301D01*
Y8013700D01*
X14109700D01*
X13855701D02*
Y8115300D01*
X13957300D01*
Y8013700D01*
X13855701D01*
X13601700D02*
Y8115300D01*
X13703300D01*
Y8013700D01*
X13601700D01*
X13347701D02*
Y8115300D01*
X13449300D01*
Y8013700D01*
X13347701D01*
X13093700D02*
Y8115300D01*
X13195300D01*
Y8013700D01*
X13093700D01*
X12839700D02*
Y8115300D01*
X12941299D01*
Y8013700D01*
X12839700D01*
X12585700D02*
Y8115300D01*
X12687300D01*
Y8013700D01*
X12585700D01*
X12331700D02*
Y8115300D01*
X12433300D01*
Y8013700D01*
X12331700D01*
X12077700D02*
Y8115300D01*
X12179300D01*
Y8013700D01*
X12077700D01*
X11823700D02*
Y8115300D01*
X11925300D01*
Y8013700D01*
X11823700D01*
X11569700D02*
Y8115300D01*
X11671300D01*
Y8013700D01*
X11569700D01*
X11315700D02*
Y8115300D01*
X11417300D01*
Y8013700D01*
X11315700D01*
X11061700D02*
Y8115300D01*
X11163300D01*
Y8013700D01*
X11061700D01*
X10807700D02*
Y8115300D01*
X10909300D01*
Y8013700D01*
X10807700D01*
X10553700D02*
Y8115300D01*
X10655300D01*
Y8013700D01*
X10553700D01*
X10299700D02*
Y8115300D01*
X10401300D01*
Y8013700D01*
X10299700D01*
X10045700D02*
Y8115300D01*
X10147300D01*
Y8013700D01*
X10045700D01*
X9791700D02*
Y8115300D01*
X9893300D01*
Y8013700D01*
X9791700D01*
X9537700D02*
Y8115300D01*
X9639300D01*
Y8013700D01*
X9537700D01*
X15125700Y7759700D02*
Y7861300D01*
X15227299D01*
Y7759700D01*
X15125700D01*
X14871700D02*
Y7861300D01*
X14973300D01*
Y7759700D01*
X14871700D01*
X14617700D02*
Y7861300D01*
X14719299D01*
Y7759700D01*
X14617700D01*
X14363699D02*
Y7861300D01*
X14465300D01*
Y7759700D01*
X14363699D01*
X14109700D02*
Y7861300D01*
X14211301D01*
Y7759700D01*
X14109700D01*
X13855701D02*
Y7861300D01*
X13957300D01*
Y7759700D01*
X13855701D01*
X13601700D02*
Y7861300D01*
X13703300D01*
Y7759700D01*
X13601700D01*
X13347701D02*
Y7861300D01*
X13449300D01*
Y7759700D01*
X13347701D01*
X13093700D02*
Y7861300D01*
X13195300D01*
Y7759700D01*
X13093700D01*
X12839700D02*
Y7861300D01*
X12941299D01*
Y7759700D01*
X12839700D01*
X12585700D02*
Y7861300D01*
X12687300D01*
Y7759700D01*
X12585700D01*
X12331700D02*
Y7861300D01*
X12433300D01*
Y7759700D01*
X12331700D01*
X12077700D02*
Y7861300D01*
X12179300D01*
Y7759700D01*
X12077700D01*
X11823700D02*
Y7861300D01*
X11925300D01*
Y7759700D01*
X11823700D01*
X11569700D02*
Y7861300D01*
X11671300D01*
Y7759700D01*
X11569700D01*
X11315700D02*
Y7861300D01*
X11417300D01*
Y7759700D01*
X11315700D01*
X11061700D02*
Y7861300D01*
X11163300D01*
Y7759700D01*
X11061700D01*
X10807700D02*
Y7861300D01*
X10909300D01*
Y7759700D01*
X10807700D01*
X10553700D02*
Y7861300D01*
X10655300D01*
Y7759700D01*
X10553700D01*
X10299700D02*
Y7861300D01*
X10401300D01*
Y7759700D01*
X10299700D01*
X10045700D02*
Y7861300D01*
X10147300D01*
Y7759700D01*
X10045700D01*
X9791700D02*
Y7861300D01*
X9893300D01*
Y7759700D01*
X9791700D01*
X9537700D02*
Y7861300D01*
X9639300D01*
Y7759700D01*
X9537700D01*
Y12585700D02*
Y12687300D01*
X9639300D01*
Y12585700D01*
X9537700D01*
X9791700D02*
Y12687300D01*
X9893300D01*
Y12585700D01*
X9791700D01*
X10045700D02*
Y12687300D01*
X10147300D01*
Y12585700D01*
X10045700D01*
X10299700D02*
Y12687300D01*
X10401300D01*
Y12585700D01*
X10299700D01*
X10553700D02*
Y12687300D01*
X10655300D01*
Y12585700D01*
X10553700D01*
X10807700D02*
Y12687300D01*
X10909300D01*
Y12585700D01*
X10807700D01*
X11061700D02*
Y12687300D01*
X11163300D01*
Y12585700D01*
X11061700D01*
X11315700D02*
Y12687300D01*
X11417300D01*
Y12585700D01*
X11315700D01*
X11569700D02*
Y12687300D01*
X11671300D01*
Y12585700D01*
X11569700D01*
X11823700D02*
Y12687300D01*
X11925300D01*
Y12585700D01*
X11823700D01*
X12077700D02*
Y12687300D01*
X12179300D01*
Y12585700D01*
X12077700D01*
X12331700D02*
Y12687300D01*
X12433300D01*
Y12585700D01*
X12331700D01*
X12585700D02*
Y12687300D01*
X12687300D01*
Y12585700D01*
X12585700D01*
X12839700D02*
Y12687300D01*
X12941299D01*
Y12585700D01*
X12839700D01*
X13093700D02*
Y12687300D01*
X13195300D01*
Y12585700D01*
X13093700D01*
X13347701D02*
Y12687300D01*
X13449300D01*
Y12585700D01*
X13347701D01*
X13601700D02*
Y12687300D01*
X13703300D01*
Y12585700D01*
X13601700D01*
X13855701D02*
Y12687300D01*
X13957300D01*
Y12585700D01*
X13855701D01*
X14109700D02*
Y12687300D01*
X14211301D01*
Y12585700D01*
X14109700D01*
X14363699D02*
Y12687300D01*
X14465300D01*
Y12585700D01*
X14363699D01*
X14617700D02*
Y12687300D01*
X14719299D01*
Y12585700D01*
X14617700D01*
X14871700D02*
Y12687300D01*
X14973300D01*
Y12585700D01*
X14871700D01*
X15125700D02*
Y12687300D01*
X15227299D01*
Y12585700D01*
X15125700D01*
X9537700Y12839700D02*
Y12941299D01*
X9639300D01*
Y12839700D01*
X9537700D01*
X9791700D02*
Y12941299D01*
X9893300D01*
Y12839700D01*
X9791700D01*
X10045700D02*
Y12941299D01*
X10147300D01*
Y12839700D01*
X10045700D01*
X10299700D02*
Y12941299D01*
X10401300D01*
Y12839700D01*
X10299700D01*
X10553700D02*
Y12941299D01*
X10655300D01*
Y12839700D01*
X10553700D01*
X10807700D02*
Y12941299D01*
X10909300D01*
Y12839700D01*
X10807700D01*
X11061700D02*
Y12941299D01*
X11163300D01*
Y12839700D01*
X11061700D01*
X11315700D02*
Y12941299D01*
X11417300D01*
Y12839700D01*
X11315700D01*
X11569700D02*
Y12941299D01*
X11671300D01*
Y12839700D01*
X11569700D01*
X11823700D02*
Y12941299D01*
X11925300D01*
Y12839700D01*
X11823700D01*
X12077700D02*
Y12941299D01*
X12179300D01*
Y12839700D01*
X12077700D01*
X12331700D02*
Y12941299D01*
X12433300D01*
Y12839700D01*
X12331700D01*
X12585700D02*
Y12941299D01*
X12687300D01*
Y12839700D01*
X12585700D01*
X12839700D02*
Y12941299D01*
X12941299D01*
Y12839700D01*
X12839700D01*
X13093700D02*
Y12941299D01*
X13195300D01*
Y12839700D01*
X13093700D01*
X13347701D02*
Y12941299D01*
X13449300D01*
Y12839700D01*
X13347701D01*
X13601700D02*
Y12941299D01*
X13703300D01*
Y12839700D01*
X13601700D01*
X13855701D02*
Y12941299D01*
X13957300D01*
Y12839700D01*
X13855701D01*
X14109700D02*
Y12941299D01*
X14211301D01*
Y12839700D01*
X14109700D01*
X14363699D02*
Y12941299D01*
X14465300D01*
Y12839700D01*
X14363699D01*
X14617700D02*
Y12941299D01*
X14719299D01*
Y12839700D01*
X14617700D01*
X14871700D02*
Y12941299D01*
X14973300D01*
Y12839700D01*
X14871700D01*
X15125700D02*
Y12941299D01*
X15227299D01*
Y12839700D01*
X15125700D01*
X14130000Y9264200D02*
X14079201Y9365800D01*
X14180800D01*
X14130000Y9264200D01*
X13877499Y11221700D02*
X13902901Y11247100D01*
X13928300D01*
X13902901Y11272500D01*
X13928300Y11297900D01*
X13902901D01*
X13877499Y11323300D01*
X13852100Y11297900D01*
X13826700D01*
X13852100Y11272500D01*
X13826700Y11247100D01*
X13852100D01*
X13877499Y11221700D01*
X15889999Y11749200D02*
X15839200Y11850800D01*
X15940800D01*
X15889999Y11749200D01*
X16450000Y11959200D02*
X16399200Y12060800D01*
X16500800D01*
X16450000Y11959200D01*
Y12239200D02*
X16399200Y12340800D01*
X16500800D01*
X16450000Y12239200D01*
X15700000Y8619200D02*
X15649200Y8720800D01*
X15750800D01*
X15700000Y8619200D01*
X16439999Y7159200D02*
X16389200Y7260800D01*
X16490800D01*
X16439999Y7159200D01*
X16450000Y7439200D02*
X16399200Y7540800D01*
X16500800D01*
X16450000Y7439200D01*
X8490000Y12189200D02*
X8439200Y12290800D01*
X8540800D01*
X8490000Y12189200D01*
X8439983Y12279175D02*
X8389183Y12380775D01*
X8490783D01*
X8439983Y12279175D01*
X8600000Y12409200D02*
X8549200Y12510800D01*
X8650800D01*
X8600000Y12409200D01*
X8450000Y12689200D02*
X8399200Y12790800D01*
X8500800D01*
X8450000Y12689200D01*
X8580000Y12709200D02*
X8529200Y12810800D01*
X8630800D01*
X8580000Y12709200D01*
X11070000Y11139200D02*
X11019200Y11240800D01*
X11120800D01*
X11070000Y11139200D01*
X11060000Y9099200D02*
X11009200Y9200800D01*
X11110800D01*
X11060000Y9099200D01*
X14320000Y11639200D02*
X14269200Y11740800D01*
X14370799D01*
X14320000Y11639200D01*
X9390000Y12379200D02*
X9339200Y12480800D01*
X9440800D01*
X9390000Y12379200D01*
X9120000Y12389200D02*
X9069200Y12490800D01*
X9170800D01*
X9120000Y12389200D01*
X14739970Y9239181D02*
X14765372Y9264581D01*
X14790771D01*
X14765372Y9289981D01*
X14790771Y9315381D01*
X14765372D01*
X14739970Y9340781D01*
X14714571Y9315381D01*
X14689171D01*
X14714571Y9289981D01*
X14689171Y9264581D01*
X14714571D01*
X14739970Y9239181D01*
X11100000Y11729200D02*
X11049200Y11830800D01*
X11150800D01*
X11100000Y11729200D01*
X13650000Y9049200D02*
X13599200Y9150800D01*
X13700800D01*
X13650000Y9049200D01*
X13430000Y11509200D02*
X13379201Y11610800D01*
X13480800D01*
X13430000Y11509200D01*
X13770000Y11939200D02*
X13795399Y11964600D01*
X13820799D01*
X13795399Y11990000D01*
X13820799Y12015400D01*
X13795399D01*
X13770000Y12040800D01*
X13744600Y12015400D01*
X13719200D01*
X13744600Y11990000D01*
X13719200Y11964600D01*
X13744600D01*
X13770000Y11939200D01*
X13189999Y9249200D02*
X13139200Y9350800D01*
X13240800D01*
X13189999Y9249200D01*
X13000000Y11389200D02*
X12949200Y11490800D01*
X13050800D01*
X13000000Y11389200D01*
X13200000Y9699200D02*
X13149200Y9800800D01*
X13250800D01*
X13200000Y9699200D01*
X10310000Y10329200D02*
X10259200Y10430800D01*
X10360800D01*
X10310000Y10329200D01*
X10020000Y9689200D02*
X9969200Y9790800D01*
X10070800D01*
X10020000Y9689200D01*
X10940000Y11259200D02*
X10889200Y11360800D01*
X10990800D01*
X10940000Y11259200D01*
X10730000Y9509200D02*
X10755400Y9534600D01*
X10780800D01*
X10755400Y9560000D01*
X10780800Y9585400D01*
X10755400D01*
X10730000Y9610800D01*
X10704600Y9585400D01*
X10679200D01*
X10704600Y9560000D01*
X10679200Y9534600D01*
X10704600D01*
X10730000Y9509200D01*
X10430000Y9019200D02*
X10455400Y9044600D01*
X10480800D01*
X10455400Y9070000D01*
X10480800Y9095400D01*
X10455400D01*
X10430000Y9120800D01*
X10404600Y9095400D01*
X10379200D01*
X10404600Y9070000D01*
X10379200Y9044600D01*
X10404600D01*
X10430000Y9019200D01*
X10560000Y10199200D02*
X10585400Y10224600D01*
X10610800D01*
X10585400Y10250000D01*
X10610800Y10275400D01*
X10585400D01*
X10560000Y10300800D01*
X10534600Y10275400D01*
X10509200D01*
X10534600Y10250000D01*
X10509200Y10224600D01*
X10534600D01*
X10560000Y10199200D01*
X12070000Y11639200D02*
X12019200Y11740800D01*
X12120800D01*
X12070000Y11639200D01*
X12000000Y12499200D02*
X11949200Y12600800D01*
X12050800D01*
X12000000Y12499200D01*
X10869978Y11559177D02*
X10819178Y11660777D01*
X10920778D01*
X10869978Y11559177D01*
X12710000Y12389200D02*
X12659200Y12490800D01*
X12760800D01*
X12710000Y12389200D01*
X12620000Y12419200D02*
X12569200Y12520800D01*
X12670800D01*
X12620000Y12419200D01*
X11780000Y8619200D02*
X11729200Y8720800D01*
X11830800D01*
X11780000Y8619200D01*
X9989980Y10439179D02*
X9939180Y10540779D01*
X10040780D01*
X9989980Y10439179D01*
X9979980Y11249177D02*
X9929180Y11350777D01*
X10030780D01*
X9979980Y11249177D01*
X9980000Y11129200D02*
X9929200Y11230800D01*
X10030800D01*
X9980000Y11129200D01*
X11090000Y12019200D02*
X11115400Y12044600D01*
X11140800D01*
X11115400Y12070000D01*
X11140800Y12095400D01*
X11115400D01*
X11090000Y12120800D01*
X11064600Y12095400D01*
X11039200D01*
X11064600Y12070000D01*
X11039200Y12044600D01*
X11064600D01*
X11090000Y12019200D01*
X13789999Y12079200D02*
X13739200Y12180800D01*
X13840800D01*
X13789999Y12079200D01*
X13780000Y9139200D02*
X13729201Y9240800D01*
X13830800D01*
X13780000Y9139200D01*
X14430000Y10809200D02*
X14379201Y10910800D01*
X14480800D01*
X14430000Y10809200D01*
X8170000Y8499200D02*
X8119200Y8600800D01*
X8220800D01*
X8170000Y8499200D01*
X14530000Y8819200D02*
X14479201Y8920800D01*
X14580800D01*
X14530000Y8819200D01*
X10440000Y7889200D02*
X10389200Y7990800D01*
X10490800D01*
X10440000Y7889200D01*
X10280000Y7879200D02*
X10229200Y7980800D01*
X10330800D01*
X10280000Y7879200D01*
X10160000D02*
X10109200Y7980800D01*
X10210800D01*
X10160000Y7879200D01*
X11750000Y7849200D02*
X11699200Y7950800D01*
X11800800D01*
X11750000Y7849200D01*
X8060000Y9399200D02*
X8009200Y9500800D01*
X8110800D01*
X8060000Y9399200D01*
X8120000D02*
X8069200Y9500800D01*
X8170800D01*
X8120000Y9399200D01*
X8180000D02*
X8129200Y9500800D01*
X8230800D01*
X8180000Y9399200D01*
X8240000D02*
X8189200Y9500800D01*
X8290800D01*
X8240000Y9399200D01*
X11170000Y9679200D02*
X11195400Y9704600D01*
X11220800D01*
X11195400Y9730000D01*
X11220800Y9755400D01*
X11195400D01*
X11170000Y9780800D01*
X11144600Y9755400D01*
X11119200D01*
X11144600Y9730000D01*
X11119200Y9704600D01*
X11144600D01*
X11170000Y9679200D01*
X14780000Y10239200D02*
X14729201Y10340800D01*
X14830800D01*
X14780000Y10239200D01*
X11539977Y7869184D02*
X11489177Y7970784D01*
X11590777D01*
X11539977Y7869184D01*
X11460000Y7899200D02*
X11409200Y8000800D01*
X11510800D01*
X11460000Y7899200D01*
X10531924Y7897277D02*
X10481124Y7998877D01*
X10582724D01*
X10531924Y7897277D01*
X13110001Y12439200D02*
X13059200Y12540800D01*
X13160800D01*
X13110001Y12439200D01*
X13030000Y12669200D02*
X12979201Y12770800D01*
X13080800D01*
X13030000Y12669200D01*
X12460000Y12469200D02*
X12409200Y12570800D01*
X12510800D01*
X12460000Y12469200D01*
X12779974Y12509175D02*
X12729174Y12610775D01*
X12830774D01*
X12779974Y12509175D01*
X12537800Y12701400D02*
X12487000Y12803000D01*
X12588600D01*
X12537800Y12701400D01*
X10170000Y10269200D02*
X10119200Y10370800D01*
X10220800D01*
X10170000Y10269200D01*
X11380000Y11349200D02*
X11405400Y11374600D01*
X11430800D01*
X11405400Y11400000D01*
X11430800Y11425400D01*
X11405400D01*
X11380000Y11450800D01*
X11354600Y11425400D01*
X11329200D01*
X11354600Y11400000D01*
X11329200Y11374600D01*
X11354600D01*
X11380000Y11349200D01*
X11190000Y11799200D02*
X11139200Y11900800D01*
X11240800D01*
X11190000Y11799200D01*
X10840000Y11269200D02*
X10789200Y11370800D01*
X10890800D01*
X10840000Y11269200D01*
X10860000Y11460200D02*
X10809200Y11561800D01*
X10910800D01*
X10860000Y11460200D01*
X10360000Y11709200D02*
X10309200Y11810800D01*
X10410800D01*
X10360000Y11709200D01*
X10380000Y12399200D02*
X10329200Y12500800D01*
X10430800D01*
X10380000Y12399200D01*
X12100000Y12033446D02*
X12049200Y12135046D01*
X12150800D01*
X12100000Y12033446D01*
X10979978Y11569177D02*
X10929178Y11670777D01*
X11030778D01*
X10979978Y11569177D01*
X11070000Y12339200D02*
X11019200Y12440800D01*
X11120800D01*
X11070000Y12339200D01*
X11000000Y12259200D02*
X10949200Y12360800D01*
X11050800D01*
X11000000Y12259200D01*
X10800000Y12389200D02*
X10749200Y12490800D01*
X10850800D01*
X10800000Y12389200D01*
X11370000Y12299200D02*
X11319200Y12400800D01*
X11420800D01*
X11370000Y12299200D01*
X11340000Y10869200D02*
X11289200Y10970800D01*
X11390800D01*
X11340000Y10869200D01*
X10832500Y12225383D02*
X10857900Y12250783D01*
X10883300D01*
X10857900Y12276183D01*
X10883300Y12301583D01*
X10857900D01*
X10832500Y12326983D01*
X10807100Y12301583D01*
X10781700D01*
X10807100Y12276183D01*
X10781700Y12250783D01*
X10807100D01*
X10832500Y12225383D01*
X10910000Y12249200D02*
X10935400Y12274600D01*
X10960800D01*
X10935400Y12300000D01*
X10960800Y12325400D01*
X10935400D01*
X10910000Y12350800D01*
X10884600Y12325400D01*
X10859200D01*
X10884600Y12300000D01*
X10859200Y12274600D01*
X10884600D01*
X10910000Y12249200D01*
X11240000Y12509200D02*
X11189200Y12610800D01*
X11290800D01*
X11240000Y12509200D01*
X10220000Y12529200D02*
X10169200Y12630800D01*
X10270800D01*
X10220000Y12529200D01*
X11880000Y12399200D02*
X11829200Y12500800D01*
X11930800D01*
X11880000Y12399200D01*
X11780000Y12409200D02*
X11729200Y12510800D01*
X11830800D01*
X11780000Y12409200D01*
X11526658Y12511675D02*
X11475858Y12613275D01*
X11577458D01*
X11526658Y12511675D01*
X11509977Y12439175D02*
X11459177Y12540775D01*
X11560777D01*
X11509977Y12439175D01*
X12000000Y12689200D02*
X11949200Y12790800D01*
X12050800D01*
X12000000Y12689200D01*
X12030000Y12399200D02*
X11979200Y12500800D01*
X12080800D01*
X12030000Y12399200D01*
X12249975Y12489175D02*
X12199175Y12590775D01*
X12300775D01*
X12249975Y12489175D01*
X11999976Y11419177D02*
X11949176Y11520777D01*
X12050776D01*
X11999976Y11419177D01*
X12010000Y11559200D02*
X11959200Y11660800D01*
X12060800D01*
X12010000Y11559200D01*
X10260000Y12409200D02*
X10209200Y12510800D01*
X10310800D01*
X10260000Y12409200D01*
X10290000Y9109200D02*
X10315400Y9134600D01*
X10340800D01*
X10315400Y9160000D01*
X10340800Y9185400D01*
X10315400D01*
X10290000Y9210800D01*
X10264600Y9185400D01*
X10239200D01*
X10264600Y9160000D01*
X10239200Y9134600D01*
X10264600D01*
X10290000Y9109200D01*
X10570000Y10289200D02*
X10519200Y10390800D01*
X10620800D01*
X10570000Y10289200D01*
X9830000Y9599200D02*
X9855400Y9624600D01*
X9880800D01*
X9855400Y9650000D01*
X9880800Y9675400D01*
X9855400D01*
X9830000Y9700800D01*
X9804600Y9675400D01*
X9779200D01*
X9804600Y9650000D01*
X9779200Y9624600D01*
X9804600D01*
X9830000Y9599200D01*
X10220000Y8629200D02*
X10169200Y8730800D01*
X10270800D01*
X10220000Y8629200D01*
X10007500Y8797700D02*
X9956700Y8899300D01*
X10058300D01*
X10007500Y8797700D01*
X11660000Y10799200D02*
X11609200Y10900800D01*
X11710800D01*
X11660000Y10799200D01*
X11070000Y11049200D02*
X11019200Y11150800D01*
X11120800D01*
X11070000Y11049200D01*
X11999976Y12009176D02*
X11949176Y12110776D01*
X12050776D01*
X11999976Y12009176D01*
X11029978Y10959178D02*
X10979178Y11060778D01*
X11080778D01*
X11029978Y10959178D01*
X12229976Y11889176D02*
X12179176Y11990776D01*
X12280776D01*
X12229976Y11889176D01*
X12930000Y11759200D02*
X12879201Y11860800D01*
X12980800D01*
X12930000Y11759200D01*
X11720000Y10799200D02*
X11669200Y10900800D01*
X11770800D01*
X11720000Y10799200D01*
X11780000D02*
X11729200Y10900800D01*
X11830800D01*
X11780000Y10799200D01*
X9890000Y8799200D02*
X9839200Y8900800D01*
X9940800D01*
X9890000Y8799200D01*
X9950000D02*
X9899200Y8900800D01*
X10000800D01*
X9950000Y8799200D01*
X9640000Y8249200D02*
X9589200Y8350800D01*
X9690800D01*
X9640000Y8249200D01*
X11330000Y9675200D02*
X11355400Y9700600D01*
X11380800D01*
X11355400Y9726000D01*
X11380800Y9751400D01*
X11355400D01*
X11330000Y9776800D01*
X11304600Y9751400D01*
X11279200D01*
X11304600Y9726000D01*
X11279200Y9700600D01*
X11304600D01*
X11330000Y9675200D01*
X11030000Y8289200D02*
X10979200Y8390800D01*
X11080800D01*
X11030000Y8289200D01*
X11057500Y8891700D02*
X11006700Y8993300D01*
X11108300D01*
X11057500Y8891700D01*
X12942500Y10631700D02*
X12891701Y10733300D01*
X12993300D01*
X12942500Y10631700D01*
X13620000Y9959200D02*
X13569200Y10060800D01*
X13670799D01*
X13620000Y9959200D01*
X13529973Y9949180D02*
X13479173Y10050780D01*
X13580772D01*
X13529973Y9949180D01*
X13429973D02*
X13379173Y10050780D01*
X13480772D01*
X13429973Y9949180D01*
X13319974Y9919180D02*
X13269173Y10020780D01*
X13370773D01*
X13319974Y9919180D01*
X13189999Y9849200D02*
X13139200Y9950800D01*
X13240800D01*
X13189999Y9849200D01*
X13089999Y9969200D02*
X13039200Y10070800D01*
X13140800D01*
X13089999Y9969200D01*
X12680000Y10249200D02*
X12629200Y10350800D01*
X12730800D01*
X12680000Y10249200D01*
X12740000Y10349200D02*
X12689200Y10450800D01*
X12790800D01*
X12740000Y10349200D01*
X12560000Y9119200D02*
X12509200Y9220800D01*
X12610800D01*
X12560000Y9119200D01*
X12450000D02*
X12399200Y9220800D01*
X12500800D01*
X12450000Y9119200D01*
X12470000Y8939200D02*
X12419200Y9040800D01*
X12520800D01*
X12470000Y8939200D01*
X12530000D02*
X12479200Y9040800D01*
X12580800D01*
X12530000Y8939200D01*
X12540000Y11679200D02*
X12489200Y11780800D01*
X12590800D01*
X12540000Y11679200D01*
X12560000Y9439200D02*
X12509200Y9540800D01*
X12610800D01*
X12560000Y9439200D01*
X13279973Y9759180D02*
X13229173Y9860780D01*
X13330772D01*
X13279973Y9759180D01*
X11340000Y8709200D02*
X11289200Y8810800D01*
X11390800D01*
X11340000Y8709200D01*
X11360000Y8579200D02*
X11309200Y8680800D01*
X11410800D01*
X11360000Y8579200D01*
X9520000Y8249200D02*
X9469200Y8350800D01*
X9570800D01*
X9520000Y8249200D01*
X9580000D02*
X9529200Y8350800D01*
X9630800D01*
X9580000Y8249200D01*
X12950000Y8659200D02*
X12899200Y8760800D01*
X13000800D01*
X12950000Y8659200D01*
X12590000Y8939200D02*
X12539200Y9040800D01*
X12640800D01*
X12590000Y8939200D01*
X12290000Y8839200D02*
X12239200Y8940800D01*
X12340800D01*
X12290000Y8839200D01*
X12000000Y9079200D02*
X11949200Y9180800D01*
X12050800D01*
X12000000Y9079200D01*
X13680000Y11479200D02*
X13629201Y11580800D01*
X13730800D01*
X13680000Y11479200D01*
X14050000Y11679200D02*
X13999200Y11780800D01*
X14100800D01*
X14050000Y11679200D01*
X14580000Y11309200D02*
X14529201Y11410800D01*
X14630800D01*
X14580000Y11309200D01*
X13550000Y11429200D02*
X13499200Y11530800D01*
X13600800D01*
X13550000Y11429200D01*
X11220000Y9679200D02*
X11245400Y9704600D01*
X11270800D01*
X11245400Y9730000D01*
X11270800Y9755400D01*
X11245400D01*
X11220000Y9780800D01*
X11194600Y9755400D01*
X11169200D01*
X11194600Y9730000D01*
X11169200Y9704600D01*
X11194600D01*
X11220000Y9679200D01*
X12030000Y10679200D02*
X11979200Y10780800D01*
X12080800D01*
X12030000Y10679200D01*
Y10739200D02*
X11979200Y10840800D01*
X12080800D01*
X12030000Y10739200D01*
Y10799200D02*
X11979200Y10900800D01*
X12080800D01*
X12030000Y10799200D01*
X14929970Y10049180D02*
X14879170Y10150780D01*
X14980769D01*
X14929970Y10049180D01*
X12690000Y11629200D02*
X12639200Y11730800D01*
X12740800D01*
X12690000Y11629200D01*
X12180000Y11599200D02*
X12129200Y11700800D01*
X12230800D01*
X12180000Y11599200D01*
X12320000Y11659200D02*
X12269200Y11760800D01*
X12370800D01*
X12320000Y11659200D01*
X14110001Y11609200D02*
X14059200Y11710800D01*
X14160800D01*
X14110001Y11609200D01*
X14239999Y9769200D02*
X14189200Y9870800D01*
X14290800D01*
X14239999Y9769200D01*
X14450000Y9759200D02*
X14399200Y9860800D01*
X14500800D01*
X14450000Y9759200D01*
X16450000Y8639200D02*
X16399200Y8740800D01*
X16500800D01*
X16450000Y8639200D01*
Y8359200D02*
X16399200Y8460800D01*
X16500800D01*
X16450000Y8359200D01*
X15339999Y11849200D02*
X15289200Y11950800D01*
X15390800D01*
X15339999Y11849200D01*
X16470000Y13159200D02*
X16419200Y13260800D01*
X16520799D01*
X16470000Y13159200D01*
X16460001Y13439200D02*
X16409200Y13540800D01*
X16510800D01*
X16460001Y13439200D01*
X15519969Y11139178D02*
X15469170Y11240778D01*
X15570769D01*
X15519969Y11139178D01*
X14980000Y10309200D02*
X14929201Y10410800D01*
X15030800D01*
X14980000Y10309200D01*
X11850000Y11219200D02*
X11799200Y11320800D01*
X11900800D01*
X11850000Y11219200D01*
X9000000Y12079200D02*
X8949200Y12180800D01*
X9050800D01*
X9000000Y12079200D01*
X8120000Y8314768D02*
X8069200Y8416368D01*
X8170800D01*
X8120000Y8314768D01*
X9770000Y9449200D02*
X9795400Y9474600D01*
X9820800D01*
X9795400Y9500000D01*
X9820800Y9525400D01*
X9795400D01*
X9770000Y9550800D01*
X9744600Y9525400D01*
X9719200D01*
X9744600Y9500000D01*
X9719200Y9474600D01*
X9744600D01*
X9770000Y9449200D01*
X11349977Y12199175D02*
X11299177Y12300775D01*
X11400777D01*
X11349977Y12199175D01*
X11860000Y9409200D02*
X11809200Y9510800D01*
X11910800D01*
X11860000Y9409200D01*
X11780000Y8319200D02*
X11729200Y8420800D01*
X11830800D01*
X11780000Y8319200D01*
X10870000Y8279200D02*
X10819200Y8380800D01*
X10920800D01*
X10870000Y8279200D01*
X10750000Y8269200D02*
X10699200Y8370800D01*
X10800800D01*
X10750000Y8269200D01*
X10200000Y8359200D02*
X10149200Y8460800D01*
X10250800D01*
X10200000Y8359200D01*
X9760000Y8249200D02*
X9709200Y8350800D01*
X9810800D01*
X9760000Y8249200D01*
X9700000D02*
X9649200Y8350800D01*
X9750800D01*
X9700000Y8249200D01*
X9010000Y7709200D02*
X8959200Y7810800D01*
X9060800D01*
X9010000Y7709200D01*
X9190000D02*
X9139200Y7810800D01*
X9240800D01*
X9190000Y7709200D01*
X9130000D02*
X9079200Y7810800D01*
X9180800D01*
X9130000Y7709200D01*
X9070000D02*
X9019200Y7810800D01*
X9120800D01*
X9070000Y7709200D01*
X7750000Y8089200D02*
X7699200Y8190800D01*
X7800800D01*
X7750000Y8089200D01*
X8459000Y9138200D02*
X8408200Y9239800D01*
X8509800D01*
X8459000Y9138200D01*
X8570000Y9059200D02*
X8519200Y9160800D01*
X8620800D01*
X8570000Y9059200D01*
X8730000Y8949200D02*
X8679200Y9050800D01*
X8780800D01*
X8730000Y8949200D01*
X8640000Y8799200D02*
X8589200Y8900800D01*
X8690800D01*
X8640000Y8799200D01*
X8960000Y8659200D02*
X8909200Y8760800D01*
X9010800D01*
X8960000Y8659200D01*
X10900000Y10049200D02*
X10849200Y10150800D01*
X10950800D01*
X10900000Y10049200D01*
X10680000Y10269200D02*
X10629200Y10370800D01*
X10730800D01*
X10680000Y10269200D01*
X11110000Y9939200D02*
X11059200Y10040800D01*
X11160800D01*
X11110000Y9939200D01*
X11280000Y10039200D02*
X11229200Y10140800D01*
X11330800D01*
X11280000Y10039200D01*
X12000000Y9609200D02*
X11949200Y9710800D01*
X12050800D01*
X12000000Y9609200D01*
X11419977Y9039182D02*
X11445377Y9064582D01*
X11470777D01*
X11445377Y9089982D01*
X11470777Y9115382D01*
X11445377D01*
X11419977Y9140782D01*
X11394577Y9115382D01*
X11369177D01*
X11394577Y9089982D01*
X11369177Y9064582D01*
X11394577D01*
X11419977Y9039182D01*
X11380000Y9209200D02*
X11405400Y9234600D01*
X11430800D01*
X11405400Y9260000D01*
X11430800Y9285400D01*
X11405400D01*
X11380000Y9310800D01*
X11354600Y9285400D01*
X11329200D01*
X11354600Y9260000D01*
X11329200Y9234600D01*
X11354600D01*
X11380000Y9209200D01*
X14180000Y10429200D02*
X14129201Y10530800D01*
X14230800D01*
X14180000Y10429200D01*
X14080000Y10509200D02*
X14029201Y10610800D01*
X14130800D01*
X14080000Y10509200D01*
X14430000Y10124200D02*
X14379201Y10225800D01*
X14480800D01*
X14430000Y10124200D01*
X14060001Y8829200D02*
X14009200Y8930800D01*
X14110800D01*
X14060001Y8829200D01*
X10300000Y8279200D02*
X10249200Y8380800D01*
X10350800D01*
X10300000Y8279200D01*
X10410000Y8249200D02*
X10359200Y8350800D01*
X10460800D01*
X10410000Y8249200D01*
X11507500Y9784200D02*
X11456700Y9885800D01*
X11558300D01*
X11507500Y9784200D01*
X9070000Y12839200D02*
X9019200Y12940800D01*
X9120800D01*
X9070000Y12839200D01*
X9090000Y12519200D02*
X9039200Y12620800D01*
X9140800D01*
X9090000Y12519200D01*
X10284999Y11004201D02*
X10310399Y11029601D01*
X10335799D01*
X10310399Y11055001D01*
X10335799Y11080401D01*
X10310399D01*
X10284999Y11105801D01*
X10259599Y11080401D01*
X10234199D01*
X10259599Y11055001D01*
X10234199Y11029601D01*
X10259599D01*
X10284999Y11004201D01*
X10260000Y11409200D02*
X10285400Y11434600D01*
X10310800D01*
X10285400Y11460000D01*
X10310800Y11485400D01*
X10285400D01*
X10260000Y11510800D01*
X10234600Y11485400D01*
X10209200D01*
X10234600Y11460000D01*
X10209200Y11434600D01*
X10234600D01*
X10260000Y11409200D01*
X10510000Y11379200D02*
X10535400Y11404600D01*
X10560800D01*
X10535400Y11430000D01*
X10560800Y11455400D01*
X10535400D01*
X10510000Y11480800D01*
X10484600Y11455400D01*
X10459200D01*
X10484600Y11430000D01*
X10459200Y11404600D01*
X10484600D01*
X10510000Y11379200D01*
X10520000Y11279200D02*
X10545400Y11304600D01*
X10570800D01*
X10545400Y11330000D01*
X10570800Y11355400D01*
X10545400D01*
X10520000Y11380800D01*
X10494600Y11355400D01*
X10469200D01*
X10494600Y11330000D01*
X10469200Y11304600D01*
X10494600D01*
X10520000Y11279200D01*
X9580000Y11859200D02*
X9605400Y11884600D01*
X9630800D01*
X9605400Y11910000D01*
X9630800Y11935400D01*
X9605400D01*
X9580000Y11960800D01*
X9554600Y11935400D01*
X9529200D01*
X9554600Y11910000D01*
X9529200Y11884600D01*
X9554600D01*
X9580000Y11859200D01*
X9890000Y9249200D02*
X9915400Y9274600D01*
X9940800D01*
X9915400Y9300000D01*
X9940800Y9325400D01*
X9915400D01*
X9890000Y9350800D01*
X9864600Y9325400D01*
X9839200D01*
X9864600Y9300000D01*
X9839200Y9274600D01*
X9864600D01*
X9890000Y9249200D01*
X9950000Y9289200D02*
X9975400Y9314600D01*
X10000800D01*
X9975400Y9340000D01*
X10000800Y9365400D01*
X9975400D01*
X9950000Y9390800D01*
X9924600Y9365400D01*
X9899200D01*
X9924600Y9340000D01*
X9899200Y9314600D01*
X9924600D01*
X9950000Y9289200D01*
X9940000Y11349200D02*
X9965400Y11374600D01*
X9990800D01*
X9965400Y11400000D01*
X9990800Y11425400D01*
X9965400D01*
X9940000Y11450800D01*
X9914600Y11425400D01*
X9889200D01*
X9914600Y11400000D01*
X9889200Y11374600D01*
X9914600D01*
X9940000Y11349200D01*
X9500000Y11849200D02*
X9525400Y11874600D01*
X9550800D01*
X9525400Y11900000D01*
X9550800Y11925400D01*
X9525400D01*
X9500000Y11950800D01*
X9474600Y11925400D01*
X9449200D01*
X9474600Y11900000D01*
X9449200Y11874600D01*
X9474600D01*
X9500000Y11849200D01*
X9869980Y9349181D02*
X9895380Y9374581D01*
X9920780D01*
X9895380Y9399981D01*
X9920780Y9425381D01*
X9895380D01*
X9869980Y9450781D01*
X9844580Y9425381D01*
X9819180D01*
X9844580Y9399981D01*
X9819180Y9374581D01*
X9844580D01*
X9869980Y9349181D01*
X10000000Y11419200D02*
X10025400Y11444600D01*
X10050800D01*
X10025400Y11470000D01*
X10050800Y11495400D01*
X10025400D01*
X10000000Y11520800D01*
X9974600Y11495400D01*
X9949200D01*
X9974600Y11470000D01*
X9949200Y11444600D01*
X9974600D01*
X10000000Y11419200D01*
X10579979Y9099182D02*
X10605379Y9124582D01*
X10630779D01*
X10605379Y9149982D01*
X10630779Y9175382D01*
X10605379D01*
X10579979Y9200782D01*
X10554579Y9175382D01*
X10529179D01*
X10554579Y9149982D01*
X10529179Y9124582D01*
X10554579D01*
X10579979Y9099182D01*
X10525000Y9044200D02*
X10550400Y9069600D01*
X10575800D01*
X10550400Y9095000D01*
X10575800Y9120400D01*
X10550400D01*
X10525000Y9145800D01*
X10499600Y9120400D01*
X10474200D01*
X10499600Y9095000D01*
X10474200Y9069600D01*
X10499600D01*
X10525000Y9044200D01*
X10480000Y9099200D02*
X10505400Y9124600D01*
X10530800D01*
X10505400Y9150000D01*
X10530800Y9175400D01*
X10505400D01*
X10480000Y9200800D01*
X10454600Y9175400D01*
X10429200D01*
X10454600Y9150000D01*
X10429200Y9124600D01*
X10454600D01*
X10480000Y9099200D01*
X10370000Y9059200D02*
X10395400Y9084600D01*
X10420800D01*
X10395400Y9110000D01*
X10420800Y9135400D01*
X10395400D01*
X10370000Y9160800D01*
X10344600Y9135400D01*
X10319200D01*
X10344600Y9110000D01*
X10319200Y9084600D01*
X10344600D01*
X10370000Y9059200D01*
X10300000Y9039200D02*
X10325400Y9064600D01*
X10350800D01*
X10325400Y9090000D01*
X10350800Y9115400D01*
X10325400D01*
X10300000Y9140800D01*
X10274600Y9115400D01*
X10249200D01*
X10274600Y9090000D01*
X10249200Y9064600D01*
X10274600D01*
X10300000Y9039200D01*
X10700000Y9019200D02*
X10725400Y9044600D01*
X10750800D01*
X10725400Y9070000D01*
X10750800Y9095400D01*
X10725400D01*
X10700000Y9120800D01*
X10674600Y9095400D01*
X10649200D01*
X10674600Y9070000D01*
X10649200Y9044600D01*
X10674600D01*
X10700000Y9019200D01*
X10809978Y8939182D02*
X10835378Y8964582D01*
X10860778D01*
X10835378Y8989982D01*
X10860778Y9015382D01*
X10835378D01*
X10809978Y9040782D01*
X10784578Y9015382D01*
X10759178D01*
X10784578Y8989982D01*
X10759178Y8964582D01*
X10784578D01*
X10809978Y8939182D01*
X12310000Y10449200D02*
X12335400Y10474600D01*
X12360800D01*
X12335400Y10500000D01*
X12360800Y10525400D01*
X12335400D01*
X12310000Y10550800D01*
X12284600Y10525400D01*
X12259200D01*
X12284600Y10500000D01*
X12259200Y10474600D01*
X12284600D01*
X12310000Y10449200D01*
X12710000Y8949200D02*
X12735400Y8974600D01*
X12760800D01*
X12735400Y9000000D01*
X12760800Y9025400D01*
X12735400D01*
X12710000Y9050800D01*
X12684600Y9025400D01*
X12659200D01*
X12684600Y9000000D01*
X12659200Y8974600D01*
X12684600D01*
X12710000Y8949200D01*
X13020000Y11559200D02*
X12969200Y11660800D01*
X13070799D01*
X13020000Y11559200D01*
X11600000Y10829200D02*
X11625400Y10854600D01*
X11650800D01*
X11625400Y10880000D01*
X11650800Y10905400D01*
X11625400D01*
X11600000Y10930800D01*
X11574600Y10905400D01*
X11549200D01*
X11574600Y10880000D01*
X11549200Y10854600D01*
X11574600D01*
X11600000Y10829200D01*
Y8629200D02*
X11625400Y8654600D01*
X11650800D01*
X11625400Y8680000D01*
X11650800Y8705400D01*
X11625400D01*
X11600000Y8730800D01*
X11574600Y8705400D01*
X11549200D01*
X11574600Y8680000D01*
X11549200Y8654600D01*
X11574600D01*
X11600000Y8629200D01*
X14939999Y8439200D02*
X14889200Y8540800D01*
X14990800D01*
X14939999Y8439200D01*
X15005000Y9044200D02*
X14954201Y9145800D01*
X15055800D01*
X15005000Y9044200D01*
X15039999Y11519200D02*
X14989200Y11620800D01*
X15090800D01*
X15039999Y11519200D01*
X14789999Y12159200D02*
X14739200Y12260800D01*
X14840800D01*
X14789999Y12159200D01*
X15064999Y11849200D02*
X15014200Y11950800D01*
X15115800D01*
X15064999Y11849200D01*
X15595000Y12054200D02*
X15544200Y12155800D01*
X15645799D01*
X15595000Y12054200D01*
X14750000Y11029200D02*
X14699200Y11130800D01*
X14800800D01*
X14750000Y11029200D01*
X12060000Y9739200D02*
X12009200Y9840800D01*
X12110800D01*
X12060000Y9739200D01*
X12269975Y9729180D02*
X12219175Y9830780D01*
X12320775D01*
X12269975Y9729180D01*
X13230000Y10009200D02*
X13179201Y10110800D01*
X13280800D01*
X13230000Y10009200D01*
X8330000Y8199200D02*
X8279200Y8300800D01*
X8380800D01*
X8330000Y8199200D01*
X13440466Y10579666D02*
X13389667Y10681266D01*
X13491266D01*
X13440466Y10579666D01*
X13610001Y11139200D02*
X13559200Y11240800D01*
X13660800D01*
X13610001Y11139200D01*
X8480000Y7809200D02*
X8429200Y7910800D01*
X8530800D01*
X8480000Y7809200D01*
X8446000Y8215200D02*
X8395200Y8316800D01*
X8496800D01*
X8446000Y8215200D01*
X8560000Y8219200D02*
X8509200Y8320800D01*
X8610800D01*
X8560000Y8219200D01*
X12012500Y10899200D02*
X11961700Y11000800D01*
X12063300D01*
X12012500Y10899200D01*
X12670000Y8219200D02*
X12619200Y8320800D01*
X12720800D01*
X12670000Y8219200D01*
X13280000D02*
X13229201Y8320800D01*
X13330800D01*
X13280000Y8219200D01*
X13860001D02*
X13809200Y8320800D01*
X13910800D01*
X13860001Y8219200D01*
X13809972Y8529183D02*
X13759172Y8630783D01*
X13860773D01*
X13809972Y8529183D01*
X13910001Y8609200D02*
X13859200Y8710800D01*
X13960800D01*
X13910001Y8609200D01*
X13139999Y8659200D02*
X13089200Y8760800D01*
X13190800D01*
X13139999Y8659200D01*
X14470000Y8219200D02*
X14419200Y8320800D01*
X14520799D01*
X14470000Y8219200D01*
X14389999Y8569200D02*
X14339200Y8670800D01*
X14440800D01*
X14389999Y8569200D01*
X14189999Y8949200D02*
X14139200Y9050800D01*
X14240800D01*
X14189999Y8949200D01*
X12860001Y9839200D02*
X12809200Y9940800D01*
X12910800D01*
X12860001Y9839200D01*
X12830000Y10009200D02*
X12779200Y10110800D01*
X12880800D01*
X12830000Y10009200D01*
X14725000Y9339200D02*
X14674200Y9440800D01*
X14775800D01*
X14725000Y9339200D01*
X14727499Y9459200D02*
X14676700Y9560800D01*
X14778300D01*
X14727499Y9459200D01*
X14139999Y10251700D02*
X14089200Y10353300D01*
X14190800D01*
X14139999Y10251700D01*
X14727499Y9581700D02*
X14676700Y9683300D01*
X14778300D01*
X14727499Y9581700D01*
X15050000Y8219200D02*
X14999200Y8320800D01*
X15100800D01*
X15050000Y8219200D01*
X15680000D02*
X15629201Y8320800D01*
X15730800D01*
X15680000Y8219200D01*
X15939999Y8989200D02*
X15889200Y9090800D01*
X15990800D01*
X15939999Y8989200D01*
X15557526Y10021006D02*
X15506725Y10122606D01*
X15608325D01*
X15557526Y10021006D01*
X15720000Y9679200D02*
X15669200Y9780800D01*
X15770799D01*
X15720000Y9679200D01*
X15752499Y10129200D02*
X15701700Y10230800D01*
X15803300D01*
X15752499Y10129200D01*
X15750000Y10256700D02*
X15699200Y10358300D01*
X15800800D01*
X15750000Y10256700D01*
X15939999Y10319200D02*
X15889200Y10420800D01*
X15990800D01*
X15939999Y10319200D01*
X12850000Y10529200D02*
X12799200Y10630800D01*
X12900800D01*
X12850000Y10529200D01*
X12932500Y10749200D02*
X12881700Y10850800D01*
X12983299D01*
X12932500Y10749200D01*
X12563431Y11134200D02*
X12512631Y11235800D01*
X12614231D01*
X12563431Y11134200D01*
X13200000Y11339200D02*
X13149200Y11440800D01*
X13250800D01*
X13200000Y11339200D01*
X13450000Y11869200D02*
X13399200Y11970800D01*
X13500800D01*
X13450000Y11869200D01*
X13152499Y11916700D02*
X13101700Y12018300D01*
X13203300D01*
X13152499Y11916700D01*
X14564999Y11724200D02*
X14514200Y11825800D01*
X14615800D01*
X14564999Y11724200D01*
X13880000Y12359200D02*
X13829201Y12460800D01*
X13930800D01*
X13880000Y12359200D01*
X14470000D02*
X14419200Y12460800D01*
X14520799D01*
X14470000Y12359200D01*
X15424722Y10464200D02*
X15373923Y10565800D01*
X15475522D01*
X15424722Y10464200D01*
X15480000Y10499200D02*
X15429201Y10600800D01*
X15530800D01*
X15480000Y10499200D01*
X15742500Y10319200D02*
X15691701Y10420800D01*
X15793300D01*
X15742500Y10319200D01*
X15747501Y10434200D02*
X15696700Y10535800D01*
X15798300D01*
X15747501Y10434200D01*
X14720000Y11129200D02*
X14669200Y11230800D01*
X14770799D01*
X14720000Y11129200D01*
X15560001Y10859200D02*
X15509200Y10960800D01*
X15610800D01*
X15560001Y10859200D01*
X14717500Y11254200D02*
X14666701Y11355800D01*
X14768300D01*
X14717500Y11254200D01*
Y11354200D02*
X14666701Y11455800D01*
X14768300D01*
X14717500Y11354200D01*
X15060001Y12359200D02*
X15009200Y12460800D01*
X15110800D01*
X15060001Y12359200D01*
X15689999Y11949200D02*
X15639200Y12050800D01*
X15740800D01*
X15689999Y11949200D01*
X15700000Y12379200D02*
X15649200Y12480800D01*
X15750800D01*
X15700000Y12379200D01*
X15739999Y10909200D02*
X15689200Y11010800D01*
X15790800D01*
X15739999Y10909200D01*
X16210001Y11679200D02*
X16159200Y11780800D01*
X16260800D01*
X16210001Y11679200D01*
X13030000Y9159200D02*
X12979201Y9260800D01*
X13080800D01*
X13030000Y9159200D01*
X12675000Y9944200D02*
X12624200Y10045800D01*
X12725800D01*
X12675000Y9944200D01*
X12403431Y11454200D02*
X12352631Y11555800D01*
X12454231D01*
X12403431Y11454200D01*
X13110001Y10739200D02*
X13059200Y10840800D01*
X13160800D01*
X13110001Y10739200D01*
X13286571Y10669200D02*
X13235770Y10770800D01*
X13337370D01*
X13286571Y10669200D01*
X14169971Y8439183D02*
X14119171Y8540783D01*
X14220770D01*
X14169971Y8439183D01*
X14410001Y10209200D02*
X14359200Y10310800D01*
X14460800D01*
X14410001Y10209200D01*
X15700000Y8709200D02*
X15649200Y8810800D01*
X15750800D01*
X15700000Y8709200D01*
X14920000Y9769200D02*
X14869200Y9870800D01*
X14970799D01*
X14920000Y9769200D01*
X14239999Y10789200D02*
X14189200Y10890800D01*
X14290800D01*
X14239999Y10789200D01*
X15610001Y11919200D02*
X15559200Y12020800D01*
X15660800D01*
X15610001Y11919200D01*
X13010001Y9899200D02*
X12959200Y10000800D01*
X13060800D01*
X13010001Y9899200D01*
X13014999Y10519200D02*
X12964200Y10620800D01*
X13065800D01*
X13014999Y10519200D01*
X12563431Y11454200D02*
X12512631Y11555800D01*
X12614231D01*
X12563431Y11454200D01*
X14035690Y9177150D02*
X13984891Y9278750D01*
X14086490D01*
X14035690Y9177150D01*
X14062500Y9846700D02*
X14011700Y9948300D01*
X14113300D01*
X14062500Y9846700D01*
X15010001Y8839200D02*
X14959200Y8940800D01*
X15060800D01*
X15010001Y8839200D01*
X13089999Y11349200D02*
X13039200Y11450800D01*
X13140800D01*
X13089999Y11349200D01*
X14322501Y11399200D02*
X14271700Y11500800D01*
X14373300D01*
X14322501Y11399200D01*
X14937500Y10776700D02*
X14886700Y10878300D01*
X14988300D01*
X14937500Y10776700D01*
X15060001Y11729200D02*
X15009200Y11830800D01*
X15110800D01*
X15060001Y11729200D01*
X13310001Y8929200D02*
X13259200Y9030800D01*
X13360800D01*
X13310001Y8929200D01*
X13639999Y8839200D02*
X13589200Y8940800D01*
X13690800D01*
X13639999Y8839200D01*
X12700000Y9119200D02*
X12649200Y9220800D01*
X12750800D01*
X12700000Y9119200D01*
X12805000Y10681700D02*
X12754200Y10783300D01*
X12855800D01*
X12805000Y10681700D01*
X12790000Y11289200D02*
X12739200Y11390800D01*
X12840800D01*
X12790000Y11289200D01*
X13520000Y11219200D02*
X13469200Y11320800D01*
X13570799D01*
X13520000Y11219200D01*
X9515000Y12004200D02*
X9464200Y12105800D01*
X9565800D01*
X9515000Y12004200D01*
X9520000Y12359200D02*
X9469200Y12460800D01*
X9570800D01*
X9520000Y12359200D01*
X11510000Y10409200D02*
X11459200Y10510800D01*
X11560800D01*
X11510000Y10409200D01*
X12470000Y9909200D02*
X12419200Y10010800D01*
X12520800D01*
X12470000Y9909200D01*
Y10499200D02*
X12419200Y10600800D01*
X12520800D01*
X12470000Y10499200D01*
X12670000Y10159200D02*
X12619200Y10260800D01*
X12720800D01*
X12670000Y10159200D01*
X10230000Y8539200D02*
X10179200Y8640800D01*
X10280800D01*
X10230000Y8539200D01*
X10190000Y8709200D02*
X10139200Y8810800D01*
X10240800D01*
X10190000Y8709200D01*
X13077499Y10271700D02*
X13102901Y10297100D01*
X13128300D01*
X13102901Y10322500D01*
X13128300Y10347900D01*
X13102901D01*
X13077499Y10373300D01*
X13052100Y10347900D01*
X13026700D01*
X13052100Y10322500D01*
X13026700Y10297100D01*
X13052100D01*
X13077499Y10271700D01*
X10660000Y8449200D02*
X10609200Y8550800D01*
X10710800D01*
X10660000Y8449200D01*
X10950000D02*
X10975400Y8474600D01*
X11000800D01*
X10975400Y8500000D01*
X11000800Y8525400D01*
X10975400D01*
X10950000Y8550800D01*
X10924600Y8525400D01*
X10899200D01*
X10924600Y8500000D01*
X10899200Y8474600D01*
X10924600D01*
X10950000Y8449200D01*
X9885000Y11664200D02*
X9910400Y11689600D01*
X9935800D01*
X9910400Y11715000D01*
X9935800Y11740400D01*
X9910400D01*
X9885000Y11765800D01*
X9859600Y11740400D01*
X9834200D01*
X9859600Y11715000D01*
X9834200Y11689600D01*
X9859600D01*
X9885000Y11664200D01*
X10500000Y12349200D02*
X10525400Y12374600D01*
X10550800D01*
X10525400Y12400000D01*
X10550800Y12425400D01*
X10525400D01*
X10500000Y12450800D01*
X10474600Y12425400D01*
X10449200D01*
X10474600Y12400000D01*
X10449200Y12374600D01*
X10474600D01*
X10500000Y12349200D01*
X11520000Y11949200D02*
X11469200Y12050800D01*
X11570800D01*
X11520000Y11949200D01*
X11310000Y11799200D02*
X11335400Y11824600D01*
X11360800D01*
X11335400Y11850000D01*
X11360800Y11875400D01*
X11335400D01*
X11310000Y11900800D01*
X11284600Y11875400D01*
X11259200D01*
X11284600Y11850000D01*
X11259200Y11824600D01*
X11284600D01*
X11310000Y11799200D01*
X11730000Y10299200D02*
X11679200Y10400800D01*
X11780800D01*
X11730000Y10299200D01*
X10870000Y10489200D02*
X10895400Y10514600D01*
X10920800D01*
X10895400Y10540000D01*
X10920800Y10565400D01*
X10895400D01*
X10870000Y10590800D01*
X10844600Y10565400D01*
X10819200D01*
X10844600Y10540000D01*
X10819200Y10514600D01*
X10844600D01*
X10870000Y10489200D01*
X10080000Y10809200D02*
X10105400Y10834600D01*
X10130800D01*
X10105400Y10860000D01*
X10130800Y10885400D01*
X10105400D01*
X10080000Y10910800D01*
X10054600Y10885400D01*
X10029200D01*
X10054600Y10860000D01*
X10029200Y10834600D01*
X10054600D01*
X10080000Y10809200D01*
X8070000Y8019200D02*
X8019200Y8120800D01*
X8120800D01*
X8070000Y8019200D01*
X7930000Y9009200D02*
X7879200Y9110800D01*
X7980800D01*
X7930000Y9009200D01*
Y9079200D02*
X7879200Y9180800D01*
X7980800D01*
X7930000Y9079200D01*
Y8949200D02*
X7879200Y9050800D01*
X7980800D01*
X7930000Y8949200D01*
X8140000Y8019200D02*
X8089200Y8120800D01*
X8190800D01*
X8140000Y8019200D01*
X8210000D02*
X8159200Y8120800D01*
X8260800D01*
X8210000Y8019200D01*
X8280000D02*
X8229200Y8120800D01*
X8330800D01*
X8280000Y8019200D01*
X8350000D02*
X8299200Y8120800D01*
X8400800D01*
X8350000Y8019200D01*
X8420000D02*
X8369200Y8120800D01*
X8470800D01*
X8420000Y8019200D01*
X8910000Y8229200D02*
X8859200Y8330800D01*
X8960800D01*
X8910000Y8229200D01*
X8980000D02*
X8929200Y8330800D01*
X9030800D01*
X8980000Y8229200D01*
X9050000D02*
X8999200Y8330800D01*
X9100800D01*
X9050000Y8229200D01*
X9120000D02*
X9069200Y8330800D01*
X9170800D01*
X9120000Y8229200D01*
X10249979Y10649179D02*
X10275379Y10674579D01*
X10300780D01*
X10275379Y10699979D01*
X10300780Y10725379D01*
X10275379D01*
X10249979Y10750779D01*
X10224580Y10725379D01*
X10199179D01*
X10224580Y10699979D01*
X10199179Y10674579D01*
X10224580D01*
X10249979Y10649179D01*
X10350000Y10919200D02*
X10375400Y10944600D01*
X10400800D01*
X10375400Y10970000D01*
X10400800Y10995400D01*
X10375400D01*
X10350000Y11020800D01*
X10324600Y10995400D01*
X10299200D01*
X10324600Y10970000D01*
X10299200Y10944600D01*
X10324600D01*
X10350000Y10919200D01*
X10600000Y11209200D02*
X10625400Y11234600D01*
X10650800D01*
X10625400Y11260000D01*
X10650800Y11285400D01*
X10625400D01*
X10600000Y11310800D01*
X10574600Y11285400D01*
X10549200D01*
X10574600Y11260000D01*
X10549200Y11234600D01*
X10574600D01*
X10600000Y11209200D01*
X10659979Y10929178D02*
X10685379Y10954578D01*
X10710779D01*
X10685379Y10979978D01*
X10710779Y11005378D01*
X10685379D01*
X10659979Y11030778D01*
X10634579Y11005378D01*
X10609179D01*
X10634579Y10979978D01*
X10609179Y10954578D01*
X10634579D01*
X10659979Y10929178D01*
X10790000Y10975560D02*
X10815400Y11000960D01*
X10840800D01*
X10815400Y11026360D01*
X10840800Y11051760D01*
X10815400D01*
X10790000Y11077160D01*
X10764600Y11051760D01*
X10739200D01*
X10764600Y11026360D01*
X10739200Y11000960D01*
X10764600D01*
X10790000Y10975560D01*
X10710000Y10499200D02*
X10735400Y10524600D01*
X10760800D01*
X10735400Y10550000D01*
X10760800Y10575400D01*
X10735400D01*
X10710000Y10600800D01*
X10684600Y10575400D01*
X10659200D01*
X10684600Y10550000D01*
X10659200Y10524600D01*
X10684600D01*
X10710000Y10499200D01*
X10780000Y10489200D02*
X10805400Y10514600D01*
X10830800D01*
X10805400Y10540000D01*
X10830800Y10565400D01*
X10805400D01*
X10780000Y10590800D01*
X10754600Y10565400D01*
X10729200D01*
X10754600Y10540000D01*
X10729200Y10514600D01*
X10754600D01*
X10780000Y10489200D01*
X10649979Y9479181D02*
X10599179Y9580781D01*
X10700779D01*
X10649979Y9479181D01*
X10690000Y11009200D02*
X10639200Y11110800D01*
X10740800D01*
X10690000Y11009200D01*
X11069999Y10019200D02*
X11019199Y10120800D01*
X11120799D01*
X11069999Y10019200D01*
X10730000Y9379200D02*
X10755400Y9404600D01*
X10780800D01*
X10755400Y9430000D01*
X10780800Y9455400D01*
X10755400D01*
X10730000Y9480800D01*
X10704600Y9455400D01*
X10679200D01*
X10704600Y9430000D01*
X10679200Y9404600D01*
X10704600D01*
X10730000Y9379200D01*
X13280000Y12379200D02*
X13229201Y12480800D01*
X13330800D01*
X13280000Y12379200D01*
X13180000D02*
X13129201Y12480800D01*
X13230800D01*
X13180000Y12379200D01*
X13780000Y10389200D02*
X13729201Y10490800D01*
X13830800D01*
X13780000Y10389200D01*
X14655000Y10671700D02*
X14604201Y10773300D01*
X14705800D01*
X14655000Y10671700D01*
X12139976Y11949176D02*
X12089176Y12050776D01*
X12190776D01*
X12139976Y11949176D01*
X12129975Y11739176D02*
X12079175Y11840776D01*
X12180775D01*
X12129975Y11739176D01*
X15939999Y11569200D02*
X15889200Y11670800D01*
X15990800D01*
X15939999Y11569200D01*
X16300009Y9249205D02*
X16325409Y9274605D01*
X16350809D01*
X16325409Y9300005D01*
X16350809Y9325405D01*
X16325409D01*
X16300009Y9350805D01*
X16274609Y9325405D01*
X16249210D01*
X16274609Y9300005D01*
X16249210Y9274605D01*
X16274609D01*
X16300009Y9249205D01*
X16350009Y9549205D02*
X16375409Y9574605D01*
X16400809D01*
X16375409Y9600005D01*
X16400809Y9625405D01*
X16375409D01*
X16350009Y9650805D01*
X16324609Y9625405D01*
X16299210D01*
X16324609Y9600005D01*
X16299210Y9574605D01*
X16324609D01*
X16350009Y9549205D01*
Y10149206D02*
X16375409Y10174606D01*
X16400809D01*
X16375409Y10200006D01*
X16400809Y10225406D01*
X16375409D01*
X16350009Y10250806D01*
X16324609Y10225406D01*
X16299210D01*
X16324609Y10200006D01*
X16299210Y10174606D01*
X16324609D01*
X16350009Y10149206D01*
X16300009Y10249206D02*
X16325409Y10274606D01*
X16350809D01*
X16325409Y10300006D01*
X16350809Y10325406D01*
X16325409D01*
X16300009Y10350806D01*
X16274609Y10325406D01*
X16249210D01*
X16274609Y10300006D01*
X16249210Y10274606D01*
X16274609D01*
X16300009Y10249206D01*
X16350009Y10349206D02*
X16375409Y10374606D01*
X16400809D01*
X16375409Y10400006D01*
X16400809Y10425406D01*
X16375409D01*
X16350009Y10450806D01*
X16324609Y10425406D01*
X16299210D01*
X16324609Y10400006D01*
X16299210Y10374606D01*
X16324609D01*
X16350009Y10349206D01*
X16300009Y10449206D02*
X16325409Y10474606D01*
X16350809D01*
X16325409Y10500006D01*
X16350809Y10525406D01*
X16325409D01*
X16300009Y10550806D01*
X16274609Y10525406D01*
X16249210D01*
X16274609Y10500006D01*
X16249210Y10474606D01*
X16274609D01*
X16300009Y10449206D01*
X16350009Y10749206D02*
X16375409Y10774606D01*
X16400809D01*
X16375409Y10800006D01*
X16400809Y10825406D01*
X16375409D01*
X16350009Y10850806D01*
X16324609Y10825406D01*
X16299210D01*
X16324609Y10800006D01*
X16299210Y10774606D01*
X16324609D01*
X16350009Y10749206D01*
X16300009Y11049206D02*
X16325409Y11074606D01*
X16350809D01*
X16325409Y11100006D01*
X16350809Y11125406D01*
X16325409D01*
X16300009Y11150806D01*
X16274609Y11125406D01*
X16249210D01*
X16274609Y11100006D01*
X16249210Y11074606D01*
X16274609D01*
X16300009Y11049206D01*
X16400009Y9249205D02*
X16425409Y9274605D01*
X16450809D01*
X16425409Y9300005D01*
X16450809Y9325405D01*
X16425409D01*
X16400009Y9350805D01*
X16374609Y9325405D01*
X16349210D01*
X16374609Y9300005D01*
X16349210Y9274605D01*
X16374609D01*
X16400009Y9249205D01*
X16450009Y9549205D02*
X16475409Y9574605D01*
X16500809D01*
X16475409Y9600005D01*
X16500809Y9625405D01*
X16475409D01*
X16450009Y9650805D01*
X16424609Y9625405D01*
X16399210D01*
X16424609Y9600005D01*
X16399210Y9574605D01*
X16424609D01*
X16450009Y9549205D01*
X16400009Y9849205D02*
X16425409Y9874605D01*
X16450809D01*
X16425409Y9900005D01*
X16450809Y9925405D01*
X16425409D01*
X16400009Y9950805D01*
X16374609Y9925405D01*
X16349210D01*
X16374609Y9900005D01*
X16349210Y9874605D01*
X16374609D01*
X16400009Y9849205D01*
X16450009Y10149206D02*
X16475409Y10174606D01*
X16500809D01*
X16475409Y10200006D01*
X16500809Y10225406D01*
X16475409D01*
X16450009Y10250806D01*
X16424609Y10225406D01*
X16399210D01*
X16424609Y10200006D01*
X16399210Y10174606D01*
X16424609D01*
X16450009Y10149206D01*
X16400009Y10249206D02*
X16425409Y10274606D01*
X16450809D01*
X16425409Y10300006D01*
X16450809Y10325406D01*
X16425409D01*
X16400009Y10350806D01*
X16374609Y10325406D01*
X16349210D01*
X16374609Y10300006D01*
X16349210Y10274606D01*
X16374609D01*
X16400009Y10249206D01*
X16450009Y10349206D02*
X16475409Y10374606D01*
X16500809D01*
X16475409Y10400006D01*
X16500809Y10425406D01*
X16475409D01*
X16450009Y10450806D01*
X16424609Y10425406D01*
X16399210D01*
X16424609Y10400006D01*
X16399210Y10374606D01*
X16424609D01*
X16450009Y10349206D01*
X16400009Y10449206D02*
X16425409Y10474606D01*
X16450809D01*
X16425409Y10500006D01*
X16450809Y10525406D01*
X16425409D01*
X16400009Y10550806D01*
X16374609Y10525406D01*
X16349210D01*
X16374609Y10500006D01*
X16349210Y10474606D01*
X16374609D01*
X16400009Y10449206D01*
X16450009Y10749206D02*
X16475409Y10774606D01*
X16500809D01*
X16475409Y10800006D01*
X16500809Y10825406D01*
X16475409D01*
X16450009Y10850806D01*
X16424609Y10825406D01*
X16399210D01*
X16424609Y10800006D01*
X16399210Y10774606D01*
X16424609D01*
X16450009Y10749206D01*
X16400009Y11049206D02*
X16425409Y11074606D01*
X16450809D01*
X16425409Y11100006D01*
X16450809Y11125406D01*
X16425409D01*
X16400009Y11150806D01*
X16374609Y11125406D01*
X16349210D01*
X16374609Y11100006D01*
X16349210Y11074606D01*
X16374609D01*
X16400009Y11049206D01*
X16500009Y9249205D02*
X16525409Y9274605D01*
X16550809D01*
X16525409Y9300005D01*
X16550809Y9325405D01*
X16525409D01*
X16500009Y9350805D01*
X16474609Y9325405D01*
X16449210D01*
X16474609Y9300005D01*
X16449210Y9274605D01*
X16474609D01*
X16500009Y9249205D01*
X16550009Y9549205D02*
X16575409Y9574605D01*
X16600809D01*
X16575409Y9600005D01*
X16600809Y9625405D01*
X16575409D01*
X16550009Y9650805D01*
X16524609Y9625405D01*
X16499210D01*
X16524609Y9600005D01*
X16499210Y9574605D01*
X16524609D01*
X16550009Y9549205D01*
X16500009Y9849205D02*
X16525409Y9874605D01*
X16550809D01*
X16525409Y9900005D01*
X16550809Y9925405D01*
X16525409D01*
X16500009Y9950805D01*
X16474609Y9925405D01*
X16449210D01*
X16474609Y9900005D01*
X16449210Y9874605D01*
X16474609D01*
X16500009Y9849205D01*
X16550009Y10149206D02*
X16575409Y10174606D01*
X16600809D01*
X16575409Y10200006D01*
X16600809Y10225406D01*
X16575409D01*
X16550009Y10250806D01*
X16524609Y10225406D01*
X16499210D01*
X16524609Y10200006D01*
X16499210Y10174606D01*
X16524609D01*
X16550009Y10149206D01*
X16500009Y10249206D02*
X16525409Y10274606D01*
X16550809D01*
X16525409Y10300006D01*
X16550809Y10325406D01*
X16525409D01*
X16500009Y10350806D01*
X16474609Y10325406D01*
X16449210D01*
X16474609Y10300006D01*
X16449210Y10274606D01*
X16474609D01*
X16500009Y10249206D01*
X16550009Y10349206D02*
X16575409Y10374606D01*
X16600809D01*
X16575409Y10400006D01*
X16600809Y10425406D01*
X16575409D01*
X16550009Y10450806D01*
X16524609Y10425406D01*
X16499210D01*
X16524609Y10400006D01*
X16499210Y10374606D01*
X16524609D01*
X16550009Y10349206D01*
X16500009Y10449206D02*
X16525409Y10474606D01*
X16550809D01*
X16525409Y10500006D01*
X16550809Y10525406D01*
X16525409D01*
X16500009Y10550806D01*
X16474609Y10525406D01*
X16449210D01*
X16474609Y10500006D01*
X16449210Y10474606D01*
X16474609D01*
X16500009Y10449206D01*
X16550009Y10749206D02*
X16575409Y10774606D01*
X16600809D01*
X16575409Y10800006D01*
X16600809Y10825406D01*
X16575409D01*
X16550009Y10850806D01*
X16524609Y10825406D01*
X16499210D01*
X16524609Y10800006D01*
X16499210Y10774606D01*
X16524609D01*
X16550009Y10749206D01*
X16500009Y11049206D02*
X16525409Y11074606D01*
X16550809D01*
X16525409Y11100006D01*
X16550809Y11125406D01*
X16525409D01*
X16500009Y11150806D01*
X16474609Y11125406D01*
X16449210D01*
X16474609Y11100006D01*
X16449210Y11074606D01*
X16474609D01*
X16500009Y11049206D01*
X16600009Y9249205D02*
X16625409Y9274605D01*
X16650809D01*
X16625409Y9300005D01*
X16650809Y9325405D01*
X16625409D01*
X16600009Y9350805D01*
X16574609Y9325405D01*
X16549210D01*
X16574609Y9300005D01*
X16549210Y9274605D01*
X16574609D01*
X16600009Y9249205D01*
Y9849205D02*
X16625409Y9874605D01*
X16650809D01*
X16625409Y9900005D01*
X16650809Y9925405D01*
X16625409D01*
X16600009Y9950805D01*
X16574609Y9925405D01*
X16549210D01*
X16574609Y9900005D01*
X16549210Y9874605D01*
X16574609D01*
X16600009Y9849205D01*
Y10249206D02*
X16625409Y10274606D01*
X16650809D01*
X16625409Y10300006D01*
X16650809Y10325406D01*
X16625409D01*
X16600009Y10350806D01*
X16574609Y10325406D01*
X16549210D01*
X16574609Y10300006D01*
X16549210Y10274606D01*
X16574609D01*
X16600009Y10249206D01*
Y10449206D02*
X16625409Y10474606D01*
X16650809D01*
X16625409Y10500006D01*
X16650809Y10525406D01*
X16625409D01*
X16600009Y10550806D01*
X16574609Y10525406D01*
X16549210D01*
X16574609Y10500006D01*
X16549210Y10474606D01*
X16574609D01*
X16600009Y10449206D01*
Y11049206D02*
X16625409Y11074606D01*
X16650809D01*
X16625409Y11100006D01*
X16650809Y11125406D01*
X16625409D01*
X16600009Y11150806D01*
X16574609Y11125406D01*
X16549210D01*
X16574609Y11100006D01*
X16549210Y11074606D01*
X16574609D01*
X16600009Y11049206D01*
X7820000Y8089200D02*
X7769200Y8190800D01*
X7870800D01*
X7820000Y8089200D01*
X7680000D02*
X7629200Y8190800D01*
X7730800D01*
X7680000Y8089200D01*
X15339999Y11729200D02*
X15289200Y11830800D01*
X15390800D01*
X15339999Y11729200D01*
X15420000Y12059200D02*
X15369200Y12160800D01*
X15470799D01*
X15420000Y12059200D01*
D202*
X9850800Y9846000D02*
G03*
X9850800Y9846000I-50800J0D01*
G01*
Y10100000D02*
G03*
X9850800Y10100000I-50800J0D01*
G01*
Y10354000D02*
G03*
X9850800Y10354000I-50800J0D01*
G01*
Y10862000D02*
G03*
X9850800Y10862000I-50800J0D01*
G01*
Y11116000D02*
G03*
X9850800Y11116000I-50800J0D01*
G01*
Y11370000D02*
G03*
X9850800Y11370000I-50800J0D01*
G01*
Y10608000D02*
G03*
X9850800Y10608000I-50800J0D01*
G01*
%TF.MD5,79207f767cbf5d7a1bc3217b48aa1876*%
M02*
