G04 Layer_Color=0*
%FSLAX45Y45*%
%MOMM*%
%TF.FileFunction,Plated,1,6,PTH,Drill*%
%TF.Part,Single*%
G01*
G75*
%TA.AperFunction,ComponentDrill*%
%ADD197C,1.01600*%
%ADD198C,0.86000*%
%TA.AperFunction,ViaDrill,NotFilled*%
%ADD199C,0.30000*%
%ADD200C,0.20000*%
D197*
X15176500Y8064500D02*
D03*
X14922501D02*
D03*
X14668500D02*
D03*
X14414500D02*
D03*
X14160500D02*
D03*
X13906500D02*
D03*
X13652499D02*
D03*
X13398500D02*
D03*
X13144501D02*
D03*
X12890500D02*
D03*
X12636500D02*
D03*
X12382500D02*
D03*
X12128500D02*
D03*
X11874500D02*
D03*
X11620500D02*
D03*
X11366500D02*
D03*
X11112500D02*
D03*
X10858500D02*
D03*
X10604500D02*
D03*
X10350500D02*
D03*
X10096500D02*
D03*
X9842500D02*
D03*
X9588500D02*
D03*
X15176500Y7810500D02*
D03*
X14922501D02*
D03*
X14668500D02*
D03*
X14414500D02*
D03*
X14160500D02*
D03*
X13906500D02*
D03*
X13652499D02*
D03*
X13398500D02*
D03*
X13144501D02*
D03*
X12890500D02*
D03*
X12636500D02*
D03*
X12382500D02*
D03*
X12128500D02*
D03*
X11874500D02*
D03*
X11620500D02*
D03*
X11366500D02*
D03*
X11112500D02*
D03*
X10858500D02*
D03*
X10604500D02*
D03*
X10350500D02*
D03*
X10096500D02*
D03*
X9842500D02*
D03*
X9588500D02*
D03*
Y12636500D02*
D03*
X9842500D02*
D03*
X10096500D02*
D03*
X10350500D02*
D03*
X10604500D02*
D03*
X10858500D02*
D03*
X11112500D02*
D03*
X11366500D02*
D03*
X11620500D02*
D03*
X11874500D02*
D03*
X12128500D02*
D03*
X12382500D02*
D03*
X12636500D02*
D03*
X12890500D02*
D03*
X13144501D02*
D03*
X13398500D02*
D03*
X13652499D02*
D03*
X13906500D02*
D03*
X14160500D02*
D03*
X14414500D02*
D03*
X14668500D02*
D03*
X14922501D02*
D03*
X15176500D02*
D03*
X9588500Y12890500D02*
D03*
X9842500D02*
D03*
X10096500D02*
D03*
X10350500D02*
D03*
X10604500D02*
D03*
X10858500D02*
D03*
X11112500D02*
D03*
X11366500D02*
D03*
X11620500D02*
D03*
X11874500D02*
D03*
X12128500D02*
D03*
X12382500D02*
D03*
X12636500D02*
D03*
X12890500D02*
D03*
X13144501D02*
D03*
X13398500D02*
D03*
X13652499D02*
D03*
X13906500D02*
D03*
X14160500D02*
D03*
X14414500D02*
D03*
X14668500D02*
D03*
X14922501D02*
D03*
X15176500D02*
D03*
D198*
X9800000Y9846000D02*
D03*
Y10100000D02*
D03*
Y10354000D02*
D03*
Y10862000D02*
D03*
Y11116000D02*
D03*
Y11370000D02*
D03*
Y10608000D02*
D03*
D199*
X14130000Y9315000D02*
D03*
X15889999Y11800000D02*
D03*
X16450000Y12010000D02*
D03*
Y12290000D02*
D03*
X15700000Y8670000D02*
D03*
X16439999Y7210000D02*
D03*
X16450000Y7490000D02*
D03*
X8490000Y12240000D02*
D03*
X8439983Y12329975D02*
D03*
X8600000Y12460000D02*
D03*
X8450000Y12740000D02*
D03*
X8580000Y12760000D02*
D03*
X11070000Y11190000D02*
D03*
X11060000Y9150000D02*
D03*
X14320000Y11690000D02*
D03*
X9390000Y12430000D02*
D03*
X9120000Y12440000D02*
D03*
X11100000Y11780000D02*
D03*
X13650000Y9100000D02*
D03*
X13430000Y11560000D02*
D03*
X13189999Y9300000D02*
D03*
X13000000Y11440000D02*
D03*
X13200000Y9750000D02*
D03*
X10310000Y10380000D02*
D03*
X10020000Y9740000D02*
D03*
X10940000Y11310000D02*
D03*
X12070000Y11690000D02*
D03*
X12000000Y12550000D02*
D03*
X10869978Y11609977D02*
D03*
X12710000Y12440000D02*
D03*
X12620000Y12470000D02*
D03*
X11780000Y8670000D02*
D03*
X9989980Y10489979D02*
D03*
X9979980Y11299977D02*
D03*
X9980000Y11180000D02*
D03*
X13789999Y12130000D02*
D03*
X13780000Y9190000D02*
D03*
X14430000Y10860000D02*
D03*
X8170000Y8550000D02*
D03*
X14530000Y8870000D02*
D03*
X10440000Y7940000D02*
D03*
X10280000Y7930000D02*
D03*
X10160000D02*
D03*
X11750000Y7900000D02*
D03*
X8060000Y9450000D02*
D03*
X8120000D02*
D03*
X8180000D02*
D03*
X8240000D02*
D03*
X14780000Y10290000D02*
D03*
X11539977Y7919984D02*
D03*
X11460000Y7950000D02*
D03*
X10531924Y7948077D02*
D03*
X13110001Y12490000D02*
D03*
X13030000Y12720000D02*
D03*
X12460000Y12520000D02*
D03*
X12779974Y12559975D02*
D03*
X12537800Y12752200D02*
D03*
X10170000Y10320000D02*
D03*
X11190000Y11850000D02*
D03*
X10840000Y11320000D02*
D03*
X10860000Y11511000D02*
D03*
X10360000Y11760000D02*
D03*
X10380000Y12450000D02*
D03*
X12100000Y12084246D02*
D03*
X10979978Y11619977D02*
D03*
X11070000Y12390000D02*
D03*
X11000000Y12310000D02*
D03*
X10800000Y12440000D02*
D03*
X11370000Y12350000D02*
D03*
X11340000Y10920000D02*
D03*
X11240000Y12560000D02*
D03*
X10220000Y12580000D02*
D03*
X11880000Y12450000D02*
D03*
X11780000Y12460000D02*
D03*
X11526658Y12562475D02*
D03*
X11509977Y12489975D02*
D03*
X12000000Y12740000D02*
D03*
X12030000Y12450000D02*
D03*
X12249975Y12539975D02*
D03*
X11999976Y11469977D02*
D03*
X12010000Y11610000D02*
D03*
X10260000Y12460000D02*
D03*
X10570000Y10340000D02*
D03*
X10220000Y8680000D02*
D03*
X10007500Y8848500D02*
D03*
X11660000Y10850000D02*
D03*
X11070000Y11100000D02*
D03*
X11999976Y12059976D02*
D03*
X11029978Y11009978D02*
D03*
X12229976Y11939976D02*
D03*
X12930000Y11810000D02*
D03*
X11720000Y10850000D02*
D03*
X11780000D02*
D03*
X9890000Y8850000D02*
D03*
X9950000D02*
D03*
X9640000Y8300000D02*
D03*
X11030000Y8340000D02*
D03*
X11057500Y8942500D02*
D03*
X12942500Y10682500D02*
D03*
X13620000Y10010000D02*
D03*
X13529973Y9999980D02*
D03*
X13429973D02*
D03*
X13319974Y9969980D02*
D03*
X13189999Y9900000D02*
D03*
X13089999Y10020000D02*
D03*
X12680000Y10300000D02*
D03*
X12740000Y10400000D02*
D03*
X12560000Y9170000D02*
D03*
X12450000D02*
D03*
X12470000Y8990000D02*
D03*
X12530000D02*
D03*
X12540000Y11730000D02*
D03*
X12560000Y9490000D02*
D03*
X13279973Y9809980D02*
D03*
X11340000Y8760000D02*
D03*
X11360000Y8630000D02*
D03*
X9520000Y8300000D02*
D03*
X9580000D02*
D03*
X12950000Y8710000D02*
D03*
X12590000Y8990000D02*
D03*
X12290000Y8890000D02*
D03*
X12000000Y9130000D02*
D03*
X13680000Y11530000D02*
D03*
X14050000Y11730000D02*
D03*
X14580000Y11360000D02*
D03*
X13550000Y11480000D02*
D03*
X12030000Y10730000D02*
D03*
Y10790000D02*
D03*
Y10850000D02*
D03*
X14929970Y10099980D02*
D03*
X12690000Y11680000D02*
D03*
X12180000Y11650000D02*
D03*
X12320000Y11710000D02*
D03*
X14110001Y11660000D02*
D03*
X14239999Y9820000D02*
D03*
X14450000Y9810000D02*
D03*
X16450000Y8690000D02*
D03*
Y8410000D02*
D03*
X15339999Y11900000D02*
D03*
X16470000Y13210001D02*
D03*
X16460001Y13489999D02*
D03*
X15519969Y11189978D02*
D03*
X14980000Y10360000D02*
D03*
X11850000Y11270000D02*
D03*
X9000000Y12130000D02*
D03*
X8120000Y8365568D02*
D03*
X11349977Y12249975D02*
D03*
X11860000Y9460000D02*
D03*
X11780000Y8370000D02*
D03*
X10870000Y8330000D02*
D03*
X10750000Y8320000D02*
D03*
X10200000Y8410000D02*
D03*
X9760000Y8300000D02*
D03*
X9700000D02*
D03*
X9010000Y7760000D02*
D03*
X9190000D02*
D03*
X9130000D02*
D03*
X9070000D02*
D03*
X7750000Y8140000D02*
D03*
X8459000Y9189000D02*
D03*
X8570000Y9110000D02*
D03*
X8730000Y9000000D02*
D03*
X8640000Y8850000D02*
D03*
X8960000Y8710000D02*
D03*
X10900000Y10100000D02*
D03*
X10680000Y10320000D02*
D03*
X11110000Y9990000D02*
D03*
X11280000Y10090000D02*
D03*
X12000000Y9660000D02*
D03*
X14180000Y10480000D02*
D03*
X14080000Y10560000D02*
D03*
X14430000Y10175000D02*
D03*
X14060001Y8880000D02*
D03*
X10300000Y8330000D02*
D03*
X10410000Y8300000D02*
D03*
X11507500Y9835000D02*
D03*
X9070000Y12889999D02*
D03*
X9090000Y12570000D02*
D03*
X13020000Y11610000D02*
D03*
X14939999Y8490000D02*
D03*
X15005000Y9095000D02*
D03*
X15039999Y11570000D02*
D03*
X14789999Y12210000D02*
D03*
X15064999Y11900000D02*
D03*
X15595000Y12105000D02*
D03*
X14750000Y11080000D02*
D03*
X12060000Y9790000D02*
D03*
X12269975Y9779980D02*
D03*
X13230000Y10060000D02*
D03*
X8330000Y8250000D02*
D03*
X13440466Y10630466D02*
D03*
X13610001Y11190000D02*
D03*
X8480000Y7860000D02*
D03*
X8446000Y8266000D02*
D03*
X8560000Y8270000D02*
D03*
X12012500Y10950000D02*
D03*
X12670000Y8270000D02*
D03*
X13280000D02*
D03*
X13860001D02*
D03*
X13809972Y8579983D02*
D03*
X13910001Y8660000D02*
D03*
X13139999Y8710000D02*
D03*
X14470000Y8270000D02*
D03*
X14389999Y8620000D02*
D03*
X14189999Y9000000D02*
D03*
X12860001Y9890000D02*
D03*
X12830000Y10060000D02*
D03*
X14725000Y9390000D02*
D03*
X14727499Y9510000D02*
D03*
X14139999Y10302500D02*
D03*
X14727499Y9632500D02*
D03*
X15050000Y8270000D02*
D03*
X15680000D02*
D03*
X15939999Y9040000D02*
D03*
X15557526Y10071806D02*
D03*
X15720000Y9730000D02*
D03*
X15752499Y10180000D02*
D03*
X15750000Y10307500D02*
D03*
X15939999Y10370000D02*
D03*
X12850000Y10580000D02*
D03*
X12932500Y10800000D02*
D03*
X12563431Y11185000D02*
D03*
X13200000Y11390000D02*
D03*
X13450000Y11920000D02*
D03*
X13152499Y11967500D02*
D03*
X14564999Y11775000D02*
D03*
X13880000Y12410000D02*
D03*
X14470000D02*
D03*
X15424722Y10515000D02*
D03*
X15480000Y10550000D02*
D03*
X15742500Y10370000D02*
D03*
X15747501Y10485000D02*
D03*
X14720000Y11180000D02*
D03*
X15560001Y10910000D02*
D03*
X14717500Y11305000D02*
D03*
Y11405000D02*
D03*
X15060001Y12410000D02*
D03*
X15689999Y12000000D02*
D03*
X15700000Y12430000D02*
D03*
X15739999Y10960000D02*
D03*
X16210001Y11730000D02*
D03*
X13030000Y9210000D02*
D03*
X12675000Y9995000D02*
D03*
X12403431Y11505000D02*
D03*
X13110001Y10790000D02*
D03*
X13286571Y10720000D02*
D03*
X14169971Y8489983D02*
D03*
X14410001Y10260000D02*
D03*
X15700000Y8760000D02*
D03*
X14920000Y9820000D02*
D03*
X14239999Y10840000D02*
D03*
X15610001Y11970000D02*
D03*
X13010001Y9950000D02*
D03*
X13014999Y10570000D02*
D03*
X12563431Y11505000D02*
D03*
X14035690Y9227950D02*
D03*
X14062500Y9897500D02*
D03*
X15010001Y8890000D02*
D03*
X13089999Y11400000D02*
D03*
X14322501Y11450000D02*
D03*
X14937500Y10827500D02*
D03*
X15060001Y11780000D02*
D03*
X13310001Y8980000D02*
D03*
X13639999Y8890000D02*
D03*
X12700000Y9170000D02*
D03*
X12805000Y10732500D02*
D03*
X12790000Y11340000D02*
D03*
X13520000Y11270000D02*
D03*
X9515000Y12055000D02*
D03*
X9520000Y12410000D02*
D03*
X11510000Y10460000D02*
D03*
X12470000Y9960000D02*
D03*
Y10550000D02*
D03*
X12670000Y10210000D02*
D03*
X10230000Y8590000D02*
D03*
X10190000Y8760000D02*
D03*
X10660000Y8500000D02*
D03*
X11520000Y12000000D02*
D03*
X11730000Y10350000D02*
D03*
X8070000Y8070000D02*
D03*
X7930000Y9060000D02*
D03*
Y9130000D02*
D03*
Y9000000D02*
D03*
X8140000Y8070000D02*
D03*
X8210000D02*
D03*
X8280000D02*
D03*
X8350000D02*
D03*
X8420000D02*
D03*
X8910000Y8280000D02*
D03*
X8980000D02*
D03*
X9050000D02*
D03*
X9120000D02*
D03*
X10649979Y9529981D02*
D03*
X10690000Y11060000D02*
D03*
X11069999Y10070000D02*
D03*
X13280000Y12430000D02*
D03*
X13180000D02*
D03*
X13780000Y10440000D02*
D03*
X14655000Y10722500D02*
D03*
X12139976Y11999976D02*
D03*
X12129975Y11789976D02*
D03*
X15939999Y11620000D02*
D03*
X7820000Y8140000D02*
D03*
X7680000D02*
D03*
X15339999Y11780000D02*
D03*
X15420000Y12110000D02*
D03*
D200*
X13877499Y11272500D02*
D03*
X14739970Y9289981D02*
D03*
X13770000Y11990000D02*
D03*
X10730000Y9560000D02*
D03*
X10430000Y9070000D02*
D03*
X10560000Y10250000D02*
D03*
X11090000Y12070000D02*
D03*
X11170000Y9730000D02*
D03*
X11380000Y11400000D02*
D03*
X10832500Y12276183D02*
D03*
X10910000Y12300000D02*
D03*
X10290000Y9160000D02*
D03*
X9830000Y9650000D02*
D03*
X11330000Y9726000D02*
D03*
X11220000Y9730000D02*
D03*
X9770000Y9500000D02*
D03*
X11419977Y9089982D02*
D03*
X11380000Y9260000D02*
D03*
X10284999Y11055001D02*
D03*
X10260000Y11460000D02*
D03*
X10510000Y11430000D02*
D03*
X10520000Y11330000D02*
D03*
X9580000Y11910000D02*
D03*
X9890000Y9300000D02*
D03*
X9950000Y9340000D02*
D03*
X9940000Y11400000D02*
D03*
X9500000Y11900000D02*
D03*
X9869980Y9399981D02*
D03*
X10000000Y11470000D02*
D03*
X10579979Y9149982D02*
D03*
X10525000Y9095000D02*
D03*
X10480000Y9150000D02*
D03*
X10370000Y9110000D02*
D03*
X10300000Y9090000D02*
D03*
X10700000Y9070000D02*
D03*
X10809978Y8989982D02*
D03*
X12310000Y10500000D02*
D03*
X12710000Y9000000D02*
D03*
X11600000Y10880000D02*
D03*
Y8680000D02*
D03*
X13077499Y10322500D02*
D03*
X10950000Y8500000D02*
D03*
X9885000Y11715000D02*
D03*
X10500000Y12400000D02*
D03*
X11310000Y11850000D02*
D03*
X10870000Y10540000D02*
D03*
X10080000Y10860000D02*
D03*
X10249979Y10699979D02*
D03*
X10350000Y10970000D02*
D03*
X10600000Y11260000D02*
D03*
X10659979Y10979978D02*
D03*
X10790000Y11026360D02*
D03*
X10710000Y10550000D02*
D03*
X10780000Y10540000D02*
D03*
X10730000Y9430000D02*
D03*
X16300009Y9300005D02*
D03*
X16350009Y9600005D02*
D03*
Y10200006D02*
D03*
X16300009Y10300006D02*
D03*
X16350009Y10400006D02*
D03*
X16300009Y10500006D02*
D03*
X16350009Y10800006D02*
D03*
X16300009Y11100006D02*
D03*
X16400009Y9300005D02*
D03*
X16450009Y9600005D02*
D03*
X16400009Y9900005D02*
D03*
X16450009Y10200006D02*
D03*
X16400009Y10300006D02*
D03*
X16450009Y10400006D02*
D03*
X16400009Y10500006D02*
D03*
X16450009Y10800006D02*
D03*
X16400009Y11100006D02*
D03*
X16500009Y9300005D02*
D03*
X16550009Y9600005D02*
D03*
X16500009Y9900005D02*
D03*
X16550009Y10200006D02*
D03*
X16500009Y10300006D02*
D03*
X16550009Y10400006D02*
D03*
X16500009Y10500006D02*
D03*
X16550009Y10800006D02*
D03*
X16500009Y11100006D02*
D03*
X16600009Y9300005D02*
D03*
Y9900005D02*
D03*
Y10300006D02*
D03*
Y10500006D02*
D03*
Y11100006D02*
D03*
%TF.MD5,b293af6ff02a4497935a8c81f6ea3538*%
M02*
