G04 Layer_Color=2752767*
%FSLAX45Y45*%
%MOMM*%
%TF.FileFunction,Drawing*%
%TF.Part,Single*%
G01*
G75*
%TA.AperFunction,NonConductor*%
%ADD129C,0.12700*%
%ADD186C,0.16933*%
D129*
X9749200Y10557200D02*
Y10658800D01*
X9850800D01*
Y10557200D01*
X9749200D01*
Y11319200D02*
Y11420800D01*
X9850800D01*
Y11319200D01*
X9749200D01*
Y11065200D02*
Y11166800D01*
X9850800D01*
Y11065200D01*
X9749200D01*
Y10811200D02*
Y10912800D01*
X9850800D01*
Y10811200D01*
X9749200D01*
Y10303200D02*
Y10404800D01*
X9850800D01*
Y10303200D01*
X9749200D01*
Y10049200D02*
Y10150800D01*
X9850800D01*
Y10049200D01*
X9749200D01*
Y9795200D02*
Y9896800D01*
X9850800D01*
Y9795200D01*
X9749200D01*
X7680000Y8359200D02*
X7629200Y8460800D01*
X7730800D01*
X7680000Y8359200D01*
X7730000D02*
X7679200Y8460800D01*
X7780800D01*
X7730000Y8359200D01*
X7780000D02*
X7729200Y8460800D01*
X7830800D01*
X7780000Y8359200D01*
X7830000D02*
X7779200Y8460800D01*
X7880800D01*
X7830000Y8359200D01*
X8270000Y7969200D02*
X8219200Y8070800D01*
X8320800D01*
X8270000Y7969200D01*
X8220000D02*
X8169200Y8070800D01*
X8270800D01*
X8220000Y7969200D01*
X8170000Y7969200D02*
X8119200Y8070800D01*
X8220800D01*
X8170000Y7969200D01*
X8250000Y7899200D02*
X8199200Y8000800D01*
X8300800D01*
X8250000Y7899200D01*
X8100000D02*
X8049200Y8000800D01*
X8150800D01*
X8100000Y7899200D01*
X8150000D02*
X8099200Y8000800D01*
X8200800D01*
X8150000Y7899200D01*
X12470000Y12489200D02*
X12419200Y12590800D01*
X12520800D01*
X12470000Y12489200D01*
X12770000Y12509200D02*
X12719200Y12610800D01*
X12820799D01*
X12770000Y12509200D01*
X12710000Y12389200D02*
X12735400Y12414600D01*
X12760800D01*
X12735400Y12440000D01*
X12760800Y12465400D01*
X12735400D01*
X12710000Y12490800D01*
X12684600Y12465400D01*
X12659200D01*
X12684600Y12440000D01*
X12659200Y12414600D01*
X12684600D01*
X12710000Y12389200D01*
X12620000Y12419200D02*
X12645400Y12444600D01*
X12670800D01*
X12645400Y12470000D01*
X12670800Y12495400D01*
X12645400D01*
X12620000Y12520800D01*
X12594600Y12495400D01*
X12569200D01*
X12594600Y12470000D01*
X12569200Y12444600D01*
X12594600D01*
X12620000Y12419200D01*
X10860000Y11460200D02*
X10885400Y11485600D01*
X10910800D01*
X10885400Y11511000D01*
X10910800Y11536400D01*
X10885400D01*
X10860000Y11561800D01*
X10834600Y11536400D01*
X10809200D01*
X10834600Y11511000D01*
X10809200Y11485600D01*
X10834600D01*
X10860000Y11460200D01*
X7790000Y7979200D02*
X7739200Y8080800D01*
X7840800D01*
X7790000Y7979200D01*
X8340000Y8139200D02*
X8289200Y8240800D01*
X8390800D01*
X8340000Y8139200D01*
X8200000Y7899200D02*
X8149200Y8000800D01*
X8250800D01*
X8200000Y7899200D01*
X8499983Y8169184D02*
X8449183Y8270784D01*
X8550783D01*
X8499983Y8169184D01*
X8446000Y8215200D02*
X8471400Y8240600D01*
X8496800D01*
X8471400Y8266000D01*
X8496800Y8291400D01*
X8471400D01*
X8446000Y8316800D01*
X8420600Y8291400D01*
X8395200D01*
X8420600Y8266000D01*
X8395200Y8240600D01*
X8420600D01*
X8446000Y8215200D01*
X12012500Y10899200D02*
X12037900Y10924600D01*
X12063300D01*
X12037900Y10950000D01*
X12063300Y10975400D01*
X12037900D01*
X12012500Y11000800D01*
X11987100Y10975400D01*
X11961700D01*
X11987100Y10950000D01*
X11961700Y10924600D01*
X11987100D01*
X12012500Y10899200D01*
X12030000Y10799200D02*
X12055400Y10824600D01*
X12080800D01*
X12055400Y10850000D01*
X12080800Y10875400D01*
X12055400D01*
X12030000Y10900800D01*
X12004600Y10875400D01*
X11979200D01*
X12004600Y10850000D01*
X11979200Y10824600D01*
X12004600D01*
X12030000Y10799200D01*
Y10739200D02*
X12055400Y10764600D01*
X12080800D01*
X12055400Y10790000D01*
X12080800Y10815400D01*
X12055400D01*
X12030000Y10840800D01*
X12004600Y10815400D01*
X11979200D01*
X12004600Y10790000D01*
X11979200Y10764600D01*
X12004600D01*
X12030000Y10739200D01*
X13014999Y10519200D02*
X13040401Y10544600D01*
X13065800D01*
X13040401Y10570000D01*
X13065800Y10595400D01*
X13040401D01*
X13014999Y10620800D01*
X12989600Y10595400D01*
X12964200D01*
X12989600Y10570000D01*
X12964200Y10544600D01*
X12989600D01*
X13014999Y10519200D01*
X14130000Y9264200D02*
X14155400Y9289600D01*
X14180800D01*
X14155400Y9315000D01*
X14180800Y9340400D01*
X14155400D01*
X14130000Y9365800D01*
X14104601Y9340400D01*
X14079201D01*
X14104601Y9315000D01*
X14079201Y9289600D01*
X14104601D01*
X14130000Y9264200D01*
X13877499Y11221700D02*
X13826700Y11323300D01*
X13928300D01*
X13877499Y11221700D01*
X15889999Y11749200D02*
X15915401Y11774600D01*
X15940800D01*
X15915401Y11800000D01*
X15940800Y11825400D01*
X15915401D01*
X15889999Y11850800D01*
X15864600Y11825400D01*
X15839200D01*
X15864600Y11800000D01*
X15839200Y11774600D01*
X15864600D01*
X15889999Y11749200D01*
X16450000Y11959200D02*
X16475400Y11984600D01*
X16500800D01*
X16475400Y12010000D01*
X16500800Y12035400D01*
X16475400D01*
X16450000Y12060800D01*
X16424600Y12035400D01*
X16399200D01*
X16424600Y12010000D01*
X16399200Y11984600D01*
X16424600D01*
X16450000Y11959200D01*
Y12239200D02*
X16475400Y12264600D01*
X16500800D01*
X16475400Y12290000D01*
X16500800Y12315400D01*
X16475400D01*
X16450000Y12340800D01*
X16424600Y12315400D01*
X16399200D01*
X16424600Y12290000D01*
X16399200Y12264600D01*
X16424600D01*
X16450000Y12239200D01*
X15700000Y8619200D02*
X15725400Y8644600D01*
X15750800D01*
X15725400Y8670000D01*
X15750800Y8695400D01*
X15725400D01*
X15700000Y8720800D01*
X15674600Y8695400D01*
X15649200D01*
X15674600Y8670000D01*
X15649200Y8644600D01*
X15674600D01*
X15700000Y8619200D01*
X16439999Y7159200D02*
X16465401Y7184600D01*
X16490800D01*
X16465401Y7210000D01*
X16490800Y7235400D01*
X16465401D01*
X16439999Y7260800D01*
X16414600Y7235400D01*
X16389200D01*
X16414600Y7210000D01*
X16389200Y7184600D01*
X16414600D01*
X16439999Y7159200D01*
X16450000Y7439200D02*
X16475400Y7464600D01*
X16500800D01*
X16475400Y7490000D01*
X16500800Y7515400D01*
X16475400D01*
X16450000Y7540800D01*
X16424600Y7515400D01*
X16399200D01*
X16424600Y7490000D01*
X16399200Y7464600D01*
X16424600D01*
X16450000Y7439200D01*
X8490000Y12189200D02*
X8515400Y12214600D01*
X8540800D01*
X8515400Y12240000D01*
X8540800Y12265400D01*
X8515400D01*
X8490000Y12290800D01*
X8464600Y12265400D01*
X8439200D01*
X8464600Y12240000D01*
X8439200Y12214600D01*
X8464600D01*
X8490000Y12189200D01*
X8600000Y12409200D02*
X8625400Y12434600D01*
X8650800D01*
X8625400Y12460000D01*
X8650800Y12485400D01*
X8625400D01*
X8600000Y12510800D01*
X8574600Y12485400D01*
X8549200D01*
X8574600Y12460000D01*
X8549200Y12434600D01*
X8574600D01*
X8600000Y12409200D01*
X8450000Y12689200D02*
X8475400Y12714600D01*
X8500800D01*
X8475400Y12740000D01*
X8500800Y12765400D01*
X8475400D01*
X8450000Y12790800D01*
X8424600Y12765400D01*
X8399200D01*
X8424600Y12740000D01*
X8399200Y12714600D01*
X8424600D01*
X8450000Y12689200D01*
X8580000Y12709200D02*
X8605400Y12734600D01*
X8630800D01*
X8605400Y12760000D01*
X8630800Y12785400D01*
X8605400D01*
X8580000Y12810800D01*
X8554600Y12785400D01*
X8529200D01*
X8554600Y12760000D01*
X8529200Y12734600D01*
X8554600D01*
X8580000Y12709200D01*
X11070000Y11139200D02*
X11095400Y11164600D01*
X11120800D01*
X11095400Y11190000D01*
X11120800Y11215400D01*
X11095400D01*
X11070000Y11240800D01*
X11044600Y11215400D01*
X11019200D01*
X11044600Y11190000D01*
X11019200Y11164600D01*
X11044600D01*
X11070000Y11139200D01*
X11060000Y9099200D02*
X11085400Y9124600D01*
X11110800D01*
X11085400Y9150000D01*
X11110800Y9175400D01*
X11085400D01*
X11060000Y9200800D01*
X11034600Y9175400D01*
X11009200D01*
X11034600Y9150000D01*
X11009200Y9124600D01*
X11034600D01*
X11060000Y9099200D01*
X14320000Y11639200D02*
X14345399Y11664600D01*
X14370799D01*
X14345399Y11690000D01*
X14370799Y11715400D01*
X14345399D01*
X14320000Y11740800D01*
X14294600Y11715400D01*
X14269200D01*
X14294600Y11690000D01*
X14269200Y11664600D01*
X14294600D01*
X14320000Y11639200D01*
X9390000Y12379200D02*
X9415400Y12404600D01*
X9440800D01*
X9415400Y12430000D01*
X9440800Y12455400D01*
X9415400D01*
X9390000Y12480800D01*
X9364600Y12455400D01*
X9339200D01*
X9364600Y12430000D01*
X9339200Y12404600D01*
X9364600D01*
X9390000Y12379200D01*
X9120000Y12389200D02*
X9145400Y12414600D01*
X9170800D01*
X9145400Y12440000D01*
X9170800Y12465400D01*
X9145400D01*
X9120000Y12490800D01*
X9094600Y12465400D01*
X9069200D01*
X9094600Y12440000D01*
X9069200Y12414600D01*
X9094600D01*
X9120000Y12389200D01*
X14739970Y9239181D02*
X14689171Y9340781D01*
X14790771D01*
X14739970Y9239181D01*
X11100000Y11729200D02*
X11125400Y11754600D01*
X11150800D01*
X11125400Y11780000D01*
X11150800Y11805400D01*
X11125400D01*
X11100000Y11830800D01*
X11074600Y11805400D01*
X11049200D01*
X11074600Y11780000D01*
X11049200Y11754600D01*
X11074600D01*
X11100000Y11729200D01*
X13650000Y9049200D02*
X13675400Y9074600D01*
X13700800D01*
X13675400Y9100000D01*
X13700800Y9125400D01*
X13675400D01*
X13650000Y9150800D01*
X13624600Y9125400D01*
X13599200D01*
X13624600Y9100000D01*
X13599200Y9074600D01*
X13624600D01*
X13650000Y9049200D01*
X13430000Y11509200D02*
X13455400Y11534600D01*
X13480800D01*
X13455400Y11560000D01*
X13480800Y11585400D01*
X13455400D01*
X13430000Y11610800D01*
X13404601Y11585400D01*
X13379201D01*
X13404601Y11560000D01*
X13379201Y11534600D01*
X13404601D01*
X13430000Y11509200D01*
X13770000Y11939200D02*
X13719200Y12040800D01*
X13820799D01*
X13770000Y11939200D01*
X13189999Y9249200D02*
X13215401Y9274600D01*
X13240800D01*
X13215401Y9300000D01*
X13240800Y9325400D01*
X13215401D01*
X13189999Y9350800D01*
X13164600Y9325400D01*
X13139200D01*
X13164600Y9300000D01*
X13139200Y9274600D01*
X13164600D01*
X13189999Y9249200D01*
X13000000Y11389200D02*
X13025400Y11414600D01*
X13050800D01*
X13025400Y11440000D01*
X13050800Y11465400D01*
X13025400D01*
X13000000Y11490800D01*
X12974600Y11465400D01*
X12949200D01*
X12974600Y11440000D01*
X12949200Y11414600D01*
X12974600D01*
X13000000Y11389200D01*
X13200000Y9699200D02*
X13225400Y9724600D01*
X13250800D01*
X13225400Y9750000D01*
X13250800Y9775400D01*
X13225400D01*
X13200000Y9800800D01*
X13174600Y9775400D01*
X13149200D01*
X13174600Y9750000D01*
X13149200Y9724600D01*
X13174600D01*
X13200000Y9699200D01*
X10310000Y10329200D02*
X10335400Y10354600D01*
X10360800D01*
X10335400Y10380000D01*
X10360800Y10405400D01*
X10335400D01*
X10310000Y10430800D01*
X10284600Y10405400D01*
X10259200D01*
X10284600Y10380000D01*
X10259200Y10354600D01*
X10284600D01*
X10310000Y10329200D01*
X10940000Y11259200D02*
X10965400Y11284600D01*
X10990800D01*
X10965400Y11310000D01*
X10990800Y11335400D01*
X10965400D01*
X10940000Y11360800D01*
X10914600Y11335400D01*
X10889200D01*
X10914600Y11310000D01*
X10889200Y11284600D01*
X10914600D01*
X10940000Y11259200D01*
X10730000Y9509200D02*
X10679200Y9610800D01*
X10780800D01*
X10730000Y9509200D01*
X10430000Y9019200D02*
X10379200Y9120800D01*
X10480800D01*
X10430000Y9019200D01*
X10560000Y10199200D02*
X10509200Y10300800D01*
X10610800D01*
X10560000Y10199200D01*
X12070000Y11639200D02*
X12095400Y11664600D01*
X12120800D01*
X12095400Y11690000D01*
X12120800Y11715400D01*
X12095400D01*
X12070000Y11740800D01*
X12044600Y11715400D01*
X12019200D01*
X12044600Y11690000D01*
X12019200Y11664600D01*
X12044600D01*
X12070000Y11639200D01*
X12000000Y12499200D02*
X12025400Y12524600D01*
X12050800D01*
X12025400Y12550000D01*
X12050800Y12575400D01*
X12025400D01*
X12000000Y12600800D01*
X11974600Y12575400D01*
X11949200D01*
X11974600Y12550000D01*
X11949200Y12524600D01*
X11974600D01*
X12000000Y12499200D01*
X10869978Y11559177D02*
X10895378Y11584577D01*
X10920778D01*
X10895378Y11609977D01*
X10920778Y11635377D01*
X10895378D01*
X10869978Y11660777D01*
X10844578Y11635377D01*
X10819178D01*
X10844578Y11609977D01*
X10819178Y11584577D01*
X10844578D01*
X10869978Y11559177D01*
X11780000Y8619200D02*
X11805400Y8644600D01*
X11830800D01*
X11805400Y8670000D01*
X11830800Y8695400D01*
X11805400D01*
X11780000Y8720800D01*
X11754600Y8695400D01*
X11729200D01*
X11754600Y8670000D01*
X11729200Y8644600D01*
X11754600D01*
X11780000Y8619200D01*
X11090000Y12019200D02*
X11039200Y12120800D01*
X11140800D01*
X11090000Y12019200D01*
X13789999Y12079200D02*
X13815401Y12104600D01*
X13840800D01*
X13815401Y12130000D01*
X13840800Y12155400D01*
X13815401D01*
X13789999Y12180800D01*
X13764600Y12155400D01*
X13739200D01*
X13764600Y12130000D01*
X13739200Y12104600D01*
X13764600D01*
X13789999Y12079200D01*
X13780000Y9139200D02*
X13805400Y9164600D01*
X13830800D01*
X13805400Y9190000D01*
X13830800Y9215400D01*
X13805400D01*
X13780000Y9240800D01*
X13754601Y9215400D01*
X13729201D01*
X13754601Y9190000D01*
X13729201Y9164600D01*
X13754601D01*
X13780000Y9139200D01*
X14430000Y10809200D02*
X14455400Y10834600D01*
X14480800D01*
X14455400Y10860000D01*
X14480800Y10885400D01*
X14455400D01*
X14430000Y10910800D01*
X14404601Y10885400D01*
X14379201D01*
X14404601Y10860000D01*
X14379201Y10834600D01*
X14404601D01*
X14430000Y10809200D01*
X8170000Y8499200D02*
X8195400Y8524600D01*
X8220800D01*
X8195400Y8550000D01*
X8220800Y8575400D01*
X8195400D01*
X8170000Y8600800D01*
X8144600Y8575400D01*
X8119200D01*
X8144600Y8550000D01*
X8119200Y8524600D01*
X8144600D01*
X8170000Y8499200D01*
X14530000Y8819200D02*
X14555400Y8844600D01*
X14580800D01*
X14555400Y8870000D01*
X14580800Y8895400D01*
X14555400D01*
X14530000Y8920800D01*
X14504601Y8895400D01*
X14479201D01*
X14504601Y8870000D01*
X14479201Y8844600D01*
X14504601D01*
X14530000Y8819200D01*
X10440000Y7889200D02*
X10465400Y7914600D01*
X10490800D01*
X10465400Y7940000D01*
X10490800Y7965400D01*
X10465400D01*
X10440000Y7990800D01*
X10414600Y7965400D01*
X10389200D01*
X10414600Y7940000D01*
X10389200Y7914600D01*
X10414600D01*
X10440000Y7889200D01*
X10280000Y7879200D02*
X10305400Y7904600D01*
X10330800D01*
X10305400Y7930000D01*
X10330800Y7955400D01*
X10305400D01*
X10280000Y7980800D01*
X10254600Y7955400D01*
X10229200D01*
X10254600Y7930000D01*
X10229200Y7904600D01*
X10254600D01*
X10280000Y7879200D01*
X10160000D02*
X10185400Y7904600D01*
X10210800D01*
X10185400Y7930000D01*
X10210800Y7955400D01*
X10185400D01*
X10160000Y7980800D01*
X10134600Y7955400D01*
X10109200D01*
X10134600Y7930000D01*
X10109200Y7904600D01*
X10134600D01*
X10160000Y7879200D01*
X11750000Y7849200D02*
X11775400Y7874600D01*
X11800800D01*
X11775400Y7900000D01*
X11800800Y7925400D01*
X11775400D01*
X11750000Y7950800D01*
X11724600Y7925400D01*
X11699200D01*
X11724600Y7900000D01*
X11699200Y7874600D01*
X11724600D01*
X11750000Y7849200D01*
X8060000Y9399200D02*
X8085400Y9424600D01*
X8110800D01*
X8085400Y9450000D01*
X8110800Y9475400D01*
X8085400D01*
X8060000Y9500800D01*
X8034600Y9475400D01*
X8009200D01*
X8034600Y9450000D01*
X8009200Y9424600D01*
X8034600D01*
X8060000Y9399200D01*
X8120000D02*
X8145400Y9424600D01*
X8170800D01*
X8145400Y9450000D01*
X8170800Y9475400D01*
X8145400D01*
X8120000Y9500800D01*
X8094600Y9475400D01*
X8069200D01*
X8094600Y9450000D01*
X8069200Y9424600D01*
X8094600D01*
X8120000Y9399200D01*
X8180000D02*
X8205400Y9424600D01*
X8230800D01*
X8205400Y9450000D01*
X8230800Y9475400D01*
X8205400D01*
X8180000Y9500800D01*
X8154600Y9475400D01*
X8129200D01*
X8154600Y9450000D01*
X8129200Y9424600D01*
X8154600D01*
X8180000Y9399200D01*
X8240000D02*
X8265400Y9424600D01*
X8290800D01*
X8265400Y9450000D01*
X8290800Y9475400D01*
X8265400D01*
X8240000Y9500800D01*
X8214600Y9475400D01*
X8189200D01*
X8214600Y9450000D01*
X8189200Y9424600D01*
X8214600D01*
X8240000Y9399200D01*
X11170000Y9679200D02*
X11119200Y9780800D01*
X11220800D01*
X11170000Y9679200D01*
X14780000Y10239200D02*
X14805400Y10264600D01*
X14830800D01*
X14805400Y10290000D01*
X14830800Y10315400D01*
X14805400D01*
X14780000Y10340800D01*
X14754601Y10315400D01*
X14729201D01*
X14754601Y10290000D01*
X14729201Y10264600D01*
X14754601D01*
X14780000Y10239200D01*
X11539977Y7869184D02*
X11565377Y7894584D01*
X11590777D01*
X11565377Y7919984D01*
X11590777Y7945384D01*
X11565377D01*
X11539977Y7970784D01*
X11514577Y7945384D01*
X11489177D01*
X11514577Y7919984D01*
X11489177Y7894584D01*
X11514577D01*
X11539977Y7869184D01*
X11460000Y7899200D02*
X11485400Y7924600D01*
X11510800D01*
X11485400Y7950000D01*
X11510800Y7975400D01*
X11485400D01*
X11460000Y8000800D01*
X11434600Y7975400D01*
X11409200D01*
X11434600Y7950000D01*
X11409200Y7924600D01*
X11434600D01*
X11460000Y7899200D01*
X10531924Y7897277D02*
X10557324Y7922677D01*
X10582724D01*
X10557324Y7948077D01*
X10582724Y7973477D01*
X10557324D01*
X10531924Y7998877D01*
X10506524Y7973477D01*
X10481124D01*
X10506524Y7948077D01*
X10481124Y7922677D01*
X10506524D01*
X10531924Y7897277D01*
X13110001Y12439200D02*
X13135400Y12464600D01*
X13160800D01*
X13135400Y12490000D01*
X13160800Y12515400D01*
X13135400D01*
X13110001Y12540800D01*
X13084599Y12515400D01*
X13059200D01*
X13084599Y12490000D01*
X13059200Y12464600D01*
X13084599D01*
X13110001Y12439200D01*
X13030000Y12669200D02*
X13055400Y12694600D01*
X13080800D01*
X13055400Y12720000D01*
X13080800Y12745400D01*
X13055400D01*
X13030000Y12770800D01*
X13004601Y12745400D01*
X12979201D01*
X13004601Y12720000D01*
X12979201Y12694600D01*
X13004601D01*
X13030000Y12669200D01*
X12537800Y12701400D02*
X12563200Y12726800D01*
X12588600D01*
X12563200Y12752200D01*
X12588600Y12777600D01*
X12563200D01*
X12537800Y12803000D01*
X12512400Y12777600D01*
X12487000D01*
X12512400Y12752200D01*
X12487000Y12726800D01*
X12512400D01*
X12537800Y12701400D01*
X10170000Y10269200D02*
X10195400Y10294600D01*
X10220800D01*
X10195400Y10320000D01*
X10220800Y10345400D01*
X10195400D01*
X10170000Y10370800D01*
X10144600Y10345400D01*
X10119200D01*
X10144600Y10320000D01*
X10119200Y10294600D01*
X10144600D01*
X10170000Y10269200D01*
X11190000Y11799200D02*
X11215400Y11824600D01*
X11240800D01*
X11215400Y11850000D01*
X11240800Y11875400D01*
X11215400D01*
X11190000Y11900800D01*
X11164600Y11875400D01*
X11139200D01*
X11164600Y11850000D01*
X11139200Y11824600D01*
X11164600D01*
X11190000Y11799200D01*
X10840000Y11269200D02*
X10865400Y11294600D01*
X10890800D01*
X10865400Y11320000D01*
X10890800Y11345400D01*
X10865400D01*
X10840000Y11370800D01*
X10814600Y11345400D01*
X10789200D01*
X10814600Y11320000D01*
X10789200Y11294600D01*
X10814600D01*
X10840000Y11269200D01*
X10360000Y11709200D02*
X10385400Y11734600D01*
X10410800D01*
X10385400Y11760000D01*
X10410800Y11785400D01*
X10385400D01*
X10360000Y11810800D01*
X10334600Y11785400D01*
X10309200D01*
X10334600Y11760000D01*
X10309200Y11734600D01*
X10334600D01*
X10360000Y11709200D01*
X10380000Y12399200D02*
X10405400Y12424600D01*
X10430800D01*
X10405400Y12450000D01*
X10430800Y12475400D01*
X10405400D01*
X10380000Y12500800D01*
X10354600Y12475400D01*
X10329200D01*
X10354600Y12450000D01*
X10329200Y12424600D01*
X10354600D01*
X10380000Y12399200D01*
X12100000Y12033446D02*
X12125400Y12058846D01*
X12150800D01*
X12125400Y12084246D01*
X12150800Y12109646D01*
X12125400D01*
X12100000Y12135046D01*
X12074600Y12109646D01*
X12049200D01*
X12074600Y12084246D01*
X12049200Y12058846D01*
X12074600D01*
X12100000Y12033446D01*
X10979978Y11569177D02*
X11005378Y11594577D01*
X11030778D01*
X11005378Y11619977D01*
X11030778Y11645377D01*
X11005378D01*
X10979978Y11670777D01*
X10954578Y11645377D01*
X10929178D01*
X10954578Y11619977D01*
X10929178Y11594577D01*
X10954578D01*
X10979978Y11569177D01*
X11070000Y12339200D02*
X11095400Y12364600D01*
X11120800D01*
X11095400Y12390000D01*
X11120800Y12415400D01*
X11095400D01*
X11070000Y12440800D01*
X11044600Y12415400D01*
X11019200D01*
X11044600Y12390000D01*
X11019200Y12364600D01*
X11044600D01*
X11070000Y12339200D01*
X11000000Y12259200D02*
X11025400Y12284600D01*
X11050800D01*
X11025400Y12310000D01*
X11050800Y12335400D01*
X11025400D01*
X11000000Y12360800D01*
X10974600Y12335400D01*
X10949200D01*
X10974600Y12310000D01*
X10949200Y12284600D01*
X10974600D01*
X11000000Y12259200D01*
X10800000Y12389200D02*
X10825400Y12414600D01*
X10850800D01*
X10825400Y12440000D01*
X10850800Y12465400D01*
X10825400D01*
X10800000Y12490800D01*
X10774600Y12465400D01*
X10749200D01*
X10774600Y12440000D01*
X10749200Y12414600D01*
X10774600D01*
X10800000Y12389200D01*
X11370000Y12299200D02*
X11395400Y12324600D01*
X11420800D01*
X11395400Y12350000D01*
X11420800Y12375400D01*
X11395400D01*
X11370000Y12400800D01*
X11344600Y12375400D01*
X11319200D01*
X11344600Y12350000D01*
X11319200Y12324600D01*
X11344600D01*
X11370000Y12299200D01*
X11340000Y10869200D02*
X11365400Y10894600D01*
X11390800D01*
X11365400Y10920000D01*
X11390800Y10945400D01*
X11365400D01*
X11340000Y10970800D01*
X11314600Y10945400D01*
X11289200D01*
X11314600Y10920000D01*
X11289200Y10894600D01*
X11314600D01*
X11340000Y10869200D01*
X10832500Y12225383D02*
X10781700Y12326983D01*
X10883300D01*
X10832500Y12225383D01*
X10910000Y12249200D02*
X10859200Y12350800D01*
X10960800D01*
X10910000Y12249200D01*
X11240000Y12509200D02*
X11265400Y12534600D01*
X11290800D01*
X11265400Y12560000D01*
X11290800Y12585400D01*
X11265400D01*
X11240000Y12610800D01*
X11214600Y12585400D01*
X11189200D01*
X11214600Y12560000D01*
X11189200Y12534600D01*
X11214600D01*
X11240000Y12509200D01*
X10220000Y12529200D02*
X10245400Y12554600D01*
X10270800D01*
X10245400Y12580000D01*
X10270800Y12605400D01*
X10245400D01*
X10220000Y12630800D01*
X10194600Y12605400D01*
X10169200D01*
X10194600Y12580000D01*
X10169200Y12554600D01*
X10194600D01*
X10220000Y12529200D01*
X11880000Y12399200D02*
X11905400Y12424600D01*
X11930800D01*
X11905400Y12450000D01*
X11930800Y12475400D01*
X11905400D01*
X11880000Y12500800D01*
X11854600Y12475400D01*
X11829200D01*
X11854600Y12450000D01*
X11829200Y12424600D01*
X11854600D01*
X11880000Y12399200D01*
X11780000Y12409200D02*
X11805400Y12434600D01*
X11830800D01*
X11805400Y12460000D01*
X11830800Y12485400D01*
X11805400D01*
X11780000Y12510800D01*
X11754600Y12485400D01*
X11729200D01*
X11754600Y12460000D01*
X11729200Y12434600D01*
X11754600D01*
X11780000Y12409200D01*
X11526658Y12511675D02*
X11552058Y12537075D01*
X11577458D01*
X11552058Y12562475D01*
X11577458Y12587875D01*
X11552058D01*
X11526658Y12613275D01*
X11501258Y12587875D01*
X11475858D01*
X11501258Y12562475D01*
X11475858Y12537075D01*
X11501258D01*
X11526658Y12511675D01*
X11509977Y12439175D02*
X11535377Y12464575D01*
X11560777D01*
X11535377Y12489975D01*
X11560777Y12515375D01*
X11535377D01*
X11509977Y12540775D01*
X11484577Y12515375D01*
X11459177D01*
X11484577Y12489975D01*
X11459177Y12464575D01*
X11484577D01*
X11509977Y12439175D01*
X12000000Y12689200D02*
X12025400Y12714600D01*
X12050800D01*
X12025400Y12740000D01*
X12050800Y12765400D01*
X12025400D01*
X12000000Y12790800D01*
X11974600Y12765400D01*
X11949200D01*
X11974600Y12740000D01*
X11949200Y12714600D01*
X11974600D01*
X12000000Y12689200D01*
X12030000Y12399200D02*
X12055400Y12424600D01*
X12080800D01*
X12055400Y12450000D01*
X12080800Y12475400D01*
X12055400D01*
X12030000Y12500800D01*
X12004600Y12475400D01*
X11979200D01*
X12004600Y12450000D01*
X11979200Y12424600D01*
X12004600D01*
X12030000Y12399200D01*
X12249975Y12489175D02*
X12275375Y12514575D01*
X12300775D01*
X12275375Y12539975D01*
X12300775Y12565375D01*
X12275375D01*
X12249975Y12590775D01*
X12224575Y12565375D01*
X12199175D01*
X12224575Y12539975D01*
X12199175Y12514575D01*
X12224575D01*
X12249975Y12489175D01*
X11999976Y11419177D02*
X12025376Y11444577D01*
X12050776D01*
X12025376Y11469977D01*
X12050776Y11495377D01*
X12025376D01*
X11999976Y11520777D01*
X11974576Y11495377D01*
X11949176D01*
X11974576Y11469977D01*
X11949176Y11444577D01*
X11974576D01*
X11999976Y11419177D01*
X12010000Y11559200D02*
X12035400Y11584600D01*
X12060800D01*
X12035400Y11610000D01*
X12060800Y11635400D01*
X12035400D01*
X12010000Y11660800D01*
X11984600Y11635400D01*
X11959200D01*
X11984600Y11610000D01*
X11959200Y11584600D01*
X11984600D01*
X12010000Y11559200D01*
X10260000Y12409200D02*
X10285400Y12434600D01*
X10310800D01*
X10285400Y12460000D01*
X10310800Y12485400D01*
X10285400D01*
X10260000Y12510800D01*
X10234600Y12485400D01*
X10209200D01*
X10234600Y12460000D01*
X10209200Y12434600D01*
X10234600D01*
X10260000Y12409200D01*
X10290000Y9109200D02*
X10239200Y9210800D01*
X10340800D01*
X10290000Y9109200D01*
X10570000Y10289200D02*
X10595400Y10314600D01*
X10620800D01*
X10595400Y10340000D01*
X10620800Y10365400D01*
X10595400D01*
X10570000Y10390800D01*
X10544600Y10365400D01*
X10519200D01*
X10544600Y10340000D01*
X10519200Y10314600D01*
X10544600D01*
X10570000Y10289200D01*
X9830000Y9599200D02*
X9779200Y9700800D01*
X9880800D01*
X9830000Y9599200D01*
X10220000Y8629200D02*
X10245400Y8654600D01*
X10270800D01*
X10245400Y8680000D01*
X10270800Y8705400D01*
X10245400D01*
X10220000Y8730800D01*
X10194600Y8705400D01*
X10169200D01*
X10194600Y8680000D01*
X10169200Y8654600D01*
X10194600D01*
X10220000Y8629200D01*
X11660000Y10799200D02*
X11685400Y10824600D01*
X11710800D01*
X11685400Y10850000D01*
X11710800Y10875400D01*
X11685400D01*
X11660000Y10900800D01*
X11634600Y10875400D01*
X11609200D01*
X11634600Y10850000D01*
X11609200Y10824600D01*
X11634600D01*
X11660000Y10799200D01*
X11070000Y11049200D02*
X11095400Y11074600D01*
X11120800D01*
X11095400Y11100000D01*
X11120800Y11125400D01*
X11095400D01*
X11070000Y11150800D01*
X11044600Y11125400D01*
X11019200D01*
X11044600Y11100000D01*
X11019200Y11074600D01*
X11044600D01*
X11070000Y11049200D01*
X11999976Y12009176D02*
X12025376Y12034576D01*
X12050776D01*
X12025376Y12059976D01*
X12050776Y12085376D01*
X12025376D01*
X11999976Y12110776D01*
X11974576Y12085376D01*
X11949176D01*
X11974576Y12059976D01*
X11949176Y12034576D01*
X11974576D01*
X11999976Y12009176D01*
X11029978Y10959178D02*
X11055378Y10984578D01*
X11080778D01*
X11055378Y11009978D01*
X11080778Y11035378D01*
X11055378D01*
X11029978Y11060778D01*
X11004578Y11035378D01*
X10979178D01*
X11004578Y11009978D01*
X10979178Y10984578D01*
X11004578D01*
X11029978Y10959178D01*
X12229976Y11889176D02*
X12255376Y11914576D01*
X12280776D01*
X12255376Y11939976D01*
X12280776Y11965376D01*
X12255376D01*
X12229976Y11990776D01*
X12204576Y11965376D01*
X12179176D01*
X12204576Y11939976D01*
X12179176Y11914576D01*
X12204576D01*
X12229976Y11889176D01*
X12930000Y11759200D02*
X12955400Y11784600D01*
X12980800D01*
X12955400Y11810000D01*
X12980800Y11835400D01*
X12955400D01*
X12930000Y11860800D01*
X12904601Y11835400D01*
X12879201D01*
X12904601Y11810000D01*
X12879201Y11784600D01*
X12904601D01*
X12930000Y11759200D01*
X11720000Y10799200D02*
X11745400Y10824600D01*
X11770800D01*
X11745400Y10850000D01*
X11770800Y10875400D01*
X11745400D01*
X11720000Y10900800D01*
X11694600Y10875400D01*
X11669200D01*
X11694600Y10850000D01*
X11669200Y10824600D01*
X11694600D01*
X11720000Y10799200D01*
X11780000D02*
X11805400Y10824600D01*
X11830800D01*
X11805400Y10850000D01*
X11830800Y10875400D01*
X11805400D01*
X11780000Y10900800D01*
X11754600Y10875400D01*
X11729200D01*
X11754600Y10850000D01*
X11729200Y10824600D01*
X11754600D01*
X11780000Y10799200D01*
X9640000Y8249200D02*
X9665400Y8274600D01*
X9690800D01*
X9665400Y8300000D01*
X9690800Y8325400D01*
X9665400D01*
X9640000Y8350800D01*
X9614600Y8325400D01*
X9589200D01*
X9614600Y8300000D01*
X9589200Y8274600D01*
X9614600D01*
X9640000Y8249200D01*
X11030000Y8289200D02*
X11055400Y8314600D01*
X11080800D01*
X11055400Y8340000D01*
X11080800Y8365400D01*
X11055400D01*
X11030000Y8390800D01*
X11004600Y8365400D01*
X10979200D01*
X11004600Y8340000D01*
X10979200Y8314600D01*
X11004600D01*
X11030000Y8289200D01*
X11057500Y8891700D02*
X11082900Y8917100D01*
X11108300D01*
X11082900Y8942500D01*
X11108300Y8967900D01*
X11082900D01*
X11057500Y8993300D01*
X11032100Y8967900D01*
X11006700D01*
X11032100Y8942500D01*
X11006700Y8917100D01*
X11032100D01*
X11057500Y8891700D01*
X12942500Y10631700D02*
X12967900Y10657100D01*
X12993300D01*
X12967900Y10682500D01*
X12993300Y10707900D01*
X12967900D01*
X12942500Y10733300D01*
X12917101Y10707900D01*
X12891701D01*
X12917101Y10682500D01*
X12891701Y10657100D01*
X12917101D01*
X12942500Y10631700D01*
X13620000Y9959200D02*
X13645399Y9984600D01*
X13670799D01*
X13645399Y10010000D01*
X13670799Y10035400D01*
X13645399D01*
X13620000Y10060800D01*
X13594600Y10035400D01*
X13569200D01*
X13594600Y10010000D01*
X13569200Y9984600D01*
X13594600D01*
X13620000Y9959200D01*
X13529973Y9949180D02*
X13555373Y9974580D01*
X13580772D01*
X13555373Y9999980D01*
X13580772Y10025380D01*
X13555373D01*
X13529973Y10050780D01*
X13504573Y10025380D01*
X13479173D01*
X13504573Y9999980D01*
X13479173Y9974580D01*
X13504573D01*
X13529973Y9949180D01*
X13429973D02*
X13455373Y9974580D01*
X13480772D01*
X13455373Y9999980D01*
X13480772Y10025380D01*
X13455373D01*
X13429973Y10050780D01*
X13404573Y10025380D01*
X13379173D01*
X13404573Y9999980D01*
X13379173Y9974580D01*
X13404573D01*
X13429973Y9949180D01*
X13319974Y9919180D02*
X13345374Y9944580D01*
X13370773D01*
X13345374Y9969980D01*
X13370773Y9995380D01*
X13345374D01*
X13319974Y10020780D01*
X13294572Y9995380D01*
X13269173D01*
X13294572Y9969980D01*
X13269173Y9944580D01*
X13294572D01*
X13319974Y9919180D01*
X13189999Y9849200D02*
X13215401Y9874600D01*
X13240800D01*
X13215401Y9900000D01*
X13240800Y9925400D01*
X13215401D01*
X13189999Y9950800D01*
X13164600Y9925400D01*
X13139200D01*
X13164600Y9900000D01*
X13139200Y9874600D01*
X13164600D01*
X13189999Y9849200D01*
X13089999Y9969200D02*
X13115401Y9994600D01*
X13140800D01*
X13115401Y10020000D01*
X13140800Y10045400D01*
X13115401D01*
X13089999Y10070800D01*
X13064600Y10045400D01*
X13039200D01*
X13064600Y10020000D01*
X13039200Y9994600D01*
X13064600D01*
X13089999Y9969200D01*
X12680000Y10249200D02*
X12705400Y10274600D01*
X12730800D01*
X12705400Y10300000D01*
X12730800Y10325400D01*
X12705400D01*
X12680000Y10350800D01*
X12654600Y10325400D01*
X12629200D01*
X12654600Y10300000D01*
X12629200Y10274600D01*
X12654600D01*
X12680000Y10249200D01*
X12740000Y10349200D02*
X12765400Y10374600D01*
X12790800D01*
X12765400Y10400000D01*
X12790800Y10425400D01*
X12765400D01*
X12740000Y10450800D01*
X12714600Y10425400D01*
X12689200D01*
X12714600Y10400000D01*
X12689200Y10374600D01*
X12714600D01*
X12740000Y10349200D01*
X12560000Y9119200D02*
X12585400Y9144600D01*
X12610800D01*
X12585400Y9170000D01*
X12610800Y9195400D01*
X12585400D01*
X12560000Y9220800D01*
X12534600Y9195400D01*
X12509200D01*
X12534600Y9170000D01*
X12509200Y9144600D01*
X12534600D01*
X12560000Y9119200D01*
X12450000D02*
X12475400Y9144600D01*
X12500800D01*
X12475400Y9170000D01*
X12500800Y9195400D01*
X12475400D01*
X12450000Y9220800D01*
X12424600Y9195400D01*
X12399200D01*
X12424600Y9170000D01*
X12399200Y9144600D01*
X12424600D01*
X12450000Y9119200D01*
X12470000Y8939200D02*
X12495400Y8964600D01*
X12520800D01*
X12495400Y8990000D01*
X12520800Y9015400D01*
X12495400D01*
X12470000Y9040800D01*
X12444600Y9015400D01*
X12419200D01*
X12444600Y8990000D01*
X12419200Y8964600D01*
X12444600D01*
X12470000Y8939200D01*
X12530000D02*
X12555400Y8964600D01*
X12580800D01*
X12555400Y8990000D01*
X12580800Y9015400D01*
X12555400D01*
X12530000Y9040800D01*
X12504600Y9015400D01*
X12479200D01*
X12504600Y8990000D01*
X12479200Y8964600D01*
X12504600D01*
X12530000Y8939200D01*
X12540000Y11679200D02*
X12565400Y11704600D01*
X12590800D01*
X12565400Y11730000D01*
X12590800Y11755400D01*
X12565400D01*
X12540000Y11780800D01*
X12514600Y11755400D01*
X12489200D01*
X12514600Y11730000D01*
X12489200Y11704600D01*
X12514600D01*
X12540000Y11679200D01*
X12560000Y9439200D02*
X12585400Y9464600D01*
X12610800D01*
X12585400Y9490000D01*
X12610800Y9515400D01*
X12585400D01*
X12560000Y9540800D01*
X12534600Y9515400D01*
X12509200D01*
X12534600Y9490000D01*
X12509200Y9464600D01*
X12534600D01*
X12560000Y9439200D01*
X11340000Y8709200D02*
X11365400Y8734600D01*
X11390800D01*
X11365400Y8760000D01*
X11390800Y8785400D01*
X11365400D01*
X11340000Y8810800D01*
X11314600Y8785400D01*
X11289200D01*
X11314600Y8760000D01*
X11289200Y8734600D01*
X11314600D01*
X11340000Y8709200D01*
X11360000Y8579200D02*
X11385400Y8604600D01*
X11410800D01*
X11385400Y8630000D01*
X11410800Y8655400D01*
X11385400D01*
X11360000Y8680800D01*
X11334600Y8655400D01*
X11309200D01*
X11334600Y8630000D01*
X11309200Y8604600D01*
X11334600D01*
X11360000Y8579200D01*
X9520000Y8249200D02*
X9545400Y8274600D01*
X9570800D01*
X9545400Y8300000D01*
X9570800Y8325400D01*
X9545400D01*
X9520000Y8350800D01*
X9494600Y8325400D01*
X9469200D01*
X9494600Y8300000D01*
X9469200Y8274600D01*
X9494600D01*
X9520000Y8249200D01*
X9580000D02*
X9605400Y8274600D01*
X9630800D01*
X9605400Y8300000D01*
X9630800Y8325400D01*
X9605400D01*
X9580000Y8350800D01*
X9554600Y8325400D01*
X9529200D01*
X9554600Y8300000D01*
X9529200Y8274600D01*
X9554600D01*
X9580000Y8249200D01*
X12950000Y8659200D02*
X12975400Y8684600D01*
X13000800D01*
X12975400Y8710000D01*
X13000800Y8735400D01*
X12975400D01*
X12950000Y8760800D01*
X12924600Y8735400D01*
X12899200D01*
X12924600Y8710000D01*
X12899200Y8684600D01*
X12924600D01*
X12950000Y8659200D01*
X12590000Y8939200D02*
X12615400Y8964600D01*
X12640800D01*
X12615400Y8990000D01*
X12640800Y9015400D01*
X12615400D01*
X12590000Y9040800D01*
X12564600Y9015400D01*
X12539200D01*
X12564600Y8990000D01*
X12539200Y8964600D01*
X12564600D01*
X12590000Y8939200D01*
X12290000Y8839200D02*
X12315400Y8864600D01*
X12340800D01*
X12315400Y8890000D01*
X12340800Y8915400D01*
X12315400D01*
X12290000Y8940800D01*
X12264600Y8915400D01*
X12239200D01*
X12264600Y8890000D01*
X12239200Y8864600D01*
X12264600D01*
X12290000Y8839200D01*
X12000000Y9079200D02*
X12025400Y9104600D01*
X12050800D01*
X12025400Y9130000D01*
X12050800Y9155400D01*
X12025400D01*
X12000000Y9180800D01*
X11974600Y9155400D01*
X11949200D01*
X11974600Y9130000D01*
X11949200Y9104600D01*
X11974600D01*
X12000000Y9079200D01*
X13680000Y11479200D02*
X13705400Y11504600D01*
X13730800D01*
X13705400Y11530000D01*
X13730800Y11555400D01*
X13705400D01*
X13680000Y11580800D01*
X13654601Y11555400D01*
X13629201D01*
X13654601Y11530000D01*
X13629201Y11504600D01*
X13654601D01*
X13680000Y11479200D01*
X14050000Y11679200D02*
X14075400Y11704600D01*
X14100800D01*
X14075400Y11730000D01*
X14100800Y11755400D01*
X14075400D01*
X14050000Y11780800D01*
X14024600Y11755400D01*
X13999200D01*
X14024600Y11730000D01*
X13999200Y11704600D01*
X14024600D01*
X14050000Y11679200D01*
X14580000Y11309200D02*
X14605400Y11334600D01*
X14630800D01*
X14605400Y11360000D01*
X14630800Y11385400D01*
X14605400D01*
X14580000Y11410800D01*
X14554601Y11385400D01*
X14529201D01*
X14554601Y11360000D01*
X14529201Y11334600D01*
X14554601D01*
X14580000Y11309200D01*
X13550000Y11429200D02*
X13575400Y11454600D01*
X13600800D01*
X13575400Y11480000D01*
X13600800Y11505400D01*
X13575400D01*
X13550000Y11530800D01*
X13524600Y11505400D01*
X13499200D01*
X13524600Y11480000D01*
X13499200Y11454600D01*
X13524600D01*
X13550000Y11429200D01*
X11220000Y9679200D02*
X11169200Y9780800D01*
X11270800D01*
X11220000Y9679200D01*
X12030000Y10679200D02*
X12055400Y10704600D01*
X12080800D01*
X12055400Y10730000D01*
X12080800Y10755400D01*
X12055400D01*
X12030000Y10780800D01*
X12004600Y10755400D01*
X11979200D01*
X12004600Y10730000D01*
X11979200Y10704600D01*
X12004600D01*
X12030000Y10679200D01*
X14929970Y10049180D02*
X14955370Y10074580D01*
X14980769D01*
X14955370Y10099980D01*
X14980769Y10125380D01*
X14955370D01*
X14929970Y10150780D01*
X14904570Y10125380D01*
X14879170D01*
X14904570Y10099980D01*
X14879170Y10074580D01*
X14904570D01*
X14929970Y10049180D01*
X12690000Y11629200D02*
X12715400Y11654600D01*
X12740800D01*
X12715400Y11680000D01*
X12740800Y11705400D01*
X12715400D01*
X12690000Y11730800D01*
X12664600Y11705400D01*
X12639200D01*
X12664600Y11680000D01*
X12639200Y11654600D01*
X12664600D01*
X12690000Y11629200D01*
X12180000Y11599200D02*
X12205400Y11624600D01*
X12230800D01*
X12205400Y11650000D01*
X12230800Y11675400D01*
X12205400D01*
X12180000Y11700800D01*
X12154600Y11675400D01*
X12129200D01*
X12154600Y11650000D01*
X12129200Y11624600D01*
X12154600D01*
X12180000Y11599200D01*
X12320000Y11659200D02*
X12345400Y11684600D01*
X12370800D01*
X12345400Y11710000D01*
X12370800Y11735400D01*
X12345400D01*
X12320000Y11760800D01*
X12294600Y11735400D01*
X12269200D01*
X12294600Y11710000D01*
X12269200Y11684600D01*
X12294600D01*
X12320000Y11659200D01*
X14110001Y11609200D02*
X14135400Y11634600D01*
X14160800D01*
X14135400Y11660000D01*
X14160800Y11685400D01*
X14135400D01*
X14110001Y11710800D01*
X14084599Y11685400D01*
X14059200D01*
X14084599Y11660000D01*
X14059200Y11634600D01*
X14084599D01*
X14110001Y11609200D01*
X14239999Y9769200D02*
X14265401Y9794600D01*
X14290800D01*
X14265401Y9820000D01*
X14290800Y9845400D01*
X14265401D01*
X14239999Y9870800D01*
X14214600Y9845400D01*
X14189200D01*
X14214600Y9820000D01*
X14189200Y9794600D01*
X14214600D01*
X14239999Y9769200D01*
X14450000Y9759200D02*
X14475400Y9784600D01*
X14500800D01*
X14475400Y9810000D01*
X14500800Y9835400D01*
X14475400D01*
X14450000Y9860800D01*
X14424600Y9835400D01*
X14399200D01*
X14424600Y9810000D01*
X14399200Y9784600D01*
X14424600D01*
X14450000Y9759200D01*
X16450000Y8639200D02*
X16475400Y8664600D01*
X16500800D01*
X16475400Y8690000D01*
X16500800Y8715400D01*
X16475400D01*
X16450000Y8740800D01*
X16424600Y8715400D01*
X16399200D01*
X16424600Y8690000D01*
X16399200Y8664600D01*
X16424600D01*
X16450000Y8639200D01*
Y8359200D02*
X16475400Y8384600D01*
X16500800D01*
X16475400Y8410000D01*
X16500800Y8435400D01*
X16475400D01*
X16450000Y8460800D01*
X16424600Y8435400D01*
X16399200D01*
X16424600Y8410000D01*
X16399200Y8384600D01*
X16424600D01*
X16450000Y8359200D01*
X15339999Y11849200D02*
X15365401Y11874600D01*
X15390800D01*
X15365401Y11900000D01*
X15390800Y11925400D01*
X15365401D01*
X15339999Y11950800D01*
X15314600Y11925400D01*
X15289200D01*
X15314600Y11900000D01*
X15289200Y11874600D01*
X15314600D01*
X15339999Y11849200D01*
X16470000Y13159200D02*
X16495399Y13184599D01*
X16520799D01*
X16495399Y13210001D01*
X16520799Y13235400D01*
X16495399D01*
X16470000Y13260800D01*
X16444600Y13235400D01*
X16419200D01*
X16444600Y13210001D01*
X16419200Y13184599D01*
X16444600D01*
X16470000Y13159200D01*
X16460001Y13439200D02*
X16485400Y13464600D01*
X16510800D01*
X16485400Y13489999D01*
X16510800Y13515401D01*
X16485400D01*
X16460001Y13540800D01*
X16434599Y13515401D01*
X16409200D01*
X16434599Y13489999D01*
X16409200Y13464600D01*
X16434599D01*
X16460001Y13439200D01*
X15519969Y11139178D02*
X15545369Y11164578D01*
X15570769D01*
X15545369Y11189978D01*
X15570769Y11215378D01*
X15545369D01*
X15519969Y11240778D01*
X15494569Y11215378D01*
X15469170D01*
X15494569Y11189978D01*
X15469170Y11164578D01*
X15494569D01*
X15519969Y11139178D01*
X14980000Y10309200D02*
X15005400Y10334600D01*
X15030800D01*
X15005400Y10360000D01*
X15030800Y10385400D01*
X15005400D01*
X14980000Y10410800D01*
X14954601Y10385400D01*
X14929201D01*
X14954601Y10360000D01*
X14929201Y10334600D01*
X14954601D01*
X14980000Y10309200D01*
X11850000Y11219200D02*
X11875400Y11244600D01*
X11900800D01*
X11875400Y11270000D01*
X11900800Y11295400D01*
X11875400D01*
X11850000Y11320800D01*
X11824600Y11295400D01*
X11799200D01*
X11824600Y11270000D01*
X11799200Y11244600D01*
X11824600D01*
X11850000Y11219200D01*
X9000000Y12079200D02*
X9025400Y12104600D01*
X9050800D01*
X9025400Y12130000D01*
X9050800Y12155400D01*
X9025400D01*
X9000000Y12180800D01*
X8974600Y12155400D01*
X8949200D01*
X8974600Y12130000D01*
X8949200Y12104600D01*
X8974600D01*
X9000000Y12079200D01*
X9770000Y9449200D02*
X9719200Y9550800D01*
X9820800D01*
X9770000Y9449200D01*
X11349977Y12199175D02*
X11375377Y12224575D01*
X11400777D01*
X11375377Y12249975D01*
X11400777Y12275375D01*
X11375377D01*
X11349977Y12300775D01*
X11324577Y12275375D01*
X11299177D01*
X11324577Y12249975D01*
X11299177Y12224575D01*
X11324577D01*
X11349977Y12199175D01*
X11860000Y9409200D02*
X11885400Y9434600D01*
X11910800D01*
X11885400Y9460000D01*
X11910800Y9485400D01*
X11885400D01*
X11860000Y9510800D01*
X11834600Y9485400D01*
X11809200D01*
X11834600Y9460000D01*
X11809200Y9434600D01*
X11834600D01*
X11860000Y9409200D01*
X11780000Y8319200D02*
X11805400Y8344600D01*
X11830800D01*
X11805400Y8370000D01*
X11830800Y8395400D01*
X11805400D01*
X11780000Y8420800D01*
X11754600Y8395400D01*
X11729200D01*
X11754600Y8370000D01*
X11729200Y8344600D01*
X11754600D01*
X11780000Y8319200D01*
X10870000Y8279200D02*
X10895400Y8304600D01*
X10920800D01*
X10895400Y8330000D01*
X10920800Y8355400D01*
X10895400D01*
X10870000Y8380800D01*
X10844600Y8355400D01*
X10819200D01*
X10844600Y8330000D01*
X10819200Y8304600D01*
X10844600D01*
X10870000Y8279200D01*
X10750000Y8269200D02*
X10775400Y8294600D01*
X10800800D01*
X10775400Y8320000D01*
X10800800Y8345400D01*
X10775400D01*
X10750000Y8370800D01*
X10724600Y8345400D01*
X10699200D01*
X10724600Y8320000D01*
X10699200Y8294600D01*
X10724600D01*
X10750000Y8269200D01*
X10200000Y8359200D02*
X10225400Y8384600D01*
X10250800D01*
X10225400Y8410000D01*
X10250800Y8435400D01*
X10225400D01*
X10200000Y8460800D01*
X10174600Y8435400D01*
X10149200D01*
X10174600Y8410000D01*
X10149200Y8384600D01*
X10174600D01*
X10200000Y8359200D01*
X9760000Y8249200D02*
X9785400Y8274600D01*
X9810800D01*
X9785400Y8300000D01*
X9810800Y8325400D01*
X9785400D01*
X9760000Y8350800D01*
X9734600Y8325400D01*
X9709200D01*
X9734600Y8300000D01*
X9709200Y8274600D01*
X9734600D01*
X9760000Y8249200D01*
X9700000D02*
X9725400Y8274600D01*
X9750800D01*
X9725400Y8300000D01*
X9750800Y8325400D01*
X9725400D01*
X9700000Y8350800D01*
X9674600Y8325400D01*
X9649200D01*
X9674600Y8300000D01*
X9649200Y8274600D01*
X9674600D01*
X9700000Y8249200D01*
X9010000Y7709200D02*
X9035400Y7734600D01*
X9060800D01*
X9035400Y7760000D01*
X9060800Y7785400D01*
X9035400D01*
X9010000Y7810800D01*
X8984600Y7785400D01*
X8959200D01*
X8984600Y7760000D01*
X8959200Y7734600D01*
X8984600D01*
X9010000Y7709200D01*
X9190000D02*
X9215400Y7734600D01*
X9240800D01*
X9215400Y7760000D01*
X9240800Y7785400D01*
X9215400D01*
X9190000Y7810800D01*
X9164600Y7785400D01*
X9139200D01*
X9164600Y7760000D01*
X9139200Y7734600D01*
X9164600D01*
X9190000Y7709200D01*
X9130000D02*
X9155400Y7734600D01*
X9180800D01*
X9155400Y7760000D01*
X9180800Y7785400D01*
X9155400D01*
X9130000Y7810800D01*
X9104600Y7785400D01*
X9079200D01*
X9104600Y7760000D01*
X9079200Y7734600D01*
X9104600D01*
X9130000Y7709200D01*
X9070000D02*
X9095400Y7734600D01*
X9120800D01*
X9095400Y7760000D01*
X9120800Y7785400D01*
X9095400D01*
X9070000Y7810800D01*
X9044600Y7785400D01*
X9019200D01*
X9044600Y7760000D01*
X9019200Y7734600D01*
X9044600D01*
X9070000Y7709200D01*
X8459000Y9138200D02*
X8484400Y9163600D01*
X8509800D01*
X8484400Y9189000D01*
X8509800Y9214400D01*
X8484400D01*
X8459000Y9239800D01*
X8433600Y9214400D01*
X8408200D01*
X8433600Y9189000D01*
X8408200Y9163600D01*
X8433600D01*
X8459000Y9138200D01*
X8570000Y9059200D02*
X8595400Y9084600D01*
X8620800D01*
X8595400Y9110000D01*
X8620800Y9135400D01*
X8595400D01*
X8570000Y9160800D01*
X8544600Y9135400D01*
X8519200D01*
X8544600Y9110000D01*
X8519200Y9084600D01*
X8544600D01*
X8570000Y9059200D01*
X8730000Y8949200D02*
X8755400Y8974600D01*
X8780800D01*
X8755400Y9000000D01*
X8780800Y9025400D01*
X8755400D01*
X8730000Y9050800D01*
X8704600Y9025400D01*
X8679200D01*
X8704600Y9000000D01*
X8679200Y8974600D01*
X8704600D01*
X8730000Y8949200D01*
X8640000Y8799200D02*
X8665400Y8824600D01*
X8690800D01*
X8665400Y8850000D01*
X8690800Y8875400D01*
X8665400D01*
X8640000Y8900800D01*
X8614600Y8875400D01*
X8589200D01*
X8614600Y8850000D01*
X8589200Y8824600D01*
X8614600D01*
X8640000Y8799200D01*
X8960000Y8659200D02*
X8985400Y8684600D01*
X9010800D01*
X8985400Y8710000D01*
X9010800Y8735400D01*
X8985400D01*
X8960000Y8760800D01*
X8934600Y8735400D01*
X8909200D01*
X8934600Y8710000D01*
X8909200Y8684600D01*
X8934600D01*
X8960000Y8659200D01*
X10900000Y10049200D02*
X10925400Y10074600D01*
X10950800D01*
X10925400Y10100000D01*
X10950800Y10125400D01*
X10925400D01*
X10900000Y10150800D01*
X10874600Y10125400D01*
X10849200D01*
X10874600Y10100000D01*
X10849200Y10074600D01*
X10874600D01*
X10900000Y10049200D01*
X10680000Y10269200D02*
X10705400Y10294600D01*
X10730800D01*
X10705400Y10320000D01*
X10730800Y10345400D01*
X10705400D01*
X10680000Y10370800D01*
X10654600Y10345400D01*
X10629200D01*
X10654600Y10320000D01*
X10629200Y10294600D01*
X10654600D01*
X10680000Y10269200D01*
X11110000Y9939200D02*
X11135400Y9964600D01*
X11160800D01*
X11135400Y9990000D01*
X11160800Y10015400D01*
X11135400D01*
X11110000Y10040800D01*
X11084600Y10015400D01*
X11059200D01*
X11084600Y9990000D01*
X11059200Y9964600D01*
X11084600D01*
X11110000Y9939200D01*
X11280000Y10039200D02*
X11305400Y10064600D01*
X11330800D01*
X11305400Y10090000D01*
X11330800Y10115400D01*
X11305400D01*
X11280000Y10140800D01*
X11254600Y10115400D01*
X11229200D01*
X11254600Y10090000D01*
X11229200Y10064600D01*
X11254600D01*
X11280000Y10039200D01*
X12000000Y9609200D02*
X12025400Y9634600D01*
X12050800D01*
X12025400Y9660000D01*
X12050800Y9685400D01*
X12025400D01*
X12000000Y9710800D01*
X11974600Y9685400D01*
X11949200D01*
X11974600Y9660000D01*
X11949200Y9634600D01*
X11974600D01*
X12000000Y9609200D01*
X11419977Y9039182D02*
X11369177Y9140782D01*
X11470777D01*
X11419977Y9039182D01*
X14180000Y10429200D02*
X14205400Y10454600D01*
X14230800D01*
X14205400Y10480000D01*
X14230800Y10505400D01*
X14205400D01*
X14180000Y10530800D01*
X14154601Y10505400D01*
X14129201D01*
X14154601Y10480000D01*
X14129201Y10454600D01*
X14154601D01*
X14180000Y10429200D01*
X14080000Y10509200D02*
X14105400Y10534600D01*
X14130800D01*
X14105400Y10560000D01*
X14130800Y10585400D01*
X14105400D01*
X14080000Y10610800D01*
X14054601Y10585400D01*
X14029201D01*
X14054601Y10560000D01*
X14029201Y10534600D01*
X14054601D01*
X14080000Y10509200D01*
X14430000Y10124200D02*
X14455400Y10149600D01*
X14480800D01*
X14455400Y10175000D01*
X14480800Y10200400D01*
X14455400D01*
X14430000Y10225800D01*
X14404601Y10200400D01*
X14379201D01*
X14404601Y10175000D01*
X14379201Y10149600D01*
X14404601D01*
X14430000Y10124200D01*
X14060001Y8829200D02*
X14085400Y8854600D01*
X14110800D01*
X14085400Y8880000D01*
X14110800Y8905400D01*
X14085400D01*
X14060001Y8930800D01*
X14034599Y8905400D01*
X14009200D01*
X14034599Y8880000D01*
X14009200Y8854600D01*
X14034599D01*
X14060001Y8829200D01*
X10300000Y8279200D02*
X10325400Y8304600D01*
X10350800D01*
X10325400Y8330000D01*
X10350800Y8355400D01*
X10325400D01*
X10300000Y8380800D01*
X10274600Y8355400D01*
X10249200D01*
X10274600Y8330000D01*
X10249200Y8304600D01*
X10274600D01*
X10300000Y8279200D01*
X10410000Y8249200D02*
X10435400Y8274600D01*
X10460800D01*
X10435400Y8300000D01*
X10460800Y8325400D01*
X10435400D01*
X10410000Y8350800D01*
X10384600Y8325400D01*
X10359200D01*
X10384600Y8300000D01*
X10359200Y8274600D01*
X10384600D01*
X10410000Y8249200D01*
X11507500Y9784200D02*
X11532900Y9809600D01*
X11558300D01*
X11532900Y9835000D01*
X11558300Y9860400D01*
X11532900D01*
X11507500Y9885800D01*
X11482100Y9860400D01*
X11456700D01*
X11482100Y9835000D01*
X11456700Y9809600D01*
X11482100D01*
X11507500Y9784200D01*
X9090000Y12519200D02*
X9115400Y12544600D01*
X9140800D01*
X9115400Y12570000D01*
X9140800Y12595400D01*
X9115400D01*
X9090000Y12620800D01*
X9064600Y12595400D01*
X9039200D01*
X9064600Y12570000D01*
X9039200Y12544600D01*
X9064600D01*
X9090000Y12519200D01*
X10284999Y11004201D02*
X10234199Y11105801D01*
X10335799D01*
X10284999Y11004201D01*
X10260000Y11409200D02*
X10209200Y11510800D01*
X10310800D01*
X10260000Y11409200D01*
X10510000Y11379200D02*
X10459200Y11480800D01*
X10560800D01*
X10510000Y11379200D01*
X10520000Y11279200D02*
X10469200Y11380800D01*
X10570800D01*
X10520000Y11279200D01*
X9580000Y11859200D02*
X9529200Y11960800D01*
X9630800D01*
X9580000Y11859200D01*
X9890000Y9249200D02*
X9839200Y9350800D01*
X9940800D01*
X9890000Y9249200D01*
X9950000Y9289200D02*
X9899200Y9390800D01*
X10000800D01*
X9950000Y9289200D01*
X9940000Y11349200D02*
X9889200Y11450800D01*
X9990800D01*
X9940000Y11349200D01*
X9500000Y11849200D02*
X9449200Y11950800D01*
X9550800D01*
X9500000Y11849200D01*
X9869980Y9349181D02*
X9819180Y9450781D01*
X9920780D01*
X9869980Y9349181D01*
X10000000Y11419200D02*
X9949200Y11520800D01*
X10050800D01*
X10000000Y11419200D01*
X10579979Y9099182D02*
X10529179Y9200782D01*
X10630779D01*
X10579979Y9099182D01*
X10525000Y9044200D02*
X10474200Y9145800D01*
X10575800D01*
X10525000Y9044200D01*
X10480000Y9099200D02*
X10429200Y9200800D01*
X10530800D01*
X10480000Y9099200D01*
X10370000Y9059200D02*
X10319200Y9160800D01*
X10420800D01*
X10370000Y9059200D01*
X10300000Y9039200D02*
X10249200Y9140800D01*
X10350800D01*
X10300000Y9039200D01*
X10700000Y9019200D02*
X10649200Y9120800D01*
X10750800D01*
X10700000Y9019200D01*
X10809978Y8939182D02*
X10759178Y9040782D01*
X10860778D01*
X10809978Y8939182D01*
X12310000Y10449200D02*
X12259200Y10550800D01*
X12360800D01*
X12310000Y10449200D01*
X13020000Y11559200D02*
X13045399Y11584600D01*
X13070799D01*
X13045399Y11610000D01*
X13070799Y11635400D01*
X13045399D01*
X13020000Y11660800D01*
X12994600Y11635400D01*
X12969200D01*
X12994600Y11610000D01*
X12969200Y11584600D01*
X12994600D01*
X13020000Y11559200D01*
X11600000Y10829200D02*
X11549200Y10930800D01*
X11650800D01*
X11600000Y10829200D01*
Y8629200D02*
X11549200Y8730800D01*
X11650800D01*
X11600000Y8629200D01*
X14939999Y8439200D02*
X14965401Y8464600D01*
X14990800D01*
X14965401Y8490000D01*
X14990800Y8515400D01*
X14965401D01*
X14939999Y8540800D01*
X14914600Y8515400D01*
X14889200D01*
X14914600Y8490000D01*
X14889200Y8464600D01*
X14914600D01*
X14939999Y8439200D01*
X15005000Y9044200D02*
X15030400Y9069600D01*
X15055800D01*
X15030400Y9095000D01*
X15055800Y9120400D01*
X15030400D01*
X15005000Y9145800D01*
X14979601Y9120400D01*
X14954201D01*
X14979601Y9095000D01*
X14954201Y9069600D01*
X14979601D01*
X15005000Y9044200D01*
X15039999Y11519200D02*
X15065401Y11544600D01*
X15090800D01*
X15065401Y11570000D01*
X15090800Y11595400D01*
X15065401D01*
X15039999Y11620800D01*
X15014600Y11595400D01*
X14989200D01*
X15014600Y11570000D01*
X14989200Y11544600D01*
X15014600D01*
X15039999Y11519200D01*
X14789999Y12159200D02*
X14815401Y12184600D01*
X14840800D01*
X14815401Y12210000D01*
X14840800Y12235400D01*
X14815401D01*
X14789999Y12260800D01*
X14764600Y12235400D01*
X14739200D01*
X14764600Y12210000D01*
X14739200Y12184600D01*
X14764600D01*
X14789999Y12159200D01*
X15064999Y11849200D02*
X15090401Y11874600D01*
X15115800D01*
X15090401Y11900000D01*
X15115800Y11925400D01*
X15090401D01*
X15064999Y11950800D01*
X15039600Y11925400D01*
X15014200D01*
X15039600Y11900000D01*
X15014200Y11874600D01*
X15039600D01*
X15064999Y11849200D01*
X15595000Y12054200D02*
X15620399Y12079600D01*
X15645799D01*
X15620399Y12105000D01*
X15645799Y12130400D01*
X15620399D01*
X15595000Y12155800D01*
X15569600Y12130400D01*
X15544200D01*
X15569600Y12105000D01*
X15544200Y12079600D01*
X15569600D01*
X15595000Y12054200D01*
X14750000Y11029200D02*
X14775400Y11054600D01*
X14800800D01*
X14775400Y11080000D01*
X14800800Y11105400D01*
X14775400D01*
X14750000Y11130800D01*
X14724600Y11105400D01*
X14699200D01*
X14724600Y11080000D01*
X14699200Y11054600D01*
X14724600D01*
X14750000Y11029200D01*
X12060000Y9739200D02*
X12085400Y9764600D01*
X12110800D01*
X12085400Y9790000D01*
X12110800Y9815400D01*
X12085400D01*
X12060000Y9840800D01*
X12034600Y9815400D01*
X12009200D01*
X12034600Y9790000D01*
X12009200Y9764600D01*
X12034600D01*
X12060000Y9739200D01*
X12269975Y9729180D02*
X12295375Y9754580D01*
X12320775D01*
X12295375Y9779980D01*
X12320775Y9805380D01*
X12295375D01*
X12269975Y9830780D01*
X12244575Y9805380D01*
X12219175D01*
X12244575Y9779980D01*
X12219175Y9754580D01*
X12244575D01*
X12269975Y9729180D01*
X13230000Y10009200D02*
X13255400Y10034600D01*
X13280800D01*
X13255400Y10060000D01*
X13280800Y10085400D01*
X13255400D01*
X13230000Y10110800D01*
X13204601Y10085400D01*
X13179201D01*
X13204601Y10060000D01*
X13179201Y10034600D01*
X13204601D01*
X13230000Y10009200D01*
X13440466Y10579666D02*
X13465866Y10605066D01*
X13491266D01*
X13465866Y10630466D01*
X13491266Y10655866D01*
X13465866D01*
X13440466Y10681266D01*
X13415067Y10655866D01*
X13389667D01*
X13415067Y10630466D01*
X13389667Y10605066D01*
X13415067D01*
X13440466Y10579666D01*
X13610001Y11139200D02*
X13635400Y11164600D01*
X13660800D01*
X13635400Y11190000D01*
X13660800Y11215400D01*
X13635400D01*
X13610001Y11240800D01*
X13584599Y11215400D01*
X13559200D01*
X13584599Y11190000D01*
X13559200Y11164600D01*
X13584599D01*
X13610001Y11139200D01*
X8480000Y7789200D02*
X8505400Y7814600D01*
X8530800D01*
X8505400Y7840000D01*
X8530800Y7865400D01*
X8505400D01*
X8480000Y7890800D01*
X8454600Y7865400D01*
X8429200D01*
X8454600Y7840000D01*
X8429200Y7814600D01*
X8454600D01*
X8480000Y7789200D01*
X8560000Y8219200D02*
X8585400Y8244600D01*
X8610800D01*
X8585400Y8270000D01*
X8610800Y8295400D01*
X8585400D01*
X8560000Y8320800D01*
X8534600Y8295400D01*
X8509200D01*
X8534600Y8270000D01*
X8509200Y8244600D01*
X8534600D01*
X8560000Y8219200D01*
X12670000D02*
X12695400Y8244600D01*
X12720800D01*
X12695400Y8270000D01*
X12720800Y8295400D01*
X12695400D01*
X12670000Y8320800D01*
X12644600Y8295400D01*
X12619200D01*
X12644600Y8270000D01*
X12619200Y8244600D01*
X12644600D01*
X12670000Y8219200D01*
X13280000D02*
X13305400Y8244600D01*
X13330800D01*
X13305400Y8270000D01*
X13330800Y8295400D01*
X13305400D01*
X13280000Y8320800D01*
X13254601Y8295400D01*
X13229201D01*
X13254601Y8270000D01*
X13229201Y8244600D01*
X13254601D01*
X13280000Y8219200D01*
X13860001D02*
X13885400Y8244600D01*
X13910800D01*
X13885400Y8270000D01*
X13910800Y8295400D01*
X13885400D01*
X13860001Y8320800D01*
X13834599Y8295400D01*
X13809200D01*
X13834599Y8270000D01*
X13809200Y8244600D01*
X13834599D01*
X13860001Y8219200D01*
X13809972Y8529183D02*
X13835371Y8554583D01*
X13860773D01*
X13835371Y8579983D01*
X13860773Y8605383D01*
X13835371D01*
X13809972Y8630783D01*
X13784572Y8605383D01*
X13759172D01*
X13784572Y8579983D01*
X13759172Y8554583D01*
X13784572D01*
X13809972Y8529183D01*
X13910001Y8609200D02*
X13935400Y8634600D01*
X13960800D01*
X13935400Y8660000D01*
X13960800Y8685400D01*
X13935400D01*
X13910001Y8710800D01*
X13884599Y8685400D01*
X13859200D01*
X13884599Y8660000D01*
X13859200Y8634600D01*
X13884599D01*
X13910001Y8609200D01*
X13139999Y8659200D02*
X13165401Y8684600D01*
X13190800D01*
X13165401Y8710000D01*
X13190800Y8735400D01*
X13165401D01*
X13139999Y8760800D01*
X13114600Y8735400D01*
X13089200D01*
X13114600Y8710000D01*
X13089200Y8684600D01*
X13114600D01*
X13139999Y8659200D01*
X14470000Y8219200D02*
X14495399Y8244600D01*
X14520799D01*
X14495399Y8270000D01*
X14520799Y8295400D01*
X14495399D01*
X14470000Y8320800D01*
X14444600Y8295400D01*
X14419200D01*
X14444600Y8270000D01*
X14419200Y8244600D01*
X14444600D01*
X14470000Y8219200D01*
X14389999Y8569200D02*
X14415401Y8594600D01*
X14440800D01*
X14415401Y8620000D01*
X14440800Y8645400D01*
X14415401D01*
X14389999Y8670800D01*
X14364600Y8645400D01*
X14339200D01*
X14364600Y8620000D01*
X14339200Y8594600D01*
X14364600D01*
X14389999Y8569200D01*
X14189999Y8949200D02*
X14215401Y8974600D01*
X14240800D01*
X14215401Y9000000D01*
X14240800Y9025400D01*
X14215401D01*
X14189999Y9050800D01*
X14164600Y9025400D01*
X14139200D01*
X14164600Y9000000D01*
X14139200Y8974600D01*
X14164600D01*
X14189999Y8949200D01*
X12860001Y9839200D02*
X12885400Y9864600D01*
X12910800D01*
X12885400Y9890000D01*
X12910800Y9915400D01*
X12885400D01*
X12860001Y9940800D01*
X12834599Y9915400D01*
X12809200D01*
X12834599Y9890000D01*
X12809200Y9864600D01*
X12834599D01*
X12860001Y9839200D01*
X12830000Y10009200D02*
X12855400Y10034600D01*
X12880800D01*
X12855400Y10060000D01*
X12880800Y10085400D01*
X12855400D01*
X12830000Y10110800D01*
X12804601Y10085400D01*
X12779200D01*
X12804601Y10060000D01*
X12779200Y10034600D01*
X12804601D01*
X12830000Y10009200D01*
X14725000Y9339200D02*
X14750400Y9364600D01*
X14775800D01*
X14750400Y9390000D01*
X14775800Y9415400D01*
X14750400D01*
X14725000Y9440800D01*
X14699600Y9415400D01*
X14674200D01*
X14699600Y9390000D01*
X14674200Y9364600D01*
X14699600D01*
X14725000Y9339200D01*
X14727499Y9459200D02*
X14752901Y9484600D01*
X14778300D01*
X14752901Y9510000D01*
X14778300Y9535400D01*
X14752901D01*
X14727499Y9560800D01*
X14702100Y9535400D01*
X14676700D01*
X14702100Y9510000D01*
X14676700Y9484600D01*
X14702100D01*
X14727499Y9459200D01*
X14139999Y10251700D02*
X14165401Y10277100D01*
X14190800D01*
X14165401Y10302500D01*
X14190800Y10327900D01*
X14165401D01*
X14139999Y10353300D01*
X14114600Y10327900D01*
X14089200D01*
X14114600Y10302500D01*
X14089200Y10277100D01*
X14114600D01*
X14139999Y10251700D01*
X14727499Y9581700D02*
X14752901Y9607100D01*
X14778300D01*
X14752901Y9632500D01*
X14778300Y9657900D01*
X14752901D01*
X14727499Y9683300D01*
X14702100Y9657900D01*
X14676700D01*
X14702100Y9632500D01*
X14676700Y9607100D01*
X14702100D01*
X14727499Y9581700D01*
X15050000Y8219200D02*
X15075400Y8244600D01*
X15100800D01*
X15075400Y8270000D01*
X15100800Y8295400D01*
X15075400D01*
X15050000Y8320800D01*
X15024600Y8295400D01*
X14999200D01*
X15024600Y8270000D01*
X14999200Y8244600D01*
X15024600D01*
X15050000Y8219200D01*
X15680000D02*
X15705400Y8244600D01*
X15730800D01*
X15705400Y8270000D01*
X15730800Y8295400D01*
X15705400D01*
X15680000Y8320800D01*
X15654601Y8295400D01*
X15629201D01*
X15654601Y8270000D01*
X15629201Y8244600D01*
X15654601D01*
X15680000Y8219200D01*
X15939999Y8989200D02*
X15965401Y9014600D01*
X15990800D01*
X15965401Y9040000D01*
X15990800Y9065400D01*
X15965401D01*
X15939999Y9090800D01*
X15914600Y9065400D01*
X15889200D01*
X15914600Y9040000D01*
X15889200Y9014600D01*
X15914600D01*
X15939999Y8989200D01*
X15557526Y10021006D02*
X15582925Y10046406D01*
X15608325D01*
X15582925Y10071806D01*
X15608325Y10097206D01*
X15582925D01*
X15557526Y10122606D01*
X15532124Y10097206D01*
X15506725D01*
X15532124Y10071806D01*
X15506725Y10046406D01*
X15532124D01*
X15557526Y10021006D01*
X15720000Y9679200D02*
X15745399Y9704600D01*
X15770799D01*
X15745399Y9730000D01*
X15770799Y9755400D01*
X15745399D01*
X15720000Y9780800D01*
X15694600Y9755400D01*
X15669200D01*
X15694600Y9730000D01*
X15669200Y9704600D01*
X15694600D01*
X15720000Y9679200D01*
X15752499Y10129200D02*
X15777901Y10154600D01*
X15803300D01*
X15777901Y10180000D01*
X15803300Y10205400D01*
X15777901D01*
X15752499Y10230800D01*
X15727100Y10205400D01*
X15701700D01*
X15727100Y10180000D01*
X15701700Y10154600D01*
X15727100D01*
X15752499Y10129200D01*
X15750000Y10256700D02*
X15775400Y10282100D01*
X15800800D01*
X15775400Y10307500D01*
X15800800Y10332900D01*
X15775400D01*
X15750000Y10358300D01*
X15724600Y10332900D01*
X15699200D01*
X15724600Y10307500D01*
X15699200Y10282100D01*
X15724600D01*
X15750000Y10256700D01*
X15939999Y10319200D02*
X15965401Y10344600D01*
X15990800D01*
X15965401Y10370000D01*
X15990800Y10395400D01*
X15965401D01*
X15939999Y10420800D01*
X15914600Y10395400D01*
X15889200D01*
X15914600Y10370000D01*
X15889200Y10344600D01*
X15914600D01*
X15939999Y10319200D01*
X12850000Y10529200D02*
X12875400Y10554600D01*
X12900800D01*
X12875400Y10580000D01*
X12900800Y10605400D01*
X12875400D01*
X12850000Y10630800D01*
X12824600Y10605400D01*
X12799200D01*
X12824600Y10580000D01*
X12799200Y10554600D01*
X12824600D01*
X12850000Y10529200D01*
X12932500Y10749200D02*
X12957899Y10774600D01*
X12983299D01*
X12957899Y10800000D01*
X12983299Y10825400D01*
X12957899D01*
X12932500Y10850800D01*
X12907100Y10825400D01*
X12881700D01*
X12907100Y10800000D01*
X12881700Y10774600D01*
X12907100D01*
X12932500Y10749200D01*
X12563431Y11134200D02*
X12588831Y11159600D01*
X12614231D01*
X12588831Y11185000D01*
X12614231Y11210400D01*
X12588831D01*
X12563431Y11235800D01*
X12538031Y11210400D01*
X12512631D01*
X12538031Y11185000D01*
X12512631Y11159600D01*
X12538031D01*
X12563431Y11134200D01*
X13200000Y11339200D02*
X13225400Y11364600D01*
X13250800D01*
X13225400Y11390000D01*
X13250800Y11415400D01*
X13225400D01*
X13200000Y11440800D01*
X13174600Y11415400D01*
X13149200D01*
X13174600Y11390000D01*
X13149200Y11364600D01*
X13174600D01*
X13200000Y11339200D01*
X13450000Y11869200D02*
X13475400Y11894600D01*
X13500800D01*
X13475400Y11920000D01*
X13500800Y11945400D01*
X13475400D01*
X13450000Y11970800D01*
X13424600Y11945400D01*
X13399200D01*
X13424600Y11920000D01*
X13399200Y11894600D01*
X13424600D01*
X13450000Y11869200D01*
X13152499Y11916700D02*
X13177901Y11942100D01*
X13203300D01*
X13177901Y11967500D01*
X13203300Y11992900D01*
X13177901D01*
X13152499Y12018300D01*
X13127100Y11992900D01*
X13101700D01*
X13127100Y11967500D01*
X13101700Y11942100D01*
X13127100D01*
X13152499Y11916700D01*
X14564999Y11724200D02*
X14590401Y11749600D01*
X14615800D01*
X14590401Y11775000D01*
X14615800Y11800400D01*
X14590401D01*
X14564999Y11825800D01*
X14539600Y11800400D01*
X14514200D01*
X14539600Y11775000D01*
X14514200Y11749600D01*
X14539600D01*
X14564999Y11724200D01*
X13880000Y12359200D02*
X13905400Y12384600D01*
X13930800D01*
X13905400Y12410000D01*
X13930800Y12435400D01*
X13905400D01*
X13880000Y12460800D01*
X13854601Y12435400D01*
X13829201D01*
X13854601Y12410000D01*
X13829201Y12384600D01*
X13854601D01*
X13880000Y12359200D01*
X14470000D02*
X14495399Y12384600D01*
X14520799D01*
X14495399Y12410000D01*
X14520799Y12435400D01*
X14495399D01*
X14470000Y12460800D01*
X14444600Y12435400D01*
X14419200D01*
X14444600Y12410000D01*
X14419200Y12384600D01*
X14444600D01*
X14470000Y12359200D01*
X15424722Y10464200D02*
X15450122Y10489600D01*
X15475522D01*
X15450122Y10515000D01*
X15475522Y10540400D01*
X15450122D01*
X15424722Y10565800D01*
X15399323Y10540400D01*
X15373923D01*
X15399323Y10515000D01*
X15373923Y10489600D01*
X15399323D01*
X15424722Y10464200D01*
X15480000Y10499200D02*
X15505400Y10524600D01*
X15530800D01*
X15505400Y10550000D01*
X15530800Y10575400D01*
X15505400D01*
X15480000Y10600800D01*
X15454601Y10575400D01*
X15429201D01*
X15454601Y10550000D01*
X15429201Y10524600D01*
X15454601D01*
X15480000Y10499200D01*
X15742500Y10319200D02*
X15767900Y10344600D01*
X15793300D01*
X15767900Y10370000D01*
X15793300Y10395400D01*
X15767900D01*
X15742500Y10420800D01*
X15717101Y10395400D01*
X15691701D01*
X15717101Y10370000D01*
X15691701Y10344600D01*
X15717101D01*
X15742500Y10319200D01*
X15747501Y10434200D02*
X15772900Y10459600D01*
X15798300D01*
X15772900Y10485000D01*
X15798300Y10510400D01*
X15772900D01*
X15747501Y10535800D01*
X15722099Y10510400D01*
X15696700D01*
X15722099Y10485000D01*
X15696700Y10459600D01*
X15722099D01*
X15747501Y10434200D01*
X14720000Y11129200D02*
X14745399Y11154600D01*
X14770799D01*
X14745399Y11180000D01*
X14770799Y11205400D01*
X14745399D01*
X14720000Y11230800D01*
X14694600Y11205400D01*
X14669200D01*
X14694600Y11180000D01*
X14669200Y11154600D01*
X14694600D01*
X14720000Y11129200D01*
X15560001Y10859200D02*
X15585400Y10884600D01*
X15610800D01*
X15585400Y10910000D01*
X15610800Y10935400D01*
X15585400D01*
X15560001Y10960800D01*
X15534599Y10935400D01*
X15509200D01*
X15534599Y10910000D01*
X15509200Y10884600D01*
X15534599D01*
X15560001Y10859200D01*
X14717500Y11254200D02*
X14742900Y11279600D01*
X14768300D01*
X14742900Y11305000D01*
X14768300Y11330400D01*
X14742900D01*
X14717500Y11355800D01*
X14692101Y11330400D01*
X14666701D01*
X14692101Y11305000D01*
X14666701Y11279600D01*
X14692101D01*
X14717500Y11254200D01*
Y11354200D02*
X14742900Y11379600D01*
X14768300D01*
X14742900Y11405000D01*
X14768300Y11430400D01*
X14742900D01*
X14717500Y11455800D01*
X14692101Y11430400D01*
X14666701D01*
X14692101Y11405000D01*
X14666701Y11379600D01*
X14692101D01*
X14717500Y11354200D01*
X15060001Y12359200D02*
X15085400Y12384600D01*
X15110800D01*
X15085400Y12410000D01*
X15110800Y12435400D01*
X15085400D01*
X15060001Y12460800D01*
X15034599Y12435400D01*
X15009200D01*
X15034599Y12410000D01*
X15009200Y12384600D01*
X15034599D01*
X15060001Y12359200D01*
X15689999Y11949200D02*
X15715401Y11974600D01*
X15740800D01*
X15715401Y12000000D01*
X15740800Y12025400D01*
X15715401D01*
X15689999Y12050800D01*
X15664600Y12025400D01*
X15639200D01*
X15664600Y12000000D01*
X15639200Y11974600D01*
X15664600D01*
X15689999Y11949200D01*
X15700000Y12379200D02*
X15725400Y12404600D01*
X15750800D01*
X15725400Y12430000D01*
X15750800Y12455400D01*
X15725400D01*
X15700000Y12480800D01*
X15674600Y12455400D01*
X15649200D01*
X15674600Y12430000D01*
X15649200Y12404600D01*
X15674600D01*
X15700000Y12379200D01*
X15739999Y10909200D02*
X15765401Y10934600D01*
X15790800D01*
X15765401Y10960000D01*
X15790800Y10985400D01*
X15765401D01*
X15739999Y11010800D01*
X15714600Y10985400D01*
X15689200D01*
X15714600Y10960000D01*
X15689200Y10934600D01*
X15714600D01*
X15739999Y10909200D01*
X16210001Y11679200D02*
X16235400Y11704600D01*
X16260800D01*
X16235400Y11730000D01*
X16260800Y11755400D01*
X16235400D01*
X16210001Y11780800D01*
X16184599Y11755400D01*
X16159200D01*
X16184599Y11730000D01*
X16159200Y11704600D01*
X16184599D01*
X16210001Y11679200D01*
X13030000Y9159200D02*
X13055400Y9184600D01*
X13080800D01*
X13055400Y9210000D01*
X13080800Y9235400D01*
X13055400D01*
X13030000Y9260800D01*
X13004601Y9235400D01*
X12979201D01*
X13004601Y9210000D01*
X12979201Y9184600D01*
X13004601D01*
X13030000Y9159200D01*
X12675000Y9944200D02*
X12700400Y9969600D01*
X12725800D01*
X12700400Y9995000D01*
X12725800Y10020400D01*
X12700400D01*
X12675000Y10045800D01*
X12649600Y10020400D01*
X12624200D01*
X12649600Y9995000D01*
X12624200Y9969600D01*
X12649600D01*
X12675000Y9944200D01*
X12403431Y11454200D02*
X12428831Y11479600D01*
X12454231D01*
X12428831Y11505000D01*
X12454231Y11530400D01*
X12428831D01*
X12403431Y11555800D01*
X12378031Y11530400D01*
X12352631D01*
X12378031Y11505000D01*
X12352631Y11479600D01*
X12378031D01*
X12403431Y11454200D01*
X13110001Y10739200D02*
X13135400Y10764600D01*
X13160800D01*
X13135400Y10790000D01*
X13160800Y10815400D01*
X13135400D01*
X13110001Y10840800D01*
X13084599Y10815400D01*
X13059200D01*
X13084599Y10790000D01*
X13059200Y10764600D01*
X13084599D01*
X13110001Y10739200D01*
X13286571Y10669200D02*
X13311971Y10694600D01*
X13337370D01*
X13311971Y10720000D01*
X13337370Y10745400D01*
X13311971D01*
X13286571Y10770800D01*
X13261169Y10745400D01*
X13235770D01*
X13261169Y10720000D01*
X13235770Y10694600D01*
X13261169D01*
X13286571Y10669200D01*
X14169971Y8439183D02*
X14195370Y8464583D01*
X14220770D01*
X14195370Y8489983D01*
X14220770Y8515383D01*
X14195370D01*
X14169971Y8540783D01*
X14144571Y8515383D01*
X14119171D01*
X14144571Y8489983D01*
X14119171Y8464583D01*
X14144571D01*
X14169971Y8439183D01*
X14410001Y10209200D02*
X14435400Y10234600D01*
X14460800D01*
X14435400Y10260000D01*
X14460800Y10285400D01*
X14435400D01*
X14410001Y10310800D01*
X14384599Y10285400D01*
X14359200D01*
X14384599Y10260000D01*
X14359200Y10234600D01*
X14384599D01*
X14410001Y10209200D01*
X15700000Y8709200D02*
X15725400Y8734600D01*
X15750800D01*
X15725400Y8760000D01*
X15750800Y8785400D01*
X15725400D01*
X15700000Y8810800D01*
X15674600Y8785400D01*
X15649200D01*
X15674600Y8760000D01*
X15649200Y8734600D01*
X15674600D01*
X15700000Y8709200D01*
X14920000Y9769200D02*
X14945399Y9794600D01*
X14970799D01*
X14945399Y9820000D01*
X14970799Y9845400D01*
X14945399D01*
X14920000Y9870800D01*
X14894600Y9845400D01*
X14869200D01*
X14894600Y9820000D01*
X14869200Y9794600D01*
X14894600D01*
X14920000Y9769200D01*
X14239999Y10789200D02*
X14265401Y10814600D01*
X14290800D01*
X14265401Y10840000D01*
X14290800Y10865400D01*
X14265401D01*
X14239999Y10890800D01*
X14214600Y10865400D01*
X14189200D01*
X14214600Y10840000D01*
X14189200Y10814600D01*
X14214600D01*
X14239999Y10789200D01*
X15610001Y11919200D02*
X15635400Y11944600D01*
X15660800D01*
X15635400Y11970000D01*
X15660800Y11995400D01*
X15635400D01*
X15610001Y12020800D01*
X15584599Y11995400D01*
X15559200D01*
X15584599Y11970000D01*
X15559200Y11944600D01*
X15584599D01*
X15610001Y11919200D01*
X13010001Y9899200D02*
X13035400Y9924600D01*
X13060800D01*
X13035400Y9950000D01*
X13060800Y9975400D01*
X13035400D01*
X13010001Y10000800D01*
X12984599Y9975400D01*
X12959200D01*
X12984599Y9950000D01*
X12959200Y9924600D01*
X12984599D01*
X13010001Y9899200D01*
X12563431Y11454200D02*
X12588831Y11479600D01*
X12614231D01*
X12588831Y11505000D01*
X12614231Y11530400D01*
X12588831D01*
X12563431Y11555800D01*
X12538031Y11530400D01*
X12512631D01*
X12538031Y11505000D01*
X12512631Y11479600D01*
X12538031D01*
X12563431Y11454200D01*
X14035690Y9177150D02*
X14061090Y9202550D01*
X14086490D01*
X14061090Y9227950D01*
X14086490Y9253350D01*
X14061090D01*
X14035690Y9278750D01*
X14010291Y9253350D01*
X13984891D01*
X14010291Y9227950D01*
X13984891Y9202550D01*
X14010291D01*
X14035690Y9177150D01*
X14062500Y9846700D02*
X14087900Y9872100D01*
X14113300D01*
X14087900Y9897500D01*
X14113300Y9922900D01*
X14087900D01*
X14062500Y9948300D01*
X14037100Y9922900D01*
X14011700D01*
X14037100Y9897500D01*
X14011700Y9872100D01*
X14037100D01*
X14062500Y9846700D01*
X15010001Y8839200D02*
X15035400Y8864600D01*
X15060800D01*
X15035400Y8890000D01*
X15060800Y8915400D01*
X15035400D01*
X15010001Y8940800D01*
X14984599Y8915400D01*
X14959200D01*
X14984599Y8890000D01*
X14959200Y8864600D01*
X14984599D01*
X15010001Y8839200D01*
X13089999Y11349200D02*
X13115401Y11374600D01*
X13140800D01*
X13115401Y11400000D01*
X13140800Y11425400D01*
X13115401D01*
X13089999Y11450800D01*
X13064600Y11425400D01*
X13039200D01*
X13064600Y11400000D01*
X13039200Y11374600D01*
X13064600D01*
X13089999Y11349200D01*
X14322501Y11399200D02*
X14347900Y11424600D01*
X14373300D01*
X14347900Y11450000D01*
X14373300Y11475400D01*
X14347900D01*
X14322501Y11500800D01*
X14297099Y11475400D01*
X14271700D01*
X14297099Y11450000D01*
X14271700Y11424600D01*
X14297099D01*
X14322501Y11399200D01*
X14937500Y10776700D02*
X14962900Y10802100D01*
X14988300D01*
X14962900Y10827500D01*
X14988300Y10852900D01*
X14962900D01*
X14937500Y10878300D01*
X14912100Y10852900D01*
X14886700D01*
X14912100Y10827500D01*
X14886700Y10802100D01*
X14912100D01*
X14937500Y10776700D01*
X15060001Y11729200D02*
X15085400Y11754600D01*
X15110800D01*
X15085400Y11780000D01*
X15110800Y11805400D01*
X15085400D01*
X15060001Y11830800D01*
X15034599Y11805400D01*
X15009200D01*
X15034599Y11780000D01*
X15009200Y11754600D01*
X15034599D01*
X15060001Y11729200D01*
X13310001Y8929200D02*
X13335400Y8954600D01*
X13360800D01*
X13335400Y8980000D01*
X13360800Y9005400D01*
X13335400D01*
X13310001Y9030800D01*
X13284599Y9005400D01*
X13259200D01*
X13284599Y8980000D01*
X13259200Y8954600D01*
X13284599D01*
X13310001Y8929200D01*
X13639999Y8839200D02*
X13665401Y8864600D01*
X13690800D01*
X13665401Y8890000D01*
X13690800Y8915400D01*
X13665401D01*
X13639999Y8940800D01*
X13614600Y8915400D01*
X13589200D01*
X13614600Y8890000D01*
X13589200Y8864600D01*
X13614600D01*
X13639999Y8839200D01*
X12805000Y10681700D02*
X12830400Y10707100D01*
X12855800D01*
X12830400Y10732500D01*
X12855800Y10757900D01*
X12830400D01*
X12805000Y10783300D01*
X12779600Y10757900D01*
X12754200D01*
X12779600Y10732500D01*
X12754200Y10707100D01*
X12779600D01*
X12805000Y10681700D01*
X12790000Y11289200D02*
X12815401Y11314600D01*
X12840800D01*
X12815401Y11340000D01*
X12840800Y11365400D01*
X12815401D01*
X12790000Y11390800D01*
X12764600Y11365400D01*
X12739200D01*
X12764600Y11340000D01*
X12739200Y11314600D01*
X12764600D01*
X12790000Y11289200D01*
X13520000Y11219200D02*
X13545399Y11244600D01*
X13570799D01*
X13545399Y11270000D01*
X13570799Y11295400D01*
X13545399D01*
X13520000Y11320800D01*
X13494600Y11295400D01*
X13469200D01*
X13494600Y11270000D01*
X13469200Y11244600D01*
X13494600D01*
X13520000Y11219200D01*
X9515000Y12004200D02*
X9540400Y12029600D01*
X9565800D01*
X9540400Y12055000D01*
X9565800Y12080400D01*
X9540400D01*
X9515000Y12105800D01*
X9489600Y12080400D01*
X9464200D01*
X9489600Y12055000D01*
X9464200Y12029600D01*
X9489600D01*
X9515000Y12004200D01*
X9520000Y12359200D02*
X9545400Y12384600D01*
X9570800D01*
X9545400Y12410000D01*
X9570800Y12435400D01*
X9545400D01*
X9520000Y12460800D01*
X9494600Y12435400D01*
X9469200D01*
X9494600Y12410000D01*
X9469200Y12384600D01*
X9494600D01*
X9520000Y12359200D01*
X11510000Y10409200D02*
X11535400Y10434600D01*
X11560800D01*
X11535400Y10460000D01*
X11560800Y10485400D01*
X11535400D01*
X11510000Y10510800D01*
X11484600Y10485400D01*
X11459200D01*
X11484600Y10460000D01*
X11459200Y10434600D01*
X11484600D01*
X11510000Y10409200D01*
X12470000Y9909200D02*
X12495400Y9934600D01*
X12520800D01*
X12495400Y9960000D01*
X12520800Y9985400D01*
X12495400D01*
X12470000Y10010800D01*
X12444600Y9985400D01*
X12419200D01*
X12444600Y9960000D01*
X12419200Y9934600D01*
X12444600D01*
X12470000Y9909200D01*
Y10499200D02*
X12495400Y10524600D01*
X12520800D01*
X12495400Y10550000D01*
X12520800Y10575400D01*
X12495400D01*
X12470000Y10600800D01*
X12444600Y10575400D01*
X12419200D01*
X12444600Y10550000D01*
X12419200Y10524600D01*
X12444600D01*
X12470000Y10499200D01*
X12670000Y10159200D02*
X12695400Y10184600D01*
X12720800D01*
X12695400Y10210000D01*
X12720800Y10235400D01*
X12695400D01*
X12670000Y10260800D01*
X12644600Y10235400D01*
X12619200D01*
X12644600Y10210000D01*
X12619200Y10184600D01*
X12644600D01*
X12670000Y10159200D01*
X10230000Y8539200D02*
X10255400Y8564600D01*
X10280800D01*
X10255400Y8590000D01*
X10280800Y8615400D01*
X10255400D01*
X10230000Y8640800D01*
X10204600Y8615400D01*
X10179200D01*
X10204600Y8590000D01*
X10179200Y8564600D01*
X10204600D01*
X10230000Y8539200D01*
X10190000Y8709200D02*
X10215400Y8734600D01*
X10240800D01*
X10215400Y8760000D01*
X10240800Y8785400D01*
X10215400D01*
X10190000Y8810800D01*
X10164600Y8785400D01*
X10139200D01*
X10164600Y8760000D01*
X10139200Y8734600D01*
X10164600D01*
X10190000Y8709200D01*
X13077499Y10271700D02*
X13026700Y10373300D01*
X13128300D01*
X13077499Y10271700D01*
X10660000Y8449200D02*
X10685400Y8474600D01*
X10710800D01*
X10685400Y8500000D01*
X10710800Y8525400D01*
X10685400D01*
X10660000Y8550800D01*
X10634600Y8525400D01*
X10609200D01*
X10634600Y8500000D01*
X10609200Y8474600D01*
X10634600D01*
X10660000Y8449200D01*
X10950000D02*
X10899200Y8550800D01*
X11000800D01*
X10950000Y8449200D01*
X9885000Y11664200D02*
X9834200Y11765800D01*
X9935800D01*
X9885000Y11664200D01*
X10500000Y12349200D02*
X10449200Y12450800D01*
X10550800D01*
X10500000Y12349200D01*
X11520000Y11949200D02*
X11545400Y11974600D01*
X11570800D01*
X11545400Y12000000D01*
X11570800Y12025400D01*
X11545400D01*
X11520000Y12050800D01*
X11494600Y12025400D01*
X11469200D01*
X11494600Y12000000D01*
X11469200Y11974600D01*
X11494600D01*
X11520000Y11949200D01*
X11730000Y10299200D02*
X11755400Y10324600D01*
X11780800D01*
X11755400Y10350000D01*
X11780800Y10375400D01*
X11755400D01*
X11730000Y10400800D01*
X11704600Y10375400D01*
X11679200D01*
X11704600Y10350000D01*
X11679200Y10324600D01*
X11704600D01*
X11730000Y10299200D01*
X10870000Y10489200D02*
X10819200Y10590800D01*
X10920800D01*
X10870000Y10489200D01*
X10080000Y10809200D02*
X10029200Y10910800D01*
X10130800D01*
X10080000Y10809200D01*
X8930000Y8229200D02*
X8955400Y8254600D01*
X8980800D01*
X8955400Y8280000D01*
X8980800Y8305400D01*
X8955400D01*
X8930000Y8330800D01*
X8904600Y8305400D01*
X8879200D01*
X8904600Y8280000D01*
X8879200Y8254600D01*
X8904600D01*
X8930000Y8229200D01*
X9000000D02*
X9025400Y8254600D01*
X9050800D01*
X9025400Y8280000D01*
X9050800Y8305400D01*
X9025400D01*
X9000000Y8330800D01*
X8974600Y8305400D01*
X8949200D01*
X8974600Y8280000D01*
X8949200Y8254600D01*
X8974600D01*
X9000000Y8229200D01*
X9070000D02*
X9095400Y8254600D01*
X9120800D01*
X9095400Y8280000D01*
X9120800Y8305400D01*
X9095400D01*
X9070000Y8330800D01*
X9044600Y8305400D01*
X9019200D01*
X9044600Y8280000D01*
X9019200Y8254600D01*
X9044600D01*
X9070000Y8229200D01*
X9140000D02*
X9165400Y8254600D01*
X9190800D01*
X9165400Y8280000D01*
X9190800Y8305400D01*
X9165400D01*
X9140000Y8330800D01*
X9114600Y8305400D01*
X9089200D01*
X9114600Y8280000D01*
X9089200Y8254600D01*
X9114600D01*
X9140000Y8229200D01*
X10249979Y10649179D02*
X10199179Y10750779D01*
X10300780D01*
X10249979Y10649179D01*
X10350000Y10919200D02*
X10299200Y11020800D01*
X10400800D01*
X10350000Y10919200D01*
X10600000Y11209200D02*
X10549200Y11310800D01*
X10650800D01*
X10600000Y11209200D01*
X10659979Y10929178D02*
X10609179Y11030778D01*
X10710779D01*
X10659979Y10929178D01*
X10790000Y10975560D02*
X10739200Y11077160D01*
X10840800D01*
X10790000Y10975560D01*
X10710000Y10499200D02*
X10659200Y10600800D01*
X10760800D01*
X10710000Y10499200D01*
X10780000Y10489200D02*
X10729200Y10590800D01*
X10830800D01*
X10780000Y10489200D01*
X10649979Y9479181D02*
X10675379Y9504581D01*
X10700779D01*
X10675379Y9529981D01*
X10700779Y9555381D01*
X10675379D01*
X10649979Y9580781D01*
X10624579Y9555381D01*
X10599179D01*
X10624579Y9529981D01*
X10599179Y9504581D01*
X10624579D01*
X10649979Y9479181D01*
X10690000Y11009200D02*
X10715400Y11034600D01*
X10740800D01*
X10715400Y11060000D01*
X10740800Y11085400D01*
X10715400D01*
X10690000Y11110800D01*
X10664600Y11085400D01*
X10639200D01*
X10664600Y11060000D01*
X10639200Y11034600D01*
X10664600D01*
X10690000Y11009200D01*
X11069999Y10019200D02*
X11095399Y10044600D01*
X11120799D01*
X11095399Y10070000D01*
X11120799Y10095400D01*
X11095399D01*
X11069999Y10120800D01*
X11044599Y10095400D01*
X11019199D01*
X11044599Y10070000D01*
X11019199Y10044600D01*
X11044599D01*
X11069999Y10019200D01*
X10730000Y9379200D02*
X10679200Y9480800D01*
X10780800D01*
X10730000Y9379200D01*
X13280000Y12379200D02*
X13305400Y12404600D01*
X13330800D01*
X13305400Y12430000D01*
X13330800Y12455400D01*
X13305400D01*
X13280000Y12480800D01*
X13254601Y12455400D01*
X13229201D01*
X13254601Y12430000D01*
X13229201Y12404600D01*
X13254601D01*
X13280000Y12379200D01*
X13180000D02*
X13205400Y12404600D01*
X13230800D01*
X13205400Y12430000D01*
X13230800Y12455400D01*
X13205400D01*
X13180000Y12480800D01*
X13154601Y12455400D01*
X13129201D01*
X13154601Y12430000D01*
X13129201Y12404600D01*
X13154601D01*
X13180000Y12379200D01*
X13780000Y10389200D02*
X13805400Y10414600D01*
X13830800D01*
X13805400Y10440000D01*
X13830800Y10465400D01*
X13805400D01*
X13780000Y10490800D01*
X13754601Y10465400D01*
X13729201D01*
X13754601Y10440000D01*
X13729201Y10414600D01*
X13754601D01*
X13780000Y10389200D01*
X14655000Y10671700D02*
X14680400Y10697100D01*
X14705800D01*
X14680400Y10722500D01*
X14705800Y10747900D01*
X14680400D01*
X14655000Y10773300D01*
X14629601Y10747900D01*
X14604201D01*
X14629601Y10722500D01*
X14604201Y10697100D01*
X14629601D01*
X14655000Y10671700D01*
X12139976Y11949176D02*
X12165376Y11974576D01*
X12190776D01*
X12165376Y11999976D01*
X12190776Y12025376D01*
X12165376D01*
X12139976Y12050776D01*
X12114576Y12025376D01*
X12089176D01*
X12114576Y11999976D01*
X12089176Y11974576D01*
X12114576D01*
X12139976Y11949176D01*
X12129975Y11739176D02*
X12155375Y11764576D01*
X12180775D01*
X12155375Y11789976D01*
X12180775Y11815376D01*
X12155375D01*
X12129975Y11840776D01*
X12104575Y11815376D01*
X12079175D01*
X12104575Y11789976D01*
X12079175Y11764576D01*
X12104575D01*
X12129975Y11739176D01*
X15939999Y11569200D02*
X15965401Y11594600D01*
X15990800D01*
X15965401Y11620000D01*
X15990800Y11645400D01*
X15965401D01*
X15939999Y11670800D01*
X15914600Y11645400D01*
X15889200D01*
X15914600Y11620000D01*
X15889200Y11594600D01*
X15914600D01*
X15939999Y11569200D01*
X16300009Y9249205D02*
X16249210Y9350805D01*
X16350809D01*
X16300009Y9249205D01*
X16350009Y9549205D02*
X16299210Y9650805D01*
X16400809D01*
X16350009Y9549205D01*
Y10149206D02*
X16299210Y10250806D01*
X16400809D01*
X16350009Y10149206D01*
X16300009Y10249206D02*
X16249210Y10350806D01*
X16350809D01*
X16300009Y10249206D01*
X16350009Y10349206D02*
X16299210Y10450806D01*
X16400809D01*
X16350009Y10349206D01*
X16300009Y10449206D02*
X16249210Y10550806D01*
X16350809D01*
X16300009Y10449206D01*
X16350009Y10749206D02*
X16299210Y10850806D01*
X16400809D01*
X16350009Y10749206D01*
X16300009Y11049206D02*
X16249210Y11150806D01*
X16350809D01*
X16300009Y11049206D01*
X16400009Y9249205D02*
X16349210Y9350805D01*
X16450809D01*
X16400009Y9249205D01*
X16450009Y9549205D02*
X16399210Y9650805D01*
X16500809D01*
X16450009Y9549205D01*
X16400009Y9849205D02*
X16349210Y9950805D01*
X16450809D01*
X16400009Y9849205D01*
X16450009Y10149206D02*
X16399210Y10250806D01*
X16500809D01*
X16450009Y10149206D01*
X16400009Y10249206D02*
X16349210Y10350806D01*
X16450809D01*
X16400009Y10249206D01*
X16450009Y10349206D02*
X16399210Y10450806D01*
X16500809D01*
X16450009Y10349206D01*
X16400009Y10449206D02*
X16349210Y10550806D01*
X16450809D01*
X16400009Y10449206D01*
X16450009Y10749206D02*
X16399210Y10850806D01*
X16500809D01*
X16450009Y10749206D01*
X16400009Y11049206D02*
X16349210Y11150806D01*
X16450809D01*
X16400009Y11049206D01*
X16500009Y9249205D02*
X16449210Y9350805D01*
X16550809D01*
X16500009Y9249205D01*
X16550009Y9549205D02*
X16499210Y9650805D01*
X16600809D01*
X16550009Y9549205D01*
X16500009Y9849205D02*
X16449210Y9950805D01*
X16550809D01*
X16500009Y9849205D01*
X16550009Y10149206D02*
X16499210Y10250806D01*
X16600809D01*
X16550009Y10149206D01*
X16500009Y10249206D02*
X16449210Y10350806D01*
X16550809D01*
X16500009Y10249206D01*
X16550009Y10349206D02*
X16499210Y10450806D01*
X16600809D01*
X16550009Y10349206D01*
X16500009Y10449206D02*
X16449210Y10550806D01*
X16550809D01*
X16500009Y10449206D01*
X16550009Y10749206D02*
X16499210Y10850806D01*
X16600809D01*
X16550009Y10749206D01*
X16500009Y11049206D02*
X16449210Y11150806D01*
X16550809D01*
X16500009Y11049206D01*
X16600009Y9249205D02*
X16549210Y9350805D01*
X16650809D01*
X16600009Y9249205D01*
Y9849205D02*
X16549210Y9950805D01*
X16650809D01*
X16600009Y9849205D01*
Y10249206D02*
X16549210Y10350806D01*
X16650809D01*
X16600009Y10249206D01*
Y10449206D02*
X16549210Y10550806D01*
X16650809D01*
X16600009Y10449206D01*
Y11049206D02*
X16549210Y11150806D01*
X16650809D01*
X16600009Y11049206D01*
X15339999Y11729200D02*
X15365401Y11754600D01*
X15390800D01*
X15365401Y11780000D01*
X15390800Y11805400D01*
X15365401D01*
X15339999Y11830800D01*
X15314600Y11805400D01*
X15289200D01*
X15314600Y11780000D01*
X15289200Y11754600D01*
X15314600D01*
X15339999Y11729200D01*
X15420000Y12059200D02*
X15445399Y12084600D01*
X15470799D01*
X15445399Y12110000D01*
X15470799Y12135400D01*
X15445399D01*
X15420000Y12160800D01*
X15394600Y12135400D01*
X15369200D01*
X15394600Y12110000D01*
X15369200Y12084600D01*
X15394600D01*
X15420000Y12059200D01*
X9980000Y11129200D02*
X10005400Y11154600D01*
X10030800D01*
X10005400Y11180000D01*
X10030800Y11205400D01*
X10005400D01*
X9980000Y11230800D01*
X9954600Y11205400D01*
X9929200D01*
X9954600Y11180000D01*
X9929200Y11154600D01*
X9954600D01*
X9980000Y11129200D01*
X9979980Y11249177D02*
X10005380Y11274577D01*
X10030780D01*
X10005380Y11299977D01*
X10030780Y11325377D01*
X10005380D01*
X9979980Y11350777D01*
X9954580Y11325377D01*
X9929180D01*
X9954580Y11299977D01*
X9929180Y11274577D01*
X9954580D01*
X9979980Y11249177D01*
X9989980Y10439179D02*
X10015380Y10464579D01*
X10040780D01*
X10015380Y10489979D01*
X10040780Y10515379D01*
X10015380D01*
X9989980Y10540779D01*
X9964580Y10515379D01*
X9939180D01*
X9964580Y10489979D01*
X9939180Y10464579D01*
X9964580D01*
X9989980Y10439179D01*
X10020000Y9689200D02*
X10045400Y9714600D01*
X10070800D01*
X10045400Y9740000D01*
X10070800Y9765400D01*
X10045400D01*
X10020000Y9790800D01*
X9994600Y9765400D01*
X9969200D01*
X9994600Y9740000D01*
X9969200Y9714600D01*
X9994600D01*
X10020000Y9689200D01*
X10007500Y8797700D02*
X10032900Y8823100D01*
X10058300D01*
X10032900Y8848500D01*
X10058300Y8873900D01*
X10032900D01*
X10007500Y8899300D01*
X9982100Y8873900D01*
X9956700D01*
X9982100Y8848500D01*
X9956700Y8823100D01*
X9982100D01*
X10007500Y8797700D01*
X9950000Y8799200D02*
X9975400Y8824600D01*
X10000800D01*
X9975400Y8850000D01*
X10000800Y8875400D01*
X9975400D01*
X9950000Y8900800D01*
X9924600Y8875400D01*
X9899200D01*
X9924600Y8850000D01*
X9899200Y8824600D01*
X9924600D01*
X9950000Y8799200D01*
X8439983Y12279175D02*
X8465383Y12304575D01*
X8490783D01*
X8465383Y12329975D01*
X8490783Y12355375D01*
X8465383D01*
X8439983Y12380775D01*
X8414583Y12355375D01*
X8389183D01*
X8414583Y12329975D01*
X8389183Y12304575D01*
X8414583D01*
X8439983Y12279175D01*
X7930000Y9079200D02*
X7955400Y9104600D01*
X7980800D01*
X7955400Y9130000D01*
X7980800Y9155400D01*
X7955400D01*
X7930000Y9180800D01*
X7904600Y9155400D01*
X7879200D01*
X7904600Y9130000D01*
X7879200Y9104600D01*
X7904600D01*
X7930000Y9079200D01*
Y9009200D02*
X7955400Y9034600D01*
X7980800D01*
X7955400Y9060000D01*
X7980800Y9085400D01*
X7955400D01*
X7930000Y9110800D01*
X7904600Y9085400D01*
X7879200D01*
X7904600Y9060000D01*
X7879200Y9034600D01*
X7904600D01*
X7930000Y9009200D01*
X9890000Y8799200D02*
X9915400Y8824600D01*
X9940800D01*
X9915400Y8850000D01*
X9940800Y8875400D01*
X9915400D01*
X9890000Y8900800D01*
X9864600Y8875400D01*
X9839200D01*
X9864600Y8850000D01*
X9839200Y8824600D01*
X9864600D01*
X9890000Y8799200D01*
X7930000Y8949200D02*
X7955400Y8974600D01*
X7980800D01*
X7955400Y9000000D01*
X7980800Y9025400D01*
X7955400D01*
X7930000Y9050800D01*
X7904600Y9025400D01*
X7879200D01*
X7904600Y9000000D01*
X7879200Y8974600D01*
X7904600D01*
X7930000Y8949200D01*
X11330000Y9675200D02*
X11279200Y9776800D01*
X11380800D01*
X11330000Y9675200D01*
X12270000Y9929200D02*
X12219200Y10030800D01*
X12320800D01*
X12270000Y9929200D01*
X13279973Y9759180D02*
X13305373Y9784580D01*
X13330772D01*
X13305373Y9809980D01*
X13330772Y9835380D01*
X13305373D01*
X13279973Y9860780D01*
X13254573Y9835380D01*
X13229173D01*
X13254573Y9809980D01*
X13229173Y9784580D01*
X13254573D01*
X13279973Y9759180D01*
X12700000Y9119200D02*
X12725400Y9144600D01*
X12750800D01*
X12725400Y9170000D01*
X12750800Y9195400D01*
X12725400D01*
X12700000Y9220800D01*
X12674600Y9195400D01*
X12649200D01*
X12674600Y9170000D01*
X12649200Y9144600D01*
X12674600D01*
X12700000Y9119200D01*
D186*
X15227299Y8064500D02*
G03*
X15227299Y8064500I-50800J0D01*
G01*
X14973300D02*
G03*
X14973300Y8064500I-50800J0D01*
G01*
X14719299D02*
G03*
X14719299Y8064500I-50800J0D01*
G01*
X14465300D02*
G03*
X14465300Y8064500I-50800J0D01*
G01*
X14211301D02*
G03*
X14211301Y8064500I-50800J0D01*
G01*
X13957300D02*
G03*
X13957300Y8064500I-50800J0D01*
G01*
X13703300D02*
G03*
X13703300Y8064500I-50800J0D01*
G01*
X13449300D02*
G03*
X13449300Y8064500I-50800J0D01*
G01*
X13195300D02*
G03*
X13195300Y8064500I-50800J0D01*
G01*
X12941299D02*
G03*
X12941299Y8064500I-50800J0D01*
G01*
X12687300D02*
G03*
X12687300Y8064500I-50800J0D01*
G01*
X12433300D02*
G03*
X12433300Y8064500I-50800J0D01*
G01*
X12179300D02*
G03*
X12179300Y8064500I-50800J0D01*
G01*
X11925300D02*
G03*
X11925300Y8064500I-50800J0D01*
G01*
X11671300D02*
G03*
X11671300Y8064500I-50800J0D01*
G01*
X11417300D02*
G03*
X11417300Y8064500I-50800J0D01*
G01*
X11163300D02*
G03*
X11163300Y8064500I-50800J0D01*
G01*
X10909300D02*
G03*
X10909300Y8064500I-50800J0D01*
G01*
X10655300D02*
G03*
X10655300Y8064500I-50800J0D01*
G01*
X10401300D02*
G03*
X10401300Y8064500I-50800J0D01*
G01*
X10147300D02*
G03*
X10147300Y8064500I-50800J0D01*
G01*
X9893300D02*
G03*
X9893300Y8064500I-50800J0D01*
G01*
X9639300D02*
G03*
X9639300Y8064500I-50800J0D01*
G01*
X15227299Y7810500D02*
G03*
X15227299Y7810500I-50800J0D01*
G01*
X14973300D02*
G03*
X14973300Y7810500I-50800J0D01*
G01*
X14719299D02*
G03*
X14719299Y7810500I-50800J0D01*
G01*
X14465300D02*
G03*
X14465300Y7810500I-50800J0D01*
G01*
X14211301D02*
G03*
X14211301Y7810500I-50800J0D01*
G01*
X13957300D02*
G03*
X13957300Y7810500I-50800J0D01*
G01*
X13703300D02*
G03*
X13703300Y7810500I-50800J0D01*
G01*
X13449300D02*
G03*
X13449300Y7810500I-50800J0D01*
G01*
X13195300D02*
G03*
X13195300Y7810500I-50800J0D01*
G01*
X12941299D02*
G03*
X12941299Y7810500I-50800J0D01*
G01*
X12687300D02*
G03*
X12687300Y7810500I-50800J0D01*
G01*
X12433300D02*
G03*
X12433300Y7810500I-50800J0D01*
G01*
X12179300D02*
G03*
X12179300Y7810500I-50800J0D01*
G01*
X11925300D02*
G03*
X11925300Y7810500I-50800J0D01*
G01*
X11671300D02*
G03*
X11671300Y7810500I-50800J0D01*
G01*
X11417300D02*
G03*
X11417300Y7810500I-50800J0D01*
G01*
X11163300D02*
G03*
X11163300Y7810500I-50800J0D01*
G01*
X10909300D02*
G03*
X10909300Y7810500I-50800J0D01*
G01*
X10655300D02*
G03*
X10655300Y7810500I-50800J0D01*
G01*
X10401300D02*
G03*
X10401300Y7810500I-50800J0D01*
G01*
X10147300D02*
G03*
X10147300Y7810500I-50800J0D01*
G01*
X9893300D02*
G03*
X9893300Y7810500I-50800J0D01*
G01*
X9639300D02*
G03*
X9639300Y7810500I-50800J0D01*
G01*
Y12636500D02*
G03*
X9639300Y12636500I-50800J0D01*
G01*
X9893300D02*
G03*
X9893300Y12636500I-50800J0D01*
G01*
X10147300D02*
G03*
X10147300Y12636500I-50800J0D01*
G01*
X10401300D02*
G03*
X10401300Y12636500I-50800J0D01*
G01*
X10655300D02*
G03*
X10655300Y12636500I-50800J0D01*
G01*
X10909300D02*
G03*
X10909300Y12636500I-50800J0D01*
G01*
X11163300D02*
G03*
X11163300Y12636500I-50800J0D01*
G01*
X11417300D02*
G03*
X11417300Y12636500I-50800J0D01*
G01*
X11671300D02*
G03*
X11671300Y12636500I-50800J0D01*
G01*
X11925300D02*
G03*
X11925300Y12636500I-50800J0D01*
G01*
X12179300D02*
G03*
X12179300Y12636500I-50800J0D01*
G01*
X12433300D02*
G03*
X12433300Y12636500I-50800J0D01*
G01*
X12687300D02*
G03*
X12687300Y12636500I-50800J0D01*
G01*
X12941299D02*
G03*
X12941299Y12636500I-50800J0D01*
G01*
X13195300D02*
G03*
X13195300Y12636500I-50800J0D01*
G01*
X13449300D02*
G03*
X13449300Y12636500I-50800J0D01*
G01*
X13703300D02*
G03*
X13703300Y12636500I-50800J0D01*
G01*
X13957300D02*
G03*
X13957300Y12636500I-50800J0D01*
G01*
X14211301D02*
G03*
X14211301Y12636500I-50800J0D01*
G01*
X14465300D02*
G03*
X14465300Y12636500I-50800J0D01*
G01*
X14719299D02*
G03*
X14719299Y12636500I-50800J0D01*
G01*
X14973300D02*
G03*
X14973300Y12636500I-50800J0D01*
G01*
X15227299D02*
G03*
X15227299Y12636500I-50800J0D01*
G01*
X9639300Y12890500D02*
G03*
X9639300Y12890500I-50800J0D01*
G01*
X9893300D02*
G03*
X9893300Y12890500I-50800J0D01*
G01*
X10147300D02*
G03*
X10147300Y12890500I-50800J0D01*
G01*
X10401300D02*
G03*
X10401300Y12890500I-50800J0D01*
G01*
X10655300D02*
G03*
X10655300Y12890500I-50800J0D01*
G01*
X10909300D02*
G03*
X10909300Y12890500I-50800J0D01*
G01*
X11163300D02*
G03*
X11163300Y12890500I-50800J0D01*
G01*
X11417300D02*
G03*
X11417300Y12890500I-50800J0D01*
G01*
X11671300D02*
G03*
X11671300Y12890500I-50800J0D01*
G01*
X11925300D02*
G03*
X11925300Y12890500I-50800J0D01*
G01*
X12179300D02*
G03*
X12179300Y12890500I-50800J0D01*
G01*
X12433300D02*
G03*
X12433300Y12890500I-50800J0D01*
G01*
X12687300D02*
G03*
X12687300Y12890500I-50800J0D01*
G01*
X12941299D02*
G03*
X12941299Y12890500I-50800J0D01*
G01*
X13195300D02*
G03*
X13195300Y12890500I-50800J0D01*
G01*
X13449300D02*
G03*
X13449300Y12890500I-50800J0D01*
G01*
X13703300D02*
G03*
X13703300Y12890500I-50800J0D01*
G01*
X13957300D02*
G03*
X13957300Y12890500I-50800J0D01*
G01*
X14211301D02*
G03*
X14211301Y12890500I-50800J0D01*
G01*
X14465300D02*
G03*
X14465300Y12890500I-50800J0D01*
G01*
X14719299D02*
G03*
X14719299Y12890500I-50800J0D01*
G01*
X14973300D02*
G03*
X14973300Y12890500I-50800J0D01*
G01*
X15227299D02*
G03*
X15227299Y12890500I-50800J0D01*
G01*
%TF.MD5,732eb236932713c9fb39e40e8f579adc*%
M02*
