G04 Layer_Color=8388736*
%FSLAX45Y45*%
%MOMM*%
%TF.FileFunction,Soldermask,Top*%
%TF.Part,Single*%
G01*
G75*
%TA.AperFunction,Conductor*%
%ADD59C,0.35000*%
%ADD60C,0.12500*%
%ADD61C,0.20000*%
%TA.AperFunction,NonConductor*%
%ADD70C,0.20000*%
%ADD71C,0.12000*%
%TA.AperFunction,SMDPad,CuDef*%
%ADD98R,0.67000X0.67000*%
%ADD103R,0.70000X0.60000*%
%ADD104R,0.67000X0.67000*%
%ADD106R,1.05000X0.85000*%
%ADD108R,0.85000X1.05000*%
%ADD109R,0.60000X0.70000*%
%ADD110O,1.55000X0.50000*%
%ADD112R,0.80000X1.05000*%
%ADD115O,1.65000X0.54900*%
%ADD116R,2.75000X1.10000*%
%ADD118R,4.10000X1.65000*%
%ADD120C,0.75000*%
%TA.AperFunction,ComponentPad*%
%ADD121C,1.67400*%
%ADD122R,1.67400X1.67400*%
%ADD123C,1.55000*%
%ADD124R,1.55000X1.55000*%
%TA.AperFunction,SMDPad,CuDef*%
%ADD137R,4.25000X1.15000*%
%ADD138R,1.15000X4.25000*%
%ADD139R,3.95000X1.15000*%
%ADD140R,1.15000X3.95000*%
%ADD141R,0.95000X0.95000*%
%ADD142R,1.45000X1.45000*%
%ADD143R,1.05000X1.75000*%
%ADD144R,1.05000X1.15000*%
%ADD145R,1.50000X1.10000*%
%ADD146O,0.54900X1.65000*%
%ADD147R,0.91200X1.15000*%
%ADD148O,1.70000X0.40000*%
%ADD149O,0.40000X1.70000*%
%ADD150R,0.80000X0.65000*%
%ADD151R,1.42000X0.81000*%
%ADD152R,1.17000X0.81000*%
%ADD153R,1.45000X1.45000*%
%ADD154R,1.75000X1.05000*%
%ADD155O,2.05000X0.75000*%
%ADD156R,0.91200X1.29300*%
%ADD157R,1.29300X0.91200*%
%ADD158R,1.51000X1.61000*%
%ADD159R,0.90000X0.40000*%
%ADD160O,0.95000X0.40000*%
%ADD161O,0.40000X0.95000*%
%ADD162R,2.60000X2.60000*%
%ADD163R,0.95000X0.95000*%
%ADD164O,1.65000X0.54999*%
%ADD165R,1.13000X2.23000*%
%ADD166R,0.65000X0.80000*%
%ADD167R,1.05000X0.80000*%
%ADD168R,1.42000X0.91000*%
%ADD169R,0.75000X0.50000*%
%ADD170R,4.40000X1.65000*%
%ADD171R,0.65000X1.15000*%
%ADD172R,2.75000X0.75000*%
%ADD173R,0.75000X1.65000*%
%TA.AperFunction,Conductor*%
%ADD174R,3.96000X4.06000*%
G36*
X9180693Y9449817D02*
X9161991D01*
Y9450372D01*
X9164398Y9463704D01*
X9161806Y9461112D01*
X9158843Y9458705D01*
X9155881Y9456668D01*
X9152733Y9455001D01*
X9149585Y9453520D01*
X9146437Y9452224D01*
X9143474Y9451298D01*
X9140512Y9450372D01*
X9137734Y9449817D01*
X9135142Y9449261D01*
X9132735Y9449076D01*
X9130698Y9448706D01*
X9129032D01*
X9127921Y9448521D01*
X9126810D01*
X9122921Y9448706D01*
X9119403Y9449261D01*
X9116255Y9450002D01*
X9113478Y9450928D01*
X9111256Y9451668D01*
X9109589Y9452409D01*
X9108478Y9452965D01*
X9108293Y9453150D01*
X9108108D01*
X9105145Y9455001D01*
X9102738Y9457038D01*
X9100516Y9459260D01*
X9098849Y9461297D01*
X9097368Y9463149D01*
X9096257Y9464630D01*
X9095702Y9465556D01*
X9095516Y9465926D01*
X9094035Y9469074D01*
X9092924Y9472407D01*
X9092183Y9475555D01*
X9091628Y9478517D01*
X9091258Y9481110D01*
X9091072Y9483147D01*
Y9483887D01*
Y9484443D01*
Y9484813D01*
Y9484998D01*
X9091258Y9489072D01*
X9091443Y9490924D01*
X9091813Y9492775D01*
X9091998Y9494257D01*
X9092183Y9495553D01*
X9092369Y9496293D01*
Y9496664D01*
X9108848Y9579433D01*
X9127735D01*
X9127550Y9579248D01*
X9111626Y9499441D01*
X9111256Y9497034D01*
X9110885Y9494812D01*
X9110700Y9492775D01*
X9110515Y9491109D01*
X9110330Y9489627D01*
Y9488516D01*
Y9487776D01*
Y9487591D01*
X9110515Y9483887D01*
X9111256Y9480554D01*
X9112181Y9477777D01*
X9113478Y9475370D01*
X9114589Y9473518D01*
X9115514Y9472222D01*
X9116255Y9471481D01*
X9116440Y9471111D01*
X9119033Y9469259D01*
X9121810Y9467778D01*
X9124588Y9466852D01*
X9127365Y9466111D01*
X9129957Y9465741D01*
X9131809Y9465556D01*
X9132550Y9465371D01*
X9133661D01*
X9137549Y9465556D01*
X9139216Y9465926D01*
X9140882Y9466111D01*
X9142178Y9466482D01*
X9143289Y9466667D01*
X9144030Y9466852D01*
X9144215D01*
X9147548Y9467963D01*
X9150511Y9469444D01*
X9153103Y9470926D01*
X9155325Y9472592D01*
X9157177Y9473888D01*
X9158658Y9474999D01*
X9159399Y9475740D01*
X9159769Y9476110D01*
X9162732Y9479814D01*
X9165324Y9483702D01*
X9167361Y9487776D01*
X9168842Y9491479D01*
X9169953Y9494997D01*
X9170509Y9496479D01*
X9170879Y9497775D01*
X9171064Y9498701D01*
X9171249Y9499441D01*
X9171435Y9499997D01*
Y9500182D01*
X9187174Y9579433D01*
X9206431D01*
X9180693Y9449817D01*
D02*
G37*
G36*
X9466404Y9580914D02*
X9470478Y9580359D01*
X9473996Y9579618D01*
X9477144Y9578877D01*
X9479736Y9577952D01*
X9481588Y9577211D01*
X9482328Y9576841D01*
X9482884Y9576655D01*
X9483069Y9576470D01*
X9483254D01*
X9486587Y9574433D01*
X9489550Y9572211D01*
X9492327Y9569804D01*
X9494734Y9567397D01*
X9496586Y9565175D01*
X9498067Y9563509D01*
X9498623Y9562768D01*
X9498993Y9562213D01*
X9499364Y9562027D01*
Y9561842D01*
X9499549Y9561657D01*
X9485291Y9549621D01*
X9485106Y9550177D01*
X9483069Y9552769D01*
X9481217Y9554991D01*
X9479366Y9556843D01*
X9477699Y9558324D01*
X9476218Y9559435D01*
X9475107Y9560361D01*
X9474366Y9560731D01*
X9474181Y9560916D01*
X9471959Y9562027D01*
X9469737Y9562768D01*
X9467330Y9563509D01*
X9465108Y9563879D01*
X9463071Y9564064D01*
X9461590Y9564249D01*
X9460108D01*
X9457146Y9564064D01*
X9454183Y9563694D01*
X9451406Y9563138D01*
X9448813Y9562398D01*
X9443999Y9560361D01*
X9441777Y9559250D01*
X9439925Y9558139D01*
X9438074Y9556843D01*
X9436407Y9555732D01*
X9435111Y9554806D01*
X9434000Y9553880D01*
X9433074Y9552954D01*
X9432333Y9552399D01*
X9431963Y9552028D01*
X9431778Y9551843D01*
X9429186Y9548881D01*
X9426964Y9545918D01*
X9425112Y9542770D01*
X9423445Y9539807D01*
X9422149Y9537215D01*
X9421038Y9535178D01*
X9420668Y9534438D01*
X9420483Y9533882D01*
X9420298Y9533512D01*
Y9533327D01*
X9419001Y9530179D01*
X9417890Y9526846D01*
X9417150Y9523698D01*
X9416224Y9520921D01*
X9415668Y9518328D01*
X9415298Y9516291D01*
X9415113Y9515551D01*
X9414928Y9515180D01*
Y9514810D01*
Y9514625D01*
X9414187Y9510736D01*
X9413817Y9507218D01*
X9413447Y9503885D01*
X9413076Y9501108D01*
Y9498886D01*
X9412891Y9497034D01*
Y9495923D01*
Y9495738D01*
Y9495553D01*
X9413076Y9492775D01*
X9413261Y9489998D01*
X9414372Y9485369D01*
X9415668Y9481295D01*
X9417335Y9477962D01*
X9419001Y9475185D01*
X9419742Y9474259D01*
X9420483Y9473333D01*
X9421038Y9472777D01*
X9421409Y9472222D01*
X9421594Y9472037D01*
X9421779Y9471852D01*
X9424742Y9469630D01*
X9427889Y9468148D01*
X9431037Y9467037D01*
X9434000Y9466111D01*
X9436592Y9465741D01*
X9438814Y9465556D01*
X9439555Y9465371D01*
X9440666D01*
X9443999Y9465556D01*
X9446962Y9465926D01*
X9449739Y9466482D01*
X9452146Y9467037D01*
X9453998Y9467593D01*
X9455479Y9468148D01*
X9456405Y9468519D01*
X9456775Y9468704D01*
X9459553Y9470185D01*
X9462330Y9471852D01*
X9464737Y9473703D01*
X9467145Y9475555D01*
X9468996Y9477221D01*
X9470478Y9478703D01*
X9471403Y9479628D01*
X9471774Y9479999D01*
X9471959Y9480184D01*
Y9479999D01*
X9482884Y9466667D01*
X9482699Y9466482D01*
X9479366Y9463334D01*
X9475847Y9460742D01*
X9472700Y9458520D01*
X9469552Y9456483D01*
X9466774Y9455001D01*
X9464737Y9454076D01*
X9463997Y9453705D01*
X9463441Y9453335D01*
X9463071Y9453150D01*
X9462886D01*
X9458812Y9451668D01*
X9454553Y9450557D01*
X9450665Y9449632D01*
X9447147Y9449076D01*
X9443999Y9448706D01*
X9442703D01*
X9441592Y9448521D01*
X9439555D01*
X9434555Y9448706D01*
X9429926Y9449446D01*
X9425853Y9450372D01*
X9422149Y9451298D01*
X9419372Y9452409D01*
X9418076Y9452779D01*
X9417150Y9453150D01*
X9416409Y9453520D01*
X9415854Y9453890D01*
X9415483Y9454076D01*
X9415298D01*
X9411780Y9456298D01*
X9408632Y9458890D01*
X9405855Y9461667D01*
X9403633Y9464260D01*
X9401781Y9466482D01*
X9400670Y9468519D01*
X9400115Y9469259D01*
X9399744Y9469815D01*
X9399559Y9470000D01*
Y9470185D01*
X9397707Y9474259D01*
X9396411Y9478517D01*
X9395300Y9482591D01*
X9394745Y9486480D01*
X9394374Y9489998D01*
X9394189Y9491294D01*
Y9492590D01*
X9394004Y9493701D01*
Y9494442D01*
Y9494812D01*
Y9494997D01*
X9394189Y9498701D01*
X9394374Y9502404D01*
X9394745Y9505737D01*
X9395115Y9508700D01*
X9395485Y9511292D01*
X9395671Y9513329D01*
X9395856Y9514069D01*
X9396041Y9514625D01*
Y9514810D01*
Y9514995D01*
X9397337Y9520735D01*
X9398633Y9526105D01*
X9400300Y9531105D01*
X9401966Y9535919D01*
X9404003Y9540178D01*
X9405855Y9544251D01*
X9407706Y9547955D01*
X9409743Y9551103D01*
X9411595Y9554065D01*
X9413261Y9556658D01*
X9414928Y9558694D01*
X9416224Y9560546D01*
X9417335Y9561842D01*
X9418261Y9562953D01*
X9418816Y9563509D01*
X9419001Y9563694D01*
X9422334Y9566842D01*
X9425853Y9569434D01*
X9429371Y9571841D01*
X9433074Y9573693D01*
X9436592Y9575359D01*
X9440110Y9576841D01*
X9443629Y9577952D01*
X9446962Y9578877D01*
X9450109Y9579618D01*
X9452887Y9580174D01*
X9455479Y9580544D01*
X9457701Y9580914D01*
X9459553D01*
X9460849Y9581099D01*
X9461960D01*
X9466404Y9580914D01*
D02*
G37*
G36*
X9550099Y9566471D02*
X9552876Y9569064D01*
X9555654Y9571286D01*
X9558802Y9573322D01*
X9561764Y9574989D01*
X9564912Y9576285D01*
X9568060Y9577581D01*
X9571023Y9578507D01*
X9573985Y9579248D01*
X9576578Y9579803D01*
X9579170Y9580359D01*
X9581392Y9580729D01*
X9583244Y9580914D01*
X9584910Y9581099D01*
X9587132D01*
X9591021Y9580914D01*
X9594539Y9580359D01*
X9597687Y9579618D01*
X9600464Y9578877D01*
X9602686Y9577952D01*
X9604353Y9577211D01*
X9605464Y9576655D01*
X9605834Y9576470D01*
X9608797Y9574619D01*
X9611389Y9572582D01*
X9613611Y9570360D01*
X9615277Y9568323D01*
X9616759Y9566471D01*
X9617870Y9564805D01*
X9618425Y9563879D01*
X9618610Y9563694D01*
Y9563509D01*
X9620092Y9560361D01*
X9621203Y9557028D01*
X9622129Y9553880D01*
X9622684Y9550917D01*
X9623054Y9548325D01*
X9623240Y9546288D01*
Y9545548D01*
Y9544992D01*
Y9544622D01*
Y9544437D01*
Y9542400D01*
X9623054Y9540178D01*
X9622869Y9538141D01*
X9622499Y9536104D01*
X9622314Y9534252D01*
X9621943Y9532771D01*
X9621758Y9531845D01*
Y9531475D01*
X9605093Y9449817D01*
X9586392D01*
X9602316Y9529623D01*
X9602871Y9532401D01*
X9603242Y9534993D01*
X9603427Y9537030D01*
X9603612Y9538696D01*
X9603797Y9539993D01*
Y9540918D01*
Y9541474D01*
Y9541659D01*
X9603612Y9545362D01*
X9602871Y9548695D01*
X9601760Y9551473D01*
X9600649Y9553880D01*
X9599538Y9555732D01*
X9598427Y9557028D01*
X9597687Y9557954D01*
X9597502Y9558139D01*
X9595094Y9560176D01*
X9592317Y9561657D01*
X9589539Y9562768D01*
X9586762Y9563509D01*
X9584355Y9563879D01*
X9582503Y9564249D01*
X9580651D01*
X9576763Y9564064D01*
X9574911Y9563879D01*
X9573245Y9563509D01*
X9571949Y9563324D01*
X9570838Y9562953D01*
X9570097Y9562768D01*
X9569912D01*
X9566579Y9561472D01*
X9563616Y9560176D01*
X9561024Y9558509D01*
X9558802Y9556843D01*
X9556950Y9555547D01*
X9555469Y9554250D01*
X9554728Y9553510D01*
X9554358Y9553139D01*
X9551395Y9549621D01*
X9548803Y9545548D01*
X9546766Y9541659D01*
X9545100Y9537771D01*
X9543989Y9534438D01*
X9543433Y9532956D01*
X9543063Y9531660D01*
X9542878Y9530549D01*
X9542692Y9529808D01*
X9542507Y9529253D01*
Y9529068D01*
X9526768Y9449817D01*
X9507881D01*
X9546025Y9638686D01*
X9564727D01*
X9550099Y9566471D01*
D02*
G37*
G36*
X9075704Y9563694D02*
X8989602Y9466667D01*
X9057743D01*
X9054595Y9449817D01*
X8963308D01*
X8966456Y9465926D01*
X9052188Y9562768D01*
X8987750D01*
Y9563138D01*
X8991083Y9579433D01*
X9078852D01*
X9075704Y9563694D01*
D02*
G37*
G36*
X9349749Y9449817D02*
X9331048D01*
Y9450372D01*
X9356971Y9579433D01*
X9375673D01*
X9349749Y9449817D01*
D02*
G37*
G36*
X9199209Y9615170D02*
X9180323D01*
X9185137Y9638686D01*
X9204024D01*
X9199209Y9615170D01*
D02*
G37*
G36*
X9382894D02*
X9364007D01*
X9368821Y9638686D01*
X9387708D01*
X9382894Y9615170D01*
D02*
G37*
G36*
X9148844D02*
X9129957D01*
X9134772Y9638686D01*
X9153659D01*
X9148844Y9615170D01*
D02*
G37*
G36*
X9303458Y9580914D02*
X9306421Y9580544D01*
X9309383Y9579988D01*
X9311976Y9579248D01*
X9314568Y9578322D01*
X9316975Y9577211D01*
X9319012Y9576100D01*
X9321049Y9574989D01*
X9322715Y9573878D01*
X9324196Y9572767D01*
X9325493Y9571656D01*
X9326604Y9570730D01*
X9327344Y9569989D01*
X9327900Y9569434D01*
X9328270Y9569064D01*
X9328455Y9568878D01*
X9328640Y9568693D01*
X9313272Y9555176D01*
Y9555361D01*
X9311790Y9556843D01*
X9310494Y9558324D01*
X9307346Y9560546D01*
X9304384Y9562027D01*
X9301421Y9563138D01*
X9298829Y9563879D01*
X9296792Y9564064D01*
X9296051Y9564249D01*
X9294940D01*
X9291792Y9564064D01*
X9288830Y9563509D01*
X9286052Y9562768D01*
X9283645Y9562027D01*
X9281608Y9561287D01*
X9279942Y9560546D01*
X9279016Y9559991D01*
X9278646Y9559805D01*
X9275868Y9557954D01*
X9273276Y9555917D01*
X9271054Y9553880D01*
X9269017Y9551843D01*
X9267536Y9549992D01*
X9266240Y9548510D01*
X9265499Y9547584D01*
X9265314Y9547399D01*
Y9547214D01*
X9263462Y9544066D01*
X9261796Y9540918D01*
X9260499Y9537956D01*
X9259388Y9535178D01*
X9258648Y9532586D01*
X9258092Y9530734D01*
X9257907Y9529994D01*
Y9529438D01*
X9257722Y9529253D01*
Y9529068D01*
X9241983Y9449817D01*
X9222911D01*
X9223281Y9450372D01*
X9248834Y9579433D01*
X9267536D01*
X9267351Y9579248D01*
X9264573Y9564620D01*
X9266980Y9567397D01*
X9269573Y9569804D01*
X9272165Y9572026D01*
X9274572Y9573693D01*
X9276609Y9574989D01*
X9278460Y9576100D01*
X9279571Y9576655D01*
X9279757Y9576841D01*
X9279942D01*
X9283460Y9578322D01*
X9286978Y9579248D01*
X9290311Y9579988D01*
X9293459Y9580544D01*
X9296236Y9580914D01*
X9298273Y9581099D01*
X9300125D01*
X9303458Y9580914D01*
D02*
G37*
G36*
X8913683Y9449817D02*
X8854430D01*
X8869058Y9522957D01*
X8826655D01*
X8812027Y9449817D01*
X8752959D01*
X8781475Y9591469D01*
X8731850D01*
X8703520Y9449817D01*
X8644267D01*
X8672783Y9591469D01*
X8537982D01*
X8532797Y9565546D01*
X8617788D01*
X8609271Y9522957D01*
X8524279D01*
X8519095Y9497034D01*
X8604271D01*
X8594642Y9449817D01*
X8450768D01*
X8488727Y9638686D01*
X8849986D01*
X8834988Y9565546D01*
X8877576D01*
X8892389Y9638686D01*
X8951642D01*
X8913683Y9449817D01*
D02*
G37*
D59*
X15695955Y10478193D02*
X15730956Y10513193D01*
X14848454Y11176500D02*
Y11296693D01*
X15692525Y10196807D02*
X15780000Y10109331D01*
X15695955Y10428193D02*
Y10478193D01*
X14847501Y11303500D02*
Y11428008D01*
X15642500Y11320000D02*
X15750000D01*
X15730956Y10513193D02*
Y10560956D01*
X15819215Y10649215D01*
Y10910784D01*
X15692525Y10196807D02*
Y10246807D01*
X15780000Y9800000D02*
Y10109331D01*
X15600000Y11320000D02*
X15642500D01*
X15750000D02*
X15830000Y11400000D01*
D60*
X15543111Y10346250D02*
X15645505Y10448644D01*
X15800000Y9320000D02*
X16110001D01*
X14719807Y9348750D02*
X14910580D01*
X15039999Y10400000D02*
X15093750Y10346250D01*
X15039999Y10278431D02*
X15086569Y10325000D01*
X14978275Y10216705D02*
X15039999Y10278431D01*
X14978275Y10134396D02*
Y10216705D01*
X15810001Y9270000D02*
X15830000Y9250000D01*
X15657526Y9211806D02*
X15791808D01*
X15361180Y9700056D02*
X15376680Y9715557D01*
X15158826Y9700056D02*
X15361180D01*
X15628773Y9183056D02*
X15657526Y9211806D01*
X14639999Y9390000D02*
X14681250Y9348750D01*
X14291251Y9241251D02*
Y9281250D01*
X14280000Y9230000D02*
X14291251Y9241251D01*
X14122501Y11342500D02*
Y11527500D01*
X14580000Y11053765D02*
Y11100000D01*
Y11053765D02*
X14612515Y11021250D01*
X14718750D01*
X15091273Y10159999D02*
X15143774Y10212500D01*
X15091273Y9767607D02*
X15158826Y9700056D01*
X16202499Y8652500D02*
X16450000D01*
X16160001Y8610000D02*
X16202499Y8652500D01*
X16135356Y8610000D02*
X16160001D01*
X16105000Y8640355D02*
X16135356Y8610000D01*
X15739999Y8914687D02*
X15769687Y8885000D01*
X15739999Y8914687D02*
Y8990000D01*
X15703194Y9026806D02*
X15739999Y8990000D01*
X15692525Y9026806D02*
X15703194D01*
X16202499Y8447500D02*
X16450000D01*
X16055000Y8595000D02*
X16202499Y8447500D01*
X16055000Y8595000D02*
Y8769645D01*
X15769687Y8885000D02*
X16010355D01*
X16105000Y8790355D01*
Y8640355D02*
Y8790355D01*
X15989645Y8835000D02*
X16055000Y8769645D01*
X15748976Y8835000D02*
X15989645D01*
X15723976Y8860000D02*
X15748976Y8835000D01*
X15596265Y8860000D02*
X15723976D01*
X15548775Y8633775D02*
Y8790910D01*
X15450000Y8535000D02*
X15548775Y8633775D01*
X16202499Y7452500D02*
X16450000D01*
X15771909Y7378750D02*
X16128751D01*
X15418750Y7731909D02*
X15771909Y7378750D01*
X15418750Y7731909D02*
Y8438750D01*
X15450000Y8470000D01*
Y8535000D01*
X16202499Y7247500D02*
X16439999D01*
X16128751Y7321250D02*
X16202499Y7247500D01*
X16128751Y7378750D02*
X16202499Y7452500D01*
X15748091Y7321250D02*
X16128751D01*
X15361250Y7708092D02*
X15748091Y7321250D01*
X15361250Y7708092D02*
Y8420000D01*
X15276250Y8505000D02*
X15361250Y8420000D01*
X15264999Y8505000D02*
X15276250D01*
X16039645Y11905000D02*
X16055000Y11920356D01*
Y12120355D01*
X16187144Y12252500D01*
X16450000D01*
X15710001Y11675000D02*
Y11690000D01*
X16202499Y12047500D02*
X16452499D01*
X16139999Y12110000D02*
X16202499Y12047500D01*
X16115356Y12110000D02*
X16139999D01*
X16105000Y12099645D02*
X16115356Y12110000D01*
X16105000Y11899645D02*
Y12099645D01*
X16060355Y11855000D02*
X16105000Y11899645D01*
X15830354Y11855000D02*
X16060355D01*
X15757500Y11782144D02*
X15830354Y11855000D01*
X15757500Y11749320D02*
Y11782144D01*
X15809645Y11905000D02*
X16039645D01*
X14877249Y11176500D02*
X14932500Y11121250D01*
X14520000Y11160000D02*
X14580000Y11100000D01*
X14520000Y11160000D02*
Y11292500D01*
X14493750Y11318750D02*
X14520000Y11292500D01*
X14146249Y11318750D02*
X14493750D01*
X14122501Y11342500D02*
X14146249Y11318750D01*
X14932500Y11005000D02*
Y11121250D01*
X14718750Y11021250D02*
X14739742Y11000258D01*
X14460001Y11010000D02*
Y11090000D01*
Y11010000D02*
X14525000Y10945000D01*
X14937500D01*
X13907500Y11215000D02*
X14335001D01*
X14460001Y11090000D01*
X13877499Y11245000D02*
X13907500Y11215000D01*
X13877499Y11245000D02*
Y11272500D01*
X14997501Y10442500D02*
Y10885000D01*
X14937500Y10945000D02*
X14997501Y10885000D01*
Y10442500D02*
X15039999Y10400000D01*
X15657526Y9211806D02*
Y9262476D01*
X15376680Y9715557D02*
X15474443D01*
X15505000Y9364331D02*
Y9685000D01*
X15474443Y9715557D02*
X15505000Y9685000D01*
X15091273Y9767607D02*
Y10159999D01*
X15543430Y10325000D02*
X15642075Y10226356D01*
X14514999Y9450000D02*
Y9625000D01*
X14622556Y9732556D01*
X14218750Y9328091D02*
X14325659Y9435000D01*
X14500000D02*
X14514999Y9450000D01*
X14325659Y9435000D02*
X14460001D01*
X14500000D01*
X14196249Y9283750D02*
X14218750Y9306250D01*
Y9328091D01*
X14196249Y9256250D02*
Y9283750D01*
X14170000Y9230000D02*
X14196249Y9256250D01*
X14170000Y9135000D02*
Y9230000D01*
X14291251Y9281250D02*
X14332500Y9322500D01*
X14445000D01*
X14460001Y9337500D01*
Y9337500D02*
X14512500Y9390000D01*
X14639999D01*
X14460001Y9337500D02*
Y9435000D01*
X14681250Y9348750D02*
X14719807D01*
X14685001Y9313943D02*
X14719807Y9348750D01*
X14685001Y9257500D02*
Y9313943D01*
Y9257500D02*
X14701270Y9241231D01*
X14910580Y9348750D02*
X14962257Y9297073D01*
X14767500Y9200000D02*
X14784444Y9183056D01*
X14767500Y9200000D02*
Y9225000D01*
X14962257Y9183298D02*
Y9297073D01*
X14784444Y9183056D02*
X14962500D01*
X15628773D01*
X15607500Y9312500D02*
X15657526Y9262476D01*
X15505000Y9364331D02*
X15556831Y9312500D01*
X15607500D01*
X16183000Y9473000D02*
X16452499D01*
X16139999Y9430000D02*
X16183000Y9473000D01*
X16110001Y9320000D02*
X16139999Y9350000D01*
Y9430000D01*
X15830000Y9250000D02*
Y9290000D01*
X15800000Y9320000D02*
X15830000Y9290000D01*
Y9905000D02*
X15925000Y10000000D01*
X16237500D01*
X16264500Y10027000D01*
D61*
X16640001Y13070000D02*
Y13247501D01*
X16202499Y13452499D02*
X16640001D01*
X15313181Y11875000D02*
X15364999D01*
X16637502Y8272500D02*
Y8447500D01*
X16320000Y8884000D02*
X16460001D01*
X16320000Y8820962D02*
Y8884000D01*
X16630000Y11870000D02*
Y12047500D01*
X16452499Y11873000D02*
Y12047500D01*
X16637502Y8272500D02*
X16640001Y8270000D01*
X16637502Y8777500D02*
X16640001Y8780000D01*
X16460001Y13489999D02*
Y13619501D01*
X16470000Y13247501D02*
X16640001D01*
X15430000Y12120000D02*
Y12200000D01*
X15420000Y12110000D02*
X15430000Y12120000D01*
X15339999Y11780000D02*
Y11807500D01*
Y11780000D02*
X15367500Y11807500D01*
X15339999D02*
X15367500D01*
X15271538D02*
X15339999D01*
X15329800Y12244580D02*
Y12851019D01*
X15863980Y13385201D01*
X16135199D01*
X15430000Y12200000D02*
X15495000D01*
X16460001Y8884000D02*
X16460001Y8884000D01*
X16227000Y10673000D02*
X16452499D01*
X15570000Y11350000D02*
X15600000Y11320000D01*
X15520000Y11350000D02*
X15570000D01*
X15520000Y11340000D02*
Y11350000D01*
X15489999Y11310000D02*
X15520000Y11340000D01*
X15489999Y11217225D02*
Y11310000D01*
Y11217225D02*
X15518608Y11188617D01*
X15894890Y13305110D02*
X16154890D01*
X16212500Y13247501D02*
X16467500D01*
X16470000Y13210001D02*
Y13247501D01*
Y13090498D02*
Y13210001D01*
X15400200Y12810420D02*
X15894890Y13305110D01*
X15415620Y12200000D02*
X15430000D01*
X15400200Y12215420D02*
X15415620Y12200000D01*
X15400200Y12215420D02*
Y12810420D01*
X15339999Y11900000D02*
X15364999Y11875000D01*
X16154890Y13305110D02*
X16212500Y13247501D01*
X16450000Y8275500D02*
X16452499Y8273000D01*
X16450000Y8447500D02*
X16637502D01*
X16450000Y8824500D02*
X16452499Y8827000D01*
X16450000Y8652500D02*
X16637502D01*
X16450000Y8410000D02*
Y8447500D01*
Y8275500D02*
Y8410000D01*
Y8690000D02*
Y8824500D01*
Y8652500D02*
Y8690000D01*
X16637502Y8652500D02*
Y8777500D01*
X16450000Y7490000D02*
Y7624500D01*
X16439999Y7085500D02*
X16452499Y7073000D01*
X16439999Y7085500D02*
Y7210000D01*
X16450000Y7452500D02*
Y7490000D01*
Y7452500D02*
X16640001D01*
Y7610000D01*
X16439999Y7210000D02*
Y7247500D01*
X16640001D01*
Y7140000D02*
Y7247500D01*
X16135199Y13385201D02*
X16202499Y13452499D01*
X16640001D02*
Y13550000D01*
X16563000Y12427000D02*
X16639999Y12350000D01*
Y12252500D02*
Y12350000D01*
X16450000Y12252500D02*
X16639999D01*
X16450000Y12290000D02*
Y12424500D01*
Y12252500D02*
Y12290000D01*
X16452499Y12047500D02*
X16630000D01*
Y11870000D02*
X16640001Y11860000D01*
X15880000Y11790000D02*
X15889999Y11800000D01*
X15312500Y12127719D02*
X15400200Y12215420D01*
X15312500Y12085000D02*
Y12127719D01*
X15225000Y12067500D02*
X15295000D01*
X15312500Y12085000D01*
X15137500Y11941538D02*
X15271538Y11807500D01*
X15267720Y12182500D02*
X15329800Y12244580D01*
X15117500Y12170000D02*
X15130000Y12182500D01*
X15267720D01*
X15117500Y12077500D02*
Y12170000D01*
Y12077500D02*
X15137500Y12057500D01*
Y11941538D02*
Y12057500D01*
X15600000Y11320000D02*
X15602499Y11322500D01*
X14847501Y11428008D02*
X14920508D01*
X14980000Y11487500D01*
X15580000D01*
X15642500Y11425000D01*
Y11320000D02*
Y11425000D01*
X15830000Y10780000D02*
X15920000Y10690000D01*
X16210001D01*
X16227000Y10673000D01*
X15830000Y11400000D02*
X16120000D01*
X16292999Y11227000D01*
D70*
X8470000Y9300000D02*
Y9399968D01*
X8519984D01*
X8536645Y9383306D01*
Y9349984D01*
X8519984Y9333322D01*
X8470000D01*
X8503323D02*
X8536645Y9300000D01*
X8586629D02*
X8619952D01*
X8636613Y9316661D01*
Y9349984D01*
X8619952Y9366645D01*
X8586629D01*
X8569968Y9349984D01*
Y9316661D01*
X8586629Y9300000D01*
X8736581Y9366645D02*
X8686597D01*
X8669936Y9349984D01*
Y9316661D01*
X8686597Y9300000D01*
X8736581D01*
X8769903D02*
Y9399968D01*
Y9333322D02*
X8819887Y9366645D01*
X8769903Y9333322D02*
X8819887Y9300000D01*
X8919855D02*
X8886533D01*
X8869871Y9316661D01*
Y9349984D01*
X8886533Y9366645D01*
X8919855D01*
X8936516Y9349984D01*
Y9333322D01*
X8869871D01*
X8986500Y9383306D02*
Y9366645D01*
X8969839D01*
X9003162D01*
X8986500D01*
Y9316661D01*
X9003162Y9300000D01*
X9053145Y9399968D02*
Y9300000D01*
X9119790D01*
X9169775D02*
X9203097D01*
X9219758Y9316661D01*
Y9349984D01*
X9203097Y9366645D01*
X9169775D01*
X9153113Y9349984D01*
Y9316661D01*
X9169775Y9300000D01*
X9286404Y9266677D02*
X9303065D01*
X9319726Y9283339D01*
Y9366645D01*
X9269742D01*
X9253081Y9349984D01*
Y9316661D01*
X9269742Y9300000D01*
X9319726D01*
X9386371Y9266677D02*
X9403033D01*
X9419694Y9283339D01*
Y9366645D01*
X9369710D01*
X9353049Y9349984D01*
Y9316661D01*
X9369710Y9300000D01*
X9419694D01*
X9503001D02*
X9469678D01*
X9453017Y9316661D01*
Y9349984D01*
X9469678Y9366645D01*
X9503001D01*
X9519662Y9349984D01*
Y9333322D01*
X9453017D01*
X9552984Y9366645D02*
Y9300000D01*
Y9333322D01*
X9569646Y9349984D01*
X9586307Y9366645D01*
X9602968D01*
D71*
X8977842Y9163323D02*
X8994503Y9130000D01*
X9011164Y9163323D01*
X9027825Y9130000D02*
X9044486D01*
X9036156D01*
Y9179984D01*
X9027825Y9171653D01*
X9069478Y9130000D02*
Y9138331D01*
X9077809D01*
Y9130000D01*
X9069478D01*
X9111132Y9171653D02*
X9119462Y9179984D01*
X9136123D01*
X9144454Y9171653D01*
Y9138331D01*
X9136123Y9130000D01*
X9119462D01*
X9111132Y9138331D01*
Y9171653D01*
X9344389Y9130000D02*
X9311066D01*
X9344389Y9163323D01*
Y9171653D01*
X9336058Y9179984D01*
X9319397D01*
X9311066Y9171653D01*
X9361050D02*
X9369381Y9179984D01*
X9386042D01*
X9394372Y9171653D01*
Y9138331D01*
X9386042Y9130000D01*
X9369381D01*
X9361050Y9138331D01*
Y9171653D01*
X9411034Y9130000D02*
X9427695D01*
X9419364D01*
Y9179984D01*
X9411034Y9171653D01*
X9486009Y9179984D02*
X9469348Y9171653D01*
X9452687Y9154992D01*
Y9138331D01*
X9461017Y9130000D01*
X9477679D01*
X9486009Y9138331D01*
Y9146661D01*
X9477679Y9154992D01*
X9452687D01*
X9502670D02*
X9535993D01*
X9552654Y9130000D02*
X9569315D01*
X9560985D01*
Y9179984D01*
X9552654Y9171653D01*
X9594307Y9130000D02*
X9610968D01*
X9602638D01*
Y9179984D01*
X9594307Y9171653D01*
D98*
X8339000Y9040000D02*
D03*
Y9120000D02*
D03*
X8999000Y8600000D02*
D03*
Y8520000D02*
D03*
X12730000Y9520000D02*
D03*
Y9440000D02*
D03*
X11470000Y9240000D02*
D03*
Y9160000D02*
D03*
Y11400000D02*
D03*
Y11320000D02*
D03*
X11670000Y8830000D02*
D03*
Y8750000D02*
D03*
Y11030000D02*
D03*
Y10950000D02*
D03*
X15600000Y8800000D02*
D03*
Y8720000D02*
D03*
X14439999Y9150000D02*
D03*
Y9070000D02*
D03*
X11470000Y11040000D02*
D03*
Y10960000D02*
D03*
Y8840000D02*
D03*
Y8760000D02*
D03*
X11670000Y11400000D02*
D03*
Y11320000D02*
D03*
Y9240000D02*
D03*
Y9160000D02*
D03*
X11470000Y8940000D02*
D03*
Y9020000D02*
D03*
Y11140000D02*
D03*
Y11220000D02*
D03*
X11480000Y11510000D02*
D03*
Y11590000D02*
D03*
X11420000Y9760000D02*
D03*
Y9840000D02*
D03*
X14489999Y10490000D02*
D03*
Y10570000D02*
D03*
X11610000Y11850001D02*
D03*
Y11930001D02*
D03*
Y9690001D02*
D03*
Y9770001D02*
D03*
X11660000Y11490000D02*
D03*
Y11570000D02*
D03*
X11670000Y9330001D02*
D03*
Y9410001D02*
D03*
X11670000Y11140000D02*
D03*
Y11220000D02*
D03*
Y8940000D02*
D03*
Y9020000D02*
D03*
X11480000Y9340000D02*
D03*
Y9420000D02*
D03*
X10530000Y12090001D02*
D03*
Y12170001D02*
D03*
X10650000Y12130001D02*
D03*
Y12210001D02*
D03*
X10290000Y12090001D02*
D03*
Y12170001D02*
D03*
X10530000Y9930001D02*
D03*
Y10010001D02*
D03*
X10650000Y9970001D02*
D03*
Y10050001D02*
D03*
X10290000Y9930001D02*
D03*
Y10010001D02*
D03*
X12310000Y10360000D02*
D03*
Y10440000D02*
D03*
X13845000Y11973431D02*
D03*
Y12053431D02*
D03*
X14480000Y9990000D02*
D03*
Y10070000D02*
D03*
X12733431Y11155000D02*
D03*
Y11235000D02*
D03*
X11420000Y10000000D02*
D03*
Y9920000D02*
D03*
X11410000Y12120001D02*
D03*
Y12040001D02*
D03*
X14322501Y11600000D02*
D03*
Y11520000D02*
D03*
X13020000Y10840000D02*
D03*
Y10760000D02*
D03*
X11610000Y12140001D02*
D03*
Y12060001D02*
D03*
Y9980001D02*
D03*
Y9900001D02*
D03*
X8569000Y8930000D02*
D03*
Y9010000D02*
D03*
X10770000Y12090001D02*
D03*
Y12170001D02*
D03*
Y9930001D02*
D03*
Y10010001D02*
D03*
X10890000Y12090001D02*
D03*
Y12170001D02*
D03*
Y9930001D02*
D03*
Y10010001D02*
D03*
X11010000Y12090001D02*
D03*
Y12170001D02*
D03*
Y9930001D02*
D03*
Y10010001D02*
D03*
X10450000Y10550000D02*
D03*
Y10630000D02*
D03*
X10410000Y8390001D02*
D03*
Y8470001D02*
D03*
X10870000Y8500001D02*
D03*
Y8420001D02*
D03*
X10750000Y8500001D02*
D03*
Y8420001D02*
D03*
X10330000Y10660000D02*
D03*
Y10580000D02*
D03*
X10290000Y8500001D02*
D03*
Y8420001D02*
D03*
X10000000Y10940000D02*
D03*
Y10860000D02*
D03*
X9990000Y8780000D02*
D03*
Y8700000D02*
D03*
X7780000Y8110000D02*
D03*
Y8190000D02*
D03*
X8080000Y8450000D02*
D03*
Y8530000D02*
D03*
D103*
X12830000Y9435000D02*
D03*
Y9525000D02*
D03*
X9330000Y12635000D02*
D03*
Y12545000D02*
D03*
X11770000Y8845001D02*
D03*
Y8755001D02*
D03*
X11760000Y11045000D02*
D03*
Y10955000D02*
D03*
Y9025000D02*
D03*
Y8935000D02*
D03*
Y11225000D02*
D03*
Y11135000D02*
D03*
Y9415000D02*
D03*
Y9325000D02*
D03*
Y11575000D02*
D03*
Y11485000D02*
D03*
X11710000Y9775001D02*
D03*
Y9685001D02*
D03*
Y11935001D02*
D03*
Y11845001D02*
D03*
X11570000Y8845000D02*
D03*
Y8755000D02*
D03*
Y11045000D02*
D03*
Y10955000D02*
D03*
Y9025000D02*
D03*
Y8935000D02*
D03*
Y11225000D02*
D03*
Y11135000D02*
D03*
X11510000Y9755001D02*
D03*
Y9665001D02*
D03*
X11520000Y11915000D02*
D03*
Y11825000D02*
D03*
X9190000Y12635000D02*
D03*
Y12545000D02*
D03*
X11760000Y11315000D02*
D03*
Y11405000D02*
D03*
X11570000Y11315000D02*
D03*
Y11405000D02*
D03*
X14339999Y10355000D02*
D03*
Y10445000D02*
D03*
X15389999Y8505000D02*
D03*
Y8595000D02*
D03*
X11570000Y11475000D02*
D03*
Y11565000D02*
D03*
Y9325000D02*
D03*
Y9415000D02*
D03*
X15264999Y8505000D02*
D03*
Y8595000D02*
D03*
X11570000Y9155000D02*
D03*
Y9245000D02*
D03*
X11760000Y9155000D02*
D03*
Y9245000D02*
D03*
X11710000Y9895001D02*
D03*
Y9985001D02*
D03*
Y12055001D02*
D03*
Y12145001D02*
D03*
X11510000Y9915000D02*
D03*
Y10005000D02*
D03*
X11510000Y12080001D02*
D03*
Y12170001D02*
D03*
X13630000Y9565000D02*
D03*
Y9655000D02*
D03*
X13620000Y10995000D02*
D03*
Y11085000D02*
D03*
X8330000Y8845000D02*
D03*
Y8935000D02*
D03*
X8459000Y9095000D02*
D03*
Y9005000D02*
D03*
X8419000Y8935000D02*
D03*
Y8845000D02*
D03*
X12410000Y10325000D02*
D03*
Y10235000D02*
D03*
X12839999Y11105000D02*
D03*
Y11015000D02*
D03*
X8910000Y12435000D02*
D03*
Y12525000D02*
D03*
X9000000Y12435000D02*
D03*
Y12525000D02*
D03*
X15439999Y10805000D02*
D03*
Y10895000D02*
D03*
X15437524Y9856806D02*
D03*
Y9946806D02*
D03*
X14430000Y8955000D02*
D03*
Y8865000D02*
D03*
X13880000Y11735000D02*
D03*
Y11825000D02*
D03*
X13960001Y8865000D02*
D03*
Y8775000D02*
D03*
X15689999Y12195000D02*
D03*
Y12105000D02*
D03*
X14714999Y11970000D02*
D03*
Y11880000D02*
D03*
X14739999Y11555000D02*
D03*
Y11645000D02*
D03*
X7990000Y8445000D02*
D03*
Y8535000D02*
D03*
D104*
X8729000Y8910000D02*
D03*
X8809000D02*
D03*
X10539999Y10450001D02*
D03*
X10620000D02*
D03*
X10540000Y10540000D02*
D03*
X10620000D02*
D03*
X13980000Y11290000D02*
D03*
X14060001D02*
D03*
X14030000Y10450000D02*
D03*
X13950000D02*
D03*
X14630000Y8900000D02*
D03*
X14710001D02*
D03*
X14680000Y11780000D02*
D03*
X14760001D02*
D03*
X15620000Y11880000D02*
D03*
X15700000D02*
D03*
X14300000Y8560000D02*
D03*
X14380000D02*
D03*
X14310001Y10240000D02*
D03*
X14230000D02*
D03*
X14489999Y10700000D02*
D03*
X14570000D02*
D03*
X14789999Y10380000D02*
D03*
X14870000D02*
D03*
X14539999Y10820000D02*
D03*
X14620000D02*
D03*
X14527525Y10201806D02*
D03*
X14607526D02*
D03*
X11440000Y11930000D02*
D03*
X11360000D02*
D03*
X10539999Y8410001D02*
D03*
X10620000D02*
D03*
X10539999Y8290001D02*
D03*
X10620000D02*
D03*
X14150000Y9780000D02*
D03*
X14070000D02*
D03*
X12470000Y10050000D02*
D03*
X12550000D02*
D03*
X12680000Y10060000D02*
D03*
X12760000D02*
D03*
X13870000Y9150000D02*
D03*
X13950000D02*
D03*
X8789000Y8670000D02*
D03*
X8869000D02*
D03*
X12880000Y10520000D02*
D03*
X12960001D02*
D03*
X12110000Y10210000D02*
D03*
X12030000D02*
D03*
X13039999Y9380000D02*
D03*
X13120000D02*
D03*
X13100000Y9850000D02*
D03*
X13020000D02*
D03*
X13120000Y11300000D02*
D03*
X13039999D02*
D03*
X14607526Y9861806D02*
D03*
X14527525D02*
D03*
X9300000Y12460000D02*
D03*
X9220000D02*
D03*
X10900000Y10630000D02*
D03*
X10820000D02*
D03*
X10660000D02*
D03*
X10740000D02*
D03*
D106*
X8730000Y12620000D02*
D03*
Y12480000D02*
D03*
X12663431Y10915000D02*
D03*
Y11055000D02*
D03*
X12400000Y9270000D02*
D03*
Y9410000D02*
D03*
X12563431Y11265000D02*
D03*
Y11405000D02*
D03*
X12560000Y9410000D02*
D03*
Y9270000D02*
D03*
X12660000Y9760000D02*
D03*
Y9620000D02*
D03*
X12403431Y11405000D02*
D03*
Y11265000D02*
D03*
X8260000Y8260000D02*
D03*
Y8120000D02*
D03*
D108*
X10730000Y12320000D02*
D03*
X10590000D02*
D03*
X10730000Y10150000D02*
D03*
X10590000D02*
D03*
X15980000Y9900000D02*
D03*
X16120000D02*
D03*
X15980000Y10810000D02*
D03*
X16120000D02*
D03*
X7750000Y8510000D02*
D03*
X7890000D02*
D03*
D109*
X9975000Y11650001D02*
D03*
X9885000D02*
D03*
X14014999Y10220000D02*
D03*
X14105000D02*
D03*
X13845000D02*
D03*
X13935001D02*
D03*
X15710001Y11675000D02*
D03*
X15620000D02*
D03*
X15692525Y9026806D02*
D03*
X15602525D02*
D03*
X15495000Y12200000D02*
D03*
X15585001D02*
D03*
X15710001Y11775000D02*
D03*
X15620000D02*
D03*
X15692525Y8926806D02*
D03*
X15602525D02*
D03*
X15260001Y12125000D02*
D03*
X15170000D02*
D03*
X14445000Y10370000D02*
D03*
X14535001D02*
D03*
X8625000Y12620000D02*
D03*
X8535000D02*
D03*
X11195000Y12070001D02*
D03*
X11285000D02*
D03*
X11195000Y12160001D02*
D03*
X11285000D02*
D03*
X11195000Y9910001D02*
D03*
X11285000D02*
D03*
X11195000Y10000001D02*
D03*
X11285000D02*
D03*
X12285000Y10210000D02*
D03*
X12195000D02*
D03*
X9515000Y12340000D02*
D03*
X9425000D02*
D03*
X9425000Y12140000D02*
D03*
X9515000D02*
D03*
X9425000Y12250000D02*
D03*
X9515000D02*
D03*
X8905000Y8480000D02*
D03*
X8815000D02*
D03*
X8884000Y8780000D02*
D03*
X8794000D02*
D03*
X8265000Y7840000D02*
D03*
X8355000D02*
D03*
X12025000Y10100000D02*
D03*
X12115000D02*
D03*
X8904000Y8570000D02*
D03*
X8814000D02*
D03*
X9975000Y9490001D02*
D03*
X9885000D02*
D03*
X14064999Y11370000D02*
D03*
X13975000D02*
D03*
X14135001Y12070000D02*
D03*
X14045000D02*
D03*
X14064999Y8580000D02*
D03*
X14155000D02*
D03*
X15692525Y9126806D02*
D03*
X15602525D02*
D03*
X15620000Y11575000D02*
D03*
X15710001D02*
D03*
X15142525Y8586806D02*
D03*
X15052525D02*
D03*
X14714999Y9190000D02*
D03*
X14625000D02*
D03*
X14877524Y8576806D02*
D03*
X14967525D02*
D03*
X8475000Y8120000D02*
D03*
X8385000D02*
D03*
X11225000Y8310000D02*
D03*
X11315000D02*
D03*
D110*
X15470000Y11585000D02*
D03*
Y11650000D02*
D03*
Y11715000D02*
D03*
Y11780000D02*
D03*
Y11845000D02*
D03*
Y11910000D02*
D03*
Y11975000D02*
D03*
X14910001Y11585000D02*
D03*
Y11650000D02*
D03*
Y11715000D02*
D03*
Y11780000D02*
D03*
Y11845000D02*
D03*
Y11910000D02*
D03*
Y11975000D02*
D03*
X15430000Y8705000D02*
D03*
Y8770000D02*
D03*
Y8835000D02*
D03*
Y8900000D02*
D03*
Y8965000D02*
D03*
Y9030000D02*
D03*
Y9095000D02*
D03*
X14870000Y8705000D02*
D03*
Y8770000D02*
D03*
Y8835000D02*
D03*
Y8900000D02*
D03*
Y8965000D02*
D03*
Y9030000D02*
D03*
Y9095000D02*
D03*
D112*
X15664999Y10650000D02*
D03*
X15570000D02*
D03*
X15475000D02*
D03*
Y10410000D02*
D03*
X15664999D02*
D03*
D115*
X12537500Y10387500D02*
D03*
Y10322500D02*
D03*
Y10257500D02*
D03*
Y10192500D02*
D03*
X12942500Y10387500D02*
D03*
Y10322500D02*
D03*
Y10257500D02*
D03*
Y10192500D02*
D03*
X13037500Y11147500D02*
D03*
Y11082500D02*
D03*
Y11017500D02*
D03*
Y10952500D02*
D03*
X13442500Y11147500D02*
D03*
Y11082500D02*
D03*
Y11017500D02*
D03*
Y10952500D02*
D03*
X13032500Y9707500D02*
D03*
Y9642500D02*
D03*
Y9577500D02*
D03*
Y9512500D02*
D03*
X13437500Y9707500D02*
D03*
Y9642500D02*
D03*
Y9577500D02*
D03*
Y9512500D02*
D03*
D116*
X9119000Y7880000D02*
D03*
Y8160000D02*
D03*
X8139000Y9340000D02*
D03*
Y9060000D02*
D03*
D118*
X16452499Y7627000D02*
D03*
Y7073000D02*
D03*
Y13626999D02*
D03*
Y13073000D02*
D03*
Y11227000D02*
D03*
Y10673000D02*
D03*
Y10027000D02*
D03*
Y9473000D02*
D03*
Y8827000D02*
D03*
Y8273000D02*
D03*
Y12427000D02*
D03*
Y11873000D02*
D03*
D120*
X15560001Y11270000D02*
D03*
X15650000Y9370000D02*
D03*
X15550000Y11420000D02*
D03*
X15567500Y9245000D02*
D03*
X14260001Y11270000D02*
D03*
X13850000Y9020000D02*
D03*
X14600000Y10480000D02*
D03*
Y9970000D02*
D03*
Y10600000D02*
D03*
Y10090000D02*
D03*
X13960001Y12060000D02*
D03*
X13970000Y8580000D02*
D03*
X12703431Y11345000D02*
D03*
X12700000Y9330000D02*
D03*
X12660000Y10790000D02*
D03*
X12770000Y9870000D02*
D03*
X8780000Y12080000D02*
D03*
X8450000Y7940000D02*
D03*
X14664999Y11475000D02*
D03*
X14772525Y8576806D02*
D03*
X14710001Y12050000D02*
D03*
X14539999Y9200000D02*
D03*
D121*
X15176500Y12890500D02*
D03*
X14922501D02*
D03*
X14668500D02*
D03*
X14414500D02*
D03*
X14160500D02*
D03*
X13906500D02*
D03*
X13652499D02*
D03*
X13398500D02*
D03*
X13144501D02*
D03*
X12890500D02*
D03*
X12636500D02*
D03*
X12382500D02*
D03*
X12128500D02*
D03*
X11874500D02*
D03*
X11620500D02*
D03*
X11366500D02*
D03*
X11112500D02*
D03*
X10858500D02*
D03*
X10604500D02*
D03*
X10350500D02*
D03*
X10096500D02*
D03*
X9842500D02*
D03*
X9588500D02*
D03*
X15176500Y12636500D02*
D03*
X14922501D02*
D03*
X14668500D02*
D03*
X14414500D02*
D03*
X14160500D02*
D03*
X13906500D02*
D03*
X13652499D02*
D03*
X13398500D02*
D03*
X13144501D02*
D03*
X12890500D02*
D03*
X12636500D02*
D03*
X12382500D02*
D03*
X12128500D02*
D03*
X11874500D02*
D03*
X11620500D02*
D03*
X11366500D02*
D03*
X11112500D02*
D03*
X10858500D02*
D03*
X10604500D02*
D03*
X10350500D02*
D03*
X10096500D02*
D03*
X9842500D02*
D03*
Y7810500D02*
D03*
X10096500D02*
D03*
X10350500D02*
D03*
X10604500D02*
D03*
X10858500D02*
D03*
X11112500D02*
D03*
X11366500D02*
D03*
X11620500D02*
D03*
X11874500D02*
D03*
X12128500D02*
D03*
X12382500D02*
D03*
X12636500D02*
D03*
X12890500D02*
D03*
X13144501D02*
D03*
X13398500D02*
D03*
X13652499D02*
D03*
X13906500D02*
D03*
X14160500D02*
D03*
X14414500D02*
D03*
X14668500D02*
D03*
X14922501D02*
D03*
X15176500D02*
D03*
X9588500Y8064500D02*
D03*
X9842500D02*
D03*
X10096500D02*
D03*
X10350500D02*
D03*
X10604500D02*
D03*
X10858500D02*
D03*
X11112500D02*
D03*
X11366500D02*
D03*
X11620500D02*
D03*
X11874500D02*
D03*
X12128500D02*
D03*
X12382500D02*
D03*
X12636500D02*
D03*
X12890500D02*
D03*
X13144501D02*
D03*
X13398500D02*
D03*
X13652499D02*
D03*
X13906500D02*
D03*
X14160500D02*
D03*
X14414500D02*
D03*
X14668500D02*
D03*
X14922501D02*
D03*
X15176500D02*
D03*
D122*
X9588500Y12636500D02*
D03*
Y7810500D02*
D03*
D123*
X9800000Y9846000D02*
D03*
Y10100000D02*
D03*
Y10354000D02*
D03*
Y10862000D02*
D03*
Y11116000D02*
D03*
Y10608000D02*
D03*
D124*
Y11370000D02*
D03*
D137*
X15675000Y8380000D02*
D03*
Y12320000D02*
D03*
X12045000D02*
D03*
Y8380000D02*
D03*
D138*
X15830000Y8535000D02*
D03*
Y12165000D02*
D03*
X11890000D02*
D03*
Y8535000D02*
D03*
D139*
X15060001Y8380000D02*
D03*
X14460001D02*
D03*
X13860001D02*
D03*
X13260001D02*
D03*
X12660000D02*
D03*
X12660000Y12320000D02*
D03*
X13260001D02*
D03*
X13860001D02*
D03*
X14460001D02*
D03*
X15060001D02*
D03*
D140*
X15830000Y11550000D02*
D03*
Y10950000D02*
D03*
Y10350000D02*
D03*
Y9750000D02*
D03*
Y9150000D02*
D03*
X11890000Y11550000D02*
D03*
Y10950000D02*
D03*
Y10350000D02*
D03*
Y9750000D02*
D03*
Y9150000D02*
D03*
D141*
X9330000Y12920000D02*
D03*
Y12760000D02*
D03*
X9190000D02*
D03*
Y12920000D02*
D03*
D142*
X8470000Y12078000D02*
D03*
D143*
X8330500Y12322000D02*
D03*
X8609500D02*
D03*
D144*
X8725000Y12759992D02*
D03*
X8315000D02*
D03*
X8725000Y12919992D02*
D03*
X8315000D02*
D03*
D145*
X10410000Y10110001D02*
D03*
Y9950001D02*
D03*
Y12270001D02*
D03*
Y12110001D02*
D03*
D146*
X14102499Y8727500D02*
D03*
X14167500D02*
D03*
X14232500D02*
D03*
X14297501D02*
D03*
X14102499Y9132500D02*
D03*
X14167500D02*
D03*
X14232500D02*
D03*
X14297501D02*
D03*
X14187500Y11932500D02*
D03*
X14122501D02*
D03*
X14057500D02*
D03*
X13992500D02*
D03*
X14187500Y11527500D02*
D03*
X14122501D02*
D03*
X14057500D02*
D03*
X13992500D02*
D03*
D147*
X15576733Y9900698D02*
D03*
Y9622898D02*
D03*
X15678333Y9622898D02*
D03*
Y9900698D02*
D03*
X15579208Y10791108D02*
D03*
Y11068908D02*
D03*
X15680807Y11068908D02*
D03*
Y10791108D02*
D03*
D148*
X11232500Y8845001D02*
D03*
Y8895001D02*
D03*
Y8945001D02*
D03*
Y8995001D02*
D03*
Y9045001D02*
D03*
Y9095001D02*
D03*
Y9145001D02*
D03*
Y9195001D02*
D03*
Y9245001D02*
D03*
Y9295001D02*
D03*
Y9345001D02*
D03*
Y9395001D02*
D03*
Y9445001D02*
D03*
Y9495001D02*
D03*
Y9545001D02*
D03*
Y9595001D02*
D03*
X10127500D02*
D03*
Y9545001D02*
D03*
Y9495001D02*
D03*
Y9445001D02*
D03*
Y9395001D02*
D03*
Y9345001D02*
D03*
Y9295001D02*
D03*
Y9245001D02*
D03*
Y9195001D02*
D03*
Y9145001D02*
D03*
Y9095001D02*
D03*
Y9045001D02*
D03*
Y8995001D02*
D03*
Y8945001D02*
D03*
Y8895001D02*
D03*
Y8845001D02*
D03*
X11232500Y11005001D02*
D03*
Y11055001D02*
D03*
Y11105001D02*
D03*
Y11155001D02*
D03*
Y11205001D02*
D03*
Y11255001D02*
D03*
Y11305001D02*
D03*
Y11355001D02*
D03*
Y11405001D02*
D03*
Y11455001D02*
D03*
Y11505001D02*
D03*
Y11555001D02*
D03*
Y11605001D02*
D03*
Y11655001D02*
D03*
Y11705001D02*
D03*
Y11755001D02*
D03*
X10127500D02*
D03*
Y11705001D02*
D03*
Y11655001D02*
D03*
Y11605001D02*
D03*
Y11555001D02*
D03*
Y11505001D02*
D03*
Y11455001D02*
D03*
Y11405001D02*
D03*
Y11355001D02*
D03*
Y11305001D02*
D03*
Y11255001D02*
D03*
Y11205001D02*
D03*
Y11155001D02*
D03*
Y11105001D02*
D03*
Y11055001D02*
D03*
Y11005001D02*
D03*
D149*
X11055000Y9772501D02*
D03*
X11005000D02*
D03*
X10955000D02*
D03*
X10905000D02*
D03*
X10855000D02*
D03*
X10805000D02*
D03*
X10755000D02*
D03*
X10705000D02*
D03*
X10655000D02*
D03*
X10605000D02*
D03*
X10555000D02*
D03*
X10505000D02*
D03*
X10455000D02*
D03*
X10405000D02*
D03*
X10355000D02*
D03*
X10305000D02*
D03*
Y8667501D02*
D03*
X10355000D02*
D03*
X10405000D02*
D03*
X10455000D02*
D03*
X10505000D02*
D03*
X10555000D02*
D03*
X10605000D02*
D03*
X10655000D02*
D03*
X10705000D02*
D03*
X10755000D02*
D03*
X10805000D02*
D03*
X10855000D02*
D03*
X10905000D02*
D03*
X10955000D02*
D03*
X11005000D02*
D03*
X11055000D02*
D03*
Y11932501D02*
D03*
X11005000D02*
D03*
X10955000D02*
D03*
X10905000D02*
D03*
X10855000D02*
D03*
X10805000D02*
D03*
X10755000D02*
D03*
X10705000D02*
D03*
X10655000D02*
D03*
X10605000D02*
D03*
X10555000D02*
D03*
X10505000D02*
D03*
X10455000D02*
D03*
X10405000D02*
D03*
X10355000D02*
D03*
X10305000D02*
D03*
Y10827501D02*
D03*
X10355000D02*
D03*
X10405000D02*
D03*
X10455000D02*
D03*
X10505000D02*
D03*
X10555000D02*
D03*
X10605000D02*
D03*
X10655000D02*
D03*
X10705000D02*
D03*
X10755000D02*
D03*
X10805000D02*
D03*
X10855000D02*
D03*
X10905000D02*
D03*
X10955000D02*
D03*
X11005000D02*
D03*
X11055000D02*
D03*
D150*
X14382500Y9505000D02*
D03*
Y9375000D02*
D03*
X14577499Y9440000D02*
D03*
D151*
X14862991Y9492675D02*
D03*
Y9367341D02*
D03*
Y9242008D02*
D03*
Y9618008D02*
D03*
X14842992Y11302675D02*
D03*
Y11177342D02*
D03*
Y11052008D02*
D03*
Y11428008D02*
D03*
D152*
X15409492Y9618008D02*
D03*
Y9492675D02*
D03*
Y9367341D02*
D03*
Y9242008D02*
D03*
X15389491Y11428008D02*
D03*
Y11302675D02*
D03*
Y11177342D02*
D03*
Y11052008D02*
D03*
D153*
X12492000Y9760000D02*
D03*
X12495431Y10915000D02*
D03*
D154*
X12248000Y9620500D02*
D03*
Y9899500D02*
D03*
X12251431Y10775500D02*
D03*
Y11054500D02*
D03*
D155*
X14792525Y10162306D02*
D03*
Y10035306D02*
D03*
Y9908306D02*
D03*
Y9781306D02*
D03*
X15262524Y10162306D02*
D03*
Y10035306D02*
D03*
Y9908306D02*
D03*
Y9781306D02*
D03*
X14795000Y10890500D02*
D03*
Y10763500D02*
D03*
Y10636500D02*
D03*
Y10509500D02*
D03*
X15264999Y10890500D02*
D03*
Y10763500D02*
D03*
Y10636500D02*
D03*
Y10509500D02*
D03*
D156*
X8139002Y8917500D02*
D03*
Y8682499D02*
D03*
D157*
X8652500Y8160002D02*
D03*
X8887501D02*
D03*
D158*
X9150000Y12280000D02*
D03*
D159*
X9000000Y12355000D02*
D03*
Y12305000D02*
D03*
Y12255000D02*
D03*
Y12205000D02*
D03*
X9300000D02*
D03*
Y12255000D02*
D03*
Y12305000D02*
D03*
Y12355000D02*
D03*
D160*
X8279000Y8685000D02*
D03*
Y8635000D02*
D03*
Y8585000D02*
D03*
Y8535000D02*
D03*
Y8485000D02*
D03*
Y8435000D02*
D03*
X8659000D02*
D03*
Y8485000D02*
D03*
Y8535000D02*
D03*
Y8585000D02*
D03*
Y8635000D02*
D03*
Y8685000D02*
D03*
D161*
X8344000Y8370000D02*
D03*
X8394000D02*
D03*
X8444000D02*
D03*
X8494000D02*
D03*
X8544000D02*
D03*
X8594000D02*
D03*
Y8750000D02*
D03*
X8544000D02*
D03*
X8494000D02*
D03*
X8444000D02*
D03*
X8394000D02*
D03*
X8344000D02*
D03*
D162*
X8469000Y8560000D02*
D03*
D163*
X7940000Y7840000D02*
D03*
X8100000D02*
D03*
D164*
X14312500Y9902500D02*
D03*
Y9967500D02*
D03*
Y10032500D02*
D03*
Y10097500D02*
D03*
X13907500Y9902500D02*
D03*
Y9967500D02*
D03*
Y10032500D02*
D03*
Y10097500D02*
D03*
X14332500Y10572500D02*
D03*
Y10637500D02*
D03*
Y10702500D02*
D03*
Y10767500D02*
D03*
X13927499Y10572500D02*
D03*
Y10637500D02*
D03*
Y10702500D02*
D03*
Y10767500D02*
D03*
D165*
X8861000Y7940000D02*
D03*
X8659000D02*
D03*
X7960000Y8700000D02*
D03*
X7758000D02*
D03*
D166*
X14585001Y11257500D02*
D03*
X14455000D02*
D03*
X14520000Y11062500D02*
D03*
D167*
X15452525Y10246807D02*
D03*
Y10151806D02*
D03*
Y10056807D02*
D03*
X15692525D02*
D03*
Y10246807D02*
D03*
D168*
X9151000Y11823500D02*
D03*
Y11696500D02*
D03*
X8389000D02*
D03*
Y11823500D02*
D03*
D169*
X12077500Y10410000D02*
D03*
Y10360000D02*
D03*
Y10310000D02*
D03*
X12222500D02*
D03*
Y10410000D02*
D03*
D170*
X16437500Y7350000D02*
D03*
Y13349998D02*
D03*
Y10950000D02*
D03*
Y9750000D02*
D03*
Y8550000D02*
D03*
Y12150000D02*
D03*
D171*
X16050000Y9760000D02*
D03*
Y9440000D02*
D03*
Y10960000D02*
D03*
Y11280000D02*
D03*
D172*
Y9600000D02*
D03*
Y11120000D02*
D03*
D173*
X8010000Y8285000D02*
D03*
X8105000Y8095000D02*
D03*
X7915000D02*
D03*
D174*
X15198991Y9430008D02*
D03*
X15178992Y11240008D02*
D03*
%TF.MD5,7ba4c305c7f1fbfe1129e4144a2132b2*%
M02*
