G04 Layer_Color=8388736*
%FSLAX45Y45*%
%MOMM*%
%TF.FileFunction,Soldermask,Top*%
%TF.Part,Single*%
G01*
G75*
%TA.AperFunction,Conductor*%
%ADD59C,0.12500*%
%ADD60C,0.20000*%
%ADD63C,0.35000*%
%TA.AperFunction,NonConductor*%
%ADD70C,0.12000*%
%ADD71C,0.20000*%
%TA.AperFunction,SMDPad,CuDef*%
%ADD94C,0.75000*%
%ADD95R,0.60000X0.70000*%
%ADD96R,0.70000X0.60000*%
%ADD97R,0.67000X0.67000*%
%ADD99R,4.10000X1.65000*%
%ADD101R,0.67000X0.67000*%
%ADD103R,1.05000X0.85000*%
%ADD104R,0.85000X1.05000*%
%ADD106R,2.75000X1.10000*%
%ADD107O,1.65000X0.54900*%
%ADD110R,0.80000X1.05000*%
%ADD112O,1.55000X0.50000*%
%TA.AperFunction,ComponentPad*%
%ADD121C,1.55000*%
%ADD122R,1.55000X1.55000*%
%ADD123C,1.67400*%
%ADD124R,1.67400X1.67400*%
%TA.AperFunction,SMDPad,CuDef*%
%ADD137R,0.75000X1.65000*%
%ADD138R,2.75000X0.75000*%
%ADD139R,0.65000X1.15000*%
%ADD140R,4.40000X1.65000*%
%ADD141R,0.75000X0.50000*%
%ADD142R,1.75000X1.05000*%
%ADD143R,1.45000X1.45000*%
%ADD144R,1.42000X0.91000*%
%ADD145R,1.05000X0.80000*%
%ADD146R,0.65000X0.80000*%
%ADD147R,1.13000X2.23000*%
%ADD148O,1.65000X0.54999*%
%ADD149O,0.54900X1.65000*%
%ADD150R,0.95000X0.95000*%
%ADD151R,2.60000X2.60000*%
%ADD152O,0.40000X0.95000*%
%ADD153O,0.95000X0.40000*%
%ADD154R,0.90000X0.40000*%
%ADD155R,1.51000X1.61000*%
%ADD156R,1.29300X0.91200*%
%ADD157R,0.91200X1.29300*%
%ADD158R,1.17000X0.81000*%
%ADD159R,1.42000X0.81000*%
%ADD160R,0.91200X1.15000*%
%ADD161O,2.05000X0.75000*%
%ADD162R,0.80000X0.65000*%
%ADD163O,0.40000X1.70000*%
%ADD164O,1.70000X0.40000*%
%ADD165R,1.50000X1.10000*%
%ADD166R,1.05000X1.15000*%
%ADD167R,1.05000X1.75000*%
%ADD168R,1.45000X1.45000*%
%ADD169R,0.95000X0.95000*%
%ADD170R,1.15000X4.25000*%
%ADD171R,4.25000X1.15000*%
%ADD172R,1.15000X3.95000*%
%ADD173R,3.95000X1.15000*%
%TA.AperFunction,Conductor*%
%ADD174R,3.96000X4.06000*%
G36*
X9180582Y9449838D02*
X9161920D01*
Y9450338D01*
X9164252Y9463668D01*
X9161586Y9461002D01*
X9158754Y9458669D01*
X9155755Y9456670D01*
X9152589Y9454837D01*
X9149590Y9453504D01*
X9146424Y9452171D01*
X9143258Y9451171D01*
X9140425Y9450338D01*
X9137593Y9449838D01*
X9135093Y9449338D01*
X9132760Y9449005D01*
X9130761Y9448672D01*
X9129095D01*
X9127762Y9448505D01*
X9126762D01*
X9122930Y9448672D01*
X9119264Y9449172D01*
X9116098Y9450005D01*
X9113432Y9450838D01*
X9111099Y9451671D01*
X9109433Y9452504D01*
X9108767Y9452671D01*
X9108267Y9453004D01*
X9108100Y9453171D01*
X9107934D01*
X9105101Y9455004D01*
X9102602Y9457003D01*
X9100435Y9459169D01*
X9098769Y9461335D01*
X9097270Y9463168D01*
X9096270Y9464668D01*
X9095603Y9465668D01*
X9095437Y9465834D01*
Y9466001D01*
X9093937Y9469167D01*
X9092771Y9472499D01*
X9092104Y9475665D01*
X9091438Y9478498D01*
X9091105Y9481164D01*
Y9482163D01*
X9090938Y9483163D01*
Y9483996D01*
Y9484496D01*
Y9484829D01*
Y9484996D01*
X9091105Y9488995D01*
X9091438Y9490994D01*
X9091604Y9492827D01*
X9091938Y9494327D01*
X9092104Y9495493D01*
X9092271Y9496326D01*
Y9496660D01*
X9108767Y9579472D01*
X9127762D01*
X9127595Y9579305D01*
X9111599Y9499492D01*
X9111099Y9497160D01*
X9110766Y9494827D01*
X9110600Y9492827D01*
X9110433Y9490994D01*
X9110266Y9489661D01*
Y9488495D01*
Y9487829D01*
Y9487495D01*
X9110600Y9483830D01*
X9111266Y9480664D01*
X9112266Y9477831D01*
X9113432Y9475498D01*
X9114432Y9473666D01*
X9115432Y9472333D01*
X9116098Y9471499D01*
X9116431Y9471166D01*
X9118931Y9469167D01*
X9121763Y9467834D01*
X9124596Y9466834D01*
X9127429Y9466001D01*
X9129761Y9465668D01*
X9131761Y9465501D01*
X9132594Y9465334D01*
X9133594D01*
X9137426Y9465501D01*
X9139259Y9465834D01*
X9140758Y9466168D01*
X9142091Y9466334D01*
X9143258Y9466667D01*
X9143924Y9466834D01*
X9144091D01*
X9147423Y9468000D01*
X9150423Y9469500D01*
X9153089Y9471000D01*
X9155255Y9472499D01*
X9157254Y9473999D01*
X9158587Y9475165D01*
X9159420Y9475832D01*
X9159754Y9476165D01*
X9162753Y9479831D01*
X9165086Y9483663D01*
X9167085Y9487662D01*
X9168751Y9491494D01*
X9169251Y9493327D01*
X9169918Y9494993D01*
X9170251Y9496493D01*
X9170584Y9497659D01*
X9170917Y9498659D01*
X9171084Y9499492D01*
X9171251Y9499992D01*
Y9500159D01*
X9187080Y9579472D01*
X9206242D01*
X9180582Y9449838D01*
D02*
G37*
G36*
X9466175Y9580971D02*
X9470341Y9580472D01*
X9473840Y9579638D01*
X9477006Y9578805D01*
X9479505Y9577972D01*
X9480505Y9577639D01*
X9481338Y9577139D01*
X9482171Y9576972D01*
X9482671Y9576639D01*
X9482838Y9576473D01*
X9483004D01*
X9486337Y9574640D01*
X9489336Y9572307D01*
X9492168Y9569974D01*
X9494501Y9567475D01*
X9496501Y9565309D01*
X9498000Y9563643D01*
X9498500Y9562976D01*
X9498833Y9562476D01*
X9499167Y9562143D01*
Y9561976D01*
X9499500Y9561643D01*
X9485170Y9549646D01*
X9485004Y9550146D01*
X9483004Y9552812D01*
X9481171Y9554978D01*
X9479338Y9556811D01*
X9477672Y9558311D01*
X9476173Y9559477D01*
X9475173Y9560310D01*
X9474506Y9560810D01*
X9474173Y9560977D01*
X9472007Y9562143D01*
X9469508Y9562976D01*
X9467175Y9563476D01*
X9465009Y9563976D01*
X9463009Y9564142D01*
X9461510Y9564309D01*
X9460010D01*
X9457011Y9564142D01*
X9454178Y9563809D01*
X9451346Y9563143D01*
X9448680Y9562310D01*
X9446180Y9561476D01*
X9443848Y9560477D01*
X9441681Y9559310D01*
X9439682Y9558144D01*
X9438016Y9556978D01*
X9436349Y9555811D01*
X9435016Y9554811D01*
X9433850Y9553978D01*
X9432850Y9553145D01*
X9432184Y9552479D01*
X9431851Y9552145D01*
X9431684Y9551979D01*
X9429185Y9548980D01*
X9427018Y9545980D01*
X9425019Y9542815D01*
X9423353Y9539815D01*
X9422020Y9537316D01*
X9421520Y9536150D01*
X9421020Y9535150D01*
X9420687Y9534483D01*
X9420354Y9533817D01*
X9420187Y9533484D01*
Y9533317D01*
X9419021Y9530151D01*
X9417854Y9526819D01*
X9417021Y9523819D01*
X9416188Y9520820D01*
X9415688Y9518321D01*
X9415355Y9517321D01*
X9415188Y9516488D01*
X9415022Y9515655D01*
Y9515155D01*
X9414855Y9514822D01*
Y9514655D01*
X9414188Y9510823D01*
X9413689Y9507157D01*
X9413355Y9503991D01*
X9413189Y9501159D01*
X9413022Y9498826D01*
X9412855Y9496993D01*
Y9496326D01*
Y9495827D01*
Y9495660D01*
Y9495493D01*
X9413022Y9492661D01*
X9413189Y9489995D01*
X9413689Y9487495D01*
X9414188Y9485329D01*
X9414855Y9483163D01*
X9415688Y9481330D01*
X9416521Y9479497D01*
X9417354Y9477998D01*
X9418021Y9476498D01*
X9418854Y9475332D01*
X9419687Y9474332D01*
X9420354Y9473499D01*
X9420853Y9472832D01*
X9421353Y9472333D01*
X9421520Y9472166D01*
X9421687Y9471999D01*
X9424686Y9469833D01*
X9427685Y9468167D01*
X9430851Y9467001D01*
X9433850Y9466168D01*
X9436516Y9465668D01*
X9437682Y9465501D01*
X9438682D01*
X9439349Y9465334D01*
X9440515D01*
X9443848Y9465501D01*
X9446847Y9465834D01*
X9449513Y9466334D01*
X9452012Y9467001D01*
X9454012Y9467667D01*
X9455345Y9468167D01*
X9456344Y9468500D01*
X9456678Y9468667D01*
X9459510Y9470166D01*
X9462176Y9471833D01*
X9464676Y9473666D01*
X9467008Y9475665D01*
X9468841Y9477331D01*
X9470341Y9478664D01*
X9471340Y9479664D01*
X9471674Y9479831D01*
Y9479997D01*
X9471840Y9480164D01*
Y9479997D01*
X9482838Y9466667D01*
X9482671Y9466501D01*
X9479338Y9463335D01*
X9475839Y9460669D01*
X9472507Y9458336D01*
X9469508Y9456503D01*
X9466842Y9455004D01*
X9465675Y9454504D01*
X9464676Y9454004D01*
X9463842Y9453671D01*
X9463343Y9453337D01*
X9463009Y9453171D01*
X9462843D01*
X9458677Y9451671D01*
X9454511Y9450505D01*
X9450679Y9449672D01*
X9447013Y9449172D01*
X9445514Y9448839D01*
X9444014D01*
X9442681Y9448672D01*
X9441681Y9448505D01*
X9439515D01*
X9434517Y9448672D01*
X9429851Y9449338D01*
X9425685Y9450338D01*
X9422186Y9451338D01*
X9420520Y9451838D01*
X9419187Y9452338D01*
X9418021Y9452838D01*
X9417021Y9453337D01*
X9416188Y9453671D01*
X9415688Y9454004D01*
X9415355Y9454171D01*
X9415188D01*
X9411522Y9456503D01*
X9408357Y9459003D01*
X9405691Y9461669D01*
X9403524Y9464168D01*
X9401692Y9466501D01*
X9400359Y9468500D01*
X9400025Y9469167D01*
X9399692Y9469667D01*
X9399359Y9470000D01*
Y9470166D01*
X9397526Y9474332D01*
X9396193Y9478498D01*
X9395193Y9482663D01*
X9394527Y9486496D01*
X9394360Y9488328D01*
X9394194Y9489828D01*
X9394027Y9491328D01*
Y9492661D01*
X9393860Y9493660D01*
Y9494327D01*
Y9494827D01*
Y9494993D01*
X9394027Y9498659D01*
X9394194Y9502325D01*
X9394527Y9505657D01*
X9394860Y9508823D01*
X9395193Y9511323D01*
X9395360Y9512322D01*
X9395527Y9513322D01*
X9395693Y9513989D01*
X9395860Y9514488D01*
Y9514822D01*
Y9514988D01*
X9397026Y9520654D01*
X9398526Y9526152D01*
X9400192Y9531151D01*
X9401858Y9535983D01*
X9403858Y9540315D01*
X9405691Y9544314D01*
X9407690Y9547980D01*
X9409523Y9551146D01*
X9411356Y9554145D01*
X9413189Y9556644D01*
X9414688Y9558810D01*
X9416021Y9560643D01*
X9417188Y9561976D01*
X9418187Y9562976D01*
X9418687Y9563643D01*
X9418854Y9563809D01*
X9422186Y9566808D01*
X9425685Y9569474D01*
X9429185Y9571807D01*
X9432850Y9573807D01*
X9436516Y9575473D01*
X9440015Y9576972D01*
X9443514Y9578139D01*
X9446847Y9578972D01*
X9449846Y9579638D01*
X9452845Y9580305D01*
X9455345Y9580638D01*
X9457511Y9580805D01*
X9459344Y9580971D01*
X9460677Y9581138D01*
X9461843D01*
X9466175Y9580971D01*
D02*
G37*
G36*
X9549987Y9566475D02*
X9552653Y9569141D01*
X9555652Y9571307D01*
X9558651Y9573307D01*
X9561651Y9574973D01*
X9564817Y9576306D01*
X9567816Y9577639D01*
X9570815Y9578472D01*
X9573814Y9579305D01*
X9576480Y9579972D01*
X9578980Y9580305D01*
X9581146Y9580638D01*
X9583145Y9580971D01*
X9584811D01*
X9585978Y9581138D01*
X9586978D01*
X9590810Y9580971D01*
X9594476Y9580472D01*
X9597641Y9579638D01*
X9600474Y9578805D01*
X9602640Y9577972D01*
X9604306Y9577139D01*
X9604973Y9576972D01*
X9605473Y9576639D01*
X9605639Y9576473D01*
X9605806D01*
X9608639Y9574640D01*
X9611305Y9572640D01*
X9613471Y9570474D01*
X9615137Y9568308D01*
X9616637Y9566475D01*
X9617636Y9564976D01*
X9618303Y9563976D01*
X9618469Y9563809D01*
Y9563643D01*
X9619969Y9560477D01*
X9621135Y9557144D01*
X9621802Y9553978D01*
X9622468Y9550979D01*
X9622802Y9548313D01*
Y9547313D01*
X9622968Y9546314D01*
Y9545481D01*
Y9544981D01*
Y9544647D01*
Y9544481D01*
Y9542481D01*
X9622802Y9540315D01*
X9622635Y9538149D01*
X9622302Y9535983D01*
X9622135Y9534317D01*
X9621802Y9532817D01*
X9621635Y9531817D01*
Y9531651D01*
Y9531484D01*
X9604973Y9449838D01*
X9586144D01*
X9602140Y9529651D01*
X9602640Y9532484D01*
X9602973Y9534983D01*
X9603307Y9536983D01*
X9603473Y9538649D01*
X9603640Y9539982D01*
Y9540982D01*
Y9541482D01*
Y9541648D01*
X9603307Y9545481D01*
X9602640Y9548813D01*
X9601640Y9551646D01*
X9600474Y9553978D01*
X9599308Y9555811D01*
X9598308Y9557144D01*
X9597641Y9557977D01*
X9597308Y9558311D01*
X9594809Y9560310D01*
X9592143Y9561810D01*
X9589310Y9562809D01*
X9586644Y9563643D01*
X9584145Y9563976D01*
X9582312Y9564142D01*
X9581479Y9564309D01*
X9580479D01*
X9576647Y9563976D01*
X9574814Y9563809D01*
X9573148Y9563476D01*
X9571815Y9563143D01*
X9570815Y9562976D01*
X9569982Y9562643D01*
X9569815D01*
X9566483Y9561476D01*
X9563484Y9559977D01*
X9560818Y9558477D01*
X9558485Y9556978D01*
X9556652Y9555478D01*
X9555319Y9554312D01*
X9554486Y9553478D01*
X9554153Y9553145D01*
X9551153Y9549646D01*
X9548654Y9545647D01*
X9546655Y9541648D01*
X9545155Y9537816D01*
X9543822Y9534483D01*
X9543489Y9532984D01*
X9543155Y9531651D01*
X9542822Y9530651D01*
X9542656Y9529818D01*
X9542489Y9529318D01*
Y9529151D01*
X9526660Y9449838D01*
X9507831D01*
X9545821Y9638623D01*
X9564650D01*
X9549987Y9566475D01*
D02*
G37*
G36*
X9075608Y9563643D02*
X8989630Y9466667D01*
X9057780D01*
X9054614Y9449838D01*
X8963137D01*
X8966303Y9465834D01*
X9052114Y9562643D01*
X8987798D01*
Y9563143D01*
X8990963Y9579472D01*
X9078774D01*
X9075608Y9563643D01*
D02*
G37*
G36*
X9349705Y9449838D02*
X9330876D01*
Y9450338D01*
X9356870Y9579472D01*
X9375532D01*
X9349705Y9449838D01*
D02*
G37*
G36*
X9199077Y9615129D02*
X9180248D01*
X9185080Y9638623D01*
X9203909D01*
X9199077Y9615129D01*
D02*
G37*
G36*
X9382863D02*
X9363868D01*
X9368700Y9638623D01*
X9387695D01*
X9382863Y9615129D01*
D02*
G37*
G36*
X9148756D02*
X9129928D01*
X9134760Y9638623D01*
X9153588D01*
X9148756Y9615129D01*
D02*
G37*
G36*
X9303383Y9580971D02*
X9306383Y9580638D01*
X9309215Y9579972D01*
X9312048Y9579305D01*
X9314547Y9578305D01*
X9316880Y9577306D01*
X9318880Y9576139D01*
X9320879Y9575140D01*
X9322545Y9573973D01*
X9324045Y9572807D01*
X9325211Y9571807D01*
X9326378Y9570807D01*
X9327211Y9570141D01*
X9327711Y9569474D01*
X9328044Y9569141D01*
X9328210Y9568975D01*
X9328544Y9568641D01*
X9313048Y9555145D01*
Y9555311D01*
X9311715Y9556978D01*
X9310215Y9558311D01*
X9308715Y9559477D01*
X9307216Y9560477D01*
X9304217Y9562143D01*
X9301217Y9563143D01*
X9298718Y9563809D01*
X9297718Y9563976D01*
X9296719Y9564142D01*
X9295885Y9564309D01*
X9294886D01*
X9291720Y9564142D01*
X9288721Y9563643D01*
X9285888Y9562809D01*
X9283389Y9562143D01*
X9281389Y9561310D01*
X9279723Y9560477D01*
X9278723Y9559977D01*
X9278556Y9559810D01*
X9278390D01*
X9275557Y9557977D01*
X9273058Y9555978D01*
X9270892Y9553812D01*
X9268892Y9551812D01*
X9267393Y9549979D01*
X9266226Y9548480D01*
X9265560Y9547480D01*
X9265227Y9547313D01*
Y9547147D01*
X9263394Y9544148D01*
X9261727Y9540982D01*
X9260394Y9537982D01*
X9259395Y9535150D01*
X9258728Y9532817D01*
X9258062Y9530818D01*
X9257895Y9530151D01*
Y9529651D01*
X9257728Y9529318D01*
Y9529151D01*
X9241899Y9449838D01*
X9222904D01*
X9223071Y9450338D01*
X9248731Y9579472D01*
X9267559D01*
X9267226Y9579305D01*
X9264560Y9564642D01*
X9266893Y9567475D01*
X9269392Y9569808D01*
X9272058Y9571974D01*
X9274391Y9573640D01*
X9276557Y9574973D01*
X9278223Y9575973D01*
X9278890Y9576306D01*
X9279390Y9576639D01*
X9279556Y9576806D01*
X9279723D01*
X9283222Y9578305D01*
X9286888Y9579305D01*
X9290220Y9580138D01*
X9293386Y9580638D01*
X9296052Y9580971D01*
X9297218D01*
X9298218Y9581138D01*
X9300051D01*
X9303383Y9580971D01*
D02*
G37*
G36*
X8913650Y9449838D02*
X8854332D01*
X8868995Y9522986D01*
X8826672D01*
X8812009Y9449838D01*
X8753024D01*
X8781350Y9591469D01*
X8731863D01*
X8703370Y9449838D01*
X8644219D01*
X8672878Y9591469D01*
X8538079D01*
X8532914Y9565475D01*
X8617892D01*
X8609228Y9522986D01*
X8524250D01*
X8519084Y9497160D01*
X8604229D01*
X8594732Y9449838D01*
X8450768D01*
X8488759Y9638623D01*
X8850000D01*
X8835003Y9565475D01*
X8877659D01*
X8892322Y9638623D01*
X8951640D01*
X8913650Y9449838D01*
D02*
G37*
D59*
X15543111Y10346250D02*
X15645505Y10448644D01*
X15800000Y9320000D02*
X16110001D01*
X14719807Y9348750D02*
X14910580D01*
X16237500Y10000000D02*
X16264500Y10027000D01*
X15925000Y10000000D02*
X16237500D01*
X15830000Y9905000D02*
X15925000Y10000000D01*
X15800000Y9320000D02*
X15830000Y9290000D01*
Y9250000D02*
Y9290000D01*
X16139999Y9350000D02*
Y9430000D01*
X16110001Y9320000D02*
X16139999Y9350000D01*
Y9430000D02*
X16183000Y9473000D01*
X16452499D01*
X15556831Y9312500D02*
X15607500D01*
X15505000Y9364331D02*
X15556831Y9312500D01*
X15607500D02*
X15657526Y9262476D01*
X14962500Y9183056D02*
X15628773D01*
X14784444D02*
X14962500D01*
X14962257Y9183298D02*
Y9297073D01*
X14767500Y9200000D02*
Y9225000D01*
Y9200000D02*
X14784444Y9183056D01*
X14910580Y9348750D02*
X14962257Y9297073D01*
X14685001Y9257500D02*
X14701270Y9241231D01*
X14685001Y9257500D02*
Y9313943D01*
X14719807Y9348750D01*
X14681250D02*
X14719807D01*
X14460001Y9337500D02*
Y9435000D01*
X14512500Y9390000D02*
X14639999D01*
X14460001Y9337500D02*
X14512500Y9390000D01*
X14445000Y9322500D02*
X14460001Y9337500D01*
X14332500Y9322500D02*
X14445000D01*
X14291251Y9281250D02*
X14332500Y9322500D01*
X14170000Y9135000D02*
Y9230000D01*
X14196249Y9256250D01*
Y9283750D01*
X14218750Y9306250D02*
Y9328091D01*
X14196249Y9283750D02*
X14218750Y9306250D01*
X14460001Y9435000D02*
X14500000D01*
X14325659D02*
X14460001D01*
X14500000D02*
X14514999Y9450000D01*
X14218750Y9328091D02*
X14325659Y9435000D01*
X14514999Y9625000D02*
X14622556Y9732556D01*
X14514999Y9450000D02*
Y9625000D01*
X15543430Y10325000D02*
X15642075Y10226356D01*
X15091273Y9767607D02*
Y10159999D01*
X15474443Y9715557D02*
X15505000Y9685000D01*
Y9364331D02*
Y9685000D01*
X15376680Y9715557D02*
X15474443D01*
X15657526Y9211806D02*
Y9262476D01*
X14997501Y10442500D02*
X15039999Y10400000D01*
X14937500Y10945000D02*
X14997501Y10885000D01*
Y10442500D02*
Y10885000D01*
X13877499Y11245000D02*
Y11272500D01*
Y11245000D02*
X13907500Y11215000D01*
X14335001D02*
X14460001Y11090000D01*
X13907500Y11215000D02*
X14335001D01*
X14525000Y10945000D02*
X14937500D01*
X14460001Y11010000D02*
X14525000Y10945000D01*
X14460001Y11010000D02*
Y11090000D01*
X14718750Y11021250D02*
X14739742Y11000258D01*
X14932500Y11005000D02*
Y11121250D01*
X14122501Y11342500D02*
X14146249Y11318750D01*
X14493750D01*
X14520000Y11292500D01*
Y11160000D02*
Y11292500D01*
Y11160000D02*
X14580000Y11100000D01*
X14877249Y11176500D02*
X14932500Y11121250D01*
X15809645Y11905000D02*
X16039645D01*
X15757500Y11749320D02*
Y11782144D01*
X15830354Y11855000D01*
X16060355D01*
X16105000Y11899645D01*
Y12099645D01*
X16115356Y12110000D01*
X16139999D01*
X16202499Y12047500D01*
X16452499D01*
X15710001Y11675000D02*
Y11690000D01*
X16187144Y12252500D02*
X16450000D01*
X16055000Y12120355D02*
X16187144Y12252500D01*
X16055000Y11920356D02*
Y12120355D01*
X16039645Y11905000D02*
X16055000Y11920356D01*
X15264999Y8505000D02*
X15276250D01*
X15361250Y8420000D01*
Y7708092D02*
Y8420000D01*
Y7708092D02*
X15748091Y7321250D01*
X16128751D01*
X16128751Y7378750D02*
X16202499Y7452500D01*
X16128751Y7321250D02*
X16202499Y7247500D01*
X16439999D01*
X15450000Y8470000D02*
Y8535000D01*
X15418750Y8438750D02*
X15450000Y8470000D01*
X15418750Y7731909D02*
Y8438750D01*
Y7731909D02*
X15771909Y7378750D01*
X16128751D01*
X16202499Y7452500D02*
X16450000D01*
X15450000Y8535000D02*
X15548775Y8633775D01*
Y8790910D01*
X15596265Y8860000D02*
X15723976D01*
X15748976Y8835000D01*
X15989645D01*
X16055000Y8769645D01*
X16105000Y8640355D02*
Y8790355D01*
X16010355Y8885000D02*
X16105000Y8790355D01*
X15769687Y8885000D02*
X16010355D01*
X16055000Y8595000D02*
Y8769645D01*
Y8595000D02*
X16202499Y8447500D01*
X16450000D01*
X15692525Y9026806D02*
X15703194D01*
X15739999Y8990000D01*
Y8914687D02*
Y8990000D01*
Y8914687D02*
X15769687Y8885000D01*
X16105000Y8640355D02*
X16135356Y8610000D01*
X16160001D01*
X16202499Y8652500D01*
X16450000D01*
X15091273Y9767607D02*
X15158826Y9700056D01*
X15091273Y10159999D02*
X15143774Y10212500D01*
X14612515Y11021250D02*
X14718750D01*
X14580000Y11053765D02*
X14612515Y11021250D01*
X14580000Y11053765D02*
Y11100000D01*
X14122501Y11342500D02*
Y11527500D01*
X14280000Y9230000D02*
X14291251Y9241251D01*
Y9281250D01*
X14639999Y9390000D02*
X14681250Y9348750D01*
X15628773Y9183056D02*
X15657526Y9211806D01*
X15158826Y9700056D02*
X15361180D01*
X15376680Y9715557D01*
X15657526Y9211806D02*
X15791808D01*
X15810001Y9270000D02*
X15830000Y9250000D01*
X14978275Y10134396D02*
Y10216705D01*
X15039999Y10278431D01*
X15086569Y10325000D01*
X15039999Y10400000D02*
X15093750Y10346250D01*
D60*
X16120000Y11400000D02*
X16292999Y11227000D01*
X15830000Y11400000D02*
X16120000D01*
X16210001Y10690000D02*
X16227000Y10673000D01*
X15920000Y10690000D02*
X16210001D01*
X15830000Y10780000D02*
X15920000Y10690000D01*
X15642500Y11320000D02*
Y11425000D01*
X15580000Y11487500D02*
X15642500Y11425000D01*
X14980000Y11487500D02*
X15580000D01*
X14920508Y11428008D02*
X14980000Y11487500D01*
X14847501Y11428008D02*
X14920508D01*
X15600000Y11320000D02*
X15602499Y11322500D01*
X15137500Y11941538D02*
Y12057500D01*
X15117500Y12077500D02*
X15137500Y12057500D01*
X15117500Y12077500D02*
Y12170000D01*
X15130000Y12182500D02*
X15267720D01*
X15117500Y12170000D02*
X15130000Y12182500D01*
X15267720D02*
X15329800Y12244580D01*
X15137500Y11941538D02*
X15271538Y11807500D01*
X15295000Y12067500D02*
X15312500Y12085000D01*
X15225000Y12067500D02*
X15295000D01*
X15312500Y12085000D02*
Y12127719D01*
X15400200Y12215420D01*
X15880000Y11790000D02*
X15889999Y11800000D01*
X16630000Y11870000D02*
X16640001Y11860000D01*
X16452499Y12047500D02*
X16630000D01*
X16450000Y12252500D02*
Y12290000D01*
Y12424500D01*
Y12252500D02*
X16639999D01*
Y12350000D01*
X16563000Y12427000D02*
X16639999Y12350000D01*
X16640001Y13452499D02*
Y13550000D01*
X16135199Y13385201D02*
X16202499Y13452499D01*
X16640001Y7140000D02*
Y7247500D01*
X16439999D02*
X16640001D01*
X16439999Y7210000D02*
Y7247500D01*
X16640001Y7452500D02*
Y7610000D01*
X16450000Y7452500D02*
X16640001D01*
X16450000D02*
Y7490000D01*
X16439999Y7085500D02*
Y7210000D01*
Y7085500D02*
X16452499Y7073000D01*
X16450000Y7490000D02*
Y7624500D01*
X16637502Y8652500D02*
Y8777500D01*
X16450000Y8652500D02*
Y8690000D01*
Y8824500D01*
Y8275500D02*
Y8410000D01*
Y8447500D01*
Y8652500D02*
X16637502D01*
X16450000Y8824500D02*
X16452499Y8827000D01*
X16450000Y8447500D02*
X16637502D01*
X16450000Y8275500D02*
X16452499Y8273000D01*
X16154890Y13305110D02*
X16212500Y13247501D01*
X15339999Y11900000D02*
X15364999Y11875000D01*
X15400200Y12215420D02*
Y12810420D01*
Y12215420D02*
X15415620Y12200000D01*
X15430000D01*
X15400200Y12810420D02*
X15894890Y13305110D01*
X16470000Y13090498D02*
Y13210001D01*
Y13247501D01*
X16212500D02*
X16467500D01*
X15894890Y13305110D02*
X16154890D01*
X15489999Y11217225D02*
X15518608Y11188617D01*
X15489999Y11217225D02*
Y11310000D01*
X15520000Y11340000D01*
Y11350000D01*
X15570000D01*
X15600000Y11320000D01*
X16227000Y10673000D02*
X16452499D01*
X16460001Y8884000D02*
X16460001Y8884000D01*
X15430000Y12200000D02*
X15495000D01*
X15863980Y13385201D02*
X16135199D01*
X15329800Y12851019D02*
X15863980Y13385201D01*
X15329800Y12244580D02*
Y12851019D01*
X15271538Y11807500D02*
X15339999D01*
X15367500D01*
X15339999Y11780000D02*
X15367500Y11807500D01*
X15339999Y11780000D02*
Y11807500D01*
X15420000Y12110000D02*
X15430000Y12120000D01*
Y12200000D01*
X16470000Y13247501D02*
X16640001D01*
X16460001Y13489999D02*
Y13619501D01*
X16637502Y8777500D02*
X16640001Y8780000D01*
X16637502Y8272500D02*
X16640001Y8270000D01*
X16452499Y11873000D02*
Y12047500D01*
X16630000Y11870000D02*
Y12047500D01*
X16320000Y8820962D02*
Y8884000D01*
X16460001D01*
X16637502Y8272500D02*
Y8447500D01*
X15313181Y11875000D02*
X15364999D01*
X16202499Y13452499D02*
X16640001D01*
Y13070000D02*
Y13247501D01*
D63*
X15695955Y10478193D02*
X15730956Y10513193D01*
X14848454Y11176500D02*
Y11296693D01*
X15692525Y10196807D02*
X15780000Y10109331D01*
X15750000Y11320000D02*
X15830000Y11400000D01*
X15600000Y11320000D02*
X15642500D01*
X15780000Y9800000D02*
Y10109331D01*
X15692525Y10196807D02*
Y10246807D01*
X15819215Y10649215D02*
Y10910784D01*
X15730956Y10560956D02*
X15819215Y10649215D01*
X15730956Y10513193D02*
Y10560956D01*
X15642500Y11320000D02*
X15750000D01*
X14847501Y11303500D02*
Y11428008D01*
X15695955Y10428193D02*
Y10478193D01*
D70*
X8977842Y9163323D02*
X8994503Y9130000D01*
X9011164Y9163323D01*
X9027825Y9130000D02*
X9044486D01*
X9036156D01*
Y9179984D01*
X9027825Y9171653D01*
X9069478Y9130000D02*
Y9138331D01*
X9077809D01*
Y9130000D01*
X9069478D01*
X9111132Y9171653D02*
X9119462Y9179984D01*
X9136123D01*
X9144454Y9171653D01*
Y9138331D01*
X9136123Y9130000D01*
X9119462D01*
X9111132Y9138331D01*
Y9171653D01*
X9344389Y9130000D02*
X9311066D01*
X9344389Y9163323D01*
Y9171653D01*
X9336058Y9179984D01*
X9319397D01*
X9311066Y9171653D01*
X9361050D02*
X9369381Y9179984D01*
X9386042D01*
X9394372Y9171653D01*
Y9138331D01*
X9386042Y9130000D01*
X9369381D01*
X9361050Y9138331D01*
Y9171653D01*
X9411034Y9130000D02*
X9427695D01*
X9419364D01*
Y9179984D01*
X9411034Y9171653D01*
X9486009Y9179984D02*
X9469348Y9171653D01*
X9452687Y9154992D01*
Y9138331D01*
X9461017Y9130000D01*
X9477679D01*
X9486009Y9138331D01*
Y9146661D01*
X9477679Y9154992D01*
X9452687D01*
X9502670D02*
X9535993D01*
X9552654Y9130000D02*
X9569315D01*
X9560985D01*
Y9179984D01*
X9552654Y9171653D01*
X9594307Y9130000D02*
X9610968D01*
X9602638D01*
Y9179984D01*
X9594307Y9171653D01*
D71*
X8470000Y9300000D02*
Y9399968D01*
X8519984D01*
X8536645Y9383306D01*
Y9349984D01*
X8519984Y9333322D01*
X8470000D01*
X8503323D02*
X8536645Y9300000D01*
X8586629D02*
X8619952D01*
X8636613Y9316661D01*
Y9349984D01*
X8619952Y9366645D01*
X8586629D01*
X8569968Y9349984D01*
Y9316661D01*
X8586629Y9300000D01*
X8736581Y9366645D02*
X8686597D01*
X8669936Y9349984D01*
Y9316661D01*
X8686597Y9300000D01*
X8736581D01*
X8769903D02*
Y9399968D01*
Y9333322D02*
X8819887Y9366645D01*
X8769903Y9333322D02*
X8819887Y9300000D01*
X8919855D02*
X8886533D01*
X8869871Y9316661D01*
Y9349984D01*
X8886533Y9366645D01*
X8919855D01*
X8936516Y9349984D01*
Y9333322D01*
X8869871D01*
X8986500Y9383306D02*
Y9366645D01*
X8969839D01*
X9003162D01*
X8986500D01*
Y9316661D01*
X9003162Y9300000D01*
X9053145Y9399968D02*
Y9300000D01*
X9119790D01*
X9169775D02*
X9203097D01*
X9219758Y9316661D01*
Y9349984D01*
X9203097Y9366645D01*
X9169775D01*
X9153113Y9349984D01*
Y9316661D01*
X9169775Y9300000D01*
X9286404Y9266677D02*
X9303065D01*
X9319726Y9283339D01*
Y9366645D01*
X9269742D01*
X9253081Y9349984D01*
Y9316661D01*
X9269742Y9300000D01*
X9319726D01*
X9386371Y9266677D02*
X9403033D01*
X9419694Y9283339D01*
Y9366645D01*
X9369710D01*
X9353049Y9349984D01*
Y9316661D01*
X9369710Y9300000D01*
X9419694D01*
X9503001D02*
X9469678D01*
X9453017Y9316661D01*
Y9349984D01*
X9469678Y9366645D01*
X9503001D01*
X9519662Y9349984D01*
Y9333322D01*
X9453017D01*
X9552984Y9366645D02*
Y9300000D01*
Y9333322D01*
X9569646Y9349984D01*
X9586307Y9366645D01*
X9602968D01*
D94*
X14539999Y9200000D02*
D03*
X14710001Y12050000D02*
D03*
X14772525Y8576806D02*
D03*
X14664999Y11475000D02*
D03*
X8450000Y7940000D02*
D03*
X8780000Y12080000D02*
D03*
X12770000Y9870000D02*
D03*
X12660000Y10790000D02*
D03*
X12700000Y9330000D02*
D03*
X12703431Y11345000D02*
D03*
X13970000Y8580000D02*
D03*
X13960001Y12060000D02*
D03*
X14600000Y10090000D02*
D03*
Y10600000D02*
D03*
Y9970000D02*
D03*
Y10480000D02*
D03*
X13850000Y9020000D02*
D03*
X14260001Y11270000D02*
D03*
X15567500Y9245000D02*
D03*
X15550000Y11420000D02*
D03*
X15650000Y9370000D02*
D03*
X15560001Y11270000D02*
D03*
D95*
X11315000Y8310000D02*
D03*
X11225000D02*
D03*
X8385000Y8120000D02*
D03*
X8475000D02*
D03*
X14967525Y8576806D02*
D03*
X14877524D02*
D03*
X14625000Y9190000D02*
D03*
X14714999D02*
D03*
X15052525Y8586806D02*
D03*
X15142525D02*
D03*
X15710001Y11575000D02*
D03*
X15620000D02*
D03*
X15602525Y9126806D02*
D03*
X15692525D02*
D03*
X14155000Y8580000D02*
D03*
X14064999D02*
D03*
X14045000Y12070000D02*
D03*
X14135001D02*
D03*
X13975000Y11370000D02*
D03*
X14064999D02*
D03*
X9885000Y9490001D02*
D03*
X9975000D02*
D03*
X8814000Y8570000D02*
D03*
X8904000D02*
D03*
X12115000Y10100000D02*
D03*
X12025000D02*
D03*
X8355000Y7840000D02*
D03*
X8265000D02*
D03*
X8794000Y8780000D02*
D03*
X8884000D02*
D03*
X8815000Y8480000D02*
D03*
X8905000D02*
D03*
X9515000Y12250000D02*
D03*
X9425000D02*
D03*
X9515000Y12140000D02*
D03*
X9425000D02*
D03*
X9425000Y12340000D02*
D03*
X9515000D02*
D03*
X12195000Y10210000D02*
D03*
X12285000D02*
D03*
X11285000Y10000001D02*
D03*
X11195000D02*
D03*
X11285000Y9910001D02*
D03*
X11195000D02*
D03*
X11285000Y12160001D02*
D03*
X11195000D02*
D03*
X11285000Y12070001D02*
D03*
X11195000D02*
D03*
X8535000Y12620000D02*
D03*
X8625000D02*
D03*
X14535001Y10370000D02*
D03*
X14445000D02*
D03*
X15170000Y12125000D02*
D03*
X15260001D02*
D03*
X15602525Y8926806D02*
D03*
X15692525D02*
D03*
X15620000Y11775000D02*
D03*
X15710001D02*
D03*
X15585001Y12200000D02*
D03*
X15495000D02*
D03*
X15602525Y9026806D02*
D03*
X15692525D02*
D03*
X15620000Y11675000D02*
D03*
X15710001D02*
D03*
X13935001Y10220000D02*
D03*
X13845000D02*
D03*
X14105000D02*
D03*
X14014999D02*
D03*
X9885000Y11650001D02*
D03*
X9975000D02*
D03*
D96*
X7990000Y8535000D02*
D03*
Y8445000D02*
D03*
X14739999Y11645000D02*
D03*
Y11555000D02*
D03*
X14714999Y11880000D02*
D03*
Y11970000D02*
D03*
X15689999Y12105000D02*
D03*
Y12195000D02*
D03*
X13960001Y8775000D02*
D03*
Y8865000D02*
D03*
X13880000Y11825000D02*
D03*
Y11735000D02*
D03*
X14430000Y8865000D02*
D03*
Y8955000D02*
D03*
X15437524Y9946806D02*
D03*
Y9856806D02*
D03*
X15439999Y10895000D02*
D03*
Y10805000D02*
D03*
X9000000Y12525000D02*
D03*
Y12435000D02*
D03*
X8910000Y12525000D02*
D03*
Y12435000D02*
D03*
X12839999Y11015000D02*
D03*
Y11105000D02*
D03*
X12410000Y10235000D02*
D03*
Y10325000D02*
D03*
X8419000Y8845000D02*
D03*
Y8935000D02*
D03*
X8459000Y9005000D02*
D03*
Y9095000D02*
D03*
X8330000Y8935000D02*
D03*
Y8845000D02*
D03*
X13620000Y11085000D02*
D03*
Y10995000D02*
D03*
X13630000Y9655000D02*
D03*
Y9565000D02*
D03*
X11510000Y12170001D02*
D03*
Y12080001D02*
D03*
X11510000Y10005000D02*
D03*
Y9915000D02*
D03*
X11710000Y12145001D02*
D03*
Y12055001D02*
D03*
Y9985001D02*
D03*
Y9895001D02*
D03*
X11760000Y9245000D02*
D03*
Y9155000D02*
D03*
X11570000Y9245000D02*
D03*
Y9155000D02*
D03*
X15264999Y8595000D02*
D03*
Y8505000D02*
D03*
X11570000Y9415000D02*
D03*
Y9325000D02*
D03*
Y11565000D02*
D03*
Y11475000D02*
D03*
X15389999Y8595000D02*
D03*
Y8505000D02*
D03*
X14339999Y10445000D02*
D03*
Y10355000D02*
D03*
X11570000Y11405000D02*
D03*
Y11315000D02*
D03*
X11760000Y11405000D02*
D03*
Y11315000D02*
D03*
X9190000Y12545000D02*
D03*
Y12635000D02*
D03*
X11520000Y11825000D02*
D03*
Y11915000D02*
D03*
X11510000Y9665001D02*
D03*
Y9755001D02*
D03*
X11570000Y11135000D02*
D03*
Y11225000D02*
D03*
Y8935000D02*
D03*
Y9025000D02*
D03*
Y10955000D02*
D03*
Y11045000D02*
D03*
Y8755000D02*
D03*
Y8845000D02*
D03*
X11710000Y11845001D02*
D03*
Y11935001D02*
D03*
Y9685001D02*
D03*
Y9775001D02*
D03*
X11760000Y11485000D02*
D03*
Y11575000D02*
D03*
Y9325000D02*
D03*
Y9415000D02*
D03*
Y11135000D02*
D03*
Y11225000D02*
D03*
Y8935000D02*
D03*
Y9025000D02*
D03*
Y10955000D02*
D03*
Y11045000D02*
D03*
X11770000Y8755001D02*
D03*
Y8845001D02*
D03*
X9330000Y12545000D02*
D03*
Y12635000D02*
D03*
X12830000Y9525000D02*
D03*
Y9435000D02*
D03*
D97*
X10740000Y10630000D02*
D03*
X10660000D02*
D03*
X10820000D02*
D03*
X10900000D02*
D03*
X9220000Y12460000D02*
D03*
X9300000D02*
D03*
X14527525Y9861806D02*
D03*
X14607526D02*
D03*
X13039999Y11300000D02*
D03*
X13120000D02*
D03*
X13020000Y9850000D02*
D03*
X13100000D02*
D03*
X13120000Y9380000D02*
D03*
X13039999D02*
D03*
X12030000Y10210000D02*
D03*
X12110000D02*
D03*
X12960001Y10520000D02*
D03*
X12880000D02*
D03*
X8869000Y8670000D02*
D03*
X8789000D02*
D03*
X13950000Y9150000D02*
D03*
X13870000D02*
D03*
X12760000Y10060000D02*
D03*
X12680000D02*
D03*
X12550000Y10050000D02*
D03*
X12470000D02*
D03*
X14070000Y9780000D02*
D03*
X14150000D02*
D03*
X10620000Y8290001D02*
D03*
X10539999D02*
D03*
X10620000Y8410001D02*
D03*
X10539999D02*
D03*
X11360000Y11930000D02*
D03*
X11440000D02*
D03*
X14607526Y10201806D02*
D03*
X14527525D02*
D03*
X14620000Y10820000D02*
D03*
X14539999D02*
D03*
X14870000Y10380000D02*
D03*
X14789999D02*
D03*
X14570000Y10700000D02*
D03*
X14489999D02*
D03*
X14230000Y10240000D02*
D03*
X14310001D02*
D03*
X14380000Y8560000D02*
D03*
X14300000D02*
D03*
X15700000Y11880000D02*
D03*
X15620000D02*
D03*
X14760001Y11780000D02*
D03*
X14680000D02*
D03*
X14710001Y8900000D02*
D03*
X14630000D02*
D03*
X13950000Y10450000D02*
D03*
X14030000D02*
D03*
X14060001Y11290000D02*
D03*
X13980000D02*
D03*
X10620000Y10540000D02*
D03*
X10540000D02*
D03*
X10620000Y10450001D02*
D03*
X10539999D02*
D03*
X8809000Y8910000D02*
D03*
X8729000D02*
D03*
D99*
X16452499Y11873000D02*
D03*
Y12427000D02*
D03*
Y8273000D02*
D03*
Y8827000D02*
D03*
Y9473000D02*
D03*
Y10027000D02*
D03*
Y10673000D02*
D03*
Y11227000D02*
D03*
Y13073000D02*
D03*
Y13626999D02*
D03*
Y7073000D02*
D03*
Y7627000D02*
D03*
D101*
X8080000Y8530000D02*
D03*
Y8450000D02*
D03*
X7780000Y8190000D02*
D03*
Y8110000D02*
D03*
X9990000Y8700000D02*
D03*
Y8780000D02*
D03*
X10000000Y10860000D02*
D03*
Y10940000D02*
D03*
X10290000Y8420001D02*
D03*
Y8500001D02*
D03*
X10330000Y10580000D02*
D03*
Y10660000D02*
D03*
X10750000Y8420001D02*
D03*
Y8500001D02*
D03*
X10870000Y8420001D02*
D03*
Y8500001D02*
D03*
X10410000Y8470001D02*
D03*
Y8390001D02*
D03*
X10450000Y10630000D02*
D03*
Y10550000D02*
D03*
X11010000Y10010001D02*
D03*
Y9930001D02*
D03*
Y12170001D02*
D03*
Y12090001D02*
D03*
X10890000Y10010001D02*
D03*
Y9930001D02*
D03*
Y12170001D02*
D03*
Y12090001D02*
D03*
X10770000Y10010001D02*
D03*
Y9930001D02*
D03*
Y12170001D02*
D03*
Y12090001D02*
D03*
X8569000Y9010000D02*
D03*
Y8930000D02*
D03*
X11610000Y9900001D02*
D03*
Y9980001D02*
D03*
Y12060001D02*
D03*
Y12140001D02*
D03*
X13020000Y10760000D02*
D03*
Y10840000D02*
D03*
X14322501Y11520000D02*
D03*
Y11600000D02*
D03*
X11410000Y12040001D02*
D03*
Y12120001D02*
D03*
X11420000Y9920000D02*
D03*
Y10000000D02*
D03*
X12733431Y11235000D02*
D03*
Y11155000D02*
D03*
X14480000Y10070000D02*
D03*
Y9990000D02*
D03*
X13845000Y12053431D02*
D03*
Y11973431D02*
D03*
X12310000Y10440000D02*
D03*
Y10360000D02*
D03*
X10290000Y10010001D02*
D03*
Y9930001D02*
D03*
X10650000Y10050001D02*
D03*
Y9970001D02*
D03*
X10530000Y10010001D02*
D03*
Y9930001D02*
D03*
X10290000Y12170001D02*
D03*
Y12090001D02*
D03*
X10650000Y12210001D02*
D03*
Y12130001D02*
D03*
X10530000Y12170001D02*
D03*
Y12090001D02*
D03*
X11480000Y9420000D02*
D03*
Y9340000D02*
D03*
X11670000Y9020000D02*
D03*
Y8940000D02*
D03*
Y11220000D02*
D03*
Y11140000D02*
D03*
X11670000Y9410001D02*
D03*
Y9330001D02*
D03*
X11660000Y11570000D02*
D03*
Y11490000D02*
D03*
X11610000Y9770001D02*
D03*
Y9690001D02*
D03*
Y11930001D02*
D03*
Y11850001D02*
D03*
X14489999Y10570000D02*
D03*
Y10490000D02*
D03*
X11420000Y9840000D02*
D03*
Y9760000D02*
D03*
X11480000Y11590000D02*
D03*
Y11510000D02*
D03*
X11470000Y11220000D02*
D03*
Y11140000D02*
D03*
Y9020000D02*
D03*
Y8940000D02*
D03*
X11670000Y9160000D02*
D03*
Y9240000D02*
D03*
Y11320000D02*
D03*
Y11400000D02*
D03*
X11470000Y8760000D02*
D03*
Y8840000D02*
D03*
Y10960000D02*
D03*
Y11040000D02*
D03*
X14439999Y9070000D02*
D03*
Y9150000D02*
D03*
X15600000Y8720000D02*
D03*
Y8800000D02*
D03*
X11670000Y10950000D02*
D03*
Y11030000D02*
D03*
Y8750000D02*
D03*
Y8830000D02*
D03*
X11470000Y11320000D02*
D03*
Y11400000D02*
D03*
Y9160000D02*
D03*
Y9240000D02*
D03*
X12730000Y9440000D02*
D03*
Y9520000D02*
D03*
X8999000Y8520000D02*
D03*
Y8600000D02*
D03*
X8339000Y9120000D02*
D03*
Y9040000D02*
D03*
D103*
X8260000Y8120000D02*
D03*
Y8260000D02*
D03*
X12403431Y11265000D02*
D03*
Y11405000D02*
D03*
X12660000Y9620000D02*
D03*
Y9760000D02*
D03*
X12560000Y9270000D02*
D03*
Y9410000D02*
D03*
X12563431Y11405000D02*
D03*
Y11265000D02*
D03*
X12400000Y9410000D02*
D03*
Y9270000D02*
D03*
X12663431Y11055000D02*
D03*
Y10915000D02*
D03*
X8730000Y12480000D02*
D03*
Y12620000D02*
D03*
D104*
X7890000Y8510000D02*
D03*
X7750000D02*
D03*
X16120000Y10810000D02*
D03*
X15980000D02*
D03*
X16120000Y9900000D02*
D03*
X15980000D02*
D03*
X10590000Y10150000D02*
D03*
X10730000D02*
D03*
X10590000Y12320000D02*
D03*
X10730000D02*
D03*
D106*
X8139000Y9060000D02*
D03*
Y9340000D02*
D03*
X9119000Y8160000D02*
D03*
Y7880000D02*
D03*
D107*
X13437500Y9512500D02*
D03*
Y9577500D02*
D03*
Y9642500D02*
D03*
Y9707500D02*
D03*
X13032500Y9512500D02*
D03*
Y9577500D02*
D03*
Y9642500D02*
D03*
Y9707500D02*
D03*
X13442500Y10952500D02*
D03*
Y11017500D02*
D03*
Y11082500D02*
D03*
Y11147500D02*
D03*
X13037500Y10952500D02*
D03*
Y11017500D02*
D03*
Y11082500D02*
D03*
Y11147500D02*
D03*
X12942500Y10192500D02*
D03*
Y10257500D02*
D03*
Y10322500D02*
D03*
Y10387500D02*
D03*
X12537500Y10192500D02*
D03*
Y10257500D02*
D03*
Y10322500D02*
D03*
Y10387500D02*
D03*
D110*
X15664999Y10410000D02*
D03*
X15475000D02*
D03*
Y10650000D02*
D03*
X15570000D02*
D03*
X15664999D02*
D03*
D112*
X14870000Y9095000D02*
D03*
Y9030000D02*
D03*
Y8965000D02*
D03*
Y8900000D02*
D03*
Y8835000D02*
D03*
Y8770000D02*
D03*
Y8705000D02*
D03*
X15430000Y9095000D02*
D03*
Y9030000D02*
D03*
Y8965000D02*
D03*
Y8900000D02*
D03*
Y8835000D02*
D03*
Y8770000D02*
D03*
Y8705000D02*
D03*
X14910001Y11975000D02*
D03*
Y11910000D02*
D03*
Y11845000D02*
D03*
Y11780000D02*
D03*
Y11715000D02*
D03*
Y11650000D02*
D03*
Y11585000D02*
D03*
X15470000Y11975000D02*
D03*
Y11910000D02*
D03*
Y11845000D02*
D03*
Y11780000D02*
D03*
Y11715000D02*
D03*
Y11650000D02*
D03*
Y11585000D02*
D03*
D121*
X9800000Y10608000D02*
D03*
Y11116000D02*
D03*
Y10862000D02*
D03*
Y10354000D02*
D03*
Y10100000D02*
D03*
Y9846000D02*
D03*
D122*
Y11370000D02*
D03*
D123*
X15176500Y8064500D02*
D03*
X14922501D02*
D03*
X14668500D02*
D03*
X14414500D02*
D03*
X14160500D02*
D03*
X13906500D02*
D03*
X13652499D02*
D03*
X13398500D02*
D03*
X13144501D02*
D03*
X12890500D02*
D03*
X12636500D02*
D03*
X12382500D02*
D03*
X12128500D02*
D03*
X11874500D02*
D03*
X11620500D02*
D03*
X11366500D02*
D03*
X11112500D02*
D03*
X10858500D02*
D03*
X10604500D02*
D03*
X10350500D02*
D03*
X10096500D02*
D03*
X9842500D02*
D03*
X9588500D02*
D03*
X15176500Y7810500D02*
D03*
X14922501D02*
D03*
X14668500D02*
D03*
X14414500D02*
D03*
X14160500D02*
D03*
X13906500D02*
D03*
X13652499D02*
D03*
X13398500D02*
D03*
X13144501D02*
D03*
X12890500D02*
D03*
X12636500D02*
D03*
X12382500D02*
D03*
X12128500D02*
D03*
X11874500D02*
D03*
X11620500D02*
D03*
X11366500D02*
D03*
X11112500D02*
D03*
X10858500D02*
D03*
X10604500D02*
D03*
X10350500D02*
D03*
X10096500D02*
D03*
X9842500D02*
D03*
Y12636500D02*
D03*
X10096500D02*
D03*
X10350500D02*
D03*
X10604500D02*
D03*
X10858500D02*
D03*
X11112500D02*
D03*
X11366500D02*
D03*
X11620500D02*
D03*
X11874500D02*
D03*
X12128500D02*
D03*
X12382500D02*
D03*
X12636500D02*
D03*
X12890500D02*
D03*
X13144501D02*
D03*
X13398500D02*
D03*
X13652499D02*
D03*
X13906500D02*
D03*
X14160500D02*
D03*
X14414500D02*
D03*
X14668500D02*
D03*
X14922501D02*
D03*
X15176500D02*
D03*
X9588500Y12890500D02*
D03*
X9842500D02*
D03*
X10096500D02*
D03*
X10350500D02*
D03*
X10604500D02*
D03*
X10858500D02*
D03*
X11112500D02*
D03*
X11366500D02*
D03*
X11620500D02*
D03*
X11874500D02*
D03*
X12128500D02*
D03*
X12382500D02*
D03*
X12636500D02*
D03*
X12890500D02*
D03*
X13144501D02*
D03*
X13398500D02*
D03*
X13652499D02*
D03*
X13906500D02*
D03*
X14160500D02*
D03*
X14414500D02*
D03*
X14668500D02*
D03*
X14922501D02*
D03*
X15176500D02*
D03*
D124*
X9588500Y7810500D02*
D03*
Y12636500D02*
D03*
D137*
X7915000Y8095000D02*
D03*
X8105000D02*
D03*
X8010000Y8285000D02*
D03*
D138*
X16050000Y11120000D02*
D03*
Y9600000D02*
D03*
D139*
Y11280000D02*
D03*
Y10960000D02*
D03*
Y9440000D02*
D03*
Y9760000D02*
D03*
D140*
X16437500Y12150000D02*
D03*
Y8550000D02*
D03*
Y9750000D02*
D03*
Y10950000D02*
D03*
Y13349998D02*
D03*
Y7350000D02*
D03*
D141*
X12222500Y10410000D02*
D03*
Y10310000D02*
D03*
X12077500D02*
D03*
Y10360000D02*
D03*
Y10410000D02*
D03*
D142*
X12251431Y11054500D02*
D03*
Y10775500D02*
D03*
X12248000Y9899500D02*
D03*
Y9620500D02*
D03*
D143*
X12495431Y10915000D02*
D03*
X12492000Y9760000D02*
D03*
D144*
X8389000Y11823500D02*
D03*
Y11696500D02*
D03*
X9151000D02*
D03*
Y11823500D02*
D03*
D145*
X15692525Y10246807D02*
D03*
Y10056807D02*
D03*
X15452525D02*
D03*
Y10151806D02*
D03*
Y10246807D02*
D03*
D146*
X14520000Y11062500D02*
D03*
X14455000Y11257500D02*
D03*
X14585001D02*
D03*
D147*
X7758000Y8700000D02*
D03*
X7960000D02*
D03*
X8659000Y7940000D02*
D03*
X8861000D02*
D03*
D148*
X13927499Y10767500D02*
D03*
Y10702500D02*
D03*
Y10637500D02*
D03*
Y10572500D02*
D03*
X14332500Y10767500D02*
D03*
Y10702500D02*
D03*
Y10637500D02*
D03*
Y10572500D02*
D03*
X13907500Y10097500D02*
D03*
Y10032500D02*
D03*
Y9967500D02*
D03*
Y9902500D02*
D03*
X14312500Y10097500D02*
D03*
Y10032500D02*
D03*
Y9967500D02*
D03*
Y9902500D02*
D03*
D149*
X13992500Y11527500D02*
D03*
X14057500D02*
D03*
X14122501D02*
D03*
X14187500D02*
D03*
X13992500Y11932500D02*
D03*
X14057500D02*
D03*
X14122501D02*
D03*
X14187500D02*
D03*
X14297501Y9132500D02*
D03*
X14232500D02*
D03*
X14167500D02*
D03*
X14102499D02*
D03*
X14297501Y8727500D02*
D03*
X14232500D02*
D03*
X14167500D02*
D03*
X14102499D02*
D03*
D150*
X8100000Y7840000D02*
D03*
X7940000D02*
D03*
D151*
X8469000Y8560000D02*
D03*
D152*
X8344000Y8750000D02*
D03*
X8394000D02*
D03*
X8444000D02*
D03*
X8494000D02*
D03*
X8544000D02*
D03*
X8594000D02*
D03*
Y8370000D02*
D03*
X8544000D02*
D03*
X8494000D02*
D03*
X8444000D02*
D03*
X8394000D02*
D03*
X8344000D02*
D03*
D153*
X8659000Y8685000D02*
D03*
Y8635000D02*
D03*
Y8585000D02*
D03*
Y8535000D02*
D03*
Y8485000D02*
D03*
Y8435000D02*
D03*
X8279000D02*
D03*
Y8485000D02*
D03*
Y8535000D02*
D03*
Y8585000D02*
D03*
Y8635000D02*
D03*
Y8685000D02*
D03*
D154*
X9300000Y12355000D02*
D03*
Y12305000D02*
D03*
Y12255000D02*
D03*
Y12205000D02*
D03*
X9000000D02*
D03*
Y12255000D02*
D03*
Y12305000D02*
D03*
Y12355000D02*
D03*
D155*
X9150000Y12280000D02*
D03*
D156*
X8887501Y8160002D02*
D03*
X8652500D02*
D03*
D157*
X8139002Y8682499D02*
D03*
Y8917500D02*
D03*
D158*
X15389491Y11052008D02*
D03*
Y11177342D02*
D03*
Y11302675D02*
D03*
Y11428008D02*
D03*
X15409492Y9242008D02*
D03*
Y9367341D02*
D03*
Y9492675D02*
D03*
Y9618008D02*
D03*
D159*
X14842992Y11428008D02*
D03*
Y11052008D02*
D03*
Y11177342D02*
D03*
Y11302675D02*
D03*
X14862991Y9618008D02*
D03*
Y9242008D02*
D03*
Y9367341D02*
D03*
Y9492675D02*
D03*
D160*
X15680807Y10791108D02*
D03*
Y11068908D02*
D03*
X15579208Y11068908D02*
D03*
Y10791108D02*
D03*
X15678333Y9900698D02*
D03*
Y9622898D02*
D03*
X15576733Y9622898D02*
D03*
Y9900698D02*
D03*
D161*
X15264999Y10509500D02*
D03*
Y10636500D02*
D03*
Y10763500D02*
D03*
Y10890500D02*
D03*
X14795000Y10509500D02*
D03*
Y10636500D02*
D03*
Y10763500D02*
D03*
Y10890500D02*
D03*
X15262524Y9781306D02*
D03*
Y9908306D02*
D03*
Y10035306D02*
D03*
Y10162306D02*
D03*
X14792525Y9781306D02*
D03*
Y9908306D02*
D03*
Y10035306D02*
D03*
Y10162306D02*
D03*
D162*
X14577499Y9440000D02*
D03*
X14382500Y9375000D02*
D03*
Y9505000D02*
D03*
D163*
X11055000Y10827501D02*
D03*
X11005000D02*
D03*
X10955000D02*
D03*
X10905000D02*
D03*
X10855000D02*
D03*
X10805000D02*
D03*
X10755000D02*
D03*
X10705000D02*
D03*
X10655000D02*
D03*
X10605000D02*
D03*
X10555000D02*
D03*
X10505000D02*
D03*
X10455000D02*
D03*
X10405000D02*
D03*
X10355000D02*
D03*
X10305000D02*
D03*
Y11932501D02*
D03*
X10355000D02*
D03*
X10405000D02*
D03*
X10455000D02*
D03*
X10505000D02*
D03*
X10555000D02*
D03*
X10605000D02*
D03*
X10655000D02*
D03*
X10705000D02*
D03*
X10755000D02*
D03*
X10805000D02*
D03*
X10855000D02*
D03*
X10905000D02*
D03*
X10955000D02*
D03*
X11005000D02*
D03*
X11055000D02*
D03*
Y8667501D02*
D03*
X11005000D02*
D03*
X10955000D02*
D03*
X10905000D02*
D03*
X10855000D02*
D03*
X10805000D02*
D03*
X10755000D02*
D03*
X10705000D02*
D03*
X10655000D02*
D03*
X10605000D02*
D03*
X10555000D02*
D03*
X10505000D02*
D03*
X10455000D02*
D03*
X10405000D02*
D03*
X10355000D02*
D03*
X10305000D02*
D03*
Y9772501D02*
D03*
X10355000D02*
D03*
X10405000D02*
D03*
X10455000D02*
D03*
X10505000D02*
D03*
X10555000D02*
D03*
X10605000D02*
D03*
X10655000D02*
D03*
X10705000D02*
D03*
X10755000D02*
D03*
X10805000D02*
D03*
X10855000D02*
D03*
X10905000D02*
D03*
X10955000D02*
D03*
X11005000D02*
D03*
X11055000D02*
D03*
D164*
X10127500Y11005001D02*
D03*
Y11055001D02*
D03*
Y11105001D02*
D03*
Y11155001D02*
D03*
Y11205001D02*
D03*
Y11255001D02*
D03*
Y11305001D02*
D03*
Y11355001D02*
D03*
Y11405001D02*
D03*
Y11455001D02*
D03*
Y11505001D02*
D03*
Y11555001D02*
D03*
Y11605001D02*
D03*
Y11655001D02*
D03*
Y11705001D02*
D03*
Y11755001D02*
D03*
X11232500D02*
D03*
Y11705001D02*
D03*
Y11655001D02*
D03*
Y11605001D02*
D03*
Y11555001D02*
D03*
Y11505001D02*
D03*
Y11455001D02*
D03*
Y11405001D02*
D03*
Y11355001D02*
D03*
Y11305001D02*
D03*
Y11255001D02*
D03*
Y11205001D02*
D03*
Y11155001D02*
D03*
Y11105001D02*
D03*
Y11055001D02*
D03*
Y11005001D02*
D03*
X10127500Y8845001D02*
D03*
Y8895001D02*
D03*
Y8945001D02*
D03*
Y8995001D02*
D03*
Y9045001D02*
D03*
Y9095001D02*
D03*
Y9145001D02*
D03*
Y9195001D02*
D03*
Y9245001D02*
D03*
Y9295001D02*
D03*
Y9345001D02*
D03*
Y9395001D02*
D03*
Y9445001D02*
D03*
Y9495001D02*
D03*
Y9545001D02*
D03*
Y9595001D02*
D03*
X11232500D02*
D03*
Y9545001D02*
D03*
Y9495001D02*
D03*
Y9445001D02*
D03*
Y9395001D02*
D03*
Y9345001D02*
D03*
Y9295001D02*
D03*
Y9245001D02*
D03*
Y9195001D02*
D03*
Y9145001D02*
D03*
Y9095001D02*
D03*
Y9045001D02*
D03*
Y8995001D02*
D03*
Y8945001D02*
D03*
Y8895001D02*
D03*
Y8845001D02*
D03*
D165*
X10410000Y12110001D02*
D03*
Y12270001D02*
D03*
Y9950001D02*
D03*
Y10110001D02*
D03*
D166*
X8315000Y12919992D02*
D03*
X8725000D02*
D03*
X8315000Y12759992D02*
D03*
X8725000D02*
D03*
D167*
X8609500Y12322000D02*
D03*
X8330500D02*
D03*
D168*
X8470000Y12078000D02*
D03*
D169*
X9190000Y12920000D02*
D03*
Y12760000D02*
D03*
X9330000D02*
D03*
Y12920000D02*
D03*
D170*
X11890000Y8535000D02*
D03*
Y12165000D02*
D03*
X15830000D02*
D03*
Y8535000D02*
D03*
D171*
X12045000Y8380000D02*
D03*
Y12320000D02*
D03*
X15675000D02*
D03*
Y8380000D02*
D03*
D172*
X11890000Y9150000D02*
D03*
Y9750000D02*
D03*
Y10350000D02*
D03*
Y10950000D02*
D03*
Y11550000D02*
D03*
X15830000Y9150000D02*
D03*
Y9750000D02*
D03*
Y10350000D02*
D03*
Y10950000D02*
D03*
Y11550000D02*
D03*
D173*
X15060001Y12320000D02*
D03*
X14460001D02*
D03*
X13860001D02*
D03*
X13260001D02*
D03*
X12660000D02*
D03*
X12660000Y8380000D02*
D03*
X13260001D02*
D03*
X13860001D02*
D03*
X14460001D02*
D03*
X15060001D02*
D03*
D174*
X15178992Y11240008D02*
D03*
X15198991Y9430008D02*
D03*
%TF.MD5,0217783fdd074bbe2bdc0928ec944238*%
M02*
