G04 Layer_Color=32896*
%FSLAX26Y26*%
%MOIN*%
%TF.FileFunction,Legend,Bot*%
%TF.Part,Single*%
G01*
G75*
%TA.AperFunction,NonConductor*%
%ADD88C,0.007874*%
%ADD89C,0.004724*%
%ADD141C,0.009842*%
%ADD142C,0.003937*%
%ADD143C,0.023622*%
%ADD146C,0.005905*%
%ADD147C,0.001968*%
%ADD148C,0.003150*%
%ADD149C,0.005118*%
%ADD150C,0.002362*%
%ADD151C,0.002756*%
D88*
X6393976Y4829213D02*
Y4837717D01*
Y4729213D02*
Y4737717D01*
Y4628662D02*
X6547520D01*
X6393976Y4938268D02*
X6547520D01*
X6393976Y3411890D02*
Y3420394D01*
Y3311890D02*
Y3320394D01*
Y3211339D02*
X6547520D01*
X6393976Y3520945D02*
X6547520D01*
X6393976Y3884331D02*
Y3892835D01*
Y3784331D02*
Y3792835D01*
Y3683780D02*
X6547520D01*
X6393976Y3993386D02*
X6547520D01*
X6393976Y4356772D02*
Y4365276D01*
Y4256772D02*
Y4265276D01*
Y4156221D02*
X6547520D01*
X6393976Y4465827D02*
X6547520D01*
X6393976Y5301653D02*
Y5310157D01*
Y5201653D02*
Y5210157D01*
Y5101102D02*
X6547520D01*
X6393976Y2939449D02*
Y2947953D01*
Y2839449D02*
Y2847953D01*
Y3048504D02*
X6547520D01*
X5362205Y3519685D02*
X5385827D01*
X5362205Y3433071D02*
X5385827D01*
Y3519685D01*
X5362205Y3433071D02*
Y3519685D01*
X5370079Y4622047D02*
X5393701D01*
X5370079Y4708661D02*
X5393701D01*
X5370079Y4622047D02*
Y4708661D01*
X5393701Y4622047D02*
Y4708661D01*
X3725000Y3225000D02*
X6025000D01*
X3725000Y3025000D02*
Y3225000D01*
Y3025000D02*
X6025000D01*
Y3225000D01*
X3725000Y5125000D02*
X6025000D01*
X6025000Y4925000D02*
X6025000Y5125000D01*
X3725000Y4925000D02*
X6025000D01*
X3725000D02*
Y5125000D01*
X5194882Y4155512D02*
Y4159449D01*
X5167323Y4155512D02*
Y4159449D01*
X5021653Y4639764D02*
X5025590D01*
X5021653Y4667323D02*
X5025590D01*
X3706299Y3131890D02*
Y3143701D01*
X3632283Y3131890D02*
Y3143701D01*
X3598425Y3218504D02*
Y3261811D01*
X3503937Y3218504D02*
Y3261811D01*
X5144685Y3700787D02*
Y3826772D01*
X5075787Y3700787D02*
Y3826772D01*
X5144685D01*
X5075787Y3700787D02*
X5144685D01*
X4868110Y3698819D02*
Y3702756D01*
X4840551Y3698819D02*
Y3702756D01*
X4648622Y3995079D02*
X4671260D01*
X4761811D02*
X4784449D01*
X4648622Y4130906D02*
X4671260D01*
X4784449Y4123032D02*
Y4130906D01*
X4761811D02*
X4784449D01*
Y3995079D02*
Y4002953D01*
X4648622Y3995079D02*
Y4002953D01*
Y4123032D02*
Y4130906D01*
X5148622Y4314961D02*
Y4440945D01*
X5079724Y4314961D02*
Y4440945D01*
X5148622D01*
X5079724Y4314961D02*
X5148622D01*
X4723426Y3493110D02*
Y3500984D01*
Y3365157D02*
Y3373032D01*
X4859252Y3365157D02*
Y3373032D01*
X4836615Y3500984D02*
X4859252D01*
Y3493110D02*
Y3500984D01*
X4723426D02*
X4746063D01*
X4836615Y3365157D02*
X4859252D01*
X4723426D02*
X4746063D01*
X3521654Y3498032D02*
Y3501969D01*
X3549213Y3498032D02*
Y3501969D01*
X3462599Y3372047D02*
Y3375984D01*
X3490158Y3372047D02*
Y3375984D01*
X4820866Y3557087D02*
X4824803D01*
X4820866Y3529528D02*
X4824803D01*
X5057087Y3312992D02*
Y3316929D01*
X5029528Y3312992D02*
Y3316929D01*
X4726378Y3553149D02*
X4730315D01*
X4726378Y3525590D02*
X4730315D01*
X4635827Y3844488D02*
X4639764D01*
X4635827Y3816929D02*
X4639764D01*
X4470472Y3753937D02*
Y3757874D01*
X4442913Y3753937D02*
Y3757874D01*
X5330709Y4096457D02*
X5448819D01*
X5330709Y4124016D02*
X5448819D01*
Y4096457D02*
Y4124016D01*
X5330709Y4096457D02*
Y4124016D01*
X5466535Y4116142D02*
Y4120079D01*
X5494094Y4116142D02*
Y4120079D01*
X5285433Y4084646D02*
Y4088583D01*
X5312992Y4084646D02*
Y4088583D01*
X4267717Y4596457D02*
X4330709D01*
X4267717Y4513779D02*
X4330709D01*
Y4596457D01*
X4267717Y4513779D02*
Y4596457D01*
X4374016Y4683071D02*
Y4883858D01*
X4240157Y4683071D02*
Y4883858D01*
X4374016D01*
X4240157Y4683071D02*
X4374016D01*
X4655512Y4179134D02*
X4659449D01*
X4655512Y4151575D02*
X4659449D01*
X4750000D02*
X4753937D01*
X4750000Y4179134D02*
X4753937D01*
X4616142Y4324803D02*
X4620079D01*
X4616142Y4352362D02*
X4620079D01*
X4604331Y4375984D02*
X4631890D01*
X4604331Y4498032D02*
X4631890D01*
X4604331Y4375984D02*
Y4498032D01*
X4631890Y4375984D02*
Y4498032D01*
X4525591Y4403543D02*
Y4407480D01*
X4498032Y4403543D02*
Y4407480D01*
X3716535Y3476378D02*
Y3515748D01*
X3614173D02*
X3716535D01*
Y3334646D02*
Y3374016D01*
X3614173Y3334646D02*
X3716535D01*
X5232283Y4562992D02*
Y4649606D01*
X5208661Y4562992D02*
Y4649606D01*
X5232283D01*
X5208661Y4562992D02*
X5232283D01*
X5228346Y3488189D02*
Y3574803D01*
X5204724Y3488189D02*
Y3574803D01*
X5228346D01*
X5204724Y3488189D02*
X5228346D01*
X3986359Y4307087D02*
Y4397638D01*
X4108406Y4307087D02*
Y4397638D01*
X3986359D02*
X4108406D01*
X3986359Y4307087D02*
X4108406D01*
X3950926Y4031496D02*
Y4122047D01*
X4072973Y4031496D02*
Y4122047D01*
X3950926D02*
X4072973D01*
X3950926Y4031496D02*
X4072973D01*
X3982422Y3734252D02*
Y3824803D01*
X4104469Y3734252D02*
Y3824803D01*
X3982422D02*
X4104469D01*
X3982422Y3734252D02*
X4104469D01*
X5049213Y4714567D02*
Y4915354D01*
X4903543Y4714567D02*
Y4915354D01*
X5049213D01*
X4903543Y4714567D02*
X5049213D01*
X4543307Y3679134D02*
Y3801181D01*
X4582677Y3679134D02*
Y3801181D01*
X4543307Y3679134D02*
X4582677D01*
X4543307Y3801181D02*
X4582677D01*
D89*
X4988189Y3862198D02*
Y3845800D01*
X4984909Y3842520D01*
X4978350D01*
X4975070Y3845800D01*
Y3862198D01*
X4968510Y3858919D02*
X4965231Y3862198D01*
X4958671D01*
X4955391Y3858919D01*
Y3855639D01*
X4958671Y3852359D01*
X4961951D01*
X4958671D01*
X4955391Y3849079D01*
Y3845800D01*
X4958671Y3842520D01*
X4965231D01*
X4968510Y3845800D01*
X4948832Y3858919D02*
X4945552Y3862198D01*
X4938993D01*
X4935713Y3858919D01*
Y3845800D01*
X4938993Y3842520D01*
X4945552D01*
X4948832Y3845800D01*
Y3858919D01*
X4916034Y3862198D02*
X4929153D01*
Y3852359D01*
X4922594Y3855639D01*
X4919314D01*
X4916034Y3852359D01*
Y3845800D01*
X4919314Y3842520D01*
X4925873D01*
X4929153Y3845800D01*
X4909475Y3839240D02*
X4896355D01*
X4876677Y3842520D02*
X4889796D01*
X4876677Y3855639D01*
Y3858919D01*
X4879957Y3862198D01*
X4886516D01*
X4889796Y3858919D01*
D141*
X5419291Y3531496D02*
G03*
X5419291Y3531496I-4921J0D01*
G01*
X5346457Y4610236D02*
G03*
X5346457Y4610236I-4921J0D01*
G01*
X5194882Y3832677D02*
G03*
X5194882Y3832677I-4921J0D01*
G01*
X5198819Y4446850D02*
G03*
X5198819Y4446850I-4921J0D01*
G01*
X5322835Y4157480D02*
G03*
X5322835Y4157480I-4921J0D01*
G01*
X4245079Y4499016D02*
G03*
X4245079Y4499016I-4921J0D01*
G01*
X4422244Y4901575D02*
G03*
X4422244Y4901575I-4921J0D01*
G01*
X4575787Y4366142D02*
G03*
X4575787Y4366142I-4921J0D01*
G01*
X3593504Y3334646D02*
G03*
X3593504Y3334646I-4921J0D01*
G01*
X5185039Y4551181D02*
G03*
X5185039Y4551181I-4921J0D01*
G01*
X5181102Y3476378D02*
G03*
X5181102Y3476378I-4921J0D01*
G01*
X4121201Y4268701D02*
G03*
X4121201Y4268701I-4921J0D01*
G01*
X4085768Y3993110D02*
G03*
X4085768Y3993110I-4921J0D01*
G01*
X4117264Y3695866D02*
G03*
X4117264Y3695866I-4921J0D01*
G01*
X5093504Y4934055D02*
G03*
X5093504Y4934055I-4921J0D01*
G01*
X4618110Y3810039D02*
G03*
X4618110Y3810039I-4921J0D01*
G01*
D142*
X4802165Y4130906D02*
G03*
X4802165Y4130906I-1968J0D01*
G01*
X4876969Y3500984D02*
G03*
X4876969Y3500984I-1968J0D01*
G01*
X5266468Y4762165D02*
X5276311D01*
X5266468Y4801535D02*
X5276311D01*
X4585630Y3570866D02*
X4595472D01*
X4585630Y3531496D02*
X4595472D01*
X5265118Y3377599D02*
X5274960D01*
X5265118Y3338229D02*
X5274960D01*
X4601378Y3909449D02*
X4611221D01*
X4601378Y3870079D02*
X4611221D01*
X5132874Y3988189D02*
X5142717D01*
X5132874Y4027559D02*
X5142717D01*
X4597441Y4204724D02*
X4607283D01*
X4597441Y4244094D02*
X4607283D01*
X4492126Y4298228D02*
Y4308071D01*
X4531496Y4298228D02*
Y4308071D01*
X3376968Y3377953D02*
X3386811D01*
X3376968Y3338583D02*
X3386811D01*
X3540678Y3482936D02*
X3543302Y3480312D01*
Y3475065D01*
X3540678Y3472441D01*
X3530183D01*
X3527559Y3475065D01*
Y3480312D01*
X3530183Y3482936D01*
X3527559Y3496055D02*
X3543302D01*
X3535431Y3488184D01*
Y3498679D01*
X3527559Y3514422D02*
Y3503927D01*
X3538054Y3514422D01*
X3540678D01*
X3543302Y3511798D01*
Y3506550D01*
X3540678Y3503927D01*
Y3519670D02*
X3543302Y3522293D01*
Y3527541D01*
X3540678Y3530165D01*
X3538054D01*
X3535431Y3527541D01*
X3532807Y3530165D01*
X3530183D01*
X3527559Y3527541D01*
Y3522293D01*
X3530183Y3519670D01*
X3532807D01*
X3535431Y3522293D01*
X3538054Y3519670D01*
X3540678D01*
X3535431Y3522293D02*
Y3527541D01*
X4625984Y3562986D02*
Y3543307D01*
X4612865D01*
X4596466D02*
Y3562986D01*
X4606306Y3553146D01*
X4593187D01*
X4586627Y3559706D02*
X4583347Y3562986D01*
X4576788D01*
X4573508Y3559706D01*
Y3546587D01*
X4576788Y3543307D01*
X4583347D01*
X4586627Y3546587D01*
Y3559706D01*
X4557109Y3543307D02*
Y3562986D01*
X4566949Y3553146D01*
X4553829D01*
D143*
X4346457Y4844488D02*
G03*
X4346457Y4844488I-11811J0D01*
G01*
X5021654Y4875984D02*
G03*
X5021654Y4875984I-11811J0D01*
G01*
D146*
X5582677Y3990148D02*
X5562998D01*
X5572838D01*
Y3960630D01*
X5553159D02*
Y3990148D01*
X5538400D01*
X5533480Y3985228D01*
Y3975389D01*
X5538400Y3970469D01*
X5553159D01*
X5508882Y3960630D02*
Y3990148D01*
X5523641Y3975389D01*
X5503962D01*
X5494123Y3985228D02*
X5489203Y3990148D01*
X5479364D01*
X5474444Y3985228D01*
Y3965550D01*
X5479364Y3960630D01*
X5489203D01*
X5494123Y3965550D01*
Y3985228D01*
X5444926Y3990148D02*
X5454765Y3985228D01*
X5464605Y3975389D01*
Y3965550D01*
X5459685Y3960630D01*
X5449846D01*
X5444926Y3965550D01*
Y3970469D01*
X5449846Y3975389D01*
X5464605D01*
X5484252Y4222431D02*
Y4197833D01*
X5479332Y4192913D01*
X5469493D01*
X5464573Y4197833D01*
Y4222431D01*
X5439975Y4192913D02*
Y4222431D01*
X5454734Y4207672D01*
X5435055D01*
X5425216Y4217512D02*
X5420296Y4222431D01*
X5410457D01*
X5405537Y4217512D01*
Y4197833D01*
X5410457Y4192913D01*
X5420296D01*
X5425216Y4197833D01*
Y4217512D01*
X5395698Y4222431D02*
X5376019D01*
Y4217512D01*
X5395698Y4197833D01*
Y4192913D01*
X3775591Y3568888D02*
Y3544290D01*
X3770671Y3539370D01*
X3760832D01*
X3755912Y3544290D01*
Y3568888D01*
X3731314Y3539370D02*
Y3568888D01*
X3746073Y3554129D01*
X3726394D01*
X3716554Y3563968D02*
X3711635Y3568888D01*
X3701795D01*
X3696876Y3563968D01*
Y3544290D01*
X3701795Y3539370D01*
X3711635D01*
X3716554Y3544290D01*
Y3563968D01*
X3667358Y3568888D02*
X3677197Y3563968D01*
X3687036Y3554129D01*
Y3544290D01*
X3682117Y3539370D01*
X3672277D01*
X3667358Y3544290D01*
Y3549209D01*
X3672277Y3554129D01*
X3687036D01*
X3401575Y3438967D02*
Y3409449D01*
X3381896D01*
X3357298D02*
Y3438967D01*
X3372057Y3424208D01*
X3352378D01*
X3342539Y3434047D02*
X3337619Y3438967D01*
X3327780D01*
X3322860Y3434047D01*
Y3414369D01*
X3327780Y3409449D01*
X3337619D01*
X3342539Y3414369D01*
Y3434047D01*
X3313021Y3438967D02*
X3293342D01*
Y3434047D01*
X3313021Y3414369D01*
Y3409449D01*
X3669291Y3616132D02*
X3649613D01*
X3659452D01*
Y3586614D01*
X3639773D02*
Y3616132D01*
X3625014D01*
X3620095Y3611213D01*
Y3601373D01*
X3625014Y3596454D01*
X3639773D01*
X3595496Y3586614D02*
Y3616132D01*
X3610255Y3601373D01*
X3590576D01*
X3580737Y3611213D02*
X3575817Y3616132D01*
X3565978D01*
X3561058Y3611213D01*
Y3591534D01*
X3565978Y3586614D01*
X3575817D01*
X3580737Y3591534D01*
Y3611213D01*
X3551219Y3616132D02*
X3531540D01*
Y3611213D01*
X3551219Y3591534D01*
Y3586614D01*
X4688976Y4553140D02*
Y4528542D01*
X4684057Y4523622D01*
X4674217D01*
X4669298Y4528542D01*
Y4553140D01*
X4644699Y4523622D02*
Y4553140D01*
X4659458Y4538381D01*
X4639780D01*
X4629940Y4548220D02*
X4625020Y4553140D01*
X4615181D01*
X4610261Y4548220D01*
Y4528542D01*
X4615181Y4523622D01*
X4625020D01*
X4629940Y4528542D01*
Y4548220D01*
X4600422D02*
X4595502Y4553140D01*
X4585663D01*
X4580743Y4548220D01*
Y4543301D01*
X4585663Y4538381D01*
X4580743Y4533461D01*
Y4528542D01*
X4585663Y4523622D01*
X4595502D01*
X4600422Y4528542D01*
Y4533461D01*
X4595502Y4538381D01*
X4600422Y4543301D01*
Y4548220D01*
X4595502Y4538381D02*
X4585663D01*
X4161417Y3946841D02*
Y3922242D01*
X4156498Y3917323D01*
X4146658D01*
X4141739Y3922242D01*
Y3946841D01*
X4112221D02*
X4122060Y3941921D01*
X4131899Y3932082D01*
Y3922242D01*
X4126980Y3917323D01*
X4117140D01*
X4112221Y3922242D01*
Y3927162D01*
X4117140Y3932082D01*
X4131899D01*
X4102381Y3941921D02*
X4097461Y3946841D01*
X4087622D01*
X4082702Y3941921D01*
Y3922242D01*
X4087622Y3917323D01*
X4097461D01*
X4102381Y3922242D01*
Y3941921D01*
X4072863D02*
X4067943Y3946841D01*
X4058104D01*
X4053184Y3941921D01*
Y3922242D01*
X4058104Y3917323D01*
X4067943D01*
X4072863Y3922242D01*
Y3941921D01*
X4043345Y3912403D02*
X4023666D01*
X4013827Y3941921D02*
X4008907Y3946841D01*
X3999068D01*
X3994148Y3941921D01*
Y3937001D01*
X3999068Y3932082D01*
X4003987D01*
X3999068D01*
X3994148Y3927162D01*
Y3922242D01*
X3999068Y3917323D01*
X4008907D01*
X4013827Y3922242D01*
X4236221Y4222431D02*
Y4197833D01*
X4231301Y4192913D01*
X4221462D01*
X4216542Y4197833D01*
Y4222431D01*
X4187024D02*
X4196863Y4217512D01*
X4206702Y4207672D01*
Y4197833D01*
X4201783Y4192913D01*
X4191943D01*
X4187024Y4197833D01*
Y4202753D01*
X4191943Y4207672D01*
X4206702D01*
X4177184Y4217512D02*
X4172265Y4222431D01*
X4162425D01*
X4157506Y4217512D01*
Y4197833D01*
X4162425Y4192913D01*
X4172265D01*
X4177184Y4197833D01*
Y4217512D01*
X4147666D02*
X4142747Y4222431D01*
X4132907D01*
X4127988Y4217512D01*
Y4197833D01*
X4132907Y4192913D01*
X4142747D01*
X4147666Y4197833D01*
Y4217512D01*
X4118148Y4187994D02*
X4098469D01*
X4068951Y4192913D02*
X4088630D01*
X4068951Y4212592D01*
Y4217512D01*
X4073871Y4222431D01*
X4083710D01*
X4088630Y4217512D01*
X4110236Y4525581D02*
Y4500983D01*
X4105316Y4496063D01*
X4095477D01*
X4090557Y4500983D01*
Y4525581D01*
X4061039D02*
X4070879Y4520661D01*
X4080718Y4510822D01*
Y4500983D01*
X4075798Y4496063D01*
X4065959D01*
X4061039Y4500983D01*
Y4505902D01*
X4065959Y4510822D01*
X4080718D01*
X4051200Y4520661D02*
X4046280Y4525581D01*
X4036441D01*
X4031521Y4520661D01*
Y4500983D01*
X4036441Y4496063D01*
X4046280D01*
X4051200Y4500983D01*
Y4520661D01*
X4021682D02*
X4016762Y4525581D01*
X4006923D01*
X4002003Y4520661D01*
Y4500983D01*
X4006923Y4496063D01*
X4016762D01*
X4021682Y4500983D01*
Y4520661D01*
X3992164Y4491143D02*
X3972485D01*
X3962646Y4496063D02*
X3952806D01*
X3957726D01*
Y4525581D01*
X3962646Y4520661D01*
X4940945Y4702746D02*
Y4678148D01*
X4936025Y4673228D01*
X4926186D01*
X4921266Y4678148D01*
Y4702746D01*
X4891748Y4673228D02*
X4911427D01*
X4891748Y4692907D01*
Y4697827D01*
X4896668Y4702746D01*
X4906507D01*
X4911427Y4697827D01*
X4881909D02*
X4876989Y4702746D01*
X4867150D01*
X4862230Y4697827D01*
Y4678148D01*
X4867150Y4673228D01*
X4876989D01*
X4881909Y4678148D01*
Y4697827D01*
X4852391Y4673228D02*
X4842551D01*
X4847471D01*
Y4702746D01*
X4852391Y4697827D01*
X4204724Y4572825D02*
Y4548227D01*
X4199805Y4543307D01*
X4189965D01*
X4185046Y4548227D01*
Y4572825D01*
X4175206D02*
X4155528D01*
Y4567905D01*
X4175206Y4548227D01*
Y4543307D01*
X4145688Y4567905D02*
X4140769Y4572825D01*
X4130929D01*
X4126010Y4567905D01*
Y4548227D01*
X4130929Y4543307D01*
X4140769D01*
X4145688Y4548227D01*
Y4567905D01*
X4116170Y4543307D02*
X4106331D01*
X4111250D01*
Y4572825D01*
X4116170Y4567905D01*
X4129921Y4809046D02*
Y4784447D01*
X4125002Y4779528D01*
X4115162D01*
X4110243Y4784447D01*
Y4809046D01*
X4100403D02*
X4080724D01*
Y4804126D01*
X4100403Y4784447D01*
Y4779528D01*
X4070885Y4804126D02*
X4065965Y4809046D01*
X4056126D01*
X4051206Y4804126D01*
Y4784447D01*
X4056126Y4779528D01*
X4065965D01*
X4070885Y4784447D01*
Y4804126D01*
X4041367D02*
X4036447Y4809046D01*
X4026608D01*
X4021688Y4804126D01*
Y4784447D01*
X4026608Y4779528D01*
X4036447D01*
X4041367Y4784447D01*
Y4804126D01*
X4846457Y3340542D02*
Y3315943D01*
X4841537Y3311024D01*
X4831698D01*
X4826778Y3315943D01*
Y3340542D01*
X4802180Y3311024D02*
Y3340542D01*
X4816939Y3325783D01*
X4797260D01*
X4787421Y3335622D02*
X4782501Y3340542D01*
X4772662D01*
X4767742Y3335622D01*
Y3315943D01*
X4772662Y3311024D01*
X4782501D01*
X4787421Y3315943D01*
Y3335622D01*
X4743143Y3311024D02*
Y3340542D01*
X4757902Y3325783D01*
X4738224D01*
X4807087Y3966526D02*
Y3941928D01*
X4802167Y3937008D01*
X4792328D01*
X4787408Y3941928D01*
Y3966526D01*
X4762810Y3937008D02*
Y3966526D01*
X4777569Y3951767D01*
X4757890D01*
X4748050Y3961606D02*
X4743131Y3966526D01*
X4733291D01*
X4728372Y3961606D01*
Y3941928D01*
X4733291Y3937008D01*
X4743131D01*
X4748050Y3941928D01*
Y3961606D01*
X4718532D02*
X4713613Y3966526D01*
X4703773D01*
X4698854Y3961606D01*
Y3956687D01*
X4703773Y3951767D01*
X4708693D01*
X4703773D01*
X4698854Y3946847D01*
Y3941928D01*
X4703773Y3937008D01*
X4713613D01*
X4718532Y3941928D01*
X3473417Y3196844D02*
X3478337Y3191924D01*
Y3182085D01*
X3473417Y3177165D01*
X3453739D01*
X3448819Y3182085D01*
Y3191924D01*
X3453739Y3196844D01*
X3448819Y3221443D02*
X3478337D01*
X3463578Y3206684D01*
Y3226362D01*
X3473417Y3236202D02*
X3478337Y3241121D01*
Y3250961D01*
X3473417Y3255880D01*
X3453739D01*
X3448819Y3250961D01*
Y3241121D01*
X3453739Y3236202D01*
X3473417D01*
X3448819Y3280479D02*
X3478337D01*
X3463578Y3265720D01*
Y3285398D01*
X3606299Y3122038D02*
Y3094488D01*
X3587932D01*
X3564974D02*
Y3122038D01*
X3578749Y3108263D01*
X3560382D01*
X3551199Y3117447D02*
X3546607Y3122038D01*
X3537424D01*
X3532832Y3117447D01*
Y3099080D01*
X3537424Y3094488D01*
X3546607D01*
X3551199Y3099080D01*
Y3117447D01*
X3523649D02*
X3519057Y3122038D01*
X3509874D01*
X3505282Y3117447D01*
Y3099080D01*
X3509874Y3094488D01*
X3519057D01*
X3523649Y3099080D01*
Y3117447D01*
X5555118Y4285424D02*
X5535439D01*
X5545279D01*
Y4255905D01*
X5525600D02*
Y4285424D01*
X5510841D01*
X5505921Y4280504D01*
Y4270664D01*
X5510841Y4265745D01*
X5525600D01*
X5496082Y4280504D02*
X5491162Y4285424D01*
X5481323D01*
X5476403Y4280504D01*
Y4275584D01*
X5481323Y4270664D01*
X5486243D01*
X5481323D01*
X5476403Y4265745D01*
Y4260825D01*
X5481323Y4255905D01*
X5491162D01*
X5496082Y4260825D01*
X5466564Y4280504D02*
X5461644Y4285424D01*
X5451805D01*
X5446885Y4280504D01*
Y4260825D01*
X5451805Y4255905D01*
X5461644D01*
X5466564Y4260825D01*
Y4280504D01*
X5437046Y4285424D02*
X5417367D01*
Y4280504D01*
X5437046Y4260825D01*
Y4255905D01*
X5407528Y4250986D02*
X5387849D01*
X5378010Y4255905D02*
X5368170D01*
X5373090D01*
Y4285424D01*
X5378010Y4280504D01*
D147*
X5161417Y4013776D02*
Y4003937D01*
X5154858D01*
X5146658D02*
Y4013776D01*
X5151578Y4008857D01*
X5145019D01*
X5141739Y4012136D02*
X5140099Y4013776D01*
X5136819D01*
X5135179Y4012136D01*
Y4005577D01*
X5136819Y4003937D01*
X5140099D01*
X5141739Y4005577D01*
Y4012136D01*
X5131899D02*
X5130260Y4013776D01*
X5126980D01*
X5125340Y4012136D01*
Y4010497D01*
X5126980Y4008857D01*
X5125340Y4007217D01*
Y4005577D01*
X5126980Y4003937D01*
X5130260D01*
X5131899Y4005577D01*
Y4007217D01*
X5130260Y4008857D01*
X5131899Y4010497D01*
Y4012136D01*
X5130260Y4008857D02*
X5126980D01*
X4559055Y4854331D02*
X4568894D01*
Y4859250D01*
X4567255Y4860890D01*
X4563975D01*
X4562335Y4859250D01*
Y4854331D01*
Y4857610D02*
X4559055Y4860890D01*
X4568894Y4864170D02*
Y4870730D01*
X4567255D01*
X4560695Y4864170D01*
X4559055D01*
X4567255Y4874009D02*
X4568894Y4875649D01*
Y4878929D01*
X4567255Y4880569D01*
X4560695D01*
X4559055Y4878929D01*
Y4875649D01*
X4560695Y4874009D01*
X4567255D01*
X4559055Y4883849D02*
Y4887128D01*
Y4885489D01*
X4568894D01*
X4567255Y4883849D01*
X4559055Y4779528D02*
X4568894D01*
Y4784447D01*
X4567255Y4786087D01*
X4563975D01*
X4562335Y4784447D01*
Y4779528D01*
Y4782807D02*
X4559055Y4786087D01*
X4568894Y4789367D02*
Y4795926D01*
X4567255D01*
X4560695Y4789367D01*
X4559055D01*
X4567255Y4799206D02*
X4568894Y4800846D01*
Y4804126D01*
X4567255Y4805766D01*
X4560695D01*
X4559055Y4804126D01*
Y4800846D01*
X4560695Y4799206D01*
X4567255D01*
Y4809046D02*
X4568894Y4810685D01*
Y4813965D01*
X4567255Y4815605D01*
X4560695D01*
X4559055Y4813965D01*
Y4810685D01*
X4560695Y4809046D01*
X4567255D01*
X4594488Y4854331D02*
X4604328D01*
Y4859250D01*
X4602688Y4860890D01*
X4599408D01*
X4597768Y4859250D01*
Y4854331D01*
Y4857610D02*
X4594488Y4860890D01*
X4604328Y4864170D02*
Y4870730D01*
X4602688D01*
X4596128Y4864170D01*
X4594488D01*
X4602688Y4874009D02*
X4604328Y4875649D01*
Y4878929D01*
X4602688Y4880569D01*
X4596128D01*
X4594488Y4878929D01*
Y4875649D01*
X4596128Y4874009D01*
X4602688D01*
Y4883849D02*
X4604328Y4885489D01*
Y4888768D01*
X4602688Y4890408D01*
X4601048D01*
X4599408Y4888768D01*
Y4887128D01*
Y4888768D01*
X4597768Y4890408D01*
X4596128D01*
X4594488Y4888768D01*
Y4885489D01*
X4596128Y4883849D01*
X4594488Y4775591D02*
X4604328D01*
Y4780510D01*
X4602688Y4782150D01*
X4599408D01*
X4597768Y4780510D01*
Y4775591D01*
Y4778870D02*
X4594488Y4782150D01*
X4604328Y4785430D02*
Y4791989D01*
X4602688D01*
X4596128Y4785430D01*
X4594488D01*
X4602688Y4795269D02*
X4604328Y4796909D01*
Y4800189D01*
X4602688Y4801829D01*
X4596128D01*
X4594488Y4800189D01*
Y4796909D01*
X4596128Y4795269D01*
X4602688D01*
X4594488Y4811668D02*
Y4805109D01*
X4601048Y4811668D01*
X4602688D01*
X4604328Y4810028D01*
Y4806748D01*
X4602688Y4805109D01*
X4460955Y3742780D02*
X4462595Y3741140D01*
Y3737860D01*
X4460955Y3736220D01*
X4454396D01*
X4452756Y3737860D01*
Y3741140D01*
X4454396Y3742780D01*
X4452756Y3750979D02*
X4462595D01*
X4457676Y3746060D01*
Y3752619D01*
X4460955Y3755899D02*
X4462595Y3757539D01*
Y3760819D01*
X4460955Y3762459D01*
X4459315D01*
X4457676Y3760819D01*
Y3759179D01*
Y3760819D01*
X4456036Y3762459D01*
X4454396D01*
X4452756Y3760819D01*
Y3757539D01*
X4454396Y3755899D01*
X4452756Y3770658D02*
X4462595D01*
X4457676Y3765738D01*
Y3772298D01*
X4627299Y4342845D02*
X4628939Y4344485D01*
X4632218D01*
X4633858Y4342845D01*
Y4336286D01*
X4632218Y4334646D01*
X4628939D01*
X4627299Y4336286D01*
X4619099Y4334646D02*
Y4344485D01*
X4624019Y4339565D01*
X4617459D01*
X4614180Y4342845D02*
X4612540Y4344485D01*
X4609260D01*
X4607620Y4342845D01*
Y4341205D01*
X4609260Y4339565D01*
X4610900D01*
X4609260D01*
X4607620Y4337926D01*
Y4336286D01*
X4609260Y4334646D01*
X4612540D01*
X4614180Y4336286D01*
X4604340Y4334646D02*
X4601061D01*
X4602700D01*
Y4344485D01*
X4604340Y4342845D01*
X5129921Y3421260D02*
X5139761D01*
Y3426180D01*
X5138121Y3427819D01*
X5134841D01*
X5133201Y3426180D01*
Y3421260D01*
Y3424540D02*
X5129921Y3427819D01*
X5138121Y3431099D02*
X5139761Y3432739D01*
Y3436019D01*
X5138121Y3437659D01*
X5136481D01*
X5134841Y3436019D01*
Y3434379D01*
Y3436019D01*
X5133201Y3437659D01*
X5131561D01*
X5129921Y3436019D01*
Y3432739D01*
X5131561Y3431099D01*
X5129921Y3447498D02*
Y3440938D01*
X5136481Y3447498D01*
X5138121D01*
X5139761Y3445858D01*
Y3442578D01*
X5138121Y3440938D01*
Y3450778D02*
X5139761Y3452418D01*
Y3455697D01*
X5138121Y3457337D01*
X5131561D01*
X5129921Y3455697D01*
Y3452418D01*
X5131561Y3450778D01*
X5138121D01*
X5128281Y3460617D02*
Y3467177D01*
X5129921Y3477016D02*
Y3470456D01*
X5136481Y3477016D01*
X5138121D01*
X5139761Y3475376D01*
Y3472096D01*
X5138121Y3470456D01*
X5074803Y4523622D02*
X5084642D01*
Y4528542D01*
X5083002Y4530181D01*
X5079723D01*
X5078083Y4528542D01*
Y4523622D01*
Y4526902D02*
X5074803Y4530181D01*
X5083002Y4533461D02*
X5084642Y4535101D01*
Y4538381D01*
X5083002Y4540021D01*
X5081363D01*
X5079723Y4538381D01*
Y4536741D01*
Y4538381D01*
X5078083Y4540021D01*
X5076443D01*
X5074803Y4538381D01*
Y4535101D01*
X5076443Y4533461D01*
X5074803Y4549860D02*
Y4543301D01*
X5081363Y4549860D01*
X5083002D01*
X5084642Y4548220D01*
Y4544940D01*
X5083002Y4543301D01*
Y4553140D02*
X5084642Y4554780D01*
Y4558060D01*
X5083002Y4559699D01*
X5076443D01*
X5074803Y4558060D01*
Y4554780D01*
X5076443Y4553140D01*
X5083002D01*
X5073163Y4562979D02*
Y4569539D01*
X5074803Y4572819D02*
Y4576098D01*
Y4574458D01*
X5084642D01*
X5083002Y4572819D01*
X4153543Y3704724D02*
X4163383D01*
Y3709644D01*
X4161743Y3711284D01*
X4158463D01*
X4156823Y3709644D01*
Y3704724D01*
Y3708004D02*
X4153543Y3711284D01*
X4163383Y3721123D02*
X4161743Y3717843D01*
X4158463Y3714564D01*
X4155183D01*
X4153543Y3716204D01*
Y3719483D01*
X4155183Y3721123D01*
X4156823D01*
X4158463Y3719483D01*
Y3714564D01*
X4161743Y3724403D02*
X4163383Y3726043D01*
Y3729323D01*
X4161743Y3730963D01*
X4155183D01*
X4153543Y3729323D01*
Y3726043D01*
X4155183Y3724403D01*
X4161743D01*
X4153543Y3740802D02*
Y3734242D01*
X4160103Y3740802D01*
X4161743D01*
X4163383Y3739162D01*
Y3735882D01*
X4161743Y3734242D01*
X4151903Y3744082D02*
Y3750641D01*
X4161743Y3753921D02*
X4163383Y3755561D01*
Y3758841D01*
X4161743Y3760480D01*
X4160103D01*
X4158463Y3758841D01*
Y3757201D01*
Y3758841D01*
X4156823Y3760480D01*
X4155183D01*
X4153543Y3758841D01*
Y3755561D01*
X4155183Y3753921D01*
X4122047Y4031496D02*
X4131886D01*
Y4036416D01*
X4130247Y4038056D01*
X4126967D01*
X4125327Y4036416D01*
Y4031496D01*
Y4034776D02*
X4122047Y4038056D01*
X4131886Y4047895D02*
X4130247Y4044615D01*
X4126967Y4041335D01*
X4123687D01*
X4122047Y4042975D01*
Y4046255D01*
X4123687Y4047895D01*
X4125327D01*
X4126967Y4046255D01*
Y4041335D01*
X4130247Y4051175D02*
X4131886Y4052815D01*
Y4056094D01*
X4130247Y4057734D01*
X4123687D01*
X4122047Y4056094D01*
Y4052815D01*
X4123687Y4051175D01*
X4130247D01*
X4122047Y4067573D02*
Y4061014D01*
X4128607Y4067573D01*
X4130247D01*
X4131886Y4065934D01*
Y4062654D01*
X4130247Y4061014D01*
X4120407Y4070853D02*
Y4077413D01*
X4122047Y4087252D02*
Y4080693D01*
X4128607Y4087252D01*
X4130247D01*
X4131886Y4085612D01*
Y4082332D01*
X4130247Y4080693D01*
X4161417Y4299213D02*
X4171257D01*
Y4304132D01*
X4169617Y4305772D01*
X4166337D01*
X4164697Y4304132D01*
Y4299213D01*
Y4302492D02*
X4161417Y4305772D01*
X4171257Y4315611D02*
X4169617Y4312332D01*
X4166337Y4309052D01*
X4163057D01*
X4161417Y4310692D01*
Y4313972D01*
X4163057Y4315611D01*
X4164697D01*
X4166337Y4313972D01*
Y4309052D01*
X4169617Y4318891D02*
X4171257Y4320531D01*
Y4323811D01*
X4169617Y4325451D01*
X4163057D01*
X4161417Y4323811D01*
Y4320531D01*
X4163057Y4318891D01*
X4169617D01*
X4161417Y4335290D02*
Y4328730D01*
X4167977Y4335290D01*
X4169617D01*
X4171257Y4333650D01*
Y4330370D01*
X4169617Y4328730D01*
X4159777Y4338570D02*
Y4345129D01*
X4161417Y4348409D02*
Y4351689D01*
Y4350049D01*
X4171257D01*
X4169617Y4348409D01*
X4153543Y3767716D02*
X4163383D01*
Y3772636D01*
X4161743Y3774276D01*
X4158463D01*
X4156823Y3772636D01*
Y3767716D01*
Y3770996D02*
X4153543Y3774276D01*
X4163383Y3784115D02*
X4161743Y3780836D01*
X4158463Y3777556D01*
X4155183D01*
X4153543Y3779196D01*
Y3782476D01*
X4155183Y3784115D01*
X4156823D01*
X4158463Y3782476D01*
Y3777556D01*
X4161743Y3787395D02*
X4163383Y3789035D01*
Y3792315D01*
X4161743Y3793955D01*
X4155183D01*
X4153543Y3792315D01*
Y3789035D01*
X4155183Y3787395D01*
X4161743D01*
Y3797234D02*
X4163383Y3798874D01*
Y3802154D01*
X4161743Y3803794D01*
X4155183D01*
X4153543Y3802154D01*
Y3798874D01*
X4155183Y3797234D01*
X4161743D01*
X4151903Y3807074D02*
Y3813633D01*
X4161743Y3816913D02*
X4163383Y3818553D01*
Y3821833D01*
X4161743Y3823472D01*
X4160103D01*
X4158463Y3821833D01*
Y3820193D01*
Y3821833D01*
X4156823Y3823472D01*
X4155183D01*
X4153543Y3821833D01*
Y3818553D01*
X4155183Y3816913D01*
X4122047Y4090551D02*
X4131886D01*
Y4095471D01*
X4130247Y4097111D01*
X4126967D01*
X4125327Y4095471D01*
Y4090551D01*
Y4093831D02*
X4122047Y4097111D01*
X4131886Y4106950D02*
X4130247Y4103670D01*
X4126967Y4100391D01*
X4123687D01*
X4122047Y4102030D01*
Y4105310D01*
X4123687Y4106950D01*
X4125327D01*
X4126967Y4105310D01*
Y4100391D01*
X4130247Y4110230D02*
X4131886Y4111870D01*
Y4115150D01*
X4130247Y4116789D01*
X4123687D01*
X4122047Y4115150D01*
Y4111870D01*
X4123687Y4110230D01*
X4130247D01*
Y4120069D02*
X4131886Y4121709D01*
Y4124989D01*
X4130247Y4126629D01*
X4123687D01*
X4122047Y4124989D01*
Y4121709D01*
X4123687Y4120069D01*
X4130247D01*
X4120407Y4129908D02*
Y4136468D01*
X4122047Y4146307D02*
Y4139748D01*
X4128607Y4146307D01*
X4130247D01*
X4131886Y4144667D01*
Y4141388D01*
X4130247Y4139748D01*
X4161417Y4366142D02*
X4171257D01*
Y4371061D01*
X4169617Y4372701D01*
X4166337D01*
X4164697Y4371061D01*
Y4366142D01*
Y4369422D02*
X4161417Y4372701D01*
X4171257Y4382541D02*
X4169617Y4379261D01*
X4166337Y4375981D01*
X4163057D01*
X4161417Y4377621D01*
Y4380901D01*
X4163057Y4382541D01*
X4164697D01*
X4166337Y4380901D01*
Y4375981D01*
X4169617Y4385820D02*
X4171257Y4387460D01*
Y4390740D01*
X4169617Y4392380D01*
X4163057D01*
X4161417Y4390740D01*
Y4387460D01*
X4163057Y4385820D01*
X4169617D01*
Y4395660D02*
X4171257Y4397300D01*
Y4400579D01*
X4169617Y4402219D01*
X4163057D01*
X4161417Y4400579D01*
Y4397300D01*
X4163057Y4395660D01*
X4169617D01*
X4159777Y4405499D02*
Y4412058D01*
X4161417Y4415338D02*
Y4418618D01*
Y4416978D01*
X4171257D01*
X4169617Y4415338D01*
X4122047Y3704724D02*
X4131886D01*
Y3709644D01*
X4130247Y3711284D01*
X4126967D01*
X4125327Y3709644D01*
Y3704724D01*
Y3708004D02*
X4122047Y3711284D01*
X4131886Y3721123D02*
X4130247Y3717843D01*
X4126967Y3714564D01*
X4123687D01*
X4122047Y3716204D01*
Y3719483D01*
X4123687Y3721123D01*
X4125327D01*
X4126967Y3719483D01*
Y3714564D01*
X4130247Y3724403D02*
X4131886Y3726043D01*
Y3729323D01*
X4130247Y3730963D01*
X4123687D01*
X4122047Y3729323D01*
Y3726043D01*
X4123687Y3724403D01*
X4130247D01*
Y3734242D02*
X4131886Y3735882D01*
Y3739162D01*
X4130247Y3740802D01*
X4128607D01*
X4126967Y3739162D01*
Y3737522D01*
Y3739162D01*
X4125327Y3740802D01*
X4123687D01*
X4122047Y3739162D01*
Y3735882D01*
X4123687Y3734242D01*
X4120407Y3744082D02*
Y3750641D01*
X4130247Y3753921D02*
X4131886Y3755561D01*
Y3758841D01*
X4130247Y3760480D01*
X4128607D01*
X4126967Y3758841D01*
Y3757201D01*
Y3758841D01*
X4125327Y3760480D01*
X4123687D01*
X4122047Y3758841D01*
Y3755561D01*
X4123687Y3753921D01*
X4090551Y4023622D02*
X4100391D01*
Y4028542D01*
X4098751Y4030182D01*
X4095471D01*
X4093831Y4028542D01*
Y4023622D01*
Y4026902D02*
X4090551Y4030182D01*
X4100391Y4040021D02*
X4098751Y4036741D01*
X4095471Y4033461D01*
X4092191D01*
X4090551Y4035101D01*
Y4038381D01*
X4092191Y4040021D01*
X4093831D01*
X4095471Y4038381D01*
Y4033461D01*
X4098751Y4043301D02*
X4100391Y4044941D01*
Y4048220D01*
X4098751Y4049860D01*
X4092191D01*
X4090551Y4048220D01*
Y4044941D01*
X4092191Y4043301D01*
X4098751D01*
Y4053140D02*
X4100391Y4054780D01*
Y4058060D01*
X4098751Y4059699D01*
X4097111D01*
X4095471Y4058060D01*
Y4056420D01*
Y4058060D01*
X4093831Y4059699D01*
X4092191D01*
X4090551Y4058060D01*
Y4054780D01*
X4092191Y4053140D01*
X4088911Y4062979D02*
Y4069539D01*
X4090551Y4079378D02*
Y4072818D01*
X4097111Y4079378D01*
X4098751D01*
X4100391Y4077738D01*
Y4074458D01*
X4098751Y4072818D01*
X4129921Y4299213D02*
X4139761D01*
Y4304132D01*
X4138121Y4305772D01*
X4134841D01*
X4133201Y4304132D01*
Y4299213D01*
Y4302492D02*
X4129921Y4305772D01*
X4139761Y4315611D02*
X4138121Y4312332D01*
X4134841Y4309052D01*
X4131561D01*
X4129921Y4310692D01*
Y4313972D01*
X4131561Y4315611D01*
X4133201D01*
X4134841Y4313972D01*
Y4309052D01*
X4138121Y4318891D02*
X4139761Y4320531D01*
Y4323811D01*
X4138121Y4325451D01*
X4131561D01*
X4129921Y4323811D01*
Y4320531D01*
X4131561Y4318891D01*
X4138121D01*
Y4328730D02*
X4139761Y4330370D01*
Y4333650D01*
X4138121Y4335290D01*
X4136481D01*
X4134841Y4333650D01*
Y4332010D01*
Y4333650D01*
X4133201Y4335290D01*
X4131561D01*
X4129921Y4333650D01*
Y4330370D01*
X4131561Y4328730D01*
X4128281Y4338570D02*
Y4345129D01*
X4129921Y4348409D02*
Y4351689D01*
Y4350049D01*
X4139761D01*
X4138121Y4348409D01*
X4122047Y3767716D02*
X4131886D01*
Y3772636D01*
X4130247Y3774276D01*
X4126967D01*
X4125327Y3772636D01*
Y3767716D01*
Y3770996D02*
X4122047Y3774276D01*
X4131886Y3784115D02*
X4130247Y3780836D01*
X4126967Y3777556D01*
X4123687D01*
X4122047Y3779196D01*
Y3782476D01*
X4123687Y3784115D01*
X4125327D01*
X4126967Y3782476D01*
Y3777556D01*
X4130247Y3787395D02*
X4131886Y3789035D01*
Y3792315D01*
X4130247Y3793955D01*
X4123687D01*
X4122047Y3792315D01*
Y3789035D01*
X4123687Y3787395D01*
X4130247D01*
X4122047Y3797234D02*
Y3800514D01*
Y3798874D01*
X4131886D01*
X4130247Y3797234D01*
X4120407Y3805434D02*
Y3811993D01*
X4130247Y3815273D02*
X4131886Y3816913D01*
Y3820193D01*
X4130247Y3821833D01*
X4128607D01*
X4126967Y3820193D01*
Y3818553D01*
Y3820193D01*
X4125327Y3821833D01*
X4123687D01*
X4122047Y3820193D01*
Y3816913D01*
X4123687Y3815273D01*
X4090551Y4090551D02*
X4100391D01*
Y4095471D01*
X4098751Y4097111D01*
X4095471D01*
X4093831Y4095471D01*
Y4090551D01*
Y4093831D02*
X4090551Y4097111D01*
X4100391Y4106950D02*
X4098751Y4103670D01*
X4095471Y4100391D01*
X4092191D01*
X4090551Y4102030D01*
Y4105310D01*
X4092191Y4106950D01*
X4093831D01*
X4095471Y4105310D01*
Y4100391D01*
X4098751Y4110230D02*
X4100391Y4111870D01*
Y4115150D01*
X4098751Y4116789D01*
X4092191D01*
X4090551Y4115150D01*
Y4111870D01*
X4092191Y4110230D01*
X4098751D01*
X4090551Y4120069D02*
Y4123349D01*
Y4121709D01*
X4100391D01*
X4098751Y4120069D01*
X4088911Y4128269D02*
Y4134828D01*
X4090551Y4144667D02*
Y4138108D01*
X4097111Y4144667D01*
X4098751D01*
X4100391Y4143028D01*
Y4139748D01*
X4098751Y4138108D01*
X4129921Y4358268D02*
X4139761D01*
Y4363187D01*
X4138121Y4364827D01*
X4134841D01*
X4133201Y4363187D01*
Y4358268D01*
Y4361547D02*
X4129921Y4364827D01*
X4139761Y4374667D02*
X4138121Y4371387D01*
X4134841Y4368107D01*
X4131561D01*
X4129921Y4369747D01*
Y4373027D01*
X4131561Y4374667D01*
X4133201D01*
X4134841Y4373027D01*
Y4368107D01*
X4138121Y4377946D02*
X4139761Y4379586D01*
Y4382866D01*
X4138121Y4384506D01*
X4131561D01*
X4129921Y4382866D01*
Y4379586D01*
X4131561Y4377946D01*
X4138121D01*
X4129921Y4387786D02*
Y4391065D01*
Y4389426D01*
X4139761D01*
X4138121Y4387786D01*
X4128281Y4395985D02*
Y4402544D01*
X4129921Y4405824D02*
Y4409104D01*
Y4407464D01*
X4139761D01*
X4138121Y4405824D01*
X3964892Y3762465D02*
X3966532Y3760825D01*
Y3757545D01*
X3964892Y3755905D01*
X3958333D01*
X3956693Y3757545D01*
Y3760825D01*
X3958333Y3762465D01*
X3966532Y3772304D02*
X3964892Y3769025D01*
X3961613Y3765745D01*
X3958333D01*
X3956693Y3767385D01*
Y3770664D01*
X3958333Y3772304D01*
X3959973D01*
X3961613Y3770664D01*
Y3765745D01*
X3964892Y3775584D02*
X3966532Y3777224D01*
Y3780504D01*
X3964892Y3782144D01*
X3958333D01*
X3956693Y3780504D01*
Y3777224D01*
X3958333Y3775584D01*
X3964892D01*
Y3785423D02*
X3966532Y3787063D01*
Y3790343D01*
X3964892Y3791983D01*
X3958333D01*
X3956693Y3790343D01*
Y3787063D01*
X3958333Y3785423D01*
X3964892D01*
X3955053Y3795263D02*
Y3801822D01*
X3964892Y3805102D02*
X3966532Y3806742D01*
Y3810022D01*
X3964892Y3811662D01*
X3963252D01*
X3961613Y3810022D01*
Y3808382D01*
Y3810022D01*
X3959973Y3811662D01*
X3958333D01*
X3956693Y3810022D01*
Y3806742D01*
X3958333Y3805102D01*
X3933396Y4061678D02*
X3935036Y4060038D01*
Y4056758D01*
X3933396Y4055118D01*
X3926837D01*
X3925197Y4056758D01*
Y4060038D01*
X3926837Y4061678D01*
X3935036Y4071517D02*
X3933396Y4068237D01*
X3930117Y4064957D01*
X3926837D01*
X3925197Y4066597D01*
Y4069877D01*
X3926837Y4071517D01*
X3928477D01*
X3930117Y4069877D01*
Y4064957D01*
X3933396Y4074797D02*
X3935036Y4076437D01*
Y4079716D01*
X3933396Y4081356D01*
X3926837D01*
X3925197Y4079716D01*
Y4076437D01*
X3926837Y4074797D01*
X3933396D01*
Y4084636D02*
X3935036Y4086276D01*
Y4089556D01*
X3933396Y4091195D01*
X3926837D01*
X3925197Y4089556D01*
Y4086276D01*
X3926837Y4084636D01*
X3933396D01*
X3923557Y4094475D02*
Y4101035D01*
X3925197Y4110874D02*
Y4104315D01*
X3931756Y4110874D01*
X3933396D01*
X3935036Y4109234D01*
Y4105954D01*
X3933396Y4104315D01*
X3968829Y4337268D02*
X3970469Y4335628D01*
Y4332349D01*
X3968829Y4330709D01*
X3962270D01*
X3960630Y4332349D01*
Y4335628D01*
X3962270Y4337268D01*
X3970469Y4347108D02*
X3968829Y4343828D01*
X3965550Y4340548D01*
X3962270D01*
X3960630Y4342188D01*
Y4345468D01*
X3962270Y4347108D01*
X3963910D01*
X3965550Y4345468D01*
Y4340548D01*
X3968829Y4350387D02*
X3970469Y4352027D01*
Y4355307D01*
X3968829Y4356947D01*
X3962270D01*
X3960630Y4355307D01*
Y4352027D01*
X3962270Y4350387D01*
X3968829D01*
Y4360227D02*
X3970469Y4361867D01*
Y4365146D01*
X3968829Y4366786D01*
X3962270D01*
X3960630Y4365146D01*
Y4361867D01*
X3962270Y4360227D01*
X3968829D01*
X3958990Y4370066D02*
Y4376625D01*
X3960630Y4379905D02*
Y4383185D01*
Y4381545D01*
X3970469D01*
X3968829Y4379905D01*
X4796590Y4905837D02*
X4798230Y4907477D01*
X4801510D01*
X4803150Y4905837D01*
Y4899278D01*
X4801510Y4897638D01*
X4798230D01*
X4796590Y4899278D01*
X4786751Y4897638D02*
X4793310D01*
X4786751Y4904197D01*
Y4905837D01*
X4788391Y4907477D01*
X4791670D01*
X4793310Y4905837D01*
X4783471D02*
X4781831Y4907477D01*
X4778551D01*
X4776912Y4905837D01*
Y4899278D01*
X4778551Y4897638D01*
X4781831D01*
X4783471Y4899278D01*
Y4905837D01*
X4773632D02*
X4771992Y4907477D01*
X4768712D01*
X4767072Y4905837D01*
Y4899278D01*
X4768712Y4897638D01*
X4771992D01*
X4773632Y4899278D01*
Y4905837D01*
X4312338Y4496388D02*
X4313978Y4498028D01*
X4317258D01*
X4318898Y4496388D01*
Y4489829D01*
X4317258Y4488189D01*
X4313978D01*
X4312338Y4489829D01*
X4309058Y4498028D02*
X4302499D01*
Y4496388D01*
X4309058Y4489829D01*
Y4488189D01*
X4299219Y4496388D02*
X4297579Y4498028D01*
X4294299D01*
X4292659Y4496388D01*
Y4489829D01*
X4294299Y4488189D01*
X4297579D01*
X4299219Y4489829D01*
Y4496388D01*
X4289380Y4488189D02*
X4286100D01*
X4287740D01*
Y4498028D01*
X4289380Y4496388D01*
X4091866Y4858593D02*
X4093506Y4860233D01*
X4096785D01*
X4098425Y4858593D01*
Y4852034D01*
X4096785Y4850394D01*
X4093506D01*
X4091866Y4852034D01*
X4088586Y4860233D02*
X4082026D01*
Y4858593D01*
X4088586Y4852034D01*
Y4850394D01*
X4078747Y4858593D02*
X4077107Y4860233D01*
X4073827D01*
X4072187Y4858593D01*
Y4852034D01*
X4073827Y4850394D01*
X4077107D01*
X4078747Y4852034D01*
Y4858593D01*
X4068907D02*
X4067267Y4860233D01*
X4063988D01*
X4062348Y4858593D01*
Y4852034D01*
X4063988Y4850394D01*
X4067267D01*
X4068907Y4852034D01*
Y4858593D01*
X4960955Y3652229D02*
X4962595Y3650589D01*
Y3647309D01*
X4960955Y3645669D01*
X4954396D01*
X4952756Y3647309D01*
Y3650589D01*
X4954396Y3652229D01*
X4960955Y3655509D02*
X4962595Y3657148D01*
Y3660428D01*
X4960955Y3662068D01*
X4959315D01*
X4957676Y3660428D01*
Y3658788D01*
Y3660428D01*
X4956036Y3662068D01*
X4954396D01*
X4952756Y3660428D01*
Y3657148D01*
X4954396Y3655509D01*
X4952756Y3665348D02*
Y3668628D01*
Y3666988D01*
X4962595D01*
X4960955Y3665348D01*
X4952756Y3678467D02*
X4962595D01*
X4957676Y3673547D01*
Y3680107D01*
X4951116Y3683387D02*
Y3689946D01*
X4952756Y3699785D02*
Y3693226D01*
X4959315Y3699785D01*
X4960955D01*
X4962595Y3698146D01*
Y3694866D01*
X4960955Y3693226D01*
X4984577Y4246717D02*
X4986217Y4245077D01*
Y4241797D01*
X4984577Y4240158D01*
X4978018D01*
X4976378Y4241797D01*
Y4245077D01*
X4978018Y4246717D01*
X4984577Y4249997D02*
X4986217Y4251637D01*
Y4254917D01*
X4984577Y4256556D01*
X4982938D01*
X4981298Y4254917D01*
Y4253277D01*
Y4254917D01*
X4979658Y4256556D01*
X4978018D01*
X4976378Y4254917D01*
Y4251637D01*
X4978018Y4249997D01*
X4976378Y4259836D02*
Y4263116D01*
Y4261476D01*
X4986217D01*
X4984577Y4259836D01*
X4976378Y4272955D02*
X4986217D01*
X4981298Y4268035D01*
Y4274595D01*
X4974738Y4277875D02*
Y4284434D01*
X4976378Y4287714D02*
Y4290994D01*
Y4289354D01*
X4986217D01*
X4984577Y4287714D01*
X5256231Y3742780D02*
X5257871Y3741140D01*
Y3737860D01*
X5256231Y3736220D01*
X5249671D01*
X5248032Y3737860D01*
Y3741140D01*
X5249671Y3742780D01*
X5256231Y3746060D02*
X5257871Y3747700D01*
Y3750979D01*
X5256231Y3752619D01*
X5254591D01*
X5252951Y3750979D01*
Y3749340D01*
Y3750979D01*
X5251311Y3752619D01*
X5249671D01*
X5248032Y3750979D01*
Y3747700D01*
X5249671Y3746060D01*
X5248032Y3755899D02*
Y3759179D01*
Y3757539D01*
X5257871D01*
X5256231Y3755899D01*
Y3764099D02*
X5257871Y3765738D01*
Y3769018D01*
X5256231Y3770658D01*
X5254591D01*
X5252951Y3769018D01*
Y3767378D01*
Y3769018D01*
X5251311Y3770658D01*
X5249671D01*
X5248032Y3769018D01*
Y3765738D01*
X5249671Y3764099D01*
X5246392Y3773938D02*
Y3780497D01*
X5248032Y3790337D02*
Y3783777D01*
X5254591Y3790337D01*
X5256231D01*
X5257871Y3788697D01*
Y3785417D01*
X5256231Y3783777D01*
Y4356953D02*
X5257871Y4355313D01*
Y4352034D01*
X5256231Y4350394D01*
X5249671D01*
X5248032Y4352034D01*
Y4355313D01*
X5249671Y4356953D01*
X5256231Y4360233D02*
X5257871Y4361873D01*
Y4365153D01*
X5256231Y4366792D01*
X5254591D01*
X5252951Y4365153D01*
Y4363513D01*
Y4365153D01*
X5251311Y4366792D01*
X5249671D01*
X5248032Y4365153D01*
Y4361873D01*
X5249671Y4360233D01*
X5248032Y4370072D02*
Y4373352D01*
Y4371712D01*
X5257871D01*
X5256231Y4370072D01*
Y4378272D02*
X5257871Y4379912D01*
Y4383191D01*
X5256231Y4384831D01*
X5254591D01*
X5252951Y4383191D01*
Y4381551D01*
Y4383191D01*
X5251311Y4384831D01*
X5249671D01*
X5248032Y4383191D01*
Y4379912D01*
X5249671Y4378272D01*
X5246392Y4388111D02*
Y4394671D01*
X5248032Y4397950D02*
Y4401230D01*
Y4399590D01*
X5257871D01*
X5256231Y4397950D01*
X5362205Y4318898D02*
Y4328737D01*
X5357285D01*
X5355645Y4327097D01*
Y4323817D01*
X5357285Y4322177D01*
X5362205D01*
X5358925D02*
X5355645Y4318898D01*
X5352365Y4327097D02*
X5350725Y4328737D01*
X5347446D01*
X5345806Y4327097D01*
Y4325457D01*
X5347446Y4323817D01*
X5349086D01*
X5347446D01*
X5345806Y4322177D01*
Y4320538D01*
X5347446Y4318898D01*
X5350725D01*
X5352365Y4320538D01*
X5342526Y4318898D02*
X5339246D01*
X5340886D01*
Y4328737D01*
X5342526Y4327097D01*
X5334327Y4320538D02*
X5332687Y4318898D01*
X5329407D01*
X5327767Y4320538D01*
Y4327097D01*
X5329407Y4328737D01*
X5332687D01*
X5334327Y4327097D01*
Y4325457D01*
X5332687Y4323817D01*
X5327767D01*
X5324487Y4317258D02*
X5317928D01*
X5314648Y4318898D02*
X5311368D01*
X5313008D01*
Y4328737D01*
X5314648Y4327097D01*
X5362205Y4354331D02*
Y4364170D01*
X5357285D01*
X5355645Y4362530D01*
Y4359250D01*
X5357285Y4357610D01*
X5362205D01*
X5358925D02*
X5355645Y4354331D01*
X5352365Y4362530D02*
X5350725Y4364170D01*
X5347446D01*
X5345806Y4362530D01*
Y4360890D01*
X5347446Y4359250D01*
X5349086D01*
X5347446D01*
X5345806Y4357610D01*
Y4355971D01*
X5347446Y4354331D01*
X5350725D01*
X5352365Y4355971D01*
X5342526Y4354331D02*
X5339246D01*
X5340886D01*
Y4364170D01*
X5342526Y4362530D01*
X5334327D02*
X5332687Y4364170D01*
X5329407D01*
X5327767Y4362530D01*
Y4360890D01*
X5329407Y4359250D01*
X5327767Y4357610D01*
Y4355971D01*
X5329407Y4354331D01*
X5332687D01*
X5334327Y4355971D01*
Y4357610D01*
X5332687Y4359250D01*
X5334327Y4360890D01*
Y4362530D01*
X5332687Y4359250D02*
X5329407D01*
X5324487Y4352691D02*
X5317928D01*
X5314648Y4354331D02*
X5311368D01*
X5313008D01*
Y4364170D01*
X5314648Y4362530D01*
X5395015Y4740483D02*
X5396655Y4742123D01*
X5399935D01*
X5401575Y4740483D01*
Y4733923D01*
X5399935Y4732283D01*
X5396655D01*
X5395015Y4733923D01*
X5391735Y4740483D02*
X5390096Y4742123D01*
X5386816D01*
X5385176Y4740483D01*
Y4738843D01*
X5386816Y4737203D01*
X5388456D01*
X5386816D01*
X5385176Y4735563D01*
Y4733923D01*
X5386816Y4732283D01*
X5390096D01*
X5391735Y4733923D01*
X5375337Y4732283D02*
X5381896D01*
X5375337Y4738843D01*
Y4740483D01*
X5376976Y4742123D01*
X5380256D01*
X5381896Y4740483D01*
X5367137Y4732283D02*
Y4742123D01*
X5372057Y4737203D01*
X5365497D01*
X5362218Y4730644D02*
X5355658D01*
X5352378Y4732283D02*
X5349099D01*
X5350738D01*
Y4742123D01*
X5352378Y4740483D01*
X5330709Y3744095D02*
Y3753934D01*
X5325789D01*
X5324149Y3752294D01*
Y3749014D01*
X5325789Y3747374D01*
X5330709D01*
X5327429D02*
X5324149Y3744095D01*
X5320869Y3752294D02*
X5319229Y3753934D01*
X5315950D01*
X5314310Y3752294D01*
Y3750654D01*
X5315950Y3749014D01*
X5317590D01*
X5315950D01*
X5314310Y3747374D01*
Y3745734D01*
X5315950Y3744095D01*
X5319229D01*
X5320869Y3745734D01*
X5311030Y3744095D02*
X5307750D01*
X5309390D01*
Y3753934D01*
X5311030Y3752294D01*
X5296271Y3753934D02*
X5302831D01*
Y3749014D01*
X5299551Y3750654D01*
X5297911D01*
X5296271Y3749014D01*
Y3745734D01*
X5297911Y3744095D01*
X5301191D01*
X5302831Y3745734D01*
X5292991Y3742455D02*
X5286432D01*
X5276592Y3744095D02*
X5283152D01*
X5276592Y3750654D01*
Y3752294D01*
X5278232Y3753934D01*
X5281512D01*
X5283152Y3752294D01*
X5291339Y4303150D02*
Y4312989D01*
X5286419D01*
X5284779Y4311349D01*
Y4308069D01*
X5286419Y4306429D01*
X5291339D01*
X5288059D02*
X5284779Y4303150D01*
X5281499Y4311349D02*
X5279859Y4312989D01*
X5276580D01*
X5274940Y4311349D01*
Y4309709D01*
X5276580Y4308069D01*
X5278220D01*
X5276580D01*
X5274940Y4306429D01*
Y4304789D01*
X5276580Y4303150D01*
X5279859D01*
X5281499Y4304789D01*
X5271660Y4303150D02*
X5268380D01*
X5270020D01*
Y4312989D01*
X5271660Y4311349D01*
X5256901Y4312989D02*
X5263461D01*
Y4308069D01*
X5260181Y4309709D01*
X5258541D01*
X5256901Y4308069D01*
Y4304789D01*
X5258541Y4303150D01*
X5261821D01*
X5263461Y4304789D01*
X5253621Y4301510D02*
X5247062D01*
X5243782Y4303150D02*
X5240502D01*
X5242142D01*
Y4312989D01*
X5243782Y4311349D01*
X4964567Y3763780D02*
X4974406D01*
Y3768699D01*
X4972766Y3770339D01*
X4969487D01*
X4967847Y3768699D01*
Y3763780D01*
Y3767059D02*
X4964567Y3770339D01*
X4972766Y3773619D02*
X4974406Y3775259D01*
Y3778539D01*
X4972766Y3780178D01*
X4971126D01*
X4969487Y3778539D01*
Y3776899D01*
Y3778539D01*
X4967847Y3780178D01*
X4966207D01*
X4964567Y3778539D01*
Y3775259D01*
X4966207Y3773619D01*
X4964567Y3783458D02*
Y3786738D01*
Y3785098D01*
X4974406D01*
X4972766Y3783458D01*
X4964567Y3791657D02*
Y3794937D01*
Y3793297D01*
X4974406D01*
X4972766Y3791657D01*
X4962927Y3799857D02*
Y3806416D01*
X4964567Y3816256D02*
Y3809696D01*
X4971126Y3816256D01*
X4972766D01*
X4974406Y3814616D01*
Y3811336D01*
X4972766Y3809696D01*
X4964567Y4322835D02*
X4974406D01*
Y4327754D01*
X4972766Y4329394D01*
X4969487D01*
X4967847Y4327754D01*
Y4322835D01*
Y4326114D02*
X4964567Y4329394D01*
X4972766Y4332674D02*
X4974406Y4334314D01*
Y4337594D01*
X4972766Y4339233D01*
X4971126D01*
X4969487Y4337594D01*
Y4335954D01*
Y4337594D01*
X4967847Y4339233D01*
X4966207D01*
X4964567Y4337594D01*
Y4334314D01*
X4966207Y4332674D01*
X4964567Y4342513D02*
Y4345793D01*
Y4344153D01*
X4974406D01*
X4972766Y4342513D01*
X4964567Y4350713D02*
Y4353992D01*
Y4352352D01*
X4974406D01*
X4972766Y4350713D01*
X4962927Y4358912D02*
Y4365471D01*
X4964567Y4368751D02*
Y4372031D01*
Y4370391D01*
X4974406D01*
X4972766Y4368751D01*
X4996063Y3637795D02*
X5005902D01*
Y3642715D01*
X5004262Y3644355D01*
X5000983D01*
X4999343Y3642715D01*
Y3637795D01*
Y3641075D02*
X4996063Y3644355D01*
X5004262Y3647635D02*
X5005902Y3649274D01*
Y3652554D01*
X5004262Y3654194D01*
X5002623D01*
X5000983Y3652554D01*
Y3650914D01*
Y3652554D01*
X4999343Y3654194D01*
X4997703D01*
X4996063Y3652554D01*
Y3649274D01*
X4997703Y3647635D01*
X4996063Y3657474D02*
Y3660754D01*
Y3659114D01*
X5005902D01*
X5004262Y3657474D01*
Y3665673D02*
X5005902Y3667313D01*
Y3670593D01*
X5004262Y3672233D01*
X5002623D01*
X5000983Y3670593D01*
Y3668953D01*
Y3670593D01*
X4999343Y3672233D01*
X4997703D01*
X4996063Y3670593D01*
Y3667313D01*
X4997703Y3665673D01*
X4994423Y3675513D02*
Y3682072D01*
X4996063Y3691911D02*
Y3685352D01*
X5002623Y3691911D01*
X5004262D01*
X5005902Y3690272D01*
Y3686992D01*
X5004262Y3685352D01*
X5019685Y4248032D02*
X5029524D01*
Y4252951D01*
X5027884Y4254591D01*
X5024605D01*
X5022965Y4252951D01*
Y4248032D01*
Y4251311D02*
X5019685Y4254591D01*
X5027884Y4257871D02*
X5029524Y4259511D01*
Y4262791D01*
X5027884Y4264430D01*
X5026244D01*
X5024605Y4262791D01*
Y4261151D01*
Y4262791D01*
X5022965Y4264430D01*
X5021325D01*
X5019685Y4262791D01*
Y4259511D01*
X5021325Y4257871D01*
X5019685Y4267710D02*
Y4270990D01*
Y4269350D01*
X5029524D01*
X5027884Y4267710D01*
Y4275909D02*
X5029524Y4277549D01*
Y4280829D01*
X5027884Y4282469D01*
X5026244D01*
X5024605Y4280829D01*
Y4279189D01*
Y4280829D01*
X5022965Y4282469D01*
X5021325D01*
X5019685Y4280829D01*
Y4277549D01*
X5021325Y4275909D01*
X5018045Y4285749D02*
Y4292308D01*
X5019685Y4295588D02*
Y4298868D01*
Y4297228D01*
X5029524D01*
X5027884Y4295588D01*
X5267717Y3669291D02*
Y3679131D01*
X5262797D01*
X5261157Y3677491D01*
Y3674211D01*
X5262797Y3672571D01*
X5267717D01*
X5264437D02*
X5261157Y3669291D01*
X5257877Y3677491D02*
X5256237Y3679131D01*
X5252958D01*
X5251318Y3677491D01*
Y3675851D01*
X5252958Y3674211D01*
X5254597D01*
X5252958D01*
X5251318Y3672571D01*
Y3670931D01*
X5252958Y3669291D01*
X5256237D01*
X5257877Y3670931D01*
X5248038Y3669291D02*
X5244758D01*
X5246398D01*
Y3679131D01*
X5248038Y3677491D01*
X5239838D02*
X5238199Y3679131D01*
X5234919D01*
X5233279Y3677491D01*
Y3670931D01*
X5234919Y3669291D01*
X5238199D01*
X5239838Y3670931D01*
Y3677491D01*
X5229999Y3667651D02*
X5223440D01*
X5213600Y3669291D02*
X5220160D01*
X5213600Y3675851D01*
Y3677491D01*
X5215240Y3679131D01*
X5218520D01*
X5220160Y3677491D01*
X5283465Y4232283D02*
X5293304D01*
Y4237203D01*
X5291664Y4238843D01*
X5288384D01*
X5286744Y4237203D01*
Y4232283D01*
Y4235563D02*
X5283465Y4238843D01*
X5291664Y4242123D02*
X5293304Y4243763D01*
Y4247042D01*
X5291664Y4248682D01*
X5290024D01*
X5288384Y4247042D01*
Y4245403D01*
Y4247042D01*
X5286744Y4248682D01*
X5285105D01*
X5283465Y4247042D01*
Y4243763D01*
X5285105Y4242123D01*
X5283465Y4251962D02*
Y4255242D01*
Y4253602D01*
X5293304D01*
X5291664Y4251962D01*
Y4260162D02*
X5293304Y4261801D01*
Y4265081D01*
X5291664Y4266721D01*
X5285105D01*
X5283465Y4265081D01*
Y4261801D01*
X5285105Y4260162D01*
X5291664D01*
X5281825Y4270001D02*
Y4276560D01*
X5283465Y4279840D02*
Y4283120D01*
Y4281480D01*
X5293304D01*
X5291664Y4279840D01*
X5267717Y3629921D02*
Y3639761D01*
X5262797D01*
X5261157Y3638121D01*
Y3634841D01*
X5262797Y3633201D01*
X5267717D01*
X5264437D02*
X5261157Y3629921D01*
X5257877Y3638121D02*
X5256237Y3639761D01*
X5252958D01*
X5251318Y3638121D01*
Y3636481D01*
X5252958Y3634841D01*
X5254597D01*
X5252958D01*
X5251318Y3633201D01*
Y3631561D01*
X5252958Y3629921D01*
X5256237D01*
X5257877Y3631561D01*
X5248038Y3638121D02*
X5246398Y3639761D01*
X5243118D01*
X5241478Y3638121D01*
Y3631561D01*
X5243118Y3629921D01*
X5246398D01*
X5248038Y3631561D01*
Y3638121D01*
X5238199Y3631561D02*
X5236559Y3629921D01*
X5233279D01*
X5231639Y3631561D01*
Y3638121D01*
X5233279Y3639761D01*
X5236559D01*
X5238199Y3638121D01*
Y3636481D01*
X5236559Y3634841D01*
X5231639D01*
X5228359Y3628281D02*
X5221800D01*
X5211961Y3629921D02*
X5218520D01*
X5211961Y3636481D01*
Y3638121D01*
X5213600Y3639761D01*
X5216880D01*
X5218520Y3638121D01*
X5244095Y4232283D02*
X5253934D01*
Y4237203D01*
X5252294Y4238843D01*
X5249014D01*
X5247374Y4237203D01*
Y4232283D01*
Y4235563D02*
X5244095Y4238843D01*
X5252294Y4242123D02*
X5253934Y4243763D01*
Y4247042D01*
X5252294Y4248682D01*
X5250654D01*
X5249014Y4247042D01*
Y4245403D01*
Y4247042D01*
X5247374Y4248682D01*
X5245734D01*
X5244095Y4247042D01*
Y4243763D01*
X5245734Y4242123D01*
X5252294Y4251962D02*
X5253934Y4253602D01*
Y4256882D01*
X5252294Y4258522D01*
X5245734D01*
X5244095Y4256882D01*
Y4253602D01*
X5245734Y4251962D01*
X5252294D01*
X5245734Y4261801D02*
X5244095Y4263441D01*
Y4266721D01*
X5245734Y4268361D01*
X5252294D01*
X5253934Y4266721D01*
Y4263441D01*
X5252294Y4261801D01*
X5250654D01*
X5249014Y4263441D01*
Y4268361D01*
X5242455Y4271641D02*
Y4278200D01*
X5244095Y4281480D02*
Y4284760D01*
Y4283120D01*
X5253934D01*
X5252294Y4281480D01*
X5253283Y4681428D02*
X5254923Y4683068D01*
X5258203D01*
X5259842Y4681428D01*
Y4674868D01*
X5258203Y4673228D01*
X5254923D01*
X5253283Y4674868D01*
X5250003Y4681428D02*
X5248363Y4683068D01*
X5245083D01*
X5243444Y4681428D01*
Y4679788D01*
X5245083Y4678148D01*
X5246723D01*
X5245083D01*
X5243444Y4676508D01*
Y4674868D01*
X5245083Y4673228D01*
X5248363D01*
X5250003Y4674868D01*
X5233604Y4673228D02*
X5240164D01*
X5233604Y4679788D01*
Y4681428D01*
X5235244Y4683068D01*
X5238524D01*
X5240164Y4681428D01*
X5230325Y4673228D02*
X5227045D01*
X5228685D01*
Y4683068D01*
X5230325Y4681428D01*
X5222125Y4671588D02*
X5215566D01*
X5212286Y4673228D02*
X5209006D01*
X5210646D01*
Y4683068D01*
X5212286Y4681428D01*
X5040685Y4657806D02*
X5042324Y4659446D01*
X5045604D01*
X5047244Y4657806D01*
Y4651246D01*
X5045604Y4649606D01*
X5042324D01*
X5040685Y4651246D01*
X5037405Y4657806D02*
X5035765Y4659446D01*
X5032485D01*
X5030845Y4657806D01*
Y4656166D01*
X5032485Y4654526D01*
X5034125D01*
X5032485D01*
X5030845Y4652886D01*
Y4651246D01*
X5032485Y4649606D01*
X5035765D01*
X5037405Y4651246D01*
X5027565Y4649606D02*
X5024286D01*
X5025926D01*
Y4659446D01*
X5027565Y4657806D01*
X5019366Y4659446D02*
X5012807D01*
Y4657806D01*
X5019366Y4651246D01*
Y4649606D01*
X5009527Y4647966D02*
X5002967D01*
X4999688Y4649606D02*
X4996408D01*
X4998048D01*
Y4659446D01*
X4999688Y4657806D01*
X5185365Y4140418D02*
X5187005Y4138778D01*
Y4135498D01*
X5185365Y4133858D01*
X5178805D01*
X5177165Y4135498D01*
Y4138778D01*
X5178805Y4140418D01*
X5185365Y4143698D02*
X5187005Y4145337D01*
Y4148617D01*
X5185365Y4150257D01*
X5183725D01*
X5182085Y4148617D01*
Y4146977D01*
Y4148617D01*
X5180445Y4150257D01*
X5178805D01*
X5177165Y4148617D01*
Y4145337D01*
X5178805Y4143698D01*
X5177165Y4153537D02*
Y4156817D01*
Y4155177D01*
X5187005D01*
X5185365Y4153537D01*
Y4161736D02*
X5187005Y4163376D01*
Y4166656D01*
X5185365Y4168296D01*
X5183725D01*
X5182085Y4166656D01*
X5180445Y4168296D01*
X5178805D01*
X5177165Y4166656D01*
Y4163376D01*
X5178805Y4161736D01*
X5180445D01*
X5182085Y4163376D01*
X5183725Y4161736D01*
X5185365D01*
X5182085Y4163376D02*
Y4166656D01*
X5175525Y4171576D02*
Y4178135D01*
X5177165Y4181415D02*
Y4184695D01*
Y4183055D01*
X5187005D01*
X5185365Y4181415D01*
X5068244Y3862530D02*
X5069883Y3864170D01*
X5073163D01*
X5074803Y3862530D01*
Y3855971D01*
X5073163Y3854331D01*
X5069883D01*
X5068244Y3855971D01*
X5064964Y3862530D02*
X5063324Y3864170D01*
X5060044D01*
X5058404Y3862530D01*
Y3860890D01*
X5060044Y3859250D01*
X5061684D01*
X5060044D01*
X5058404Y3857610D01*
Y3855971D01*
X5060044Y3854331D01*
X5063324D01*
X5064964Y3855971D01*
X5055124Y3854331D02*
X5051845D01*
X5053485D01*
Y3864170D01*
X5055124Y3862530D01*
X5040366Y3864170D02*
X5046925D01*
Y3859250D01*
X5043645Y3860890D01*
X5042005D01*
X5040366Y3859250D01*
Y3855971D01*
X5042005Y3854331D01*
X5045285D01*
X5046925Y3855971D01*
X5037086Y3852691D02*
X5030526D01*
X5020687Y3854331D02*
X5027247D01*
X5020687Y3860890D01*
Y3862530D01*
X5022327Y3864170D01*
X5025607D01*
X5027247Y3862530D01*
X5123362Y4472766D02*
X5125002Y4474406D01*
X5128281D01*
X5129921Y4472766D01*
Y4466207D01*
X5128281Y4464567D01*
X5125002D01*
X5123362Y4466207D01*
X5120082Y4472766D02*
X5118442Y4474406D01*
X5115162D01*
X5113523Y4472766D01*
Y4471126D01*
X5115162Y4469487D01*
X5116802D01*
X5115162D01*
X5113523Y4467847D01*
Y4466207D01*
X5115162Y4464567D01*
X5118442D01*
X5120082Y4466207D01*
X5110243Y4464567D02*
X5106963D01*
X5108603D01*
Y4474406D01*
X5110243Y4472766D01*
X5095484Y4474406D02*
X5102043D01*
Y4469487D01*
X5098764Y4471126D01*
X5097124D01*
X5095484Y4469487D01*
Y4466207D01*
X5097124Y4464567D01*
X5100403D01*
X5102043Y4466207D01*
X5092204Y4462927D02*
X5085645D01*
X5082365Y4464567D02*
X5079085D01*
X5080725D01*
Y4474406D01*
X5082365Y4472766D01*
X5162732Y3673554D02*
X5164372Y3675194D01*
X5167651D01*
X5169291Y3673554D01*
Y3666994D01*
X5167651Y3665354D01*
X5164372D01*
X5162732Y3666994D01*
X5159452Y3673554D02*
X5157812Y3675194D01*
X5154532D01*
X5152892Y3673554D01*
Y3671914D01*
X5154532Y3670274D01*
X5156172D01*
X5154532D01*
X5152892Y3668634D01*
Y3666994D01*
X5154532Y3665354D01*
X5157812D01*
X5159452Y3666994D01*
X5149613Y3665354D02*
X5146333D01*
X5147973D01*
Y3675194D01*
X5149613Y3673554D01*
X5134854Y3675194D02*
X5138133Y3673554D01*
X5141413Y3670274D01*
Y3666994D01*
X5139773Y3665354D01*
X5136494D01*
X5134854Y3666994D01*
Y3668634D01*
X5136494Y3670274D01*
X5141413D01*
X5131574Y3663714D02*
X5125015D01*
X5115175Y3665354D02*
X5121735D01*
X5115175Y3671914D01*
Y3673554D01*
X5116815Y3675194D01*
X5120095D01*
X5121735Y3673554D01*
X5174543Y4287727D02*
X5176183Y4289367D01*
X5179462D01*
X5181102Y4287727D01*
Y4281167D01*
X5179462Y4279528D01*
X5176183D01*
X5174543Y4281167D01*
X5171263Y4287727D02*
X5169623Y4289367D01*
X5166343D01*
X5164703Y4287727D01*
Y4286087D01*
X5166343Y4284447D01*
X5167983D01*
X5166343D01*
X5164703Y4282807D01*
Y4281167D01*
X5166343Y4279528D01*
X5169623D01*
X5171263Y4281167D01*
X5161424Y4279528D02*
X5158144D01*
X5159784D01*
Y4289367D01*
X5161424Y4287727D01*
X5146665Y4289367D02*
X5149944Y4287727D01*
X5153224Y4284447D01*
Y4281167D01*
X5151584Y4279528D01*
X5148305D01*
X5146665Y4281167D01*
Y4282807D01*
X5148305Y4284447D01*
X5153224D01*
X5143385Y4277888D02*
X5136825D01*
X5133546Y4279528D02*
X5130266D01*
X5131906D01*
Y4289367D01*
X5133546Y4287727D01*
X5531821Y4683725D02*
X5533461Y4682085D01*
Y4678805D01*
X5531821Y4677165D01*
X5525262D01*
X5523622Y4678805D01*
Y4682085D01*
X5525262Y4683725D01*
X5531821Y4687005D02*
X5533461Y4688645D01*
Y4691924D01*
X5531821Y4693564D01*
X5530181D01*
X5528542Y4691924D01*
Y4690284D01*
Y4691924D01*
X5526902Y4693564D01*
X5525262D01*
X5523622Y4691924D01*
Y4688645D01*
X5525262Y4687005D01*
X5523622Y4703404D02*
Y4696844D01*
X5530181Y4703404D01*
X5531821D01*
X5533461Y4701764D01*
Y4698484D01*
X5531821Y4696844D01*
Y4706683D02*
X5533461Y4708323D01*
Y4711603D01*
X5531821Y4713243D01*
X5530181D01*
X5528542Y4711603D01*
Y4709963D01*
Y4711603D01*
X5526902Y4713243D01*
X5525262D01*
X5523622Y4711603D01*
Y4708323D01*
X5525262Y4706683D01*
X5521982Y4716523D02*
Y4723082D01*
X5523622Y4726362D02*
Y4729642D01*
Y4728002D01*
X5533461D01*
X5531821Y4726362D01*
X5395015Y4787727D02*
X5396655Y4789367D01*
X5399935D01*
X5401575Y4787727D01*
Y4781167D01*
X5399935Y4779528D01*
X5396655D01*
X5395015Y4781167D01*
X5391735Y4787727D02*
X5390096Y4789367D01*
X5386816D01*
X5385176Y4787727D01*
Y4786087D01*
X5386816Y4784447D01*
X5388456D01*
X5386816D01*
X5385176Y4782807D01*
Y4781167D01*
X5386816Y4779528D01*
X5390096D01*
X5391735Y4781167D01*
X5375337Y4779528D02*
X5381896D01*
X5375337Y4786087D01*
Y4787727D01*
X5376976Y4789367D01*
X5380256D01*
X5381896Y4787727D01*
X5365497Y4779528D02*
X5372057D01*
X5365497Y4786087D01*
Y4787727D01*
X5367137Y4789367D01*
X5370417D01*
X5372057Y4787727D01*
X5362218Y4777888D02*
X5355658D01*
X5352378Y4779528D02*
X5349099D01*
X5350738D01*
Y4789367D01*
X5352378Y4787727D01*
X5186354Y3378278D02*
X5187994Y3379918D01*
X5191274D01*
X5192913Y3378278D01*
Y3371719D01*
X5191274Y3370079D01*
X5187994D01*
X5186354Y3371719D01*
X5183074Y3378278D02*
X5181434Y3379918D01*
X5178154D01*
X5176515Y3378278D01*
Y3376638D01*
X5178154Y3374998D01*
X5179794D01*
X5178154D01*
X5176515Y3373358D01*
Y3371719D01*
X5178154Y3370079D01*
X5181434D01*
X5183074Y3371719D01*
X5166675Y3370079D02*
X5173235D01*
X5166675Y3376638D01*
Y3378278D01*
X5168315Y3379918D01*
X5171595D01*
X5173235Y3378278D01*
X5163395D02*
X5161756Y3379918D01*
X5158476D01*
X5156836Y3378278D01*
Y3371719D01*
X5158476Y3370079D01*
X5161756D01*
X5163395Y3371719D01*
Y3378278D01*
X5153556Y3368439D02*
X5146997D01*
X5137157Y3370079D02*
X5143717D01*
X5137157Y3376638D01*
Y3378278D01*
X5138797Y3379918D01*
X5142077D01*
X5143717Y3378278D01*
X5253283Y4728672D02*
X5254923Y4730312D01*
X5258203D01*
X5259842Y4728672D01*
Y4722112D01*
X5258203Y4720472D01*
X5254923D01*
X5253283Y4722112D01*
X5250003Y4728672D02*
X5248363Y4730312D01*
X5245083D01*
X5243444Y4728672D01*
Y4727032D01*
X5245083Y4725392D01*
X5246723D01*
X5245083D01*
X5243444Y4723752D01*
Y4722112D01*
X5245083Y4720472D01*
X5248363D01*
X5250003Y4722112D01*
X5233604Y4720472D02*
X5240164D01*
X5233604Y4727032D01*
Y4728672D01*
X5235244Y4730312D01*
X5238524D01*
X5240164Y4728672D01*
X5230325D02*
X5228685Y4730312D01*
X5225405D01*
X5223765Y4728672D01*
Y4722112D01*
X5225405Y4720472D01*
X5228685D01*
X5230325Y4722112D01*
Y4728672D01*
X5220485Y4718833D02*
X5213926D01*
X5210646Y4720472D02*
X5207366D01*
X5209006D01*
Y4730312D01*
X5210646Y4728672D01*
X5299213Y4785430D02*
Y4775591D01*
X5292653D01*
X5289373Y4783790D02*
X5287733Y4785430D01*
X5284454D01*
X5282814Y4783790D01*
Y4782150D01*
X5284454Y4780510D01*
X5286093D01*
X5284454D01*
X5282814Y4778870D01*
Y4777230D01*
X5284454Y4775591D01*
X5287733D01*
X5289373Y4777230D01*
X5279534Y4783790D02*
X5277894Y4785430D01*
X5274614D01*
X5272975Y4783790D01*
Y4777230D01*
X5274614Y4775591D01*
X5277894D01*
X5279534Y4777230D01*
Y4783790D01*
X5269695D02*
X5268055Y4785430D01*
X5264775D01*
X5263135Y4783790D01*
Y4777230D01*
X5264775Y4775591D01*
X5268055D01*
X5269695Y4777230D01*
Y4783790D01*
X5259855Y4773951D02*
X5253296D01*
X5250016Y4775591D02*
X5246736D01*
X5248376D01*
Y4785430D01*
X5250016Y4783790D01*
X5055118Y4251968D02*
X5064957D01*
Y4256888D01*
X5063318Y4258528D01*
X5060038D01*
X5058398Y4256888D01*
Y4251968D01*
Y4255248D02*
X5055118Y4258528D01*
X5063318Y4261808D02*
X5064957Y4263448D01*
Y4266727D01*
X5063318Y4268367D01*
X5061678D01*
X5060038Y4266727D01*
Y4265088D01*
Y4266727D01*
X5058398Y4268367D01*
X5056758D01*
X5055118Y4266727D01*
Y4263448D01*
X5056758Y4261808D01*
X5055118Y4271647D02*
Y4274927D01*
Y4273287D01*
X5064957D01*
X5063318Y4271647D01*
X5064957Y4286406D02*
X5063318Y4283126D01*
X5060038Y4279846D01*
X5056758D01*
X5055118Y4281486D01*
Y4284766D01*
X5056758Y4286406D01*
X5058398D01*
X5060038Y4284766D01*
Y4279846D01*
X5053478Y4289686D02*
Y4296245D01*
X5055118Y4299525D02*
Y4302805D01*
Y4301165D01*
X5064957D01*
X5063318Y4299525D01*
X5035433Y3637795D02*
X5045272D01*
Y3642715D01*
X5043632Y3644355D01*
X5040353D01*
X5038713Y3642715D01*
Y3637795D01*
Y3641075D02*
X5035433Y3644355D01*
X5043632Y3647635D02*
X5045272Y3649274D01*
Y3652554D01*
X5043632Y3654194D01*
X5041993D01*
X5040353Y3652554D01*
Y3650914D01*
Y3652554D01*
X5038713Y3654194D01*
X5037073D01*
X5035433Y3652554D01*
Y3649274D01*
X5037073Y3647635D01*
X5035433Y3657474D02*
Y3660754D01*
Y3659114D01*
X5045272D01*
X5043632Y3657474D01*
X5045272Y3672233D02*
X5043632Y3668953D01*
X5040353Y3665673D01*
X5037073D01*
X5035433Y3667313D01*
Y3670593D01*
X5037073Y3672233D01*
X5038713D01*
X5040353Y3670593D01*
Y3665673D01*
X5033793Y3675513D02*
Y3682072D01*
X5035433Y3691911D02*
Y3685352D01*
X5041993Y3691911D01*
X5043632D01*
X5045272Y3690272D01*
Y3686992D01*
X5043632Y3685352D01*
X4929134Y4492126D02*
X4938973D01*
Y4497046D01*
X4937333Y4498685D01*
X4934053D01*
X4932414Y4497046D01*
Y4492126D01*
Y4495406D02*
X4929134Y4498685D01*
X4937333Y4501965D02*
X4938973Y4503605D01*
Y4506885D01*
X4937333Y4508525D01*
X4935693D01*
X4934053Y4506885D01*
Y4505245D01*
Y4506885D01*
X4932414Y4508525D01*
X4930774D01*
X4929134Y4506885D01*
Y4503605D01*
X4930774Y4501965D01*
X4929134Y4511805D02*
Y4515084D01*
Y4513444D01*
X4938973D01*
X4937333Y4511805D01*
X4929134Y4526564D02*
Y4520004D01*
X4935693Y4526564D01*
X4937333D01*
X4938973Y4524924D01*
Y4521644D01*
X4937333Y4520004D01*
X4927494Y4529843D02*
Y4536403D01*
X4929134Y4539683D02*
Y4542962D01*
Y4541323D01*
X4938973D01*
X4937333Y4539683D01*
X4917323Y3649606D02*
X4927162D01*
Y3654526D01*
X4925522Y3656166D01*
X4922243D01*
X4920603Y3654526D01*
Y3649606D01*
Y3652886D02*
X4917323Y3656166D01*
X4925522Y3659446D02*
X4927162Y3661086D01*
Y3664365D01*
X4925522Y3666005D01*
X4923882D01*
X4922243Y3664365D01*
Y3662725D01*
Y3664365D01*
X4920603Y3666005D01*
X4918963D01*
X4917323Y3664365D01*
Y3661086D01*
X4918963Y3659446D01*
X4917323Y3669285D02*
Y3672565D01*
Y3670925D01*
X4927162D01*
X4925522Y3669285D01*
X4917323Y3684044D02*
Y3677484D01*
X4923882Y3684044D01*
X4925522D01*
X4927162Y3682404D01*
Y3679124D01*
X4925522Y3677484D01*
X4915683Y3687324D02*
Y3693883D01*
X4917323Y3703722D02*
Y3697163D01*
X4923882Y3703722D01*
X4925522D01*
X4927162Y3702083D01*
Y3698803D01*
X4925522Y3697163D01*
X5366142Y3814961D02*
Y3824800D01*
X5361222D01*
X5359582Y3823160D01*
Y3819880D01*
X5361222Y3818240D01*
X5366142D01*
X5362862D02*
X5359582Y3814961D01*
X5356302Y3823160D02*
X5354663Y3824800D01*
X5351383D01*
X5349743Y3823160D01*
Y3821520D01*
X5351383Y3819880D01*
X5353023D01*
X5351383D01*
X5349743Y3818240D01*
Y3816601D01*
X5351383Y3814961D01*
X5354663D01*
X5356302Y3816601D01*
X5346463Y3814961D02*
X5343183D01*
X5344823D01*
Y3824800D01*
X5346463Y3823160D01*
X5338264D02*
X5336624Y3824800D01*
X5333344D01*
X5331704Y3823160D01*
Y3821520D01*
X5333344Y3819880D01*
X5331704Y3818240D01*
Y3816601D01*
X5333344Y3814961D01*
X5336624D01*
X5338264Y3816601D01*
Y3818240D01*
X5336624Y3819880D01*
X5338264Y3821520D01*
Y3823160D01*
X5336624Y3819880D02*
X5333344D01*
X5328424Y3813321D02*
X5321865D01*
X5312026Y3814961D02*
X5318585D01*
X5312026Y3821520D01*
Y3823160D01*
X5313665Y3824800D01*
X5316945D01*
X5318585Y3823160D01*
X5366142Y3775591D02*
Y3785430D01*
X5361222D01*
X5359582Y3783790D01*
Y3780510D01*
X5361222Y3778870D01*
X5366142D01*
X5362862D02*
X5359582Y3775591D01*
X5356302Y3783790D02*
X5354663Y3785430D01*
X5351383D01*
X5349743Y3783790D01*
Y3782150D01*
X5351383Y3780510D01*
X5353023D01*
X5351383D01*
X5349743Y3778870D01*
Y3777231D01*
X5351383Y3775591D01*
X5354663D01*
X5356302Y3777231D01*
X5346463Y3775591D02*
X5343183D01*
X5344823D01*
Y3785430D01*
X5346463Y3783790D01*
X5338264Y3777231D02*
X5336624Y3775591D01*
X5333344D01*
X5331704Y3777231D01*
Y3783790D01*
X5333344Y3785430D01*
X5336624D01*
X5338264Y3783790D01*
Y3782150D01*
X5336624Y3780510D01*
X5331704D01*
X5328424Y3773951D02*
X5321865D01*
X5312026Y3775591D02*
X5318585D01*
X5312026Y3782150D01*
Y3783790D01*
X5313665Y3785430D01*
X5316945D01*
X5318585Y3783790D01*
X5359582Y4571191D02*
X5361222Y4572831D01*
X5364502D01*
X5366142Y4571191D01*
Y4564632D01*
X5364502Y4562992D01*
X5361222D01*
X5359582Y4564632D01*
X5356302Y4571191D02*
X5354663Y4572831D01*
X5351383D01*
X5349743Y4571191D01*
Y4569552D01*
X5351383Y4567912D01*
X5353023D01*
X5351383D01*
X5349743Y4566272D01*
Y4564632D01*
X5351383Y4562992D01*
X5354663D01*
X5356302Y4564632D01*
X5339904Y4562992D02*
X5346463D01*
X5339904Y4569552D01*
Y4571191D01*
X5341543Y4572831D01*
X5344823D01*
X5346463Y4571191D01*
X5330064Y4572831D02*
X5336624D01*
Y4567912D01*
X5333344Y4569552D01*
X5331704D01*
X5330064Y4567912D01*
Y4564632D01*
X5331704Y4562992D01*
X5334984D01*
X5336624Y4564632D01*
X5326784Y4561352D02*
X5320225D01*
X5316945Y4562992D02*
X5313665D01*
X5315305D01*
Y4572831D01*
X5316945Y4571191D01*
X5440945Y4590551D02*
Y4600391D01*
X5436025D01*
X5434385Y4598751D01*
Y4595471D01*
X5436025Y4593831D01*
X5440945D01*
X5437665D02*
X5434385Y4590551D01*
X5431106Y4598751D02*
X5429466Y4600391D01*
X5426186D01*
X5424546Y4598751D01*
Y4597111D01*
X5426186Y4595471D01*
X5427826D01*
X5426186D01*
X5424546Y4593831D01*
Y4592191D01*
X5426186Y4590551D01*
X5429466D01*
X5431106Y4592191D01*
X5414707Y4590551D02*
X5421266D01*
X5414707Y4597111D01*
Y4598751D01*
X5416347Y4600391D01*
X5419626D01*
X5421266Y4598751D01*
X5411427Y4590551D02*
X5408147D01*
X5409787D01*
Y4600391D01*
X5411427Y4598751D01*
X5403228Y4588911D02*
X5396668D01*
X5393388Y4590551D02*
X5390109D01*
X5391748D01*
Y4600391D01*
X5393388Y4598751D01*
X5503937Y4633858D02*
Y4643698D01*
X5499017D01*
X5497377Y4642058D01*
Y4638778D01*
X5499017Y4637138D01*
X5503937D01*
X5500657D02*
X5497377Y4633858D01*
X5494098Y4642058D02*
X5492458Y4643698D01*
X5489178D01*
X5487538Y4642058D01*
Y4640418D01*
X5489178Y4638778D01*
X5490818D01*
X5489178D01*
X5487538Y4637138D01*
Y4635498D01*
X5489178Y4633858D01*
X5492458D01*
X5494098Y4635498D01*
X5477699Y4633858D02*
X5484258D01*
X5477699Y4640418D01*
Y4642058D01*
X5479339Y4643698D01*
X5482618D01*
X5484258Y4642058D01*
X5467860Y4633858D02*
X5474419D01*
X5467860Y4640418D01*
Y4642058D01*
X5469499Y4643698D01*
X5472779D01*
X5474419Y4642058D01*
X5464580Y4632218D02*
X5458020D01*
X5454740Y4633858D02*
X5451461D01*
X5453101D01*
Y4643698D01*
X5454740Y4642058D01*
X5248032Y4429134D02*
X5257871D01*
Y4434054D01*
X5256231Y4435693D01*
X5252951D01*
X5251311Y4434054D01*
Y4429134D01*
Y4432414D02*
X5248032Y4435693D01*
X5256231Y4438973D02*
X5257871Y4440613D01*
Y4443893D01*
X5256231Y4445533D01*
X5254591D01*
X5252951Y4443893D01*
Y4442253D01*
Y4443893D01*
X5251311Y4445533D01*
X5249671D01*
X5248032Y4443893D01*
Y4440613D01*
X5249671Y4438973D01*
X5248032Y4448812D02*
Y4452092D01*
Y4450452D01*
X5257871D01*
X5256231Y4448812D01*
X5248032Y4461932D02*
X5257871D01*
X5252951Y4457012D01*
Y4463571D01*
X5246392Y4466851D02*
Y4473411D01*
X5248032Y4476690D02*
Y4479970D01*
Y4478330D01*
X5257871D01*
X5256231Y4476690D01*
X5251968Y3818898D02*
X5261808D01*
Y3823817D01*
X5260168Y3825457D01*
X5256888D01*
X5255248Y3823817D01*
Y3818898D01*
Y3822177D02*
X5251968Y3825457D01*
X5260168Y3828737D02*
X5261808Y3830377D01*
Y3833657D01*
X5260168Y3835296D01*
X5258528D01*
X5256888Y3833657D01*
Y3832017D01*
Y3833657D01*
X5255248Y3835296D01*
X5253608D01*
X5251968Y3833657D01*
Y3830377D01*
X5253608Y3828737D01*
X5251968Y3838576D02*
Y3841856D01*
Y3840216D01*
X5261808D01*
X5260168Y3838576D01*
X5251968Y3851695D02*
X5261808D01*
X5256888Y3846776D01*
Y3853335D01*
X5250329Y3856615D02*
Y3863174D01*
X5251968Y3873014D02*
Y3866454D01*
X5258528Y3873014D01*
X5260168D01*
X5261808Y3871374D01*
Y3868094D01*
X5260168Y3866454D01*
X4622047Y4230312D02*
Y4220472D01*
X4615488D01*
X4607288D02*
Y4230312D01*
X4612208Y4225392D01*
X4605648D01*
X4602369Y4228672D02*
X4600729Y4230312D01*
X4597449D01*
X4595809Y4228672D01*
Y4222112D01*
X4597449Y4220472D01*
X4600729D01*
X4602369Y4222112D01*
Y4228672D01*
X4592529D02*
X4590889Y4230312D01*
X4587610D01*
X4585970Y4228672D01*
Y4227032D01*
X4587610Y4225392D01*
X4589249D01*
X4587610D01*
X4585970Y4223752D01*
Y4222112D01*
X4587610Y4220472D01*
X4590889D01*
X4592529Y4222112D01*
D148*
X3481623Y3356952D02*
X3484247Y3354328D01*
Y3349081D01*
X3481623Y3346457D01*
X3471128D01*
X3468504Y3349081D01*
Y3354328D01*
X3471128Y3356952D01*
X3468504Y3370071D02*
X3484247D01*
X3476375Y3362200D01*
Y3372695D01*
X3468504Y3388438D02*
Y3377943D01*
X3478999Y3388438D01*
X3481623D01*
X3484247Y3385814D01*
Y3380566D01*
X3481623Y3377943D01*
X3468504Y3393685D02*
Y3398933D01*
Y3396309D01*
X3484247D01*
X3481623Y3393685D01*
X4654859Y3835954D02*
X4657483Y3838577D01*
X4662730D01*
X4665354Y3835954D01*
Y3825458D01*
X4662730Y3822835D01*
X4657483D01*
X4654859Y3825458D01*
X4641740Y3822835D02*
Y3838577D01*
X4649611Y3830706D01*
X4639116D01*
X4633868Y3822835D02*
X4628621D01*
X4631245D01*
Y3838577D01*
X4633868Y3835954D01*
X4620749Y3825458D02*
X4618126Y3822835D01*
X4612878D01*
X4610254Y3825458D01*
Y3835954D01*
X4612878Y3838577D01*
X4618126D01*
X4620749Y3835954D01*
Y3833330D01*
X4618126Y3830706D01*
X4610254D01*
X4637795Y3897633D02*
Y3881890D01*
X4627300D01*
X4614181D02*
Y3897633D01*
X4622052Y3889761D01*
X4611557D01*
X4606310Y3895009D02*
X4603686Y3897633D01*
X4598438D01*
X4595814Y3895009D01*
Y3884514D01*
X4598438Y3881890D01*
X4603686D01*
X4606310Y3884514D01*
Y3895009D01*
X4580071Y3897633D02*
X4590567D01*
Y3889761D01*
X4585319Y3892385D01*
X4582695D01*
X4580071Y3889761D01*
Y3884514D01*
X4582695Y3881890D01*
X4587943D01*
X4590567Y3884514D01*
D149*
X4503937Y3909441D02*
X4488194D01*
X4496065D01*
Y3885827D01*
X4480323D02*
Y3909441D01*
X4468515D01*
X4464580Y3905505D01*
Y3897634D01*
X4468515Y3893698D01*
X4480323D01*
X4444901Y3885827D02*
Y3909441D01*
X4456708Y3897634D01*
X4440965D01*
X4433094Y3885827D02*
X4425222D01*
X4429158D01*
Y3909441D01*
X4433094Y3905505D01*
X4413415Y3885827D02*
X4405544D01*
X4409480D01*
Y3909441D01*
X4413415Y3905505D01*
X4862205Y4417315D02*
X4846462D01*
X4854333D01*
Y4393701D01*
X4838590D02*
Y4417315D01*
X4826783D01*
X4822847Y4413379D01*
Y4405508D01*
X4826783Y4401572D01*
X4838590D01*
X4803169Y4393701D02*
Y4417315D01*
X4814976Y4405508D01*
X4799233D01*
X4791361Y4393701D02*
X4783490D01*
X4787426D01*
Y4417315D01*
X4791361Y4413379D01*
X4771683D02*
X4767747Y4417315D01*
X4759876D01*
X4755940Y4413379D01*
Y4397636D01*
X4759876Y4393701D01*
X4767747D01*
X4771683Y4397636D01*
Y4413379D01*
X4944874Y4248032D02*
X4925195D01*
X4921260Y4251967D01*
Y4259839D01*
X4925195Y4263774D01*
X4944874D01*
X4940938Y4271646D02*
X4944874Y4275582D01*
Y4283453D01*
X4940938Y4287389D01*
X4937003D01*
X4933067Y4283453D01*
Y4279517D01*
Y4283453D01*
X4929131Y4287389D01*
X4925195D01*
X4921260Y4283453D01*
Y4275582D01*
X4925195Y4271646D01*
X4940938Y4295260D02*
X4944874Y4299196D01*
Y4307068D01*
X4940938Y4311003D01*
X4925195D01*
X4921260Y4307068D01*
Y4299196D01*
X4925195Y4295260D01*
X4940938D01*
X4944874Y4334618D02*
Y4318875D01*
X4933067D01*
X4937003Y4326746D01*
Y4330682D01*
X4933067Y4334618D01*
X4925195D01*
X4921260Y4330682D01*
Y4322810D01*
X4925195Y4318875D01*
X4917324Y4342489D02*
Y4358232D01*
X4921260Y4366104D02*
Y4373975D01*
Y4370039D01*
X4944874D01*
X4940938Y4366104D01*
X5145669Y3519677D02*
Y3499999D01*
X5141734Y3496063D01*
X5133862D01*
X5129926Y3499999D01*
Y3519677D01*
X5122055Y3515742D02*
X5118119Y3519677D01*
X5110248D01*
X5106312Y3515742D01*
Y3511806D01*
X5110248Y3507870D01*
X5114183D01*
X5110248D01*
X5106312Y3503934D01*
Y3499999D01*
X5110248Y3496063D01*
X5118119D01*
X5122055Y3499999D01*
X5098440Y3515742D02*
X5094505Y3519677D01*
X5086633D01*
X5082698Y3515742D01*
Y3499999D01*
X5086633Y3496063D01*
X5094505D01*
X5098440Y3499999D01*
Y3515742D01*
X5074826Y3519677D02*
X5059083D01*
Y3515742D01*
X5074826Y3499999D01*
Y3496063D01*
X5051212Y3492127D02*
X5035469D01*
X5011854Y3496063D02*
X5027597D01*
X5011854Y3511806D01*
Y3515742D01*
X5015790Y3519677D01*
X5023662D01*
X5027597Y3515742D01*
X5267717Y4535425D02*
Y4515747D01*
X5263781Y4511811D01*
X5255909D01*
X5251974Y4515747D01*
Y4535425D01*
X5244102Y4531490D02*
X5240166Y4535425D01*
X5232295D01*
X5228359Y4531490D01*
Y4527554D01*
X5232295Y4523618D01*
X5236231D01*
X5232295D01*
X5228359Y4519682D01*
Y4515747D01*
X5232295Y4511811D01*
X5240166D01*
X5244102Y4515747D01*
X5220488Y4531490D02*
X5216552Y4535425D01*
X5208681D01*
X5204745Y4531490D01*
Y4515747D01*
X5208681Y4511811D01*
X5216552D01*
X5220488Y4515747D01*
Y4531490D01*
X5196873Y4535425D02*
X5181130D01*
Y4531490D01*
X5196873Y4515747D01*
Y4511811D01*
X5173259Y4507875D02*
X5157516D01*
X5149645Y4511811D02*
X5141773D01*
X5145709D01*
Y4535425D01*
X5149645Y4531490D01*
X5539370Y3578733D02*
Y3559054D01*
X5535434Y3555118D01*
X5527563D01*
X5523627Y3559054D01*
Y3578733D01*
X5515756Y3574797D02*
X5511820Y3578733D01*
X5503949D01*
X5500013Y3574797D01*
Y3570861D01*
X5503949Y3566925D01*
X5507884D01*
X5503949D01*
X5500013Y3562990D01*
Y3559054D01*
X5503949Y3555118D01*
X5511820D01*
X5515756Y3559054D01*
X5492141Y3574797D02*
X5488206Y3578733D01*
X5480334D01*
X5476398Y3574797D01*
Y3559054D01*
X5480334Y3555118D01*
X5488206D01*
X5492141Y3559054D01*
Y3574797D01*
X5452784Y3578733D02*
X5460655Y3574797D01*
X5468527Y3566925D01*
Y3559054D01*
X5464591Y3555118D01*
X5456720D01*
X5452784Y3559054D01*
Y3562990D01*
X5456720Y3566925D01*
X5468527D01*
X5444913Y3551182D02*
X5429170D01*
X5405555Y3555118D02*
X5421298D01*
X5405555Y3570861D01*
Y3574797D01*
X5409491Y3578733D01*
X5417362D01*
X5421298Y3574797D01*
X5484244Y4673228D02*
X5464566D01*
X5460630Y4677164D01*
Y4685035D01*
X5464566Y4688971D01*
X5484244D01*
X5480309Y4696843D02*
X5484244Y4700778D01*
Y4708650D01*
X5480309Y4712586D01*
X5476373D01*
X5472437Y4708650D01*
Y4704714D01*
Y4708650D01*
X5468501Y4712586D01*
X5464566D01*
X5460630Y4708650D01*
Y4700778D01*
X5464566Y4696843D01*
X5480309Y4720457D02*
X5484244Y4724393D01*
Y4732264D01*
X5480309Y4736200D01*
X5464566D01*
X5460630Y4732264D01*
Y4724393D01*
X5464566Y4720457D01*
X5480309D01*
X5484244Y4759814D02*
X5480309Y4751943D01*
X5472437Y4744072D01*
X5464566D01*
X5460630Y4748007D01*
Y4755879D01*
X5464566Y4759814D01*
X5468501D01*
X5472437Y4755879D01*
Y4744072D01*
X5456694Y4767686D02*
Y4783429D01*
X5460630Y4791300D02*
Y4799172D01*
Y4795236D01*
X5484244D01*
X5480309Y4791300D01*
X4500000Y3870071D02*
Y3850392D01*
X4496064Y3846457D01*
X4488193D01*
X4484257Y3850392D01*
Y3870071D01*
X4464578Y3846457D02*
Y3870071D01*
X4476386Y3858264D01*
X4460643D01*
X4452771Y3866135D02*
X4448836Y3870071D01*
X4440964D01*
X4437028Y3866135D01*
Y3850392D01*
X4440964Y3846457D01*
X4448836D01*
X4452771Y3850392D01*
Y3866135D01*
X4413414Y3870071D02*
X4429157D01*
Y3858264D01*
X4421285Y3862200D01*
X4417350D01*
X4413414Y3858264D01*
Y3850392D01*
X4417350Y3846457D01*
X4425221D01*
X4429157Y3850392D01*
X5149606Y3582669D02*
X5133863D01*
X5141735D01*
Y3559055D01*
X5125992D02*
Y3582669D01*
X5114185D01*
X5110249Y3578734D01*
Y3570862D01*
X5114185Y3566927D01*
X5125992D01*
X5102377Y3578734D02*
X5098442Y3582669D01*
X5090570D01*
X5086635Y3578734D01*
Y3574798D01*
X5090570Y3570862D01*
X5094506D01*
X5090570D01*
X5086635Y3566927D01*
Y3562991D01*
X5090570Y3559055D01*
X5098442D01*
X5102377Y3562991D01*
X5078763Y3578734D02*
X5074827Y3582669D01*
X5066956D01*
X5063020Y3578734D01*
Y3562991D01*
X5066956Y3559055D01*
X5074827D01*
X5078763Y3562991D01*
Y3578734D01*
X5055149Y3582669D02*
X5039406D01*
Y3578734D01*
X5055149Y3562991D01*
Y3559055D01*
X5031534Y3555119D02*
X5015791D01*
X4992177Y3559055D02*
X5007920D01*
X4992177Y3574798D01*
Y3578734D01*
X4996113Y3582669D01*
X5003984D01*
X5007920Y3578734D01*
X5629921Y3385819D02*
X5614178D01*
X5622050D01*
Y3362205D01*
X5606307D02*
Y3385819D01*
X5594500D01*
X5590564Y3381883D01*
Y3374012D01*
X5594500Y3370076D01*
X5606307D01*
X5582692Y3381883D02*
X5578757Y3385819D01*
X5570885D01*
X5566949Y3381883D01*
Y3377948D01*
X5570885Y3374012D01*
X5574821D01*
X5570885D01*
X5566949Y3370076D01*
Y3366140D01*
X5570885Y3362205D01*
X5578757D01*
X5582692Y3366140D01*
X5559078Y3381883D02*
X5555142Y3385819D01*
X5547271D01*
X5543335Y3381883D01*
Y3366140D01*
X5547271Y3362205D01*
X5555142D01*
X5559078Y3366140D01*
Y3381883D01*
X5535464Y3366140D02*
X5531528Y3362205D01*
X5523656D01*
X5519721Y3366140D01*
Y3381883D01*
X5523656Y3385819D01*
X5531528D01*
X5535464Y3381883D01*
Y3377948D01*
X5531528Y3374012D01*
X5519721D01*
X5511849Y3358269D02*
X5496106D01*
X5472492Y3362205D02*
X5488235D01*
X5472492Y3377948D01*
Y3381883D01*
X5476428Y3385819D01*
X5484299D01*
X5488235Y3381883D01*
X5574803Y4519677D02*
X5559060D01*
X5566932D01*
Y4496063D01*
X5551189D02*
Y4519677D01*
X5539382D01*
X5535446Y4515742D01*
Y4507870D01*
X5539382Y4503935D01*
X5551189D01*
X5527574Y4515742D02*
X5523639Y4519677D01*
X5515767D01*
X5511831Y4515742D01*
Y4511806D01*
X5515767Y4507870D01*
X5519703D01*
X5515767D01*
X5511831Y4503935D01*
Y4499999D01*
X5515767Y4496063D01*
X5523639D01*
X5527574Y4499999D01*
X5503960Y4496063D02*
X5496088D01*
X5500024D01*
Y4519677D01*
X5503960Y4515742D01*
X5484281D02*
X5480346Y4519677D01*
X5472474D01*
X5468538Y4515742D01*
Y4499999D01*
X5472474Y4496063D01*
X5480346D01*
X5484281Y4499999D01*
Y4515742D01*
X5460667Y4492127D02*
X5444924D01*
X5437052Y4496063D02*
X5429181D01*
X5433117D01*
Y4519677D01*
X5437052Y4515742D01*
X5346457Y3311016D02*
X5330714D01*
X5338585D01*
Y3287402D01*
X5322842D02*
Y3311016D01*
X5311035D01*
X5307099Y3307080D01*
Y3299209D01*
X5311035Y3295273D01*
X5322842D01*
X5299228Y3307080D02*
X5295292Y3311016D01*
X5287421D01*
X5283485Y3307080D01*
Y3303144D01*
X5287421Y3299209D01*
X5291356D01*
X5287421D01*
X5283485Y3295273D01*
Y3291337D01*
X5287421Y3287402D01*
X5295292D01*
X5299228Y3291337D01*
X5275614Y3287402D02*
X5267742D01*
X5271678D01*
Y3311016D01*
X5275614Y3307080D01*
X5255935D02*
X5251999Y3311016D01*
X5244128D01*
X5240192Y3307080D01*
Y3291337D01*
X5244128Y3287402D01*
X5251999D01*
X5255935Y3291337D01*
Y3307080D01*
X5232320Y3283466D02*
X5216578D01*
X5192963Y3287402D02*
X5208706D01*
X5192963Y3303144D01*
Y3307080D01*
X5196899Y3311016D01*
X5204770D01*
X5208706Y3307080D01*
X5070866Y3460622D02*
X5055123D01*
X5062995D01*
Y3437008D01*
X5047252D02*
Y3460622D01*
X5035444D01*
X5031509Y3456686D01*
Y3448815D01*
X5035444Y3444879D01*
X5047252D01*
X5011830Y3437008D02*
Y3460622D01*
X5023637Y3448815D01*
X5007894D01*
X5000023Y3456686D02*
X4996087Y3460622D01*
X4988216D01*
X4984280Y3456686D01*
Y3440944D01*
X4988216Y3437008D01*
X4996087D01*
X5000023Y3440944D01*
Y3456686D01*
X4976408D02*
X4972473Y3460622D01*
X4964601D01*
X4960666Y3456686D01*
Y3452751D01*
X4964601Y3448815D01*
X4960666Y3444879D01*
Y3440944D01*
X4964601Y3437008D01*
X4972473D01*
X4976408Y3440944D01*
Y3444879D01*
X4972473Y3448815D01*
X4976408Y3452751D01*
Y3456686D01*
X4972473Y3448815D02*
X4964601D01*
X4921260Y4208654D02*
X4905517D01*
X4913388D01*
Y4185039D01*
X4897645D02*
Y4208654D01*
X4885838D01*
X4881903Y4204718D01*
Y4196847D01*
X4885838Y4192911D01*
X4897645D01*
X4862224Y4185039D02*
Y4208654D01*
X4874031Y4196847D01*
X4858288D01*
X4850417Y4204718D02*
X4846481Y4208654D01*
X4838609D01*
X4834674Y4204718D01*
Y4188975D01*
X4838609Y4185039D01*
X4846481D01*
X4850417Y4188975D01*
Y4204718D01*
X4826802Y4188975D02*
X4822867Y4185039D01*
X4814995D01*
X4811059Y4188975D01*
Y4204718D01*
X4814995Y4208654D01*
X4822867D01*
X4826802Y4204718D01*
Y4200782D01*
X4822867Y4196847D01*
X4811059D01*
D150*
X4517713Y4287402D02*
X4507874D01*
Y4293961D01*
Y4302161D02*
X4517713D01*
X4512794Y4297241D01*
Y4303800D01*
X4516073Y4307080D02*
X4517713Y4308720D01*
Y4312000D01*
X4516073Y4313640D01*
X4509514D01*
X4507874Y4312000D01*
Y4308720D01*
X4509514Y4307080D01*
X4516073D01*
X4517713Y4323479D02*
X4516073Y4320199D01*
X4512794Y4316919D01*
X4509514D01*
X4507874Y4318559D01*
Y4321839D01*
X4509514Y4323479D01*
X4511154D01*
X4512794Y4321839D01*
Y4316919D01*
X4933071Y3448819D02*
X4942910D01*
Y3453739D01*
X4941270Y3455378D01*
X4937991D01*
X4936351Y3453739D01*
Y3448819D01*
Y3452099D02*
X4933071Y3455378D01*
Y3463578D02*
X4942910D01*
X4937991Y3458658D01*
Y3465218D01*
X4933071Y3468497D02*
Y3471777D01*
Y3470137D01*
X4942910D01*
X4941270Y3468497D01*
X4933071Y3483256D02*
Y3476697D01*
X4939630Y3483256D01*
X4941270D01*
X4942910Y3481617D01*
Y3478337D01*
X4941270Y3476697D01*
X4885827Y3374016D02*
X4895666D01*
Y3378935D01*
X4894026Y3380575D01*
X4890747D01*
X4889107Y3378935D01*
Y3374016D01*
Y3377296D02*
X4885827Y3380575D01*
Y3388775D02*
X4895666D01*
X4890747Y3383855D01*
Y3390414D01*
X4885827Y3393694D02*
Y3396974D01*
Y3395334D01*
X4895666D01*
X4894026Y3393694D01*
X4885827Y3401894D02*
Y3405173D01*
Y3403534D01*
X4895666D01*
X4894026Y3401894D01*
X4697176Y3431756D02*
X4698816Y3430117D01*
Y3426837D01*
X4697176Y3425197D01*
X4690616D01*
X4688976Y3426837D01*
Y3430117D01*
X4690616Y3431756D01*
X4688976Y3439956D02*
X4698816D01*
X4693896Y3435036D01*
Y3441596D01*
X4688976Y3451435D02*
Y3444876D01*
X4695536Y3451435D01*
X4697176D01*
X4698816Y3449795D01*
Y3446515D01*
X4697176Y3444876D01*
Y3454715D02*
X4698816Y3456355D01*
Y3459635D01*
X4697176Y3461274D01*
X4695536D01*
X4693896Y3459635D01*
Y3457995D01*
Y3459635D01*
X4692256Y3461274D01*
X4690616D01*
X4688976Y3459635D01*
Y3456355D01*
X4690616Y3454715D01*
X4741472Y3543633D02*
X4743112Y3545272D01*
X4746392D01*
X4748032Y3543633D01*
Y3537073D01*
X4746392Y3535433D01*
X4743112D01*
X4741472Y3537073D01*
X4733273Y3535433D02*
Y3545272D01*
X4738192Y3540353D01*
X4731633D01*
X4728353Y3535433D02*
X4725073D01*
X4726713D01*
Y3545272D01*
X4728353Y3543633D01*
X4720154D02*
X4718514Y3545272D01*
X4715234D01*
X4713594Y3543633D01*
Y3541993D01*
X4715234Y3540353D01*
X4713594Y3538713D01*
Y3537073D01*
X4715234Y3535433D01*
X4718514D01*
X4720154Y3537073D01*
Y3538713D01*
X4718514Y3540353D01*
X4720154Y3541993D01*
Y3543633D01*
X4718514Y3540353D02*
X4715234D01*
X5249346Y3464892D02*
X5250986Y3466532D01*
X5254266D01*
X5255905Y3464892D01*
Y3458333D01*
X5254266Y3456693D01*
X5250986D01*
X5249346Y3458333D01*
X5246066Y3464892D02*
X5244426Y3466532D01*
X5241146D01*
X5239507Y3464892D01*
Y3463252D01*
X5241146Y3461613D01*
X5242786D01*
X5241146D01*
X5239507Y3459973D01*
Y3458333D01*
X5241146Y3456693D01*
X5244426D01*
X5246066Y3458333D01*
X5229667Y3456693D02*
X5236227D01*
X5229667Y3463252D01*
Y3464892D01*
X5231307Y3466532D01*
X5234587D01*
X5236227Y3464892D01*
X5226388Y3456693D02*
X5223108D01*
X5224748D01*
Y3466532D01*
X5226388Y3464892D01*
X5218188Y3455053D02*
X5211629D01*
X5201789Y3456693D02*
X5208349D01*
X5201789Y3463252D01*
Y3464892D01*
X5203429Y3466532D01*
X5206709D01*
X5208349Y3464892D01*
X5047569Y3293961D02*
X5049209Y3292321D01*
Y3289041D01*
X5047569Y3287402D01*
X5041010D01*
X5039370Y3289041D01*
Y3292321D01*
X5041010Y3293961D01*
X5047569Y3297241D02*
X5049209Y3298881D01*
Y3302161D01*
X5047569Y3303800D01*
X5045930D01*
X5044290Y3302161D01*
Y3300521D01*
Y3302161D01*
X5042650Y3303800D01*
X5041010D01*
X5039370Y3302161D01*
Y3298881D01*
X5041010Y3297241D01*
X5039370Y3307080D02*
Y3310360D01*
Y3308720D01*
X5049209D01*
X5047569Y3307080D01*
X5049209Y3315280D02*
Y3321839D01*
X5047569D01*
X5041010Y3315280D01*
X5039370D01*
X5037730Y3325119D02*
Y3331678D01*
X5039370Y3341518D02*
Y3334958D01*
X5045930Y3341518D01*
X5047569D01*
X5049209Y3339878D01*
Y3336598D01*
X5047569Y3334958D01*
X5547569Y3412071D02*
X5549209Y3410432D01*
Y3407152D01*
X5547569Y3405512D01*
X5541010D01*
X5539370Y3407152D01*
Y3410432D01*
X5541010Y3412071D01*
X5547569Y3415351D02*
X5549209Y3416991D01*
Y3420271D01*
X5547569Y3421911D01*
X5545930D01*
X5544290Y3420271D01*
Y3418631D01*
Y3420271D01*
X5542650Y3421911D01*
X5541010D01*
X5539370Y3420271D01*
Y3416991D01*
X5541010Y3415351D01*
X5539370Y3431750D02*
Y3425190D01*
X5545930Y3431750D01*
X5547569D01*
X5549209Y3430110D01*
Y3426830D01*
X5547569Y3425190D01*
Y3435030D02*
X5549209Y3436670D01*
Y3439949D01*
X5547569Y3441589D01*
X5545930D01*
X5544290Y3439949D01*
Y3438309D01*
Y3439949D01*
X5542650Y3441589D01*
X5541010D01*
X5539370Y3439949D01*
Y3436670D01*
X5541010Y3435030D01*
X5537730Y3444869D02*
Y3451428D01*
X5539370Y3461268D02*
Y3454708D01*
X5545930Y3461268D01*
X5547569D01*
X5549209Y3459628D01*
Y3456348D01*
X5547569Y3454708D01*
X5391078Y3358593D02*
X5392718Y3360233D01*
X5395998D01*
X5397638Y3358593D01*
Y3352034D01*
X5395998Y3350394D01*
X5392718D01*
X5391078Y3352034D01*
X5387798Y3358593D02*
X5386159Y3360233D01*
X5382879D01*
X5381239Y3358593D01*
Y3356953D01*
X5382879Y3355313D01*
X5384519D01*
X5382879D01*
X5381239Y3353673D01*
Y3352034D01*
X5382879Y3350394D01*
X5386159D01*
X5387798Y3352034D01*
X5371400Y3350394D02*
X5377959D01*
X5371400Y3356953D01*
Y3358593D01*
X5373039Y3360233D01*
X5376319D01*
X5377959Y3358593D01*
X5361560Y3350394D02*
X5368120D01*
X5361560Y3356953D01*
Y3358593D01*
X5363200Y3360233D01*
X5366480D01*
X5368120Y3358593D01*
X5358281Y3348754D02*
X5351721D01*
X5341882Y3350394D02*
X5348441D01*
X5341882Y3356953D01*
Y3358593D01*
X5343522Y3360233D01*
X5346801D01*
X5348441Y3358593D01*
X5295276Y3364170D02*
Y3354331D01*
X5288716D01*
X5285436Y3362530D02*
X5283796Y3364170D01*
X5280517D01*
X5278877Y3362530D01*
Y3360890D01*
X5280517Y3359250D01*
X5282157D01*
X5280517D01*
X5278877Y3357610D01*
Y3355971D01*
X5280517Y3354331D01*
X5283796D01*
X5285436Y3355971D01*
X5275597Y3362530D02*
X5273957Y3364170D01*
X5270677D01*
X5269038Y3362530D01*
Y3355971D01*
X5270677Y3354331D01*
X5273957D01*
X5275597Y3355971D01*
Y3362530D01*
X5265758D02*
X5264118Y3364170D01*
X5260838D01*
X5259198Y3362530D01*
Y3355971D01*
X5260838Y3354331D01*
X5264118D01*
X5265758Y3355971D01*
Y3362530D01*
X5255918Y3352691D02*
X5249359D01*
X5239520Y3354331D02*
X5246079D01*
X5239520Y3360890D01*
Y3362530D01*
X5241159Y3364170D01*
X5244439D01*
X5246079Y3362530D01*
X4516073Y4392386D02*
X4517713Y4390747D01*
Y4387467D01*
X4516073Y4385827D01*
X4509514D01*
X4507874Y4387467D01*
Y4390747D01*
X4509514Y4392386D01*
X4507874Y4400586D02*
X4517713D01*
X4512794Y4395666D01*
Y4402226D01*
X4507874Y4412065D02*
Y4405505D01*
X4514434Y4412065D01*
X4516073D01*
X4517713Y4410425D01*
Y4407145D01*
X4516073Y4405505D01*
Y4415345D02*
X4517713Y4416985D01*
Y4420264D01*
X4516073Y4421904D01*
X4509514D01*
X4507874Y4420264D01*
Y4416985D01*
X4509514Y4415345D01*
X4516073D01*
X4603677Y4035758D02*
X4605316Y4037398D01*
X4608596D01*
X4610236Y4035758D01*
Y4029199D01*
X4608596Y4027559D01*
X4605316D01*
X4603677Y4029199D01*
X4595477Y4027559D02*
Y4037398D01*
X4600397Y4032479D01*
X4593837D01*
X4583998Y4027559D02*
X4590558D01*
X4583998Y4034119D01*
Y4035758D01*
X4585638Y4037398D01*
X4588918D01*
X4590558Y4035758D01*
X4575799Y4027559D02*
Y4037398D01*
X4580718Y4032479D01*
X4574159D01*
X4765094Y4165680D02*
X4766734Y4167320D01*
X4770014D01*
X4771654Y4165680D01*
Y4159120D01*
X4770014Y4157480D01*
X4766734D01*
X4765094Y4159120D01*
X4756895Y4157480D02*
Y4167320D01*
X4761814Y4162400D01*
X4755255D01*
X4751975Y4165680D02*
X4750335Y4167320D01*
X4747055D01*
X4745415Y4165680D01*
Y4164040D01*
X4747055Y4162400D01*
X4748695D01*
X4747055D01*
X4745415Y4160760D01*
Y4159120D01*
X4747055Y4157480D01*
X4750335D01*
X4751975Y4159120D01*
X4742136Y4165680D02*
X4740496Y4167320D01*
X4737216D01*
X4735576Y4165680D01*
Y4164040D01*
X4737216Y4162400D01*
X4738856D01*
X4737216D01*
X4735576Y4160760D01*
Y4159120D01*
X4737216Y4157480D01*
X4740496D01*
X4742136Y4159120D01*
X4712924Y4439630D02*
X4714564Y4437991D01*
Y4434711D01*
X4712924Y4433071D01*
X4706364D01*
X4704724Y4434711D01*
Y4437991D01*
X4706364Y4439630D01*
X4704724Y4447830D02*
X4714564D01*
X4709644Y4442910D01*
Y4449470D01*
X4704724Y4459309D02*
Y4452749D01*
X4711284Y4459309D01*
X4712924D01*
X4714564Y4457669D01*
Y4454389D01*
X4712924Y4452749D01*
X4714564Y4469148D02*
Y4462589D01*
X4709644D01*
X4711284Y4465869D01*
Y4467508D01*
X4709644Y4469148D01*
X4706364D01*
X4704724Y4467508D01*
Y4464229D01*
X4706364Y4462589D01*
X4854331Y4062992D02*
X4864170D01*
Y4067912D01*
X4862530Y4069552D01*
X4859250D01*
X4857610Y4067912D01*
Y4062992D01*
Y4066272D02*
X4854331Y4069552D01*
Y4077751D02*
X4864170D01*
X4859250Y4072831D01*
Y4079391D01*
X4854331Y4082671D02*
Y4085950D01*
Y4084311D01*
X4864170D01*
X4862530Y4082671D01*
Y4090870D02*
X4864170Y4092510D01*
Y4095790D01*
X4862530Y4097430D01*
X4860890D01*
X4859250Y4095790D01*
Y4094150D01*
Y4095790D01*
X4857610Y4097430D01*
X4855971D01*
X4854331Y4095790D01*
Y4092510D01*
X4855971Y4090870D01*
X4858268Y4019685D02*
Y4029524D01*
X4853348D01*
X4851708Y4027884D01*
Y4024605D01*
X4853348Y4022965D01*
X4858268D01*
X4854988D02*
X4851708Y4019685D01*
X4843509D02*
Y4029524D01*
X4848428Y4024605D01*
X4841869D01*
X4838589Y4019685D02*
X4835309D01*
X4836949D01*
Y4029524D01*
X4838589Y4027884D01*
X4825470Y4019685D02*
Y4029524D01*
X4830390Y4024605D01*
X4823830D01*
X5395015Y3405837D02*
X5396655Y3407477D01*
X5399935D01*
X5401575Y3405837D01*
Y3399278D01*
X5399935Y3397638D01*
X5396655D01*
X5395015Y3399278D01*
X5391735Y3405837D02*
X5390096Y3407477D01*
X5386816D01*
X5385176Y3405837D01*
Y3404197D01*
X5386816Y3402557D01*
X5388456D01*
X5386816D01*
X5385176Y3400918D01*
Y3399278D01*
X5386816Y3397638D01*
X5390096D01*
X5391735Y3399278D01*
X5375337Y3397638D02*
X5381896D01*
X5375337Y3404197D01*
Y3405837D01*
X5376976Y3407477D01*
X5380256D01*
X5381896Y3405837D01*
X5367137Y3397638D02*
Y3407477D01*
X5372057Y3402557D01*
X5365497D01*
X5362218Y3395998D02*
X5355658D01*
X5345819Y3397638D02*
X5352378D01*
X5345819Y3404197D01*
Y3405837D01*
X5347459Y3407477D01*
X5350738D01*
X5352378Y3405837D01*
X5351708Y3559381D02*
X5353348Y3561020D01*
X5356628D01*
X5358268Y3559381D01*
Y3552821D01*
X5356628Y3551181D01*
X5353348D01*
X5351708Y3552821D01*
X5348428Y3559381D02*
X5346788Y3561020D01*
X5343509D01*
X5341869Y3559381D01*
Y3557741D01*
X5343509Y3556101D01*
X5345149D01*
X5343509D01*
X5341869Y3554461D01*
Y3552821D01*
X5343509Y3551181D01*
X5346788D01*
X5348428Y3552821D01*
X5332030Y3551181D02*
X5338589D01*
X5332030Y3557741D01*
Y3559381D01*
X5333669Y3561020D01*
X5336949D01*
X5338589Y3559381D01*
X5322190Y3561020D02*
X5328750D01*
Y3556101D01*
X5325470Y3557741D01*
X5323830D01*
X5322190Y3556101D01*
Y3552821D01*
X5323830Y3551181D01*
X5327110D01*
X5328750Y3552821D01*
X5318910Y3549541D02*
X5312351D01*
X5302512Y3551181D02*
X5309071D01*
X5302512Y3557741D01*
Y3559381D01*
X5304151Y3561020D01*
X5307431D01*
X5309071Y3559381D01*
X4666669Y4169617D02*
X4668309Y4171257D01*
X4671588D01*
X4673228Y4169617D01*
Y4163057D01*
X4671588Y4161417D01*
X4668309D01*
X4666669Y4163057D01*
X4658469Y4161417D02*
Y4171257D01*
X4663389Y4166337D01*
X4656829D01*
X4653550Y4161417D02*
X4650270D01*
X4651910D01*
Y4171257D01*
X4653550Y4169617D01*
X4645350Y4171257D02*
X4638791D01*
Y4169617D01*
X4645350Y4163057D01*
Y4161417D01*
X5291339Y3456693D02*
X5301178D01*
Y3461613D01*
X5299538Y3463252D01*
X5296258D01*
X5294618Y3461613D01*
Y3456693D01*
Y3459973D02*
X5291339Y3463252D01*
X5299538Y3466532D02*
X5301178Y3468172D01*
Y3471452D01*
X5299538Y3473092D01*
X5297898D01*
X5296258Y3471452D01*
Y3469812D01*
Y3471452D01*
X5294618Y3473092D01*
X5292979D01*
X5291339Y3471452D01*
Y3468172D01*
X5292979Y3466532D01*
X5291339Y3482931D02*
Y3476372D01*
X5297898Y3482931D01*
X5299538D01*
X5301178Y3481291D01*
Y3478011D01*
X5299538Y3476372D01*
X5291339Y3486211D02*
Y3489491D01*
Y3487851D01*
X5301178D01*
X5299538Y3486211D01*
X5289699Y3494410D02*
Y3500970D01*
X5291339Y3510809D02*
Y3504249D01*
X5297898Y3510809D01*
X5299538D01*
X5301178Y3509169D01*
Y3505889D01*
X5299538Y3504249D01*
X5507874Y3448819D02*
Y3458658D01*
X5502954D01*
X5501315Y3457018D01*
Y3453739D01*
X5502954Y3452099D01*
X5507874D01*
X5504594D02*
X5501315Y3448819D01*
X5498035Y3457018D02*
X5496395Y3458658D01*
X5493115D01*
X5491475Y3457018D01*
Y3455378D01*
X5493115Y3453739D01*
X5494755D01*
X5493115D01*
X5491475Y3452099D01*
Y3450459D01*
X5493115Y3448819D01*
X5496395D01*
X5498035Y3450459D01*
X5481636Y3448819D02*
X5488195D01*
X5481636Y3455378D01*
Y3457018D01*
X5483276Y3458658D01*
X5486556D01*
X5488195Y3457018D01*
X5471797Y3448819D02*
X5478356D01*
X5471797Y3455378D01*
Y3457018D01*
X5473436Y3458658D01*
X5476716D01*
X5478356Y3457018D01*
X5468517Y3447179D02*
X5461957D01*
X5452118Y3448819D02*
X5458677D01*
X5452118Y3455378D01*
Y3457018D01*
X5453758Y3458658D01*
X5457038D01*
X5458677Y3457018D01*
X4897963Y3451441D02*
X4899603Y3449802D01*
Y3446522D01*
X4897963Y3444882D01*
X4891404D01*
X4889764Y3446522D01*
Y3449802D01*
X4891404Y3451441D01*
X4889764Y3459641D02*
X4899603D01*
X4894684Y3454721D01*
Y3461281D01*
X4889764Y3471120D02*
Y3464561D01*
X4896323Y3471120D01*
X4897963D01*
X4899603Y3469480D01*
Y3466200D01*
X4897963Y3464561D01*
X4891404Y3474400D02*
X4889764Y3476040D01*
Y3479320D01*
X4891404Y3480959D01*
X4897963D01*
X4899603Y3479320D01*
Y3476040D01*
X4897963Y3474400D01*
X4896323D01*
X4894684Y3476040D01*
Y3480959D01*
X4540685Y3661743D02*
X4542324Y3663383D01*
X4545604D01*
X4547244Y3661743D01*
Y3655183D01*
X4545604Y3653543D01*
X4542324D01*
X4540685Y3655183D01*
X4532485Y3653543D02*
Y3663383D01*
X4537405Y3658463D01*
X4530845D01*
X4521006Y3653543D02*
X4527565D01*
X4521006Y3660103D01*
Y3661743D01*
X4522646Y3663383D01*
X4525926D01*
X4527565Y3661743D01*
X4517726Y3663383D02*
X4511167D01*
Y3661743D01*
X4517726Y3655183D01*
Y3653543D01*
X4823160Y4069552D02*
X4824800Y4067912D01*
Y4064632D01*
X4823160Y4062992D01*
X4816600D01*
X4814961Y4064632D01*
Y4067912D01*
X4816600Y4069552D01*
X4814961Y4077751D02*
X4824800D01*
X4819880Y4072831D01*
Y4079391D01*
X4823160Y4082671D02*
X4824800Y4084311D01*
Y4087590D01*
X4823160Y4089230D01*
X4821520D01*
X4819880Y4087590D01*
Y4085950D01*
Y4087590D01*
X4818240Y4089230D01*
X4816600D01*
X4814961Y4087590D01*
Y4084311D01*
X4816600Y4082671D01*
X4823160Y4092510D02*
X4824800Y4094150D01*
Y4097430D01*
X4823160Y4099069D01*
X4816600D01*
X4814961Y4097430D01*
Y4094150D01*
X4816600Y4092510D01*
X4823160D01*
X5309052Y4598425D02*
Y4604985D01*
Y4601705D01*
X5299213D01*
Y4608265D02*
X5309052D01*
Y4613184D01*
X5307412Y4614824D01*
X5304132D01*
X5302492Y4613184D01*
Y4608265D01*
X5307412Y4618104D02*
X5309052Y4619744D01*
Y4623024D01*
X5307412Y4624663D01*
X5305772D01*
X5304132Y4623024D01*
Y4621384D01*
Y4623024D01*
X5302492Y4624663D01*
X5300852D01*
X5299213Y4623024D01*
Y4619744D01*
X5300852Y4618104D01*
X5307412Y4627943D02*
X5309052Y4629583D01*
Y4632863D01*
X5307412Y4634503D01*
X5300852D01*
X5299213Y4632863D01*
Y4629583D01*
X5300852Y4627943D01*
X5307412D01*
X5300852Y4637782D02*
X5299213Y4639422D01*
Y4642702D01*
X5300852Y4644342D01*
X5307412D01*
X5309052Y4642702D01*
Y4639422D01*
X5307412Y4637782D01*
X5305772D01*
X5304132Y4639422D01*
Y4644342D01*
X5297573Y4647622D02*
Y4654181D01*
X5299213Y4657461D02*
Y4660741D01*
Y4659101D01*
X5309052D01*
X5307412Y4657461D01*
X4835960Y3547570D02*
X4837600Y3549209D01*
X4840880D01*
X4842520Y3547570D01*
Y3541010D01*
X4840880Y3539370D01*
X4837600D01*
X4835960Y3541010D01*
X4827761Y3539370D02*
Y3549209D01*
X4832680Y3544290D01*
X4826121D01*
X4822841Y3547570D02*
X4821201Y3549209D01*
X4817921D01*
X4816282Y3547570D01*
Y3545930D01*
X4817921Y3544290D01*
X4819561D01*
X4817921D01*
X4816282Y3542650D01*
Y3541010D01*
X4817921Y3539370D01*
X4821201D01*
X4822841Y3541010D01*
X4806442Y3539370D02*
X4813002D01*
X4806442Y3545930D01*
Y3547570D01*
X4808082Y3549209D01*
X4811362D01*
X4813002Y3547570D01*
D151*
X5483920Y4099735D02*
X5486216Y4097439D01*
Y4092847D01*
X5483920Y4090551D01*
X5474737D01*
X5472441Y4092847D01*
Y4097439D01*
X5474737Y4099735D01*
X5472441Y4111214D02*
X5486216D01*
X5479328Y4104326D01*
Y4113510D01*
X5472441Y4127285D02*
Y4118101D01*
X5481624Y4127285D01*
X5483920D01*
X5486216Y4124989D01*
Y4120397D01*
X5483920Y4118101D01*
X5486216Y4141060D02*
X5483920Y4136468D01*
X5479328Y4131876D01*
X5474737D01*
X5472441Y4134172D01*
Y4138764D01*
X5474737Y4141060D01*
X5477033D01*
X5479328Y4138764D01*
Y4131876D01*
X5302818Y4068238D02*
X5305114Y4065943D01*
Y4061351D01*
X5302818Y4059055D01*
X5293634D01*
X5291339Y4061351D01*
Y4065943D01*
X5293634Y4068238D01*
X5291339Y4079718D02*
X5305114D01*
X5298226Y4072830D01*
Y4082014D01*
X5291339Y4095789D02*
Y4086605D01*
X5300522Y4095789D01*
X5302818D01*
X5305114Y4093493D01*
Y4088901D01*
X5302818Y4086605D01*
X5291339Y4109564D02*
Y4100380D01*
X5300522Y4109564D01*
X5302818D01*
X5305114Y4107268D01*
Y4102676D01*
X5302818Y4100380D01*
X4857936Y3670601D02*
X4860232Y3668305D01*
Y3663713D01*
X4857936Y3661417D01*
X4848752D01*
X4846457Y3663713D01*
Y3668305D01*
X4848752Y3670601D01*
X4857936Y3675192D02*
X4860232Y3677488D01*
Y3682080D01*
X4857936Y3684376D01*
X4855640D01*
X4853344Y3682080D01*
Y3679784D01*
Y3682080D01*
X4851048Y3684376D01*
X4848752D01*
X4846457Y3682080D01*
Y3677488D01*
X4848752Y3675192D01*
X4846457Y3688967D02*
Y3693559D01*
Y3691263D01*
X4860232D01*
X4857936Y3688967D01*
Y3700447D02*
X4860232Y3702742D01*
Y3707334D01*
X4857936Y3709630D01*
X4855640D01*
X4853344Y3707334D01*
X4851048Y3709630D01*
X4848752D01*
X4846457Y3707334D01*
Y3702742D01*
X4848752Y3700447D01*
X4851048D01*
X4853344Y3702742D01*
X4855640Y3700447D01*
X4857936D01*
X4853344Y3702742D02*
Y3707334D01*
X4844161Y3714222D02*
Y3723405D01*
X4846457Y3737180D02*
Y3727997D01*
X4855640Y3737180D01*
X4857936D01*
X4860232Y3734884D01*
Y3730292D01*
X4857936Y3727997D01*
%TF.MD5,94a4ff7e265108ff79bf966d79ea6485*%
M02*
