G04 Layer_Color=128*
%FSLAX45Y45*%
%MOMM*%
%TF.FileFunction,Paste,Bot*%
%TF.Part,Single*%
G01*
G75*
%TA.AperFunction,SMDPad,CuDef*%
%ADD10R,0.52000X0.52000*%
%ADD11R,0.52000X0.52000*%
%ADD17R,0.45000X0.55000*%
%ADD18R,0.55000X0.45000*%
%ADD19R,0.90000X0.70000*%
%ADD23R,0.70000X0.90000*%
%ADD26O,1.50000X0.39900*%
%ADD28R,0.65000X0.90000*%
%ADD29R,2.60000X0.95000*%
%ADD40O,1.40000X0.35000*%
%ADD53R,3.95000X1.50000*%
G04:AMPARAMS|DCode=79|XSize=0.55mm|YSize=0.8mm|CornerRadius=0.0495mm|HoleSize=0mm|Usage=FLASHONLY|Rotation=90.000|XOffset=0mm|YOffset=0mm|HoleType=Round|Shape=RoundedRectangle|*
%AMROUNDEDRECTD79*
21,1,0.55000,0.70100,0,0,90.0*
21,1,0.45100,0.80000,0,0,90.0*
1,1,0.09900,0.35050,0.22550*
1,1,0.09900,0.35050,-0.22550*
1,1,0.09900,-0.35050,-0.22550*
1,1,0.09900,-0.35050,0.22550*
%
%ADD79ROUNDEDRECTD79*%
G04:AMPARAMS|DCode=80|XSize=0.3999mm|YSize=1.2mm|CornerRadius=0.04999mm|HoleSize=0mm|Usage=FLASHONLY|Rotation=90.000|XOffset=0mm|YOffset=0mm|HoleType=Round|Shape=RoundedRectangle|*
%AMROUNDEDRECTD80*
21,1,0.39990,1.10003,0,0,90.0*
21,1,0.29993,1.20000,0,0,90.0*
1,1,0.09997,0.55001,0.14996*
1,1,0.09997,0.55001,-0.14996*
1,1,0.09997,-0.55001,-0.14996*
1,1,0.09997,-0.55001,0.14996*
%
%ADD80ROUNDEDRECTD80*%
G04:AMPARAMS|DCode=81|XSize=0.399mm|YSize=1.15mm|CornerRadius=0.04389mm|HoleSize=0mm|Usage=FLASHONLY|Rotation=0.000|XOffset=0mm|YOffset=0mm|HoleType=Round|Shape=RoundedRectangle|*
%AMROUNDEDRECTD81*
21,1,0.39900,1.06222,0,0,0.0*
21,1,0.31122,1.15000,0,0,0.0*
1,1,0.08778,0.15561,-0.53111*
1,1,0.08778,-0.15561,-0.53111*
1,1,0.08778,-0.15561,0.53111*
1,1,0.08778,0.15561,0.53111*
%
%ADD81ROUNDEDRECTD81*%
G04:AMPARAMS|DCode=82|XSize=0.399mm|YSize=0.65mm|CornerRadius=0.04988mm|HoleSize=0mm|Usage=FLASHONLY|Rotation=270.000|XOffset=0mm|YOffset=0mm|HoleType=Round|Shape=RoundedRectangle|*
%AMROUNDEDRECTD82*
21,1,0.39900,0.55025,0,0,270.0*
21,1,0.29925,0.65000,0,0,270.0*
1,1,0.09975,-0.27513,-0.14963*
1,1,0.09975,-0.27513,0.14963*
1,1,0.09975,0.27513,0.14963*
1,1,0.09975,0.27513,-0.14963*
%
%ADD82ROUNDEDRECTD82*%
%ADD83R,1.20000X0.50000*%
%ADD84R,1.60000X0.50000*%
G04:AMPARAMS|DCode=85|XSize=1.8mm|YSize=3mm|CornerRadius=0mm|HoleSize=0mm|Usage=FLASHONLY|Rotation=270.000|XOffset=0mm|YOffset=0mm|HoleType=Round|Shape=Octagon|*
%AMOCTAGOND85*
4,1,8,1.50000,0.45000,1.50000,-0.45000,1.05000,-0.90000,-1.05000,-0.90000,-1.50000,-0.45000,-1.50000,0.45000,-1.05000,0.90000,1.05000,0.90000,1.50000,0.45000,0.0*
%
%ADD85OCTAGOND85*%

%ADD86R,0.80000X0.90000*%
%ADD87R,0.90000X0.80000*%
%ADD88R,0.90000X0.60000*%
G04:AMPARAMS|DCode=89|XSize=0.25mm|YSize=0.6mm|CornerRadius=0.05mm|HoleSize=0mm|Usage=FLASHONLY|Rotation=270.000|XOffset=0mm|YOffset=0mm|HoleType=Round|Shape=RoundedRectangle|*
%AMROUNDEDRECTD89*
21,1,0.25000,0.50000,0,0,270.0*
21,1,0.15000,0.60000,0,0,270.0*
1,1,0.10000,-0.25000,-0.07500*
1,1,0.10000,-0.25000,0.07500*
1,1,0.10000,0.25000,0.07500*
1,1,0.10000,0.25000,-0.07500*
%
%ADD89ROUNDEDRECTD89*%
%ADD92R,2.08000X0.98000*%
%ADD93R,2.60000X1.20000*%
%TA.AperFunction,NonConductor*%
%ADD175R,1.30000X1.55000*%
%ADD176R,0.23000X0.90000*%
%TA.AperFunction,SMDPad,CuDef*%
%ADD177R,0.20000X0.45000*%
%ADD178O,0.80000X0.25000*%
D10*
X10980000Y11410000D02*
D03*
X10900000D02*
D03*
X11710000Y10240000D02*
D03*
X11630000D02*
D03*
X10410000Y12330000D02*
D03*
X10330000D02*
D03*
X13060001Y10880000D02*
D03*
X13139999D02*
D03*
X12920000Y11350000D02*
D03*
X13000000D02*
D03*
X11470000Y9290000D02*
D03*
X11550000D02*
D03*
X13330000Y8790000D02*
D03*
X13250000D02*
D03*
X13610001Y8640000D02*
D03*
X13689999D02*
D03*
X13500000Y9030000D02*
D03*
X13580000D02*
D03*
X13610001Y8520000D02*
D03*
X13689999D02*
D03*
X13607500Y11600000D02*
D03*
X13527499D02*
D03*
X13333430Y12005000D02*
D03*
X13253432D02*
D03*
X13330000Y8670000D02*
D03*
X13250000D02*
D03*
X13693431Y12155000D02*
D03*
X13613431D02*
D03*
X13100000Y9320000D02*
D03*
X13020000D02*
D03*
X12770000Y9800000D02*
D03*
X12850000D02*
D03*
X13333430Y11885000D02*
D03*
X13253432D02*
D03*
X13693431Y12035000D02*
D03*
X13613431D02*
D03*
X12200000Y12450000D02*
D03*
X12120000D02*
D03*
D11*
X10070000Y11100000D02*
D03*
Y11020000D02*
D03*
X9980000Y10400000D02*
D03*
Y10320000D02*
D03*
X10060000Y9645000D02*
D03*
Y9565000D02*
D03*
X11960000Y11350000D02*
D03*
Y11270000D02*
D03*
X12240000Y10410000D02*
D03*
Y10330000D02*
D03*
X13343431Y11155000D02*
D03*
Y11075000D02*
D03*
X12650000Y10870000D02*
D03*
Y10790000D02*
D03*
X11920000Y8710000D02*
D03*
Y8790000D02*
D03*
X12440000Y8840000D02*
D03*
Y8760000D02*
D03*
X14080000Y8750000D02*
D03*
Y8670000D02*
D03*
X14039999Y11900000D02*
D03*
Y11980000D02*
D03*
X13339999Y9600000D02*
D03*
Y9520000D02*
D03*
X12600000Y9370000D02*
D03*
Y9290000D02*
D03*
D17*
X12345000Y10220000D02*
D03*
X12255000D02*
D03*
X13514999Y11070000D02*
D03*
X13605000D02*
D03*
X13605000Y10980000D02*
D03*
X13514999D02*
D03*
X13875000Y8770000D02*
D03*
X13964999D02*
D03*
X13864999Y11780000D02*
D03*
X13955000D02*
D03*
X13795000Y11670000D02*
D03*
X13705000D02*
D03*
X13605000Y9610000D02*
D03*
X13514999D02*
D03*
X13514999Y9700000D02*
D03*
X13605000D02*
D03*
X13364999Y9230000D02*
D03*
X13275000D02*
D03*
X13275000Y9330000D02*
D03*
X13364999D02*
D03*
X13425000Y10950000D02*
D03*
X13335001D02*
D03*
X13514999Y9520000D02*
D03*
X13425000D02*
D03*
X10155000Y10020000D02*
D03*
X10065000D02*
D03*
X10155000Y9940000D02*
D03*
X10065000D02*
D03*
X10445000Y12240000D02*
D03*
X10355000D02*
D03*
X10445000Y12050000D02*
D03*
X10355000D02*
D03*
X12115000Y12360000D02*
D03*
X12205000D02*
D03*
D18*
X10480000Y9600000D02*
D03*
Y9690000D02*
D03*
X10562851Y9600000D02*
D03*
Y9690000D02*
D03*
X10480000Y9520000D02*
D03*
Y9430000D02*
D03*
X10562851Y9520000D02*
D03*
Y9430000D02*
D03*
X10400000Y10410000D02*
D03*
Y10500000D02*
D03*
X10480000Y10415000D02*
D03*
Y10505000D02*
D03*
X10400000Y10335000D02*
D03*
Y10245000D02*
D03*
X10480000Y10335000D02*
D03*
Y10245000D02*
D03*
X10500000Y11095000D02*
D03*
Y11185000D02*
D03*
X10580000Y11095000D02*
D03*
Y11185000D02*
D03*
Y11025000D02*
D03*
Y10935000D02*
D03*
X10500000Y11025000D02*
D03*
Y10935000D02*
D03*
X12340000Y10405000D02*
D03*
Y10315000D02*
D03*
X13339999Y11355000D02*
D03*
Y11265000D02*
D03*
X12503431Y11390000D02*
D03*
Y11300000D02*
D03*
X13335001Y10858431D02*
D03*
Y10768431D02*
D03*
X13435001Y10768431D02*
D03*
Y10858431D02*
D03*
X12760000Y10815000D02*
D03*
Y10905000D02*
D03*
X12623431Y11090000D02*
D03*
Y11000000D02*
D03*
X12540000Y8845000D02*
D03*
Y8755000D02*
D03*
X12420000Y8655000D02*
D03*
Y8565000D02*
D03*
X13450000Y8805000D02*
D03*
Y8895000D02*
D03*
X13350000Y9805000D02*
D03*
Y9715000D02*
D03*
X12500000Y9285000D02*
D03*
Y9375000D02*
D03*
X12700000Y9265000D02*
D03*
Y9355000D02*
D03*
X12620000Y9585000D02*
D03*
Y9675000D02*
D03*
X12850000Y10905000D02*
D03*
Y10815000D02*
D03*
X12800000Y9265000D02*
D03*
Y9355000D02*
D03*
X12900000Y11505000D02*
D03*
Y11595000D02*
D03*
X13039999Y8715000D02*
D03*
Y8805000D02*
D03*
X10000000Y10845000D02*
D03*
Y10935000D02*
D03*
X10060000Y11355000D02*
D03*
Y11265000D02*
D03*
X10000000Y10675000D02*
D03*
Y10765000D02*
D03*
X10040000Y9365000D02*
D03*
Y9455000D02*
D03*
X11680000Y12135000D02*
D03*
Y12225000D02*
D03*
Y12415000D02*
D03*
Y12325000D02*
D03*
X11590000Y12225000D02*
D03*
Y12135000D02*
D03*
Y12325000D02*
D03*
Y12415000D02*
D03*
D19*
X11460000Y11260000D02*
D03*
Y11120000D02*
D03*
X13459999Y10310000D02*
D03*
Y10450000D02*
D03*
X13920000Y10390000D02*
D03*
Y10530000D02*
D03*
X11320000Y9610000D02*
D03*
Y9470000D02*
D03*
X12810001Y8490000D02*
D03*
Y8350000D02*
D03*
X8830000Y8500000D02*
D03*
Y8640000D02*
D03*
X8980000Y8820000D02*
D03*
Y8960000D02*
D03*
X12330000Y9470000D02*
D03*
Y9330000D02*
D03*
X13160001Y10490000D02*
D03*
Y10630000D02*
D03*
D23*
X11800000Y11020000D02*
D03*
X11660000D02*
D03*
X12140000Y10580000D02*
D03*
X12000000D02*
D03*
X11760000Y10580000D02*
D03*
X11900000D02*
D03*
X11710000Y9730000D02*
D03*
X11850000D02*
D03*
X11940000Y8990000D02*
D03*
X12080000D02*
D03*
X12180000Y9000000D02*
D03*
X12320000D02*
D03*
X12690000Y11820000D02*
D03*
X12830000D02*
D03*
D26*
X12787500Y11022500D02*
D03*
Y11087500D02*
D03*
Y11152500D02*
D03*
Y11217500D02*
D03*
X13192500Y11022500D02*
D03*
Y11087500D02*
D03*
Y11152500D02*
D03*
Y11217500D02*
D03*
X12777500Y9462500D02*
D03*
Y9527500D02*
D03*
Y9592500D02*
D03*
Y9657500D02*
D03*
X13182500Y9462500D02*
D03*
Y9527500D02*
D03*
Y9592500D02*
D03*
Y9657500D02*
D03*
D28*
X13595000Y10560000D02*
D03*
X13689999D02*
D03*
X13785001D02*
D03*
Y10320000D02*
D03*
X13595000D02*
D03*
D29*
X9040000Y8370000D02*
D03*
Y8090000D02*
D03*
D40*
X10660000Y11922500D02*
D03*
Y11987500D02*
D03*
Y12052500D02*
D03*
Y12117500D02*
D03*
Y12182500D02*
D03*
Y12247500D02*
D03*
Y12312500D02*
D03*
Y12377500D02*
D03*
X11220000Y11922500D02*
D03*
Y11987500D02*
D03*
Y12052500D02*
D03*
Y12117500D02*
D03*
Y12182500D02*
D03*
Y12247500D02*
D03*
Y12312500D02*
D03*
Y12377500D02*
D03*
D53*
X16452499Y7627000D02*
D03*
Y7073000D02*
D03*
Y13626999D02*
D03*
Y13073000D02*
D03*
Y11227000D02*
D03*
Y10673000D02*
D03*
Y10027000D02*
D03*
Y9473000D02*
D03*
Y8827000D02*
D03*
Y8273000D02*
D03*
Y12427000D02*
D03*
Y11873000D02*
D03*
D79*
X11717500Y9595000D02*
D03*
Y9500000D02*
D03*
Y9405000D02*
D03*
X11462500D02*
D03*
Y9595000D02*
D03*
D80*
X12355000Y12002500D02*
D03*
Y12067500D02*
D03*
Y12132500D02*
D03*
Y12197500D02*
D03*
Y12262500D02*
D03*
Y12327500D02*
D03*
Y12392500D02*
D03*
Y12457500D02*
D03*
X12925000Y12002500D02*
D03*
Y12067500D02*
D03*
Y12132500D02*
D03*
Y12197500D02*
D03*
Y12262500D02*
D03*
Y12327500D02*
D03*
Y12392500D02*
D03*
Y12457500D02*
D03*
D81*
X10367851Y9387500D02*
D03*
X10302851D02*
D03*
X10237851D02*
D03*
X10172851D02*
D03*
X10367851Y9812500D02*
D03*
X10302851D02*
D03*
X10237851D02*
D03*
X10172851D02*
D03*
X10287851Y10142500D02*
D03*
X10222851D02*
D03*
X10157851D02*
D03*
X10092851D02*
D03*
X10287851Y10567500D02*
D03*
X10222851D02*
D03*
X10157851D02*
D03*
X10092851D02*
D03*
X10377851Y10842500D02*
D03*
X10312851D02*
D03*
X10247851D02*
D03*
X10182851D02*
D03*
X10377851Y11267500D02*
D03*
X10312851D02*
D03*
X10247851D02*
D03*
X10182851D02*
D03*
D82*
X13147501Y8905000D02*
D03*
Y8970000D02*
D03*
Y9035000D02*
D03*
X13352499D02*
D03*
Y8905000D02*
D03*
X13157500Y11635000D02*
D03*
Y11700000D02*
D03*
Y11765000D02*
D03*
X13362500D02*
D03*
Y11635000D02*
D03*
X13772501Y11785000D02*
D03*
Y11850000D02*
D03*
Y11915000D02*
D03*
X13567500D02*
D03*
Y11850000D02*
D03*
Y11785000D02*
D03*
X13547501Y8895000D02*
D03*
Y8830000D02*
D03*
Y8765000D02*
D03*
X13752499D02*
D03*
Y8830000D02*
D03*
Y8895000D02*
D03*
D83*
X9130000Y8550000D02*
D03*
Y8850000D02*
D03*
D84*
X9150000Y8700000D02*
D03*
D85*
X9380000D02*
D03*
D86*
X8520000Y8530000D02*
D03*
X8660000D02*
D03*
X11630000Y10580000D02*
D03*
X11490000D02*
D03*
X13120000Y10180000D02*
D03*
X12980000D02*
D03*
X11630000Y9880000D02*
D03*
X11770000D02*
D03*
X13315900Y8529100D02*
D03*
X13455899D02*
D03*
X11590000Y9020000D02*
D03*
X11730000D02*
D03*
X13319330Y12145900D02*
D03*
X13459331D02*
D03*
D87*
X11460000Y10860000D02*
D03*
Y11000000D02*
D03*
D88*
X11850000Y11175000D02*
D03*
Y11365000D02*
D03*
X11610000D02*
D03*
Y11270000D02*
D03*
Y11175000D02*
D03*
D89*
X10770000Y11495000D02*
D03*
Y11545000D02*
D03*
Y11595000D02*
D03*
Y11645000D02*
D03*
X11070000Y11495000D02*
D03*
Y11545000D02*
D03*
Y11595000D02*
D03*
Y11645000D02*
D03*
D92*
X9320000Y8071000D02*
D03*
Y7869000D02*
D03*
D93*
X8450000Y7720000D02*
D03*
Y7975000D02*
D03*
X8740000Y7722500D02*
D03*
Y7977500D02*
D03*
D175*
X12170001Y8720000D02*
D03*
X11979969Y10320001D02*
D03*
D176*
X12202501Y8862500D02*
D03*
X12137500D02*
D03*
Y8577500D02*
D03*
X12202501D02*
D03*
X12012500Y10177503D02*
D03*
X11947500Y10177501D02*
D03*
Y10462498D02*
D03*
X12012499Y10462500D02*
D03*
D177*
X12170001Y8720000D02*
D03*
X11980000Y10320000D02*
D03*
D178*
X12022501Y8817500D02*
D03*
Y8752500D02*
D03*
Y8687500D02*
D03*
Y8622500D02*
D03*
X12317501D02*
D03*
Y8687500D02*
D03*
Y8752500D02*
D03*
Y8817500D02*
D03*
X12127500Y10417500D02*
D03*
Y10352500D02*
D03*
Y10287500D02*
D03*
Y10222500D02*
D03*
X11832500D02*
D03*
Y10287500D02*
D03*
Y10352500D02*
D03*
Y10417500D02*
D03*
%TF.MD5,930f6b5944f86d1e5579f4b2c7d1cf62*%
M02*
