G04 Layer_Physical_Order=6*
G04 Layer_Color=16711680*
%FSLAX26Y26*%
%MOIN*%
%TF.FileFunction,Copper,L6,Bot,Signal*%
%TF.Part,Single*%
G01*
G75*
%TA.AperFunction,SMDPad,CuDef*%
%ADD10R,0.020472X0.020472*%
%ADD11R,0.020472X0.020472*%
%ADD12R,0.017716X0.021654*%
%ADD13R,0.021654X0.017716*%
%ADD17R,0.155512X0.059055*%
%ADD18C,0.023622*%
%ADD25R,0.035433X0.027559*%
%ADD35O,0.055118X0.013780*%
%ADD36O,0.059055X0.015709*%
%ADD39R,0.102362X0.037402*%
%ADD44R,0.027559X0.035433*%
%ADD48R,0.025591X0.035433*%
%TA.AperFunction,Conductor*%
%ADD77C,0.007874*%
%ADD78C,0.013780*%
%ADD79C,0.004921*%
%ADD80C,0.039370*%
%ADD84C,0.019685*%
%ADD85C,0.025591*%
%TA.AperFunction,ComponentPad*%
%ADD91C,0.060000*%
%ADD92R,0.060000X0.060000*%
%ADD93C,0.055118*%
%ADD94R,0.055118X0.055118*%
%TA.AperFunction,ViaPad*%
%ADD95C,0.023622*%
%ADD96C,0.017716*%
%TA.AperFunction,SMDPad,CuDef*%
G04:AMPARAMS|DCode=97|XSize=15.709mil|YSize=25.591mil|CornerRadius=1.964mil|HoleSize=0mil|Usage=FLASHONLY|Rotation=90.000|XOffset=0mil|YOffset=0mil|HoleType=Round|Shape=RoundedRectangle|*
%AMROUNDEDRECTD97*
21,1,0.015709,0.021663,0,0,90.0*
21,1,0.011781,0.025591,0,0,90.0*
1,1,0.003927,0.010832,0.005891*
1,1,0.003927,0.010832,-0.005891*
1,1,0.003927,-0.010832,-0.005891*
1,1,0.003927,-0.010832,0.005891*
%
%ADD97ROUNDEDRECTD97*%
%ADD98R,0.031496X0.035433*%
%ADD99R,0.081890X0.038583*%
%ADD100R,0.059055X0.068898*%
%ADD101O,0.033465X0.011811*%
G04:AMPARAMS|DCode=102|XSize=9.842mil|YSize=23.622mil|CornerRadius=1.968mil|HoleSize=0mil|Usage=FLASHONLY|Rotation=270.000|XOffset=0mil|YOffset=0mil|HoleType=Round|Shape=RoundedRectangle|*
%AMROUNDEDRECTD102*
21,1,0.009842,0.019685,0,0,270.0*
21,1,0.005905,0.023622,0,0,270.0*
1,1,0.003937,-0.009842,-0.002953*
1,1,0.003937,-0.009842,0.002953*
1,1,0.003937,0.009842,0.002953*
1,1,0.003937,0.009842,-0.002953*
%
%ADD102ROUNDEDRECTD102*%
%ADD103R,0.035433X0.023622*%
%ADD104R,0.035433X0.031496*%
G04:AMPARAMS|DCode=105|XSize=70.866mil|YSize=118.11mil|CornerRadius=0mil|HoleSize=0mil|Usage=FLASHONLY|Rotation=270.000|XOffset=0mil|YOffset=0mil|HoleType=Round|Shape=Octagon|*
%AMOCTAGOND105*
4,1,8,0.059055,0.017716,0.059055,-0.017716,0.041339,-0.035433,-0.041339,-0.035433,-0.059055,-0.017716,-0.059055,0.017716,-0.041339,0.035433,0.041339,0.035433,0.059055,0.017716,0.0*
%
%ADD105OCTAGOND105*%

%ADD106R,0.047244X0.019685*%
%ADD107R,0.062992X0.019685*%
G04:AMPARAMS|DCode=108|XSize=15.709mil|YSize=45.276mil|CornerRadius=1.728mil|HoleSize=0mil|Usage=FLASHONLY|Rotation=0.000|XOffset=0mil|YOffset=0mil|HoleType=Round|Shape=RoundedRectangle|*
%AMROUNDEDRECTD108*
21,1,0.015709,0.041820,0,0,0.0*
21,1,0.012253,0.045276,0,0,0.0*
1,1,0.003456,0.006127,-0.020910*
1,1,0.003456,-0.006127,-0.020910*
1,1,0.003456,-0.006127,0.020910*
1,1,0.003456,0.006127,0.020910*
%
%ADD108ROUNDEDRECTD108*%
G04:AMPARAMS|DCode=109|XSize=15.744mil|YSize=47.244mil|CornerRadius=1.968mil|HoleSize=0mil|Usage=FLASHONLY|Rotation=90.000|XOffset=0mil|YOffset=0mil|HoleType=Round|Shape=RoundedRectangle|*
%AMROUNDEDRECTD109*
21,1,0.015744,0.043308,0,0,90.0*
21,1,0.011808,0.047244,0,0,90.0*
1,1,0.003936,0.021654,0.005904*
1,1,0.003936,0.021654,-0.005904*
1,1,0.003936,-0.021654,-0.005904*
1,1,0.003936,-0.021654,0.005904*
%
%ADD109ROUNDEDRECTD109*%
G04:AMPARAMS|DCode=110|XSize=21.654mil|YSize=31.496mil|CornerRadius=1.949mil|HoleSize=0mil|Usage=FLASHONLY|Rotation=90.000|XOffset=0mil|YOffset=0mil|HoleType=Round|Shape=RoundedRectangle|*
%AMROUNDEDRECTD110*
21,1,0.021654,0.027599,0,0,90.0*
21,1,0.017756,0.031496,0,0,90.0*
1,1,0.003898,0.013799,0.008878*
1,1,0.003898,0.013799,-0.008878*
1,1,0.003898,-0.013799,-0.008878*
1,1,0.003898,-0.013799,0.008878*
%
%ADD110ROUNDEDRECTD110*%
G36*
X4809646Y3467520D02*
X4820867D01*
Y3398622D01*
X4809646D01*
Y3358268D01*
X4798622D01*
Y3398622D01*
X4784056D01*
Y3358268D01*
X4773032D01*
Y3398622D01*
X4761811D01*
Y3467520D01*
X4773032D01*
Y3507874D01*
X4784056D01*
Y3467520D01*
X4798622D01*
Y3507874D01*
X4809646D01*
Y3467520D01*
D02*
G37*
G36*
X4734842Y4097441D02*
X4746063D01*
Y4028543D01*
X4734842D01*
Y3988189D01*
X4723819D01*
Y4028543D01*
X4709252D01*
Y3988189D01*
X4698228D01*
Y4028543D01*
X4687008D01*
Y4097441D01*
X4698228D01*
Y4137795D01*
X4709252D01*
Y4097441D01*
X4723819D01*
Y4137795D01*
X4734842D01*
Y4097441D01*
D02*
G37*
D10*
X4960630Y3657480D02*
D03*
Y3688976D02*
D03*
X5251968Y3748032D02*
D03*
Y3779528D02*
D03*
X5527559Y4716535D02*
D03*
Y4685039D02*
D03*
X5543307Y3413386D02*
D03*
Y3444882D02*
D03*
X4897638Y3448819D02*
D03*
Y3480315D02*
D03*
X4692913Y3460630D02*
D03*
Y3429134D02*
D03*
X4980315Y4248032D02*
D03*
Y4279528D02*
D03*
X5253319Y4360236D02*
D03*
Y4391732D02*
D03*
X4818898Y4066929D02*
D03*
Y4098425D02*
D03*
X4708661Y4437008D02*
D03*
Y4468504D02*
D03*
X3960630Y3765748D02*
D03*
Y3797244D02*
D03*
X3929134Y4062992D02*
D03*
Y4094488D02*
D03*
X3964567Y4338583D02*
D03*
Y4370079D02*
D03*
D11*
X5359618Y4738189D02*
D03*
X5391114D02*
D03*
X5217886Y4679134D02*
D03*
X5249382D02*
D03*
X5059055Y3858268D02*
D03*
X5027559D02*
D03*
X5125984Y3669291D02*
D03*
X5157480D02*
D03*
X5359618Y4785433D02*
D03*
X5391114D02*
D03*
X5216535Y3413386D02*
D03*
X5248032D02*
D03*
X5217886Y4726378D02*
D03*
X5249382D02*
D03*
X5325787Y4566929D02*
D03*
X5357283D02*
D03*
X5389764Y3354331D02*
D03*
X5358268D02*
D03*
X5346457Y3555118D02*
D03*
X5314961D02*
D03*
X5389764Y3401575D02*
D03*
X5358268D02*
D03*
X5216535Y3460630D02*
D03*
X5248032D02*
D03*
X4547244Y3657480D02*
D03*
X4515748D02*
D03*
X5118110Y4468504D02*
D03*
X5086614D02*
D03*
X5173228Y4283465D02*
D03*
X5141732D02*
D03*
X4771654Y4901575D02*
D03*
X4803150D02*
D03*
X4066929Y4854331D02*
D03*
X4098425D02*
D03*
X4578740Y4031496D02*
D03*
X4610236D02*
D03*
X4291339Y4492126D02*
D03*
X4322835D02*
D03*
D12*
X5285433Y3748032D02*
D03*
X5320866D02*
D03*
X5250000Y4311024D02*
D03*
X5285433D02*
D03*
X5261811Y3673228D02*
D03*
X5226378D02*
D03*
X5226378Y3633858D02*
D03*
X5261811D02*
D03*
X5356299Y3818898D02*
D03*
X5320866D02*
D03*
X5320866Y3783465D02*
D03*
X5356299D02*
D03*
X5395669Y4594488D02*
D03*
X5431102D02*
D03*
X5494094Y4637795D02*
D03*
X5458661D02*
D03*
X5498031Y3452756D02*
D03*
X5462598D02*
D03*
X5320866Y4322835D02*
D03*
X5356299D02*
D03*
X5356299Y4358268D02*
D03*
X5320866D02*
D03*
X4824803Y4023622D02*
D03*
X4860236D02*
D03*
D13*
X5133858Y3466535D02*
D03*
Y3431102D02*
D03*
X5078740Y4564961D02*
D03*
Y4529528D02*
D03*
X5039370Y3683071D02*
D03*
Y3647638D02*
D03*
X5059055Y4257874D02*
D03*
Y4293307D02*
D03*
X4968504Y3809055D02*
D03*
Y3773622D02*
D03*
X5000000Y3683071D02*
D03*
Y3647638D02*
D03*
X4921260Y3690945D02*
D03*
Y3655512D02*
D03*
X5255905Y3824803D02*
D03*
Y3860236D02*
D03*
X5295276Y3501968D02*
D03*
Y3466535D02*
D03*
X4889764Y3372047D02*
D03*
Y3407480D02*
D03*
X4937008Y3446850D02*
D03*
Y3482283D02*
D03*
X4969855Y4330708D02*
D03*
Y4366142D02*
D03*
X5023622Y4293307D02*
D03*
Y4257874D02*
D03*
X5289370Y4274973D02*
D03*
Y4239540D02*
D03*
X5250000Y4239540D02*
D03*
Y4274973D02*
D03*
X4922610Y4448819D02*
D03*
Y4484252D02*
D03*
X5251968Y4435039D02*
D03*
Y4470472D02*
D03*
X4598425Y4812992D02*
D03*
Y4777559D02*
D03*
X4562992Y4777559D02*
D03*
Y4812992D02*
D03*
Y4887795D02*
D03*
Y4852362D02*
D03*
X4598425Y4852362D02*
D03*
Y4887795D02*
D03*
X4858268Y4061024D02*
D03*
Y4096457D02*
D03*
X4133858Y4305118D02*
D03*
Y4340551D02*
D03*
X4165354Y4305118D02*
D03*
Y4340551D02*
D03*
Y4403543D02*
D03*
Y4368110D02*
D03*
X4133858Y4403543D02*
D03*
Y4368110D02*
D03*
X4125984Y4033465D02*
D03*
Y4068898D02*
D03*
X4094488Y4033465D02*
D03*
Y4068898D02*
D03*
X4125984Y4135827D02*
D03*
Y4100394D02*
D03*
X4094488Y4133858D02*
D03*
Y4098425D02*
D03*
X4158603Y3712599D02*
D03*
Y3748032D02*
D03*
X4125984Y3712599D02*
D03*
Y3748032D02*
D03*
X4158603Y3814961D02*
D03*
Y3779527D02*
D03*
X4125984Y3814961D02*
D03*
Y3779527D02*
D03*
D17*
X6477362Y4674409D02*
D03*
Y4892520D02*
D03*
Y3257087D02*
D03*
Y3475197D02*
D03*
Y3729528D02*
D03*
Y3947638D02*
D03*
Y4201968D02*
D03*
Y4420079D02*
D03*
Y5146850D02*
D03*
Y5364960D02*
D03*
Y2784646D02*
D03*
Y3002756D02*
D03*
D18*
X4720472Y4377953D02*
D03*
X5334646Y4281496D02*
D03*
X5039370Y3602362D02*
D03*
X5305118Y4604331D02*
D03*
X5440945Y3413386D02*
D03*
X5429134Y4555118D02*
D03*
X5295276Y3425197D02*
D03*
X4980315Y3484252D02*
D03*
X4877953Y4141732D02*
D03*
X5492126Y4023622D02*
D03*
X4503937Y3826772D02*
D03*
X3614173Y3547244D02*
D03*
D25*
X5181102Y4185039D02*
D03*
Y4129921D02*
D03*
X4854331Y3673228D02*
D03*
Y3728347D02*
D03*
X3535433Y3527559D02*
D03*
Y3472441D02*
D03*
X3476378Y3401575D02*
D03*
Y3346457D02*
D03*
X5043307Y3287402D02*
D03*
Y3342520D02*
D03*
X4456693Y3728347D02*
D03*
Y3783465D02*
D03*
X5480315Y4145669D02*
D03*
Y4090551D02*
D03*
X5299212Y4114173D02*
D03*
Y4059055D02*
D03*
X4511811Y4377953D02*
D03*
Y4433071D02*
D03*
D35*
X4417323Y4873032D02*
D03*
Y4847441D02*
D03*
Y4821850D02*
D03*
Y4796260D02*
D03*
Y4770669D02*
D03*
Y4745079D02*
D03*
Y4719488D02*
D03*
Y4693898D02*
D03*
X4196850Y4873032D02*
D03*
Y4847441D02*
D03*
Y4821850D02*
D03*
Y4796260D02*
D03*
Y4770669D02*
D03*
Y4745079D02*
D03*
Y4719488D02*
D03*
Y4693898D02*
D03*
D36*
X5189961Y3802165D02*
D03*
Y3776575D02*
D03*
Y3750984D02*
D03*
Y3725394D02*
D03*
X5030512Y3802165D02*
D03*
Y3776575D02*
D03*
Y3750984D02*
D03*
Y3725394D02*
D03*
X5193898Y4416339D02*
D03*
Y4390748D02*
D03*
Y4365158D02*
D03*
Y4339567D02*
D03*
X5034449Y4416339D02*
D03*
Y4390748D02*
D03*
Y4365158D02*
D03*
Y4339567D02*
D03*
D39*
X3551181Y3185039D02*
D03*
Y3295276D02*
D03*
D44*
X5051181Y4653543D02*
D03*
X4996063D02*
D03*
X4850394Y3543307D02*
D03*
X4795276D02*
D03*
X4755905Y3539370D02*
D03*
X4700787D02*
D03*
X4665354Y3830709D02*
D03*
X4610236D02*
D03*
X4685039Y4165354D02*
D03*
X4629921D02*
D03*
X4724409Y4165354D02*
D03*
X4779528D02*
D03*
X4590551Y4338583D02*
D03*
X4645669D02*
D03*
D48*
X5352362Y4062992D02*
D03*
X5427165D02*
D03*
Y4157480D02*
D03*
X5389764D02*
D03*
X5352362D02*
D03*
D77*
X4147638Y4033465D02*
X4157472Y4043299D01*
X5218504Y3860236D02*
X5255905D01*
X5218504D02*
X5224409Y3866142D01*
X5312992Y3519685D02*
Y3558758D01*
X5359252Y4539370D02*
Y4566929D01*
X5547244Y3641732D02*
X5572835Y3667323D01*
X5503937Y3446851D02*
X5543307D01*
X4808071Y4075787D02*
X4822835Y4061024D01*
X4691929Y3420276D02*
X4733268D01*
X4685039Y3427165D02*
X4691929Y3420276D01*
X5250000Y4311024D02*
Y4361587D01*
X5250642Y4275591D02*
X5290012D01*
X5133858Y3466535D02*
X5167323D01*
X5116142D02*
X5133858D01*
X5247047Y3750984D02*
X5251969Y3746063D01*
X5253937Y3748032D01*
X4980315Y4246063D02*
Y4250000D01*
X5285433Y4311024D02*
X5297244Y4322835D01*
X5059055Y4293307D02*
Y4307087D01*
X5039370Y3683071D02*
Y3716535D01*
X5253937Y3748032D02*
X5285433D01*
X5133858Y3401575D02*
Y3431102D01*
X5078740Y4529528D02*
X5083661Y4524606D01*
X5039370Y3602362D02*
Y3647638D01*
X4056241Y3860236D02*
Y3891174D01*
X4062704Y3897638D02*
X4098425D01*
X4056241Y3891174D02*
X4062704Y3897638D01*
X4024745Y4157480D02*
Y4186162D01*
X4032480Y4193898D02*
X4073819D01*
X4024745Y4186162D02*
X4032480Y4193898D01*
X5188976Y4822835D02*
Y4893701D01*
X5117126Y4750984D02*
X5188976Y4822835D01*
X5088583Y4750984D02*
X5117126D01*
X4125984Y3779527D02*
Y3782342D01*
X4158603Y3814961D01*
X4921260Y3690945D02*
X4960630D01*
X4531496Y3098425D02*
X4547244Y3114173D01*
X4060178Y4433071D02*
Y4461752D01*
X5250366Y4390748D02*
X5253319Y4393701D01*
X4030650Y3668445D02*
Y3698819D01*
X3318307Y4851378D02*
X3319291Y4850394D01*
X4600394Y3702756D02*
X4616142D01*
X5247047Y3776575D02*
X5251969Y3781496D01*
X4416339Y4822835D02*
X4437008D01*
X4970472Y4365500D02*
X4971114Y4366142D01*
X5358268Y4355657D02*
X5378937Y4376326D01*
X5358268Y4320224D02*
Y4355657D01*
X4060178Y4249154D02*
Y4271654D01*
X4056241Y3672106D02*
Y3698819D01*
X4034587Y4433071D02*
Y4459784D01*
X4024745Y3913386D02*
Y3996063D01*
X4031496Y3861082D02*
Y3913386D01*
X4161417Y3811023D02*
X4165354D01*
X4125984Y3814961D02*
Y3870079D01*
Y3811023D02*
Y3814961D01*
X4067913Y4469488D02*
X4109252D01*
X4060178Y4461752D02*
X4067913Y4469488D01*
X5562992Y3667323D02*
X5572835D01*
X5346457Y4501141D02*
Y4507874D01*
X5359252Y4506441D02*
Y4539370D01*
Y4506441D02*
X5458213Y4407480D01*
X5346457Y4501141D02*
X5452913Y4394685D01*
X5453362D02*
X5515748Y4332298D01*
X5452913Y4394685D02*
X5453362D01*
X5458662Y4407480D02*
X5503937Y4362205D01*
X5458213Y4407480D02*
X5458662D01*
X6476378Y4675394D02*
Y4728346D01*
Y4675394D02*
X6477362Y4674409D01*
X6476378Y4838583D02*
X6477362Y4839567D01*
Y4892520D01*
X6472441Y2789567D02*
Y2838583D01*
Y2789567D02*
X6477362Y2784646D01*
X6476378Y2948819D02*
Y3001772D01*
X6477362Y3002756D01*
X3538598Y4818898D02*
X3821850Y4535645D01*
X3342520Y4818898D02*
X3538598D01*
X3322828Y4853930D02*
X3521660D01*
X3417323Y4874016D02*
X3519670D01*
X3818883Y4574803D01*
X3385827Y4905512D02*
X3417323Y4874016D01*
X3318307Y4851378D02*
X3320276D01*
X3322828Y4853930D01*
X3319291Y4850394D02*
X3320276Y4851378D01*
X3322828Y4853930D02*
Y4854321D01*
X4034587Y4459784D02*
Y4461476D01*
X3818883Y4574803D02*
X3921260D01*
X4034587Y4461476D01*
X3521660Y4853930D02*
X3851969Y4523622D01*
X3878669D01*
X3894685Y4507606D01*
Y4481835D02*
Y4507606D01*
X4358268Y4405512D02*
X4641732Y4688976D01*
X5777559Y3681399D02*
X5801485Y3657473D01*
X5803138D01*
X4370079Y4692913D02*
X4396654Y4719488D01*
X4370079Y4637795D02*
Y4692913D01*
X5083661Y4524606D02*
X5266650D01*
X5277559Y4517717D02*
X5343504Y4451772D01*
X5273540Y4517717D02*
X5277559D01*
X5266650Y4524606D02*
X5273540Y4517717D01*
X5287744Y4530512D02*
X5378937Y4439319D01*
X5278840Y4530512D02*
X5287744D01*
X5271950Y4537402D02*
X5278840Y4530512D01*
X5269685Y4537402D02*
X5271950D01*
X5225383Y3826493D02*
X5241409Y3842520D01*
X5225383Y3818200D02*
Y3826493D01*
X5209349Y3802165D02*
X5225383Y3818200D01*
X5189961Y3802165D02*
X5209349D01*
X4112205Y4118110D02*
X4125984Y4131890D01*
X4111488Y4118110D02*
X4112205D01*
X4106299Y4112921D02*
X4111488Y4118110D01*
X4106299Y4112205D02*
Y4112921D01*
X4094488Y4100394D02*
X4106299Y4112205D01*
X4094488Y4098425D02*
Y4100394D01*
X4212598Y3763780D02*
X4224409D01*
X4165354Y3811023D02*
X4212598Y3763780D01*
X4182087Y4034984D02*
Y4079428D01*
X4117414Y4004913D02*
X4152016D01*
X4182087Y4034984D01*
X4157480Y4035433D02*
Y4043291D01*
X4157472Y4043299D02*
X4157480Y4043291D01*
X4279519Y4566921D02*
Y4570857D01*
X4277559Y4564961D02*
X4279519Y4566921D01*
X5010817Y4936310D02*
X5024606Y4922521D01*
X4995079Y4865158D02*
X5000688D01*
X5024606Y4889076D02*
Y4922521D01*
X5000688Y4865158D02*
X5024606Y4889076D01*
X4968504Y4909449D02*
X4968504D01*
X4954725Y4895669D02*
X4968504Y4909449D01*
X4939961Y4916635D02*
Y4933758D01*
Y4916635D02*
X4941929Y4914667D01*
Y4859252D02*
Y4914667D01*
X4927165Y4911336D02*
Y4939058D01*
Y4911336D02*
X4929134Y4909367D01*
Y4885827D02*
Y4909367D01*
X4954725Y4849846D02*
Y4895669D01*
X4939961Y4933758D02*
X4941929Y4935727D01*
X4927165Y4939058D02*
X4929134Y4941027D01*
X4941929Y4935727D02*
Y4953117D01*
X4929134Y4941027D02*
Y4947817D01*
X4680415Y3485236D02*
X4719489D01*
X4617126Y3421947D02*
X4680415Y3485236D01*
X4647341Y3393701D02*
X4732284D01*
X4646357Y3392716D02*
X4647341Y3393701D01*
X4629234Y3392716D02*
X4646357D01*
X4617126Y3404824D02*
X4629234Y3392716D01*
X4617126Y3404824D02*
Y3421947D01*
X4719489Y3485236D02*
X4733268Y3471457D01*
X3929126Y4448810D02*
Y4460638D01*
X3919291Y4470472D02*
X3929126Y4460638D01*
X4380905Y4762260D02*
Y4778177D01*
Y4762260D02*
X4383858Y4759307D01*
Y4750000D02*
Y4759307D01*
Y4750000D02*
X4388780Y4745079D01*
X4417323D01*
X4605612Y3130905D02*
X4634546D01*
X4635530Y3129921D02*
X4866142D01*
X4634546Y3130905D02*
X4635530Y3129921D01*
X4604627D02*
X4605612Y3130905D01*
X4565125Y3129921D02*
X4604627D01*
X4875000Y3138780D02*
Y3175000D01*
X4866142Y3129921D02*
X4875000Y3138780D01*
X4556273Y3138773D02*
X4565125Y3129921D01*
X4534736Y3138773D02*
X4556273D01*
X4525885Y3129921D02*
X4534736Y3138773D01*
X4511811Y3129921D02*
X4525885D01*
X4543298Y3118104D02*
X4543313D01*
X4547244Y3114173D01*
X4543307Y3015748D02*
X5259842D01*
X4531496Y3027559D02*
X4543307Y3015748D01*
X4531496Y3027559D02*
Y3098425D01*
X5259842Y3015748D02*
X5275000Y3030905D01*
Y3075000D01*
X5153543Y4909449D02*
X5161417Y4917323D01*
X5153543Y4842520D02*
Y4909449D01*
X5113189Y4802165D02*
X5153543Y4842520D01*
X5088583Y4802165D02*
X5113189D01*
X5129921Y4858268D02*
Y5007874D01*
X5125000Y4853346D02*
X5129921Y4858268D01*
X5088583Y4853346D02*
X5125000D01*
X4896654D02*
X4929134Y4885827D01*
X4905512Y4889764D02*
Y4929134D01*
X5031486Y4944872D02*
X5039380D01*
X5079725Y4904528D01*
X5019685Y4962302D02*
Y5019685D01*
X5010817Y4953434D02*
X5019685Y4962302D01*
X5010817Y4936310D02*
Y4953434D01*
X5079725Y4904528D02*
X5088583D01*
X5019685Y5019685D02*
X5075000Y5075000D01*
X4910433Y4827756D02*
X4941929Y4859252D01*
X4864173Y4827756D02*
X4910433D01*
X4936142Y4958904D02*
Y5020551D01*
Y4958904D02*
X4941929Y4953117D01*
X4889206Y5015748D02*
X4923346Y4981608D01*
Y4953605D02*
Y4981608D01*
Y4953605D02*
X4929134Y4947817D01*
X4510827Y4475551D02*
Y4502953D01*
X4498032Y4480851D02*
Y4508253D01*
X4458661Y4470472D02*
X4487653D01*
X4358268Y4370079D02*
X4458661Y4470472D01*
X4492953Y4457677D02*
X4510827Y4475551D01*
X4485079Y4457677D02*
X4492953D01*
X4362039Y4334637D02*
X4485079Y4457677D01*
X4487653Y4470472D02*
X4498032Y4480851D01*
X4272244Y4506031D02*
X4277433Y4511221D01*
X4275591Y4527559D02*
Y4531890D01*
X4273622Y4525591D02*
X4275591Y4527559D01*
X4288483Y4511221D02*
X4296260Y4518998D01*
X4277433Y4511221D02*
X4288483D01*
X4296260Y4528543D02*
X4312992Y4545275D01*
X4296260Y4518998D02*
Y4528543D01*
X4272244Y4504528D02*
Y4506031D01*
X4263779Y4496063D02*
X4272244Y4504528D01*
X4312992Y4545275D02*
X4358268D01*
X4141732Y4496063D02*
X4263779D01*
X4075787Y4693898D02*
X4196850D01*
X4055118Y4673228D02*
X4075787Y4693898D01*
X4055118Y4610236D02*
Y4673228D01*
Y4610236D02*
X4066929Y4598425D01*
X4204107D01*
X4218504Y4584028D01*
X4137795Y4500000D02*
X4141732Y4496063D01*
X4322826Y4574794D02*
X4324794D01*
X4324803Y4574803D01*
X4334646Y4564961D01*
X4358268D01*
X4380905Y4778177D02*
X4398989Y4796260D01*
X4358268Y4877953D02*
X4363189Y4873032D01*
X4417323D01*
X4416339Y4846457D02*
X4417323Y4847441D01*
X4330709Y4846457D02*
X4416339D01*
X4240158Y4525591D02*
X4273622D01*
X4240158Y4564961D02*
X4277559D01*
X4196850Y4847441D02*
X4233268D01*
X4251968Y4866142D01*
Y4897638D01*
X4437008Y4822835D02*
X4476378Y4862205D01*
X4396654Y4719488D02*
X4417323D01*
X4498032Y4508253D02*
X4664966Y4675188D01*
X4510827Y4502953D02*
X4670266Y4662392D01*
X4398989Y4796260D02*
X4417323D01*
X4416339Y4822835D02*
X4417323Y4821850D01*
X4342520Y4822835D02*
X4416339D01*
X4264764Y4745079D02*
X4342520Y4822835D01*
X4196850Y4745079D02*
X4264764D01*
X4425197Y4944882D02*
X4517717Y4852362D01*
X4015748Y4944882D02*
X4023622Y4952756D01*
X4015748Y4862205D02*
Y4944882D01*
X4157480Y4821850D02*
X4196850D01*
X4056102D02*
X4157480D01*
Y4783465D02*
Y4821850D01*
Y4783465D02*
X4170276Y4770669D01*
X4196850D01*
X4015748Y4862205D02*
X4056102Y4821850D01*
X4196850Y4719488D02*
X4237205D01*
X4244095Y4712598D01*
Y4625984D02*
Y4712598D01*
Y4625984D02*
X4263780Y4606299D01*
X4336614D01*
X4358268Y4584646D01*
X4808071Y4750984D02*
X4864173D01*
X4771654Y4787402D02*
X4808071Y4750984D01*
X4771654Y4787402D02*
Y4818816D01*
X4697835Y4892635D02*
X4771654Y4818816D01*
X4697835Y4892635D02*
Y4910136D01*
X4685727Y4922244D02*
X4697835Y4910136D01*
X4650294Y4922244D02*
X4685727D01*
X4715551Y4893013D02*
Y4910515D01*
X4654491Y4936142D02*
X4689925D01*
X4715551Y4910515D01*
X4646357Y4926181D02*
X4650294Y4922244D01*
X4629234Y4926181D02*
X4646357D01*
X4626399Y4923346D02*
X4629234Y4926181D01*
X4583668Y4923346D02*
X4626399D01*
X4573938Y4936142D02*
X4621099D01*
X4651657Y4938976D02*
X4654491Y4936142D01*
X4623934Y4938976D02*
X4651657D01*
X4621099Y4936142D02*
X4623934Y4938976D01*
X4663089Y4901575D02*
X4677165D01*
X4646357Y4884842D02*
X4663089Y4901575D01*
X4637795Y4905512D02*
X4637795Y4905512D01*
X4573708Y4913386D02*
X4583668Y4923346D01*
X4636811Y4884842D02*
X4646357D01*
X4625984Y4874016D02*
X4636811Y4884842D01*
X4625984Y4763780D02*
Y4874016D01*
X4715551Y4893013D02*
X4734549Y4874016D01*
X4535414Y4913386D02*
X4573708D01*
X4531487Y4917313D02*
X4535414Y4913386D01*
X4583929Y4905512D02*
X4637795D01*
X4538055Y4945856D02*
X4544302D01*
X4563977Y4926181D01*
X4578740Y4900323D02*
X4583929Y4905512D01*
X4578740Y4893618D02*
Y4900323D01*
X4576844Y4891722D02*
X4578740Y4893618D01*
X4563977Y4926181D02*
X4573938Y4936142D01*
X4564951Y4891722D02*
X4576844D01*
X4562992Y4889764D02*
X4564951Y4891722D01*
X4839567Y4802165D02*
X4864173D01*
X4826772Y4814961D02*
X4839567Y4802165D01*
X4826772Y4814961D02*
Y4842520D01*
X4795276Y4874016D02*
X4826772Y4842520D01*
X4734549Y4874016D02*
X4795276D01*
X4864173Y4853346D02*
X4896654D01*
X4724409Y5015748D02*
X4889206D01*
X4592520Y4748032D02*
X4610236D01*
X4625984Y4763780D01*
X4517717Y4852362D02*
X4562992D01*
X4598425Y4887795D01*
Y4887795D01*
X4562992Y4887795D02*
Y4889764D01*
X4580709Y4830709D02*
X4598425Y4812992D01*
X4580709Y4830709D02*
Y4834646D01*
X4598425Y4852362D01*
X4531496Y4834646D02*
X4580709D01*
X4519675Y4822825D02*
X4531496Y4834646D01*
X4468495Y4822825D02*
X4519675D01*
X4562992Y4777559D02*
X4592520Y4748032D01*
X4562992Y4812992D02*
X4598425Y4777559D01*
X4562992Y4812992D02*
Y4812992D01*
X4546260Y4796260D02*
X4562992Y4812992D01*
X4417323Y4796260D02*
X4546260D01*
X4665354Y4374016D02*
X4669291Y4377953D01*
X4720472D01*
X4175197Y4086317D02*
Y4213810D01*
Y4086317D02*
X4182087Y4079428D01*
X5063976Y4878937D02*
X5088583D01*
X5022638Y4837598D02*
X5063976Y4878937D01*
X5022638Y4773016D02*
Y4837598D01*
X5052165Y4827756D02*
X5088583D01*
X5035433Y4811024D02*
X5052165Y4827756D01*
X5035433Y4767717D02*
Y4811024D01*
X4981299Y4713583D02*
X5035433Y4767717D01*
X4988189Y4700787D02*
X5063976Y4776575D01*
X4975999Y4726378D02*
X5022638Y4773016D01*
X4950030Y4726378D02*
X4975999D01*
X4903761Y4680109D02*
X4950030Y4726378D01*
X4806390Y4680109D02*
X4903761D01*
X4798515Y4687983D02*
X4806390Y4680109D01*
X4642726Y4687983D02*
X4798515D01*
X4641732Y4688976D02*
X4642726Y4687983D01*
X4914361Y4654518D02*
X4960630Y4700787D01*
X4784142Y4662392D02*
X4792017Y4654518D01*
X4909061Y4667313D02*
X4955330Y4713583D01*
X4789442Y4675188D02*
X4797316Y4667313D01*
X4909061D01*
X4792017Y4654518D02*
X4914361D01*
X4955330Y4713583D02*
X4981299D01*
X4664966Y4675188D02*
X4789442D01*
X4342511Y4334637D02*
X4362039D01*
X5063976Y4776575D02*
X5088583D01*
X4960630Y4700787D02*
X4988189D01*
X4670266Y4662392D02*
X4784142D01*
X4864173Y4878937D02*
X4894685D01*
X4905512Y4889764D01*
X5460630Y4055118D02*
Y4070866D01*
Y4055118D02*
X5492126Y4023622D01*
X3821850Y3808071D02*
Y4000984D01*
X3909449Y3763780D02*
Y3925197D01*
X3922244Y3802630D02*
Y3963903D01*
X3858268Y3976378D02*
X3909449Y3925197D01*
X3873352Y4012795D02*
X3922244Y3963903D01*
X4582677Y3751701D02*
X4608535Y3777559D01*
X4582677Y3720472D02*
Y3751701D01*
Y3720472D02*
X4600394Y3702756D01*
X4342520Y3283465D02*
Y3509843D01*
X4353346Y3520669D01*
X5343504Y4428446D02*
Y4451772D01*
X5320866Y4405809D02*
X5343504Y4428446D01*
X5320866Y4358268D02*
Y4405809D01*
X4921260Y3633858D02*
X4944882Y3610236D01*
X4944882Y3736220D02*
Y3785433D01*
X4968504Y3809055D01*
X4980315Y3710630D02*
Y3751968D01*
X4960630Y3690945D02*
X4980315Y3710630D01*
X5224409Y3866142D02*
X5228336Y3862215D01*
X5241409Y3842520D02*
X5270401D01*
X5228336Y3862197D02*
Y3862215D01*
X3594488Y3527559D02*
X3614173Y3547244D01*
X3594488Y3484252D02*
Y3527559D01*
X3818898Y3267716D02*
X3821850Y3270669D01*
X5451084Y3696850D02*
X5515748Y3761514D01*
X5312992Y3558758D02*
X5451084Y3696850D01*
X5515748Y3761514D02*
Y4332298D01*
X5295276Y3501968D02*
X5312992Y3519685D01*
X5098425Y3429134D02*
Y3448819D01*
X5116142Y3466535D01*
X5232283Y3385827D02*
X5248032Y3401575D01*
X5133858Y3401575D02*
X5149606Y3385827D01*
X5176181Y3475394D02*
Y3505905D01*
X5167323Y3466535D02*
X5176181Y3475394D01*
X4733268Y3471457D02*
X4733268Y3471457D01*
X4732284Y3393701D02*
X4733268Y3394685D01*
X4899606Y3482283D02*
X4937008D01*
X4897638D02*
X4899606D01*
X4897638Y3480315D02*
X4899606Y3482283D01*
X5120079Y4564961D02*
X5125984Y4570866D01*
X5078740Y4564961D02*
X5120079D01*
X5359252Y4539370D02*
X5385827D01*
X5494094Y4637795D02*
X5511811D01*
X5531496Y4618110D01*
X5511811Y4637795D02*
X5527559Y4653543D01*
Y4683071D01*
X5334646Y4519685D02*
X5346457Y4507874D01*
X4641732Y4007874D02*
X4658465Y4024606D01*
X4566929Y4007874D02*
X4641732D01*
X4559055Y4015748D02*
X4566929Y4007874D01*
X4559055Y4015748D02*
Y4047244D01*
X4613189Y4101378D01*
X4658465D01*
X4630906Y4050197D02*
X4658465D01*
X4612205Y4031496D02*
X4630906Y4050197D01*
X4712598Y4059055D02*
X4748032Y4023622D01*
X5422244Y4690945D02*
X5470472D01*
X5480315Y4681102D01*
Y4661417D02*
Y4681102D01*
X5476378Y4657480D02*
X5480315Y4661417D01*
X5476378Y4610236D02*
Y4657480D01*
X5451084Y3696850D02*
X5766045D01*
X5777559Y3685336D01*
X3909449Y3763780D02*
X3964567Y3708662D01*
X3922244Y3802630D02*
X3959126Y3765748D01*
X3964567Y3673228D02*
Y3708662D01*
X4057087Y3996063D02*
X4094488Y4033465D01*
X4050335Y3996063D02*
X4057087D01*
X4088047Y3975546D02*
X4117414Y4004913D01*
X4088047Y3944882D02*
Y3975546D01*
X4108984Y4051181D02*
X4125984Y4034181D01*
X4108268Y4051181D02*
X4108984D01*
X4094488Y4064961D02*
X4108268Y4051181D01*
X4125984Y4033465D02*
Y4034181D01*
X4094488Y4064961D02*
Y4068898D01*
X4791338Y3433071D02*
X4829724Y3394685D01*
X4849409D01*
X4872047Y3372047D01*
X5547244Y3513483D02*
Y3641732D01*
Y3513483D02*
X5556102Y3504624D01*
Y3459646D02*
Y3504624D01*
X4133858Y4403543D02*
Y4443449D01*
X4124016Y4453292D02*
X4133858Y4443449D01*
X4124016Y4453292D02*
Y4454724D01*
X4109252Y4469488D02*
X4124016Y4454724D01*
X3894685Y4481835D02*
X3906047Y4470472D01*
X3919291D01*
X5125984Y4570866D02*
X5135827Y4580709D01*
X5180118D01*
X5149606Y3543307D02*
X5161417Y3531496D01*
X5176181D01*
X5149606Y3543307D02*
Y3578740D01*
X5161417Y3590551D02*
X5267717D01*
X5149606Y3578740D02*
X5161417Y3590551D01*
X5267717D02*
X5356299Y3679134D01*
Y3783465D01*
X5356299Y3783465D02*
Y3818898D01*
Y3783465D02*
X5356299Y3783465D01*
X5204724Y4602362D02*
X5269685Y4537402D01*
X5180118Y4606299D02*
X5184055Y4602362D01*
X5204724D01*
X5378937Y4376326D02*
Y4439319D01*
X4960630Y3655512D02*
X4972441D01*
X5000000Y3683071D01*
X5039370D01*
X5030512Y3725394D02*
X5039370Y3716535D01*
X4980315Y4250000D02*
X4990748Y4260433D01*
X4996189D01*
X5001378Y4265622D01*
Y4271063D01*
X5023622Y4293307D01*
X5059055Y4257874D01*
X5059055D01*
X5023622Y4293307D02*
Y4328740D01*
X5034449Y4339567D01*
X5251969Y3746063D02*
X5261811Y3736220D01*
X5189961Y3750984D02*
X5247047D01*
X5261811Y3633858D02*
Y3673228D01*
X5261811Y3673228D01*
Y3736220D01*
X5193898Y4365158D02*
X5246429D01*
X5250000Y4274973D02*
Y4311024D01*
X5246429Y4365158D02*
X5250000Y4361587D01*
Y4311024D02*
X5250000Y4311024D01*
X5295276Y3466535D02*
X5311024Y3450787D01*
X5295276Y3425197D02*
X5308071D01*
X5333661Y3450787D01*
X5311024D02*
X5333661D01*
X5503937Y4362205D02*
X5807087D01*
X5359252Y4566929D02*
X5386811Y4594488D01*
X5395669D01*
X5429134Y4555118D02*
X5431102Y4557087D01*
Y4594488D02*
X5460630D01*
X5431102Y4557087D02*
Y4594488D01*
X5460630D02*
X5476378Y4610236D01*
X5777559Y3681399D02*
Y3685336D01*
X4774606Y4075787D02*
X4808071D01*
X4860236Y4023622D02*
Y4059055D01*
X4822835Y4061024D02*
X4858268D01*
X4860236Y4059055D01*
X5039370Y3647638D02*
X5078740Y3687008D01*
X5065945Y3776575D02*
X5078740Y3763780D01*
Y3687008D02*
Y3763780D01*
X5030512Y3776575D02*
X5065945D01*
X5078740Y3763780D02*
X5117126Y3802165D01*
X5189961D01*
X5320866Y3748032D02*
Y3783465D01*
X5291339Y3812992D02*
Y3826772D01*
Y3812992D02*
X5320866Y3783465D01*
X5277067Y3841043D02*
X5291339Y3826772D01*
X5270401Y3842520D02*
X5271878Y3841043D01*
X5277067D01*
X5059055Y4307087D02*
X5082677Y4330709D01*
Y4390748D01*
X5034449D02*
X5082677D01*
X5095472D01*
X5121063Y4416339D01*
X5193898D01*
Y4434055D01*
X5320866Y4295276D02*
Y4322835D01*
Y4295276D02*
X5334646Y4281496D01*
X5297244Y4322835D02*
Y4435039D01*
X5193898Y4434055D02*
X5212598Y4452756D01*
X5279528D01*
X5297244Y4322835D02*
X5320866D01*
X5279528Y4452756D02*
X5297244Y4435039D01*
X5498031Y3452756D02*
X5503937Y3446851D01*
X5543307D02*
X5556102Y3459646D01*
X4946850Y4353689D02*
Y4402901D01*
X5129921Y3625984D02*
X5167323D01*
X5175197Y3633858D02*
X5226378D01*
X5167323Y3625984D02*
X5175197Y3633858D01*
X5230933Y4220472D02*
X5250000Y4239540D01*
X4921260Y3633858D02*
Y3655512D01*
X4923228Y4505264D02*
X4946850Y4528886D01*
X4858268Y4096457D02*
X4877953Y4116142D01*
Y4141732D01*
X5240158Y3535433D02*
Y3540354D01*
X5256890Y3557087D01*
X5370079Y3500000D02*
X5412401D01*
X5414370Y3501969D01*
X5260827Y4631890D02*
X5262795Y4633858D01*
X5312695D01*
X5314664Y4631890D01*
X5333662D01*
X5341535Y4639764D01*
X5000000Y3610236D02*
Y3647638D01*
X5023622Y4240158D02*
Y4257874D01*
Y4240158D02*
X5038386Y4225394D01*
X5041339D01*
X5251968Y4470472D02*
X5289370D01*
X5322835Y4437008D01*
X5414370Y3450787D02*
X5416338Y3452756D01*
X5414370Y3450787D02*
X5440945Y3424213D01*
X5333661Y3501969D02*
X5359252Y3527559D01*
X5416338Y3452756D02*
X5462598D01*
X5359252Y3527559D02*
X5433071D01*
X5440945Y3413386D02*
Y3424213D01*
X5462598Y3452756D02*
Y3459646D01*
X5456005D02*
X5462598D01*
X5436024Y3479628D02*
Y3500688D01*
X5447835Y3512499D01*
X5436024Y3479628D02*
X5456005Y3459646D01*
X5433071Y3527559D02*
X5447835Y3512795D01*
Y3512499D02*
Y3512795D01*
X5305118Y4604331D02*
X5346457D01*
X5390256Y4648130D01*
X5341535Y4690945D02*
X5348425D01*
X5390256Y4648130D02*
X5391240D01*
X5348425Y4690945D02*
X5391240Y4648130D01*
X5399606Y4639764D02*
X5422244D01*
X5391240Y4648130D02*
X5399606Y4639764D01*
X5456693D02*
X5458661Y4637795D01*
X4971114Y4366142D02*
X4988189D01*
X4923228Y4448177D02*
X4962599D01*
X4969855Y4366142D02*
X4971114D01*
X4962599Y4448177D02*
X4982283Y4428492D01*
X4971114Y4366142D02*
X4982283Y4377311D01*
X4980315Y4281496D02*
Y4308956D01*
X4989540Y4318181D01*
Y4364791D01*
X4988189Y4366142D02*
X4989540Y4364791D01*
X4982283Y4377311D02*
Y4387153D01*
Y4428492D01*
X5033465Y4366142D02*
X5034449Y4365158D01*
X4982283Y4387153D02*
X4983268Y4388138D01*
X4988189Y4366142D02*
X5033465D01*
X4980315Y3751968D02*
X4981299Y3750984D01*
X4968504Y3773622D02*
X4980315Y3761811D01*
X4981299Y3750984D02*
X5030512D01*
X4980315Y3751968D02*
Y3761811D01*
X5193898Y4390748D02*
X5250366D01*
X5251968Y4395051D02*
X5253319Y4393701D01*
X5251968Y4395051D02*
Y4435039D01*
X5189961Y3776575D02*
X5247047D01*
X5251969Y3781496D02*
Y3820866D01*
X5255905Y3824803D01*
X4872047Y3372047D02*
X4889764D01*
X3964567Y3673228D02*
X3984252Y3653543D01*
X4015748D01*
X4030650Y3668445D01*
X3959126Y3765748D02*
X3960630D01*
X3833661Y4012795D02*
X3873352D01*
X3927630Y4062992D02*
X3929134D01*
X3905512Y4085110D02*
X3927630Y4062992D01*
X3905512Y4085110D02*
Y4185039D01*
X3874016Y4216535D02*
X3905512Y4185039D01*
X3846923Y4216535D02*
X3874016D01*
X3821850Y4191462D02*
X3846923Y4216535D01*
X3821850Y4391462D02*
X3843183Y4412795D01*
X3821850Y4191462D02*
Y4391462D01*
Y4000984D02*
Y4191462D01*
Y4000984D02*
X3833661Y4012795D01*
X3590551Y3259843D02*
Y3283465D01*
X3562992Y3259843D02*
Y3283465D01*
X3551181Y3295276D02*
X3562992Y3283465D01*
X3535433Y3259843D02*
Y3279528D01*
X3551181Y3295276D01*
X3507874Y3259843D02*
Y3287402D01*
X3843183Y4412795D02*
X3881299D01*
X3881890Y4413386D01*
X3821850Y4391462D02*
Y4535645D01*
X3956693Y4338583D02*
X3964567D01*
X3881890Y4413386D02*
X3956693Y4338583D01*
X4060178Y4239035D02*
X4074803Y4224409D01*
X4060178Y4239035D02*
Y4249154D01*
X4030650Y3860236D02*
X4031496Y3861082D01*
X4024745Y3913386D02*
X4031496D01*
X4055118D01*
X4056241Y3672106D02*
X4078740Y3649606D01*
X4055118Y3913386D02*
X4086614Y3944882D01*
X4085768Y4271654D02*
Y4286556D01*
X4104331Y4305118D01*
X4133858D01*
X4057086Y4482283D02*
X4163386D01*
X4034587Y4459784D02*
X4057086Y4482283D01*
X4133858Y4368110D02*
Y4371331D01*
X4148354Y4385827D01*
X4151575D01*
X4165354Y4399606D01*
X4133858Y4336614D02*
Y4340551D01*
Y4336614D02*
X4147638Y4322835D01*
X4148354D01*
X4165354Y4305835D01*
Y4305118D02*
Y4305835D01*
Y4399606D02*
Y4403543D01*
X4173228Y4411417D01*
Y4433071D01*
X4165354Y4305118D02*
X4175197D01*
X4192905Y4322826D02*
X4196842D01*
X4149606Y4224409D02*
X4229322Y4304126D01*
X4163386Y4482283D02*
X4229322Y4416347D01*
X4175197Y4305118D02*
X4192905Y4322826D01*
X4242118Y4335173D02*
X4248032Y4341087D01*
X4242118Y4298826D02*
Y4335173D01*
X4162401Y4219109D02*
X4242118Y4298826D01*
X4162401Y4142716D02*
Y4219109D01*
X4074803Y4224409D02*
X4149606D01*
X4094488Y4133858D02*
Y4173228D01*
X4073819Y4193898D02*
X4094488Y4173228D01*
X4125984Y4131890D02*
X4151575D01*
X4162401Y4142716D01*
X4229322Y4374016D02*
X4240158D01*
X4265748Y4348425D01*
Y4304361D02*
Y4348425D01*
X4175197Y4213810D02*
X4265748Y4304361D01*
X4229322Y4374016D02*
Y4416347D01*
X4125984Y4033465D02*
X4147638D01*
X4086614Y3944882D02*
X4088047D01*
X4090551D01*
X4095611Y3712599D02*
X4125984D01*
X4081831Y3698819D02*
X4095611Y3712599D01*
X4098425Y3897638D02*
X4125984Y3870079D01*
Y3745217D02*
Y3748032D01*
Y3745217D02*
X4158603Y3712599D01*
X4229322Y4304126D02*
Y4345761D01*
X4229331Y4345769D01*
X4229322Y4374016D02*
X4229331Y4374007D01*
Y4345769D02*
Y4374007D01*
X4078740Y3649606D02*
X4200787D01*
X4158603Y3712599D02*
X4224409D01*
X4242126Y3690945D02*
Y3793307D01*
X4200787Y3649606D02*
X4242126Y3690945D01*
X4090551Y3944882D02*
X4242126Y3793307D01*
X4956693Y3507874D02*
X4980315Y3484252D01*
X4956693Y3507874D02*
Y3539370D01*
X6477362Y5313976D02*
Y5364960D01*
Y5313976D02*
X6480315Y5311024D01*
X6484252Y5153740D02*
Y5200787D01*
X6477362Y5146850D02*
X6484252Y5153740D01*
X6477362Y3422244D02*
Y3475197D01*
X6476378Y3421260D02*
X6477362Y3422244D01*
X6476378Y3258071D02*
Y3311024D01*
Y3258071D02*
X6477362Y3257087D01*
X4231736Y4545275D02*
X4240158D01*
X4218504Y4558507D02*
X4231736Y4545275D01*
X4218504Y4558507D02*
Y4584028D01*
X4608535Y3777559D02*
X4613189D01*
X4616142D01*
X4864173Y4776575D02*
X4881453D01*
X4954725Y4849846D01*
X4864173Y4725394D02*
X4898622D01*
X4917323Y4744095D01*
Y4787402D01*
X4995079Y4865158D01*
X4853346Y4101378D02*
X4858268Y4096457D01*
X4774606Y4101378D02*
X4853346D01*
X4923228Y4483610D02*
Y4505264D01*
X4748032Y4023622D02*
X4824803D01*
X4946850Y4353689D02*
X4970472Y4330067D01*
D78*
X4850394Y3543307D02*
X4960630D01*
X5356299Y3354331D02*
Y3437206D01*
X5393083Y4669909D02*
Y4791113D01*
X5124016Y3667323D02*
Y3683071D01*
X5366142Y3582677D02*
X5374016D01*
X5348425Y3564961D02*
X5366142Y3582677D01*
X5308071Y4551181D02*
X5323819Y4566929D01*
X5287402Y4551181D02*
X5308071D01*
X5118110Y4474409D02*
Y4503937D01*
X5120079Y4468504D02*
X5122047Y4470472D01*
X4307087Y4452756D02*
X4356073D01*
X4307087D02*
Y4456693D01*
X4322835Y4472441D01*
X4356073Y4452756D02*
X4468504Y4565186D01*
X4688976Y3464567D02*
X4692913Y3460630D01*
X4637795Y3413386D02*
X4688976Y3464567D01*
X4637795Y3413386D02*
Y3413386D01*
X4397638Y3830709D02*
X4417323D01*
X4405512Y4665354D02*
X4417323Y4677165D01*
Y4693898D01*
X4267717Y4456693D02*
X4291339Y4480315D01*
Y4492126D01*
X4468504Y4565186D02*
Y4651871D01*
X4078740Y4629921D02*
X4194882D01*
X4240158Y4584646D01*
X4086614Y4901575D02*
X4098425Y4889764D01*
Y4854331D02*
Y4889764D01*
X4417323Y4770669D02*
X4441929D01*
X4468504Y4651871D02*
X4473425Y4656793D01*
Y4739173D01*
X4441929Y4770669D02*
X4473425Y4739173D01*
X4336614Y4525591D02*
X4358268D01*
X4322835Y4511811D02*
X4336614Y4525591D01*
X4736221Y4901575D02*
X4771654D01*
X4814951Y4936998D02*
X4822825D01*
X4803150Y4925197D02*
X4814951Y4936998D01*
X4803150Y4901575D02*
Y4925197D01*
Y4901575D02*
X4806102Y4904528D01*
X4864173D01*
X4164370Y4873032D02*
X4196850D01*
X4145669Y4854331D02*
X4164370Y4873032D01*
X4098425Y4854331D02*
X4145669D01*
X4129075Y4070866D02*
X4161417D01*
X4127107Y4068898D02*
X4129075Y4070866D01*
X4459055Y3830709D02*
X4460630Y3829134D01*
X4417323Y3830709D02*
X4459055D01*
X4460630Y3829134D02*
X4462992Y3826772D01*
X5346457Y3988189D02*
X5421260Y4062992D01*
X5258969Y3988189D02*
X5346457D01*
X5257001Y3986220D02*
X5258969Y3988189D01*
X5193869Y3986220D02*
X5257001D01*
X5185995Y3978346D02*
X5193869Y3986220D01*
X5116142Y3978346D02*
X5185995D01*
X5055118Y3917323D02*
X5116142Y3978346D01*
X5049438Y3917323D02*
X5055118D01*
X5002194Y3870079D02*
X5049438Y3917323D01*
X4968504Y3870079D02*
X5002194D01*
X5421260Y4062992D02*
X5427165D01*
X5356299Y4127953D02*
X5421260Y4062992D01*
X5333633Y4127953D02*
X5356299D01*
X5315916Y4145669D02*
X5333633Y4127953D01*
X5275591Y4145669D02*
X5315916D01*
X5236221Y4185039D02*
X5275591Y4145669D01*
X5181102Y4185039D02*
X5236221D01*
X5181102D02*
X5188976Y4192913D01*
Y4267717D01*
X5173228Y4283465D02*
X5188976Y4267717D01*
X5083661Y4524606D02*
X5086614Y4521654D01*
X5232283Y4609252D02*
X5260827Y4580709D01*
X5232283Y4609252D02*
Y4645669D01*
X5249382Y4662768D01*
Y4679134D01*
X5243831Y4781850D02*
X5249382Y4776299D01*
Y4726378D02*
Y4776299D01*
Y4679134D02*
Y4726378D01*
X5187362Y4781850D02*
X5243831D01*
X5149606Y4744095D02*
X5187362Y4781850D01*
X5149606Y4657480D02*
Y4744095D01*
X5102362Y4610236D02*
X5149606Y4657480D01*
X5023622Y4610236D02*
X5102362D01*
X5023622D02*
Y4625984D01*
Y4547244D02*
Y4610236D01*
X4996063Y4653543D02*
X5023622Y4625984D01*
Y4547244D02*
X5041339Y4529528D01*
X5078740D01*
X5086614Y4468504D02*
Y4521654D01*
X5034449Y4416339D02*
X5086614Y4468504D01*
X4854331Y3618110D02*
X4893701Y3578740D01*
X4854331Y3618110D02*
Y3673228D01*
X4893701Y3578740D02*
X5062992D01*
X4889764Y3791339D02*
X4968504Y3870079D01*
X5030512Y3802165D02*
Y3831693D01*
X4889764Y3692913D02*
Y3791339D01*
X4870079Y3673228D02*
X4889764Y3692913D01*
X4854331Y3673228D02*
X4870079D01*
X5124016Y3661417D02*
Y3667323D01*
X5118110Y3661417D02*
X5124016D01*
X5116200D02*
X5118110D01*
X5124016Y3667323D02*
X5125984Y3669291D01*
X5118110Y3661417D02*
X5124016Y3667323D01*
X5094488Y3637795D02*
X5118110Y3661417D01*
X5094488Y3610236D02*
Y3637795D01*
X5062992Y3578740D02*
X5094488Y3610236D01*
X5318898Y3890748D02*
X5320866Y3888780D01*
Y3818898D02*
Y3888780D01*
X5180118Y3924213D02*
X5189961D01*
X5086614Y3830709D02*
X5180118Y3924213D01*
X5289961Y3569488D02*
X5300591Y3580118D01*
X5281496Y3561024D02*
X5289961Y3569488D01*
X5248032Y3393701D02*
Y3401575D01*
X4988189Y3255905D02*
X5019685Y3287402D01*
X5043307D01*
X3527559Y3429134D02*
X3535433Y3437008D01*
Y3472441D01*
X5030512Y3831693D02*
X5031496Y3830709D01*
X5027559Y3834646D02*
X5030512Y3831693D01*
X5031496Y3830709D02*
X5086614D01*
X5027559Y3834646D02*
Y3858268D01*
X5281496Y3530512D02*
Y3561024D01*
X5256890Y3505905D02*
X5281496Y3530512D01*
X5248032Y3497047D02*
X5256890Y3505905D01*
X5248032Y3460630D02*
Y3497047D01*
Y3413386D02*
Y3460630D01*
Y3401575D02*
Y3413386D01*
X5242480Y3388149D02*
X5248032Y3393701D01*
X5242480Y3357914D02*
Y3388149D01*
X4956693Y3539370D02*
X4960630Y3543307D01*
X4618110Y3551181D02*
X4629921Y3539370D01*
X4700787D01*
X4724409Y3594488D02*
X4755905Y3562992D01*
Y3539370D02*
Y3562992D01*
X4733268Y3471457D02*
Y3506890D01*
Y3471457D02*
Y3471457D01*
X4874016Y3482283D02*
Y3519685D01*
X4850394Y3543307D02*
X4874016Y3519685D01*
X4700787Y3539370D02*
X4733268Y3506890D01*
X4791339Y3539370D02*
X4795276Y3543307D01*
X4755905Y3539370D02*
X4791339D01*
X4755905D02*
X4779528Y3515748D01*
Y3496063D02*
Y3515748D01*
X4795276Y3543307D02*
X4803150Y3535433D01*
Y3500000D02*
Y3535433D01*
X4462992Y3826772D02*
X4503937D01*
Y3783465D02*
X4509842Y3777559D01*
X4503937Y3783465D02*
Y3826772D01*
X4456693Y3783465D02*
X4503937D01*
X4509842Y3663386D02*
X4515748Y3657480D01*
X4509842Y3663386D02*
Y3702756D01*
X4653543Y3740157D02*
X4669291Y3724409D01*
X4616142Y3740157D02*
X4653543D01*
X4696850Y3830709D02*
X4724409Y3803150D01*
X4665354Y3830709D02*
X4696850D01*
X4578740Y4031496D02*
Y4037176D01*
X4616368Y4074803D01*
X4618110D01*
X4685039Y4149606D02*
Y4165354D01*
Y4149606D02*
X4704724Y4129921D01*
X4724409Y4165354D02*
X4724409Y4165354D01*
X4685039Y4165354D02*
X4724409D01*
X4629921Y4129921D02*
X4658465Y4101378D01*
X4629921Y4129921D02*
Y4165354D01*
X4629921Y4165355D01*
Y4224409D01*
X4724409Y4165354D02*
X4728346Y4161417D01*
Y4129921D02*
Y4161417D01*
X5393083Y4669909D02*
X5397638Y4665354D01*
X5297598Y3357914D02*
X5301181Y3354331D01*
X5356299D01*
X5344290Y3476378D02*
X5358268Y3462401D01*
X5333661Y3476378D02*
X5344290D01*
X5356299Y3437206D02*
X5358268Y3439174D01*
Y3462401D01*
X5298949Y4781850D02*
X5301535D01*
X5330709Y4811024D01*
X5373172D02*
X5393083Y4791113D01*
X5330709Y4811024D02*
X5373172D01*
X5397638Y4665354D02*
X5422244D01*
X5389764Y3403544D02*
Y3468504D01*
X5391732Y3354331D02*
X5425197D01*
X5436997Y3366131D01*
Y3377946D01*
X5173228Y3429134D02*
X5188976Y3413386D01*
X5173228Y3429134D02*
Y3429134D01*
X5188976Y3413386D02*
X5214567D01*
X5202756Y3557087D02*
X5214567Y3545276D01*
X5176181Y3557087D02*
X5202756D01*
X5348425Y3555118D02*
Y3564961D01*
X5389764Y3468504D02*
X5397638Y3476378D01*
X5414370D01*
X5061024Y3858268D02*
Y3891732D01*
X5062992Y3893701D01*
X5091535Y4251968D02*
X5108268D01*
X5139764Y4283465D01*
X5180118Y4631890D02*
X5215918Y4667689D01*
X5295276Y4692913D02*
X5299213Y4688976D01*
X5314961Y4673228D02*
X5322835Y4665354D01*
X5314961Y4688976D02*
Y4704724D01*
X5299213Y4688976D02*
X5314961D01*
Y4673228D02*
Y4688976D01*
X5322835Y4665354D02*
X5341535D01*
X5183071Y4717862D02*
X5190945Y4725736D01*
X5215918D02*
X5216536D01*
X5190945D02*
X5215918D01*
X5314961Y4704724D02*
X5348425Y4738189D01*
X5357650D01*
X5124016Y3683071D02*
X5166338Y3725394D01*
X5189961D01*
X5175197Y4283465D02*
X5193898Y4302165D01*
Y4339567D01*
X5422244Y4639764D02*
X5424213Y4637795D01*
X5458661D01*
X3960630Y3765748D02*
X3989311D01*
X3973564Y3996063D02*
Y4047244D01*
X3929134Y4062992D02*
X3957816D01*
X3973564Y4047244D01*
X3989311Y3765748D02*
X4005059Y3750000D01*
Y3698819D02*
Y3750000D01*
X3964567Y4338583D02*
X3993249D01*
X4008997Y4322835D01*
Y4271654D02*
Y4322835D01*
X4165354Y4340551D02*
Y4368110D01*
X4158603Y3748032D02*
Y3775590D01*
Y3748032D02*
X4162532Y3751961D01*
X4192905D01*
X4181102Y4354331D02*
X4208661D01*
X4173228Y4346457D02*
X4181102Y4354331D01*
X5425197Y4110236D02*
X5427136D01*
X5462569Y4145669D01*
X5480315D01*
X5543307Y3411417D02*
X5545276Y3409449D01*
X4127107Y4068898D02*
Y4096457D01*
X4322835Y4472441D02*
Y4511811D01*
X5118110Y4474409D02*
X5122047Y4470472D01*
X5391732Y3354331D02*
Y3401575D01*
X5389764Y3403544D02*
X5391732Y3401575D01*
X5214567Y3413386D02*
Y3545276D01*
X5476378Y3409449D02*
X5545276D01*
X5215918Y4667689D02*
Y4725736D01*
Y4726378D01*
X5357650Y4738189D02*
Y4785433D01*
D79*
X4896654Y3445866D02*
X4936024D01*
X3965354Y4157480D02*
X3973564D01*
X4034587Y4251123D02*
Y4271654D01*
X4005059Y3860236D02*
Y3907775D01*
X3999154Y4157480D02*
Y4199286D01*
X4024745Y3866142D02*
X4030650Y3860236D01*
X3883340Y4036910D02*
X3948484Y3971766D01*
Y3964350D02*
Y3971766D01*
Y3964350D02*
X4005059Y3907775D01*
X3999154Y3978781D02*
Y3993110D01*
X3983463Y3963090D02*
X3999154Y3978781D01*
X3963664Y3963090D02*
X3983463D01*
X3958327Y3968427D02*
X3963664Y3963090D01*
X3958327Y3968427D02*
Y3978681D01*
X3893209Y4043799D02*
X3958327Y3978681D01*
X3858268Y4476378D02*
X3905029Y4429617D01*
X4005543D01*
X4008997Y4433071D01*
X4889764Y3407480D02*
Y3438976D01*
X4896654Y3445866D01*
X4897638Y3446850D01*
X4936024Y3445866D02*
X4937008Y3446850D01*
X4849409Y3445866D02*
X4896654D01*
X3858268Y4330709D02*
Y4376378D01*
Y4276378D02*
X3965354Y4169291D01*
X3858268Y4330709D02*
X3960630Y4228346D01*
X4011811D01*
X4034587Y4251123D01*
X3858268Y4125792D02*
Y4176378D01*
Y4055771D02*
Y4076378D01*
Y4055771D02*
X3877129Y4036910D01*
X3883340D01*
X4039854Y4228830D02*
X4060178Y4249154D01*
X4028698Y4228830D02*
X4039854D01*
X3999154Y4199286D02*
X4028698Y4228830D01*
X4058563Y4273268D02*
X4060178Y4271654D01*
X3893209Y4043799D02*
Y4090851D01*
X3858268Y4125792D02*
X3893209Y4090851D01*
D80*
X3821850Y3270669D02*
Y3472441D01*
X3771653Y3267716D02*
X3795276D01*
X3818898D01*
X3748032D02*
X3771653D01*
X3818898D02*
X3842520D01*
X3551575Y3177559D02*
X3669291D01*
X3551181Y3177165D02*
X3551575Y3177559D01*
X3177165Y3177165D02*
X3204724D01*
X3232284D01*
X3259843D01*
X3287402D01*
X3314961D01*
X3551181D01*
D84*
X4874016Y3482283D02*
X4897638D01*
X3900984Y3483661D02*
X3939961D01*
X4610236Y3783465D02*
X4616142Y3777559D01*
X5214567Y3661417D02*
X5226378Y3673228D01*
X5192913Y3661417D02*
X5214567D01*
X5192913D02*
Y3669291D01*
X5192913Y3669291D02*
X5192913Y3669291D01*
X5159449Y3669291D02*
X5192913D01*
X3944882Y3826772D02*
Y3834646D01*
Y3826772D02*
X3960630Y3811024D01*
X3933063Y4098417D02*
Y4129913D01*
X3929134Y4094488D02*
X3933063Y4098417D01*
X3929134Y4401575D02*
X3933071D01*
X3964567Y4370079D01*
X4468504Y4350394D02*
Y4389764D01*
Y4350394D02*
X4488189Y4330709D01*
X4511811D01*
X4468504Y4389764D02*
X4511811Y4433071D01*
X4039370Y4881890D02*
X4066929Y4854331D01*
X4039370Y4881890D02*
Y4905512D01*
X4665354Y4374016D02*
Y4395669D01*
Y4358268D02*
Y4374016D01*
X3939961Y3483661D02*
X3948228D01*
X3900984D02*
X3901575Y3484252D01*
X4590551Y4271654D02*
X4614173D01*
X5055118Y4649606D02*
X5090551D01*
X5051181Y4653543D02*
X5055118Y4649606D01*
X5460630Y4070866D02*
X5480315Y4090551D01*
X5452756Y4062992D02*
X5460630Y4070866D01*
X4614173Y4271654D02*
X4637795D01*
X4645669Y4279528D01*
Y4338583D01*
X4702756Y4474409D02*
X4708661Y4468504D01*
X4665354Y4474409D02*
X4702756D01*
X4665354Y4437008D02*
X4708661D01*
X4645669Y4338583D02*
X4665354Y4358268D01*
X4515748Y4437008D02*
X4570866D01*
X4511811Y4433071D02*
X4515748Y4437008D01*
X4570866D02*
Y4470472D01*
X4590551Y4338583D02*
Y4375984D01*
X4570866Y4395669D02*
X4590551Y4375984D01*
X4641732Y4437008D02*
X4665354D01*
X4600394Y4395669D02*
X4641732Y4437008D01*
X4570866Y4395669D02*
X4600394D01*
X4553150Y4377953D02*
X4570866Y4395669D01*
X4511811Y4377953D02*
X4553150D01*
X4511811Y4275591D02*
X4562992Y4224409D01*
X4574803D01*
X3821850Y3472441D02*
Y3808071D01*
X3901575Y3484252D02*
X3917323D01*
X3948228Y3483661D02*
X3960630Y3496063D01*
X3871063Y3520669D02*
X4201772D01*
X3960630Y3496063D02*
X4267717D01*
X4314961Y3543307D01*
X3822835Y3472441D02*
X3871063Y3520669D01*
X4523622Y3944882D02*
X4531496Y3952756D01*
X4970291D01*
X5025409Y4007874D01*
X5110236D01*
X3821850Y3472441D02*
X3822835D01*
X4201772Y3520669D02*
X4287402Y3606299D01*
Y3807087D01*
X4314961Y3543307D02*
Y3555118D01*
X4287402Y3807087D02*
X4371063Y3890748D01*
X4469488D01*
X4381890Y3866142D02*
X4480315D01*
X4469488Y3890748D02*
X4523622Y3944882D01*
Y4000000D01*
X4540354Y4016732D01*
X4512795Y3898622D02*
X4541519D01*
X4480315Y3866142D02*
X4512795Y3898622D01*
X4480315Y3866142D02*
Y3866142D01*
X4540354Y4016732D02*
Y4054990D01*
X4574803Y4089439D01*
Y4224409D01*
X4550378Y3889764D02*
X4578740D01*
X4541519Y3898622D02*
X4550378Y3889764D01*
X4314961Y3555118D02*
Y3799213D01*
Y3555118D02*
X4318898Y3551181D01*
X4562992D01*
X3733762Y3233268D02*
X4306821D01*
X4314961Y3799213D02*
X4381890Y3866142D01*
X4610236Y3783465D02*
Y3830709D01*
Y3866142D01*
X4633858Y3889764D01*
X5203921Y3924213D02*
X5237386Y3890748D01*
X4968504Y4653543D02*
X4996063D01*
X5159449Y3944882D02*
X5180118Y3924213D01*
X5153543Y3944882D02*
X5159449D01*
X4937008Y4618110D02*
Y4622047D01*
X4968504Y4653543D01*
X5427165Y4062992D02*
X5452756D01*
X5348425Y4059055D02*
X5352362Y4062992D01*
X5299212Y4059055D02*
X5348425D01*
X5248031Y4007874D02*
X5299212Y4059055D01*
X5165354Y4007874D02*
X5248031D01*
X5318898Y3890748D02*
X5349409D01*
X5237386D02*
X5318898D01*
X5189961Y3924213D02*
X5203921D01*
X5349409Y3890748D02*
X5385827Y3854331D01*
Y3665354D02*
Y3854331D01*
X5300591Y3580118D02*
X5385827Y3665354D01*
X5297231Y3580118D02*
X5300591D01*
X5289961Y3569488D02*
Y3572848D01*
Y3538976D02*
Y3569488D01*
X5281496Y3530512D02*
X5289961Y3538976D01*
Y3572848D02*
X5297231Y3580118D01*
X5149606Y3385827D02*
X5232283D01*
X5043307Y3342520D02*
X5110236D01*
X5000000D02*
X5043307D01*
X5149606Y3381890D02*
Y3385827D01*
X5110236Y3342520D02*
X5149606Y3381890D01*
X4900591Y3243110D02*
X5000000Y3342520D01*
X4316663Y3243110D02*
X4900591D01*
X4306821Y3233268D02*
X4316663Y3243110D01*
X3594488Y3484252D02*
X3736220D01*
X3767716Y3452756D01*
Y3366142D02*
Y3452756D01*
X3713583Y3312008D02*
X3767716Y3366142D01*
X3713583Y3253447D02*
Y3312008D01*
Y3253447D02*
X3733762Y3233268D01*
X3551181Y3527559D02*
X3594488Y3484252D01*
X3535433Y3527559D02*
X3551181D01*
X3578740Y3401575D02*
X3602362Y3425197D01*
X3476378Y3401575D02*
X3578740D01*
X3440945D02*
X3476378D01*
X3409449Y3370079D02*
X3440945Y3401575D01*
X3409449Y3358268D02*
Y3370079D01*
X3122047Y3543307D02*
X3169291D01*
X3354331Y3358268D01*
X4860236Y3482283D02*
X4874016D01*
X4736221Y4224409D02*
Y4248032D01*
Y4208661D02*
Y4224409D01*
Y4248032D02*
Y4271654D01*
Y4208661D02*
X4779528Y4165354D01*
X3970473Y4375985D02*
X4062147D01*
X4085768Y4399606D01*
X3964567Y4370079D02*
X3970473Y4375985D01*
X4854331Y3476378D02*
X4860236Y3482283D01*
X4774606Y4101378D02*
Y4160433D01*
X4779528Y4165354D01*
X4052304Y3797244D02*
X4081831Y3826772D01*
Y3860236D01*
X3929134Y4094488D02*
X4020808D01*
X3960630Y3797244D02*
X4052304D01*
X4020808Y4094488D02*
X4050335Y4124016D01*
Y4157480D01*
X3960630Y3797244D02*
Y3811024D01*
X3122047Y3543307D02*
Y3566929D01*
Y3594488D01*
X4085768Y4399606D02*
Y4433071D01*
D85*
X4075000Y3075000D02*
X4076772Y3076772D01*
Y3173228D01*
X4075000Y3175000D02*
X4076772Y3173228D01*
X3669291Y3059055D02*
Y3098032D01*
Y3059055D02*
X3703741Y3024606D01*
X4024606D01*
X4075000Y3075000D01*
D91*
X5975000Y3175000D02*
D03*
X5875000D02*
D03*
X5775000D02*
D03*
X5675000D02*
D03*
X5575000D02*
D03*
X5475000D02*
D03*
X5375000D02*
D03*
X5275000D02*
D03*
X5175000D02*
D03*
X5075000D02*
D03*
X4975000D02*
D03*
X4875000D02*
D03*
X4775000D02*
D03*
X4675000D02*
D03*
X4575000D02*
D03*
X4475000D02*
D03*
X4375000D02*
D03*
X4275000D02*
D03*
X4175000D02*
D03*
X4075000D02*
D03*
X3975000D02*
D03*
X3875000D02*
D03*
X3775000D02*
D03*
X5975000Y3075000D02*
D03*
X5875000D02*
D03*
X5775000D02*
D03*
X5675000D02*
D03*
X5575000D02*
D03*
X5475000D02*
D03*
X5375000D02*
D03*
X5275000D02*
D03*
X5175000D02*
D03*
X5075000D02*
D03*
X4975000D02*
D03*
X4875000D02*
D03*
X4775000D02*
D03*
X4675000D02*
D03*
X4575000D02*
D03*
X4475000D02*
D03*
X4375000D02*
D03*
X4275000D02*
D03*
X4175000D02*
D03*
X4075000D02*
D03*
X3975000D02*
D03*
X3875000D02*
D03*
Y4975000D02*
D03*
X3975000D02*
D03*
X4075000D02*
D03*
X4175000D02*
D03*
X4275000D02*
D03*
X4375000D02*
D03*
X4475000D02*
D03*
X4575000D02*
D03*
X4675000D02*
D03*
X4775000D02*
D03*
X4875000D02*
D03*
X4975000D02*
D03*
X5075000D02*
D03*
X5175000D02*
D03*
X5275000D02*
D03*
X5375000D02*
D03*
X5475000D02*
D03*
X5575000D02*
D03*
X5675000D02*
D03*
X5775000D02*
D03*
X5875000D02*
D03*
X5975000D02*
D03*
X3775000Y5075000D02*
D03*
X3875000D02*
D03*
X3975000D02*
D03*
X4075000D02*
D03*
X4175000D02*
D03*
X4275000D02*
D03*
X4375000D02*
D03*
X4475000D02*
D03*
X4575000D02*
D03*
X4675000D02*
D03*
X4775000D02*
D03*
X4875000D02*
D03*
X4975000D02*
D03*
X5075000D02*
D03*
X5175000D02*
D03*
X5275000D02*
D03*
X5375000D02*
D03*
X5475000D02*
D03*
X5575000D02*
D03*
X5675000D02*
D03*
X5775000D02*
D03*
X5875000D02*
D03*
X5975000D02*
D03*
D92*
X3775000Y3075000D02*
D03*
Y4975000D02*
D03*
D93*
X3858268Y3876378D02*
D03*
Y3976378D02*
D03*
Y4076378D02*
D03*
Y4276378D02*
D03*
Y4376378D02*
D03*
Y4176378D02*
D03*
D94*
Y4476378D02*
D03*
D95*
X5562992Y3667323D02*
D03*
X6255905Y4645669D02*
D03*
X6476378Y4728346D02*
D03*
Y4838583D02*
D03*
X6181102Y3413386D02*
D03*
X6472441Y2838583D02*
D03*
X6476378Y2948819D02*
D03*
X3342520Y4818898D02*
D03*
X3322828Y4854321D02*
D03*
X3385827Y4905512D02*
D03*
X3326772Y5015748D02*
D03*
X3377953Y5023622D02*
D03*
X4358268Y4405512D02*
D03*
X4354331Y3602362D02*
D03*
X5637795Y4602362D02*
D03*
X3696850Y4893701D02*
D03*
X3590551Y4897638D02*
D03*
X5803138Y3657473D02*
D03*
X4370079Y4637795D02*
D03*
X5374016Y3582677D02*
D03*
X5287402Y4551181D02*
D03*
X5192913Y3661417D02*
D03*
X5118110Y4503937D02*
D03*
X5196850Y3838583D02*
D03*
X4059055Y4086614D02*
D03*
X3944882Y3834646D02*
D03*
X4307087Y4452756D02*
D03*
X4751968Y4602362D02*
D03*
X4724409Y4940945D02*
D03*
X4279519Y4570857D02*
D03*
X5003937Y4897638D02*
D03*
X4968504Y4909449D02*
D03*
X4637795Y3413386D02*
D03*
X3933063Y4129913D02*
D03*
X3929126Y4448810D02*
D03*
X3929134Y4401575D02*
D03*
X5429134Y4775591D02*
D03*
X5425197Y3618110D02*
D03*
X5681102Y4275591D02*
D03*
X3216535Y3366142D02*
D03*
X5720472Y3492126D02*
D03*
X4110236Y3125984D02*
D03*
X4047244Y3122047D02*
D03*
X4000000D02*
D03*
X4625984Y3110236D02*
D03*
X3173228Y3720472D02*
D03*
X3196850D02*
D03*
X3220472D02*
D03*
X3244095D02*
D03*
X5818898Y4051181D02*
D03*
X4543298Y3118104D02*
D03*
X4511811Y3129921D02*
D03*
X4146427Y3129164D02*
D03*
X5161417Y4917323D02*
D03*
X5129921Y5007874D02*
D03*
X4905512Y4929134D02*
D03*
X5031486Y4944872D02*
D03*
X4936142Y5020551D02*
D03*
X4003937Y4062992D02*
D03*
X4405512Y4665354D02*
D03*
X4267717Y4456693D02*
D03*
X4275591Y4531890D02*
D03*
X4078740Y4629921D02*
D03*
X4086614Y4901575D02*
D03*
X4763779Y4757577D02*
D03*
X4322826Y4574794D02*
D03*
X4358268Y4877953D02*
D03*
X4330709Y4846457D02*
D03*
X4251968Y4897638D02*
D03*
X4476378Y4862205D02*
D03*
X4464567Y4299213D02*
D03*
X4425197Y4944882D02*
D03*
X4023622Y4952756D02*
D03*
X4677165Y4901575D02*
D03*
X4637795Y4905512D02*
D03*
X4538055Y4945856D02*
D03*
X4531487Y4917313D02*
D03*
X4724409Y5015748D02*
D03*
X4736221Y4901575D02*
D03*
X4822825Y4936998D02*
D03*
X4724400Y4515739D02*
D03*
X4728346Y4570866D02*
D03*
X4039370Y4905512D02*
D03*
X4161417Y4070866D02*
D03*
X4023622Y3417323D02*
D03*
X3939961Y3483661D02*
D03*
X4590551Y4271654D02*
D03*
X4358268Y4370079D02*
D03*
X4724400Y4748022D02*
D03*
X4342511Y4334637D02*
D03*
X4814951Y4700778D02*
D03*
X5090551Y4649606D02*
D03*
X4614173Y4271654D02*
D03*
X4637795D02*
D03*
X3893701Y3484252D02*
D03*
X3917323D02*
D03*
X3795276Y3267716D02*
D03*
X4342520Y3283465D02*
D03*
X4353346Y3520669D02*
D03*
X5095472Y4205709D02*
D03*
X5362205Y3940945D02*
D03*
X5326761Y3937000D02*
D03*
X5287391D02*
D03*
X5244084Y3925189D02*
D03*
X5192913Y3897638D02*
D03*
X5153543Y3944882D02*
D03*
X4992126Y4055118D02*
D03*
X5015748Y4094488D02*
D03*
X4944882Y3610236D02*
D03*
X4901575D02*
D03*
X4909449Y3539370D02*
D03*
X4933071D02*
D03*
X4937008Y4618110D02*
D03*
X4944882Y3736220D02*
D03*
X5228336Y3862197D02*
D03*
X4464567Y3448819D02*
D03*
X4472441Y3397638D02*
D03*
X3748032Y3267716D02*
D03*
X3771653D02*
D03*
X5098425Y3429134D02*
D03*
X4956693Y3539370D02*
D03*
X4838583Y3500000D02*
D03*
X4724409Y3594488D02*
D03*
X5385827Y4539370D02*
D03*
X5531496Y4618110D02*
D03*
X5740158Y4472441D02*
D03*
X5334646Y4519685D02*
D03*
X4736221Y4224409D02*
D03*
Y4248032D02*
D03*
Y4271654D02*
D03*
X5877941Y3976370D02*
D03*
X4996063Y4598425D02*
D03*
X4795276Y4586614D02*
D03*
X4850394Y4610236D02*
D03*
X5555118Y4590551D02*
D03*
X5606299Y3866142D02*
D03*
X5688976Y3862205D02*
D03*
X6476378Y3421260D02*
D03*
Y3311024D02*
D03*
X6039370Y4685039D02*
D03*
X6484252Y5200787D02*
D03*
X6480315Y5311024D02*
D03*
X6110224Y4405503D02*
D03*
X5897638Y4078740D02*
D03*
X4665354Y4437008D02*
D03*
X3543307Y4775591D02*
D03*
X3196850Y3293531D02*
D03*
X4468495Y4822825D02*
D03*
X4669291Y3724409D02*
D03*
X4637795Y3295276D02*
D03*
X4279528Y3279528D02*
D03*
X4232283Y3275591D02*
D03*
X4015748Y3311024D02*
D03*
X3842520Y3267716D02*
D03*
X3818898D02*
D03*
X3547244Y3055118D02*
D03*
X3618110D02*
D03*
X3594488D02*
D03*
X3570866D02*
D03*
X3051181Y3204724D02*
D03*
X3330315Y3617716D02*
D03*
X3374016Y3586614D02*
D03*
X3437008Y3543307D02*
D03*
X3401575Y3484252D02*
D03*
X3527559Y3429134D02*
D03*
X4291339Y3976378D02*
D03*
X4204724Y4062992D02*
D03*
X4374016Y3933071D02*
D03*
X4440945Y3972441D02*
D03*
X4724409Y3803150D02*
D03*
X5582677Y4125984D02*
D03*
X5543307Y4157480D02*
D03*
X5681102Y4005905D02*
D03*
X5535433Y3496063D02*
D03*
X4055118Y3279528D02*
D03*
X4098425Y3267716D02*
D03*
X4530512Y3872047D02*
D03*
X3570866Y5074803D02*
D03*
X3578740Y4948819D02*
D03*
X5125984Y4570866D02*
D03*
X5881890Y3342520D02*
D03*
X5907480Y3580709D02*
D03*
X5921260Y4555118D02*
D03*
X5822835Y4807087D02*
D03*
X5931102Y4685039D02*
D03*
X6139764Y4765748D02*
D03*
X5807087Y4362205D02*
D03*
X4748032Y3854331D02*
D03*
X4830699Y3850386D02*
D03*
X5208661Y3960630D02*
D03*
X3279528Y3248032D02*
D03*
X5291522Y4185223D02*
D03*
X5358268Y4405512D02*
D03*
X3338583Y3094488D02*
D03*
X3325197Y3254331D02*
D03*
X3370079Y3255905D02*
D03*
X4729331Y4311024D02*
D03*
X4988189Y3255905D02*
D03*
X5228346D02*
D03*
X5456693D02*
D03*
X5436997Y3377946D02*
D03*
X5476378Y3409449D02*
D03*
X5173228Y3429134D02*
D03*
X5696850Y3255905D02*
D03*
X5665354Y3393701D02*
D03*
X5586614Y3543307D02*
D03*
X5062992Y3893701D02*
D03*
X5051181Y3960630D02*
D03*
X5797244Y3696850D02*
D03*
X5798228Y3744095D02*
D03*
X5566929Y4056102D02*
D03*
X5798228Y3792323D02*
D03*
X5925197Y3255905D02*
D03*
X6173228D02*
D03*
X6275591Y3559055D02*
D03*
X6125010Y3965278D02*
D03*
X6188976Y3830709D02*
D03*
X6201772Y4007874D02*
D03*
X6200787Y4058071D02*
D03*
X6275591Y4082677D02*
D03*
X5059055Y4165354D02*
D03*
X5091535Y4251968D02*
D03*
X4946233Y4403543D02*
D03*
X5196850Y4484252D02*
D03*
X5295276Y4692913D02*
D03*
X5178150Y4711614D02*
D03*
X5734252Y4635827D02*
D03*
X5464567Y4885827D02*
D03*
X5696850D02*
D03*
X6072725Y4139764D02*
D03*
X6094488Y4153543D02*
D03*
X6197835Y4082677D02*
D03*
X6199803Y4127953D02*
D03*
X5795276Y4401575D02*
D03*
X6125984Y4295276D02*
D03*
X5794291Y4450787D02*
D03*
Y4490158D02*
D03*
X5929134Y4885827D02*
D03*
X6177165Y4724409D02*
D03*
X6181102Y4893701D02*
D03*
X6196850Y4314961D02*
D03*
X6381890Y4618110D02*
D03*
X5129921Y3625984D02*
D03*
X4990157Y3935039D02*
D03*
X4883240Y4529528D02*
D03*
X5161417Y4248032D02*
D03*
X5230933Y4220472D02*
D03*
X5578729Y3342513D02*
D03*
X5673228Y4039370D02*
D03*
X6181102Y3448819D02*
D03*
X5874016Y3866142D02*
D03*
X5606299Y4267717D02*
D03*
X6145669Y4712598D02*
D03*
X5122047Y3917323D02*
D03*
X5124016Y4161417D02*
D03*
X4946233Y4529528D02*
D03*
X5525862Y3633051D02*
D03*
X5536417Y3896653D02*
D03*
X5909449Y3500000D02*
D03*
X5153543Y4488189D02*
D03*
X5638779Y4507874D02*
D03*
X5880905Y4262795D02*
D03*
X5929134Y4637795D02*
D03*
X5240158Y3535433D02*
D03*
X5370079Y3500000D02*
D03*
X5000000Y3610236D02*
D03*
X5041339Y4225394D02*
D03*
X5035433Y4464567D02*
D03*
X5322835Y4437008D02*
D03*
X3746063Y4746063D02*
D03*
X3748032Y4885827D02*
D03*
X4531496Y4118110D02*
D03*
X4909449Y3921260D02*
D03*
Y4153543D02*
D03*
X4988189Y4019685D02*
D03*
X4027559Y3381890D02*
D03*
X4011811Y3448819D02*
D03*
X4196850Y3346457D02*
D03*
X4535433Y4724409D02*
D03*
X4618110Y4074803D02*
D03*
X3177165Y3177165D02*
D03*
X3122047Y3566929D02*
D03*
Y3594488D02*
D03*
Y3543307D02*
D03*
X3204724Y3177165D02*
D03*
X3232284D02*
D03*
X3259843D02*
D03*
X3287402D02*
D03*
X3314961D02*
D03*
X3507874Y3259843D02*
D03*
X3535433D02*
D03*
X3562992D02*
D03*
X3590551D02*
D03*
X4192905Y3751961D02*
D03*
X4208661Y4354331D02*
D03*
X4358267Y3964567D02*
D03*
X5228346Y4893701D02*
D03*
X5188976D02*
D03*
X5425197Y4110236D02*
D03*
X5769685Y4221457D02*
D03*
X4779518Y4724400D02*
D03*
X4775581Y4641723D02*
D03*
X6275591Y4574803D02*
D03*
X3078740Y3204724D02*
D03*
X3023622D02*
D03*
X6039370Y4637795D02*
D03*
X6070866Y4767717D02*
D03*
D96*
X5463583Y4437992D02*
D03*
X5421260Y4720472D02*
D03*
X4224409Y3763780D02*
D03*
X4106299Y3570866D02*
D03*
X4157480Y4035433D02*
D03*
X4366142Y4751968D02*
D03*
X4397638Y3830709D02*
D03*
X4480315Y4488189D02*
D03*
X4264764Y4833143D02*
D03*
X4295276Y4842520D02*
D03*
X4051181Y3606299D02*
D03*
X3870079Y3799213D02*
D03*
X4460630Y3829134D02*
D03*
X4417323Y3830709D02*
D03*
X3846457Y3740157D02*
D03*
X4496054Y3578733D02*
D03*
X4480315Y3645669D02*
D03*
X4049212Y4352363D02*
D03*
X4039370Y4511811D02*
D03*
X4137795Y4500000D02*
D03*
X4141732Y4460630D02*
D03*
X3771653Y4688976D02*
D03*
X3893701Y3661417D02*
D03*
X3917323Y3677165D02*
D03*
X3913386Y4488189D02*
D03*
X3740157Y4685039D02*
D03*
X3885819Y3700780D02*
D03*
X3937008Y4515748D02*
D03*
X4165346Y3602355D02*
D03*
X4143701Y3580709D02*
D03*
X4125984Y3602362D02*
D03*
X4082677Y3586614D02*
D03*
X4055118Y3578740D02*
D03*
X4212598Y3570866D02*
D03*
X4255897Y3539363D02*
D03*
X4846457Y4133858D02*
D03*
X5003937Y3543307D02*
D03*
X4566929Y4283465D02*
D03*
Y3417323D02*
D03*
X5148622Y4063976D02*
D03*
X4311024Y3346457D02*
D03*
X3891732Y4612205D02*
D03*
X4133858Y4881890D02*
D03*
X4452756Y4665354D02*
D03*
X4279528Y4149606D02*
D03*
X3968504Y4275591D02*
D03*
X4035425Y4212590D02*
D03*
X4074803Y4318898D02*
D03*
X4173228Y4433071D02*
D03*
X4196842Y4322826D02*
D03*
X4248032Y4341087D02*
D03*
X4216535Y4153543D02*
D03*
X4244095Y4149606D02*
D03*
X4224409Y3712599D02*
D03*
X6417326Y3661419D02*
D03*
X6437011Y3779530D02*
D03*
Y4015750D02*
D03*
X6417326Y4055120D02*
D03*
X6437011Y4094490D02*
D03*
X6417326Y4133860D02*
D03*
X6437011Y4251971D02*
D03*
X6417326Y4370081D02*
D03*
X6456696Y3661419D02*
D03*
X6476381Y3779530D02*
D03*
X6456696Y3897640D02*
D03*
X6476381Y4015750D02*
D03*
X6456696Y4055120D02*
D03*
X6476381Y4094490D02*
D03*
X6456696Y4133860D02*
D03*
X6476381Y4251971D02*
D03*
X6456696Y4370081D02*
D03*
X6496066Y3661419D02*
D03*
X6515752Y3779530D02*
D03*
X6496066Y3897640D02*
D03*
X6515752Y4015750D02*
D03*
X6496066Y4055120D02*
D03*
X6515752Y4094490D02*
D03*
X6496066Y4133860D02*
D03*
X6515752Y4251971D02*
D03*
X6496066Y4370081D02*
D03*
X6535437Y3661419D02*
D03*
Y3897640D02*
D03*
Y4055120D02*
D03*
Y4133860D02*
D03*
Y4370081D02*
D03*
D97*
X5414370Y3501969D02*
D03*
Y3476378D02*
D03*
Y3450787D02*
D03*
X5333661D02*
D03*
Y3476378D02*
D03*
Y3501969D02*
D03*
X5341535Y4639764D02*
D03*
Y4665354D02*
D03*
Y4690945D02*
D03*
X5422244D02*
D03*
Y4665354D02*
D03*
Y4639764D02*
D03*
X5260827Y4580709D02*
D03*
Y4631890D02*
D03*
X5180118D02*
D03*
Y4606299D02*
D03*
Y4580709D02*
D03*
X5256890Y3505905D02*
D03*
Y3557087D02*
D03*
X5176181D02*
D03*
Y3531496D02*
D03*
Y3505905D02*
D03*
D98*
X5298949Y4781850D02*
D03*
X5243831D02*
D03*
X4618110Y3551181D02*
D03*
X4562992D02*
D03*
X5297598Y3357914D02*
D03*
X5242480D02*
D03*
X4633858Y3889764D02*
D03*
X4578740D02*
D03*
X5110236Y4007874D02*
D03*
X5165354D02*
D03*
X4574803Y4224409D02*
D03*
X4629921D02*
D03*
X3409449Y3358268D02*
D03*
X3354331D02*
D03*
D99*
X3669291Y3098032D02*
D03*
Y3177559D02*
D03*
D100*
X4716535Y4062992D02*
D03*
X4791339Y3433071D02*
D03*
D101*
X4658465Y4101378D02*
D03*
Y4075787D02*
D03*
Y4050197D02*
D03*
Y4024606D02*
D03*
X4774606D02*
D03*
Y4050197D02*
D03*
Y4075787D02*
D03*
Y4101378D02*
D03*
X4849410Y3471457D02*
D03*
Y3445866D02*
D03*
Y3420276D02*
D03*
Y3394685D02*
D03*
X4733268D02*
D03*
Y3420276D02*
D03*
Y3445866D02*
D03*
Y3471457D02*
D03*
D102*
X4358268Y4584646D02*
D03*
Y4564961D02*
D03*
Y4545275D02*
D03*
Y4525591D02*
D03*
X4240158Y4584646D02*
D03*
Y4564961D02*
D03*
Y4545275D02*
D03*
Y4525591D02*
D03*
D103*
X4570866Y4399606D02*
D03*
Y4437008D02*
D03*
Y4474409D02*
D03*
X4665354D02*
D03*
Y4399606D02*
D03*
D104*
X4511811Y4330709D02*
D03*
Y4275591D02*
D03*
D105*
X3692913Y3425197D02*
D03*
D106*
X3594488Y3484252D02*
D03*
Y3366142D02*
D03*
D107*
X3602362Y3425197D02*
D03*
D108*
X4008997Y4436024D02*
D03*
X4034587D02*
D03*
X4060178D02*
D03*
X4085768D02*
D03*
X4008997Y4268701D02*
D03*
X4034587D02*
D03*
X4060178D02*
D03*
X4085768D02*
D03*
X3973563Y4160433D02*
D03*
X3999154D02*
D03*
X4024744D02*
D03*
X4050335D02*
D03*
X3973563Y3993110D02*
D03*
X3999154D02*
D03*
X4024744D02*
D03*
X4050335D02*
D03*
X4005059Y3863189D02*
D03*
X4030650D02*
D03*
X4056240D02*
D03*
X4081831D02*
D03*
X4005059Y3695866D02*
D03*
X4030650D02*
D03*
X4056240D02*
D03*
X4081831D02*
D03*
D109*
X5088583Y4904528D02*
D03*
Y4878937D02*
D03*
Y4853346D02*
D03*
Y4827756D02*
D03*
Y4802165D02*
D03*
Y4776575D02*
D03*
Y4750984D02*
D03*
Y4725394D02*
D03*
X4864173Y4904528D02*
D03*
Y4878937D02*
D03*
Y4853346D02*
D03*
Y4827756D02*
D03*
Y4802165D02*
D03*
Y4776575D02*
D03*
Y4750984D02*
D03*
Y4725394D02*
D03*
D110*
X4512795Y3777559D02*
D03*
Y3702756D02*
D03*
X4613189D02*
D03*
Y3740157D02*
D03*
Y3777559D02*
D03*
%TF.MD5,7acdcd8e6efc71628f3057504e23fdbd*%
M02*
