G04 Layer_Color=32896*
%FSLAX45Y45*%
%MOMM*%
%TF.FileFunction,Legend,Bot*%
%TF.Part,Single*%
G01*
G75*
%TA.AperFunction,NonConductor*%
%ADD88C,0.20000*%
%ADD89C,0.12000*%
%ADD141C,0.25000*%
%ADD142C,0.10000*%
%ADD143C,0.60000*%
%ADD146C,0.15000*%
%ADD147C,0.05000*%
%ADD148C,0.08000*%
%ADD149C,0.13000*%
%ADD150C,0.06000*%
%ADD151C,0.07000*%
D88*
X16240700Y12266200D02*
Y12287800D01*
Y12012200D02*
Y12033800D01*
Y11756800D02*
X16630701D01*
X16240700Y12543200D02*
X16630701D01*
X16240700Y8666200D02*
Y8687800D01*
Y8412200D02*
Y8433800D01*
Y8156800D02*
X16630701D01*
X16240700Y8943200D02*
X16630701D01*
X16240700Y9866200D02*
Y9887800D01*
Y9612200D02*
Y9633800D01*
Y9356800D02*
X16630701D01*
X16240700Y10143200D02*
X16630701D01*
X16240700Y11066200D02*
Y11087800D01*
Y10812200D02*
Y10833800D01*
Y10556800D02*
X16630701D01*
X16240700Y11343200D02*
X16630701D01*
X16240700Y13466199D02*
Y13487801D01*
Y13212199D02*
Y13233800D01*
Y12956799D02*
X16630701D01*
X16240700Y7466200D02*
Y7487800D01*
Y7212200D02*
Y7233800D01*
Y7743200D02*
X16630701D01*
X13620000Y8940000D02*
X13680000D01*
X13620000Y8720000D02*
X13680000D01*
Y8940000D01*
X13620000Y8720000D02*
Y8940000D01*
X13639999Y11740000D02*
X13700000D01*
X13639999Y11960000D02*
X13700000D01*
X13639999Y11740000D02*
Y11960000D01*
X13700000Y11740000D02*
Y11960000D01*
X9461500Y8191500D02*
X15303500D01*
X9461500Y7683500D02*
Y8191500D01*
Y7683500D02*
X15303500D01*
Y8191500D01*
X9461500Y13017500D02*
X15303500D01*
X15303500Y12509500D02*
X15303500Y13017500D01*
X9461500Y12509500D02*
X15303500D01*
X9461500D02*
Y13017500D01*
X13195000Y10555000D02*
Y10565000D01*
X13125000Y10555000D02*
Y10565000D01*
X12755000Y11785000D02*
X12765000D01*
X12755000Y11855000D02*
X12765000D01*
X9414000Y7955000D02*
Y7985000D01*
X9226000Y7955000D02*
Y7985000D01*
X9140000Y8175000D02*
Y8285000D01*
X8900000Y8175000D02*
Y8285000D01*
X13067500Y9400000D02*
Y9720000D01*
X12892500Y9400000D02*
Y9720000D01*
X13067500D01*
X12892500Y9400000D02*
X13067500D01*
X12365000Y9395000D02*
Y9405000D01*
X12295000Y9395000D02*
Y9405000D01*
X11807500Y10147500D02*
X11864999D01*
X12095000D02*
X12152500D01*
X11807500Y10492500D02*
X11864999D01*
X12152500Y10472500D02*
Y10492500D01*
X12095000D02*
X12152500D01*
Y10147500D02*
Y10167500D01*
X11807500Y10147500D02*
Y10167500D01*
Y10472500D02*
Y10492500D01*
X13077499Y10960000D02*
Y11280000D01*
X12902499Y10960000D02*
Y11280000D01*
X13077499D01*
X12902499Y10960000D02*
X13077499D01*
X11997501Y8872500D02*
Y8892500D01*
Y8547500D02*
Y8567500D01*
X12342501Y8547500D02*
Y8567500D01*
X12285001Y8892500D02*
X12342501D01*
Y8872500D02*
Y8892500D01*
X11997501D02*
X12055001D01*
X12285001Y8547500D02*
X12342501D01*
X11997501D02*
X12055001D01*
X8945000Y8885000D02*
Y8895000D01*
X9015000Y8885000D02*
Y8895000D01*
X8795000Y8565000D02*
Y8575000D01*
X8865000Y8565000D02*
Y8575000D01*
X12245000Y9035000D02*
X12255000D01*
X12245000Y8965000D02*
X12255000D01*
X12845000Y8415000D02*
Y8425000D01*
X12775000Y8415000D02*
Y8425000D01*
X12005000Y9025000D02*
X12015000D01*
X12005000Y8955000D02*
X12015000D01*
X11775000Y9765000D02*
X11785000D01*
X11775000Y9695000D02*
X11785000D01*
X11355000Y9535000D02*
Y9545000D01*
X11285000Y9535000D02*
Y9545000D01*
X13539999Y10405000D02*
X13839999D01*
X13539999Y10475000D02*
X13839999D01*
Y10405000D02*
Y10475000D01*
X13539999Y10405000D02*
Y10475000D01*
X13885001Y10455000D02*
Y10465000D01*
X13955000Y10455000D02*
Y10465000D01*
X13425000Y10375000D02*
Y10385000D01*
X13495000Y10375000D02*
Y10385000D01*
X10840000Y11675000D02*
X11000000D01*
X10840000Y11465000D02*
X11000000D01*
Y11675000D01*
X10840000Y11465000D02*
Y11675000D01*
X11110000Y11895000D02*
Y12405000D01*
X10770000Y11895000D02*
Y12405000D01*
X11110000D01*
X10770000Y11895000D02*
X11110000D01*
X11825000Y10615000D02*
X11835000D01*
X11825000Y10545000D02*
X11835000D01*
X12065000D02*
X12075000D01*
X12065000Y10615000D02*
X12075000D01*
X11725000Y10985000D02*
X11735000D01*
X11725000Y11055000D02*
X11735000D01*
X11695000Y11115000D02*
X11765000D01*
X11695000Y11425000D02*
X11765000D01*
X11695000Y11115000D02*
Y11425000D01*
X11765000Y11115000D02*
Y11425000D01*
X11495000Y11185000D02*
Y11195000D01*
X11425000Y11185000D02*
Y11195000D01*
X9440000Y8830000D02*
Y8930000D01*
X9180000D02*
X9440000D01*
Y8470000D02*
Y8570000D01*
X9180000Y8470000D02*
X9440000D01*
X13289999Y11590000D02*
Y11810000D01*
X13230000Y11590000D02*
Y11810000D01*
X13289999D01*
X13230000Y11590000D02*
X13289999D01*
X13280000Y8860000D02*
Y9080000D01*
X13220000Y8860000D02*
Y9080000D01*
X13280000D01*
X13220000Y8860000D02*
X13280000D01*
X10125351Y10940000D02*
Y11170000D01*
X10435351Y10940000D02*
Y11170000D01*
X10125351D02*
X10435351D01*
X10125351Y10940000D02*
X10435351D01*
X10035351Y10240000D02*
Y10470000D01*
X10345351Y10240000D02*
Y10470000D01*
X10035351D02*
X10345351D01*
X10035351Y10240000D02*
X10345351D01*
X10115351Y9485000D02*
Y9715000D01*
X10425351Y9485000D02*
Y9715000D01*
X10115351D02*
X10425351D01*
X10115351Y9485000D02*
X10425351D01*
X12825000Y11975000D02*
Y12485000D01*
X12455000Y11975000D02*
Y12485000D01*
X12825000D01*
X12455000Y11975000D02*
X12825000D01*
X11540000Y9345000D02*
Y9655000D01*
X11640000Y9345000D02*
Y9655000D01*
X11540000Y9345000D02*
X11640000D01*
X11540000Y9655000D02*
X11640000D01*
D89*
X12670000Y9809984D02*
Y9768331D01*
X12661669Y9760000D01*
X12645008D01*
X12636678Y9768331D01*
Y9809984D01*
X12620016Y9801653D02*
X12611686Y9809984D01*
X12595025D01*
X12586694Y9801653D01*
Y9793323D01*
X12595025Y9784992D01*
X12603355D01*
X12595025D01*
X12586694Y9776661D01*
Y9768331D01*
X12595025Y9760000D01*
X12611686D01*
X12620016Y9768331D01*
X12570033Y9801653D02*
X12561702Y9809984D01*
X12545041D01*
X12536710Y9801653D01*
Y9768331D01*
X12545041Y9760000D01*
X12561702D01*
X12570033Y9768331D01*
Y9801653D01*
X12486727Y9809984D02*
X12520049D01*
Y9784992D01*
X12503388Y9793323D01*
X12495057D01*
X12486727Y9784992D01*
Y9768331D01*
X12495057Y9760000D01*
X12511718D01*
X12520049Y9768331D01*
X12470065Y9751669D02*
X12436743D01*
X12386759Y9760000D02*
X12420082D01*
X12386759Y9793323D01*
Y9801653D01*
X12395090Y9809984D01*
X12411751D01*
X12420082Y9801653D01*
D141*
X13764999Y8970000D02*
G03*
X13764999Y8970000I-12500J0D01*
G01*
X13580000Y11710000D02*
G03*
X13580000Y11710000I-12500J0D01*
G01*
X13195000Y9735000D02*
G03*
X13195000Y9735000I-12500J0D01*
G01*
X13205000Y11295000D02*
G03*
X13205000Y11295000I-12500J0D01*
G01*
X13520000Y10560000D02*
G03*
X13520000Y10560000I-12500J0D01*
G01*
X10782500Y11427500D02*
G03*
X10782500Y11427500I-12500J0D01*
G01*
X11232500Y12450000D02*
G03*
X11232500Y12450000I-12500J0D01*
G01*
X11622500Y11090000D02*
G03*
X11622500Y11090000I-12500J0D01*
G01*
X9127500Y8470000D02*
G03*
X9127500Y8470000I-12500J0D01*
G01*
X13170000Y11560000D02*
G03*
X13170000Y11560000I-12500J0D01*
G01*
X13160001Y8830000D02*
G03*
X13160001Y8830000I-12500J0D01*
G01*
X10467851Y10842500D02*
G03*
X10467851Y10842500I-12500J0D01*
G01*
X10377851Y10142500D02*
G03*
X10377851Y10142500I-12500J0D01*
G01*
X10457851Y9387500D02*
G03*
X10457851Y9387500I-12500J0D01*
G01*
X12937500Y12532500D02*
G03*
X12937500Y12532500I-12500J0D01*
G01*
X11730000Y9677500D02*
G03*
X11730000Y9677500I-12500J0D01*
G01*
D142*
X12197500Y10492500D02*
G03*
X12197500Y10492500I-5000J0D01*
G01*
X12387501Y8892500D02*
G03*
X12387501Y8892500I-5000J0D01*
G01*
X13376830Y12095900D02*
X13401830D01*
X13376830Y12195899D02*
X13401830D01*
X11647500Y9070000D02*
X11672500D01*
X11647500Y8970000D02*
X11672500D01*
X13373399Y8579100D02*
X13398399D01*
X13373399Y8479100D02*
X13398399D01*
X11687500Y9930000D02*
X11712500D01*
X11687500Y9830000D02*
X11712500D01*
X13037500Y10130000D02*
X13062500D01*
X13037500Y10230000D02*
X13062500D01*
X11677500Y10680000D02*
X11702500D01*
X11677500Y10780000D02*
X11702500D01*
X11410000Y10917500D02*
Y10942500D01*
X11510000Y10917500D02*
Y10942500D01*
X8577500Y8580000D02*
X8602500D01*
X8577500Y8480000D02*
X8602500D01*
X8993323Y8846658D02*
X8999987Y8839993D01*
Y8826664D01*
X8993323Y8820000D01*
X8966665D01*
X8960000Y8826664D01*
Y8839993D01*
X8966665Y8846658D01*
X8960000Y8879980D02*
X8999987D01*
X8979994Y8859987D01*
Y8886645D01*
X8960000Y8926632D02*
Y8899974D01*
X8986658Y8926632D01*
X8993323D01*
X8999987Y8919967D01*
Y8906638D01*
X8993323Y8899974D01*
Y8939961D02*
X8999987Y8946625D01*
Y8959954D01*
X8993323Y8966619D01*
X8986658D01*
X8979994Y8959954D01*
X8973329Y8966619D01*
X8966665D01*
X8960000Y8959954D01*
Y8946625D01*
X8966665Y8939961D01*
X8973329D01*
X8979994Y8946625D01*
X8986658Y8939961D01*
X8993323D01*
X8979994Y8946625D02*
Y8959954D01*
X11750000Y9049984D02*
Y9000000D01*
X11716678D01*
X11675025D02*
Y9049984D01*
X11700016Y9024992D01*
X11666694D01*
X11650033Y9041653D02*
X11641702Y9049984D01*
X11625041D01*
X11616710Y9041653D01*
Y9008331D01*
X11625041Y9000000D01*
X11641702D01*
X11650033Y9008331D01*
Y9041653D01*
X11575057Y9000000D02*
Y9049984D01*
X11600049Y9024992D01*
X11566727D01*
D143*
X11040000Y12305000D02*
G03*
X11040000Y12305000I-30000J0D01*
G01*
X12755000Y12385000D02*
G03*
X12755000Y12385000I-30000J0D01*
G01*
D146*
X14180000Y10134976D02*
X14130016D01*
X14155008D01*
Y10060000D01*
X14105025D02*
Y10134976D01*
X14067535D01*
X14055040Y10122480D01*
Y10097488D01*
X14067535Y10084992D01*
X14105025D01*
X13992560Y10060000D02*
Y10134976D01*
X14030048Y10097488D01*
X13980064D01*
X13955072Y10122480D02*
X13942577Y10134976D01*
X13917584D01*
X13905087Y10122480D01*
Y10072496D01*
X13917584Y10060000D01*
X13942577D01*
X13955072Y10072496D01*
Y10122480D01*
X13830112Y10134976D02*
X13855104Y10122480D01*
X13880096Y10097488D01*
Y10072496D01*
X13867599Y10060000D01*
X13842609D01*
X13830112Y10072496D01*
Y10084992D01*
X13842609Y10097488D01*
X13880096D01*
X13930000Y10724976D02*
Y10662496D01*
X13917503Y10650000D01*
X13892513D01*
X13880016Y10662496D01*
Y10724976D01*
X13817535Y10650000D02*
Y10724976D01*
X13855025Y10687488D01*
X13805040D01*
X13780048Y10712480D02*
X13767552Y10724976D01*
X13742560D01*
X13730064Y10712480D01*
Y10662496D01*
X13742560Y10650000D01*
X13767552D01*
X13780048Y10662496D01*
Y10712480D01*
X13705072Y10724976D02*
X13655087D01*
Y10712480D01*
X13705072Y10662496D01*
Y10650000D01*
X9590000Y9064976D02*
Y9002496D01*
X9577504Y8990000D01*
X9552512D01*
X9540016Y9002496D01*
Y9064976D01*
X9477536Y8990000D02*
Y9064976D01*
X9515024Y9027488D01*
X9465040D01*
X9440048Y9052480D02*
X9427552Y9064976D01*
X9402560D01*
X9390064Y9052480D01*
Y9002496D01*
X9402560Y8990000D01*
X9427552D01*
X9440048Y9002496D01*
Y9052480D01*
X9315088Y9064976D02*
X9340080Y9052480D01*
X9365072Y9027488D01*
Y9002496D01*
X9352576Y8990000D01*
X9327584D01*
X9315088Y9002496D01*
Y9014992D01*
X9327584Y9027488D01*
X9365072D01*
X8640000Y8734976D02*
Y8660000D01*
X8590016D01*
X8527536D02*
Y8734976D01*
X8565024Y8697488D01*
X8515040D01*
X8490048Y8722480D02*
X8477552Y8734976D01*
X8452560D01*
X8440064Y8722480D01*
Y8672496D01*
X8452560Y8660000D01*
X8477552D01*
X8490048Y8672496D01*
Y8722480D01*
X8415072Y8734976D02*
X8365088D01*
Y8722480D01*
X8415072Y8672496D01*
Y8660000D01*
X9320000Y9184976D02*
X9270016D01*
X9295008D01*
Y9110000D01*
X9245024D02*
Y9184976D01*
X9207536D01*
X9195040Y9172480D01*
Y9147488D01*
X9207536Y9134992D01*
X9245024D01*
X9132560Y9110000D02*
Y9184976D01*
X9170048Y9147488D01*
X9120064D01*
X9095072Y9172480D02*
X9082576Y9184976D01*
X9057584D01*
X9045088Y9172480D01*
Y9122496D01*
X9057584Y9110000D01*
X9082576D01*
X9095072Y9122496D01*
Y9172480D01*
X9020096Y9184976D02*
X8970112D01*
Y9172480D01*
X9020096Y9122496D01*
Y9110000D01*
X11910000Y11564976D02*
Y11502496D01*
X11897504Y11490000D01*
X11872512D01*
X11860016Y11502496D01*
Y11564976D01*
X11797536Y11490000D02*
Y11564976D01*
X11835024Y11527488D01*
X11785040D01*
X11760048Y11552480D02*
X11747552Y11564976D01*
X11722560D01*
X11710064Y11552480D01*
Y11502496D01*
X11722560Y11490000D01*
X11747552D01*
X11760048Y11502496D01*
Y11552480D01*
X11685072D02*
X11672576Y11564976D01*
X11647584D01*
X11635088Y11552480D01*
Y11539984D01*
X11647584Y11527488D01*
X11635088Y11514992D01*
Y11502496D01*
X11647584Y11490000D01*
X11672576D01*
X11685072Y11502496D01*
Y11514992D01*
X11672576Y11527488D01*
X11685072Y11539984D01*
Y11552480D01*
X11672576Y11527488D02*
X11647584D01*
X10570000Y10024976D02*
Y9962496D01*
X10557504Y9950000D01*
X10532512D01*
X10520016Y9962496D01*
Y10024976D01*
X10445040D02*
X10470032Y10012480D01*
X10495024Y9987488D01*
Y9962496D01*
X10482528Y9950000D01*
X10457536D01*
X10445040Y9962496D01*
Y9974992D01*
X10457536Y9987488D01*
X10495024D01*
X10420048Y10012480D02*
X10407552Y10024976D01*
X10382560D01*
X10370064Y10012480D01*
Y9962496D01*
X10382560Y9950000D01*
X10407552D01*
X10420048Y9962496D01*
Y10012480D01*
X10345072D02*
X10332576Y10024976D01*
X10307584D01*
X10295088Y10012480D01*
Y9962496D01*
X10307584Y9950000D01*
X10332576D01*
X10345072Y9962496D01*
Y10012480D01*
X10270096Y9937504D02*
X10220112D01*
X10195120Y10012480D02*
X10182624Y10024976D01*
X10157632D01*
X10145136Y10012480D01*
Y9999984D01*
X10157632Y9987488D01*
X10170128D01*
X10157632D01*
X10145136Y9974992D01*
Y9962496D01*
X10157632Y9950000D01*
X10182624D01*
X10195120Y9962496D01*
X10760000Y10724976D02*
Y10662496D01*
X10747504Y10650000D01*
X10722512D01*
X10710016Y10662496D01*
Y10724976D01*
X10635040D02*
X10660032Y10712480D01*
X10685024Y10687488D01*
Y10662496D01*
X10672528Y10650000D01*
X10647536D01*
X10635040Y10662496D01*
Y10674992D01*
X10647536Y10687488D01*
X10685024D01*
X10610048Y10712480D02*
X10597552Y10724976D01*
X10572560D01*
X10560064Y10712480D01*
Y10662496D01*
X10572560Y10650000D01*
X10597552D01*
X10610048Y10662496D01*
Y10712480D01*
X10535072D02*
X10522576Y10724976D01*
X10497584D01*
X10485088Y10712480D01*
Y10662496D01*
X10497584Y10650000D01*
X10522576D01*
X10535072Y10662496D01*
Y10712480D01*
X10460096Y10637504D02*
X10410112D01*
X10335136Y10650000D02*
X10385120D01*
X10335136Y10699984D01*
Y10712480D01*
X10347632Y10724976D01*
X10372624D01*
X10385120Y10712480D01*
X10440000Y11494976D02*
Y11432496D01*
X10427504Y11420000D01*
X10402512D01*
X10390016Y11432496D01*
Y11494976D01*
X10315040D02*
X10340032Y11482480D01*
X10365024Y11457488D01*
Y11432496D01*
X10352528Y11420000D01*
X10327536D01*
X10315040Y11432496D01*
Y11444992D01*
X10327536Y11457488D01*
X10365024D01*
X10290048Y11482480D02*
X10277552Y11494976D01*
X10252560D01*
X10240064Y11482480D01*
Y11432496D01*
X10252560Y11420000D01*
X10277552D01*
X10290048Y11432496D01*
Y11482480D01*
X10215072D02*
X10202576Y11494976D01*
X10177584D01*
X10165088Y11482480D01*
Y11432496D01*
X10177584Y11420000D01*
X10202576D01*
X10215072Y11432496D01*
Y11482480D01*
X10140096Y11407504D02*
X10090112D01*
X10065120Y11420000D02*
X10040128D01*
X10052624D01*
Y11494976D01*
X10065120Y11482480D01*
X12550000Y11944976D02*
Y11882496D01*
X12537504Y11870000D01*
X12512512D01*
X12500016Y11882496D01*
Y11944976D01*
X12425040Y11870000D02*
X12475024D01*
X12425040Y11919984D01*
Y11932480D01*
X12437536Y11944976D01*
X12462528D01*
X12475024Y11932480D01*
X12400048D02*
X12387552Y11944976D01*
X12362560D01*
X12350064Y11932480D01*
Y11882496D01*
X12362560Y11870000D01*
X12387552D01*
X12400048Y11882496D01*
Y11932480D01*
X12325072Y11870000D02*
X12300080D01*
X12312576D01*
Y11944976D01*
X12325072Y11932480D01*
X10680000Y11614976D02*
Y11552496D01*
X10667504Y11540000D01*
X10642512D01*
X10630016Y11552496D01*
Y11614976D01*
X10605024D02*
X10555040D01*
Y11602480D01*
X10605024Y11552496D01*
Y11540000D01*
X10530048Y11602480D02*
X10517552Y11614976D01*
X10492560D01*
X10480064Y11602480D01*
Y11552496D01*
X10492560Y11540000D01*
X10517552D01*
X10530048Y11552496D01*
Y11602480D01*
X10455072Y11540000D02*
X10430080D01*
X10442576D01*
Y11614976D01*
X10455072Y11602480D01*
X10490000Y12214976D02*
Y12152496D01*
X10477504Y12140000D01*
X10452512D01*
X10440016Y12152496D01*
Y12214976D01*
X10415024D02*
X10365040D01*
Y12202480D01*
X10415024Y12152496D01*
Y12140000D01*
X10340048Y12202480D02*
X10327552Y12214976D01*
X10302560D01*
X10290064Y12202480D01*
Y12152496D01*
X10302560Y12140000D01*
X10327552D01*
X10340048Y12152496D01*
Y12202480D01*
X10265072D02*
X10252576Y12214976D01*
X10227584D01*
X10215088Y12202480D01*
Y12152496D01*
X10227584Y12140000D01*
X10252576D01*
X10265072Y12152496D01*
Y12202480D01*
X12310000Y8484976D02*
Y8422496D01*
X12297504Y8410000D01*
X12272512D01*
X12260016Y8422496D01*
Y8484976D01*
X12197536Y8410000D02*
Y8484976D01*
X12235024Y8447488D01*
X12185040D01*
X12160048Y8472480D02*
X12147552Y8484976D01*
X12122560D01*
X12110064Y8472480D01*
Y8422496D01*
X12122560Y8410000D01*
X12147552D01*
X12160048Y8422496D01*
Y8472480D01*
X12047584Y8410000D02*
Y8484976D01*
X12085072Y8447488D01*
X12035088D01*
X12210000Y10074976D02*
Y10012496D01*
X12197504Y10000000D01*
X12172512D01*
X12160016Y10012496D01*
Y10074976D01*
X12097536Y10000000D02*
Y10074976D01*
X12135024Y10037488D01*
X12085040D01*
X12060048Y10062480D02*
X12047552Y10074976D01*
X12022560D01*
X12010064Y10062480D01*
Y10012496D01*
X12022560Y10000000D01*
X12047552D01*
X12060048Y10012496D01*
Y10062480D01*
X11985072D02*
X11972576Y10074976D01*
X11947584D01*
X11935088Y10062480D01*
Y10049984D01*
X11947584Y10037488D01*
X11960080D01*
X11947584D01*
X11935088Y10024992D01*
Y10012496D01*
X11947584Y10000000D01*
X11972576D01*
X11985072Y10012496D01*
X8822480Y8119984D02*
X8834976Y8107488D01*
Y8082496D01*
X8822480Y8070000D01*
X8772496D01*
X8760000Y8082496D01*
Y8107488D01*
X8772496Y8119984D01*
X8760000Y8182464D02*
X8834976D01*
X8797488Y8144976D01*
Y8194960D01*
X8822480Y8219952D02*
X8834976Y8232448D01*
Y8257440D01*
X8822480Y8269936D01*
X8772496D01*
X8760000Y8257440D01*
Y8232448D01*
X8772496Y8219952D01*
X8822480D01*
X8760000Y8332416D02*
X8834976D01*
X8797488Y8294928D01*
Y8344912D01*
X9160000Y7929978D02*
Y7860000D01*
X9113348D01*
X9055034D02*
Y7929978D01*
X9090022Y7894989D01*
X9043371D01*
X9020045Y7918315D02*
X9008382Y7929978D01*
X8985056D01*
X8973393Y7918315D01*
Y7871663D01*
X8985056Y7860000D01*
X9008382D01*
X9020045Y7871663D01*
Y7918315D01*
X8950067D02*
X8938405Y7929978D01*
X8915079D01*
X8903416Y7918315D01*
Y7871663D01*
X8915079Y7860000D01*
X8938405D01*
X8950067Y7871663D01*
Y7918315D01*
X14110001Y10884976D02*
X14060016D01*
X14085008D01*
Y10810000D01*
X14035023D02*
Y10884976D01*
X13997536D01*
X13985040Y10872480D01*
Y10847488D01*
X13997536Y10834992D01*
X14035023D01*
X13960048Y10872480D02*
X13947552Y10884976D01*
X13922560D01*
X13910065Y10872480D01*
Y10859984D01*
X13922560Y10847488D01*
X13935056D01*
X13922560D01*
X13910065Y10834992D01*
Y10822496D01*
X13922560Y10810000D01*
X13947552D01*
X13960048Y10822496D01*
X13885072Y10872480D02*
X13872575Y10884976D01*
X13847585D01*
X13835088Y10872480D01*
Y10822496D01*
X13847585Y10810000D01*
X13872575D01*
X13885072Y10822496D01*
Y10872480D01*
X13810097Y10884976D02*
X13760112D01*
Y10872480D01*
X13810097Y10822496D01*
Y10810000D01*
X13735120Y10797504D02*
X13685136D01*
X13660144Y10810000D02*
X13635152D01*
X13647649D01*
Y10884976D01*
X13660144Y10872480D01*
D147*
X13110001Y10194992D02*
Y10170000D01*
X13093340D01*
X13072511D02*
Y10194992D01*
X13085008Y10182496D01*
X13068347D01*
X13060016Y10190826D02*
X13055852Y10194992D01*
X13047520D01*
X13043355Y10190826D01*
Y10174165D01*
X13047520Y10170000D01*
X13055852D01*
X13060016Y10174165D01*
Y10190826D01*
X13035023D02*
X13030859Y10194992D01*
X13022528D01*
X13018362Y10190826D01*
Y10186661D01*
X13022528Y10182496D01*
X13018362Y10178331D01*
Y10174165D01*
X13022528Y10170000D01*
X13030859D01*
X13035023Y10174165D01*
Y10178331D01*
X13030859Y10182496D01*
X13035023Y10186661D01*
Y10190826D01*
X13030859Y10182496D02*
X13022528D01*
X11580000Y12330000D02*
X11604992D01*
Y12342496D01*
X11600826Y12346661D01*
X11592496D01*
X11588331Y12342496D01*
Y12330000D01*
Y12338331D02*
X11580000Y12346661D01*
X11604992Y12354992D02*
Y12371653D01*
X11600826D01*
X11584165Y12354992D01*
X11580000D01*
X11600826Y12379984D02*
X11604992Y12384149D01*
Y12392480D01*
X11600826Y12396645D01*
X11584165D01*
X11580000Y12392480D01*
Y12384149D01*
X11584165Y12379984D01*
X11600826D01*
X11580000Y12404975D02*
Y12413306D01*
Y12409141D01*
X11604992D01*
X11600826Y12404975D01*
X11580000Y12140000D02*
X11604992D01*
Y12152496D01*
X11600826Y12156661D01*
X11592496D01*
X11588331Y12152496D01*
Y12140000D01*
Y12148331D02*
X11580000Y12156661D01*
X11604992Y12164992D02*
Y12181653D01*
X11600826D01*
X11584165Y12164992D01*
X11580000D01*
X11600826Y12189984D02*
X11604992Y12194149D01*
Y12202480D01*
X11600826Y12206645D01*
X11584165D01*
X11580000Y12202480D01*
Y12194149D01*
X11584165Y12189984D01*
X11600826D01*
Y12214976D02*
X11604992Y12219141D01*
Y12227472D01*
X11600826Y12231637D01*
X11584165D01*
X11580000Y12227472D01*
Y12219141D01*
X11584165Y12214976D01*
X11600826D01*
X11670000Y12330000D02*
X11694992D01*
Y12342496D01*
X11690827Y12346661D01*
X11682496D01*
X11678331Y12342496D01*
Y12330000D01*
Y12338331D02*
X11670000Y12346661D01*
X11694992Y12354992D02*
Y12371653D01*
X11690827D01*
X11674165Y12354992D01*
X11670000D01*
X11690827Y12379984D02*
X11694992Y12384149D01*
Y12392480D01*
X11690827Y12396645D01*
X11674165D01*
X11670000Y12392480D01*
Y12384149D01*
X11674165Y12379984D01*
X11690827D01*
Y12404975D02*
X11694992Y12409141D01*
Y12417471D01*
X11690827Y12421637D01*
X11686661D01*
X11682496Y12417471D01*
Y12413306D01*
Y12417471D01*
X11678331Y12421637D01*
X11674165D01*
X11670000Y12417471D01*
Y12409141D01*
X11674165Y12404975D01*
X11670000Y12130000D02*
X11694992D01*
Y12142496D01*
X11690827Y12146661D01*
X11682496D01*
X11678331Y12142496D01*
Y12130000D01*
Y12138331D02*
X11670000Y12146661D01*
X11694992Y12154992D02*
Y12171653D01*
X11690827D01*
X11674165Y12154992D01*
X11670000D01*
X11690827Y12179984D02*
X11694992Y12184149D01*
Y12192480D01*
X11690827Y12196645D01*
X11674165D01*
X11670000Y12192480D01*
Y12184149D01*
X11674165Y12179984D01*
X11690827D01*
X11670000Y12221637D02*
Y12204976D01*
X11686661Y12221637D01*
X11690827D01*
X11694992Y12217472D01*
Y12209141D01*
X11690827Y12204976D01*
X11330826Y9506661D02*
X11334992Y9502496D01*
Y9494165D01*
X11330826Y9490000D01*
X11314165D01*
X11310000Y9494165D01*
Y9502496D01*
X11314165Y9506661D01*
X11310000Y9527488D02*
X11334992D01*
X11322496Y9514992D01*
Y9531653D01*
X11330826Y9539984D02*
X11334992Y9544149D01*
Y9552480D01*
X11330826Y9556645D01*
X11326661D01*
X11322496Y9552480D01*
Y9548314D01*
Y9552480D01*
X11318331Y9556645D01*
X11314165D01*
X11310000Y9552480D01*
Y9544149D01*
X11314165Y9539984D01*
X11310000Y9577472D02*
X11334992D01*
X11322496Y9564976D01*
Y9581637D01*
X11753339Y11030827D02*
X11757504Y11034992D01*
X11765835D01*
X11770000Y11030827D01*
Y11014165D01*
X11765835Y11010000D01*
X11757504D01*
X11753339Y11014165D01*
X11732512Y11010000D02*
Y11034992D01*
X11745008Y11022496D01*
X11728347D01*
X11720016Y11030827D02*
X11715851Y11034992D01*
X11707520D01*
X11703355Y11030827D01*
Y11026661D01*
X11707520Y11022496D01*
X11711686D01*
X11707520D01*
X11703355Y11018331D01*
Y11014165D01*
X11707520Y11010000D01*
X11715851D01*
X11720016Y11014165D01*
X11695025Y11010000D02*
X11686694D01*
X11690859D01*
Y11034992D01*
X11695025Y11030827D01*
X13030000Y8690000D02*
X13054993D01*
Y8702496D01*
X13050827Y8706661D01*
X13042496D01*
X13038332Y8702496D01*
Y8690000D01*
Y8698331D02*
X13030000Y8706661D01*
X13050827Y8714992D02*
X13054993Y8719157D01*
Y8727488D01*
X13050827Y8731653D01*
X13046661D01*
X13042496Y8727488D01*
Y8723322D01*
Y8727488D01*
X13038332Y8731653D01*
X13034164D01*
X13030000Y8727488D01*
Y8719157D01*
X13034164Y8714992D01*
X13030000Y8756645D02*
Y8739984D01*
X13046661Y8756645D01*
X13050827D01*
X13054993Y8752480D01*
Y8744149D01*
X13050827Y8739984D01*
Y8764975D02*
X13054993Y8769141D01*
Y8777471D01*
X13050827Y8781636D01*
X13034164D01*
X13030000Y8777471D01*
Y8769141D01*
X13034164Y8764975D01*
X13050827D01*
X13025835Y8789967D02*
Y8806628D01*
X13030000Y8831620D02*
Y8814959D01*
X13046661Y8831620D01*
X13050827D01*
X13054993Y8827455D01*
Y8819124D01*
X13050827Y8814959D01*
X12889999Y11490000D02*
X12914992D01*
Y11502496D01*
X12910826Y11506661D01*
X12902496D01*
X12898331Y11502496D01*
Y11490000D01*
Y11498331D02*
X12889999Y11506661D01*
X12910826Y11514992D02*
X12914992Y11519157D01*
Y11527488D01*
X12910826Y11531653D01*
X12906660D01*
X12902496Y11527488D01*
Y11523322D01*
Y11527488D01*
X12898331Y11531653D01*
X12894165D01*
X12889999Y11527488D01*
Y11519157D01*
X12894165Y11514992D01*
X12889999Y11556645D02*
Y11539984D01*
X12906660Y11556645D01*
X12910826D01*
X12914992Y11552480D01*
Y11544149D01*
X12910826Y11539984D01*
Y11564975D02*
X12914992Y11569141D01*
Y11577471D01*
X12910826Y11581636D01*
X12894165D01*
X12889999Y11577471D01*
Y11569141D01*
X12894165Y11564975D01*
X12910826D01*
X12885835Y11589967D02*
Y11606628D01*
X12889999Y11614959D02*
Y11623290D01*
Y11619124D01*
X12914992D01*
X12910826Y11614959D01*
X10550000Y9410000D02*
X10574992D01*
Y9422496D01*
X10570826Y9426661D01*
X10562496D01*
X10558331Y9422496D01*
Y9410000D01*
Y9418331D02*
X10550000Y9426661D01*
X10574992Y9451653D02*
X10570826Y9443322D01*
X10562496Y9434992D01*
X10554165D01*
X10550000Y9439157D01*
Y9447488D01*
X10554165Y9451653D01*
X10558331D01*
X10562496Y9447488D01*
Y9434992D01*
X10570826Y9459984D02*
X10574992Y9464149D01*
Y9472480D01*
X10570826Y9476645D01*
X10554165D01*
X10550000Y9472480D01*
Y9464149D01*
X10554165Y9459984D01*
X10570826D01*
X10550000Y9501637D02*
Y9484975D01*
X10566661Y9501637D01*
X10570826D01*
X10574992Y9497471D01*
Y9489141D01*
X10570826Y9484975D01*
X10545835Y9509967D02*
Y9526628D01*
X10570826Y9534959D02*
X10574992Y9539124D01*
Y9547455D01*
X10570826Y9551620D01*
X10566661D01*
X10562496Y9547455D01*
Y9543290D01*
Y9547455D01*
X10558331Y9551620D01*
X10554165D01*
X10550000Y9547455D01*
Y9539124D01*
X10554165Y9534959D01*
X10470000Y10240000D02*
X10494992D01*
Y10252496D01*
X10490826Y10256661D01*
X10482496D01*
X10478331Y10252496D01*
Y10240000D01*
Y10248331D02*
X10470000Y10256661D01*
X10494992Y10281653D02*
X10490826Y10273323D01*
X10482496Y10264992D01*
X10474165D01*
X10470000Y10269157D01*
Y10277488D01*
X10474165Y10281653D01*
X10478331D01*
X10482496Y10277488D01*
Y10264992D01*
X10490826Y10289984D02*
X10494992Y10294149D01*
Y10302480D01*
X10490826Y10306645D01*
X10474165D01*
X10470000Y10302480D01*
Y10294149D01*
X10474165Y10289984D01*
X10490826D01*
X10470000Y10331637D02*
Y10314976D01*
X10486661Y10331637D01*
X10490826D01*
X10494992Y10327472D01*
Y10319141D01*
X10490826Y10314976D01*
X10465835Y10339967D02*
Y10356629D01*
X10470000Y10381620D02*
Y10364959D01*
X10486661Y10381620D01*
X10490826D01*
X10494992Y10377455D01*
Y10369125D01*
X10490826Y10364959D01*
X10570000Y10920000D02*
X10594992D01*
Y10932496D01*
X10590826Y10936661D01*
X10582496D01*
X10578331Y10932496D01*
Y10920000D01*
Y10928331D02*
X10570000Y10936661D01*
X10594992Y10961653D02*
X10590826Y10953323D01*
X10582496Y10944992D01*
X10574165D01*
X10570000Y10949157D01*
Y10957488D01*
X10574165Y10961653D01*
X10578331D01*
X10582496Y10957488D01*
Y10944992D01*
X10590826Y10969984D02*
X10594992Y10974149D01*
Y10982480D01*
X10590826Y10986645D01*
X10574165D01*
X10570000Y10982480D01*
Y10974149D01*
X10574165Y10969984D01*
X10590826D01*
X10570000Y11011637D02*
Y10994975D01*
X10586661Y11011637D01*
X10590826D01*
X10594992Y11007472D01*
Y10999141D01*
X10590826Y10994975D01*
X10565835Y11019967D02*
Y11036628D01*
X10570000Y11044959D02*
Y11053290D01*
Y11049124D01*
X10594992D01*
X10590826Y11044959D01*
X10550000Y9570000D02*
X10574992D01*
Y9582496D01*
X10570826Y9586661D01*
X10562496D01*
X10558331Y9582496D01*
Y9570000D01*
Y9578331D02*
X10550000Y9586661D01*
X10574992Y9611653D02*
X10570826Y9603322D01*
X10562496Y9594992D01*
X10554165D01*
X10550000Y9599157D01*
Y9607488D01*
X10554165Y9611653D01*
X10558331D01*
X10562496Y9607488D01*
Y9594992D01*
X10570826Y9619984D02*
X10574992Y9624149D01*
Y9632480D01*
X10570826Y9636645D01*
X10554165D01*
X10550000Y9632480D01*
Y9624149D01*
X10554165Y9619984D01*
X10570826D01*
Y9644975D02*
X10574992Y9649141D01*
Y9657471D01*
X10570826Y9661637D01*
X10554165D01*
X10550000Y9657471D01*
Y9649141D01*
X10554165Y9644975D01*
X10570826D01*
X10545835Y9669967D02*
Y9686628D01*
X10570826Y9694959D02*
X10574992Y9699124D01*
Y9707455D01*
X10570826Y9711620D01*
X10566661D01*
X10562496Y9707455D01*
Y9703290D01*
Y9707455D01*
X10558331Y9711620D01*
X10554165D01*
X10550000Y9707455D01*
Y9699124D01*
X10554165Y9694959D01*
X10470000Y10390000D02*
X10494992D01*
Y10402496D01*
X10490826Y10406661D01*
X10482496D01*
X10478331Y10402496D01*
Y10390000D01*
Y10398331D02*
X10470000Y10406661D01*
X10494992Y10431653D02*
X10490826Y10423323D01*
X10482496Y10414992D01*
X10474165D01*
X10470000Y10419157D01*
Y10427488D01*
X10474165Y10431653D01*
X10478331D01*
X10482496Y10427488D01*
Y10414992D01*
X10490826Y10439984D02*
X10494992Y10444149D01*
Y10452480D01*
X10490826Y10456645D01*
X10474165D01*
X10470000Y10452480D01*
Y10444149D01*
X10474165Y10439984D01*
X10490826D01*
Y10464976D02*
X10494992Y10469141D01*
Y10477472D01*
X10490826Y10481637D01*
X10474165D01*
X10470000Y10477472D01*
Y10469141D01*
X10474165Y10464976D01*
X10490826D01*
X10465835Y10489967D02*
Y10506628D01*
X10470000Y10531620D02*
Y10514959D01*
X10486661Y10531620D01*
X10490826D01*
X10494992Y10527455D01*
Y10519125D01*
X10490826Y10514959D01*
X10570000Y11090000D02*
X10594992D01*
Y11102496D01*
X10590826Y11106661D01*
X10582496D01*
X10578331Y11102496D01*
Y11090000D01*
Y11098331D02*
X10570000Y11106661D01*
X10594992Y11131653D02*
X10590826Y11123322D01*
X10582496Y11114992D01*
X10574165D01*
X10570000Y11119157D01*
Y11127488D01*
X10574165Y11131653D01*
X10578331D01*
X10582496Y11127488D01*
Y11114992D01*
X10590826Y11139984D02*
X10594992Y11144149D01*
Y11152480D01*
X10590826Y11156645D01*
X10574165D01*
X10570000Y11152480D01*
Y11144149D01*
X10574165Y11139984D01*
X10590826D01*
Y11164975D02*
X10594992Y11169141D01*
Y11177471D01*
X10590826Y11181637D01*
X10574165D01*
X10570000Y11177471D01*
Y11169141D01*
X10574165Y11164975D01*
X10590826D01*
X10565835Y11189967D02*
Y11206628D01*
X10570000Y11214959D02*
Y11223290D01*
Y11219124D01*
X10594992D01*
X10590826Y11214959D01*
X10470000Y9410000D02*
X10494992D01*
Y9422496D01*
X10490826Y9426661D01*
X10482496D01*
X10478331Y9422496D01*
Y9410000D01*
Y9418331D02*
X10470000Y9426661D01*
X10494992Y9451653D02*
X10490826Y9443322D01*
X10482496Y9434992D01*
X10474165D01*
X10470000Y9439157D01*
Y9447488D01*
X10474165Y9451653D01*
X10478331D01*
X10482496Y9447488D01*
Y9434992D01*
X10490826Y9459984D02*
X10494992Y9464149D01*
Y9472480D01*
X10490826Y9476645D01*
X10474165D01*
X10470000Y9472480D01*
Y9464149D01*
X10474165Y9459984D01*
X10490826D01*
Y9484975D02*
X10494992Y9489141D01*
Y9497471D01*
X10490826Y9501637D01*
X10486661D01*
X10482496Y9497471D01*
Y9493306D01*
Y9497471D01*
X10478331Y9501637D01*
X10474165D01*
X10470000Y9497471D01*
Y9489141D01*
X10474165Y9484975D01*
X10465835Y9509967D02*
Y9526628D01*
X10490826Y9534959D02*
X10494992Y9539124D01*
Y9547455D01*
X10490826Y9551620D01*
X10486661D01*
X10482496Y9547455D01*
Y9543290D01*
Y9547455D01*
X10478331Y9551620D01*
X10474165D01*
X10470000Y9547455D01*
Y9539124D01*
X10474165Y9534959D01*
X10390000Y10220000D02*
X10414992D01*
Y10232496D01*
X10410827Y10236661D01*
X10402496D01*
X10398331Y10232496D01*
Y10220000D01*
Y10228331D02*
X10390000Y10236661D01*
X10414992Y10261653D02*
X10410827Y10253322D01*
X10402496Y10244992D01*
X10394165D01*
X10390000Y10249157D01*
Y10257488D01*
X10394165Y10261653D01*
X10398331D01*
X10402496Y10257488D01*
Y10244992D01*
X10410827Y10269984D02*
X10414992Y10274149D01*
Y10282480D01*
X10410827Y10286645D01*
X10394165D01*
X10390000Y10282480D01*
Y10274149D01*
X10394165Y10269984D01*
X10410827D01*
Y10294975D02*
X10414992Y10299141D01*
Y10307471D01*
X10410827Y10311636D01*
X10406661D01*
X10402496Y10307471D01*
Y10303306D01*
Y10307471D01*
X10398331Y10311636D01*
X10394165D01*
X10390000Y10307471D01*
Y10299141D01*
X10394165Y10294975D01*
X10385835Y10319967D02*
Y10336628D01*
X10390000Y10361620D02*
Y10344959D01*
X10406661Y10361620D01*
X10410827D01*
X10414992Y10357455D01*
Y10349124D01*
X10410827Y10344959D01*
X10490000Y10920000D02*
X10514992D01*
Y10932496D01*
X10510827Y10936661D01*
X10502496D01*
X10498331Y10932496D01*
Y10920000D01*
Y10928331D02*
X10490000Y10936661D01*
X10514992Y10961653D02*
X10510827Y10953323D01*
X10502496Y10944992D01*
X10494165D01*
X10490000Y10949157D01*
Y10957488D01*
X10494165Y10961653D01*
X10498331D01*
X10502496Y10957488D01*
Y10944992D01*
X10510827Y10969984D02*
X10514992Y10974149D01*
Y10982480D01*
X10510827Y10986645D01*
X10494165D01*
X10490000Y10982480D01*
Y10974149D01*
X10494165Y10969984D01*
X10510827D01*
Y10994975D02*
X10514992Y10999141D01*
Y11007472D01*
X10510827Y11011637D01*
X10506661D01*
X10502496Y11007472D01*
Y11003306D01*
Y11007472D01*
X10498331Y11011637D01*
X10494165D01*
X10490000Y11007472D01*
Y10999141D01*
X10494165Y10994975D01*
X10485835Y11019967D02*
Y11036628D01*
X10490000Y11044959D02*
Y11053290D01*
Y11049124D01*
X10514992D01*
X10510827Y11044959D01*
X10470000Y9570000D02*
X10494992D01*
Y9582496D01*
X10490826Y9586661D01*
X10482496D01*
X10478331Y9582496D01*
Y9570000D01*
Y9578331D02*
X10470000Y9586661D01*
X10494992Y9611653D02*
X10490826Y9603322D01*
X10482496Y9594992D01*
X10474165D01*
X10470000Y9599157D01*
Y9607488D01*
X10474165Y9611653D01*
X10478331D01*
X10482496Y9607488D01*
Y9594992D01*
X10490826Y9619984D02*
X10494992Y9624149D01*
Y9632480D01*
X10490826Y9636645D01*
X10474165D01*
X10470000Y9632480D01*
Y9624149D01*
X10474165Y9619984D01*
X10490826D01*
X10470000Y9644975D02*
Y9653306D01*
Y9649141D01*
X10494992D01*
X10490826Y9644975D01*
X10465835Y9665802D02*
Y9682463D01*
X10490826Y9690794D02*
X10494992Y9694959D01*
Y9703290D01*
X10490826Y9707455D01*
X10486661D01*
X10482496Y9703290D01*
Y9699124D01*
Y9703290D01*
X10478331Y9707455D01*
X10474165D01*
X10470000Y9703290D01*
Y9694959D01*
X10474165Y9690794D01*
X10390000Y10390000D02*
X10414992D01*
Y10402496D01*
X10410827Y10406661D01*
X10402496D01*
X10398331Y10402496D01*
Y10390000D01*
Y10398331D02*
X10390000Y10406661D01*
X10414992Y10431653D02*
X10410827Y10423323D01*
X10402496Y10414992D01*
X10394165D01*
X10390000Y10419157D01*
Y10427488D01*
X10394165Y10431653D01*
X10398331D01*
X10402496Y10427488D01*
Y10414992D01*
X10410827Y10439984D02*
X10414992Y10444149D01*
Y10452480D01*
X10410827Y10456645D01*
X10394165D01*
X10390000Y10452480D01*
Y10444149D01*
X10394165Y10439984D01*
X10410827D01*
X10390000Y10464976D02*
Y10473306D01*
Y10469141D01*
X10414992D01*
X10410827Y10464976D01*
X10385835Y10485802D02*
Y10502463D01*
X10390000Y10527455D02*
Y10510794D01*
X10406661Y10527455D01*
X10410827D01*
X10414992Y10523290D01*
Y10514959D01*
X10410827Y10510794D01*
X10490000Y11070000D02*
X10514992D01*
Y11082496D01*
X10510827Y11086661D01*
X10502496D01*
X10498331Y11082496D01*
Y11070000D01*
Y11078331D02*
X10490000Y11086661D01*
X10514992Y11111653D02*
X10510827Y11103322D01*
X10502496Y11094992D01*
X10494165D01*
X10490000Y11099157D01*
Y11107488D01*
X10494165Y11111653D01*
X10498331D01*
X10502496Y11107488D01*
Y11094992D01*
X10510827Y11119984D02*
X10514992Y11124149D01*
Y11132480D01*
X10510827Y11136645D01*
X10494165D01*
X10490000Y11132480D01*
Y11124149D01*
X10494165Y11119984D01*
X10510827D01*
X10490000Y11144975D02*
Y11153306D01*
Y11149141D01*
X10514992D01*
X10510827Y11144975D01*
X10485835Y11165802D02*
Y11182463D01*
X10490000Y11190794D02*
Y11199124D01*
Y11194959D01*
X10514992D01*
X10510827Y11190794D01*
X10070826Y9556661D02*
X10074992Y9552496D01*
Y9544165D01*
X10070826Y9540000D01*
X10054165D01*
X10050000Y9544165D01*
Y9552496D01*
X10054165Y9556661D01*
X10074992Y9581653D02*
X10070826Y9573322D01*
X10062496Y9564992D01*
X10054165D01*
X10050000Y9569157D01*
Y9577488D01*
X10054165Y9581653D01*
X10058331D01*
X10062496Y9577488D01*
Y9564992D01*
X10070826Y9589984D02*
X10074992Y9594149D01*
Y9602480D01*
X10070826Y9606645D01*
X10054165D01*
X10050000Y9602480D01*
Y9594149D01*
X10054165Y9589984D01*
X10070826D01*
Y9614975D02*
X10074992Y9619141D01*
Y9627471D01*
X10070826Y9631637D01*
X10054165D01*
X10050000Y9627471D01*
Y9619141D01*
X10054165Y9614975D01*
X10070826D01*
X10045835Y9639967D02*
Y9656628D01*
X10070826Y9664959D02*
X10074992Y9669124D01*
Y9677455D01*
X10070826Y9681620D01*
X10066661D01*
X10062496Y9677455D01*
Y9673290D01*
Y9677455D01*
X10058331Y9681620D01*
X10054165D01*
X10050000Y9677455D01*
Y9669124D01*
X10054165Y9664959D01*
X9990827Y10316661D02*
X9994992Y10312496D01*
Y10304165D01*
X9990827Y10300000D01*
X9974165D01*
X9970000Y10304165D01*
Y10312496D01*
X9974165Y10316661D01*
X9994992Y10341653D02*
X9990827Y10333322D01*
X9982496Y10324992D01*
X9974165D01*
X9970000Y10329157D01*
Y10337488D01*
X9974165Y10341653D01*
X9978331D01*
X9982496Y10337488D01*
Y10324992D01*
X9990827Y10349984D02*
X9994992Y10354149D01*
Y10362480D01*
X9990827Y10366645D01*
X9974165D01*
X9970000Y10362480D01*
Y10354149D01*
X9974165Y10349984D01*
X9990827D01*
Y10374975D02*
X9994992Y10379141D01*
Y10387471D01*
X9990827Y10391637D01*
X9974165D01*
X9970000Y10387471D01*
Y10379141D01*
X9974165Y10374975D01*
X9990827D01*
X9965835Y10399967D02*
Y10416628D01*
X9970000Y10441620D02*
Y10424959D01*
X9986661Y10441620D01*
X9990827D01*
X9994992Y10437455D01*
Y10429124D01*
X9990827Y10424959D01*
X10080826Y11016661D02*
X10084992Y11012496D01*
Y11004165D01*
X10080826Y11000000D01*
X10064165D01*
X10060000Y11004165D01*
Y11012496D01*
X10064165Y11016661D01*
X10084992Y11041653D02*
X10080826Y11033323D01*
X10072496Y11024992D01*
X10064165D01*
X10060000Y11029157D01*
Y11037488D01*
X10064165Y11041653D01*
X10068331D01*
X10072496Y11037488D01*
Y11024992D01*
X10080826Y11049984D02*
X10084992Y11054149D01*
Y11062480D01*
X10080826Y11066645D01*
X10064165D01*
X10060000Y11062480D01*
Y11054149D01*
X10064165Y11049984D01*
X10080826D01*
Y11074976D02*
X10084992Y11079141D01*
Y11087472D01*
X10080826Y11091637D01*
X10064165D01*
X10060000Y11087472D01*
Y11079141D01*
X10064165Y11074976D01*
X10080826D01*
X10055835Y11099967D02*
Y11116629D01*
X10060000Y11124959D02*
Y11133290D01*
Y11129125D01*
X10084992D01*
X10080826Y11124959D01*
X12183339Y12460826D02*
X12187504Y12464992D01*
X12195835D01*
X12200000Y12460826D01*
Y12444165D01*
X12195835Y12440000D01*
X12187504D01*
X12183339Y12444165D01*
X12158347Y12440000D02*
X12175008D01*
X12158347Y12456661D01*
Y12460826D01*
X12162512Y12464992D01*
X12170843D01*
X12175008Y12460826D01*
X12150016D02*
X12145851Y12464992D01*
X12137520D01*
X12133355Y12460826D01*
Y12444165D01*
X12137520Y12440000D01*
X12145851D01*
X12150016Y12444165D01*
Y12460826D01*
X12125025D02*
X12120859Y12464992D01*
X12112528D01*
X12108363Y12460826D01*
Y12444165D01*
X12112528Y12440000D01*
X12120859D01*
X12125025Y12444165D01*
Y12460826D01*
X10953339Y11420827D02*
X10957504Y11424992D01*
X10965835D01*
X10970000Y11420827D01*
Y11404165D01*
X10965835Y11400000D01*
X10957504D01*
X10953339Y11404165D01*
X10945008Y11424992D02*
X10928347D01*
Y11420827D01*
X10945008Y11404165D01*
Y11400000D01*
X10920016Y11420827D02*
X10915851Y11424992D01*
X10907520D01*
X10903355Y11420827D01*
Y11404165D01*
X10907520Y11400000D01*
X10915851D01*
X10920016Y11404165D01*
Y11420827D01*
X10895024Y11400000D02*
X10886694D01*
X10890859D01*
Y11424992D01*
X10895024Y11420827D01*
X10393339Y12340826D02*
X10397504Y12344992D01*
X10405835D01*
X10410000Y12340826D01*
Y12324165D01*
X10405835Y12320000D01*
X10397504D01*
X10393339Y12324165D01*
X10385008Y12344992D02*
X10368347D01*
Y12340826D01*
X10385008Y12324165D01*
Y12320000D01*
X10360016Y12340826D02*
X10355851Y12344992D01*
X10347520D01*
X10343355Y12340826D01*
Y12324165D01*
X10347520Y12320000D01*
X10355851D01*
X10360016Y12324165D01*
Y12340826D01*
X10335025D02*
X10330859Y12344992D01*
X10322529D01*
X10318363Y12340826D01*
Y12324165D01*
X10322529Y12320000D01*
X10330859D01*
X10335025Y12324165D01*
Y12340826D01*
X12600826Y9276661D02*
X12604992Y9272496D01*
Y9264165D01*
X12600826Y9260000D01*
X12584165D01*
X12580000Y9264165D01*
Y9272496D01*
X12584165Y9276661D01*
X12600826Y9284992D02*
X12604992Y9289157D01*
Y9297488D01*
X12600826Y9301653D01*
X12596661D01*
X12592496Y9297488D01*
Y9293323D01*
Y9297488D01*
X12588331Y9301653D01*
X12584165D01*
X12580000Y9297488D01*
Y9289157D01*
X12584165Y9284992D01*
X12580000Y9309984D02*
Y9318314D01*
Y9314149D01*
X12604992D01*
X12600826Y9309984D01*
X12580000Y9343306D02*
X12604992D01*
X12592496Y9330810D01*
Y9347471D01*
X12575835Y9355802D02*
Y9372463D01*
X12580000Y9397455D02*
Y9380794D01*
X12596661Y9397455D01*
X12600826D01*
X12604992Y9393290D01*
Y9384959D01*
X12600826Y9380794D01*
X12660827Y10786661D02*
X12664992Y10782496D01*
Y10774165D01*
X12660827Y10770000D01*
X12644165D01*
X12640000Y10774165D01*
Y10782496D01*
X12644165Y10786661D01*
X12660827Y10794992D02*
X12664992Y10799157D01*
Y10807488D01*
X12660827Y10811653D01*
X12656661D01*
X12652496Y10807488D01*
Y10803323D01*
Y10807488D01*
X12648331Y10811653D01*
X12644165D01*
X12640000Y10807488D01*
Y10799157D01*
X12644165Y10794992D01*
X12640000Y10819984D02*
Y10828314D01*
Y10824149D01*
X12664992D01*
X12660827Y10819984D01*
X12640000Y10853306D02*
X12664992D01*
X12652496Y10840810D01*
Y10857471D01*
X12635835Y10865802D02*
Y10882463D01*
X12640000Y10890794D02*
Y10899125D01*
Y10894959D01*
X12664992D01*
X12660827Y10890794D01*
X13350826Y9506661D02*
X13354993Y9502496D01*
Y9494165D01*
X13350826Y9490000D01*
X13334164D01*
X13330000Y9494165D01*
Y9502496D01*
X13334164Y9506661D01*
X13350826Y9514992D02*
X13354993Y9519157D01*
Y9527488D01*
X13350826Y9531653D01*
X13346661D01*
X13342496Y9527488D01*
Y9523323D01*
Y9527488D01*
X13338332Y9531653D01*
X13334164D01*
X13330000Y9527488D01*
Y9519157D01*
X13334164Y9514992D01*
X13330000Y9539984D02*
Y9548314D01*
Y9544149D01*
X13354993D01*
X13350826Y9539984D01*
Y9560810D02*
X13354993Y9564976D01*
Y9573306D01*
X13350826Y9577471D01*
X13346661D01*
X13342496Y9573306D01*
Y9569141D01*
Y9573306D01*
X13338332Y9577471D01*
X13334164D01*
X13330000Y9573306D01*
Y9564976D01*
X13334164Y9560810D01*
X13325835Y9585802D02*
Y9602463D01*
X13330000Y9627455D02*
Y9610794D01*
X13346661Y9627455D01*
X13350826D01*
X13354993Y9623290D01*
Y9614959D01*
X13350826Y9610794D01*
Y11066661D02*
X13354993Y11062496D01*
Y11054165D01*
X13350826Y11050000D01*
X13334164D01*
X13330000Y11054165D01*
Y11062496D01*
X13334164Y11066661D01*
X13350826Y11074992D02*
X13354993Y11079157D01*
Y11087488D01*
X13350826Y11091653D01*
X13346661D01*
X13342496Y11087488D01*
Y11083323D01*
Y11087488D01*
X13338332Y11091653D01*
X13334164D01*
X13330000Y11087488D01*
Y11079157D01*
X13334164Y11074992D01*
X13330000Y11099984D02*
Y11108314D01*
Y11104149D01*
X13354993D01*
X13350826Y11099984D01*
Y11120810D02*
X13354993Y11124975D01*
Y11133306D01*
X13350826Y11137471D01*
X13346661D01*
X13342496Y11133306D01*
Y11129141D01*
Y11133306D01*
X13338332Y11137471D01*
X13334164D01*
X13330000Y11133306D01*
Y11124975D01*
X13334164Y11120810D01*
X13325835Y11145802D02*
Y11162463D01*
X13330000Y11170794D02*
Y11179124D01*
Y11174959D01*
X13354993D01*
X13350826Y11170794D01*
X13620000Y10970000D02*
Y10994992D01*
X13607504D01*
X13603339Y10990826D01*
Y10982496D01*
X13607504Y10978331D01*
X13620000D01*
X13611668D02*
X13603339Y10970000D01*
X13595007Y10990826D02*
X13590843Y10994992D01*
X13582512D01*
X13578346Y10990826D01*
Y10986661D01*
X13582512Y10982496D01*
X13586678D01*
X13582512D01*
X13578346Y10978331D01*
Y10974165D01*
X13582512Y10970000D01*
X13590843D01*
X13595007Y10974165D01*
X13570016Y10970000D02*
X13561687D01*
X13565851D01*
Y10994992D01*
X13570016Y10990826D01*
X13549190Y10974165D02*
X13545024Y10970000D01*
X13536694D01*
X13532529Y10974165D01*
Y10990826D01*
X13536694Y10994992D01*
X13545024D01*
X13549190Y10990826D01*
Y10986661D01*
X13545024Y10982496D01*
X13532529D01*
X13524197Y10965835D02*
X13507536D01*
X13499207Y10970000D02*
X13490875D01*
X13495041D01*
Y10994992D01*
X13499207Y10990826D01*
X13620000Y11060000D02*
Y11084992D01*
X13607504D01*
X13603339Y11080826D01*
Y11072496D01*
X13607504Y11068331D01*
X13620000D01*
X13611668D02*
X13603339Y11060000D01*
X13595007Y11080826D02*
X13590843Y11084992D01*
X13582512D01*
X13578346Y11080826D01*
Y11076661D01*
X13582512Y11072496D01*
X13586678D01*
X13582512D01*
X13578346Y11068331D01*
Y11064165D01*
X13582512Y11060000D01*
X13590843D01*
X13595007Y11064165D01*
X13570016Y11060000D02*
X13561687D01*
X13565851D01*
Y11084992D01*
X13570016Y11080826D01*
X13549190D02*
X13545024Y11084992D01*
X13536694D01*
X13532529Y11080826D01*
Y11076661D01*
X13536694Y11072496D01*
X13532529Y11068331D01*
Y11064165D01*
X13536694Y11060000D01*
X13545024D01*
X13549190Y11064165D01*
Y11068331D01*
X13545024Y11072496D01*
X13549190Y11076661D01*
Y11080826D01*
X13545024Y11072496D02*
X13536694D01*
X13524197Y11055835D02*
X13507536D01*
X13499207Y11060000D02*
X13490875D01*
X13495041D01*
Y11084992D01*
X13499207Y11080826D01*
X13703339Y12040827D02*
X13707504Y12044992D01*
X13715836D01*
X13720000Y12040827D01*
Y12024165D01*
X13715836Y12020000D01*
X13707504D01*
X13703339Y12024165D01*
X13695007Y12040827D02*
X13690843Y12044992D01*
X13682512D01*
X13678346Y12040827D01*
Y12036661D01*
X13682512Y12032496D01*
X13686678D01*
X13682512D01*
X13678346Y12028331D01*
Y12024165D01*
X13682512Y12020000D01*
X13690843D01*
X13695007Y12024165D01*
X13653355Y12020000D02*
X13670016D01*
X13653355Y12036661D01*
Y12040827D01*
X13657520Y12044992D01*
X13665851D01*
X13670016Y12040827D01*
X13632529Y12020000D02*
Y12044992D01*
X13645026Y12032496D01*
X13628363D01*
X13620033Y12015835D02*
X13603372D01*
X13595041Y12020000D02*
X13586710D01*
X13590875D01*
Y12044992D01*
X13595041Y12040827D01*
X13539999Y9510000D02*
Y9534992D01*
X13527504D01*
X13523338Y9530827D01*
Y9522496D01*
X13527504Y9518331D01*
X13539999D01*
X13531670D02*
X13523338Y9510000D01*
X13515009Y9530827D02*
X13510843Y9534992D01*
X13502512D01*
X13498347Y9530827D01*
Y9526661D01*
X13502512Y9522496D01*
X13506677D01*
X13502512D01*
X13498347Y9518331D01*
Y9514165D01*
X13502512Y9510000D01*
X13510843D01*
X13515009Y9514165D01*
X13490016Y9510000D02*
X13481686D01*
X13485851D01*
Y9534992D01*
X13490016Y9530827D01*
X13452528Y9534992D02*
X13469189D01*
Y9522496D01*
X13460860Y9526661D01*
X13456694D01*
X13452528Y9522496D01*
Y9514165D01*
X13456694Y9510000D01*
X13465024D01*
X13469189Y9514165D01*
X13444199Y9505835D02*
X13427538D01*
X13402545Y9510000D02*
X13419206D01*
X13402545Y9526661D01*
Y9530827D01*
X13406709Y9534992D01*
X13415041D01*
X13419206Y9530827D01*
X13439999Y10930000D02*
Y10954992D01*
X13427504D01*
X13423338Y10950826D01*
Y10942496D01*
X13427504Y10938331D01*
X13439999D01*
X13431670D02*
X13423338Y10930000D01*
X13415009Y10950826D02*
X13410843Y10954992D01*
X13402512D01*
X13398347Y10950826D01*
Y10946661D01*
X13402512Y10942496D01*
X13406677D01*
X13402512D01*
X13398347Y10938331D01*
Y10934165D01*
X13402512Y10930000D01*
X13410843D01*
X13415009Y10934165D01*
X13390016Y10930000D02*
X13381686D01*
X13385851D01*
Y10954992D01*
X13390016Y10950826D01*
X13352528Y10954992D02*
X13369189D01*
Y10942496D01*
X13360860Y10946661D01*
X13356694D01*
X13352528Y10942496D01*
Y10934165D01*
X13356694Y10930000D01*
X13365025D01*
X13369189Y10934165D01*
X13344199Y10925835D02*
X13327538D01*
X13319206Y10930000D02*
X13310876D01*
X13315041D01*
Y10954992D01*
X13319206Y10950826D01*
X12610000Y9560000D02*
X12634992D01*
Y9572496D01*
X12630826Y9576661D01*
X12622496D01*
X12618331Y9572496D01*
Y9560000D01*
Y9568331D02*
X12610000Y9576661D01*
X12630826Y9584992D02*
X12634992Y9589157D01*
Y9597488D01*
X12630826Y9601653D01*
X12626661D01*
X12622496Y9597488D01*
Y9593322D01*
Y9597488D01*
X12618331Y9601653D01*
X12614165D01*
X12610000Y9597488D01*
Y9589157D01*
X12614165Y9584992D01*
X12610000Y9609984D02*
Y9618314D01*
Y9614149D01*
X12634992D01*
X12630826Y9609984D01*
X12610000Y9630810D02*
Y9639141D01*
Y9634975D01*
X12634992D01*
X12630826Y9630810D01*
X12605835Y9651637D02*
Y9668298D01*
X12610000Y9693289D02*
Y9676628D01*
X12626661Y9693289D01*
X12630826D01*
X12634992Y9689124D01*
Y9680794D01*
X12630826Y9676628D01*
X12610000Y10980000D02*
X12634992D01*
Y10992496D01*
X12630826Y10996661D01*
X12622496D01*
X12618331Y10992496D01*
Y10980000D01*
Y10988331D02*
X12610000Y10996661D01*
X12630826Y11004992D02*
X12634992Y11009157D01*
Y11017488D01*
X12630826Y11021653D01*
X12626661D01*
X12622496Y11017488D01*
Y11013322D01*
Y11017488D01*
X12618331Y11021653D01*
X12614165D01*
X12610000Y11017488D01*
Y11009157D01*
X12614165Y11004992D01*
X12610000Y11029984D02*
Y11038314D01*
Y11034149D01*
X12634992D01*
X12630826Y11029984D01*
X12610000Y11050810D02*
Y11059141D01*
Y11054975D01*
X12634992D01*
X12630826Y11050810D01*
X12605835Y11071636D02*
Y11088298D01*
X12610000Y11096628D02*
Y11104959D01*
Y11100794D01*
X12634992D01*
X12630826Y11096628D01*
X12690000Y9240000D02*
X12714992D01*
Y9252496D01*
X12710826Y9256661D01*
X12702496D01*
X12698331Y9252496D01*
Y9240000D01*
Y9248331D02*
X12690000Y9256661D01*
X12710826Y9264992D02*
X12714992Y9269157D01*
Y9277488D01*
X12710826Y9281653D01*
X12706661D01*
X12702496Y9277488D01*
Y9273323D01*
Y9277488D01*
X12698331Y9281653D01*
X12694165D01*
X12690000Y9277488D01*
Y9269157D01*
X12694165Y9264992D01*
X12690000Y9289984D02*
Y9298314D01*
Y9294149D01*
X12714992D01*
X12710826Y9289984D01*
Y9310810D02*
X12714992Y9314976D01*
Y9323306D01*
X12710826Y9327471D01*
X12706661D01*
X12702496Y9323306D01*
Y9319141D01*
Y9323306D01*
X12698331Y9327471D01*
X12694165D01*
X12690000Y9323306D01*
Y9314976D01*
X12694165Y9310810D01*
X12685835Y9335802D02*
Y9352463D01*
X12690000Y9377455D02*
Y9360794D01*
X12706661Y9377455D01*
X12710826D01*
X12714992Y9373290D01*
Y9364959D01*
X12710826Y9360794D01*
X12750000Y10790000D02*
X12774992D01*
Y10802496D01*
X12770826Y10806661D01*
X12762496D01*
X12758331Y10802496D01*
Y10790000D01*
Y10798331D02*
X12750000Y10806661D01*
X12770826Y10814992D02*
X12774992Y10819157D01*
Y10827488D01*
X12770826Y10831653D01*
X12766661D01*
X12762496Y10827488D01*
Y10823323D01*
Y10827488D01*
X12758331Y10831653D01*
X12754165D01*
X12750000Y10827488D01*
Y10819157D01*
X12754165Y10814992D01*
X12750000Y10839984D02*
Y10848314D01*
Y10844149D01*
X12774992D01*
X12770826Y10839984D01*
Y10860810D02*
X12774992Y10864975D01*
Y10873306D01*
X12770826Y10877471D01*
X12766661D01*
X12762496Y10873306D01*
Y10869141D01*
Y10873306D01*
X12758331Y10877471D01*
X12754165D01*
X12750000Y10873306D01*
Y10864975D01*
X12754165Y10860810D01*
X12745835Y10885802D02*
Y10902463D01*
X12750000Y10910794D02*
Y10919124D01*
Y10914959D01*
X12774992D01*
X12770826Y10910794D01*
X13380000Y9320000D02*
Y9344992D01*
X13367503D01*
X13363339Y9340826D01*
Y9332496D01*
X13367503Y9328331D01*
X13380000D01*
X13371669D02*
X13363339Y9320000D01*
X13355008Y9340826D02*
X13350842Y9344992D01*
X13342513D01*
X13338347Y9340826D01*
Y9336661D01*
X13342513Y9332496D01*
X13346677D01*
X13342513D01*
X13338347Y9328331D01*
Y9324165D01*
X13342513Y9320000D01*
X13350842D01*
X13355008Y9324165D01*
X13330016Y9320000D02*
X13321686D01*
X13325851D01*
Y9344992D01*
X13330016Y9340826D01*
X13309190D02*
X13305025Y9344992D01*
X13296693D01*
X13292529Y9340826D01*
Y9324165D01*
X13296693Y9320000D01*
X13305025D01*
X13309190Y9324165D01*
Y9340826D01*
X13284198Y9315835D02*
X13267537D01*
X13242545Y9320000D02*
X13259206D01*
X13242545Y9336661D01*
Y9340826D01*
X13246710Y9344992D01*
X13255042D01*
X13259206Y9340826D01*
X13420000Y10750000D02*
X13444992D01*
Y10762496D01*
X13440826Y10766661D01*
X13432497D01*
X13428331Y10762496D01*
Y10750000D01*
Y10758331D02*
X13420000Y10766661D01*
X13440826Y10774992D02*
X13444992Y10779157D01*
Y10787488D01*
X13440826Y10791653D01*
X13436661D01*
X13432497Y10787488D01*
Y10783323D01*
Y10787488D01*
X13428331Y10791653D01*
X13424165D01*
X13420000Y10787488D01*
Y10779157D01*
X13424165Y10774992D01*
X13420000Y10799984D02*
Y10808314D01*
Y10804149D01*
X13444992D01*
X13440826Y10799984D01*
Y10820810D02*
X13444992Y10824976D01*
Y10833306D01*
X13440826Y10837471D01*
X13424165D01*
X13420000Y10833306D01*
Y10824976D01*
X13424165Y10820810D01*
X13440826D01*
X13415836Y10845802D02*
Y10862463D01*
X13420000Y10870794D02*
Y10879125D01*
Y10874959D01*
X13444992D01*
X13440826Y10870794D01*
X13380000Y9220000D02*
Y9244992D01*
X13367503D01*
X13363339Y9240827D01*
Y9232496D01*
X13367503Y9228331D01*
X13380000D01*
X13371669D02*
X13363339Y9220000D01*
X13355008Y9240827D02*
X13350842Y9244992D01*
X13342513D01*
X13338347Y9240827D01*
Y9236661D01*
X13342513Y9232496D01*
X13346677D01*
X13342513D01*
X13338347Y9228331D01*
Y9224165D01*
X13342513Y9220000D01*
X13350842D01*
X13355008Y9224165D01*
X13330016Y9240827D02*
X13325851Y9244992D01*
X13317520D01*
X13313354Y9240827D01*
Y9224165D01*
X13317520Y9220000D01*
X13325851D01*
X13330016Y9224165D01*
Y9240827D01*
X13305025Y9224165D02*
X13300859Y9220000D01*
X13292528D01*
X13288364Y9224165D01*
Y9240827D01*
X13292528Y9244992D01*
X13300859D01*
X13305025Y9240827D01*
Y9236661D01*
X13300859Y9232496D01*
X13288364D01*
X13280032Y9215835D02*
X13263371D01*
X13238380Y9220000D02*
X13255042D01*
X13238380Y9236661D01*
Y9240827D01*
X13242545Y9244992D01*
X13250874D01*
X13255042Y9240827D01*
X13320000Y10750000D02*
X13344992D01*
Y10762496D01*
X13340826Y10766661D01*
X13332497D01*
X13328331Y10762496D01*
Y10750000D01*
Y10758331D02*
X13320000Y10766661D01*
X13340826Y10774992D02*
X13344992Y10779157D01*
Y10787488D01*
X13340826Y10791653D01*
X13336661D01*
X13332497Y10787488D01*
Y10783323D01*
Y10787488D01*
X13328331Y10791653D01*
X13324165D01*
X13320000Y10787488D01*
Y10779157D01*
X13324165Y10774992D01*
X13340826Y10799984D02*
X13344992Y10804149D01*
Y10812480D01*
X13340826Y10816645D01*
X13324165D01*
X13320000Y10812480D01*
Y10804149D01*
X13324165Y10799984D01*
X13340826D01*
X13324165Y10824976D02*
X13320000Y10829141D01*
Y10837472D01*
X13324165Y10841637D01*
X13340826D01*
X13344992Y10837472D01*
Y10829141D01*
X13340826Y10824976D01*
X13336661D01*
X13332497Y10829141D01*
Y10841637D01*
X13315836Y10849967D02*
Y10866629D01*
X13320000Y10874959D02*
Y10883290D01*
Y10879125D01*
X13344992D01*
X13340826Y10874959D01*
X13343340Y11890826D02*
X13347504Y11894992D01*
X13355835D01*
X13360001Y11890826D01*
Y11874165D01*
X13355835Y11870000D01*
X13347504D01*
X13343340Y11874165D01*
X13335008Y11890826D02*
X13330843Y11894992D01*
X13322511D01*
X13318347Y11890826D01*
Y11886661D01*
X13322511Y11882496D01*
X13326677D01*
X13322511D01*
X13318347Y11878331D01*
Y11874165D01*
X13322511Y11870000D01*
X13330843D01*
X13335008Y11874165D01*
X13293355Y11870000D02*
X13310016D01*
X13293355Y11886661D01*
Y11890826D01*
X13297520Y11894992D01*
X13305852D01*
X13310016Y11890826D01*
X13285023Y11870000D02*
X13276694D01*
X13280859D01*
Y11894992D01*
X13285023Y11890826D01*
X13264198Y11865835D02*
X13247537D01*
X13239206Y11870000D02*
X13230875D01*
X13235040D01*
Y11894992D01*
X13239206Y11890826D01*
X12803339Y11830826D02*
X12807504Y11834992D01*
X12815836D01*
X12820000Y11830826D01*
Y11814165D01*
X12815836Y11810000D01*
X12807504D01*
X12803339Y11814165D01*
X12795008Y11830826D02*
X12790843Y11834992D01*
X12782512D01*
X12778347Y11830826D01*
Y11826661D01*
X12782512Y11822496D01*
X12786677D01*
X12782512D01*
X12778347Y11818331D01*
Y11814165D01*
X12782512Y11810000D01*
X12790843D01*
X12795008Y11814165D01*
X12770016Y11810000D02*
X12761686D01*
X12765851D01*
Y11834992D01*
X12770016Y11830826D01*
X12749190Y11834992D02*
X12732529D01*
Y11830826D01*
X12749190Y11814165D01*
Y11810000D01*
X12724198Y11805835D02*
X12707537D01*
X12699206Y11810000D02*
X12690876D01*
X12695041D01*
Y11834992D01*
X12699206Y11830826D01*
X13170827Y10516661D02*
X13174992Y10512496D01*
Y10504165D01*
X13170827Y10500000D01*
X13154166D01*
X13150000Y10504165D01*
Y10512496D01*
X13154166Y10516661D01*
X13170827Y10524992D02*
X13174992Y10529157D01*
Y10537488D01*
X13170827Y10541653D01*
X13166661D01*
X13162495Y10537488D01*
Y10533323D01*
Y10537488D01*
X13158331Y10541653D01*
X13154166D01*
X13150000Y10537488D01*
Y10529157D01*
X13154166Y10524992D01*
X13150000Y10549984D02*
Y10558314D01*
Y10554149D01*
X13174992D01*
X13170827Y10549984D01*
Y10570810D02*
X13174992Y10574976D01*
Y10583306D01*
X13170827Y10587471D01*
X13166661D01*
X13162495Y10583306D01*
X13158331Y10587471D01*
X13154166D01*
X13150000Y10583306D01*
Y10574976D01*
X13154166Y10570810D01*
X13158331D01*
X13162495Y10574976D01*
X13166661Y10570810D01*
X13170827D01*
X13162495Y10574976D02*
Y10583306D01*
X13145834Y10595802D02*
Y10612463D01*
X13150000Y10620794D02*
Y10629125D01*
Y10624959D01*
X13174992D01*
X13170827Y10620794D01*
X12873338Y9810826D02*
X12877504Y9814992D01*
X12885835D01*
X12889999Y9810826D01*
Y9794165D01*
X12885835Y9790000D01*
X12877504D01*
X12873338Y9794165D01*
X12865009Y9810826D02*
X12860843Y9814992D01*
X12852512D01*
X12848347Y9810826D01*
Y9806661D01*
X12852512Y9802496D01*
X12856677D01*
X12852512D01*
X12848347Y9798331D01*
Y9794165D01*
X12852512Y9790000D01*
X12860843D01*
X12865009Y9794165D01*
X12840016Y9790000D02*
X12831686D01*
X12835851D01*
Y9814992D01*
X12840016Y9810826D01*
X12802528Y9814992D02*
X12819189D01*
Y9802496D01*
X12810860Y9806661D01*
X12806694D01*
X12802528Y9802496D01*
Y9794165D01*
X12806694Y9790000D01*
X12815024D01*
X12819189Y9794165D01*
X12794198Y9785835D02*
X12777537D01*
X12752545Y9790000D02*
X12769206D01*
X12752545Y9806661D01*
Y9810826D01*
X12756710Y9814992D01*
X12765041D01*
X12769206Y9810826D01*
X13013339Y11360826D02*
X13017503Y11364992D01*
X13025835D01*
X13030000Y11360826D01*
Y11344165D01*
X13025835Y11340000D01*
X13017503D01*
X13013339Y11344165D01*
X13005008Y11360826D02*
X13000842Y11364992D01*
X12992513D01*
X12988347Y11360826D01*
Y11356661D01*
X12992513Y11352496D01*
X12996678D01*
X12992513D01*
X12988347Y11348331D01*
Y11344165D01*
X12992513Y11340000D01*
X13000842D01*
X13005008Y11344165D01*
X12980016Y11340000D02*
X12971686D01*
X12975851D01*
Y11364992D01*
X12980016Y11360826D01*
X12942529Y11364992D02*
X12959190D01*
Y11352496D01*
X12950859Y11356661D01*
X12946693D01*
X12942529Y11352496D01*
Y11344165D01*
X12946693Y11340000D01*
X12955025D01*
X12959190Y11344165D01*
X12934198Y11335835D02*
X12917537D01*
X12909206Y11340000D02*
X12900876D01*
X12905042D01*
Y11364992D01*
X12909206Y11360826D01*
X13113339Y9330826D02*
X13117503Y9334992D01*
X13125835D01*
X13130000Y9330826D01*
Y9314165D01*
X13125835Y9310000D01*
X13117503D01*
X13113339Y9314165D01*
X13105008Y9330826D02*
X13100842Y9334992D01*
X13092513D01*
X13088347Y9330826D01*
Y9326661D01*
X13092513Y9322496D01*
X13096677D01*
X13092513D01*
X13088347Y9318331D01*
Y9314165D01*
X13092513Y9310000D01*
X13100842D01*
X13105008Y9314165D01*
X13080016Y9310000D02*
X13071686D01*
X13075851D01*
Y9334992D01*
X13080016Y9330826D01*
X13042529Y9334992D02*
X13050859Y9330826D01*
X13059190Y9322496D01*
Y9314165D01*
X13055025Y9310000D01*
X13046693D01*
X13042529Y9314165D01*
Y9318331D01*
X13046693Y9322496D01*
X13059190D01*
X13034198Y9305835D02*
X13017537D01*
X12992545Y9310000D02*
X13009206D01*
X12992545Y9326661D01*
Y9330826D01*
X12996710Y9334992D01*
X13005042D01*
X13009206Y9330826D01*
X13143340Y10890827D02*
X13147504Y10894992D01*
X13155833D01*
X13160001Y10890827D01*
Y10874165D01*
X13155833Y10870000D01*
X13147504D01*
X13143340Y10874165D01*
X13135008Y10890827D02*
X13130843Y10894992D01*
X13122511D01*
X13118347Y10890827D01*
Y10886661D01*
X13122511Y10882496D01*
X13126677D01*
X13122511D01*
X13118347Y10878331D01*
Y10874165D01*
X13122511Y10870000D01*
X13130843D01*
X13135008Y10874165D01*
X13110016Y10870000D02*
X13101686D01*
X13105852D01*
Y10894992D01*
X13110016Y10890827D01*
X13072530Y10894992D02*
X13080859Y10890827D01*
X13089191Y10882496D01*
Y10874165D01*
X13085023Y10870000D01*
X13076694D01*
X13072530Y10874165D01*
Y10878331D01*
X13076694Y10882496D01*
X13089191D01*
X13064198Y10865835D02*
X13047537D01*
X13039206Y10870000D02*
X13030875D01*
X13035040D01*
Y10894992D01*
X13039206Y10890827D01*
X14050826Y11896661D02*
X14054993Y11892496D01*
Y11884165D01*
X14050826Y11880000D01*
X14034164D01*
X14030000Y11884165D01*
Y11892496D01*
X14034164Y11896661D01*
X14050826Y11904992D02*
X14054993Y11909157D01*
Y11917488D01*
X14050826Y11921653D01*
X14046661D01*
X14042496Y11917488D01*
Y11913323D01*
Y11917488D01*
X14038332Y11921653D01*
X14034164D01*
X14030000Y11917488D01*
Y11909157D01*
X14034164Y11904992D01*
X14030000Y11946645D02*
Y11929984D01*
X14046661Y11946645D01*
X14050826D01*
X14054993Y11942480D01*
Y11934149D01*
X14050826Y11929984D01*
Y11954976D02*
X14054993Y11959141D01*
Y11967472D01*
X14050826Y11971637D01*
X14046661D01*
X14042496Y11967472D01*
Y11963306D01*
Y11967472D01*
X14038332Y11971637D01*
X14034164D01*
X14030000Y11967472D01*
Y11959141D01*
X14034164Y11954976D01*
X14025835Y11979967D02*
Y11996629D01*
X14030000Y12004959D02*
Y12013290D01*
Y12009125D01*
X14054993D01*
X14050826Y12004959D01*
X13703339Y12160827D02*
X13707504Y12164992D01*
X13715836D01*
X13720000Y12160827D01*
Y12144165D01*
X13715836Y12140000D01*
X13707504D01*
X13703339Y12144165D01*
X13695007Y12160827D02*
X13690843Y12164992D01*
X13682512D01*
X13678346Y12160827D01*
Y12156661D01*
X13682512Y12152496D01*
X13686678D01*
X13682512D01*
X13678346Y12148331D01*
Y12144165D01*
X13682512Y12140000D01*
X13690843D01*
X13695007Y12144165D01*
X13653355Y12140000D02*
X13670016D01*
X13653355Y12156661D01*
Y12160827D01*
X13657520Y12164992D01*
X13665851D01*
X13670016Y12160827D01*
X13628363Y12140000D02*
X13645026D01*
X13628363Y12156661D01*
Y12160827D01*
X13632529Y12164992D01*
X13640858D01*
X13645026Y12160827D01*
X13620033Y12135835D02*
X13603372D01*
X13595041Y12140000D02*
X13586710D01*
X13590875D01*
Y12164992D01*
X13595041Y12160827D01*
X13173338Y8580826D02*
X13177504Y8584992D01*
X13185835D01*
X13189999Y8580826D01*
Y8564165D01*
X13185835Y8560000D01*
X13177504D01*
X13173338Y8564165D01*
X13165009Y8580826D02*
X13160843Y8584992D01*
X13152512D01*
X13148347Y8580826D01*
Y8576661D01*
X13152512Y8572496D01*
X13156677D01*
X13152512D01*
X13148347Y8568331D01*
Y8564165D01*
X13152512Y8560000D01*
X13160843D01*
X13165009Y8564165D01*
X13123355Y8560000D02*
X13140016D01*
X13123355Y8576661D01*
Y8580826D01*
X13127521Y8584992D01*
X13135851D01*
X13140016Y8580826D01*
X13115025D02*
X13110860Y8584992D01*
X13102528D01*
X13098363Y8580826D01*
Y8564165D01*
X13102528Y8560000D01*
X13110860D01*
X13115025Y8564165D01*
Y8580826D01*
X13090033Y8555835D02*
X13073372D01*
X13048380Y8560000D02*
X13065041D01*
X13048380Y8576661D01*
Y8580826D01*
X13052545Y8584992D01*
X13060876D01*
X13065041Y8580826D01*
X13343340Y12010826D02*
X13347504Y12014992D01*
X13355835D01*
X13360001Y12010826D01*
Y11994165D01*
X13355835Y11990000D01*
X13347504D01*
X13343340Y11994165D01*
X13335008Y12010826D02*
X13330843Y12014992D01*
X13322511D01*
X13318347Y12010826D01*
Y12006661D01*
X13322511Y12002496D01*
X13326677D01*
X13322511D01*
X13318347Y11998331D01*
Y11994165D01*
X13322511Y11990000D01*
X13330843D01*
X13335008Y11994165D01*
X13293355Y11990000D02*
X13310016D01*
X13293355Y12006661D01*
Y12010826D01*
X13297520Y12014992D01*
X13305852D01*
X13310016Y12010826D01*
X13285023D02*
X13280859Y12014992D01*
X13272528D01*
X13268362Y12010826D01*
Y11994165D01*
X13272528Y11990000D01*
X13280859D01*
X13285023Y11994165D01*
Y12010826D01*
X13260033Y11985835D02*
X13243372D01*
X13235040Y11990000D02*
X13226711D01*
X13230875D01*
Y12014992D01*
X13235040Y12010826D01*
X13460001Y12154992D02*
Y12130000D01*
X13443340D01*
X13435008Y12150827D02*
X13430843Y12154992D01*
X13422511D01*
X13418347Y12150827D01*
Y12146661D01*
X13422511Y12142496D01*
X13426677D01*
X13422511D01*
X13418347Y12138331D01*
Y12134165D01*
X13422511Y12130000D01*
X13430843D01*
X13435008Y12134165D01*
X13410016Y12150827D02*
X13405852Y12154992D01*
X13397520D01*
X13393355Y12150827D01*
Y12134165D01*
X13397520Y12130000D01*
X13405852D01*
X13410016Y12134165D01*
Y12150827D01*
X13385025D02*
X13380859Y12154992D01*
X13372528D01*
X13368362Y12150827D01*
Y12134165D01*
X13372528Y12130000D01*
X13380859D01*
X13385025Y12134165D01*
Y12150827D01*
X13360033Y12125835D02*
X13343372D01*
X13335040Y12130000D02*
X13326711D01*
X13330876D01*
Y12154992D01*
X13335040Y12150827D01*
X12839999Y10800000D02*
X12864992D01*
Y10812496D01*
X12860826Y10816661D01*
X12852496D01*
X12848331Y10812496D01*
Y10800000D01*
Y10808331D02*
X12839999Y10816661D01*
X12860826Y10824992D02*
X12864992Y10829157D01*
Y10837488D01*
X12860826Y10841653D01*
X12856660D01*
X12852496Y10837488D01*
Y10833323D01*
Y10837488D01*
X12848331Y10841653D01*
X12844165D01*
X12839999Y10837488D01*
Y10829157D01*
X12844165Y10824992D01*
X12839999Y10849984D02*
Y10858314D01*
Y10854149D01*
X12864992D01*
X12860826Y10849984D01*
X12864992Y10887471D02*
X12860826Y10879141D01*
X12852496Y10870810D01*
X12844165D01*
X12839999Y10874975D01*
Y10883306D01*
X12844165Y10887471D01*
X12848331D01*
X12852496Y10883306D01*
Y10870810D01*
X12835835Y10895802D02*
Y10912463D01*
X12839999Y10920794D02*
Y10929124D01*
Y10924959D01*
X12864992D01*
X12860826Y10920794D01*
X12790000Y9240000D02*
X12814992D01*
Y9252496D01*
X12810828Y9256661D01*
X12802496D01*
X12798331Y9252496D01*
Y9240000D01*
Y9248331D02*
X12790000Y9256661D01*
X12810828Y9264992D02*
X12814992Y9269157D01*
Y9277488D01*
X12810828Y9281653D01*
X12806660D01*
X12802496Y9277488D01*
Y9273323D01*
Y9277488D01*
X12798331Y9281653D01*
X12794165D01*
X12790000Y9277488D01*
Y9269157D01*
X12794165Y9264992D01*
X12790000Y9289984D02*
Y9298314D01*
Y9294149D01*
X12814992D01*
X12810828Y9289984D01*
X12814992Y9327471D02*
X12810828Y9319141D01*
X12802496Y9310810D01*
X12794165D01*
X12790000Y9314976D01*
Y9323306D01*
X12794165Y9327471D01*
X12798331D01*
X12802496Y9323306D01*
Y9310810D01*
X12785835Y9335802D02*
Y9352463D01*
X12790000Y9377455D02*
Y9360794D01*
X12806660Y9377455D01*
X12810828D01*
X12814992Y9373290D01*
Y9364959D01*
X12810828Y9360794D01*
X12520000Y11410000D02*
X12544992D01*
Y11422496D01*
X12540826Y11426661D01*
X12532496D01*
X12528331Y11422496D01*
Y11410000D01*
Y11418331D02*
X12520000Y11426661D01*
X12540826Y11434992D02*
X12544992Y11439157D01*
Y11447488D01*
X12540826Y11451653D01*
X12536661D01*
X12532496Y11447488D01*
Y11443323D01*
Y11447488D01*
X12528331Y11451653D01*
X12524165D01*
X12520000Y11447488D01*
Y11439157D01*
X12524165Y11434992D01*
X12520000Y11459984D02*
Y11468314D01*
Y11464149D01*
X12544992D01*
X12540826Y11459984D01*
X12520000Y11497471D02*
Y11480810D01*
X12536661Y11497471D01*
X12540826D01*
X12544992Y11493306D01*
Y11484976D01*
X12540826Y11480810D01*
X12515835Y11505802D02*
Y11522463D01*
X12520000Y11530794D02*
Y11539124D01*
Y11534959D01*
X12544992D01*
X12540826Y11530794D01*
X12490000Y9270000D02*
X12514992D01*
Y9282496D01*
X12510826Y9286661D01*
X12502496D01*
X12498331Y9282496D01*
Y9270000D01*
Y9278331D02*
X12490000Y9286661D01*
X12510826Y9294992D02*
X12514992Y9299157D01*
Y9307488D01*
X12510826Y9311653D01*
X12506661D01*
X12502496Y9307488D01*
Y9303323D01*
Y9307488D01*
X12498331Y9311653D01*
X12494165D01*
X12490000Y9307488D01*
Y9299157D01*
X12494165Y9294992D01*
X12490000Y9319984D02*
Y9328314D01*
Y9324149D01*
X12514992D01*
X12510826Y9319984D01*
X12490000Y9357471D02*
Y9340810D01*
X12506661Y9357471D01*
X12510826D01*
X12514992Y9353306D01*
Y9344975D01*
X12510826Y9340810D01*
X12485835Y9365802D02*
Y9382463D01*
X12490000Y9407455D02*
Y9390794D01*
X12506661Y9407455D01*
X12510826D01*
X12514992Y9403290D01*
Y9394959D01*
X12510826Y9390794D01*
X13630000Y9690000D02*
Y9714992D01*
X13617503D01*
X13613339Y9710826D01*
Y9702496D01*
X13617503Y9698331D01*
X13630000D01*
X13621669D02*
X13613339Y9690000D01*
X13605008Y9710826D02*
X13600842Y9714992D01*
X13592513D01*
X13588347Y9710826D01*
Y9706661D01*
X13592513Y9702496D01*
X13596677D01*
X13592513D01*
X13588347Y9698331D01*
Y9694165D01*
X13592513Y9690000D01*
X13600842D01*
X13605008Y9694165D01*
X13580016Y9690000D02*
X13571686D01*
X13575851D01*
Y9714992D01*
X13580016Y9710826D01*
X13559190D02*
X13555025Y9714992D01*
X13546693D01*
X13542529Y9710826D01*
Y9706661D01*
X13546693Y9702496D01*
X13542529Y9698331D01*
Y9694165D01*
X13546693Y9690000D01*
X13555025D01*
X13559190Y9694165D01*
Y9698331D01*
X13555025Y9702496D01*
X13559190Y9706661D01*
Y9710826D01*
X13555025Y9702496D02*
X13546693D01*
X13534198Y9685835D02*
X13517537D01*
X13492545Y9690000D02*
X13509206D01*
X13492545Y9706661D01*
Y9710826D01*
X13496710Y9714992D01*
X13505042D01*
X13509206Y9710826D01*
X13630000Y9590000D02*
Y9614992D01*
X13617503D01*
X13613339Y9610827D01*
Y9602496D01*
X13617503Y9598331D01*
X13630000D01*
X13621669D02*
X13613339Y9590000D01*
X13605008Y9610827D02*
X13600842Y9614992D01*
X13592513D01*
X13588347Y9610827D01*
Y9606661D01*
X13592513Y9602496D01*
X13596677D01*
X13592513D01*
X13588347Y9598331D01*
Y9594165D01*
X13592513Y9590000D01*
X13600842D01*
X13605008Y9594165D01*
X13580016Y9590000D02*
X13571686D01*
X13575851D01*
Y9614992D01*
X13580016Y9610827D01*
X13559190Y9594165D02*
X13555025Y9590000D01*
X13546693D01*
X13542529Y9594165D01*
Y9610827D01*
X13546693Y9614992D01*
X13555025D01*
X13559190Y9610827D01*
Y9606661D01*
X13555025Y9602496D01*
X13542529D01*
X13534198Y9585835D02*
X13517537D01*
X13492545Y9590000D02*
X13509206D01*
X13492545Y9606661D01*
Y9610827D01*
X13496710Y9614992D01*
X13505042D01*
X13509206Y9610827D01*
X13613339Y11610826D02*
X13617503Y11614992D01*
X13625835D01*
X13630000Y11610826D01*
Y11594165D01*
X13625835Y11590000D01*
X13617503D01*
X13613339Y11594165D01*
X13605008Y11610826D02*
X13600842Y11614992D01*
X13592513D01*
X13588347Y11610826D01*
Y11606661D01*
X13592513Y11602496D01*
X13596677D01*
X13592513D01*
X13588347Y11598331D01*
Y11594165D01*
X13592513Y11590000D01*
X13600842D01*
X13605008Y11594165D01*
X13563354Y11590000D02*
X13580016D01*
X13563354Y11606661D01*
Y11610826D01*
X13567520Y11614992D01*
X13575851D01*
X13580016Y11610826D01*
X13538364Y11614992D02*
X13555025D01*
Y11602496D01*
X13546693Y11606661D01*
X13542528D01*
X13538364Y11602496D01*
Y11594165D01*
X13542528Y11590000D01*
X13550859D01*
X13555025Y11594165D01*
X13530032Y11585835D02*
X13513371D01*
X13505042Y11590000D02*
X13496710D01*
X13500874D01*
Y11614992D01*
X13505042Y11610826D01*
X13820000Y11660000D02*
Y11684992D01*
X13807504D01*
X13803339Y11680827D01*
Y11672496D01*
X13807504Y11668331D01*
X13820000D01*
X13811668D02*
X13803339Y11660000D01*
X13795007Y11680827D02*
X13790843Y11684992D01*
X13782512D01*
X13778346Y11680827D01*
Y11676661D01*
X13782512Y11672496D01*
X13786678D01*
X13782512D01*
X13778346Y11668331D01*
Y11664165D01*
X13782512Y11660000D01*
X13790843D01*
X13795007Y11664165D01*
X13753355Y11660000D02*
X13770016D01*
X13753355Y11676661D01*
Y11680827D01*
X13757520Y11684992D01*
X13765851D01*
X13770016Y11680827D01*
X13745026Y11660000D02*
X13736694D01*
X13740858D01*
Y11684992D01*
X13745026Y11680827D01*
X13724197Y11655835D02*
X13707536D01*
X13699207Y11660000D02*
X13690875D01*
X13695041D01*
Y11684992D01*
X13699207Y11680827D01*
X13980000Y11770000D02*
Y11794992D01*
X13967503D01*
X13963339Y11790827D01*
Y11782496D01*
X13967503Y11778331D01*
X13980000D01*
X13971669D02*
X13963339Y11770000D01*
X13955008Y11790827D02*
X13950842Y11794992D01*
X13942513D01*
X13938347Y11790827D01*
Y11786661D01*
X13942513Y11782496D01*
X13946677D01*
X13942513D01*
X13938347Y11778331D01*
Y11774165D01*
X13942513Y11770000D01*
X13950842D01*
X13955008Y11774165D01*
X13913354Y11770000D02*
X13930016D01*
X13913354Y11786661D01*
Y11790827D01*
X13917520Y11794992D01*
X13925851D01*
X13930016Y11790827D01*
X13888364Y11770000D02*
X13905025D01*
X13888364Y11786661D01*
Y11790827D01*
X13892528Y11794992D01*
X13900859D01*
X13905025Y11790827D01*
X13880032Y11765835D02*
X13863371D01*
X13855042Y11770000D02*
X13846710D01*
X13850876D01*
Y11794992D01*
X13855042Y11790827D01*
X13330000Y11250000D02*
X13354993D01*
Y11262496D01*
X13350826Y11266661D01*
X13342496D01*
X13338332Y11262496D01*
Y11250000D01*
Y11258331D02*
X13330000Y11266661D01*
X13350826Y11274992D02*
X13354993Y11279157D01*
Y11287488D01*
X13350826Y11291653D01*
X13346661D01*
X13342496Y11287488D01*
Y11283323D01*
Y11287488D01*
X13338332Y11291653D01*
X13334164D01*
X13330000Y11287488D01*
Y11279157D01*
X13334164Y11274992D01*
X13330000Y11299984D02*
Y11308314D01*
Y11304149D01*
X13354993D01*
X13350826Y11299984D01*
X13330000Y11333306D02*
X13354993D01*
X13342496Y11320810D01*
Y11337471D01*
X13325835Y11345802D02*
Y11362463D01*
X13330000Y11370794D02*
Y11379125D01*
Y11374959D01*
X13354993D01*
X13350826Y11370794D01*
X13339999Y9700000D02*
X13364992D01*
Y9712496D01*
X13360826Y9716661D01*
X13352496D01*
X13348331Y9712496D01*
Y9700000D01*
Y9708331D02*
X13339999Y9716661D01*
X13360826Y9724992D02*
X13364992Y9729157D01*
Y9737488D01*
X13360826Y9741653D01*
X13356660D01*
X13352496Y9737488D01*
Y9733322D01*
Y9737488D01*
X13348331Y9741653D01*
X13344165D01*
X13339999Y9737488D01*
Y9729157D01*
X13344165Y9724992D01*
X13339999Y9749984D02*
Y9758314D01*
Y9754149D01*
X13364992D01*
X13360826Y9749984D01*
X13339999Y9783306D02*
X13364992D01*
X13352496Y9770810D01*
Y9787471D01*
X13335835Y9795802D02*
Y9812463D01*
X13339999Y9837455D02*
Y9820794D01*
X13356660Y9837455D01*
X13360826D01*
X13364992Y9833290D01*
Y9824959D01*
X13360826Y9820794D01*
X11740000Y10744992D02*
Y10720000D01*
X11723339D01*
X11702512D02*
Y10744992D01*
X11715008Y10732496D01*
X11698347D01*
X11690016Y10740826D02*
X11685851Y10744992D01*
X11677520D01*
X11673355Y10740826D01*
Y10724165D01*
X11677520Y10720000D01*
X11685851D01*
X11690016Y10724165D01*
Y10740826D01*
X11665024D02*
X11660859Y10744992D01*
X11652528D01*
X11648363Y10740826D01*
Y10736661D01*
X11652528Y10732496D01*
X11656694D01*
X11652528D01*
X11648363Y10728331D01*
Y10724165D01*
X11652528Y10720000D01*
X11660859D01*
X11665024Y10724165D01*
D148*
X8843322Y8526658D02*
X8849987Y8519994D01*
Y8506664D01*
X8843322Y8500000D01*
X8816664D01*
X8810000Y8506664D01*
Y8519994D01*
X8816664Y8526658D01*
X8810000Y8559981D02*
X8849987D01*
X8829994Y8539987D01*
Y8566645D01*
X8810000Y8606632D02*
Y8579974D01*
X8836658Y8606632D01*
X8843322D01*
X8849987Y8599968D01*
Y8586638D01*
X8843322Y8579974D01*
X8810000Y8619961D02*
Y8633290D01*
Y8626625D01*
X8849987D01*
X8843322Y8619961D01*
X11823342Y9743322D02*
X11830006Y9749987D01*
X11843335D01*
X11850000Y9743322D01*
Y9716664D01*
X11843335Y9710000D01*
X11830006D01*
X11823342Y9716664D01*
X11790019Y9710000D02*
Y9749987D01*
X11810013Y9729993D01*
X11783355D01*
X11770026Y9710000D02*
X11756697D01*
X11763362D01*
Y9749987D01*
X11770026Y9743322D01*
X11736703Y9716664D02*
X11730039Y9710000D01*
X11716710D01*
X11710045Y9716664D01*
Y9743322D01*
X11716710Y9749987D01*
X11730039D01*
X11736703Y9743322D01*
Y9736658D01*
X11730039Y9729993D01*
X11710045D01*
X11780000Y9899987D02*
Y9860000D01*
X11753342D01*
X11720019D02*
Y9899987D01*
X11740013Y9879994D01*
X11713355D01*
X11700026Y9893323D02*
X11693362Y9899987D01*
X11680033D01*
X11673368Y9893323D01*
Y9866665D01*
X11680033Y9860000D01*
X11693362D01*
X11700026Y9866665D01*
Y9893323D01*
X11633381Y9899987D02*
X11660039D01*
Y9879994D01*
X11646710Y9886658D01*
X11640046D01*
X11633381Y9879994D01*
Y9866665D01*
X11640046Y9860000D01*
X11653375D01*
X11660039Y9866665D01*
D149*
X11440000Y9929981D02*
X11400013D01*
X11420006D01*
Y9870000D01*
X11380019D02*
Y9929981D01*
X11350029D01*
X11340032Y9919984D01*
Y9899990D01*
X11350029Y9889994D01*
X11380019D01*
X11290049Y9870000D02*
Y9929981D01*
X11320039Y9899990D01*
X11280052D01*
X11260058Y9870000D02*
X11240065D01*
X11250062D01*
Y9929981D01*
X11260058Y9919984D01*
X11210075Y9870000D02*
X11190081D01*
X11200078D01*
Y9929981D01*
X11210075Y9919984D01*
X12350000Y11219981D02*
X12310013D01*
X12330006D01*
Y11160000D01*
X12290019D02*
Y11219981D01*
X12260029D01*
X12250032Y11209984D01*
Y11189990D01*
X12260029Y11179994D01*
X12290019D01*
X12200048Y11160000D02*
Y11219981D01*
X12230039Y11189990D01*
X12190052D01*
X12170058Y11160000D02*
X12150065D01*
X12160062D01*
Y11219981D01*
X12170058Y11209984D01*
X12120075D02*
X12110078Y11219981D01*
X12090084D01*
X12080088Y11209984D01*
Y11169997D01*
X12090084Y11160000D01*
X12110078D01*
X12120075Y11169997D01*
Y11209984D01*
X12559980Y10790000D02*
X12509997D01*
X12500000Y10799997D01*
Y10819990D01*
X12509997Y10829987D01*
X12559980D01*
X12549984Y10849981D02*
X12559980Y10859977D01*
Y10879971D01*
X12549984Y10889968D01*
X12539987D01*
X12529990Y10879971D01*
Y10869974D01*
Y10879971D01*
X12519994Y10889968D01*
X12509997D01*
X12500000Y10879971D01*
Y10859977D01*
X12509997Y10849981D01*
X12549984Y10909961D02*
X12559980Y10919958D01*
Y10939951D01*
X12549984Y10949948D01*
X12509997D01*
X12500000Y10939951D01*
Y10919958D01*
X12509997Y10909961D01*
X12549984D01*
X12559980Y11009929D02*
Y10969942D01*
X12529990D01*
X12539987Y10989935D01*
Y10999932D01*
X12529990Y11009929D01*
X12509997D01*
X12500000Y10999932D01*
Y10979938D01*
X12509997Y10969942D01*
X12490003Y11029922D02*
Y11069909D01*
X12500000Y11089903D02*
Y11109896D01*
Y11099900D01*
X12559980D01*
X12549984Y11089903D01*
X13070000Y8939981D02*
Y8889997D01*
X13060004Y8880000D01*
X13040010D01*
X13030013Y8889997D01*
Y8939981D01*
X13010019Y8929984D02*
X13000023Y8939981D01*
X12980029D01*
X12970032Y8929984D01*
Y8919987D01*
X12980029Y8909990D01*
X12990025D01*
X12980029D01*
X12970032Y8899994D01*
Y8889997D01*
X12980029Y8880000D01*
X13000023D01*
X13010019Y8889997D01*
X12950040Y8929984D02*
X12940042Y8939981D01*
X12920049D01*
X12910052Y8929984D01*
Y8889997D01*
X12920049Y8880000D01*
X12940042D01*
X12950040Y8889997D01*
Y8929984D01*
X12890057Y8939981D02*
X12850072D01*
Y8929984D01*
X12890057Y8889997D01*
Y8880000D01*
X12830078Y8870003D02*
X12790091D01*
X12730110Y8880000D02*
X12770097D01*
X12730110Y8919987D01*
Y8929984D01*
X12740107Y8939981D01*
X12760100D01*
X12770097Y8929984D01*
X13380000Y11519981D02*
Y11469997D01*
X13370003Y11460000D01*
X13350011D01*
X13340013Y11469997D01*
Y11519981D01*
X13320020Y11509984D02*
X13310023Y11519981D01*
X13290028D01*
X13280032Y11509984D01*
Y11499987D01*
X13290028Y11489990D01*
X13300026D01*
X13290028D01*
X13280032Y11479994D01*
Y11469997D01*
X13290028Y11460000D01*
X13310023D01*
X13320020Y11469997D01*
X13260039Y11509984D02*
X13250043Y11519981D01*
X13230048D01*
X13220052Y11509984D01*
Y11469997D01*
X13230048Y11460000D01*
X13250043D01*
X13260039Y11469997D01*
Y11509984D01*
X13200058Y11519981D02*
X13160071D01*
Y11509984D01*
X13200058Y11469997D01*
Y11460000D01*
X13140079Y11450003D02*
X13100092D01*
X13080096Y11460000D02*
X13060103D01*
X13070100D01*
Y11519981D01*
X13080096Y11509984D01*
X14070000Y9089981D02*
Y9039997D01*
X14060004Y9030000D01*
X14040010D01*
X14030013Y9039997D01*
Y9089981D01*
X14010019Y9079984D02*
X14000023Y9089981D01*
X13980029D01*
X13970033Y9079984D01*
Y9069987D01*
X13980029Y9059990D01*
X13990025D01*
X13980029D01*
X13970033Y9049994D01*
Y9039997D01*
X13980029Y9030000D01*
X14000023D01*
X14010019Y9039997D01*
X13950040Y9079984D02*
X13940042Y9089981D01*
X13920049D01*
X13910052Y9079984D01*
Y9039997D01*
X13920049Y9030000D01*
X13940042D01*
X13950040Y9039997D01*
Y9079984D01*
X13850072Y9089981D02*
X13870065Y9079984D01*
X13890057Y9059990D01*
Y9039997D01*
X13880061Y9030000D01*
X13860068D01*
X13850072Y9039997D01*
Y9049994D01*
X13860068Y9059990D01*
X13890057D01*
X13830078Y9020003D02*
X13790091D01*
X13730110Y9030000D02*
X13770097D01*
X13730110Y9069987D01*
Y9079984D01*
X13740108Y9089981D01*
X13760100D01*
X13770097Y9079984D01*
X13929980Y11870000D02*
X13879997D01*
X13870000Y11879997D01*
Y11899990D01*
X13879997Y11909987D01*
X13929980D01*
X13919984Y11929980D02*
X13929980Y11939977D01*
Y11959971D01*
X13919984Y11969967D01*
X13909987D01*
X13899989Y11959971D01*
Y11949974D01*
Y11959971D01*
X13889993Y11969967D01*
X13879997D01*
X13870000Y11959971D01*
Y11939977D01*
X13879997Y11929980D01*
X13919984Y11989961D02*
X13929980Y11999958D01*
Y12019951D01*
X13919984Y12029948D01*
X13879997D01*
X13870000Y12019951D01*
Y11999958D01*
X13879997Y11989961D01*
X13919984D01*
X13929980Y12089929D02*
X13919984Y12069935D01*
X13899989Y12049942D01*
X13879997D01*
X13870000Y12059938D01*
Y12079932D01*
X13879997Y12089929D01*
X13889993D01*
X13899989Y12079932D01*
Y12049942D01*
X13860004Y12109922D02*
Y12149909D01*
X13870000Y12169903D02*
Y12189896D01*
Y12179899D01*
X13929980D01*
X13919984Y12169903D01*
X11430000Y9829981D02*
Y9779997D01*
X11420003Y9770000D01*
X11400010D01*
X11390013Y9779997D01*
Y9829981D01*
X11340029Y9770000D02*
Y9829981D01*
X11370019Y9799990D01*
X11330032D01*
X11310039Y9819984D02*
X11300042Y9829981D01*
X11280049D01*
X11270052Y9819984D01*
Y9779997D01*
X11280049Y9770000D01*
X11300042D01*
X11310039Y9779997D01*
Y9819984D01*
X11210071Y9829981D02*
X11250058D01*
Y9799990D01*
X11230065Y9809987D01*
X11220068D01*
X11210071Y9799990D01*
Y9779997D01*
X11220068Y9770000D01*
X11240062D01*
X11250058Y9779997D01*
X13080000Y9099981D02*
X13040013D01*
X13060007D01*
Y9040000D01*
X13020020D02*
Y9099981D01*
X12990028D01*
X12980032Y9089984D01*
Y9069990D01*
X12990028Y9059994D01*
X13020020D01*
X12960039Y9089984D02*
X12950043Y9099981D01*
X12930049D01*
X12920052Y9089984D01*
Y9079987D01*
X12930049Y9069990D01*
X12940045D01*
X12930049D01*
X12920052Y9059994D01*
Y9049997D01*
X12930049Y9040000D01*
X12950043D01*
X12960039Y9049997D01*
X12900058Y9089984D02*
X12890062Y9099981D01*
X12870068D01*
X12860071Y9089984D01*
Y9049997D01*
X12870068Y9040000D01*
X12890062D01*
X12900058Y9049997D01*
Y9089984D01*
X12840079Y9099981D02*
X12800092D01*
Y9089984D01*
X12840079Y9049997D01*
Y9040000D01*
X12780097Y9030003D02*
X12740110D01*
X12680130Y9040000D02*
X12720117D01*
X12680130Y9079987D01*
Y9089984D01*
X12690126Y9099981D01*
X12710120D01*
X12720117Y9089984D01*
X14300000Y8599981D02*
X14260013D01*
X14280006D01*
Y8540000D01*
X14240019D02*
Y8599981D01*
X14210030D01*
X14200032Y8589984D01*
Y8569990D01*
X14210030Y8559994D01*
X14240019D01*
X14180038Y8589984D02*
X14170042Y8599981D01*
X14150047D01*
X14140051Y8589984D01*
Y8579987D01*
X14150047Y8569990D01*
X14160045D01*
X14150047D01*
X14140051Y8559994D01*
Y8549997D01*
X14150047Y8540000D01*
X14170042D01*
X14180038Y8549997D01*
X14120058Y8589984D02*
X14110062Y8599981D01*
X14090068D01*
X14080070Y8589984D01*
Y8549997D01*
X14090068Y8540000D01*
X14110062D01*
X14120058Y8549997D01*
Y8589984D01*
X14060078Y8549997D02*
X14050081Y8540000D01*
X14030087D01*
X14020091Y8549997D01*
Y8589984D01*
X14030087Y8599981D01*
X14050081D01*
X14060078Y8589984D01*
Y8579987D01*
X14050081Y8569990D01*
X14020091D01*
X14000098Y8530003D02*
X13960110D01*
X13900130Y8540000D02*
X13940115D01*
X13900130Y8579987D01*
Y8589984D01*
X13910126Y8599981D01*
X13930119D01*
X13940115Y8589984D01*
X14160001Y11479981D02*
X14120013D01*
X14140005D01*
Y11420000D01*
X14100018D02*
Y11479981D01*
X14070029D01*
X14060033Y11469984D01*
Y11449990D01*
X14070029Y11439994D01*
X14100018D01*
X14040039Y11469984D02*
X14030042Y11479981D01*
X14010048D01*
X14000052Y11469984D01*
Y11459987D01*
X14010048Y11449990D01*
X14020045D01*
X14010048D01*
X14000052Y11439994D01*
Y11429997D01*
X14010048Y11420000D01*
X14030042D01*
X14040039Y11429997D01*
X13980058Y11420000D02*
X13960065D01*
X13970061D01*
Y11479981D01*
X13980058Y11469984D01*
X13930075D02*
X13920078Y11479981D01*
X13900084D01*
X13890088Y11469984D01*
Y11429997D01*
X13900084Y11420000D01*
X13920078D01*
X13930075Y11429997D01*
Y11469984D01*
X13870094Y11410003D02*
X13830107D01*
X13810114Y11420000D02*
X13790120D01*
X13800117D01*
Y11479981D01*
X13810114Y11469984D01*
X13580000Y8409981D02*
X13540013D01*
X13560007D01*
Y8350000D01*
X13520020D02*
Y8409981D01*
X13490028D01*
X13480032Y8399984D01*
Y8379990D01*
X13490028Y8369994D01*
X13520020D01*
X13460039Y8399984D02*
X13450043Y8409981D01*
X13430049D01*
X13420052Y8399984D01*
Y8389987D01*
X13430049Y8379990D01*
X13440045D01*
X13430049D01*
X13420052Y8369994D01*
Y8359997D01*
X13430049Y8350000D01*
X13450043D01*
X13460039Y8359997D01*
X13400058Y8350000D02*
X13380064D01*
X13390062D01*
Y8409981D01*
X13400058Y8399984D01*
X13350075D02*
X13340079Y8409981D01*
X13320084D01*
X13310088Y8399984D01*
Y8359997D01*
X13320084Y8350000D01*
X13340079D01*
X13350075Y8359997D01*
Y8399984D01*
X13290094Y8340003D02*
X13250107D01*
X13190128Y8350000D02*
X13230113D01*
X13190128Y8389987D01*
Y8399984D01*
X13200124Y8409981D01*
X13220117D01*
X13230113Y8399984D01*
X12880000Y8789981D02*
X12840013D01*
X12860007D01*
Y8730000D01*
X12820020D02*
Y8789981D01*
X12790029D01*
X12780032Y8779984D01*
Y8759990D01*
X12790029Y8749994D01*
X12820020D01*
X12730048Y8730000D02*
Y8789981D01*
X12760039Y8759990D01*
X12720052D01*
X12700058Y8779984D02*
X12690061Y8789981D01*
X12670068D01*
X12660071Y8779984D01*
Y8739997D01*
X12670068Y8730000D01*
X12690061D01*
X12700058Y8739997D01*
Y8779984D01*
X12640078D02*
X12630081Y8789981D01*
X12610087D01*
X12600091Y8779984D01*
Y8769987D01*
X12610087Y8759990D01*
X12600091Y8749994D01*
Y8739997D01*
X12610087Y8730000D01*
X12630081D01*
X12640078Y8739997D01*
Y8749994D01*
X12630081Y8759990D01*
X12640078Y8769987D01*
Y8779984D01*
X12630081Y8759990D02*
X12610087D01*
X12500000Y10689981D02*
X12460013D01*
X12480006D01*
Y10630000D01*
X12440019D02*
Y10689981D01*
X12410029D01*
X12400032Y10679984D01*
Y10659990D01*
X12410029Y10649994D01*
X12440019D01*
X12350048Y10630000D02*
Y10689981D01*
X12380039Y10659990D01*
X12340052D01*
X12320058Y10679984D02*
X12310061Y10689981D01*
X12290068D01*
X12280071Y10679984D01*
Y10639997D01*
X12290068Y10630000D01*
X12310061D01*
X12320058Y10639997D01*
Y10679984D01*
X12260078Y10639997D02*
X12250081Y10630000D01*
X12230087D01*
X12220091Y10639997D01*
Y10679984D01*
X12230087Y10689981D01*
X12250081D01*
X12260078Y10679984D01*
Y10669987D01*
X12250081Y10659990D01*
X12220091D01*
D150*
X11474992Y10890000D02*
X11450000D01*
Y10906661D01*
Y10927488D02*
X11474992D01*
X11462496Y10914992D01*
Y10931653D01*
X11470826Y10939984D02*
X11474992Y10944149D01*
Y10952480D01*
X11470826Y10956645D01*
X11454165D01*
X11450000Y10952480D01*
Y10944149D01*
X11454165Y10939984D01*
X11470826D01*
X11474992Y10981637D02*
X11470826Y10973306D01*
X11462496Y10964976D01*
X11454165D01*
X11450000Y10969141D01*
Y10977472D01*
X11454165Y10981637D01*
X11458331D01*
X11462496Y10977472D01*
Y10964976D01*
X12530000Y8760000D02*
X12554992D01*
Y8772496D01*
X12550827Y8776661D01*
X12542496D01*
X12538331Y8772496D01*
Y8760000D01*
Y8768331D02*
X12530000Y8776661D01*
Y8797488D02*
X12554992D01*
X12542496Y8784992D01*
Y8801653D01*
X12530000Y8809984D02*
Y8818314D01*
Y8814149D01*
X12554992D01*
X12550827Y8809984D01*
X12530000Y8847471D02*
Y8830810D01*
X12546661Y8847471D01*
X12550827D01*
X12554992Y8843306D01*
Y8834975D01*
X12550827Y8830810D01*
X12410000Y8570000D02*
X12434992D01*
Y8582496D01*
X12430827Y8586661D01*
X12422496D01*
X12418331Y8582496D01*
Y8570000D01*
Y8578331D02*
X12410000Y8586661D01*
Y8607488D02*
X12434992D01*
X12422496Y8594992D01*
Y8611653D01*
X12410000Y8619984D02*
Y8628314D01*
Y8624149D01*
X12434992D01*
X12430827Y8619984D01*
X12410000Y8640810D02*
Y8649141D01*
Y8644975D01*
X12434992D01*
X12430827Y8640810D01*
X11930827Y8716661D02*
X11934992Y8712496D01*
Y8704165D01*
X11930827Y8700000D01*
X11914165D01*
X11910000Y8704165D01*
Y8712496D01*
X11914165Y8716661D01*
X11910000Y8737488D02*
X11934992D01*
X11922496Y8724992D01*
Y8741653D01*
X11910000Y8766645D02*
Y8749984D01*
X11926661Y8766645D01*
X11930827D01*
X11934992Y8762480D01*
Y8754149D01*
X11930827Y8749984D01*
Y8774976D02*
X11934992Y8779141D01*
Y8787472D01*
X11930827Y8791637D01*
X11926661D01*
X11922496Y8787472D01*
Y8783306D01*
Y8787472D01*
X11918331Y8791637D01*
X11914165D01*
X11910000Y8787472D01*
Y8779141D01*
X11914165Y8774976D01*
X12043339Y9000827D02*
X12047504Y9004992D01*
X12055835D01*
X12060000Y9000827D01*
Y8984165D01*
X12055835Y8980000D01*
X12047504D01*
X12043339Y8984165D01*
X12022512Y8980000D02*
Y9004992D01*
X12035008Y8992496D01*
X12018347D01*
X12010016Y8980000D02*
X12001686D01*
X12005851D01*
Y9004992D01*
X12010016Y9000827D01*
X11989190D02*
X11985025Y9004992D01*
X11976694D01*
X11972529Y9000827D01*
Y8996661D01*
X11976694Y8992496D01*
X11972529Y8988331D01*
Y8984165D01*
X11976694Y8980000D01*
X11985025D01*
X11989190Y8984165D01*
Y8988331D01*
X11985025Y8992496D01*
X11989190Y8996661D01*
Y9000827D01*
X11985025Y8992496D02*
X11976694D01*
X13333339Y8800826D02*
X13337505Y8804992D01*
X13345834D01*
X13350000Y8800826D01*
Y8784165D01*
X13345834Y8780000D01*
X13337505D01*
X13333339Y8784165D01*
X13325008Y8800826D02*
X13320844Y8804992D01*
X13312512D01*
X13308347Y8800826D01*
Y8796661D01*
X13312512Y8792496D01*
X13316676D01*
X13312512D01*
X13308347Y8788331D01*
Y8784165D01*
X13312512Y8780000D01*
X13320844D01*
X13325008Y8784165D01*
X13283356Y8780000D02*
X13300015D01*
X13283356Y8796661D01*
Y8800826D01*
X13287520Y8804992D01*
X13295851D01*
X13300015Y8800826D01*
X13275024Y8780000D02*
X13266695D01*
X13270859D01*
Y8804992D01*
X13275024Y8800826D01*
X13254198Y8775835D02*
X13237537D01*
X13212544Y8780000D02*
X13229205D01*
X13212544Y8796661D01*
Y8800826D01*
X13216710Y8804992D01*
X13225041D01*
X13229205Y8800826D01*
X12820827Y8366661D02*
X12824992Y8362496D01*
Y8354165D01*
X12820827Y8350000D01*
X12804166D01*
X12800000Y8354165D01*
Y8362496D01*
X12804166Y8366661D01*
X12820827Y8374992D02*
X12824992Y8379157D01*
Y8387488D01*
X12820827Y8391653D01*
X12816661D01*
X12812495Y8387488D01*
Y8383323D01*
Y8387488D01*
X12808331Y8391653D01*
X12804166D01*
X12800000Y8387488D01*
Y8379157D01*
X12804166Y8374992D01*
X12800000Y8399984D02*
Y8408314D01*
Y8404149D01*
X12824992D01*
X12820827Y8399984D01*
X12824992Y8420810D02*
Y8437471D01*
X12820827D01*
X12804166Y8420810D01*
X12800000D01*
X12795835Y8445802D02*
Y8462463D01*
X12800000Y8487455D02*
Y8470794D01*
X12816661Y8487455D01*
X12820827D01*
X12824992Y8483290D01*
Y8474959D01*
X12820827Y8470794D01*
X14090826Y8666661D02*
X14094992Y8662496D01*
Y8654165D01*
X14090826Y8650000D01*
X14074165D01*
X14070000Y8654165D01*
Y8662496D01*
X14074165Y8666661D01*
X14090826Y8674992D02*
X14094992Y8679157D01*
Y8687488D01*
X14090826Y8691653D01*
X14086661D01*
X14082497Y8687488D01*
Y8683322D01*
Y8687488D01*
X14078331Y8691653D01*
X14074165D01*
X14070000Y8687488D01*
Y8679157D01*
X14074165Y8674992D01*
X14070000Y8716645D02*
Y8699984D01*
X14086661Y8716645D01*
X14090826D01*
X14094992Y8712480D01*
Y8704149D01*
X14090826Y8699984D01*
Y8724975D02*
X14094992Y8729141D01*
Y8737471D01*
X14090826Y8741637D01*
X14086661D01*
X14082497Y8737471D01*
Y8733306D01*
Y8737471D01*
X14078331Y8741637D01*
X14074165D01*
X14070000Y8737471D01*
Y8729141D01*
X14074165Y8724975D01*
X14065836Y8749967D02*
Y8766628D01*
X14070000Y8791620D02*
Y8774959D01*
X14086661Y8791620D01*
X14090826D01*
X14094992Y8787455D01*
Y8779124D01*
X14090826Y8774959D01*
X13693340Y8530826D02*
X13697504Y8534992D01*
X13705835D01*
X13710001Y8530826D01*
Y8514165D01*
X13705835Y8510000D01*
X13697504D01*
X13693340Y8514165D01*
X13685008Y8530826D02*
X13680843Y8534992D01*
X13672511D01*
X13668347Y8530826D01*
Y8526661D01*
X13672511Y8522496D01*
X13676677D01*
X13672511D01*
X13668347Y8518331D01*
Y8514165D01*
X13672511Y8510000D01*
X13680843D01*
X13685008Y8514165D01*
X13643355Y8510000D02*
X13660016D01*
X13643355Y8526661D01*
Y8530826D01*
X13647520Y8534992D01*
X13655852D01*
X13660016Y8530826D01*
X13618362Y8510000D02*
X13635025D01*
X13618362Y8526661D01*
Y8530826D01*
X13622530Y8534992D01*
X13630859D01*
X13635025Y8530826D01*
X13610033Y8505835D02*
X13593372D01*
X13568381Y8510000D02*
X13585040D01*
X13568381Y8526661D01*
Y8530826D01*
X13572545Y8534992D01*
X13580876D01*
X13585040Y8530826D01*
X13450000Y8544992D02*
Y8520000D01*
X13433339D01*
X13425008Y8540826D02*
X13420844Y8544992D01*
X13412512D01*
X13408347Y8540826D01*
Y8536661D01*
X13412512Y8532496D01*
X13416678D01*
X13412512D01*
X13408347Y8528331D01*
Y8524165D01*
X13412512Y8520000D01*
X13420844D01*
X13425008Y8524165D01*
X13400015Y8540826D02*
X13395851Y8544992D01*
X13387520D01*
X13383356Y8540826D01*
Y8524165D01*
X13387520Y8520000D01*
X13395851D01*
X13400015Y8524165D01*
Y8540826D01*
X13375024D02*
X13370859Y8544992D01*
X13362529D01*
X13358363Y8540826D01*
Y8524165D01*
X13362529Y8520000D01*
X13370859D01*
X13375024Y8524165D01*
Y8540826D01*
X13350034Y8515835D02*
X13333372D01*
X13308380Y8520000D02*
X13325041D01*
X13308380Y8536661D01*
Y8540826D01*
X13312544Y8544992D01*
X13320876D01*
X13325041Y8540826D01*
X11470826Y11156661D02*
X11474992Y11152496D01*
Y11144165D01*
X11470826Y11140000D01*
X11454165D01*
X11450000Y11144165D01*
Y11152496D01*
X11454165Y11156661D01*
X11450000Y11177488D02*
X11474992D01*
X11462496Y11164992D01*
Y11181653D01*
X11450000Y11206645D02*
Y11189984D01*
X11466661Y11206645D01*
X11470826D01*
X11474992Y11202480D01*
Y11194149D01*
X11470826Y11189984D01*
Y11214976D02*
X11474992Y11219141D01*
Y11227472D01*
X11470826Y11231637D01*
X11454165D01*
X11450000Y11227472D01*
Y11219141D01*
X11454165Y11214976D01*
X11470826D01*
X11693339Y10250827D02*
X11697504Y10254992D01*
X11705835D01*
X11710000Y10250827D01*
Y10234165D01*
X11705835Y10230000D01*
X11697504D01*
X11693339Y10234165D01*
X11672512Y10230000D02*
Y10254992D01*
X11685008Y10242496D01*
X11668347D01*
X11643355Y10230000D02*
X11660016D01*
X11643355Y10246661D01*
Y10250827D01*
X11647520Y10254992D01*
X11655851D01*
X11660016Y10250827D01*
X11622528Y10230000D02*
Y10254992D01*
X11635024Y10242496D01*
X11618363D01*
X12103339Y10580826D02*
X12107504Y10584992D01*
X12115835D01*
X12120000Y10580826D01*
Y10564165D01*
X12115835Y10560000D01*
X12107504D01*
X12103339Y10564165D01*
X12082512Y10560000D02*
Y10584992D01*
X12095008Y10572496D01*
X12078347D01*
X12070016Y10580826D02*
X12065851Y10584992D01*
X12057520D01*
X12053355Y10580826D01*
Y10576661D01*
X12057520Y10572496D01*
X12061686D01*
X12057520D01*
X12053355Y10568331D01*
Y10564165D01*
X12057520Y10560000D01*
X12065851D01*
X12070016Y10564165D01*
X12045024Y10580826D02*
X12040859Y10584992D01*
X12032528D01*
X12028363Y10580826D01*
Y10576661D01*
X12032528Y10572496D01*
X12036694D01*
X12032528D01*
X12028363Y10568331D01*
Y10564165D01*
X12032528Y10560000D01*
X12040859D01*
X12045024Y10564165D01*
X11970826Y11276661D02*
X11974992Y11272496D01*
Y11264165D01*
X11970826Y11260000D01*
X11954165D01*
X11950000Y11264165D01*
Y11272496D01*
X11954165Y11276661D01*
X11950000Y11297488D02*
X11974992D01*
X11962496Y11284992D01*
Y11301653D01*
X11950000Y11326645D02*
Y11309984D01*
X11966661Y11326645D01*
X11970826D01*
X11974992Y11322480D01*
Y11314149D01*
X11970826Y11309984D01*
X11974992Y11351637D02*
Y11334976D01*
X11962496D01*
X11966661Y11343306D01*
Y11347472D01*
X11962496Y11351637D01*
X11954165D01*
X11950000Y11347472D01*
Y11339141D01*
X11954165Y11334976D01*
X12330000Y10320000D02*
X12354992D01*
Y10332496D01*
X12350826Y10336661D01*
X12342496D01*
X12338331Y10332496D01*
Y10320000D01*
Y10328331D02*
X12330000Y10336661D01*
Y10357488D02*
X12354992D01*
X12342496Y10344992D01*
Y10361653D01*
X12330000Y10369984D02*
Y10378314D01*
Y10374149D01*
X12354992D01*
X12350826Y10369984D01*
Y10390810D02*
X12354992Y10394975D01*
Y10403306D01*
X12350826Y10407471D01*
X12346661D01*
X12342496Y10403306D01*
Y10399141D01*
Y10403306D01*
X12338331Y10407471D01*
X12334165D01*
X12330000Y10403306D01*
Y10394975D01*
X12334165Y10390810D01*
X12340000Y10210000D02*
Y10234992D01*
X12327504D01*
X12323339Y10230826D01*
Y10222496D01*
X12327504Y10218331D01*
X12340000D01*
X12331669D02*
X12323339Y10210000D01*
X12302512D02*
Y10234992D01*
X12315008Y10222496D01*
X12298347D01*
X12290016Y10210000D02*
X12281686D01*
X12285851D01*
Y10234992D01*
X12290016Y10230826D01*
X12256694Y10210000D02*
Y10234992D01*
X12269190Y10222496D01*
X12252529D01*
X13703339Y8650826D02*
X13707504Y8654992D01*
X13715836D01*
X13720000Y8650826D01*
Y8634165D01*
X13715836Y8630000D01*
X13707504D01*
X13703339Y8634165D01*
X13695007Y8650826D02*
X13690843Y8654992D01*
X13682512D01*
X13678346Y8650826D01*
Y8646661D01*
X13682512Y8642496D01*
X13686678D01*
X13682512D01*
X13678346Y8638331D01*
Y8634165D01*
X13682512Y8630000D01*
X13690843D01*
X13695007Y8634165D01*
X13653355Y8630000D02*
X13670016D01*
X13653355Y8646661D01*
Y8650826D01*
X13657520Y8654992D01*
X13665851D01*
X13670016Y8650826D01*
X13632529Y8630000D02*
Y8654992D01*
X13645026Y8642496D01*
X13628363D01*
X13620033Y8625835D02*
X13603372D01*
X13578380Y8630000D02*
X13595041D01*
X13578380Y8646661D01*
Y8650826D01*
X13582545Y8654992D01*
X13590875D01*
X13595041Y8650826D01*
X13593340Y9040826D02*
X13597504Y9044992D01*
X13605835D01*
X13610001Y9040826D01*
Y9024165D01*
X13605835Y9020000D01*
X13597504D01*
X13593340Y9024165D01*
X13585008Y9040826D02*
X13580843Y9044992D01*
X13572511D01*
X13568347Y9040826D01*
Y9036661D01*
X13572511Y9032496D01*
X13576677D01*
X13572511D01*
X13568347Y9028331D01*
Y9024165D01*
X13572511Y9020000D01*
X13580843D01*
X13585008Y9024165D01*
X13543355Y9020000D02*
X13560016D01*
X13543355Y9036661D01*
Y9040826D01*
X13547520Y9044992D01*
X13555852D01*
X13560016Y9040826D01*
X13518362Y9044992D02*
X13535023D01*
Y9032496D01*
X13526694Y9036661D01*
X13522528D01*
X13518362Y9032496D01*
Y9024165D01*
X13522528Y9020000D01*
X13530859D01*
X13535023Y9024165D01*
X13510033Y9015835D02*
X13493372D01*
X13468381Y9020000D02*
X13485040D01*
X13468381Y9036661D01*
Y9040826D01*
X13472545Y9044992D01*
X13480876D01*
X13485040Y9040826D01*
X11853339Y10590826D02*
X11857504Y10594992D01*
X11865835D01*
X11870000Y10590826D01*
Y10574165D01*
X11865835Y10570000D01*
X11857504D01*
X11853339Y10574165D01*
X11832512Y10570000D02*
Y10594992D01*
X11845008Y10582496D01*
X11828347D01*
X11820016Y10570000D02*
X11811686D01*
X11815851D01*
Y10594992D01*
X11820016Y10590826D01*
X11799190Y10594992D02*
X11782529D01*
Y10590826D01*
X11799190Y10574165D01*
Y10570000D01*
X13439999Y8780000D02*
X13464992D01*
Y8792496D01*
X13460828Y8796661D01*
X13452496D01*
X13448331Y8792496D01*
Y8780000D01*
Y8788331D02*
X13439999Y8796661D01*
X13460828Y8804992D02*
X13464992Y8809157D01*
Y8817488D01*
X13460828Y8821653D01*
X13456660D01*
X13452496Y8817488D01*
Y8813322D01*
Y8817488D01*
X13448331Y8821653D01*
X13444165D01*
X13439999Y8817488D01*
Y8809157D01*
X13444165Y8804992D01*
X13439999Y8846645D02*
Y8829984D01*
X13456660Y8846645D01*
X13460828D01*
X13464992Y8842480D01*
Y8834149D01*
X13460828Y8829984D01*
X13439999Y8854975D02*
Y8863306D01*
Y8859141D01*
X13464992D01*
X13460828Y8854975D01*
X13435835Y8875802D02*
Y8892463D01*
X13439999Y8917455D02*
Y8900794D01*
X13456660Y8917455D01*
X13460828D01*
X13464992Y8913290D01*
Y8904959D01*
X13460828Y8900794D01*
X13989999Y8760000D02*
Y8784992D01*
X13977504D01*
X13973338Y8780826D01*
Y8772496D01*
X13977504Y8768331D01*
X13989999D01*
X13981670D02*
X13973338Y8760000D01*
X13965009Y8780826D02*
X13960843Y8784992D01*
X13952512D01*
X13948347Y8780826D01*
Y8776661D01*
X13952512Y8772496D01*
X13956677D01*
X13952512D01*
X13948347Y8768331D01*
Y8764165D01*
X13952512Y8760000D01*
X13960843D01*
X13965009Y8764165D01*
X13923355Y8760000D02*
X13940016D01*
X13923355Y8776661D01*
Y8780826D01*
X13927521Y8784992D01*
X13935851D01*
X13940016Y8780826D01*
X13898363Y8760000D02*
X13915024D01*
X13898363Y8776661D01*
Y8780826D01*
X13902528Y8784992D01*
X13910860D01*
X13915024Y8780826D01*
X13890033Y8755835D02*
X13873372D01*
X13848380Y8760000D02*
X13865041D01*
X13848380Y8776661D01*
Y8780826D01*
X13852545Y8784992D01*
X13860876D01*
X13865041Y8780826D01*
X12440827Y8766661D02*
X12444992Y8762496D01*
Y8754165D01*
X12440827Y8750000D01*
X12424165D01*
X12420000Y8754165D01*
Y8762496D01*
X12424165Y8766661D01*
X12420000Y8787488D02*
X12444992D01*
X12432496Y8774992D01*
Y8791653D01*
X12420000Y8816645D02*
Y8799984D01*
X12436661Y8816645D01*
X12440827D01*
X12444992Y8812480D01*
Y8804149D01*
X12440827Y8799984D01*
X12424165Y8824975D02*
X12420000Y8829141D01*
Y8837472D01*
X12424165Y8841637D01*
X12440827D01*
X12444992Y8837472D01*
Y8829141D01*
X12440827Y8824975D01*
X12436661D01*
X12432496Y8829141D01*
Y8841637D01*
X11533339Y9300826D02*
X11537504Y9304992D01*
X11545835D01*
X11550000Y9300826D01*
Y9284165D01*
X11545835Y9280000D01*
X11537504D01*
X11533339Y9284165D01*
X11512512Y9280000D02*
Y9304992D01*
X11525008Y9292496D01*
X11508347D01*
X11483355Y9280000D02*
X11500016D01*
X11483355Y9296661D01*
Y9300826D01*
X11487520Y9304992D01*
X11495851D01*
X11500016Y9300826D01*
X11475025Y9304992D02*
X11458363D01*
Y9300826D01*
X11475025Y9284165D01*
Y9280000D01*
X12250826Y10336661D02*
X12254992Y10332496D01*
Y10324165D01*
X12250826Y10320000D01*
X12234165D01*
X12230000Y10324165D01*
Y10332496D01*
X12234165Y10336661D01*
X12230000Y10357488D02*
X12254992D01*
X12242496Y10344992D01*
Y10361653D01*
X12250826Y10369984D02*
X12254992Y10374149D01*
Y10382480D01*
X12250826Y10386645D01*
X12246661D01*
X12242496Y10382480D01*
Y10378314D01*
Y10382480D01*
X12238331Y10386645D01*
X12234165D01*
X12230000Y10382480D01*
Y10374149D01*
X12234165Y10369984D01*
X12250826Y10394975D02*
X12254992Y10399141D01*
Y10407471D01*
X12250826Y10411637D01*
X12234165D01*
X12230000Y10407471D01*
Y10399141D01*
X12234165Y10394975D01*
X12250826D01*
X13484991Y11680000D02*
Y11696661D01*
Y11688331D01*
X13460001D01*
Y11704992D02*
X13484991D01*
Y11717488D01*
X13480826Y11721653D01*
X13472496D01*
X13468330Y11717488D01*
Y11704992D01*
X13480826Y11729984D02*
X13484991Y11734149D01*
Y11742480D01*
X13480826Y11746645D01*
X13476662D01*
X13472496Y11742480D01*
Y11738314D01*
Y11742480D01*
X13468330Y11746645D01*
X13464165D01*
X13460001Y11742480D01*
Y11734149D01*
X13464165Y11729984D01*
X13480826Y11754975D02*
X13484991Y11759141D01*
Y11767472D01*
X13480826Y11771637D01*
X13464165D01*
X13460001Y11767472D01*
Y11759141D01*
X13464165Y11754975D01*
X13480826D01*
X13464165Y11779967D02*
X13460001Y11784133D01*
Y11792463D01*
X13464165Y11796628D01*
X13480826D01*
X13484991Y11792463D01*
Y11784133D01*
X13480826Y11779967D01*
X13476662D01*
X13472496Y11784133D01*
Y11796628D01*
X13455835Y11804959D02*
Y11821620D01*
X13460001Y11829951D02*
Y11838282D01*
Y11834116D01*
X13484991D01*
X13480826Y11829951D01*
X12283339Y9010827D02*
X12287504Y9014992D01*
X12295835D01*
X12300000Y9010827D01*
Y8994165D01*
X12295835Y8990000D01*
X12287504D01*
X12283339Y8994165D01*
X12262512Y8990000D02*
Y9014992D01*
X12275008Y9002496D01*
X12258347D01*
X12250016Y9010827D02*
X12245851Y9014992D01*
X12237520D01*
X12233355Y9010827D01*
Y9006661D01*
X12237520Y9002496D01*
X12241686D01*
X12237520D01*
X12233355Y8998331D01*
Y8994165D01*
X12237520Y8990000D01*
X12245851D01*
X12250016Y8994165D01*
X12208363Y8990000D02*
X12225025D01*
X12208363Y9006661D01*
Y9010827D01*
X12212529Y9014992D01*
X12220859D01*
X12225025Y9010827D01*
D151*
X13929156Y10413326D02*
X13934988Y10407494D01*
Y10395831D01*
X13929156Y10390000D01*
X13905830D01*
X13900000Y10395831D01*
Y10407494D01*
X13905830Y10413326D01*
X13900000Y10442483D02*
X13934988D01*
X13917494Y10424989D01*
Y10448314D01*
X13900000Y10483303D02*
Y10459977D01*
X13923326Y10483303D01*
X13929156D01*
X13934988Y10477471D01*
Y10465808D01*
X13929156Y10459977D01*
X13934988Y10518291D02*
X13929156Y10506628D01*
X13917494Y10494966D01*
X13905830D01*
X13900000Y10500797D01*
Y10512460D01*
X13905830Y10518291D01*
X13911662D01*
X13917494Y10512460D01*
Y10494966D01*
X13469157Y10333326D02*
X13474989Y10327494D01*
Y10315831D01*
X13469157Y10310000D01*
X13445831D01*
X13439999Y10315831D01*
Y10327494D01*
X13445831Y10333326D01*
X13439999Y10362483D02*
X13474989D01*
X13457494Y10344988D01*
Y10368314D01*
X13439999Y10403303D02*
Y10379977D01*
X13463326Y10403303D01*
X13469157D01*
X13474989Y10397471D01*
Y10385808D01*
X13469157Y10379977D01*
X13439999Y10438291D02*
Y10414965D01*
X13463326Y10438291D01*
X13469157D01*
X13474989Y10432460D01*
Y10420797D01*
X13469157Y10414965D01*
X12339157Y9323326D02*
X12344989Y9317494D01*
Y9305831D01*
X12339157Y9300000D01*
X12315831D01*
X12310000Y9305831D01*
Y9317494D01*
X12315831Y9323326D01*
X12339157Y9334988D02*
X12344989Y9340820D01*
Y9352483D01*
X12339157Y9358314D01*
X12333326D01*
X12327494Y9352483D01*
Y9346651D01*
Y9352483D01*
X12321663Y9358314D01*
X12315831D01*
X12310000Y9352483D01*
Y9340820D01*
X12315831Y9334988D01*
X12310000Y9369977D02*
Y9381640D01*
Y9375808D01*
X12344989D01*
X12339157Y9369977D01*
Y9399134D02*
X12344989Y9404965D01*
Y9416628D01*
X12339157Y9422460D01*
X12333326D01*
X12327494Y9416628D01*
X12321663Y9422460D01*
X12315831D01*
X12310000Y9416628D01*
Y9404965D01*
X12315831Y9399134D01*
X12321663D01*
X12327494Y9404965D01*
X12333326Y9399134D01*
X12339157D01*
X12327494Y9404965D02*
Y9416628D01*
X12304169Y9434123D02*
Y9457448D01*
X12310000Y9492437D02*
Y9469111D01*
X12333326Y9492437D01*
X12339157D01*
X12344989Y9486605D01*
Y9474942D01*
X12339157Y9469111D01*
%TF.MD5,d98d95c59fea57ab6fb30e874ec2e196*%
M02*
