G04 Layer_Physical_Order=5*
G04 Layer_Color=16737945*
%FSLAX26Y26*%
%MOIN*%
%TF.FileFunction,Copper,L5,Inr,Signal*%
%TF.Part,Single*%
G01*
G75*
%TA.AperFunction,Conductor*%
%ADD77C,0.007874*%
%ADD78C,0.013780*%
%ADD80C,0.039370*%
%ADD84C,0.019685*%
%TA.AperFunction,ComponentPad*%
%ADD91C,0.060000*%
%ADD92R,0.060000X0.060000*%
%ADD93C,0.055118*%
%ADD94R,0.055118X0.055118*%
%TA.AperFunction,ViaPad*%
%ADD95C,0.023622*%
%ADD96C,0.017716*%
D77*
X4713858Y4947559D02*
X4724409Y4937008D01*
X4039370Y5019685D02*
X4405512D01*
X4023622Y5003937D02*
X4039370Y5019685D01*
X4405512D02*
X4425197Y5000000D01*
X4724409Y4937008D02*
Y4940945D01*
X4047244Y3122047D02*
X4053430D01*
X4055110Y3120367D01*
X4023346Y3051457D02*
Y3098701D01*
X4000000Y3122047D02*
X4023346Y3098701D01*
X4036142Y3058904D02*
Y3101399D01*
Y3058904D02*
X4058904Y3036142D01*
X4023346Y3051457D02*
X4051457Y3023346D01*
X4704449D01*
X4675000Y3053661D02*
Y3075000D01*
X4657480Y3036142D02*
X4675000Y3053661D01*
X4058904Y3036142D02*
X4657480D01*
X4704449Y3023346D02*
X4720472Y3039370D01*
X4675000Y3175000D02*
X4702953D01*
X4720472Y3157480D01*
Y3039370D02*
Y3157480D01*
X5775000Y4975000D02*
Y5000591D01*
X5748032Y5027559D02*
X5775000Y5000591D01*
X5244095Y5027559D02*
X5748032D01*
X5228346Y5011811D02*
X5244095Y5027559D01*
X5228346Y4940945D02*
Y5011811D01*
X5204724Y4917323D02*
X5228346Y4940945D01*
X5161417Y4917323D02*
X5204724D01*
X4425197Y4944883D02*
Y5000000D01*
X4023622Y4952756D02*
Y5003937D01*
X4475000Y5075000D02*
X4526378Y5023622D01*
X4681332D01*
X4713858Y4991096D01*
Y4947559D02*
Y4991096D01*
X4036142Y3101399D02*
X4055110Y3120367D01*
D78*
X4076714Y4070866D02*
X4161417D01*
X4068840Y4062992D02*
X4076714Y4070866D01*
X4049271Y4062992D02*
X4068840D01*
X4041397Y4070866D02*
X4049271Y4062992D01*
X4039370Y4070866D02*
X4041397D01*
X3748032Y4885827D02*
X3767717Y4866142D01*
X4051181D01*
X4086614Y4901575D01*
X3996063Y3381890D02*
X4027559D01*
X3992126Y3377953D02*
X3996063Y3381890D01*
X3992126Y3377953D02*
Y3429134D01*
X4011811Y3448819D01*
X4110236Y4354331D02*
X4208661D01*
X4074803Y4318898D02*
X4110236Y4354331D01*
X4039378Y3751961D02*
X4192905D01*
X4039370Y3751968D02*
X4039378Y3751961D01*
X3960630Y3751968D02*
X4039370D01*
X4035433Y4318898D02*
X4074803D01*
X4031496Y4322835D02*
X4035433Y4318898D01*
X4003937Y4051181D02*
Y4062992D01*
Y4051181D02*
X4043307Y4011811D01*
X4163089D01*
X4204724Y4053446D01*
Y4062992D01*
D80*
X3122047Y3543307D02*
Y3566929D01*
Y3594488D01*
Y3602362D01*
X3177165Y3657480D01*
X3641732D01*
X3814961Y3484252D01*
X3893701D01*
D84*
X4232283Y3275591D02*
Y3279528D01*
X4204724Y3307087D02*
X4232283Y3279528D01*
X4082677Y3307087D02*
X4204724D01*
X4055118Y3279528D02*
X4082677Y3307087D01*
D91*
X5975000Y3175000D02*
D03*
X5875000D02*
D03*
X5775000D02*
D03*
X5675000D02*
D03*
X5575000D02*
D03*
X5475000D02*
D03*
X5375000D02*
D03*
X5275000D02*
D03*
X5175000D02*
D03*
X5075000D02*
D03*
X4975000D02*
D03*
X4875000D02*
D03*
X4775000D02*
D03*
X4675000D02*
D03*
X4575000D02*
D03*
X4475000D02*
D03*
X4375000D02*
D03*
X4275000D02*
D03*
X4175000D02*
D03*
X4075000D02*
D03*
X3975000D02*
D03*
X3875000D02*
D03*
X3775000D02*
D03*
X5975000Y3075000D02*
D03*
X5875000D02*
D03*
X5775000D02*
D03*
X5675000D02*
D03*
X5575000D02*
D03*
X5475000D02*
D03*
X5375000D02*
D03*
X5275000D02*
D03*
X5175000D02*
D03*
X5075000D02*
D03*
X4975000D02*
D03*
X4875000D02*
D03*
X4775000D02*
D03*
X4675000D02*
D03*
X4575000D02*
D03*
X4475000D02*
D03*
X4375000D02*
D03*
X4275000D02*
D03*
X4175000D02*
D03*
X4075000D02*
D03*
X3975000D02*
D03*
X3875000D02*
D03*
Y4975000D02*
D03*
X3975000D02*
D03*
X4075000D02*
D03*
X4175000D02*
D03*
X4275000D02*
D03*
X4375000D02*
D03*
X4475000D02*
D03*
X4575000D02*
D03*
X4675000D02*
D03*
X4775000D02*
D03*
X4875000D02*
D03*
X4975000D02*
D03*
X5075000D02*
D03*
X5175000D02*
D03*
X5275000D02*
D03*
X5375000D02*
D03*
X5475000D02*
D03*
X5575000D02*
D03*
X5675000D02*
D03*
X5775000D02*
D03*
X5875000D02*
D03*
X5975000D02*
D03*
X3775000Y5075000D02*
D03*
X3875000D02*
D03*
X3975000D02*
D03*
X4075000D02*
D03*
X4175000D02*
D03*
X4275000D02*
D03*
X4375000D02*
D03*
X4475000D02*
D03*
X4575000D02*
D03*
X4675000D02*
D03*
X4775000D02*
D03*
X4875000D02*
D03*
X4975000D02*
D03*
X5075000D02*
D03*
X5175000D02*
D03*
X5275000D02*
D03*
X5375000D02*
D03*
X5475000D02*
D03*
X5575000D02*
D03*
X5675000D02*
D03*
X5775000D02*
D03*
X5875000D02*
D03*
X5975000D02*
D03*
D92*
X3775000Y3075000D02*
D03*
Y4975000D02*
D03*
D93*
X3858268Y3876378D02*
D03*
Y3976378D02*
D03*
Y4076378D02*
D03*
Y4276378D02*
D03*
Y4376378D02*
D03*
Y4176378D02*
D03*
D94*
Y4476378D02*
D03*
D95*
X5562992Y3667323D02*
D03*
X6255905Y4645669D02*
D03*
X6476378Y4728346D02*
D03*
Y4838583D02*
D03*
X6181102Y3413386D02*
D03*
X6472441Y2838583D02*
D03*
X6476378Y2948819D02*
D03*
X3342520Y4818898D02*
D03*
X3322828Y4854321D02*
D03*
X3385827Y4905512D02*
D03*
X3326772Y5015748D02*
D03*
X3377953Y5023622D02*
D03*
X4358268Y4405512D02*
D03*
X4354331Y3602362D02*
D03*
X5637795Y4602362D02*
D03*
X3696850Y4893701D02*
D03*
X3590551Y4897638D02*
D03*
X5803138Y3657473D02*
D03*
X4370079Y4637795D02*
D03*
X5374016Y3582677D02*
D03*
X5287402Y4551181D02*
D03*
X5192913Y3661417D02*
D03*
X5118110Y4503937D02*
D03*
X5196850Y3838583D02*
D03*
X4059055Y4086614D02*
D03*
X3944882Y3834646D02*
D03*
X4307087Y4452756D02*
D03*
X4751968Y4602362D02*
D03*
X4724409Y4940945D02*
D03*
X4279519Y4570857D02*
D03*
X5003937Y4897638D02*
D03*
X4968504Y4909449D02*
D03*
X4637795Y3413386D02*
D03*
X3933063Y4129913D02*
D03*
X3929126Y4448810D02*
D03*
X3929134Y4401575D02*
D03*
X5429134Y4775591D02*
D03*
X5425197Y3618110D02*
D03*
X5681102Y4275591D02*
D03*
X3216535Y3366142D02*
D03*
X5720472Y3492126D02*
D03*
X4110236Y3125984D02*
D03*
X4047244Y3122047D02*
D03*
X4000000D02*
D03*
X4625984Y3110236D02*
D03*
X3173228Y3720472D02*
D03*
X3196850D02*
D03*
X3220472D02*
D03*
X3244095D02*
D03*
X5818898Y4051181D02*
D03*
X4543298Y3118104D02*
D03*
X4511811Y3129921D02*
D03*
X4146427Y3129164D02*
D03*
X5161417Y4917323D02*
D03*
X5129921Y5007874D02*
D03*
X4905512Y4929134D02*
D03*
X5031486Y4944872D02*
D03*
X4936142Y5020551D02*
D03*
X4003937Y4062992D02*
D03*
X4405512Y4665354D02*
D03*
X4267717Y4456693D02*
D03*
X4275591Y4531890D02*
D03*
X4078740Y4629921D02*
D03*
X4086614Y4901575D02*
D03*
X4763779Y4757577D02*
D03*
X4322826Y4574794D02*
D03*
X4358268Y4877953D02*
D03*
X4330709Y4846457D02*
D03*
X4251968Y4897638D02*
D03*
X4476378Y4862205D02*
D03*
X4464567Y4299213D02*
D03*
X4425197Y4944882D02*
D03*
X4023622Y4952756D02*
D03*
X4677165Y4901575D02*
D03*
X4637795Y4905512D02*
D03*
X4538055Y4945856D02*
D03*
X4531487Y4917313D02*
D03*
X4724409Y5015748D02*
D03*
X4736221Y4901575D02*
D03*
X4822825Y4936998D02*
D03*
X4724400Y4515739D02*
D03*
X4728346Y4570866D02*
D03*
X4039370Y4905512D02*
D03*
X4161417Y4070866D02*
D03*
X4023622Y3417323D02*
D03*
X3939961Y3483661D02*
D03*
X4590551Y4271654D02*
D03*
X4358268Y4370079D02*
D03*
X4724400Y4748022D02*
D03*
X4342511Y4334637D02*
D03*
X4814951Y4700778D02*
D03*
X5090551Y4649606D02*
D03*
X4614173Y4271654D02*
D03*
X4637795D02*
D03*
X3893701Y3484252D02*
D03*
X3917323D02*
D03*
X3795276Y3267716D02*
D03*
X4342520Y3283465D02*
D03*
X4353346Y3520669D02*
D03*
X5095472Y4205709D02*
D03*
X5362205Y3940945D02*
D03*
X5326761Y3937000D02*
D03*
X5287391D02*
D03*
X5244084Y3925189D02*
D03*
X5192913Y3897638D02*
D03*
X5153543Y3944882D02*
D03*
X4992126Y4055118D02*
D03*
X5015748Y4094488D02*
D03*
X4944882Y3610236D02*
D03*
X4901575D02*
D03*
X4909449Y3539370D02*
D03*
X4933071D02*
D03*
X4937008Y4618110D02*
D03*
X4944882Y3736220D02*
D03*
X5228336Y3862197D02*
D03*
X4464567Y3448819D02*
D03*
X4472441Y3397638D02*
D03*
X3748032Y3267716D02*
D03*
X3771653D02*
D03*
X5098425Y3429134D02*
D03*
X4956693Y3539370D02*
D03*
X4838583Y3500000D02*
D03*
X4724409Y3594488D02*
D03*
X5385827Y4539370D02*
D03*
X5531496Y4618110D02*
D03*
X5740158Y4472441D02*
D03*
X5334646Y4519685D02*
D03*
X4736221Y4224409D02*
D03*
Y4248032D02*
D03*
Y4271654D02*
D03*
X5877941Y3976370D02*
D03*
X4996063Y4598425D02*
D03*
X4795276Y4586614D02*
D03*
X4850394Y4610236D02*
D03*
X5555118Y4590551D02*
D03*
X5606299Y3866142D02*
D03*
X5688976Y3862205D02*
D03*
X6476378Y3421260D02*
D03*
Y3311024D02*
D03*
X6039370Y4685039D02*
D03*
X6484252Y5200787D02*
D03*
X6480315Y5311024D02*
D03*
X6110224Y4405503D02*
D03*
X5897638Y4078740D02*
D03*
X4665354Y4437008D02*
D03*
X3543307Y4775591D02*
D03*
X3196850Y3293531D02*
D03*
X4468495Y4822825D02*
D03*
X4669291Y3724409D02*
D03*
X4637795Y3295276D02*
D03*
X4279528Y3279528D02*
D03*
X4232283Y3275591D02*
D03*
X4015748Y3311024D02*
D03*
X3842520Y3267716D02*
D03*
X3818898D02*
D03*
X3547244Y3055118D02*
D03*
X3618110D02*
D03*
X3594488D02*
D03*
X3570866D02*
D03*
X3051181Y3204724D02*
D03*
X3330315Y3617716D02*
D03*
X3374016Y3586614D02*
D03*
X3437008Y3543307D02*
D03*
X3401575Y3484252D02*
D03*
X3527559Y3429134D02*
D03*
X4291339Y3976378D02*
D03*
X4204724Y4062992D02*
D03*
X4374016Y3933071D02*
D03*
X4440945Y3972441D02*
D03*
X4724409Y3803150D02*
D03*
X5582677Y4125984D02*
D03*
X5543307Y4157480D02*
D03*
X5681102Y4005905D02*
D03*
X5535433Y3496063D02*
D03*
X4055118Y3279528D02*
D03*
X4098425Y3267716D02*
D03*
X4530512Y3872047D02*
D03*
X3570866Y5074803D02*
D03*
X3578740Y4948819D02*
D03*
X5125984Y4570866D02*
D03*
X5881890Y3342520D02*
D03*
X5907480Y3580709D02*
D03*
X5921260Y4555118D02*
D03*
X5822835Y4807087D02*
D03*
X5931102Y4685039D02*
D03*
X6139764Y4765748D02*
D03*
X5807087Y4362205D02*
D03*
X4748032Y3854331D02*
D03*
X4830699Y3850386D02*
D03*
X5208661Y3960630D02*
D03*
X3279528Y3248032D02*
D03*
X5291522Y4185223D02*
D03*
X5358268Y4405512D02*
D03*
X3338583Y3094488D02*
D03*
X3325197Y3254331D02*
D03*
X3370079Y3255905D02*
D03*
X4729331Y4311024D02*
D03*
X4988189Y3255905D02*
D03*
X5228346D02*
D03*
X5456693D02*
D03*
X5436997Y3377946D02*
D03*
X5476378Y3409449D02*
D03*
X5173228Y3429134D02*
D03*
X5696850Y3255905D02*
D03*
X5665354Y3393701D02*
D03*
X5586614Y3543307D02*
D03*
X5062992Y3893701D02*
D03*
X5051181Y3960630D02*
D03*
X5797244Y3696850D02*
D03*
X5798228Y3744095D02*
D03*
X5566929Y4056102D02*
D03*
X5798228Y3792323D02*
D03*
X5925197Y3255905D02*
D03*
X6173228D02*
D03*
X6275591Y3559055D02*
D03*
X6125010Y3965278D02*
D03*
X6188976Y3830709D02*
D03*
X6201772Y4007874D02*
D03*
X6200787Y4058071D02*
D03*
X6275591Y4082677D02*
D03*
X5059055Y4165354D02*
D03*
X5091535Y4251968D02*
D03*
X4946233Y4403543D02*
D03*
X5196850Y4484252D02*
D03*
X5295276Y4692913D02*
D03*
X5178150Y4711614D02*
D03*
X5734252Y4635827D02*
D03*
X5464567Y4885827D02*
D03*
X5696850D02*
D03*
X6072725Y4139764D02*
D03*
X6094488Y4153543D02*
D03*
X6197835Y4082677D02*
D03*
X6199803Y4127953D02*
D03*
X5795276Y4401575D02*
D03*
X6125984Y4295276D02*
D03*
X5794291Y4450787D02*
D03*
Y4490158D02*
D03*
X5929134Y4885827D02*
D03*
X6177165Y4724409D02*
D03*
X6181102Y4893701D02*
D03*
X6196850Y4314961D02*
D03*
X6381890Y4618110D02*
D03*
X5129921Y3625984D02*
D03*
X4990157Y3935039D02*
D03*
X4883240Y4529528D02*
D03*
X5161417Y4248032D02*
D03*
X5230933Y4220472D02*
D03*
X5578729Y3342513D02*
D03*
X5673228Y4039370D02*
D03*
X6181102Y3448819D02*
D03*
X5874016Y3866142D02*
D03*
X5606299Y4267717D02*
D03*
X6145669Y4712598D02*
D03*
X5122047Y3917323D02*
D03*
X5124016Y4161417D02*
D03*
X4946233Y4529528D02*
D03*
X5525862Y3633051D02*
D03*
X5536417Y3896653D02*
D03*
X5909449Y3500000D02*
D03*
X5153543Y4488189D02*
D03*
X5638779Y4507874D02*
D03*
X5880905Y4262795D02*
D03*
X5929134Y4637795D02*
D03*
X5240158Y3535433D02*
D03*
X5370079Y3500000D02*
D03*
X5000000Y3610236D02*
D03*
X5041339Y4225394D02*
D03*
X5035433Y4464567D02*
D03*
X5322835Y4437008D02*
D03*
X3746063Y4746063D02*
D03*
X3748032Y4885827D02*
D03*
X4531496Y4118110D02*
D03*
X4909449Y3921260D02*
D03*
Y4153543D02*
D03*
X4988189Y4019685D02*
D03*
X4027559Y3381890D02*
D03*
X4011811Y3448819D02*
D03*
X4196850Y3346457D02*
D03*
X4535433Y4724409D02*
D03*
X4618110Y4074803D02*
D03*
X3177165Y3177165D02*
D03*
X3122047Y3566929D02*
D03*
Y3594488D02*
D03*
Y3543307D02*
D03*
X3204724Y3177165D02*
D03*
X3232284D02*
D03*
X3259843D02*
D03*
X3287402D02*
D03*
X3314961D02*
D03*
X3507874Y3259843D02*
D03*
X3535433D02*
D03*
X3562992D02*
D03*
X3590551D02*
D03*
X4192905Y3751961D02*
D03*
X4208661Y4354331D02*
D03*
X4358267Y3964567D02*
D03*
X5228346Y4893701D02*
D03*
X5188976D02*
D03*
X5425197Y4110236D02*
D03*
X5769685Y4221457D02*
D03*
X4779518Y4724400D02*
D03*
X4775581Y4641723D02*
D03*
X6275591Y4574803D02*
D03*
X3078740Y3204724D02*
D03*
X3023622D02*
D03*
X6039370Y4637795D02*
D03*
X6070866Y4767717D02*
D03*
D96*
X5463583Y4437992D02*
D03*
X5421260Y4720472D02*
D03*
X4224409Y3763780D02*
D03*
X4106299Y3570866D02*
D03*
X4157480Y4035433D02*
D03*
X4366142Y4751968D02*
D03*
X4397638Y3830709D02*
D03*
X4480315Y4488189D02*
D03*
X4264764Y4833143D02*
D03*
X4295276Y4842520D02*
D03*
X4051181Y3606299D02*
D03*
X3870079Y3799213D02*
D03*
X4460630Y3829134D02*
D03*
X4417323Y3830709D02*
D03*
X3846457Y3740157D02*
D03*
X4496054Y3578733D02*
D03*
X4480315Y3645669D02*
D03*
X4049212Y4352363D02*
D03*
X4039370Y4511811D02*
D03*
X4137795Y4500000D02*
D03*
X4141732Y4460630D02*
D03*
X3771653Y4688976D02*
D03*
X3893701Y3661417D02*
D03*
X3917323Y3677165D02*
D03*
X3913386Y4488189D02*
D03*
X3740157Y4685039D02*
D03*
X3885819Y3700780D02*
D03*
X3937008Y4515748D02*
D03*
X4165346Y3602355D02*
D03*
X4143701Y3580709D02*
D03*
X4125984Y3602362D02*
D03*
X4082677Y3586614D02*
D03*
X4055118Y3578740D02*
D03*
X4212598Y3570866D02*
D03*
X4255897Y3539363D02*
D03*
X4846457Y4133858D02*
D03*
X5003937Y3543307D02*
D03*
X4566929Y4283465D02*
D03*
Y3417323D02*
D03*
X5148622Y4063976D02*
D03*
X4311024Y3346457D02*
D03*
X3891732Y4612205D02*
D03*
X4133858Y4881890D02*
D03*
X4452756Y4665354D02*
D03*
X4279528Y4149606D02*
D03*
X3968504Y4275591D02*
D03*
X4035425Y4212590D02*
D03*
X4074803Y4318898D02*
D03*
X4173228Y4433071D02*
D03*
X4196842Y4322826D02*
D03*
X4248032Y4341087D02*
D03*
X4216535Y4153543D02*
D03*
X4244095Y4149606D02*
D03*
X4224409Y3712599D02*
D03*
X6417326Y3661419D02*
D03*
X6437011Y3779530D02*
D03*
Y4015750D02*
D03*
X6417326Y4055120D02*
D03*
X6437011Y4094490D02*
D03*
X6417326Y4133860D02*
D03*
X6437011Y4251971D02*
D03*
X6417326Y4370081D02*
D03*
X6456696Y3661419D02*
D03*
X6476381Y3779530D02*
D03*
X6456696Y3897640D02*
D03*
X6476381Y4015750D02*
D03*
X6456696Y4055120D02*
D03*
X6476381Y4094490D02*
D03*
X6456696Y4133860D02*
D03*
X6476381Y4251971D02*
D03*
X6456696Y4370081D02*
D03*
X6496066Y3661419D02*
D03*
X6515752Y3779530D02*
D03*
X6496066Y3897640D02*
D03*
X6515752Y4015750D02*
D03*
X6496066Y4055120D02*
D03*
X6515752Y4094490D02*
D03*
X6496066Y4133860D02*
D03*
X6515752Y4251971D02*
D03*
X6496066Y4370081D02*
D03*
X6535437Y3661419D02*
D03*
Y3897640D02*
D03*
Y4055120D02*
D03*
Y4133860D02*
D03*
Y4370081D02*
D03*
%TF.MD5,06df495ac502e8c61defa55e81969f28*%
M02*
