G04 Layer_Color=16711935*
%FSLAX44Y44*%
%MOMM*%
G71*
G01*
G75*
%ADD102R,0.6000X0.7000*%
%ADD103R,0.6700X0.6700*%
%ADD104R,0.7000X0.6000*%
%ADD105R,1.0500X0.8500*%
%ADD106R,0.8500X1.0500*%
%ADD108R,0.6700X0.6700*%
%ADD112R,4.1000X1.6500*%
%ADD113C,0.7500*%
%ADD129O,1.5500X0.5000*%
%ADD130O,1.6500X0.5490*%
%ADD133R,2.7500X1.1000*%
%ADD141R,0.8000X1.0500*%
%ADD152C,1.5500*%
%ADD153R,1.5500X1.5500*%
%ADD154C,1.6740*%
%ADD155R,1.6740X1.6740*%
%ADD156R,2.7500X1.3500*%
G04:AMPARAMS|DCode=157|XSize=0.549mm|YSize=0.8mm|CornerRadius=0.1249mm|HoleSize=0mm|Usage=FLASHONLY|Rotation=90.000|XOffset=0mm|YOffset=0mm|HoleType=Round|Shape=RoundedRectangle|*
%AMROUNDEDRECTD157*
21,1,0.5490,0.5503,0,0,90.0*
21,1,0.2993,0.8000,0,0,90.0*
1,1,0.2498,0.2751,0.1496*
1,1,0.2498,0.2751,-0.1496*
1,1,0.2498,-0.2751,-0.1496*
1,1,0.2498,-0.2751,0.1496*
%
%ADD157ROUNDEDRECTD157*%
%ADD158R,0.9500X1.0500*%
%ADD159R,2.2300X1.1300*%
%ADD160R,1.6400X1.8900*%
%ADD161O,0.9900X0.4400*%
G04:AMPARAMS|DCode=162|XSize=0.4mm|YSize=0.75mm|CornerRadius=0.125mm|HoleSize=0mm|Usage=FLASHONLY|Rotation=270.000|XOffset=0mm|YOffset=0mm|HoleType=Round|Shape=RoundedRectangle|*
%AMROUNDEDRECTD162*
21,1,0.4000,0.5000,0,0,270.0*
21,1,0.1500,0.7500,0,0,270.0*
1,1,0.2500,-0.2500,-0.0750*
1,1,0.2500,-0.2500,0.0750*
1,1,0.2500,0.2500,0.0750*
1,1,0.2500,0.2500,-0.0750*
%
%ADD162ROUNDEDRECTD162*%
%ADD163R,1.0500X0.7500*%
%ADD164R,1.0500X0.9500*%
G04:AMPARAMS|DCode=165|XSize=1.95mm|YSize=3.15mm|CornerRadius=0mm|HoleSize=0mm|Usage=FLASHONLY|Rotation=270.000|XOffset=0mm|YOffset=0mm|HoleType=Round|Shape=Octagon|*
%AMOCTAGOND165*
4,1,8,1.5750,0.4875,1.5750,-0.4875,1.0875,-0.9750,-1.0875,-0.9750,-1.5750,-0.4875,-1.5750,0.4875,-1.0875,0.9750,1.0875,0.9750,1.5750,0.4875,0.0*
%
%ADD165OCTAGOND165*%

%ADD166R,1.3500X0.6500*%
%ADD167R,1.7500X0.6500*%
G04:AMPARAMS|DCode=168|XSize=0.549mm|YSize=1.3mm|CornerRadius=0.1189mm|HoleSize=0mm|Usage=FLASHONLY|Rotation=0.000|XOffset=0mm|YOffset=0mm|HoleType=Round|Shape=RoundedRectangle|*
%AMROUNDEDRECTD168*
21,1,0.5490,1.0622,0,0,0.0*
21,1,0.3112,1.3000,0,0,0.0*
1,1,0.2378,0.1556,-0.5311*
1,1,0.2378,-0.1556,-0.5311*
1,1,0.2378,-0.1556,0.5311*
1,1,0.2378,0.1556,0.5311*
%
%ADD168ROUNDEDRECTD168*%
G04:AMPARAMS|DCode=169|XSize=0.5499mm|YSize=1.35mm|CornerRadius=0.125mm|HoleSize=0mm|Usage=FLASHONLY|Rotation=90.000|XOffset=0mm|YOffset=0mm|HoleType=Round|Shape=RoundedRectangle|*
%AMROUNDEDRECTD169*
21,1,0.5499,1.1000,0,0,90.0*
21,1,0.2999,1.3500,0,0,90.0*
1,1,0.2500,0.5500,0.1500*
1,1,0.2500,0.5500,-0.1500*
1,1,0.2500,-0.5500,-0.1500*
1,1,0.2500,-0.5500,0.1500*
%
%ADD169ROUNDEDRECTD169*%
G04:AMPARAMS|DCode=170|XSize=0.7mm|YSize=0.95mm|CornerRadius=0.1245mm|HoleSize=0mm|Usage=FLASHONLY|Rotation=90.000|XOffset=0mm|YOffset=0mm|HoleType=Round|Shape=RoundedRectangle|*
%AMROUNDEDRECTD170*
21,1,0.7000,0.7010,0,0,90.0*
21,1,0.4510,0.9500,0,0,90.0*
1,1,0.2490,0.3505,0.2255*
1,1,0.2490,0.3505,-0.2255*
1,1,0.2490,-0.3505,-0.2255*
1,1,0.2490,-0.3505,0.2255*
%
%ADD170ROUNDEDRECTD170*%
G36*
X1221760Y891693D02*
X1221867Y891668D01*
X1221969Y891626D01*
X1222063Y891568D01*
X1222147Y891497D01*
X1222218Y891413D01*
X1222276Y891319D01*
X1222318Y891217D01*
X1222344Y891110D01*
X1222352Y891000D01*
Y881452D01*
X1224500D01*
X1224610Y881443D01*
X1224717Y881418D01*
X1224819Y881376D01*
X1224913Y881318D01*
X1224997Y881246D01*
X1225068Y881163D01*
X1225126Y881069D01*
X1225168Y880967D01*
X1225194Y880860D01*
X1225202Y880750D01*
Y863250D01*
X1225194Y863140D01*
X1225168Y863033D01*
X1225126Y862931D01*
X1225068Y862837D01*
X1224997Y862754D01*
X1224913Y862682D01*
X1224819Y862624D01*
X1224717Y862582D01*
X1224610Y862557D01*
X1224500Y862548D01*
X1222352D01*
Y853000D01*
X1222344Y852890D01*
X1222318Y852783D01*
X1222276Y852681D01*
X1222218Y852587D01*
X1222147Y852504D01*
X1222063Y852432D01*
X1221969Y852374D01*
X1221867Y852332D01*
X1221760Y852307D01*
X1221650Y852298D01*
X1218850D01*
X1218740Y852307D01*
X1218633Y852332D01*
X1218531Y852374D01*
X1218437Y852432D01*
X1218354Y852504D01*
X1218282Y852587D01*
X1218224Y852681D01*
X1218182Y852783D01*
X1218157Y852890D01*
X1218148Y853000D01*
Y862548D01*
X1215852D01*
Y853000D01*
X1215844Y852890D01*
X1215818Y852783D01*
X1215776Y852681D01*
X1215718Y852587D01*
X1215647Y852504D01*
X1215563Y852432D01*
X1215469Y852374D01*
X1215367Y852332D01*
X1215260Y852307D01*
X1215150Y852298D01*
X1212350D01*
X1212240Y852307D01*
X1212133Y852332D01*
X1212031Y852374D01*
X1211937Y852432D01*
X1211854Y852504D01*
X1211782Y852587D01*
X1211724Y852681D01*
X1211682Y852783D01*
X1211657Y852890D01*
X1211648Y853000D01*
Y862548D01*
X1209500D01*
X1209390Y862557D01*
X1209283Y862582D01*
X1209181Y862624D01*
X1209087Y862682D01*
X1209004Y862754D01*
X1208932Y862837D01*
X1208875Y862931D01*
X1208832Y863033D01*
X1208807Y863140D01*
X1208798Y863250D01*
Y880750D01*
X1208807Y880860D01*
X1208832Y880967D01*
X1208875Y881069D01*
X1208932Y881163D01*
X1209004Y881246D01*
X1209087Y881318D01*
X1209181Y881376D01*
X1209283Y881418D01*
X1209390Y881443D01*
X1209500Y881452D01*
X1211648D01*
Y891000D01*
X1211657Y891110D01*
X1211682Y891217D01*
X1211724Y891319D01*
X1211782Y891413D01*
X1211854Y891497D01*
X1211937Y891568D01*
X1212031Y891626D01*
X1212133Y891668D01*
X1212240Y891693D01*
X1212350Y891702D01*
X1215150D01*
X1215260Y891693D01*
X1215367Y891668D01*
X1215469Y891626D01*
X1215563Y891568D01*
X1215647Y891497D01*
X1215718Y891413D01*
X1215776Y891319D01*
X1215818Y891217D01*
X1215844Y891110D01*
X1215852Y891000D01*
Y881452D01*
X1218148D01*
Y891000D01*
X1218157Y891110D01*
X1218182Y891217D01*
X1218224Y891319D01*
X1218282Y891413D01*
X1218354Y891497D01*
X1218437Y891568D01*
X1218531Y891626D01*
X1218633Y891668D01*
X1218740Y891693D01*
X1218850Y891702D01*
X1221650D01*
X1221760Y891693D01*
D02*
G37*
G36*
X1202760Y1051693D02*
X1202867Y1051668D01*
X1202969Y1051626D01*
X1203063Y1051568D01*
X1203146Y1051497D01*
X1203218Y1051413D01*
X1203276Y1051319D01*
X1203318Y1051217D01*
X1203344Y1051110D01*
X1203352Y1051000D01*
Y1041452D01*
X1205500D01*
X1205610Y1041443D01*
X1205717Y1041418D01*
X1205819Y1041376D01*
X1205913Y1041318D01*
X1205996Y1041246D01*
X1206068Y1041163D01*
X1206126Y1041069D01*
X1206168Y1040967D01*
X1206193Y1040860D01*
X1206202Y1040750D01*
Y1023250D01*
X1206193Y1023140D01*
X1206168Y1023033D01*
X1206126Y1022931D01*
X1206068Y1022837D01*
X1205996Y1022754D01*
X1205913Y1022682D01*
X1205819Y1022624D01*
X1205717Y1022582D01*
X1205610Y1022557D01*
X1205500Y1022548D01*
X1203352D01*
Y1013000D01*
X1203344Y1012890D01*
X1203318Y1012783D01*
X1203276Y1012681D01*
X1203218Y1012587D01*
X1203146Y1012504D01*
X1203063Y1012432D01*
X1202969Y1012374D01*
X1202867Y1012332D01*
X1202760Y1012307D01*
X1202650Y1012298D01*
X1199850D01*
X1199740Y1012307D01*
X1199633Y1012332D01*
X1199531Y1012374D01*
X1199437Y1012432D01*
X1199353Y1012504D01*
X1199282Y1012587D01*
X1199224Y1012681D01*
X1199182Y1012783D01*
X1199156Y1012890D01*
X1199148Y1013000D01*
Y1022548D01*
X1196852D01*
Y1013000D01*
X1196843Y1012890D01*
X1196818Y1012783D01*
X1196776Y1012681D01*
X1196718Y1012587D01*
X1196646Y1012504D01*
X1196563Y1012432D01*
X1196469Y1012374D01*
X1196367Y1012332D01*
X1196260Y1012307D01*
X1196150Y1012298D01*
X1193350D01*
X1193240Y1012307D01*
X1193133Y1012332D01*
X1193031Y1012374D01*
X1192937Y1012432D01*
X1192853Y1012504D01*
X1192782Y1012587D01*
X1192724Y1012681D01*
X1192682Y1012783D01*
X1192656Y1012890D01*
X1192648Y1013000D01*
Y1022548D01*
X1190500D01*
X1190390Y1022557D01*
X1190283Y1022582D01*
X1190181Y1022624D01*
X1190087Y1022682D01*
X1190004Y1022754D01*
X1189932Y1022837D01*
X1189874Y1022931D01*
X1189832Y1023033D01*
X1189807Y1023140D01*
X1189798Y1023250D01*
Y1040750D01*
X1189807Y1040860D01*
X1189832Y1040967D01*
X1189874Y1041069D01*
X1189932Y1041163D01*
X1190004Y1041246D01*
X1190087Y1041318D01*
X1190181Y1041376D01*
X1190283Y1041418D01*
X1190390Y1041443D01*
X1190500Y1041452D01*
X1192648D01*
Y1051000D01*
X1192656Y1051110D01*
X1192682Y1051217D01*
X1192724Y1051319D01*
X1192782Y1051413D01*
X1192853Y1051497D01*
X1192937Y1051568D01*
X1193031Y1051626D01*
X1193133Y1051668D01*
X1193240Y1051693D01*
X1193350Y1051702D01*
X1196150D01*
X1196260Y1051693D01*
X1196367Y1051668D01*
X1196469Y1051626D01*
X1196563Y1051568D01*
X1196646Y1051497D01*
X1196718Y1051413D01*
X1196776Y1051319D01*
X1196818Y1051217D01*
X1196843Y1051110D01*
X1196852Y1051000D01*
Y1041452D01*
X1199148D01*
Y1051000D01*
X1199156Y1051110D01*
X1199182Y1051217D01*
X1199224Y1051319D01*
X1199282Y1051413D01*
X1199353Y1051497D01*
X1199437Y1051568D01*
X1199531Y1051626D01*
X1199633Y1051668D01*
X1199740Y1051693D01*
X1199850Y1051702D01*
X1202650D01*
X1202760Y1051693D01*
D02*
G37*
D102*
X1220500Y1236000D02*
D03*
X1211500D02*
D03*
X1035500Y1205000D02*
D03*
X1044500D02*
D03*
X1035500Y1224000D02*
D03*
X1044500D02*
D03*
X1006500Y994000D02*
D03*
X1015500D02*
D03*
X1006500Y1002000D02*
D03*
X1015500D02*
D03*
X1342500Y952000D02*
D03*
X1351500D02*
D03*
X1333500Y1095000D02*
D03*
X1342500D02*
D03*
X1336500Y933000D02*
D03*
X1327500D02*
D03*
X1327500Y923000D02*
D03*
X1336500D02*
D03*
X1360500Y970000D02*
D03*
X1351500D02*
D03*
X1351500Y961000D02*
D03*
X1360500D02*
D03*
X1370500Y1167000D02*
D03*
X1379500D02*
D03*
X1395500Y1178000D02*
D03*
X1386500D02*
D03*
X1396500Y877000D02*
D03*
X1387500D02*
D03*
X1351500Y1098000D02*
D03*
X1360500D02*
D03*
X1360500Y1107000D02*
D03*
X1351500D02*
D03*
X1225500Y1022000D02*
D03*
X1234500D02*
D03*
D103*
X1260000Y929000D02*
D03*
Y937000D02*
D03*
X1334000Y952000D02*
D03*
Y960000D02*
D03*
X1404000Y1198000D02*
D03*
Y1190000D02*
D03*
X1408000Y867000D02*
D03*
Y875000D02*
D03*
X1244000Y876000D02*
D03*
Y884000D02*
D03*
X1192000Y879000D02*
D03*
Y871000D02*
D03*
X1265000Y1079000D02*
D03*
Y1087000D02*
D03*
X1334343Y1107500D02*
D03*
Y1115500D02*
D03*
X1224000Y1033000D02*
D03*
Y1041000D02*
D03*
X1196000Y1127000D02*
D03*
Y1135000D02*
D03*
X1006000Y956500D02*
D03*
Y964500D02*
D03*
X998000Y1032000D02*
D03*
Y1040000D02*
D03*
X1007000Y1102000D02*
D03*
Y1110000D02*
D03*
D104*
X1159000Y1241500D02*
D03*
Y1232500D02*
D03*
Y1213500D02*
D03*
Y1222500D02*
D03*
X1168000Y1232500D02*
D03*
Y1241500D02*
D03*
Y1222500D02*
D03*
Y1213500D02*
D03*
X1004000Y945500D02*
D03*
Y936500D02*
D03*
X1000000Y1076500D02*
D03*
Y1067500D02*
D03*
X1006000Y1126500D02*
D03*
Y1135500D02*
D03*
X1000000Y1093500D02*
D03*
Y1084500D02*
D03*
X1304000Y880500D02*
D03*
Y871500D02*
D03*
X1290000Y1159500D02*
D03*
Y1150500D02*
D03*
X1280000Y935500D02*
D03*
Y926500D02*
D03*
X1285000Y1081500D02*
D03*
Y1090500D02*
D03*
X1262000Y967500D02*
D03*
Y958500D02*
D03*
X1270000Y935500D02*
D03*
Y926500D02*
D03*
X1250000Y937500D02*
D03*
Y928500D02*
D03*
X1335000Y971500D02*
D03*
Y980500D02*
D03*
X1345000Y889500D02*
D03*
Y880500D02*
D03*
X1242000Y856500D02*
D03*
Y865500D02*
D03*
X1254000Y875500D02*
D03*
Y884500D02*
D03*
X1262343Y1100000D02*
D03*
Y1109000D02*
D03*
X1276000Y1090500D02*
D03*
Y1081500D02*
D03*
X1343500Y1085843D02*
D03*
Y1076843D02*
D03*
X1333500Y1076843D02*
D03*
Y1085843D02*
D03*
X1250343Y1130000D02*
D03*
Y1139000D02*
D03*
X1334000Y1126500D02*
D03*
Y1135500D02*
D03*
X1234000Y1031500D02*
D03*
Y1040500D02*
D03*
X1050000Y1093500D02*
D03*
Y1102500D02*
D03*
X1058000Y1093500D02*
D03*
Y1102500D02*
D03*
Y1118500D02*
D03*
Y1109500D02*
D03*
X1050000Y1118500D02*
D03*
Y1109500D02*
D03*
X1048000Y1024500D02*
D03*
Y1033500D02*
D03*
X1040000Y1024500D02*
D03*
Y1033500D02*
D03*
X1048000Y1050500D02*
D03*
Y1041500D02*
D03*
X1040000Y1050000D02*
D03*
Y1041000D02*
D03*
X1056285Y943000D02*
D03*
Y952000D02*
D03*
X1048000Y943000D02*
D03*
Y952000D02*
D03*
X1056285Y969000D02*
D03*
Y960000D02*
D03*
X1048000Y969000D02*
D03*
Y960000D02*
D03*
D105*
X1316000Y1063000D02*
D03*
Y1049000D02*
D03*
X1233000Y933000D02*
D03*
Y947000D02*
D03*
X898000Y896000D02*
D03*
Y882000D02*
D03*
X883000Y864000D02*
D03*
Y850000D02*
D03*
X1281000Y835000D02*
D03*
Y849000D02*
D03*
X1132000Y947000D02*
D03*
Y961000D02*
D03*
X1392000Y1053000D02*
D03*
Y1039000D02*
D03*
X1346000Y1045000D02*
D03*
Y1031000D02*
D03*
X1146000Y1112000D02*
D03*
Y1126000D02*
D03*
D106*
X1283000Y1182000D02*
D03*
X1269000D02*
D03*
X1232000Y900000D02*
D03*
X1218000D02*
D03*
X1208000Y899000D02*
D03*
X1194000D02*
D03*
X1185000Y973000D02*
D03*
X1171000D02*
D03*
X1190000Y1058000D02*
D03*
X1176000D02*
D03*
X1200000Y1058000D02*
D03*
X1214000D02*
D03*
X1166000Y1102000D02*
D03*
X1180000D02*
D03*
D108*
X1212000Y1245000D02*
D03*
X1220000D02*
D03*
X1361343Y1203500D02*
D03*
X1369343D02*
D03*
X1325343Y1188500D02*
D03*
X1333343D02*
D03*
X1285000Y980000D02*
D03*
X1277000D02*
D03*
X1302000Y932000D02*
D03*
X1310000D02*
D03*
X1361343Y1215500D02*
D03*
X1369343D02*
D03*
X1325000Y867000D02*
D03*
X1333000D02*
D03*
X1325343Y1200500D02*
D03*
X1333343D02*
D03*
X1352750Y1160000D02*
D03*
X1360750D02*
D03*
X1369000Y852000D02*
D03*
X1361000D02*
D03*
X1358000Y903000D02*
D03*
X1350000D02*
D03*
X1369000Y864000D02*
D03*
X1361000D02*
D03*
X1325000Y879000D02*
D03*
X1333000D02*
D03*
X1155000Y929000D02*
D03*
X1147000D02*
D03*
X1300000Y1135000D02*
D03*
X1292000D02*
D03*
X1314000Y1088000D02*
D03*
X1306000D02*
D03*
X1033000Y1233000D02*
D03*
X1041000D02*
D03*
X1163000Y1024000D02*
D03*
X1171000D02*
D03*
X1090000Y1141000D02*
D03*
X1098000D02*
D03*
D112*
X1645250Y1187300D02*
D03*
Y1242700D02*
D03*
Y827300D02*
D03*
Y882700D02*
D03*
Y947300D02*
D03*
Y1002700D02*
D03*
Y1067300D02*
D03*
Y1122700D02*
D03*
Y1307300D02*
D03*
Y1362700D02*
D03*
Y707300D02*
D03*
Y762700D02*
D03*
D113*
X830000Y839000D02*
D03*
X811000Y773000D02*
D03*
X927000Y770000D02*
D03*
X1207000Y1112000D02*
D03*
X1355000Y1087500D02*
D03*
X1280000Y915000D02*
D03*
X1347500Y1169500D02*
D03*
X1382000Y867000D02*
D03*
X1379000Y1157000D02*
D03*
X1345000Y870000D02*
D03*
X1270000Y883000D02*
D03*
X1237000Y1058000D02*
D03*
X1395000Y1015000D02*
D03*
X1144000Y976000D02*
D03*
X918000Y907000D02*
D03*
X967000Y1206000D02*
D03*
X793000Y889000D02*
D03*
X989000Y842000D02*
D03*
X1237000Y996000D02*
D03*
X1213000Y993000D02*
D03*
D129*
X1122000Y1237750D02*
D03*
Y1231250D02*
D03*
Y1224750D02*
D03*
Y1218250D02*
D03*
Y1211750D02*
D03*
Y1205250D02*
D03*
Y1198750D02*
D03*
Y1192250D02*
D03*
X1066000Y1237750D02*
D03*
Y1231250D02*
D03*
Y1224750D02*
D03*
Y1218250D02*
D03*
Y1211750D02*
D03*
Y1205250D02*
D03*
Y1198750D02*
D03*
Y1192250D02*
D03*
D130*
X1318250Y965750D02*
D03*
Y959250D02*
D03*
Y952750D02*
D03*
Y946250D02*
D03*
X1277750Y965750D02*
D03*
Y959250D02*
D03*
Y952750D02*
D03*
Y946250D02*
D03*
X1319250Y1121750D02*
D03*
Y1115250D02*
D03*
Y1108750D02*
D03*
Y1102250D02*
D03*
X1278750Y1121750D02*
D03*
Y1115250D02*
D03*
Y1108750D02*
D03*
Y1102250D02*
D03*
D133*
X904000Y809000D02*
D03*
Y837000D02*
D03*
D141*
X1359500Y1032000D02*
D03*
X1378500D02*
D03*
Y1056000D02*
D03*
X1369000D02*
D03*
X1359500D02*
D03*
D152*
X980000Y1060800D02*
D03*
Y1111600D02*
D03*
Y1086200D02*
D03*
Y1035400D02*
D03*
Y1010000D02*
D03*
Y984600D02*
D03*
D153*
Y1137000D02*
D03*
D154*
X1517650Y806450D02*
D03*
X1492250D02*
D03*
X1466850D02*
D03*
X1441450D02*
D03*
X1416050D02*
D03*
X1390650D02*
D03*
X1365250D02*
D03*
X1339850D02*
D03*
X1314450D02*
D03*
X1289050D02*
D03*
X1263650D02*
D03*
X1238250D02*
D03*
X1212850D02*
D03*
X1187450D02*
D03*
X1162050D02*
D03*
X1136650D02*
D03*
X1111250D02*
D03*
X1085850D02*
D03*
X1060450D02*
D03*
X1035050D02*
D03*
X1009650D02*
D03*
X984250D02*
D03*
X958850D02*
D03*
X1517650Y781050D02*
D03*
X1492250D02*
D03*
X1466850D02*
D03*
X1441450D02*
D03*
X1416050D02*
D03*
X1390650D02*
D03*
X1365250D02*
D03*
X1339850D02*
D03*
X1314450D02*
D03*
X1289050D02*
D03*
X1263650D02*
D03*
X1238250D02*
D03*
X1212850D02*
D03*
X1187450D02*
D03*
X1162050D02*
D03*
X1136650D02*
D03*
X1111250D02*
D03*
X1085850D02*
D03*
X1060450D02*
D03*
X1035050D02*
D03*
X1009650D02*
D03*
X984250D02*
D03*
Y1263650D02*
D03*
X1009650D02*
D03*
X1035050D02*
D03*
X1060450D02*
D03*
X1085850D02*
D03*
X1111250D02*
D03*
X1136650D02*
D03*
X1162050D02*
D03*
X1187450D02*
D03*
X1212850D02*
D03*
X1238250D02*
D03*
X1263650D02*
D03*
X1289050D02*
D03*
X1314450D02*
D03*
X1339850D02*
D03*
X1365250D02*
D03*
X1390650D02*
D03*
X1416050D02*
D03*
X1441450D02*
D03*
X1466850D02*
D03*
X1492250D02*
D03*
X1517650D02*
D03*
X958850Y1289050D02*
D03*
X984250D02*
D03*
X1009650D02*
D03*
X1035050D02*
D03*
X1060450D02*
D03*
X1085850D02*
D03*
X1111250D02*
D03*
X1136650D02*
D03*
X1162050D02*
D03*
X1187450D02*
D03*
X1212850D02*
D03*
X1238250D02*
D03*
X1263650D02*
D03*
X1289050D02*
D03*
X1314450D02*
D03*
X1339850D02*
D03*
X1365250D02*
D03*
X1390650D02*
D03*
X1416050D02*
D03*
X1441450D02*
D03*
X1466850D02*
D03*
X1492250D02*
D03*
X1517650D02*
D03*
D155*
X958850Y781050D02*
D03*
Y1263650D02*
D03*
D156*
X874000Y797750D02*
D03*
Y772250D02*
D03*
X845000Y797500D02*
D03*
Y772000D02*
D03*
D157*
X1375250Y889500D02*
D03*
Y883000D02*
D03*
Y876500D02*
D03*
X1354750D02*
D03*
Y883000D02*
D03*
Y889500D02*
D03*
X1356750Y1178500D02*
D03*
Y1185000D02*
D03*
Y1191500D02*
D03*
X1377250D02*
D03*
Y1185000D02*
D03*
Y1178500D02*
D03*
X1336250Y1163500D02*
D03*
Y1176500D02*
D03*
X1315750D02*
D03*
Y1170000D02*
D03*
Y1163500D02*
D03*
X1335250Y890500D02*
D03*
Y903500D02*
D03*
X1314750D02*
D03*
Y897000D02*
D03*
Y890500D02*
D03*
D158*
X1345933Y1214590D02*
D03*
X1331933D02*
D03*
X1173000Y902000D02*
D03*
X1159000D02*
D03*
X1345590Y852910D02*
D03*
X1331590D02*
D03*
X1177000Y988000D02*
D03*
X1163000D02*
D03*
X1298000Y1018000D02*
D03*
X1312000D02*
D03*
X1149000Y1058000D02*
D03*
X1163000D02*
D03*
X866000Y853000D02*
D03*
X852000D02*
D03*
D159*
X932000Y786900D02*
D03*
Y807100D02*
D03*
D160*
X1198000Y1032000D02*
D03*
X1217000Y872000D02*
D03*
D161*
X1183250Y1041750D02*
D03*
Y1035250D02*
D03*
Y1028750D02*
D03*
Y1022250D02*
D03*
X1212750D02*
D03*
Y1028750D02*
D03*
Y1035250D02*
D03*
Y1041750D02*
D03*
X1231750Y881750D02*
D03*
Y875250D02*
D03*
Y868750D02*
D03*
Y862250D02*
D03*
X1202250D02*
D03*
Y868750D02*
D03*
Y875250D02*
D03*
Y881750D02*
D03*
D162*
X1107000Y1164500D02*
D03*
Y1159500D02*
D03*
Y1154500D02*
D03*
Y1149500D02*
D03*
X1077000Y1164500D02*
D03*
Y1159500D02*
D03*
Y1154500D02*
D03*
Y1149500D02*
D03*
D163*
X1161000Y1117500D02*
D03*
Y1127000D02*
D03*
Y1136500D02*
D03*
X1185000D02*
D03*
Y1117500D02*
D03*
D164*
X1146000Y1100000D02*
D03*
Y1086000D02*
D03*
D165*
X938000Y870000D02*
D03*
D166*
X913000Y885000D02*
D03*
Y855000D02*
D03*
D167*
X915000Y870000D02*
D03*
D168*
X1018285Y1126750D02*
D03*
X1024785D02*
D03*
X1031285D02*
D03*
X1037785D02*
D03*
X1018285Y1084250D02*
D03*
X1024785D02*
D03*
X1031285D02*
D03*
X1037785D02*
D03*
X1009285Y1056750D02*
D03*
X1015785D02*
D03*
X1022285D02*
D03*
X1028785D02*
D03*
X1009285Y1014250D02*
D03*
X1015785D02*
D03*
X1022285D02*
D03*
X1028785D02*
D03*
X1017285Y981250D02*
D03*
X1023785D02*
D03*
X1030285D02*
D03*
X1036785D02*
D03*
X1017285Y938750D02*
D03*
X1023785D02*
D03*
X1030285D02*
D03*
X1036785D02*
D03*
D169*
X1292500Y1245750D02*
D03*
Y1239250D02*
D03*
Y1232750D02*
D03*
Y1226250D02*
D03*
Y1219750D02*
D03*
Y1213250D02*
D03*
Y1206750D02*
D03*
Y1200250D02*
D03*
X1235500Y1245750D02*
D03*
Y1239250D02*
D03*
Y1232750D02*
D03*
Y1226250D02*
D03*
Y1219750D02*
D03*
Y1213250D02*
D03*
Y1206750D02*
D03*
Y1200250D02*
D03*
D170*
X1146250Y959500D02*
D03*
Y940500D02*
D03*
X1171750D02*
D03*
Y950000D02*
D03*
Y959500D02*
D03*
M02*
