G04 Layer_Color=2752767*
%FSLAX44Y44*%
%MOMM*%
G71*
G01*
G75*
%ADD175C,0.0508*%
%ADD176C,0.0677*%
D175*
X977968Y1058768D02*
Y1062832D01*
X982032D01*
Y1058768D01*
X977968D01*
Y1134968D02*
Y1139032D01*
X982032D01*
Y1134968D01*
X977968D01*
Y1109568D02*
Y1113632D01*
X982032D01*
Y1109568D01*
X977968D01*
Y1084168D02*
Y1088232D01*
X982032D01*
Y1084168D01*
X977968D01*
Y1033368D02*
Y1037432D01*
X982032D01*
Y1033368D01*
X977968D01*
Y1007968D02*
Y1012032D01*
X982032D01*
Y1007968D01*
X977968D01*
Y982568D02*
Y986632D01*
X982032D01*
Y982568D01*
X977968D01*
X768000Y838968D02*
X765968Y843032D01*
X770032D01*
X768000Y838968D01*
X773000D02*
X770968Y843032D01*
X775032D01*
X773000Y838968D01*
X778000D02*
X775968Y843032D01*
X780032D01*
X778000Y838968D01*
X783000D02*
X780968Y843032D01*
X785032D01*
X783000Y838968D01*
X827000Y799968D02*
X824968Y804032D01*
X829032D01*
X827000Y799968D01*
X822000D02*
X819968Y804032D01*
X824032D01*
X822000Y799968D01*
X817000Y799968D02*
X814968Y804032D01*
X819032D01*
X817000Y799968D01*
X825000Y792968D02*
X822968Y797032D01*
X827032D01*
X825000Y792968D01*
X810000D02*
X807968Y797032D01*
X812032D01*
X810000Y792968D01*
X815000D02*
X812968Y797032D01*
X817032D01*
X815000Y792968D01*
X1247000Y1251968D02*
X1244968Y1256032D01*
X1249032D01*
X1247000Y1251968D01*
X1277000Y1253968D02*
X1274968Y1258032D01*
X1279032D01*
X1277000Y1253968D01*
X1271000Y1241968D02*
X1272016Y1242984D01*
X1273032D01*
X1272016Y1244000D01*
X1273032Y1245016D01*
X1272016D01*
X1271000Y1246032D01*
X1269984Y1245016D01*
X1268968D01*
X1269984Y1244000D01*
X1268968Y1242984D01*
X1269984D01*
X1271000Y1241968D01*
X1262000Y1244968D02*
X1263016Y1245984D01*
X1264032D01*
X1263016Y1247000D01*
X1264032Y1248016D01*
X1263016D01*
X1262000Y1249032D01*
X1260984Y1248016D01*
X1259968D01*
X1260984Y1247000D01*
X1259968Y1245984D01*
X1260984D01*
X1262000Y1244968D01*
X1086000Y1149068D02*
X1087016Y1150084D01*
X1088032D01*
X1087016Y1151100D01*
X1088032Y1152116D01*
X1087016D01*
X1086000Y1153132D01*
X1084984Y1152116D01*
X1083968D01*
X1084984Y1151100D01*
X1083968Y1150084D01*
X1084984D01*
X1086000Y1149068D01*
X779000Y800968D02*
X776968Y805032D01*
X781032D01*
X779000Y800968D01*
X834000Y816968D02*
X831968Y821032D01*
X836032D01*
X834000Y816968D01*
X820000Y792968D02*
X817968Y797032D01*
X822032D01*
X820000Y792968D01*
X849998Y819966D02*
X847966Y824030D01*
X852030D01*
X849998Y819966D01*
X844600Y824568D02*
X845616Y825584D01*
X846632D01*
X845616Y826600D01*
X846632Y827616D01*
X845616D01*
X844600Y828632D01*
X843584Y827616D01*
X842568D01*
X843584Y826600D01*
X842568Y825584D01*
X843584D01*
X844600Y824568D01*
X1201250Y1092968D02*
X1202266Y1093984D01*
X1203282D01*
X1202266Y1095000D01*
X1203282Y1096016D01*
X1202266D01*
X1201250Y1097032D01*
X1200234Y1096016D01*
X1199218D01*
X1200234Y1095000D01*
X1199218Y1093984D01*
X1200234D01*
X1201250Y1092968D01*
X1203000Y1082968D02*
X1204016Y1083984D01*
X1205032D01*
X1204016Y1085000D01*
X1205032Y1086016D01*
X1204016D01*
X1203000Y1087032D01*
X1201984Y1086016D01*
X1200968D01*
X1201984Y1085000D01*
X1200968Y1083984D01*
X1201984D01*
X1203000Y1082968D01*
Y1076968D02*
X1204016Y1077984D01*
X1205032D01*
X1204016Y1079000D01*
X1205032Y1080016D01*
X1204016D01*
X1203000Y1081032D01*
X1201984Y1080016D01*
X1200968D01*
X1201984Y1079000D01*
X1200968Y1077984D01*
X1201984D01*
X1203000Y1076968D01*
X1301500Y1054968D02*
X1302516Y1055984D01*
X1303532D01*
X1302516Y1057000D01*
X1303532Y1058016D01*
X1302516D01*
X1301500Y1059032D01*
X1300484Y1058016D01*
X1299468D01*
X1300484Y1057000D01*
X1299468Y1055984D01*
X1300484D01*
X1301500Y1054968D01*
X1413000Y929468D02*
X1414016Y930484D01*
X1415032D01*
X1414016Y931500D01*
X1415032Y932516D01*
X1414016D01*
X1413000Y933532D01*
X1411984Y932516D01*
X1410968D01*
X1411984Y931500D01*
X1410968Y930484D01*
X1411984D01*
X1413000Y929468D01*
X1387750Y1125218D02*
X1385718Y1129282D01*
X1389782D01*
X1387750Y1125218D01*
X1589000Y1177968D02*
X1590016Y1178984D01*
X1591032D01*
X1590016Y1180000D01*
X1591032Y1181016D01*
X1590016D01*
X1589000Y1182032D01*
X1587984Y1181016D01*
X1586968D01*
X1587984Y1180000D01*
X1586968Y1178984D01*
X1587984D01*
X1589000Y1177968D01*
X1645000Y1198968D02*
X1646016Y1199984D01*
X1647032D01*
X1646016Y1201000D01*
X1647032Y1202016D01*
X1646016D01*
X1645000Y1203032D01*
X1643984Y1202016D01*
X1642968D01*
X1643984Y1201000D01*
X1642968Y1199984D01*
X1643984D01*
X1645000Y1198968D01*
Y1226968D02*
X1646016Y1227984D01*
X1647032D01*
X1646016Y1229000D01*
X1647032Y1230016D01*
X1646016D01*
X1645000Y1231032D01*
X1643984Y1230016D01*
X1642968D01*
X1643984Y1229000D01*
X1642968Y1227984D01*
X1643984D01*
X1645000Y1226968D01*
X1570000Y864968D02*
X1571016Y865984D01*
X1572032D01*
X1571016Y867000D01*
X1572032Y868016D01*
X1571016D01*
X1570000Y869032D01*
X1568984Y868016D01*
X1567968D01*
X1568984Y867000D01*
X1567968Y865984D01*
X1568984D01*
X1570000Y864968D01*
X1644000Y718968D02*
X1645016Y719984D01*
X1646032D01*
X1645016Y721000D01*
X1646032Y722016D01*
X1645016D01*
X1644000Y723032D01*
X1642984Y722016D01*
X1641968D01*
X1642984Y721000D01*
X1641968Y719984D01*
X1642984D01*
X1644000Y718968D01*
X1645000Y746968D02*
X1646016Y747984D01*
X1647032D01*
X1646016Y749000D01*
X1647032Y750016D01*
X1646016D01*
X1645000Y751032D01*
X1643984Y750016D01*
X1642968D01*
X1643984Y749000D01*
X1642968Y747984D01*
X1643984D01*
X1645000Y746968D01*
X849000Y1221968D02*
X850016Y1222984D01*
X851032D01*
X850016Y1224000D01*
X851032Y1225016D01*
X850016D01*
X849000Y1226032D01*
X847984Y1225016D01*
X846968D01*
X847984Y1224000D01*
X846968Y1222984D01*
X847984D01*
X849000Y1221968D01*
X860000Y1243968D02*
X861016Y1244984D01*
X862032D01*
X861016Y1246000D01*
X862032Y1247016D01*
X861016D01*
X860000Y1248032D01*
X858984Y1247016D01*
X857968D01*
X858984Y1246000D01*
X857968Y1244984D01*
X858984D01*
X860000Y1243968D01*
X845000Y1271968D02*
X846016Y1272984D01*
X847032D01*
X846016Y1274000D01*
X847032Y1275016D01*
X846016D01*
X845000Y1276032D01*
X843984Y1275016D01*
X842968D01*
X843984Y1274000D01*
X842968Y1272984D01*
X843984D01*
X845000Y1271968D01*
X858000Y1273968D02*
X859016Y1274984D01*
X860032D01*
X859016Y1276000D01*
X860032Y1277016D01*
X859016D01*
X858000Y1278032D01*
X856984Y1277016D01*
X855968D01*
X856984Y1276000D01*
X855968Y1274984D01*
X856984D01*
X858000Y1273968D01*
X1107000Y1116968D02*
X1108016Y1117984D01*
X1109032D01*
X1108016Y1119000D01*
X1109032Y1120016D01*
X1108016D01*
X1107000Y1121032D01*
X1105984Y1120016D01*
X1104968D01*
X1105984Y1119000D01*
X1104968Y1117984D01*
X1105984D01*
X1107000Y1116968D01*
X1106000Y912968D02*
X1107016Y913984D01*
X1108032D01*
X1107016Y915000D01*
X1108032Y916016D01*
X1107016D01*
X1106000Y917032D01*
X1104984Y916016D01*
X1103968D01*
X1104984Y915000D01*
X1103968Y913984D01*
X1104984D01*
X1106000Y912968D01*
X1432000Y1166968D02*
X1433016Y1167984D01*
X1434032D01*
X1433016Y1169000D01*
X1434032Y1170016D01*
X1433016D01*
X1432000Y1171032D01*
X1430984Y1170016D01*
X1429968D01*
X1430984Y1169000D01*
X1429968Y1167984D01*
X1430984D01*
X1432000Y1166968D01*
X939000Y1240968D02*
X940016Y1241984D01*
X941032D01*
X940016Y1243000D01*
X941032Y1244016D01*
X940016D01*
X939000Y1245032D01*
X937984Y1244016D01*
X936968D01*
X937984Y1243000D01*
X936968Y1241984D01*
X937984D01*
X939000Y1240968D01*
X912000Y1241968D02*
X913016Y1242984D01*
X914032D01*
X913016Y1244000D01*
X914032Y1245016D01*
X913016D01*
X912000Y1246032D01*
X910984Y1245016D01*
X909968D01*
X910984Y1244000D01*
X909968Y1242984D01*
X910984D01*
X912000Y1241968D01*
X1473997Y926966D02*
X1471965Y931030D01*
X1476029D01*
X1473997Y926966D01*
X1110000Y1175968D02*
X1111016Y1176984D01*
X1112032D01*
X1111016Y1178000D01*
X1112032Y1179016D01*
X1111016D01*
X1110000Y1180032D01*
X1108984Y1179016D01*
X1107968D01*
X1108984Y1178000D01*
X1107968Y1176984D01*
X1108984D01*
X1110000Y1175968D01*
X1365000Y907968D02*
X1366016Y908984D01*
X1367032D01*
X1366016Y910000D01*
X1367032Y911016D01*
X1366016D01*
X1365000Y912032D01*
X1363984Y911016D01*
X1362968D01*
X1363984Y910000D01*
X1362968Y908984D01*
X1363984D01*
X1365000Y907968D01*
X1343000Y1153968D02*
X1344016Y1154984D01*
X1345032D01*
X1344016Y1156000D01*
X1345032Y1157016D01*
X1344016D01*
X1343000Y1158032D01*
X1341984Y1157016D01*
X1340968D01*
X1341984Y1156000D01*
X1340968Y1154984D01*
X1341984D01*
X1343000Y1153968D01*
X1377000Y1196968D02*
X1374968Y1201032D01*
X1379032D01*
X1377000Y1196968D01*
X1319000Y927968D02*
X1320016Y928984D01*
X1321032D01*
X1320016Y930000D01*
X1321032Y931016D01*
X1320016D01*
X1319000Y932032D01*
X1317984Y931016D01*
X1316968D01*
X1317984Y930000D01*
X1316968Y928984D01*
X1317984D01*
X1319000Y927968D01*
X1300000Y1141968D02*
X1301016Y1142984D01*
X1302032D01*
X1301016Y1144000D01*
X1302032Y1145016D01*
X1301016D01*
X1300000Y1146032D01*
X1298984Y1145016D01*
X1297968D01*
X1298984Y1144000D01*
X1297968Y1142984D01*
X1298984D01*
X1300000Y1141968D01*
X1320000Y972968D02*
X1321016Y973984D01*
X1322032D01*
X1321016Y975000D01*
X1322032Y976016D01*
X1321016D01*
X1320000Y977032D01*
X1318984Y976016D01*
X1317968D01*
X1318984Y975000D01*
X1317968Y973984D01*
X1318984D01*
X1320000Y972968D01*
X1031000Y1035968D02*
X1032016Y1036984D01*
X1033032D01*
X1032016Y1038000D01*
X1033032Y1039016D01*
X1032016D01*
X1031000Y1040032D01*
X1029984Y1039016D01*
X1028968D01*
X1029984Y1038000D01*
X1028968Y1036984D01*
X1029984D01*
X1031000Y1035968D01*
X1094000Y1128968D02*
X1095016Y1129984D01*
X1096032D01*
X1095016Y1131000D01*
X1096032Y1132016D01*
X1095016D01*
X1094000Y1133032D01*
X1092984Y1132016D01*
X1091968D01*
X1092984Y1131000D01*
X1091968Y1129984D01*
X1092984D01*
X1094000Y1128968D01*
X1073000Y953968D02*
X1070968Y958032D01*
X1075032D01*
X1073000Y953968D01*
X1043000Y904968D02*
X1040968Y909032D01*
X1045032D01*
X1043000Y904968D01*
X1056000Y1022968D02*
X1053968Y1027032D01*
X1058032D01*
X1056000Y1022968D01*
X1207000Y1166968D02*
X1208016Y1167984D01*
X1209032D01*
X1208016Y1169000D01*
X1209032Y1170016D01*
X1208016D01*
X1207000Y1171032D01*
X1205984Y1170016D01*
X1204968D01*
X1205984Y1169000D01*
X1204968Y1167984D01*
X1205984D01*
X1207000Y1166968D01*
X1200000Y1252968D02*
X1201016Y1253984D01*
X1202032D01*
X1201016Y1255000D01*
X1202032Y1256016D01*
X1201016D01*
X1200000Y1257032D01*
X1198984Y1256016D01*
X1197968D01*
X1198984Y1255000D01*
X1197968Y1253984D01*
X1198984D01*
X1200000Y1252968D01*
X1086998Y1158966D02*
X1088014Y1159982D01*
X1089030D01*
X1088014Y1160998D01*
X1089030Y1162014D01*
X1088014D01*
X1086998Y1163030D01*
X1085982Y1162014D01*
X1084966D01*
X1085982Y1160998D01*
X1084966Y1159982D01*
X1085982D01*
X1086998Y1158966D01*
X1178000Y864968D02*
X1179016Y865984D01*
X1180032D01*
X1179016Y867000D01*
X1180032Y868016D01*
X1179016D01*
X1178000Y869032D01*
X1176984Y868016D01*
X1175968D01*
X1176984Y867000D01*
X1175968Y865984D01*
X1176984D01*
X1178000Y864968D01*
X1109000Y1204968D02*
X1106968Y1209032D01*
X1111032D01*
X1109000Y1204968D01*
X1379000Y1210968D02*
X1380016Y1211984D01*
X1381032D01*
X1380016Y1213000D01*
X1381032Y1214016D01*
X1380016D01*
X1379000Y1215032D01*
X1377984Y1214016D01*
X1376968D01*
X1377984Y1213000D01*
X1376968Y1211984D01*
X1377984D01*
X1379000Y1210968D01*
X1378000Y916968D02*
X1379016Y917984D01*
X1380032D01*
X1379016Y919000D01*
X1380032Y920016D01*
X1379016D01*
X1378000Y921032D01*
X1376984Y920016D01*
X1375968D01*
X1376984Y919000D01*
X1375968Y917984D01*
X1376984D01*
X1378000Y916968D01*
X1443000Y1083968D02*
X1444016Y1084984D01*
X1445032D01*
X1444016Y1086000D01*
X1445032Y1087016D01*
X1444016D01*
X1443000Y1088032D01*
X1441984Y1087016D01*
X1440968D01*
X1441984Y1086000D01*
X1440968Y1084984D01*
X1441984D01*
X1443000Y1083968D01*
X817000Y852968D02*
X818016Y853984D01*
X819032D01*
X818016Y855000D01*
X819032Y856016D01*
X818016D01*
X817000Y857032D01*
X815984Y856016D01*
X814968D01*
X815984Y855000D01*
X814968Y853984D01*
X815984D01*
X817000Y852968D01*
X1453000Y884968D02*
X1454016Y885984D01*
X1455032D01*
X1454016Y887000D01*
X1455032Y888016D01*
X1454016D01*
X1453000Y889032D01*
X1451984Y888016D01*
X1450968D01*
X1451984Y887000D01*
X1450968Y885984D01*
X1451984D01*
X1453000Y884968D01*
X1044000Y791968D02*
X1045016Y792984D01*
X1046032D01*
X1045016Y794000D01*
X1046032Y795016D01*
X1045016D01*
X1044000Y796032D01*
X1042984Y795016D01*
X1041968D01*
X1042984Y794000D01*
X1041968Y792984D01*
X1042984D01*
X1044000Y791968D01*
X1028000Y790968D02*
X1029016Y791984D01*
X1030032D01*
X1029016Y793000D01*
X1030032Y794016D01*
X1029016D01*
X1028000Y795032D01*
X1026984Y794016D01*
X1025968D01*
X1026984Y793000D01*
X1025968Y791984D01*
X1026984D01*
X1028000Y790968D01*
X1016000D02*
X1017016Y791984D01*
X1018032D01*
X1017016Y793000D01*
X1018032Y794016D01*
X1017016D01*
X1016000Y795032D01*
X1014984Y794016D01*
X1013968D01*
X1014984Y793000D01*
X1013968Y791984D01*
X1014984D01*
X1016000Y790968D01*
X1175000Y787968D02*
X1176016Y788984D01*
X1177032D01*
X1176016Y790000D01*
X1177032Y791016D01*
X1176016D01*
X1175000Y792032D01*
X1173984Y791016D01*
X1172968D01*
X1173984Y790000D01*
X1172968Y788984D01*
X1173984D01*
X1175000Y787968D01*
X806000Y942968D02*
X807016Y943984D01*
X808032D01*
X807016Y945000D01*
X808032Y946016D01*
X807016D01*
X806000Y947032D01*
X804984Y946016D01*
X803968D01*
X804984Y945000D01*
X803968Y943984D01*
X804984D01*
X806000Y942968D01*
X812000D02*
X813016Y943984D01*
X814032D01*
X813016Y945000D01*
X814032Y946016D01*
X813016D01*
X812000Y947032D01*
X810984Y946016D01*
X809968D01*
X810984Y945000D01*
X809968Y943984D01*
X810984D01*
X812000Y942968D01*
X818000D02*
X819016Y943984D01*
X820032D01*
X819016Y945000D01*
X820032Y946016D01*
X819016D01*
X818000Y947032D01*
X816984Y946016D01*
X815968D01*
X816984Y945000D01*
X815968Y943984D01*
X816984D01*
X818000Y942968D01*
X824000D02*
X825016Y943984D01*
X826032D01*
X825016Y945000D01*
X826032Y946016D01*
X825016D01*
X824000Y947032D01*
X822984Y946016D01*
X821968D01*
X822984Y945000D01*
X821968Y943984D01*
X822984D01*
X824000Y942968D01*
X1117000Y970968D02*
X1114968Y975032D01*
X1119032D01*
X1117000Y970968D01*
X1478000Y1026968D02*
X1479016Y1027984D01*
X1480032D01*
X1479016Y1029000D01*
X1480032Y1030016D01*
X1479016D01*
X1478000Y1031032D01*
X1476984Y1030016D01*
X1475968D01*
X1476984Y1029000D01*
X1475968Y1027984D01*
X1476984D01*
X1478000Y1026968D01*
X1153998Y789966D02*
X1155014Y790982D01*
X1156030D01*
X1155014Y791998D01*
X1156030Y793014D01*
X1155014D01*
X1153998Y794030D01*
X1152982Y793014D01*
X1151966D01*
X1152982Y791998D01*
X1151966Y790982D01*
X1152982D01*
X1153998Y789966D01*
X1146000Y792968D02*
X1147016Y793984D01*
X1148032D01*
X1147016Y795000D01*
X1148032Y796016D01*
X1147016D01*
X1146000Y797032D01*
X1144984Y796016D01*
X1143968D01*
X1144984Y795000D01*
X1143968Y793984D01*
X1144984D01*
X1146000Y792968D01*
X1053192Y792776D02*
X1054208Y793792D01*
X1055224D01*
X1054208Y794808D01*
X1055224Y795824D01*
X1054208D01*
X1053192Y796840D01*
X1052176Y795824D01*
X1051160D01*
X1052176Y794808D01*
X1051160Y793792D01*
X1052176D01*
X1053192Y792776D01*
X1311000Y1246968D02*
X1312016Y1247984D01*
X1313032D01*
X1312016Y1249000D01*
X1313032Y1250016D01*
X1312016D01*
X1311000Y1251032D01*
X1309984Y1250016D01*
X1308968D01*
X1309984Y1249000D01*
X1308968Y1247984D01*
X1309984D01*
X1311000Y1246968D01*
X1303000Y1269968D02*
X1304016Y1270984D01*
X1305032D01*
X1304016Y1272000D01*
X1305032Y1273016D01*
X1304016D01*
X1303000Y1274032D01*
X1301984Y1273016D01*
X1300968D01*
X1301984Y1272000D01*
X1300968Y1270984D01*
X1301984D01*
X1303000Y1269968D01*
X1253780Y1273188D02*
X1254796Y1274204D01*
X1255812D01*
X1254796Y1275220D01*
X1255812Y1276236D01*
X1254796D01*
X1253780Y1277252D01*
X1252764Y1276236D01*
X1251748D01*
X1252764Y1275220D01*
X1251748Y1274204D01*
X1252764D01*
X1253780Y1273188D01*
X1017000Y1029968D02*
X1018016Y1030984D01*
X1019032D01*
X1018016Y1032000D01*
X1019032Y1033016D01*
X1018016D01*
X1017000Y1034032D01*
X1015984Y1033016D01*
X1014968D01*
X1015984Y1032000D01*
X1014968Y1030984D01*
X1015984D01*
X1017000Y1029968D01*
X1119000Y1182968D02*
X1120016Y1183984D01*
X1121032D01*
X1120016Y1185000D01*
X1121032Y1186016D01*
X1120016D01*
X1119000Y1187032D01*
X1117984Y1186016D01*
X1116968D01*
X1117984Y1185000D01*
X1116968Y1183984D01*
X1117984D01*
X1119000Y1182968D01*
X1084000Y1129968D02*
X1085016Y1130984D01*
X1086032D01*
X1085016Y1132000D01*
X1086032Y1133016D01*
X1085016D01*
X1084000Y1134032D01*
X1082984Y1133016D01*
X1081968D01*
X1082984Y1132000D01*
X1081968Y1130984D01*
X1082984D01*
X1084000Y1129968D01*
X1036000Y1173968D02*
X1037016Y1174984D01*
X1038032D01*
X1037016Y1176000D01*
X1038032Y1177016D01*
X1037016D01*
X1036000Y1178032D01*
X1034984Y1177016D01*
X1033968D01*
X1034984Y1176000D01*
X1033968Y1174984D01*
X1034984D01*
X1036000Y1173968D01*
X1038000Y1242968D02*
X1039016Y1243984D01*
X1040032D01*
X1039016Y1245000D01*
X1040032Y1246016D01*
X1039016D01*
X1038000Y1247032D01*
X1036984Y1246016D01*
X1035968D01*
X1036984Y1245000D01*
X1035968Y1243984D01*
X1036984D01*
X1038000Y1242968D01*
X1210000Y1206393D02*
X1211016Y1207409D01*
X1212032D01*
X1211016Y1208425D01*
X1212032Y1209441D01*
X1211016D01*
X1210000Y1210457D01*
X1208984Y1209441D01*
X1207968D01*
X1208984Y1208425D01*
X1207968Y1207409D01*
X1208984D01*
X1210000Y1206393D01*
X1097998Y1159966D02*
X1099014Y1160982D01*
X1100030D01*
X1099014Y1161998D01*
X1100030Y1163014D01*
X1099014D01*
X1097998Y1164030D01*
X1096982Y1163014D01*
X1095966D01*
X1096982Y1161998D01*
X1095966Y1160982D01*
X1096982D01*
X1097998Y1159966D01*
X1107000Y1236968D02*
X1108016Y1237984D01*
X1109032D01*
X1108016Y1239000D01*
X1109032Y1240016D01*
X1108016D01*
X1107000Y1241032D01*
X1105984Y1240016D01*
X1104968D01*
X1105984Y1239000D01*
X1104968Y1237984D01*
X1105984D01*
X1107000Y1236968D01*
X1100000Y1228968D02*
X1101016Y1229984D01*
X1102032D01*
X1101016Y1231000D01*
X1102032Y1232016D01*
X1101016D01*
X1100000Y1233032D01*
X1098984Y1232016D01*
X1097968D01*
X1098984Y1231000D01*
X1097968Y1229984D01*
X1098984D01*
X1100000Y1228968D01*
X1080000Y1241968D02*
X1081016Y1242984D01*
X1082032D01*
X1081016Y1244000D01*
X1082032Y1245016D01*
X1081016D01*
X1080000Y1246032D01*
X1078984Y1245016D01*
X1077968D01*
X1078984Y1244000D01*
X1077968Y1242984D01*
X1078984D01*
X1080000Y1241968D01*
X1137000Y1232968D02*
X1138016Y1233984D01*
X1139032D01*
X1138016Y1235000D01*
X1139032Y1236016D01*
X1138016D01*
X1137000Y1237032D01*
X1135984Y1236016D01*
X1134968D01*
X1135984Y1235000D01*
X1134968Y1233984D01*
X1135984D01*
X1137000Y1232968D01*
X1134000Y1089968D02*
X1135016Y1090984D01*
X1136032D01*
X1135016Y1092000D01*
X1136032Y1093016D01*
X1135016D01*
X1134000Y1094032D01*
X1132984Y1093016D01*
X1131968D01*
X1132984Y1092000D01*
X1131968Y1090984D01*
X1132984D01*
X1134000Y1089968D01*
X1083250Y1225586D02*
X1081218Y1229650D01*
X1085282D01*
X1083250Y1225586D01*
X1091000Y1227968D02*
X1088968Y1232032D01*
X1093032D01*
X1091000Y1227968D01*
X1124000Y1253968D02*
X1125016Y1254984D01*
X1126032D01*
X1125016Y1256000D01*
X1126032Y1257016D01*
X1125016D01*
X1124000Y1258032D01*
X1122984Y1257016D01*
X1121968D01*
X1122984Y1256000D01*
X1121968Y1254984D01*
X1122984D01*
X1124000Y1253968D01*
X1022000Y1255968D02*
X1023016Y1256984D01*
X1024032D01*
X1023016Y1258000D01*
X1024032Y1259016D01*
X1023016D01*
X1022000Y1260032D01*
X1020984Y1259016D01*
X1019968D01*
X1020984Y1258000D01*
X1019968Y1256984D01*
X1020984D01*
X1022000Y1255968D01*
X1188000Y1242968D02*
X1189016Y1243984D01*
X1190032D01*
X1189016Y1245000D01*
X1190032Y1246016D01*
X1189016D01*
X1188000Y1247032D01*
X1186984Y1246016D01*
X1185968D01*
X1186984Y1245000D01*
X1185968Y1243984D01*
X1186984D01*
X1188000Y1242968D01*
X1178000Y1243968D02*
X1179016Y1244984D01*
X1180032D01*
X1179016Y1246000D01*
X1180032Y1247016D01*
X1179016D01*
X1178000Y1248032D01*
X1176984Y1247016D01*
X1175968D01*
X1176984Y1246000D01*
X1175968Y1244984D01*
X1176984D01*
X1178000Y1243968D01*
X1152666Y1254215D02*
X1153682Y1255231D01*
X1154698D01*
X1153682Y1256247D01*
X1154698Y1257263D01*
X1153682D01*
X1152666Y1258279D01*
X1151650Y1257263D01*
X1150634D01*
X1151650Y1256247D01*
X1150634Y1255231D01*
X1151650D01*
X1152666Y1254215D01*
X1150998Y1246965D02*
X1152014Y1247981D01*
X1153030D01*
X1152014Y1248997D01*
X1153030Y1250014D01*
X1152014D01*
X1150998Y1251030D01*
X1149982Y1250014D01*
X1148966D01*
X1149982Y1248997D01*
X1148966Y1247981D01*
X1149982D01*
X1150998Y1246965D01*
X1200000Y1271968D02*
X1201016Y1272984D01*
X1202032D01*
X1201016Y1274000D01*
X1202032Y1275016D01*
X1201016D01*
X1200000Y1276032D01*
X1198984Y1275016D01*
X1197968D01*
X1198984Y1274000D01*
X1197968Y1272984D01*
X1198984D01*
X1200000Y1271968D01*
X1203000Y1242968D02*
X1204016Y1243984D01*
X1205032D01*
X1204016Y1245000D01*
X1205032Y1246016D01*
X1204016D01*
X1203000Y1247032D01*
X1201984Y1246016D01*
X1200968D01*
X1201984Y1245000D01*
X1200968Y1243984D01*
X1201984D01*
X1203000Y1242968D01*
X1224997Y1251965D02*
X1226013Y1252981D01*
X1227029D01*
X1226013Y1253997D01*
X1227029Y1255014D01*
X1226013D01*
X1224997Y1256030D01*
X1223981Y1255014D01*
X1222965D01*
X1223981Y1253997D01*
X1222965Y1252981D01*
X1223981D01*
X1224997Y1251965D01*
X1199998Y1144966D02*
X1201014Y1145982D01*
X1202030D01*
X1201014Y1146998D01*
X1202030Y1148014D01*
X1201014D01*
X1199998Y1149030D01*
X1198982Y1148014D01*
X1197966D01*
X1198982Y1146998D01*
X1197966Y1145982D01*
X1198982D01*
X1199998Y1144966D01*
X1201000Y1158968D02*
X1202016Y1159984D01*
X1203032D01*
X1202016Y1161000D01*
X1203032Y1162016D01*
X1202016D01*
X1201000Y1163032D01*
X1199984Y1162016D01*
X1198968D01*
X1199984Y1161000D01*
X1198968Y1159984D01*
X1199984D01*
X1201000Y1158968D01*
X1026000Y1243968D02*
X1027016Y1244984D01*
X1028032D01*
X1027016Y1246000D01*
X1028032Y1247016D01*
X1027016D01*
X1026000Y1248032D01*
X1024984Y1247016D01*
X1023968D01*
X1024984Y1246000D01*
X1023968Y1244984D01*
X1024984D01*
X1026000Y1243968D01*
X1029000Y913968D02*
X1026968Y918032D01*
X1031032D01*
X1029000Y913968D01*
X1057000Y1031968D02*
X1058016Y1032984D01*
X1059032D01*
X1058016Y1034000D01*
X1059032Y1035016D01*
X1058016D01*
X1057000Y1036032D01*
X1055984Y1035016D01*
X1054968D01*
X1055984Y1034000D01*
X1054968Y1032984D01*
X1055984D01*
X1057000Y1031968D01*
X983000Y962968D02*
X980968Y967032D01*
X985032D01*
X983000Y962968D01*
X1022000Y865968D02*
X1023016Y866984D01*
X1024032D01*
X1023016Y868000D01*
X1024032Y869016D01*
X1023016D01*
X1022000Y870032D01*
X1020984Y869016D01*
X1019968D01*
X1020984Y868000D01*
X1019968Y866984D01*
X1020984D01*
X1022000Y865968D01*
X1166000Y1082968D02*
X1167016Y1083984D01*
X1168032D01*
X1167016Y1085000D01*
X1168032Y1086016D01*
X1167016D01*
X1166000Y1087032D01*
X1164984Y1086016D01*
X1163968D01*
X1164984Y1085000D01*
X1163968Y1083984D01*
X1164984D01*
X1166000Y1082968D01*
X1107000Y1107968D02*
X1108016Y1108984D01*
X1109032D01*
X1108016Y1110000D01*
X1109032Y1111016D01*
X1108016D01*
X1107000Y1112032D01*
X1105984Y1111016D01*
X1104968D01*
X1105984Y1110000D01*
X1104968Y1108984D01*
X1105984D01*
X1107000Y1107968D01*
X1199998Y1203966D02*
X1201014Y1204982D01*
X1202030D01*
X1201014Y1205998D01*
X1202030Y1207014D01*
X1201014D01*
X1199998Y1208030D01*
X1198982Y1207014D01*
X1197966D01*
X1198982Y1205998D01*
X1197966Y1204982D01*
X1198982D01*
X1199998Y1203966D01*
X1102998Y1098966D02*
X1104014Y1099982D01*
X1105030D01*
X1104014Y1100998D01*
X1105030Y1102014D01*
X1104014D01*
X1102998Y1103030D01*
X1101982Y1102014D01*
X1100966D01*
X1101982Y1100998D01*
X1100966Y1099982D01*
X1101982D01*
X1102998Y1098966D01*
X1222998Y1191966D02*
X1224014Y1192982D01*
X1225030D01*
X1224014Y1193998D01*
X1225030Y1195014D01*
X1224014D01*
X1222998Y1196030D01*
X1221982Y1195014D01*
X1220966D01*
X1221982Y1193998D01*
X1220966Y1192982D01*
X1221982D01*
X1222998Y1191966D01*
X1293000Y1178968D02*
X1294016Y1179984D01*
X1295032D01*
X1294016Y1181000D01*
X1295032Y1182016D01*
X1294016D01*
X1293000Y1183032D01*
X1291984Y1182016D01*
X1290968D01*
X1291984Y1181000D01*
X1290968Y1179984D01*
X1291984D01*
X1293000Y1178968D01*
X1172000Y1082968D02*
X1173016Y1083984D01*
X1174032D01*
X1173016Y1085000D01*
X1174032Y1086016D01*
X1173016D01*
X1172000Y1087032D01*
X1170984Y1086016D01*
X1169968D01*
X1170984Y1085000D01*
X1169968Y1083984D01*
X1170984D01*
X1172000Y1082968D01*
X1178000D02*
X1179016Y1083984D01*
X1180032D01*
X1179016Y1085000D01*
X1180032Y1086016D01*
X1179016D01*
X1178000Y1087032D01*
X1176984Y1086016D01*
X1175968D01*
X1176984Y1085000D01*
X1175968Y1083984D01*
X1176984D01*
X1178000Y1082968D01*
X964000Y827968D02*
X965016Y828984D01*
X966032D01*
X965016Y830000D01*
X966032Y831016D01*
X965016D01*
X964000Y832032D01*
X962984Y831016D01*
X961968D01*
X962984Y830000D01*
X961968Y828984D01*
X962984D01*
X964000Y827968D01*
X1103000Y831968D02*
X1104016Y832984D01*
X1105032D01*
X1104016Y834000D01*
X1105032Y835016D01*
X1104016D01*
X1103000Y836032D01*
X1101984Y835016D01*
X1100968D01*
X1101984Y834000D01*
X1100968Y832984D01*
X1101984D01*
X1103000Y831968D01*
X1105750Y892218D02*
X1106766Y893234D01*
X1107782D01*
X1106766Y894250D01*
X1107782Y895266D01*
X1106766D01*
X1105750Y896282D01*
X1104734Y895266D01*
X1103718D01*
X1104734Y894250D01*
X1103718Y893234D01*
X1104734D01*
X1105750Y892218D01*
X1294250Y1066218D02*
X1295266Y1067234D01*
X1296282D01*
X1295266Y1068250D01*
X1296282Y1069266D01*
X1295266D01*
X1294250Y1070282D01*
X1293234Y1069266D01*
X1292218D01*
X1293234Y1068250D01*
X1292218Y1067234D01*
X1293234D01*
X1294250Y1066218D01*
X1362000Y998968D02*
X1363016Y999984D01*
X1364032D01*
X1363016Y1001000D01*
X1364032Y1002016D01*
X1363016D01*
X1362000Y1003032D01*
X1360984Y1002016D01*
X1359968D01*
X1360984Y1001000D01*
X1359968Y999984D01*
X1360984D01*
X1362000Y998968D01*
X1352997Y997966D02*
X1354013Y998982D01*
X1355029D01*
X1354013Y999998D01*
X1355029Y1001014D01*
X1354013D01*
X1352997Y1002030D01*
X1351981Y1001014D01*
X1350965D01*
X1351981Y999998D01*
X1350965Y998982D01*
X1351981D01*
X1352997Y997966D01*
X1342997D02*
X1344013Y998982D01*
X1345029D01*
X1344013Y999998D01*
X1345029Y1001014D01*
X1344013D01*
X1342997Y1002030D01*
X1341981Y1001014D01*
X1340965D01*
X1341981Y999998D01*
X1340965Y998982D01*
X1341981D01*
X1342997Y997966D01*
X1331997Y994966D02*
X1333013Y995982D01*
X1334029D01*
X1333013Y996998D01*
X1334029Y998014D01*
X1333013D01*
X1331997Y999030D01*
X1330981Y998014D01*
X1329965D01*
X1330981Y996998D01*
X1329965Y995982D01*
X1330981D01*
X1331997Y994966D01*
X1319000Y987968D02*
X1320016Y988984D01*
X1321032D01*
X1320016Y990000D01*
X1321032Y991016D01*
X1320016D01*
X1319000Y992032D01*
X1317984Y991016D01*
X1316968D01*
X1317984Y990000D01*
X1316968Y988984D01*
X1317984D01*
X1319000Y987968D01*
X1309000Y999968D02*
X1310016Y1000984D01*
X1311032D01*
X1310016Y1002000D01*
X1311032Y1003016D01*
X1310016D01*
X1309000Y1004032D01*
X1307984Y1003016D01*
X1306968D01*
X1307984Y1002000D01*
X1306968Y1000984D01*
X1307984D01*
X1309000Y999968D01*
X1268000Y1027968D02*
X1269016Y1028984D01*
X1270032D01*
X1269016Y1030000D01*
X1270032Y1031016D01*
X1269016D01*
X1268000Y1032032D01*
X1266984Y1031016D01*
X1265968D01*
X1266984Y1030000D01*
X1265968Y1028984D01*
X1266984D01*
X1268000Y1027968D01*
X1274000Y1037968D02*
X1275016Y1038984D01*
X1276032D01*
X1275016Y1040000D01*
X1276032Y1041016D01*
X1275016D01*
X1274000Y1042032D01*
X1272984Y1041016D01*
X1271968D01*
X1272984Y1040000D01*
X1271968Y1038984D01*
X1272984D01*
X1274000Y1037968D01*
X1256000Y914968D02*
X1257016Y915984D01*
X1258032D01*
X1257016Y917000D01*
X1258032Y918016D01*
X1257016D01*
X1256000Y919032D01*
X1254984Y918016D01*
X1253968D01*
X1254984Y917000D01*
X1253968Y915984D01*
X1254984D01*
X1256000Y914968D01*
X1245000D02*
X1246016Y915984D01*
X1247032D01*
X1246016Y917000D01*
X1247032Y918016D01*
X1246016D01*
X1245000Y919032D01*
X1243984Y918016D01*
X1242968D01*
X1243984Y917000D01*
X1242968Y915984D01*
X1243984D01*
X1245000Y914968D01*
X1247000Y896968D02*
X1248016Y897984D01*
X1249032D01*
X1248016Y899000D01*
X1249032Y900016D01*
X1248016D01*
X1247000Y901032D01*
X1245984Y900016D01*
X1244968D01*
X1245984Y899000D01*
X1244968Y897984D01*
X1245984D01*
X1247000Y896968D01*
X1253000D02*
X1254016Y897984D01*
X1255032D01*
X1254016Y899000D01*
X1255032Y900016D01*
X1254016D01*
X1253000Y901032D01*
X1251984Y900016D01*
X1250968D01*
X1251984Y899000D01*
X1250968Y897984D01*
X1251984D01*
X1253000Y896968D01*
X1254000Y1170968D02*
X1255016Y1171984D01*
X1256032D01*
X1255016Y1173000D01*
X1256032Y1174016D01*
X1255016D01*
X1254000Y1175032D01*
X1252984Y1174016D01*
X1251968D01*
X1252984Y1173000D01*
X1251968Y1171984D01*
X1252984D01*
X1254000Y1170968D01*
X1256000Y946968D02*
X1257016Y947984D01*
X1258032D01*
X1257016Y949000D01*
X1258032Y950016D01*
X1257016D01*
X1256000Y951032D01*
X1254984Y950016D01*
X1253968D01*
X1254984Y949000D01*
X1253968Y947984D01*
X1254984D01*
X1256000Y946968D01*
X1134000Y873968D02*
X1135016Y874984D01*
X1136032D01*
X1135016Y876000D01*
X1136032Y877016D01*
X1135016D01*
X1134000Y878032D01*
X1132984Y877016D01*
X1131968D01*
X1132984Y876000D01*
X1131968Y874984D01*
X1132984D01*
X1134000Y873968D01*
X1136000Y860968D02*
X1137016Y861984D01*
X1138032D01*
X1137016Y863000D01*
X1138032Y864016D01*
X1137016D01*
X1136000Y865032D01*
X1134984Y864016D01*
X1133968D01*
X1134984Y863000D01*
X1133968Y861984D01*
X1134984D01*
X1136000Y860968D01*
X952000Y827968D02*
X953016Y828984D01*
X954032D01*
X953016Y830000D01*
X954032Y831016D01*
X953016D01*
X952000Y832032D01*
X950984Y831016D01*
X949968D01*
X950984Y830000D01*
X949968Y828984D01*
X950984D01*
X952000Y827968D01*
X958000D02*
X959016Y828984D01*
X960032D01*
X959016Y830000D01*
X960032Y831016D01*
X959016D01*
X958000Y832032D01*
X956984Y831016D01*
X955968D01*
X956984Y830000D01*
X955968Y828984D01*
X956984D01*
X958000Y827968D01*
X1295000Y868968D02*
X1296016Y869984D01*
X1297032D01*
X1296016Y871000D01*
X1297032Y872016D01*
X1296016D01*
X1295000Y873032D01*
X1293984Y872016D01*
X1292968D01*
X1293984Y871000D01*
X1292968Y869984D01*
X1293984D01*
X1295000Y868968D01*
X1259000Y896968D02*
X1260016Y897984D01*
X1261032D01*
X1260016Y899000D01*
X1261032Y900016D01*
X1260016D01*
X1259000Y901032D01*
X1257984Y900016D01*
X1256968D01*
X1257984Y899000D01*
X1256968Y897984D01*
X1257984D01*
X1259000Y896968D01*
X1229000Y886968D02*
X1230016Y887984D01*
X1231032D01*
X1230016Y889000D01*
X1231032Y890016D01*
X1230016D01*
X1229000Y891032D01*
X1227984Y890016D01*
X1226968D01*
X1227984Y889000D01*
X1226968Y887984D01*
X1227984D01*
X1229000Y886968D01*
X1200000Y910968D02*
X1201016Y911984D01*
X1202032D01*
X1201016Y913000D01*
X1202032Y914016D01*
X1201016D01*
X1200000Y915032D01*
X1198984Y914016D01*
X1197968D01*
X1198984Y913000D01*
X1197968Y911984D01*
X1198984D01*
X1200000Y910968D01*
X1368000Y1150968D02*
X1369016Y1151984D01*
X1370032D01*
X1369016Y1153000D01*
X1370032Y1154016D01*
X1369016D01*
X1368000Y1155032D01*
X1366984Y1154016D01*
X1365968D01*
X1366984Y1153000D01*
X1365968Y1151984D01*
X1366984D01*
X1368000Y1150968D01*
X1405000Y1170968D02*
X1406016Y1171984D01*
X1407032D01*
X1406016Y1173000D01*
X1407032Y1174016D01*
X1406016D01*
X1405000Y1175032D01*
X1403984Y1174016D01*
X1402968D01*
X1403984Y1173000D01*
X1402968Y1171984D01*
X1403984D01*
X1405000Y1170968D01*
X1458000Y1133968D02*
X1459016Y1134984D01*
X1460032D01*
X1459016Y1136000D01*
X1460032Y1137016D01*
X1459016D01*
X1458000Y1138032D01*
X1456984Y1137016D01*
X1455968D01*
X1456984Y1136000D01*
X1455968Y1134984D01*
X1456984D01*
X1458000Y1133968D01*
X1355000Y1145968D02*
X1356016Y1146984D01*
X1357032D01*
X1356016Y1148000D01*
X1357032Y1149016D01*
X1356016D01*
X1355000Y1150032D01*
X1353984Y1149016D01*
X1352968D01*
X1353984Y1148000D01*
X1352968Y1146984D01*
X1353984D01*
X1355000Y1145968D01*
X1122000Y970968D02*
X1119968Y975032D01*
X1124032D01*
X1122000Y970968D01*
X1203000Y1070968D02*
X1204016Y1071984D01*
X1205032D01*
X1204016Y1073000D01*
X1205032Y1074016D01*
X1204016D01*
X1203000Y1075032D01*
X1201984Y1074016D01*
X1200968D01*
X1201984Y1073000D01*
X1200968Y1071984D01*
X1201984D01*
X1203000Y1070968D01*
X1492997Y1007966D02*
X1494013Y1008982D01*
X1495029D01*
X1494013Y1009998D01*
X1495029Y1011014D01*
X1494013D01*
X1492997Y1012030D01*
X1491981Y1011014D01*
X1490965D01*
X1491981Y1009998D01*
X1490965Y1008982D01*
X1491981D01*
X1492997Y1007966D01*
X1269000Y1165968D02*
X1270016Y1166984D01*
X1271032D01*
X1270016Y1168000D01*
X1271032Y1169016D01*
X1270016D01*
X1269000Y1170032D01*
X1267984Y1169016D01*
X1266968D01*
X1267984Y1168000D01*
X1266968Y1166984D01*
X1267984D01*
X1269000Y1165968D01*
X1218000Y1162968D02*
X1219016Y1163984D01*
X1220032D01*
X1219016Y1165000D01*
X1220032Y1166016D01*
X1219016D01*
X1218000Y1167032D01*
X1216984Y1166016D01*
X1215968D01*
X1216984Y1165000D01*
X1215968Y1163984D01*
X1216984D01*
X1218000Y1162968D01*
X1232000Y1168968D02*
X1233016Y1169984D01*
X1234032D01*
X1233016Y1171000D01*
X1234032Y1172016D01*
X1233016D01*
X1232000Y1173032D01*
X1230984Y1172016D01*
X1229968D01*
X1230984Y1171000D01*
X1229968Y1169984D01*
X1230984D01*
X1232000Y1168968D01*
X1411000Y1163968D02*
X1412016Y1164984D01*
X1413032D01*
X1412016Y1166000D01*
X1413032Y1167016D01*
X1412016D01*
X1411000Y1168032D01*
X1409984Y1167016D01*
X1408968D01*
X1409984Y1166000D01*
X1408968Y1164984D01*
X1409984D01*
X1411000Y1163968D01*
X1424000Y979968D02*
X1425016Y980984D01*
X1426032D01*
X1425016Y982000D01*
X1426032Y983016D01*
X1425016D01*
X1424000Y984032D01*
X1422984Y983016D01*
X1421968D01*
X1422984Y982000D01*
X1421968Y980984D01*
X1422984D01*
X1424000Y979968D01*
X1445000Y978968D02*
X1446016Y979984D01*
X1447032D01*
X1446016Y981000D01*
X1447032Y982016D01*
X1446016D01*
X1445000Y983032D01*
X1443984Y982016D01*
X1442968D01*
X1443984Y981000D01*
X1442968Y979984D01*
X1443984D01*
X1445000Y978968D01*
X1645000Y866968D02*
X1646016Y867984D01*
X1647032D01*
X1646016Y869000D01*
X1647032Y870016D01*
X1646016D01*
X1645000Y871032D01*
X1643984Y870016D01*
X1642968D01*
X1643984Y869000D01*
X1642968Y867984D01*
X1643984D01*
X1645000Y866968D01*
Y838968D02*
X1646016Y839984D01*
X1647032D01*
X1646016Y841000D01*
X1647032Y842016D01*
X1646016D01*
X1645000Y843032D01*
X1643984Y842016D01*
X1642968D01*
X1643984Y841000D01*
X1642968Y839984D01*
X1643984D01*
X1645000Y838968D01*
X1534000Y1187968D02*
X1535016Y1188984D01*
X1536032D01*
X1535016Y1190000D01*
X1536032Y1191016D01*
X1535016D01*
X1534000Y1192032D01*
X1532984Y1191016D01*
X1531968D01*
X1532984Y1190000D01*
X1531968Y1188984D01*
X1532984D01*
X1534000Y1187968D01*
X1647000Y1318968D02*
X1648016Y1319984D01*
X1649032D01*
X1648016Y1321000D01*
X1649032Y1322016D01*
X1648016D01*
X1647000Y1323032D01*
X1645984Y1322016D01*
X1644968D01*
X1645984Y1321000D01*
X1644968Y1319984D01*
X1645984D01*
X1647000Y1318968D01*
X1646000Y1346968D02*
X1647016Y1347984D01*
X1648032D01*
X1647016Y1349000D01*
X1648032Y1350016D01*
X1647016D01*
X1646000Y1351032D01*
X1644984Y1350016D01*
X1643968D01*
X1644984Y1349000D01*
X1643968Y1347984D01*
X1644984D01*
X1646000Y1346968D01*
X1551997Y1116966D02*
X1553013Y1117982D01*
X1554029D01*
X1553013Y1118998D01*
X1554029Y1120014D01*
X1553013D01*
X1551997Y1121030D01*
X1550981Y1120014D01*
X1549965D01*
X1550981Y1118998D01*
X1549965Y1117982D01*
X1550981D01*
X1551997Y1116966D01*
X1498000Y1033968D02*
X1499016Y1034984D01*
X1500032D01*
X1499016Y1036000D01*
X1500032Y1037016D01*
X1499016D01*
X1498000Y1038032D01*
X1496984Y1037016D01*
X1495968D01*
X1496984Y1036000D01*
X1495968Y1034984D01*
X1496984D01*
X1498000Y1033968D01*
X1185000Y1124968D02*
X1186016Y1125984D01*
X1187032D01*
X1186016Y1127000D01*
X1187032Y1128016D01*
X1186016D01*
X1185000Y1129032D01*
X1183984Y1128016D01*
X1182968D01*
X1183984Y1127000D01*
X1182968Y1125984D01*
X1183984D01*
X1185000Y1124968D01*
X900000Y1210968D02*
X901016Y1211984D01*
X902032D01*
X901016Y1213000D01*
X902032Y1214016D01*
X901016D01*
X900000Y1215032D01*
X898984Y1214016D01*
X897968D01*
X898984Y1213000D01*
X897968Y1211984D01*
X898984D01*
X900000Y1210968D01*
X977000Y947968D02*
X974968Y952032D01*
X979032D01*
X977000Y947968D01*
X1134998Y1222965D02*
X1136014Y1223981D01*
X1137030D01*
X1136014Y1224997D01*
X1137030Y1226013D01*
X1136014D01*
X1134998Y1227029D01*
X1133982Y1226013D01*
X1132966D01*
X1133982Y1224997D01*
X1132966Y1223981D01*
X1133982D01*
X1134998Y1222965D01*
X1186000Y943968D02*
X1187016Y944984D01*
X1188032D01*
X1187016Y946000D01*
X1188032Y947016D01*
X1187016D01*
X1186000Y948032D01*
X1184984Y947016D01*
X1183968D01*
X1184984Y946000D01*
X1183968Y944984D01*
X1184984D01*
X1186000Y943968D01*
X1178000Y834968D02*
X1179016Y835984D01*
X1180032D01*
X1179016Y837000D01*
X1180032Y838016D01*
X1179016D01*
X1178000Y839032D01*
X1176984Y838016D01*
X1175968D01*
X1176984Y837000D01*
X1175968Y835984D01*
X1176984D01*
X1178000Y834968D01*
X1087000Y830968D02*
X1088016Y831984D01*
X1089032D01*
X1088016Y833000D01*
X1089032Y834016D01*
X1088016D01*
X1087000Y835032D01*
X1085984Y834016D01*
X1084968D01*
X1085984Y833000D01*
X1084968Y831984D01*
X1085984D01*
X1087000Y830968D01*
X1075000Y829968D02*
X1076016Y830984D01*
X1077032D01*
X1076016Y832000D01*
X1077032Y833016D01*
X1076016D01*
X1075000Y834032D01*
X1073984Y833016D01*
X1072968D01*
X1073984Y832000D01*
X1072968Y830984D01*
X1073984D01*
X1075000Y829968D01*
X1020000Y838968D02*
X1021016Y839984D01*
X1022032D01*
X1021016Y841000D01*
X1022032Y842016D01*
X1021016D01*
X1020000Y843032D01*
X1018984Y842016D01*
X1017968D01*
X1018984Y841000D01*
X1017968Y839984D01*
X1018984D01*
X1020000Y838968D01*
X976000Y827968D02*
X977016Y828984D01*
X978032D01*
X977016Y830000D01*
X978032Y831016D01*
X977016D01*
X976000Y832032D01*
X974984Y831016D01*
X973968D01*
X974984Y830000D01*
X973968Y828984D01*
X974984D01*
X976000Y827968D01*
X970000D02*
X971016Y828984D01*
X972032D01*
X971016Y830000D01*
X972032Y831016D01*
X971016D01*
X970000Y832032D01*
X968984Y831016D01*
X967968D01*
X968984Y830000D01*
X967968Y828984D01*
X968984D01*
X970000Y827968D01*
X901000Y773968D02*
X902016Y774984D01*
X903032D01*
X902016Y776000D01*
X903032Y777016D01*
X902016D01*
X901000Y778032D01*
X899984Y777016D01*
X898968D01*
X899984Y776000D01*
X898968Y774984D01*
X899984D01*
X901000Y773968D01*
X919000D02*
X920016Y774984D01*
X921032D01*
X920016Y776000D01*
X921032Y777016D01*
X920016D01*
X919000Y778032D01*
X917984Y777016D01*
X916968D01*
X917984Y776000D01*
X916968Y774984D01*
X917984D01*
X919000Y773968D01*
X913000D02*
X914016Y774984D01*
X915032D01*
X914016Y776000D01*
X915032Y777016D01*
X914016D01*
X913000Y778032D01*
X911984Y777016D01*
X910968D01*
X911984Y776000D01*
X910968Y774984D01*
X911984D01*
X913000Y773968D01*
X907000D02*
X908016Y774984D01*
X909032D01*
X908016Y776000D01*
X909032Y777016D01*
X908016D01*
X907000Y778032D01*
X905984Y777016D01*
X904968D01*
X905984Y776000D01*
X904968Y774984D01*
X905984D01*
X907000Y773968D01*
X845900Y916868D02*
X846916Y917884D01*
X847932D01*
X846916Y918900D01*
X847932Y919916D01*
X846916D01*
X845900Y920932D01*
X844884Y919916D01*
X843868D01*
X844884Y918900D01*
X843868Y917884D01*
X844884D01*
X845900Y916868D01*
X857000Y908968D02*
X858016Y909984D01*
X859032D01*
X858016Y911000D01*
X859032Y912016D01*
X858016D01*
X857000Y913032D01*
X855984Y912016D01*
X854968D01*
X855984Y911000D01*
X854968Y909984D01*
X855984D01*
X857000Y908968D01*
X873000Y897968D02*
X874016Y898984D01*
X875032D01*
X874016Y900000D01*
X875032Y901016D01*
X874016D01*
X873000Y902032D01*
X871984Y901016D01*
X870968D01*
X871984Y900000D01*
X870968Y898984D01*
X871984D01*
X873000Y897968D01*
X864000Y882968D02*
X865016Y883984D01*
X866032D01*
X865016Y885000D01*
X866032Y886016D01*
X865016D01*
X864000Y887032D01*
X862984Y886016D01*
X861968D01*
X862984Y885000D01*
X861968Y883984D01*
X862984D01*
X864000Y882968D01*
X896000Y868968D02*
X897016Y869984D01*
X898032D01*
X897016Y871000D01*
X898032Y872016D01*
X897016D01*
X896000Y873032D01*
X894984Y872016D01*
X893968D01*
X894984Y871000D01*
X893968Y869984D01*
X894984D01*
X896000Y868968D01*
X1090000Y1007968D02*
X1091016Y1008984D01*
X1092032D01*
X1091016Y1010000D01*
X1092032Y1011016D01*
X1091016D01*
X1090000Y1012032D01*
X1088984Y1011016D01*
X1087968D01*
X1088984Y1010000D01*
X1087968Y1008984D01*
X1088984D01*
X1090000Y1007968D01*
X1068000Y1029968D02*
X1069016Y1030984D01*
X1070032D01*
X1069016Y1032000D01*
X1070032Y1033016D01*
X1069016D01*
X1068000Y1034032D01*
X1066984Y1033016D01*
X1065968D01*
X1066984Y1032000D01*
X1065968Y1030984D01*
X1066984D01*
X1068000Y1029968D01*
X1111000Y996968D02*
X1112016Y997984D01*
X1113032D01*
X1112016Y999000D01*
X1113032Y1000016D01*
X1112016D01*
X1111000Y1001032D01*
X1109984Y1000016D01*
X1108968D01*
X1109984Y999000D01*
X1108968Y997984D01*
X1109984D01*
X1111000Y996968D01*
X1128000Y1006968D02*
X1129016Y1007984D01*
X1130032D01*
X1129016Y1009000D01*
X1130032Y1010016D01*
X1129016D01*
X1128000Y1011032D01*
X1126984Y1010016D01*
X1125968D01*
X1126984Y1009000D01*
X1125968Y1007984D01*
X1126984D01*
X1128000Y1006968D01*
X1200000Y963968D02*
X1201016Y964984D01*
X1202032D01*
X1201016Y966000D01*
X1202032Y967016D01*
X1201016D01*
X1200000Y968032D01*
X1198984Y967016D01*
X1197968D01*
X1198984Y966000D01*
X1197968Y964984D01*
X1198984D01*
X1200000Y963968D01*
X1141998Y906966D02*
X1139966Y911030D01*
X1144030D01*
X1141998Y906966D01*
X1418000Y1045968D02*
X1419016Y1046984D01*
X1420032D01*
X1419016Y1048000D01*
X1420032Y1049016D01*
X1419016D01*
X1418000Y1050032D01*
X1416984Y1049016D01*
X1415968D01*
X1416984Y1048000D01*
X1415968Y1046984D01*
X1416984D01*
X1418000Y1045968D01*
X1408000Y1053968D02*
X1409016Y1054984D01*
X1410032D01*
X1409016Y1056000D01*
X1410032Y1057016D01*
X1409016D01*
X1408000Y1058032D01*
X1406984Y1057016D01*
X1405968D01*
X1406984Y1056000D01*
X1405968Y1054984D01*
X1406984D01*
X1408000Y1053968D01*
X1443000Y1015468D02*
X1444016Y1016484D01*
X1445032D01*
X1444016Y1017500D01*
X1445032Y1018516D01*
X1444016D01*
X1443000Y1019532D01*
X1441984Y1018516D01*
X1440968D01*
X1441984Y1017500D01*
X1440968Y1016484D01*
X1441984D01*
X1443000Y1015468D01*
X1406000Y885968D02*
X1407016Y886984D01*
X1408032D01*
X1407016Y888000D01*
X1408032Y889016D01*
X1407016D01*
X1406000Y890032D01*
X1404984Y889016D01*
X1403968D01*
X1404984Y888000D01*
X1403968Y886984D01*
X1404984D01*
X1406000Y885968D01*
X1030000Y830968D02*
X1031016Y831984D01*
X1032032D01*
X1031016Y833000D01*
X1032032Y834016D01*
X1031016D01*
X1030000Y835032D01*
X1028984Y834016D01*
X1027968D01*
X1028984Y833000D01*
X1027968Y831984D01*
X1028984D01*
X1030000Y830968D01*
X1041000Y827968D02*
X1042016Y828984D01*
X1043032D01*
X1042016Y830000D01*
X1043032Y831016D01*
X1042016D01*
X1041000Y832032D01*
X1039984Y831016D01*
X1038968D01*
X1039984Y830000D01*
X1038968Y828984D01*
X1039984D01*
X1041000Y827968D01*
X1150750Y981468D02*
X1151766Y982484D01*
X1152782D01*
X1151766Y983500D01*
X1152782Y984516D01*
X1151766D01*
X1150750Y985532D01*
X1149734Y984516D01*
X1148718D01*
X1149734Y983500D01*
X1148718Y982484D01*
X1149734D01*
X1150750Y981468D01*
X909000Y1254968D02*
X910016Y1255984D01*
X911032D01*
X910016Y1257000D01*
X911032Y1258016D01*
X910016D01*
X909000Y1259032D01*
X907984Y1258016D01*
X906968D01*
X907984Y1257000D01*
X906968Y1255984D01*
X907984D01*
X909000Y1254968D01*
X1028500Y1103468D02*
X1026468Y1107532D01*
X1030532D01*
X1028500Y1103468D01*
X1026000Y1143968D02*
X1023968Y1148032D01*
X1028032D01*
X1026000Y1143968D01*
X1051000Y1140968D02*
X1048968Y1145032D01*
X1053032D01*
X1051000Y1140968D01*
X1052000Y1130968D02*
X1049968Y1135032D01*
X1054032D01*
X1052000Y1130968D01*
X958000Y1188968D02*
X955968Y1193032D01*
X960032D01*
X958000Y1188968D01*
X989000Y927968D02*
X986968Y932032D01*
X991032D01*
X989000Y927968D01*
X995000Y931968D02*
X992968Y936032D01*
X997032D01*
X995000Y931968D01*
X994000Y1137968D02*
X991968Y1142032D01*
X996032D01*
X994000Y1137968D01*
X950000Y1187968D02*
X947968Y1192032D01*
X952032D01*
X950000Y1187968D01*
X986998Y937966D02*
X984966Y942030D01*
X989030D01*
X986998Y937966D01*
X1000000Y1144968D02*
X997968Y1149032D01*
X1002032D01*
X1000000Y1144968D01*
X1057998Y912966D02*
X1055966Y917030D01*
X1060030D01*
X1057998Y912966D01*
X1052500Y907468D02*
X1050468Y911532D01*
X1054532D01*
X1052500Y907468D01*
X1048000Y912968D02*
X1045968Y917032D01*
X1050032D01*
X1048000Y912968D01*
X1037000Y908968D02*
X1034968Y913032D01*
X1039032D01*
X1037000Y908968D01*
X1030000Y906968D02*
X1027968Y911032D01*
X1032032D01*
X1030000Y906968D01*
X1070000Y904968D02*
X1067968Y909032D01*
X1072032D01*
X1070000Y904968D01*
X1080998Y896966D02*
X1078966Y901030D01*
X1083030D01*
X1080998Y896966D01*
X1231000Y1047968D02*
X1228968Y1052032D01*
X1233032D01*
X1231000Y1047968D01*
X1302000Y1158968D02*
X1303016Y1159984D01*
X1304032D01*
X1303016Y1161000D01*
X1304032Y1162016D01*
X1303016D01*
X1302000Y1163032D01*
X1300984Y1162016D01*
X1299968D01*
X1300984Y1161000D01*
X1299968Y1159984D01*
X1300984D01*
X1302000Y1158968D01*
X1160000Y1085968D02*
X1157968Y1090032D01*
X1162032D01*
X1160000Y1085968D01*
Y865968D02*
X1157968Y870032D01*
X1162032D01*
X1160000Y865968D01*
X1494000Y846968D02*
X1495016Y847984D01*
X1496032D01*
X1495016Y849000D01*
X1496032Y850016D01*
X1495016D01*
X1494000Y851032D01*
X1492984Y850016D01*
X1491968D01*
X1492984Y849000D01*
X1491968Y847984D01*
X1492984D01*
X1494000Y846968D01*
X1500500Y907468D02*
X1501516Y908484D01*
X1502532D01*
X1501516Y909500D01*
X1502532Y910516D01*
X1501516D01*
X1500500Y911532D01*
X1499484Y910516D01*
X1498468D01*
X1499484Y909500D01*
X1498468Y908484D01*
X1499484D01*
X1500500Y907468D01*
X1504000Y1154968D02*
X1505016Y1155984D01*
X1506032D01*
X1505016Y1157000D01*
X1506032Y1158016D01*
X1505016D01*
X1504000Y1159032D01*
X1502984Y1158016D01*
X1501968D01*
X1502984Y1157000D01*
X1501968Y1155984D01*
X1502984D01*
X1504000Y1154968D01*
X1479000Y1218968D02*
X1480016Y1219984D01*
X1481032D01*
X1480016Y1221000D01*
X1481032Y1222016D01*
X1480016D01*
X1479000Y1223032D01*
X1477984Y1222016D01*
X1476968D01*
X1477984Y1221000D01*
X1476968Y1219984D01*
X1477984D01*
X1479000Y1218968D01*
X1506500Y1187968D02*
X1507516Y1188984D01*
X1508532D01*
X1507516Y1190000D01*
X1508532Y1191016D01*
X1507516D01*
X1506500Y1192032D01*
X1505484Y1191016D01*
X1504468D01*
X1505484Y1190000D01*
X1504468Y1188984D01*
X1505484D01*
X1506500Y1187968D01*
X1559500Y1208468D02*
X1560516Y1209484D01*
X1561532D01*
X1560516Y1210500D01*
X1561532Y1211516D01*
X1560516D01*
X1559500Y1212532D01*
X1558484Y1211516D01*
X1557468D01*
X1558484Y1210500D01*
X1557468Y1209484D01*
X1558484D01*
X1559500Y1208468D01*
X1475000Y1105968D02*
X1476016Y1106984D01*
X1477032D01*
X1476016Y1108000D01*
X1477032Y1109016D01*
X1476016D01*
X1475000Y1110032D01*
X1473984Y1109016D01*
X1472968D01*
X1473984Y1108000D01*
X1472968Y1106984D01*
X1473984D01*
X1475000Y1105968D01*
X1206000Y976968D02*
X1207016Y977984D01*
X1208032D01*
X1207016Y979000D01*
X1208032Y980016D01*
X1207016D01*
X1206000Y981032D01*
X1204984Y980016D01*
X1203968D01*
X1204984Y979000D01*
X1203968Y977984D01*
X1204984D01*
X1206000Y976968D01*
X1226998Y975966D02*
X1228014Y976982D01*
X1229029D01*
X1228014Y977998D01*
X1229029Y979014D01*
X1228014D01*
X1226998Y980030D01*
X1225982Y979014D01*
X1224966D01*
X1225982Y977998D01*
X1224966Y976982D01*
X1225982D01*
X1226998Y975966D01*
X1323000Y1003968D02*
X1324016Y1004984D01*
X1325032D01*
X1324016Y1006000D01*
X1325032Y1007016D01*
X1324016D01*
X1323000Y1008032D01*
X1321984Y1007016D01*
X1320968D01*
X1321984Y1006000D01*
X1320968Y1004984D01*
X1321984D01*
X1323000Y1003968D01*
X1344047Y1061015D02*
X1345063Y1062031D01*
X1346079D01*
X1345063Y1063047D01*
X1346079Y1064063D01*
X1345063D01*
X1344047Y1065079D01*
X1343031Y1064063D01*
X1342015D01*
X1343031Y1063047D01*
X1342015Y1062031D01*
X1343031D01*
X1344047Y1061015D01*
X1361000Y1116968D02*
X1362016Y1117984D01*
X1363032D01*
X1362016Y1119000D01*
X1363032Y1120016D01*
X1362016D01*
X1361000Y1121032D01*
X1359984Y1120016D01*
X1358968D01*
X1359984Y1119000D01*
X1358968Y1117984D01*
X1359984D01*
X1361000Y1116968D01*
X848000Y781968D02*
X849016Y782984D01*
X850032D01*
X849016Y784000D01*
X850032Y785016D01*
X849016D01*
X848000Y786032D01*
X846984Y785016D01*
X845968D01*
X846984Y784000D01*
X845968Y782984D01*
X846984D01*
X848000Y781968D01*
X856000Y824968D02*
X857016Y825984D01*
X858032D01*
X857016Y827000D01*
X858032Y828016D01*
X857016D01*
X856000Y829032D01*
X854984Y828016D01*
X853968D01*
X854984Y827000D01*
X853968Y825984D01*
X854984D01*
X856000Y824968D01*
X1267000D02*
X1268016Y825984D01*
X1269032D01*
X1268016Y827000D01*
X1269032Y828016D01*
X1268016D01*
X1267000Y829032D01*
X1265984Y828016D01*
X1264968D01*
X1265984Y827000D01*
X1264968Y825984D01*
X1265984D01*
X1267000Y824968D01*
X1328000D02*
X1329016Y825984D01*
X1330032D01*
X1329016Y827000D01*
X1330032Y828016D01*
X1329016D01*
X1328000Y829032D01*
X1326984Y828016D01*
X1325968D01*
X1326984Y827000D01*
X1325968Y825984D01*
X1326984D01*
X1328000Y824968D01*
X1386000D02*
X1387016Y825984D01*
X1388032D01*
X1387016Y827000D01*
X1388032Y828016D01*
X1387016D01*
X1386000Y829032D01*
X1384984Y828016D01*
X1383968D01*
X1384984Y827000D01*
X1383968Y825984D01*
X1384984D01*
X1386000Y824968D01*
X1380997Y855966D02*
X1382013Y856982D01*
X1383029D01*
X1382013Y857998D01*
X1383029Y859014D01*
X1382013D01*
X1380997Y860030D01*
X1379981Y859014D01*
X1378965D01*
X1379981Y857998D01*
X1378965Y856982D01*
X1379981D01*
X1380997Y855966D01*
X1391000Y863968D02*
X1392016Y864984D01*
X1393032D01*
X1392016Y866000D01*
X1393032Y867016D01*
X1392016D01*
X1391000Y868032D01*
X1389984Y867016D01*
X1388968D01*
X1389984Y866000D01*
X1388968Y864984D01*
X1389984D01*
X1391000Y863968D01*
X1314000Y868968D02*
X1315016Y869984D01*
X1316032D01*
X1315016Y871000D01*
X1316032Y872016D01*
X1315016D01*
X1314000Y873032D01*
X1312984Y872016D01*
X1311968D01*
X1312984Y871000D01*
X1311968Y869984D01*
X1312984D01*
X1314000Y868968D01*
X1447000Y824968D02*
X1448016Y825984D01*
X1449032D01*
X1448016Y827000D01*
X1449032Y828016D01*
X1448016D01*
X1447000Y829032D01*
X1445984Y828016D01*
X1444968D01*
X1445984Y827000D01*
X1444968Y825984D01*
X1445984D01*
X1447000Y824968D01*
X1439000Y859968D02*
X1440016Y860984D01*
X1441032D01*
X1440016Y862000D01*
X1441032Y863016D01*
X1440016D01*
X1439000Y864032D01*
X1437984Y863016D01*
X1436968D01*
X1437984Y862000D01*
X1436968Y860984D01*
X1437984D01*
X1439000Y859968D01*
X1419000Y897968D02*
X1420016Y898984D01*
X1421032D01*
X1420016Y900000D01*
X1421032Y901016D01*
X1420016D01*
X1419000Y902032D01*
X1417984Y901016D01*
X1416968D01*
X1417984Y900000D01*
X1416968Y898984D01*
X1417984D01*
X1419000Y897968D01*
X1286000Y986968D02*
X1287016Y987984D01*
X1288032D01*
X1287016Y989000D01*
X1288032Y990016D01*
X1287016D01*
X1286000Y991032D01*
X1284984Y990016D01*
X1283968D01*
X1284984Y989000D01*
X1283968Y987984D01*
X1284984D01*
X1286000Y986968D01*
X1283000Y1003968D02*
X1284016Y1004984D01*
X1285032D01*
X1284016Y1006000D01*
X1285032Y1007016D01*
X1284016D01*
X1283000Y1008032D01*
X1281984Y1007016D01*
X1280968D01*
X1281984Y1006000D01*
X1280968Y1004984D01*
X1281984D01*
X1283000Y1003968D01*
X1472500Y936968D02*
X1473516Y937984D01*
X1474532D01*
X1473516Y939000D01*
X1474532Y940016D01*
X1473516D01*
X1472500Y941032D01*
X1471484Y940016D01*
X1470468D01*
X1471484Y939000D01*
X1470468Y937984D01*
X1471484D01*
X1472500Y936968D01*
X1472750Y948968D02*
X1473766Y949984D01*
X1474782D01*
X1473766Y951000D01*
X1474782Y952016D01*
X1473766D01*
X1472750Y953032D01*
X1471734Y952016D01*
X1470718D01*
X1471734Y951000D01*
X1470718Y949984D01*
X1471734D01*
X1472750Y948968D01*
X1414000Y1028218D02*
X1415016Y1029234D01*
X1416032D01*
X1415016Y1030250D01*
X1416032Y1031266D01*
X1415016D01*
X1414000Y1032282D01*
X1412984Y1031266D01*
X1411968D01*
X1412984Y1030250D01*
X1411968Y1029234D01*
X1412984D01*
X1414000Y1028218D01*
X1472750Y961218D02*
X1473766Y962234D01*
X1474782D01*
X1473766Y963250D01*
X1474782Y964266D01*
X1473766D01*
X1472750Y965282D01*
X1471734Y964266D01*
X1470718D01*
X1471734Y963250D01*
X1470718Y962234D01*
X1471734D01*
X1472750Y961218D01*
X1505000Y824968D02*
X1506016Y825984D01*
X1507032D01*
X1506016Y827000D01*
X1507032Y828016D01*
X1506016D01*
X1505000Y829032D01*
X1503984Y828016D01*
X1502968D01*
X1503984Y827000D01*
X1502968Y825984D01*
X1503984D01*
X1505000Y824968D01*
X1568000D02*
X1569016Y825984D01*
X1570032D01*
X1569016Y827000D01*
X1570032Y828016D01*
X1569016D01*
X1568000Y829032D01*
X1566984Y828016D01*
X1565968D01*
X1566984Y827000D01*
X1565968Y825984D01*
X1566984D01*
X1568000Y824968D01*
X1594000Y901968D02*
X1595016Y902984D01*
X1596032D01*
X1595016Y904000D01*
X1596032Y905016D01*
X1595016D01*
X1594000Y906032D01*
X1592984Y905016D01*
X1591968D01*
X1592984Y904000D01*
X1591968Y902984D01*
X1592984D01*
X1594000Y901968D01*
X1555753Y1005149D02*
X1556768Y1006165D01*
X1557784D01*
X1556768Y1007181D01*
X1557784Y1008197D01*
X1556768D01*
X1555753Y1009213D01*
X1554736Y1008197D01*
X1553721D01*
X1554736Y1007181D01*
X1553721Y1006165D01*
X1554736D01*
X1555753Y1005149D01*
X1572000Y970968D02*
X1573016Y971984D01*
X1574032D01*
X1573016Y973000D01*
X1574032Y974016D01*
X1573016D01*
X1572000Y975032D01*
X1570984Y974016D01*
X1569968D01*
X1570984Y973000D01*
X1569968Y971984D01*
X1570984D01*
X1572000Y970968D01*
X1575250Y1015968D02*
X1576266Y1016984D01*
X1577282D01*
X1576266Y1018000D01*
X1577282Y1019016D01*
X1576266D01*
X1575250Y1020032D01*
X1574234Y1019016D01*
X1573218D01*
X1574234Y1018000D01*
X1573218Y1016984D01*
X1574234D01*
X1575250Y1015968D01*
X1575000Y1028718D02*
X1576016Y1029734D01*
X1577032D01*
X1576016Y1030750D01*
X1577032Y1031766D01*
X1576016D01*
X1575000Y1032782D01*
X1573984Y1031766D01*
X1572968D01*
X1573984Y1030750D01*
X1572968Y1029734D01*
X1573984D01*
X1575000Y1028718D01*
X1594000Y1034968D02*
X1595016Y1035984D01*
X1596032D01*
X1595016Y1037000D01*
X1596032Y1038016D01*
X1595016D01*
X1594000Y1039032D01*
X1592984Y1038016D01*
X1591968D01*
X1592984Y1037000D01*
X1591968Y1035984D01*
X1592984D01*
X1594000Y1034968D01*
X1285000Y1055968D02*
X1286016Y1056984D01*
X1287032D01*
X1286016Y1058000D01*
X1287032Y1059016D01*
X1286016D01*
X1285000Y1060032D01*
X1283984Y1059016D01*
X1282968D01*
X1283984Y1058000D01*
X1282968Y1056984D01*
X1283984D01*
X1285000Y1055968D01*
X1293250Y1077968D02*
X1294266Y1078984D01*
X1295282D01*
X1294266Y1080000D01*
X1295282Y1081016D01*
X1294266D01*
X1293250Y1082032D01*
X1292234Y1081016D01*
X1291218D01*
X1292234Y1080000D01*
X1291218Y1078984D01*
X1292234D01*
X1293250Y1077968D01*
X1256343Y1116468D02*
X1257359Y1117484D01*
X1258375D01*
X1257359Y1118500D01*
X1258375Y1119516D01*
X1257359D01*
X1256343Y1120532D01*
X1255327Y1119516D01*
X1254311D01*
X1255327Y1118500D01*
X1254311Y1117484D01*
X1255327D01*
X1256343Y1116468D01*
X1320000Y1136968D02*
X1321016Y1137984D01*
X1322032D01*
X1321016Y1139000D01*
X1322032Y1140016D01*
X1321016D01*
X1320000Y1141032D01*
X1318984Y1140016D01*
X1317968D01*
X1318984Y1139000D01*
X1317968Y1137984D01*
X1318984D01*
X1320000Y1136968D01*
X1345000Y1189968D02*
X1346016Y1190984D01*
X1347032D01*
X1346016Y1192000D01*
X1347032Y1193016D01*
X1346016D01*
X1345000Y1194032D01*
X1343984Y1193016D01*
X1342968D01*
X1343984Y1192000D01*
X1342968Y1190984D01*
X1343984D01*
X1345000Y1189968D01*
X1315250Y1194718D02*
X1316266Y1195734D01*
X1317282D01*
X1316266Y1196750D01*
X1317282Y1197766D01*
X1316266D01*
X1315250Y1198782D01*
X1314234Y1197766D01*
X1313218D01*
X1314234Y1196750D01*
X1313218Y1195734D01*
X1314234D01*
X1315250Y1194718D01*
X1456500Y1175468D02*
X1457516Y1176484D01*
X1458532D01*
X1457516Y1177500D01*
X1458532Y1178516D01*
X1457516D01*
X1456500Y1179532D01*
X1455484Y1178516D01*
X1454468D01*
X1455484Y1177500D01*
X1454468Y1176484D01*
X1455484D01*
X1456500Y1175468D01*
X1388000Y1238968D02*
X1389016Y1239984D01*
X1390032D01*
X1389016Y1241000D01*
X1390032Y1242016D01*
X1389016D01*
X1388000Y1243032D01*
X1386984Y1242016D01*
X1385968D01*
X1386984Y1241000D01*
X1385968Y1239984D01*
X1386984D01*
X1388000Y1238968D01*
X1447000D02*
X1448016Y1239984D01*
X1449032D01*
X1448016Y1241000D01*
X1449032Y1242016D01*
X1448016D01*
X1447000Y1243032D01*
X1445984Y1242016D01*
X1444968D01*
X1445984Y1241000D01*
X1444968Y1239984D01*
X1445984D01*
X1447000Y1238968D01*
X1542472Y1049468D02*
X1543488Y1050484D01*
X1544504D01*
X1543488Y1051500D01*
X1544504Y1052516D01*
X1543488D01*
X1542472Y1053532D01*
X1541456Y1052516D01*
X1540440D01*
X1541456Y1051500D01*
X1540440Y1050484D01*
X1541456D01*
X1542472Y1049468D01*
X1548000Y1052968D02*
X1549016Y1053984D01*
X1550032D01*
X1549016Y1055000D01*
X1550032Y1056016D01*
X1549016D01*
X1548000Y1057032D01*
X1546984Y1056016D01*
X1545968D01*
X1546984Y1055000D01*
X1545968Y1053984D01*
X1546984D01*
X1548000Y1052968D01*
X1574250Y1034968D02*
X1575266Y1035984D01*
X1576282D01*
X1575266Y1037000D01*
X1576282Y1038016D01*
X1575266D01*
X1574250Y1039032D01*
X1573234Y1038016D01*
X1572218D01*
X1573234Y1037000D01*
X1572218Y1035984D01*
X1573234D01*
X1574250Y1034968D01*
X1574750Y1046468D02*
X1575766Y1047484D01*
X1576782D01*
X1575766Y1048500D01*
X1576782Y1049516D01*
X1575766D01*
X1574750Y1050532D01*
X1573734Y1049516D01*
X1572718D01*
X1573734Y1048500D01*
X1572718Y1047484D01*
X1573734D01*
X1574750Y1046468D01*
X1472000Y1115968D02*
X1473016Y1116984D01*
X1474032D01*
X1473016Y1118000D01*
X1474032Y1119016D01*
X1473016D01*
X1472000Y1120032D01*
X1470984Y1119016D01*
X1469968D01*
X1470984Y1118000D01*
X1469968Y1116984D01*
X1470984D01*
X1472000Y1115968D01*
X1556000Y1088968D02*
X1557016Y1089984D01*
X1558032D01*
X1557016Y1091000D01*
X1558032Y1092016D01*
X1557016D01*
X1556000Y1093032D01*
X1554984Y1092016D01*
X1553968D01*
X1554984Y1091000D01*
X1553968Y1089984D01*
X1554984D01*
X1556000Y1088968D01*
X1471750Y1128468D02*
X1472766Y1129484D01*
X1473782D01*
X1472766Y1130500D01*
X1473782Y1131516D01*
X1472766D01*
X1471750Y1132532D01*
X1470734Y1131516D01*
X1469718D01*
X1470734Y1130500D01*
X1469718Y1129484D01*
X1470734D01*
X1471750Y1128468D01*
Y1138468D02*
X1472766Y1139484D01*
X1473782D01*
X1472766Y1140500D01*
X1473782Y1141516D01*
X1472766D01*
X1471750Y1142532D01*
X1470734Y1141516D01*
X1469718D01*
X1470734Y1140500D01*
X1469718Y1139484D01*
X1470734D01*
X1471750Y1138468D01*
X1506000Y1238968D02*
X1507016Y1239984D01*
X1508032D01*
X1507016Y1241000D01*
X1508032Y1242016D01*
X1507016D01*
X1506000Y1243032D01*
X1504984Y1242016D01*
X1503968D01*
X1504984Y1241000D01*
X1503968Y1239984D01*
X1504984D01*
X1506000Y1238968D01*
X1569000Y1197968D02*
X1570016Y1198984D01*
X1571032D01*
X1570016Y1200000D01*
X1571032Y1201016D01*
X1570016D01*
X1569000Y1202032D01*
X1567984Y1201016D01*
X1566968D01*
X1567984Y1200000D01*
X1566968Y1198984D01*
X1567984D01*
X1569000Y1197968D01*
X1570000Y1240968D02*
X1571016Y1241984D01*
X1572032D01*
X1571016Y1243000D01*
X1572032Y1244016D01*
X1571016D01*
X1570000Y1245032D01*
X1568984Y1244016D01*
X1567968D01*
X1568984Y1243000D01*
X1567968Y1241984D01*
X1568984D01*
X1570000Y1240968D01*
X1574000Y1093968D02*
X1575016Y1094984D01*
X1576032D01*
X1575016Y1096000D01*
X1576032Y1097016D01*
X1575016D01*
X1574000Y1098032D01*
X1572984Y1097016D01*
X1571968D01*
X1572984Y1096000D01*
X1571968Y1094984D01*
X1572984D01*
X1574000Y1093968D01*
X1621000Y1170968D02*
X1622016Y1171984D01*
X1623032D01*
X1622016Y1173000D01*
X1623032Y1174016D01*
X1622016D01*
X1621000Y1175032D01*
X1619984Y1174016D01*
X1618968D01*
X1619984Y1173000D01*
X1618968Y1171984D01*
X1619984D01*
X1621000Y1170968D01*
X1303000Y918968D02*
X1304016Y919984D01*
X1305032D01*
X1304016Y921000D01*
X1305032Y922016D01*
X1304016D01*
X1303000Y923032D01*
X1301984Y922016D01*
X1300968D01*
X1301984Y921000D01*
X1300968Y919984D01*
X1301984D01*
X1303000Y918968D01*
X1267500Y997468D02*
X1268516Y998484D01*
X1269532D01*
X1268516Y999500D01*
X1269532Y1000516D01*
X1268516D01*
X1267500Y1001532D01*
X1266484Y1000516D01*
X1265468D01*
X1266484Y999500D01*
X1265468Y998484D01*
X1266484D01*
X1267500Y997468D01*
X1240343Y1148468D02*
X1241359Y1149484D01*
X1242375D01*
X1241359Y1150500D01*
X1242375Y1151516D01*
X1241359D01*
X1240343Y1152532D01*
X1239327Y1151516D01*
X1238311D01*
X1239327Y1150500D01*
X1238311Y1149484D01*
X1239327D01*
X1240343Y1148468D01*
X1311000Y1076968D02*
X1312016Y1077984D01*
X1313032D01*
X1312016Y1079000D01*
X1313032Y1080016D01*
X1312016D01*
X1311000Y1081032D01*
X1309984Y1080016D01*
X1308968D01*
X1309984Y1079000D01*
X1308968Y1077984D01*
X1309984D01*
X1311000Y1076968D01*
X1328657Y1069968D02*
X1329673Y1070984D01*
X1330689D01*
X1329673Y1072000D01*
X1330689Y1073016D01*
X1329673D01*
X1328657Y1074032D01*
X1327641Y1073016D01*
X1326625D01*
X1327641Y1072000D01*
X1326625Y1070984D01*
X1327641D01*
X1328657Y1069968D01*
X1416997Y846966D02*
X1418013Y847982D01*
X1419029D01*
X1418013Y848998D01*
X1419029Y850014D01*
X1418013D01*
X1416997Y851030D01*
X1415981Y850014D01*
X1414965D01*
X1415981Y848998D01*
X1414965Y847982D01*
X1415981D01*
X1416997Y846966D01*
X1441000Y1023968D02*
X1442016Y1024984D01*
X1443032D01*
X1442016Y1026000D01*
X1443032Y1027016D01*
X1442016D01*
X1441000Y1028032D01*
X1439984Y1027016D01*
X1438968D01*
X1439984Y1026000D01*
X1438968Y1024984D01*
X1439984D01*
X1441000Y1023968D01*
X1570000Y873968D02*
X1571016Y874984D01*
X1572032D01*
X1571016Y876000D01*
X1572032Y877016D01*
X1571016D01*
X1570000Y878032D01*
X1568984Y877016D01*
X1567968D01*
X1568984Y876000D01*
X1567968Y874984D01*
X1568984D01*
X1570000Y873968D01*
X1492000Y979968D02*
X1493016Y980984D01*
X1494032D01*
X1493016Y982000D01*
X1494032Y983016D01*
X1493016D01*
X1492000Y984032D01*
X1490984Y983016D01*
X1489968D01*
X1490984Y982000D01*
X1489968Y980984D01*
X1490984D01*
X1492000Y979968D01*
X1424000Y1081968D02*
X1425016Y1082984D01*
X1426032D01*
X1425016Y1084000D01*
X1426032Y1085016D01*
X1425016D01*
X1424000Y1086032D01*
X1422984Y1085016D01*
X1421968D01*
X1422984Y1084000D01*
X1421968Y1082984D01*
X1422984D01*
X1424000Y1081968D01*
X1561000Y1194968D02*
X1562016Y1195984D01*
X1563032D01*
X1562016Y1197000D01*
X1563032Y1198016D01*
X1562016D01*
X1561000Y1199032D01*
X1559984Y1198016D01*
X1558968D01*
X1559984Y1197000D01*
X1558968Y1195984D01*
X1559984D01*
X1561000Y1194968D01*
X1301000Y992968D02*
X1302016Y993984D01*
X1303032D01*
X1302016Y995000D01*
X1303032Y996016D01*
X1302016D01*
X1301000Y997032D01*
X1299984Y996016D01*
X1298968D01*
X1299984Y995000D01*
X1298968Y993984D01*
X1299984D01*
X1301000Y992968D01*
X1256343Y1148468D02*
X1257359Y1149484D01*
X1258375D01*
X1257359Y1150500D01*
X1258375Y1151516D01*
X1257359D01*
X1256343Y1152532D01*
X1255327Y1151516D01*
X1254311D01*
X1255327Y1150500D01*
X1254311Y1149484D01*
X1255327D01*
X1256343Y1148468D01*
X1403569Y920763D02*
X1404585Y921779D01*
X1405601D01*
X1404585Y922795D01*
X1405601Y923811D01*
X1404585D01*
X1403569Y924827D01*
X1402553Y923811D01*
X1401537D01*
X1402553Y922795D01*
X1401537Y921779D01*
X1402553D01*
X1403569Y920763D01*
X1406250Y987718D02*
X1407266Y988734D01*
X1408282D01*
X1407266Y989750D01*
X1408282Y990766D01*
X1407266D01*
X1406250Y991782D01*
X1405234Y990766D01*
X1404218D01*
X1405234Y989750D01*
X1404218Y988734D01*
X1405234D01*
X1406250Y987718D01*
X1501000Y886968D02*
X1502016Y887984D01*
X1503032D01*
X1502016Y889000D01*
X1503032Y890016D01*
X1502016D01*
X1501000Y891032D01*
X1499984Y890016D01*
X1498968D01*
X1499984Y889000D01*
X1498968Y887984D01*
X1499984D01*
X1501000Y886968D01*
X1309000Y1137968D02*
X1310016Y1138984D01*
X1311032D01*
X1310016Y1140000D01*
X1311032Y1141016D01*
X1310016D01*
X1309000Y1142032D01*
X1307984Y1141016D01*
X1306968D01*
X1307984Y1140000D01*
X1306968Y1138984D01*
X1307984D01*
X1309000Y1137968D01*
X1432250Y1142968D02*
X1433266Y1143984D01*
X1434282D01*
X1433266Y1145000D01*
X1434282Y1146016D01*
X1433266D01*
X1432250Y1147032D01*
X1431234Y1146016D01*
X1430218D01*
X1431234Y1145000D01*
X1430218Y1143984D01*
X1431234D01*
X1432250Y1142968D01*
X1493750Y1080718D02*
X1494766Y1081734D01*
X1495782D01*
X1494766Y1082750D01*
X1495782Y1083766D01*
X1494766D01*
X1493750Y1084782D01*
X1492734Y1083766D01*
X1491718D01*
X1492734Y1082750D01*
X1491718Y1081734D01*
X1492734D01*
X1493750Y1080718D01*
X1506000Y1175968D02*
X1507016Y1176984D01*
X1508032D01*
X1507016Y1178000D01*
X1508032Y1179016D01*
X1507016D01*
X1506000Y1180032D01*
X1504984Y1179016D01*
X1503968D01*
X1504984Y1178000D01*
X1503968Y1176984D01*
X1504984D01*
X1506000Y1175968D01*
X1331000Y895968D02*
X1332016Y896984D01*
X1333032D01*
X1332016Y898000D01*
X1333032Y899016D01*
X1332016D01*
X1331000Y900032D01*
X1329984Y899016D01*
X1328968D01*
X1329984Y898000D01*
X1328968Y896984D01*
X1329984D01*
X1331000Y895968D01*
X1364000Y886968D02*
X1365016Y887984D01*
X1366032D01*
X1365016Y889000D01*
X1366032Y890016D01*
X1365016D01*
X1364000Y891032D01*
X1362984Y890016D01*
X1361968D01*
X1362984Y889000D01*
X1361968Y887984D01*
X1362984D01*
X1364000Y886968D01*
X1280500Y1071218D02*
X1281516Y1072234D01*
X1282532D01*
X1281516Y1073250D01*
X1282532Y1074266D01*
X1281516D01*
X1280500Y1075282D01*
X1279484Y1074266D01*
X1278468D01*
X1279484Y1073250D01*
X1278468Y1072234D01*
X1279484D01*
X1280500Y1071218D01*
X1279000Y1131968D02*
X1280016Y1132984D01*
X1281032D01*
X1280016Y1134000D01*
X1281032Y1135016D01*
X1280016D01*
X1279000Y1136032D01*
X1277984Y1135016D01*
X1276968D01*
X1277984Y1134000D01*
X1276968Y1132984D01*
X1277984D01*
X1279000Y1131968D01*
X1352000Y1124968D02*
X1353016Y1125984D01*
X1354032D01*
X1353016Y1127000D01*
X1354032Y1128016D01*
X1353016D01*
X1352000Y1129032D01*
X1350984Y1128016D01*
X1349968D01*
X1350984Y1127000D01*
X1349968Y1125984D01*
X1350984D01*
X1352000Y1124968D01*
X951500Y1203468D02*
X952516Y1204484D01*
X953532D01*
X952516Y1205500D01*
X953532Y1206516D01*
X952516D01*
X951500Y1207532D01*
X950484Y1206516D01*
X949468D01*
X950484Y1205500D01*
X949468Y1204484D01*
X950484D01*
X951500Y1203468D01*
X952000Y1238968D02*
X953016Y1239984D01*
X954032D01*
X953016Y1241000D01*
X954032Y1242016D01*
X953016D01*
X952000Y1243032D01*
X950984Y1242016D01*
X949968D01*
X950984Y1241000D01*
X949968Y1239984D01*
X950984D01*
X952000Y1238968D01*
X1151000Y1043968D02*
X1152016Y1044984D01*
X1153032D01*
X1152016Y1046000D01*
X1153032Y1047016D01*
X1152016D01*
X1151000Y1048032D01*
X1149984Y1047016D01*
X1148968D01*
X1149984Y1046000D01*
X1148968Y1044984D01*
X1149984D01*
X1151000Y1043968D01*
X1247000Y993968D02*
X1248016Y994984D01*
X1249032D01*
X1248016Y996000D01*
X1249032Y997016D01*
X1248016D01*
X1247000Y998032D01*
X1245984Y997016D01*
X1244968D01*
X1245984Y996000D01*
X1244968Y994984D01*
X1245984D01*
X1247000Y993968D01*
Y1052968D02*
X1248016Y1053984D01*
X1249032D01*
X1248016Y1055000D01*
X1249032Y1056016D01*
X1248016D01*
X1247000Y1057032D01*
X1245984Y1056016D01*
X1244968D01*
X1245984Y1055000D01*
X1244968Y1053984D01*
X1245984D01*
X1247000Y1052968D01*
X1267000Y1018968D02*
X1268016Y1019984D01*
X1269032D01*
X1268016Y1021000D01*
X1269032Y1022016D01*
X1268016D01*
X1267000Y1023032D01*
X1265984Y1022016D01*
X1264968D01*
X1265984Y1021000D01*
X1264968Y1019984D01*
X1265984D01*
X1267000Y1018968D01*
X1023000Y856968D02*
X1024016Y857984D01*
X1025032D01*
X1024016Y859000D01*
X1025032Y860016D01*
X1024016D01*
X1023000Y861032D01*
X1021984Y860016D01*
X1020968D01*
X1021984Y859000D01*
X1020968Y857984D01*
X1021984D01*
X1023000Y856968D01*
X1019000Y873968D02*
X1020016Y874984D01*
X1021032D01*
X1020016Y876000D01*
X1021032Y877016D01*
X1020016D01*
X1019000Y878032D01*
X1017984Y877016D01*
X1016968D01*
X1017984Y876000D01*
X1016968Y874984D01*
X1017984D01*
X1019000Y873968D01*
X1307750Y1030218D02*
X1305718Y1034282D01*
X1309782D01*
X1307750Y1030218D01*
X1066000Y847968D02*
X1067016Y848984D01*
X1068032D01*
X1067016Y850000D01*
X1068032Y851016D01*
X1067016D01*
X1066000Y852032D01*
X1064984Y851016D01*
X1063968D01*
X1064984Y850000D01*
X1063968Y848984D01*
X1064984D01*
X1066000Y847968D01*
X1095000D02*
X1092968Y852032D01*
X1097032D01*
X1095000Y847968D01*
X988500Y1169468D02*
X986468Y1173532D01*
X990532D01*
X988500Y1169468D01*
X1050000Y1237968D02*
X1047968Y1242032D01*
X1052032D01*
X1050000Y1237968D01*
X1152000Y1197968D02*
X1153016Y1198984D01*
X1154032D01*
X1153016Y1200000D01*
X1154032Y1201016D01*
X1153016D01*
X1152000Y1202032D01*
X1150984Y1201016D01*
X1149968D01*
X1150984Y1200000D01*
X1149968Y1198984D01*
X1150984D01*
X1152000Y1197968D01*
X1173000Y1032968D02*
X1174016Y1033984D01*
X1175032D01*
X1174016Y1035000D01*
X1175032Y1036016D01*
X1174016D01*
X1173000Y1037032D01*
X1171984Y1036016D01*
X1170968D01*
X1171984Y1035000D01*
X1170968Y1033984D01*
X1171984D01*
X1173000Y1032968D01*
X1087000Y1051968D02*
X1084968Y1056032D01*
X1089032D01*
X1087000Y1051968D01*
X1008000Y1083968D02*
X1005968Y1088032D01*
X1010032D01*
X1008000Y1083968D01*
X893000Y825968D02*
X894016Y826984D01*
X895032D01*
X894016Y828000D01*
X895032Y829016D01*
X894016D01*
X893000Y830032D01*
X891984Y829016D01*
X890968D01*
X891984Y828000D01*
X890968Y826984D01*
X891984D01*
X893000Y825968D01*
X900000D02*
X901016Y826984D01*
X902032D01*
X901016Y828000D01*
X902032Y829016D01*
X901016D01*
X900000Y830032D01*
X898984Y829016D01*
X897968D01*
X898984Y828000D01*
X897968Y826984D01*
X898984D01*
X900000Y825968D01*
X907000D02*
X908016Y826984D01*
X909032D01*
X908016Y828000D01*
X909032Y829016D01*
X908016D01*
X907000Y830032D01*
X905984Y829016D01*
X904968D01*
X905984Y828000D01*
X904968Y826984D01*
X905984D01*
X907000Y825968D01*
X914000D02*
X915016Y826984D01*
X916032D01*
X915016Y828000D01*
X916032Y829016D01*
X915016D01*
X914000Y830032D01*
X912984Y829016D01*
X911968D01*
X912984Y828000D01*
X911968Y826984D01*
X912984D01*
X914000Y825968D01*
X1024998Y1067966D02*
X1022966Y1072030D01*
X1027030D01*
X1024998Y1067966D01*
X1035000Y1094968D02*
X1032968Y1099032D01*
X1037032D01*
X1035000Y1094968D01*
X1060000Y1123968D02*
X1057968Y1128032D01*
X1062032D01*
X1060000Y1123968D01*
X1065998Y1095966D02*
X1063966Y1100030D01*
X1068030D01*
X1065998Y1095966D01*
X1079000Y1100604D02*
X1076968Y1104668D01*
X1081032D01*
X1079000Y1100604D01*
X1071000Y1052968D02*
X1068968Y1057032D01*
X1073032D01*
X1071000Y1052968D01*
X1078000Y1051968D02*
X1075968Y1056032D01*
X1080032D01*
X1078000Y1051968D01*
X1064998Y950966D02*
X1066014Y951982D01*
X1067030D01*
X1066014Y952998D01*
X1067030Y954014D01*
X1066014D01*
X1064998Y955030D01*
X1063982Y954014D01*
X1062966D01*
X1063982Y952998D01*
X1062966Y951982D01*
X1063982D01*
X1064998Y950966D01*
X1069000Y1103968D02*
X1070016Y1104984D01*
X1071032D01*
X1070016Y1106000D01*
X1071032Y1107016D01*
X1070016D01*
X1069000Y1108032D01*
X1067984Y1107016D01*
X1066968D01*
X1067984Y1106000D01*
X1066968Y1104984D01*
X1067984D01*
X1069000Y1103968D01*
X1107000Y1004968D02*
X1108016Y1005984D01*
X1109032D01*
X1108016Y1007000D01*
X1109032Y1008016D01*
X1108016D01*
X1107000Y1009032D01*
X1105984Y1008016D01*
X1104968D01*
X1105984Y1007000D01*
X1104968Y1005984D01*
X1105984D01*
X1107000Y1004968D01*
X1073000Y940968D02*
X1070968Y945032D01*
X1075032D01*
X1073000Y940968D01*
X1328000Y1240968D02*
X1329016Y1241984D01*
X1330032D01*
X1329016Y1243000D01*
X1330032Y1244016D01*
X1329016D01*
X1328000Y1245032D01*
X1326984Y1244016D01*
X1325968D01*
X1326984Y1243000D01*
X1325968Y1241984D01*
X1326984D01*
X1328000Y1240968D01*
X1318000D02*
X1319016Y1241984D01*
X1320032D01*
X1319016Y1243000D01*
X1320032Y1244016D01*
X1319016D01*
X1318000Y1245032D01*
X1316984Y1244016D01*
X1315968D01*
X1316984Y1243000D01*
X1315968Y1241984D01*
X1316984D01*
X1318000Y1240968D01*
X1378000Y1041968D02*
X1379016Y1042984D01*
X1380032D01*
X1379016Y1044000D01*
X1380032Y1045016D01*
X1379016D01*
X1378000Y1046032D01*
X1376984Y1045016D01*
X1375968D01*
X1376984Y1044000D01*
X1375968Y1042984D01*
X1376984D01*
X1378000Y1041968D01*
X1465500Y1070218D02*
X1466516Y1071234D01*
X1467532D01*
X1466516Y1072250D01*
X1467532Y1073266D01*
X1466516D01*
X1465500Y1074282D01*
X1464484Y1073266D01*
X1463468D01*
X1464484Y1072250D01*
X1463468Y1071234D01*
X1464484D01*
X1465500Y1070218D01*
X1213998Y1197966D02*
X1215014Y1198982D01*
X1216030D01*
X1215014Y1199998D01*
X1216030Y1201014D01*
X1215014D01*
X1213998Y1202030D01*
X1212982Y1201014D01*
X1211966D01*
X1212982Y1199998D01*
X1211966Y1198982D01*
X1212982D01*
X1213998Y1197966D01*
X1212998Y1176966D02*
X1214014Y1177982D01*
X1215030D01*
X1214014Y1178998D01*
X1215030Y1180014D01*
X1214014D01*
X1212998Y1181030D01*
X1211982Y1180014D01*
X1210965D01*
X1211982Y1178998D01*
X1210965Y1177982D01*
X1211982D01*
X1212998Y1176966D01*
X1594000Y1159968D02*
X1595016Y1160984D01*
X1596032D01*
X1595016Y1162000D01*
X1596032Y1163016D01*
X1595016D01*
X1594000Y1164032D01*
X1592984Y1163016D01*
X1591968D01*
X1592984Y1162000D01*
X1591968Y1160984D01*
X1592984D01*
X1594000Y1159968D01*
X1630001Y927969D02*
X1627969Y932032D01*
X1632033D01*
X1630001Y927969D01*
X1635001Y957969D02*
X1632969Y962032D01*
X1637033D01*
X1635001Y957969D01*
Y1017969D02*
X1632969Y1022033D01*
X1637033D01*
X1635001Y1017969D01*
X1630001Y1027969D02*
X1627969Y1032033D01*
X1632033D01*
X1630001Y1027969D01*
X1635001Y1037969D02*
X1632969Y1042033D01*
X1637033D01*
X1635001Y1037969D01*
X1630001Y1047969D02*
X1627969Y1052033D01*
X1632033D01*
X1630001Y1047969D01*
X1635001Y1077969D02*
X1632969Y1082033D01*
X1637033D01*
X1635001Y1077969D01*
X1630001Y1107969D02*
X1627969Y1112033D01*
X1632033D01*
X1630001Y1107969D01*
X1640001Y927969D02*
X1637969Y932032D01*
X1642033D01*
X1640001Y927969D01*
X1645001Y957969D02*
X1642969Y962032D01*
X1647033D01*
X1645001Y957969D01*
X1640001Y987969D02*
X1637969Y992032D01*
X1642033D01*
X1640001Y987969D01*
X1645001Y1017969D02*
X1642969Y1022033D01*
X1647033D01*
X1645001Y1017969D01*
X1640001Y1027969D02*
X1637969Y1032033D01*
X1642033D01*
X1640001Y1027969D01*
X1645001Y1037969D02*
X1642969Y1042033D01*
X1647033D01*
X1645001Y1037969D01*
X1640001Y1047969D02*
X1637969Y1052033D01*
X1642033D01*
X1640001Y1047969D01*
X1645001Y1077969D02*
X1642969Y1082033D01*
X1647033D01*
X1645001Y1077969D01*
X1640001Y1107969D02*
X1637969Y1112033D01*
X1642033D01*
X1640001Y1107969D01*
X1650001Y927969D02*
X1647969Y932032D01*
X1652033D01*
X1650001Y927969D01*
X1655001Y957969D02*
X1652969Y962032D01*
X1657033D01*
X1655001Y957969D01*
X1650001Y987969D02*
X1647969Y992032D01*
X1652033D01*
X1650001Y987969D01*
X1655001Y1017969D02*
X1652969Y1022033D01*
X1657033D01*
X1655001Y1017969D01*
X1650001Y1027969D02*
X1647969Y1032033D01*
X1652033D01*
X1650001Y1027969D01*
X1655001Y1037969D02*
X1652969Y1042033D01*
X1657033D01*
X1655001Y1037969D01*
X1650001Y1047969D02*
X1647969Y1052033D01*
X1652033D01*
X1650001Y1047969D01*
X1655001Y1077969D02*
X1652969Y1082033D01*
X1657033D01*
X1655001Y1077969D01*
X1650001Y1107969D02*
X1647969Y1112033D01*
X1652033D01*
X1650001Y1107969D01*
X1660001Y927969D02*
X1657969Y932032D01*
X1662033D01*
X1660001Y927969D01*
Y987969D02*
X1657969Y992032D01*
X1662033D01*
X1660001Y987969D01*
Y1027969D02*
X1657969Y1032033D01*
X1662033D01*
X1660001Y1027969D01*
Y1047969D02*
X1657969Y1052033D01*
X1662033D01*
X1660001Y1047969D01*
Y1107969D02*
X1657969Y1112033D01*
X1662033D01*
X1660001Y1107969D01*
X1534000Y1175968D02*
X1535016Y1176984D01*
X1536032D01*
X1535016Y1178000D01*
X1536032Y1179016D01*
X1535016D01*
X1534000Y1180032D01*
X1532984Y1179016D01*
X1531968D01*
X1532984Y1178000D01*
X1531968Y1176984D01*
X1532984D01*
X1534000Y1175968D01*
X1542000Y1208968D02*
X1543016Y1209984D01*
X1544032D01*
X1543016Y1211000D01*
X1544032Y1212016D01*
X1543016D01*
X1542000Y1213032D01*
X1540984Y1212016D01*
X1539968D01*
X1540984Y1211000D01*
X1539968Y1209984D01*
X1540984D01*
X1542000Y1208968D01*
X998000Y1115968D02*
X999016Y1116984D01*
X1000032D01*
X999016Y1118000D01*
X1000032Y1119016D01*
X999016D01*
X998000Y1120032D01*
X996984Y1119016D01*
X995968D01*
X996984Y1118000D01*
X995968Y1116984D01*
X996984D01*
X998000Y1115968D01*
X997998Y1127966D02*
X999014Y1128982D01*
X1000030D01*
X999014Y1129998D01*
X1000030Y1131014D01*
X999014D01*
X997998Y1132030D01*
X996982Y1131014D01*
X995966D01*
X996982Y1129998D01*
X995966Y1128982D01*
X996982D01*
X997998Y1127966D01*
X998998Y1046966D02*
X1000014Y1047982D01*
X1001030D01*
X1000014Y1048998D01*
X1001030Y1050014D01*
X1000014D01*
X998998Y1051030D01*
X997982Y1050014D01*
X996966D01*
X997982Y1048998D01*
X996966Y1047982D01*
X997982D01*
X998998Y1046966D01*
X1002000Y971968D02*
X1003016Y972984D01*
X1004032D01*
X1003016Y974000D01*
X1004032Y975016D01*
X1003016D01*
X1002000Y976032D01*
X1000984Y975016D01*
X999968D01*
X1000984Y974000D01*
X999968Y972984D01*
X1000984D01*
X1002000Y971968D01*
X1000750Y882818D02*
X1001766Y883834D01*
X1002782D01*
X1001766Y884850D01*
X1002782Y885866D01*
X1001766D01*
X1000750Y886882D01*
X999734Y885866D01*
X998718D01*
X999734Y884850D01*
X998718Y883834D01*
X999734D01*
X1000750Y882818D01*
X995000Y882968D02*
X996016Y883984D01*
X997032D01*
X996016Y885000D01*
X997032Y886016D01*
X996016D01*
X995000Y887032D01*
X993984Y886016D01*
X992968D01*
X993984Y885000D01*
X992968Y883984D01*
X993984D01*
X995000Y882968D01*
X843998Y1230965D02*
X845014Y1231982D01*
X846030D01*
X845014Y1232998D01*
X846030Y1234014D01*
X845014D01*
X843998Y1235030D01*
X842982Y1234014D01*
X841966D01*
X842982Y1232998D01*
X841966Y1231982D01*
X842982D01*
X843998Y1230965D01*
X793000Y910968D02*
X794016Y911984D01*
X795032D01*
X794016Y913000D01*
X795032Y914016D01*
X794016D01*
X793000Y915032D01*
X791984Y914016D01*
X790968D01*
X791984Y913000D01*
X790968Y911984D01*
X791984D01*
X793000Y910968D01*
Y903968D02*
X794016Y904984D01*
X795032D01*
X794016Y906000D01*
X795032Y907016D01*
X794016D01*
X793000Y908032D01*
X791984Y907016D01*
X790968D01*
X791984Y906000D01*
X790968Y904984D01*
X791984D01*
X793000Y903968D01*
X989000Y882968D02*
X990016Y883984D01*
X991032D01*
X990016Y885000D01*
X991032Y886016D01*
X990016D01*
X989000Y887032D01*
X987984Y886016D01*
X986968D01*
X987984Y885000D01*
X986968Y883984D01*
X987984D01*
X989000Y882968D01*
X793000Y897968D02*
X794016Y898984D01*
X795032D01*
X794016Y900000D01*
X795032Y901016D01*
X794016D01*
X793000Y902032D01*
X791984Y901016D01*
X790968D01*
X791984Y900000D01*
X790968Y898984D01*
X791984D01*
X793000Y897968D01*
X1133000Y970568D02*
X1130968Y974632D01*
X1135032D01*
X1133000Y970568D01*
X1227000Y995968D02*
X1224968Y1000032D01*
X1229032D01*
X1227000Y995968D01*
X1327997Y978966D02*
X1329013Y979982D01*
X1330029D01*
X1329013Y980998D01*
X1330029Y982014D01*
X1329013D01*
X1327997Y983030D01*
X1326981Y982014D01*
X1325965D01*
X1326981Y980998D01*
X1325965Y979982D01*
X1326981D01*
X1327997Y978966D01*
X1270000Y914968D02*
X1271016Y915984D01*
X1272032D01*
X1271016Y917000D01*
X1272032Y918016D01*
X1271016D01*
X1270000Y919032D01*
X1268984Y918016D01*
X1267968D01*
X1268984Y917000D01*
X1267968Y915984D01*
X1268984D01*
X1270000Y914968D01*
D176*
X1519682Y806450D02*
G03*
X1519682Y806450I-2032J0D01*
G01*
X1494282D02*
G03*
X1494282Y806450I-2032J0D01*
G01*
X1468882D02*
G03*
X1468882Y806450I-2032J0D01*
G01*
X1443482D02*
G03*
X1443482Y806450I-2032J0D01*
G01*
X1418082D02*
G03*
X1418082Y806450I-2032J0D01*
G01*
X1392682D02*
G03*
X1392682Y806450I-2032J0D01*
G01*
X1367282D02*
G03*
X1367282Y806450I-2032J0D01*
G01*
X1341882D02*
G03*
X1341882Y806450I-2032J0D01*
G01*
X1316482D02*
G03*
X1316482Y806450I-2032J0D01*
G01*
X1291082D02*
G03*
X1291082Y806450I-2032J0D01*
G01*
X1265682D02*
G03*
X1265682Y806450I-2032J0D01*
G01*
X1240282D02*
G03*
X1240282Y806450I-2032J0D01*
G01*
X1214882D02*
G03*
X1214882Y806450I-2032J0D01*
G01*
X1189482D02*
G03*
X1189482Y806450I-2032J0D01*
G01*
X1164082D02*
G03*
X1164082Y806450I-2032J0D01*
G01*
X1138682D02*
G03*
X1138682Y806450I-2032J0D01*
G01*
X1113282D02*
G03*
X1113282Y806450I-2032J0D01*
G01*
X1087882D02*
G03*
X1087882Y806450I-2032J0D01*
G01*
X1062482D02*
G03*
X1062482Y806450I-2032J0D01*
G01*
X1037082D02*
G03*
X1037082Y806450I-2032J0D01*
G01*
X1011682D02*
G03*
X1011682Y806450I-2032J0D01*
G01*
X986282D02*
G03*
X986282Y806450I-2032J0D01*
G01*
X960882D02*
G03*
X960882Y806450I-2032J0D01*
G01*
X1519682Y781050D02*
G03*
X1519682Y781050I-2032J0D01*
G01*
X1494282D02*
G03*
X1494282Y781050I-2032J0D01*
G01*
X1468882D02*
G03*
X1468882Y781050I-2032J0D01*
G01*
X1443482D02*
G03*
X1443482Y781050I-2032J0D01*
G01*
X1418082D02*
G03*
X1418082Y781050I-2032J0D01*
G01*
X1392682D02*
G03*
X1392682Y781050I-2032J0D01*
G01*
X1367282D02*
G03*
X1367282Y781050I-2032J0D01*
G01*
X1341882D02*
G03*
X1341882Y781050I-2032J0D01*
G01*
X1316482D02*
G03*
X1316482Y781050I-2032J0D01*
G01*
X1291082D02*
G03*
X1291082Y781050I-2032J0D01*
G01*
X1265682D02*
G03*
X1265682Y781050I-2032J0D01*
G01*
X1240282D02*
G03*
X1240282Y781050I-2032J0D01*
G01*
X1214882D02*
G03*
X1214882Y781050I-2032J0D01*
G01*
X1189482D02*
G03*
X1189482Y781050I-2032J0D01*
G01*
X1164082D02*
G03*
X1164082Y781050I-2032J0D01*
G01*
X1138682D02*
G03*
X1138682Y781050I-2032J0D01*
G01*
X1113282D02*
G03*
X1113282Y781050I-2032J0D01*
G01*
X1087882D02*
G03*
X1087882Y781050I-2032J0D01*
G01*
X1062482D02*
G03*
X1062482Y781050I-2032J0D01*
G01*
X1037082D02*
G03*
X1037082Y781050I-2032J0D01*
G01*
X1011682D02*
G03*
X1011682Y781050I-2032J0D01*
G01*
X986282D02*
G03*
X986282Y781050I-2032J0D01*
G01*
X960882D02*
G03*
X960882Y781050I-2032J0D01*
G01*
Y1263650D02*
G03*
X960882Y1263650I-2032J0D01*
G01*
X986282D02*
G03*
X986282Y1263650I-2032J0D01*
G01*
X1011682D02*
G03*
X1011682Y1263650I-2032J0D01*
G01*
X1037082D02*
G03*
X1037082Y1263650I-2032J0D01*
G01*
X1062482D02*
G03*
X1062482Y1263650I-2032J0D01*
G01*
X1087882D02*
G03*
X1087882Y1263650I-2032J0D01*
G01*
X1113282D02*
G03*
X1113282Y1263650I-2032J0D01*
G01*
X1138682D02*
G03*
X1138682Y1263650I-2032J0D01*
G01*
X1164082D02*
G03*
X1164082Y1263650I-2032J0D01*
G01*
X1189482D02*
G03*
X1189482Y1263650I-2032J0D01*
G01*
X1214882D02*
G03*
X1214882Y1263650I-2032J0D01*
G01*
X1240282D02*
G03*
X1240282Y1263650I-2032J0D01*
G01*
X1265682D02*
G03*
X1265682Y1263650I-2032J0D01*
G01*
X1291082D02*
G03*
X1291082Y1263650I-2032J0D01*
G01*
X1316482D02*
G03*
X1316482Y1263650I-2032J0D01*
G01*
X1341882D02*
G03*
X1341882Y1263650I-2032J0D01*
G01*
X1367282D02*
G03*
X1367282Y1263650I-2032J0D01*
G01*
X1392682D02*
G03*
X1392682Y1263650I-2032J0D01*
G01*
X1418082D02*
G03*
X1418082Y1263650I-2032J0D01*
G01*
X1443482D02*
G03*
X1443482Y1263650I-2032J0D01*
G01*
X1468882D02*
G03*
X1468882Y1263650I-2032J0D01*
G01*
X1494282D02*
G03*
X1494282Y1263650I-2032J0D01*
G01*
X1519682D02*
G03*
X1519682Y1263650I-2032J0D01*
G01*
X960882Y1289050D02*
G03*
X960882Y1289050I-2032J0D01*
G01*
X986282D02*
G03*
X986282Y1289050I-2032J0D01*
G01*
X1011682D02*
G03*
X1011682Y1289050I-2032J0D01*
G01*
X1037082D02*
G03*
X1037082Y1289050I-2032J0D01*
G01*
X1062482D02*
G03*
X1062482Y1289050I-2032J0D01*
G01*
X1087882D02*
G03*
X1087882Y1289050I-2032J0D01*
G01*
X1113282D02*
G03*
X1113282Y1289050I-2032J0D01*
G01*
X1138682D02*
G03*
X1138682Y1289050I-2032J0D01*
G01*
X1164082D02*
G03*
X1164082Y1289050I-2032J0D01*
G01*
X1189482D02*
G03*
X1189482Y1289050I-2032J0D01*
G01*
X1214882D02*
G03*
X1214882Y1289050I-2032J0D01*
G01*
X1240282D02*
G03*
X1240282Y1289050I-2032J0D01*
G01*
X1265682D02*
G03*
X1265682Y1289050I-2032J0D01*
G01*
X1291082D02*
G03*
X1291082Y1289050I-2032J0D01*
G01*
X1316482D02*
G03*
X1316482Y1289050I-2032J0D01*
G01*
X1341882D02*
G03*
X1341882Y1289050I-2032J0D01*
G01*
X1367282D02*
G03*
X1367282Y1289050I-2032J0D01*
G01*
X1392682D02*
G03*
X1392682Y1289050I-2032J0D01*
G01*
X1418082D02*
G03*
X1418082Y1289050I-2032J0D01*
G01*
X1443482D02*
G03*
X1443482Y1289050I-2032J0D01*
G01*
X1468882D02*
G03*
X1468882Y1289050I-2032J0D01*
G01*
X1494282D02*
G03*
X1494282Y1289050I-2032J0D01*
G01*
X1519682D02*
G03*
X1519682Y1289050I-2032J0D01*
G01*
M02*
