G04 Layer_Color=65535*
%FSLAX44Y44*%
%MOMM*%
G71*
G01*
G75*
%ADD60C,0.2000*%
%ADD65C,0.1500*%
%ADD69C,0.2500*%
%ADD70C,0.1200*%
%ADD92C,0.1000*%
%ADD93C,0.6000*%
%ADD94C,0.4000*%
%ADD95C,0.1270*%
%ADD96C,0.0500*%
%ADD97C,0.0800*%
%ADD98C,0.1300*%
%ADD99C,0.0600*%
%ADD100C,0.0700*%
%ADD101C,0.1600*%
D60*
X1250343Y1077500D02*
G03*
X1250343Y1077500I-4000J0D01*
G01*
X1566811Y1086651D02*
G03*
X1559191Y1086651I-3810J0D01*
G01*
Y1099351D02*
G03*
X1566811Y1099351I3810J0D01*
G01*
X1250000Y962000D02*
G03*
X1250000Y962000I-4000J0D01*
G01*
X1558943Y982530D02*
G03*
X1566563Y982530I3810J0D01*
G01*
Y969830D02*
G03*
X1558943Y969830I-3810J0D01*
G01*
X837000Y1211000D02*
G03*
X837000Y1211000I-4000J0D01*
G01*
X992999Y970800D02*
X993001Y1149800D01*
X969998Y970800D02*
X992999D01*
X969998D02*
X970000Y1149800D01*
X993001D01*
X822500Y818500D02*
Y819500D01*
X829500Y818500D02*
Y819500D01*
X781500Y847500D02*
X782500D01*
X781500Y854500D02*
X782500D01*
X785500Y821000D02*
Y826000D01*
X794000D01*
X816500Y821000D02*
Y826000D01*
X808000D02*
X816500D01*
X1595697Y1095903D02*
X1599000D01*
X1595700D02*
Y1104500D01*
X1614300Y1128096D02*
X1614300Y1119500D01*
X1611000Y1128096D02*
X1614303D01*
X1595700Y1119500D02*
X1595700Y1128096D01*
X1595697D02*
X1599000D01*
X1614300Y1095903D02*
X1614300Y1104500D01*
X1611000Y1095903D02*
X1614303D01*
X1611000Y976096D02*
X1614303D01*
X1614300Y967500D02*
Y976096D01*
X1595700Y952500D02*
X1595700Y943904D01*
X1595697D02*
X1599000D01*
X1614300D02*
X1614300Y952500D01*
X1611000Y943904D02*
X1614303D01*
X1595700Y967500D02*
X1595700Y976096D01*
X1595697D02*
X1599000D01*
X1624070Y1226620D02*
Y1228780D01*
Y1201220D02*
Y1203380D01*
Y1175680D02*
X1663070D01*
X1624070Y1254320D02*
X1663070D01*
X1624070Y866620D02*
Y868780D01*
Y841220D02*
Y843380D01*
Y815680D02*
X1663070D01*
X1624070Y894320D02*
X1663070D01*
X1624070Y986620D02*
Y988780D01*
Y961220D02*
Y963380D01*
Y935680D02*
X1663070D01*
X1624070Y1014320D02*
X1663070D01*
X1624070Y1106620D02*
Y1108780D01*
Y1081220D02*
Y1083380D01*
Y1055680D02*
X1663070D01*
X1624070Y1134320D02*
X1663070D01*
X1624070Y1346620D02*
Y1348780D01*
Y1321220D02*
Y1323380D01*
Y1295680D02*
X1663070D01*
X1624070Y746620D02*
Y748780D01*
Y721220D02*
Y723380D01*
Y774320D02*
X1663070D01*
X1221443Y1085000D02*
Y1098000D01*
X1242343Y1077500D02*
X1250343D01*
X1253243Y1071000D02*
Y1082000D01*
X1236343Y1071000D02*
X1253243D01*
Y1101000D02*
Y1112000D01*
X1236343D02*
X1253243D01*
X1560753Y1000181D02*
Y1030181D01*
X1553752Y1000181D02*
Y1030181D01*
Y1000181D02*
X1560753D01*
X1553752Y1030181D02*
X1560753D01*
X1441000Y1109250D02*
X1445500D01*
X1441000D02*
Y1118250D01*
X1458500Y1109250D02*
X1463000D01*
Y1118250D01*
X1243843Y1133000D02*
Y1134000D01*
X1236843Y1133000D02*
Y1134000D01*
X1262500Y968500D02*
Y969500D01*
X1269500Y968500D02*
Y969500D01*
X784400Y879400D02*
X787400D01*
X784400Y860600D02*
X787400D01*
X874500Y803400D02*
X877500D01*
X874500Y784600D02*
X877500D01*
X1404250Y1051000D02*
Y1083000D01*
X1421750Y1051000D02*
Y1083000D01*
X1404250D02*
X1421750D01*
X1404250Y1051000D02*
X1421750D01*
X1402250Y984000D02*
Y1016000D01*
X1419750Y984000D02*
Y1016000D01*
X1402250D02*
X1419750D01*
X1402250Y984000D02*
X1419750D01*
X1393000Y1164250D02*
X1425000D01*
X1393000Y1181750D02*
X1425000D01*
X1393000Y1164250D02*
Y1181750D01*
X1425000Y1164250D02*
Y1181750D01*
X817000Y781000D02*
Y787000D01*
X946150Y819150D02*
X1530350D01*
X946150Y768350D02*
Y819150D01*
Y768350D02*
X1530350D01*
Y819150D01*
X946150Y1301750D02*
X1530350D01*
Y1250950D02*
Y1301750D01*
X946150Y1250950D02*
X1530350D01*
X946150D02*
Y1301750D01*
X824900Y834000D02*
X829150D01*
X824900D02*
Y838250D01*
X864650Y834000D02*
X868900D01*
Y838250D01*
Y873750D02*
Y878000D01*
X864650D02*
X868900D01*
X824900D02*
X829150D01*
X824900Y873750D02*
Y878000D01*
X1498000Y915500D02*
X1532000D01*
X1498000Y864500D02*
X1532000D01*
X1498000D02*
Y915500D01*
X1532000Y864500D02*
Y915500D01*
X1502000Y1203500D02*
X1536000D01*
X1502000Y1152500D02*
X1536000D01*
X1502000D02*
Y1203500D01*
X1536000Y1152500D02*
Y1203500D01*
X1332250Y945000D02*
Y977000D01*
X1314750Y945000D02*
Y977000D01*
Y945000D02*
X1332250D01*
X1314750Y977000D02*
X1332250D01*
X1332750Y1089000D02*
Y1121000D01*
X1315250Y1089000D02*
Y1121000D01*
Y1089000D02*
X1332750D01*
X1315250Y1121000D02*
X1332750D01*
X867500Y821500D02*
Y823500D01*
X886500Y821500D02*
Y823500D01*
X867500Y808500D02*
Y810500D01*
X886500Y808500D02*
Y810500D01*
X867500Y823500D02*
X886500D01*
X867500Y808500D02*
X886500D01*
X867500Y810500D02*
X871500D01*
Y808500D02*
Y810500D01*
Y821500D02*
Y823500D01*
X867500Y821500D02*
X871500D01*
X819400Y889500D02*
X821400D01*
X819400Y870500D02*
X821400D01*
X806400Y889500D02*
X808400D01*
X806400Y870500D02*
X808400D01*
X821400D02*
Y889500D01*
X806400Y870500D02*
Y889500D01*
X808400Y885500D02*
Y889500D01*
X806400Y885500D02*
X808400D01*
X819400D02*
X821400D01*
X819400D02*
Y889500D01*
X801900Y914500D02*
Y925500D01*
X825900Y914500D02*
Y925500D01*
X1252500Y933500D02*
Y934500D01*
X1259500Y933500D02*
Y934500D01*
X1494950Y1098241D02*
X1527050D01*
X1494950Y1149741D02*
X1527050D01*
X1554111Y1086651D02*
Y1099351D01*
Y1086651D02*
X1571891D01*
Y1099351D01*
X1554111D02*
X1571891D01*
X1513000Y1045000D02*
Y1095000D01*
X1493000Y1045000D02*
Y1095000D01*
Y1045000D02*
X1513000D01*
X1493000Y1095000D02*
X1513000D01*
X1512753Y972181D02*
Y1022181D01*
X1492753Y972181D02*
Y1022181D01*
Y972181D02*
X1512753D01*
X1492753Y1022181D02*
X1512753D01*
X1604500Y1077500D02*
X1605500D01*
X1604500Y1084500D02*
X1605500D01*
X1221100Y969500D02*
Y982500D01*
X1242000Y962000D02*
X1250000D01*
X1252900Y955500D02*
Y966500D01*
X1236000Y955500D02*
X1252900D01*
Y985500D02*
Y996500D01*
X1236000D02*
X1252900D01*
X1496950Y917241D02*
X1529050D01*
X1496950Y968741D02*
X1529050D01*
X1454750Y933000D02*
Y937500D01*
X1445750Y933000D02*
X1454750D01*
Y950500D02*
Y955000D01*
X1445750D02*
X1454750D01*
X1024500Y1181500D02*
X1111500D01*
X1024500Y1094500D02*
X1111500D01*
X1024500D02*
Y1181500D01*
X1111500Y1094500D02*
Y1181500D01*
X1024500Y965500D02*
X1111500D01*
X1024500Y878500D02*
X1111500D01*
X1024500D02*
Y965500D01*
X1111500Y878500D02*
Y965500D01*
X923900Y796500D02*
Y807500D01*
X899900Y796500D02*
Y807500D01*
X1604500Y993500D02*
X1605500D01*
X1604500Y986500D02*
X1605500D01*
X1542000Y1049500D02*
X1572000D01*
X1542000Y1056500D02*
X1572000D01*
X1542000Y1049500D02*
Y1056500D01*
X1572000Y1049500D02*
Y1056500D01*
X1553863Y969830D02*
Y982530D01*
X1571643D01*
Y969830D02*
Y982530D01*
X1553863Y969830D02*
X1571643D01*
X1252843Y1133000D02*
Y1134000D01*
X1259843Y1133000D02*
Y1134000D01*
X1243500Y933500D02*
Y934500D01*
X1236500Y933500D02*
Y934500D01*
X1262843Y1098000D02*
Y1099000D01*
X1269843Y1098000D02*
Y1099000D01*
X1282750Y1013000D02*
Y1045000D01*
X1265250Y1013000D02*
Y1045000D01*
Y1013000D02*
X1282750D01*
X1265250Y1045000D02*
X1282750D01*
X1404000Y901750D02*
X1436000D01*
X1404000Y884250D02*
X1436000D01*
Y901750D01*
X1404000Y884250D02*
Y901750D01*
X1035250Y1218500D02*
Y1219500D01*
X1046750Y1218500D02*
Y1219500D01*
X1035250Y1002500D02*
Y1003500D01*
X1046750Y1002500D02*
Y1003500D01*
X1065500Y1018500D02*
X1066500D01*
X1065500Y1011500D02*
X1066500D01*
X1065500Y1235500D02*
X1066500D01*
X1065500Y1228500D02*
X1066500D01*
X840500Y1235900D02*
X853500D01*
X833000Y1207000D02*
Y1215000D01*
X826500Y1204100D02*
X837500D01*
X826500D02*
Y1221000D01*
X856500Y1204100D02*
X867500D01*
Y1221000D01*
X869500Y1254500D02*
Y1255500D01*
X876500Y1254500D02*
Y1255500D01*
X916000Y1269000D02*
X922000D01*
X930000D02*
X936000D01*
X831000Y860997D02*
Y852666D01*
X832666Y851000D01*
X835998D01*
X837664Y852666D01*
Y860997D01*
X845995Y851000D02*
Y860997D01*
X840997Y855998D01*
X847661D01*
X850993Y859331D02*
X852660Y860997D01*
X855992D01*
X857658Y859331D01*
Y852666D01*
X855992Y851000D01*
X852660D01*
X850993Y852666D01*
Y859331D01*
X860990Y851000D02*
X864323D01*
X862656D01*
Y860997D01*
X860990Y859331D01*
X1546000Y776000D02*
Y785997D01*
X1550998D01*
X1552664Y784331D01*
Y780998D01*
X1550998Y779332D01*
X1546000D01*
X1555997Y777666D02*
X1557663Y776000D01*
X1560995D01*
X1562661Y777666D01*
Y784331D01*
X1560995Y785997D01*
X1557663D01*
X1555997Y784331D01*
Y782664D01*
X1557663Y780998D01*
X1562661D01*
X1547000Y1260000D02*
Y1269997D01*
X1551998D01*
X1553665Y1268331D01*
Y1264998D01*
X1551998Y1263332D01*
X1547000D01*
X1556997Y1268331D02*
X1558663Y1269997D01*
X1561995D01*
X1563661Y1268331D01*
Y1266665D01*
X1561995Y1264998D01*
X1563661Y1263332D01*
Y1261666D01*
X1561995Y1260000D01*
X1558663D01*
X1556997Y1261666D01*
Y1263332D01*
X1558663Y1264998D01*
X1556997Y1266665D01*
Y1268331D01*
X1558663Y1264998D02*
X1561995D01*
X1627331Y1155331D02*
X1625665Y1156997D01*
X1622332D01*
X1620666Y1155331D01*
Y1148666D01*
X1622332Y1147000D01*
X1625665D01*
X1627331Y1148666D01*
X1630663Y1156997D02*
Y1147000D01*
Y1151998D01*
X1637327D01*
Y1156997D01*
Y1147000D01*
X1640660Y1145334D02*
X1647324D01*
X1650656Y1156997D02*
X1653989D01*
X1652323D01*
Y1147000D01*
X1650656D01*
X1653989D01*
X1658987D02*
X1662319D01*
X1660653D01*
Y1156997D01*
X1658987Y1155331D01*
X1623998Y919331D02*
X1622332Y920997D01*
X1619000D01*
X1617334Y919331D01*
Y912666D01*
X1619000Y911000D01*
X1622332D01*
X1623998Y912666D01*
X1627331Y920997D02*
Y911000D01*
Y915998D01*
X1633995D01*
Y920997D01*
Y911000D01*
X1637328Y909334D02*
X1643992D01*
X1647324Y920997D02*
X1650656D01*
X1648990D01*
Y911000D01*
X1647324D01*
X1650656D01*
X1662319D02*
X1655655D01*
X1662319Y917664D01*
Y919331D01*
X1660653Y920997D01*
X1657321D01*
X1655655Y919331D01*
X1622332Y1270331D02*
X1620666Y1271997D01*
X1617334D01*
X1615668Y1270331D01*
Y1263666D01*
X1617334Y1262000D01*
X1620666D01*
X1622332Y1263666D01*
X1625665Y1271997D02*
Y1262000D01*
Y1266998D01*
X1632329D01*
Y1271997D01*
Y1262000D01*
X1635661Y1260334D02*
X1642326D01*
X1645658Y1271997D02*
Y1265332D01*
X1648990Y1262000D01*
X1652323Y1265332D01*
Y1271997D01*
X1662319Y1262000D02*
X1655655D01*
X1662319Y1268664D01*
Y1270331D01*
X1660653Y1271997D01*
X1657321D01*
X1655655Y1270331D01*
X1625665Y1287331D02*
X1623998Y1288997D01*
X1620666D01*
X1619000Y1287331D01*
Y1280666D01*
X1620666Y1279000D01*
X1623998D01*
X1625665Y1280666D01*
X1628997Y1288997D02*
Y1279000D01*
Y1283998D01*
X1635661D01*
Y1288997D01*
Y1279000D01*
X1638994Y1277334D02*
X1645658D01*
X1648990Y1288997D02*
Y1282332D01*
X1652323Y1279000D01*
X1655655Y1282332D01*
Y1288997D01*
X1658987Y1279000D02*
X1662319D01*
X1660653D01*
Y1288997D01*
X1658987Y1287331D01*
X1622332Y807331D02*
X1620666Y808997D01*
X1617334D01*
X1615668Y807331D01*
Y800666D01*
X1617334Y799000D01*
X1620666D01*
X1622332Y800666D01*
X1625665Y808997D02*
Y799000D01*
Y803998D01*
X1632329D01*
Y808997D01*
Y799000D01*
X1635661Y797334D02*
X1642326D01*
X1645658Y808997D02*
Y802332D01*
X1648990Y799000D01*
X1652323Y802332D01*
Y808997D01*
X1655655Y807331D02*
X1657321Y808997D01*
X1660653D01*
X1662319Y807331D01*
Y805665D01*
X1660653Y803998D01*
X1658987D01*
X1660653D01*
X1662319Y802332D01*
Y800666D01*
X1660653Y799000D01*
X1657321D01*
X1655655Y800666D01*
X1622332Y789331D02*
X1620666Y790997D01*
X1617334D01*
X1615668Y789331D01*
Y782666D01*
X1617334Y781000D01*
X1620666D01*
X1622332Y782666D01*
X1625665Y790997D02*
Y781000D01*
Y785998D01*
X1632329D01*
Y790997D01*
Y781000D01*
X1635661Y779334D02*
X1642326D01*
X1645658Y790997D02*
Y784332D01*
X1648990Y781000D01*
X1652323Y784332D01*
Y790997D01*
X1660653Y781000D02*
Y790997D01*
X1655655Y785998D01*
X1662319D01*
X999669Y987664D02*
X998003Y985998D01*
Y982666D01*
X999669Y981000D01*
X1006334D01*
X1008000Y982666D01*
Y985998D01*
X1006334Y987664D01*
X1003002D01*
Y984332D01*
X1008000Y990997D02*
X998003D01*
X1008000Y997661D01*
X998003D01*
Y1000994D02*
X1008000D01*
Y1005992D01*
X1006334Y1007658D01*
X999669D01*
X998003Y1005992D01*
Y1000994D01*
X999000Y1021997D02*
Y1012000D01*
X1003998D01*
X1005665Y1013666D01*
Y1020331D01*
X1003998Y1021997D01*
X999000D01*
X1015661D02*
X1012329Y1020331D01*
X1008997Y1016998D01*
Y1013666D01*
X1010663Y1012000D01*
X1013995D01*
X1015661Y1013666D01*
Y1015332D01*
X1013995Y1016998D01*
X1008997D01*
X996000Y1038997D02*
Y1029000D01*
X1000998D01*
X1002664Y1030666D01*
Y1037331D01*
X1000998Y1038997D01*
X996000D01*
X1012661D02*
X1005997D01*
Y1033998D01*
X1009329Y1035665D01*
X1010995D01*
X1012661Y1033998D01*
Y1030666D01*
X1010995Y1029000D01*
X1007663D01*
X1005997Y1030666D01*
X997000Y1066997D02*
Y1057000D01*
X1001998D01*
X1003664Y1058666D01*
Y1065331D01*
X1001998Y1066997D01*
X997000D01*
X1011995Y1057000D02*
Y1066997D01*
X1006997Y1061998D01*
X1013661D01*
X997000Y1080997D02*
Y1071000D01*
X1001998D01*
X1003664Y1072666D01*
Y1079331D01*
X1001998Y1080997D01*
X997000D01*
X1006997Y1079331D02*
X1008663Y1080997D01*
X1011995D01*
X1013661Y1079331D01*
Y1077664D01*
X1011995Y1075998D01*
X1010329D01*
X1011995D01*
X1013661Y1074332D01*
Y1072666D01*
X1011995Y1071000D01*
X1008663D01*
X1006997Y1072666D01*
D65*
X1150502Y1073798D02*
Y1071299D01*
Y1072549D01*
X1156750D01*
X1158000Y1071299D01*
Y1070050D01*
X1156750Y1068800D01*
X1158000Y1076298D02*
Y1078797D01*
Y1077547D01*
X1150502D01*
X1151752Y1076298D01*
X1630502Y719998D02*
Y717499D01*
Y718749D01*
X1636750D01*
X1638000Y717499D01*
Y716250D01*
X1636750Y715000D01*
X1630502Y727496D02*
Y722498D01*
X1634251D01*
X1633002Y724997D01*
Y726246D01*
X1634251Y727496D01*
X1636750D01*
X1638000Y726246D01*
Y723747D01*
X1636750Y722498D01*
X1631752Y729995D02*
X1630502Y731245D01*
Y733744D01*
X1631752Y734994D01*
X1636750D01*
X1638000Y733744D01*
Y731245D01*
X1636750Y729995D01*
X1631752D01*
X1638000Y737493D02*
Y739992D01*
Y738742D01*
X1630502D01*
X1631752Y737493D01*
X1639250Y743741D02*
Y748739D01*
X1638000Y756237D02*
Y751238D01*
X1633002Y756237D01*
X1631752D01*
X1630502Y754987D01*
Y752488D01*
X1631752Y751238D01*
X1474000Y1215998D02*
Y1210166D01*
X1475166Y1209000D01*
X1477499D01*
X1478665Y1210166D01*
Y1215998D01*
X1485663D02*
X1480998D01*
Y1212499D01*
X1483330Y1213665D01*
X1484497D01*
X1485663Y1212499D01*
Y1210166D01*
X1484497Y1209000D01*
X1482164D01*
X1480998Y1210166D01*
X1487995Y1214831D02*
X1489162Y1215998D01*
X1491494D01*
X1492661Y1214831D01*
Y1210166D01*
X1491494Y1209000D01*
X1489162D01*
X1487995Y1210166D01*
Y1214831D01*
X1494993D02*
X1496160Y1215998D01*
X1498492D01*
X1499658Y1214831D01*
Y1210166D01*
X1498492Y1209000D01*
X1496160D01*
X1494993Y1210166D01*
Y1214831D01*
X1501991Y1207834D02*
X1506656D01*
X1508989Y1209000D02*
X1511321D01*
X1510155D01*
Y1215998D01*
X1508989Y1214831D01*
X974000Y1200498D02*
Y1194250D01*
X975250Y1193000D01*
X977749D01*
X978998Y1194250D01*
Y1200498D01*
X981498Y1193000D02*
X983997D01*
X982747D01*
Y1200498D01*
X981498Y1199248D01*
X987746D02*
X988995Y1200498D01*
X991494D01*
X992744Y1199248D01*
Y1194250D01*
X991494Y1193000D01*
X988995D01*
X987746Y1194250D01*
Y1199248D01*
X995243D02*
X996493Y1200498D01*
X998992D01*
X1000242Y1199248D01*
Y1194250D01*
X998992Y1193000D01*
X996493D01*
X995243Y1194250D01*
Y1199248D01*
X1002741Y1191750D02*
X1007739D01*
X1010238Y1193000D02*
X1012738D01*
X1011488D01*
Y1200498D01*
X1010238Y1199248D01*
X959000Y906498D02*
Y900250D01*
X960250Y899000D01*
X962749D01*
X963998Y900250D01*
Y906498D01*
X966498Y899000D02*
X968997D01*
X967747D01*
Y906498D01*
X966498Y905248D01*
X972746D02*
X973995Y906498D01*
X976494D01*
X977744Y905248D01*
Y900250D01*
X976494Y899000D01*
X973995D01*
X972746Y900250D01*
Y905248D01*
X980243D02*
X981493Y906498D01*
X983992D01*
X985242Y905248D01*
Y900250D01*
X983992Y899000D01*
X981493D01*
X980243Y900250D01*
Y905248D01*
X987741Y897750D02*
X992739D01*
X1000237Y899000D02*
X995238D01*
X1000237Y903998D01*
Y905248D01*
X998987Y906498D01*
X996488D01*
X995238Y905248D01*
X1631502Y1318998D02*
Y1316499D01*
Y1317749D01*
X1637750D01*
X1639000Y1316499D01*
Y1315250D01*
X1637750Y1314000D01*
X1631502Y1326496D02*
Y1321498D01*
X1635251D01*
X1634002Y1323997D01*
Y1325246D01*
X1635251Y1326496D01*
X1637750D01*
X1639000Y1325246D01*
Y1322747D01*
X1637750Y1321498D01*
X1632752Y1328995D02*
X1631502Y1330245D01*
Y1332744D01*
X1632752Y1333994D01*
X1637750D01*
X1639000Y1332744D01*
Y1330245D01*
X1637750Y1328995D01*
X1632752D01*
Y1336493D02*
X1631502Y1337742D01*
Y1340242D01*
X1632752Y1341491D01*
X1637750D01*
X1639000Y1340242D01*
Y1337742D01*
X1637750Y1336493D01*
X1632752D01*
X1640250Y1343990D02*
Y1348989D01*
X1639000Y1351488D02*
Y1353987D01*
Y1352738D01*
X1631502D01*
X1632752Y1351488D01*
X1632502Y1078998D02*
Y1076499D01*
Y1077749D01*
X1638750D01*
X1640000Y1076499D01*
Y1075250D01*
X1638750Y1074000D01*
X1633752Y1081498D02*
X1632502Y1082747D01*
Y1085246D01*
X1633752Y1086496D01*
X1635002D01*
X1636251Y1085246D01*
Y1083997D01*
Y1085246D01*
X1637501Y1086496D01*
X1638750D01*
X1640000Y1085246D01*
Y1082747D01*
X1638750Y1081498D01*
X1633752Y1088995D02*
X1632502Y1090245D01*
Y1092744D01*
X1633752Y1093994D01*
X1638750D01*
X1640000Y1092744D01*
Y1090245D01*
X1638750Y1088995D01*
X1633752D01*
Y1096493D02*
X1632502Y1097742D01*
Y1100242D01*
X1633752Y1101491D01*
X1638750D01*
X1640000Y1100242D01*
Y1097742D01*
X1638750Y1096493D01*
X1633752D01*
X1641250Y1103990D02*
Y1108989D01*
X1640000Y1111488D02*
Y1113987D01*
Y1112738D01*
X1632502D01*
X1633752Y1111488D01*
X1632502Y960998D02*
Y958499D01*
Y959749D01*
X1638750D01*
X1640000Y958499D01*
Y957250D01*
X1638750Y956000D01*
X1633752Y963498D02*
X1632502Y964747D01*
Y967246D01*
X1633752Y968496D01*
X1635002D01*
X1636251Y967246D01*
Y965997D01*
Y967246D01*
X1637501Y968496D01*
X1638750D01*
X1640000Y967246D01*
Y964747D01*
X1638750Y963498D01*
X1633752Y970995D02*
X1632502Y972245D01*
Y974744D01*
X1633752Y975994D01*
X1638750D01*
X1640000Y974744D01*
Y972245D01*
X1638750Y970995D01*
X1633752D01*
Y978493D02*
X1632502Y979742D01*
Y982242D01*
X1633752Y983491D01*
X1638750D01*
X1640000Y982242D01*
Y979742D01*
X1638750Y978493D01*
X1633752D01*
X1641250Y985990D02*
Y990989D01*
X1640000Y998486D02*
Y993488D01*
X1635002Y998486D01*
X1633752D01*
X1632502Y997237D01*
Y994738D01*
X1633752Y993488D01*
X1630502Y837998D02*
Y835499D01*
Y836749D01*
X1636750D01*
X1638000Y835499D01*
Y834250D01*
X1636750Y833000D01*
X1630502Y845496D02*
Y840498D01*
X1634251D01*
X1633002Y842997D01*
Y844246D01*
X1634251Y845496D01*
X1636750D01*
X1638000Y844246D01*
Y841747D01*
X1636750Y840498D01*
X1631752Y847995D02*
X1630502Y849245D01*
Y851744D01*
X1631752Y852994D01*
X1636750D01*
X1638000Y851744D01*
Y849245D01*
X1636750Y847995D01*
X1631752D01*
Y855493D02*
X1630502Y856742D01*
Y859242D01*
X1631752Y860491D01*
X1636750D01*
X1638000Y859242D01*
Y856742D01*
X1636750Y855493D01*
X1631752D01*
X1639250Y862990D02*
Y867989D01*
X1638000Y875486D02*
Y870488D01*
X1633002Y875486D01*
X1631752D01*
X1630502Y874237D01*
Y871738D01*
X1631752Y870488D01*
X1629502Y1201998D02*
Y1199499D01*
Y1200749D01*
X1635750D01*
X1637000Y1199499D01*
Y1198250D01*
X1635750Y1197000D01*
X1629502Y1209496D02*
Y1204498D01*
X1633251D01*
X1632002Y1206997D01*
Y1208246D01*
X1633251Y1209496D01*
X1635750D01*
X1637000Y1208246D01*
Y1205747D01*
X1635750Y1204498D01*
X1630752Y1211995D02*
X1629502Y1213245D01*
Y1215744D01*
X1630752Y1216994D01*
X1635750D01*
X1637000Y1215744D01*
Y1213245D01*
X1635750Y1211995D01*
X1630752D01*
X1637000Y1219493D02*
Y1221992D01*
Y1220742D01*
X1629502D01*
X1630752Y1219493D01*
X1638250Y1225741D02*
Y1230739D01*
X1637000Y1233238D02*
Y1235738D01*
Y1234488D01*
X1629502D01*
X1630752Y1233238D01*
X1212000Y945000D02*
Y952498D01*
X1215749D01*
X1216998Y951248D01*
Y948749D01*
X1215749Y947499D01*
X1212000D01*
X1214499D02*
X1216998Y945000D01*
X1224496Y951248D02*
X1223246Y952498D01*
X1220747D01*
X1219498Y951248D01*
Y949998D01*
X1220747Y948749D01*
X1223246D01*
X1224496Y947499D01*
Y946250D01*
X1223246Y945000D01*
X1220747D01*
X1219498Y946250D01*
X1226995Y952498D02*
Y945000D01*
X1229494Y947499D01*
X1231994Y945000D01*
Y952498D01*
X1211000Y1060000D02*
Y1067498D01*
X1214749D01*
X1215998Y1066248D01*
Y1063749D01*
X1214749Y1062499D01*
X1211000D01*
X1213499D02*
X1215998Y1060000D01*
X1223496Y1066248D02*
X1222246Y1067498D01*
X1219747D01*
X1218498Y1066248D01*
Y1064998D01*
X1219747Y1063749D01*
X1222246D01*
X1223496Y1062499D01*
Y1061250D01*
X1222246Y1060000D01*
X1219747D01*
X1218498Y1061250D01*
X1225995Y1067498D02*
Y1060000D01*
X1228494Y1062499D01*
X1230994Y1060000D01*
Y1067498D01*
X829000Y1262498D02*
X833998D01*
X831499D01*
Y1255000D01*
X836498Y1262498D02*
Y1255000D01*
Y1258749D01*
X841496D01*
Y1262498D01*
Y1255000D01*
X893000Y837749D02*
X897998D01*
X905496Y841498D02*
X902997Y840248D01*
X900498Y837749D01*
Y835250D01*
X901747Y834000D01*
X904246D01*
X905496Y835250D01*
Y836499D01*
X904246Y837749D01*
X900498D01*
X907995Y834000D02*
Y835250D01*
X909245D01*
Y834000D01*
X907995D01*
X914243Y840248D02*
X915493Y841498D01*
X917992D01*
X919242Y840248D01*
Y838998D01*
X917992Y837749D01*
X919242Y836499D01*
Y835250D01*
X917992Y834000D01*
X915493D01*
X914243Y835250D01*
Y836499D01*
X915493Y837749D01*
X914243Y838998D01*
Y840248D01*
X915493Y837749D02*
X917992D01*
X921741Y841498D02*
Y836499D01*
X924240Y834000D01*
X926739Y836499D01*
Y841498D01*
X778251Y900000D02*
Y904998D01*
X775752Y902499D02*
X780750D01*
X774502Y912496D02*
X775752Y909997D01*
X778251Y907498D01*
X780750D01*
X782000Y908747D01*
Y911246D01*
X780750Y912496D01*
X779501D01*
X778251Y911246D01*
Y907498D01*
X782000Y914995D02*
X780750D01*
Y916245D01*
X782000D01*
Y914995D01*
X775752Y921243D02*
X774502Y922493D01*
Y924992D01*
X775752Y926242D01*
X777002D01*
X778251Y924992D01*
X779501Y926242D01*
X780750D01*
X782000Y924992D01*
Y922493D01*
X780750Y921243D01*
X779501D01*
X778251Y922493D01*
X777002Y921243D01*
X775752D01*
X778251Y922493D02*
Y924992D01*
X774502Y928741D02*
X779501D01*
X782000Y931240D01*
X779501Y933739D01*
X774502D01*
X974000Y1161498D02*
Y1154000D01*
X977749D01*
X978998Y1155250D01*
Y1160248D01*
X977749Y1161498D01*
X974000D01*
X981498Y1154000D02*
X983997D01*
X982747D01*
Y1161498D01*
X981498Y1160248D01*
D69*
X785250Y799000D02*
G03*
X785250Y799000I-1250J0D01*
G01*
X1209000Y1048250D02*
G03*
X1209000Y1048250I-1250J0D01*
G01*
X842400Y1193350D02*
G03*
X842400Y1193350I-1000J0D01*
G01*
X1546503Y1033431D02*
G03*
X1546503Y1033431I-1250J0D01*
G01*
X1467750Y1125750D02*
G03*
X1467750Y1125750I-1250J0D01*
G01*
X1394000Y1084500D02*
G03*
X1394000Y1084500I-1250J0D01*
G01*
X1379250Y1010000D02*
G03*
X1379250Y1010000I-1250J0D01*
G01*
X1392750Y1152750D02*
G03*
X1392750Y1152750I-1250J0D01*
G01*
X822250Y866000D02*
G03*
X822250Y866000I-1250J0D01*
G01*
X1547250Y865000D02*
G03*
X1547250Y865000I-1250J0D01*
G01*
X1548250Y1151250D02*
G03*
X1548250Y1151250I-1250J0D01*
G01*
X1345000Y943500D02*
G03*
X1345000Y943500I-1250J0D01*
G01*
X1345500Y1087500D02*
G03*
X1345500Y1087500I-1250J0D01*
G01*
X1473749Y1143251D02*
G03*
X1473749Y1143251I-1250J0D01*
G01*
X1527750Y1042450D02*
G03*
X1527750Y1042450I-1250J0D01*
G01*
X1542500Y973000D02*
G03*
X1542500Y973000I-1250J0D01*
G01*
X1477250Y957000D02*
G03*
X1477250Y957000I-1250J0D01*
G01*
X1439500Y958500D02*
G03*
X1439500Y958500I-1250J0D01*
G01*
X1124500Y1093750D02*
G03*
X1124500Y1093750I-1250J0D01*
G01*
Y877750D02*
G03*
X1124500Y877750I-1250J0D01*
G01*
X1576500Y1065000D02*
G03*
X1576500Y1065000I-1250J0D01*
G01*
X1295500Y1011500D02*
G03*
X1295500Y1011500I-1250J0D01*
G01*
X1438750Y913250D02*
G03*
X1438750Y913250I-1250J0D01*
G01*
D70*
X1393000Y971998D02*
Y967000D01*
X1394000Y966000D01*
X1395999D01*
X1396999Y967000D01*
Y971998D01*
X1398998Y970998D02*
X1399998Y971998D01*
X1401997D01*
X1402997Y970998D01*
Y969999D01*
X1401997Y968999D01*
X1400997D01*
X1401997D01*
X1402997Y967999D01*
Y967000D01*
X1401997Y966000D01*
X1399998D01*
X1398998Y967000D01*
X1404996Y970998D02*
X1405996Y971998D01*
X1407995D01*
X1408995Y970998D01*
Y967000D01*
X1407995Y966000D01*
X1405996D01*
X1404996Y967000D01*
Y970998D01*
X1414993Y966000D02*
X1410994D01*
X1414993Y969999D01*
Y970998D01*
X1413993Y971998D01*
X1411994D01*
X1410994Y970998D01*
X1416992Y965000D02*
X1420991D01*
X1426989Y966000D02*
X1422990D01*
X1426989Y969999D01*
Y970998D01*
X1425989Y971998D01*
X1423990D01*
X1422990Y970998D01*
X1546000Y853998D02*
Y849833D01*
X1546833Y849000D01*
X1548499D01*
X1549332Y849833D01*
Y853998D01*
X1554331D02*
X1550998D01*
Y851499D01*
X1552664Y852332D01*
X1553498D01*
X1554331Y851499D01*
Y849833D01*
X1553498Y849000D01*
X1551831D01*
X1550998Y849833D01*
X1555997Y853165D02*
X1556830Y853998D01*
X1558496D01*
X1559329Y853165D01*
Y849833D01*
X1558496Y849000D01*
X1556830D01*
X1555997Y849833D01*
Y853165D01*
X1560995D02*
X1561828Y853998D01*
X1563494D01*
X1564327Y853165D01*
Y849833D01*
X1563494Y849000D01*
X1561828D01*
X1560995Y849833D01*
Y853165D01*
X1565993Y848167D02*
X1569326D01*
X1574324Y849000D02*
X1570992D01*
X1574324Y852332D01*
Y853165D01*
X1573491Y853998D01*
X1571825D01*
X1570992Y853165D01*
X1259000Y1052998D02*
Y1048833D01*
X1259833Y1048000D01*
X1261499D01*
X1262332Y1048833D01*
Y1052998D01*
X1266497Y1048000D02*
Y1052998D01*
X1263998Y1050499D01*
X1267331D01*
X1268997Y1052165D02*
X1269830Y1052998D01*
X1271496D01*
X1272329Y1052165D01*
Y1048833D01*
X1271496Y1048000D01*
X1269830D01*
X1268997Y1048833D01*
Y1052165D01*
X1273995D02*
X1274828Y1052998D01*
X1276494D01*
X1277327Y1052165D01*
Y1048833D01*
X1276494Y1048000D01*
X1274828D01*
X1273995Y1048833D01*
Y1052165D01*
X1335332Y990165D02*
X1334499Y990998D01*
X1332833D01*
X1332000Y990165D01*
Y986833D01*
X1332833Y986000D01*
X1334499D01*
X1335332Y986833D01*
X1336998Y990165D02*
X1337831Y990998D01*
X1339498D01*
X1340331Y990165D01*
Y989332D01*
X1339498Y988499D01*
X1338665D01*
X1339498D01*
X1340331Y987666D01*
Y986833D01*
X1339498Y986000D01*
X1337831D01*
X1336998Y986833D01*
X1341997Y990165D02*
X1342830Y990998D01*
X1344496D01*
X1345329Y990165D01*
Y986833D01*
X1344496Y986000D01*
X1342830D01*
X1341997Y986833D01*
Y990165D01*
X1346995Y990998D02*
X1350327D01*
Y990165D01*
X1346995Y986833D01*
Y986000D01*
X1351994Y985167D02*
X1355326D01*
X1360324Y986000D02*
X1356992D01*
X1360324Y989332D01*
Y990165D01*
X1359491Y990998D01*
X1357825D01*
X1356992Y990165D01*
X1209000Y945000D02*
X1204002D01*
Y947499D01*
X1204835Y948332D01*
X1206501D01*
X1207334Y947499D01*
Y945000D01*
Y946666D02*
X1209000Y948332D01*
X1204835Y949998D02*
X1204002Y950831D01*
Y952497D01*
X1204835Y953331D01*
X1205668D01*
X1206501Y952497D01*
Y951665D01*
Y952497D01*
X1207334Y953331D01*
X1208167D01*
X1209000Y952497D01*
Y950831D01*
X1208167Y949998D01*
X1209000Y954997D02*
Y956663D01*
Y955830D01*
X1204002D01*
X1204835Y954997D01*
X1204002Y959162D02*
Y962494D01*
X1204835D01*
X1208167Y959162D01*
X1209000D01*
X1209833Y964160D02*
Y967493D01*
X1209000Y972491D02*
Y969159D01*
X1205668Y972491D01*
X1204835D01*
X1204002Y971658D01*
Y969992D01*
X1204835Y969159D01*
X800000Y769000D02*
Y774998D01*
X802999D01*
X803999Y773998D01*
Y771999D01*
X802999Y770999D01*
X800000D01*
X808997Y774998D02*
X806998D01*
X805998Y773998D01*
Y770000D01*
X806998Y769000D01*
X808997D01*
X809997Y770000D01*
Y773998D01*
X808997Y774998D01*
X811996D02*
Y769000D01*
X813996Y770999D01*
X815995Y769000D01*
Y774998D01*
X821993D02*
X817994D01*
Y769000D01*
X821993D01*
X817994Y771999D02*
X819994D01*
X823992Y769000D02*
Y774998D01*
X826991D01*
X827991Y773998D01*
Y771999D01*
X826991Y770999D01*
X823992D01*
X825992D02*
X827991Y769000D01*
X995002Y1103000D02*
X1001000D01*
Y1105999D01*
X1000000Y1106999D01*
X996002D01*
X995002Y1105999D01*
Y1103000D01*
X1001000Y1112997D02*
Y1108998D01*
X997001Y1112997D01*
X996002D01*
X995002Y1111997D01*
Y1109998D01*
X996002Y1108998D01*
D92*
X891500Y1236000D02*
G03*
X891500Y1236000I-500J0D01*
G01*
X1058666Y1233332D02*
X1057999Y1233999D01*
X1056666D01*
X1056000Y1233332D01*
Y1230666D01*
X1056666Y1230000D01*
X1057999D01*
X1058666Y1230666D01*
X1059999Y1230000D02*
X1061332D01*
X1060665D01*
Y1233999D01*
X1059999Y1233332D01*
X1065997Y1230000D02*
X1063331D01*
X1065997Y1232666D01*
Y1233332D01*
X1065330Y1233999D01*
X1063997D01*
X1063331Y1233332D01*
X1067330D02*
X1067996Y1233999D01*
X1069329D01*
X1069995Y1233332D01*
Y1232666D01*
X1069329Y1231999D01*
X1068662D01*
X1069329D01*
X1069995Y1231333D01*
Y1230666D01*
X1069329Y1230000D01*
X1067996D01*
X1067330Y1230666D01*
X1071328Y1229334D02*
X1073994D01*
X1075327Y1230000D02*
X1076660D01*
X1075993D01*
Y1233999D01*
X1075327Y1233332D01*
X1172000Y1004000D02*
X1168001D01*
Y1005999D01*
X1168668Y1006666D01*
X1170001D01*
X1170667Y1005999D01*
Y1004000D01*
Y1005333D02*
X1172000Y1006666D01*
Y1007999D02*
Y1009332D01*
Y1008665D01*
X1168001D01*
X1168668Y1007999D01*
Y1011331D02*
X1168001Y1011997D01*
Y1013330D01*
X1168668Y1013997D01*
X1171333D01*
X1172000Y1013330D01*
Y1011997D01*
X1171333Y1011331D01*
X1168668D01*
Y1015330D02*
X1168001Y1015996D01*
Y1017329D01*
X1168668Y1017995D01*
X1171333D01*
X1172000Y1017329D01*
Y1015996D01*
X1171333Y1015330D01*
X1168668D01*
X1172666Y1019328D02*
Y1021994D01*
X1172000Y1025993D02*
Y1023327D01*
X1169334Y1025993D01*
X1168668D01*
X1168001Y1025326D01*
Y1023994D01*
X1168668Y1023327D01*
X1172000Y1220000D02*
X1168001D01*
Y1221999D01*
X1168668Y1222666D01*
X1170001D01*
X1170667Y1221999D01*
Y1220000D01*
Y1221333D02*
X1172000Y1222666D01*
Y1223999D02*
Y1225332D01*
Y1224665D01*
X1168001D01*
X1168668Y1223999D01*
Y1227331D02*
X1168001Y1227997D01*
Y1229330D01*
X1168668Y1229997D01*
X1171333D01*
X1172000Y1229330D01*
Y1227997D01*
X1171333Y1227331D01*
X1168668D01*
Y1231330D02*
X1168001Y1231996D01*
Y1233329D01*
X1168668Y1233995D01*
X1171333D01*
X1172000Y1233329D01*
Y1231996D01*
X1171333Y1231330D01*
X1168668D01*
X1172666Y1235328D02*
Y1237994D01*
X1172000Y1239327D02*
Y1240660D01*
Y1239994D01*
X1168001D01*
X1168668Y1239327D01*
X1151000Y1006500D02*
X1147001D01*
Y1008499D01*
X1147668Y1009166D01*
X1149001D01*
X1149667Y1008499D01*
Y1006500D01*
Y1007833D02*
X1151000Y1009166D01*
Y1010499D02*
Y1011832D01*
Y1011165D01*
X1147001D01*
X1147668Y1010499D01*
Y1013831D02*
X1147001Y1014497D01*
Y1015830D01*
X1147668Y1016497D01*
X1150334D01*
X1151000Y1015830D01*
Y1014497D01*
X1150334Y1013831D01*
X1147668D01*
X1147001Y1017830D02*
Y1020495D01*
X1147668D01*
X1150334Y1017830D01*
X1151000D01*
X1151666Y1021828D02*
Y1024494D01*
X1151000Y1028493D02*
Y1025827D01*
X1148334Y1028493D01*
X1147668D01*
X1147001Y1027826D01*
Y1026493D01*
X1147668Y1025827D01*
X1154000Y1223000D02*
X1150001D01*
Y1224999D01*
X1150668Y1225666D01*
X1152001D01*
X1152667Y1224999D01*
Y1223000D01*
Y1224333D02*
X1154000Y1225666D01*
Y1226999D02*
Y1228332D01*
Y1227665D01*
X1150001D01*
X1150668Y1226999D01*
Y1230331D02*
X1150001Y1230997D01*
Y1232330D01*
X1150668Y1232997D01*
X1153334D01*
X1154000Y1232330D01*
Y1230997D01*
X1153334Y1230331D01*
X1150668D01*
X1150001Y1234330D02*
Y1236995D01*
X1150668D01*
X1153334Y1234330D01*
X1154000D01*
X1154666Y1238328D02*
Y1240994D01*
X1154000Y1242327D02*
Y1243660D01*
Y1242993D01*
X1150001D01*
X1150668Y1242327D01*
X1158668Y1008666D02*
X1158001Y1007999D01*
Y1006666D01*
X1158668Y1006000D01*
X1161333D01*
X1162000Y1006666D01*
Y1007999D01*
X1161333Y1008666D01*
X1162000Y1009999D02*
Y1011332D01*
Y1010665D01*
X1158001D01*
X1158668Y1009999D01*
X1162000Y1013331D02*
Y1014664D01*
Y1013997D01*
X1158001D01*
X1158668Y1013331D01*
X1162000Y1018663D02*
X1158001D01*
X1160001Y1016663D01*
Y1019329D01*
X1162666Y1020662D02*
Y1023328D01*
X1162000Y1027326D02*
Y1024661D01*
X1159334Y1027326D01*
X1158668D01*
X1158001Y1026660D01*
Y1025327D01*
X1158668Y1024661D01*
X1158668Y1224666D02*
X1158001Y1223999D01*
Y1222666D01*
X1158668Y1222000D01*
X1161334D01*
X1162000Y1222666D01*
Y1223999D01*
X1161334Y1224666D01*
X1162000Y1225999D02*
Y1227332D01*
Y1226665D01*
X1158001D01*
X1158668Y1225999D01*
X1162000Y1229331D02*
Y1230664D01*
Y1229997D01*
X1158001D01*
X1158668Y1229331D01*
X1162000Y1234662D02*
X1158001D01*
X1160001Y1232663D01*
Y1235329D01*
X1162666Y1236662D02*
Y1239328D01*
X1162000Y1240661D02*
Y1241993D01*
Y1241327D01*
X1158001D01*
X1158668Y1240661D01*
X876000Y876000D02*
Y879999D01*
X877999D01*
X878666Y879332D01*
Y877999D01*
X877999Y877333D01*
X876000D01*
X877333D02*
X878666Y876000D01*
X881998D02*
Y879999D01*
X879999Y877999D01*
X882664D01*
X883997Y879332D02*
X884664Y879999D01*
X885997D01*
X886663Y879332D01*
Y876666D01*
X885997Y876000D01*
X884664D01*
X883997Y876666D01*
Y879332D01*
X890662Y876000D02*
X887996D01*
X890662Y878666D01*
Y879332D01*
X889995Y879999D01*
X888662D01*
X887996Y879332D01*
X835000Y882000D02*
X831001D01*
Y883999D01*
X831668Y884666D01*
X833001D01*
X833667Y883999D01*
Y882000D01*
Y883333D02*
X835000Y884666D01*
Y887998D02*
X831001D01*
X833001Y885999D01*
Y888664D01*
X831668Y889997D02*
X831001Y890664D01*
Y891997D01*
X831668Y892663D01*
X834334D01*
X835000Y891997D01*
Y890664D01*
X834334Y889997D01*
X831668D01*
X831001Y893996D02*
Y896662D01*
X831668D01*
X834334Y893996D01*
X835000D01*
X844000Y882000D02*
X840001D01*
Y883999D01*
X840668Y884666D01*
X842001D01*
X842667Y883999D01*
Y882000D01*
Y883333D02*
X844000Y884666D01*
Y887998D02*
X840001D01*
X842001Y885999D01*
Y888664D01*
X840668Y889997D02*
X840001Y890664D01*
Y891997D01*
X840668Y892663D01*
X843334D01*
X844000Y891997D01*
Y890664D01*
X843334Y889997D01*
X840668D01*
X840001Y896662D02*
Y893996D01*
X842001D01*
X841334Y895329D01*
Y895995D01*
X842001Y896662D01*
X843334D01*
X844000Y895995D01*
Y894662D01*
X843334Y893996D01*
X848000Y898000D02*
X844001D01*
Y899999D01*
X844668Y900666D01*
X846001D01*
X846667Y899999D01*
Y898000D01*
Y899333D02*
X848000Y900666D01*
Y903998D02*
X844001D01*
X846001Y901999D01*
Y904665D01*
X844668Y905997D02*
X844001Y906664D01*
Y907997D01*
X844668Y908663D01*
X847334D01*
X848000Y907997D01*
Y906664D01*
X847334Y905997D01*
X844668D01*
X844001Y912662D02*
X844668Y911329D01*
X846001Y909996D01*
X847334D01*
X848000Y910663D01*
Y911995D01*
X847334Y912662D01*
X846667D01*
X846001Y911995D01*
Y909996D01*
X879000Y855000D02*
Y858999D01*
X880999D01*
X881666Y858332D01*
Y856999D01*
X880999Y856333D01*
X879000D01*
X880333D02*
X881666Y855000D01*
X884998D02*
Y858999D01*
X882999Y856999D01*
X885665D01*
X886997Y858332D02*
X887664Y858999D01*
X888997D01*
X889663Y858332D01*
Y855666D01*
X888997Y855000D01*
X887664D01*
X886997Y855666D01*
Y858332D01*
X892995Y855000D02*
Y858999D01*
X890996Y856999D01*
X893662D01*
X879000Y846000D02*
Y849999D01*
X880999D01*
X881666Y849332D01*
Y847999D01*
X880999Y847333D01*
X879000D01*
X880333D02*
X881666Y846000D01*
X884998D02*
Y849999D01*
X882999Y847999D01*
X885665D01*
X886997Y849332D02*
X887664Y849999D01*
X888997D01*
X889663Y849332D01*
Y846666D01*
X888997Y846000D01*
X887664D01*
X886997Y846666D01*
Y849332D01*
X890996D02*
X891663Y849999D01*
X892995D01*
X893662Y849332D01*
Y848666D01*
X892995Y847999D01*
X892329D01*
X892995D01*
X893662Y847333D01*
Y846666D01*
X892995Y846000D01*
X891663D01*
X890996Y846666D01*
X1375000Y946000D02*
X1370002D01*
Y948499D01*
X1370835Y949332D01*
X1372501D01*
X1373334Y948499D01*
Y946000D01*
Y947666D02*
X1375000Y949332D01*
X1370835Y950998D02*
X1370002Y951831D01*
Y953497D01*
X1370835Y954331D01*
X1371668D01*
X1372501Y953497D01*
Y952664D01*
Y953497D01*
X1373334Y954331D01*
X1374167D01*
X1375000Y953497D01*
Y951831D01*
X1374167Y950998D01*
X1370835Y955997D02*
X1370002Y956830D01*
Y958496D01*
X1370835Y959329D01*
X1374167D01*
X1375000Y958496D01*
Y956830D01*
X1374167Y955997D01*
X1370835D01*
X1370002Y960995D02*
Y964327D01*
X1370835D01*
X1374167Y960995D01*
X1375000D01*
X1375833Y965993D02*
Y969326D01*
X1375000Y974324D02*
Y970992D01*
X1371668Y974324D01*
X1370835D01*
X1370002Y973491D01*
Y971825D01*
X1370835Y970992D01*
X1381000Y1162000D02*
X1376002D01*
Y1164499D01*
X1376835Y1165332D01*
X1378501D01*
X1379334Y1164499D01*
Y1162000D01*
Y1163666D02*
X1381000Y1165332D01*
X1376835Y1166998D02*
X1376002Y1167831D01*
Y1169498D01*
X1376835Y1170331D01*
X1377668D01*
X1378501Y1169498D01*
Y1168664D01*
Y1169498D01*
X1379334Y1170331D01*
X1380167D01*
X1381000Y1169498D01*
Y1167831D01*
X1380167Y1166998D01*
X1376835Y1171997D02*
X1376002Y1172830D01*
Y1174496D01*
X1376835Y1175329D01*
X1380167D01*
X1381000Y1174496D01*
Y1172830D01*
X1380167Y1171997D01*
X1376835D01*
X1376002Y1180327D02*
Y1176995D01*
X1378501D01*
X1377668Y1178661D01*
Y1179494D01*
X1378501Y1180327D01*
X1380167D01*
X1381000Y1179494D01*
Y1177828D01*
X1380167Y1176995D01*
X1381833Y1181993D02*
Y1185326D01*
X1381000Y1186992D02*
Y1188658D01*
Y1187825D01*
X1376002D01*
X1376835Y1186992D01*
X832668Y903666D02*
X832001Y902999D01*
Y901666D01*
X832668Y901000D01*
X835334D01*
X836000Y901666D01*
Y902999D01*
X835334Y903666D01*
X836000Y906998D02*
X832001D01*
X834001Y904999D01*
Y907664D01*
X836000Y908997D02*
Y910330D01*
Y909664D01*
X832001D01*
X832668Y908997D01*
Y912330D02*
X832001Y912996D01*
Y914329D01*
X832668Y914995D01*
X833334D01*
X834001Y914329D01*
Y913662D01*
Y914329D01*
X834667Y914995D01*
X835334D01*
X836000Y914329D01*
Y912996D01*
X835334Y912330D01*
X878666Y868332D02*
X877999Y868999D01*
X876666D01*
X876000Y868332D01*
Y865666D01*
X876666Y865000D01*
X877999D01*
X878666Y865666D01*
X881998Y865000D02*
Y868999D01*
X879999Y866999D01*
X882664D01*
X883997Y868332D02*
X884664Y868999D01*
X885997D01*
X886663Y868332D01*
Y865666D01*
X885997Y865000D01*
X884664D01*
X883997Y865666D01*
Y868332D01*
X887996D02*
X888662Y868999D01*
X889995D01*
X890662Y868332D01*
Y867666D01*
X889995Y866999D01*
X890662Y866333D01*
Y865666D01*
X889995Y865000D01*
X888662D01*
X887996Y865666D01*
Y866333D01*
X888662Y866999D01*
X887996Y867666D01*
Y868332D01*
X888662Y866999D02*
X889995D01*
X1513167Y1114332D02*
X1509835D01*
X1509002Y1113499D01*
Y1111833D01*
X1509835Y1111000D01*
X1513167D01*
X1514000Y1111833D01*
Y1113499D01*
X1512334Y1112666D02*
X1514000Y1114332D01*
Y1113499D02*
X1513167Y1114332D01*
X1509835Y1115998D02*
X1509002Y1116831D01*
Y1118497D01*
X1509835Y1119331D01*
X1510668D01*
X1511501Y1118497D01*
Y1117664D01*
Y1118497D01*
X1512334Y1119331D01*
X1513167D01*
X1514000Y1118497D01*
Y1116831D01*
X1513167Y1115998D01*
X1509835Y1120997D02*
X1509002Y1121830D01*
Y1123496D01*
X1509835Y1124329D01*
X1513167D01*
X1514000Y1123496D01*
Y1121830D01*
X1513167Y1120997D01*
X1509835D01*
Y1125995D02*
X1509002Y1126828D01*
Y1128494D01*
X1509835Y1129327D01*
X1513167D01*
X1514000Y1128494D01*
Y1126828D01*
X1513167Y1125995D01*
X1509835D01*
X1514833Y1130993D02*
Y1134326D01*
X1514000Y1135992D02*
Y1137658D01*
Y1136825D01*
X1509002D01*
X1509835Y1135992D01*
X1415332Y1103833D02*
Y1107165D01*
X1414499Y1107998D01*
X1412833D01*
X1412000Y1107165D01*
Y1103833D01*
X1412833Y1103000D01*
X1414499D01*
X1413666Y1104666D02*
X1415332Y1103000D01*
X1414499D02*
X1415332Y1103833D01*
X1416998Y1107165D02*
X1417831Y1107998D01*
X1419498D01*
X1420331Y1107165D01*
Y1106332D01*
X1419498Y1105499D01*
X1418665D01*
X1419498D01*
X1420331Y1104666D01*
Y1103833D01*
X1419498Y1103000D01*
X1417831D01*
X1416998Y1103833D01*
X1421997Y1107165D02*
X1422830Y1107998D01*
X1424496D01*
X1425329Y1107165D01*
Y1103833D01*
X1424496Y1103000D01*
X1422830D01*
X1421997Y1103833D01*
Y1107165D01*
X1426995Y1103000D02*
X1428661D01*
X1427828D01*
Y1107998D01*
X1426995Y1107165D01*
X1431160Y1102167D02*
X1434493D01*
X1436159Y1103000D02*
X1437825D01*
X1436992D01*
Y1107998D01*
X1436159Y1107165D01*
X1502002Y1062000D02*
X1506167D01*
X1507000Y1062833D01*
Y1064499D01*
X1506167Y1065332D01*
X1502002D01*
X1502835Y1066998D02*
X1502002Y1067831D01*
Y1069498D01*
X1502835Y1070331D01*
X1503668D01*
X1504501Y1069498D01*
Y1068664D01*
Y1069498D01*
X1505334Y1070331D01*
X1506167D01*
X1507000Y1069498D01*
Y1067831D01*
X1506167Y1066998D01*
X1502835Y1071997D02*
X1502002Y1072830D01*
Y1074496D01*
X1502835Y1075329D01*
X1506167D01*
X1507000Y1074496D01*
Y1072830D01*
X1506167Y1071997D01*
X1502835D01*
X1507000Y1076995D02*
Y1078661D01*
Y1077828D01*
X1502002D01*
X1502835Y1076995D01*
X1507833Y1081160D02*
Y1084493D01*
X1507000Y1086159D02*
Y1087825D01*
Y1086992D01*
X1502002D01*
X1502835Y1086159D01*
X1483000Y1030998D02*
Y1026833D01*
X1483833Y1026000D01*
X1485499D01*
X1486332Y1026833D01*
Y1030998D01*
X1487998Y1030165D02*
X1488831Y1030998D01*
X1490498D01*
X1491331Y1030165D01*
Y1029332D01*
X1490498Y1028499D01*
X1489664D01*
X1490498D01*
X1491331Y1027666D01*
Y1026833D01*
X1490498Y1026000D01*
X1488831D01*
X1487998Y1026833D01*
X1492997Y1030165D02*
X1493830Y1030998D01*
X1495496D01*
X1496329Y1030165D01*
Y1026833D01*
X1495496Y1026000D01*
X1493830D01*
X1492997Y1026833D01*
Y1030165D01*
X1497995Y1026000D02*
X1499661D01*
X1498828D01*
Y1030998D01*
X1497995Y1030165D01*
X1502160Y1025167D02*
X1505493D01*
X1510491Y1026000D02*
X1507159D01*
X1510491Y1029332D01*
Y1030165D01*
X1509658Y1030998D01*
X1507992D01*
X1507159Y1030165D01*
X1039668Y1212666D02*
X1039001Y1211999D01*
Y1210666D01*
X1039668Y1210000D01*
X1042334D01*
X1043000Y1210666D01*
Y1211999D01*
X1042334Y1212666D01*
X1043000Y1213999D02*
Y1215332D01*
Y1214665D01*
X1039001D01*
X1039668Y1213999D01*
X1043000Y1219997D02*
Y1217331D01*
X1040334Y1219997D01*
X1039668D01*
X1039001Y1219330D01*
Y1217997D01*
X1039668Y1217331D01*
Y1221330D02*
X1039001Y1221996D01*
Y1223329D01*
X1039668Y1223995D01*
X1040334D01*
X1041001Y1223329D01*
X1041667Y1223995D01*
X1042334D01*
X1043000Y1223329D01*
Y1221996D01*
X1042334Y1221330D01*
X1041667D01*
X1041001Y1221996D01*
X1040334Y1221330D01*
X1039668D01*
X1041001Y1221996D02*
Y1223329D01*
X1043666Y1225328D02*
Y1227994D01*
X1043000Y1229327D02*
Y1230660D01*
Y1229994D01*
X1039001D01*
X1039668Y1229327D01*
X986835Y855332D02*
X986002Y854499D01*
Y852833D01*
X986835Y852000D01*
X990167D01*
X991000Y852833D01*
Y854499D01*
X990167Y855332D01*
X991000Y856998D02*
Y858664D01*
Y857831D01*
X986002D01*
X986835Y856998D01*
Y861164D02*
X986002Y861997D01*
Y863663D01*
X986835Y864496D01*
X990167D01*
X991000Y863663D01*
Y861997D01*
X990167Y861164D01*
X986835D01*
X986002Y866162D02*
Y869494D01*
X986835D01*
X990167Y866162D01*
X991000D01*
X991833Y871160D02*
Y874493D01*
X991000Y879491D02*
Y876159D01*
X987668Y879491D01*
X986835D01*
X986002Y878658D01*
Y876992D01*
X986835Y876159D01*
X1141668Y1223666D02*
X1141001Y1222999D01*
Y1221666D01*
X1141668Y1221000D01*
X1144334D01*
X1145000Y1221666D01*
Y1222999D01*
X1144334Y1223666D01*
X1145000Y1224999D02*
Y1226332D01*
Y1225665D01*
X1141001D01*
X1141668Y1224999D01*
X1145000Y1230997D02*
Y1228331D01*
X1142334Y1230997D01*
X1141668D01*
X1141001Y1230330D01*
Y1228997D01*
X1141668Y1228331D01*
X1145000Y1232330D02*
Y1233662D01*
Y1232996D01*
X1141001D01*
X1141668Y1232330D01*
X1145666Y1235662D02*
Y1238328D01*
X1145000Y1239661D02*
Y1240993D01*
Y1240327D01*
X1141001D01*
X1141668Y1239661D01*
X1139668Y1011666D02*
X1139001Y1010999D01*
Y1009666D01*
X1139668Y1009000D01*
X1142334D01*
X1143000Y1009666D01*
Y1010999D01*
X1142334Y1011666D01*
X1143000Y1012999D02*
Y1014332D01*
Y1013665D01*
X1139001D01*
X1139668Y1012999D01*
X1143000Y1018997D02*
Y1016331D01*
X1140334Y1018997D01*
X1139668D01*
X1139001Y1018330D01*
Y1016997D01*
X1139668Y1016331D01*
X1143000Y1020330D02*
Y1021662D01*
Y1020996D01*
X1139001D01*
X1139668Y1020330D01*
X1143667Y1023662D02*
Y1026328D01*
X1143000Y1030326D02*
Y1027661D01*
X1140334Y1030326D01*
X1139668D01*
X1139001Y1029660D01*
Y1028327D01*
X1139668Y1027661D01*
X1424000Y930998D02*
X1427332D01*
X1425666D01*
Y926000D01*
X1428998D02*
Y930998D01*
X1431497D01*
X1432331Y930165D01*
Y928499D01*
X1431497Y927666D01*
X1428998D01*
X1437329Y930998D02*
X1433997D01*
Y928499D01*
X1435663Y929332D01*
X1436496D01*
X1437329Y928499D01*
Y926833D01*
X1436496Y926000D01*
X1434830D01*
X1433997Y926833D01*
X1438995Y930165D02*
X1439828Y930998D01*
X1441494D01*
X1442327Y930165D01*
Y926833D01*
X1441494Y926000D01*
X1439828D01*
X1438995Y926833D01*
Y930165D01*
X1443994Y926000D02*
X1445660D01*
X1444827D01*
Y930998D01*
X1443994Y930165D01*
X1448159Y925167D02*
X1451491D01*
X1456489Y926000D02*
X1453157D01*
X1456489Y929332D01*
Y930165D01*
X1455656Y930998D01*
X1453990D01*
X1453157Y930165D01*
X1515167Y932332D02*
X1511835D01*
X1511002Y931499D01*
Y929833D01*
X1511835Y929000D01*
X1515167D01*
X1516000Y929833D01*
Y931499D01*
X1514334Y930666D02*
X1516000Y932332D01*
Y931499D02*
X1515167Y932332D01*
X1511835Y933998D02*
X1511002Y934831D01*
Y936497D01*
X1511835Y937331D01*
X1512668D01*
X1513501Y936497D01*
Y935665D01*
Y936497D01*
X1514334Y937331D01*
X1515167D01*
X1516000Y936497D01*
Y934831D01*
X1515167Y933998D01*
X1511835Y938997D02*
X1511002Y939830D01*
Y941496D01*
X1511835Y942329D01*
X1515167D01*
X1516000Y941496D01*
Y939830D01*
X1515167Y938997D01*
X1511835D01*
Y943995D02*
X1511002Y944828D01*
Y946494D01*
X1511835Y947327D01*
X1515167D01*
X1516000Y946494D01*
Y944828D01*
X1515167Y943995D01*
X1511835D01*
X1516833Y948994D02*
Y952326D01*
X1516000Y957324D02*
Y953992D01*
X1512668Y957324D01*
X1511835D01*
X1511002Y956491D01*
Y954825D01*
X1511835Y953992D01*
X1405332Y950833D02*
Y954165D01*
X1404499Y954998D01*
X1402833D01*
X1402000Y954165D01*
Y950833D01*
X1402833Y950000D01*
X1404499D01*
X1403666Y951666D02*
X1405332Y950000D01*
X1404499D02*
X1405332Y950833D01*
X1406998Y954165D02*
X1407831Y954998D01*
X1409498D01*
X1410331Y954165D01*
Y953332D01*
X1409498Y952499D01*
X1408665D01*
X1409498D01*
X1410331Y951666D01*
Y950833D01*
X1409498Y950000D01*
X1407831D01*
X1406998Y950833D01*
X1411997Y954165D02*
X1412830Y954998D01*
X1414496D01*
X1415329Y954165D01*
Y950833D01*
X1414496Y950000D01*
X1412830D01*
X1411997Y950833D01*
Y954165D01*
X1416995Y950000D02*
X1418661D01*
X1417828D01*
Y954998D01*
X1416995Y954165D01*
X1421160Y949167D02*
X1424493D01*
X1429491Y950000D02*
X1426159D01*
X1429491Y953332D01*
Y954165D01*
X1428658Y954998D01*
X1426992D01*
X1426159Y954165D01*
X847000Y1251000D02*
Y1255998D01*
X849499D01*
X850332Y1255165D01*
Y1253499D01*
X849499Y1252666D01*
X847000D01*
X848666D02*
X850332Y1251000D01*
X855331D02*
X851998D01*
X855331Y1254332D01*
Y1255165D01*
X854498Y1255998D01*
X852831D01*
X851998Y1255165D01*
X856997D02*
X857830Y1255998D01*
X859496D01*
X860329Y1255165D01*
Y1251833D01*
X859496Y1251000D01*
X857830D01*
X856997Y1251833D01*
Y1255165D01*
X861995Y1251833D02*
X862828Y1251000D01*
X864494D01*
X865327Y1251833D01*
Y1255165D01*
X864494Y1255998D01*
X862828D01*
X861995Y1255165D01*
Y1254332D01*
X862828Y1253499D01*
X865327D01*
X1602002Y1100000D02*
X1606167D01*
X1607000Y1100833D01*
Y1102499D01*
X1606167Y1103332D01*
X1602002D01*
X1602835Y1104998D02*
X1602002Y1105831D01*
Y1107498D01*
X1602835Y1108331D01*
X1603668D01*
X1604501Y1107498D01*
Y1106665D01*
Y1107498D01*
X1605334Y1108331D01*
X1606167D01*
X1607000Y1107498D01*
Y1105831D01*
X1606167Y1104998D01*
X1602835Y1109997D02*
X1602002Y1110830D01*
Y1112496D01*
X1602835Y1113329D01*
X1606167D01*
X1607000Y1112496D01*
Y1110830D01*
X1606167Y1109997D01*
X1602835D01*
Y1114995D02*
X1602002Y1115828D01*
Y1117494D01*
X1602835Y1118327D01*
X1606167D01*
X1607000Y1117494D01*
Y1115828D01*
X1606167Y1114995D01*
X1602835D01*
X1607833Y1119994D02*
Y1123326D01*
X1607000Y1124992D02*
Y1126658D01*
Y1125825D01*
X1602002D01*
X1602835Y1124992D01*
X1602252Y945500D02*
X1606417D01*
X1607250Y946333D01*
Y947999D01*
X1606417Y948832D01*
X1602252D01*
X1603085Y950498D02*
X1602252Y951331D01*
Y952998D01*
X1603085Y953831D01*
X1603918D01*
X1604751Y952998D01*
Y952165D01*
Y952998D01*
X1605584Y953831D01*
X1606417D01*
X1607250Y952998D01*
Y951331D01*
X1606417Y950498D01*
X1603085Y955497D02*
X1602252Y956330D01*
Y957996D01*
X1603085Y958829D01*
X1606417D01*
X1607250Y957996D01*
Y956330D01*
X1606417Y955497D01*
X1603085D01*
Y960495D02*
X1602252Y961328D01*
Y962994D01*
X1603085Y963827D01*
X1606417D01*
X1607250Y962994D01*
Y961328D01*
X1606417Y960495D01*
X1603085D01*
X1608083Y965493D02*
Y968826D01*
X1607250Y973824D02*
Y970492D01*
X1603918Y973824D01*
X1603085D01*
X1602252Y972991D01*
Y971325D01*
X1603085Y970492D01*
D93*
X1525000Y874500D02*
G03*
X1525000Y874500I-3000J0D01*
G01*
X1529000Y1162500D02*
G03*
X1529000Y1162500I-3000J0D01*
G01*
X1097000Y1111000D02*
G03*
X1097000Y1111000I-3000J0D01*
G01*
X1098000Y888000D02*
G03*
X1098000Y888000I-3000J0D01*
G01*
D94*
X1507000Y1053000D02*
G03*
X1507000Y1053000I-2000J0D01*
G01*
X1506752Y980181D02*
G03*
X1506752Y980181I-2000J0D01*
G01*
D95*
X860000Y1283999D02*
G03*
X860000Y1283999I-8000J0D01*
G01*
X849000Y1158100D02*
Y1193900D01*
Y1158100D02*
X905000D01*
X849000Y1193900D02*
X905000D01*
Y1158100D02*
Y1193900D01*
X841000Y1268999D02*
X863000D01*
X841000Y1298999D02*
X863000D01*
D96*
X1189000Y1177000D02*
Y1193000D01*
Y1117000D02*
Y1133000D01*
Y1057000D02*
Y1073000D01*
Y997000D02*
Y1013000D01*
Y937000D02*
Y953000D01*
Y877000D02*
Y893000D01*
X1228000Y1232000D02*
X1244000D01*
X1288000D02*
X1304000D01*
X1348000D02*
X1364000D01*
X1408000D02*
X1424000D01*
X1468000D02*
X1484000D01*
X1528000D02*
X1544000D01*
X1583000Y1177000D02*
Y1193000D01*
Y1117000D02*
Y1133000D01*
Y1057000D02*
Y1073000D01*
Y997000D02*
Y1013000D01*
Y937000D02*
Y953000D01*
Y877000D02*
Y893000D01*
X1528000Y838000D02*
X1544000D01*
X1468000D02*
X1484000D01*
X1408000D02*
X1424000D01*
X1348000D02*
X1364000D01*
X1288000D02*
X1304000D01*
X1228000D02*
X1244000D01*
X1131000Y832000D02*
Y829501D01*
X1129750D01*
X1129334Y829917D01*
Y830750D01*
X1129750Y831167D01*
X1131000D01*
X1130167D02*
X1129334Y832000D01*
X1127251D02*
Y829501D01*
X1128501Y830750D01*
X1126835D01*
X1126002Y832000D02*
X1125169D01*
X1125585D01*
Y829501D01*
X1126002Y829917D01*
X1122253Y829501D02*
X1123086Y829917D01*
X1123919Y830750D01*
Y831583D01*
X1123503Y832000D01*
X1122669D01*
X1122253Y831583D01*
Y831167D01*
X1122669Y830750D01*
X1123919D01*
X1146917Y933666D02*
X1146501Y933250D01*
Y932417D01*
X1146917Y932000D01*
X1148584D01*
X1149000Y932417D01*
Y933250D01*
X1148584Y933666D01*
X1149000Y934499D02*
Y935332D01*
Y934916D01*
X1146501D01*
X1146917Y934499D01*
X1149000Y936582D02*
Y937415D01*
Y936998D01*
X1146501D01*
X1146917Y936582D01*
Y938664D02*
X1146501Y939081D01*
Y939914D01*
X1146917Y940331D01*
X1147334D01*
X1147750Y939914D01*
X1148167Y940331D01*
X1148584D01*
X1149000Y939914D01*
Y939081D01*
X1148584Y938664D01*
X1148167D01*
X1147750Y939081D01*
X1147334Y938664D01*
X1146917D01*
X1147750Y939081D02*
Y939914D01*
X1149417Y941164D02*
Y942830D01*
X1149000Y945329D02*
Y943663D01*
X1147334Y945329D01*
X1146917D01*
X1146501Y944912D01*
Y944079D01*
X1146917Y943663D01*
X1158000Y914000D02*
X1155501D01*
Y915250D01*
X1155917Y915666D01*
X1156750D01*
X1157167Y915250D01*
Y914000D01*
Y914833D02*
X1158000Y915666D01*
Y916499D02*
Y917332D01*
Y916916D01*
X1155501D01*
X1155917Y916499D01*
X1158000Y918582D02*
Y919415D01*
Y918998D01*
X1155501D01*
X1155917Y918582D01*
X1158000Y920665D02*
Y921497D01*
Y921081D01*
X1155501D01*
X1155917Y920665D01*
X1158417Y922747D02*
Y924413D01*
X1158000Y926912D02*
Y925246D01*
X1156334Y926912D01*
X1155917D01*
X1155501Y926496D01*
Y925663D01*
X1155917Y925246D01*
X1158000Y1130000D02*
X1155501D01*
Y1131250D01*
X1155917Y1131666D01*
X1156750D01*
X1157167Y1131250D01*
Y1130000D01*
Y1130833D02*
X1158000Y1131666D01*
Y1132499D02*
Y1133332D01*
Y1132916D01*
X1155501D01*
X1155917Y1132499D01*
X1158000Y1134582D02*
Y1135415D01*
Y1134998D01*
X1155501D01*
X1155917Y1134582D01*
X1158000Y1136665D02*
Y1137497D01*
Y1137081D01*
X1155501D01*
X1155917Y1136665D01*
X1158417Y1138747D02*
Y1140413D01*
X1158000Y1141246D02*
Y1142079D01*
Y1141663D01*
X1155501D01*
X1155917Y1141246D01*
X1177000Y913000D02*
X1174501D01*
Y914250D01*
X1174917Y914666D01*
X1175750D01*
X1176167Y914250D01*
Y913000D01*
Y913833D02*
X1177000Y914666D01*
Y915499D02*
Y916332D01*
Y915916D01*
X1174501D01*
X1174917Y915499D01*
Y917582D02*
X1174501Y917998D01*
Y918831D01*
X1174917Y919248D01*
X1176583D01*
X1177000Y918831D01*
Y917998D01*
X1176583Y917582D01*
X1174917D01*
X1177000Y921331D02*
X1174501D01*
X1175750Y920081D01*
Y921747D01*
X1177417Y922580D02*
Y924246D01*
X1177000Y926746D02*
Y925079D01*
X1175334Y926746D01*
X1174917D01*
X1174501Y926329D01*
Y925496D01*
X1174917Y925079D01*
X1177000Y1130000D02*
X1174501D01*
Y1131250D01*
X1174917Y1131666D01*
X1175750D01*
X1176167Y1131250D01*
Y1130000D01*
Y1130833D02*
X1177000Y1131666D01*
Y1132499D02*
Y1133332D01*
Y1132916D01*
X1174501D01*
X1174917Y1132499D01*
Y1134582D02*
X1174501Y1134998D01*
Y1135831D01*
X1174917Y1136248D01*
X1176583D01*
X1177000Y1135831D01*
Y1134998D01*
X1176583Y1134582D01*
X1174917D01*
X1177000Y1138331D02*
X1174501D01*
X1175750Y1137081D01*
Y1138747D01*
X1177417Y1139580D02*
Y1141246D01*
X1177000Y1142079D02*
Y1142912D01*
Y1142496D01*
X1174501D01*
X1174917Y1142079D01*
X1145917Y915666D02*
X1145501Y915250D01*
Y914417D01*
X1145917Y914000D01*
X1147583D01*
X1148000Y914417D01*
Y915250D01*
X1147583Y915666D01*
X1148000Y916499D02*
Y917332D01*
Y916916D01*
X1145501D01*
X1145917Y916499D01*
X1148000Y918582D02*
Y919415D01*
Y918998D01*
X1145501D01*
X1145917Y918582D01*
X1145501Y920665D02*
Y922331D01*
X1145917D01*
X1147583Y920665D01*
X1148000D01*
X1148417Y923164D02*
Y924830D01*
X1148000Y927329D02*
Y925663D01*
X1146334Y927329D01*
X1145917D01*
X1145501Y926912D01*
Y926079D01*
X1145917Y925663D01*
Y1131666D02*
X1145501Y1131250D01*
Y1130416D01*
X1145917Y1130000D01*
X1147583D01*
X1148000Y1130416D01*
Y1131250D01*
X1147583Y1131666D01*
X1148000Y1132499D02*
Y1133332D01*
Y1132916D01*
X1145501D01*
X1145917Y1132499D01*
X1148000Y1134582D02*
Y1135415D01*
Y1134998D01*
X1145501D01*
X1145917Y1134582D01*
X1145501Y1136665D02*
Y1138331D01*
X1145917D01*
X1147583Y1136665D01*
X1148000D01*
X1148417Y1139164D02*
Y1140830D01*
X1148000Y1141663D02*
Y1142496D01*
Y1142079D01*
X1145501D01*
X1145917Y1141663D01*
X1527000Y848000D02*
X1524501D01*
Y849250D01*
X1524917Y849666D01*
X1525750D01*
X1526167Y849250D01*
Y848000D01*
Y848833D02*
X1527000Y849666D01*
X1524501Y852165D02*
Y850499D01*
X1525750D01*
X1525334Y851332D01*
Y851749D01*
X1525750Y852165D01*
X1526584D01*
X1527000Y851749D01*
Y850916D01*
X1526584Y850499D01*
X1524917Y852998D02*
X1524501Y853415D01*
Y854248D01*
X1524917Y854665D01*
X1526584D01*
X1527000Y854248D01*
Y853415D01*
X1526584Y852998D01*
X1524917D01*
X1527000Y855498D02*
Y856331D01*
Y855914D01*
X1524501D01*
X1524917Y855498D01*
X1527417Y857580D02*
Y859246D01*
X1527000Y861746D02*
Y860079D01*
X1525334Y861746D01*
X1524917D01*
X1524501Y861329D01*
Y860496D01*
X1524917Y860079D01*
X1560500Y1166000D02*
Y1168499D01*
X1561750D01*
X1562166Y1168083D01*
Y1167250D01*
X1561750Y1166833D01*
X1560500D01*
X1561333D02*
X1562166Y1166000D01*
X1564665Y1168499D02*
X1562999D01*
Y1167250D01*
X1563832Y1167666D01*
X1564249D01*
X1564665Y1167250D01*
Y1166416D01*
X1564249Y1166000D01*
X1563416D01*
X1562999Y1166416D01*
X1565498Y1168083D02*
X1565915Y1168499D01*
X1566748D01*
X1567164Y1168083D01*
Y1166416D01*
X1566748Y1166000D01*
X1565915D01*
X1565498Y1166416D01*
Y1168083D01*
X1567997Y1166000D02*
X1568831D01*
X1568414D01*
Y1168499D01*
X1567997Y1168083D01*
X1570080Y1165583D02*
X1571746D01*
X1572579Y1166000D02*
X1573412D01*
X1572996D01*
Y1168499D01*
X1572579Y1168083D01*
X1558000Y901000D02*
Y903499D01*
X1559250D01*
X1559666Y903083D01*
Y902250D01*
X1559250Y901833D01*
X1558000D01*
X1558833D02*
X1559666Y901000D01*
X1562165Y903499D02*
X1560499D01*
Y902250D01*
X1561332Y902666D01*
X1561749D01*
X1562165Y902250D01*
Y901416D01*
X1561749Y901000D01*
X1560916D01*
X1560499Y901416D01*
X1562998Y903083D02*
X1563415Y903499D01*
X1564248D01*
X1564664Y903083D01*
Y901416D01*
X1564248Y901000D01*
X1563415D01*
X1562998Y901416D01*
Y903083D01*
X1565498D02*
X1565914Y903499D01*
X1566747D01*
X1567164Y903083D01*
Y901416D01*
X1566747Y901000D01*
X1565914D01*
X1565498Y901416D01*
Y903083D01*
X1567997Y900583D02*
X1569663D01*
X1572162Y901000D02*
X1570496D01*
X1572162Y902666D01*
Y903083D01*
X1571745Y903499D01*
X1570912D01*
X1570496Y903083D01*
X1548000Y1219000D02*
Y1221499D01*
X1549250D01*
X1549666Y1221083D01*
Y1220250D01*
X1549250Y1219833D01*
X1548000D01*
X1548833D02*
X1549666Y1219000D01*
X1552165Y1221499D02*
X1550499D01*
Y1220250D01*
X1551332Y1220666D01*
X1551749D01*
X1552165Y1220250D01*
Y1219417D01*
X1551749Y1219000D01*
X1550916D01*
X1550499Y1219417D01*
X1552998Y1221083D02*
X1553415Y1221499D01*
X1554248D01*
X1554664Y1221083D01*
Y1219417D01*
X1554248Y1219000D01*
X1553415D01*
X1552998Y1219417D01*
Y1221083D01*
X1555497D02*
X1555914Y1221499D01*
X1556747D01*
X1557164Y1221083D01*
Y1219417D01*
X1556747Y1219000D01*
X1555914D01*
X1555497Y1219417D01*
Y1221083D01*
X1557997Y1218584D02*
X1559663D01*
X1560496Y1219000D02*
X1561329D01*
X1560912D01*
Y1221499D01*
X1560496Y1221083D01*
X1473000Y1186000D02*
X1470501D01*
Y1187250D01*
X1470917Y1187666D01*
X1471750D01*
X1472167Y1187250D01*
Y1186000D01*
Y1186833D02*
X1473000Y1187666D01*
X1470501Y1190165D02*
Y1188499D01*
X1471750D01*
X1471334Y1189332D01*
Y1189749D01*
X1471750Y1190165D01*
X1472583D01*
X1473000Y1189749D01*
Y1188916D01*
X1472583Y1188499D01*
X1470917Y1190998D02*
X1470501Y1191415D01*
Y1192248D01*
X1470917Y1192664D01*
X1472583D01*
X1473000Y1192248D01*
Y1191415D01*
X1472583Y1190998D01*
X1470917D01*
X1470501Y1195164D02*
X1470917Y1194331D01*
X1471750Y1193497D01*
X1472583D01*
X1473000Y1193914D01*
Y1194747D01*
X1472583Y1195164D01*
X1472167D01*
X1471750Y1194747D01*
Y1193497D01*
X1473416Y1195997D02*
Y1197663D01*
X1473000Y1198496D02*
Y1199329D01*
Y1198912D01*
X1470501D01*
X1470917Y1198496D01*
X1178000Y873000D02*
X1175501D01*
Y874250D01*
X1175917Y874666D01*
X1176750D01*
X1177167Y874250D01*
Y873000D01*
Y873833D02*
X1178000Y874666D01*
Y875499D02*
Y876332D01*
Y875916D01*
X1175501D01*
X1175917Y875499D01*
Y877582D02*
X1175501Y877998D01*
Y878831D01*
X1175917Y879248D01*
X1177583D01*
X1178000Y878831D01*
Y877998D01*
X1177583Y877582D01*
X1175917D01*
X1175501Y881747D02*
X1175917Y880914D01*
X1176750Y880081D01*
X1177583D01*
X1178000Y880498D01*
Y881331D01*
X1177583Y881747D01*
X1177167D01*
X1176750Y881331D01*
Y880081D01*
X1178417Y882580D02*
Y884246D01*
X1178000Y886746D02*
Y885079D01*
X1176334Y886746D01*
X1175917D01*
X1175501Y886329D01*
Y885496D01*
X1175917Y885079D01*
X1177000Y1093000D02*
X1174501D01*
Y1094249D01*
X1174917Y1094666D01*
X1175750D01*
X1176167Y1094249D01*
Y1093000D01*
Y1093833D02*
X1177000Y1094666D01*
Y1095499D02*
Y1096332D01*
Y1095916D01*
X1174501D01*
X1174917Y1095499D01*
Y1097582D02*
X1174501Y1097998D01*
Y1098831D01*
X1174917Y1099248D01*
X1176583D01*
X1177000Y1098831D01*
Y1097998D01*
X1176583Y1097582D01*
X1174917D01*
X1174501Y1101747D02*
X1174917Y1100914D01*
X1175750Y1100081D01*
X1176583D01*
X1177000Y1100497D01*
Y1101330D01*
X1176583Y1101747D01*
X1176167D01*
X1175750Y1101330D01*
Y1100081D01*
X1177417Y1102580D02*
Y1104246D01*
X1177000Y1105079D02*
Y1105912D01*
Y1105496D01*
X1174501D01*
X1174917Y1105079D01*
X1177000Y892000D02*
X1174501D01*
Y893250D01*
X1174917Y893666D01*
X1175750D01*
X1176167Y893250D01*
Y892000D01*
Y892833D02*
X1177000Y893666D01*
Y894499D02*
Y895332D01*
Y894916D01*
X1174501D01*
X1174917Y894499D01*
Y896582D02*
X1174501Y896998D01*
Y897831D01*
X1174917Y898248D01*
X1176583D01*
X1177000Y897831D01*
Y896998D01*
X1176583Y896582D01*
X1174917D01*
X1174501Y900747D02*
Y899081D01*
X1175750D01*
X1175334Y899914D01*
Y900331D01*
X1175750Y900747D01*
X1176583D01*
X1177000Y900331D01*
Y899498D01*
X1176583Y899081D01*
X1177417Y901580D02*
Y903246D01*
X1177000Y905745D02*
Y904079D01*
X1175334Y905745D01*
X1174917D01*
X1174501Y905329D01*
Y904496D01*
X1174917Y904079D01*
X1177000Y1112000D02*
X1174501D01*
Y1113250D01*
X1174917Y1113666D01*
X1175751D01*
X1176167Y1113250D01*
Y1112000D01*
Y1112833D02*
X1177000Y1113666D01*
Y1114499D02*
Y1115332D01*
Y1114916D01*
X1174501D01*
X1174917Y1114499D01*
Y1116582D02*
X1174501Y1116998D01*
Y1117831D01*
X1174917Y1118248D01*
X1176583D01*
X1177000Y1117831D01*
Y1116998D01*
X1176583Y1116582D01*
X1174917D01*
X1174501Y1120747D02*
Y1119081D01*
X1175751D01*
X1175334Y1119914D01*
Y1120331D01*
X1175751Y1120747D01*
X1176583D01*
X1177000Y1120331D01*
Y1119498D01*
X1176583Y1119081D01*
X1177417Y1121580D02*
Y1123246D01*
X1177000Y1124079D02*
Y1124912D01*
Y1124496D01*
X1174501D01*
X1174917Y1124079D01*
X1177000Y931000D02*
X1174501D01*
Y932250D01*
X1174917Y932666D01*
X1175750D01*
X1176167Y932250D01*
Y931000D01*
Y931833D02*
X1177000Y932666D01*
Y933499D02*
Y934332D01*
Y933916D01*
X1174501D01*
X1174917Y933499D01*
Y935582D02*
X1174501Y935998D01*
Y936831D01*
X1174917Y937248D01*
X1176583D01*
X1177000Y936831D01*
Y935998D01*
X1176583Y935582D01*
X1174917D01*
Y938081D02*
X1174501Y938497D01*
Y939331D01*
X1174917Y939747D01*
X1175334D01*
X1175750Y939331D01*
Y938914D01*
Y939331D01*
X1176167Y939747D01*
X1176583D01*
X1177000Y939331D01*
Y938497D01*
X1176583Y938081D01*
X1177417Y940580D02*
Y942246D01*
X1177000Y944745D02*
Y943079D01*
X1175334Y944745D01*
X1174917D01*
X1174501Y944329D01*
Y943496D01*
X1174917Y943079D01*
X1177000Y1147000D02*
X1174501D01*
Y1148250D01*
X1174917Y1148666D01*
X1175750D01*
X1176167Y1148250D01*
Y1147000D01*
Y1147833D02*
X1177000Y1148666D01*
Y1149499D02*
Y1150332D01*
Y1149916D01*
X1174501D01*
X1174917Y1149499D01*
Y1151582D02*
X1174501Y1151998D01*
Y1152831D01*
X1174917Y1153248D01*
X1176583D01*
X1177000Y1152831D01*
Y1151998D01*
X1176583Y1151582D01*
X1174917D01*
Y1154081D02*
X1174501Y1154498D01*
Y1155331D01*
X1174917Y1155747D01*
X1175334D01*
X1175750Y1155331D01*
Y1154914D01*
Y1155331D01*
X1176167Y1155747D01*
X1176583D01*
X1177000Y1155331D01*
Y1154498D01*
X1176583Y1154081D01*
X1177417Y1156580D02*
Y1158246D01*
X1177000Y1159079D02*
Y1159912D01*
Y1159496D01*
X1174501D01*
X1174917Y1159079D01*
X1172000Y966000D02*
X1169501D01*
Y967250D01*
X1169917Y967666D01*
X1170750D01*
X1171167Y967250D01*
Y966000D01*
Y966833D02*
X1172000Y967666D01*
Y968499D02*
Y969332D01*
Y968916D01*
X1169501D01*
X1169917Y968499D01*
Y970582D02*
X1169501Y970998D01*
Y971831D01*
X1169917Y972248D01*
X1171583D01*
X1172000Y971831D01*
Y970998D01*
X1171583Y970582D01*
X1169917D01*
X1172000Y973081D02*
Y973914D01*
Y973497D01*
X1169501D01*
X1169917Y973081D01*
X1172417Y975164D02*
Y976830D01*
X1172000Y979329D02*
Y977663D01*
X1170334Y979329D01*
X1169917D01*
X1169501Y978912D01*
Y978079D01*
X1169917Y977663D01*
X1172000Y1182000D02*
X1169501D01*
Y1183250D01*
X1169917Y1183666D01*
X1170750D01*
X1171167Y1183250D01*
Y1182000D01*
Y1182833D02*
X1172000Y1183666D01*
Y1184499D02*
Y1185332D01*
Y1184916D01*
X1169501D01*
X1169917Y1184499D01*
Y1186582D02*
X1169501Y1186998D01*
Y1187831D01*
X1169917Y1188248D01*
X1171583D01*
X1172000Y1187831D01*
Y1186998D01*
X1171583Y1186582D01*
X1169917D01*
X1172000Y1189081D02*
Y1189914D01*
Y1189498D01*
X1169501D01*
X1169917Y1189081D01*
X1172417Y1191164D02*
Y1192830D01*
X1172000Y1193663D02*
Y1194496D01*
Y1194079D01*
X1169501D01*
X1169917Y1193663D01*
X1158000Y874000D02*
X1155501D01*
Y875250D01*
X1155917Y875666D01*
X1156750D01*
X1157167Y875250D01*
Y874000D01*
Y874833D02*
X1158000Y875666D01*
Y876499D02*
Y877332D01*
Y876916D01*
X1155501D01*
X1155917Y876499D01*
X1158000Y878582D02*
Y879415D01*
Y878998D01*
X1155501D01*
X1155917Y878582D01*
Y880665D02*
X1155501Y881081D01*
Y881914D01*
X1155917Y882331D01*
X1156334D01*
X1156750Y881914D01*
Y881498D01*
Y881914D01*
X1157167Y882331D01*
X1157583D01*
X1158000Y881914D01*
Y881081D01*
X1157583Y880665D01*
X1158417Y883164D02*
Y884830D01*
X1158000Y887329D02*
Y885663D01*
X1156334Y887329D01*
X1155917D01*
X1155501Y886913D01*
Y886079D01*
X1155917Y885663D01*
X1158000Y1094000D02*
X1155501D01*
Y1095250D01*
X1155917Y1095666D01*
X1156750D01*
X1157167Y1095250D01*
Y1094000D01*
Y1094833D02*
X1158000Y1095666D01*
Y1096499D02*
Y1097332D01*
Y1096916D01*
X1155501D01*
X1155917Y1096499D01*
X1158000Y1098582D02*
Y1099415D01*
Y1098998D01*
X1155501D01*
X1155917Y1098582D01*
Y1100665D02*
X1155501Y1101081D01*
Y1101914D01*
X1155917Y1102331D01*
X1156334D01*
X1156750Y1101914D01*
Y1101497D01*
Y1101914D01*
X1157167Y1102331D01*
X1157583D01*
X1158000Y1101914D01*
Y1101081D01*
X1157583Y1100665D01*
X1158417Y1103164D02*
Y1104830D01*
X1158000Y1105663D02*
Y1106496D01*
Y1106079D01*
X1155501D01*
X1155917Y1105663D01*
X1158000Y892000D02*
X1155501D01*
Y893250D01*
X1155917Y893666D01*
X1156750D01*
X1157167Y893250D01*
Y892000D01*
Y892833D02*
X1158000Y893666D01*
Y894499D02*
Y895332D01*
Y894916D01*
X1155501D01*
X1155917Y894499D01*
X1158000Y896582D02*
Y897415D01*
Y896998D01*
X1155501D01*
X1155917Y896582D01*
X1158000Y900331D02*
Y898664D01*
X1156334Y900331D01*
X1155917D01*
X1155501Y899914D01*
Y899081D01*
X1155917Y898664D01*
X1158417Y901164D02*
Y902830D01*
X1158000Y905329D02*
Y903663D01*
X1156334Y905329D01*
X1155917D01*
X1155501Y904912D01*
Y904079D01*
X1155917Y903663D01*
X1158000Y1112000D02*
X1155501D01*
Y1113250D01*
X1155917Y1113666D01*
X1156750D01*
X1157167Y1113250D01*
Y1112000D01*
Y1112833D02*
X1158000Y1113666D01*
Y1114499D02*
Y1115332D01*
Y1114916D01*
X1155501D01*
X1155917Y1114499D01*
X1158000Y1116582D02*
Y1117415D01*
Y1116998D01*
X1155501D01*
X1155917Y1116582D01*
X1158000Y1120331D02*
Y1118664D01*
X1156334Y1120331D01*
X1155917D01*
X1155501Y1119914D01*
Y1119081D01*
X1155917Y1118664D01*
X1158417Y1121164D02*
Y1122830D01*
X1158000Y1123663D02*
Y1124496D01*
Y1124079D01*
X1155501D01*
X1155917Y1123663D01*
X1158000Y930000D02*
X1155501D01*
Y931249D01*
X1155917Y931666D01*
X1156750D01*
X1157167Y931249D01*
Y930000D01*
Y930833D02*
X1158000Y931666D01*
Y932499D02*
Y933332D01*
Y932916D01*
X1155501D01*
X1155917Y932499D01*
X1158000Y934582D02*
Y935415D01*
Y934998D01*
X1155501D01*
X1155917Y934582D01*
Y936664D02*
X1155501Y937081D01*
Y937914D01*
X1155917Y938331D01*
X1157583D01*
X1158000Y937914D01*
Y937081D01*
X1157583Y936664D01*
X1155917D01*
X1158417Y939164D02*
Y940830D01*
X1158000Y943329D02*
Y941663D01*
X1156334Y943329D01*
X1155917D01*
X1155501Y942912D01*
Y942079D01*
X1155917Y941663D01*
X1158000Y1146000D02*
X1155501D01*
Y1147250D01*
X1155917Y1147666D01*
X1156750D01*
X1157167Y1147250D01*
Y1146000D01*
Y1146833D02*
X1158000Y1147666D01*
Y1148499D02*
Y1149332D01*
Y1148916D01*
X1155501D01*
X1155917Y1148499D01*
X1158000Y1150582D02*
Y1151415D01*
Y1150998D01*
X1155501D01*
X1155917Y1150582D01*
Y1152664D02*
X1155501Y1153081D01*
Y1153914D01*
X1155917Y1154331D01*
X1157583D01*
X1158000Y1153914D01*
Y1153081D01*
X1157583Y1152664D01*
X1155917D01*
X1158417Y1155164D02*
Y1156830D01*
X1158000Y1157663D02*
Y1158496D01*
Y1158079D01*
X1155501D01*
X1155917Y1157663D01*
X1152000Y964000D02*
X1149501D01*
Y965250D01*
X1149917Y965666D01*
X1150750D01*
X1151167Y965250D01*
Y964000D01*
Y964833D02*
X1152000Y965666D01*
Y966499D02*
Y967332D01*
Y966916D01*
X1149501D01*
X1149917Y966499D01*
Y968582D02*
X1149501Y968998D01*
Y969831D01*
X1149917Y970248D01*
X1151583D01*
X1152000Y969831D01*
Y968998D01*
X1151583Y968582D01*
X1149917D01*
Y971081D02*
X1149501Y971497D01*
Y972331D01*
X1149917Y972747D01*
X1150334D01*
X1150750Y972331D01*
X1151167Y972747D01*
X1151583D01*
X1152000Y972331D01*
Y971497D01*
X1151583Y971081D01*
X1151167D01*
X1150750Y971497D01*
X1150334Y971081D01*
X1149917D01*
X1150750Y971497D02*
Y972331D01*
X1152417Y973580D02*
Y975246D01*
X1152000Y977746D02*
Y976079D01*
X1150334Y977746D01*
X1149917D01*
X1149501Y977329D01*
Y976496D01*
X1149917Y976079D01*
X1153000Y1180000D02*
X1150501D01*
Y1181249D01*
X1150917Y1181666D01*
X1151750D01*
X1152167Y1181249D01*
Y1180000D01*
Y1180833D02*
X1153000Y1181666D01*
Y1182499D02*
Y1183332D01*
Y1182916D01*
X1150501D01*
X1150917Y1182499D01*
Y1184582D02*
X1150501Y1184998D01*
Y1185831D01*
X1150917Y1186248D01*
X1152583D01*
X1153000Y1185831D01*
Y1184998D01*
X1152583Y1184582D01*
X1150917D01*
Y1187081D02*
X1150501Y1187497D01*
Y1188331D01*
X1150917Y1188747D01*
X1151334D01*
X1151750Y1188331D01*
X1152167Y1188747D01*
X1152583D01*
X1153000Y1188331D01*
Y1187497D01*
X1152583Y1187081D01*
X1152167D01*
X1151750Y1187497D01*
X1151334Y1187081D01*
X1150917D01*
X1151750Y1187497D02*
Y1188331D01*
X1153417Y1189580D02*
Y1191246D01*
X1153000Y1192079D02*
Y1192912D01*
Y1192496D01*
X1150501D01*
X1150917Y1192079D01*
X796000Y785499D02*
Y783000D01*
X797666D01*
X800165Y785499D02*
X798499D01*
Y783000D01*
X800165D01*
X798499Y784250D02*
X799332D01*
X800998Y785499D02*
Y783000D01*
X802248D01*
X802664Y783417D01*
Y785083D01*
X802248Y785499D01*
X800998D01*
X805164Y783000D02*
X803498D01*
X805164Y784666D01*
Y785083D01*
X804747Y785499D01*
X803914D01*
X803498Y785083D01*
X805997D02*
X806413Y785499D01*
X807246D01*
X807663Y785083D01*
Y783417D01*
X807246Y783000D01*
X806413D01*
X805997Y783417D01*
Y785083D01*
X808496D02*
X808913Y785499D01*
X809745D01*
X810162Y785083D01*
Y783417D01*
X809745Y783000D01*
X808913D01*
X808496Y783417D01*
Y785083D01*
X1165917Y875666D02*
X1165501Y875250D01*
Y874417D01*
X1165917Y874000D01*
X1167583D01*
X1168000Y874417D01*
Y875250D01*
X1167583Y875666D01*
X1168000Y876499D02*
Y877332D01*
Y876916D01*
X1165501D01*
X1165917Y876499D01*
Y878582D02*
X1165501Y878998D01*
Y879831D01*
X1165917Y880248D01*
X1167583D01*
X1168000Y879831D01*
Y878998D01*
X1167583Y878582D01*
X1165917D01*
Y881081D02*
X1165501Y881498D01*
Y882331D01*
X1165917Y882747D01*
X1166334D01*
X1166750Y882331D01*
X1167167Y882747D01*
X1167583D01*
X1168000Y882331D01*
Y881498D01*
X1167583Y881081D01*
X1167167D01*
X1166750Y881498D01*
X1166334Y881081D01*
X1165917D01*
X1166750Y881498D02*
Y882331D01*
X1168417Y883580D02*
Y885246D01*
X1168000Y887746D02*
Y886079D01*
X1166334Y887746D01*
X1165917D01*
X1165501Y887329D01*
Y886496D01*
X1165917Y886079D01*
Y1094666D02*
X1165501Y1094250D01*
Y1093417D01*
X1165917Y1093000D01*
X1167583D01*
X1168000Y1093417D01*
Y1094250D01*
X1167583Y1094666D01*
X1168000Y1095499D02*
Y1096332D01*
Y1095916D01*
X1165501D01*
X1165917Y1095499D01*
Y1097582D02*
X1165501Y1097998D01*
Y1098831D01*
X1165917Y1099248D01*
X1167583D01*
X1168000Y1098831D01*
Y1097998D01*
X1167583Y1097582D01*
X1165917D01*
Y1100081D02*
X1165501Y1100498D01*
Y1101331D01*
X1165917Y1101747D01*
X1166334D01*
X1166750Y1101331D01*
X1167167Y1101747D01*
X1167583D01*
X1168000Y1101331D01*
Y1100498D01*
X1167583Y1100081D01*
X1167167D01*
X1166750Y1100498D01*
X1166334Y1100081D01*
X1165917D01*
X1166750Y1100498D02*
Y1101331D01*
X1168417Y1102580D02*
Y1104246D01*
X1168000Y1105079D02*
Y1105912D01*
Y1105496D01*
X1165501D01*
X1165917Y1105079D01*
Y893666D02*
X1165501Y893250D01*
Y892417D01*
X1165917Y892000D01*
X1167583D01*
X1168000Y892417D01*
Y893250D01*
X1167583Y893666D01*
X1168000Y894499D02*
Y895332D01*
Y894916D01*
X1165501D01*
X1165917Y894499D01*
Y896582D02*
X1165501Y896998D01*
Y897831D01*
X1165917Y898248D01*
X1167583D01*
X1168000Y897831D01*
Y896998D01*
X1167583Y896582D01*
X1165917D01*
X1167583Y899081D02*
X1168000Y899498D01*
Y900331D01*
X1167583Y900747D01*
X1165917D01*
X1165501Y900331D01*
Y899498D01*
X1165917Y899081D01*
X1166334D01*
X1166750Y899498D01*
Y900747D01*
X1168417Y901580D02*
Y903246D01*
X1168000Y905745D02*
Y904079D01*
X1166334Y905745D01*
X1165917D01*
X1165501Y905329D01*
Y904496D01*
X1165917Y904079D01*
Y1113666D02*
X1165501Y1113250D01*
Y1112417D01*
X1165917Y1112000D01*
X1167583D01*
X1168000Y1112417D01*
Y1113250D01*
X1167583Y1113666D01*
X1168000Y1114499D02*
Y1115332D01*
Y1114916D01*
X1165501D01*
X1165917Y1114499D01*
Y1116582D02*
X1165501Y1116998D01*
Y1117831D01*
X1165917Y1118248D01*
X1167583D01*
X1168000Y1117831D01*
Y1116998D01*
X1167583Y1116582D01*
X1165917D01*
X1167583Y1119081D02*
X1168000Y1119498D01*
Y1120331D01*
X1167583Y1120747D01*
X1165917D01*
X1165501Y1120331D01*
Y1119498D01*
X1165917Y1119081D01*
X1166334D01*
X1166750Y1119498D01*
Y1120747D01*
X1168417Y1121580D02*
Y1123246D01*
X1168000Y1124079D02*
Y1124912D01*
Y1124496D01*
X1165501D01*
X1165917Y1124079D01*
X1165917Y931666D02*
X1165501Y931250D01*
Y930417D01*
X1165917Y930000D01*
X1167583D01*
X1168000Y930417D01*
Y931250D01*
X1167583Y931666D01*
X1168000Y932499D02*
Y933332D01*
Y932916D01*
X1165501D01*
X1165917Y932499D01*
X1168000Y934582D02*
Y935415D01*
Y934998D01*
X1165501D01*
X1165917Y934582D01*
X1168000Y936665D02*
Y937498D01*
Y937081D01*
X1165501D01*
X1165917Y936665D01*
X1168417Y938747D02*
Y940413D01*
X1168000Y942912D02*
Y941246D01*
X1166334Y942912D01*
X1165917D01*
X1165501Y942496D01*
Y941663D01*
X1165917Y941246D01*
X1164917Y1147666D02*
X1164501Y1147250D01*
Y1146416D01*
X1164917Y1146000D01*
X1166583D01*
X1167000Y1146416D01*
Y1147250D01*
X1166583Y1147666D01*
X1167000Y1148499D02*
Y1149332D01*
Y1148916D01*
X1164501D01*
X1164917Y1148499D01*
X1167000Y1150582D02*
Y1151415D01*
Y1150998D01*
X1164501D01*
X1164917Y1150582D01*
X1167000Y1152664D02*
Y1153497D01*
Y1153081D01*
X1164501D01*
X1164917Y1152664D01*
X1167417Y1154747D02*
Y1156413D01*
X1167000Y1157246D02*
Y1158079D01*
Y1157663D01*
X1164501D01*
X1164917Y1157246D01*
X1159917Y968666D02*
X1159501Y968250D01*
Y967417D01*
X1159917Y967000D01*
X1161583D01*
X1162000Y967417D01*
Y968250D01*
X1161583Y968666D01*
X1162000Y969499D02*
Y970332D01*
Y969916D01*
X1159501D01*
X1159917Y969499D01*
X1162000Y971582D02*
Y972415D01*
Y971998D01*
X1159501D01*
X1159917Y971582D01*
Y973664D02*
X1159501Y974081D01*
Y974914D01*
X1159917Y975331D01*
X1160334D01*
X1160750Y974914D01*
Y974498D01*
Y974914D01*
X1161167Y975331D01*
X1161583D01*
X1162000Y974914D01*
Y974081D01*
X1161583Y973664D01*
X1162417Y976164D02*
Y977830D01*
X1162000Y980329D02*
Y978663D01*
X1160334Y980329D01*
X1159917D01*
X1159501Y979912D01*
Y979079D01*
X1159917Y978663D01*
X1159917Y1184666D02*
X1159501Y1184250D01*
Y1183417D01*
X1159917Y1183000D01*
X1161583D01*
X1162000Y1183417D01*
Y1184250D01*
X1161583Y1184666D01*
X1162000Y1185499D02*
Y1186332D01*
Y1185916D01*
X1159501D01*
X1159917Y1185499D01*
X1162000Y1187582D02*
Y1188415D01*
Y1187998D01*
X1159501D01*
X1159917Y1187582D01*
Y1189665D02*
X1159501Y1190081D01*
Y1190914D01*
X1159917Y1191331D01*
X1160334D01*
X1160750Y1190914D01*
Y1190498D01*
Y1190914D01*
X1161167Y1191331D01*
X1161583D01*
X1162000Y1190914D01*
Y1190081D01*
X1161583Y1189665D01*
X1162417Y1192164D02*
Y1193830D01*
X1162000Y1194663D02*
Y1195496D01*
Y1195079D01*
X1159501D01*
X1159917Y1194663D01*
X1486000Y857000D02*
Y859499D01*
X1487250D01*
X1487666Y859083D01*
Y858250D01*
X1487250Y857833D01*
X1486000D01*
X1486833D02*
X1487666Y857000D01*
X1490165Y859499D02*
X1488499D01*
Y858250D01*
X1489332Y858666D01*
X1489749D01*
X1490165Y858250D01*
Y857417D01*
X1489749Y857000D01*
X1488916D01*
X1488499Y857417D01*
X1490998Y859083D02*
X1491415Y859499D01*
X1492248D01*
X1492664Y859083D01*
Y857417D01*
X1492248Y857000D01*
X1491415D01*
X1490998Y857417D01*
Y859083D01*
X1493497Y859499D02*
X1495164D01*
Y859083D01*
X1493497Y857417D01*
Y857000D01*
X1495997Y856583D02*
X1497663D01*
X1500162Y857000D02*
X1498496D01*
X1500162Y858666D01*
Y859083D01*
X1499745Y859499D01*
X1498912D01*
X1498496Y859083D01*
X1503000Y857000D02*
Y859499D01*
X1504250D01*
X1504666Y859083D01*
Y858250D01*
X1504250Y857833D01*
X1503000D01*
X1503833D02*
X1504666Y857000D01*
X1507165Y859499D02*
X1505499D01*
Y858250D01*
X1506332Y858666D01*
X1506749D01*
X1507165Y858250D01*
Y857417D01*
X1506749Y857000D01*
X1505916D01*
X1505499Y857417D01*
X1507998Y859083D02*
X1508415Y859499D01*
X1509248D01*
X1509664Y859083D01*
Y857417D01*
X1509248Y857000D01*
X1508415D01*
X1507998Y857417D01*
Y859083D01*
X1512164Y859499D02*
X1510497D01*
Y858250D01*
X1511331Y858666D01*
X1511747D01*
X1512164Y858250D01*
Y857417D01*
X1511747Y857000D01*
X1510914D01*
X1510497Y857417D01*
X1512997Y856583D02*
X1514663D01*
X1517162Y857000D02*
X1515496D01*
X1517162Y858666D01*
Y859083D01*
X1516745Y859499D01*
X1515912D01*
X1515496Y859083D01*
X1561000Y1156000D02*
Y1158499D01*
X1562250D01*
X1562666Y1158083D01*
Y1157250D01*
X1562250Y1156833D01*
X1561000D01*
X1561833D02*
X1562666Y1156000D01*
X1565165Y1158499D02*
X1563499D01*
Y1157250D01*
X1564332Y1157666D01*
X1564749D01*
X1565165Y1157250D01*
Y1156416D01*
X1564749Y1156000D01*
X1563916D01*
X1563499Y1156416D01*
X1565998Y1158083D02*
X1566415Y1158499D01*
X1567248D01*
X1567664Y1158083D01*
Y1156416D01*
X1567248Y1156000D01*
X1566415D01*
X1565998Y1156416D01*
Y1158083D01*
X1570164Y1158499D02*
X1568497D01*
Y1157250D01*
X1569331Y1157666D01*
X1569747D01*
X1570164Y1157250D01*
Y1156416D01*
X1569747Y1156000D01*
X1568914D01*
X1568497Y1156416D01*
X1570997Y1155583D02*
X1572663D01*
X1573496Y1156000D02*
X1574329D01*
X1573912D01*
Y1158499D01*
X1573496Y1158083D01*
X1460500Y918000D02*
Y920499D01*
X1461750D01*
X1462166Y920083D01*
Y919250D01*
X1461750Y918833D01*
X1460500D01*
X1461333D02*
X1462166Y918000D01*
X1464665Y920499D02*
X1462999D01*
Y919250D01*
X1463832Y919666D01*
X1464249D01*
X1464665Y919250D01*
Y918417D01*
X1464249Y918000D01*
X1463416D01*
X1462999Y918417D01*
X1465498Y920083D02*
X1465915Y920499D01*
X1466748D01*
X1467164Y920083D01*
Y918417D01*
X1466748Y918000D01*
X1465915D01*
X1465498Y918417D01*
Y920083D01*
X1469664Y920499D02*
X1468831Y920083D01*
X1467997Y919250D01*
Y918417D01*
X1468414Y918000D01*
X1469247D01*
X1469664Y918417D01*
Y918833D01*
X1469247Y919250D01*
X1467997D01*
X1470497Y917583D02*
X1472163D01*
X1474662Y918000D02*
X1472996D01*
X1474662Y919666D01*
Y920083D01*
X1474245Y920499D01*
X1473412D01*
X1472996Y920083D01*
X1559000Y911000D02*
Y913499D01*
X1560250D01*
X1560666Y913083D01*
Y912250D01*
X1560250Y911833D01*
X1559000D01*
X1559833D02*
X1560666Y911000D01*
X1563165Y913499D02*
X1561499D01*
Y912250D01*
X1562332Y912666D01*
X1562749D01*
X1563165Y912250D01*
Y911416D01*
X1562749Y911000D01*
X1561916D01*
X1561499Y911416D01*
X1563998Y913083D02*
X1564415Y913499D01*
X1565248D01*
X1565665Y913083D01*
Y911416D01*
X1565248Y911000D01*
X1564415D01*
X1563998Y911416D01*
Y913083D01*
X1567747Y911000D02*
Y913499D01*
X1566498Y912250D01*
X1568164D01*
X1568997Y910583D02*
X1570663D01*
X1573162Y911000D02*
X1571496D01*
X1573162Y912666D01*
Y913083D01*
X1572746Y913499D01*
X1571913D01*
X1571496Y913083D01*
X1570000Y1208000D02*
X1567501D01*
Y1209250D01*
X1567917Y1209666D01*
X1568750D01*
X1569167Y1209250D01*
Y1208000D01*
Y1208833D02*
X1570000Y1209666D01*
X1567501Y1212165D02*
Y1210499D01*
X1568750D01*
X1568334Y1211332D01*
Y1211749D01*
X1568750Y1212165D01*
X1569583D01*
X1570000Y1211749D01*
Y1210916D01*
X1569583Y1210499D01*
X1567917Y1212998D02*
X1567501Y1213415D01*
Y1214248D01*
X1567917Y1214665D01*
X1569583D01*
X1570000Y1214248D01*
Y1213415D01*
X1569583Y1212998D01*
X1567917D01*
X1570000Y1216747D02*
X1567501D01*
X1568750Y1215498D01*
Y1217164D01*
X1570417Y1217997D02*
Y1219663D01*
X1570000Y1220496D02*
Y1221329D01*
Y1220912D01*
X1567501D01*
X1567917Y1220496D01*
X1540000Y848000D02*
X1537501D01*
Y849250D01*
X1537917Y849666D01*
X1538750D01*
X1539167Y849250D01*
Y848000D01*
Y848833D02*
X1540000Y849666D01*
X1537501Y852165D02*
Y850499D01*
X1538750D01*
X1538334Y851332D01*
Y851749D01*
X1538750Y852165D01*
X1539583D01*
X1540000Y851749D01*
Y850916D01*
X1539583Y850499D01*
X1537917Y852998D02*
X1537501Y853415D01*
Y854248D01*
X1537917Y854665D01*
X1539583D01*
X1540000Y854248D01*
Y853415D01*
X1539583Y852998D01*
X1537917D01*
Y855498D02*
X1537501Y855914D01*
Y856747D01*
X1537917Y857164D01*
X1538334D01*
X1538750Y856747D01*
Y856331D01*
Y856747D01*
X1539167Y857164D01*
X1539583D01*
X1540000Y856747D01*
Y855914D01*
X1539583Y855498D01*
X1540417Y857997D02*
Y859663D01*
X1540000Y862162D02*
Y860496D01*
X1538334Y862162D01*
X1537917D01*
X1537501Y861746D01*
Y860912D01*
X1537917Y860496D01*
X1560500Y1176000D02*
Y1178499D01*
X1561750D01*
X1562166Y1178083D01*
Y1177250D01*
X1561750Y1176833D01*
X1560500D01*
X1561333D02*
X1562166Y1176000D01*
X1564665Y1178499D02*
X1562999D01*
Y1177250D01*
X1563832Y1177666D01*
X1564249D01*
X1564665Y1177250D01*
Y1176416D01*
X1564249Y1176000D01*
X1563416D01*
X1562999Y1176416D01*
X1565498Y1178083D02*
X1565915Y1178499D01*
X1566748D01*
X1567164Y1178083D01*
Y1176416D01*
X1566748Y1176000D01*
X1565915D01*
X1565498Y1176416D01*
Y1178083D01*
X1567997D02*
X1568414Y1178499D01*
X1569247D01*
X1569664Y1178083D01*
Y1177666D01*
X1569247Y1177250D01*
X1568831D01*
X1569247D01*
X1569664Y1176833D01*
Y1176416D01*
X1569247Y1176000D01*
X1568414D01*
X1567997Y1176416D01*
X1570497Y1175583D02*
X1572163D01*
X1572996Y1176000D02*
X1573829D01*
X1573412D01*
Y1178499D01*
X1572996Y1178083D01*
X1558000Y891000D02*
Y893499D01*
X1559250D01*
X1559666Y893083D01*
Y892250D01*
X1559250Y891833D01*
X1558000D01*
X1558833D02*
X1559666Y891000D01*
X1562165Y893499D02*
X1560499D01*
Y892250D01*
X1561332Y892666D01*
X1561749D01*
X1562165Y892250D01*
Y891416D01*
X1561749Y891000D01*
X1560916D01*
X1560499Y891416D01*
X1562998Y893083D02*
X1563415Y893499D01*
X1564248D01*
X1564664Y893083D01*
Y891416D01*
X1564248Y891000D01*
X1563415D01*
X1562998Y891416D01*
Y893083D01*
X1567164Y891000D02*
X1565498D01*
X1567164Y892666D01*
Y893083D01*
X1566747Y893499D01*
X1565914D01*
X1565498Y893083D01*
X1567997Y890583D02*
X1569663D01*
X1572162Y891000D02*
X1570496D01*
X1572162Y892666D01*
Y893083D01*
X1571745Y893499D01*
X1570912D01*
X1570496Y893083D01*
X1515000Y1211000D02*
Y1213499D01*
X1516250D01*
X1516666Y1213083D01*
Y1212250D01*
X1516250Y1211833D01*
X1515000D01*
X1515833D02*
X1516666Y1211000D01*
X1519165Y1213499D02*
X1517499D01*
Y1212250D01*
X1518332Y1212666D01*
X1518749D01*
X1519165Y1212250D01*
Y1211416D01*
X1518749Y1211000D01*
X1517916D01*
X1517499Y1211416D01*
X1519998Y1213083D02*
X1520415Y1213499D01*
X1521248D01*
X1521664Y1213083D01*
Y1211416D01*
X1521248Y1211000D01*
X1520415D01*
X1519998Y1211416D01*
Y1213083D01*
X1524164Y1211000D02*
X1522498D01*
X1524164Y1212666D01*
Y1213083D01*
X1523747Y1213499D01*
X1522914D01*
X1522498Y1213083D01*
X1524997Y1210583D02*
X1526663D01*
X1527496Y1211000D02*
X1528329D01*
X1527912D01*
Y1213499D01*
X1527496Y1213083D01*
X1462666Y891083D02*
X1462250Y891499D01*
X1461416D01*
X1461000Y891083D01*
Y889417D01*
X1461416Y889000D01*
X1462250D01*
X1462666Y889417D01*
X1465165Y891499D02*
X1463499D01*
Y890250D01*
X1464332Y890666D01*
X1464749D01*
X1465165Y890250D01*
Y889417D01*
X1464749Y889000D01*
X1463916D01*
X1463499Y889417D01*
X1465998Y891083D02*
X1466415Y891499D01*
X1467248D01*
X1467664Y891083D01*
Y889417D01*
X1467248Y889000D01*
X1466415D01*
X1465998Y889417D01*
Y891083D01*
X1468497Y889000D02*
X1469331D01*
X1468914D01*
Y891499D01*
X1468497Y891083D01*
X1470580Y888584D02*
X1472246D01*
X1474745Y889000D02*
X1473079D01*
X1474745Y890666D01*
Y891083D01*
X1474329Y891499D01*
X1473496D01*
X1473079Y891083D01*
X1468666Y1179583D02*
X1468250Y1179999D01*
X1467417D01*
X1467000Y1179583D01*
Y1177917D01*
X1467417Y1177500D01*
X1468250D01*
X1468666Y1177917D01*
X1471165Y1179999D02*
X1469499D01*
Y1178750D01*
X1470332Y1179166D01*
X1470749D01*
X1471165Y1178750D01*
Y1177917D01*
X1470749Y1177500D01*
X1469916D01*
X1469499Y1177917D01*
X1471998Y1179583D02*
X1472415Y1179999D01*
X1473248D01*
X1473665Y1179583D01*
Y1177917D01*
X1473248Y1177500D01*
X1472415D01*
X1471998Y1177917D01*
Y1179583D01*
X1474498Y1177500D02*
X1475331D01*
X1474914D01*
Y1179999D01*
X1474498Y1179583D01*
X1476580Y1177084D02*
X1478246D01*
X1479079Y1177500D02*
X1479913D01*
X1479496D01*
Y1179999D01*
X1479079Y1179583D01*
X1558917Y870666D02*
X1558501Y870250D01*
Y869417D01*
X1558917Y869000D01*
X1560583D01*
X1561000Y869417D01*
Y870250D01*
X1560583Y870666D01*
X1558501Y873165D02*
Y871499D01*
X1559750D01*
X1559334Y872332D01*
Y872749D01*
X1559750Y873165D01*
X1560583D01*
X1561000Y872749D01*
Y871916D01*
X1560583Y871499D01*
X1558917Y873998D02*
X1558501Y874415D01*
Y875248D01*
X1558917Y875665D01*
X1560583D01*
X1561000Y875248D01*
Y874415D01*
X1560583Y873998D01*
X1558917D01*
Y876497D02*
X1558501Y876914D01*
Y877747D01*
X1558917Y878164D01*
X1560583D01*
X1561000Y877747D01*
Y876914D01*
X1560583Y876497D01*
X1558917D01*
X1561416Y878997D02*
Y880663D01*
X1561000Y883162D02*
Y881496D01*
X1559334Y883162D01*
X1558917D01*
X1558501Y882746D01*
Y881912D01*
X1558917Y881496D01*
X1560666Y1189083D02*
X1560250Y1189499D01*
X1559417D01*
X1559000Y1189083D01*
Y1187417D01*
X1559417Y1187000D01*
X1560250D01*
X1560666Y1187417D01*
X1563165Y1189499D02*
X1561499D01*
Y1188250D01*
X1562332Y1188666D01*
X1562749D01*
X1563165Y1188250D01*
Y1187417D01*
X1562749Y1187000D01*
X1561916D01*
X1561499Y1187417D01*
X1563998Y1189083D02*
X1564415Y1189499D01*
X1565248D01*
X1565665Y1189083D01*
Y1187417D01*
X1565248Y1187000D01*
X1564415D01*
X1563998Y1187417D01*
Y1189083D01*
X1566498D02*
X1566914Y1189499D01*
X1567747D01*
X1568164Y1189083D01*
Y1187417D01*
X1567747Y1187000D01*
X1566914D01*
X1566498Y1187417D01*
Y1189083D01*
X1568997Y1186583D02*
X1570663D01*
X1571496Y1187000D02*
X1572329D01*
X1571913D01*
Y1189499D01*
X1571496Y1189083D01*
X1404000Y857000D02*
Y859499D01*
X1405250D01*
X1405666Y859083D01*
Y858250D01*
X1405250Y857833D01*
X1404000D01*
X1404833D02*
X1405666Y857000D01*
X1406499Y859083D02*
X1406916Y859499D01*
X1407749D01*
X1408165Y859083D01*
Y858666D01*
X1407749Y858250D01*
X1407332D01*
X1407749D01*
X1408165Y857833D01*
Y857417D01*
X1407749Y857000D01*
X1406916D01*
X1406499Y857417D01*
X1408998Y859083D02*
X1409415Y859499D01*
X1410248D01*
X1410665Y859083D01*
Y857417D01*
X1410248Y857000D01*
X1409415D01*
X1408998Y857417D01*
Y859083D01*
X1413164Y859499D02*
X1412331Y859083D01*
X1411497Y858250D01*
Y857417D01*
X1411914Y857000D01*
X1412747D01*
X1413164Y857417D01*
Y857833D01*
X1412747Y858250D01*
X1411497D01*
X1413997Y856583D02*
X1415663D01*
X1418162Y857000D02*
X1416496D01*
X1418162Y858666D01*
Y859083D01*
X1417746Y859499D01*
X1416912D01*
X1416496Y859083D01*
X1397000Y875000D02*
X1394501D01*
Y876250D01*
X1394917Y876666D01*
X1395750D01*
X1396167Y876250D01*
Y875000D01*
Y875833D02*
X1397000Y876666D01*
X1394917Y877499D02*
X1394501Y877916D01*
Y878749D01*
X1394917Y879165D01*
X1395334D01*
X1395750Y878749D01*
Y878332D01*
Y878749D01*
X1396167Y879165D01*
X1396584D01*
X1397000Y878749D01*
Y877916D01*
X1396584Y877499D01*
X1394917Y879998D02*
X1394501Y880415D01*
Y881248D01*
X1394917Y881665D01*
X1396584D01*
X1397000Y881248D01*
Y880415D01*
X1396584Y879998D01*
X1394917D01*
X1394501Y884164D02*
Y882497D01*
X1395750D01*
X1395334Y883331D01*
Y883747D01*
X1395750Y884164D01*
X1396584D01*
X1397000Y883747D01*
Y882914D01*
X1396584Y882497D01*
X1397417Y884997D02*
Y886663D01*
X1397000Y889162D02*
Y887496D01*
X1395334Y889162D01*
X1394917D01*
X1394501Y888745D01*
Y887912D01*
X1394917Y887496D01*
X1442000Y1036000D02*
Y1038499D01*
X1443250D01*
X1443666Y1038083D01*
Y1037250D01*
X1443250Y1036833D01*
X1442000D01*
X1442833D02*
X1443666Y1036000D01*
X1444499Y1038083D02*
X1444916Y1038499D01*
X1445749D01*
X1446165Y1038083D01*
Y1037666D01*
X1445749Y1037250D01*
X1445332D01*
X1445749D01*
X1446165Y1036833D01*
Y1036416D01*
X1445749Y1036000D01*
X1444916D01*
X1444499Y1036416D01*
X1446998Y1038083D02*
X1447415Y1038499D01*
X1448248D01*
X1448665Y1038083D01*
Y1036416D01*
X1448248Y1036000D01*
X1447415D01*
X1446998Y1036416D01*
Y1038083D01*
X1450747Y1036000D02*
Y1038499D01*
X1449498Y1037250D01*
X1451164D01*
X1451997Y1035583D02*
X1453663D01*
X1454496Y1036000D02*
X1455329D01*
X1454912D01*
Y1038499D01*
X1454496Y1038083D01*
X1435000Y1034000D02*
X1432501D01*
Y1035250D01*
X1432917Y1035666D01*
X1433750D01*
X1434167Y1035250D01*
Y1034000D01*
Y1034833D02*
X1435000Y1035666D01*
X1432917Y1036499D02*
X1432501Y1036916D01*
Y1037749D01*
X1432917Y1038165D01*
X1433334D01*
X1433750Y1037749D01*
Y1037332D01*
Y1037749D01*
X1434167Y1038165D01*
X1434583D01*
X1435000Y1037749D01*
Y1036916D01*
X1434583Y1036499D01*
X1432917Y1038998D02*
X1432501Y1039415D01*
Y1040248D01*
X1432917Y1040665D01*
X1434583D01*
X1435000Y1040248D01*
Y1039415D01*
X1434583Y1038998D01*
X1432917D01*
Y1041497D02*
X1432501Y1041914D01*
Y1042747D01*
X1432917Y1043164D01*
X1433334D01*
X1433750Y1042747D01*
Y1042331D01*
Y1042747D01*
X1434167Y1043164D01*
X1434583D01*
X1435000Y1042747D01*
Y1041914D01*
X1434583Y1041497D01*
X1435417Y1043997D02*
Y1045663D01*
X1435000Y1046496D02*
Y1047329D01*
Y1046912D01*
X1432501D01*
X1432917Y1046496D01*
X1444000Y884000D02*
X1441501D01*
Y885250D01*
X1441917Y885666D01*
X1442750D01*
X1443167Y885250D01*
Y884000D01*
Y884833D02*
X1444000Y885666D01*
X1441917Y886499D02*
X1441501Y886916D01*
Y887749D01*
X1441917Y888165D01*
X1442334D01*
X1442750Y887749D01*
Y887332D01*
Y887749D01*
X1443167Y888165D01*
X1443584D01*
X1444000Y887749D01*
Y886916D01*
X1443584Y886499D01*
X1441917Y888998D02*
X1441501Y889415D01*
Y890248D01*
X1441917Y890665D01*
X1443584D01*
X1444000Y890248D01*
Y889415D01*
X1443584Y888998D01*
X1441917D01*
X1444000Y893164D02*
Y891498D01*
X1442334Y893164D01*
X1441917D01*
X1441501Y892747D01*
Y891914D01*
X1441917Y891498D01*
X1444417Y893997D02*
Y895663D01*
X1444000Y898162D02*
Y896496D01*
X1442334Y898162D01*
X1441917D01*
X1441501Y897746D01*
Y896913D01*
X1441917Y896496D01*
X1545000Y983000D02*
X1542501D01*
Y984250D01*
X1542917Y984666D01*
X1543750D01*
X1544167Y984250D01*
Y983000D01*
Y983833D02*
X1545000Y984666D01*
X1542917Y985499D02*
X1542501Y985916D01*
Y986749D01*
X1542917Y987165D01*
X1543334D01*
X1543750Y986749D01*
Y986332D01*
Y986749D01*
X1544167Y987165D01*
X1544583D01*
X1545000Y986749D01*
Y985916D01*
X1544583Y985499D01*
X1542917Y987998D02*
X1542501Y988415D01*
Y989248D01*
X1542917Y989665D01*
X1544583D01*
X1545000Y989248D01*
Y988415D01*
X1544583Y987998D01*
X1542917D01*
X1545000Y990498D02*
Y991331D01*
Y990914D01*
X1542501D01*
X1542917Y990498D01*
X1545417Y992580D02*
Y994246D01*
X1545000Y996746D02*
Y995079D01*
X1543334Y996746D01*
X1542917D01*
X1542501Y996329D01*
Y995496D01*
X1542917Y995079D01*
X1545000Y1078000D02*
X1542501D01*
Y1079250D01*
X1542917Y1079666D01*
X1543750D01*
X1544167Y1079250D01*
Y1078000D01*
Y1078833D02*
X1545000Y1079666D01*
X1542917Y1080499D02*
X1542501Y1080916D01*
Y1081749D01*
X1542917Y1082165D01*
X1543334D01*
X1543750Y1081749D01*
Y1081332D01*
Y1081749D01*
X1544167Y1082165D01*
X1544583D01*
X1545000Y1081749D01*
Y1080916D01*
X1544583Y1080499D01*
X1542917Y1082998D02*
X1542501Y1083415D01*
Y1084248D01*
X1542917Y1084665D01*
X1544583D01*
X1545000Y1084248D01*
Y1083415D01*
X1544583Y1082998D01*
X1542917D01*
X1545000Y1085498D02*
Y1086331D01*
Y1085914D01*
X1542501D01*
X1542917Y1085498D01*
X1545417Y1087580D02*
Y1089246D01*
X1545000Y1090079D02*
Y1090912D01*
Y1090496D01*
X1542501D01*
X1542917Y1090079D01*
X1442917Y905666D02*
X1442501Y905250D01*
Y904417D01*
X1442917Y904000D01*
X1444583D01*
X1445000Y904417D01*
Y905250D01*
X1444583Y905666D01*
X1442917Y906499D02*
X1442501Y906916D01*
Y907749D01*
X1442917Y908165D01*
X1443334D01*
X1443750Y907749D01*
Y907332D01*
Y907749D01*
X1444167Y908165D01*
X1444583D01*
X1445000Y907749D01*
Y906916D01*
X1444583Y906499D01*
X1445000Y908998D02*
Y909831D01*
Y909415D01*
X1442501D01*
X1442917Y908998D01*
Y911081D02*
X1442501Y911497D01*
Y912331D01*
X1442917Y912747D01*
X1444583D01*
X1445000Y912331D01*
Y911497D01*
X1444583Y911081D01*
X1442917D01*
X1445417Y913580D02*
Y915246D01*
X1445000Y917746D02*
Y916079D01*
X1443334Y917746D01*
X1442917D01*
X1442501Y917329D01*
Y916496D01*
X1442917Y916079D01*
X1428666Y857083D02*
X1428250Y857499D01*
X1427417D01*
X1427000Y857083D01*
Y855416D01*
X1427417Y855000D01*
X1428250D01*
X1428666Y855416D01*
X1429499Y857083D02*
X1429916Y857499D01*
X1430749D01*
X1431165Y857083D01*
Y856666D01*
X1430749Y856250D01*
X1430332D01*
X1430749D01*
X1431165Y855833D01*
Y855416D01*
X1430749Y855000D01*
X1429916D01*
X1429499Y855416D01*
X1431998Y857083D02*
X1432415Y857499D01*
X1433248D01*
X1433665Y857083D01*
Y855416D01*
X1433248Y855000D01*
X1432415D01*
X1431998Y855416D01*
Y857083D01*
X1435747Y855000D02*
Y857499D01*
X1434498Y856250D01*
X1436164D01*
X1436997Y854584D02*
X1438663D01*
X1441162Y855000D02*
X1439496D01*
X1441162Y856666D01*
Y857083D01*
X1440746Y857499D01*
X1439912D01*
X1439496Y857083D01*
X1422666Y1025083D02*
X1422250Y1025499D01*
X1421416D01*
X1421000Y1025083D01*
Y1023417D01*
X1421416Y1023000D01*
X1422250D01*
X1422666Y1023417D01*
X1423499Y1025083D02*
X1423916Y1025499D01*
X1424749D01*
X1425165Y1025083D01*
Y1024666D01*
X1424749Y1024250D01*
X1424332D01*
X1424749D01*
X1425165Y1023833D01*
Y1023417D01*
X1424749Y1023000D01*
X1423916D01*
X1423499Y1023417D01*
X1425998Y1025083D02*
X1426415Y1025499D01*
X1427248D01*
X1427664Y1025083D01*
Y1023417D01*
X1427248Y1023000D01*
X1426415D01*
X1425998Y1023417D01*
Y1025083D01*
X1430164Y1023000D02*
X1428497D01*
X1430164Y1024666D01*
Y1025083D01*
X1429747Y1025499D01*
X1428914D01*
X1428497Y1025083D01*
X1430997Y1022583D02*
X1432663D01*
X1435162Y1023000D02*
X1433496D01*
X1435162Y1024666D01*
Y1025083D01*
X1434745Y1025499D01*
X1433912D01*
X1433496Y1025083D01*
X1448666Y1071083D02*
X1448250Y1071499D01*
X1447417D01*
X1447000Y1071083D01*
Y1069417D01*
X1447417Y1069000D01*
X1448250D01*
X1448666Y1069417D01*
X1449499Y1071083D02*
X1449916Y1071499D01*
X1450749D01*
X1451165Y1071083D01*
Y1070666D01*
X1450749Y1070250D01*
X1450332D01*
X1450749D01*
X1451165Y1069833D01*
Y1069417D01*
X1450749Y1069000D01*
X1449916D01*
X1449499Y1069417D01*
X1451998Y1071083D02*
X1452415Y1071499D01*
X1453248D01*
X1453665Y1071083D01*
Y1069417D01*
X1453248Y1069000D01*
X1452415D01*
X1451998Y1069417D01*
Y1071083D01*
X1456164Y1069000D02*
X1454498D01*
X1456164Y1070666D01*
Y1071083D01*
X1455747Y1071499D01*
X1454914D01*
X1454498Y1071083D01*
X1456997Y1068584D02*
X1458663D01*
X1459496Y1069000D02*
X1460329D01*
X1459912D01*
Y1071499D01*
X1459496Y1071083D01*
X1447917Y1047666D02*
X1447501Y1047250D01*
Y1046416D01*
X1447917Y1046000D01*
X1449583D01*
X1450000Y1046416D01*
Y1047250D01*
X1449583Y1047666D01*
X1447917Y1048499D02*
X1447501Y1048916D01*
Y1049749D01*
X1447917Y1050165D01*
X1448334D01*
X1448750Y1049749D01*
Y1049332D01*
Y1049749D01*
X1449167Y1050165D01*
X1449583D01*
X1450000Y1049749D01*
Y1048916D01*
X1449583Y1048499D01*
X1450000Y1050998D02*
Y1051831D01*
Y1051415D01*
X1447501D01*
X1447917Y1050998D01*
X1450000Y1053081D02*
Y1053914D01*
Y1053497D01*
X1447501D01*
X1447917Y1053081D01*
X1450417Y1055164D02*
Y1056830D01*
X1450000Y1057663D02*
Y1058496D01*
Y1058079D01*
X1447501D01*
X1447917Y1057663D01*
X1075917Y1207666D02*
X1075501Y1207250D01*
Y1206416D01*
X1075917Y1206000D01*
X1077583D01*
X1078000Y1206416D01*
Y1207250D01*
X1077583Y1207666D01*
X1078000Y1208499D02*
Y1209332D01*
Y1208916D01*
X1075501D01*
X1075917Y1208499D01*
Y1210582D02*
X1075501Y1210998D01*
Y1211831D01*
X1075917Y1212248D01*
X1077583D01*
X1078000Y1211831D01*
Y1210998D01*
X1077583Y1210582D01*
X1075917D01*
Y1213081D02*
X1075501Y1213497D01*
Y1214331D01*
X1075917Y1214747D01*
X1077583D01*
X1078000Y1214331D01*
Y1213497D01*
X1077583Y1213081D01*
X1075917D01*
X1078417Y1215580D02*
Y1217246D01*
X1078000Y1218079D02*
Y1218912D01*
Y1218496D01*
X1075501D01*
X1075917Y1218079D01*
X1087917Y1207666D02*
X1087501Y1207250D01*
Y1206416D01*
X1087917Y1206000D01*
X1089584D01*
X1090000Y1206416D01*
Y1207250D01*
X1089584Y1207666D01*
X1090000Y1208499D02*
Y1209332D01*
Y1208916D01*
X1087501D01*
X1087917Y1208499D01*
Y1210582D02*
X1087501Y1210998D01*
Y1211831D01*
X1087917Y1212248D01*
X1089584D01*
X1090000Y1211831D01*
Y1210998D01*
X1089584Y1210582D01*
X1087917D01*
X1090000Y1213081D02*
Y1213914D01*
Y1213497D01*
X1087501D01*
X1087917Y1213081D01*
X1090416Y1215164D02*
Y1216830D01*
X1090000Y1217663D02*
Y1218496D01*
Y1218079D01*
X1087501D01*
X1087917Y1217663D01*
X1099917Y1207666D02*
X1099501Y1207250D01*
Y1206416D01*
X1099917Y1206000D01*
X1101583D01*
X1102000Y1206416D01*
Y1207250D01*
X1101583Y1207666D01*
X1102000Y1208499D02*
Y1209332D01*
Y1208916D01*
X1099501D01*
X1099917Y1208499D01*
Y1210582D02*
X1099501Y1210998D01*
Y1211831D01*
X1099917Y1212248D01*
X1101583D01*
X1102000Y1211831D01*
Y1210998D01*
X1101583Y1210582D01*
X1099917D01*
X1102000Y1214747D02*
Y1213081D01*
X1100334Y1214747D01*
X1099917D01*
X1099501Y1214331D01*
Y1213497D01*
X1099917Y1213081D01*
X1102417Y1215580D02*
Y1217246D01*
X1102000Y1218079D02*
Y1218912D01*
Y1218496D01*
X1099501D01*
X1099917Y1218079D01*
X1027917Y1207666D02*
X1027501Y1207250D01*
Y1206416D01*
X1027917Y1206000D01*
X1029584D01*
X1030000Y1206416D01*
Y1207250D01*
X1029584Y1207666D01*
X1030000Y1208499D02*
Y1209332D01*
Y1208916D01*
X1027501D01*
X1027917Y1208499D01*
X1030000Y1212248D02*
Y1210582D01*
X1028334Y1212248D01*
X1027917D01*
X1027501Y1211831D01*
Y1210998D01*
X1027917Y1210582D01*
X1027501Y1213081D02*
Y1214747D01*
X1027917D01*
X1029584Y1213081D01*
X1030000D01*
X1030416Y1215580D02*
Y1217246D01*
X1030000Y1218079D02*
Y1218912D01*
Y1218496D01*
X1027501D01*
X1027917Y1218079D01*
X1063917Y1211666D02*
X1063501Y1211250D01*
Y1210416D01*
X1063917Y1210000D01*
X1065583D01*
X1066000Y1210416D01*
Y1211250D01*
X1065583Y1211666D01*
X1066000Y1212499D02*
Y1213332D01*
Y1212916D01*
X1063501D01*
X1063917Y1212499D01*
X1066000Y1216248D02*
Y1214582D01*
X1064334Y1216248D01*
X1063917D01*
X1063501Y1215831D01*
Y1214998D01*
X1063917Y1214582D01*
X1066000Y1218747D02*
Y1217081D01*
X1064334Y1218747D01*
X1063917D01*
X1063501Y1218331D01*
Y1217497D01*
X1063917Y1217081D01*
X1066416Y1219580D02*
Y1221246D01*
X1066000Y1222079D02*
Y1222912D01*
Y1222496D01*
X1063501D01*
X1063917Y1222079D01*
X1118000Y1206000D02*
Y1208499D01*
X1119250D01*
X1119666Y1208083D01*
Y1207250D01*
X1119250Y1206833D01*
X1118000D01*
X1118833D02*
X1119666Y1206000D01*
X1120499D02*
X1121332D01*
X1120916D01*
Y1208499D01*
X1120499Y1208083D01*
X1122582Y1206000D02*
X1123415D01*
X1122998D01*
Y1208499D01*
X1122582Y1208083D01*
X1125914Y1206000D02*
Y1208499D01*
X1124665Y1207250D01*
X1126331D01*
X1127164Y1205583D02*
X1128830D01*
X1129663Y1206000D02*
X1130496D01*
X1130079D01*
Y1208499D01*
X1129663Y1208083D01*
X1118000Y1214000D02*
Y1216499D01*
X1119250D01*
X1119666Y1216083D01*
Y1215250D01*
X1119250Y1214833D01*
X1118000D01*
X1118833D02*
X1119666Y1214000D01*
X1120499D02*
X1121332D01*
X1120916D01*
Y1216499D01*
X1120499Y1216083D01*
X1122582Y1214000D02*
X1123415D01*
X1122998D01*
Y1216499D01*
X1122582Y1216083D01*
X1126331Y1216499D02*
X1124665D01*
Y1215250D01*
X1125498Y1215666D01*
X1125914D01*
X1126331Y1215250D01*
Y1214417D01*
X1125914Y1214000D01*
X1125081D01*
X1124665Y1214417D01*
X1127164Y1213584D02*
X1128830D01*
X1129663Y1214000D02*
X1130496D01*
X1130079D01*
Y1216499D01*
X1129663Y1216083D01*
X1075917Y991666D02*
X1075501Y991250D01*
Y990416D01*
X1075917Y990000D01*
X1077583D01*
X1078000Y990416D01*
Y991250D01*
X1077583Y991666D01*
X1078000Y992499D02*
Y993332D01*
Y992916D01*
X1075501D01*
X1075917Y992499D01*
Y994582D02*
X1075501Y994998D01*
Y995831D01*
X1075917Y996248D01*
X1077583D01*
X1078000Y995831D01*
Y994998D01*
X1077583Y994582D01*
X1075917D01*
Y997081D02*
X1075501Y997497D01*
Y998331D01*
X1075917Y998747D01*
X1077583D01*
X1078000Y998331D01*
Y997497D01*
X1077583Y997081D01*
X1075917D01*
X1078417Y999580D02*
Y1001246D01*
X1078000Y1003745D02*
Y1002079D01*
X1076334Y1003745D01*
X1075917D01*
X1075501Y1003329D01*
Y1002496D01*
X1075917Y1002079D01*
X1088917Y991666D02*
X1088501Y991250D01*
Y990416D01*
X1088917Y990000D01*
X1090583D01*
X1091000Y990416D01*
Y991250D01*
X1090583Y991666D01*
X1091000Y992499D02*
Y993332D01*
Y992916D01*
X1088501D01*
X1088917Y992499D01*
Y994582D02*
X1088501Y994998D01*
Y995831D01*
X1088917Y996248D01*
X1090583D01*
X1091000Y995831D01*
Y994998D01*
X1090583Y994582D01*
X1088917D01*
X1091000Y997081D02*
Y997914D01*
Y997497D01*
X1088501D01*
X1088917Y997081D01*
X1091416Y999164D02*
Y1000830D01*
X1091000Y1003329D02*
Y1001663D01*
X1089334Y1003329D01*
X1088917D01*
X1088501Y1002912D01*
Y1002079D01*
X1088917Y1001663D01*
X1100917Y991666D02*
X1100501Y991250D01*
Y990416D01*
X1100917Y990000D01*
X1102583D01*
X1103000Y990416D01*
Y991250D01*
X1102583Y991666D01*
X1103000Y992499D02*
Y993332D01*
Y992916D01*
X1100501D01*
X1100917Y992499D01*
Y994582D02*
X1100501Y994998D01*
Y995831D01*
X1100917Y996248D01*
X1102583D01*
X1103000Y995831D01*
Y994998D01*
X1102583Y994582D01*
X1100917D01*
X1103000Y998747D02*
Y997081D01*
X1101334Y998747D01*
X1100917D01*
X1100501Y998331D01*
Y997497D01*
X1100917Y997081D01*
X1103417Y999580D02*
Y1001246D01*
X1103000Y1003745D02*
Y1002079D01*
X1101334Y1003745D01*
X1100917D01*
X1100501Y1003329D01*
Y1002496D01*
X1100917Y1002079D01*
X1039917Y837666D02*
X1039501Y837250D01*
Y836416D01*
X1039917Y836000D01*
X1041583D01*
X1042000Y836416D01*
Y837250D01*
X1041583Y837666D01*
X1042000Y838499D02*
Y839332D01*
Y838916D01*
X1039501D01*
X1039917Y838499D01*
Y840582D02*
X1039501Y840998D01*
Y841831D01*
X1039917Y842248D01*
X1041583D01*
X1042000Y841831D01*
Y840998D01*
X1041583Y840582D01*
X1039917D01*
Y843081D02*
X1039501Y843498D01*
Y844331D01*
X1039917Y844747D01*
X1040334D01*
X1040750Y844331D01*
Y843914D01*
Y844331D01*
X1041167Y844747D01*
X1041583D01*
X1042000Y844331D01*
Y843498D01*
X1041583Y843081D01*
X1042417Y845580D02*
Y847246D01*
X1042000Y849745D02*
Y848079D01*
X1040334Y849745D01*
X1039917D01*
X1039501Y849329D01*
Y848496D01*
X1039917Y848079D01*
X1028917Y991666D02*
X1028501Y991250D01*
Y990416D01*
X1028917Y990000D01*
X1030583D01*
X1031000Y990416D01*
Y991250D01*
X1030583Y991666D01*
X1031000Y992499D02*
Y993332D01*
Y992916D01*
X1028501D01*
X1028917Y992499D01*
X1031000Y996248D02*
Y994582D01*
X1029334Y996248D01*
X1028917D01*
X1028501Y995831D01*
Y994998D01*
X1028917Y994582D01*
X1028501Y997081D02*
Y998747D01*
X1028917D01*
X1030583Y997081D01*
X1031000D01*
X1031416Y999580D02*
Y1001246D01*
X1031000Y1003745D02*
Y1002079D01*
X1029334Y1003745D01*
X1028917D01*
X1028501Y1003329D01*
Y1002496D01*
X1028917Y1002079D01*
X1085917Y839666D02*
X1085501Y839250D01*
Y838417D01*
X1085917Y838000D01*
X1087583D01*
X1088000Y838417D01*
Y839250D01*
X1087583Y839666D01*
X1088000Y840499D02*
Y841332D01*
Y840916D01*
X1085501D01*
X1085917Y840499D01*
Y842582D02*
X1085501Y842998D01*
Y843831D01*
X1085917Y844248D01*
X1087583D01*
X1088000Y843831D01*
Y842998D01*
X1087583Y842582D01*
X1085917D01*
X1088000Y846331D02*
X1085501D01*
X1086750Y845081D01*
Y846747D01*
X1088417Y847580D02*
Y849246D01*
X1088000Y851746D02*
Y850079D01*
X1086334Y851746D01*
X1085917D01*
X1085501Y851329D01*
Y850496D01*
X1085917Y850079D01*
X1073917Y840666D02*
X1073501Y840250D01*
Y839417D01*
X1073917Y839000D01*
X1075583D01*
X1076000Y839417D01*
Y840250D01*
X1075583Y840666D01*
X1076000Y841499D02*
Y842332D01*
Y841916D01*
X1073501D01*
X1073917Y841499D01*
Y843582D02*
X1073501Y843998D01*
Y844831D01*
X1073917Y845248D01*
X1075583D01*
X1076000Y844831D01*
Y843998D01*
X1075583Y843582D01*
X1073917D01*
X1073501Y847747D02*
Y846081D01*
X1074750D01*
X1074334Y846914D01*
Y847331D01*
X1074750Y847747D01*
X1075583D01*
X1076000Y847331D01*
Y846497D01*
X1075583Y846081D01*
X1076416Y848580D02*
Y850246D01*
X1076000Y852746D02*
Y851079D01*
X1074334Y852746D01*
X1073917D01*
X1073501Y852329D01*
Y851496D01*
X1073917Y851079D01*
X1052666Y842083D02*
X1052250Y842499D01*
X1051416D01*
X1051000Y842083D01*
Y840416D01*
X1051416Y840000D01*
X1052250D01*
X1052666Y840416D01*
X1053499Y840000D02*
X1054332D01*
X1053916D01*
Y842499D01*
X1053499Y842083D01*
X1057248Y840000D02*
X1055582D01*
X1057248Y841666D01*
Y842083D01*
X1056831Y842499D01*
X1055998D01*
X1055582Y842083D01*
X1059747Y842499D02*
X1058914Y842083D01*
X1058081Y841250D01*
Y840416D01*
X1058498Y840000D01*
X1059331D01*
X1059747Y840416D01*
Y840833D01*
X1059331Y841250D01*
X1058081D01*
X1060580Y839584D02*
X1062246D01*
X1064745Y840000D02*
X1063079D01*
X1064745Y841666D01*
Y842083D01*
X1064329Y842499D01*
X1063496D01*
X1063079Y842083D01*
X1052666Y830083D02*
X1052250Y830499D01*
X1051416D01*
X1051000Y830083D01*
Y828417D01*
X1051416Y828000D01*
X1052250D01*
X1052666Y828417D01*
X1053499Y828000D02*
X1054332D01*
X1053916D01*
Y830499D01*
X1053499Y830083D01*
X1057248Y828000D02*
X1055582D01*
X1057248Y829666D01*
Y830083D01*
X1056831Y830499D01*
X1055998D01*
X1055582Y830083D01*
X1059747Y830499D02*
X1058081D01*
Y829250D01*
X1058914Y829666D01*
X1059331D01*
X1059747Y829250D01*
Y828417D01*
X1059331Y828000D01*
X1058498D01*
X1058081Y828417D01*
X1060580Y827583D02*
X1062246D01*
X1064745Y828000D02*
X1063079D01*
X1064745Y829666D01*
Y830083D01*
X1064329Y830499D01*
X1063496D01*
X1063079Y830083D01*
X1027917Y840666D02*
X1027501Y840250D01*
Y839417D01*
X1027917Y839000D01*
X1029584D01*
X1030000Y839417D01*
Y840250D01*
X1029584Y840666D01*
X1030000Y841499D02*
Y842332D01*
Y841916D01*
X1027501D01*
X1027917Y841499D01*
Y843582D02*
X1027501Y843998D01*
Y844831D01*
X1027917Y845248D01*
X1029584D01*
X1030000Y844831D01*
Y843998D01*
X1029584Y843582D01*
X1027917D01*
X1027501Y847747D02*
X1027917Y846914D01*
X1028750Y846081D01*
X1029584D01*
X1030000Y846497D01*
Y847331D01*
X1029584Y847747D01*
X1029167D01*
X1028750Y847331D01*
Y846081D01*
X1030416Y848580D02*
Y850246D01*
X1030000Y852746D02*
Y851079D01*
X1028334Y852746D01*
X1027917D01*
X1027501Y852329D01*
Y851496D01*
X1027917Y851079D01*
X1063917Y995666D02*
X1063501Y995250D01*
Y994417D01*
X1063917Y994000D01*
X1065583D01*
X1066000Y994417D01*
Y995250D01*
X1065583Y995666D01*
X1066000Y996499D02*
Y997332D01*
Y996916D01*
X1063501D01*
X1063917Y996499D01*
X1066000Y1000248D02*
Y998582D01*
X1064334Y1000248D01*
X1063917D01*
X1063501Y999831D01*
Y998998D01*
X1063917Y998582D01*
X1066000Y1002747D02*
Y1001081D01*
X1064334Y1002747D01*
X1063917D01*
X1063501Y1002331D01*
Y1001497D01*
X1063917Y1001081D01*
X1066416Y1003580D02*
Y1005246D01*
X1066000Y1007746D02*
Y1006079D01*
X1064334Y1007746D01*
X1063917D01*
X1063501Y1007329D01*
Y1006496D01*
X1063917Y1006079D01*
X1135666Y1194083D02*
X1135250Y1194499D01*
X1134417D01*
X1134000Y1194083D01*
Y1192417D01*
X1134417Y1192000D01*
X1135250D01*
X1135666Y1192417D01*
X1136499Y1192000D02*
X1137332D01*
X1136916D01*
Y1194499D01*
X1136499Y1194083D01*
X1140248Y1192000D02*
X1138582D01*
X1140248Y1193666D01*
Y1194083D01*
X1139831Y1194499D01*
X1138998D01*
X1138582Y1194083D01*
X1141081D02*
X1141497Y1194499D01*
X1142331D01*
X1142747Y1194083D01*
Y1192417D01*
X1142331Y1192000D01*
X1141497D01*
X1141081Y1192417D01*
Y1194083D01*
X1143580Y1191583D02*
X1145246D01*
X1146079Y1192000D02*
X1146912D01*
X1146496D01*
Y1194499D01*
X1146079Y1194083D01*
X1140917Y975666D02*
X1140501Y975249D01*
Y974416D01*
X1140917Y974000D01*
X1142583D01*
X1143000Y974416D01*
Y975249D01*
X1142583Y975666D01*
X1143000Y976499D02*
Y977332D01*
Y976916D01*
X1140501D01*
X1140917Y976499D01*
X1143000Y980248D02*
Y978582D01*
X1141334Y980248D01*
X1140917D01*
X1140501Y979831D01*
Y978998D01*
X1140917Y978582D01*
Y981081D02*
X1140501Y981497D01*
Y982330D01*
X1140917Y982747D01*
X1142583D01*
X1143000Y982330D01*
Y981497D01*
X1142583Y981081D01*
X1140917D01*
X1143417Y983580D02*
Y985246D01*
X1143000Y987745D02*
Y986079D01*
X1141334Y987745D01*
X1140917D01*
X1140501Y987329D01*
Y986496D01*
X1140917Y986079D01*
X1146917Y1150666D02*
X1146501Y1150250D01*
Y1149417D01*
X1146917Y1149000D01*
X1148584D01*
X1149000Y1149417D01*
Y1150250D01*
X1148584Y1150666D01*
X1149000Y1151499D02*
Y1152332D01*
Y1151916D01*
X1146501D01*
X1146917Y1151499D01*
X1149000Y1153582D02*
Y1154415D01*
Y1153998D01*
X1146501D01*
X1146917Y1153582D01*
Y1155665D02*
X1146501Y1156081D01*
Y1156914D01*
X1146917Y1157331D01*
X1147334D01*
X1147750Y1156914D01*
X1148167Y1157331D01*
X1148584D01*
X1149000Y1156914D01*
Y1156081D01*
X1148584Y1155665D01*
X1148167D01*
X1147750Y1156081D01*
X1147334Y1155665D01*
X1146917D01*
X1147750Y1156081D02*
Y1156914D01*
X1149417Y1158164D02*
Y1159830D01*
X1149000Y1160663D02*
Y1161496D01*
Y1161079D01*
X1146501D01*
X1146917Y1160663D01*
X1145917Y1112666D02*
X1145501Y1112250D01*
Y1111416D01*
X1145917Y1111000D01*
X1147583D01*
X1148000Y1111416D01*
Y1112250D01*
X1147583Y1112666D01*
X1148000Y1113499D02*
Y1114332D01*
Y1113916D01*
X1145501D01*
X1145917Y1113499D01*
X1148000Y1115582D02*
Y1116415D01*
Y1115998D01*
X1145501D01*
X1145917Y1115582D01*
X1145501Y1119331D02*
X1145917Y1118497D01*
X1146750Y1117664D01*
X1147583D01*
X1148000Y1118081D01*
Y1118914D01*
X1147583Y1119331D01*
X1147167D01*
X1146750Y1118914D01*
Y1117664D01*
X1148417Y1120163D02*
Y1121830D01*
X1148000Y1122663D02*
Y1123496D01*
Y1123079D01*
X1145501D01*
X1145917Y1122663D01*
X1145917Y892666D02*
X1145501Y892250D01*
Y891416D01*
X1145917Y891000D01*
X1147583D01*
X1148000Y891416D01*
Y892250D01*
X1147583Y892666D01*
X1148000Y893499D02*
Y894332D01*
Y893916D01*
X1145501D01*
X1145917Y893499D01*
X1148000Y895582D02*
Y896415D01*
Y895998D01*
X1145501D01*
X1145917Y895582D01*
X1145501Y899331D02*
X1145917Y898497D01*
X1146750Y897664D01*
X1147583D01*
X1148000Y898081D01*
Y898914D01*
X1147583Y899331D01*
X1147167D01*
X1146750Y898914D01*
Y897664D01*
X1148417Y900164D02*
Y901830D01*
X1148000Y904329D02*
Y902663D01*
X1146334Y904329D01*
X1145917D01*
X1145501Y903912D01*
Y903079D01*
X1145917Y902663D01*
X1145917Y1095666D02*
X1145501Y1095249D01*
Y1094417D01*
X1145917Y1094000D01*
X1147583D01*
X1148000Y1094417D01*
Y1095249D01*
X1147583Y1095666D01*
X1148000Y1096499D02*
Y1097332D01*
Y1096916D01*
X1145501D01*
X1145917Y1096499D01*
X1148000Y1098582D02*
Y1099415D01*
Y1098998D01*
X1145501D01*
X1145917Y1098582D01*
X1145501Y1102330D02*
Y1100664D01*
X1146750D01*
X1146334Y1101497D01*
Y1101914D01*
X1146750Y1102330D01*
X1147583D01*
X1148000Y1101914D01*
Y1101081D01*
X1147583Y1100664D01*
X1148417Y1103164D02*
Y1104830D01*
X1148000Y1105663D02*
Y1106496D01*
Y1106079D01*
X1145501D01*
X1145917Y1105663D01*
X1145917Y875666D02*
X1145501Y875249D01*
Y874417D01*
X1145917Y874000D01*
X1147583D01*
X1148000Y874417D01*
Y875249D01*
X1147583Y875666D01*
X1148000Y876499D02*
Y877332D01*
Y876916D01*
X1145501D01*
X1145917Y876499D01*
X1148000Y878582D02*
Y879415D01*
Y878998D01*
X1145501D01*
X1145917Y878582D01*
X1145501Y882330D02*
Y880664D01*
X1146750D01*
X1146334Y881497D01*
Y881914D01*
X1146750Y882330D01*
X1147583D01*
X1148000Y881914D01*
Y881081D01*
X1147583Y880664D01*
X1148417Y883164D02*
Y884830D01*
X1148000Y887329D02*
Y885663D01*
X1146334Y887329D01*
X1145917D01*
X1145501Y886912D01*
Y886079D01*
X1145917Y885663D01*
X1117000Y990000D02*
Y992499D01*
X1118250D01*
X1118666Y992083D01*
Y991250D01*
X1118250Y990833D01*
X1117000D01*
X1117833D02*
X1118666Y990000D01*
X1119499D02*
X1120332D01*
X1119916D01*
Y992499D01*
X1119499Y992083D01*
X1121582Y990000D02*
X1122415D01*
X1121998D01*
Y992499D01*
X1121582Y992083D01*
X1124914Y990000D02*
Y992499D01*
X1123664Y991250D01*
X1125331D01*
X1126164Y989584D02*
X1127830D01*
X1130329Y990000D02*
X1128663D01*
X1130329Y991666D01*
Y992083D01*
X1129912Y992499D01*
X1129079D01*
X1128663Y992083D01*
X1117000Y998000D02*
Y1000499D01*
X1118250D01*
X1118666Y1000083D01*
Y999250D01*
X1118250Y998833D01*
X1117000D01*
X1117833D02*
X1118666Y998000D01*
X1119499D02*
X1120332D01*
X1119916D01*
Y1000499D01*
X1119499Y1000083D01*
X1121582Y998000D02*
X1122415D01*
X1121998D01*
Y1000499D01*
X1121582Y1000083D01*
X1125331Y1000499D02*
X1123664D01*
Y999250D01*
X1124498Y999666D01*
X1124914D01*
X1125331Y999250D01*
Y998417D01*
X1124914Y998000D01*
X1124081D01*
X1123664Y998417D01*
X1126164Y997583D02*
X1127830D01*
X1130329Y998000D02*
X1128663D01*
X1130329Y999666D01*
Y1000083D01*
X1129912Y1000499D01*
X1129079D01*
X1128663Y1000083D01*
X1051917Y1207666D02*
X1051501Y1207250D01*
Y1206416D01*
X1051917Y1206000D01*
X1053584D01*
X1054000Y1206416D01*
Y1207250D01*
X1053584Y1207666D01*
X1054000Y1208499D02*
Y1209332D01*
Y1208916D01*
X1051501D01*
X1051917Y1208499D01*
X1054000Y1212248D02*
Y1210582D01*
X1052334Y1212248D01*
X1051917D01*
X1051501Y1211831D01*
Y1210998D01*
X1051917Y1210582D01*
X1054000Y1214331D02*
X1051501D01*
X1052750Y1213081D01*
Y1214747D01*
X1054417Y1215580D02*
Y1217246D01*
X1054000Y1218079D02*
Y1218912D01*
Y1218496D01*
X1051501D01*
X1051917Y1218079D01*
X1052917Y991666D02*
X1052501Y991250D01*
Y990416D01*
X1052917Y990000D01*
X1054584D01*
X1055000Y990416D01*
Y991250D01*
X1054584Y991666D01*
X1055000Y992499D02*
Y993332D01*
Y992916D01*
X1052501D01*
X1052917Y992499D01*
X1055000Y996248D02*
Y994582D01*
X1053334Y996248D01*
X1052917D01*
X1052501Y995831D01*
Y994998D01*
X1052917Y994582D01*
X1055000Y998331D02*
X1052501D01*
X1053750Y997081D01*
Y998747D01*
X1055416Y999580D02*
Y1001246D01*
X1055000Y1003745D02*
Y1002079D01*
X1053334Y1003745D01*
X1052917D01*
X1052501Y1003329D01*
Y1002496D01*
X1052917Y1002079D01*
X1478666Y1038083D02*
X1478250Y1038499D01*
X1477417D01*
X1477000Y1038083D01*
Y1036416D01*
X1477417Y1036000D01*
X1478250D01*
X1478666Y1036416D01*
X1479499Y1038083D02*
X1479916Y1038499D01*
X1480749D01*
X1481165Y1038083D01*
Y1037666D01*
X1480749Y1037250D01*
X1480332D01*
X1480749D01*
X1481165Y1036833D01*
Y1036416D01*
X1480749Y1036000D01*
X1479916D01*
X1479499Y1036416D01*
X1481998Y1038083D02*
X1482415Y1038499D01*
X1483248D01*
X1483665Y1038083D01*
Y1036416D01*
X1483248Y1036000D01*
X1482415D01*
X1481998Y1036416D01*
Y1038083D01*
X1484498D02*
X1484914Y1038499D01*
X1485747D01*
X1486164Y1038083D01*
Y1036416D01*
X1485747Y1036000D01*
X1484914D01*
X1484498Y1036416D01*
Y1038083D01*
X1486997Y1035583D02*
X1488663D01*
X1489496Y1036000D02*
X1490329D01*
X1489912D01*
Y1038499D01*
X1489496Y1038083D01*
X1452666Y1083083D02*
X1452250Y1083499D01*
X1451416D01*
X1451000Y1083083D01*
Y1081416D01*
X1451416Y1081000D01*
X1452250D01*
X1452666Y1081416D01*
X1453499Y1083083D02*
X1453916Y1083499D01*
X1454749D01*
X1455165Y1083083D01*
Y1082666D01*
X1454749Y1082250D01*
X1454332D01*
X1454749D01*
X1455165Y1081833D01*
Y1081416D01*
X1454749Y1081000D01*
X1453916D01*
X1453499Y1081416D01*
X1455998Y1083083D02*
X1456415Y1083499D01*
X1457248D01*
X1457664Y1083083D01*
Y1081416D01*
X1457248Y1081000D01*
X1456415D01*
X1455998Y1081416D01*
Y1083083D01*
X1458497Y1081000D02*
X1459331D01*
X1458914D01*
Y1083499D01*
X1458497Y1083083D01*
X1460580Y1080583D02*
X1462246D01*
X1463079Y1081000D02*
X1463912D01*
X1463496D01*
Y1083499D01*
X1463079Y1083083D01*
X1450666Y1021083D02*
X1450250Y1021499D01*
X1449417D01*
X1449000Y1021083D01*
Y1019417D01*
X1449417Y1019000D01*
X1450250D01*
X1450666Y1019417D01*
X1451499Y1021083D02*
X1451916Y1021499D01*
X1452749D01*
X1453165Y1021083D01*
Y1020666D01*
X1452749Y1020250D01*
X1452332D01*
X1452749D01*
X1453165Y1019833D01*
Y1019417D01*
X1452749Y1019000D01*
X1451916D01*
X1451499Y1019417D01*
X1453998Y1021083D02*
X1454415Y1021499D01*
X1455248D01*
X1455665Y1021083D01*
Y1019417D01*
X1455248Y1019000D01*
X1454415D01*
X1453998Y1019417D01*
Y1021083D01*
X1456497Y1019000D02*
X1457331D01*
X1456914D01*
Y1021499D01*
X1456497Y1021083D01*
X1458580Y1018584D02*
X1460246D01*
X1462746Y1019000D02*
X1461079D01*
X1462746Y1020666D01*
Y1021083D01*
X1462329Y1021499D01*
X1461496D01*
X1461079Y1021083D01*
X1165917Y1130666D02*
X1165501Y1130249D01*
Y1129416D01*
X1165917Y1129000D01*
X1167583D01*
X1168000Y1129416D01*
Y1130249D01*
X1167583Y1130666D01*
X1168000Y1131499D02*
Y1132332D01*
Y1131916D01*
X1165501D01*
X1165917Y1131499D01*
X1168000Y1133582D02*
Y1134415D01*
Y1133998D01*
X1165501D01*
X1165917Y1133582D01*
Y1135664D02*
X1165501Y1136081D01*
Y1136914D01*
X1165917Y1137330D01*
X1167583D01*
X1168000Y1136914D01*
Y1136081D01*
X1167583Y1135664D01*
X1165917D01*
X1168417Y1138164D02*
Y1139830D01*
X1168000Y1140663D02*
Y1141496D01*
Y1141079D01*
X1165501D01*
X1165917Y1140663D01*
Y914666D02*
X1165501Y914249D01*
Y913416D01*
X1165917Y913000D01*
X1167583D01*
X1168000Y913416D01*
Y914249D01*
X1167583Y914666D01*
X1168000Y915499D02*
Y916332D01*
Y915916D01*
X1165501D01*
X1165917Y915499D01*
X1168000Y917582D02*
Y918415D01*
Y917998D01*
X1165501D01*
X1165917Y917582D01*
Y919664D02*
X1165501Y920081D01*
Y920914D01*
X1165917Y921330D01*
X1167583D01*
X1168000Y920914D01*
Y920081D01*
X1167583Y919664D01*
X1165917D01*
X1168417Y922164D02*
Y923830D01*
X1168000Y926329D02*
Y924663D01*
X1166334Y926329D01*
X1165917D01*
X1165501Y925912D01*
Y925079D01*
X1165917Y924663D01*
X778666Y852083D02*
X778250Y852499D01*
X777417D01*
X777000Y852083D01*
Y850416D01*
X777417Y850000D01*
X778250D01*
X778666Y850416D01*
X780749Y850000D02*
Y852499D01*
X779499Y851250D01*
X781165D01*
X781998Y852083D02*
X782415Y852499D01*
X783248D01*
X783664Y852083D01*
Y851666D01*
X783248Y851250D01*
X782831D01*
X783248D01*
X783664Y850833D01*
Y850416D01*
X783248Y850000D01*
X782415D01*
X781998Y850416D01*
X784498Y852499D02*
X786164D01*
Y852083D01*
X784498Y850416D01*
Y850000D01*
X839000Y811000D02*
Y813499D01*
X840250D01*
X840666Y813083D01*
Y812250D01*
X840250Y811833D01*
X839000D01*
X839833D02*
X840666Y811000D01*
X842749D02*
Y813499D01*
X841499Y812250D01*
X843165D01*
X843998Y811000D02*
X844831D01*
X844415D01*
Y813499D01*
X843998Y813083D01*
X847747Y813499D02*
X846081D01*
Y812250D01*
X846914Y812666D01*
X847331D01*
X847747Y812250D01*
Y811416D01*
X847331Y811000D01*
X846497D01*
X846081Y811416D01*
D97*
X1218000Y1019000D02*
Y1022499D01*
X1219749D01*
X1220333Y1021916D01*
Y1020749D01*
X1219749Y1020166D01*
X1218000D01*
X1219166D02*
X1220333Y1019000D01*
X1223248D02*
Y1022499D01*
X1221499Y1020749D01*
X1223831D01*
X1224998Y1021916D02*
X1225581Y1022499D01*
X1226747D01*
X1227330Y1021916D01*
Y1019583D01*
X1226747Y1019000D01*
X1225581D01*
X1224998Y1019583D01*
Y1021916D01*
X1228497D02*
X1229080Y1022499D01*
X1230246D01*
X1230829Y1021916D01*
Y1021333D01*
X1230246Y1020749D01*
X1230829Y1020166D01*
Y1019583D01*
X1230246Y1019000D01*
X1229080D01*
X1228497Y1019583D01*
Y1020166D01*
X1229080Y1020749D01*
X1228497Y1021333D01*
Y1021916D01*
X1229080Y1020749D02*
X1230246D01*
X1200000Y1008000D02*
Y1011499D01*
X1201749D01*
X1202333Y1010916D01*
Y1009749D01*
X1201749Y1009166D01*
X1200000D01*
X1201166D02*
X1202333Y1008000D01*
X1205248D02*
Y1011499D01*
X1203499Y1009749D01*
X1205831D01*
X1206998Y1010916D02*
X1207581Y1011499D01*
X1208747D01*
X1209330Y1010916D01*
Y1008583D01*
X1208747Y1008000D01*
X1207581D01*
X1206998Y1008583D01*
Y1010916D01*
X1210497Y1008583D02*
X1211080Y1008000D01*
X1212246D01*
X1212829Y1008583D01*
Y1010916D01*
X1212246Y1011499D01*
X1211080D01*
X1210497Y1010916D01*
Y1010333D01*
X1211080Y1009749D01*
X1212829D01*
X1059333Y1015916D02*
X1058749Y1016499D01*
X1057583D01*
X1057000Y1015916D01*
Y1013583D01*
X1057583Y1013000D01*
X1058749D01*
X1059333Y1013583D01*
X1060499Y1013000D02*
X1061665D01*
X1061082D01*
Y1016499D01*
X1060499Y1015916D01*
X1065747Y1013000D02*
X1063415D01*
X1065747Y1015333D01*
Y1015916D01*
X1065164Y1016499D01*
X1063998D01*
X1063415Y1015916D01*
X1066913D02*
X1067496Y1016499D01*
X1068663D01*
X1069246Y1015916D01*
Y1015333D01*
X1068663Y1014749D01*
X1068080D01*
X1068663D01*
X1069246Y1014166D01*
Y1013583D01*
X1068663Y1013000D01*
X1067496D01*
X1066913Y1013583D01*
X1070412Y1012417D02*
X1072745D01*
X1076244Y1013000D02*
X1073911D01*
X1076244Y1015333D01*
Y1015916D01*
X1075660Y1016499D01*
X1074494D01*
X1073911Y1015916D01*
X1286000Y1098000D02*
X1282501D01*
Y1099749D01*
X1283084Y1100333D01*
X1284251D01*
X1284834Y1099749D01*
Y1098000D01*
Y1099166D02*
X1286000Y1100333D01*
X1283084Y1101499D02*
X1282501Y1102082D01*
Y1103248D01*
X1283084Y1103831D01*
X1283667D01*
X1284251Y1103248D01*
Y1102665D01*
Y1103248D01*
X1284834Y1103831D01*
X1285417D01*
X1286000Y1103248D01*
Y1102082D01*
X1285417Y1101499D01*
X1283084Y1104998D02*
X1282501Y1105581D01*
Y1106747D01*
X1283084Y1107330D01*
X1285417D01*
X1286000Y1106747D01*
Y1105581D01*
X1285417Y1104998D01*
X1283084D01*
Y1108496D02*
X1282501Y1109080D01*
Y1110246D01*
X1283084Y1110829D01*
X1283667D01*
X1284251Y1110246D01*
X1284834Y1110829D01*
X1285417D01*
X1286000Y1110246D01*
Y1109080D01*
X1285417Y1108496D01*
X1284834D01*
X1284251Y1109080D01*
X1283667Y1108496D01*
X1283084D01*
X1284251Y1109080D02*
Y1110246D01*
X1286583Y1111995D02*
Y1114328D01*
X1286000Y1115494D02*
Y1116661D01*
Y1116077D01*
X1282501D01*
X1283084Y1115494D01*
X1230084Y1036333D02*
X1229501Y1035749D01*
Y1034583D01*
X1230084Y1034000D01*
X1232417D01*
X1233000Y1034583D01*
Y1035749D01*
X1232417Y1036333D01*
X1233000Y1039248D02*
X1229501D01*
X1231251Y1037499D01*
Y1039831D01*
X1230084Y1040998D02*
X1229501Y1041581D01*
Y1042747D01*
X1230084Y1043330D01*
X1232417D01*
X1233000Y1042747D01*
Y1041581D01*
X1232417Y1040998D01*
X1230084D01*
X1232417Y1044497D02*
X1233000Y1045080D01*
Y1046246D01*
X1232417Y1046829D01*
X1230084D01*
X1229501Y1046246D01*
Y1045080D01*
X1230084Y1044497D01*
X1230667D01*
X1231251Y1045080D01*
Y1046829D01*
X1203333Y1021916D02*
X1202749Y1022499D01*
X1201583D01*
X1201000Y1021916D01*
Y1019583D01*
X1201583Y1019000D01*
X1202749D01*
X1203333Y1019583D01*
X1206248Y1019000D02*
Y1022499D01*
X1204499Y1020749D01*
X1206831D01*
X1207998Y1021916D02*
X1208581Y1022499D01*
X1209747D01*
X1210330Y1021916D01*
Y1019583D01*
X1209747Y1019000D01*
X1208581D01*
X1207998Y1019583D01*
Y1021916D01*
X1211497Y1022499D02*
X1213829D01*
Y1021916D01*
X1211497Y1019583D01*
Y1019000D01*
X1288333Y1052916D02*
X1287749Y1053499D01*
X1286583D01*
X1286000Y1052916D01*
Y1050583D01*
X1286583Y1050000D01*
X1287749D01*
X1288333Y1050583D01*
X1291248Y1050000D02*
Y1053499D01*
X1289499Y1051749D01*
X1291831D01*
X1292998Y1052916D02*
X1293581Y1053499D01*
X1294747D01*
X1295330Y1052916D01*
Y1050583D01*
X1294747Y1050000D01*
X1293581D01*
X1292998Y1050583D01*
Y1052916D01*
X1296496Y1050000D02*
X1297663D01*
X1297080D01*
Y1053499D01*
X1296496Y1052916D01*
X1265084Y961333D02*
X1264501Y960749D01*
Y959583D01*
X1265084Y959000D01*
X1267417D01*
X1268000Y959583D01*
Y960749D01*
X1267417Y961333D01*
X1265084Y962499D02*
X1264501Y963082D01*
Y964248D01*
X1265084Y964831D01*
X1265667D01*
X1266251Y964248D01*
Y963665D01*
Y964248D01*
X1266834Y964831D01*
X1267417D01*
X1268000Y964248D01*
Y963082D01*
X1267417Y962499D01*
X1268000Y965998D02*
Y967164D01*
Y966581D01*
X1264501D01*
X1265084Y965998D01*
X1267417Y968913D02*
X1268000Y969497D01*
Y970663D01*
X1267417Y971246D01*
X1265084D01*
X1264501Y970663D01*
Y969497D01*
X1265084Y968913D01*
X1265667D01*
X1266251Y969497D01*
Y971246D01*
X1268583Y972412D02*
Y974745D01*
X1268000Y978244D02*
Y975911D01*
X1265667Y978244D01*
X1265084D01*
X1264501Y977661D01*
Y976494D01*
X1265084Y975911D01*
X1266084Y1092333D02*
X1265501Y1091749D01*
Y1090583D01*
X1266084Y1090000D01*
X1268417D01*
X1269000Y1090583D01*
Y1091749D01*
X1268417Y1092333D01*
X1266084Y1093499D02*
X1265501Y1094082D01*
Y1095248D01*
X1266084Y1095831D01*
X1266667D01*
X1267251Y1095248D01*
Y1094665D01*
Y1095248D01*
X1267834Y1095831D01*
X1268417D01*
X1269000Y1095248D01*
Y1094082D01*
X1268417Y1093499D01*
X1269000Y1096998D02*
Y1098164D01*
Y1097581D01*
X1265501D01*
X1266084Y1096998D01*
X1268417Y1099913D02*
X1269000Y1100497D01*
Y1101663D01*
X1268417Y1102246D01*
X1266084D01*
X1265501Y1101663D01*
Y1100497D01*
X1266084Y1099913D01*
X1266667D01*
X1267251Y1100497D01*
Y1102246D01*
X1269583Y1103412D02*
Y1105745D01*
X1269000Y1106911D02*
Y1108077D01*
Y1107494D01*
X1265501D01*
X1266084Y1106911D01*
X1301084Y1073333D02*
X1300501Y1072749D01*
Y1071583D01*
X1301084Y1071000D01*
X1303417D01*
X1304000Y1071583D01*
Y1072749D01*
X1303417Y1073333D01*
X1301084Y1074499D02*
X1300501Y1075082D01*
Y1076248D01*
X1301084Y1076831D01*
X1301667D01*
X1302251Y1076248D01*
Y1075665D01*
Y1076248D01*
X1302834Y1076831D01*
X1303417D01*
X1304000Y1076248D01*
Y1075082D01*
X1303417Y1074499D01*
X1301084Y1077998D02*
X1300501Y1078581D01*
Y1079747D01*
X1301084Y1080330D01*
X1303417D01*
X1304000Y1079747D01*
Y1078581D01*
X1303417Y1077998D01*
X1301084D01*
X1300501Y1083829D02*
X1301084Y1082663D01*
X1302251Y1081497D01*
X1303417D01*
X1304000Y1082080D01*
Y1083246D01*
X1303417Y1083829D01*
X1302834D01*
X1302251Y1083246D01*
Y1081497D01*
X1304583Y1084995D02*
Y1087328D01*
X1304000Y1088494D02*
Y1089660D01*
Y1089077D01*
X1300501D01*
X1301084Y1088494D01*
X1242000Y1021000D02*
X1238501D01*
Y1022749D01*
X1239084Y1023333D01*
X1240251D01*
X1240834Y1022749D01*
Y1021000D01*
Y1022166D02*
X1242000Y1023333D01*
Y1026248D02*
X1238501D01*
X1240251Y1024499D01*
Y1026831D01*
X1242000Y1027998D02*
Y1029164D01*
Y1028581D01*
X1238501D01*
X1239084Y1027998D01*
Y1030913D02*
X1238501Y1031497D01*
Y1032663D01*
X1239084Y1033246D01*
X1241417D01*
X1242000Y1032663D01*
Y1031497D01*
X1241417Y1030913D01*
X1239084D01*
X1268333Y1006916D02*
X1267749Y1007499D01*
X1266583D01*
X1266000Y1006916D01*
Y1004583D01*
X1266583Y1004000D01*
X1267749D01*
X1268333Y1004583D01*
X1271248Y1004000D02*
Y1007499D01*
X1269499Y1005749D01*
X1271831D01*
X1272998Y1006916D02*
X1273581Y1007499D01*
X1274747D01*
X1275330Y1006916D01*
Y1004583D01*
X1274747Y1004000D01*
X1273581D01*
X1272998Y1004583D01*
Y1006916D01*
X1276497D02*
X1277080Y1007499D01*
X1278246D01*
X1278829Y1006916D01*
Y1004583D01*
X1278246Y1004000D01*
X1277080D01*
X1276497Y1004583D01*
Y1006916D01*
X1039084Y995333D02*
X1038501Y994749D01*
Y993583D01*
X1039084Y993000D01*
X1041417D01*
X1042000Y993583D01*
Y994749D01*
X1041417Y995333D01*
X1042000Y996499D02*
Y997665D01*
Y997082D01*
X1038501D01*
X1039084Y996499D01*
X1042000Y1001747D02*
Y999415D01*
X1039667Y1001747D01*
X1039084D01*
X1038501Y1001164D01*
Y999998D01*
X1039084Y999415D01*
Y1002913D02*
X1038501Y1003496D01*
Y1004663D01*
X1039084Y1005246D01*
X1039667D01*
X1040251Y1004663D01*
X1040834Y1005246D01*
X1041417D01*
X1042000Y1004663D01*
Y1003496D01*
X1041417Y1002913D01*
X1040834D01*
X1040251Y1003496D01*
X1039667Y1002913D01*
X1039084D01*
X1040251Y1003496D02*
Y1004663D01*
X1042583Y1006412D02*
Y1008745D01*
X1042000Y1012244D02*
Y1009911D01*
X1039667Y1012244D01*
X1039084D01*
X1038501Y1011661D01*
Y1010494D01*
X1039084Y1009911D01*
X1272084Y1115333D02*
X1271501Y1114749D01*
Y1113583D01*
X1272084Y1113000D01*
X1274417D01*
X1275000Y1113583D01*
Y1114749D01*
X1274417Y1115333D01*
X1272084Y1116499D02*
X1271501Y1117082D01*
Y1118248D01*
X1272084Y1118831D01*
X1272667D01*
X1273251Y1118248D01*
Y1117665D01*
Y1118248D01*
X1273834Y1118831D01*
X1274417D01*
X1275000Y1118248D01*
Y1117082D01*
X1274417Y1116499D01*
X1275000Y1119998D02*
Y1121164D01*
Y1120581D01*
X1271501D01*
X1272084Y1119998D01*
X1275000Y1125246D02*
Y1122913D01*
X1272667Y1125246D01*
X1272084D01*
X1271501Y1124663D01*
Y1123497D01*
X1272084Y1122913D01*
X1275583Y1126412D02*
Y1128745D01*
X1275000Y1129911D02*
Y1131077D01*
Y1130494D01*
X1271501D01*
X1272084Y1129911D01*
X1247333Y1005916D02*
X1246749Y1006499D01*
X1245583D01*
X1245000Y1005916D01*
Y1003583D01*
X1245583Y1003000D01*
X1246749D01*
X1247333Y1003583D01*
X1250248Y1003000D02*
Y1006499D01*
X1248499Y1004749D01*
X1250831D01*
X1251998Y1003000D02*
X1253164D01*
X1252581D01*
Y1006499D01*
X1251998Y1005916D01*
X1257246Y1006499D02*
X1256080Y1005916D01*
X1254913Y1004749D01*
Y1003583D01*
X1255497Y1003000D01*
X1256663D01*
X1257246Y1003583D01*
Y1004166D01*
X1256663Y1004749D01*
X1254913D01*
X1213501Y1030000D02*
X1216417D01*
X1217000Y1030583D01*
Y1031749D01*
X1216417Y1032333D01*
X1213501D01*
X1217000Y1035248D02*
X1213501D01*
X1215251Y1033499D01*
Y1035831D01*
X1214084Y1036998D02*
X1213501Y1037581D01*
Y1038747D01*
X1214084Y1039330D01*
X1216417D01*
X1217000Y1038747D01*
Y1037581D01*
X1216417Y1036998D01*
X1214084D01*
X1217000Y1042829D02*
Y1040497D01*
X1214667Y1042829D01*
X1214084D01*
X1213501Y1042246D01*
Y1041080D01*
X1214084Y1040497D01*
X802334Y804666D02*
X799668D01*
X799001Y803999D01*
Y802666D01*
X799668Y802000D01*
X802334D01*
X803000Y802666D01*
Y803999D01*
X801667Y803333D02*
X803000Y804666D01*
Y803999D02*
X802334Y804666D01*
X803000Y807998D02*
X799001D01*
X801001Y805999D01*
Y808664D01*
X799668Y809997D02*
X799001Y810664D01*
Y811997D01*
X799668Y812663D01*
X802334D01*
X803000Y811997D01*
Y810664D01*
X802334Y809997D01*
X799668D01*
Y813996D02*
X799001Y814662D01*
Y815995D01*
X799668Y816662D01*
X802334D01*
X803000Y815995D01*
Y814662D01*
X802334Y813996D01*
X799668D01*
D98*
X1429002Y1176000D02*
X1434000D01*
X1435000Y1177000D01*
Y1178999D01*
X1434000Y1179999D01*
X1429002D01*
X1430002Y1181998D02*
X1429002Y1182998D01*
Y1184997D01*
X1430002Y1185997D01*
X1431001D01*
X1432001Y1184997D01*
Y1183997D01*
Y1184997D01*
X1433001Y1185997D01*
X1434000D01*
X1435000Y1184997D01*
Y1182998D01*
X1434000Y1181998D01*
X1430002Y1187996D02*
X1429002Y1188996D01*
Y1190995D01*
X1430002Y1191995D01*
X1434000D01*
X1435000Y1190995D01*
Y1188996D01*
X1434000Y1187996D01*
X1430002D01*
X1435000Y1197993D02*
Y1193994D01*
X1431001Y1197993D01*
X1430002D01*
X1429002Y1196993D01*
Y1194994D01*
X1430002Y1193994D01*
X1436000Y1199992D02*
Y1203991D01*
X1435000Y1205990D02*
Y1207990D01*
Y1206990D01*
X1429002D01*
X1430002Y1205990D01*
X885002Y1199000D02*
Y1202999D01*
Y1200999D01*
X891000D01*
Y1204998D02*
X885002D01*
Y1207997D01*
X886002Y1208997D01*
X888001D01*
X889001Y1207997D01*
Y1204998D01*
X891000Y1213995D02*
X885002D01*
X888001Y1210996D01*
Y1214995D01*
X886002Y1216994D02*
X885002Y1217994D01*
Y1219993D01*
X886002Y1220993D01*
X890000D01*
X891000Y1219993D01*
Y1217994D01*
X890000Y1216994D01*
X886002D01*
Y1222992D02*
X885002Y1223992D01*
Y1225991D01*
X886002Y1226991D01*
X890000D01*
X891000Y1225991D01*
Y1223992D01*
X890000Y1222992D01*
X886002D01*
X837000Y769000D02*
Y774998D01*
X839999D01*
X840999Y773998D01*
Y771999D01*
X839999Y770999D01*
X837000D01*
X838999D02*
X840999Y769000D01*
X846997D02*
X842998D01*
X846997Y772999D01*
Y773998D01*
X845997Y774998D01*
X843998D01*
X842998Y773998D01*
X848996D02*
X849996Y774998D01*
X851995D01*
X852995Y773998D01*
Y770000D01*
X851995Y769000D01*
X849996D01*
X848996Y770000D01*
Y773998D01*
X858993Y774998D02*
X856993Y773998D01*
X854994Y771999D01*
Y770000D01*
X855994Y769000D01*
X857993D01*
X858993Y770000D01*
Y770999D01*
X857993Y771999D01*
X854994D01*
X864002Y906999D02*
X863002Y905999D01*
Y904000D01*
X864002Y903000D01*
X868000D01*
X869000Y904000D01*
Y905999D01*
X868000Y906999D01*
X869000Y911997D02*
X863002D01*
X866001Y908998D01*
Y912997D01*
X869000Y914996D02*
Y916995D01*
Y915996D01*
X863002D01*
X864002Y914996D01*
Y919995D02*
X863002Y920994D01*
Y922993D01*
X864002Y923993D01*
X868000D01*
X869000Y922993D01*
Y920994D01*
X868000Y919995D01*
X864002D01*
X883999Y902998D02*
X882999Y903998D01*
X881000D01*
X880000Y902998D01*
Y899000D01*
X881000Y898000D01*
X882999D01*
X883999Y899000D01*
X888997Y898000D02*
Y903998D01*
X885998Y900999D01*
X889997D01*
X891996Y898000D02*
X893996D01*
X892996D01*
Y903998D01*
X891996Y902998D01*
X896994Y898000D02*
X898994D01*
X897994D01*
Y903998D01*
X896994Y902998D01*
X908002Y851999D02*
X907002Y850999D01*
Y849000D01*
X908002Y848000D01*
X912000D01*
X913000Y849000D01*
Y850999D01*
X912000Y851999D01*
X913000Y856997D02*
X907002D01*
X910001Y853998D01*
Y857997D01*
X913000Y859996D02*
Y861995D01*
Y860996D01*
X907002D01*
X908002Y859996D01*
X913000Y868993D02*
Y864995D01*
X909001Y868993D01*
X908002D01*
X907002Y867993D01*
Y865994D01*
X908002Y864995D01*
X985000Y1278998D02*
Y1274000D01*
X986000Y1273000D01*
X987999D01*
X988999Y1274000D01*
Y1278998D01*
X994997Y1273000D02*
X990998D01*
X994997Y1276999D01*
Y1277998D01*
X993997Y1278998D01*
X991998D01*
X990998Y1277998D01*
X996996D02*
X997996Y1278998D01*
X999995D01*
X1000995Y1277998D01*
Y1274000D01*
X999995Y1273000D01*
X997996D01*
X996996Y1274000D01*
Y1277998D01*
X1002994D02*
X1003994Y1278998D01*
X1005993D01*
X1006993Y1277998D01*
Y1274000D01*
X1005993Y1273000D01*
X1003994D01*
X1002994Y1274000D01*
Y1277998D01*
X900000Y1207998D02*
Y1203000D01*
X901000Y1202000D01*
X902999D01*
X903999Y1203000D01*
Y1207998D01*
X909997Y1202000D02*
X905998D01*
X909997Y1205999D01*
Y1206998D01*
X908997Y1207998D01*
X906998D01*
X905998Y1206998D01*
X911996D02*
X912996Y1207998D01*
X914995D01*
X915995Y1206998D01*
Y1203000D01*
X914995Y1202000D01*
X912996D01*
X911996Y1203000D01*
Y1206998D01*
X921993Y1202000D02*
X917994D01*
X921993Y1205999D01*
Y1206998D01*
X920993Y1207998D01*
X918994D01*
X917994Y1206998D01*
X1327000Y938998D02*
Y934000D01*
X1328000Y933000D01*
X1329999D01*
X1330999Y934000D01*
Y938998D01*
X1332998Y937998D02*
X1333998Y938998D01*
X1335997D01*
X1336997Y937998D01*
Y936999D01*
X1335997Y935999D01*
X1334997D01*
X1335997D01*
X1336997Y934999D01*
Y934000D01*
X1335997Y933000D01*
X1333998D01*
X1332998Y934000D01*
X1338996Y937998D02*
X1339996Y938998D01*
X1341995D01*
X1342995Y937998D01*
Y934000D01*
X1341995Y933000D01*
X1339996D01*
X1338996Y934000D01*
Y937998D01*
X1347993Y933000D02*
Y938998D01*
X1344994Y935999D01*
X1348993D01*
X1350992Y932000D02*
X1354991D01*
X1360989Y933000D02*
X1356990D01*
X1360989Y936999D01*
Y937998D01*
X1359989Y938998D01*
X1357990D01*
X1356990Y937998D01*
X1319000Y1083998D02*
Y1079000D01*
X1320000Y1078000D01*
X1321999D01*
X1322999Y1079000D01*
Y1083998D01*
X1324998Y1082998D02*
X1325998Y1083998D01*
X1327997D01*
X1328997Y1082998D01*
Y1081999D01*
X1327997Y1080999D01*
X1326997D01*
X1327997D01*
X1328997Y1079999D01*
Y1079000D01*
X1327997Y1078000D01*
X1325998D01*
X1324998Y1079000D01*
X1330996Y1082998D02*
X1331996Y1083998D01*
X1333995D01*
X1334995Y1082998D01*
Y1079000D01*
X1333995Y1078000D01*
X1331996D01*
X1330996Y1079000D01*
Y1082998D01*
X1339993Y1078000D02*
Y1083998D01*
X1336994Y1080999D01*
X1340993D01*
X1342992Y1077000D02*
X1346991D01*
X1348990Y1078000D02*
X1350990D01*
X1349990D01*
Y1083998D01*
X1348990Y1082998D01*
X1377000Y939998D02*
Y935000D01*
X1378000Y934000D01*
X1379999D01*
X1380999Y935000D01*
Y939998D01*
X1382998Y938998D02*
X1383998Y939998D01*
X1385997D01*
X1386997Y938998D01*
Y937999D01*
X1385997Y936999D01*
X1384997D01*
X1385997D01*
X1386997Y935999D01*
Y935000D01*
X1385997Y934000D01*
X1383998D01*
X1382998Y935000D01*
X1388996Y938998D02*
X1389996Y939998D01*
X1391995D01*
X1392995Y938998D01*
Y935000D01*
X1391995Y934000D01*
X1389996D01*
X1388996Y935000D01*
Y938998D01*
X1394994D02*
X1395994Y939998D01*
X1397993D01*
X1398993Y938998D01*
Y937999D01*
X1397993Y936999D01*
X1396994D01*
X1397993D01*
X1398993Y935999D01*
Y935000D01*
X1397993Y934000D01*
X1395994D01*
X1394994Y935000D01*
X1400992Y933000D02*
X1404991D01*
X1410989Y934000D02*
X1406990D01*
X1410989Y937999D01*
Y938998D01*
X1409989Y939998D01*
X1407990D01*
X1406990Y938998D01*
X1389000Y1097998D02*
Y1093000D01*
X1390000Y1092000D01*
X1391999D01*
X1392999Y1093000D01*
Y1097998D01*
X1394998Y1096998D02*
X1395998Y1097998D01*
X1397997D01*
X1398997Y1096998D01*
Y1095999D01*
X1397997Y1094999D01*
X1396997D01*
X1397997D01*
X1398997Y1093999D01*
Y1093000D01*
X1397997Y1092000D01*
X1395998D01*
X1394998Y1093000D01*
X1400996Y1096998D02*
X1401996Y1097998D01*
X1403995D01*
X1404995Y1096998D01*
Y1093000D01*
X1403995Y1092000D01*
X1401996D01*
X1400996Y1093000D01*
Y1096998D01*
X1406994D02*
X1407994Y1097998D01*
X1409993D01*
X1410993Y1096998D01*
Y1095999D01*
X1409993Y1094999D01*
X1408994D01*
X1409993D01*
X1410993Y1093999D01*
Y1093000D01*
X1409993Y1092000D01*
X1407994D01*
X1406994Y1093000D01*
X1412992Y1091000D02*
X1416991D01*
X1418990Y1092000D02*
X1420990D01*
X1419990D01*
Y1097998D01*
X1418990Y1096998D01*
X865000Y778998D02*
Y773000D01*
X868999D01*
X873997D02*
Y778998D01*
X870998Y775999D01*
X874997D01*
X876996Y777998D02*
X877996Y778998D01*
X879995D01*
X880995Y777998D01*
Y774000D01*
X879995Y773000D01*
X877996D01*
X876996Y774000D01*
Y777998D01*
X886993Y773000D02*
X882994D01*
X886993Y776999D01*
Y777998D01*
X885993Y778998D01*
X883994D01*
X882994Y777998D01*
X767000Y890998D02*
Y885000D01*
X770999D01*
X775997D02*
Y890998D01*
X772998Y887999D01*
X776997D01*
X778996Y889998D02*
X779996Y890998D01*
X781995D01*
X782995Y889998D01*
Y886000D01*
X781995Y885000D01*
X779996D01*
X778996Y886000D01*
Y889998D01*
X784994Y885000D02*
X786993D01*
X785994D01*
Y890998D01*
X784994Y889998D01*
X867000Y818998D02*
Y813000D01*
X869999D01*
X870999Y814000D01*
Y817998D01*
X869999Y818998D01*
X867000D01*
X875997Y813000D02*
Y818998D01*
X872998Y815999D01*
X876997D01*
X878996Y817998D02*
X879996Y818998D01*
X881995D01*
X882995Y817998D01*
Y814000D01*
X881995Y813000D01*
X879996D01*
X878996Y814000D01*
Y817998D01*
X884994Y813000D02*
X886993D01*
X885994D01*
Y818998D01*
X884994Y817998D01*
X811002Y866000D02*
X817000D01*
Y868999D01*
X816000Y869999D01*
X812002D01*
X811002Y868999D01*
Y866000D01*
X817000Y874997D02*
X811002D01*
X814001Y871998D01*
Y875997D01*
X812002Y877996D02*
X811002Y878996D01*
Y880995D01*
X812002Y881995D01*
X816000D01*
X817000Y880995D01*
Y878996D01*
X816000Y877996D01*
X812002D01*
Y883994D02*
X811002Y884994D01*
Y886993D01*
X812002Y887993D01*
X816000D01*
X817000Y886993D01*
Y884994D01*
X816000Y883994D01*
X812002D01*
X792002Y938999D02*
X791002Y937999D01*
Y936000D01*
X792002Y935000D01*
X796000D01*
X797000Y936000D01*
Y937999D01*
X796000Y938999D01*
X797000Y943997D02*
X791002D01*
X794001Y940998D01*
Y944997D01*
X797000Y946996D02*
Y948996D01*
Y947996D01*
X791002D01*
X792002Y946996D01*
X791002Y955993D02*
Y951994D01*
X794001D01*
X793001Y953994D01*
Y954994D01*
X794001Y955993D01*
X796000D01*
X797000Y954994D01*
Y952994D01*
X796000Y951994D01*
X1216002Y909999D02*
X1215002Y908999D01*
Y907000D01*
X1216002Y906000D01*
X1220000D01*
X1221000Y907000D01*
Y908999D01*
X1220000Y909999D01*
X1216002Y911998D02*
X1215002Y912998D01*
Y914997D01*
X1216002Y915997D01*
X1217001D01*
X1218001Y914997D01*
Y913997D01*
Y914997D01*
X1219001Y915997D01*
X1220000D01*
X1221000Y914997D01*
Y912998D01*
X1220000Y911998D01*
X1216002Y917996D02*
X1215002Y918996D01*
Y920995D01*
X1216002Y921995D01*
X1220000D01*
X1221000Y920995D01*
Y918996D01*
X1220000Y917996D01*
X1216002D01*
Y923994D02*
X1215002Y924994D01*
Y926993D01*
X1216002Y927993D01*
X1217001D01*
X1218001Y926993D01*
X1219001Y927993D01*
X1220000D01*
X1221000Y926993D01*
Y924994D01*
X1220000Y923994D01*
X1219001D01*
X1218001Y924994D01*
X1217001Y923994D01*
X1216002D01*
X1218001Y924994D02*
Y926993D01*
X1222000Y929992D02*
Y933991D01*
X1221000Y939989D02*
Y935990D01*
X1217001Y939989D01*
X1216002D01*
X1215002Y938989D01*
Y936990D01*
X1216002Y935990D01*
X1240002Y1162999D02*
X1239002Y1161999D01*
Y1160000D01*
X1240002Y1159000D01*
X1244000D01*
X1245000Y1160000D01*
Y1161999D01*
X1244000Y1162999D01*
X1240002Y1164998D02*
X1239002Y1165998D01*
Y1167997D01*
X1240002Y1168997D01*
X1241001D01*
X1242001Y1167997D01*
Y1166997D01*
Y1167997D01*
X1243001Y1168997D01*
X1244000D01*
X1245000Y1167997D01*
Y1165998D01*
X1244000Y1164998D01*
X1240002Y1170996D02*
X1239002Y1171996D01*
Y1173995D01*
X1240002Y1174995D01*
X1244000D01*
X1245000Y1173995D01*
Y1171996D01*
X1244000Y1170996D01*
X1240002D01*
Y1176994D02*
X1239002Y1177994D01*
Y1179993D01*
X1240002Y1180993D01*
X1241001D01*
X1242001Y1179993D01*
X1243001Y1180993D01*
X1244000D01*
X1245000Y1179993D01*
Y1177994D01*
X1244000Y1176994D01*
X1243001D01*
X1242001Y1177994D01*
X1241001Y1176994D01*
X1240002D01*
X1242001Y1177994D02*
Y1179993D01*
X1246000Y1182992D02*
Y1186991D01*
X1245000Y1188990D02*
Y1190990D01*
Y1189990D01*
X1239002D01*
X1240002Y1188990D01*
X1225002Y909999D02*
X1224002Y908999D01*
Y907000D01*
X1225002Y906000D01*
X1229000D01*
X1230000Y907000D01*
Y908999D01*
X1229000Y909999D01*
X1225002Y911998D02*
X1224002Y912998D01*
Y914997D01*
X1225002Y915997D01*
X1226001D01*
X1227001Y914997D01*
Y913997D01*
Y914997D01*
X1228001Y915997D01*
X1229000D01*
X1230000Y914997D01*
Y912998D01*
X1229000Y911998D01*
X1225002Y917996D02*
X1224002Y918996D01*
Y920995D01*
X1225002Y921995D01*
X1229000D01*
X1230000Y920995D01*
Y918996D01*
X1229000Y917996D01*
X1225002D01*
X1229000Y923994D02*
X1230000Y924994D01*
Y926993D01*
X1229000Y927993D01*
X1225002D01*
X1224002Y926993D01*
Y924994D01*
X1225002Y923994D01*
X1226001D01*
X1227001Y924994D01*
Y927993D01*
X1231000Y929992D02*
Y933991D01*
X1230000Y939989D02*
Y935990D01*
X1226001Y939989D01*
X1225002D01*
X1224002Y938989D01*
Y936990D01*
X1225002Y935990D01*
X1260002Y1161999D02*
X1259002Y1160999D01*
Y1159000D01*
X1260002Y1158000D01*
X1264000D01*
X1265000Y1159000D01*
Y1160999D01*
X1264000Y1161999D01*
X1260002Y1163998D02*
X1259002Y1164998D01*
Y1166997D01*
X1260002Y1167997D01*
X1261001D01*
X1262001Y1166997D01*
Y1165997D01*
Y1166997D01*
X1263001Y1167997D01*
X1264000D01*
X1265000Y1166997D01*
Y1164998D01*
X1264000Y1163998D01*
X1260002Y1169996D02*
X1259002Y1170996D01*
Y1172995D01*
X1260002Y1173995D01*
X1264000D01*
X1265000Y1172995D01*
Y1170996D01*
X1264000Y1169996D01*
X1260002D01*
X1264000Y1175994D02*
X1265000Y1176994D01*
Y1178993D01*
X1264000Y1179993D01*
X1260002D01*
X1259002Y1178993D01*
Y1176994D01*
X1260002Y1175994D01*
X1261001D01*
X1262001Y1176994D01*
Y1179993D01*
X1266000Y1181992D02*
Y1185991D01*
X1265000Y1187990D02*
Y1189990D01*
Y1188990D01*
X1259002D01*
X1260002Y1187990D01*
X1313999Y921998D02*
X1312999Y922998D01*
X1311000D01*
X1310000Y921998D01*
Y918000D01*
X1311000Y917000D01*
X1312999D01*
X1313999Y918000D01*
X1315998Y921998D02*
X1316998Y922998D01*
X1318997D01*
X1319997Y921998D01*
Y920999D01*
X1318997Y919999D01*
X1317997D01*
X1318997D01*
X1319997Y918999D01*
Y918000D01*
X1318997Y917000D01*
X1316998D01*
X1315998Y918000D01*
X1321996Y921998D02*
X1322996Y922998D01*
X1324995D01*
X1325995Y921998D01*
Y918000D01*
X1324995Y917000D01*
X1322996D01*
X1321996Y918000D01*
Y921998D01*
X1331993Y922998D02*
X1329993Y921998D01*
X1327994Y919999D01*
Y918000D01*
X1328994Y917000D01*
X1330993D01*
X1331993Y918000D01*
Y918999D01*
X1330993Y919999D01*
X1327994D01*
X1333992Y916000D02*
X1337991D01*
X1343989Y917000D02*
X1339990D01*
X1343989Y920999D01*
Y921998D01*
X1342989Y922998D01*
X1340990D01*
X1339990Y921998D01*
X1329999Y1139998D02*
X1328999Y1140998D01*
X1327000D01*
X1326000Y1139998D01*
Y1136000D01*
X1327000Y1135000D01*
X1328999D01*
X1329999Y1136000D01*
X1331998Y1139998D02*
X1332998Y1140998D01*
X1334997D01*
X1335997Y1139998D01*
Y1138999D01*
X1334997Y1137999D01*
X1333997D01*
X1334997D01*
X1335997Y1136999D01*
Y1136000D01*
X1334997Y1135000D01*
X1332998D01*
X1331998Y1136000D01*
X1337996Y1139998D02*
X1338996Y1140998D01*
X1340995D01*
X1341995Y1139998D01*
Y1136000D01*
X1340995Y1135000D01*
X1338996D01*
X1337996Y1136000D01*
Y1139998D01*
X1343994Y1140998D02*
X1347993D01*
Y1139998D01*
X1343994Y1136000D01*
Y1135000D01*
X1349992Y1134000D02*
X1353991D01*
X1355990Y1135000D02*
X1357990D01*
X1356990D01*
Y1140998D01*
X1355990Y1139998D01*
X1354002Y1186499D02*
X1353002Y1185499D01*
Y1183500D01*
X1354002Y1182500D01*
X1358000D01*
X1359000Y1183500D01*
Y1185499D01*
X1358000Y1186499D01*
X1354002Y1188498D02*
X1353002Y1189498D01*
Y1191497D01*
X1354002Y1192497D01*
X1355001D01*
X1356001Y1191497D01*
Y1190497D01*
Y1191497D01*
X1357001Y1192497D01*
X1358000D01*
X1359000Y1191497D01*
Y1189498D01*
X1358000Y1188498D01*
X1354002Y1194496D02*
X1353002Y1195496D01*
Y1197495D01*
X1354002Y1198495D01*
X1358000D01*
X1359000Y1197495D01*
Y1195496D01*
X1358000Y1194496D01*
X1354002D01*
X1359000Y1203493D02*
X1353002D01*
X1356001Y1200494D01*
Y1204493D01*
X1360000Y1206492D02*
Y1210491D01*
X1359000Y1212490D02*
Y1214490D01*
Y1213490D01*
X1353002D01*
X1354002Y1212490D01*
X1366999Y928998D02*
X1365999Y929998D01*
X1364000D01*
X1363000Y928998D01*
Y925000D01*
X1364000Y924000D01*
X1365999D01*
X1366999Y925000D01*
X1368998Y928998D02*
X1369998Y929998D01*
X1371997D01*
X1372997Y928998D01*
Y927999D01*
X1371997Y926999D01*
X1370997D01*
X1371997D01*
X1372997Y925999D01*
Y925000D01*
X1371997Y924000D01*
X1369998D01*
X1368998Y925000D01*
X1374996Y928998D02*
X1375996Y929998D01*
X1377995D01*
X1378995Y928998D01*
Y925000D01*
X1377995Y924000D01*
X1375996D01*
X1374996Y925000D01*
Y928998D01*
X1384993Y929998D02*
X1380994D01*
Y926999D01*
X1382993Y927999D01*
X1383993D01*
X1384993Y926999D01*
Y925000D01*
X1383993Y924000D01*
X1381994D01*
X1380994Y925000D01*
X1386992Y923000D02*
X1390991D01*
X1396989Y924000D02*
X1392990D01*
X1396989Y927999D01*
Y928998D01*
X1395989Y929998D01*
X1393990D01*
X1392990Y928998D01*
X960000Y1220000D02*
Y1225998D01*
X962999D01*
X963999Y1224998D01*
Y1222999D01*
X962999Y1221999D01*
X960000D01*
X961999D02*
X963999Y1220000D01*
X969997D02*
X965998D01*
X969997Y1223999D01*
Y1224998D01*
X968997Y1225998D01*
X966998D01*
X965998Y1224998D01*
X971996D02*
X972996Y1225998D01*
X974995D01*
X975995Y1224998D01*
Y1221000D01*
X974995Y1220000D01*
X972996D01*
X971996Y1221000D01*
Y1224998D01*
X977994Y1220000D02*
X979994D01*
X978994D01*
Y1225998D01*
X977994Y1224998D01*
X960000Y1211000D02*
Y1216998D01*
X962999D01*
X963999Y1215998D01*
Y1213999D01*
X962999Y1212999D01*
X960000D01*
X961999D02*
X963999Y1211000D01*
X969997D02*
X965998D01*
X969997Y1214999D01*
Y1215998D01*
X968997Y1216998D01*
X966998D01*
X965998Y1215998D01*
X971996D02*
X972996Y1216998D01*
X974995D01*
X975995Y1215998D01*
Y1212000D01*
X974995Y1211000D01*
X972996D01*
X971996Y1212000D01*
Y1215998D01*
X981993Y1211000D02*
X977994D01*
X981993Y1214999D01*
Y1215998D01*
X980993Y1216998D01*
X978994D01*
X977994Y1215998D01*
X960000Y1231000D02*
Y1236998D01*
X962999D01*
X963999Y1235998D01*
Y1233999D01*
X962999Y1232999D01*
X960000D01*
X961999D02*
X963999Y1231000D01*
X969997D02*
X965998D01*
X969997Y1234999D01*
Y1235998D01*
X968997Y1236998D01*
X966998D01*
X965998Y1235998D01*
X971996D02*
X972996Y1236998D01*
X974995D01*
X975995Y1235998D01*
Y1232000D01*
X974995Y1231000D01*
X972996D01*
X971996Y1232000D01*
Y1235998D01*
X981993Y1236998D02*
X977994D01*
Y1233999D01*
X979994Y1234999D01*
X980993D01*
X981993Y1233999D01*
Y1232000D01*
X980993Y1231000D01*
X978994D01*
X977994Y1232000D01*
X931002Y1163999D02*
X930002Y1162999D01*
Y1161000D01*
X931002Y1160000D01*
X932001D01*
X933001Y1161000D01*
Y1162999D01*
X934001Y1163999D01*
X935000D01*
X936000Y1162999D01*
Y1161000D01*
X935000Y1160000D01*
X930002Y1165998D02*
X936000D01*
X934001Y1167997D01*
X936000Y1169997D01*
X930002D01*
X936000Y1175995D02*
Y1171996D01*
X932001Y1175995D01*
X931002D01*
X930002Y1174995D01*
Y1172996D01*
X931002Y1171996D01*
Y1177994D02*
X930002Y1178994D01*
Y1180993D01*
X931002Y1181993D01*
X935000D01*
X936000Y1180993D01*
Y1178994D01*
X935000Y1177994D01*
X931002D01*
Y1183992D02*
X930002Y1184992D01*
Y1186991D01*
X931002Y1187991D01*
X935000D01*
X936000Y1186991D01*
Y1184992D01*
X935000Y1183992D01*
X931002D01*
X930002Y785999D02*
X929002Y784999D01*
Y783000D01*
X930002Y782000D01*
X934000D01*
X935000Y783000D01*
Y784999D01*
X934000Y785999D01*
X935000Y790997D02*
X929002D01*
X932001Y787998D01*
Y791997D01*
X935000Y793996D02*
Y795995D01*
Y794996D01*
X929002D01*
X930002Y793996D01*
X935000Y801993D02*
X929002D01*
X932001Y798995D01*
Y802993D01*
X1212000Y1102000D02*
X1206002D01*
Y1104999D01*
X1207002Y1105999D01*
X1209001D01*
X1210001Y1104999D01*
Y1102000D01*
Y1103999D02*
X1212000Y1105999D01*
X1207002Y1107998D02*
X1206002Y1108998D01*
Y1110997D01*
X1207002Y1111997D01*
X1208001D01*
X1209001Y1110997D01*
Y1109997D01*
Y1110997D01*
X1210001Y1111997D01*
X1211000D01*
X1212000Y1110997D01*
Y1108998D01*
X1211000Y1107998D01*
X1212000Y1113996D02*
Y1115995D01*
Y1114996D01*
X1206002D01*
X1207002Y1113996D01*
X1206002Y1118995D02*
Y1122993D01*
X1207002D01*
X1211000Y1118995D01*
X1212000D01*
X1213000Y1124993D02*
Y1128991D01*
X1212000Y1130991D02*
Y1132990D01*
Y1131990D01*
X1206002D01*
X1207002Y1130991D01*
X1581999Y1247998D02*
X1580999Y1248998D01*
X1579000D01*
X1578000Y1247998D01*
Y1246999D01*
X1579000Y1245999D01*
X1580999D01*
X1581999Y1244999D01*
Y1244000D01*
X1580999Y1243000D01*
X1579000D01*
X1578000Y1244000D01*
X1583998Y1243000D02*
X1585997D01*
X1584998D01*
Y1248998D01*
X1583998Y1247998D01*
X831000Y804998D02*
X834999D01*
X832999D01*
Y799000D01*
X836998D02*
Y804998D01*
X839997D01*
X840997Y803998D01*
Y801999D01*
X839997Y800999D01*
X836998D01*
X845995Y799000D02*
Y804998D01*
X842996Y801999D01*
X846995D01*
X848994Y803998D02*
X849994Y804998D01*
X851993D01*
X852993Y803998D01*
Y800000D01*
X851993Y799000D01*
X849994D01*
X848994Y800000D01*
Y803998D01*
X854992Y799000D02*
X856992D01*
X855992D01*
Y804998D01*
X854992Y803998D01*
X1388000Y1118998D02*
X1391999D01*
X1389999D01*
Y1113000D01*
X1393998D02*
Y1118998D01*
X1396997D01*
X1397997Y1117998D01*
Y1115999D01*
X1396997Y1114999D01*
X1393998D01*
X1399996Y1117998D02*
X1400996Y1118998D01*
X1402995D01*
X1403995Y1117998D01*
Y1116999D01*
X1402995Y1115999D01*
X1401996D01*
X1402995D01*
X1403995Y1114999D01*
Y1114000D01*
X1402995Y1113000D01*
X1400996D01*
X1399996Y1114000D01*
X1405994Y1117998D02*
X1406994Y1118998D01*
X1408993D01*
X1409993Y1117998D01*
Y1114000D01*
X1408993Y1113000D01*
X1406994D01*
X1405994Y1114000D01*
Y1117998D01*
X1415991Y1113000D02*
X1411992D01*
X1415991Y1116999D01*
Y1117998D01*
X1414991Y1118998D01*
X1412992D01*
X1411992Y1117998D01*
X1417990Y1112000D02*
X1421989D01*
X1423988Y1113000D02*
X1425988D01*
X1424988D01*
Y1118998D01*
X1423988Y1117998D01*
X1338000Y900998D02*
X1341999D01*
X1339999D01*
Y895000D01*
X1343998D02*
Y900998D01*
X1346997D01*
X1347997Y899998D01*
Y897999D01*
X1346997Y896999D01*
X1343998D01*
X1349996Y899998D02*
X1350996Y900998D01*
X1352995D01*
X1353995Y899998D01*
Y898999D01*
X1352995Y897999D01*
X1351996D01*
X1352995D01*
X1353995Y896999D01*
Y896000D01*
X1352995Y895000D01*
X1350996D01*
X1349996Y896000D01*
X1355994Y899998D02*
X1356994Y900998D01*
X1358993D01*
X1359993Y899998D01*
Y896000D01*
X1358993Y895000D01*
X1356994D01*
X1355994Y896000D01*
Y899998D01*
X1365991Y895000D02*
X1361992D01*
X1365991Y898999D01*
Y899998D01*
X1364991Y900998D01*
X1362992D01*
X1361992Y899998D01*
X1367990Y894000D02*
X1371989D01*
X1377987Y895000D02*
X1373988D01*
X1377987Y898999D01*
Y899998D01*
X1376987Y900998D01*
X1374988D01*
X1373988Y899998D01*
X1365002Y1181000D02*
Y1184999D01*
Y1182999D01*
X1371000D01*
Y1186998D02*
X1365002D01*
Y1189997D01*
X1366002Y1190997D01*
X1368001D01*
X1369001Y1189997D01*
Y1186998D01*
X1366002Y1192996D02*
X1365002Y1193996D01*
Y1195995D01*
X1366002Y1196995D01*
X1367001D01*
X1368001Y1195995D01*
Y1194995D01*
Y1195995D01*
X1369001Y1196995D01*
X1370000D01*
X1371000Y1195995D01*
Y1193996D01*
X1370000Y1192996D01*
X1366002Y1198994D02*
X1365002Y1199994D01*
Y1201993D01*
X1366002Y1202993D01*
X1370000D01*
X1371000Y1201993D01*
Y1199994D01*
X1370000Y1198994D01*
X1366002D01*
X1365002Y1208991D02*
Y1204992D01*
X1368001D01*
X1367001Y1206992D01*
Y1207991D01*
X1368001Y1208991D01*
X1370000D01*
X1371000Y1207991D01*
Y1205992D01*
X1370000Y1204992D01*
X1372000Y1210990D02*
Y1214989D01*
X1371000Y1216988D02*
Y1218988D01*
Y1217988D01*
X1365002D01*
X1366002Y1216988D01*
X1351000Y851998D02*
X1354999D01*
X1352999D01*
Y846000D01*
X1356998D02*
Y851998D01*
X1359997D01*
X1360997Y850998D01*
Y848999D01*
X1359997Y847999D01*
X1356998D01*
X1362996Y850998D02*
X1363996Y851998D01*
X1365995D01*
X1366995Y850998D01*
Y849999D01*
X1365995Y848999D01*
X1364996D01*
X1365995D01*
X1366995Y847999D01*
Y847000D01*
X1365995Y846000D01*
X1363996D01*
X1362996Y847000D01*
X1368994Y850998D02*
X1369994Y851998D01*
X1371993D01*
X1372993Y850998D01*
Y847000D01*
X1371993Y846000D01*
X1369994D01*
X1368994Y847000D01*
Y850998D01*
X1378991Y851998D02*
X1374992D01*
Y848999D01*
X1376992Y849999D01*
X1377991D01*
X1378991Y848999D01*
Y847000D01*
X1377991Y846000D01*
X1375992D01*
X1374992Y847000D01*
X1380990Y845000D02*
X1384989D01*
X1390987Y846000D02*
X1386988D01*
X1390987Y849999D01*
Y850998D01*
X1389987Y851998D01*
X1387988D01*
X1386988Y850998D01*
X1276002Y1147000D02*
Y1150999D01*
Y1148999D01*
X1282000D01*
Y1152998D02*
X1276002D01*
Y1155997D01*
X1277002Y1156997D01*
X1279001D01*
X1280001Y1155997D01*
Y1152998D01*
X1277002Y1158996D02*
X1276002Y1159996D01*
Y1161995D01*
X1277002Y1162995D01*
X1278001D01*
X1279001Y1161995D01*
Y1160995D01*
Y1161995D01*
X1280001Y1162995D01*
X1281000D01*
X1282000Y1161995D01*
Y1159996D01*
X1281000Y1158996D01*
X1277002Y1164994D02*
X1276002Y1165994D01*
Y1167993D01*
X1277002Y1168993D01*
X1281000D01*
X1282000Y1167993D01*
Y1165994D01*
X1281000Y1164994D01*
X1277002D01*
X1276002Y1174991D02*
X1277002Y1172992D01*
X1279001Y1170992D01*
X1281000D01*
X1282000Y1171992D01*
Y1173991D01*
X1281000Y1174991D01*
X1280001D01*
X1279001Y1173991D01*
Y1170992D01*
X1283000Y1176990D02*
Y1180989D01*
X1282000Y1182988D02*
Y1184988D01*
Y1183988D01*
X1276002D01*
X1277002Y1182988D01*
X1274002Y889000D02*
Y892999D01*
Y890999D01*
X1280000D01*
Y894998D02*
X1274002D01*
Y897997D01*
X1275002Y898997D01*
X1277001D01*
X1278001Y897997D01*
Y894998D01*
X1275002Y900996D02*
X1274002Y901996D01*
Y903995D01*
X1275002Y904995D01*
X1276001D01*
X1277001Y903995D01*
Y902996D01*
Y903995D01*
X1278001Y904995D01*
X1279000D01*
X1280000Y903995D01*
Y901996D01*
X1279000Y900996D01*
X1275002Y906994D02*
X1274002Y907994D01*
Y909993D01*
X1275002Y910993D01*
X1279000D01*
X1280000Y909993D01*
Y907994D01*
X1279000Y906994D01*
X1275002D01*
X1274002Y916991D02*
X1275002Y914992D01*
X1277001Y912992D01*
X1279000D01*
X1280000Y913992D01*
Y915991D01*
X1279000Y916991D01*
X1278001D01*
X1277001Y915991D01*
Y912992D01*
X1281000Y918990D02*
Y922989D01*
X1280000Y928987D02*
Y924988D01*
X1276001Y928987D01*
X1275002D01*
X1274002Y927987D01*
Y925988D01*
X1275002Y924988D01*
X1243000Y1068998D02*
X1246999D01*
X1244999D01*
Y1063000D01*
X1248998D02*
Y1068998D01*
X1251997D01*
X1252997Y1067998D01*
Y1065999D01*
X1251997Y1064999D01*
X1248998D01*
X1254996Y1067998D02*
X1255996Y1068998D01*
X1257995D01*
X1258995Y1067998D01*
Y1066999D01*
X1257995Y1065999D01*
X1256995D01*
X1257995D01*
X1258995Y1064999D01*
Y1064000D01*
X1257995Y1063000D01*
X1255996D01*
X1254996Y1064000D01*
X1260994Y1067998D02*
X1261994Y1068998D01*
X1263993D01*
X1264993Y1067998D01*
Y1064000D01*
X1263993Y1063000D01*
X1261994D01*
X1260994Y1064000D01*
Y1067998D01*
X1266992D02*
X1267992Y1068998D01*
X1269991D01*
X1270991Y1067998D01*
Y1066999D01*
X1269991Y1065999D01*
X1270991Y1064999D01*
Y1064000D01*
X1269991Y1063000D01*
X1267992D01*
X1266992Y1064000D01*
Y1064999D01*
X1267992Y1065999D01*
X1266992Y1066999D01*
Y1067998D01*
X1267992Y1065999D02*
X1269991D01*
X1272990Y1062000D02*
X1276989D01*
X1278988Y1063000D02*
X1280988D01*
X1279988D01*
Y1068998D01*
X1278988Y1067998D01*
X1272000Y999998D02*
X1275999D01*
X1273999D01*
Y994000D01*
X1277998D02*
Y999998D01*
X1280997D01*
X1281997Y998998D01*
Y996999D01*
X1280997Y995999D01*
X1277998D01*
X1283996Y998998D02*
X1284996Y999998D01*
X1286995D01*
X1287995Y998998D01*
Y997999D01*
X1286995Y996999D01*
X1285995D01*
X1286995D01*
X1287995Y995999D01*
Y995000D01*
X1286995Y994000D01*
X1284996D01*
X1283996Y995000D01*
X1289994Y998998D02*
X1290994Y999998D01*
X1292993D01*
X1293993Y998998D01*
Y995000D01*
X1292993Y994000D01*
X1290994D01*
X1289994Y995000D01*
Y998998D01*
X1295992D02*
X1296992Y999998D01*
X1298991D01*
X1299991Y998998D01*
Y997999D01*
X1298991Y996999D01*
X1299991Y995999D01*
Y995000D01*
X1298991Y994000D01*
X1296992D01*
X1295992Y995000D01*
Y995999D01*
X1296992Y996999D01*
X1295992Y997999D01*
Y998998D01*
X1296992Y996999D02*
X1298991D01*
X1301990Y993000D02*
X1305989D01*
X1311987Y994000D02*
X1307988D01*
X1311987Y997999D01*
Y998998D01*
X1310987Y999998D01*
X1308988D01*
X1307988Y998998D01*
X1444002Y1144000D02*
Y1147999D01*
Y1145999D01*
X1450000D01*
Y1149998D02*
X1444002D01*
Y1152997D01*
X1445002Y1153997D01*
X1447001D01*
X1448001Y1152997D01*
Y1149998D01*
X1444002Y1159995D02*
Y1155996D01*
X1447001D01*
X1446001Y1157996D01*
Y1158995D01*
X1447001Y1159995D01*
X1449000D01*
X1450000Y1158995D01*
Y1156996D01*
X1449000Y1155996D01*
X1445002Y1161994D02*
X1444002Y1162994D01*
Y1164993D01*
X1445002Y1165993D01*
X1449000D01*
X1450000Y1164993D01*
Y1162994D01*
X1449000Y1161994D01*
X1445002D01*
Y1167992D02*
X1444002Y1168992D01*
Y1170991D01*
X1445002Y1171991D01*
X1449000D01*
X1450000Y1170991D01*
Y1168992D01*
X1449000Y1167992D01*
X1445002D01*
X1451000Y1173990D02*
Y1177989D01*
X1450000Y1179988D02*
Y1181988D01*
Y1180988D01*
X1444002D01*
X1445002Y1179988D01*
X1444000Y851998D02*
X1447999D01*
X1445999D01*
Y846000D01*
X1449998D02*
Y851998D01*
X1452997D01*
X1453997Y850998D01*
Y848999D01*
X1452997Y847999D01*
X1449998D01*
X1459995Y851998D02*
X1455996D01*
Y848999D01*
X1457995Y849999D01*
X1458995D01*
X1459995Y848999D01*
Y847000D01*
X1458995Y846000D01*
X1456996D01*
X1455996Y847000D01*
X1461994Y850998D02*
X1462994Y851998D01*
X1464993D01*
X1465993Y850998D01*
Y847000D01*
X1464993Y846000D01*
X1462994D01*
X1461994Y847000D01*
Y850998D01*
X1467992D02*
X1468992Y851998D01*
X1470991D01*
X1471991Y850998D01*
Y847000D01*
X1470991Y846000D01*
X1468992D01*
X1467992Y847000D01*
Y850998D01*
X1473990Y845000D02*
X1477989D01*
X1483987Y846000D02*
X1479988D01*
X1483987Y849999D01*
Y850998D01*
X1482987Y851998D01*
X1480988D01*
X1479988Y850998D01*
X1429000Y1218998D02*
X1432999D01*
X1430999D01*
Y1213000D01*
X1434998D02*
Y1218998D01*
X1437997D01*
X1438997Y1217998D01*
Y1215999D01*
X1437997Y1214999D01*
X1434998D01*
X1444995Y1218998D02*
X1440996D01*
Y1215999D01*
X1442995Y1216999D01*
X1443995D01*
X1444995Y1215999D01*
Y1214000D01*
X1443995Y1213000D01*
X1441996D01*
X1440996Y1214000D01*
X1446994Y1217998D02*
X1447994Y1218998D01*
X1449993D01*
X1450993Y1217998D01*
Y1214000D01*
X1449993Y1213000D01*
X1447994D01*
X1446994Y1214000D01*
Y1217998D01*
X1452992Y1213000D02*
X1454992D01*
X1453992D01*
Y1218998D01*
X1452992Y1217998D01*
X1457991Y1212000D02*
X1461989D01*
X1463989Y1213000D02*
X1465988D01*
X1464988D01*
Y1218998D01*
X1463989Y1217998D01*
X825000Y1245000D02*
Y1250998D01*
X827999D01*
X828999Y1249998D01*
Y1247999D01*
X827999Y1246999D01*
X825000D01*
X826999D02*
X828999Y1245000D01*
X833997D02*
Y1250998D01*
X830998Y1247999D01*
X834997D01*
X836996Y1249998D02*
X837996Y1250998D01*
X839995D01*
X840995Y1249998D01*
Y1246000D01*
X839995Y1245000D01*
X837996D01*
X836996Y1246000D01*
Y1249998D01*
X842994Y1245000D02*
X844994D01*
X843994D01*
Y1250998D01*
X842994Y1249998D01*
X885999Y1300998D02*
X884999Y1301998D01*
X883000D01*
X882000Y1300998D01*
Y1299999D01*
X883000Y1298999D01*
X884999D01*
X885999Y1297999D01*
Y1297000D01*
X884999Y1296000D01*
X883000D01*
X882000Y1297000D01*
X887998Y1301998D02*
Y1296000D01*
X889997Y1297999D01*
X891997Y1296000D01*
Y1301998D01*
X897995Y1296000D02*
X893996D01*
X897995Y1299999D01*
Y1300998D01*
X896995Y1301998D01*
X894996D01*
X893996Y1300998D01*
X899994D02*
X900994Y1301998D01*
X902993D01*
X903993Y1300998D01*
Y1297000D01*
X902993Y1296000D01*
X900994D01*
X899994Y1297000D01*
Y1300998D01*
X905992Y1296000D02*
X907992D01*
X906992D01*
Y1301998D01*
X905992Y1300998D01*
X941070Y769620D02*
Y771619D01*
Y770620D01*
X935072D01*
X936072Y769620D01*
X941070Y814259D02*
Y810260D01*
X937071Y814259D01*
X936072D01*
X935072Y813259D01*
Y811260D01*
X936072Y810260D01*
X963000Y1246000D02*
Y1247999D01*
Y1247000D01*
X957002D01*
X958002Y1246000D01*
X1551000Y809999D02*
X1545002D01*
X1548001Y807000D01*
Y810999D01*
X1545002Y816997D02*
X1546002Y814997D01*
X1548001Y812998D01*
X1550000D01*
X1551000Y813998D01*
Y815997D01*
X1550000Y816997D01*
X1549001D01*
X1548001Y815997D01*
Y812998D01*
X1536999Y1299000D02*
Y1304998D01*
X1534000Y1301999D01*
X1537999D01*
X1543997Y1304998D02*
X1541997Y1303998D01*
X1539998Y1301999D01*
Y1300000D01*
X1540998Y1299000D01*
X1542997D01*
X1543997Y1300000D01*
Y1300999D01*
X1542997Y1301999D01*
X1539998D01*
X946000Y1301999D02*
Y1298000D01*
X942001Y1301999D01*
X941002D01*
X940002Y1300999D01*
Y1299000D01*
X941002Y1298000D01*
D99*
X1043917Y1054666D02*
X1043501Y1054250D01*
Y1053417D01*
X1043917Y1053000D01*
X1045583D01*
X1046000Y1053417D01*
Y1054250D01*
X1045583Y1054666D01*
X1046000Y1055499D02*
Y1056332D01*
Y1055916D01*
X1043501D01*
X1043917Y1055499D01*
Y1057582D02*
X1043501Y1057998D01*
Y1058831D01*
X1043917Y1059248D01*
X1045583D01*
X1046000Y1058831D01*
Y1057998D01*
X1045583Y1057582D01*
X1043917D01*
Y1060081D02*
X1043501Y1060498D01*
Y1061331D01*
X1043917Y1061747D01*
X1044334D01*
X1044750Y1061331D01*
Y1060914D01*
Y1061331D01*
X1045167Y1061747D01*
X1045583D01*
X1046000Y1061331D01*
Y1060498D01*
X1045583Y1060081D01*
X1046416Y1062580D02*
Y1064246D01*
X1046000Y1065079D02*
Y1065912D01*
Y1065496D01*
X1043501D01*
X1043917Y1065079D01*
X1031917Y1056666D02*
X1031501Y1056250D01*
Y1055416D01*
X1031917Y1055000D01*
X1033584D01*
X1034000Y1055416D01*
Y1056250D01*
X1033584Y1056666D01*
X1034000Y1057499D02*
Y1058332D01*
Y1057916D01*
X1031501D01*
X1031917Y1057499D01*
Y1059582D02*
X1031501Y1059998D01*
Y1060831D01*
X1031917Y1061248D01*
X1033584D01*
X1034000Y1060831D01*
Y1059998D01*
X1033584Y1059582D01*
X1031917D01*
X1031501Y1063747D02*
X1031917Y1062914D01*
X1032750Y1062081D01*
X1033584D01*
X1034000Y1062497D01*
Y1063331D01*
X1033584Y1063747D01*
X1033167D01*
X1032750Y1063331D01*
Y1062081D01*
X1034417Y1064580D02*
Y1066246D01*
X1034000Y1067079D02*
Y1067912D01*
Y1067496D01*
X1031501D01*
X1031917Y1067079D01*
X998917Y1085666D02*
X998501Y1085250D01*
Y1084417D01*
X998917Y1084000D01*
X1000583D01*
X1001000Y1084417D01*
Y1085250D01*
X1000583Y1085666D01*
X1001000Y1086499D02*
Y1087332D01*
Y1086916D01*
X998501D01*
X998917Y1086499D01*
Y1088582D02*
X998501Y1088998D01*
Y1089831D01*
X998917Y1090248D01*
X1000583D01*
X1001000Y1089831D01*
Y1088998D01*
X1000583Y1088582D01*
X998917D01*
X998501Y1091081D02*
Y1092747D01*
X998917D01*
X1000583Y1091081D01*
X1001000D01*
X1001416Y1093580D02*
Y1095246D01*
X1001000Y1096079D02*
Y1096912D01*
Y1096496D01*
X998501D01*
X998917Y1096079D01*
X935000Y1253000D02*
X931501D01*
Y1254749D01*
X932084Y1255333D01*
X933251D01*
X933834Y1254749D01*
Y1253000D01*
Y1254166D02*
X935000Y1255333D01*
Y1258831D02*
Y1256499D01*
X932667Y1258831D01*
X932084D01*
X931501Y1258248D01*
Y1257082D01*
X932084Y1256499D01*
Y1259998D02*
X931501Y1260581D01*
Y1261747D01*
X932084Y1262330D01*
X934417D01*
X935000Y1261747D01*
Y1260581D01*
X934417Y1259998D01*
X932084D01*
Y1263497D02*
X931501Y1264080D01*
Y1265246D01*
X932084Y1265829D01*
X932667D01*
X933251Y1265246D01*
X933834Y1265829D01*
X934417D01*
X935000Y1265246D01*
Y1264080D01*
X934417Y1263497D01*
X933834D01*
X933251Y1264080D01*
X932667Y1263497D01*
X932084D01*
X933251Y1264080D02*
Y1265246D01*
X922333Y1246916D02*
X921749Y1247499D01*
X920583D01*
X920000Y1246916D01*
Y1244583D01*
X920583Y1244000D01*
X921749D01*
X922333Y1244583D01*
X925831Y1244000D02*
X923499D01*
X925831Y1246333D01*
Y1246916D01*
X925248Y1247499D01*
X924082D01*
X923499Y1246916D01*
X926998D02*
X927581Y1247499D01*
X928747D01*
X929330Y1246916D01*
Y1244583D01*
X928747Y1244000D01*
X927581D01*
X926998Y1244583D01*
Y1246916D01*
X930497Y1244000D02*
X931663D01*
X931080D01*
Y1247499D01*
X930497Y1246916D01*
X1284000Y941000D02*
X1281501D01*
Y942250D01*
X1281917Y942666D01*
X1282750D01*
X1283167Y942250D01*
Y941000D01*
Y941833D02*
X1284000Y942666D01*
X1281917Y943499D02*
X1281501Y943916D01*
Y944749D01*
X1281917Y945165D01*
X1282334D01*
X1282750Y944749D01*
Y944332D01*
Y944749D01*
X1283167Y945165D01*
X1283584D01*
X1284000Y944749D01*
Y943916D01*
X1283584Y943499D01*
X1281917Y945998D02*
X1281501Y946415D01*
Y947248D01*
X1281917Y947664D01*
X1283584D01*
X1284000Y947248D01*
Y946415D01*
X1283584Y945998D01*
X1281917D01*
Y948497D02*
X1281501Y948914D01*
Y949747D01*
X1281917Y950164D01*
X1282334D01*
X1282750Y949747D01*
X1283167Y950164D01*
X1283584D01*
X1284000Y949747D01*
Y948914D01*
X1283584Y948497D01*
X1283167D01*
X1282750Y948914D01*
X1282334Y948497D01*
X1281917D01*
X1282750Y948914D02*
Y949747D01*
X1284417Y950997D02*
Y952663D01*
X1284000Y955162D02*
Y953496D01*
X1282334Y955162D01*
X1281917D01*
X1281501Y954745D01*
Y953912D01*
X1281917Y953496D01*
X801000Y844000D02*
X798001D01*
Y845499D01*
X798501Y845999D01*
X799501D01*
X800000Y845499D01*
Y844000D01*
Y845000D02*
X801000Y845999D01*
Y848499D02*
X798001D01*
X799501Y846999D01*
Y848998D01*
X798501Y849998D02*
X798001Y850498D01*
Y851498D01*
X798501Y851997D01*
X800500D01*
X801000Y851498D01*
Y850498D01*
X800500Y849998D01*
X798501D01*
Y852997D02*
X798001Y853497D01*
Y854497D01*
X798501Y854996D01*
X800500D01*
X801000Y854497D01*
Y853497D01*
X800500Y852997D01*
X798501D01*
X1363000Y1097000D02*
X1360501D01*
Y1098250D01*
X1360917Y1098666D01*
X1361750D01*
X1362167Y1098250D01*
Y1097000D01*
Y1097833D02*
X1363000Y1098666D01*
X1360917Y1099499D02*
X1360501Y1099916D01*
Y1100749D01*
X1360917Y1101165D01*
X1361334D01*
X1361750Y1100749D01*
Y1100332D01*
Y1100749D01*
X1362167Y1101165D01*
X1362583D01*
X1363000Y1100749D01*
Y1099916D01*
X1362583Y1099499D01*
X1360917Y1101998D02*
X1360501Y1102415D01*
Y1103248D01*
X1360917Y1103664D01*
X1362583D01*
X1363000Y1103248D01*
Y1102415D01*
X1362583Y1101998D01*
X1360917D01*
X1360501Y1104498D02*
Y1106164D01*
X1360917D01*
X1362583Y1104498D01*
X1363000D01*
X1363416Y1106997D02*
Y1108663D01*
X1363000Y1109496D02*
Y1110329D01*
Y1109912D01*
X1360501D01*
X1360917Y1109496D01*
X1400000Y1021000D02*
Y1023499D01*
X1401250D01*
X1401666Y1023083D01*
Y1022250D01*
X1401250Y1021833D01*
X1400000D01*
X1400833D02*
X1401666Y1021000D01*
X1402499Y1023083D02*
X1402916Y1023499D01*
X1403749D01*
X1404165Y1023083D01*
Y1022666D01*
X1403749Y1022250D01*
X1403332D01*
X1403749D01*
X1404165Y1021833D01*
Y1021416D01*
X1403749Y1021000D01*
X1402916D01*
X1402499Y1021416D01*
X1404998Y1023083D02*
X1405415Y1023499D01*
X1406248D01*
X1406664Y1023083D01*
Y1021416D01*
X1406248Y1021000D01*
X1405415D01*
X1404998Y1021416D01*
Y1023083D01*
X1408747Y1021000D02*
Y1023499D01*
X1407498Y1022250D01*
X1409164D01*
X1409997Y1020583D02*
X1411663D01*
X1414162Y1021000D02*
X1412496D01*
X1414162Y1022666D01*
Y1023083D01*
X1413746Y1023499D01*
X1412912D01*
X1412496Y1023083D01*
X1382000Y1021000D02*
Y1023499D01*
X1383250D01*
X1383666Y1023083D01*
Y1022250D01*
X1383250Y1021833D01*
X1382000D01*
X1382833D02*
X1383666Y1021000D01*
X1384499Y1023083D02*
X1384916Y1023499D01*
X1385749D01*
X1386165Y1023083D01*
Y1022666D01*
X1385749Y1022250D01*
X1385332D01*
X1385749D01*
X1386165Y1021833D01*
Y1021416D01*
X1385749Y1021000D01*
X1384916D01*
X1384499Y1021416D01*
X1386998Y1023083D02*
X1387415Y1023499D01*
X1388248D01*
X1388665Y1023083D01*
Y1021416D01*
X1388248Y1021000D01*
X1387415D01*
X1386998Y1021416D01*
Y1023083D01*
X1389498D02*
X1389914Y1023499D01*
X1390747D01*
X1391164Y1023083D01*
Y1022666D01*
X1390747Y1022250D01*
X1390331D01*
X1390747D01*
X1391164Y1021833D01*
Y1021416D01*
X1390747Y1021000D01*
X1389914D01*
X1389498Y1021416D01*
X1391997Y1020583D02*
X1393663D01*
X1396162Y1021000D02*
X1394496D01*
X1396162Y1022666D01*
Y1023083D01*
X1395746Y1023499D01*
X1394913D01*
X1394496Y1023083D01*
X1396000Y1136000D02*
Y1138499D01*
X1397250D01*
X1397666Y1138083D01*
Y1137250D01*
X1397250Y1136833D01*
X1396000D01*
X1396833D02*
X1397666Y1136000D01*
X1398499Y1138083D02*
X1398916Y1138499D01*
X1399749D01*
X1400165Y1138083D01*
Y1137666D01*
X1399749Y1137250D01*
X1399332D01*
X1399749D01*
X1400165Y1136833D01*
Y1136416D01*
X1399749Y1136000D01*
X1398916D01*
X1398499Y1136416D01*
X1400998Y1138083D02*
X1401415Y1138499D01*
X1402248D01*
X1402664Y1138083D01*
Y1136416D01*
X1402248Y1136000D01*
X1401415D01*
X1400998Y1136416D01*
Y1138083D01*
X1405164Y1136000D02*
X1403497D01*
X1405164Y1137666D01*
Y1138083D01*
X1404747Y1138499D01*
X1403914D01*
X1403497Y1138083D01*
X1405997Y1135583D02*
X1407663D01*
X1408496Y1136000D02*
X1409329D01*
X1408912D01*
Y1138499D01*
X1408496Y1138083D01*
X807501Y845999D02*
X807001Y845499D01*
Y844500D01*
X807501Y844000D01*
X809500D01*
X810000Y844500D01*
Y845499D01*
X809500Y845999D01*
X810000Y848499D02*
X807001D01*
X808501Y846999D01*
Y848998D01*
X807501Y849998D02*
X807001Y850498D01*
Y851498D01*
X807501Y851997D01*
X809500D01*
X810000Y851498D01*
Y850498D01*
X809500Y849998D01*
X807501D01*
X807001Y854996D02*
Y852997D01*
X808501D01*
X808001Y853997D01*
Y854497D01*
X808501Y854996D01*
X809500D01*
X810000Y854497D01*
Y853497D01*
X809500Y852997D01*
X777501Y810999D02*
X777001Y810499D01*
Y809500D01*
X777501Y809000D01*
X779500D01*
X780000Y809500D01*
Y810499D01*
X779500Y810999D01*
X780000Y813499D02*
X777001D01*
X778501Y811999D01*
Y813998D01*
X777501Y814998D02*
X777001Y815498D01*
Y816498D01*
X777501Y816997D01*
X779500D01*
X780000Y816498D01*
Y815498D01*
X779500Y814998D01*
X777501D01*
Y817997D02*
X777001Y818497D01*
Y819497D01*
X777501Y819996D01*
X778001D01*
X778501Y819497D01*
Y818997D01*
Y819497D01*
X779000Y819996D01*
X779500D01*
X780000Y819497D01*
Y818497D01*
X779500Y817997D01*
X825501Y814999D02*
X825001Y814500D01*
Y813500D01*
X825501Y813000D01*
X827500D01*
X828000Y813500D01*
Y814500D01*
X827500Y814999D01*
X828000Y817498D02*
X825001D01*
X826500Y815999D01*
Y817998D01*
X825501Y818998D02*
X825001Y819498D01*
Y820498D01*
X825501Y820997D01*
X827500D01*
X828000Y820498D01*
Y819498D01*
X827500Y818998D01*
X825501D01*
X828000Y823996D02*
Y821997D01*
X826001Y823996D01*
X825501D01*
X825001Y823497D01*
Y822497D01*
X825501Y821997D01*
X1397666Y1130083D02*
X1397250Y1130499D01*
X1396416D01*
X1396000Y1130083D01*
Y1128417D01*
X1396416Y1128000D01*
X1397250D01*
X1397666Y1128417D01*
X1398499Y1130083D02*
X1398916Y1130499D01*
X1399749D01*
X1400165Y1130083D01*
Y1129666D01*
X1399749Y1129250D01*
X1399332D01*
X1399749D01*
X1400165Y1128833D01*
Y1128417D01*
X1399749Y1128000D01*
X1398916D01*
X1398499Y1128417D01*
X1400998Y1128000D02*
X1401831D01*
X1401415D01*
Y1130499D01*
X1400998Y1130083D01*
X1403081D02*
X1403497Y1130499D01*
X1404331D01*
X1404747Y1130083D01*
Y1128417D01*
X1404331Y1128000D01*
X1403497D01*
X1403081Y1128417D01*
Y1130083D01*
X1405580Y1127583D02*
X1407246D01*
X1408079Y1128000D02*
X1408912D01*
X1408496D01*
Y1130499D01*
X1408079Y1130083D01*
X1405666Y979083D02*
X1405250Y979499D01*
X1404417D01*
X1404000Y979083D01*
Y977417D01*
X1404417Y977000D01*
X1405250D01*
X1405666Y977417D01*
X1406499Y979083D02*
X1406916Y979499D01*
X1407749D01*
X1408165Y979083D01*
Y978666D01*
X1407749Y978250D01*
X1407332D01*
X1407749D01*
X1408165Y977833D01*
Y977417D01*
X1407749Y977000D01*
X1406916D01*
X1406499Y977417D01*
X1408998Y979083D02*
X1409415Y979499D01*
X1410248D01*
X1410665Y979083D01*
Y977417D01*
X1410248Y977000D01*
X1409415D01*
X1408998Y977417D01*
Y979083D01*
X1411498D02*
X1411914Y979499D01*
X1412747D01*
X1413164Y979083D01*
Y978666D01*
X1412747Y978250D01*
X1412331D01*
X1412747D01*
X1413164Y977833D01*
Y977417D01*
X1412747Y977000D01*
X1411914D01*
X1411498Y977417D01*
X1413997Y976583D02*
X1415663D01*
X1418162Y977000D02*
X1416496D01*
X1418162Y978666D01*
Y979083D01*
X1417746Y979499D01*
X1416913D01*
X1416496Y979083D01*
X1394666Y1046083D02*
X1394250Y1046499D01*
X1393416D01*
X1393000Y1046083D01*
Y1044417D01*
X1393416Y1044000D01*
X1394250D01*
X1394666Y1044417D01*
X1395499Y1046083D02*
X1395916Y1046499D01*
X1396749D01*
X1397165Y1046083D01*
Y1045666D01*
X1396749Y1045250D01*
X1396332D01*
X1396749D01*
X1397165Y1044833D01*
Y1044417D01*
X1396749Y1044000D01*
X1395916D01*
X1395499Y1044417D01*
X1397998Y1046083D02*
X1398415Y1046499D01*
X1399248D01*
X1399664Y1046083D01*
Y1044417D01*
X1399248Y1044000D01*
X1398415D01*
X1397998Y1044417D01*
Y1046083D01*
X1400498D02*
X1400914Y1046499D01*
X1401747D01*
X1402164Y1046083D01*
Y1045666D01*
X1401747Y1045250D01*
X1401331D01*
X1401747D01*
X1402164Y1044833D01*
Y1044417D01*
X1401747Y1044000D01*
X1400914D01*
X1400498Y1044417D01*
X1402997Y1043584D02*
X1404663D01*
X1405496Y1044000D02*
X1406329D01*
X1405912D01*
Y1046499D01*
X1405496Y1046083D01*
X1597999Y990999D02*
X1596000D01*
Y989500D01*
X1597000D01*
X1596000D01*
Y988000D01*
X1598999Y990499D02*
X1599499Y990999D01*
X1600499D01*
X1600998Y990499D01*
Y989999D01*
X1600499Y989500D01*
X1599999D01*
X1600499D01*
X1600998Y989000D01*
Y988500D01*
X1600499Y988000D01*
X1599499D01*
X1598999Y988500D01*
X1601998Y990499D02*
X1602498Y990999D01*
X1603498D01*
X1603997Y990499D01*
Y988500D01*
X1603498Y988000D01*
X1602498D01*
X1601998Y988500D01*
Y990499D01*
X1604997D02*
X1605497Y990999D01*
X1606497D01*
X1606996Y990499D01*
Y988500D01*
X1606497Y988000D01*
X1605497D01*
X1604997Y988500D01*
Y990499D01*
X1607996Y987500D02*
X1609996D01*
X1612995Y988000D02*
X1610995D01*
X1612995Y989999D01*
Y990499D01*
X1612495Y990999D01*
X1611495D01*
X1610995Y990499D01*
X1081666Y1064083D02*
X1081250Y1064499D01*
X1080416D01*
X1080000Y1064083D01*
Y1062417D01*
X1080416Y1062000D01*
X1081250D01*
X1081666Y1062417D01*
X1082499Y1062000D02*
X1083332D01*
X1082916D01*
Y1064499D01*
X1082499Y1064083D01*
X1084582D02*
X1084998Y1064499D01*
X1085831D01*
X1086248Y1064083D01*
Y1062417D01*
X1085831Y1062000D01*
X1084998D01*
X1084582Y1062417D01*
Y1064083D01*
X1088331Y1062000D02*
Y1064499D01*
X1087081Y1063250D01*
X1088747D01*
X1089580Y1061583D02*
X1091246D01*
X1092079Y1062000D02*
X1092912D01*
X1092496D01*
Y1064499D01*
X1092079Y1064083D01*
X1064666D02*
X1064250Y1064499D01*
X1063417D01*
X1063000Y1064083D01*
Y1062417D01*
X1063417Y1062000D01*
X1064250D01*
X1064666Y1062417D01*
X1065499Y1062000D02*
X1066332D01*
X1065916D01*
Y1064499D01*
X1065499Y1064083D01*
X1067582D02*
X1067998Y1064499D01*
X1068831D01*
X1069248Y1064083D01*
Y1062417D01*
X1068831Y1062000D01*
X1067998D01*
X1067582Y1062417D01*
Y1064083D01*
X1071747Y1064499D02*
X1070081D01*
Y1063250D01*
X1070914Y1063666D01*
X1071331D01*
X1071747Y1063250D01*
Y1062417D01*
X1071331Y1062000D01*
X1070498D01*
X1070081Y1062417D01*
X1072580Y1061583D02*
X1074246D01*
X1075079Y1062000D02*
X1075912D01*
X1075496D01*
Y1064499D01*
X1075079Y1064083D01*
X1052666Y1055083D02*
X1052250Y1055499D01*
X1051416D01*
X1051000Y1055083D01*
Y1053417D01*
X1051416Y1053000D01*
X1052250D01*
X1052666Y1053417D01*
X1053499Y1053000D02*
X1054332D01*
X1053916D01*
Y1055499D01*
X1053499Y1055083D01*
X1057248Y1053000D02*
X1055582D01*
X1057248Y1054666D01*
Y1055083D01*
X1056831Y1055499D01*
X1055998D01*
X1055582Y1055083D01*
X1059747Y1055499D02*
X1058914Y1055083D01*
X1058081Y1054250D01*
Y1053417D01*
X1058498Y1053000D01*
X1059331D01*
X1059747Y1053417D01*
Y1053833D01*
X1059331Y1054250D01*
X1058081D01*
X1060580Y1052583D02*
X1062246D01*
X1063079Y1053000D02*
X1063913D01*
X1063496D01*
Y1055499D01*
X1063079Y1055083D01*
X1053666Y1046083D02*
X1053250Y1046499D01*
X1052417D01*
X1052000Y1046083D01*
Y1044417D01*
X1052417Y1044000D01*
X1053250D01*
X1053666Y1044417D01*
X1054499Y1044000D02*
X1055332D01*
X1054916D01*
Y1046499D01*
X1054499Y1046083D01*
X1058248Y1044000D02*
X1056582D01*
X1058248Y1045666D01*
Y1046083D01*
X1057831Y1046499D01*
X1056998D01*
X1056582Y1046083D01*
X1060747Y1046499D02*
X1059081D01*
Y1045250D01*
X1059914Y1045666D01*
X1060331D01*
X1060747Y1045250D01*
Y1044417D01*
X1060331Y1044000D01*
X1059498D01*
X1059081Y1044417D01*
X1061580Y1043584D02*
X1063246D01*
X1064079Y1044000D02*
X1064912D01*
X1064496D01*
Y1046499D01*
X1064079Y1046083D01*
X987000Y1164000D02*
Y1166499D01*
X988250D01*
X988666Y1166083D01*
Y1165250D01*
X988250Y1164833D01*
X987000D01*
X987833D02*
X988666Y1164000D01*
X989499D02*
X990332D01*
X989916D01*
Y1166499D01*
X989499Y1166083D01*
X991582Y1164000D02*
X992415D01*
X991998D01*
Y1166499D01*
X991582Y1166083D01*
X995331Y1166499D02*
X994498Y1166083D01*
X993664Y1165250D01*
Y1164417D01*
X994081Y1164000D01*
X994914D01*
X995331Y1164417D01*
Y1164833D01*
X994914Y1165250D01*
X993664D01*
X996164Y1163584D02*
X997830D01*
X998663Y1164000D02*
X999496D01*
X999079D01*
Y1166499D01*
X998663Y1166083D01*
X893000Y1241000D02*
X889501D01*
Y1242749D01*
X890084Y1243333D01*
X891251D01*
X891834Y1242749D01*
Y1241000D01*
Y1242166D02*
X893000Y1243333D01*
Y1246831D02*
Y1244499D01*
X890667Y1246831D01*
X890084D01*
X889501Y1246248D01*
Y1245082D01*
X890084Y1244499D01*
Y1247998D02*
X889501Y1248581D01*
Y1249747D01*
X890084Y1250330D01*
X892417D01*
X893000Y1249747D01*
Y1248581D01*
X892417Y1247998D01*
X890084D01*
X893000Y1253246D02*
X889501D01*
X891251Y1251497D01*
Y1253829D01*
X902000Y1242000D02*
X898501D01*
Y1243749D01*
X899084Y1244333D01*
X900251D01*
X900834Y1243749D01*
Y1242000D01*
Y1243166D02*
X902000Y1244333D01*
Y1247831D02*
Y1245499D01*
X899667Y1247831D01*
X899084D01*
X898501Y1247248D01*
Y1246082D01*
X899084Y1245499D01*
Y1248998D02*
X898501Y1249581D01*
Y1250747D01*
X899084Y1251330D01*
X901417D01*
X902000Y1250747D01*
Y1249581D01*
X901417Y1248998D01*
X899084D01*
Y1252497D02*
X898501Y1253080D01*
Y1254246D01*
X899084Y1254829D01*
X899667D01*
X900251Y1254246D01*
Y1253663D01*
Y1254246D01*
X900834Y1254829D01*
X901417D01*
X902000Y1254246D01*
Y1253080D01*
X901417Y1252497D01*
X986000Y948000D02*
Y950499D01*
X987250D01*
X987666Y950083D01*
Y949250D01*
X987250Y948833D01*
X986000D01*
X986833D02*
X987666Y948000D01*
X988499D02*
X989332D01*
X988916D01*
Y950499D01*
X988499Y950083D01*
X990582Y948000D02*
X991415D01*
X990998D01*
Y950499D01*
X990582Y950083D01*
X994331Y950499D02*
X993498Y950083D01*
X992664Y949250D01*
Y948417D01*
X993081Y948000D01*
X993914D01*
X994331Y948417D01*
Y948833D01*
X993914Y949250D01*
X992664D01*
X995164Y947583D02*
X996830D01*
X999329Y948000D02*
X997663D01*
X999329Y949666D01*
Y950083D01*
X998913Y950499D01*
X998079D01*
X997663Y950083D01*
X1271917Y942666D02*
X1271501Y942250D01*
Y941416D01*
X1271917Y941000D01*
X1273584D01*
X1274000Y941416D01*
Y942250D01*
X1273584Y942666D01*
X1271917Y943499D02*
X1271501Y943916D01*
Y944749D01*
X1271917Y945165D01*
X1272334D01*
X1272750Y944749D01*
Y944332D01*
Y944749D01*
X1273167Y945165D01*
X1273584D01*
X1274000Y944749D01*
Y943916D01*
X1273584Y943499D01*
X1274000Y945998D02*
Y946831D01*
Y946415D01*
X1271501D01*
X1271917Y945998D01*
X1274000Y949747D02*
Y948081D01*
X1272334Y949747D01*
X1271917D01*
X1271501Y949331D01*
Y948497D01*
X1271917Y948081D01*
X1274417Y950580D02*
Y952246D01*
X1274000Y954745D02*
Y953079D01*
X1272334Y954745D01*
X1271917D01*
X1271501Y954329D01*
Y953496D01*
X1271917Y953079D01*
X872084Y1251333D02*
X871501Y1250749D01*
Y1249583D01*
X872084Y1249000D01*
X874417D01*
X875000Y1249583D01*
Y1250749D01*
X874417Y1251333D01*
X875000Y1254248D02*
X871501D01*
X873251Y1252499D01*
Y1254831D01*
X872084Y1255998D02*
X871501Y1256581D01*
Y1257747D01*
X872084Y1258330D01*
X874417D01*
X875000Y1257747D01*
Y1256581D01*
X874417Y1255998D01*
X872084D01*
X871501Y1261829D02*
X872084Y1260663D01*
X873251Y1259497D01*
X874417D01*
X875000Y1260080D01*
Y1261246D01*
X874417Y1261829D01*
X873834D01*
X873251Y1261246D01*
Y1259497D01*
X921000Y1253000D02*
X917501D01*
Y1254749D01*
X918084Y1255333D01*
X919251D01*
X919834Y1254749D01*
Y1253000D01*
Y1254166D02*
X921000Y1255333D01*
Y1258831D02*
Y1256499D01*
X918667Y1258831D01*
X918084D01*
X917501Y1258248D01*
Y1257082D01*
X918084Y1256499D01*
Y1259998D02*
X917501Y1260581D01*
Y1261747D01*
X918084Y1262330D01*
X920417D01*
X921000Y1261747D01*
Y1260581D01*
X920417Y1259998D01*
X918084D01*
X917501Y1263497D02*
Y1265829D01*
X918084D01*
X920417Y1263497D01*
X921000D01*
D100*
X931501Y1273000D02*
X935000D01*
Y1275333D01*
X931501Y1278831D02*
Y1276499D01*
X935000D01*
Y1278831D01*
X933251Y1276499D02*
Y1277665D01*
X931501Y1279998D02*
X935000D01*
Y1281747D01*
X934417Y1282330D01*
X932084D01*
X931501Y1281747D01*
Y1279998D01*
X935000Y1285829D02*
Y1283497D01*
X932667Y1285829D01*
X932084D01*
X931501Y1285246D01*
Y1284080D01*
X932084Y1283497D01*
Y1286995D02*
X931501Y1287578D01*
Y1288745D01*
X932084Y1289328D01*
X934417D01*
X935000Y1288745D01*
Y1287578D01*
X934417Y1286995D01*
X932084D01*
X935000Y1292827D02*
Y1290494D01*
X932667Y1292827D01*
X932084D01*
X931501Y1292244D01*
Y1291077D01*
X932084Y1290494D01*
X1480000Y1150000D02*
Y1153499D01*
X1481749D01*
X1482333Y1152916D01*
Y1151749D01*
X1481749Y1151166D01*
X1480000D01*
X1481166D02*
X1482333Y1150000D01*
X1485831Y1153499D02*
X1483499D01*
Y1151749D01*
X1484665Y1152333D01*
X1485248D01*
X1485831Y1151749D01*
Y1150583D01*
X1485248Y1150000D01*
X1484082D01*
X1483499Y1150583D01*
X1486998Y1152916D02*
X1487581Y1153499D01*
X1488747D01*
X1489330Y1152916D01*
Y1150583D01*
X1488747Y1150000D01*
X1487581D01*
X1486998Y1150583D01*
Y1152916D01*
X1490497Y1153499D02*
X1492829D01*
Y1152916D01*
X1490497Y1150583D01*
Y1150000D01*
X1493995Y1149417D02*
X1496328D01*
X1497494Y1150000D02*
X1498660D01*
X1498077D01*
Y1153499D01*
X1497494Y1152916D01*
X1400000Y1213000D02*
Y1216499D01*
X1401749D01*
X1402333Y1215916D01*
Y1214749D01*
X1401749Y1214166D01*
X1400000D01*
X1401166D02*
X1402333Y1213000D01*
X1403499Y1215916D02*
X1404082Y1216499D01*
X1405248D01*
X1405831Y1215916D01*
Y1215333D01*
X1405248Y1214749D01*
X1404665D01*
X1405248D01*
X1405831Y1214166D01*
Y1213583D01*
X1405248Y1213000D01*
X1404082D01*
X1403499Y1213583D01*
X1406998Y1215916D02*
X1407581Y1216499D01*
X1408747D01*
X1409330Y1215916D01*
Y1213583D01*
X1408747Y1213000D01*
X1407581D01*
X1406998Y1213583D01*
Y1215916D01*
X1412829Y1216499D02*
X1411663Y1215916D01*
X1410497Y1214749D01*
Y1213583D01*
X1411080Y1213000D01*
X1412246D01*
X1412829Y1213583D01*
Y1214166D01*
X1412246Y1214749D01*
X1410497D01*
X1413995Y1212417D02*
X1416328D01*
X1417494Y1213000D02*
X1418660D01*
X1418077D01*
Y1216499D01*
X1417494Y1215916D01*
X1431084Y1149333D02*
X1430501Y1148749D01*
Y1147583D01*
X1431084Y1147000D01*
X1433417D01*
X1434000Y1147583D01*
Y1148749D01*
X1433417Y1149333D01*
X1431084Y1150499D02*
X1430501Y1151082D01*
Y1152248D01*
X1431084Y1152831D01*
X1431667D01*
X1432251Y1152248D01*
Y1151665D01*
Y1152248D01*
X1432834Y1152831D01*
X1433417D01*
X1434000Y1152248D01*
Y1151082D01*
X1433417Y1150499D01*
X1431084Y1153998D02*
X1430501Y1154581D01*
Y1155747D01*
X1431084Y1156330D01*
X1433417D01*
X1434000Y1155747D01*
Y1154581D01*
X1433417Y1153998D01*
X1431084D01*
X1430501Y1159829D02*
Y1157496D01*
X1432251D01*
X1431667Y1158663D01*
Y1159246D01*
X1432251Y1159829D01*
X1433417D01*
X1434000Y1159246D01*
Y1158080D01*
X1433417Y1157496D01*
X1434583Y1160995D02*
Y1163328D01*
X1434000Y1164494D02*
Y1165660D01*
Y1165077D01*
X1430501D01*
X1431084Y1164494D01*
X1447084Y997333D02*
X1446501Y996749D01*
Y995583D01*
X1447084Y995000D01*
X1449417D01*
X1450000Y995583D01*
Y996749D01*
X1449417Y997333D01*
X1447084Y998499D02*
X1446501Y999082D01*
Y1000248D01*
X1447084Y1000831D01*
X1447667D01*
X1448251Y1000248D01*
Y999665D01*
Y1000248D01*
X1448834Y1000831D01*
X1449417D01*
X1450000Y1000248D01*
Y999082D01*
X1449417Y998499D01*
X1450000Y1001998D02*
Y1003164D01*
Y1002581D01*
X1446501D01*
X1447084Y1001998D01*
X1450000Y1004913D02*
Y1006080D01*
Y1005497D01*
X1446501D01*
X1447084Y1004913D01*
X1450583Y1007829D02*
Y1010162D01*
X1450000Y1013661D02*
Y1011328D01*
X1447667Y1013661D01*
X1447084D01*
X1446501Y1013077D01*
Y1011911D01*
X1447084Y1011328D01*
X1551000Y1094000D02*
X1547501D01*
Y1095749D01*
X1548084Y1096333D01*
X1549251D01*
X1549834Y1095749D01*
Y1094000D01*
Y1095166D02*
X1551000Y1096333D01*
X1548084Y1097499D02*
X1547501Y1098082D01*
Y1099248D01*
X1548084Y1099831D01*
X1548667D01*
X1549251Y1099248D01*
Y1098665D01*
Y1099248D01*
X1549834Y1099831D01*
X1550417D01*
X1551000Y1099248D01*
Y1098082D01*
X1550417Y1097499D01*
X1548084Y1100998D02*
X1547501Y1101581D01*
Y1102747D01*
X1548084Y1103330D01*
X1550417D01*
X1551000Y1102747D01*
Y1101581D01*
X1550417Y1100998D01*
X1548084D01*
Y1104497D02*
X1547501Y1105080D01*
Y1106246D01*
X1548084Y1106829D01*
X1550417D01*
X1551000Y1106246D01*
Y1105080D01*
X1550417Y1104497D01*
X1548084D01*
X1551583Y1107995D02*
Y1110328D01*
X1551000Y1111494D02*
Y1112661D01*
Y1112077D01*
X1547501D01*
X1548084Y1111494D01*
X1551000Y968000D02*
X1547501D01*
Y969749D01*
X1548084Y970333D01*
X1549251D01*
X1549834Y969749D01*
Y968000D01*
Y969166D02*
X1551000Y970333D01*
X1548084Y971499D02*
X1547501Y972082D01*
Y973248D01*
X1548084Y973831D01*
X1548667D01*
X1549251Y973248D01*
Y972665D01*
Y973248D01*
X1549834Y973831D01*
X1550417D01*
X1551000Y973248D01*
Y972082D01*
X1550417Y971499D01*
X1548084Y974998D02*
X1547501Y975581D01*
Y976747D01*
X1548084Y977330D01*
X1550417D01*
X1551000Y976747D01*
Y975581D01*
X1550417Y974998D01*
X1548084D01*
Y978496D02*
X1547501Y979080D01*
Y980246D01*
X1548084Y980829D01*
X1550417D01*
X1551000Y980246D01*
Y979080D01*
X1550417Y978496D01*
X1548084D01*
X1551583Y981995D02*
Y984328D01*
X1551000Y987827D02*
Y985494D01*
X1548667Y987827D01*
X1548084D01*
X1547501Y987244D01*
Y986077D01*
X1548084Y985494D01*
X1548000Y1066499D02*
Y1063000D01*
X1549749D01*
X1550333Y1063583D01*
Y1065916D01*
X1549749Y1066499D01*
X1548000D01*
X1551499Y1065916D02*
X1552082Y1066499D01*
X1553248D01*
X1553831Y1065916D01*
Y1065333D01*
X1553248Y1064749D01*
X1552665D01*
X1553248D01*
X1553831Y1064166D01*
Y1063583D01*
X1553248Y1063000D01*
X1552082D01*
X1551499Y1063583D01*
X1554998Y1065916D02*
X1555581Y1066499D01*
X1556747D01*
X1557330Y1065916D01*
Y1063583D01*
X1556747Y1063000D01*
X1555581D01*
X1554998Y1063583D01*
Y1065916D01*
X1558497D02*
X1559080Y1066499D01*
X1560246D01*
X1560829Y1065916D01*
Y1063583D01*
X1560246Y1063000D01*
X1559080D01*
X1558497Y1063583D01*
Y1065916D01*
X1561995Y1062417D02*
X1564328D01*
X1565494Y1063000D02*
X1566660D01*
X1566077D01*
Y1066499D01*
X1565494Y1065916D01*
X1544501Y1005000D02*
X1548000D01*
Y1006749D01*
X1547417Y1007333D01*
X1545084D01*
X1544501Y1006749D01*
Y1005000D01*
X1545084Y1008499D02*
X1544501Y1009082D01*
Y1010248D01*
X1545084Y1010831D01*
X1545667D01*
X1546251Y1010248D01*
Y1009665D01*
Y1010248D01*
X1546834Y1010831D01*
X1547417D01*
X1548000Y1010248D01*
Y1009082D01*
X1547417Y1008499D01*
X1545084Y1011998D02*
X1544501Y1012581D01*
Y1013747D01*
X1545084Y1014330D01*
X1547417D01*
X1548000Y1013747D01*
Y1012581D01*
X1547417Y1011998D01*
X1545084D01*
Y1015497D02*
X1544501Y1016080D01*
Y1017246D01*
X1545084Y1017829D01*
X1547417D01*
X1548000Y1017246D01*
Y1016080D01*
X1547417Y1015497D01*
X1545084D01*
X1548583Y1018995D02*
Y1021328D01*
X1548000Y1024827D02*
Y1022494D01*
X1545667Y1024827D01*
X1545084D01*
X1544501Y1024244D01*
Y1023077D01*
X1545084Y1022494D01*
X1597833Y1082842D02*
X1595500D01*
Y1081093D01*
X1596666D01*
X1595500D01*
Y1079343D01*
X1598999Y1082259D02*
X1599582Y1082842D01*
X1600748D01*
X1601331Y1082259D01*
Y1081676D01*
X1600748Y1081093D01*
X1600165D01*
X1600748D01*
X1601331Y1080509D01*
Y1079926D01*
X1600748Y1079343D01*
X1599582D01*
X1598999Y1079926D01*
X1602498Y1082259D02*
X1603081Y1082842D01*
X1604247D01*
X1604830Y1082259D01*
Y1079926D01*
X1604247Y1079343D01*
X1603081D01*
X1602498Y1079926D01*
Y1082259D01*
X1605997D02*
X1606580Y1082842D01*
X1607746D01*
X1608329Y1082259D01*
Y1079926D01*
X1607746Y1079343D01*
X1606580D01*
X1605997Y1079926D01*
Y1082259D01*
X1609495Y1078760D02*
X1611828D01*
X1612994Y1079343D02*
X1614161D01*
X1613577D01*
Y1082842D01*
X1612994Y1082259D01*
X1450333Y986916D02*
X1449749Y987499D01*
X1448583D01*
X1448000Y986916D01*
Y984583D01*
X1448583Y984000D01*
X1449749D01*
X1450333Y984583D01*
X1451499Y986916D02*
X1452082Y987499D01*
X1453248D01*
X1453831Y986916D01*
Y986333D01*
X1453248Y985749D01*
X1452665D01*
X1453248D01*
X1453831Y985166D01*
Y984583D01*
X1453248Y984000D01*
X1452082D01*
X1451499Y984583D01*
X1454998Y986916D02*
X1455581Y987499D01*
X1456747D01*
X1457330Y986916D01*
Y984583D01*
X1456747Y984000D01*
X1455581D01*
X1454998Y984583D01*
Y986916D01*
X1458497D02*
X1459080Y987499D01*
X1460246D01*
X1460829Y986916D01*
Y984583D01*
X1460246Y984000D01*
X1459080D01*
X1458497Y984583D01*
Y986916D01*
X1461995Y983417D02*
X1464328D01*
X1467827Y984000D02*
X1465494D01*
X1467827Y986333D01*
Y986916D01*
X1467244Y987499D01*
X1466077D01*
X1465494Y986916D01*
X1559000Y1120499D02*
X1561333D01*
X1560166D01*
Y1117000D01*
X1562499D02*
Y1120499D01*
X1564248D01*
X1564831Y1119916D01*
Y1118749D01*
X1564248Y1118166D01*
X1562499D01*
X1565998Y1119916D02*
X1566581Y1120499D01*
X1567747D01*
X1568330Y1119916D01*
Y1119333D01*
X1567747Y1118749D01*
X1567164D01*
X1567747D01*
X1568330Y1118166D01*
Y1117583D01*
X1567747Y1117000D01*
X1566581D01*
X1565998Y1117583D01*
X1569497Y1119916D02*
X1570080Y1120499D01*
X1571246D01*
X1571829Y1119916D01*
Y1117583D01*
X1571246Y1117000D01*
X1570080D01*
X1569497Y1117583D01*
Y1119916D01*
X1572995D02*
X1573578Y1120499D01*
X1574745D01*
X1575328Y1119916D01*
Y1117583D01*
X1574745Y1117000D01*
X1573578D01*
X1572995Y1117583D01*
Y1119916D01*
X1576494Y1116417D02*
X1578827D01*
X1579993Y1117000D02*
X1581159D01*
X1580576D01*
Y1120499D01*
X1579993Y1119916D01*
X1554000Y947499D02*
X1556333D01*
X1555166D01*
Y944000D01*
X1557499D02*
Y947499D01*
X1559248D01*
X1559831Y946916D01*
Y945749D01*
X1559248Y945166D01*
X1557499D01*
X1560998Y946916D02*
X1561581Y947499D01*
X1562747D01*
X1563330Y946916D01*
Y946333D01*
X1562747Y945749D01*
X1562164D01*
X1562747D01*
X1563330Y945166D01*
Y944583D01*
X1562747Y944000D01*
X1561581D01*
X1560998Y944583D01*
X1564496Y946916D02*
X1565080Y947499D01*
X1566246D01*
X1566829Y946916D01*
Y944583D01*
X1566246Y944000D01*
X1565080D01*
X1564496Y944583D01*
Y946916D01*
X1567995D02*
X1568578Y947499D01*
X1569745D01*
X1570328Y946916D01*
Y944583D01*
X1569745Y944000D01*
X1568578D01*
X1567995Y944583D01*
Y946916D01*
X1571494Y943417D02*
X1573827D01*
X1577326Y944000D02*
X1574993D01*
X1577326Y946333D01*
Y946916D01*
X1576743Y947499D01*
X1575576D01*
X1574993Y946916D01*
X1562000Y1128499D02*
X1564333D01*
X1563166D01*
Y1125000D01*
X1565499D02*
Y1128499D01*
X1567248D01*
X1567831Y1127916D01*
Y1126749D01*
X1567248Y1126166D01*
X1565499D01*
X1568998Y1127916D02*
X1569581Y1128499D01*
X1570747D01*
X1571330Y1127916D01*
Y1127333D01*
X1570747Y1126749D01*
X1570164D01*
X1570747D01*
X1571330Y1126166D01*
Y1125583D01*
X1570747Y1125000D01*
X1569581D01*
X1568998Y1125583D01*
X1572497Y1127916D02*
X1573080Y1128499D01*
X1574246D01*
X1574829Y1127916D01*
Y1125583D01*
X1574246Y1125000D01*
X1573080D01*
X1572497Y1125583D01*
Y1127916D01*
X1575995Y1125000D02*
X1577162D01*
X1576579D01*
Y1128499D01*
X1575995Y1127916D01*
X1578911Y1124417D02*
X1581244D01*
X1582410Y1125000D02*
X1583576D01*
X1582993D01*
Y1128499D01*
X1582410Y1127916D01*
X1560000Y930499D02*
X1562333D01*
X1561166D01*
Y927000D01*
X1563499D02*
Y930499D01*
X1565248D01*
X1565831Y929916D01*
Y928749D01*
X1565248Y928166D01*
X1563499D01*
X1566998Y929916D02*
X1567581Y930499D01*
X1568747D01*
X1569330Y929916D01*
Y929333D01*
X1568747Y928749D01*
X1568164D01*
X1568747D01*
X1569330Y928166D01*
Y927583D01*
X1568747Y927000D01*
X1567581D01*
X1566998Y927583D01*
X1570497Y929916D02*
X1571080Y930499D01*
X1572246D01*
X1572829Y929916D01*
Y927583D01*
X1572246Y927000D01*
X1571080D01*
X1570497Y927583D01*
Y929916D01*
X1573995Y927000D02*
X1575162D01*
X1574579D01*
Y930499D01*
X1573995Y929916D01*
X1576911Y926417D02*
X1579244D01*
X1582743Y927000D02*
X1580410D01*
X1582743Y929333D01*
Y929916D01*
X1582159Y930499D01*
X1580993D01*
X1580410Y929916D01*
X1468000Y1052499D02*
X1470333D01*
X1469166D01*
Y1049000D01*
X1471499D02*
Y1052499D01*
X1473248D01*
X1473831Y1051916D01*
Y1050749D01*
X1473248Y1050166D01*
X1471499D01*
X1474998Y1051916D02*
X1475581Y1052499D01*
X1476747D01*
X1477330Y1051916D01*
Y1051333D01*
X1476747Y1050749D01*
X1476164D01*
X1476747D01*
X1477330Y1050166D01*
Y1049583D01*
X1476747Y1049000D01*
X1475581D01*
X1474998Y1049583D01*
X1478497Y1051916D02*
X1479080Y1052499D01*
X1480246D01*
X1480829Y1051916D01*
Y1049583D01*
X1480246Y1049000D01*
X1479080D01*
X1478497Y1049583D01*
Y1051916D01*
X1481995D02*
X1482578Y1052499D01*
X1483745D01*
X1484328Y1051916D01*
Y1051333D01*
X1483745Y1050749D01*
X1483162D01*
X1483745D01*
X1484328Y1050166D01*
Y1049583D01*
X1483745Y1049000D01*
X1482578D01*
X1481995Y1049583D01*
X1485494Y1048417D02*
X1487827D01*
X1488993Y1049000D02*
X1490159D01*
X1489576D01*
Y1052499D01*
X1488993Y1051916D01*
X1464000Y998499D02*
X1466333D01*
X1465166D01*
Y995000D01*
X1467499D02*
Y998499D01*
X1469248D01*
X1469831Y997916D01*
Y996749D01*
X1469248Y996166D01*
X1467499D01*
X1470998Y997916D02*
X1471581Y998499D01*
X1472747D01*
X1473330Y997916D01*
Y997333D01*
X1472747Y996749D01*
X1472164D01*
X1472747D01*
X1473330Y996166D01*
Y995583D01*
X1472747Y995000D01*
X1471581D01*
X1470998Y995583D01*
X1474496Y997916D02*
X1475080Y998499D01*
X1476246D01*
X1476829Y997916D01*
Y995583D01*
X1476246Y995000D01*
X1475080D01*
X1474496Y995583D01*
Y997916D01*
X1477995D02*
X1478578Y998499D01*
X1479745D01*
X1480328Y997916D01*
Y997333D01*
X1479745Y996749D01*
X1479162D01*
X1479745D01*
X1480328Y996166D01*
Y995583D01*
X1479745Y995000D01*
X1478578D01*
X1477995Y995583D01*
X1481494Y994417D02*
X1483827D01*
X1487326Y995000D02*
X1484993D01*
X1487326Y997333D01*
Y997916D01*
X1486743Y998499D01*
X1485576D01*
X1484993Y997916D01*
X1466000Y1064499D02*
X1468333D01*
X1467166D01*
Y1061000D01*
X1469499D02*
Y1064499D01*
X1471248D01*
X1471831Y1063916D01*
Y1062749D01*
X1471248Y1062166D01*
X1469499D01*
X1472998Y1063916D02*
X1473581Y1064499D01*
X1474747D01*
X1475330Y1063916D01*
Y1063333D01*
X1474747Y1062749D01*
X1474164D01*
X1474747D01*
X1475330Y1062166D01*
Y1061583D01*
X1474747Y1061000D01*
X1473581D01*
X1472998Y1061583D01*
X1476496Y1063916D02*
X1477080Y1064499D01*
X1478246D01*
X1478829Y1063916D01*
Y1061583D01*
X1478246Y1061000D01*
X1477080D01*
X1476496Y1061583D01*
Y1063916D01*
X1481745Y1061000D02*
Y1064499D01*
X1479995Y1062749D01*
X1482328D01*
X1483494Y1060417D02*
X1485827D01*
X1486993Y1061000D02*
X1488159D01*
X1487576D01*
Y1064499D01*
X1486993Y1063916D01*
X1465000Y1011499D02*
X1467333D01*
X1466166D01*
Y1008000D01*
X1468499D02*
Y1011499D01*
X1470248D01*
X1470831Y1010916D01*
Y1009749D01*
X1470248Y1009166D01*
X1468499D01*
X1471998Y1010916D02*
X1472581Y1011499D01*
X1473747D01*
X1474330Y1010916D01*
Y1010333D01*
X1473747Y1009749D01*
X1473164D01*
X1473747D01*
X1474330Y1009166D01*
Y1008583D01*
X1473747Y1008000D01*
X1472581D01*
X1471998Y1008583D01*
X1475497Y1010916D02*
X1476080Y1011499D01*
X1477246D01*
X1477829Y1010916D01*
Y1008583D01*
X1477246Y1008000D01*
X1476080D01*
X1475497Y1008583D01*
Y1010916D01*
X1480745Y1008000D02*
Y1011499D01*
X1478995Y1009749D01*
X1481328D01*
X1482494Y1007417D02*
X1484827D01*
X1488326Y1008000D02*
X1485993D01*
X1488326Y1010333D01*
Y1010916D01*
X1487742Y1011499D01*
X1486576D01*
X1485993Y1010916D01*
X917501Y1274000D02*
X921000D01*
Y1276333D01*
X917501Y1279831D02*
Y1277499D01*
X921000D01*
Y1279831D01*
X919251Y1277499D02*
Y1278665D01*
X917501Y1280998D02*
X921000D01*
Y1282747D01*
X920417Y1283330D01*
X918084D01*
X917501Y1282747D01*
Y1280998D01*
X921000Y1286829D02*
Y1284497D01*
X918667Y1286829D01*
X918084D01*
X917501Y1286246D01*
Y1285080D01*
X918084Y1284497D01*
Y1287995D02*
X917501Y1288579D01*
Y1289745D01*
X918084Y1290328D01*
X920417D01*
X921000Y1289745D01*
Y1288579D01*
X920417Y1287995D01*
X918084D01*
X921000Y1291494D02*
Y1292661D01*
Y1292077D01*
X917501D01*
X918084Y1291494D01*
D101*
X916336Y1304082D02*
X915003Y1302749D01*
Y1300083D01*
X916336Y1298750D01*
X917668D01*
X919001Y1300083D01*
Y1302749D01*
X920334Y1304082D01*
X921667D01*
X923000Y1302749D01*
Y1300083D01*
X921667Y1298750D01*
X929003Y1304082D02*
Y1298750D01*
X937000D01*
Y1304082D01*
X933001Y1298750D02*
Y1301416D01*
M02*
