G04 Layer_Color=16711935*
%FSLAX44Y44*%
%MOMM*%
G71*
G01*
G75*
%ADD102R,0.6700X0.6700*%
%ADD103R,0.6700X0.6700*%
%ADD109R,0.6000X0.7000*%
%ADD110R,0.7000X0.6000*%
%ADD111R,1.0500X0.8500*%
%ADD115R,0.8500X1.0500*%
%ADD118O,1.6500X0.5490*%
%ADD120R,0.8000X1.0500*%
%ADD121R,2.7500X1.1000*%
%ADD132O,1.5500X0.5000*%
%ADD145R,4.1000X1.6500*%
%ADD150C,0.7500*%
%ADD152C,1.6740*%
%ADD153R,1.6740X1.6740*%
%ADD154C,1.5500*%
%ADD155R,1.5500X1.5500*%
G04:AMPARAMS|DCode=156|XSize=0.7mm|YSize=0.95mm|CornerRadius=0.1245mm|HoleSize=0mm|Usage=FLASHONLY|Rotation=90.000|XOffset=0mm|YOffset=0mm|HoleType=Round|Shape=RoundedRectangle|*
%AMROUNDEDRECTD156*
21,1,0.7000,0.7010,0,0,90.0*
21,1,0.4510,0.9500,0,0,90.0*
1,1,0.2490,0.3505,0.2255*
1,1,0.2490,0.3505,-0.2255*
1,1,0.2490,-0.3505,-0.2255*
1,1,0.2490,-0.3505,0.2255*
%
%ADD156ROUNDEDRECTD156*%
G04:AMPARAMS|DCode=157|XSize=0.5499mm|YSize=1.35mm|CornerRadius=0.125mm|HoleSize=0mm|Usage=FLASHONLY|Rotation=90.000|XOffset=0mm|YOffset=0mm|HoleType=Round|Shape=RoundedRectangle|*
%AMROUNDEDRECTD157*
21,1,0.5499,1.1000,0,0,90.0*
21,1,0.2999,1.3500,0,0,90.0*
1,1,0.2500,0.5500,0.1500*
1,1,0.2500,0.5500,-0.1500*
1,1,0.2500,-0.5500,-0.1500*
1,1,0.2500,-0.5500,0.1500*
%
%ADD157ROUNDEDRECTD157*%
G04:AMPARAMS|DCode=158|XSize=0.549mm|YSize=1.3mm|CornerRadius=0.1189mm|HoleSize=0mm|Usage=FLASHONLY|Rotation=0.000|XOffset=0mm|YOffset=0mm|HoleType=Round|Shape=RoundedRectangle|*
%AMROUNDEDRECTD158*
21,1,0.5490,1.0622,0,0,0.0*
21,1,0.3112,1.3000,0,0,0.0*
1,1,0.2378,0.1556,-0.5311*
1,1,0.2378,-0.1556,-0.5311*
1,1,0.2378,-0.1556,0.5311*
1,1,0.2378,0.1556,0.5311*
%
%ADD158ROUNDEDRECTD158*%
G04:AMPARAMS|DCode=159|XSize=0.549mm|YSize=0.8mm|CornerRadius=0.1249mm|HoleSize=0mm|Usage=FLASHONLY|Rotation=270.000|XOffset=0mm|YOffset=0mm|HoleType=Round|Shape=RoundedRectangle|*
%AMROUNDEDRECTD159*
21,1,0.5490,0.5503,0,0,270.0*
21,1,0.2993,0.8000,0,0,270.0*
1,1,0.2498,-0.2751,-0.1496*
1,1,0.2498,-0.2751,0.1496*
1,1,0.2498,0.2751,0.1496*
1,1,0.2498,0.2751,-0.1496*
%
%ADD159ROUNDEDRECTD159*%
%ADD160R,1.3500X0.6500*%
%ADD161R,1.7500X0.6500*%
G04:AMPARAMS|DCode=162|XSize=1.95mm|YSize=3.15mm|CornerRadius=0mm|HoleSize=0mm|Usage=FLASHONLY|Rotation=270.000|XOffset=0mm|YOffset=0mm|HoleType=Round|Shape=Octagon|*
%AMOCTAGOND162*
4,1,8,1.5750,0.4875,1.5750,-0.4875,1.0875,-0.9750,-1.0875,-0.9750,-1.5750,-0.4875,-1.5750,0.4875,-1.0875,0.9750,1.0875,0.9750,1.5750,0.4875,0.0*
%
%ADD162OCTAGOND162*%

%ADD163R,0.9500X1.0500*%
%ADD164R,1.0500X0.9500*%
%ADD165R,1.0500X0.7500*%
G04:AMPARAMS|DCode=166|XSize=0.4mm|YSize=0.75mm|CornerRadius=0.125mm|HoleSize=0mm|Usage=FLASHONLY|Rotation=270.000|XOffset=0mm|YOffset=0mm|HoleType=Round|Shape=RoundedRectangle|*
%AMROUNDEDRECTD166*
21,1,0.4000,0.5000,0,0,270.0*
21,1,0.1500,0.7500,0,0,270.0*
1,1,0.2500,-0.2500,-0.0750*
1,1,0.2500,-0.2500,0.0750*
1,1,0.2500,0.2500,0.0750*
1,1,0.2500,0.2500,-0.0750*
%
%ADD166ROUNDEDRECTD166*%
%ADD167R,1.6400X1.8900*%
%ADD168O,0.9900X0.4400*%
%ADD169R,2.2300X1.1300*%
%ADD170R,2.7500X1.3500*%
G36*
X1221760Y891693D02*
X1221867Y891668D01*
X1221969Y891626D01*
X1222063Y891568D01*
X1222147Y891497D01*
X1222218Y891413D01*
X1222276Y891319D01*
X1222318Y891217D01*
X1222344Y891110D01*
X1222352Y891000D01*
Y881452D01*
X1224500D01*
X1224610Y881443D01*
X1224717Y881418D01*
X1224819Y881376D01*
X1224913Y881318D01*
X1224997Y881246D01*
X1225068Y881163D01*
X1225126Y881069D01*
X1225168Y880967D01*
X1225194Y880860D01*
X1225202Y880750D01*
Y863250D01*
X1225194Y863140D01*
X1225168Y863033D01*
X1225126Y862931D01*
X1225068Y862837D01*
X1224997Y862754D01*
X1224913Y862682D01*
X1224819Y862624D01*
X1224717Y862582D01*
X1224610Y862557D01*
X1224500Y862548D01*
X1222352D01*
Y853000D01*
X1222344Y852890D01*
X1222318Y852783D01*
X1222276Y852681D01*
X1222218Y852587D01*
X1222147Y852504D01*
X1222063Y852432D01*
X1221969Y852374D01*
X1221867Y852332D01*
X1221760Y852307D01*
X1221650Y852298D01*
X1218850D01*
X1218740Y852307D01*
X1218633Y852332D01*
X1218531Y852374D01*
X1218437Y852432D01*
X1218354Y852504D01*
X1218282Y852587D01*
X1218224Y852681D01*
X1218182Y852783D01*
X1218157Y852890D01*
X1218148Y853000D01*
Y862548D01*
X1215852D01*
Y853000D01*
X1215844Y852890D01*
X1215818Y852783D01*
X1215776Y852681D01*
X1215718Y852587D01*
X1215647Y852504D01*
X1215563Y852432D01*
X1215469Y852374D01*
X1215367Y852332D01*
X1215260Y852307D01*
X1215150Y852298D01*
X1212350D01*
X1212240Y852307D01*
X1212133Y852332D01*
X1212031Y852374D01*
X1211937Y852432D01*
X1211854Y852504D01*
X1211782Y852587D01*
X1211724Y852681D01*
X1211682Y852783D01*
X1211657Y852890D01*
X1211648Y853000D01*
Y862548D01*
X1209500D01*
X1209390Y862557D01*
X1209283Y862582D01*
X1209181Y862624D01*
X1209087Y862682D01*
X1209004Y862754D01*
X1208932Y862837D01*
X1208875Y862931D01*
X1208832Y863033D01*
X1208807Y863140D01*
X1208798Y863250D01*
Y880750D01*
X1208807Y880860D01*
X1208832Y880967D01*
X1208875Y881069D01*
X1208932Y881163D01*
X1209004Y881246D01*
X1209087Y881318D01*
X1209181Y881376D01*
X1209283Y881418D01*
X1209390Y881443D01*
X1209500Y881452D01*
X1211648D01*
Y891000D01*
X1211657Y891110D01*
X1211682Y891217D01*
X1211724Y891319D01*
X1211782Y891413D01*
X1211854Y891497D01*
X1211937Y891568D01*
X1212031Y891626D01*
X1212133Y891668D01*
X1212240Y891693D01*
X1212350Y891702D01*
X1215150D01*
X1215260Y891693D01*
X1215367Y891668D01*
X1215469Y891626D01*
X1215563Y891568D01*
X1215647Y891497D01*
X1215718Y891413D01*
X1215776Y891319D01*
X1215818Y891217D01*
X1215844Y891110D01*
X1215852Y891000D01*
Y881452D01*
X1218148D01*
Y891000D01*
X1218157Y891110D01*
X1218182Y891217D01*
X1218224Y891319D01*
X1218282Y891413D01*
X1218354Y891497D01*
X1218437Y891568D01*
X1218531Y891626D01*
X1218633Y891668D01*
X1218740Y891693D01*
X1218850Y891702D01*
X1221650D01*
X1221760Y891693D01*
D02*
G37*
G36*
X1202760Y1051693D02*
X1202867Y1051668D01*
X1202969Y1051626D01*
X1203063Y1051568D01*
X1203146Y1051497D01*
X1203218Y1051413D01*
X1203276Y1051319D01*
X1203318Y1051217D01*
X1203344Y1051110D01*
X1203352Y1051000D01*
Y1041452D01*
X1205500D01*
X1205610Y1041443D01*
X1205717Y1041418D01*
X1205819Y1041376D01*
X1205913Y1041318D01*
X1205996Y1041246D01*
X1206068Y1041163D01*
X1206126Y1041069D01*
X1206168Y1040967D01*
X1206193Y1040860D01*
X1206202Y1040750D01*
Y1023250D01*
X1206193Y1023140D01*
X1206168Y1023033D01*
X1206126Y1022931D01*
X1206068Y1022837D01*
X1205996Y1022754D01*
X1205913Y1022682D01*
X1205819Y1022624D01*
X1205717Y1022582D01*
X1205610Y1022557D01*
X1205500Y1022548D01*
X1203352D01*
Y1013000D01*
X1203344Y1012890D01*
X1203318Y1012783D01*
X1203276Y1012681D01*
X1203218Y1012587D01*
X1203146Y1012504D01*
X1203063Y1012432D01*
X1202969Y1012374D01*
X1202867Y1012332D01*
X1202760Y1012307D01*
X1202650Y1012298D01*
X1199850D01*
X1199740Y1012307D01*
X1199633Y1012332D01*
X1199531Y1012374D01*
X1199437Y1012432D01*
X1199353Y1012504D01*
X1199282Y1012587D01*
X1199224Y1012681D01*
X1199182Y1012783D01*
X1199156Y1012890D01*
X1199148Y1013000D01*
Y1022548D01*
X1196852D01*
Y1013000D01*
X1196843Y1012890D01*
X1196818Y1012783D01*
X1196776Y1012681D01*
X1196718Y1012587D01*
X1196646Y1012504D01*
X1196563Y1012432D01*
X1196469Y1012374D01*
X1196367Y1012332D01*
X1196260Y1012307D01*
X1196150Y1012298D01*
X1193350D01*
X1193240Y1012307D01*
X1193133Y1012332D01*
X1193031Y1012374D01*
X1192937Y1012432D01*
X1192853Y1012504D01*
X1192782Y1012587D01*
X1192724Y1012681D01*
X1192682Y1012783D01*
X1192656Y1012890D01*
X1192648Y1013000D01*
Y1022548D01*
X1190500D01*
X1190390Y1022557D01*
X1190283Y1022582D01*
X1190181Y1022624D01*
X1190087Y1022682D01*
X1190004Y1022754D01*
X1189932Y1022837D01*
X1189874Y1022931D01*
X1189832Y1023033D01*
X1189807Y1023140D01*
X1189798Y1023250D01*
Y1040750D01*
X1189807Y1040860D01*
X1189832Y1040967D01*
X1189874Y1041069D01*
X1189932Y1041163D01*
X1190004Y1041246D01*
X1190087Y1041318D01*
X1190181Y1041376D01*
X1190283Y1041418D01*
X1190390Y1041443D01*
X1190500Y1041452D01*
X1192648D01*
Y1051000D01*
X1192656Y1051110D01*
X1192682Y1051217D01*
X1192724Y1051319D01*
X1192782Y1051413D01*
X1192853Y1051497D01*
X1192937Y1051568D01*
X1193031Y1051626D01*
X1193133Y1051668D01*
X1193240Y1051693D01*
X1193350Y1051702D01*
X1196150D01*
X1196260Y1051693D01*
X1196367Y1051668D01*
X1196469Y1051626D01*
X1196563Y1051568D01*
X1196646Y1051497D01*
X1196718Y1051413D01*
X1196776Y1051319D01*
X1196818Y1051217D01*
X1196843Y1051110D01*
X1196852Y1051000D01*
Y1041452D01*
X1199148D01*
Y1051000D01*
X1199156Y1051110D01*
X1199182Y1051217D01*
X1199224Y1051319D01*
X1199282Y1051413D01*
X1199353Y1051497D01*
X1199437Y1051568D01*
X1199531Y1051626D01*
X1199633Y1051668D01*
X1199740Y1051693D01*
X1199850Y1051702D01*
X1202650D01*
X1202760Y1051693D01*
D02*
G37*
D102*
X1098000Y1141000D02*
D03*
X1090000D02*
D03*
X1171000Y1024000D02*
D03*
X1163000D02*
D03*
X1041000Y1233000D02*
D03*
X1033000D02*
D03*
X1306000Y1088000D02*
D03*
X1314000D02*
D03*
X1292000Y1135000D02*
D03*
X1300000D02*
D03*
X1147000Y929000D02*
D03*
X1155000D02*
D03*
X1333000Y879000D02*
D03*
X1325000D02*
D03*
X1361000Y864000D02*
D03*
X1369000D02*
D03*
X1350000Y903000D02*
D03*
X1358000D02*
D03*
X1361000Y852000D02*
D03*
X1369000D02*
D03*
X1360750Y1160000D02*
D03*
X1352750D02*
D03*
X1333343Y1200500D02*
D03*
X1325343D02*
D03*
X1333000Y867000D02*
D03*
X1325000D02*
D03*
X1369343Y1215500D02*
D03*
X1361343D02*
D03*
X1310000Y932000D02*
D03*
X1302000D02*
D03*
X1277000Y980000D02*
D03*
X1285000D02*
D03*
X1333343Y1188500D02*
D03*
X1325343D02*
D03*
X1369343Y1203500D02*
D03*
X1361343D02*
D03*
X1220000Y1245000D02*
D03*
X1212000D02*
D03*
D103*
X1007000Y1110000D02*
D03*
Y1102000D02*
D03*
X998000Y1040000D02*
D03*
Y1032000D02*
D03*
X1006000Y964500D02*
D03*
Y956500D02*
D03*
X1196000Y1135000D02*
D03*
Y1127000D02*
D03*
X1224000Y1041000D02*
D03*
Y1033000D02*
D03*
X1334343Y1115500D02*
D03*
Y1107500D02*
D03*
X1265000Y1087000D02*
D03*
Y1079000D02*
D03*
X1192000Y871000D02*
D03*
Y879000D02*
D03*
X1244000Y884000D02*
D03*
Y876000D02*
D03*
X1408000Y875000D02*
D03*
Y867000D02*
D03*
X1404000Y1190000D02*
D03*
Y1198000D02*
D03*
X1334000Y960000D02*
D03*
Y952000D02*
D03*
X1260000Y937000D02*
D03*
Y929000D02*
D03*
D109*
X1234500Y1022000D02*
D03*
X1225500D02*
D03*
X1351500Y1107000D02*
D03*
X1360500D02*
D03*
X1360500Y1098000D02*
D03*
X1351500D02*
D03*
X1387500Y877000D02*
D03*
X1396500D02*
D03*
X1386500Y1178000D02*
D03*
X1395500D02*
D03*
X1379500Y1167000D02*
D03*
X1370500D02*
D03*
X1360500Y961000D02*
D03*
X1351500D02*
D03*
X1351500Y970000D02*
D03*
X1360500D02*
D03*
X1336500Y923000D02*
D03*
X1327500D02*
D03*
X1327500Y933000D02*
D03*
X1336500D02*
D03*
X1342500Y1095000D02*
D03*
X1333500D02*
D03*
X1351500Y952000D02*
D03*
X1342500D02*
D03*
X1015500Y1002000D02*
D03*
X1006500D02*
D03*
X1015500Y994000D02*
D03*
X1006500D02*
D03*
X1044500Y1224000D02*
D03*
X1035500D02*
D03*
X1044500Y1205000D02*
D03*
X1035500D02*
D03*
X1211500Y1236000D02*
D03*
X1220500D02*
D03*
D110*
X1048000Y960000D02*
D03*
Y969000D02*
D03*
X1056285Y960000D02*
D03*
Y969000D02*
D03*
X1048000Y952000D02*
D03*
Y943000D02*
D03*
X1056285Y952000D02*
D03*
Y943000D02*
D03*
X1040000Y1041000D02*
D03*
Y1050000D02*
D03*
X1048000Y1041500D02*
D03*
Y1050500D02*
D03*
X1040000Y1033500D02*
D03*
Y1024500D02*
D03*
X1048000Y1033500D02*
D03*
Y1024500D02*
D03*
X1050000Y1109500D02*
D03*
Y1118500D02*
D03*
X1058000Y1109500D02*
D03*
Y1118500D02*
D03*
Y1102500D02*
D03*
Y1093500D02*
D03*
X1050000Y1102500D02*
D03*
Y1093500D02*
D03*
X1234000Y1040500D02*
D03*
Y1031500D02*
D03*
X1334000Y1135500D02*
D03*
Y1126500D02*
D03*
X1250343Y1139000D02*
D03*
Y1130000D02*
D03*
X1333500Y1085843D02*
D03*
Y1076843D02*
D03*
X1343500Y1076843D02*
D03*
Y1085843D02*
D03*
X1276000Y1081500D02*
D03*
Y1090500D02*
D03*
X1262343Y1109000D02*
D03*
Y1100000D02*
D03*
X1254000Y884500D02*
D03*
Y875500D02*
D03*
X1242000Y865500D02*
D03*
Y856500D02*
D03*
X1345000Y880500D02*
D03*
Y889500D02*
D03*
X1335000Y980500D02*
D03*
Y971500D02*
D03*
X1250000Y928500D02*
D03*
Y937500D02*
D03*
X1270000Y926500D02*
D03*
Y935500D02*
D03*
X1262000Y958500D02*
D03*
Y967500D02*
D03*
X1285000Y1090500D02*
D03*
Y1081500D02*
D03*
X1280000Y926500D02*
D03*
Y935500D02*
D03*
X1290000Y1150500D02*
D03*
Y1159500D02*
D03*
X1304000Y871500D02*
D03*
Y880500D02*
D03*
X1000000Y1084500D02*
D03*
Y1093500D02*
D03*
X1006000Y1135500D02*
D03*
Y1126500D02*
D03*
X1000000Y1067500D02*
D03*
Y1076500D02*
D03*
X1004000Y936500D02*
D03*
Y945500D02*
D03*
X1168000Y1213500D02*
D03*
Y1222500D02*
D03*
Y1241500D02*
D03*
Y1232500D02*
D03*
X1159000Y1222500D02*
D03*
Y1213500D02*
D03*
Y1232500D02*
D03*
Y1241500D02*
D03*
D111*
X1146000Y1126000D02*
D03*
Y1112000D02*
D03*
X1346000Y1031000D02*
D03*
Y1045000D02*
D03*
X1392000Y1039000D02*
D03*
Y1053000D02*
D03*
X1132000Y961000D02*
D03*
Y947000D02*
D03*
X1281000Y849000D02*
D03*
Y835000D02*
D03*
X883000Y850000D02*
D03*
Y864000D02*
D03*
X898000Y882000D02*
D03*
Y896000D02*
D03*
X1233000Y947000D02*
D03*
Y933000D02*
D03*
X1316000Y1049000D02*
D03*
Y1063000D02*
D03*
D115*
X1180000Y1102000D02*
D03*
X1166000D02*
D03*
X1214000Y1058000D02*
D03*
X1200000D02*
D03*
X1176000Y1058000D02*
D03*
X1190000D02*
D03*
X1171000Y973000D02*
D03*
X1185000D02*
D03*
X1194000Y899000D02*
D03*
X1208000D02*
D03*
X1218000Y900000D02*
D03*
X1232000D02*
D03*
X1269000Y1182000D02*
D03*
X1283000D02*
D03*
D118*
X1278750Y1102250D02*
D03*
Y1108750D02*
D03*
Y1115250D02*
D03*
Y1121750D02*
D03*
X1319250Y1102250D02*
D03*
Y1108750D02*
D03*
Y1115250D02*
D03*
Y1121750D02*
D03*
X1277750Y946250D02*
D03*
Y952750D02*
D03*
Y959250D02*
D03*
Y965750D02*
D03*
X1318250Y946250D02*
D03*
Y952750D02*
D03*
Y959250D02*
D03*
Y965750D02*
D03*
D120*
X1359500Y1056000D02*
D03*
X1369000D02*
D03*
X1378500D02*
D03*
Y1032000D02*
D03*
X1359500D02*
D03*
D121*
X904000Y837000D02*
D03*
Y809000D02*
D03*
D132*
X1066000Y1192250D02*
D03*
Y1198750D02*
D03*
Y1205250D02*
D03*
Y1211750D02*
D03*
Y1218250D02*
D03*
Y1224750D02*
D03*
Y1231250D02*
D03*
Y1237750D02*
D03*
X1122000Y1192250D02*
D03*
Y1198750D02*
D03*
Y1205250D02*
D03*
Y1211750D02*
D03*
Y1218250D02*
D03*
Y1224750D02*
D03*
Y1231250D02*
D03*
Y1237750D02*
D03*
D145*
X1645250Y762700D02*
D03*
Y707300D02*
D03*
Y1362700D02*
D03*
Y1307300D02*
D03*
Y1122700D02*
D03*
Y1067300D02*
D03*
Y1002700D02*
D03*
Y947300D02*
D03*
Y882700D02*
D03*
Y827300D02*
D03*
Y1242700D02*
D03*
Y1187300D02*
D03*
D150*
X1355000Y1087500D02*
D03*
X1280000Y915000D02*
D03*
X1347500Y1169500D02*
D03*
X1382000Y867000D02*
D03*
X1379000Y1157000D02*
D03*
X1345000Y870000D02*
D03*
X793000Y889000D02*
D03*
X989000Y842000D02*
D03*
X1237000Y996000D02*
D03*
X1213000Y993000D02*
D03*
X1395000Y1015000D02*
D03*
X918000Y907000D02*
D03*
X1270000Y883000D02*
D03*
X1237000Y1058000D02*
D03*
X1207000Y1112000D02*
D03*
X1144000Y976000D02*
D03*
X927000Y770000D02*
D03*
X811000Y773000D02*
D03*
X830000Y839000D02*
D03*
X967000Y1206000D02*
D03*
D152*
X1517650Y1289050D02*
D03*
X1492250D02*
D03*
X1466850D02*
D03*
X1441450D02*
D03*
X1416050D02*
D03*
X1390650D02*
D03*
X1365250D02*
D03*
X1339850D02*
D03*
X1314450D02*
D03*
X1289050D02*
D03*
X1263650D02*
D03*
X1238250D02*
D03*
X1212850D02*
D03*
X1187450D02*
D03*
X1162050D02*
D03*
X1136650D02*
D03*
X1111250D02*
D03*
X1085850D02*
D03*
X1060450D02*
D03*
X1035050D02*
D03*
X1009650D02*
D03*
X984250D02*
D03*
X958850D02*
D03*
X1517650Y1263650D02*
D03*
X1492250D02*
D03*
X1466850D02*
D03*
X1441450D02*
D03*
X1416050D02*
D03*
X1390650D02*
D03*
X1365250D02*
D03*
X1339850D02*
D03*
X1314450D02*
D03*
X1289050D02*
D03*
X1263650D02*
D03*
X1238250D02*
D03*
X1212850D02*
D03*
X1187450D02*
D03*
X1162050D02*
D03*
X1136650D02*
D03*
X1111250D02*
D03*
X1085850D02*
D03*
X1060450D02*
D03*
X1035050D02*
D03*
X1009650D02*
D03*
X984250D02*
D03*
Y781050D02*
D03*
X1009650D02*
D03*
X1035050D02*
D03*
X1060450D02*
D03*
X1085850D02*
D03*
X1111250D02*
D03*
X1136650D02*
D03*
X1162050D02*
D03*
X1187450D02*
D03*
X1212850D02*
D03*
X1238250D02*
D03*
X1263650D02*
D03*
X1289050D02*
D03*
X1314450D02*
D03*
X1339850D02*
D03*
X1365250D02*
D03*
X1390650D02*
D03*
X1416050D02*
D03*
X1441450D02*
D03*
X1466850D02*
D03*
X1492250D02*
D03*
X1517650D02*
D03*
X958850Y806450D02*
D03*
X984250D02*
D03*
X1009650D02*
D03*
X1035050D02*
D03*
X1060450D02*
D03*
X1085850D02*
D03*
X1111250D02*
D03*
X1136650D02*
D03*
X1162050D02*
D03*
X1187450D02*
D03*
X1212850D02*
D03*
X1238250D02*
D03*
X1263650D02*
D03*
X1289050D02*
D03*
X1314450D02*
D03*
X1339850D02*
D03*
X1365250D02*
D03*
X1390650D02*
D03*
X1416050D02*
D03*
X1441450D02*
D03*
X1466850D02*
D03*
X1492250D02*
D03*
X1517650D02*
D03*
D153*
X958850Y1263650D02*
D03*
Y781050D02*
D03*
D154*
X980000Y984600D02*
D03*
Y1010000D02*
D03*
Y1035400D02*
D03*
Y1086200D02*
D03*
Y1111600D02*
D03*
Y1060800D02*
D03*
D155*
Y1137000D02*
D03*
D156*
X1171750Y959500D02*
D03*
Y950000D02*
D03*
Y940500D02*
D03*
X1146250D02*
D03*
Y959500D02*
D03*
D157*
X1235500Y1200250D02*
D03*
Y1206750D02*
D03*
Y1213250D02*
D03*
Y1219750D02*
D03*
Y1226250D02*
D03*
Y1232750D02*
D03*
Y1239250D02*
D03*
Y1245750D02*
D03*
X1292500Y1200250D02*
D03*
Y1206750D02*
D03*
Y1213250D02*
D03*
Y1219750D02*
D03*
Y1226250D02*
D03*
Y1232750D02*
D03*
Y1239250D02*
D03*
Y1245750D02*
D03*
D158*
X1036785Y938750D02*
D03*
X1030285D02*
D03*
X1023785D02*
D03*
X1017285D02*
D03*
X1036785Y981250D02*
D03*
X1030285D02*
D03*
X1023785D02*
D03*
X1017285D02*
D03*
X1028785Y1014250D02*
D03*
X1022285D02*
D03*
X1015785D02*
D03*
X1009285D02*
D03*
X1028785Y1056750D02*
D03*
X1022285D02*
D03*
X1015785D02*
D03*
X1009285D02*
D03*
X1037785Y1084250D02*
D03*
X1031285D02*
D03*
X1024785D02*
D03*
X1018285D02*
D03*
X1037785Y1126750D02*
D03*
X1031285D02*
D03*
X1024785D02*
D03*
X1018285D02*
D03*
D159*
X1314750Y890500D02*
D03*
Y897000D02*
D03*
Y903500D02*
D03*
X1335250D02*
D03*
Y890500D02*
D03*
X1315750Y1163500D02*
D03*
Y1170000D02*
D03*
Y1176500D02*
D03*
X1336250D02*
D03*
Y1163500D02*
D03*
X1377250Y1178500D02*
D03*
Y1185000D02*
D03*
Y1191500D02*
D03*
X1356750D02*
D03*
Y1185000D02*
D03*
Y1178500D02*
D03*
X1354750Y889500D02*
D03*
Y883000D02*
D03*
Y876500D02*
D03*
X1375250D02*
D03*
Y883000D02*
D03*
Y889500D02*
D03*
D160*
X913000Y855000D02*
D03*
Y885000D02*
D03*
D161*
X915000Y870000D02*
D03*
D162*
X938000D02*
D03*
D163*
X852000Y853000D02*
D03*
X866000D02*
D03*
X1163000Y1058000D02*
D03*
X1149000D02*
D03*
X1312000Y1018000D02*
D03*
X1298000D02*
D03*
X1163000Y988000D02*
D03*
X1177000D02*
D03*
X1331590Y852910D02*
D03*
X1345590D02*
D03*
X1159000Y902000D02*
D03*
X1173000D02*
D03*
X1331933Y1214590D02*
D03*
X1345933D02*
D03*
D164*
X1146000Y1086000D02*
D03*
Y1100000D02*
D03*
D165*
X1185000Y1117500D02*
D03*
Y1136500D02*
D03*
X1161000D02*
D03*
Y1127000D02*
D03*
Y1117500D02*
D03*
D166*
X1077000Y1149500D02*
D03*
Y1154500D02*
D03*
Y1159500D02*
D03*
Y1164500D02*
D03*
X1107000Y1149500D02*
D03*
Y1154500D02*
D03*
Y1159500D02*
D03*
Y1164500D02*
D03*
D167*
X1217000Y872000D02*
D03*
X1198000Y1032000D02*
D03*
D168*
X1202250Y881750D02*
D03*
Y875250D02*
D03*
Y868750D02*
D03*
Y862250D02*
D03*
X1231750D02*
D03*
Y868750D02*
D03*
Y875250D02*
D03*
Y881750D02*
D03*
X1212750Y1041750D02*
D03*
Y1035250D02*
D03*
Y1028750D02*
D03*
Y1022250D02*
D03*
X1183250D02*
D03*
Y1028750D02*
D03*
Y1035250D02*
D03*
Y1041750D02*
D03*
D169*
X932000Y807100D02*
D03*
Y786900D02*
D03*
D170*
X845000Y772000D02*
D03*
Y797500D02*
D03*
X874000Y772250D02*
D03*
Y797750D02*
D03*
M02*
