G04 Layer_Color=32896*
%FSLAX44Y44*%
%MOMM*%
G71*
G01*
G75*
%ADD61C,0.2000*%
%ADD62C,0.1500*%
%ADD66C,0.2500*%
%ADD70C,0.1200*%
%ADD93C,0.6000*%
%ADD95C,0.1000*%
%ADD96C,0.0500*%
%ADD97C,0.0800*%
%ADD98C,0.1300*%
%ADD99C,0.0600*%
%ADD100C,0.0700*%
%ADD101C,0.1600*%
D61*
X1154000Y965500D02*
X1164000D01*
X1154000Y934500D02*
X1164000D01*
Y965500D01*
X1154000Y934500D02*
Y965500D01*
X1245500Y1197500D02*
X1282500D01*
X1245500Y1248500D02*
X1282500D01*
X1245500Y1197500D02*
Y1248500D01*
X1282500Y1197500D02*
Y1248500D01*
X1011535Y948500D02*
X1042535D01*
X1011535Y971500D02*
X1042535D01*
Y948500D02*
Y971500D01*
X1011535Y948500D02*
Y971500D01*
X1003535Y1024000D02*
X1034535D01*
X1003535Y1047000D02*
X1034535D01*
Y1024000D02*
Y1047000D01*
X1003535Y1024000D02*
Y1047000D01*
X1012535Y1094000D02*
X1043535D01*
X1012535Y1117000D02*
X1043535D01*
Y1094000D02*
Y1117000D01*
X1012535Y1094000D02*
Y1117000D01*
X1322000Y886000D02*
X1328000D01*
X1322000Y908000D02*
X1328000D01*
X1322000Y886000D02*
Y908000D01*
X1328000Y886000D02*
Y908000D01*
X1323000Y1159000D02*
X1329000D01*
X1323000Y1181000D02*
X1329000D01*
X1323000Y1159000D02*
Y1181000D01*
X1329000Y1159000D02*
Y1181000D01*
X918000Y847000D02*
X944000D01*
Y857000D01*
X918000Y893000D02*
X944000D01*
Y883000D02*
Y893000D01*
X1142500Y1118500D02*
Y1119500D01*
X1149500Y1118500D02*
Y1119500D01*
X1176500Y1111500D02*
Y1142500D01*
X1169500Y1111500D02*
Y1142500D01*
X1176500D01*
X1169500Y1111500D02*
X1176500D01*
X1172500Y1105500D02*
X1173500D01*
X1172500Y1098500D02*
X1173500D01*
X1206500Y1061500D02*
X1207500D01*
X1206500Y1054500D02*
X1207500D01*
X1182500D02*
X1183500D01*
X1182500Y1061500D02*
X1183500D01*
X1077000Y1189500D02*
X1111000D01*
X1077000Y1240500D02*
X1111000D01*
X1077000Y1189500D02*
Y1240500D01*
X1111000Y1189500D02*
Y1240500D01*
X1084000Y1146500D02*
Y1167500D01*
X1100000Y1146500D02*
Y1167500D01*
X1084000Y1146500D02*
X1100000D01*
X1084000Y1167500D02*
X1100000D01*
X1349500Y1037500D02*
Y1038500D01*
X1342500Y1037500D02*
Y1038500D01*
X1395500Y1045500D02*
Y1046500D01*
X1388500Y1045500D02*
Y1046500D01*
X1354000Y1040500D02*
Y1047500D01*
X1384000Y1040500D02*
Y1047500D01*
X1354000D02*
X1384000D01*
X1354000Y1040500D02*
X1384000D01*
X1128500Y953500D02*
Y954500D01*
X1135500Y953500D02*
Y954500D01*
X1177500Y969500D02*
X1178500D01*
X1177500Y976500D02*
X1178500D01*
X1200500Y895500D02*
X1201500D01*
X1200500Y902500D02*
X1201500D01*
X1277500Y841500D02*
Y842500D01*
X1284500Y841500D02*
Y842500D01*
X1224500Y896500D02*
X1225500D01*
X1224500Y903500D02*
X1225500D01*
X886500Y856500D02*
Y857500D01*
X879500Y856500D02*
Y857500D01*
X901500Y888500D02*
Y889500D01*
X894500Y888500D02*
Y889500D01*
X1199750Y854750D02*
X1205500D01*
X1228500D02*
X1234250D01*
X1199750Y889250D02*
X1205500D01*
X1234250Y887250D02*
Y889250D01*
X1228500D02*
X1234250D01*
Y854750D02*
Y856750D01*
X1199750Y854750D02*
Y856750D01*
Y887250D02*
Y889250D01*
X1290250Y1096000D02*
X1307750D01*
X1290250Y1128000D02*
X1307750D01*
X1290250Y1096000D02*
Y1128000D01*
X1307750Y1096000D02*
Y1128000D01*
X1180750Y1047250D02*
Y1049250D01*
Y1014750D02*
Y1016750D01*
X1215250Y1014750D02*
Y1016750D01*
X1209500Y1049250D02*
X1215250D01*
Y1047250D02*
Y1049250D01*
X1180750D02*
X1186500D01*
X1209500Y1014750D02*
X1215250D01*
X1180750D02*
X1186500D01*
X1229500Y939500D02*
Y940500D01*
X1236500Y939500D02*
Y940500D01*
X1289250Y940000D02*
X1306750D01*
X1289250Y972000D02*
X1306750D01*
X1289250Y940000D02*
Y972000D01*
X1306750Y940000D02*
Y972000D01*
X892000Y817500D02*
Y828500D01*
X916000Y817500D02*
Y828500D01*
X922600Y795500D02*
Y798500D01*
X941400Y795500D02*
Y798500D01*
X1275500Y1185500D02*
X1276500D01*
X1275500Y1178500D02*
X1276500D01*
X1312500Y1055500D02*
Y1056500D01*
X1319500Y1055500D02*
Y1056500D01*
X946150Y1250950D02*
Y1301750D01*
Y1250950D02*
X1530350D01*
X1530350Y1301750D01*
X946150D02*
X1530350D01*
X1530350Y768350D02*
Y819150D01*
X946150Y768350D02*
X1530350D01*
X946150D02*
Y819150D01*
X1530350D01*
X1370000Y1174000D02*
Y1196000D01*
X1364000Y1174000D02*
Y1196000D01*
X1370000D01*
X1364000Y1174000D02*
X1370000D01*
X1362000Y872000D02*
Y894000D01*
X1368000Y872000D02*
Y894000D01*
X1362000Y872000D02*
X1368000D01*
X1362000Y894000D02*
X1368000D01*
X1624070Y774320D02*
X1663070D01*
X1624070Y721220D02*
Y723380D01*
Y746620D02*
Y748780D01*
Y1295680D02*
X1663070D01*
X1624070Y1321220D02*
Y1323380D01*
Y1346620D02*
Y1348780D01*
Y1134320D02*
X1663070D01*
X1624070Y1055680D02*
X1663070D01*
X1624070Y1081220D02*
Y1083380D01*
Y1106620D02*
Y1108780D01*
Y1014320D02*
X1663070D01*
X1624070Y935680D02*
X1663070D01*
X1624070Y961220D02*
Y963380D01*
Y986620D02*
Y988780D01*
Y894320D02*
X1663070D01*
X1624070Y815680D02*
X1663070D01*
X1624070Y841220D02*
Y843380D01*
Y866620D02*
Y868780D01*
Y1254320D02*
X1663070D01*
X1624070Y1175680D02*
X1663070D01*
X1624070Y1201220D02*
Y1203380D01*
Y1226620D02*
Y1228780D01*
X857000Y781750D02*
Y787750D01*
X833000Y781750D02*
Y787750D01*
X886000Y782000D02*
Y788000D01*
X862000Y782000D02*
Y788000D01*
X981000Y1224997D02*
X974335D01*
X977668D01*
Y1215000D01*
X971003D02*
Y1224997D01*
X966005D01*
X964339Y1223331D01*
Y1219998D01*
X966005Y1218332D01*
X971003D01*
X956008Y1215000D02*
Y1224997D01*
X961006Y1219998D01*
X954342D01*
X951010Y1215000D02*
X947677D01*
X949343D01*
Y1224997D01*
X951010Y1223331D01*
X936014Y1224997D02*
X942679D01*
Y1219998D01*
X939347Y1221665D01*
X937681D01*
X936014Y1219998D01*
Y1216666D01*
X937681Y1215000D01*
X941013D01*
X942679Y1216666D01*
D62*
X823000Y843498D02*
X818002D01*
X820501D01*
Y836000D01*
X815502D02*
Y843498D01*
X811754D01*
X810504Y842248D01*
Y839749D01*
X811754Y838499D01*
X815502D01*
X804256Y836000D02*
Y843498D01*
X808005Y839749D01*
X803006D01*
X800507Y836000D02*
X798008D01*
X799258D01*
Y843498D01*
X800507Y842248D01*
X790510Y836000D02*
Y843498D01*
X794259Y839749D01*
X789261D01*
X825000Y788498D02*
X820002D01*
X822501D01*
Y781000D01*
X817502D02*
Y788498D01*
X813754D01*
X812504Y787248D01*
Y784749D01*
X813754Y783499D01*
X817502D01*
X806256Y781000D02*
Y788498D01*
X810005Y784749D01*
X805006D01*
X802507Y781000D02*
X800008D01*
X801258D01*
Y788498D01*
X802507Y787248D01*
X796259D02*
X795010Y788498D01*
X792510D01*
X791261Y787248D01*
Y785998D01*
X792510Y784749D01*
X793760D01*
X792510D01*
X791261Y783499D01*
Y782250D01*
X792510Y781000D01*
X795010D01*
X796259Y782250D01*
X1269000Y990498D02*
X1264002D01*
X1266501D01*
Y983000D01*
X1261502D02*
Y990498D01*
X1257754D01*
X1256504Y989248D01*
Y986749D01*
X1257754Y985499D01*
X1261502D01*
X1250256Y983000D02*
Y990498D01*
X1254005Y986749D01*
X1249006D01*
X1246507Y989248D02*
X1245258Y990498D01*
X1242758D01*
X1241509Y989248D01*
Y984250D01*
X1242758Y983000D01*
X1245258D01*
X1246507Y984250D01*
Y989248D01*
X1235261Y983000D02*
Y990498D01*
X1239010Y986749D01*
X1234011D01*
X1230000Y1009498D02*
X1225002D01*
X1227501D01*
Y1002000D01*
X1222502D02*
Y1009498D01*
X1218754D01*
X1217504Y1008248D01*
Y1005749D01*
X1218754Y1004499D01*
X1222502D01*
X1211256Y1002000D02*
Y1009498D01*
X1215005Y1005749D01*
X1210006D01*
X1207507Y1008248D02*
X1206258Y1009498D01*
X1203758D01*
X1202509Y1008248D01*
Y1003250D01*
X1203758Y1002000D01*
X1206258D01*
X1207507Y1003250D01*
Y1008248D01*
X1195011Y1009498D02*
X1200010D01*
Y1005749D01*
X1197510Y1006998D01*
X1196261D01*
X1195011Y1005749D01*
Y1003250D01*
X1196261Y1002000D01*
X1198760D01*
X1200010Y1003250D01*
X1411000Y1088498D02*
X1406002D01*
X1408501D01*
Y1081000D01*
X1403502D02*
Y1088498D01*
X1399754D01*
X1398504Y1087248D01*
Y1084749D01*
X1399754Y1083499D01*
X1403502D01*
X1396005Y1087248D02*
X1394755Y1088498D01*
X1392256D01*
X1391006Y1087248D01*
Y1085998D01*
X1392256Y1084749D01*
X1393506D01*
X1392256D01*
X1391006Y1083499D01*
Y1082250D01*
X1392256Y1081000D01*
X1394755D01*
X1396005Y1082250D01*
X1388507Y1087248D02*
X1387258Y1088498D01*
X1384758D01*
X1383509Y1087248D01*
Y1082250D01*
X1384758Y1081000D01*
X1387258D01*
X1388507Y1082250D01*
Y1087248D01*
X1381010Y1088498D02*
X1376011D01*
Y1087248D01*
X1381010Y1082250D01*
Y1081000D01*
X1373512Y1079750D02*
X1368514D01*
X1366014Y1081000D02*
X1363515D01*
X1364765D01*
Y1088498D01*
X1366014Y1087248D01*
X929998Y817000D02*
X923000D01*
Y821665D01*
Y827497D02*
X929998D01*
X926499Y823998D01*
Y828663D01*
X928831Y830995D02*
X929998Y832162D01*
Y834494D01*
X928831Y835661D01*
X924166D01*
X923000Y834494D01*
Y832162D01*
X924166Y830995D01*
X928831D01*
Y837993D02*
X929998Y839159D01*
Y841492D01*
X928831Y842658D01*
X924166D01*
X923000Y841492D01*
Y839159D01*
X924166Y837993D01*
X928831D01*
X886248Y820998D02*
X887498Y819749D01*
Y817250D01*
X886248Y816000D01*
X881250D01*
X880000Y817250D01*
Y819749D01*
X881250Y820998D01*
X880000Y827246D02*
X887498D01*
X883749Y823498D01*
Y828496D01*
X886248Y830995D02*
X887498Y832245D01*
Y834744D01*
X886248Y835994D01*
X881250D01*
X880000Y834744D01*
Y832245D01*
X881250Y830995D01*
X886248D01*
X880000Y842242D02*
X887498D01*
X883749Y838493D01*
Y843491D01*
X1185000Y1009498D02*
Y1003250D01*
X1183750Y1002000D01*
X1181251D01*
X1180002Y1003250D01*
Y1009498D01*
X1173754Y1002000D02*
Y1009498D01*
X1177502Y1005749D01*
X1172504D01*
X1170005Y1008248D02*
X1168755Y1009498D01*
X1166256D01*
X1165006Y1008248D01*
Y1003250D01*
X1166256Y1002000D01*
X1168755D01*
X1170005Y1003250D01*
Y1008248D01*
X1162507D02*
X1161258Y1009498D01*
X1158758D01*
X1157509Y1008248D01*
Y1006998D01*
X1158758Y1005749D01*
X1160008D01*
X1158758D01*
X1157509Y1004499D01*
Y1003250D01*
X1158758Y1002000D01*
X1161258D01*
X1162507Y1003250D01*
X1231000Y848498D02*
Y842250D01*
X1229750Y841000D01*
X1227251D01*
X1226002Y842250D01*
Y848498D01*
X1219754Y841000D02*
Y848498D01*
X1223502Y844749D01*
X1218504D01*
X1216005Y847248D02*
X1214755Y848498D01*
X1212256D01*
X1211006Y847248D01*
Y842250D01*
X1212256Y841000D01*
X1214755D01*
X1216005Y842250D01*
Y847248D01*
X1204758Y841000D02*
Y848498D01*
X1208507Y844749D01*
X1203509D01*
X1049000Y1218498D02*
Y1212250D01*
X1047750Y1211000D01*
X1045251D01*
X1044002Y1212250D01*
Y1218498D01*
X1041502D02*
X1036504D01*
Y1217248D01*
X1041502Y1212250D01*
Y1211000D01*
X1034005Y1217248D02*
X1032755Y1218498D01*
X1030256D01*
X1029006Y1217248D01*
Y1212250D01*
X1030256Y1211000D01*
X1032755D01*
X1034005Y1212250D01*
Y1217248D01*
X1026507D02*
X1025258Y1218498D01*
X1022758D01*
X1021509Y1217248D01*
Y1212250D01*
X1022758Y1211000D01*
X1025258D01*
X1026507Y1212250D01*
Y1217248D01*
X1068000Y1161498D02*
Y1155250D01*
X1066750Y1154000D01*
X1064251D01*
X1063002Y1155250D01*
Y1161498D01*
X1060502D02*
X1055504D01*
Y1160248D01*
X1060502Y1155250D01*
Y1154000D01*
X1053005Y1160248D02*
X1051755Y1161498D01*
X1049256D01*
X1048006Y1160248D01*
Y1155250D01*
X1049256Y1154000D01*
X1051755D01*
X1053005Y1155250D01*
Y1160248D01*
X1045507Y1154000D02*
X1043008D01*
X1044258D01*
Y1161498D01*
X1045507Y1160248D01*
X1255000Y1194498D02*
Y1188250D01*
X1253750Y1187000D01*
X1251251D01*
X1250002Y1188250D01*
Y1194498D01*
X1242504Y1187000D02*
X1247502D01*
X1242504Y1191998D01*
Y1193248D01*
X1243754Y1194498D01*
X1246253D01*
X1247502Y1193248D01*
X1240005D02*
X1238755Y1194498D01*
X1236256D01*
X1235006Y1193248D01*
Y1188250D01*
X1236256Y1187000D01*
X1238755D01*
X1240005Y1188250D01*
Y1193248D01*
X1232507Y1187000D02*
X1230008D01*
X1231258D01*
Y1194498D01*
X1232507Y1193248D01*
X1091000Y1088498D02*
Y1082250D01*
X1089750Y1081000D01*
X1087251D01*
X1086002Y1082250D01*
Y1088498D01*
X1078504D02*
X1081003Y1087248D01*
X1083502Y1084749D01*
Y1082250D01*
X1082253Y1081000D01*
X1079754D01*
X1078504Y1082250D01*
Y1083499D01*
X1079754Y1084749D01*
X1083502D01*
X1076005Y1087248D02*
X1074755Y1088498D01*
X1072256D01*
X1071006Y1087248D01*
Y1082250D01*
X1072256Y1081000D01*
X1074755D01*
X1076005Y1082250D01*
Y1087248D01*
X1068507D02*
X1067258Y1088498D01*
X1064758D01*
X1063509Y1087248D01*
Y1082250D01*
X1064758Y1081000D01*
X1067258D01*
X1068507Y1082250D01*
Y1087248D01*
X1061010Y1079750D02*
X1056011D01*
X1053512Y1081000D02*
X1051013D01*
X1052262D01*
Y1088498D01*
X1053512Y1087248D01*
X1081000Y1068498D02*
Y1062250D01*
X1079750Y1061000D01*
X1077251D01*
X1076002Y1062250D01*
Y1068498D01*
X1068504D02*
X1071003Y1067248D01*
X1073502Y1064749D01*
Y1062250D01*
X1072253Y1061000D01*
X1069754D01*
X1068504Y1062250D01*
Y1063499D01*
X1069754Y1064749D01*
X1073502D01*
X1066005Y1067248D02*
X1064755Y1068498D01*
X1062256D01*
X1061006Y1067248D01*
Y1062250D01*
X1062256Y1061000D01*
X1064755D01*
X1066005Y1062250D01*
Y1067248D01*
X1058507D02*
X1057258Y1068498D01*
X1054758D01*
X1053509Y1067248D01*
Y1062250D01*
X1054758Y1061000D01*
X1057258D01*
X1058507Y1062250D01*
Y1067248D01*
X1051010Y1059750D02*
X1046011D01*
X1038514Y1061000D02*
X1043512D01*
X1038514Y1065998D01*
Y1067248D01*
X1039763Y1068498D01*
X1042262D01*
X1043512Y1067248D01*
X1091000Y985498D02*
Y979250D01*
X1089750Y978000D01*
X1087251D01*
X1086002Y979250D01*
Y985498D01*
X1078504D02*
X1081003Y984248D01*
X1083502Y981749D01*
Y979250D01*
X1082253Y978000D01*
X1079754D01*
X1078504Y979250D01*
Y980499D01*
X1079754Y981749D01*
X1083502D01*
X1076005Y984248D02*
X1074755Y985498D01*
X1072256D01*
X1071006Y984248D01*
Y979250D01*
X1072256Y978000D01*
X1074755D01*
X1076005Y979250D01*
Y984248D01*
X1068507D02*
X1067258Y985498D01*
X1064758D01*
X1063509Y984248D01*
Y979250D01*
X1064758Y978000D01*
X1067258D01*
X1068507Y979250D01*
Y984248D01*
X1061010Y976750D02*
X1056011D01*
X1053512Y984248D02*
X1052262Y985498D01*
X1049763D01*
X1048514Y984248D01*
Y982998D01*
X1049763Y981749D01*
X1051013D01*
X1049763D01*
X1048514Y980499D01*
Y979250D01*
X1049763Y978000D01*
X1052262D01*
X1053512Y979250D01*
X1191000Y1156498D02*
Y1150250D01*
X1189750Y1149000D01*
X1187251D01*
X1186002Y1150250D01*
Y1156498D01*
X1179754Y1149000D02*
Y1156498D01*
X1183502Y1152749D01*
X1178504D01*
X1176005Y1155248D02*
X1174755Y1156498D01*
X1172256D01*
X1171006Y1155248D01*
Y1150250D01*
X1172256Y1149000D01*
X1174755D01*
X1176005Y1150250D01*
Y1155248D01*
X1168507D02*
X1167258Y1156498D01*
X1164758D01*
X1163509Y1155248D01*
Y1153998D01*
X1164758Y1152749D01*
X1163509Y1151499D01*
Y1150250D01*
X1164758Y1149000D01*
X1167258D01*
X1168507Y1150250D01*
Y1151499D01*
X1167258Y1152749D01*
X1168507Y1153998D01*
Y1155248D01*
X1167258Y1152749D02*
X1164758D01*
X933000Y922498D02*
X928002D01*
X930501D01*
Y915000D01*
X925502D02*
Y922498D01*
X921754D01*
X920504Y921248D01*
Y918749D01*
X921754Y917499D01*
X925502D01*
X914256Y915000D02*
Y922498D01*
X918005Y918749D01*
X913006D01*
X910507Y921248D02*
X909258Y922498D01*
X906758D01*
X905509Y921248D01*
Y916250D01*
X906758Y915000D01*
X909258D01*
X910507Y916250D01*
Y921248D01*
X903010Y922498D02*
X898011D01*
Y921248D01*
X903010Y916250D01*
Y915000D01*
X867000Y872498D02*
Y865000D01*
X862002D01*
X855754D02*
Y872498D01*
X859502Y868749D01*
X854504D01*
X852005Y871248D02*
X850755Y872498D01*
X848256D01*
X847006Y871248D01*
Y866250D01*
X848256Y865000D01*
X850755D01*
X852005Y866250D01*
Y871248D01*
X844507Y872498D02*
X839509D01*
Y871248D01*
X844507Y866250D01*
Y865000D01*
X959000Y906498D02*
Y900250D01*
X957750Y899000D01*
X955251D01*
X954002Y900250D01*
Y906498D01*
X947754Y899000D02*
Y906498D01*
X951502Y902749D01*
X946504D01*
X944005Y905248D02*
X942755Y906498D01*
X940256D01*
X939006Y905248D01*
Y900250D01*
X940256Y899000D01*
X942755D01*
X944005Y900250D01*
Y905248D01*
X931509Y906498D02*
X934008Y905248D01*
X936507Y902749D01*
Y900250D01*
X935258Y899000D01*
X932758D01*
X931509Y900250D01*
Y901499D01*
X932758Y902749D01*
X936507D01*
X1393000Y1072498D02*
Y1066250D01*
X1391750Y1065000D01*
X1389251D01*
X1388002Y1066250D01*
Y1072498D01*
X1381754Y1065000D02*
Y1072498D01*
X1385502Y1068749D01*
X1380504D01*
X1378005Y1071248D02*
X1376755Y1072498D01*
X1374256D01*
X1373006Y1071248D01*
Y1066250D01*
X1374256Y1065000D01*
X1376755D01*
X1378005Y1066250D01*
Y1071248D01*
X1370507Y1072498D02*
X1365509D01*
Y1071248D01*
X1370507Y1066250D01*
Y1065000D01*
X1418000Y1006498D02*
X1413002D01*
X1415501D01*
Y999000D01*
X1410502D02*
Y1006498D01*
X1406754D01*
X1405504Y1005248D01*
Y1002749D01*
X1406754Y1001499D01*
X1410502D01*
X1399256Y999000D02*
Y1006498D01*
X1403005Y1002749D01*
X1398006D01*
X1395507Y1005248D02*
X1394258Y1006498D01*
X1391758D01*
X1390509Y1005248D01*
Y1000250D01*
X1391758Y999000D01*
X1394258D01*
X1395507Y1000250D01*
Y1005248D01*
X1383011Y1006498D02*
X1385510Y1005248D01*
X1388010Y1002749D01*
Y1000250D01*
X1386760Y999000D01*
X1384261D01*
X1383011Y1000250D01*
Y1001499D01*
X1384261Y1002749D01*
X1388010D01*
X896000Y907749D02*
X891002D01*
X893501Y910248D02*
Y905250D01*
X883504Y911498D02*
X888502D01*
Y907749D01*
X886003Y908998D01*
X884754D01*
X883504Y907749D01*
Y905250D01*
X884754Y904000D01*
X887253D01*
X888502Y905250D01*
X881005Y911498D02*
Y906499D01*
X878506Y904000D01*
X876006Y906499D01*
Y911498D01*
X915000Y791498D02*
Y786499D01*
X912501Y784000D01*
X910002Y786499D01*
Y791498D01*
X907502D02*
X905003D01*
X906253D01*
Y784000D01*
X907502D01*
X905003D01*
X901254D02*
Y791498D01*
X896256Y784000D01*
Y791498D01*
X799002Y799248D02*
X800251Y800498D01*
X802750D01*
X804000Y799248D01*
Y794250D01*
X802750Y793000D01*
X800251D01*
X799002Y794250D01*
Y796749D01*
X801501D01*
X796502Y793000D02*
Y800498D01*
X791504Y793000D01*
Y800498D01*
X789005D02*
Y793000D01*
X785256D01*
X784006Y794250D01*
Y799248D01*
X785256Y800498D01*
X789005D01*
X1122000Y961749D02*
X1117002D01*
X1119501Y964248D02*
Y959250D01*
X1109504Y958000D02*
X1114502D01*
X1109504Y962998D01*
Y964248D01*
X1110754Y965498D01*
X1113253D01*
X1114502Y964248D01*
X1107005Y958000D02*
Y959250D01*
X1105755D01*
Y958000D01*
X1107005D01*
X1095758Y965498D02*
X1100757D01*
Y961749D01*
X1098258Y962998D01*
X1097008D01*
X1095758Y961749D01*
Y959250D01*
X1097008Y958000D01*
X1099507D01*
X1100757Y959250D01*
X1093259Y965498D02*
Y960499D01*
X1090760Y958000D01*
X1088261Y960499D01*
Y965498D01*
X1239000Y1132749D02*
X1234002D01*
X1226504Y1129000D02*
X1231502D01*
X1226504Y1133998D01*
Y1135248D01*
X1227754Y1136498D01*
X1230253D01*
X1231502Y1135248D01*
X1224005Y1129000D02*
Y1130250D01*
X1222755D01*
Y1129000D01*
X1224005D01*
X1212758Y1136498D02*
X1217757D01*
Y1132749D01*
X1215258Y1133998D01*
X1214008D01*
X1212758Y1132749D01*
Y1130250D01*
X1214008Y1129000D01*
X1216507D01*
X1217757Y1130250D01*
X1210259Y1136498D02*
Y1131499D01*
X1207760Y1129000D01*
X1205261Y1131499D01*
Y1136498D01*
X1263000Y1043749D02*
X1258002D01*
X1250504Y1047498D02*
X1253003Y1046248D01*
X1255502Y1043749D01*
Y1041250D01*
X1254253Y1040000D01*
X1251754D01*
X1250504Y1041250D01*
Y1042499D01*
X1251754Y1043749D01*
X1255502D01*
X1248005Y1047498D02*
Y1042499D01*
X1245506Y1040000D01*
X1243006Y1042499D01*
Y1047498D01*
X1274000Y862749D02*
X1269002D01*
X1271501Y865248D02*
Y860250D01*
X1261504Y866498D02*
X1264003Y865248D01*
X1266502Y862749D01*
Y860250D01*
X1265253Y859000D01*
X1262754D01*
X1261504Y860250D01*
Y861499D01*
X1262754Y862749D01*
X1266502D01*
X1259005Y866498D02*
Y861499D01*
X1256506Y859000D01*
X1254006Y861499D01*
Y866498D01*
X1426000Y1016749D02*
X1421002D01*
X1413504Y1020498D02*
X1418502D01*
Y1016749D01*
X1416003Y1017998D01*
X1414754D01*
X1413504Y1016749D01*
Y1014250D01*
X1414754Y1013000D01*
X1417253D01*
X1418502Y1014250D01*
X1411005Y1020498D02*
Y1015499D01*
X1408506Y1013000D01*
X1406006Y1015499D01*
Y1020498D01*
X1265000Y1013248D02*
X1263750Y1014498D01*
X1261251D01*
X1260002Y1013248D01*
Y1008250D01*
X1261251Y1007000D01*
X1263750D01*
X1265000Y1008250D01*
Y1013248D01*
X1257502Y1007000D02*
Y1008250D01*
X1256253D01*
Y1007000D01*
X1257502D01*
X1247506D02*
Y1014498D01*
X1251254Y1010749D01*
X1246256D01*
X1243757Y1014498D02*
Y1009499D01*
X1241258Y1007000D01*
X1238758Y1009499D01*
Y1014498D01*
X942000Y1200749D02*
X937002D01*
X939501Y1203248D02*
Y1198250D01*
X934502Y1203248D02*
X933253Y1204498D01*
X930754D01*
X929504Y1203248D01*
Y1201998D01*
X930754Y1200749D01*
X932003D01*
X930754D01*
X929504Y1199499D01*
Y1198250D01*
X930754Y1197000D01*
X933253D01*
X934502Y1198250D01*
X927005Y1197000D02*
Y1198250D01*
X925755D01*
Y1197000D01*
X927005D01*
X920757Y1203248D02*
X919507Y1204498D01*
X917008D01*
X915758Y1203248D01*
Y1201998D01*
X917008Y1200749D01*
X918258D01*
X917008D01*
X915758Y1199499D01*
Y1198250D01*
X917008Y1197000D01*
X919507D01*
X920757Y1198250D01*
X913259Y1204498D02*
Y1199499D01*
X910760Y1197000D01*
X908261Y1199499D01*
Y1204498D01*
D66*
X1173000Y967750D02*
G03*
X1173000Y967750I-1250J0D01*
G01*
X1305250Y1246000D02*
G03*
X1305250Y1246000I-1250J0D01*
G01*
X1045785Y938750D02*
G03*
X1045785Y938750I-1250J0D01*
G01*
X1037785Y1014250D02*
G03*
X1037785Y1014250I-1250J0D01*
G01*
X1046785Y1084250D02*
G03*
X1046785Y1084250I-1250J0D01*
G01*
X1316000Y883000D02*
G03*
X1316000Y883000I-1250J0D01*
G01*
X1317000Y1156000D02*
G03*
X1317000Y1156000I-1250J0D01*
G01*
X912750Y847000D02*
G03*
X912750Y847000I-1250J0D01*
G01*
X1162250Y1109000D02*
G03*
X1162250Y1109000I-1250J0D01*
G01*
X1123250Y1245000D02*
G03*
X1123250Y1245000I-1250J0D01*
G01*
X1078250Y1142750D02*
G03*
X1078250Y1142750I-1250J0D01*
G01*
X1352000Y1056000D02*
G03*
X1352000Y1056000I-1250J0D01*
G01*
X1320500Y1129500D02*
G03*
X1320500Y1129500I-1250J0D01*
G01*
X1319500Y973500D02*
G03*
X1319500Y973500I-1250J0D01*
G01*
X1358000Y1171000D02*
G03*
X1358000Y1171000I-1250J0D01*
G01*
X1376500Y897000D02*
G03*
X1376500Y897000I-1250J0D01*
G01*
D70*
X1267000Y980998D02*
Y976833D01*
X1266167Y976000D01*
X1264501D01*
X1263668Y976833D01*
Y980998D01*
X1262002Y980165D02*
X1261169Y980998D01*
X1259502D01*
X1258669Y980165D01*
Y979332D01*
X1259502Y978499D01*
X1260335D01*
X1259502D01*
X1258669Y977666D01*
Y976833D01*
X1259502Y976000D01*
X1261169D01*
X1262002Y976833D01*
X1257003Y980165D02*
X1256170Y980998D01*
X1254504D01*
X1253671Y980165D01*
Y976833D01*
X1254504Y976000D01*
X1256170D01*
X1257003Y976833D01*
Y980165D01*
X1248673Y980998D02*
X1252005D01*
Y978499D01*
X1250339Y979332D01*
X1249506D01*
X1248673Y978499D01*
Y976833D01*
X1249506Y976000D01*
X1251172D01*
X1252005Y976833D01*
X1247007Y975167D02*
X1243674D01*
X1238676Y976000D02*
X1242008D01*
X1238676Y979332D01*
Y980165D01*
X1239509Y980998D01*
X1241175D01*
X1242008Y980165D01*
D93*
X1275500Y1238500D02*
G03*
X1275500Y1238500I-3000J0D01*
G01*
X1104000Y1230500D02*
G03*
X1104000Y1230500I-3000J0D01*
G01*
D95*
X1238750Y889250D02*
G03*
X1238750Y889250I-500J0D01*
G01*
X1219750Y1049250D02*
G03*
X1219750Y1049250I-500J0D01*
G01*
X857750Y848000D02*
X860250D01*
X857750Y858000D02*
X860250D01*
X1151000Y1091750D02*
Y1094250D01*
X1141000Y1091750D02*
Y1094250D01*
X1154750Y1063000D02*
X1157250D01*
X1154750Y1053000D02*
X1157250D01*
X1303750Y1023000D02*
X1306250D01*
X1303750Y1013000D02*
X1306250D01*
X1168750Y983000D02*
X1171250D01*
X1168750Y993000D02*
X1171250D01*
X1337340Y847910D02*
X1339840D01*
X1337340Y857910D02*
X1339840D01*
X1164750Y897000D02*
X1167250D01*
X1164750Y907000D02*
X1167250D01*
X1337683Y1219590D02*
X1340183D01*
X1337683Y1209590D02*
X1340183D01*
X1175000Y904998D02*
Y900000D01*
X1171668D01*
X1167503D02*
Y904998D01*
X1170002Y902499D01*
X1166669D01*
X1165003Y904165D02*
X1164170Y904998D01*
X1162504D01*
X1161671Y904165D01*
Y900833D01*
X1162504Y900000D01*
X1164170D01*
X1165003Y900833D01*
Y904165D01*
X1157506Y900000D02*
Y904998D01*
X1160005Y902499D01*
X1156673D01*
X899332Y884666D02*
X899999Y883999D01*
Y882666D01*
X899332Y882000D01*
X896666D01*
X896000Y882666D01*
Y883999D01*
X896666Y884666D01*
X896000Y887998D02*
X899999D01*
X897999Y885999D01*
Y888664D01*
X896000Y892663D02*
Y889997D01*
X898666Y892663D01*
X899332D01*
X899999Y891997D01*
Y890664D01*
X899332Y889997D01*
Y893996D02*
X899999Y894662D01*
Y895995D01*
X899332Y896662D01*
X898666D01*
X897999Y895995D01*
X897333Y896662D01*
X896666D01*
X896000Y895995D01*
Y894662D01*
X896666Y893996D01*
X897333D01*
X897999Y894662D01*
X898666Y893996D01*
X899332D01*
X897999Y894662D02*
Y895995D01*
D96*
X1003029Y933500D02*
X1005528D01*
Y934750D01*
X1005112Y935166D01*
X1004278D01*
X1003862Y934750D01*
Y933500D01*
Y934333D02*
X1003029Y935166D01*
X1005528Y937666D02*
X1005112Y936833D01*
X1004278Y935999D01*
X1003445D01*
X1003029Y936416D01*
Y937249D01*
X1003445Y937666D01*
X1003862D01*
X1004278Y937249D01*
Y935999D01*
X1005112Y938499D02*
X1005528Y938915D01*
Y939748D01*
X1005112Y940165D01*
X1003445D01*
X1003029Y939748D01*
Y938915D01*
X1003445Y938499D01*
X1005112D01*
X1005528Y942664D02*
Y940998D01*
X1004278D01*
X1004695Y941831D01*
Y942247D01*
X1004278Y942664D01*
X1003445D01*
X1003029Y942247D01*
Y941414D01*
X1003445Y940998D01*
X1002612Y943497D02*
Y945163D01*
X1005112Y945996D02*
X1005528Y946413D01*
Y947246D01*
X1005112Y947662D01*
X1004695D01*
X1004278Y947246D01*
Y946829D01*
Y947246D01*
X1003862Y947662D01*
X1003445D01*
X1003029Y947246D01*
Y946413D01*
X1003445Y945996D01*
X1017500Y1001029D02*
Y1003528D01*
X1016250D01*
X1015834Y1003112D01*
Y1002279D01*
X1016250Y1001862D01*
X1017500D01*
X1016667D02*
X1015834Y1001029D01*
X1013335Y1003528D02*
X1014168Y1003112D01*
X1015001Y1002279D01*
Y1001445D01*
X1014584Y1001029D01*
X1013751D01*
X1013335Y1001445D01*
Y1001862D01*
X1013751Y1002279D01*
X1015001D01*
X1012502Y1003112D02*
X1012085Y1003528D01*
X1011252D01*
X1010835Y1003112D01*
Y1001445D01*
X1011252Y1001029D01*
X1012085D01*
X1012502Y1001445D01*
Y1003112D01*
X1008336Y1003528D02*
X1010002D01*
Y1002279D01*
X1009169Y1002695D01*
X1008753D01*
X1008336Y1002279D01*
Y1001445D01*
X1008753Y1001029D01*
X1009586D01*
X1010002Y1001445D01*
X1007503Y1000612D02*
X1005837D01*
X1003338Y1001029D02*
X1005004D01*
X1003338Y1002695D01*
Y1003112D01*
X1003754Y1003528D01*
X1004587D01*
X1005004Y1003112D01*
X999029Y1082500D02*
X1001528D01*
Y1083750D01*
X1001112Y1084166D01*
X1000278D01*
X999862Y1083750D01*
Y1082500D01*
Y1083333D02*
X999029Y1084166D01*
X1001528Y1086665D02*
X1001112Y1085832D01*
X1000278Y1084999D01*
X999445D01*
X999029Y1085416D01*
Y1086249D01*
X999445Y1086665D01*
X999862D01*
X1000278Y1086249D01*
Y1084999D01*
X1001112Y1087498D02*
X1001528Y1087915D01*
Y1088748D01*
X1001112Y1089165D01*
X999445D01*
X999029Y1088748D01*
Y1087915D01*
X999445Y1087498D01*
X1001112D01*
X1001528Y1091664D02*
Y1089998D01*
X1000278D01*
X1000695Y1090831D01*
Y1091247D01*
X1000278Y1091664D01*
X999445D01*
X999029Y1091247D01*
Y1090414D01*
X999445Y1089998D01*
X998612Y1092497D02*
Y1094163D01*
X999029Y1094996D02*
Y1095829D01*
Y1095413D01*
X1001528D01*
X1001112Y1094996D01*
X1017500Y993029D02*
Y995528D01*
X1016250D01*
X1015834Y995111D01*
Y994278D01*
X1016250Y993862D01*
X1017500D01*
X1016667D02*
X1015834Y993029D01*
X1013334Y995528D02*
X1014167Y995111D01*
X1015001Y994278D01*
Y993445D01*
X1014584Y993029D01*
X1013751D01*
X1013334Y993445D01*
Y993862D01*
X1013751Y994278D01*
X1015001D01*
X1012501Y995111D02*
X1012085Y995528D01*
X1011252D01*
X1010835Y995111D01*
Y993445D01*
X1011252Y993029D01*
X1012085D01*
X1012501Y993445D01*
Y995111D01*
X1008753Y993029D02*
Y995528D01*
X1010002Y994278D01*
X1008336D01*
X1007503Y992612D02*
X1005837D01*
X1005004Y995111D02*
X1004587Y995528D01*
X1003754D01*
X1003338Y995111D01*
Y994695D01*
X1003754Y994278D01*
X1004171D01*
X1003754D01*
X1003338Y993862D01*
Y993445D01*
X1003754Y993029D01*
X1004587D01*
X1005004Y993445D01*
X999029Y1065500D02*
X1001528D01*
Y1066750D01*
X1001111Y1067166D01*
X1000278D01*
X999862Y1066750D01*
Y1065500D01*
Y1066333D02*
X999029Y1067166D01*
X1001528Y1069665D02*
X1001111Y1068832D01*
X1000278Y1067999D01*
X999445D01*
X999029Y1068416D01*
Y1069249D01*
X999445Y1069665D01*
X999862D01*
X1000278Y1069249D01*
Y1067999D01*
X1001111Y1070499D02*
X1001528Y1070915D01*
Y1071748D01*
X1001111Y1072165D01*
X999445D01*
X999029Y1071748D01*
Y1070915D01*
X999445Y1070499D01*
X1001111D01*
X999029Y1074247D02*
X1001528D01*
X1000278Y1072998D01*
Y1074664D01*
X998612Y1075497D02*
Y1077163D01*
X999029Y1079662D02*
Y1077996D01*
X1000695Y1079662D01*
X1001111D01*
X1001528Y1079246D01*
Y1078413D01*
X1001111Y1077996D01*
X1006971Y1137500D02*
X1004472D01*
Y1136250D01*
X1004889Y1135834D01*
X1005722D01*
X1006138Y1136250D01*
Y1137500D01*
Y1136667D02*
X1006971Y1135834D01*
X1004472Y1133335D02*
X1004889Y1134168D01*
X1005722Y1135001D01*
X1006555D01*
X1006971Y1134584D01*
Y1133751D01*
X1006555Y1133335D01*
X1006138D01*
X1005722Y1133751D01*
Y1135001D01*
X1004889Y1132502D02*
X1004472Y1132085D01*
Y1131252D01*
X1004889Y1130835D01*
X1006555D01*
X1006971Y1131252D01*
Y1132085D01*
X1006555Y1132502D01*
X1004889D01*
X1006971Y1128753D02*
X1004472D01*
X1005722Y1130002D01*
Y1128336D01*
X1007388Y1127503D02*
Y1125837D01*
X1006971Y1125004D02*
Y1124171D01*
Y1124587D01*
X1004472D01*
X1004889Y1125004D01*
X1044999Y1203997D02*
Y1206496D01*
X1043749D01*
X1043333Y1206079D01*
Y1205246D01*
X1043749Y1204829D01*
X1044999D01*
X1044165D02*
X1043333Y1203997D01*
X1042499Y1206496D02*
X1040833D01*
Y1206079D01*
X1042499Y1204413D01*
Y1203997D01*
X1040000Y1206079D02*
X1039584Y1206496D01*
X1038751D01*
X1038334Y1206079D01*
Y1204413D01*
X1038751Y1203997D01*
X1039584D01*
X1040000Y1204413D01*
Y1206079D01*
X1035835Y1206496D02*
X1037501D01*
Y1205246D01*
X1036668Y1205663D01*
X1036251D01*
X1035835Y1205246D01*
Y1204413D01*
X1036251Y1203997D01*
X1037085D01*
X1037501Y1204413D01*
X1045000Y1223000D02*
Y1225499D01*
X1043750D01*
X1043334Y1225083D01*
Y1224250D01*
X1043750Y1223833D01*
X1045000D01*
X1044167D02*
X1043334Y1223000D01*
X1042501Y1225499D02*
X1040835D01*
Y1225083D01*
X1042501Y1223417D01*
Y1223000D01*
X1040002Y1225083D02*
X1039585Y1225499D01*
X1038752D01*
X1038335Y1225083D01*
Y1223417D01*
X1038752Y1223000D01*
X1039585D01*
X1040002Y1223417D01*
Y1225083D01*
X1036253Y1223000D02*
Y1225499D01*
X1037502Y1224250D01*
X1035836D01*
X1161000Y1059499D02*
Y1057000D01*
X1159334D01*
X1157251D02*
Y1059499D01*
X1158501Y1058250D01*
X1156835D01*
X1156002Y1059083D02*
X1155585Y1059499D01*
X1154752D01*
X1154335Y1059083D01*
Y1057417D01*
X1154752Y1057000D01*
X1155585D01*
X1156002Y1057417D01*
Y1059083D01*
X1153502D02*
X1153086Y1059499D01*
X1152253D01*
X1151836Y1059083D01*
Y1058666D01*
X1152253Y1058250D01*
X1152669D01*
X1152253D01*
X1151836Y1057833D01*
Y1057417D01*
X1152253Y1057000D01*
X1153086D01*
X1153502Y1057417D01*
X1334000Y970000D02*
X1336499D01*
Y971250D01*
X1336083Y971666D01*
X1335250D01*
X1334833Y971250D01*
Y970000D01*
Y970833D02*
X1334000Y971666D01*
X1336083Y972499D02*
X1336499Y972916D01*
Y973749D01*
X1336083Y974165D01*
X1335666D01*
X1335250Y973749D01*
Y973332D01*
Y973749D01*
X1334833Y974165D01*
X1334417D01*
X1334000Y973749D01*
Y972916D01*
X1334417Y972499D01*
X1334000Y974998D02*
Y975831D01*
Y975415D01*
X1336499D01*
X1336083Y974998D01*
X1334000Y978331D02*
X1336499D01*
X1335250Y977081D01*
Y978747D01*
X1333584Y979580D02*
Y981246D01*
X1334000Y983745D02*
Y982079D01*
X1335666Y983745D01*
X1336083D01*
X1336499Y983329D01*
Y982496D01*
X1336083Y982079D01*
X1333000Y1125000D02*
X1335499D01*
Y1126250D01*
X1335083Y1126666D01*
X1334250D01*
X1333833Y1126250D01*
Y1125000D01*
Y1125833D02*
X1333000Y1126666D01*
X1335083Y1127499D02*
X1335499Y1127916D01*
Y1128749D01*
X1335083Y1129165D01*
X1334666D01*
X1334250Y1128749D01*
Y1128332D01*
Y1128749D01*
X1333833Y1129165D01*
X1333416D01*
X1333000Y1128749D01*
Y1127916D01*
X1333416Y1127499D01*
X1333000Y1129998D02*
Y1130831D01*
Y1130415D01*
X1335499D01*
X1335083Y1129998D01*
X1333000Y1133331D02*
X1335499D01*
X1334250Y1132081D01*
Y1133747D01*
X1332583Y1134580D02*
Y1136246D01*
X1333000Y1137079D02*
Y1137913D01*
Y1137496D01*
X1335499D01*
X1335083Y1137079D01*
X1398000Y1177000D02*
Y1179499D01*
X1396750D01*
X1396334Y1179083D01*
Y1178250D01*
X1396750Y1177833D01*
X1398000D01*
X1397167D02*
X1396334Y1177000D01*
X1395501Y1179083D02*
X1395084Y1179499D01*
X1394251D01*
X1393835Y1179083D01*
Y1178666D01*
X1394251Y1178250D01*
X1394668D01*
X1394251D01*
X1393835Y1177833D01*
Y1177417D01*
X1394251Y1177000D01*
X1395084D01*
X1395501Y1177417D01*
X1391335Y1177000D02*
X1393002D01*
X1391335Y1178666D01*
Y1179083D01*
X1391752Y1179499D01*
X1392585D01*
X1393002Y1179083D01*
X1388836Y1177000D02*
X1390502D01*
X1388836Y1178666D01*
Y1179083D01*
X1389253Y1179499D01*
X1390086D01*
X1390502Y1179083D01*
X1388003Y1176583D02*
X1386337D01*
X1385504Y1177000D02*
X1384671D01*
X1385088D01*
Y1179499D01*
X1385504Y1179083D01*
X1382000Y1166000D02*
Y1168499D01*
X1380750D01*
X1380334Y1168083D01*
Y1167250D01*
X1380750Y1166833D01*
X1382000D01*
X1381167D02*
X1380334Y1166000D01*
X1379501Y1168083D02*
X1379084Y1168499D01*
X1378251D01*
X1377835Y1168083D01*
Y1167666D01*
X1378251Y1167250D01*
X1378668D01*
X1378251D01*
X1377835Y1166833D01*
Y1166416D01*
X1378251Y1166000D01*
X1379084D01*
X1379501Y1166416D01*
X1375336Y1166000D02*
X1377002D01*
X1375336Y1167666D01*
Y1168083D01*
X1375752Y1168499D01*
X1376585D01*
X1377002Y1168083D01*
X1374503Y1166000D02*
X1373669D01*
X1374086D01*
Y1168499D01*
X1374503Y1168083D01*
X1372420Y1165583D02*
X1370754D01*
X1369921Y1166000D02*
X1369088D01*
X1369504D01*
Y1168499D01*
X1369921Y1168083D01*
X1361334Y1161083D02*
X1361750Y1161499D01*
X1362583D01*
X1363000Y1161083D01*
Y1159417D01*
X1362583Y1159000D01*
X1361750D01*
X1361334Y1159417D01*
X1360501Y1161083D02*
X1360084Y1161499D01*
X1359251D01*
X1358835Y1161083D01*
Y1160666D01*
X1359251Y1160250D01*
X1359668D01*
X1359251D01*
X1358835Y1159833D01*
Y1159417D01*
X1359251Y1159000D01*
X1360084D01*
X1360501Y1159417D01*
X1356335Y1159000D02*
X1358002D01*
X1356335Y1160666D01*
Y1161083D01*
X1356752Y1161499D01*
X1357585D01*
X1358002Y1161083D01*
X1353836Y1161499D02*
X1355502D01*
Y1160250D01*
X1354669Y1160666D01*
X1354253D01*
X1353836Y1160250D01*
Y1159417D01*
X1354253Y1159000D01*
X1355086D01*
X1355502Y1159417D01*
X1353003Y1158584D02*
X1351337D01*
X1350504Y1159000D02*
X1349671D01*
X1350087D01*
Y1161499D01*
X1350504Y1161083D01*
X1363000Y959000D02*
Y961499D01*
X1361750D01*
X1361334Y961083D01*
Y960250D01*
X1361750Y959833D01*
X1363000D01*
X1362167D02*
X1361334Y959000D01*
X1360501Y961083D02*
X1360084Y961499D01*
X1359251D01*
X1358835Y961083D01*
Y960666D01*
X1359251Y960250D01*
X1359668D01*
X1359251D01*
X1358835Y959833D01*
Y959417D01*
X1359251Y959000D01*
X1360084D01*
X1360501Y959417D01*
X1358002Y959000D02*
X1357169D01*
X1357585D01*
Y961499D01*
X1358002Y961083D01*
X1355919Y959417D02*
X1355502Y959000D01*
X1354669D01*
X1354253Y959417D01*
Y961083D01*
X1354669Y961499D01*
X1355502D01*
X1355919Y961083D01*
Y960666D01*
X1355502Y960250D01*
X1354253D01*
X1353420Y958584D02*
X1351754D01*
X1349254Y959000D02*
X1350921D01*
X1349254Y960666D01*
Y961083D01*
X1349671Y961499D01*
X1350504D01*
X1350921Y961083D01*
X1363000Y969000D02*
Y971499D01*
X1361750D01*
X1361334Y971083D01*
Y970250D01*
X1361750Y969833D01*
X1363000D01*
X1362167D02*
X1361334Y969000D01*
X1360501Y971083D02*
X1360084Y971499D01*
X1359251D01*
X1358835Y971083D01*
Y970666D01*
X1359251Y970250D01*
X1359668D01*
X1359251D01*
X1358835Y969833D01*
Y969417D01*
X1359251Y969000D01*
X1360084D01*
X1360501Y969417D01*
X1358002Y969000D02*
X1357169D01*
X1357585D01*
Y971499D01*
X1358002Y971083D01*
X1355919D02*
X1355502Y971499D01*
X1354669D01*
X1354253Y971083D01*
Y970666D01*
X1354669Y970250D01*
X1354253Y969833D01*
Y969417D01*
X1354669Y969000D01*
X1355502D01*
X1355919Y969417D01*
Y969833D01*
X1355502Y970250D01*
X1355919Y970666D01*
Y971083D01*
X1355502Y970250D02*
X1354669D01*
X1353420Y968584D02*
X1351754D01*
X1349254Y969000D02*
X1350921D01*
X1349254Y970666D01*
Y971083D01*
X1349671Y971499D01*
X1350504D01*
X1350921Y971083D01*
X1249000Y927000D02*
X1251499D01*
Y928250D01*
X1251083Y928666D01*
X1250250D01*
X1249833Y928250D01*
Y927000D01*
Y927833D02*
X1249000Y928666D01*
X1251083Y929499D02*
X1251499Y929916D01*
Y930749D01*
X1251083Y931165D01*
X1250666D01*
X1250250Y930749D01*
Y930332D01*
Y930749D01*
X1249833Y931165D01*
X1249417D01*
X1249000Y930749D01*
Y929916D01*
X1249417Y929499D01*
X1249000Y931998D02*
Y932831D01*
Y932415D01*
X1251499D01*
X1251083Y931998D01*
X1249000Y935747D02*
Y934081D01*
X1250666Y935747D01*
X1251083D01*
X1251499Y935331D01*
Y934498D01*
X1251083Y934081D01*
X1248584Y936580D02*
Y938246D01*
X1249000Y940745D02*
Y939079D01*
X1250666Y940745D01*
X1251083D01*
X1251499Y940329D01*
Y939496D01*
X1251083Y939079D01*
X1249000Y1128000D02*
X1251499D01*
Y1129250D01*
X1251083Y1129666D01*
X1250250D01*
X1249833Y1129250D01*
Y1128000D01*
Y1128833D02*
X1249000Y1129666D01*
X1251083Y1130499D02*
X1251499Y1130916D01*
Y1131749D01*
X1251083Y1132165D01*
X1250666D01*
X1250250Y1131749D01*
Y1131332D01*
Y1131749D01*
X1249833Y1132165D01*
X1249417D01*
X1249000Y1131749D01*
Y1130916D01*
X1249417Y1130499D01*
X1249000Y1132998D02*
Y1133831D01*
Y1133415D01*
X1251499D01*
X1251083Y1132998D01*
X1249000Y1136747D02*
Y1135081D01*
X1250666Y1136747D01*
X1251083D01*
X1251499Y1136331D01*
Y1135498D01*
X1251083Y1135081D01*
X1248584Y1137580D02*
Y1139246D01*
X1249000Y1140079D02*
Y1140912D01*
Y1140496D01*
X1251499D01*
X1251083Y1140079D01*
X1279000Y924000D02*
X1281499D01*
Y925250D01*
X1281083Y925666D01*
X1280250D01*
X1279833Y925250D01*
Y924000D01*
Y924833D02*
X1279000Y925666D01*
X1281083Y926499D02*
X1281499Y926916D01*
Y927749D01*
X1281083Y928165D01*
X1280666D01*
X1280250Y927749D01*
Y927332D01*
Y927749D01*
X1279833Y928165D01*
X1279417D01*
X1279000Y927749D01*
Y926916D01*
X1279417Y926499D01*
X1279000Y928998D02*
Y929831D01*
Y929415D01*
X1281499D01*
X1281083Y928998D01*
X1281499Y932747D02*
X1281083Y931914D01*
X1280250Y931081D01*
X1279417D01*
X1279000Y931498D01*
Y932331D01*
X1279417Y932747D01*
X1279833D01*
X1280250Y932331D01*
Y931081D01*
X1278584Y933580D02*
Y935246D01*
X1279000Y937746D02*
Y936079D01*
X1280666Y937746D01*
X1281083D01*
X1281499Y937329D01*
Y936496D01*
X1281083Y936079D01*
X1284000Y1080000D02*
X1286499D01*
Y1081250D01*
X1286083Y1081666D01*
X1285250D01*
X1284833Y1081250D01*
Y1080000D01*
Y1080833D02*
X1284000Y1081666D01*
X1286083Y1082499D02*
X1286499Y1082916D01*
Y1083749D01*
X1286083Y1084165D01*
X1285666D01*
X1285250Y1083749D01*
Y1083332D01*
Y1083749D01*
X1284833Y1084165D01*
X1284417D01*
X1284000Y1083749D01*
Y1082916D01*
X1284417Y1082499D01*
X1284000Y1084998D02*
Y1085831D01*
Y1085415D01*
X1286499D01*
X1286083Y1084998D01*
X1286499Y1088747D02*
X1286083Y1087914D01*
X1285250Y1087081D01*
X1284417D01*
X1284000Y1087497D01*
Y1088331D01*
X1284417Y1088747D01*
X1284833D01*
X1285250Y1088331D01*
Y1087081D01*
X1283584Y1089580D02*
Y1091246D01*
X1284000Y1092079D02*
Y1092912D01*
Y1092496D01*
X1286499D01*
X1286083Y1092079D01*
X1346000Y1215499D02*
Y1213000D01*
X1344334D01*
X1343501Y1215083D02*
X1343084Y1215499D01*
X1342251D01*
X1341835Y1215083D01*
Y1214666D01*
X1342251Y1214250D01*
X1342668D01*
X1342251D01*
X1341835Y1213833D01*
Y1213417D01*
X1342251Y1213000D01*
X1343084D01*
X1343501Y1213417D01*
X1341002Y1215083D02*
X1340585Y1215499D01*
X1339752D01*
X1339335Y1215083D01*
Y1213417D01*
X1339752Y1213000D01*
X1340585D01*
X1341002Y1213417D01*
Y1215083D01*
X1338503D02*
X1338086Y1215499D01*
X1337253D01*
X1336836Y1215083D01*
Y1213417D01*
X1337253Y1213000D01*
X1338086D01*
X1338503Y1213417D01*
Y1215083D01*
X1336003Y1212583D02*
X1334337D01*
X1333504Y1213000D02*
X1332671D01*
X1333088D01*
Y1215499D01*
X1333504Y1215083D01*
X1334334Y1201083D02*
X1334750Y1201499D01*
X1335583D01*
X1336000Y1201083D01*
Y1199417D01*
X1335583Y1199000D01*
X1334750D01*
X1334334Y1199417D01*
X1333501Y1201083D02*
X1333084Y1201499D01*
X1332251D01*
X1331835Y1201083D01*
Y1200666D01*
X1332251Y1200250D01*
X1332668D01*
X1332251D01*
X1331835Y1199833D01*
Y1199417D01*
X1332251Y1199000D01*
X1333084D01*
X1333501Y1199417D01*
X1329335Y1199000D02*
X1331002D01*
X1329335Y1200666D01*
Y1201083D01*
X1329752Y1201499D01*
X1330585D01*
X1331002Y1201083D01*
X1328502D02*
X1328086Y1201499D01*
X1327253D01*
X1326836Y1201083D01*
Y1199417D01*
X1327253Y1199000D01*
X1328086D01*
X1328502Y1199417D01*
Y1201083D01*
X1326003Y1198584D02*
X1324337D01*
X1323504Y1199000D02*
X1322671D01*
X1323087D01*
Y1201499D01*
X1323504Y1201083D01*
X1317334Y858083D02*
X1317750Y858499D01*
X1318584D01*
X1319000Y858083D01*
Y856416D01*
X1318584Y856000D01*
X1317750D01*
X1317334Y856416D01*
X1316501Y858083D02*
X1316084Y858499D01*
X1315251D01*
X1314835Y858083D01*
Y857666D01*
X1315251Y857250D01*
X1315668D01*
X1315251D01*
X1314835Y856833D01*
Y856416D01*
X1315251Y856000D01*
X1316084D01*
X1316501Y856416D01*
X1312336Y856000D02*
X1314002D01*
X1312336Y857666D01*
Y858083D01*
X1312752Y858499D01*
X1313585D01*
X1314002Y858083D01*
X1311503D02*
X1311086Y858499D01*
X1310253D01*
X1309836Y858083D01*
Y856416D01*
X1310253Y856000D01*
X1311086D01*
X1311503Y856416D01*
Y858083D01*
X1309003Y855583D02*
X1307337D01*
X1304838Y856000D02*
X1306504D01*
X1304838Y857666D01*
Y858083D01*
X1305255Y858499D01*
X1306088D01*
X1306504Y858083D01*
X1370334Y1216083D02*
X1370750Y1216499D01*
X1371584D01*
X1372000Y1216083D01*
Y1214417D01*
X1371584Y1214000D01*
X1370750D01*
X1370334Y1214417D01*
X1369501Y1216083D02*
X1369084Y1216499D01*
X1368251D01*
X1367835Y1216083D01*
Y1215666D01*
X1368251Y1215250D01*
X1368668D01*
X1368251D01*
X1367835Y1214833D01*
Y1214417D01*
X1368251Y1214000D01*
X1369084D01*
X1369501Y1214417D01*
X1365336Y1214000D02*
X1367002D01*
X1365336Y1215666D01*
Y1216083D01*
X1365752Y1216499D01*
X1366585D01*
X1367002Y1216083D01*
X1362836Y1214000D02*
X1364503D01*
X1362836Y1215666D01*
Y1216083D01*
X1363253Y1216499D01*
X1364086D01*
X1364503Y1216083D01*
X1362003Y1213584D02*
X1360337D01*
X1359504Y1214000D02*
X1358671D01*
X1359088D01*
Y1216499D01*
X1359504Y1216083D01*
X1405083Y1189666D02*
X1405499Y1189250D01*
Y1188417D01*
X1405083Y1188000D01*
X1403416D01*
X1403000Y1188417D01*
Y1189250D01*
X1403416Y1189666D01*
X1405083Y1190499D02*
X1405499Y1190916D01*
Y1191749D01*
X1405083Y1192165D01*
X1404666D01*
X1404250Y1191749D01*
Y1191332D01*
Y1191749D01*
X1403833Y1192165D01*
X1403416D01*
X1403000Y1191749D01*
Y1190916D01*
X1403416Y1190499D01*
X1403000Y1194665D02*
Y1192998D01*
X1404666Y1194665D01*
X1405083D01*
X1405499Y1194248D01*
Y1193415D01*
X1405083Y1192998D01*
Y1195498D02*
X1405499Y1195914D01*
Y1196747D01*
X1405083Y1197164D01*
X1404666D01*
X1404250Y1196747D01*
Y1196331D01*
Y1196747D01*
X1403833Y1197164D01*
X1403416D01*
X1403000Y1196747D01*
Y1195914D01*
X1403416Y1195498D01*
X1402583Y1197997D02*
Y1199663D01*
X1403000Y1200496D02*
Y1201329D01*
Y1200912D01*
X1405499D01*
X1405083Y1200496D01*
X1314334Y1089083D02*
X1314750Y1089499D01*
X1315583D01*
X1316000Y1089083D01*
Y1087417D01*
X1315583Y1087000D01*
X1314750D01*
X1314334Y1087417D01*
X1313501Y1089083D02*
X1313084Y1089499D01*
X1312251D01*
X1311835Y1089083D01*
Y1088666D01*
X1312251Y1088250D01*
X1312668D01*
X1312251D01*
X1311835Y1087833D01*
Y1087417D01*
X1312251Y1087000D01*
X1313084D01*
X1313501Y1087417D01*
X1311002Y1087000D02*
X1310169D01*
X1310585D01*
Y1089499D01*
X1311002Y1089083D01*
X1307253Y1089499D02*
X1308086Y1089083D01*
X1308919Y1088250D01*
Y1087417D01*
X1308502Y1087000D01*
X1307669D01*
X1307253Y1087417D01*
Y1087833D01*
X1307669Y1088250D01*
X1308919D01*
X1306420Y1086583D02*
X1304754D01*
X1303921Y1087000D02*
X1303087D01*
X1303504D01*
Y1089499D01*
X1303921Y1089083D01*
X1311334Y933083D02*
X1311750Y933499D01*
X1312583D01*
X1313000Y933083D01*
Y931416D01*
X1312583Y931000D01*
X1311750D01*
X1311334Y931416D01*
X1310501Y933083D02*
X1310084Y933499D01*
X1309251D01*
X1308835Y933083D01*
Y932666D01*
X1309251Y932250D01*
X1309668D01*
X1309251D01*
X1308835Y931833D01*
Y931416D01*
X1309251Y931000D01*
X1310084D01*
X1310501Y931416D01*
X1308002Y931000D02*
X1307169D01*
X1307585D01*
Y933499D01*
X1308002Y933083D01*
X1304253Y933499D02*
X1305086Y933083D01*
X1305919Y932250D01*
Y931416D01*
X1305502Y931000D01*
X1304669D01*
X1304253Y931416D01*
Y931833D01*
X1304669Y932250D01*
X1305919D01*
X1303420Y930583D02*
X1301754D01*
X1299254Y931000D02*
X1300921D01*
X1299254Y932666D01*
Y933083D01*
X1299671Y933499D01*
X1300504D01*
X1300921Y933083D01*
X1301334Y1136083D02*
X1301750Y1136499D01*
X1302583D01*
X1303000Y1136083D01*
Y1134417D01*
X1302583Y1134000D01*
X1301750D01*
X1301334Y1134417D01*
X1300501Y1136083D02*
X1300084Y1136499D01*
X1299251D01*
X1298835Y1136083D01*
Y1135666D01*
X1299251Y1135250D01*
X1299668D01*
X1299251D01*
X1298835Y1134833D01*
Y1134417D01*
X1299251Y1134000D01*
X1300084D01*
X1300501Y1134417D01*
X1298002Y1134000D02*
X1297169D01*
X1297585D01*
Y1136499D01*
X1298002Y1136083D01*
X1294253Y1136499D02*
X1295919D01*
Y1135250D01*
X1295086Y1135666D01*
X1294669D01*
X1294253Y1135250D01*
Y1134417D01*
X1294669Y1134000D01*
X1295502D01*
X1295919Y1134417D01*
X1293420Y1133584D02*
X1291754D01*
X1290921Y1134000D02*
X1290088D01*
X1290504D01*
Y1136499D01*
X1290921Y1136083D01*
X1287334Y981083D02*
X1287750Y981499D01*
X1288584D01*
X1289000Y981083D01*
Y979417D01*
X1288584Y979000D01*
X1287750D01*
X1287334Y979417D01*
X1286501Y981083D02*
X1286084Y981499D01*
X1285251D01*
X1284835Y981083D01*
Y980666D01*
X1285251Y980250D01*
X1285668D01*
X1285251D01*
X1284835Y979833D01*
Y979417D01*
X1285251Y979000D01*
X1286084D01*
X1286501Y979417D01*
X1284002Y979000D02*
X1283169D01*
X1283585D01*
Y981499D01*
X1284002Y981083D01*
X1280253Y981499D02*
X1281919D01*
Y980250D01*
X1281086Y980666D01*
X1280669D01*
X1280253Y980250D01*
Y979417D01*
X1280669Y979000D01*
X1281502D01*
X1281919Y979417D01*
X1279420Y978584D02*
X1277754D01*
X1275255Y979000D02*
X1276921D01*
X1275255Y980666D01*
Y981083D01*
X1275671Y981499D01*
X1276504D01*
X1276921Y981083D01*
X1317083Y1051666D02*
X1317499Y1051250D01*
Y1050416D01*
X1317083Y1050000D01*
X1315417D01*
X1315000Y1050416D01*
Y1051250D01*
X1315417Y1051666D01*
X1317083Y1052499D02*
X1317499Y1052916D01*
Y1053749D01*
X1317083Y1054165D01*
X1316666D01*
X1316250Y1053749D01*
Y1053332D01*
Y1053749D01*
X1315833Y1054165D01*
X1315417D01*
X1315000Y1053749D01*
Y1052916D01*
X1315417Y1052499D01*
X1315000Y1054998D02*
Y1055831D01*
Y1055415D01*
X1317499D01*
X1317083Y1054998D01*
Y1057081D02*
X1317499Y1057498D01*
Y1058331D01*
X1317083Y1058747D01*
X1316666D01*
X1316250Y1058331D01*
X1315833Y1058747D01*
X1315417D01*
X1315000Y1058331D01*
Y1057498D01*
X1315417Y1057081D01*
X1315833D01*
X1316250Y1057498D01*
X1316666Y1057081D01*
X1317083D01*
X1316250Y1057498D02*
Y1058331D01*
X1314583Y1059580D02*
Y1061246D01*
X1315000Y1062079D02*
Y1062913D01*
Y1062496D01*
X1317499D01*
X1317083Y1062079D01*
X1280334Y1183083D02*
X1280750Y1183499D01*
X1281584D01*
X1282000Y1183083D01*
Y1181416D01*
X1281584Y1181000D01*
X1280750D01*
X1280334Y1181416D01*
X1279501Y1183083D02*
X1279084Y1183499D01*
X1278251D01*
X1277835Y1183083D01*
Y1182666D01*
X1278251Y1182250D01*
X1278668D01*
X1278251D01*
X1277835Y1181833D01*
Y1181416D01*
X1278251Y1181000D01*
X1279084D01*
X1279501Y1181416D01*
X1277002Y1181000D02*
X1276169D01*
X1276585D01*
Y1183499D01*
X1277002Y1183083D01*
X1274919Y1183499D02*
X1273253D01*
Y1183083D01*
X1274919Y1181416D01*
Y1181000D01*
X1272420Y1180583D02*
X1270754D01*
X1269921Y1181000D02*
X1269088D01*
X1269504D01*
Y1183499D01*
X1269921Y1183083D01*
X1334334Y1189083D02*
X1334750Y1189499D01*
X1335583D01*
X1336000Y1189083D01*
Y1187417D01*
X1335583Y1187000D01*
X1334750D01*
X1334334Y1187417D01*
X1333501Y1189083D02*
X1333084Y1189499D01*
X1332251D01*
X1331835Y1189083D01*
Y1188666D01*
X1332251Y1188250D01*
X1332668D01*
X1332251D01*
X1331835Y1187833D01*
Y1187417D01*
X1332251Y1187000D01*
X1333084D01*
X1333501Y1187417D01*
X1329335Y1187000D02*
X1331002D01*
X1329335Y1188666D01*
Y1189083D01*
X1329752Y1189499D01*
X1330585D01*
X1331002Y1189083D01*
X1328502Y1187000D02*
X1327669D01*
X1328086D01*
Y1189499D01*
X1328502Y1189083D01*
X1326420Y1186583D02*
X1324754D01*
X1323921Y1187000D02*
X1323087D01*
X1323504D01*
Y1189499D01*
X1323921Y1189083D01*
X1332000Y1075000D02*
X1334499D01*
Y1076250D01*
X1334083Y1076666D01*
X1333250D01*
X1332833Y1076250D01*
Y1075000D01*
Y1075833D02*
X1332000Y1076666D01*
X1334083Y1077499D02*
X1334499Y1077916D01*
Y1078749D01*
X1334083Y1079165D01*
X1333666D01*
X1333250Y1078749D01*
Y1078332D01*
Y1078749D01*
X1332833Y1079165D01*
X1332417D01*
X1332000Y1078749D01*
Y1077916D01*
X1332417Y1077499D01*
X1334083Y1079998D02*
X1334499Y1080415D01*
Y1081248D01*
X1334083Y1081665D01*
X1332417D01*
X1332000Y1081248D01*
Y1080415D01*
X1332417Y1079998D01*
X1334083D01*
X1332417Y1082498D02*
X1332000Y1082914D01*
Y1083747D01*
X1332417Y1084164D01*
X1334083D01*
X1334499Y1083747D01*
Y1082914D01*
X1334083Y1082498D01*
X1333666D01*
X1333250Y1082914D01*
Y1084164D01*
X1331584Y1084997D02*
Y1086663D01*
X1332000Y1087496D02*
Y1088329D01*
Y1087913D01*
X1334499D01*
X1334083Y1087496D01*
X1338000Y922000D02*
Y924499D01*
X1336750D01*
X1336334Y924083D01*
Y923250D01*
X1336750Y922833D01*
X1338000D01*
X1337167D02*
X1336334Y922000D01*
X1335501Y924083D02*
X1335084Y924499D01*
X1334251D01*
X1333835Y924083D01*
Y923666D01*
X1334251Y923250D01*
X1334668D01*
X1334251D01*
X1333835Y922833D01*
Y922417D01*
X1334251Y922000D01*
X1335084D01*
X1335501Y922417D01*
X1333002Y924083D02*
X1332585Y924499D01*
X1331752D01*
X1331335Y924083D01*
Y922417D01*
X1331752Y922000D01*
X1332585D01*
X1333002Y922417D01*
Y924083D01*
X1330502Y922417D02*
X1330086Y922000D01*
X1329253D01*
X1328836Y922417D01*
Y924083D01*
X1329253Y924499D01*
X1330086D01*
X1330502Y924083D01*
Y923666D01*
X1330086Y923250D01*
X1328836D01*
X1328003Y921583D02*
X1326337D01*
X1323838Y922000D02*
X1325504D01*
X1323838Y923666D01*
Y924083D01*
X1324254Y924499D01*
X1325087D01*
X1325504Y924083D01*
X1342000Y1075000D02*
X1344499D01*
Y1076250D01*
X1344083Y1076666D01*
X1343250D01*
X1342833Y1076250D01*
Y1075000D01*
Y1075833D02*
X1342000Y1076666D01*
X1344083Y1077499D02*
X1344499Y1077916D01*
Y1078749D01*
X1344083Y1079165D01*
X1343666D01*
X1343250Y1078749D01*
Y1078332D01*
Y1078749D01*
X1342833Y1079165D01*
X1342417D01*
X1342000Y1078749D01*
Y1077916D01*
X1342417Y1077499D01*
X1342000Y1079998D02*
Y1080831D01*
Y1080415D01*
X1344499D01*
X1344083Y1079998D01*
Y1082081D02*
X1344499Y1082498D01*
Y1083331D01*
X1344083Y1083747D01*
X1342417D01*
X1342000Y1083331D01*
Y1082498D01*
X1342417Y1082081D01*
X1344083D01*
X1341584Y1084580D02*
Y1086246D01*
X1342000Y1087079D02*
Y1087913D01*
Y1087496D01*
X1344499D01*
X1344083Y1087079D01*
X1338000Y932000D02*
Y934499D01*
X1336750D01*
X1336334Y934083D01*
Y933250D01*
X1336750Y932833D01*
X1338000D01*
X1337167D02*
X1336334Y932000D01*
X1335501Y934083D02*
X1335084Y934499D01*
X1334251D01*
X1333835Y934083D01*
Y933666D01*
X1334251Y933250D01*
X1334668D01*
X1334251D01*
X1333835Y932833D01*
Y932417D01*
X1334251Y932000D01*
X1335084D01*
X1335501Y932417D01*
X1333002Y932000D02*
X1332169D01*
X1332585D01*
Y934499D01*
X1333002Y934083D01*
X1330919D02*
X1330502Y934499D01*
X1329669D01*
X1329253Y934083D01*
Y932417D01*
X1329669Y932000D01*
X1330502D01*
X1330919Y932417D01*
Y934083D01*
X1328420Y931583D02*
X1326754D01*
X1324254Y932000D02*
X1325921D01*
X1324254Y933666D01*
Y934083D01*
X1324671Y934499D01*
X1325504D01*
X1325921Y934083D01*
X1275000Y1079000D02*
X1277499D01*
Y1080250D01*
X1277083Y1080666D01*
X1276250D01*
X1275833Y1080250D01*
Y1079000D01*
Y1079833D02*
X1275000Y1080666D01*
X1277083Y1081499D02*
X1277499Y1081916D01*
Y1082749D01*
X1277083Y1083165D01*
X1276666D01*
X1276250Y1082749D01*
Y1082332D01*
Y1082749D01*
X1275833Y1083165D01*
X1275416D01*
X1275000Y1082749D01*
Y1081916D01*
X1275416Y1081499D01*
X1275000Y1083998D02*
Y1084831D01*
Y1084415D01*
X1277499D01*
X1277083Y1083998D01*
Y1086081D02*
X1277499Y1086497D01*
Y1087331D01*
X1277083Y1087747D01*
X1276666D01*
X1276250Y1087331D01*
Y1086914D01*
Y1087331D01*
X1275833Y1087747D01*
X1275416D01*
X1275000Y1087331D01*
Y1086497D01*
X1275416Y1086081D01*
X1274584Y1088580D02*
Y1090246D01*
X1275000Y1091079D02*
Y1091912D01*
Y1091496D01*
X1277499D01*
X1277083Y1091079D01*
X1269000Y924000D02*
X1271499D01*
Y925250D01*
X1271083Y925666D01*
X1270250D01*
X1269833Y925250D01*
Y924000D01*
Y924833D02*
X1269000Y925666D01*
X1271083Y926499D02*
X1271499Y926916D01*
Y927749D01*
X1271083Y928165D01*
X1270666D01*
X1270250Y927749D01*
Y927332D01*
Y927749D01*
X1269833Y928165D01*
X1269417D01*
X1269000Y927749D01*
Y926916D01*
X1269417Y926499D01*
X1269000Y928998D02*
Y929831D01*
Y929415D01*
X1271499D01*
X1271083Y928998D01*
Y931081D02*
X1271499Y931498D01*
Y932331D01*
X1271083Y932747D01*
X1270666D01*
X1270250Y932331D01*
Y931914D01*
Y932331D01*
X1269833Y932747D01*
X1269417D01*
X1269000Y932331D01*
Y931498D01*
X1269417Y931081D01*
X1268584Y933580D02*
Y935246D01*
X1269000Y937746D02*
Y936079D01*
X1270666Y937746D01*
X1271083D01*
X1271499Y937329D01*
Y936496D01*
X1271083Y936079D01*
X1261000Y1098000D02*
X1263499D01*
Y1099250D01*
X1263083Y1099666D01*
X1262250D01*
X1261833Y1099250D01*
Y1098000D01*
Y1098833D02*
X1261000Y1099666D01*
X1263083Y1100499D02*
X1263499Y1100916D01*
Y1101749D01*
X1263083Y1102165D01*
X1262666D01*
X1262250Y1101749D01*
Y1101332D01*
Y1101749D01*
X1261833Y1102165D01*
X1261416D01*
X1261000Y1101749D01*
Y1100916D01*
X1261416Y1100499D01*
X1261000Y1102998D02*
Y1103831D01*
Y1103415D01*
X1263499D01*
X1263083Y1102998D01*
X1261000Y1105081D02*
Y1105914D01*
Y1105498D01*
X1263499D01*
X1263083Y1105081D01*
X1260583Y1107164D02*
Y1108830D01*
X1261000Y1109663D02*
Y1110496D01*
Y1110079D01*
X1263499D01*
X1263083Y1109663D01*
X1261000Y956000D02*
X1263499D01*
Y957250D01*
X1263083Y957666D01*
X1262250D01*
X1261833Y957250D01*
Y956000D01*
Y956833D02*
X1261000Y957666D01*
X1263083Y958499D02*
X1263499Y958916D01*
Y959749D01*
X1263083Y960165D01*
X1262666D01*
X1262250Y959749D01*
Y959332D01*
Y959749D01*
X1261833Y960165D01*
X1261416D01*
X1261000Y959749D01*
Y958916D01*
X1261416Y958499D01*
X1261000Y960998D02*
Y961831D01*
Y961415D01*
X1263499D01*
X1263083Y960998D01*
X1261000Y963081D02*
Y963914D01*
Y963497D01*
X1263499D01*
X1263083Y963081D01*
X1260583Y965164D02*
Y966830D01*
X1261000Y969329D02*
Y967663D01*
X1262666Y969329D01*
X1263083D01*
X1263499Y968912D01*
Y968079D01*
X1263083Y967663D01*
X1344000Y1094000D02*
Y1096499D01*
X1342750D01*
X1342334Y1096083D01*
Y1095250D01*
X1342750Y1094833D01*
X1344000D01*
X1343167D02*
X1342334Y1094000D01*
X1341501Y1096083D02*
X1341084Y1096499D01*
X1340251D01*
X1339835Y1096083D01*
Y1095666D01*
X1340251Y1095250D01*
X1340668D01*
X1340251D01*
X1339835Y1094833D01*
Y1094417D01*
X1340251Y1094000D01*
X1341084D01*
X1341501Y1094417D01*
X1339002Y1094000D02*
X1338169D01*
X1338585D01*
Y1096499D01*
X1339002Y1096083D01*
X1335253Y1096499D02*
X1336919D01*
Y1095250D01*
X1336086Y1095666D01*
X1335669D01*
X1335253Y1095250D01*
Y1094417D01*
X1335669Y1094000D01*
X1336503D01*
X1336919Y1094417D01*
X1334420Y1093584D02*
X1332754D01*
X1331921Y1094000D02*
X1331088D01*
X1331504D01*
Y1096499D01*
X1331921Y1096083D01*
X1354000Y951000D02*
Y953499D01*
X1352750D01*
X1352334Y953083D01*
Y952250D01*
X1352750Y951833D01*
X1354000D01*
X1353167D02*
X1352334Y951000D01*
X1351501Y953083D02*
X1351084Y953499D01*
X1350251D01*
X1349835Y953083D01*
Y952666D01*
X1350251Y952250D01*
X1350668D01*
X1350251D01*
X1349835Y951833D01*
Y951416D01*
X1350251Y951000D01*
X1351084D01*
X1351501Y951416D01*
X1349002Y951000D02*
X1348169D01*
X1348585D01*
Y953499D01*
X1349002Y953083D01*
X1345253Y953499D02*
X1346919D01*
Y952250D01*
X1346086Y952666D01*
X1345669D01*
X1345253Y952250D01*
Y951416D01*
X1345669Y951000D01*
X1346502D01*
X1346919Y951416D01*
X1344420Y950583D02*
X1342754D01*
X1340255Y951000D02*
X1341921D01*
X1340255Y952666D01*
Y953083D01*
X1340671Y953499D01*
X1341504D01*
X1341921Y953083D01*
X1370334Y1204083D02*
X1370750Y1204499D01*
X1371584D01*
X1372000Y1204083D01*
Y1202417D01*
X1371584Y1202000D01*
X1370750D01*
X1370334Y1202417D01*
X1369501Y1204083D02*
X1369084Y1204499D01*
X1368251D01*
X1367835Y1204083D01*
Y1203666D01*
X1368251Y1203250D01*
X1368668D01*
X1368251D01*
X1367835Y1202833D01*
Y1202417D01*
X1368251Y1202000D01*
X1369084D01*
X1369501Y1202417D01*
X1365336Y1202000D02*
X1367002D01*
X1365336Y1203666D01*
Y1204083D01*
X1365752Y1204499D01*
X1366585D01*
X1367002Y1204083D01*
X1363253Y1202000D02*
Y1204499D01*
X1364503Y1203250D01*
X1362836D01*
X1362003Y1201583D02*
X1360337D01*
X1359504Y1202000D02*
X1358671D01*
X1359088D01*
Y1204499D01*
X1359504Y1204083D01*
X1362000Y1106000D02*
Y1108499D01*
X1360750D01*
X1360334Y1108083D01*
Y1107250D01*
X1360750Y1106833D01*
X1362000D01*
X1361167D02*
X1360334Y1106000D01*
X1359501Y1108083D02*
X1359084Y1108499D01*
X1358251D01*
X1357835Y1108083D01*
Y1107666D01*
X1358251Y1107250D01*
X1358668D01*
X1358251D01*
X1357835Y1106833D01*
Y1106416D01*
X1358251Y1106000D01*
X1359084D01*
X1359501Y1106416D01*
X1357002Y1106000D02*
X1356169D01*
X1356585D01*
Y1108499D01*
X1357002Y1108083D01*
X1354919D02*
X1354502Y1108499D01*
X1353669D01*
X1353253Y1108083D01*
Y1107666D01*
X1353669Y1107250D01*
X1353253Y1106833D01*
Y1106416D01*
X1353669Y1106000D01*
X1354502D01*
X1354919Y1106416D01*
Y1106833D01*
X1354502Y1107250D01*
X1354919Y1107666D01*
Y1108083D01*
X1354502Y1107250D02*
X1353669D01*
X1352420Y1105583D02*
X1350754D01*
X1349921Y1106000D02*
X1349088D01*
X1349504D01*
Y1108499D01*
X1349921Y1108083D01*
X1362000Y1097000D02*
Y1099499D01*
X1360750D01*
X1360334Y1099083D01*
Y1098250D01*
X1360750Y1097833D01*
X1362000D01*
X1361167D02*
X1360334Y1097000D01*
X1359501Y1099083D02*
X1359084Y1099499D01*
X1358251D01*
X1357835Y1099083D01*
Y1098666D01*
X1358251Y1098250D01*
X1358668D01*
X1358251D01*
X1357835Y1097833D01*
Y1097417D01*
X1358251Y1097000D01*
X1359084D01*
X1359501Y1097417D01*
X1357002Y1097000D02*
X1356169D01*
X1356585D01*
Y1099499D01*
X1357002Y1099083D01*
X1354919Y1097417D02*
X1354502Y1097000D01*
X1353669D01*
X1353253Y1097417D01*
Y1099083D01*
X1353669Y1099499D01*
X1354502D01*
X1354919Y1099083D01*
Y1098666D01*
X1354502Y1098250D01*
X1353253D01*
X1352420Y1096583D02*
X1350754D01*
X1349921Y1097000D02*
X1349088D01*
X1349504D01*
Y1099499D01*
X1349921Y1099083D01*
X1335083Y1106666D02*
X1335499Y1106250D01*
Y1105416D01*
X1335083Y1105000D01*
X1333416D01*
X1333000Y1105416D01*
Y1106250D01*
X1333416Y1106666D01*
X1335083Y1107499D02*
X1335499Y1107916D01*
Y1108749D01*
X1335083Y1109165D01*
X1334666D01*
X1334250Y1108749D01*
Y1108332D01*
Y1108749D01*
X1333833Y1109165D01*
X1333416D01*
X1333000Y1108749D01*
Y1107916D01*
X1333416Y1107499D01*
X1333000Y1109998D02*
Y1110831D01*
Y1110415D01*
X1335499D01*
X1335083Y1109998D01*
Y1112081D02*
X1335499Y1112497D01*
Y1113331D01*
X1335083Y1113747D01*
X1334666D01*
X1334250Y1113331D01*
Y1112914D01*
Y1113331D01*
X1333833Y1113747D01*
X1333416D01*
X1333000Y1113331D01*
Y1112497D01*
X1333416Y1112081D01*
X1332583Y1114580D02*
Y1116246D01*
X1333000Y1117079D02*
Y1117912D01*
Y1117496D01*
X1335499D01*
X1335083Y1117079D01*
Y950666D02*
X1335499Y950250D01*
Y949417D01*
X1335083Y949000D01*
X1333416D01*
X1333000Y949417D01*
Y950250D01*
X1333416Y950666D01*
X1335083Y951499D02*
X1335499Y951916D01*
Y952749D01*
X1335083Y953165D01*
X1334666D01*
X1334250Y952749D01*
Y952332D01*
Y952749D01*
X1333833Y953165D01*
X1333416D01*
X1333000Y952749D01*
Y951916D01*
X1333416Y951499D01*
X1333000Y953998D02*
Y954831D01*
Y954415D01*
X1335499D01*
X1335083Y953998D01*
Y956081D02*
X1335499Y956498D01*
Y957331D01*
X1335083Y957747D01*
X1334666D01*
X1334250Y957331D01*
Y956914D01*
Y957331D01*
X1333833Y957747D01*
X1333416D01*
X1333000Y957331D01*
Y956498D01*
X1333416Y956081D01*
X1332583Y958580D02*
Y960246D01*
X1333000Y962746D02*
Y961079D01*
X1334666Y962746D01*
X1335083D01*
X1335499Y962329D01*
Y961496D01*
X1335083Y961079D01*
X1266083Y1078666D02*
X1266499Y1078250D01*
Y1077417D01*
X1266083Y1077000D01*
X1264417D01*
X1264000Y1077417D01*
Y1078250D01*
X1264417Y1078666D01*
X1266083Y1079499D02*
X1266499Y1079916D01*
Y1080749D01*
X1266083Y1081165D01*
X1265666D01*
X1265250Y1080749D01*
Y1080332D01*
Y1080749D01*
X1264833Y1081165D01*
X1264417D01*
X1264000Y1080749D01*
Y1079916D01*
X1264417Y1079499D01*
X1264000Y1081998D02*
Y1082831D01*
Y1082415D01*
X1266499D01*
X1266083Y1081998D01*
X1264000Y1085331D02*
X1266499D01*
X1265250Y1084081D01*
Y1085747D01*
X1263584Y1086580D02*
Y1088246D01*
X1264000Y1089079D02*
Y1089912D01*
Y1089496D01*
X1266499D01*
X1266083Y1089079D01*
X1260083Y927666D02*
X1260499Y927250D01*
Y926416D01*
X1260083Y926000D01*
X1258417D01*
X1258000Y926416D01*
Y927250D01*
X1258417Y927666D01*
X1260083Y928499D02*
X1260499Y928916D01*
Y929749D01*
X1260083Y930165D01*
X1259666D01*
X1259250Y929749D01*
Y929332D01*
Y929749D01*
X1258833Y930165D01*
X1258417D01*
X1258000Y929749D01*
Y928916D01*
X1258417Y928499D01*
X1258000Y930998D02*
Y931831D01*
Y931415D01*
X1260499D01*
X1260083Y930998D01*
X1258000Y934331D02*
X1260499D01*
X1259250Y933081D01*
Y934747D01*
X1257583Y935580D02*
Y937246D01*
X1258000Y939745D02*
Y938079D01*
X1259666Y939745D01*
X1260083D01*
X1260499Y939329D01*
Y938496D01*
X1260083Y938079D01*
X1039334Y1234083D02*
X1039750Y1234499D01*
X1040583D01*
X1041000Y1234083D01*
Y1232417D01*
X1040583Y1232000D01*
X1039750D01*
X1039334Y1232417D01*
X1038501Y1234499D02*
X1036835D01*
Y1234083D01*
X1038501Y1232417D01*
Y1232000D01*
X1036002Y1234083D02*
X1035585Y1234499D01*
X1034752D01*
X1034335Y1234083D01*
Y1232417D01*
X1034752Y1232000D01*
X1035585D01*
X1036002Y1232417D01*
Y1234083D01*
X1033503D02*
X1033086Y1234499D01*
X1032253D01*
X1031836Y1234083D01*
Y1232417D01*
X1032253Y1232000D01*
X1033086D01*
X1033503Y1232417D01*
Y1234083D01*
X1095334Y1142083D02*
X1095750Y1142499D01*
X1096583D01*
X1097000Y1142083D01*
Y1140416D01*
X1096583Y1140000D01*
X1095750D01*
X1095334Y1140416D01*
X1094501Y1142499D02*
X1092835D01*
Y1142083D01*
X1094501Y1140416D01*
Y1140000D01*
X1092002Y1142083D02*
X1091585Y1142499D01*
X1090752D01*
X1090335Y1142083D01*
Y1140416D01*
X1090752Y1140000D01*
X1091585D01*
X1092002Y1140416D01*
Y1142083D01*
X1089502Y1140000D02*
X1088669D01*
X1089086D01*
Y1142499D01*
X1089502Y1142083D01*
X1008083Y1101666D02*
X1008499Y1101250D01*
Y1100416D01*
X1008083Y1100000D01*
X1006416D01*
X1006000Y1100416D01*
Y1101250D01*
X1006416Y1101666D01*
X1008499Y1104165D02*
X1008083Y1103332D01*
X1007250Y1102499D01*
X1006416D01*
X1006000Y1102916D01*
Y1103749D01*
X1006416Y1104165D01*
X1006833D01*
X1007250Y1103749D01*
Y1102499D01*
X1008083Y1104998D02*
X1008499Y1105415D01*
Y1106248D01*
X1008083Y1106665D01*
X1006416D01*
X1006000Y1106248D01*
Y1105415D01*
X1006416Y1104998D01*
X1008083D01*
Y1107498D02*
X1008499Y1107914D01*
Y1108747D01*
X1008083Y1109164D01*
X1006416D01*
X1006000Y1108747D01*
Y1107914D01*
X1006416Y1107498D01*
X1008083D01*
X1005583Y1109997D02*
Y1111663D01*
X1006000Y1112496D02*
Y1113329D01*
Y1112913D01*
X1008499D01*
X1008083Y1112496D01*
X999083Y1031666D02*
X999499Y1031250D01*
Y1030416D01*
X999083Y1030000D01*
X997417D01*
X997000Y1030416D01*
Y1031250D01*
X997417Y1031666D01*
X999499Y1034165D02*
X999083Y1033332D01*
X998250Y1032499D01*
X997417D01*
X997000Y1032916D01*
Y1033749D01*
X997417Y1034165D01*
X997833D01*
X998250Y1033749D01*
Y1032499D01*
X999083Y1034998D02*
X999499Y1035415D01*
Y1036248D01*
X999083Y1036665D01*
X997417D01*
X997000Y1036248D01*
Y1035415D01*
X997417Y1034998D01*
X999083D01*
Y1037497D02*
X999499Y1037914D01*
Y1038747D01*
X999083Y1039164D01*
X997417D01*
X997000Y1038747D01*
Y1037914D01*
X997417Y1037497D01*
X999083D01*
X996583Y1039997D02*
Y1041663D01*
X997000Y1044162D02*
Y1042496D01*
X998666Y1044162D01*
X999083D01*
X999499Y1043745D01*
Y1042912D01*
X999083Y1042496D01*
X1007083Y955666D02*
X1007499Y955250D01*
Y954417D01*
X1007083Y954000D01*
X1005416D01*
X1005000Y954417D01*
Y955250D01*
X1005416Y955666D01*
X1007499Y958165D02*
X1007083Y957332D01*
X1006250Y956499D01*
X1005416D01*
X1005000Y956916D01*
Y957749D01*
X1005416Y958165D01*
X1005833D01*
X1006250Y957749D01*
Y956499D01*
X1007083Y958998D02*
X1007499Y959415D01*
Y960248D01*
X1007083Y960665D01*
X1005416D01*
X1005000Y960248D01*
Y959415D01*
X1005416Y958998D01*
X1007083D01*
Y961497D02*
X1007499Y961914D01*
Y962747D01*
X1007083Y963164D01*
X1005416D01*
X1005000Y962747D01*
Y961914D01*
X1005416Y961497D01*
X1007083D01*
X1004584Y963997D02*
Y965663D01*
X1007083Y966496D02*
X1007499Y966912D01*
Y967746D01*
X1007083Y968162D01*
X1006666D01*
X1006250Y967746D01*
Y967329D01*
Y967746D01*
X1005833Y968162D01*
X1005416D01*
X1005000Y967746D01*
Y966912D01*
X1005416Y966496D01*
X1049000Y1107000D02*
X1051499D01*
Y1108250D01*
X1051083Y1108666D01*
X1050250D01*
X1049833Y1108250D01*
Y1107000D01*
Y1107833D02*
X1049000Y1108666D01*
X1051499Y1111165D02*
X1051083Y1110332D01*
X1050250Y1109499D01*
X1049417D01*
X1049000Y1109916D01*
Y1110749D01*
X1049417Y1111165D01*
X1049833D01*
X1050250Y1110749D01*
Y1109499D01*
X1051083Y1111998D02*
X1051499Y1112415D01*
Y1113248D01*
X1051083Y1113664D01*
X1049417D01*
X1049000Y1113248D01*
Y1112415D01*
X1049417Y1111998D01*
X1051083D01*
X1049000Y1114498D02*
Y1115331D01*
Y1114914D01*
X1051499D01*
X1051083Y1114498D01*
X1048584Y1116580D02*
Y1118246D01*
X1049000Y1119079D02*
Y1119912D01*
Y1119496D01*
X1051499D01*
X1051083Y1119079D01*
X1039000Y1039000D02*
X1041499D01*
Y1040250D01*
X1041083Y1040666D01*
X1040250D01*
X1039833Y1040250D01*
Y1039000D01*
Y1039833D02*
X1039000Y1040666D01*
X1041499Y1043165D02*
X1041083Y1042332D01*
X1040250Y1041499D01*
X1039417D01*
X1039000Y1041916D01*
Y1042749D01*
X1039417Y1043165D01*
X1039833D01*
X1040250Y1042749D01*
Y1041499D01*
X1041083Y1043998D02*
X1041499Y1044415D01*
Y1045248D01*
X1041083Y1045665D01*
X1039417D01*
X1039000Y1045248D01*
Y1044415D01*
X1039417Y1043998D01*
X1041083D01*
X1039000Y1046498D02*
Y1047331D01*
Y1046914D01*
X1041499D01*
X1041083Y1046498D01*
X1038584Y1048580D02*
Y1050246D01*
X1039000Y1052746D02*
Y1051079D01*
X1040666Y1052746D01*
X1041083D01*
X1041499Y1052329D01*
Y1051496D01*
X1041083Y1051079D01*
X1047000Y957000D02*
X1049499D01*
Y958250D01*
X1049083Y958666D01*
X1048250D01*
X1047833Y958250D01*
Y957000D01*
Y957833D02*
X1047000Y958666D01*
X1049499Y961165D02*
X1049083Y960332D01*
X1048250Y959499D01*
X1047417D01*
X1047000Y959916D01*
Y960749D01*
X1047417Y961165D01*
X1047833D01*
X1048250Y960749D01*
Y959499D01*
X1049083Y961998D02*
X1049499Y962415D01*
Y963248D01*
X1049083Y963664D01*
X1047417D01*
X1047000Y963248D01*
Y962415D01*
X1047417Y961998D01*
X1049083D01*
X1047000Y964498D02*
Y965331D01*
Y964914D01*
X1049499D01*
X1049083Y964498D01*
X1046583Y966580D02*
Y968246D01*
X1049083Y969079D02*
X1049499Y969496D01*
Y970329D01*
X1049083Y970745D01*
X1048666D01*
X1048250Y970329D01*
Y969912D01*
Y970329D01*
X1047833Y970745D01*
X1047417D01*
X1047000Y970329D01*
Y969496D01*
X1047417Y969079D01*
X1049000Y1092000D02*
X1051499D01*
Y1093250D01*
X1051083Y1093666D01*
X1050250D01*
X1049833Y1093250D01*
Y1092000D01*
Y1092833D02*
X1049000Y1093666D01*
X1051499Y1096165D02*
X1051083Y1095332D01*
X1050250Y1094499D01*
X1049417D01*
X1049000Y1094916D01*
Y1095749D01*
X1049417Y1096165D01*
X1049833D01*
X1050250Y1095749D01*
Y1094499D01*
X1051083Y1096998D02*
X1051499Y1097415D01*
Y1098248D01*
X1051083Y1098664D01*
X1049417D01*
X1049000Y1098248D01*
Y1097415D01*
X1049417Y1096998D01*
X1051083D01*
Y1099498D02*
X1051499Y1099914D01*
Y1100747D01*
X1051083Y1101164D01*
X1050666D01*
X1050250Y1100747D01*
Y1100331D01*
Y1100747D01*
X1049833Y1101164D01*
X1049417D01*
X1049000Y1100747D01*
Y1099914D01*
X1049417Y1099498D01*
X1048584Y1101997D02*
Y1103663D01*
X1049000Y1104496D02*
Y1105329D01*
Y1104912D01*
X1051499D01*
X1051083Y1104496D01*
X1039000Y1022000D02*
X1041499D01*
Y1023250D01*
X1041083Y1023666D01*
X1040250D01*
X1039833Y1023250D01*
Y1022000D01*
Y1022833D02*
X1039000Y1023666D01*
X1041499Y1026165D02*
X1041083Y1025332D01*
X1040250Y1024499D01*
X1039417D01*
X1039000Y1024916D01*
Y1025749D01*
X1039417Y1026165D01*
X1039833D01*
X1040250Y1025749D01*
Y1024499D01*
X1041083Y1026998D02*
X1041499Y1027415D01*
Y1028248D01*
X1041083Y1028664D01*
X1039417D01*
X1039000Y1028248D01*
Y1027415D01*
X1039417Y1026998D01*
X1041083D01*
Y1029498D02*
X1041499Y1029914D01*
Y1030747D01*
X1041083Y1031164D01*
X1040666D01*
X1040250Y1030747D01*
Y1030331D01*
Y1030747D01*
X1039833Y1031164D01*
X1039417D01*
X1039000Y1030747D01*
Y1029914D01*
X1039417Y1029498D01*
X1038584Y1031997D02*
Y1033663D01*
X1039000Y1036162D02*
Y1034496D01*
X1040666Y1036162D01*
X1041083D01*
X1041499Y1035745D01*
Y1034912D01*
X1041083Y1034496D01*
X1047000Y941000D02*
X1049499D01*
Y942250D01*
X1049083Y942666D01*
X1048250D01*
X1047833Y942250D01*
Y941000D01*
Y941833D02*
X1047000Y942666D01*
X1049499Y945165D02*
X1049083Y944332D01*
X1048250Y943499D01*
X1047417D01*
X1047000Y943916D01*
Y944749D01*
X1047417Y945165D01*
X1047833D01*
X1048250Y944749D01*
Y943499D01*
X1049083Y945998D02*
X1049499Y946415D01*
Y947248D01*
X1049083Y947664D01*
X1047417D01*
X1047000Y947248D01*
Y946415D01*
X1047417Y945998D01*
X1049083D01*
Y948497D02*
X1049499Y948914D01*
Y949747D01*
X1049083Y950164D01*
X1048666D01*
X1048250Y949747D01*
Y949331D01*
Y949747D01*
X1047833Y950164D01*
X1047417D01*
X1047000Y949747D01*
Y948914D01*
X1047417Y948497D01*
X1046583Y950997D02*
Y952663D01*
X1049083Y953496D02*
X1049499Y953912D01*
Y954745D01*
X1049083Y955162D01*
X1048666D01*
X1048250Y954745D01*
Y954329D01*
Y954745D01*
X1047833Y955162D01*
X1047417D01*
X1047000Y954745D01*
Y953912D01*
X1047417Y953496D01*
X1057000Y1109000D02*
X1059499D01*
Y1110250D01*
X1059083Y1110666D01*
X1058250D01*
X1057833Y1110250D01*
Y1109000D01*
Y1109833D02*
X1057000Y1110666D01*
X1059499Y1113165D02*
X1059083Y1112332D01*
X1058250Y1111499D01*
X1057417D01*
X1057000Y1111916D01*
Y1112749D01*
X1057417Y1113165D01*
X1057833D01*
X1058250Y1112749D01*
Y1111499D01*
X1059083Y1113998D02*
X1059499Y1114415D01*
Y1115248D01*
X1059083Y1115665D01*
X1057417D01*
X1057000Y1115248D01*
Y1114415D01*
X1057417Y1113998D01*
X1059083D01*
Y1116497D02*
X1059499Y1116914D01*
Y1117747D01*
X1059083Y1118164D01*
X1057417D01*
X1057000Y1117747D01*
Y1116914D01*
X1057417Y1116497D01*
X1059083D01*
X1056583Y1118997D02*
Y1120663D01*
X1057000Y1121496D02*
Y1122329D01*
Y1121912D01*
X1059499D01*
X1059083Y1121496D01*
X1047000Y1039000D02*
X1049499D01*
Y1040250D01*
X1049083Y1040666D01*
X1048250D01*
X1047833Y1040250D01*
Y1039000D01*
Y1039833D02*
X1047000Y1040666D01*
X1049499Y1043165D02*
X1049083Y1042332D01*
X1048250Y1041499D01*
X1047417D01*
X1047000Y1041916D01*
Y1042749D01*
X1047417Y1043165D01*
X1047833D01*
X1048250Y1042749D01*
Y1041499D01*
X1049083Y1043998D02*
X1049499Y1044415D01*
Y1045248D01*
X1049083Y1045665D01*
X1047417D01*
X1047000Y1045248D01*
Y1044415D01*
X1047417Y1043998D01*
X1049083D01*
Y1046498D02*
X1049499Y1046914D01*
Y1047747D01*
X1049083Y1048164D01*
X1047417D01*
X1047000Y1047747D01*
Y1046914D01*
X1047417Y1046498D01*
X1049083D01*
X1046583Y1048997D02*
Y1050663D01*
X1047000Y1053162D02*
Y1051496D01*
X1048666Y1053162D01*
X1049083D01*
X1049499Y1052746D01*
Y1051913D01*
X1049083Y1051496D01*
X1055000Y957000D02*
X1057499D01*
Y958250D01*
X1057083Y958666D01*
X1056250D01*
X1055833Y958250D01*
Y957000D01*
Y957833D02*
X1055000Y958666D01*
X1057499Y961165D02*
X1057083Y960332D01*
X1056250Y959499D01*
X1055416D01*
X1055000Y959916D01*
Y960749D01*
X1055416Y961165D01*
X1055833D01*
X1056250Y960749D01*
Y959499D01*
X1057083Y961998D02*
X1057499Y962415D01*
Y963248D01*
X1057083Y963664D01*
X1055416D01*
X1055000Y963248D01*
Y962415D01*
X1055416Y961998D01*
X1057083D01*
Y964498D02*
X1057499Y964914D01*
Y965747D01*
X1057083Y966164D01*
X1055416D01*
X1055000Y965747D01*
Y964914D01*
X1055416Y964498D01*
X1057083D01*
X1054584Y966997D02*
Y968663D01*
X1057083Y969496D02*
X1057499Y969912D01*
Y970745D01*
X1057083Y971162D01*
X1056666D01*
X1056250Y970745D01*
Y970329D01*
Y970745D01*
X1055833Y971162D01*
X1055416D01*
X1055000Y970745D01*
Y969912D01*
X1055416Y969496D01*
X1057000Y1092000D02*
X1059499D01*
Y1093250D01*
X1059083Y1093666D01*
X1058250D01*
X1057833Y1093250D01*
Y1092000D01*
Y1092833D02*
X1057000Y1093666D01*
X1059499Y1096165D02*
X1059083Y1095332D01*
X1058250Y1094499D01*
X1057417D01*
X1057000Y1094916D01*
Y1095749D01*
X1057417Y1096165D01*
X1057833D01*
X1058250Y1095749D01*
Y1094499D01*
X1059083Y1096998D02*
X1059499Y1097415D01*
Y1098248D01*
X1059083Y1098664D01*
X1057417D01*
X1057000Y1098248D01*
Y1097415D01*
X1057417Y1096998D01*
X1059083D01*
X1057000Y1101164D02*
Y1099498D01*
X1058666Y1101164D01*
X1059083D01*
X1059499Y1100747D01*
Y1099914D01*
X1059083Y1099498D01*
X1056583Y1101997D02*
Y1103663D01*
X1057000Y1104496D02*
Y1105329D01*
Y1104912D01*
X1059499D01*
X1059083Y1104496D01*
X1047000Y1024000D02*
X1049499D01*
Y1025250D01*
X1049083Y1025666D01*
X1048250D01*
X1047833Y1025250D01*
Y1024000D01*
Y1024833D02*
X1047000Y1025666D01*
X1049499Y1028165D02*
X1049083Y1027332D01*
X1048250Y1026499D01*
X1047417D01*
X1047000Y1026916D01*
Y1027749D01*
X1047417Y1028165D01*
X1047833D01*
X1048250Y1027749D01*
Y1026499D01*
X1049083Y1028998D02*
X1049499Y1029415D01*
Y1030248D01*
X1049083Y1030665D01*
X1047417D01*
X1047000Y1030248D01*
Y1029415D01*
X1047417Y1028998D01*
X1049083D01*
X1047000Y1033164D02*
Y1031498D01*
X1048666Y1033164D01*
X1049083D01*
X1049499Y1032747D01*
Y1031914D01*
X1049083Y1031498D01*
X1046583Y1033997D02*
Y1035663D01*
X1047000Y1038162D02*
Y1036496D01*
X1048666Y1038162D01*
X1049083D01*
X1049499Y1037746D01*
Y1036913D01*
X1049083Y1036496D01*
X1055000Y941000D02*
X1057499D01*
Y942250D01*
X1057083Y942666D01*
X1056250D01*
X1055833Y942250D01*
Y941000D01*
Y941833D02*
X1055000Y942666D01*
X1057499Y945165D02*
X1057083Y944332D01*
X1056250Y943499D01*
X1055416D01*
X1055000Y943916D01*
Y944749D01*
X1055416Y945165D01*
X1055833D01*
X1056250Y944749D01*
Y943499D01*
X1057083Y945998D02*
X1057499Y946415D01*
Y947248D01*
X1057083Y947664D01*
X1055416D01*
X1055000Y947248D01*
Y946415D01*
X1055416Y945998D01*
X1057083D01*
X1055000Y950164D02*
Y948497D01*
X1056666Y950164D01*
X1057083D01*
X1057499Y949747D01*
Y948914D01*
X1057083Y948497D01*
X1054584Y950997D02*
Y952663D01*
X1057083Y953496D02*
X1057499Y953912D01*
Y954745D01*
X1057083Y955162D01*
X1056666D01*
X1056250Y954745D01*
Y954329D01*
Y954745D01*
X1055833Y955162D01*
X1055416D01*
X1055000Y954745D01*
Y953912D01*
X1055416Y953496D01*
X1289000Y1149000D02*
X1291499D01*
Y1150250D01*
X1291083Y1150666D01*
X1290250D01*
X1289833Y1150250D01*
Y1149000D01*
Y1149833D02*
X1289000Y1150666D01*
X1291083Y1151499D02*
X1291499Y1151916D01*
Y1152749D01*
X1291083Y1153165D01*
X1290666D01*
X1290250Y1152749D01*
Y1152332D01*
Y1152749D01*
X1289833Y1153165D01*
X1289417D01*
X1289000Y1152749D01*
Y1151916D01*
X1289417Y1151499D01*
X1289000Y1155665D02*
Y1153998D01*
X1290666Y1155665D01*
X1291083D01*
X1291499Y1155248D01*
Y1154415D01*
X1291083Y1153998D01*
Y1156497D02*
X1291499Y1156914D01*
Y1157747D01*
X1291083Y1158164D01*
X1289417D01*
X1289000Y1157747D01*
Y1156914D01*
X1289417Y1156497D01*
X1291083D01*
X1288584Y1158997D02*
Y1160663D01*
X1289000Y1161496D02*
Y1162329D01*
Y1161912D01*
X1291499D01*
X1291083Y1161496D01*
X1303000Y869000D02*
X1305499D01*
Y870250D01*
X1305083Y870666D01*
X1304250D01*
X1303833Y870250D01*
Y869000D01*
Y869833D02*
X1303000Y870666D01*
X1305083Y871499D02*
X1305499Y871916D01*
Y872749D01*
X1305083Y873165D01*
X1304666D01*
X1304250Y872749D01*
Y872332D01*
Y872749D01*
X1303833Y873165D01*
X1303416D01*
X1303000Y872749D01*
Y871916D01*
X1303416Y871499D01*
X1303000Y875665D02*
Y873998D01*
X1304666Y875665D01*
X1305083D01*
X1305499Y875248D01*
Y874415D01*
X1305083Y873998D01*
Y876497D02*
X1305499Y876914D01*
Y877747D01*
X1305083Y878164D01*
X1303416D01*
X1303000Y877747D01*
Y876914D01*
X1303416Y876497D01*
X1305083D01*
X1302583Y878997D02*
Y880663D01*
X1303000Y883162D02*
Y881496D01*
X1304666Y883162D01*
X1305083D01*
X1305499Y882746D01*
Y881912D01*
X1305083Y881496D01*
X1175334Y1103083D02*
X1175750Y1103499D01*
X1176583D01*
X1177000Y1103083D01*
Y1101416D01*
X1176583Y1101000D01*
X1175750D01*
X1175334Y1101416D01*
X1173251Y1101000D02*
Y1103499D01*
X1174501Y1102250D01*
X1172835D01*
X1172002Y1103083D02*
X1171585Y1103499D01*
X1170752D01*
X1170335Y1103083D01*
Y1102666D01*
X1170752Y1102250D01*
X1171169D01*
X1170752D01*
X1170335Y1101833D01*
Y1101416D01*
X1170752Y1101000D01*
X1171585D01*
X1172002Y1101416D01*
X1169502Y1101000D02*
X1168669D01*
X1169086D01*
Y1103499D01*
X1169502Y1103083D01*
X1133083Y950666D02*
X1133499Y950250D01*
Y949417D01*
X1133083Y949000D01*
X1131416D01*
X1131000Y949417D01*
Y950250D01*
X1131416Y950666D01*
X1131000Y952749D02*
X1133499D01*
X1132250Y951499D01*
Y953165D01*
X1133083Y953998D02*
X1133499Y954415D01*
Y955248D01*
X1133083Y955665D01*
X1132666D01*
X1132250Y955248D01*
Y954831D01*
Y955248D01*
X1131833Y955665D01*
X1131416D01*
X1131000Y955248D01*
Y954415D01*
X1131416Y953998D01*
X1131000Y957747D02*
X1133499D01*
X1132250Y956498D01*
Y958164D01*
X1311000Y1019499D02*
Y1017000D01*
X1309334D01*
X1307251D02*
Y1019499D01*
X1308501Y1018250D01*
X1306835D01*
X1306002Y1019083D02*
X1305585Y1019499D01*
X1304752D01*
X1304335Y1019083D01*
Y1017417D01*
X1304752Y1017000D01*
X1305585D01*
X1306002Y1017417D01*
Y1019083D01*
X1303502D02*
X1303086Y1019499D01*
X1302253D01*
X1301836Y1019083D01*
Y1018666D01*
X1302253Y1018250D01*
X1301836Y1017833D01*
Y1017417D01*
X1302253Y1017000D01*
X1303086D01*
X1303502Y1017417D01*
Y1017833D01*
X1303086Y1018250D01*
X1303502Y1018666D01*
Y1019083D01*
X1303086Y1018250D02*
X1302253D01*
D97*
X1178000Y989999D02*
Y986000D01*
X1175334D01*
X1172002D02*
Y989999D01*
X1174001Y987999D01*
X1171336D01*
X1170003Y989332D02*
X1169336Y989999D01*
X1168003D01*
X1167337Y989332D01*
Y986666D01*
X1168003Y986000D01*
X1169336D01*
X1170003Y986666D01*
Y989332D01*
X1163338Y989999D02*
X1166004D01*
Y987999D01*
X1164671Y988666D01*
X1164005D01*
X1163338Y987999D01*
Y986666D01*
X1164005Y986000D01*
X1165338D01*
X1166004Y986666D01*
X1182334Y974332D02*
X1183001Y974999D01*
X1184333D01*
X1185000Y974332D01*
Y971666D01*
X1184333Y971000D01*
X1183001D01*
X1182334Y971666D01*
X1179002Y971000D02*
Y974999D01*
X1181001Y972999D01*
X1178335D01*
X1177003Y971000D02*
X1175670D01*
X1176336D01*
Y974999D01*
X1177003Y974332D01*
X1173670Y971666D02*
X1173004Y971000D01*
X1171671D01*
X1171004Y971666D01*
Y974332D01*
X1171671Y974999D01*
X1173004D01*
X1173670Y974332D01*
Y973666D01*
X1173004Y972999D01*
X1171004D01*
X884332Y852666D02*
X884999Y851999D01*
Y850666D01*
X884332Y850000D01*
X881666D01*
X881000Y850666D01*
Y851999D01*
X881666Y852666D01*
X881000Y855998D02*
X884999D01*
X882999Y853999D01*
Y856665D01*
X881000Y860663D02*
Y857997D01*
X883666Y860663D01*
X884332D01*
X884999Y859997D01*
Y858664D01*
X884332Y857997D01*
X881000Y861996D02*
Y863329D01*
Y862663D01*
X884999D01*
X884332Y861996D01*
D98*
X921000Y771998D02*
X917001D01*
X919001D01*
Y766000D01*
X915002D02*
Y771998D01*
X912003D01*
X911003Y770998D01*
Y768999D01*
X912003Y767999D01*
X915002D01*
X906005Y766000D02*
Y771998D01*
X909004Y768999D01*
X905005D01*
X903006Y766000D02*
X901006D01*
X902006D01*
Y771998D01*
X903006Y770998D01*
X894009Y766000D02*
X898008D01*
X894009Y769999D01*
Y770998D01*
X895008Y771998D01*
X897008D01*
X898008Y770998D01*
X1249000Y1072998D02*
X1245001D01*
X1247001D01*
Y1067000D01*
X1243002D02*
Y1072998D01*
X1240003D01*
X1239003Y1071998D01*
Y1069999D01*
X1240003Y1068999D01*
X1243002D01*
X1234005Y1067000D02*
Y1072998D01*
X1237004Y1069999D01*
X1233005D01*
X1231006Y1071998D02*
X1230006Y1072998D01*
X1228007D01*
X1227007Y1071998D01*
Y1068000D01*
X1228007Y1067000D01*
X1230006D01*
X1231006Y1068000D01*
Y1071998D01*
X1225008Y1068000D02*
X1224008Y1067000D01*
X1222009D01*
X1221009Y1068000D01*
Y1071998D01*
X1222009Y1072998D01*
X1224008D01*
X1225008Y1071998D01*
Y1070999D01*
X1224008Y1069999D01*
X1221009D01*
X1288000Y875998D02*
X1284001D01*
X1286001D01*
Y870000D01*
X1282002D02*
Y875998D01*
X1279003D01*
X1278003Y874998D01*
Y872999D01*
X1279003Y871999D01*
X1282002D01*
X1273005Y870000D02*
Y875998D01*
X1276004Y872999D01*
X1272005D01*
X1270006Y874998D02*
X1269006Y875998D01*
X1267007D01*
X1266007Y874998D01*
Y871000D01*
X1267007Y870000D01*
X1269006D01*
X1270006Y871000D01*
Y874998D01*
X1264008D02*
X1263008Y875998D01*
X1261009D01*
X1260009Y874998D01*
Y873999D01*
X1261009Y872999D01*
X1260009Y871999D01*
Y871000D01*
X1261009Y870000D01*
X1263008D01*
X1264008Y871000D01*
Y871999D01*
X1263008Y872999D01*
X1264008Y873999D01*
Y874998D01*
X1263008Y872999D02*
X1261009D01*
X981000Y848998D02*
X977001D01*
X979001D01*
Y843000D01*
X975002D02*
Y848998D01*
X972003D01*
X971003Y847998D01*
Y845999D01*
X972003Y844999D01*
X975002D01*
X966005Y843000D02*
Y848998D01*
X969004Y845999D01*
X965005D01*
X963006Y847998D02*
X962006Y848998D01*
X960007D01*
X959007Y847998D01*
Y844000D01*
X960007Y843000D01*
X962006D01*
X963006Y844000D01*
Y847998D01*
X957008D02*
X956008Y848998D01*
X954009D01*
X953009Y847998D01*
Y846999D01*
X954009Y845999D01*
X955008D01*
X954009D01*
X953009Y844999D01*
Y844000D01*
X954009Y843000D01*
X956008D01*
X957008Y844000D01*
X810998Y894000D02*
Y897999D01*
Y895999D01*
X805000D01*
Y899998D02*
X810998D01*
Y902997D01*
X809998Y903997D01*
X807999D01*
X806999Y902997D01*
Y899998D01*
X805000Y908995D02*
X810998D01*
X807999Y905996D01*
Y909995D01*
X809998Y911994D02*
X810998Y912994D01*
Y914993D01*
X809998Y915993D01*
X806000D01*
X805000Y914993D01*
Y912994D01*
X806000Y911994D01*
X809998D01*
X805000Y921991D02*
Y917992D01*
X808999Y921991D01*
X809998D01*
X810998Y920991D01*
Y918992D01*
X809998Y917992D01*
X1360000Y842998D02*
X1356001D01*
X1358001D01*
Y837000D01*
X1354002D02*
Y842998D01*
X1351003D01*
X1350003Y841998D01*
Y839999D01*
X1351003Y838999D01*
X1354002D01*
X1348004Y841998D02*
X1347004Y842998D01*
X1345005D01*
X1344005Y841998D01*
Y840999D01*
X1345005Y839999D01*
X1346004D01*
X1345005D01*
X1344005Y838999D01*
Y838000D01*
X1345005Y837000D01*
X1347004D01*
X1348004Y838000D01*
X1342006Y837000D02*
X1340007D01*
X1341006D01*
Y842998D01*
X1342006Y841998D01*
X1337007D02*
X1336008Y842998D01*
X1334008D01*
X1333009Y841998D01*
Y838000D01*
X1334008Y837000D01*
X1336008D01*
X1337007Y838000D01*
Y841998D01*
X1331009Y836000D02*
X1327011D01*
X1321013Y837000D02*
X1325011D01*
X1321013Y840999D01*
Y841998D01*
X1322012Y842998D01*
X1324012D01*
X1325011Y841998D01*
X1416000Y1147998D02*
X1412001D01*
X1414001D01*
Y1142000D01*
X1410002D02*
Y1147998D01*
X1407003D01*
X1406003Y1146998D01*
Y1144999D01*
X1407003Y1143999D01*
X1410002D01*
X1404004Y1146998D02*
X1403004Y1147998D01*
X1401005D01*
X1400005Y1146998D01*
Y1145999D01*
X1401005Y1144999D01*
X1402005D01*
X1401005D01*
X1400005Y1143999D01*
Y1143000D01*
X1401005Y1142000D01*
X1403004D01*
X1404004Y1143000D01*
X1398006Y1142000D02*
X1396006D01*
X1397006D01*
Y1147998D01*
X1398006Y1146998D01*
X1393008D02*
X1392008Y1147998D01*
X1390008D01*
X1389009Y1146998D01*
Y1143000D01*
X1390008Y1142000D01*
X1392008D01*
X1393008Y1143000D01*
Y1146998D01*
X1387009Y1141000D02*
X1383011D01*
X1381011Y1142000D02*
X1379012D01*
X1380012D01*
Y1147998D01*
X1381011Y1146998D01*
X1430000Y859998D02*
X1426001D01*
X1428001D01*
Y854000D01*
X1424002D02*
Y859998D01*
X1421003D01*
X1420003Y858998D01*
Y856999D01*
X1421003Y855999D01*
X1424002D01*
X1418004Y858998D02*
X1417004Y859998D01*
X1415005D01*
X1414005Y858998D01*
Y857999D01*
X1415005Y856999D01*
X1416004D01*
X1415005D01*
X1414005Y855999D01*
Y855000D01*
X1415005Y854000D01*
X1417004D01*
X1418004Y855000D01*
X1412006Y858998D02*
X1411006Y859998D01*
X1409007D01*
X1408007Y858998D01*
Y855000D01*
X1409007Y854000D01*
X1411006D01*
X1412006Y855000D01*
Y858998D01*
X1406008Y855000D02*
X1405008Y854000D01*
X1403009D01*
X1402009Y855000D01*
Y858998D01*
X1403009Y859998D01*
X1405008D01*
X1406008Y858998D01*
Y857999D01*
X1405008Y856999D01*
X1402009D01*
X1400010Y853000D02*
X1396011D01*
X1390013Y854000D02*
X1394012D01*
X1390013Y857999D01*
Y858998D01*
X1391013Y859998D01*
X1393012D01*
X1394012Y858998D01*
X1308000Y909998D02*
X1304001D01*
X1306001D01*
Y904000D01*
X1302002D02*
Y909998D01*
X1299003D01*
X1298003Y908998D01*
Y906999D01*
X1299003Y905999D01*
X1302002D01*
X1296004Y908998D02*
X1295004Y909998D01*
X1293005D01*
X1292005Y908998D01*
Y907999D01*
X1293005Y906999D01*
X1294005D01*
X1293005D01*
X1292005Y905999D01*
Y905000D01*
X1293005Y904000D01*
X1295004D01*
X1296004Y905000D01*
X1290006Y908998D02*
X1289006Y909998D01*
X1287007D01*
X1286007Y908998D01*
Y905000D01*
X1287007Y904000D01*
X1289006D01*
X1290006Y905000D01*
Y908998D01*
X1284008Y909998D02*
X1280009D01*
Y908998D01*
X1284008Y905000D01*
Y904000D01*
X1278010Y903000D02*
X1274011D01*
X1268013Y904000D02*
X1272012D01*
X1268013Y907999D01*
Y908998D01*
X1269013Y909998D01*
X1271012D01*
X1272012Y908998D01*
X1137000Y938998D02*
Y934000D01*
X1136000Y933000D01*
X1134001D01*
X1133001Y934000D01*
Y938998D01*
X1128003Y933000D02*
Y938998D01*
X1131002Y935999D01*
X1127003D01*
X1125004Y937998D02*
X1124004Y938998D01*
X1122005D01*
X1121005Y937998D01*
Y934000D01*
X1122005Y933000D01*
X1124004D01*
X1125004Y934000D01*
Y937998D01*
X1115007Y938998D02*
X1119006D01*
Y935999D01*
X1117007Y936999D01*
X1116007D01*
X1115007Y935999D01*
Y934000D01*
X1116007Y933000D01*
X1118006D01*
X1119006Y934000D01*
X1392998Y1187000D02*
X1388000D01*
X1387000Y1188000D01*
Y1189999D01*
X1388000Y1190999D01*
X1392998D01*
X1391998Y1192998D02*
X1392998Y1193998D01*
Y1195997D01*
X1391998Y1196997D01*
X1390999D01*
X1389999Y1195997D01*
Y1194997D01*
Y1195997D01*
X1388999Y1196997D01*
X1388000D01*
X1387000Y1195997D01*
Y1193998D01*
X1388000Y1192998D01*
X1391998Y1198996D02*
X1392998Y1199996D01*
Y1201995D01*
X1391998Y1202995D01*
X1388000D01*
X1387000Y1201995D01*
Y1199996D01*
X1388000Y1198996D01*
X1391998D01*
X1392998Y1208993D02*
X1391998Y1206993D01*
X1389999Y1204994D01*
X1388000D01*
X1387000Y1205994D01*
Y1207993D01*
X1388000Y1208993D01*
X1388999D01*
X1389999Y1207993D01*
Y1204994D01*
X1386000Y1210992D02*
Y1214991D01*
X1387000Y1216990D02*
Y1218990D01*
Y1217990D01*
X1392998D01*
X1391998Y1216990D01*
X1407000Y908998D02*
Y904000D01*
X1406000Y903000D01*
X1404001D01*
X1403001Y904000D01*
Y908998D01*
X1401002Y907998D02*
X1400002Y908998D01*
X1398003D01*
X1397003Y907998D01*
Y906999D01*
X1398003Y905999D01*
X1399003D01*
X1398003D01*
X1397003Y904999D01*
Y904000D01*
X1398003Y903000D01*
X1400002D01*
X1401002Y904000D01*
X1395004Y907998D02*
X1394004Y908998D01*
X1392005D01*
X1391005Y907998D01*
Y904000D01*
X1392005Y903000D01*
X1394004D01*
X1395004Y904000D01*
Y907998D01*
X1385007Y908998D02*
X1387007Y907998D01*
X1389006Y905999D01*
Y904000D01*
X1388006Y903000D01*
X1386007D01*
X1385007Y904000D01*
Y904999D01*
X1386007Y905999D01*
X1389006D01*
X1383008Y902000D02*
X1379009D01*
X1373011Y903000D02*
X1377010D01*
X1373011Y906999D01*
Y907998D01*
X1374011Y908998D01*
X1376010D01*
X1377010Y907998D01*
X1338000Y1151998D02*
Y1147000D01*
X1337000Y1146000D01*
X1335001D01*
X1334001Y1147000D01*
Y1151998D01*
X1332002Y1150998D02*
X1331002Y1151998D01*
X1329003D01*
X1328003Y1150998D01*
Y1149999D01*
X1329003Y1148999D01*
X1330003D01*
X1329003D01*
X1328003Y1147999D01*
Y1147000D01*
X1329003Y1146000D01*
X1331002D01*
X1332002Y1147000D01*
X1326004Y1150998D02*
X1325004Y1151998D01*
X1323005D01*
X1322005Y1150998D01*
Y1147000D01*
X1323005Y1146000D01*
X1325004D01*
X1326004Y1147000D01*
Y1150998D01*
X1320006Y1151998D02*
X1316007D01*
Y1150998D01*
X1320006Y1147000D01*
Y1146000D01*
X1314008Y1145000D02*
X1310009D01*
X1308010Y1146000D02*
X1306010D01*
X1307010D01*
Y1151998D01*
X1308010Y1150998D01*
X1307000Y893998D02*
Y889000D01*
X1306000Y888000D01*
X1304001D01*
X1303001Y889000D01*
Y893998D01*
X1301002Y892998D02*
X1300002Y893998D01*
X1298003D01*
X1297003Y892998D01*
Y891999D01*
X1298003Y890999D01*
X1299003D01*
X1298003D01*
X1297003Y889999D01*
Y889000D01*
X1298003Y888000D01*
X1300002D01*
X1301002Y889000D01*
X1295004Y892998D02*
X1294004Y893998D01*
X1292005D01*
X1291005Y892998D01*
Y889000D01*
X1292005Y888000D01*
X1294004D01*
X1295004Y889000D01*
Y892998D01*
X1289006Y893998D02*
X1285007D01*
Y892998D01*
X1289006Y889000D01*
Y888000D01*
X1283008Y887000D02*
X1279009D01*
X1273011Y888000D02*
X1277010D01*
X1273011Y891999D01*
Y892998D01*
X1274011Y893998D01*
X1276010D01*
X1277010Y892998D01*
X1255998Y1079000D02*
X1251000D01*
X1250000Y1080000D01*
Y1081999D01*
X1251000Y1082999D01*
X1255998D01*
X1254998Y1084998D02*
X1255998Y1085998D01*
Y1087997D01*
X1254998Y1088997D01*
X1253999D01*
X1252999Y1087997D01*
Y1086997D01*
Y1087997D01*
X1251999Y1088997D01*
X1251000D01*
X1250000Y1087997D01*
Y1085998D01*
X1251000Y1084998D01*
X1254998Y1090996D02*
X1255998Y1091996D01*
Y1093995D01*
X1254998Y1094995D01*
X1251000D01*
X1250000Y1093995D01*
Y1091996D01*
X1251000Y1090996D01*
X1254998D01*
X1255998Y1100993D02*
Y1096994D01*
X1252999D01*
X1253999Y1098994D01*
Y1099993D01*
X1252999Y1100993D01*
X1251000D01*
X1250000Y1099993D01*
Y1097994D01*
X1251000Y1096994D01*
X1249000Y1102992D02*
Y1106991D01*
X1250000Y1108990D02*
Y1110990D01*
Y1109990D01*
X1255998D01*
X1254998Y1108990D01*
X1235000Y1124998D02*
X1231001D01*
X1233001D01*
Y1119000D01*
X1229002D02*
Y1124998D01*
X1226003D01*
X1225003Y1123998D01*
Y1121999D01*
X1226003Y1120999D01*
X1229002D01*
X1220005Y1119000D02*
Y1124998D01*
X1223004Y1121999D01*
X1219005D01*
X1217006Y1119000D02*
X1215006D01*
X1216006D01*
Y1124998D01*
X1217006Y1123998D01*
X1212008D02*
X1211008Y1124998D01*
X1209008D01*
X1208009Y1123998D01*
Y1120000D01*
X1209008Y1119000D01*
X1211008D01*
X1212008Y1120000D01*
Y1123998D01*
X1144000Y988998D02*
X1140001D01*
X1142001D01*
Y983000D01*
X1138002D02*
Y988998D01*
X1135003D01*
X1134003Y987998D01*
Y985999D01*
X1135003Y984999D01*
X1138002D01*
X1129005Y983000D02*
Y988998D01*
X1132004Y985999D01*
X1128005D01*
X1126006Y983000D02*
X1124007D01*
X1125006D01*
Y988998D01*
X1126006Y987998D01*
X1121008Y983000D02*
X1119008D01*
X1120008D01*
Y988998D01*
X1121008Y987998D01*
D99*
X1228334Y901083D02*
X1228750Y901499D01*
X1229584D01*
X1230000Y901083D01*
Y899417D01*
X1229584Y899000D01*
X1228750D01*
X1228334Y899417D01*
X1226251Y899000D02*
Y901499D01*
X1227501Y900250D01*
X1225835D01*
X1225002Y901083D02*
X1224585Y901499D01*
X1223752D01*
X1223335Y901083D01*
Y900666D01*
X1223752Y900250D01*
X1224169D01*
X1223752D01*
X1223335Y899833D01*
Y899417D01*
X1223752Y899000D01*
X1224585D01*
X1225002Y899417D01*
X1220836Y899000D02*
X1222503D01*
X1220836Y900666D01*
Y901083D01*
X1221253Y901499D01*
X1222086D01*
X1222503Y901083D01*
X1347499Y1176000D02*
Y1177666D01*
Y1176833D01*
X1345000D01*
Y1178499D02*
X1347499D01*
Y1179749D01*
X1347083Y1180165D01*
X1346250D01*
X1345833Y1179749D01*
Y1178499D01*
X1347083Y1180998D02*
X1347499Y1181415D01*
Y1182248D01*
X1347083Y1182664D01*
X1346666D01*
X1346250Y1182248D01*
Y1181831D01*
Y1182248D01*
X1345833Y1182664D01*
X1345417D01*
X1345000Y1182248D01*
Y1181415D01*
X1345417Y1180998D01*
X1347083Y1183498D02*
X1347499Y1183914D01*
Y1184747D01*
X1347083Y1185164D01*
X1345417D01*
X1345000Y1184747D01*
Y1183914D01*
X1345417Y1183498D01*
X1347083D01*
X1345417Y1185997D02*
X1345000Y1186413D01*
Y1187246D01*
X1345417Y1187663D01*
X1347083D01*
X1347499Y1187246D01*
Y1186413D01*
X1347083Y1185997D01*
X1346666D01*
X1346250Y1186413D01*
Y1187663D01*
X1344583Y1188496D02*
Y1190162D01*
X1345000Y1190995D02*
Y1191828D01*
Y1191412D01*
X1347499D01*
X1347083Y1190995D01*
X1222000Y1234000D02*
Y1236999D01*
X1220500D01*
X1220001Y1236499D01*
Y1235499D01*
X1220500Y1235000D01*
X1222000D01*
X1221000D02*
X1220001Y1234000D01*
X1217002D02*
X1219001D01*
X1217002Y1235999D01*
Y1236499D01*
X1217502Y1236999D01*
X1218501D01*
X1219001Y1236499D01*
X1216002D02*
X1215502Y1236999D01*
X1214502D01*
X1214003Y1236499D01*
Y1234500D01*
X1214502Y1234000D01*
X1215502D01*
X1216002Y1234500D01*
Y1236499D01*
X1213003D02*
X1212503Y1236999D01*
X1211503D01*
X1211003Y1236499D01*
Y1234500D01*
X1211503Y1234000D01*
X1212503D01*
X1213003Y1234500D01*
Y1236499D01*
X1225083Y1033666D02*
X1225499Y1033250D01*
Y1032417D01*
X1225083Y1032000D01*
X1223417D01*
X1223000Y1032417D01*
Y1033250D01*
X1223417Y1033666D01*
X1223000Y1035749D02*
X1225499D01*
X1224250Y1034499D01*
Y1036165D01*
X1225083Y1036998D02*
X1225499Y1037415D01*
Y1038248D01*
X1225083Y1038664D01*
X1224666D01*
X1224250Y1038248D01*
Y1037831D01*
Y1038248D01*
X1223833Y1038664D01*
X1223417D01*
X1223000Y1038248D01*
Y1037415D01*
X1223417Y1036998D01*
X1225083Y1039498D02*
X1225499Y1039914D01*
Y1040747D01*
X1225083Y1041164D01*
X1223417D01*
X1223000Y1040747D01*
Y1039914D01*
X1223417Y1039498D01*
X1225083D01*
X1153334Y930083D02*
X1153750Y930499D01*
X1154584D01*
X1155000Y930083D01*
Y928417D01*
X1154584Y928000D01*
X1153750D01*
X1153334Y928417D01*
X1151251Y928000D02*
Y930499D01*
X1152501Y929250D01*
X1150835D01*
X1148335Y928000D02*
X1150002D01*
X1148335Y929666D01*
Y930083D01*
X1148752Y930499D01*
X1149585D01*
X1150002Y930083D01*
X1147503Y930499D02*
X1145836D01*
Y930083D01*
X1147503Y928417D01*
Y928000D01*
X1244083Y876666D02*
X1244499Y876250D01*
Y875416D01*
X1244083Y875000D01*
X1242417D01*
X1242000Y875416D01*
Y876250D01*
X1242417Y876666D01*
X1242000Y878749D02*
X1244499D01*
X1243250Y877499D01*
Y879165D01*
X1242000Y881665D02*
Y879998D01*
X1243666Y881665D01*
X1244083D01*
X1244499Y881248D01*
Y880415D01*
X1244083Y879998D01*
X1242417Y882497D02*
X1242000Y882914D01*
Y883747D01*
X1242417Y884164D01*
X1244083D01*
X1244499Y883747D01*
Y882914D01*
X1244083Y882497D01*
X1243666D01*
X1243250Y882914D01*
Y884164D01*
X1399000Y876000D02*
Y878499D01*
X1397750D01*
X1397334Y878083D01*
Y877250D01*
X1397750Y876833D01*
X1399000D01*
X1398167D02*
X1397334Y876000D01*
X1396501Y878083D02*
X1396084Y878499D01*
X1395251D01*
X1394835Y878083D01*
Y877666D01*
X1395251Y877250D01*
X1395668D01*
X1395251D01*
X1394835Y876833D01*
Y876416D01*
X1395251Y876000D01*
X1396084D01*
X1396501Y876416D01*
X1392336Y876000D02*
X1394002D01*
X1392336Y877666D01*
Y878083D01*
X1392752Y878499D01*
X1393585D01*
X1394002Y878083D01*
X1389836Y876000D02*
X1391502D01*
X1389836Y877666D01*
Y878083D01*
X1390253Y878499D01*
X1391086D01*
X1391502Y878083D01*
X1389003Y875583D02*
X1387337D01*
X1384838Y876000D02*
X1386504D01*
X1384838Y877666D01*
Y878083D01*
X1385255Y878499D01*
X1386088D01*
X1386504Y878083D01*
X1344000Y878000D02*
X1346499D01*
Y879250D01*
X1346083Y879666D01*
X1345250D01*
X1344833Y879250D01*
Y878000D01*
Y878833D02*
X1344000Y879666D01*
X1346083Y880499D02*
X1346499Y880916D01*
Y881749D01*
X1346083Y882165D01*
X1345666D01*
X1345250Y881749D01*
Y881332D01*
Y881749D01*
X1344833Y882165D01*
X1344417D01*
X1344000Y881749D01*
Y880916D01*
X1344417Y880499D01*
X1344000Y884665D02*
Y882998D01*
X1345666Y884665D01*
X1346083D01*
X1346499Y884248D01*
Y883415D01*
X1346083Y882998D01*
X1344000Y885498D02*
Y886331D01*
Y885914D01*
X1346499D01*
X1346083Y885498D01*
X1343584Y887580D02*
Y889246D01*
X1344000Y891746D02*
Y890079D01*
X1345666Y891746D01*
X1346083D01*
X1346499Y891329D01*
Y890496D01*
X1346083Y890079D01*
X1185334Y1059083D02*
X1185750Y1059499D01*
X1186583D01*
X1187000Y1059083D01*
Y1057417D01*
X1186583Y1057000D01*
X1185750D01*
X1185334Y1057417D01*
X1183251Y1057000D02*
Y1059499D01*
X1184501Y1058250D01*
X1182835D01*
X1182002Y1057000D02*
X1181169D01*
X1181585D01*
Y1059499D01*
X1182002Y1059083D01*
X1179919Y1059499D02*
X1178253D01*
Y1059083D01*
X1179919Y1057417D01*
Y1057000D01*
X1359334Y904083D02*
X1359750Y904499D01*
X1360583D01*
X1361000Y904083D01*
Y902417D01*
X1360583Y902000D01*
X1359750D01*
X1359334Y902417D01*
X1358501Y904083D02*
X1358084Y904499D01*
X1357251D01*
X1356835Y904083D01*
Y903666D01*
X1357251Y903250D01*
X1357668D01*
X1357251D01*
X1356835Y902833D01*
Y902417D01*
X1357251Y902000D01*
X1358084D01*
X1358501Y902417D01*
X1354335Y902000D02*
X1356002D01*
X1354335Y903666D01*
Y904083D01*
X1354752Y904499D01*
X1355585D01*
X1356002Y904083D01*
X1351836Y904499D02*
X1353502D01*
Y903250D01*
X1352669Y903666D01*
X1352253D01*
X1351836Y903250D01*
Y902417D01*
X1352253Y902000D01*
X1353086D01*
X1353502Y902417D01*
X1351003Y901583D02*
X1349337D01*
X1346838Y902000D02*
X1348504D01*
X1346838Y903666D01*
Y904083D01*
X1347254Y904499D01*
X1348088D01*
X1348504Y904083D01*
X1370334Y865083D02*
X1370750Y865499D01*
X1371584D01*
X1372000Y865083D01*
Y863417D01*
X1371584Y863000D01*
X1370750D01*
X1370334Y863417D01*
X1369501Y865083D02*
X1369084Y865499D01*
X1368251D01*
X1367835Y865083D01*
Y864666D01*
X1368251Y864250D01*
X1368668D01*
X1368251D01*
X1367835Y863833D01*
Y863417D01*
X1368251Y863000D01*
X1369084D01*
X1369501Y863417D01*
X1365336Y863000D02*
X1367002D01*
X1365336Y864666D01*
Y865083D01*
X1365752Y865499D01*
X1366585D01*
X1367002Y865083D01*
X1363253Y863000D02*
Y865499D01*
X1364503Y864250D01*
X1362836D01*
X1362003Y862583D02*
X1360337D01*
X1357838Y863000D02*
X1359504D01*
X1357838Y864666D01*
Y865083D01*
X1358255Y865499D01*
X1359088D01*
X1359504Y865083D01*
X1234000Y1021000D02*
Y1023499D01*
X1232750D01*
X1232334Y1023083D01*
Y1022250D01*
X1232750Y1021833D01*
X1234000D01*
X1233167D02*
X1232334Y1021000D01*
X1230251D02*
Y1023499D01*
X1231501Y1022250D01*
X1229835D01*
X1229002Y1021000D02*
X1228169D01*
X1228585D01*
Y1023499D01*
X1229002Y1023083D01*
X1225669Y1021000D02*
Y1023499D01*
X1226919Y1022250D01*
X1225253D01*
X1233000Y1032000D02*
X1235499D01*
Y1033250D01*
X1235083Y1033666D01*
X1234250D01*
X1233833Y1033250D01*
Y1032000D01*
Y1032833D02*
X1233000Y1033666D01*
Y1035749D02*
X1235499D01*
X1234250Y1034499D01*
Y1036165D01*
X1233000Y1036998D02*
Y1037831D01*
Y1037415D01*
X1235499D01*
X1235083Y1036998D01*
Y1039081D02*
X1235499Y1039498D01*
Y1040331D01*
X1235083Y1040747D01*
X1234666D01*
X1234250Y1040331D01*
Y1039914D01*
Y1040331D01*
X1233833Y1040747D01*
X1233417D01*
X1233000Y1040331D01*
Y1039498D01*
X1233417Y1039081D01*
X1197083Y1127666D02*
X1197499Y1127250D01*
Y1126416D01*
X1197083Y1126000D01*
X1195416D01*
X1195000Y1126416D01*
Y1127250D01*
X1195416Y1127666D01*
X1195000Y1129749D02*
X1197499D01*
X1196250Y1128499D01*
Y1130165D01*
X1195000Y1132664D02*
Y1130998D01*
X1196666Y1132664D01*
X1197083D01*
X1197499Y1132248D01*
Y1131415D01*
X1197083Y1130998D01*
X1197499Y1135164D02*
Y1133498D01*
X1196250D01*
X1196666Y1134331D01*
Y1134747D01*
X1196250Y1135164D01*
X1195416D01*
X1195000Y1134747D01*
Y1133914D01*
X1195416Y1133498D01*
X1210334Y1058083D02*
X1210750Y1058499D01*
X1211583D01*
X1212000Y1058083D01*
Y1056416D01*
X1211583Y1056000D01*
X1210750D01*
X1210334Y1056416D01*
X1208251Y1056000D02*
Y1058499D01*
X1209501Y1057250D01*
X1207835D01*
X1207002Y1058083D02*
X1206585Y1058499D01*
X1205752D01*
X1205335Y1058083D01*
Y1057666D01*
X1205752Y1057250D01*
X1206169D01*
X1205752D01*
X1205335Y1056833D01*
Y1056416D01*
X1205752Y1056000D01*
X1206585D01*
X1207002Y1056416D01*
X1204502Y1058083D02*
X1204086Y1058499D01*
X1203253D01*
X1202836Y1058083D01*
Y1057666D01*
X1203253Y1057250D01*
X1203669D01*
X1203253D01*
X1202836Y1056833D01*
Y1056416D01*
X1203253Y1056000D01*
X1204086D01*
X1204502Y1056416D01*
X1169334Y1025083D02*
X1169750Y1025499D01*
X1170583D01*
X1171000Y1025083D01*
Y1023417D01*
X1170583Y1023000D01*
X1169750D01*
X1169334Y1023417D01*
X1167251Y1023000D02*
Y1025499D01*
X1168501Y1024250D01*
X1166835D01*
X1164335Y1023000D02*
X1166002D01*
X1164335Y1024666D01*
Y1025083D01*
X1164752Y1025499D01*
X1165585D01*
X1166002Y1025083D01*
X1162253Y1023000D02*
Y1025499D01*
X1163502Y1024250D01*
X1161836D01*
X1147083Y1115666D02*
X1147499Y1115250D01*
Y1114417D01*
X1147083Y1114000D01*
X1145416D01*
X1145000Y1114417D01*
Y1115250D01*
X1145416Y1115666D01*
X1145000Y1117749D02*
X1147499D01*
X1146250Y1116499D01*
Y1118165D01*
X1145000Y1120665D02*
Y1118998D01*
X1146666Y1120665D01*
X1147083D01*
X1147499Y1120248D01*
Y1119415D01*
X1147083Y1118998D01*
Y1121498D02*
X1147499Y1121914D01*
Y1122747D01*
X1147083Y1123164D01*
X1145416D01*
X1145000Y1122747D01*
Y1121914D01*
X1145416Y1121498D01*
X1147083D01*
X1345000Y854499D02*
Y852000D01*
X1343334D01*
X1342501Y854083D02*
X1342084Y854499D01*
X1341251D01*
X1340835Y854083D01*
Y853666D01*
X1341251Y853250D01*
X1341668D01*
X1341251D01*
X1340835Y852833D01*
Y852417D01*
X1341251Y852000D01*
X1342084D01*
X1342501Y852417D01*
X1340002Y854083D02*
X1339585Y854499D01*
X1338752D01*
X1338336Y854083D01*
Y852417D01*
X1338752Y852000D01*
X1339585D01*
X1340002Y852417D01*
Y854083D01*
X1337502D02*
X1337086Y854499D01*
X1336253D01*
X1335836Y854083D01*
Y852417D01*
X1336253Y852000D01*
X1337086D01*
X1337502Y852417D01*
Y854083D01*
X1335003Y851583D02*
X1333337D01*
X1330838Y852000D02*
X1332504D01*
X1330838Y853666D01*
Y854083D01*
X1331254Y854499D01*
X1332088D01*
X1332504Y854083D01*
X1369334Y853083D02*
X1369750Y853499D01*
X1370583D01*
X1371000Y853083D01*
Y851416D01*
X1370583Y851000D01*
X1369750D01*
X1369334Y851416D01*
X1368501Y853083D02*
X1368084Y853499D01*
X1367251D01*
X1366835Y853083D01*
Y852666D01*
X1367251Y852250D01*
X1367668D01*
X1367251D01*
X1366835Y851833D01*
Y851416D01*
X1367251Y851000D01*
X1368084D01*
X1368501Y851416D01*
X1364335Y851000D02*
X1366002D01*
X1364335Y852666D01*
Y853083D01*
X1364752Y853499D01*
X1365585D01*
X1366002Y853083D01*
X1361836Y851000D02*
X1363503D01*
X1361836Y852666D01*
Y853083D01*
X1362253Y853499D01*
X1363086D01*
X1363503Y853083D01*
X1361003Y850583D02*
X1359337D01*
X1356838Y851000D02*
X1358504D01*
X1356838Y852666D01*
Y853083D01*
X1357254Y853499D01*
X1358088D01*
X1358504Y853083D01*
X1409083Y866666D02*
X1409499Y866250D01*
Y865416D01*
X1409083Y865000D01*
X1407417D01*
X1407000Y865416D01*
Y866250D01*
X1407417Y866666D01*
X1409083Y867499D02*
X1409499Y867916D01*
Y868749D01*
X1409083Y869165D01*
X1408666D01*
X1408250Y868749D01*
Y868332D01*
Y868749D01*
X1407833Y869165D01*
X1407417D01*
X1407000Y868749D01*
Y867916D01*
X1407417Y867499D01*
X1407000Y871665D02*
Y869998D01*
X1408666Y871665D01*
X1409083D01*
X1409499Y871248D01*
Y870415D01*
X1409083Y869998D01*
Y872497D02*
X1409499Y872914D01*
Y873747D01*
X1409083Y874164D01*
X1408666D01*
X1408250Y873747D01*
Y873331D01*
Y873747D01*
X1407833Y874164D01*
X1407417D01*
X1407000Y873747D01*
Y872914D01*
X1407417Y872497D01*
X1406584Y874997D02*
Y876663D01*
X1407000Y879162D02*
Y877496D01*
X1408666Y879162D01*
X1409083D01*
X1409499Y878745D01*
Y877912D01*
X1409083Y877496D01*
X1282083Y836666D02*
X1282499Y836250D01*
Y835416D01*
X1282083Y835000D01*
X1280417D01*
X1280000Y835416D01*
Y836250D01*
X1280417Y836666D01*
X1282083Y837499D02*
X1282499Y837916D01*
Y838749D01*
X1282083Y839165D01*
X1281666D01*
X1281250Y838749D01*
Y838332D01*
Y838749D01*
X1280833Y839165D01*
X1280417D01*
X1280000Y838749D01*
Y837916D01*
X1280417Y837499D01*
X1280000Y839998D02*
Y840831D01*
Y840415D01*
X1282499D01*
X1282083Y839998D01*
X1282499Y842081D02*
Y843747D01*
X1282083D01*
X1280417Y842081D01*
X1280000D01*
X1279584Y844580D02*
Y846246D01*
X1280000Y848745D02*
Y847079D01*
X1281666Y848745D01*
X1282083D01*
X1282499Y848329D01*
Y847496D01*
X1282083Y847079D01*
X1333334Y880083D02*
X1333750Y880499D01*
X1334583D01*
X1335000Y880083D01*
Y878417D01*
X1334583Y878000D01*
X1333750D01*
X1333334Y878417D01*
X1332501Y880083D02*
X1332084Y880499D01*
X1331251D01*
X1330835Y880083D01*
Y879666D01*
X1331251Y879250D01*
X1331668D01*
X1331251D01*
X1330835Y878833D01*
Y878417D01*
X1331251Y878000D01*
X1332084D01*
X1332501Y878417D01*
X1328336Y878000D02*
X1330002D01*
X1328336Y879666D01*
Y880083D01*
X1328752Y880499D01*
X1329585D01*
X1330002Y880083D01*
X1327502Y878000D02*
X1326669D01*
X1327086D01*
Y880499D01*
X1327502Y880083D01*
X1325420Y877583D02*
X1323754D01*
X1321254Y878000D02*
X1322921D01*
X1321254Y879666D01*
Y880083D01*
X1321671Y880499D01*
X1322504D01*
X1322921Y880083D01*
X1204334Y900083D02*
X1204750Y900499D01*
X1205583D01*
X1206000Y900083D01*
Y898417D01*
X1205583Y898000D01*
X1204750D01*
X1204334Y898417D01*
X1202251Y898000D02*
Y900499D01*
X1203501Y899250D01*
X1201835D01*
X1201002Y898000D02*
X1200169D01*
X1200585D01*
Y900499D01*
X1201002Y900083D01*
X1198919D02*
X1198503Y900499D01*
X1197669D01*
X1197253Y900083D01*
Y899666D01*
X1197669Y899250D01*
X1197253Y898833D01*
Y898417D01*
X1197669Y898000D01*
X1198503D01*
X1198919Y898417D01*
Y898833D01*
X1198503Y899250D01*
X1198919Y899666D01*
Y900083D01*
X1198503Y899250D02*
X1197669D01*
X1193083Y871666D02*
X1193499Y871250D01*
Y870416D01*
X1193083Y870000D01*
X1191416D01*
X1191000Y870416D01*
Y871250D01*
X1191416Y871666D01*
X1191000Y873749D02*
X1193499D01*
X1192250Y872499D01*
Y874165D01*
X1191000Y876665D02*
Y874998D01*
X1192666Y876665D01*
X1193083D01*
X1193499Y876248D01*
Y875415D01*
X1193083Y874998D01*
Y877498D02*
X1193499Y877914D01*
Y878747D01*
X1193083Y879164D01*
X1192666D01*
X1192250Y878747D01*
Y878331D01*
Y878747D01*
X1191833Y879164D01*
X1191416D01*
X1191000Y878747D01*
Y877914D01*
X1191416Y877498D01*
X1241000Y857000D02*
X1243499D01*
Y858250D01*
X1243083Y858666D01*
X1242250D01*
X1241833Y858250D01*
Y857000D01*
Y857833D02*
X1241000Y858666D01*
Y860749D02*
X1243499D01*
X1242250Y859499D01*
Y861165D01*
X1241000Y861998D02*
Y862831D01*
Y862415D01*
X1243499D01*
X1243083Y861998D01*
X1241000Y864081D02*
Y864914D01*
Y864498D01*
X1243499D01*
X1243083Y864081D01*
X1253000Y876000D02*
X1255499D01*
Y877250D01*
X1255083Y877666D01*
X1254250D01*
X1253833Y877250D01*
Y876000D01*
Y876833D02*
X1253000Y877666D01*
Y879749D02*
X1255499D01*
X1254250Y878499D01*
Y880165D01*
X1253000Y880998D02*
Y881831D01*
Y881415D01*
X1255499D01*
X1255083Y880998D01*
X1253000Y884747D02*
Y883081D01*
X1254666Y884747D01*
X1255083D01*
X1255499Y884331D01*
Y883497D01*
X1255083Y883081D01*
X1220001Y1245499D02*
X1220500Y1245999D01*
X1221500D01*
X1222000Y1245499D01*
Y1243500D01*
X1221500Y1243000D01*
X1220500D01*
X1220001Y1243500D01*
X1217002Y1243000D02*
X1219001D01*
X1217002Y1244999D01*
Y1245499D01*
X1217502Y1245999D01*
X1218501D01*
X1219001Y1245499D01*
X1216002D02*
X1215502Y1245999D01*
X1214502D01*
X1214003Y1245499D01*
Y1243500D01*
X1214502Y1243000D01*
X1215502D01*
X1216002Y1243500D01*
Y1245499D01*
X1213003D02*
X1212503Y1245999D01*
X1211503D01*
X1211003Y1245499D01*
Y1243500D01*
X1211503Y1243000D01*
X1212503D01*
X1213003Y1243500D01*
Y1245499D01*
X1147499Y1089000D02*
X1145000D01*
Y1090666D01*
Y1092749D02*
X1147499D01*
X1146250Y1091499D01*
Y1093165D01*
X1147083Y1093998D02*
X1147499Y1094415D01*
Y1095248D01*
X1147083Y1095665D01*
X1145416D01*
X1145000Y1095248D01*
Y1094415D01*
X1145416Y1093998D01*
X1147083D01*
X1147499Y1098164D02*
X1147083Y1097331D01*
X1146250Y1096498D01*
X1145416D01*
X1145000Y1096914D01*
Y1097747D01*
X1145416Y1098164D01*
X1145833D01*
X1146250Y1097747D01*
Y1096498D01*
X1166000Y1213000D02*
X1168999D01*
Y1214500D01*
X1168499Y1214999D01*
X1167499D01*
X1167000Y1214500D01*
Y1213000D01*
Y1214000D02*
X1166000Y1214999D01*
X1168999Y1215999D02*
Y1217998D01*
X1168499D01*
X1166500Y1215999D01*
X1166000D01*
X1168499Y1218998D02*
X1168999Y1219498D01*
Y1220498D01*
X1168499Y1220997D01*
X1166500D01*
X1166000Y1220498D01*
Y1219498D01*
X1166500Y1218998D01*
X1168499D01*
X1166000Y1223997D02*
Y1221997D01*
X1167999Y1223997D01*
X1168499D01*
X1168999Y1223497D01*
Y1222497D01*
X1168499Y1221997D01*
X1166000Y1232000D02*
X1168999D01*
Y1233500D01*
X1168499Y1233999D01*
X1167499D01*
X1167000Y1233500D01*
Y1232000D01*
Y1233000D02*
X1166000Y1233999D01*
X1168999Y1234999D02*
Y1236998D01*
X1168499D01*
X1166500Y1234999D01*
X1166000D01*
X1168499Y1237998D02*
X1168999Y1238498D01*
Y1239498D01*
X1168499Y1239997D01*
X1166500D01*
X1166000Y1239498D01*
Y1238498D01*
X1166500Y1237998D01*
X1168499D01*
Y1240997D02*
X1168999Y1241497D01*
Y1242497D01*
X1168499Y1242996D01*
X1167999D01*
X1167499Y1242497D01*
Y1241997D01*
Y1242497D01*
X1167000Y1242996D01*
X1166500D01*
X1166000Y1242497D01*
Y1241497D01*
X1166500Y1240997D01*
X1158000Y1213000D02*
X1160999D01*
Y1214500D01*
X1160499Y1214999D01*
X1159500D01*
X1159000Y1214500D01*
Y1213000D01*
Y1214000D02*
X1158000Y1214999D01*
X1160999Y1215999D02*
Y1217998D01*
X1160499D01*
X1158500Y1215999D01*
X1158000D01*
X1160499Y1218998D02*
X1160999Y1219498D01*
Y1220498D01*
X1160499Y1220997D01*
X1158500D01*
X1158000Y1220498D01*
Y1219498D01*
X1158500Y1218998D01*
X1160499D01*
Y1221997D02*
X1160999Y1222497D01*
Y1223497D01*
X1160499Y1223997D01*
X1158500D01*
X1158000Y1223497D01*
Y1222497D01*
X1158500Y1221997D01*
X1160499D01*
X1157000Y1232000D02*
X1159999D01*
Y1233500D01*
X1159499Y1233999D01*
X1158500D01*
X1158000Y1233500D01*
Y1232000D01*
Y1233000D02*
X1157000Y1233999D01*
X1159999Y1234999D02*
Y1236998D01*
X1159499D01*
X1157500Y1234999D01*
X1157000D01*
X1159499Y1237998D02*
X1159999Y1238498D01*
Y1239498D01*
X1159499Y1239997D01*
X1157500D01*
X1157000Y1239498D01*
Y1238498D01*
X1157500Y1237998D01*
X1159499D01*
X1157000Y1240997D02*
Y1241997D01*
Y1241497D01*
X1159999D01*
X1159499Y1240997D01*
X1276000Y1010499D02*
X1274001D01*
X1275000Y1011499D02*
Y1009500D01*
X1273001Y1009000D02*
X1271002Y1010999D01*
X1270002Y1010499D02*
X1268003D01*
D100*
X1233916Y932333D02*
X1234499Y931749D01*
Y930583D01*
X1233916Y930000D01*
X1231583D01*
X1231000Y930583D01*
Y931749D01*
X1231583Y932333D01*
X1233916Y933499D02*
X1234499Y934082D01*
Y935248D01*
X1233916Y935831D01*
X1233333D01*
X1232749Y935248D01*
Y934665D01*
Y935248D01*
X1232166Y935831D01*
X1231583D01*
X1231000Y935248D01*
Y934082D01*
X1231583Y933499D01*
X1231000Y936998D02*
Y938164D01*
Y937581D01*
X1234499D01*
X1233916Y936998D01*
Y939913D02*
X1234499Y940497D01*
Y941663D01*
X1233916Y942246D01*
X1233333D01*
X1232749Y941663D01*
X1232166Y942246D01*
X1231583D01*
X1231000Y941663D01*
Y940497D01*
X1231583Y939913D01*
X1232166D01*
X1232749Y940497D01*
X1233333Y939913D01*
X1233916D01*
X1232749Y940497D02*
Y941663D01*
X1230417Y943412D02*
Y945745D01*
X1231000Y949244D02*
Y946911D01*
X1233333Y949244D01*
X1233916D01*
X1234499Y948661D01*
Y947494D01*
X1233916Y946911D01*
X1346916Y1033333D02*
X1347499Y1032749D01*
Y1031583D01*
X1346916Y1031000D01*
X1344583D01*
X1344000Y1031583D01*
Y1032749D01*
X1344583Y1033333D01*
X1344000Y1036248D02*
X1347499D01*
X1345749Y1034499D01*
Y1036831D01*
X1344000Y1040330D02*
Y1037998D01*
X1346333Y1040330D01*
X1346916D01*
X1347499Y1039747D01*
Y1038581D01*
X1346916Y1037998D01*
X1344000Y1043829D02*
Y1041497D01*
X1346333Y1043829D01*
X1346916D01*
X1347499Y1043246D01*
Y1042080D01*
X1346916Y1041497D01*
X1392916Y1041333D02*
X1393499Y1040749D01*
Y1039583D01*
X1392916Y1039000D01*
X1390583D01*
X1390000Y1039583D01*
Y1040749D01*
X1390583Y1041333D01*
X1390000Y1044248D02*
X1393499D01*
X1391749Y1042499D01*
Y1044831D01*
X1390000Y1048330D02*
Y1045998D01*
X1392333Y1048330D01*
X1392916D01*
X1393499Y1047747D01*
Y1046581D01*
X1392916Y1045998D01*
X1393499Y1051829D02*
X1392916Y1050663D01*
X1391749Y1049497D01*
X1390583D01*
X1390000Y1050080D01*
Y1051246D01*
X1390583Y1051829D01*
X1391166D01*
X1391749Y1051246D01*
Y1049497D01*
D101*
X847661Y776083D02*
X848994Y774750D01*
Y772084D01*
X847661Y770751D01*
X842329D01*
X840996Y772084D01*
Y774750D01*
X842329Y776083D01*
X840996Y782748D02*
X848994D01*
X844995Y778749D01*
Y784081D01*
X847661Y786746D02*
X848994Y788079D01*
Y790745D01*
X847661Y792078D01*
X846328D01*
X844995Y790745D01*
Y789412D01*
Y790745D01*
X843662Y792078D01*
X842329D01*
X840996Y790745D01*
Y788079D01*
X842329Y786746D01*
X848994Y800075D02*
X847661Y797410D01*
X844995Y794744D01*
X842329D01*
X840996Y796077D01*
Y798742D01*
X842329Y800075D01*
X843662D01*
X844995Y798742D01*
Y794744D01*
X876661Y776333D02*
X877994Y775000D01*
Y772334D01*
X876661Y771002D01*
X871329D01*
X869997Y772334D01*
Y775000D01*
X871329Y776333D01*
X869997Y782998D02*
X877994D01*
X873995Y778999D01*
Y784331D01*
X876661Y786996D02*
X877994Y788329D01*
Y790995D01*
X876661Y792328D01*
X875328D01*
X873995Y790995D01*
Y789662D01*
Y790995D01*
X872662Y792328D01*
X871329D01*
X869997Y790995D01*
Y788329D01*
X871329Y786996D01*
X877994Y800325D02*
Y794994D01*
X873995D01*
X875328Y797660D01*
Y798992D01*
X873995Y800325D01*
X871329D01*
X869997Y798992D01*
Y796327D01*
X871329Y794994D01*
M02*
