G04 Layer_Color=8388736*
%FSLAX44Y44*%
%MOMM*%
G71*
G01*
G75*
%ADD20O,1.1250X0.2250*%
%ADD21O,1.1120X0.2500*%
%ADD22O,1.1370X0.2000*%
%ADD23O,1.0980X0.2750*%
%ADD24O,1.0820X0.3000*%
%ADD25O,0.7600X0.5000*%
%ADD26O,1.0630X0.3250*%
%ADD27O,1.0400X0.3500*%
%ADD28O,1.0130X0.3750*%
%ADD29O,0.9810X0.4000*%
%ADD30O,0.9430X0.4250*%
%ADD31O,0.8970X0.4500*%
%ADD32O,0.8650X0.4650*%
%ADD33O,0.8400X0.4750*%
%ADD34O,0.8000X0.4900*%
%ADD35O,0.6300X0.5200*%
%ADD36O,0.7100X0.5100*%
%ADD37C,0.5250*%
%ADD77C,0.2000*%
%ADD79C,0.3500*%
%ADD85C,0.1250*%
%ADD88C,0.1200*%
%ADD119C,0.7000*%
%ADD120R,4.2500X1.1500*%
%ADD121R,1.1500X4.2500*%
%ADD122R,3.9500X1.1500*%
%ADD123R,1.1500X3.9500*%
%ADD124R,0.9500X0.9500*%
%ADD125R,0.6700X0.6700*%
%ADD126R,0.6000X0.7000*%
%ADD127R,0.7000X0.6000*%
%ADD128R,0.6700X0.6700*%
%ADD129C,0.7500*%
%ADD130R,1.0500X0.8500*%
%ADD131R,1.4500X1.4500*%
%ADD132R,1.0500X1.7500*%
%ADD133R,1.0500X1.1500*%
%ADD134R,0.5500X0.6300*%
%ADD135R,0.8500X1.0500*%
%ADD136R,1.5000X1.1000*%
%ADD137O,0.5490X1.6500*%
%ADD138O,1.6500X0.5490*%
%ADD139R,0.9120X1.1500*%
%ADD140R,0.8000X1.0500*%
%ADD141R,2.7500X1.1000*%
%ADD142O,1.7000X0.4000*%
%ADD143O,0.4000X1.7000*%
%ADD144R,0.8000X0.6500*%
%ADD145R,1.4200X0.8100*%
%ADD146R,1.1700X0.8100*%
%ADD147R,1.4500X1.4500*%
%ADD148R,1.7500X1.0500*%
%ADD149O,2.0500X0.7500*%
%ADD150R,0.9120X1.2930*%
%ADD151R,1.2930X0.9120*%
%ADD152O,1.5500X0.5000*%
%ADD153R,1.5100X1.6100*%
%ADD154R,0.9000X0.4000*%
%ADD155O,0.9500X0.4000*%
%ADD156O,0.4000X0.9500*%
%ADD157R,2.6000X2.6000*%
%ADD158R,0.9500X0.9500*%
%ADD159O,1.6500X0.5500*%
%ADD160R,1.1300X2.2300*%
%ADD161R,0.6500X0.8000*%
%ADD162R,1.0500X0.8000*%
%ADD163R,1.4200X0.9100*%
%ADD164R,0.7500X0.5000*%
%ADD165R,4.1000X1.6500*%
%ADD166R,4.4000X1.6500*%
%ADD167R,0.6500X1.1500*%
%ADD168R,2.7500X0.7500*%
%ADD169R,3.9600X4.0600*%
%ADD170C,1.5500*%
%ADD171R,1.5500X1.5500*%
%ADD172C,1.6740*%
%ADD173R,1.6740X1.6740*%
G36*
X918058Y944984D02*
X916192D01*
Y945034D01*
X916425Y946367D01*
X916159Y946100D01*
X915875Y945867D01*
X915575Y945667D01*
X915259Y945484D01*
X914959Y945350D01*
X914642Y945217D01*
X914326Y945117D01*
X914043Y945034D01*
X913759Y944984D01*
X913509Y944934D01*
X913276Y944901D01*
X913076Y944867D01*
X912909D01*
X912776Y944850D01*
X912676D01*
X912293Y944867D01*
X911926Y944917D01*
X911610Y945001D01*
X911343Y945084D01*
X911110Y945167D01*
X910943Y945250D01*
X910877Y945267D01*
X910827Y945300D01*
X910810Y945317D01*
X910793D01*
X910510Y945500D01*
X910260Y945700D01*
X910043Y945917D01*
X909877Y946133D01*
X909727Y946317D01*
X909627Y946467D01*
X909560Y946567D01*
X909544Y946583D01*
Y946600D01*
X909394Y946917D01*
X909277Y947250D01*
X909210Y947567D01*
X909144Y947850D01*
X909110Y948116D01*
Y948216D01*
X909094Y948316D01*
Y948400D01*
Y948450D01*
Y948483D01*
Y948500D01*
X909110Y948900D01*
X909144Y949099D01*
X909160Y949283D01*
X909194Y949433D01*
X909210Y949549D01*
X909227Y949633D01*
Y949666D01*
X910877Y957947D01*
X912776D01*
X912759Y957931D01*
X911160Y949949D01*
X911110Y949716D01*
X911077Y949483D01*
X911060Y949283D01*
X911043Y949099D01*
X911027Y948966D01*
Y948849D01*
Y948783D01*
Y948749D01*
X911060Y948383D01*
X911127Y948066D01*
X911227Y947783D01*
X911343Y947550D01*
X911443Y947367D01*
X911543Y947233D01*
X911610Y947150D01*
X911643Y947117D01*
X911893Y946917D01*
X912176Y946783D01*
X912460Y946683D01*
X912743Y946600D01*
X912976Y946567D01*
X913176Y946550D01*
X913259Y946533D01*
X913359D01*
X913743Y946550D01*
X913926Y946583D01*
X914076Y946617D01*
X914209Y946633D01*
X914326Y946667D01*
X914392Y946683D01*
X914409D01*
X914742Y946800D01*
X915042Y946950D01*
X915309Y947100D01*
X915526Y947250D01*
X915725Y947400D01*
X915859Y947516D01*
X915942Y947583D01*
X915975Y947617D01*
X916275Y947983D01*
X916509Y948366D01*
X916709Y948766D01*
X916875Y949149D01*
X916925Y949333D01*
X916992Y949499D01*
X917025Y949649D01*
X917058Y949766D01*
X917092Y949866D01*
X917108Y949949D01*
X917125Y949999D01*
Y950016D01*
X918708Y957947D01*
X920624D01*
X918058Y944984D01*
D02*
G37*
G36*
X946618Y958097D02*
X947034Y958047D01*
X947384Y957964D01*
X947701Y957880D01*
X947951Y957797D01*
X948051Y957764D01*
X948134Y957714D01*
X948217Y957697D01*
X948267Y957664D01*
X948284Y957647D01*
X948300D01*
X948634Y957464D01*
X948934Y957231D01*
X949217Y956997D01*
X949450Y956748D01*
X949650Y956531D01*
X949800Y956364D01*
X949850Y956298D01*
X949883Y956248D01*
X949917Y956214D01*
Y956198D01*
X949950Y956164D01*
X948517Y954965D01*
X948500Y955015D01*
X948300Y955281D01*
X948117Y955498D01*
X947934Y955681D01*
X947767Y955831D01*
X947617Y955948D01*
X947517Y956031D01*
X947451Y956081D01*
X947417Y956098D01*
X947201Y956214D01*
X946951Y956298D01*
X946718Y956348D01*
X946501Y956398D01*
X946301Y956414D01*
X946151Y956431D01*
X946001D01*
X945701Y956414D01*
X945418Y956381D01*
X945135Y956314D01*
X944868Y956231D01*
X944618Y956148D01*
X944385Y956048D01*
X944168Y955931D01*
X943968Y955814D01*
X943802Y955698D01*
X943635Y955581D01*
X943502Y955481D01*
X943385Y955398D01*
X943285Y955314D01*
X943218Y955248D01*
X943185Y955214D01*
X943168Y955198D01*
X942918Y954898D01*
X942702Y954598D01*
X942502Y954281D01*
X942335Y953981D01*
X942202Y953732D01*
X942152Y953615D01*
X942102Y953515D01*
X942069Y953448D01*
X942035Y953382D01*
X942019Y953348D01*
Y953332D01*
X941902Y953015D01*
X941785Y952682D01*
X941702Y952382D01*
X941619Y952082D01*
X941569Y951832D01*
X941535Y951732D01*
X941519Y951649D01*
X941502Y951565D01*
Y951516D01*
X941486Y951482D01*
Y951466D01*
X941419Y951082D01*
X941369Y950716D01*
X941336Y950399D01*
X941319Y950116D01*
X941302Y949883D01*
X941285Y949699D01*
Y949633D01*
Y949583D01*
Y949566D01*
Y949549D01*
X941302Y949266D01*
X941319Y948999D01*
X941369Y948749D01*
X941419Y948533D01*
X941486Y948316D01*
X941569Y948133D01*
X941652Y947950D01*
X941735Y947800D01*
X941802Y947650D01*
X941885Y947533D01*
X941969Y947433D01*
X942035Y947350D01*
X942085Y947283D01*
X942135Y947233D01*
X942152Y947217D01*
X942169Y947200D01*
X942469Y946983D01*
X942768Y946817D01*
X943085Y946700D01*
X943385Y946617D01*
X943652Y946567D01*
X943768Y946550D01*
X943868D01*
X943935Y946533D01*
X944052D01*
X944385Y946550D01*
X944685Y946583D01*
X944951Y946633D01*
X945201Y946700D01*
X945401Y946767D01*
X945535Y946817D01*
X945634Y946850D01*
X945668Y946867D01*
X945951Y947017D01*
X946218Y947183D01*
X946468Y947367D01*
X946701Y947567D01*
X946884Y947733D01*
X947034Y947866D01*
X947134Y947966D01*
X947167Y947983D01*
Y948000D01*
X947184Y948016D01*
Y948000D01*
X948284Y946667D01*
X948267Y946650D01*
X947934Y946333D01*
X947584Y946067D01*
X947251Y945834D01*
X946951Y945650D01*
X946684Y945500D01*
X946568Y945450D01*
X946468Y945400D01*
X946384Y945367D01*
X946334Y945334D01*
X946301Y945317D01*
X946284D01*
X945868Y945167D01*
X945451Y945051D01*
X945068Y944967D01*
X944701Y944917D01*
X944551Y944884D01*
X944401D01*
X944268Y944867D01*
X944168Y944850D01*
X943951D01*
X943452Y944867D01*
X942985Y944934D01*
X942569Y945034D01*
X942219Y945134D01*
X942052Y945184D01*
X941919Y945234D01*
X941802Y945284D01*
X941702Y945334D01*
X941619Y945367D01*
X941569Y945400D01*
X941535Y945417D01*
X941519D01*
X941152Y945650D01*
X940836Y945900D01*
X940569Y946167D01*
X940352Y946417D01*
X940169Y946650D01*
X940036Y946850D01*
X940003Y946917D01*
X939969Y946967D01*
X939936Y947000D01*
Y947017D01*
X939753Y947433D01*
X939619Y947850D01*
X939519Y948266D01*
X939453Y948650D01*
X939436Y948833D01*
X939419Y948983D01*
X939403Y949133D01*
Y949266D01*
X939386Y949366D01*
Y949433D01*
Y949483D01*
Y949499D01*
X939403Y949866D01*
X939419Y950232D01*
X939453Y950566D01*
X939486Y950882D01*
X939519Y951132D01*
X939536Y951232D01*
X939553Y951332D01*
X939569Y951399D01*
X939586Y951449D01*
Y951482D01*
Y951499D01*
X939703Y952065D01*
X939853Y952615D01*
X940019Y953115D01*
X940186Y953598D01*
X940386Y954032D01*
X940569Y954431D01*
X940769Y954798D01*
X940952Y955115D01*
X941136Y955415D01*
X941319Y955664D01*
X941469Y955881D01*
X941602Y956064D01*
X941719Y956198D01*
X941819Y956298D01*
X941869Y956364D01*
X941885Y956381D01*
X942219Y956681D01*
X942569Y956947D01*
X942918Y957181D01*
X943285Y957381D01*
X943652Y957547D01*
X944001Y957697D01*
X944351Y957814D01*
X944685Y957897D01*
X944985Y957964D01*
X945285Y958030D01*
X945535Y958064D01*
X945751Y958081D01*
X945934Y958097D01*
X946068Y958114D01*
X946184D01*
X946618Y958097D01*
D02*
G37*
G36*
X954999Y956647D02*
X955265Y956914D01*
X955565Y957131D01*
X955865Y957331D01*
X956165Y957497D01*
X956482Y957631D01*
X956782Y957764D01*
X957082Y957847D01*
X957381Y957931D01*
X957648Y957997D01*
X957898Y958030D01*
X958115Y958064D01*
X958315Y958097D01*
X958481D01*
X958598Y958114D01*
X958698D01*
X959081Y958097D01*
X959448Y958047D01*
X959764Y957964D01*
X960047Y957880D01*
X960264Y957797D01*
X960431Y957714D01*
X960497Y957697D01*
X960547Y957664D01*
X960564Y957647D01*
X960581D01*
X960864Y957464D01*
X961131Y957264D01*
X961347Y957047D01*
X961514Y956831D01*
X961664Y956647D01*
X961764Y956498D01*
X961830Y956398D01*
X961847Y956381D01*
Y956364D01*
X961997Y956048D01*
X962113Y955714D01*
X962180Y955398D01*
X962247Y955098D01*
X962280Y954831D01*
Y954731D01*
X962297Y954631D01*
Y954548D01*
Y954498D01*
Y954465D01*
Y954448D01*
Y954248D01*
X962280Y954032D01*
X962263Y953815D01*
X962230Y953598D01*
X962214Y953432D01*
X962180Y953282D01*
X962163Y953182D01*
Y953165D01*
Y953148D01*
X960497Y944984D01*
X958614D01*
X960214Y952965D01*
X960264Y953248D01*
X960297Y953498D01*
X960331Y953698D01*
X960347Y953865D01*
X960364Y953998D01*
Y954098D01*
Y954148D01*
Y954165D01*
X960331Y954548D01*
X960264Y954881D01*
X960164Y955165D01*
X960047Y955398D01*
X959931Y955581D01*
X959831Y955714D01*
X959764Y955798D01*
X959731Y955831D01*
X959481Y956031D01*
X959214Y956181D01*
X958931Y956281D01*
X958664Y956364D01*
X958415Y956398D01*
X958231Y956414D01*
X958148Y956431D01*
X958048D01*
X957665Y956398D01*
X957481Y956381D01*
X957315Y956348D01*
X957181Y956314D01*
X957082Y956298D01*
X956998Y956264D01*
X956982D01*
X956648Y956148D01*
X956348Y955998D01*
X956082Y955848D01*
X955848Y955698D01*
X955665Y955548D01*
X955532Y955431D01*
X955449Y955348D01*
X955415Y955314D01*
X955115Y954965D01*
X954865Y954565D01*
X954666Y954165D01*
X954516Y953782D01*
X954382Y953448D01*
X954349Y953298D01*
X954315Y953165D01*
X954282Y953065D01*
X954266Y952982D01*
X954249Y952932D01*
Y952915D01*
X952666Y944984D01*
X950783D01*
X954582Y963862D01*
X956465D01*
X954999Y956647D01*
D02*
G37*
G36*
X907561Y956364D02*
X898963Y946667D01*
X905778D01*
X905461Y944984D01*
X896314D01*
X896630Y946583D01*
X905211Y956264D01*
X898780D01*
Y956314D01*
X899096Y957947D01*
X907877D01*
X907561Y956364D01*
D02*
G37*
G36*
X934970Y944984D02*
X933088D01*
Y945034D01*
X935687Y957947D01*
X937553D01*
X934970Y944984D01*
D02*
G37*
G36*
X919908Y961513D02*
X918025D01*
X918508Y963862D01*
X920391D01*
X919908Y961513D01*
D02*
G37*
G36*
X938286D02*
X936387D01*
X936870Y963862D01*
X938770D01*
X938286Y961513D01*
D02*
G37*
G36*
X914876D02*
X912993D01*
X913476Y963862D01*
X915359D01*
X914876Y961513D01*
D02*
G37*
G36*
X930338Y958097D02*
X930638Y958064D01*
X930921Y957997D01*
X931205Y957931D01*
X931455Y957831D01*
X931688Y957731D01*
X931888Y957614D01*
X932088Y957514D01*
X932254Y957397D01*
X932404Y957281D01*
X932521Y957181D01*
X932638Y957081D01*
X932721Y957014D01*
X932771Y956947D01*
X932804Y956914D01*
X932821Y956898D01*
X932854Y956864D01*
X931305Y955515D01*
Y955531D01*
X931171Y955698D01*
X931021Y955831D01*
X930872Y955948D01*
X930722Y956048D01*
X930422Y956214D01*
X930122Y956314D01*
X929872Y956381D01*
X929772Y956398D01*
X929672Y956414D01*
X929588Y956431D01*
X929489D01*
X929172Y956414D01*
X928872Y956364D01*
X928589Y956281D01*
X928339Y956214D01*
X928139Y956131D01*
X927972Y956048D01*
X927872Y955998D01*
X927856Y955981D01*
X927839D01*
X927556Y955798D01*
X927306Y955598D01*
X927089Y955381D01*
X926889Y955181D01*
X926739Y954998D01*
X926623Y954848D01*
X926556Y954748D01*
X926523Y954731D01*
Y954715D01*
X926339Y954415D01*
X926173Y954098D01*
X926039Y953798D01*
X925939Y953515D01*
X925873Y953282D01*
X925806Y953082D01*
X925789Y953015D01*
Y952965D01*
X925773Y952932D01*
Y952915D01*
X924190Y944984D01*
X922290D01*
X922307Y945034D01*
X924873Y957947D01*
X926756D01*
X926723Y957931D01*
X926456Y956464D01*
X926689Y956748D01*
X926939Y956981D01*
X927206Y957197D01*
X927439Y957364D01*
X927656Y957497D01*
X927822Y957597D01*
X927889Y957631D01*
X927939Y957664D01*
X927956Y957681D01*
X927972D01*
X928322Y957831D01*
X928689Y957931D01*
X929022Y958014D01*
X929339Y958064D01*
X929605Y958097D01*
X929722D01*
X929822Y958114D01*
X930005D01*
X930338Y958097D01*
D02*
G37*
G36*
X891365Y944984D02*
X885433D01*
X886899Y952299D01*
X882667D01*
X881201Y944984D01*
X875302D01*
X878135Y959147D01*
X873186D01*
X870337Y944984D01*
X864422D01*
X867288Y959147D01*
X853808D01*
X853291Y956547D01*
X861789D01*
X860923Y952299D01*
X852425D01*
X851908Y949716D01*
X860423D01*
X859473Y944984D01*
X845077D01*
X848876Y963862D01*
X885000D01*
X883500Y956547D01*
X887766D01*
X889232Y963862D01*
X895164D01*
X891365Y944984D01*
D02*
G37*
D20*
X891000Y1271875D02*
D03*
Y1268125D02*
D03*
D21*
Y1272000D02*
D03*
Y1268000D02*
D03*
D22*
Y1271750D02*
D03*
Y1268250D02*
D03*
D23*
Y1272125D02*
D03*
Y1267875D02*
D03*
D24*
Y1272250D02*
D03*
Y1267750D02*
D03*
D25*
Y1273250D02*
D03*
Y1266750D02*
D03*
D26*
Y1272375D02*
D03*
Y1267625D02*
D03*
D27*
Y1272500D02*
D03*
Y1267500D02*
D03*
D28*
Y1272625D02*
D03*
Y1267375D02*
D03*
D29*
Y1272750D02*
D03*
Y1267250D02*
D03*
D30*
Y1272875D02*
D03*
Y1267125D02*
D03*
D31*
Y1273000D02*
D03*
Y1267000D02*
D03*
D32*
Y1273075D02*
D03*
Y1266925D02*
D03*
D33*
Y1273125D02*
D03*
Y1266875D02*
D03*
D34*
Y1273200D02*
D03*
Y1266800D02*
D03*
D35*
Y1273350D02*
D03*
Y1266650D02*
D03*
D36*
Y1273300D02*
D03*
Y1266700D02*
D03*
D37*
Y1273375D02*
D03*
Y1266625D02*
D03*
D77*
X847000Y930000D02*
Y939997D01*
X851998D01*
X853664Y938331D01*
Y934998D01*
X851998Y933332D01*
X847000D01*
X850332D02*
X853664Y930000D01*
X858663D02*
X861995D01*
X863661Y931666D01*
Y934998D01*
X861995Y936665D01*
X858663D01*
X856997Y934998D01*
Y931666D01*
X858663Y930000D01*
X873658Y936665D02*
X868660D01*
X866994Y934998D01*
Y931666D01*
X868660Y930000D01*
X873658D01*
X876990D02*
Y939997D01*
Y933332D02*
X881989Y936665D01*
X876990Y933332D02*
X881989Y930000D01*
X891985D02*
X888653D01*
X886987Y931666D01*
Y934998D01*
X888653Y936665D01*
X891985D01*
X893652Y934998D01*
Y933332D01*
X886987D01*
X898650Y938331D02*
Y936665D01*
X896984D01*
X900316D01*
X898650D01*
Y931666D01*
X900316Y930000D01*
X905314Y939997D02*
Y930000D01*
X911979D01*
X916977D02*
X920310D01*
X921976Y931666D01*
Y934998D01*
X920310Y936665D01*
X916977D01*
X915311Y934998D01*
Y931666D01*
X916977Y930000D01*
X928640Y926668D02*
X930306D01*
X931973Y928334D01*
Y936665D01*
X926974D01*
X925308Y934998D01*
Y931666D01*
X926974Y930000D01*
X931973D01*
X938637Y926668D02*
X940303D01*
X941969Y928334D01*
Y936665D01*
X936971D01*
X935305Y934998D01*
Y931666D01*
X936971Y930000D01*
X941969D01*
X950300D02*
X946968D01*
X945302Y931666D01*
Y934998D01*
X946968Y936665D01*
X950300D01*
X951966Y934998D01*
Y933332D01*
X945302D01*
X955298Y936665D02*
Y930000D01*
Y933332D01*
X956965Y934998D01*
X958631Y936665D01*
X960297D01*
X1663750Y827250D02*
X1664000Y827000D01*
X1663750Y877750D02*
X1664000Y878000D01*
X1646000Y1349000D02*
Y1361950D01*
X1647000Y1324750D02*
X1664000D01*
X1543000Y1212000D02*
Y1220000D01*
X1542000Y1211000D02*
X1543000Y1212000D01*
X1534000Y1178000D02*
Y1180750D01*
Y1178000D02*
X1536750Y1180750D01*
X1534000D02*
X1536750D01*
X1527154D02*
X1534000D01*
X1532980Y1224458D02*
Y1285102D01*
X1586398Y1338520D01*
X1613520D01*
X1543000Y1220000D02*
X1549500D01*
X1646000Y888400D02*
X1646000Y888400D01*
X1622700Y1067300D02*
X1645250D01*
X1557000Y1135000D02*
X1560000Y1132000D01*
X1552000Y1135000D02*
X1557000D01*
X1552000Y1134000D02*
Y1135000D01*
X1549000Y1131000D02*
X1552000Y1134000D01*
X1549000Y1121722D02*
Y1131000D01*
Y1121722D02*
X1551861Y1118862D01*
X1589489Y1330511D02*
X1615489D01*
X1621250Y1324750D02*
X1646750D01*
X1647000Y1321000D02*
Y1324750D01*
Y1309050D02*
Y1321000D01*
X1540020Y1281042D02*
X1589489Y1330511D01*
X1541562Y1220000D02*
X1543000D01*
X1540020Y1221542D02*
X1541562Y1220000D01*
X1540020Y1221542D02*
Y1281042D01*
X1534000Y1190000D02*
X1536500Y1187500D01*
X1615489Y1330511D02*
X1621250Y1324750D01*
X1645000Y827550D02*
X1645250Y827300D01*
X1645000Y844750D02*
X1663750D01*
X1645000Y882450D02*
X1645250Y882700D01*
X1645000Y865250D02*
X1663750D01*
X1645000Y841000D02*
Y844750D01*
Y827550D02*
Y841000D01*
Y869000D02*
Y882450D01*
Y865250D02*
Y869000D01*
X1663750Y865250D02*
Y877750D01*
X1645000Y749000D02*
Y762450D01*
X1644000Y708550D02*
X1645250Y707300D01*
X1644000Y708550D02*
Y721000D01*
X1645000Y745250D02*
Y749000D01*
Y745250D02*
X1664000D01*
Y761000D01*
X1644000Y721000D02*
Y724750D01*
X1664000D01*
Y714000D02*
Y724750D01*
X1613520Y1338520D02*
X1620250Y1345250D01*
X1664000D02*
Y1355000D01*
X1656300Y1242700D02*
X1664000Y1235000D01*
Y1225250D02*
Y1235000D01*
X1645000Y1225250D02*
X1664000D01*
X1645000Y1229000D02*
Y1242450D01*
Y1225250D02*
Y1229000D01*
X1645250Y1204750D02*
X1663000D01*
Y1187000D02*
X1664000Y1186000D01*
X1588000Y1179000D02*
X1589000Y1180000D01*
X1531250Y1212772D02*
X1540020Y1221542D01*
X1531250Y1208500D02*
Y1212772D01*
X1522500Y1206750D02*
X1529500D01*
X1531250Y1208500D01*
X1513750Y1194154D02*
X1527154Y1180750D01*
X1526772Y1218250D02*
X1532980Y1224458D01*
X1511750Y1217000D02*
X1513000Y1218250D01*
X1526772D01*
X1511750Y1207750D02*
Y1217000D01*
Y1207750D02*
X1513750Y1205750D01*
Y1194154D02*
Y1205750D01*
X1583000Y1078000D02*
X1589250Y1071750D01*
X1618250D01*
X1622700Y1067300D01*
X1560000Y1132000D02*
X1560250Y1132250D01*
X1484750Y1142801D02*
X1492051D01*
X1498000Y1148750D01*
X1558000D01*
X1564250Y1142500D01*
Y1132000D02*
Y1142500D01*
X1531318Y1187500D02*
X1536500D01*
X1664000Y1307000D02*
Y1324750D01*
X1620250Y1345250D02*
X1664000D01*
X1663750Y827250D02*
Y844750D01*
X1632000Y882096D02*
Y888400D01*
X1646000D01*
X1645250Y1187300D02*
Y1204750D01*
X1663000Y1187000D02*
Y1204750D01*
D79*
X1569595Y1042819D02*
Y1047819D01*
X1575000Y1132000D02*
X1580000Y1137000D01*
X1484750Y1130350D02*
Y1142801D01*
X1609000Y1137000D02*
X1623300Y1122700D01*
X1564250Y1132000D02*
X1575000D01*
X1573096Y1051319D02*
Y1056096D01*
X1581922Y1064921D01*
Y1091078D01*
X1569252Y1019681D02*
Y1024681D01*
X1578000Y980000D02*
Y1010933D01*
X1560000Y1132000D02*
X1564250D01*
X1569252Y1019681D02*
X1578000Y1010933D01*
X1484845Y1117650D02*
Y1129669D01*
X1569595Y1047819D02*
X1573096Y1051319D01*
X1580000Y1137000D02*
X1609000D01*
D85*
X1504000Y1040000D02*
X1509375Y1034625D01*
X1504000Y1027843D02*
X1508657Y1032500D01*
X1497827Y1021671D02*
X1504000Y1027843D01*
X1497827Y1013440D02*
Y1021671D01*
X1581000Y927000D02*
X1583000Y925000D01*
X1565753Y921181D02*
X1579181D01*
X1536118Y970006D02*
X1537668Y971556D01*
X1515883Y970006D02*
X1536118D01*
X1562877Y918306D02*
X1565753Y921181D01*
X1464000Y939000D02*
X1468125Y934875D01*
X1429125Y924125D02*
Y928125D01*
X1428000Y923000D02*
X1429125Y924125D01*
X1412250Y1134250D02*
Y1152750D01*
X1458000Y1105377D02*
Y1110000D01*
Y1105377D02*
X1461252Y1102125D01*
X1471875D01*
X1509127Y1016000D02*
X1514377Y1021250D01*
X1509127Y976761D02*
X1515883Y970006D01*
X1620250Y865250D02*
X1645000D01*
X1616000Y861000D02*
X1620250Y865250D01*
X1613536Y861000D02*
X1616000D01*
X1610500Y864035D02*
X1613536Y861000D01*
X1574000Y891469D02*
X1576969Y888500D01*
X1574000Y891469D02*
Y899000D01*
X1570319Y902681D02*
X1574000Y899000D01*
X1569252Y902681D02*
X1570319D01*
X1620250Y844750D02*
X1645000D01*
X1605500Y859500D02*
X1620250Y844750D01*
X1605500Y859500D02*
Y876964D01*
X1576969Y888500D02*
X1601035D01*
X1610500Y879035D01*
Y864035D02*
Y879035D01*
X1598965Y883500D02*
X1605500Y876964D01*
X1574898Y883500D02*
X1598965D01*
X1572398Y886000D02*
X1574898Y883500D01*
X1559626Y886000D02*
X1572398D01*
X1554877Y863378D02*
Y879091D01*
X1545000Y853500D02*
X1554877Y863378D01*
X1620250Y745250D02*
X1645000D01*
X1577191Y737875D02*
X1612875D01*
X1541875Y773191D02*
X1577191Y737875D01*
X1541875Y773191D02*
Y843875D01*
X1545000Y847000D01*
Y853500D01*
X1620250Y724750D02*
X1644000D01*
X1612875Y732125D02*
X1620250Y724750D01*
X1612875Y737875D02*
X1620250Y745250D01*
X1574809Y732125D02*
X1612875D01*
X1536125Y770809D02*
X1574809Y732125D01*
X1536125Y770809D02*
Y842000D01*
X1527625Y850500D02*
X1536125Y842000D01*
X1526500Y850500D02*
X1527625D01*
X1603965Y1190500D02*
X1605500Y1192036D01*
Y1212036D01*
X1618714Y1225250D01*
X1645000D01*
X1571000Y1167500D02*
Y1169000D01*
X1620250Y1204750D02*
X1645250D01*
X1614000Y1211000D02*
X1620250Y1204750D01*
X1611536Y1211000D02*
X1614000D01*
X1610500Y1209965D02*
X1611536Y1211000D01*
X1610500Y1189965D02*
Y1209965D01*
X1606035Y1185500D02*
X1610500Y1189965D01*
X1583035Y1185500D02*
X1606035D01*
X1575750Y1178214D02*
X1583035Y1185500D01*
X1575750Y1174932D02*
Y1178214D01*
X1580965Y1190500D02*
X1603965D01*
X1487725Y1117650D02*
X1493250Y1112125D01*
X1452000Y1116000D02*
X1458000Y1110000D01*
X1452000Y1116000D02*
Y1129250D01*
X1449375Y1131875D02*
X1452000Y1129250D01*
X1414625Y1131875D02*
X1449375D01*
X1412250Y1134250D02*
X1414625Y1131875D01*
X1493250Y1100500D02*
Y1112125D01*
X1471875Y1102125D02*
X1473974Y1100026D01*
X1446000Y1101000D02*
Y1109000D01*
Y1101000D02*
X1452500Y1094500D01*
X1493750D01*
X1390750Y1121500D02*
X1433500D01*
X1446000Y1109000D01*
X1387750Y1124500D02*
X1390750Y1121500D01*
X1387750Y1124500D02*
Y1127250D01*
X1499750Y1044250D02*
Y1088500D01*
X1493750Y1094500D02*
X1499750Y1088500D01*
Y1044250D02*
X1504000Y1040000D01*
X1621250Y997500D02*
X1626450Y1002700D01*
X1590000Y997500D02*
X1621250D01*
X1583000Y990500D02*
X1590000Y997500D01*
X1614550Y947300D02*
X1645250D01*
X1612000Y944750D02*
X1614550Y947300D01*
X1612000Y936750D02*
Y944750D01*
X1610500Y935250D02*
X1612000Y936750D01*
X1584000Y935250D02*
X1610500D01*
X1583000Y934250D02*
X1584000Y935250D01*
X1583000Y925000D02*
Y934250D01*
X1565753Y921181D02*
Y926248D01*
X1537668Y971556D02*
X1547444D01*
X1550500Y936433D02*
Y968500D01*
X1547444Y971556D02*
X1550500Y968500D01*
X1509127Y976761D02*
Y1016000D01*
X1554343Y1032500D02*
X1564207Y1022636D01*
X1451500Y945000D02*
Y962500D01*
X1462256Y973256D01*
X1421875Y932809D02*
X1432566Y943500D01*
X1450000D02*
X1451500Y945000D01*
X1432566Y943500D02*
X1446000D01*
X1450000D01*
X1419625Y928375D02*
X1421875Y930625D01*
Y932809D01*
X1419625Y925625D02*
Y928375D01*
X1417000Y923000D02*
X1419625Y925625D01*
X1417000Y913500D02*
Y923000D01*
X1429125Y928125D02*
X1433250Y932250D01*
X1444500D01*
X1446000Y933750D01*
Y933750D02*
X1451250Y939000D01*
X1464000D01*
X1446000Y933750D02*
Y943500D01*
X1468125Y934875D02*
X1471981D01*
X1468500Y931394D02*
X1471981Y934875D01*
X1468500Y925750D02*
Y931394D01*
Y925750D02*
X1470127Y924123D01*
X1491058Y934875D02*
X1496226Y929707D01*
X1476750Y920000D02*
X1478444Y918306D01*
X1476750Y920000D02*
Y922500D01*
X1496226Y918330D02*
Y929707D01*
X1478444Y918306D02*
X1496250D01*
X1562877D01*
X1560750Y931250D02*
X1565753Y926248D01*
X1550500Y936433D02*
X1555683Y931250D01*
X1560750D01*
X1471981Y934875D02*
X1491058D01*
X1554311Y1034625D02*
X1564550Y1044864D01*
D88*
X894452Y916332D02*
X896118Y913000D01*
X897784Y916332D01*
X899450Y917165D02*
X900283Y917998D01*
X901949D01*
X902783Y917165D01*
Y913833D01*
X901949Y913000D01*
X900283D01*
X899450Y913833D01*
Y917165D01*
X904449Y913000D02*
Y913833D01*
X905282D01*
Y913000D01*
X904449D01*
X911946D02*
X908614D01*
X911946Y916332D01*
Y917165D01*
X911113Y917998D01*
X909447D01*
X908614Y917165D01*
X931940Y913000D02*
X928607D01*
X931940Y916332D01*
Y917165D01*
X931107Y917998D01*
X929441D01*
X928607Y917165D01*
X933606D02*
X934439Y917998D01*
X936105D01*
X936938Y917165D01*
Y913833D01*
X936105Y913000D01*
X934439D01*
X933606Y913833D01*
Y917165D01*
X938604Y913000D02*
X940270D01*
X939437D01*
Y917998D01*
X938604Y917165D01*
X946102Y917998D02*
X944436Y917165D01*
X942769Y915499D01*
Y913833D01*
X943603Y913000D01*
X945269D01*
X946102Y913833D01*
Y914666D01*
X945269Y915499D01*
X942769D01*
X947768D02*
X951100D01*
X952766Y917165D02*
X953599Y917998D01*
X955265D01*
X956098Y917165D01*
Y913833D01*
X955265Y913000D01*
X953599D01*
X952766Y913833D01*
Y917165D01*
X957765Y913833D02*
X958598Y913000D01*
X960264D01*
X961097Y913833D01*
Y917165D01*
X960264Y917998D01*
X958598D01*
X957765Y917165D01*
Y916332D01*
X958598Y915499D01*
X961097D01*
D119*
X894500Y1270000D02*
G03*
X894500Y1270000I-3500J0D01*
G01*
D120*
X1567500Y838000D02*
D03*
Y1232000D02*
D03*
X1204500D02*
D03*
Y838000D02*
D03*
D121*
X1583000Y853500D02*
D03*
Y1216500D02*
D03*
X1189000D02*
D03*
Y853500D02*
D03*
D122*
X1506000Y838000D02*
D03*
X1446000D02*
D03*
X1386000D02*
D03*
X1326000D02*
D03*
X1266000D02*
D03*
X1266000Y1232000D02*
D03*
X1326000D02*
D03*
X1386000D02*
D03*
X1446000D02*
D03*
X1506000D02*
D03*
D123*
X1583000Y1155000D02*
D03*
Y1095000D02*
D03*
Y1035000D02*
D03*
Y975000D02*
D03*
Y915000D02*
D03*
X1189000Y1155000D02*
D03*
Y1095000D02*
D03*
Y1035000D02*
D03*
Y975000D02*
D03*
Y915000D02*
D03*
D124*
X933000Y1292000D02*
D03*
Y1276000D02*
D03*
X919000D02*
D03*
Y1292000D02*
D03*
D125*
X1054000Y1045000D02*
D03*
X1062000D02*
D03*
X1054000Y1054000D02*
D03*
X1062000D02*
D03*
X1398000Y1129000D02*
D03*
X1406000D02*
D03*
X1403000Y1045000D02*
D03*
X1395000D02*
D03*
X1463000Y890000D02*
D03*
X1471000D02*
D03*
X1468000Y1178000D02*
D03*
X1476000D02*
D03*
X1562000Y1188000D02*
D03*
X1570000D02*
D03*
X1430000Y856000D02*
D03*
X1438000D02*
D03*
X1431000Y1024000D02*
D03*
X1423000D02*
D03*
X1449000Y1070000D02*
D03*
X1457000D02*
D03*
X1479000Y1038000D02*
D03*
X1487000D02*
D03*
X1454000Y1082000D02*
D03*
X1462000D02*
D03*
X1452753Y1020181D02*
D03*
X1460753D02*
D03*
X1144000Y1193000D02*
D03*
X1136000D02*
D03*
X1054000Y841000D02*
D03*
X1062000D02*
D03*
X1054000Y829000D02*
D03*
X1062000D02*
D03*
X1415000Y978000D02*
D03*
X1407000D02*
D03*
X790900Y850000D02*
D03*
X798900D02*
D03*
X1247000Y1005000D02*
D03*
X1255000D02*
D03*
X1268000Y1006000D02*
D03*
X1276000D02*
D03*
X1387000Y915000D02*
D03*
X1395000D02*
D03*
X878900Y867000D02*
D03*
X886900D02*
D03*
X1288000Y1052000D02*
D03*
X1296000D02*
D03*
X880900Y891000D02*
D03*
X872900D02*
D03*
X1211000Y1021000D02*
D03*
X1203000D02*
D03*
X1304000Y938000D02*
D03*
X1312000D02*
D03*
X1310000Y985000D02*
D03*
X1302000D02*
D03*
X1312000Y1130000D02*
D03*
X1304000D02*
D03*
X1460753Y986181D02*
D03*
X1452753D02*
D03*
X930000Y1246000D02*
D03*
X922000D02*
D03*
X1090000Y1063000D02*
D03*
X1082000D02*
D03*
X1066000D02*
D03*
X1074000D02*
D03*
D126*
X997500Y1165000D02*
D03*
X988500D02*
D03*
X1401500Y1022000D02*
D03*
X1410500D02*
D03*
X1384500D02*
D03*
X1393500D02*
D03*
X1571000Y1167500D02*
D03*
X1562000D02*
D03*
X1569252Y902681D02*
D03*
X1560253D02*
D03*
X1549500Y1220000D02*
D03*
X1558500D02*
D03*
X1571000Y1177500D02*
D03*
X1562000D02*
D03*
X1569252Y892681D02*
D03*
X1560253D02*
D03*
X1526000Y1212500D02*
D03*
X1517000D02*
D03*
X1444500Y1037000D02*
D03*
X1453500D02*
D03*
X862500Y1262000D02*
D03*
X853500D02*
D03*
X1119500Y1207000D02*
D03*
X1128500D02*
D03*
X1119500Y1216000D02*
D03*
X1128500D02*
D03*
X1119500Y991000D02*
D03*
X1128500D02*
D03*
X1119500Y1000000D02*
D03*
X1128500D02*
D03*
X1228500Y1021000D02*
D03*
X1219500D02*
D03*
X790500Y841000D02*
D03*
X799500D02*
D03*
X951500Y1234000D02*
D03*
X942500D02*
D03*
X942500Y1214000D02*
D03*
X951500D02*
D03*
X942500Y1225000D02*
D03*
X951500D02*
D03*
X890500Y848000D02*
D03*
X881500D02*
D03*
X888400Y878000D02*
D03*
X879400D02*
D03*
X826500Y786000D02*
D03*
X835500D02*
D03*
X1202500Y1010000D02*
D03*
X1211500D02*
D03*
X890400Y857000D02*
D03*
X881400D02*
D03*
X997500Y949000D02*
D03*
X988500D02*
D03*
X1406500Y1137000D02*
D03*
X1397500D02*
D03*
X1413500Y1207000D02*
D03*
X1404500D02*
D03*
X1406500Y858000D02*
D03*
X1415500D02*
D03*
X1569252Y912681D02*
D03*
X1560253D02*
D03*
X1562000Y1157500D02*
D03*
X1571000D02*
D03*
X1514252Y858681D02*
D03*
X1505253D02*
D03*
X1471500Y919000D02*
D03*
X1462500D02*
D03*
X1487752Y857681D02*
D03*
X1496752D02*
D03*
D127*
X1283000Y943500D02*
D03*
Y952500D02*
D03*
X933000Y1263500D02*
D03*
Y1254500D02*
D03*
X1176000Y959500D02*
D03*
Y950500D02*
D03*
X1177000Y884500D02*
D03*
Y875500D02*
D03*
X1176000Y1104500D02*
D03*
Y1095500D02*
D03*
Y902500D02*
D03*
Y893500D02*
D03*
Y1122500D02*
D03*
Y1113500D02*
D03*
Y941500D02*
D03*
Y932500D02*
D03*
Y1157500D02*
D03*
Y1148500D02*
D03*
X1171000Y977500D02*
D03*
Y968500D02*
D03*
Y1193500D02*
D03*
Y1184500D02*
D03*
X1157000Y884500D02*
D03*
Y875500D02*
D03*
Y1104500D02*
D03*
Y1095500D02*
D03*
Y902500D02*
D03*
Y893500D02*
D03*
Y1122500D02*
D03*
Y1113500D02*
D03*
X1151000Y975500D02*
D03*
Y966500D02*
D03*
X1152000Y1191500D02*
D03*
Y1182500D02*
D03*
X919000Y1263500D02*
D03*
Y1254500D02*
D03*
X1176000Y1131500D02*
D03*
Y1140500D02*
D03*
X1157000Y1131500D02*
D03*
Y1140500D02*
D03*
Y1174500D02*
D03*
Y1165500D02*
D03*
X1176000Y1174500D02*
D03*
Y1165500D02*
D03*
X1434000Y1035500D02*
D03*
Y1044500D02*
D03*
X1539000Y850500D02*
D03*
Y859500D02*
D03*
X1157000Y1147500D02*
D03*
Y1156500D02*
D03*
Y932500D02*
D03*
Y941500D02*
D03*
X1526500Y850500D02*
D03*
Y859500D02*
D03*
X1157000Y915500D02*
D03*
Y924500D02*
D03*
Y959500D02*
D03*
Y950500D02*
D03*
X1176000Y915500D02*
D03*
Y924500D02*
D03*
X1171000Y989500D02*
D03*
Y998500D02*
D03*
Y1205500D02*
D03*
Y1214500D02*
D03*
X1151000Y991500D02*
D03*
Y1000500D02*
D03*
X1151000Y1208000D02*
D03*
Y1217000D02*
D03*
X1363000Y956500D02*
D03*
Y965500D02*
D03*
X1362000Y1099500D02*
D03*
Y1108500D02*
D03*
X833000Y884500D02*
D03*
Y893500D02*
D03*
X845900Y909500D02*
D03*
Y900500D02*
D03*
X841900Y893500D02*
D03*
Y884500D02*
D03*
X1241000Y1032500D02*
D03*
Y1023500D02*
D03*
X1284000Y1110500D02*
D03*
Y1101500D02*
D03*
X891000Y1243500D02*
D03*
Y1252500D02*
D03*
X900000Y1243500D02*
D03*
Y1252500D02*
D03*
X907000Y1276500D02*
D03*
Y1267500D02*
D03*
X1544000Y1080500D02*
D03*
Y1089500D02*
D03*
X1543752Y985681D02*
D03*
Y994681D02*
D03*
X1443000Y895500D02*
D03*
Y886500D02*
D03*
X1388000Y1173500D02*
D03*
Y1182500D02*
D03*
X1396000Y886500D02*
D03*
Y877500D02*
D03*
X1569000Y1219500D02*
D03*
Y1210500D02*
D03*
X1471500Y1197000D02*
D03*
Y1188000D02*
D03*
X1474000Y1155500D02*
D03*
Y1164500D02*
D03*
D128*
X1273000Y952000D02*
D03*
Y944000D02*
D03*
X1147000Y924000D02*
D03*
Y916000D02*
D03*
Y1140000D02*
D03*
Y1132000D02*
D03*
X1167000Y883000D02*
D03*
Y875000D02*
D03*
Y1103000D02*
D03*
Y1095000D02*
D03*
X1560000Y880000D02*
D03*
Y872000D02*
D03*
X1444000Y915000D02*
D03*
Y907000D02*
D03*
X1147000Y1104000D02*
D03*
Y1096000D02*
D03*
Y884000D02*
D03*
Y876000D02*
D03*
X1167000Y1140000D02*
D03*
Y1132000D02*
D03*
Y924000D02*
D03*
Y916000D02*
D03*
X1166000Y1176000D02*
D03*
Y1168000D02*
D03*
Y960000D02*
D03*
Y952000D02*
D03*
X1147000Y1175000D02*
D03*
Y1167000D02*
D03*
Y894000D02*
D03*
Y902000D02*
D03*
Y1114000D02*
D03*
Y1122000D02*
D03*
X1148000Y1151000D02*
D03*
Y1159000D02*
D03*
X1142000Y976000D02*
D03*
Y984000D02*
D03*
X1449000Y1049000D02*
D03*
Y1057000D02*
D03*
X1161000Y1185000D02*
D03*
Y1193000D02*
D03*
Y969000D02*
D03*
Y977000D02*
D03*
X1166000Y1149000D02*
D03*
Y1157000D02*
D03*
X1167000Y933000D02*
D03*
Y941000D02*
D03*
X1167000Y1114000D02*
D03*
Y1122000D02*
D03*
Y894000D02*
D03*
Y902000D02*
D03*
X1148000Y934000D02*
D03*
Y942000D02*
D03*
X1147000Y958000D02*
D03*
Y950000D02*
D03*
X1053000Y1209000D02*
D03*
Y1217000D02*
D03*
X1065000Y1213000D02*
D03*
Y1221000D02*
D03*
X1029000Y1209000D02*
D03*
Y1217000D02*
D03*
X1053000Y993000D02*
D03*
Y1001000D02*
D03*
X1065000Y997000D02*
D03*
Y1005000D02*
D03*
X1029000Y993000D02*
D03*
Y1001000D02*
D03*
X899900Y852000D02*
D03*
Y860000D02*
D03*
X1231000Y1036000D02*
D03*
Y1044000D02*
D03*
X1384500Y1197343D02*
D03*
Y1205343D02*
D03*
X1448000Y999000D02*
D03*
Y1007000D02*
D03*
X808000Y845000D02*
D03*
Y853000D02*
D03*
X833900Y912000D02*
D03*
Y904000D02*
D03*
X1273343Y1115500D02*
D03*
Y1123500D02*
D03*
X1142000Y1000000D02*
D03*
Y992000D02*
D03*
X1141000Y1212000D02*
D03*
Y1204000D02*
D03*
X1432250Y1160000D02*
D03*
Y1152000D02*
D03*
X1302000Y1084000D02*
D03*
Y1076000D02*
D03*
X1161000Y1214000D02*
D03*
Y1206000D02*
D03*
Y998000D02*
D03*
Y990000D02*
D03*
X856900Y893000D02*
D03*
Y901000D02*
D03*
X1077000Y1209000D02*
D03*
Y1217000D02*
D03*
Y993000D02*
D03*
Y1001000D02*
D03*
X1089000Y1209000D02*
D03*
Y1217000D02*
D03*
Y993000D02*
D03*
Y1001000D02*
D03*
X1101000Y1209000D02*
D03*
Y1217000D02*
D03*
Y993000D02*
D03*
Y1001000D02*
D03*
X1045000Y1055000D02*
D03*
Y1063000D02*
D03*
X1041000Y839000D02*
D03*
Y847000D02*
D03*
X1087000Y850000D02*
D03*
Y842000D02*
D03*
X1075000Y850000D02*
D03*
Y842000D02*
D03*
X1033000Y1066000D02*
D03*
Y1058000D02*
D03*
X1029000Y850000D02*
D03*
Y842000D02*
D03*
X1000000Y1094000D02*
D03*
Y1086000D02*
D03*
X999000Y878000D02*
D03*
Y870000D02*
D03*
D129*
X1241000Y1014750D02*
D03*
X1229000Y1007000D02*
D03*
X1556000Y1127000D02*
D03*
X1555000Y1142000D02*
D03*
X1460000Y1048000D02*
D03*
Y1060000D02*
D03*
Y1009000D02*
D03*
Y997000D02*
D03*
X1426000Y1127000D02*
D03*
X1396000Y1206000D02*
D03*
X1270343Y1134500D02*
D03*
X1266000Y1079000D02*
D03*
X1454000Y920000D02*
D03*
X1477253Y857681D02*
D03*
X1466500Y1147500D02*
D03*
X882000Y835000D02*
D03*
X800000Y890000D02*
D03*
X1277000Y987000D02*
D03*
X1270000Y933000D02*
D03*
X1397000Y858000D02*
D03*
X1385000Y902000D02*
D03*
X1556750Y924500D02*
D03*
X1565000Y937000D02*
D03*
X784000Y801000D02*
D03*
X1471000Y1205000D02*
D03*
X878000Y1208000D02*
D03*
D130*
X873000Y1262000D02*
D03*
Y1248000D02*
D03*
X1266343Y1091500D02*
D03*
Y1105500D02*
D03*
X1240000Y927000D02*
D03*
Y941000D02*
D03*
X1256343Y1126500D02*
D03*
Y1140500D02*
D03*
X1256000Y941000D02*
D03*
Y927000D02*
D03*
X775900Y839000D02*
D03*
Y825000D02*
D03*
X1266000Y976000D02*
D03*
Y962000D02*
D03*
X1240343Y1140500D02*
D03*
Y1126500D02*
D03*
D131*
X847000Y1207800D02*
D03*
D132*
X833050Y1232200D02*
D03*
X860950D02*
D03*
D133*
X872500Y1275999D02*
D03*
X831500D02*
D03*
X872500Y1291999D02*
D03*
X831500D02*
D03*
D134*
X1138000Y1163600D02*
D03*
Y1150400D02*
D03*
Y1184600D02*
D03*
Y1171400D02*
D03*
Y967600D02*
D03*
Y954400D02*
D03*
Y946600D02*
D03*
Y933400D02*
D03*
D135*
X1073000Y1232000D02*
D03*
X1059000D02*
D03*
X1073000Y1015000D02*
D03*
X1059000D02*
D03*
X1598000Y990000D02*
D03*
X1612000D02*
D03*
X1598000Y1081000D02*
D03*
X1612000D02*
D03*
D136*
X1041000Y1011000D02*
D03*
Y995000D02*
D03*
Y1227000D02*
D03*
Y1211000D02*
D03*
D137*
X1410250Y872750D02*
D03*
X1416750D02*
D03*
X1423250D02*
D03*
X1429750D02*
D03*
X1410250Y913250D02*
D03*
X1416750D02*
D03*
X1423250D02*
D03*
X1429750D02*
D03*
X1418750Y1193250D02*
D03*
X1412250D02*
D03*
X1405750D02*
D03*
X1399250D02*
D03*
X1418750Y1152750D02*
D03*
X1412250D02*
D03*
X1405750D02*
D03*
X1399250D02*
D03*
D138*
X1253750Y1038750D02*
D03*
Y1032250D02*
D03*
Y1025750D02*
D03*
Y1019250D02*
D03*
X1294250Y1038750D02*
D03*
Y1032250D02*
D03*
Y1025750D02*
D03*
Y1019250D02*
D03*
X1303750Y1114750D02*
D03*
Y1108250D02*
D03*
Y1101750D02*
D03*
Y1095250D02*
D03*
X1344250Y1114750D02*
D03*
Y1108250D02*
D03*
Y1101750D02*
D03*
Y1095250D02*
D03*
X1303250Y970750D02*
D03*
Y964250D02*
D03*
Y957750D02*
D03*
Y951250D02*
D03*
X1343750Y970750D02*
D03*
Y964250D02*
D03*
Y957750D02*
D03*
Y951250D02*
D03*
D139*
X1557673Y990070D02*
D03*
Y962290D02*
D03*
X1567833Y962290D02*
D03*
Y990070D02*
D03*
X1557921Y1079111D02*
D03*
Y1106891D02*
D03*
X1568081Y1106891D02*
D03*
Y1079111D02*
D03*
D140*
X1566500Y1065000D02*
D03*
X1557000D02*
D03*
X1547500D02*
D03*
Y1041000D02*
D03*
X1566500D02*
D03*
D141*
X911900Y788000D02*
D03*
Y816000D02*
D03*
X813900Y934000D02*
D03*
Y906000D02*
D03*
D142*
X1123250Y884500D02*
D03*
Y889500D02*
D03*
Y894500D02*
D03*
Y899500D02*
D03*
Y904500D02*
D03*
Y909500D02*
D03*
Y914500D02*
D03*
Y919500D02*
D03*
Y924500D02*
D03*
Y929500D02*
D03*
Y934500D02*
D03*
Y939500D02*
D03*
Y944500D02*
D03*
Y949500D02*
D03*
Y954500D02*
D03*
Y959500D02*
D03*
X1012750D02*
D03*
Y954500D02*
D03*
Y949500D02*
D03*
Y944500D02*
D03*
Y939500D02*
D03*
Y934500D02*
D03*
Y929500D02*
D03*
Y924500D02*
D03*
Y919500D02*
D03*
Y914500D02*
D03*
Y909500D02*
D03*
Y904500D02*
D03*
Y899500D02*
D03*
Y894500D02*
D03*
Y889500D02*
D03*
Y884500D02*
D03*
X1123250Y1100500D02*
D03*
Y1105500D02*
D03*
Y1110500D02*
D03*
Y1115500D02*
D03*
Y1120500D02*
D03*
Y1125500D02*
D03*
Y1130500D02*
D03*
Y1135500D02*
D03*
Y1140500D02*
D03*
Y1145500D02*
D03*
Y1150500D02*
D03*
Y1155500D02*
D03*
Y1160500D02*
D03*
Y1165500D02*
D03*
Y1170500D02*
D03*
Y1175500D02*
D03*
X1012750D02*
D03*
Y1170500D02*
D03*
Y1165500D02*
D03*
Y1160500D02*
D03*
Y1155500D02*
D03*
Y1150500D02*
D03*
Y1145500D02*
D03*
Y1140500D02*
D03*
Y1135500D02*
D03*
Y1130500D02*
D03*
Y1125500D02*
D03*
Y1120500D02*
D03*
Y1115500D02*
D03*
Y1110500D02*
D03*
Y1105500D02*
D03*
Y1100500D02*
D03*
D143*
X1105500Y977250D02*
D03*
X1100500D02*
D03*
X1095500D02*
D03*
X1090500D02*
D03*
X1085500D02*
D03*
X1080500D02*
D03*
X1075500D02*
D03*
X1070500D02*
D03*
X1065500D02*
D03*
X1060500D02*
D03*
X1055500D02*
D03*
X1050500D02*
D03*
X1045500D02*
D03*
X1040500D02*
D03*
X1035500D02*
D03*
X1030500D02*
D03*
Y866750D02*
D03*
X1035500D02*
D03*
X1040500D02*
D03*
X1045500D02*
D03*
X1050500D02*
D03*
X1055500D02*
D03*
X1060500D02*
D03*
X1065500D02*
D03*
X1070500D02*
D03*
X1075500D02*
D03*
X1080500D02*
D03*
X1085500D02*
D03*
X1090500D02*
D03*
X1095500D02*
D03*
X1100500D02*
D03*
X1105500D02*
D03*
Y1193250D02*
D03*
X1100500D02*
D03*
X1095500D02*
D03*
X1090500D02*
D03*
X1085500D02*
D03*
X1080500D02*
D03*
X1075500D02*
D03*
X1070500D02*
D03*
X1065500D02*
D03*
X1060500D02*
D03*
X1055500D02*
D03*
X1050500D02*
D03*
X1045500D02*
D03*
X1040500D02*
D03*
X1035500D02*
D03*
X1030500D02*
D03*
Y1082750D02*
D03*
X1035500D02*
D03*
X1040500D02*
D03*
X1045500D02*
D03*
X1050500D02*
D03*
X1055500D02*
D03*
X1060500D02*
D03*
X1065500D02*
D03*
X1070500D02*
D03*
X1075500D02*
D03*
X1080500D02*
D03*
X1085500D02*
D03*
X1090500D02*
D03*
X1095500D02*
D03*
X1100500D02*
D03*
X1105500D02*
D03*
D144*
X1438250Y950500D02*
D03*
Y937500D02*
D03*
X1457750Y944000D02*
D03*
D145*
X1486299Y949268D02*
D03*
Y936734D02*
D03*
Y924201D02*
D03*
Y961801D02*
D03*
X1484299Y1130267D02*
D03*
Y1117734D02*
D03*
Y1105201D02*
D03*
Y1142801D02*
D03*
D146*
X1540949Y961801D02*
D03*
Y949268D02*
D03*
Y936734D02*
D03*
Y924201D02*
D03*
X1538949Y1142801D02*
D03*
Y1130267D02*
D03*
Y1117734D02*
D03*
Y1105201D02*
D03*
D147*
X1249200Y976000D02*
D03*
X1249543Y1091500D02*
D03*
D148*
X1224800Y962050D02*
D03*
Y989950D02*
D03*
X1225143Y1077550D02*
D03*
Y1105450D02*
D03*
D149*
X1479252Y1016231D02*
D03*
Y1003531D02*
D03*
Y990831D02*
D03*
Y978131D02*
D03*
X1526252Y1016231D02*
D03*
Y1003531D02*
D03*
Y990831D02*
D03*
Y978131D02*
D03*
X1479500Y1089050D02*
D03*
Y1076350D02*
D03*
Y1063650D02*
D03*
Y1050950D02*
D03*
X1526500Y1089050D02*
D03*
Y1076350D02*
D03*
Y1063650D02*
D03*
Y1050950D02*
D03*
D150*
X813900Y891750D02*
D03*
Y868250D02*
D03*
D151*
X865250Y816000D02*
D03*
X888750D02*
D03*
D152*
X1547000Y1158500D02*
D03*
Y1165000D02*
D03*
Y1171500D02*
D03*
Y1178000D02*
D03*
Y1184500D02*
D03*
Y1191000D02*
D03*
Y1197500D02*
D03*
X1491000Y1158500D02*
D03*
Y1165000D02*
D03*
Y1171500D02*
D03*
Y1178000D02*
D03*
Y1184500D02*
D03*
Y1191000D02*
D03*
Y1197500D02*
D03*
X1543000Y870500D02*
D03*
Y877000D02*
D03*
Y883500D02*
D03*
Y890000D02*
D03*
Y896500D02*
D03*
Y903000D02*
D03*
Y909500D02*
D03*
X1487000Y870500D02*
D03*
Y877000D02*
D03*
Y883500D02*
D03*
Y890000D02*
D03*
Y896500D02*
D03*
Y903000D02*
D03*
Y909500D02*
D03*
D153*
X915000Y1228000D02*
D03*
D154*
X900000Y1235500D02*
D03*
Y1230500D02*
D03*
Y1225500D02*
D03*
Y1220500D02*
D03*
X930000D02*
D03*
Y1225500D02*
D03*
Y1230500D02*
D03*
Y1235500D02*
D03*
D155*
X827900Y868500D02*
D03*
Y863500D02*
D03*
Y858500D02*
D03*
Y853500D02*
D03*
Y848500D02*
D03*
Y843500D02*
D03*
X865900D02*
D03*
Y848500D02*
D03*
Y853500D02*
D03*
Y858500D02*
D03*
Y863500D02*
D03*
Y868500D02*
D03*
D156*
X834400Y837000D02*
D03*
X839400D02*
D03*
X844400D02*
D03*
X849400D02*
D03*
X854400D02*
D03*
X859400D02*
D03*
Y875000D02*
D03*
X854400D02*
D03*
X849400D02*
D03*
X844400D02*
D03*
X839400D02*
D03*
X834400D02*
D03*
D157*
X846900Y856000D02*
D03*
D158*
X794000Y786000D02*
D03*
X810000D02*
D03*
D159*
X1431250Y990250D02*
D03*
Y996750D02*
D03*
Y1003250D02*
D03*
Y1009750D02*
D03*
X1390750Y990250D02*
D03*
Y996750D02*
D03*
Y1003250D02*
D03*
Y1009750D02*
D03*
X1433250Y1057250D02*
D03*
Y1063750D02*
D03*
Y1070250D02*
D03*
Y1076750D02*
D03*
X1392750Y1057250D02*
D03*
Y1063750D02*
D03*
Y1070250D02*
D03*
Y1076750D02*
D03*
D160*
X886100Y794000D02*
D03*
X865900D02*
D03*
X796000Y870000D02*
D03*
X775800D02*
D03*
D161*
X1458500Y1125750D02*
D03*
X1445500D02*
D03*
X1452000Y1106250D02*
D03*
D162*
X1545253Y1024681D02*
D03*
Y1015181D02*
D03*
Y1005681D02*
D03*
X1569252D02*
D03*
Y1024681D02*
D03*
D163*
X915100Y1182350D02*
D03*
Y1169650D02*
D03*
X838900D02*
D03*
Y1182350D02*
D03*
D164*
X1207750Y1041000D02*
D03*
Y1036000D02*
D03*
Y1031000D02*
D03*
X1222250D02*
D03*
Y1041000D02*
D03*
D165*
X1645250Y762700D02*
D03*
Y707300D02*
D03*
Y1362700D02*
D03*
Y1307300D02*
D03*
Y1122700D02*
D03*
Y1067300D02*
D03*
Y1002700D02*
D03*
Y947300D02*
D03*
Y882700D02*
D03*
Y827300D02*
D03*
Y1242700D02*
D03*
Y1187300D02*
D03*
D166*
X1643750Y735000D02*
D03*
Y1335000D02*
D03*
Y1095000D02*
D03*
Y975000D02*
D03*
Y855000D02*
D03*
Y1215000D02*
D03*
D167*
X1605000Y976000D02*
D03*
Y944000D02*
D03*
Y1096000D02*
D03*
Y1128000D02*
D03*
D168*
Y960000D02*
D03*
Y1112000D02*
D03*
D169*
X1519899Y943001D02*
D03*
X1517899Y1124001D02*
D03*
D170*
X980000Y1060800D02*
D03*
Y1111600D02*
D03*
Y1086200D02*
D03*
Y1035400D02*
D03*
Y1010000D02*
D03*
Y984600D02*
D03*
D171*
Y1137000D02*
D03*
D172*
X1517650Y1289050D02*
D03*
X1492250D02*
D03*
X1466850D02*
D03*
X1441450D02*
D03*
X1416050D02*
D03*
X1390650D02*
D03*
X1365250D02*
D03*
X1339850D02*
D03*
X1314450D02*
D03*
X1289050D02*
D03*
X1263650D02*
D03*
X1238250D02*
D03*
X1212850D02*
D03*
X1187450D02*
D03*
X1162050D02*
D03*
X1136650D02*
D03*
X1111250D02*
D03*
X1085850D02*
D03*
X1060450D02*
D03*
X1035050D02*
D03*
X1009650D02*
D03*
X984250D02*
D03*
X958850D02*
D03*
X1517650Y1263650D02*
D03*
X1492250D02*
D03*
X1466850D02*
D03*
X1441450D02*
D03*
X1416050D02*
D03*
X1390650D02*
D03*
X1365250D02*
D03*
X1339850D02*
D03*
X1314450D02*
D03*
X1289050D02*
D03*
X1263650D02*
D03*
X1238250D02*
D03*
X1212850D02*
D03*
X1187450D02*
D03*
X1162050D02*
D03*
X1136650D02*
D03*
X1111250D02*
D03*
X1085850D02*
D03*
X1060450D02*
D03*
X1035050D02*
D03*
X1009650D02*
D03*
X984250D02*
D03*
Y781050D02*
D03*
X1009650D02*
D03*
X1035050D02*
D03*
X1060450D02*
D03*
X1085850D02*
D03*
X1111250D02*
D03*
X1136650D02*
D03*
X1162050D02*
D03*
X1187450D02*
D03*
X1212850D02*
D03*
X1238250D02*
D03*
X1263650D02*
D03*
X1289050D02*
D03*
X1314450D02*
D03*
X1339850D02*
D03*
X1365250D02*
D03*
X1390650D02*
D03*
X1416050D02*
D03*
X1441450D02*
D03*
X1466850D02*
D03*
X1492250D02*
D03*
X1517650D02*
D03*
X958850Y806450D02*
D03*
X984250D02*
D03*
X1009650D02*
D03*
X1035050D02*
D03*
X1060450D02*
D03*
X1085850D02*
D03*
X1111250D02*
D03*
X1136650D02*
D03*
X1162050D02*
D03*
X1187450D02*
D03*
X1212850D02*
D03*
X1238250D02*
D03*
X1263650D02*
D03*
X1289050D02*
D03*
X1314450D02*
D03*
X1339850D02*
D03*
X1365250D02*
D03*
X1390650D02*
D03*
X1416050D02*
D03*
X1441450D02*
D03*
X1466850D02*
D03*
X1492250D02*
D03*
X1517650D02*
D03*
D173*
X958850Y1263650D02*
D03*
Y781050D02*
D03*
M02*
