G04 Layer_Color=8421504*
%FSLAX44Y44*%
%MOMM*%
G71*
G01*
G75*
%ADD10R,4.1000X1.0000*%
%ADD11R,1.0000X4.1000*%
%ADD12R,3.8000X1.0000*%
%ADD13R,1.0000X3.8000*%
%ADD14R,0.8000X0.8000*%
%ADD15R,0.5200X0.5200*%
%ADD16R,0.4500X0.5500*%
%ADD17R,0.5500X0.4500*%
%ADD18R,0.5200X0.5200*%
%ADD19C,0.6000*%
%ADD20O,1.1250X0.2250*%
%ADD21O,1.1120X0.2500*%
%ADD22O,1.1370X0.2000*%
%ADD23O,1.0980X0.2750*%
%ADD24O,1.0820X0.3000*%
%ADD25O,0.7600X0.5000*%
%ADD26O,1.0630X0.3250*%
%ADD27O,1.0400X0.3500*%
%ADD28O,1.0130X0.3750*%
%ADD29O,0.9810X0.4000*%
%ADD30O,0.9430X0.4250*%
%ADD31O,0.8970X0.4500*%
%ADD32O,0.8650X0.4650*%
%ADD33O,0.8400X0.4750*%
%ADD34O,0.8000X0.4900*%
%ADD35O,0.6300X0.5200*%
%ADD36O,0.7100X0.5100*%
%ADD37C,0.5250*%
%ADD38R,0.9000X0.7000*%
%ADD39R,1.3000X1.3000*%
%ADD40R,0.9000X1.6000*%
%ADD41R,0.9000X1.0000*%
%ADD42R,0.4000X0.4800*%
%ADD43R,0.7000X0.9000*%
%ADD44R,1.3500X0.9500*%
%ADD45O,0.3990X1.5000*%
%ADD46O,1.5000X0.3990*%
%ADD47R,0.7620X1.0000*%
%ADD48R,0.6500X0.9000*%
%ADD49R,2.6000X0.9500*%
%ADD50O,1.5500X0.2500*%
%ADD51O,0.2500X1.5500*%
%ADD52R,0.6500X0.5000*%
%ADD53R,1.2700X0.6600*%
%ADD54R,1.0200X0.6600*%
%ADD55R,1.3000X1.3000*%
%ADD56R,1.6000X0.9000*%
%ADD57O,1.9000X0.6000*%
%ADD58R,0.7620X1.1430*%
%ADD59R,1.1430X0.7620*%
%ADD60O,1.4000X0.3500*%
%ADD61R,1.3600X1.4600*%
%ADD62R,0.7500X0.2500*%
%ADD63O,0.8000X0.2500*%
%ADD64O,0.2500X0.8000*%
%ADD65R,2.4500X2.4500*%
%ADD66R,0.8000X0.8000*%
%ADD67O,1.5000X0.4000*%
%ADD68R,0.9800X2.0800*%
%ADD69R,0.5000X0.6500*%
%ADD70R,0.9000X0.6500*%
%ADD71R,1.2700X0.7600*%
%ADD72R,0.6000X0.3500*%
%ADD73R,3.9500X1.5000*%
%ADD74R,4.2500X1.5000*%
%ADD75R,0.5000X1.0000*%
%ADD76R,2.6000X0.6000*%
%ADD89R,3.8100X3.9100*%
D10*
X1567500Y838000D02*
D03*
Y1232000D02*
D03*
X1204500D02*
D03*
Y838000D02*
D03*
D11*
X1583000Y853500D02*
D03*
Y1216500D02*
D03*
X1189000D02*
D03*
Y853500D02*
D03*
D12*
X1506000Y838000D02*
D03*
X1446000D02*
D03*
X1386000D02*
D03*
X1326000D02*
D03*
X1266000D02*
D03*
X1266000Y1232000D02*
D03*
X1326000D02*
D03*
X1386000D02*
D03*
X1446000D02*
D03*
X1506000D02*
D03*
D13*
X1583000Y1155000D02*
D03*
Y1095000D02*
D03*
Y1035000D02*
D03*
Y975000D02*
D03*
Y915000D02*
D03*
X1189000Y1155000D02*
D03*
Y1095000D02*
D03*
Y1035000D02*
D03*
Y975000D02*
D03*
Y915000D02*
D03*
D14*
X933000Y1292000D02*
D03*
Y1276000D02*
D03*
X919000D02*
D03*
Y1292000D02*
D03*
D15*
X1054000Y1045000D02*
D03*
X1062000D02*
D03*
X1054000Y1054000D02*
D03*
X1062000D02*
D03*
X1398000Y1129000D02*
D03*
X1406000D02*
D03*
X1403000Y1045000D02*
D03*
X1395000D02*
D03*
X1463000Y890000D02*
D03*
X1471000D02*
D03*
X1468000Y1178000D02*
D03*
X1476000D02*
D03*
X1562000Y1188000D02*
D03*
X1570000D02*
D03*
X1430000Y856000D02*
D03*
X1438000D02*
D03*
X1431000Y1024000D02*
D03*
X1423000D02*
D03*
X1449000Y1070000D02*
D03*
X1457000D02*
D03*
X1479000Y1038000D02*
D03*
X1487000D02*
D03*
X1454000Y1082000D02*
D03*
X1462000D02*
D03*
X1452753Y1020181D02*
D03*
X1460753D02*
D03*
X1144000Y1193000D02*
D03*
X1136000D02*
D03*
X1054000Y841000D02*
D03*
X1062000D02*
D03*
X1054000Y829000D02*
D03*
X1062000D02*
D03*
X1415000Y978000D02*
D03*
X1407000D02*
D03*
X790900Y850000D02*
D03*
X798900D02*
D03*
X1247000Y1005000D02*
D03*
X1255000D02*
D03*
X1268000Y1006000D02*
D03*
X1276000D02*
D03*
X1387000Y915000D02*
D03*
X1395000D02*
D03*
X878900Y867000D02*
D03*
X886900D02*
D03*
X1288000Y1052000D02*
D03*
X1296000D02*
D03*
X880900Y891000D02*
D03*
X872900D02*
D03*
X1211000Y1021000D02*
D03*
X1203000D02*
D03*
X1304000Y938000D02*
D03*
X1312000D02*
D03*
X1310000Y985000D02*
D03*
X1302000D02*
D03*
X1312000Y1130000D02*
D03*
X1304000D02*
D03*
X1460753Y986181D02*
D03*
X1452753D02*
D03*
X930000Y1246000D02*
D03*
X922000D02*
D03*
X1090000Y1063000D02*
D03*
X1082000D02*
D03*
X1066000D02*
D03*
X1074000D02*
D03*
D16*
X997500Y1165000D02*
D03*
X988500D02*
D03*
X1401500Y1022000D02*
D03*
X1410500D02*
D03*
X1384500D02*
D03*
X1393500D02*
D03*
X1571000Y1167500D02*
D03*
X1562000D02*
D03*
X1569252Y902681D02*
D03*
X1560253D02*
D03*
X1549500Y1220000D02*
D03*
X1558500D02*
D03*
X1571000Y1177500D02*
D03*
X1562000D02*
D03*
X1569252Y892681D02*
D03*
X1560253D02*
D03*
X1526000Y1212500D02*
D03*
X1517000D02*
D03*
X1444500Y1037000D02*
D03*
X1453500D02*
D03*
X862500Y1262000D02*
D03*
X853500D02*
D03*
X1119500Y1207000D02*
D03*
X1128500D02*
D03*
X1119500Y1216000D02*
D03*
X1128500D02*
D03*
X1119500Y991000D02*
D03*
X1128500D02*
D03*
X1119500Y1000000D02*
D03*
X1128500D02*
D03*
X1228500Y1021000D02*
D03*
X1219500D02*
D03*
X790500Y841000D02*
D03*
X799500D02*
D03*
X951500Y1234000D02*
D03*
X942500D02*
D03*
X942500Y1214000D02*
D03*
X951500D02*
D03*
X942500Y1225000D02*
D03*
X951500D02*
D03*
X890500Y848000D02*
D03*
X881500D02*
D03*
X888400Y878000D02*
D03*
X879400D02*
D03*
X826500Y786000D02*
D03*
X835500D02*
D03*
X1202500Y1010000D02*
D03*
X1211500D02*
D03*
X890400Y857000D02*
D03*
X881400D02*
D03*
X997500Y949000D02*
D03*
X988500D02*
D03*
X1406500Y1137000D02*
D03*
X1397500D02*
D03*
X1413500Y1207000D02*
D03*
X1404500D02*
D03*
X1406500Y858000D02*
D03*
X1415500D02*
D03*
X1569252Y912681D02*
D03*
X1560253D02*
D03*
X1562000Y1157500D02*
D03*
X1571000D02*
D03*
X1514252Y858681D02*
D03*
X1505253D02*
D03*
X1471500Y919000D02*
D03*
X1462500D02*
D03*
X1487752Y857681D02*
D03*
X1496752D02*
D03*
D17*
X1283000Y943500D02*
D03*
Y952500D02*
D03*
X933000Y1263500D02*
D03*
Y1254500D02*
D03*
X1176000Y959500D02*
D03*
Y950500D02*
D03*
X1177000Y884500D02*
D03*
Y875500D02*
D03*
X1176000Y1104500D02*
D03*
Y1095500D02*
D03*
Y902500D02*
D03*
Y893500D02*
D03*
Y1122500D02*
D03*
Y1113500D02*
D03*
Y941500D02*
D03*
Y932500D02*
D03*
Y1157500D02*
D03*
Y1148500D02*
D03*
X1171000Y977500D02*
D03*
Y968500D02*
D03*
Y1193500D02*
D03*
Y1184500D02*
D03*
X1157000Y884500D02*
D03*
Y875500D02*
D03*
Y1104500D02*
D03*
Y1095500D02*
D03*
Y902500D02*
D03*
Y893500D02*
D03*
Y1122500D02*
D03*
Y1113500D02*
D03*
X1151000Y975500D02*
D03*
Y966500D02*
D03*
X1152000Y1191500D02*
D03*
Y1182500D02*
D03*
X919000Y1263500D02*
D03*
Y1254500D02*
D03*
X1176000Y1131500D02*
D03*
Y1140500D02*
D03*
X1157000Y1131500D02*
D03*
Y1140500D02*
D03*
Y1174500D02*
D03*
Y1165500D02*
D03*
X1176000Y1174500D02*
D03*
Y1165500D02*
D03*
X1434000Y1035500D02*
D03*
Y1044500D02*
D03*
X1539000Y850500D02*
D03*
Y859500D02*
D03*
X1157000Y1147500D02*
D03*
Y1156500D02*
D03*
Y932500D02*
D03*
Y941500D02*
D03*
X1526500Y850500D02*
D03*
Y859500D02*
D03*
X1157000Y915500D02*
D03*
Y924500D02*
D03*
Y959500D02*
D03*
Y950500D02*
D03*
X1176000Y915500D02*
D03*
Y924500D02*
D03*
X1171000Y989500D02*
D03*
Y998500D02*
D03*
Y1205500D02*
D03*
Y1214500D02*
D03*
X1151000Y991500D02*
D03*
Y1000500D02*
D03*
X1151000Y1208000D02*
D03*
Y1217000D02*
D03*
X1363000Y956500D02*
D03*
Y965500D02*
D03*
X1362000Y1099500D02*
D03*
Y1108500D02*
D03*
X833000Y884500D02*
D03*
Y893500D02*
D03*
X845900Y909500D02*
D03*
Y900500D02*
D03*
X841900Y893500D02*
D03*
Y884500D02*
D03*
X1241000Y1032500D02*
D03*
Y1023500D02*
D03*
X1284000Y1110500D02*
D03*
Y1101500D02*
D03*
X891000Y1243500D02*
D03*
Y1252500D02*
D03*
X900000Y1243500D02*
D03*
Y1252500D02*
D03*
X907000Y1276500D02*
D03*
Y1267500D02*
D03*
X1544000Y1080500D02*
D03*
Y1089500D02*
D03*
X1543752Y985681D02*
D03*
Y994681D02*
D03*
X1443000Y895500D02*
D03*
Y886500D02*
D03*
X1388000Y1173500D02*
D03*
Y1182500D02*
D03*
X1396000Y886500D02*
D03*
Y877500D02*
D03*
X1569000Y1219500D02*
D03*
Y1210500D02*
D03*
X1471500Y1197000D02*
D03*
Y1188000D02*
D03*
X1474000Y1155500D02*
D03*
Y1164500D02*
D03*
D18*
X1273000Y952000D02*
D03*
Y944000D02*
D03*
X1147000Y924000D02*
D03*
Y916000D02*
D03*
Y1140000D02*
D03*
Y1132000D02*
D03*
X1167000Y883000D02*
D03*
Y875000D02*
D03*
Y1103000D02*
D03*
Y1095000D02*
D03*
X1560000Y880000D02*
D03*
Y872000D02*
D03*
X1444000Y915000D02*
D03*
Y907000D02*
D03*
X1147000Y1104000D02*
D03*
Y1096000D02*
D03*
Y884000D02*
D03*
Y876000D02*
D03*
X1167000Y1140000D02*
D03*
Y1132000D02*
D03*
Y924000D02*
D03*
Y916000D02*
D03*
X1166000Y1176000D02*
D03*
Y1168000D02*
D03*
Y960000D02*
D03*
Y952000D02*
D03*
X1147000Y1175000D02*
D03*
Y1167000D02*
D03*
Y894000D02*
D03*
Y902000D02*
D03*
Y1114000D02*
D03*
Y1122000D02*
D03*
X1148000Y1151000D02*
D03*
Y1159000D02*
D03*
X1142000Y976000D02*
D03*
Y984000D02*
D03*
X1449000Y1049000D02*
D03*
Y1057000D02*
D03*
X1161000Y1185000D02*
D03*
Y1193000D02*
D03*
Y969000D02*
D03*
Y977000D02*
D03*
X1166000Y1149000D02*
D03*
Y1157000D02*
D03*
X1167000Y933000D02*
D03*
Y941000D02*
D03*
X1167000Y1114000D02*
D03*
Y1122000D02*
D03*
Y894000D02*
D03*
Y902000D02*
D03*
X1148000Y934000D02*
D03*
Y942000D02*
D03*
X1147000Y958000D02*
D03*
Y950000D02*
D03*
X1053000Y1209000D02*
D03*
Y1217000D02*
D03*
X1065000Y1213000D02*
D03*
Y1221000D02*
D03*
X1029000Y1209000D02*
D03*
Y1217000D02*
D03*
X1053000Y993000D02*
D03*
Y1001000D02*
D03*
X1065000Y997000D02*
D03*
Y1005000D02*
D03*
X1029000Y993000D02*
D03*
Y1001000D02*
D03*
X899900Y852000D02*
D03*
Y860000D02*
D03*
X1231000Y1036000D02*
D03*
Y1044000D02*
D03*
X1384500Y1197343D02*
D03*
Y1205343D02*
D03*
X1448000Y999000D02*
D03*
Y1007000D02*
D03*
X808000Y845000D02*
D03*
Y853000D02*
D03*
X833900Y912000D02*
D03*
Y904000D02*
D03*
X1273343Y1115500D02*
D03*
Y1123500D02*
D03*
X1142000Y1000000D02*
D03*
Y992000D02*
D03*
X1141000Y1212000D02*
D03*
Y1204000D02*
D03*
X1432250Y1160000D02*
D03*
Y1152000D02*
D03*
X1302000Y1084000D02*
D03*
Y1076000D02*
D03*
X1161000Y1214000D02*
D03*
Y1206000D02*
D03*
Y998000D02*
D03*
Y990000D02*
D03*
X856900Y893000D02*
D03*
Y901000D02*
D03*
X1077000Y1209000D02*
D03*
Y1217000D02*
D03*
Y993000D02*
D03*
Y1001000D02*
D03*
X1089000Y1209000D02*
D03*
Y1217000D02*
D03*
Y993000D02*
D03*
Y1001000D02*
D03*
X1101000Y1209000D02*
D03*
Y1217000D02*
D03*
Y993000D02*
D03*
Y1001000D02*
D03*
X1045000Y1055000D02*
D03*
Y1063000D02*
D03*
X1041000Y839000D02*
D03*
Y847000D02*
D03*
X1087000Y850000D02*
D03*
Y842000D02*
D03*
X1075000Y850000D02*
D03*
Y842000D02*
D03*
X1033000Y1066000D02*
D03*
Y1058000D02*
D03*
X1029000Y850000D02*
D03*
Y842000D02*
D03*
X1000000Y1094000D02*
D03*
Y1086000D02*
D03*
X999000Y878000D02*
D03*
Y870000D02*
D03*
D19*
X1241000Y1014750D02*
D03*
X1229000Y1007000D02*
D03*
X1556000Y1127000D02*
D03*
X1555000Y1142000D02*
D03*
X1460000Y1048000D02*
D03*
Y1060000D02*
D03*
Y1009000D02*
D03*
Y997000D02*
D03*
X1426000Y1127000D02*
D03*
X1396000Y1206000D02*
D03*
X1270343Y1134500D02*
D03*
X1266000Y1079000D02*
D03*
X1454000Y920000D02*
D03*
X1477253Y857681D02*
D03*
X1466500Y1147500D02*
D03*
X882000Y835000D02*
D03*
X800000Y890000D02*
D03*
X1277000Y987000D02*
D03*
X1270000Y933000D02*
D03*
X1397000Y858000D02*
D03*
X1385000Y902000D02*
D03*
X1556750Y924500D02*
D03*
X1565000Y937000D02*
D03*
X784000Y801000D02*
D03*
X1471000Y1205000D02*
D03*
X878000Y1208000D02*
D03*
D20*
X891000Y1271875D02*
D03*
Y1268125D02*
D03*
D21*
Y1272000D02*
D03*
Y1268000D02*
D03*
D22*
Y1271750D02*
D03*
Y1268250D02*
D03*
D23*
Y1272125D02*
D03*
Y1267875D02*
D03*
D24*
Y1272250D02*
D03*
Y1267750D02*
D03*
D25*
Y1273250D02*
D03*
Y1266750D02*
D03*
D26*
Y1272375D02*
D03*
Y1267625D02*
D03*
D27*
Y1272500D02*
D03*
Y1267500D02*
D03*
D28*
Y1272625D02*
D03*
Y1267375D02*
D03*
D29*
Y1272750D02*
D03*
Y1267250D02*
D03*
D30*
Y1272875D02*
D03*
Y1267125D02*
D03*
D31*
Y1273000D02*
D03*
Y1267000D02*
D03*
D32*
Y1273075D02*
D03*
Y1266925D02*
D03*
D33*
Y1273125D02*
D03*
Y1266875D02*
D03*
D34*
Y1273200D02*
D03*
Y1266800D02*
D03*
D35*
Y1273350D02*
D03*
Y1266650D02*
D03*
D36*
Y1273300D02*
D03*
Y1266700D02*
D03*
D37*
Y1273375D02*
D03*
Y1266625D02*
D03*
D38*
X873000Y1262000D02*
D03*
Y1248000D02*
D03*
X1266343Y1091500D02*
D03*
Y1105500D02*
D03*
X1240000Y927000D02*
D03*
Y941000D02*
D03*
X1256343Y1126500D02*
D03*
Y1140500D02*
D03*
X1256000Y941000D02*
D03*
Y927000D02*
D03*
X775900Y839000D02*
D03*
Y825000D02*
D03*
X1266000Y976000D02*
D03*
Y962000D02*
D03*
X1240343Y1140500D02*
D03*
Y1126500D02*
D03*
D39*
X847000Y1207800D02*
D03*
D40*
X833050Y1232200D02*
D03*
X860950D02*
D03*
D41*
X872500Y1275999D02*
D03*
X831500D02*
D03*
X872500Y1291999D02*
D03*
X831500D02*
D03*
D42*
X1138000Y1163600D02*
D03*
Y1150400D02*
D03*
Y1184600D02*
D03*
Y1171400D02*
D03*
Y967600D02*
D03*
Y954400D02*
D03*
Y946600D02*
D03*
Y933400D02*
D03*
D43*
X1073000Y1232000D02*
D03*
X1059000D02*
D03*
X1073000Y1015000D02*
D03*
X1059000D02*
D03*
X1598000Y990000D02*
D03*
X1612000D02*
D03*
X1598000Y1081000D02*
D03*
X1612000D02*
D03*
D44*
X1041000Y1011000D02*
D03*
Y995000D02*
D03*
Y1227000D02*
D03*
Y1211000D02*
D03*
D45*
X1410250Y872750D02*
D03*
X1416750D02*
D03*
X1423250D02*
D03*
X1429750D02*
D03*
X1410250Y913250D02*
D03*
X1416750D02*
D03*
X1423250D02*
D03*
X1429750D02*
D03*
X1418750Y1193250D02*
D03*
X1412250D02*
D03*
X1405750D02*
D03*
X1399250D02*
D03*
X1418750Y1152750D02*
D03*
X1412250D02*
D03*
X1405750D02*
D03*
X1399250D02*
D03*
D46*
X1253750Y1038750D02*
D03*
Y1032250D02*
D03*
Y1025750D02*
D03*
Y1019250D02*
D03*
X1294250Y1038750D02*
D03*
Y1032250D02*
D03*
Y1025750D02*
D03*
Y1019250D02*
D03*
X1303750Y1114750D02*
D03*
Y1108250D02*
D03*
Y1101750D02*
D03*
Y1095250D02*
D03*
X1344250Y1114750D02*
D03*
Y1108250D02*
D03*
Y1101750D02*
D03*
Y1095250D02*
D03*
X1303250Y970750D02*
D03*
Y964250D02*
D03*
Y957750D02*
D03*
Y951250D02*
D03*
X1343750Y970750D02*
D03*
Y964250D02*
D03*
Y957750D02*
D03*
Y951250D02*
D03*
D47*
X1557673Y990070D02*
D03*
Y962290D02*
D03*
X1567833Y962290D02*
D03*
Y990070D02*
D03*
X1557921Y1079111D02*
D03*
Y1106891D02*
D03*
X1568081Y1106891D02*
D03*
Y1079111D02*
D03*
D48*
X1566500Y1065000D02*
D03*
X1557000D02*
D03*
X1547500D02*
D03*
Y1041000D02*
D03*
X1566500D02*
D03*
D49*
X911900Y788000D02*
D03*
Y816000D02*
D03*
X813900Y934000D02*
D03*
Y906000D02*
D03*
D50*
X1123250Y884500D02*
D03*
Y889500D02*
D03*
Y894500D02*
D03*
Y899500D02*
D03*
Y904500D02*
D03*
Y909500D02*
D03*
Y914500D02*
D03*
Y919500D02*
D03*
Y924500D02*
D03*
Y929500D02*
D03*
Y934500D02*
D03*
Y939500D02*
D03*
Y944500D02*
D03*
Y949500D02*
D03*
Y954500D02*
D03*
Y959500D02*
D03*
X1012750D02*
D03*
Y954500D02*
D03*
Y949500D02*
D03*
Y944500D02*
D03*
Y939500D02*
D03*
Y934500D02*
D03*
Y929500D02*
D03*
Y924500D02*
D03*
Y919500D02*
D03*
Y914500D02*
D03*
Y909500D02*
D03*
Y904500D02*
D03*
Y899500D02*
D03*
Y894500D02*
D03*
Y889500D02*
D03*
Y884500D02*
D03*
X1123250Y1100500D02*
D03*
Y1105500D02*
D03*
Y1110500D02*
D03*
Y1115500D02*
D03*
Y1120500D02*
D03*
Y1125500D02*
D03*
Y1130500D02*
D03*
Y1135500D02*
D03*
Y1140500D02*
D03*
Y1145500D02*
D03*
Y1150500D02*
D03*
Y1155500D02*
D03*
Y1160500D02*
D03*
Y1165500D02*
D03*
Y1170500D02*
D03*
Y1175500D02*
D03*
X1012750D02*
D03*
Y1170500D02*
D03*
Y1165500D02*
D03*
Y1160500D02*
D03*
Y1155500D02*
D03*
Y1150500D02*
D03*
Y1145500D02*
D03*
Y1140500D02*
D03*
Y1135500D02*
D03*
Y1130500D02*
D03*
Y1125500D02*
D03*
Y1120500D02*
D03*
Y1115500D02*
D03*
Y1110500D02*
D03*
Y1105500D02*
D03*
Y1100500D02*
D03*
D51*
X1105500Y977250D02*
D03*
X1100500D02*
D03*
X1095500D02*
D03*
X1090500D02*
D03*
X1085500D02*
D03*
X1080500D02*
D03*
X1075500D02*
D03*
X1070500D02*
D03*
X1065500D02*
D03*
X1060500D02*
D03*
X1055500D02*
D03*
X1050500D02*
D03*
X1045500D02*
D03*
X1040500D02*
D03*
X1035500D02*
D03*
X1030500D02*
D03*
Y866750D02*
D03*
X1035500D02*
D03*
X1040500D02*
D03*
X1045500D02*
D03*
X1050500D02*
D03*
X1055500D02*
D03*
X1060500D02*
D03*
X1065500D02*
D03*
X1070500D02*
D03*
X1075500D02*
D03*
X1080500D02*
D03*
X1085500D02*
D03*
X1090500D02*
D03*
X1095500D02*
D03*
X1100500D02*
D03*
X1105500D02*
D03*
Y1193250D02*
D03*
X1100500D02*
D03*
X1095500D02*
D03*
X1090500D02*
D03*
X1085500D02*
D03*
X1080500D02*
D03*
X1075500D02*
D03*
X1070500D02*
D03*
X1065500D02*
D03*
X1060500D02*
D03*
X1055500D02*
D03*
X1050500D02*
D03*
X1045500D02*
D03*
X1040500D02*
D03*
X1035500D02*
D03*
X1030500D02*
D03*
Y1082750D02*
D03*
X1035500D02*
D03*
X1040500D02*
D03*
X1045500D02*
D03*
X1050500D02*
D03*
X1055500D02*
D03*
X1060500D02*
D03*
X1065500D02*
D03*
X1070500D02*
D03*
X1075500D02*
D03*
X1080500D02*
D03*
X1085500D02*
D03*
X1090500D02*
D03*
X1095500D02*
D03*
X1100500D02*
D03*
X1105500D02*
D03*
D52*
X1438250Y950500D02*
D03*
Y937500D02*
D03*
X1457750Y944000D02*
D03*
D53*
X1486299Y949268D02*
D03*
Y936734D02*
D03*
Y924201D02*
D03*
Y961801D02*
D03*
X1484299Y1130267D02*
D03*
Y1117734D02*
D03*
Y1105201D02*
D03*
Y1142801D02*
D03*
D54*
X1540949Y961801D02*
D03*
Y949268D02*
D03*
Y936734D02*
D03*
Y924201D02*
D03*
X1538949Y1142801D02*
D03*
Y1130267D02*
D03*
Y1117734D02*
D03*
Y1105201D02*
D03*
D55*
X1249200Y976000D02*
D03*
X1249543Y1091500D02*
D03*
D56*
X1224800Y962050D02*
D03*
Y989950D02*
D03*
X1225143Y1077550D02*
D03*
Y1105450D02*
D03*
D57*
X1479252Y1016231D02*
D03*
Y1003531D02*
D03*
Y990831D02*
D03*
Y978131D02*
D03*
X1526252Y1016231D02*
D03*
Y1003531D02*
D03*
Y990831D02*
D03*
Y978131D02*
D03*
X1479500Y1089050D02*
D03*
Y1076350D02*
D03*
Y1063650D02*
D03*
Y1050950D02*
D03*
X1526500Y1089050D02*
D03*
Y1076350D02*
D03*
Y1063650D02*
D03*
Y1050950D02*
D03*
D58*
X813900Y891750D02*
D03*
Y868250D02*
D03*
D59*
X865250Y816000D02*
D03*
X888750D02*
D03*
D60*
X1547000Y1158500D02*
D03*
Y1165000D02*
D03*
Y1171500D02*
D03*
Y1178000D02*
D03*
Y1184500D02*
D03*
Y1191000D02*
D03*
Y1197500D02*
D03*
X1491000Y1158500D02*
D03*
Y1165000D02*
D03*
Y1171500D02*
D03*
Y1178000D02*
D03*
Y1184500D02*
D03*
Y1191000D02*
D03*
Y1197500D02*
D03*
X1543000Y870500D02*
D03*
Y877000D02*
D03*
Y883500D02*
D03*
Y890000D02*
D03*
Y896500D02*
D03*
Y903000D02*
D03*
Y909500D02*
D03*
X1487000Y870500D02*
D03*
Y877000D02*
D03*
Y883500D02*
D03*
Y890000D02*
D03*
Y896500D02*
D03*
Y903000D02*
D03*
Y909500D02*
D03*
D61*
X915000Y1228000D02*
D03*
D62*
X900000Y1235500D02*
D03*
Y1230500D02*
D03*
Y1225500D02*
D03*
Y1220500D02*
D03*
X930000D02*
D03*
Y1225500D02*
D03*
Y1230500D02*
D03*
Y1235500D02*
D03*
D63*
X827900Y868500D02*
D03*
Y863500D02*
D03*
Y858500D02*
D03*
Y853500D02*
D03*
Y848500D02*
D03*
Y843500D02*
D03*
X865900D02*
D03*
Y848500D02*
D03*
Y853500D02*
D03*
Y858500D02*
D03*
Y863500D02*
D03*
Y868500D02*
D03*
D64*
X834400Y837000D02*
D03*
X839400D02*
D03*
X844400D02*
D03*
X849400D02*
D03*
X854400D02*
D03*
X859400D02*
D03*
Y875000D02*
D03*
X854400D02*
D03*
X849400D02*
D03*
X844400D02*
D03*
X839400D02*
D03*
X834400D02*
D03*
D65*
X846900Y856000D02*
D03*
D66*
X794000Y786000D02*
D03*
X810000D02*
D03*
D67*
X1431250Y990250D02*
D03*
Y996750D02*
D03*
Y1003250D02*
D03*
Y1009750D02*
D03*
X1390750Y990250D02*
D03*
Y996750D02*
D03*
Y1003250D02*
D03*
Y1009750D02*
D03*
X1433250Y1057250D02*
D03*
Y1063750D02*
D03*
Y1070250D02*
D03*
Y1076750D02*
D03*
X1392750Y1057250D02*
D03*
Y1063750D02*
D03*
Y1070250D02*
D03*
Y1076750D02*
D03*
D68*
X886100Y794000D02*
D03*
X865900D02*
D03*
X796000Y870000D02*
D03*
X775800D02*
D03*
D69*
X1458500Y1125750D02*
D03*
X1445500D02*
D03*
X1452000Y1106250D02*
D03*
D70*
X1545253Y1024681D02*
D03*
Y1015181D02*
D03*
Y1005681D02*
D03*
X1569252D02*
D03*
Y1024681D02*
D03*
D71*
X915100Y1182350D02*
D03*
Y1169650D02*
D03*
X838900D02*
D03*
Y1182350D02*
D03*
D72*
X1207750Y1041000D02*
D03*
Y1036000D02*
D03*
Y1031000D02*
D03*
X1222250D02*
D03*
Y1041000D02*
D03*
D73*
X1645250Y762700D02*
D03*
Y707300D02*
D03*
Y1362700D02*
D03*
Y1307300D02*
D03*
Y1122700D02*
D03*
Y1067300D02*
D03*
Y1002700D02*
D03*
Y947300D02*
D03*
Y882700D02*
D03*
Y827300D02*
D03*
Y1242700D02*
D03*
Y1187300D02*
D03*
D74*
X1643750Y735000D02*
D03*
Y1335000D02*
D03*
Y1095000D02*
D03*
Y975000D02*
D03*
Y855000D02*
D03*
Y1215000D02*
D03*
D75*
X1605000Y976000D02*
D03*
Y944000D02*
D03*
Y1096000D02*
D03*
Y1128000D02*
D03*
D76*
Y960000D02*
D03*
Y1112000D02*
D03*
D89*
X1519899Y943001D02*
D03*
X1517899Y1124001D02*
D03*
M02*
