G04 Layer_Color=8421504*
%FSLAX44Y44*%
%MOMM*%
G71*
G01*
G75*
%ADD10R,0.4500X0.5500*%
%ADD11R,0.5200X0.5200*%
%ADD12R,0.5500X0.4500*%
%ADD13R,0.9000X0.7000*%
%ADD14R,0.7000X0.9000*%
%ADD15R,0.6000X1.5000*%
%ADD16R,0.5200X0.5200*%
%ADD17R,2.6000X0.6000*%
%ADD18R,0.5000X1.0000*%
%ADD19R,4.2500X1.5000*%
%ADD20R,3.9500X1.5000*%
%ADD21C,0.6000*%
%ADD22R,0.6000X0.3500*%
%ADD23R,1.6000X0.9000*%
%ADD24R,1.3000X1.3000*%
%ADD25R,1.2700X0.7600*%
%ADD26R,0.9000X0.6500*%
%ADD27R,0.5000X0.6500*%
%ADD28R,0.9800X2.0800*%
%ADD29O,1.5000X0.4000*%
%ADD30O,0.3990X1.5000*%
%ADD31R,0.8000X0.8000*%
%ADD32R,2.4500X2.4500*%
%ADD33O,0.2500X0.8000*%
%ADD34O,0.8000X0.2500*%
%ADD35R,0.7500X0.2500*%
%ADD36R,1.3600X1.4600*%
%ADD37O,1.4000X0.3500*%
%ADD38O,1.5000X0.3990*%
%ADD39R,1.1430X0.7620*%
%ADD40R,0.7620X1.1430*%
%ADD41R,2.6000X0.9500*%
%ADD42R,1.0200X0.6600*%
%ADD43R,1.2700X0.6600*%
%ADD44R,0.7620X1.0000*%
%ADD45O,1.9000X0.6000*%
%ADD46R,0.6500X0.5000*%
%ADD47O,0.2500X1.5500*%
%ADD48O,1.5500X0.2500*%
%ADD49R,0.6500X0.9000*%
%ADD50R,1.3500X0.9500*%
%ADD51R,0.9000X1.0000*%
%ADD52R,0.9000X1.6000*%
%ADD53R,1.3000X1.3000*%
%ADD54R,0.8000X0.8000*%
%ADD55R,1.0000X4.1000*%
%ADD56R,4.1000X1.0000*%
%ADD57R,1.0000X3.8000*%
%ADD58R,3.8000X1.0000*%
%ADD71R,3.8100X3.9100*%
D10*
X1131500Y831000D02*
D03*
X1122500D02*
D03*
X838500Y812000D02*
D03*
X847500D02*
D03*
X1496752Y857681D02*
D03*
X1487752D02*
D03*
X1462500Y919000D02*
D03*
X1471500D02*
D03*
X1505253Y858681D02*
D03*
X1514252D02*
D03*
X1571000Y1157500D02*
D03*
X1562000D02*
D03*
X1560253Y912681D02*
D03*
X1569252D02*
D03*
X1415500Y858000D02*
D03*
X1406500D02*
D03*
X1404500Y1207000D02*
D03*
X1413500D02*
D03*
X1397500Y1137000D02*
D03*
X1406500D02*
D03*
X988500Y949000D02*
D03*
X997500D02*
D03*
X881400Y857000D02*
D03*
X890400D02*
D03*
X1211500Y1010000D02*
D03*
X1202500D02*
D03*
X835500Y784000D02*
D03*
X826500D02*
D03*
X879400Y878000D02*
D03*
X888400D02*
D03*
X881500Y848000D02*
D03*
X890500D02*
D03*
X951500Y1225000D02*
D03*
X942500D02*
D03*
X951500Y1214000D02*
D03*
X942500D02*
D03*
X942500Y1234000D02*
D03*
X951500D02*
D03*
X1219500Y1021000D02*
D03*
X1228500D02*
D03*
X1128500Y1000000D02*
D03*
X1119500D02*
D03*
X1128500Y991000D02*
D03*
X1119500D02*
D03*
X1128500Y1216000D02*
D03*
X1119500D02*
D03*
X1128500Y1207000D02*
D03*
X1119500D02*
D03*
X853500Y1262000D02*
D03*
X862500D02*
D03*
X1453500Y1037000D02*
D03*
X1444500D02*
D03*
X1517000Y1212500D02*
D03*
X1526000D02*
D03*
X1560253Y892681D02*
D03*
X1569252D02*
D03*
X1562000Y1177500D02*
D03*
X1571000D02*
D03*
X1558500Y1220000D02*
D03*
X1549500D02*
D03*
X1560253Y902681D02*
D03*
X1569252D02*
D03*
X1562000Y1167500D02*
D03*
X1571000D02*
D03*
X1393500Y1022000D02*
D03*
X1384500D02*
D03*
X1410500D02*
D03*
X1401500D02*
D03*
X988500Y1165000D02*
D03*
X997500D02*
D03*
D11*
X808000Y853000D02*
D03*
Y845000D02*
D03*
X778000Y819000D02*
D03*
Y811000D02*
D03*
X999000Y870000D02*
D03*
Y878000D02*
D03*
X1000000Y1086000D02*
D03*
Y1094000D02*
D03*
X1029000Y842000D02*
D03*
Y850000D02*
D03*
X1033000Y1058000D02*
D03*
Y1066000D02*
D03*
X1075000Y842000D02*
D03*
Y850000D02*
D03*
X1087000Y842000D02*
D03*
Y850000D02*
D03*
X1041000Y847000D02*
D03*
Y839000D02*
D03*
X1045000Y1063000D02*
D03*
Y1055000D02*
D03*
X1101000Y1001000D02*
D03*
Y993000D02*
D03*
Y1217000D02*
D03*
Y1209000D02*
D03*
X1089000Y1001000D02*
D03*
Y993000D02*
D03*
Y1217000D02*
D03*
Y1209000D02*
D03*
X1077000Y1001000D02*
D03*
Y993000D02*
D03*
Y1217000D02*
D03*
Y1209000D02*
D03*
X856900Y901000D02*
D03*
Y893000D02*
D03*
X1161000Y990000D02*
D03*
Y998000D02*
D03*
Y1206000D02*
D03*
Y1214000D02*
D03*
X1302000Y1076000D02*
D03*
Y1084000D02*
D03*
X1432250Y1152000D02*
D03*
Y1160000D02*
D03*
X1141000Y1204000D02*
D03*
Y1212000D02*
D03*
X1142000Y992000D02*
D03*
Y1000000D02*
D03*
X1273343Y1123500D02*
D03*
Y1115500D02*
D03*
X1448000Y1007000D02*
D03*
Y999000D02*
D03*
X1384500Y1205343D02*
D03*
Y1197343D02*
D03*
X1231000Y1044000D02*
D03*
Y1036000D02*
D03*
X1029000Y1001000D02*
D03*
Y993000D02*
D03*
X1065000Y1005000D02*
D03*
Y997000D02*
D03*
X1053000Y1001000D02*
D03*
Y993000D02*
D03*
X1029000Y1217000D02*
D03*
Y1209000D02*
D03*
X1065000Y1221000D02*
D03*
Y1213000D02*
D03*
X1053000Y1217000D02*
D03*
Y1209000D02*
D03*
X1148000Y942000D02*
D03*
Y934000D02*
D03*
X1167000Y902000D02*
D03*
Y894000D02*
D03*
Y1122000D02*
D03*
Y1114000D02*
D03*
X1167000Y941000D02*
D03*
Y933000D02*
D03*
X1166000Y1157000D02*
D03*
Y1149000D02*
D03*
X1161000Y977000D02*
D03*
Y969000D02*
D03*
Y1193000D02*
D03*
Y1185000D02*
D03*
X1449000Y1057000D02*
D03*
Y1049000D02*
D03*
X1142000Y984000D02*
D03*
Y976000D02*
D03*
X1148000Y1159000D02*
D03*
Y1151000D02*
D03*
X1147000Y1122000D02*
D03*
Y1114000D02*
D03*
Y902000D02*
D03*
Y894000D02*
D03*
X1167000Y916000D02*
D03*
Y924000D02*
D03*
Y1132000D02*
D03*
Y1140000D02*
D03*
X1147000Y876000D02*
D03*
Y884000D02*
D03*
Y1096000D02*
D03*
Y1104000D02*
D03*
X1444000Y907000D02*
D03*
Y915000D02*
D03*
X1560000Y872000D02*
D03*
Y880000D02*
D03*
X1167000Y1095000D02*
D03*
Y1103000D02*
D03*
Y875000D02*
D03*
Y883000D02*
D03*
X1147000Y1132000D02*
D03*
Y1140000D02*
D03*
Y916000D02*
D03*
Y924000D02*
D03*
X1273000Y944000D02*
D03*
Y952000D02*
D03*
X899900Y852000D02*
D03*
Y860000D02*
D03*
X833900Y912000D02*
D03*
Y904000D02*
D03*
D12*
X799000Y853500D02*
D03*
Y844500D02*
D03*
X1474000Y1164500D02*
D03*
Y1155500D02*
D03*
X1471500Y1188000D02*
D03*
Y1197000D02*
D03*
X1569000Y1210500D02*
D03*
Y1219500D02*
D03*
X1396000Y877500D02*
D03*
Y886500D02*
D03*
X1388000Y1182500D02*
D03*
Y1173500D02*
D03*
X1443000Y886500D02*
D03*
Y895500D02*
D03*
X1543752Y994681D02*
D03*
Y985681D02*
D03*
X1544000Y1089500D02*
D03*
Y1080500D02*
D03*
X900000Y1252500D02*
D03*
Y1243500D02*
D03*
X891000Y1252500D02*
D03*
Y1243500D02*
D03*
X1284000Y1101500D02*
D03*
Y1110500D02*
D03*
X1241000Y1023500D02*
D03*
Y1032500D02*
D03*
X841900Y884500D02*
D03*
Y893500D02*
D03*
X845900Y900500D02*
D03*
Y909500D02*
D03*
X833000Y893500D02*
D03*
Y884500D02*
D03*
X1362000Y1108500D02*
D03*
Y1099500D02*
D03*
X1363000Y965500D02*
D03*
Y956500D02*
D03*
X1151000Y1217000D02*
D03*
Y1208000D02*
D03*
X1151000Y1000500D02*
D03*
Y991500D02*
D03*
X1171000Y1214500D02*
D03*
Y1205500D02*
D03*
Y998500D02*
D03*
Y989500D02*
D03*
X1176000Y924500D02*
D03*
Y915500D02*
D03*
X1157000Y924500D02*
D03*
Y915500D02*
D03*
X1526500Y859500D02*
D03*
Y850500D02*
D03*
X1157000Y941500D02*
D03*
Y932500D02*
D03*
Y1156500D02*
D03*
Y1147500D02*
D03*
X1539000Y859500D02*
D03*
Y850500D02*
D03*
X1434000Y1044500D02*
D03*
Y1035500D02*
D03*
X1157000Y1140500D02*
D03*
Y1131500D02*
D03*
X1176000Y1140500D02*
D03*
Y1131500D02*
D03*
X919000Y1254500D02*
D03*
Y1263500D02*
D03*
X1152000Y1182500D02*
D03*
Y1191500D02*
D03*
X1151000Y966500D02*
D03*
Y975500D02*
D03*
X1157000Y1113500D02*
D03*
Y1122500D02*
D03*
Y893500D02*
D03*
Y902500D02*
D03*
Y1095500D02*
D03*
Y1104500D02*
D03*
Y875500D02*
D03*
Y884500D02*
D03*
X1171000Y1184500D02*
D03*
Y1193500D02*
D03*
Y968500D02*
D03*
Y977500D02*
D03*
X1176000Y1148500D02*
D03*
Y1157500D02*
D03*
Y932500D02*
D03*
Y941500D02*
D03*
Y1113500D02*
D03*
Y1122500D02*
D03*
Y893500D02*
D03*
Y902500D02*
D03*
Y1095500D02*
D03*
Y1104500D02*
D03*
X1177000Y875500D02*
D03*
Y884500D02*
D03*
X933000Y1254500D02*
D03*
Y1263500D02*
D03*
X1283000Y952500D02*
D03*
Y943500D02*
D03*
D13*
X826000Y812000D02*
D03*
Y826000D02*
D03*
X1240343Y1126500D02*
D03*
Y1140500D02*
D03*
X1266000Y962000D02*
D03*
Y976000D02*
D03*
X1256000Y927000D02*
D03*
Y941000D02*
D03*
X1256343Y1140500D02*
D03*
Y1126500D02*
D03*
X1240000Y941000D02*
D03*
Y927000D02*
D03*
X1266343Y1105500D02*
D03*
Y1091500D02*
D03*
X873000Y1248000D02*
D03*
Y1262000D02*
D03*
D14*
X789000Y851000D02*
D03*
X775000D02*
D03*
X1612000Y1081000D02*
D03*
X1598000D02*
D03*
X1612000Y990000D02*
D03*
X1598000D02*
D03*
X1059000Y1015000D02*
D03*
X1073000D02*
D03*
X1059000Y1232000D02*
D03*
X1073000D02*
D03*
D15*
X791500Y809500D02*
D03*
X810500D02*
D03*
X801000Y828500D02*
D03*
D16*
X1074000Y1063000D02*
D03*
X1066000D02*
D03*
X1082000D02*
D03*
X1090000D02*
D03*
X922000Y1246000D02*
D03*
X930000D02*
D03*
X1452753Y986181D02*
D03*
X1460753D02*
D03*
X1304000Y1130000D02*
D03*
X1312000D02*
D03*
X1302000Y985000D02*
D03*
X1310000D02*
D03*
X1312000Y938000D02*
D03*
X1304000D02*
D03*
X1203000Y1021000D02*
D03*
X1211000D02*
D03*
X1296000Y1052000D02*
D03*
X1288000D02*
D03*
X886900Y867000D02*
D03*
X878900D02*
D03*
X1395000Y915000D02*
D03*
X1387000D02*
D03*
X1276000Y1006000D02*
D03*
X1268000D02*
D03*
X1255000Y1005000D02*
D03*
X1247000D02*
D03*
X1407000Y978000D02*
D03*
X1415000D02*
D03*
X1062000Y829000D02*
D03*
X1054000D02*
D03*
X1062000Y841000D02*
D03*
X1054000D02*
D03*
X1136000Y1193000D02*
D03*
X1144000D02*
D03*
X1460753Y1020181D02*
D03*
X1452753D02*
D03*
X1462000Y1082000D02*
D03*
X1454000D02*
D03*
X1487000Y1038000D02*
D03*
X1479000D02*
D03*
X1457000Y1070000D02*
D03*
X1449000D02*
D03*
X1423000Y1024000D02*
D03*
X1431000D02*
D03*
X1438000Y856000D02*
D03*
X1430000D02*
D03*
X1570000Y1188000D02*
D03*
X1562000D02*
D03*
X1476000Y1178000D02*
D03*
X1468000D02*
D03*
X1471000Y890000D02*
D03*
X1463000D02*
D03*
X1395000Y1045000D02*
D03*
X1403000D02*
D03*
X1406000Y1129000D02*
D03*
X1398000D02*
D03*
X1062000Y1054000D02*
D03*
X1054000D02*
D03*
X1062000Y1045000D02*
D03*
X1054000D02*
D03*
X880900Y891000D02*
D03*
X872900D02*
D03*
D17*
X1605000Y1112000D02*
D03*
Y960000D02*
D03*
D18*
Y1128000D02*
D03*
Y1096000D02*
D03*
Y944000D02*
D03*
Y976000D02*
D03*
D19*
X1643750Y1215000D02*
D03*
Y855000D02*
D03*
Y975000D02*
D03*
Y1095000D02*
D03*
Y1335000D02*
D03*
Y735000D02*
D03*
D20*
X1645250Y1187300D02*
D03*
Y1242700D02*
D03*
Y827300D02*
D03*
Y882700D02*
D03*
Y947300D02*
D03*
Y1002700D02*
D03*
Y1067300D02*
D03*
Y1122700D02*
D03*
Y1307300D02*
D03*
Y1362700D02*
D03*
Y707300D02*
D03*
Y762700D02*
D03*
D21*
X878000Y1208000D02*
D03*
X1471000Y1205000D02*
D03*
X845000Y794000D02*
D03*
X1565000Y937000D02*
D03*
X1556750Y924500D02*
D03*
X1385000Y902000D02*
D03*
X1397000Y858000D02*
D03*
X1270000Y933000D02*
D03*
X1277000Y987000D02*
D03*
X1466500Y1147500D02*
D03*
X1477253Y857681D02*
D03*
X1454000Y920000D02*
D03*
X1266000Y1079000D02*
D03*
X1270343Y1134500D02*
D03*
X1396000Y1206000D02*
D03*
X1426000Y1127000D02*
D03*
X1460000Y997000D02*
D03*
Y1009000D02*
D03*
Y1060000D02*
D03*
Y1048000D02*
D03*
X1555000Y1142000D02*
D03*
X1556000Y1127000D02*
D03*
D22*
X1222250Y1041000D02*
D03*
Y1031000D02*
D03*
X1207750D02*
D03*
Y1036000D02*
D03*
Y1041000D02*
D03*
D23*
X1225143Y1105450D02*
D03*
Y1077550D02*
D03*
X1224800Y989950D02*
D03*
Y962050D02*
D03*
D24*
X1249543Y1091500D02*
D03*
X1249200Y976000D02*
D03*
D25*
X838900Y1182350D02*
D03*
Y1169650D02*
D03*
X915100D02*
D03*
Y1182350D02*
D03*
D26*
X1569252Y1024681D02*
D03*
Y1005681D02*
D03*
X1545253D02*
D03*
Y1015181D02*
D03*
Y1024681D02*
D03*
D27*
X1452000Y1106250D02*
D03*
X1445500Y1125750D02*
D03*
X1458500D02*
D03*
D28*
X775800Y870000D02*
D03*
X796000D02*
D03*
X865900Y794000D02*
D03*
X886100D02*
D03*
D29*
X1392750Y1076750D02*
D03*
Y1070250D02*
D03*
Y1063750D02*
D03*
Y1057250D02*
D03*
X1433250Y1076750D02*
D03*
Y1070250D02*
D03*
Y1063750D02*
D03*
Y1057250D02*
D03*
X1390750Y1009750D02*
D03*
Y1003250D02*
D03*
Y996750D02*
D03*
Y990250D02*
D03*
X1431250Y1009750D02*
D03*
Y1003250D02*
D03*
Y996750D02*
D03*
Y990250D02*
D03*
D30*
X1399250Y1152750D02*
D03*
X1405750D02*
D03*
X1412250D02*
D03*
X1418750D02*
D03*
X1399250Y1193250D02*
D03*
X1405750D02*
D03*
X1412250D02*
D03*
X1418750D02*
D03*
X1429750Y913250D02*
D03*
X1423250D02*
D03*
X1416750D02*
D03*
X1410250D02*
D03*
X1429750Y872750D02*
D03*
X1423250D02*
D03*
X1416750D02*
D03*
X1410250D02*
D03*
D31*
X810000Y784000D02*
D03*
X794000D02*
D03*
D32*
X846900Y856000D02*
D03*
D33*
X834400Y875000D02*
D03*
X839400D02*
D03*
X844400D02*
D03*
X849400D02*
D03*
X854400D02*
D03*
X859400D02*
D03*
Y837000D02*
D03*
X854400D02*
D03*
X849400D02*
D03*
X844400D02*
D03*
X839400D02*
D03*
X834400D02*
D03*
D34*
X865900Y868500D02*
D03*
Y863500D02*
D03*
Y858500D02*
D03*
Y853500D02*
D03*
Y848500D02*
D03*
Y843500D02*
D03*
X827900D02*
D03*
Y848500D02*
D03*
Y853500D02*
D03*
Y858500D02*
D03*
Y863500D02*
D03*
Y868500D02*
D03*
D35*
X930000Y1235500D02*
D03*
Y1230500D02*
D03*
Y1225500D02*
D03*
Y1220500D02*
D03*
X900000D02*
D03*
Y1225500D02*
D03*
Y1230500D02*
D03*
Y1235500D02*
D03*
D36*
X915000Y1228000D02*
D03*
D37*
X1487000Y909500D02*
D03*
Y903000D02*
D03*
Y896500D02*
D03*
Y890000D02*
D03*
Y883500D02*
D03*
Y877000D02*
D03*
Y870500D02*
D03*
X1543000Y909500D02*
D03*
Y903000D02*
D03*
Y896500D02*
D03*
Y890000D02*
D03*
Y883500D02*
D03*
Y877000D02*
D03*
Y870500D02*
D03*
X1491000Y1197500D02*
D03*
Y1191000D02*
D03*
Y1184500D02*
D03*
Y1178000D02*
D03*
Y1171500D02*
D03*
Y1165000D02*
D03*
Y1158500D02*
D03*
X1547000Y1197500D02*
D03*
Y1191000D02*
D03*
Y1184500D02*
D03*
Y1178000D02*
D03*
Y1171500D02*
D03*
Y1165000D02*
D03*
Y1158500D02*
D03*
D38*
X1343750Y951250D02*
D03*
Y957750D02*
D03*
Y964250D02*
D03*
Y970750D02*
D03*
X1303250Y951250D02*
D03*
Y957750D02*
D03*
Y964250D02*
D03*
Y970750D02*
D03*
X1344250Y1095250D02*
D03*
Y1101750D02*
D03*
Y1108250D02*
D03*
Y1114750D02*
D03*
X1303750Y1095250D02*
D03*
Y1101750D02*
D03*
Y1108250D02*
D03*
Y1114750D02*
D03*
X1294250Y1019250D02*
D03*
Y1025750D02*
D03*
Y1032250D02*
D03*
Y1038750D02*
D03*
X1253750Y1019250D02*
D03*
Y1025750D02*
D03*
Y1032250D02*
D03*
Y1038750D02*
D03*
D39*
X888750Y816000D02*
D03*
X865250D02*
D03*
D40*
X813900Y868250D02*
D03*
Y891750D02*
D03*
D41*
X813900Y906000D02*
D03*
Y934000D02*
D03*
X911900Y816000D02*
D03*
Y788000D02*
D03*
D42*
X1538949Y1105201D02*
D03*
Y1117734D02*
D03*
Y1130267D02*
D03*
Y1142801D02*
D03*
X1540949Y924201D02*
D03*
Y936734D02*
D03*
Y949268D02*
D03*
Y961801D02*
D03*
D43*
X1484299Y1142801D02*
D03*
Y1105201D02*
D03*
Y1117734D02*
D03*
Y1130267D02*
D03*
X1486299Y961801D02*
D03*
Y924201D02*
D03*
Y936734D02*
D03*
Y949268D02*
D03*
D44*
X1568081Y1079111D02*
D03*
Y1106891D02*
D03*
X1557921Y1106891D02*
D03*
Y1079111D02*
D03*
X1567833Y990070D02*
D03*
Y962290D02*
D03*
X1557673Y962290D02*
D03*
Y990070D02*
D03*
D45*
X1526500Y1050950D02*
D03*
Y1063650D02*
D03*
Y1076350D02*
D03*
Y1089050D02*
D03*
X1479500Y1050950D02*
D03*
Y1063650D02*
D03*
Y1076350D02*
D03*
Y1089050D02*
D03*
X1526252Y978131D02*
D03*
Y990831D02*
D03*
Y1003531D02*
D03*
Y1016231D02*
D03*
X1479252Y978131D02*
D03*
Y990831D02*
D03*
Y1003531D02*
D03*
Y1016231D02*
D03*
D46*
X1457750Y944000D02*
D03*
X1438250Y937500D02*
D03*
Y950500D02*
D03*
D47*
X1105500Y1082750D02*
D03*
X1100500D02*
D03*
X1095500D02*
D03*
X1090500D02*
D03*
X1085500D02*
D03*
X1080500D02*
D03*
X1075500D02*
D03*
X1070500D02*
D03*
X1065500D02*
D03*
X1060500D02*
D03*
X1055500D02*
D03*
X1050500D02*
D03*
X1045500D02*
D03*
X1040500D02*
D03*
X1035500D02*
D03*
X1030500D02*
D03*
Y1193250D02*
D03*
X1035500D02*
D03*
X1040500D02*
D03*
X1045500D02*
D03*
X1050500D02*
D03*
X1055500D02*
D03*
X1060500D02*
D03*
X1065500D02*
D03*
X1070500D02*
D03*
X1075500D02*
D03*
X1080500D02*
D03*
X1085500D02*
D03*
X1090500D02*
D03*
X1095500D02*
D03*
X1100500D02*
D03*
X1105500D02*
D03*
Y866750D02*
D03*
X1100500D02*
D03*
X1095500D02*
D03*
X1090500D02*
D03*
X1085500D02*
D03*
X1080500D02*
D03*
X1075500D02*
D03*
X1070500D02*
D03*
X1065500D02*
D03*
X1060500D02*
D03*
X1055500D02*
D03*
X1050500D02*
D03*
X1045500D02*
D03*
X1040500D02*
D03*
X1035500D02*
D03*
X1030500D02*
D03*
Y977250D02*
D03*
X1035500D02*
D03*
X1040500D02*
D03*
X1045500D02*
D03*
X1050500D02*
D03*
X1055500D02*
D03*
X1060500D02*
D03*
X1065500D02*
D03*
X1070500D02*
D03*
X1075500D02*
D03*
X1080500D02*
D03*
X1085500D02*
D03*
X1090500D02*
D03*
X1095500D02*
D03*
X1100500D02*
D03*
X1105500D02*
D03*
D48*
X1012750Y1100500D02*
D03*
Y1105500D02*
D03*
Y1110500D02*
D03*
Y1115500D02*
D03*
Y1120500D02*
D03*
Y1125500D02*
D03*
Y1130500D02*
D03*
Y1135500D02*
D03*
Y1140500D02*
D03*
Y1145500D02*
D03*
Y1150500D02*
D03*
Y1155500D02*
D03*
Y1160500D02*
D03*
Y1165500D02*
D03*
Y1170500D02*
D03*
Y1175500D02*
D03*
X1123250D02*
D03*
Y1170500D02*
D03*
Y1165500D02*
D03*
Y1160500D02*
D03*
Y1155500D02*
D03*
Y1150500D02*
D03*
Y1145500D02*
D03*
Y1140500D02*
D03*
Y1135500D02*
D03*
Y1130500D02*
D03*
Y1125500D02*
D03*
Y1120500D02*
D03*
Y1115500D02*
D03*
Y1110500D02*
D03*
Y1105500D02*
D03*
Y1100500D02*
D03*
X1012750Y884500D02*
D03*
Y889500D02*
D03*
Y894500D02*
D03*
Y899500D02*
D03*
Y904500D02*
D03*
Y909500D02*
D03*
Y914500D02*
D03*
Y919500D02*
D03*
Y924500D02*
D03*
Y929500D02*
D03*
Y934500D02*
D03*
Y939500D02*
D03*
Y944500D02*
D03*
Y949500D02*
D03*
Y954500D02*
D03*
Y959500D02*
D03*
X1123250D02*
D03*
Y954500D02*
D03*
Y949500D02*
D03*
Y944500D02*
D03*
Y939500D02*
D03*
Y934500D02*
D03*
Y929500D02*
D03*
Y924500D02*
D03*
Y919500D02*
D03*
Y914500D02*
D03*
Y909500D02*
D03*
Y904500D02*
D03*
Y899500D02*
D03*
Y894500D02*
D03*
Y889500D02*
D03*
Y884500D02*
D03*
D49*
X1566500Y1041000D02*
D03*
X1547500D02*
D03*
Y1065000D02*
D03*
X1557000D02*
D03*
X1566500D02*
D03*
D50*
X1041000Y1211000D02*
D03*
Y1227000D02*
D03*
Y995000D02*
D03*
Y1011000D02*
D03*
D51*
X831500Y1291999D02*
D03*
X872500D02*
D03*
X831500Y1275999D02*
D03*
X872500D02*
D03*
D52*
X860950Y1232200D02*
D03*
X833050D02*
D03*
D53*
X847000Y1207800D02*
D03*
D54*
X919000Y1292000D02*
D03*
Y1276000D02*
D03*
X933000D02*
D03*
Y1292000D02*
D03*
D55*
X1189000Y853500D02*
D03*
Y1216500D02*
D03*
X1583000D02*
D03*
Y853500D02*
D03*
D56*
X1204500Y838000D02*
D03*
Y1232000D02*
D03*
X1567500D02*
D03*
Y838000D02*
D03*
D57*
X1189000Y915000D02*
D03*
Y975000D02*
D03*
Y1035000D02*
D03*
Y1095000D02*
D03*
Y1155000D02*
D03*
X1583000Y915000D02*
D03*
Y975000D02*
D03*
Y1035000D02*
D03*
Y1095000D02*
D03*
Y1155000D02*
D03*
D58*
X1506000Y1232000D02*
D03*
X1446000D02*
D03*
X1386000D02*
D03*
X1326000D02*
D03*
X1266000D02*
D03*
X1266000Y838000D02*
D03*
X1326000D02*
D03*
X1386000D02*
D03*
X1446000D02*
D03*
X1506000D02*
D03*
D71*
X1517899Y1124001D02*
D03*
X1519899Y943001D02*
D03*
M02*
