G04 Layer_Color=2752767*
%FSLAX44Y44*%
%MOMM*%
G71*
G01*
G75*
%ADD192C,0.0508*%
%ADD193C,0.0677*%
D192*
X977968Y1058768D02*
Y1062832D01*
X982032D01*
Y1058768D01*
X977968D01*
Y1134968D02*
Y1139032D01*
X982032D01*
Y1134968D01*
X977968D01*
Y1109568D02*
Y1113632D01*
X982032D01*
Y1109568D01*
X977968D01*
Y1084168D02*
Y1088232D01*
X982032D01*
Y1084168D01*
X977968D01*
Y1033368D02*
Y1037432D01*
X982032D01*
Y1033368D01*
X977968D01*
Y1007968D02*
Y1012032D01*
X982032D01*
Y1007968D01*
X977968D01*
Y982568D02*
Y986632D01*
X982032D01*
Y982568D01*
X977968D01*
X1542000Y1208968D02*
X1539968Y1213032D01*
X1544032D01*
X1542000Y1208968D01*
X1534000Y1175968D02*
X1531968Y1180032D01*
X1536032D01*
X1534000Y1175968D01*
X768000Y811968D02*
X765968Y816032D01*
X770032D01*
X768000Y811968D01*
X782000D02*
X779968Y816032D01*
X784032D01*
X782000Y811968D01*
X1660001Y1107969D02*
X1661017Y1108985D01*
X1662033D01*
X1661017Y1110001D01*
X1662033Y1111017D01*
X1661017D01*
X1660001Y1112033D01*
X1658985Y1111017D01*
X1657969D01*
X1658985Y1110001D01*
X1657969Y1108985D01*
X1658985D01*
X1660001Y1107969D01*
Y1047969D02*
X1661017Y1048985D01*
X1662033D01*
X1661017Y1050001D01*
X1662033Y1051017D01*
X1661017D01*
X1660001Y1052033D01*
X1658985Y1051017D01*
X1657969D01*
X1658985Y1050001D01*
X1657969Y1048985D01*
X1658985D01*
X1660001Y1047969D01*
Y1027969D02*
X1661017Y1028985D01*
X1662033D01*
X1661017Y1030001D01*
X1662033Y1031017D01*
X1661017D01*
X1660001Y1032033D01*
X1658985Y1031017D01*
X1657969D01*
X1658985Y1030001D01*
X1657969Y1028985D01*
X1658985D01*
X1660001Y1027969D01*
Y987969D02*
X1661017Y988985D01*
X1662033D01*
X1661017Y990001D01*
X1662033Y991016D01*
X1661017D01*
X1660001Y992032D01*
X1658985Y991016D01*
X1657969D01*
X1658985Y990001D01*
X1657969Y988985D01*
X1658985D01*
X1660001Y987969D01*
Y927969D02*
X1661017Y928985D01*
X1662033D01*
X1661017Y930001D01*
X1662033Y931016D01*
X1661017D01*
X1660001Y932032D01*
X1658985Y931016D01*
X1657969D01*
X1658985Y930001D01*
X1657969Y928985D01*
X1658985D01*
X1660001Y927969D01*
X1650001Y1107969D02*
X1651017Y1108985D01*
X1652033D01*
X1651017Y1110001D01*
X1652033Y1111017D01*
X1651017D01*
X1650001Y1112033D01*
X1648985Y1111017D01*
X1647969D01*
X1648985Y1110001D01*
X1647969Y1108985D01*
X1648985D01*
X1650001Y1107969D01*
X1655001Y1077969D02*
X1656017Y1078985D01*
X1657033D01*
X1656017Y1080001D01*
X1657033Y1081017D01*
X1656017D01*
X1655001Y1082033D01*
X1653985Y1081017D01*
X1652969D01*
X1653985Y1080001D01*
X1652969Y1078985D01*
X1653985D01*
X1655001Y1077969D01*
X1650001Y1047969D02*
X1651017Y1048985D01*
X1652033D01*
X1651017Y1050001D01*
X1652033Y1051017D01*
X1651017D01*
X1650001Y1052033D01*
X1648985Y1051017D01*
X1647969D01*
X1648985Y1050001D01*
X1647969Y1048985D01*
X1648985D01*
X1650001Y1047969D01*
X1655001Y1037969D02*
X1656017Y1038985D01*
X1657033D01*
X1656017Y1040001D01*
X1657033Y1041017D01*
X1656017D01*
X1655001Y1042033D01*
X1653985Y1041017D01*
X1652969D01*
X1653985Y1040001D01*
X1652969Y1038985D01*
X1653985D01*
X1655001Y1037969D01*
X1650001Y1027969D02*
X1651017Y1028985D01*
X1652033D01*
X1651017Y1030001D01*
X1652033Y1031017D01*
X1651017D01*
X1650001Y1032033D01*
X1648985Y1031017D01*
X1647969D01*
X1648985Y1030001D01*
X1647969Y1028985D01*
X1648985D01*
X1650001Y1027969D01*
X1655001Y1017969D02*
X1656017Y1018985D01*
X1657033D01*
X1656017Y1020001D01*
X1657033Y1021017D01*
X1656017D01*
X1655001Y1022033D01*
X1653985Y1021017D01*
X1652969D01*
X1653985Y1020001D01*
X1652969Y1018985D01*
X1653985D01*
X1655001Y1017969D01*
X1650001Y987969D02*
X1651017Y988985D01*
X1652033D01*
X1651017Y990001D01*
X1652033Y991016D01*
X1651017D01*
X1650001Y992032D01*
X1648985Y991016D01*
X1647969D01*
X1648985Y990001D01*
X1647969Y988985D01*
X1648985D01*
X1650001Y987969D01*
X1655001Y957969D02*
X1656017Y958985D01*
X1657033D01*
X1656017Y960001D01*
X1657033Y961016D01*
X1656017D01*
X1655001Y962032D01*
X1653985Y961016D01*
X1652969D01*
X1653985Y960001D01*
X1652969Y958985D01*
X1653985D01*
X1655001Y957969D01*
X1650001Y927969D02*
X1651017Y928985D01*
X1652033D01*
X1651017Y930001D01*
X1652033Y931016D01*
X1651017D01*
X1650001Y932032D01*
X1648985Y931016D01*
X1647969D01*
X1648985Y930001D01*
X1647969Y928985D01*
X1648985D01*
X1650001Y927969D01*
X1640001Y1107969D02*
X1641017Y1108985D01*
X1642033D01*
X1641017Y1110001D01*
X1642033Y1111017D01*
X1641017D01*
X1640001Y1112033D01*
X1638985Y1111017D01*
X1637969D01*
X1638985Y1110001D01*
X1637969Y1108985D01*
X1638985D01*
X1640001Y1107969D01*
X1645001Y1077969D02*
X1646017Y1078985D01*
X1647033D01*
X1646017Y1080001D01*
X1647033Y1081017D01*
X1646017D01*
X1645001Y1082033D01*
X1643985Y1081017D01*
X1642969D01*
X1643985Y1080001D01*
X1642969Y1078985D01*
X1643985D01*
X1645001Y1077969D01*
X1640001Y1047969D02*
X1641017Y1048985D01*
X1642033D01*
X1641017Y1050001D01*
X1642033Y1051017D01*
X1641017D01*
X1640001Y1052033D01*
X1638985Y1051017D01*
X1637969D01*
X1638985Y1050001D01*
X1637969Y1048985D01*
X1638985D01*
X1640001Y1047969D01*
X1645001Y1037969D02*
X1646017Y1038985D01*
X1647033D01*
X1646017Y1040001D01*
X1647033Y1041017D01*
X1646017D01*
X1645001Y1042033D01*
X1643985Y1041017D01*
X1642969D01*
X1643985Y1040001D01*
X1642969Y1038985D01*
X1643985D01*
X1645001Y1037969D01*
X1640001Y1027969D02*
X1641017Y1028985D01*
X1642033D01*
X1641017Y1030001D01*
X1642033Y1031017D01*
X1641017D01*
X1640001Y1032033D01*
X1638985Y1031017D01*
X1637969D01*
X1638985Y1030001D01*
X1637969Y1028985D01*
X1638985D01*
X1640001Y1027969D01*
X1645001Y1017969D02*
X1646017Y1018985D01*
X1647033D01*
X1646017Y1020001D01*
X1647033Y1021017D01*
X1646017D01*
X1645001Y1022033D01*
X1643985Y1021017D01*
X1642969D01*
X1643985Y1020001D01*
X1642969Y1018985D01*
X1643985D01*
X1645001Y1017969D01*
X1640001Y987969D02*
X1641017Y988985D01*
X1642033D01*
X1641017Y990001D01*
X1642033Y991016D01*
X1641017D01*
X1640001Y992032D01*
X1638985Y991016D01*
X1637969D01*
X1638985Y990001D01*
X1637969Y988985D01*
X1638985D01*
X1640001Y987969D01*
X1645001Y957969D02*
X1646017Y958985D01*
X1647033D01*
X1646017Y960001D01*
X1647033Y961016D01*
X1646017D01*
X1645001Y962032D01*
X1643985Y961016D01*
X1642969D01*
X1643985Y960001D01*
X1642969Y958985D01*
X1643985D01*
X1645001Y957969D01*
X1640001Y927969D02*
X1641017Y928985D01*
X1642033D01*
X1641017Y930001D01*
X1642033Y931016D01*
X1641017D01*
X1640001Y932032D01*
X1638985Y931016D01*
X1637969D01*
X1638985Y930001D01*
X1637969Y928985D01*
X1638985D01*
X1640001Y927969D01*
X1630001Y1107969D02*
X1631017Y1108985D01*
X1632033D01*
X1631017Y1110001D01*
X1632033Y1111017D01*
X1631017D01*
X1630001Y1112033D01*
X1628985Y1111017D01*
X1627969D01*
X1628985Y1110001D01*
X1627969Y1108985D01*
X1628985D01*
X1630001Y1107969D01*
X1635001Y1077969D02*
X1636017Y1078985D01*
X1637033D01*
X1636017Y1080001D01*
X1637033Y1081017D01*
X1636017D01*
X1635001Y1082033D01*
X1633985Y1081017D01*
X1632969D01*
X1633985Y1080001D01*
X1632969Y1078985D01*
X1633985D01*
X1635001Y1077969D01*
X1630001Y1047969D02*
X1631017Y1048985D01*
X1632033D01*
X1631017Y1050001D01*
X1632033Y1051017D01*
X1631017D01*
X1630001Y1052033D01*
X1628985Y1051017D01*
X1627969D01*
X1628985Y1050001D01*
X1627969Y1048985D01*
X1628985D01*
X1630001Y1047969D01*
X1635001Y1037969D02*
X1636017Y1038985D01*
X1637033D01*
X1636017Y1040001D01*
X1637033Y1041017D01*
X1636017D01*
X1635001Y1042033D01*
X1633985Y1041017D01*
X1632969D01*
X1633985Y1040001D01*
X1632969Y1038985D01*
X1633985D01*
X1635001Y1037969D01*
X1630001Y1027969D02*
X1631017Y1028985D01*
X1632033D01*
X1631017Y1030001D01*
X1632033Y1031017D01*
X1631017D01*
X1630001Y1032033D01*
X1628985Y1031017D01*
X1627969D01*
X1628985Y1030001D01*
X1627969Y1028985D01*
X1628985D01*
X1630001Y1027969D01*
X1635001Y1017969D02*
X1636017Y1018985D01*
X1637033D01*
X1636017Y1020001D01*
X1637033Y1021017D01*
X1636017D01*
X1635001Y1022033D01*
X1633985Y1021017D01*
X1632969D01*
X1633985Y1020001D01*
X1632969Y1018985D01*
X1633985D01*
X1635001Y1017969D01*
Y957969D02*
X1636017Y958985D01*
X1637033D01*
X1636017Y960001D01*
X1637033Y961016D01*
X1636017D01*
X1635001Y962032D01*
X1633985Y961016D01*
X1632969D01*
X1633985Y960001D01*
X1632969Y958985D01*
X1633985D01*
X1635001Y957969D01*
X1630001Y927969D02*
X1631017Y928985D01*
X1632033D01*
X1631017Y930001D01*
X1632033Y931016D01*
X1631017D01*
X1630001Y932032D01*
X1628985Y931016D01*
X1627969D01*
X1628985Y930001D01*
X1627969Y928985D01*
X1628985D01*
X1630001Y927969D01*
X1594000Y1159968D02*
X1591968Y1164032D01*
X1596032D01*
X1594000Y1159968D01*
X1212998Y1176966D02*
X1210965Y1181030D01*
X1215030D01*
X1212998Y1176966D01*
X1213998Y1197966D02*
X1211966Y1202030D01*
X1216030D01*
X1213998Y1197966D01*
X1465500Y1070218D02*
X1463468Y1074282D01*
X1467532D01*
X1465500Y1070218D01*
X1378000Y1041968D02*
X1375968Y1046032D01*
X1380032D01*
X1378000Y1041968D01*
X1318000Y1240968D02*
X1315968Y1245032D01*
X1320032D01*
X1318000Y1240968D01*
X1328000D02*
X1325968Y1245032D01*
X1330032D01*
X1328000Y1240968D01*
X1073000Y940968D02*
X1074016Y941984D01*
X1075032D01*
X1074016Y943000D01*
X1075032Y944016D01*
X1074016D01*
X1073000Y945032D01*
X1071984Y944016D01*
X1070968D01*
X1071984Y943000D01*
X1070968Y941984D01*
X1071984D01*
X1073000Y940968D01*
X1107000Y1004968D02*
X1104968Y1009032D01*
X1109032D01*
X1107000Y1004968D01*
X1069000Y1103968D02*
X1066968Y1108032D01*
X1071032D01*
X1069000Y1103968D01*
X1064998Y950966D02*
X1062966Y955030D01*
X1067030D01*
X1064998Y950966D01*
X1078000Y1051968D02*
X1079016Y1052984D01*
X1080032D01*
X1079016Y1054000D01*
X1080032Y1055016D01*
X1079016D01*
X1078000Y1056032D01*
X1076984Y1055016D01*
X1075968D01*
X1076984Y1054000D01*
X1075968Y1052984D01*
X1076984D01*
X1078000Y1051968D01*
X1071000Y1052968D02*
X1072016Y1053984D01*
X1073032D01*
X1072016Y1055000D01*
X1073032Y1056016D01*
X1072016D01*
X1071000Y1057032D01*
X1069984Y1056016D01*
X1068968D01*
X1069984Y1055000D01*
X1068968Y1053984D01*
X1069984D01*
X1071000Y1052968D01*
X1079000Y1100604D02*
X1080016Y1101620D01*
X1081032D01*
X1080016Y1102636D01*
X1081032Y1103652D01*
X1080016D01*
X1079000Y1104668D01*
X1077984Y1103652D01*
X1076968D01*
X1077984Y1102636D01*
X1076968Y1101620D01*
X1077984D01*
X1079000Y1100604D01*
X1065998Y1095966D02*
X1067014Y1096982D01*
X1068030D01*
X1067014Y1097998D01*
X1068030Y1099014D01*
X1067014D01*
X1065998Y1100030D01*
X1064982Y1099014D01*
X1063966D01*
X1064982Y1097998D01*
X1063966Y1096982D01*
X1064982D01*
X1065998Y1095966D01*
X1060000Y1123968D02*
X1061016Y1124984D01*
X1062032D01*
X1061016Y1126000D01*
X1062032Y1127016D01*
X1061016D01*
X1060000Y1128032D01*
X1058984Y1127016D01*
X1057968D01*
X1058984Y1126000D01*
X1057968Y1124984D01*
X1058984D01*
X1060000Y1123968D01*
X1035000Y1094968D02*
X1036016Y1095984D01*
X1037032D01*
X1036016Y1097000D01*
X1037032Y1098016D01*
X1036016D01*
X1035000Y1099032D01*
X1033984Y1098016D01*
X1032968D01*
X1033984Y1097000D01*
X1032968Y1095984D01*
X1033984D01*
X1035000Y1094968D01*
X1024998Y1067966D02*
X1026014Y1068982D01*
X1027030D01*
X1026014Y1069998D01*
X1027030Y1071014D01*
X1026014D01*
X1024998Y1072030D01*
X1023982Y1071014D01*
X1022966D01*
X1023982Y1069998D01*
X1022966Y1068982D01*
X1023982D01*
X1024998Y1067966D01*
X912000Y825968D02*
X909968Y830032D01*
X914032D01*
X912000Y825968D01*
X905000D02*
X902968Y830032D01*
X907032D01*
X905000Y825968D01*
X898000D02*
X895968Y830032D01*
X900032D01*
X898000Y825968D01*
X891000D02*
X888968Y830032D01*
X893032D01*
X891000Y825968D01*
X842000Y804968D02*
X839968Y809032D01*
X844032D01*
X842000Y804968D01*
X835000D02*
X832968Y809032D01*
X837032D01*
X835000Y804968D01*
X828000D02*
X825968Y809032D01*
X830032D01*
X828000Y804968D01*
X821000D02*
X818968Y809032D01*
X823032D01*
X821000Y804968D01*
X814000D02*
X811968Y809032D01*
X816032D01*
X814000Y804968D01*
X793000Y897968D02*
X790968Y902032D01*
X795032D01*
X793000Y897968D01*
Y910968D02*
X790968Y915032D01*
X795032D01*
X793000Y910968D01*
Y903968D02*
X790968Y908032D01*
X795032D01*
X793000Y903968D01*
X807000Y804968D02*
X804968Y809032D01*
X809032D01*
X807000Y804968D01*
X1008000Y1083968D02*
X1009016Y1084984D01*
X1010032D01*
X1009016Y1086000D01*
X1010032Y1087016D01*
X1009016D01*
X1008000Y1088032D01*
X1006984Y1087016D01*
X1005968D01*
X1006984Y1086000D01*
X1005968Y1084984D01*
X1006984D01*
X1008000Y1083968D01*
X1087000Y1051968D02*
X1088016Y1052984D01*
X1089032D01*
X1088016Y1054000D01*
X1089032Y1055016D01*
X1088016D01*
X1087000Y1056032D01*
X1085984Y1055016D01*
X1084968D01*
X1085984Y1054000D01*
X1084968Y1052984D01*
X1085984D01*
X1087000Y1051968D01*
X1173000Y1032968D02*
X1170968Y1037032D01*
X1175032D01*
X1173000Y1032968D01*
X1131000Y1182968D02*
X1132016Y1183984D01*
X1133032D01*
X1132016Y1185000D01*
X1133032Y1186016D01*
X1132016D01*
X1131000Y1187032D01*
X1129984Y1186016D01*
X1128968D01*
X1129984Y1185000D01*
X1128968Y1183984D01*
X1129984D01*
X1131000Y1182968D01*
X1152000Y1197968D02*
X1149968Y1202032D01*
X1154032D01*
X1152000Y1197968D01*
X1050000Y1237968D02*
X1051016Y1238984D01*
X1052032D01*
X1051016Y1240000D01*
X1052032Y1241016D01*
X1051016D01*
X1050000Y1242032D01*
X1048984Y1241016D01*
X1047968D01*
X1048984Y1240000D01*
X1047968Y1238984D01*
X1048984D01*
X1050000Y1237968D01*
X988500Y1169468D02*
X989516Y1170484D01*
X990532D01*
X989516Y1171500D01*
X990532Y1172516D01*
X989516D01*
X988500Y1173532D01*
X987484Y1172516D01*
X986468D01*
X987484Y1171500D01*
X986468Y1170484D01*
X987484D01*
X988500Y1169468D01*
X1095000Y847968D02*
X1096016Y848984D01*
X1097032D01*
X1096016Y850000D01*
X1097032Y851016D01*
X1096016D01*
X1095000Y852032D01*
X1093984Y851016D01*
X1092968D01*
X1093984Y850000D01*
X1092968Y848984D01*
X1093984D01*
X1095000Y847968D01*
X1066000D02*
X1063968Y852032D01*
X1068032D01*
X1066000Y847968D01*
X1307750Y1030218D02*
X1308766Y1031234D01*
X1309782D01*
X1308766Y1032250D01*
X1309782Y1033266D01*
X1308766D01*
X1307750Y1034282D01*
X1306734Y1033266D01*
X1305718D01*
X1306734Y1032250D01*
X1305718Y1031234D01*
X1306734D01*
X1307750Y1030218D01*
X1019000Y873968D02*
X1016968Y878032D01*
X1021032D01*
X1019000Y873968D01*
X1023000Y856968D02*
X1020968Y861032D01*
X1025032D01*
X1023000Y856968D01*
X1267000Y1018968D02*
X1264968Y1023032D01*
X1269032D01*
X1267000Y1018968D01*
X1247000Y1052968D02*
X1244968Y1057032D01*
X1249032D01*
X1247000Y1052968D01*
Y993968D02*
X1244968Y998032D01*
X1249032D01*
X1247000Y993968D01*
X1151000Y1043968D02*
X1148968Y1048032D01*
X1153032D01*
X1151000Y1043968D01*
X952000Y1238968D02*
X949968Y1243032D01*
X954032D01*
X952000Y1238968D01*
X951500Y1203468D02*
X949468Y1207532D01*
X953532D01*
X951500Y1203468D01*
X1352000Y1124968D02*
X1349968Y1129032D01*
X1354032D01*
X1352000Y1124968D01*
X1279000Y1131968D02*
X1276968Y1136032D01*
X1281032D01*
X1279000Y1131968D01*
X1280500Y1071218D02*
X1278468Y1075282D01*
X1282532D01*
X1280500Y1071218D01*
X1270000Y914968D02*
X1267968Y919032D01*
X1272032D01*
X1270000Y914968D01*
X1364000Y886968D02*
X1361968Y891032D01*
X1366032D01*
X1364000Y886968D01*
X1331000Y895968D02*
X1328968Y900032D01*
X1333032D01*
X1331000Y895968D01*
X1506000Y1175968D02*
X1503968Y1180032D01*
X1508032D01*
X1506000Y1175968D01*
X1493750Y1080718D02*
X1491718Y1084782D01*
X1495782D01*
X1493750Y1080718D01*
X1432250Y1142968D02*
X1430218Y1147032D01*
X1434282D01*
X1432250Y1142968D01*
X1309000Y1137968D02*
X1306968Y1142032D01*
X1311032D01*
X1309000Y1137968D01*
X1501000Y886968D02*
X1498968Y891032D01*
X1503032D01*
X1501000Y886968D01*
X1406250Y987718D02*
X1404218Y991782D01*
X1408282D01*
X1406250Y987718D01*
X1403569Y920763D02*
X1401537Y924827D01*
X1405601D01*
X1403569Y920763D01*
X1256343Y1148468D02*
X1254311Y1152532D01*
X1258375D01*
X1256343Y1148468D01*
X1301500Y1054968D02*
X1299468Y1059032D01*
X1303532D01*
X1301500Y1054968D01*
X1301000Y992968D02*
X1298968Y997032D01*
X1303032D01*
X1301000Y992968D01*
X1561000Y1194968D02*
X1558968Y1199032D01*
X1563032D01*
X1561000Y1194968D01*
X1424000Y1081968D02*
X1421968Y1086032D01*
X1426032D01*
X1424000Y1081968D01*
X1492000Y979968D02*
X1489968Y984032D01*
X1494032D01*
X1492000Y979968D01*
X1570000Y873968D02*
X1567968Y878032D01*
X1572032D01*
X1570000Y873968D01*
X1441000Y1023968D02*
X1438968Y1028032D01*
X1443032D01*
X1441000Y1023968D01*
X1416997Y846966D02*
X1414965Y851030D01*
X1419029D01*
X1416997Y846966D01*
X1328657Y1069968D02*
X1326625Y1074032D01*
X1330689D01*
X1328657Y1069968D01*
X1311000Y1076968D02*
X1308968Y1081032D01*
X1313032D01*
X1311000Y1076968D01*
X1240343Y1148468D02*
X1238311Y1152532D01*
X1242375D01*
X1240343Y1148468D01*
X1267500Y997468D02*
X1265468Y1001532D01*
X1269532D01*
X1267500Y997468D01*
X1303000Y918968D02*
X1300968Y923032D01*
X1305032D01*
X1303000Y918968D01*
X1621000Y1170968D02*
X1618968Y1175032D01*
X1623032D01*
X1621000Y1170968D01*
X1574000Y1093968D02*
X1571968Y1098032D01*
X1576032D01*
X1574000Y1093968D01*
X1570000Y1240968D02*
X1567968Y1245032D01*
X1572032D01*
X1570000Y1240968D01*
X1569000Y1197968D02*
X1566968Y1202032D01*
X1571032D01*
X1569000Y1197968D01*
X1506000Y1238968D02*
X1503968Y1243032D01*
X1508032D01*
X1506000Y1238968D01*
X1471750Y1138468D02*
X1469718Y1142532D01*
X1473782D01*
X1471750Y1138468D01*
Y1128468D02*
X1469718Y1132532D01*
X1473782D01*
X1471750Y1128468D01*
X1556000Y1088968D02*
X1553968Y1093032D01*
X1558032D01*
X1556000Y1088968D01*
X1472000Y1115968D02*
X1469968Y1120032D01*
X1474032D01*
X1472000Y1115968D01*
X1574750Y1046468D02*
X1572718Y1050532D01*
X1576782D01*
X1574750Y1046468D01*
X1574250Y1034968D02*
X1572218Y1039032D01*
X1576282D01*
X1574250Y1034968D01*
X1548000Y1052968D02*
X1545968Y1057032D01*
X1550032D01*
X1548000Y1052968D01*
X1542472Y1049468D02*
X1540440Y1053532D01*
X1544504D01*
X1542472Y1049468D01*
X1447000Y1238968D02*
X1444968Y1243032D01*
X1449032D01*
X1447000Y1238968D01*
X1388000D02*
X1385968Y1243032D01*
X1390032D01*
X1388000Y1238968D01*
X1456500Y1175468D02*
X1454468Y1179532D01*
X1458532D01*
X1456500Y1175468D01*
X1315250Y1194718D02*
X1313218Y1198782D01*
X1317282D01*
X1315250Y1194718D01*
X1345000Y1189968D02*
X1342968Y1194032D01*
X1347032D01*
X1345000Y1189968D01*
X1320000Y1136968D02*
X1317968Y1141032D01*
X1322032D01*
X1320000Y1136968D01*
X1256343Y1116468D02*
X1254311Y1120532D01*
X1258375D01*
X1256343Y1116468D01*
X1293250Y1077968D02*
X1291218Y1082032D01*
X1295282D01*
X1293250Y1077968D01*
X1285000Y1055968D02*
X1282968Y1060032D01*
X1287032D01*
X1285000Y1055968D01*
X1594000Y1034968D02*
X1591968Y1039032D01*
X1596032D01*
X1594000Y1034968D01*
X1575000Y1028718D02*
X1572968Y1032782D01*
X1577032D01*
X1575000Y1028718D01*
X1575250Y1015968D02*
X1573218Y1020032D01*
X1577282D01*
X1575250Y1015968D01*
X1572000Y970968D02*
X1569968Y975032D01*
X1574032D01*
X1572000Y970968D01*
X1555753Y1005149D02*
X1553721Y1009213D01*
X1557784D01*
X1555753Y1005149D01*
X1594000Y901968D02*
X1591968Y906032D01*
X1596032D01*
X1594000Y901968D01*
X1568000Y824968D02*
X1565968Y829032D01*
X1570032D01*
X1568000Y824968D01*
X1505000D02*
X1502968Y829032D01*
X1507032D01*
X1505000Y824968D01*
X1472750Y961218D02*
X1470718Y965282D01*
X1474782D01*
X1472750Y961218D01*
X1414000Y1028218D02*
X1411968Y1032282D01*
X1416032D01*
X1414000Y1028218D01*
X1472750Y948968D02*
X1470718Y953032D01*
X1474782D01*
X1472750Y948968D01*
X1472500Y936968D02*
X1470468Y941032D01*
X1474532D01*
X1472500Y936968D01*
X1283000Y1003968D02*
X1280968Y1008032D01*
X1285032D01*
X1283000Y1003968D01*
X1286000Y986968D02*
X1283968Y991032D01*
X1288032D01*
X1286000Y986968D01*
X1419000Y897968D02*
X1416968Y902032D01*
X1421032D01*
X1419000Y897968D01*
X1439000Y859968D02*
X1436968Y864032D01*
X1441032D01*
X1439000Y859968D01*
X1447000Y824968D02*
X1444968Y829032D01*
X1449032D01*
X1447000Y824968D01*
X1314000Y868968D02*
X1311968Y873032D01*
X1316032D01*
X1314000Y868968D01*
X1391000Y863968D02*
X1388968Y868032D01*
X1393032D01*
X1391000Y863968D01*
X1380997Y855966D02*
X1378965Y860030D01*
X1383029D01*
X1380997Y855966D01*
X1386000Y824968D02*
X1383968Y829032D01*
X1388032D01*
X1386000Y824968D01*
X1328000D02*
X1325968Y829032D01*
X1330032D01*
X1328000Y824968D01*
X1267000D02*
X1264968Y829032D01*
X1269032D01*
X1267000Y824968D01*
X1201250Y1092968D02*
X1199218Y1097032D01*
X1203282D01*
X1201250Y1092968D01*
X856000Y824968D02*
X853968Y829032D01*
X858032D01*
X856000Y824968D01*
X844600Y824568D02*
X842568Y828632D01*
X846632D01*
X844600Y824568D01*
X848000Y783968D02*
X845968Y788032D01*
X850032D01*
X848000Y783968D01*
X1361000Y1116968D02*
X1358968Y1121032D01*
X1363032D01*
X1361000Y1116968D01*
X1344047Y1061015D02*
X1342015Y1065079D01*
X1346079D01*
X1344047Y1061015D01*
X833000Y822968D02*
X830968Y827032D01*
X835032D01*
X833000Y822968D01*
X1323000Y1003968D02*
X1320968Y1008032D01*
X1325032D01*
X1323000Y1003968D01*
X1226998Y975966D02*
X1224966Y980030D01*
X1229029D01*
X1226998Y975966D01*
X1206000Y976968D02*
X1203968Y981032D01*
X1208032D01*
X1206000Y976968D01*
X1475000Y1105968D02*
X1472968Y1110032D01*
X1477032D01*
X1475000Y1105968D01*
X1559500Y1208468D02*
X1557468Y1212532D01*
X1561532D01*
X1559500Y1208468D01*
X1506500Y1187968D02*
X1504468Y1192032D01*
X1508532D01*
X1506500Y1187968D01*
X1479000Y1218968D02*
X1476968Y1223032D01*
X1481032D01*
X1479000Y1218968D01*
X1504000Y1154968D02*
X1501968Y1159032D01*
X1506032D01*
X1504000Y1154968D01*
X1500500Y907468D02*
X1498468Y911532D01*
X1502532D01*
X1500500Y907468D01*
X1494000Y846968D02*
X1491968Y851032D01*
X1496032D01*
X1494000Y846968D01*
X1160000Y865968D02*
X1161016Y866984D01*
X1162032D01*
X1161016Y868000D01*
X1162032Y869016D01*
X1161016D01*
X1160000Y870032D01*
X1158984Y869016D01*
X1157968D01*
X1158984Y868000D01*
X1157968Y866984D01*
X1158984D01*
X1160000Y865968D01*
Y1085968D02*
X1161016Y1086984D01*
X1162032D01*
X1161016Y1088000D01*
X1162032Y1089016D01*
X1161016D01*
X1160000Y1090032D01*
X1158984Y1089016D01*
X1157968D01*
X1158984Y1088000D01*
X1157968Y1086984D01*
X1158984D01*
X1160000Y1085968D01*
X1302000Y1158968D02*
X1299968Y1163032D01*
X1304032D01*
X1302000Y1158968D01*
X1271000Y897968D02*
X1272016Y898984D01*
X1273032D01*
X1272016Y900000D01*
X1273032Y901016D01*
X1272016D01*
X1271000Y902032D01*
X1269984Y901016D01*
X1268968D01*
X1269984Y900000D01*
X1268968Y898984D01*
X1269984D01*
X1271000Y897968D01*
X1231000Y1047968D02*
X1232016Y1048984D01*
X1233032D01*
X1232016Y1050000D01*
X1233032Y1051016D01*
X1232016D01*
X1231000Y1052032D01*
X1229984Y1051016D01*
X1228968D01*
X1229984Y1050000D01*
X1228968Y1048984D01*
X1229984D01*
X1231000Y1047968D01*
X1080998Y896966D02*
X1082014Y897982D01*
X1083030D01*
X1082014Y898998D01*
X1083030Y900014D01*
X1082014D01*
X1080998Y901030D01*
X1079982Y900014D01*
X1078966D01*
X1079982Y898998D01*
X1078966Y897982D01*
X1079982D01*
X1080998Y896966D01*
X1070000Y904968D02*
X1071016Y905984D01*
X1072032D01*
X1071016Y907000D01*
X1072032Y908016D01*
X1071016D01*
X1070000Y909032D01*
X1068984Y908016D01*
X1067968D01*
X1068984Y907000D01*
X1067968Y905984D01*
X1068984D01*
X1070000Y904968D01*
X1030000Y906968D02*
X1031016Y907984D01*
X1032032D01*
X1031016Y909000D01*
X1032032Y910016D01*
X1031016D01*
X1030000Y911032D01*
X1028984Y910016D01*
X1027968D01*
X1028984Y909000D01*
X1027968Y907984D01*
X1028984D01*
X1030000Y906968D01*
X1037000Y908968D02*
X1038016Y909984D01*
X1039032D01*
X1038016Y911000D01*
X1039032Y912016D01*
X1038016D01*
X1037000Y913032D01*
X1035984Y912016D01*
X1034968D01*
X1035984Y911000D01*
X1034968Y909984D01*
X1035984D01*
X1037000Y908968D01*
X1048000Y912968D02*
X1049016Y913984D01*
X1050032D01*
X1049016Y915000D01*
X1050032Y916016D01*
X1049016D01*
X1048000Y917032D01*
X1046984Y916016D01*
X1045968D01*
X1046984Y915000D01*
X1045968Y913984D01*
X1046984D01*
X1048000Y912968D01*
X1052500Y907468D02*
X1053516Y908484D01*
X1054532D01*
X1053516Y909500D01*
X1054532Y910516D01*
X1053516D01*
X1052500Y911532D01*
X1051484Y910516D01*
X1050468D01*
X1051484Y909500D01*
X1050468Y908484D01*
X1051484D01*
X1052500Y907468D01*
X1057998Y912966D02*
X1059014Y913982D01*
X1060030D01*
X1059014Y914998D01*
X1060030Y916014D01*
X1059014D01*
X1057998Y917030D01*
X1056982Y916014D01*
X1055966D01*
X1056982Y914998D01*
X1055966Y913982D01*
X1056982D01*
X1057998Y912966D01*
X1000000Y1144968D02*
X1001016Y1145984D01*
X1002032D01*
X1001016Y1147000D01*
X1002032Y1148016D01*
X1001016D01*
X1000000Y1149032D01*
X998984Y1148016D01*
X997968D01*
X998984Y1147000D01*
X997968Y1145984D01*
X998984D01*
X1000000Y1144968D01*
X986998Y937966D02*
X988014Y938982D01*
X989030D01*
X988014Y939998D01*
X989030Y941014D01*
X988014D01*
X986998Y942030D01*
X985982Y941014D01*
X984966D01*
X985982Y939998D01*
X984966Y938982D01*
X985982D01*
X986998Y937966D01*
X950000Y1187968D02*
X951016Y1188984D01*
X952032D01*
X951016Y1190000D01*
X952032Y1191016D01*
X951016D01*
X950000Y1192032D01*
X948984Y1191016D01*
X947968D01*
X948984Y1190000D01*
X947968Y1188984D01*
X948984D01*
X950000Y1187968D01*
X994000Y1137968D02*
X995016Y1138984D01*
X996032D01*
X995016Y1140000D01*
X996032Y1141016D01*
X995016D01*
X994000Y1142032D01*
X992984Y1141016D01*
X991968D01*
X992984Y1140000D01*
X991968Y1138984D01*
X992984D01*
X994000Y1137968D01*
X995000Y931968D02*
X996016Y932984D01*
X997032D01*
X996016Y934000D01*
X997032Y935016D01*
X996016D01*
X995000Y936032D01*
X993984Y935016D01*
X992968D01*
X993984Y934000D01*
X992968Y932984D01*
X993984D01*
X995000Y931968D01*
X989000Y927968D02*
X990016Y928984D01*
X991032D01*
X990016Y930000D01*
X991032Y931016D01*
X990016D01*
X989000Y932032D01*
X987984Y931016D01*
X986968D01*
X987984Y930000D01*
X986968Y928984D01*
X987984D01*
X989000Y927968D01*
X958000Y1188968D02*
X959016Y1189984D01*
X960032D01*
X959016Y1191000D01*
X960032Y1192016D01*
X959016D01*
X958000Y1193032D01*
X956984Y1192016D01*
X955968D01*
X956984Y1191000D01*
X955968Y1189984D01*
X956984D01*
X958000Y1188968D01*
X1052000Y1130968D02*
X1053016Y1131984D01*
X1054032D01*
X1053016Y1133000D01*
X1054032Y1134016D01*
X1053016D01*
X1052000Y1135032D01*
X1050984Y1134016D01*
X1049968D01*
X1050984Y1133000D01*
X1049968Y1131984D01*
X1050984D01*
X1052000Y1130968D01*
X1051000Y1140968D02*
X1052016Y1141984D01*
X1053032D01*
X1052016Y1143000D01*
X1053032Y1144016D01*
X1052016D01*
X1051000Y1145032D01*
X1049984Y1144016D01*
X1048968D01*
X1049984Y1143000D01*
X1048968Y1141984D01*
X1049984D01*
X1051000Y1140968D01*
X1026000Y1143968D02*
X1027016Y1144984D01*
X1028032D01*
X1027016Y1146000D01*
X1028032Y1147016D01*
X1027016D01*
X1026000Y1148032D01*
X1024984Y1147016D01*
X1023968D01*
X1024984Y1146000D01*
X1023968Y1144984D01*
X1024984D01*
X1026000Y1143968D01*
X1028500Y1103468D02*
X1029516Y1104484D01*
X1030532D01*
X1029516Y1105500D01*
X1030532Y1106516D01*
X1029516D01*
X1028500Y1107532D01*
X1027484Y1106516D01*
X1026468D01*
X1027484Y1105500D01*
X1026468Y1104484D01*
X1027484D01*
X1028500Y1103468D01*
X909000Y1254968D02*
X906968Y1259032D01*
X911032D01*
X909000Y1254968D01*
X907000Y1286968D02*
X904968Y1291032D01*
X909032D01*
X907000Y1286968D01*
X1150750Y981468D02*
X1148718Y985532D01*
X1152782D01*
X1150750Y981468D01*
X1041000Y827968D02*
X1038968Y832032D01*
X1043032D01*
X1041000Y827968D01*
X1030000Y830968D02*
X1027968Y835032D01*
X1032032D01*
X1030000Y830968D01*
X1406000Y885968D02*
X1403968Y890032D01*
X1408032D01*
X1406000Y885968D01*
X1443000Y1015468D02*
X1440968Y1019532D01*
X1445032D01*
X1443000Y1015468D01*
X1408000Y1053968D02*
X1405968Y1058032D01*
X1410032D01*
X1408000Y1053968D01*
X1418000Y1045968D02*
X1415968Y1050032D01*
X1420032D01*
X1418000Y1045968D01*
X1138000Y923968D02*
X1139016Y924984D01*
X1140032D01*
X1139016Y926000D01*
X1140032Y927016D01*
X1139016D01*
X1138000Y928032D01*
X1136984Y927016D01*
X1135968D01*
X1136984Y926000D01*
X1135968Y924984D01*
X1136984D01*
X1138000Y923968D01*
X1141998Y906966D02*
X1143014Y907982D01*
X1144030D01*
X1143014Y908998D01*
X1144030Y910014D01*
X1143014D01*
X1141998Y911030D01*
X1140982Y910014D01*
X1139966D01*
X1140982Y908998D01*
X1139966Y907982D01*
X1140982D01*
X1141998Y906966D01*
X1200000Y963968D02*
X1197968Y968032D01*
X1202032D01*
X1200000Y963968D01*
X1128000Y1006968D02*
X1125968Y1011032D01*
X1130032D01*
X1128000Y1006968D01*
X1111000Y996968D02*
X1108968Y1001032D01*
X1113032D01*
X1111000Y996968D01*
X1068000Y1029968D02*
X1065968Y1034032D01*
X1070032D01*
X1068000Y1029968D01*
X1090000Y1007968D02*
X1087968Y1012032D01*
X1092032D01*
X1090000Y1007968D01*
X896000Y868968D02*
X893968Y873032D01*
X898032D01*
X896000Y868968D01*
X864000Y882968D02*
X861968Y887032D01*
X866032D01*
X864000Y882968D01*
X873000Y897968D02*
X870968Y902032D01*
X875032D01*
X873000Y897968D01*
X857000Y908968D02*
X854968Y913032D01*
X859032D01*
X857000Y908968D01*
X845900Y916868D02*
X843868Y920932D01*
X847932D01*
X845900Y916868D01*
X775000Y811968D02*
X772968Y816032D01*
X777032D01*
X775000Y811968D01*
X907000Y773968D02*
X904968Y778032D01*
X909032D01*
X907000Y773968D01*
X913000D02*
X910968Y778032D01*
X915032D01*
X913000Y773968D01*
X919000D02*
X916968Y778032D01*
X921032D01*
X919000Y773968D01*
X901000D02*
X898968Y778032D01*
X903032D01*
X901000Y773968D01*
X970000Y827968D02*
X967968Y832032D01*
X972032D01*
X970000Y827968D01*
X976000D02*
X973968Y832032D01*
X978032D01*
X976000Y827968D01*
X1020000Y838968D02*
X1017968Y843032D01*
X1022032D01*
X1020000Y838968D01*
X1075000Y829968D02*
X1072968Y834032D01*
X1077032D01*
X1075000Y829968D01*
X1087000Y830968D02*
X1084968Y835032D01*
X1089032D01*
X1087000Y830968D01*
X1178000Y834968D02*
X1175968Y839032D01*
X1180032D01*
X1178000Y834968D01*
X1186000Y943968D02*
X1183968Y948032D01*
X1188032D01*
X1186000Y943968D01*
X1134998Y1222965D02*
X1132966Y1227029D01*
X1137030D01*
X1134998Y1222965D01*
X977000Y947968D02*
X978016Y948984D01*
X979032D01*
X978016Y950000D01*
X979032Y951016D01*
X978016D01*
X977000Y952032D01*
X975984Y951016D01*
X974968D01*
X975984Y950000D01*
X974968Y948984D01*
X975984D01*
X977000Y947968D01*
X812000Y834525D02*
X809968Y838589D01*
X814032D01*
X812000Y834525D01*
X900000Y1210968D02*
X897968Y1215032D01*
X902032D01*
X900000Y1210968D01*
X1185000Y1124968D02*
X1182968Y1129032D01*
X1187032D01*
X1185000Y1124968D01*
X1498000Y1033968D02*
X1495968Y1038032D01*
X1500032D01*
X1498000Y1033968D01*
X1551997Y1116966D02*
X1549965Y1121030D01*
X1554029D01*
X1551997Y1116966D01*
X1646000Y1346968D02*
X1643968Y1351032D01*
X1648032D01*
X1646000Y1346968D01*
X1647000Y1318968D02*
X1644968Y1323032D01*
X1649032D01*
X1647000Y1318968D01*
X1534000Y1187968D02*
X1531968Y1192032D01*
X1536032D01*
X1534000Y1187968D01*
X1645000Y838968D02*
X1642968Y843032D01*
X1647032D01*
X1645000Y838968D01*
Y866968D02*
X1642968Y871032D01*
X1647032D01*
X1645000Y866968D01*
X1445000Y978968D02*
X1442968Y983032D01*
X1447032D01*
X1445000Y978968D01*
X1424000Y979968D02*
X1421968Y984032D01*
X1426032D01*
X1424000Y979968D01*
X1411000Y1163968D02*
X1408968Y1168032D01*
X1413032D01*
X1411000Y1163968D01*
X1232000Y1168968D02*
X1229968Y1173032D01*
X1234032D01*
X1232000Y1168968D01*
X1218000Y1162968D02*
X1215968Y1167032D01*
X1220032D01*
X1218000Y1162968D01*
X1269000Y1165968D02*
X1266968Y1170032D01*
X1271032D01*
X1269000Y1165968D01*
X1492997Y1007966D02*
X1490965Y1012030D01*
X1495029D01*
X1492997Y1007966D01*
X1203000Y1082968D02*
X1200968Y1087032D01*
X1205032D01*
X1203000Y1082968D01*
Y1076968D02*
X1200968Y1081032D01*
X1205032D01*
X1203000Y1076968D01*
Y1070968D02*
X1200968Y1075032D01*
X1205032D01*
X1203000Y1070968D01*
X1122000Y970968D02*
X1123016Y971984D01*
X1124032D01*
X1123016Y973000D01*
X1124032Y974016D01*
X1123016D01*
X1122000Y975032D01*
X1120984Y974016D01*
X1119968D01*
X1120984Y973000D01*
X1119968Y971984D01*
X1120984D01*
X1122000Y970968D01*
X1355000Y1145968D02*
X1352968Y1150032D01*
X1357032D01*
X1355000Y1145968D01*
X1458000Y1133968D02*
X1455968Y1138032D01*
X1460032D01*
X1458000Y1133968D01*
X1405000Y1170968D02*
X1402968Y1175032D01*
X1407032D01*
X1405000Y1170968D01*
X1368000Y1150968D02*
X1365968Y1155032D01*
X1370032D01*
X1368000Y1150968D01*
X1200000Y910968D02*
X1197968Y915032D01*
X1202032D01*
X1200000Y910968D01*
X1229000Y886968D02*
X1226968Y891032D01*
X1231032D01*
X1229000Y886968D01*
X1259000Y896968D02*
X1256968Y901032D01*
X1261032D01*
X1259000Y896968D01*
X1295000Y868968D02*
X1292968Y873032D01*
X1297032D01*
X1295000Y868968D01*
X958000Y827968D02*
X955968Y832032D01*
X960032D01*
X958000Y827968D01*
X952000D02*
X949968Y832032D01*
X954032D01*
X952000Y827968D01*
X1136000Y860968D02*
X1133968Y865032D01*
X1138032D01*
X1136000Y860968D01*
X1134000Y873968D02*
X1131968Y878032D01*
X1136032D01*
X1134000Y873968D01*
X1327997Y978966D02*
X1325965Y983030D01*
X1330029D01*
X1327997Y978966D01*
X1256000Y946968D02*
X1253968Y951032D01*
X1258032D01*
X1256000Y946968D01*
X1254000Y1170968D02*
X1251968Y1175032D01*
X1256032D01*
X1254000Y1170968D01*
X1253000Y896968D02*
X1250968Y901032D01*
X1255032D01*
X1253000Y896968D01*
X1247000D02*
X1244968Y901032D01*
X1249032D01*
X1247000Y896968D01*
X1245000Y914968D02*
X1242968Y919032D01*
X1247032D01*
X1245000Y914968D01*
X1256000D02*
X1253968Y919032D01*
X1258032D01*
X1256000Y914968D01*
X1274000Y1037968D02*
X1271968Y1042032D01*
X1276032D01*
X1274000Y1037968D01*
X1268000Y1027968D02*
X1265968Y1032032D01*
X1270032D01*
X1268000Y1027968D01*
X1309000Y999968D02*
X1306968Y1004032D01*
X1311032D01*
X1309000Y999968D01*
X1319000Y987968D02*
X1316968Y992032D01*
X1321032D01*
X1319000Y987968D01*
X1331997Y994966D02*
X1329965Y999030D01*
X1334029D01*
X1331997Y994966D01*
X1342997Y997966D02*
X1340965Y1002030D01*
X1345029D01*
X1342997Y997966D01*
X1352997D02*
X1350965Y1002030D01*
X1355029D01*
X1352997Y997966D01*
X1362000Y998968D02*
X1359968Y1003032D01*
X1364032D01*
X1362000Y998968D01*
X1294250Y1066218D02*
X1292218Y1070282D01*
X1296282D01*
X1294250Y1066218D01*
X1105750Y892218D02*
X1103718Y896282D01*
X1107782D01*
X1105750Y892218D01*
X1103000Y831968D02*
X1100968Y836032D01*
X1105032D01*
X1103000Y831968D01*
X1133000Y970568D02*
X1134016Y971584D01*
X1135032D01*
X1134016Y972600D01*
X1135032Y973616D01*
X1134016D01*
X1133000Y974632D01*
X1131984Y973616D01*
X1130968D01*
X1131984Y972600D01*
X1130968Y971584D01*
X1131984D01*
X1133000Y970568D01*
X964000Y827968D02*
X961968Y832032D01*
X966032D01*
X964000Y827968D01*
X995000Y882968D02*
X992968Y887032D01*
X997032D01*
X995000Y882968D01*
X989000D02*
X986968Y887032D01*
X991032D01*
X989000Y882968D01*
X1178000Y1082968D02*
X1175968Y1087032D01*
X1180032D01*
X1178000Y1082968D01*
X1172000D02*
X1169968Y1087032D01*
X1174032D01*
X1172000Y1082968D01*
X1293000Y1178968D02*
X1290968Y1183032D01*
X1295032D01*
X1293000Y1178968D01*
X1222998Y1191966D02*
X1220966Y1196030D01*
X1225030D01*
X1222998Y1191966D01*
X1102998Y1098966D02*
X1100966Y1103030D01*
X1105030D01*
X1102998Y1098966D01*
X1199998Y1203966D02*
X1197966Y1208030D01*
X1202030D01*
X1199998Y1203966D01*
X1107000Y1107968D02*
X1104968Y1112032D01*
X1109032D01*
X1107000Y1107968D01*
X1166000Y1082968D02*
X1163968Y1087032D01*
X1168032D01*
X1166000Y1082968D01*
X1000750Y882818D02*
X998718Y886882D01*
X1002782D01*
X1000750Y882818D01*
X1022000Y865968D02*
X1019968Y870032D01*
X1024032D01*
X1022000Y865968D01*
X983000Y962968D02*
X984016Y963984D01*
X985032D01*
X984016Y965000D01*
X985032Y966016D01*
X984016D01*
X983000Y967032D01*
X981984Y966016D01*
X980968D01*
X981984Y965000D01*
X980968Y963984D01*
X981984D01*
X983000Y962968D01*
X1057000Y1031968D02*
X1054968Y1036032D01*
X1059032D01*
X1057000Y1031968D01*
X1029000Y913968D02*
X1030016Y914984D01*
X1031032D01*
X1030016Y916000D01*
X1031032Y917016D01*
X1030016D01*
X1029000Y918032D01*
X1027984Y917016D01*
X1026968D01*
X1027984Y916000D01*
X1026968Y914984D01*
X1027984D01*
X1029000Y913968D01*
X1026000Y1243968D02*
X1023968Y1248032D01*
X1028032D01*
X1026000Y1243968D01*
X1201000Y1158968D02*
X1198968Y1163032D01*
X1203032D01*
X1201000Y1158968D01*
X1199998Y1144966D02*
X1197966Y1149030D01*
X1202030D01*
X1199998Y1144966D01*
X1224997Y1251965D02*
X1222965Y1256030D01*
X1227029D01*
X1224997Y1251965D01*
X1203000Y1242968D02*
X1200968Y1247032D01*
X1205032D01*
X1203000Y1242968D01*
X1200000Y1271968D02*
X1197968Y1276032D01*
X1202032D01*
X1200000Y1271968D01*
X1150998Y1246965D02*
X1148966Y1251030D01*
X1153030D01*
X1150998Y1246965D01*
X1152666Y1254215D02*
X1150634Y1258279D01*
X1154698D01*
X1152666Y1254215D01*
X1178000Y1243968D02*
X1175968Y1248032D01*
X1180032D01*
X1178000Y1243968D01*
X1188000Y1242968D02*
X1185968Y1247032D01*
X1190032D01*
X1188000Y1242968D01*
X1022000Y1255968D02*
X1019968Y1260032D01*
X1024032D01*
X1022000Y1255968D01*
X1124000Y1253968D02*
X1121968Y1258032D01*
X1126032D01*
X1124000Y1253968D01*
X1091000Y1227968D02*
X1092016Y1228984D01*
X1093032D01*
X1092016Y1230000D01*
X1093032Y1231016D01*
X1092016D01*
X1091000Y1232032D01*
X1089984Y1231016D01*
X1088968D01*
X1089984Y1230000D01*
X1088968Y1228984D01*
X1089984D01*
X1091000Y1227968D01*
X1083250Y1225586D02*
X1084266Y1226602D01*
X1085282D01*
X1084266Y1227618D01*
X1085282Y1228634D01*
X1084266D01*
X1083250Y1229650D01*
X1082234Y1228634D01*
X1081218D01*
X1082234Y1227618D01*
X1081218Y1226602D01*
X1082234D01*
X1083250Y1225586D01*
X1134000Y1089968D02*
X1131968Y1094032D01*
X1136032D01*
X1134000Y1089968D01*
X1137000Y1232968D02*
X1134968Y1237032D01*
X1139032D01*
X1137000Y1232968D01*
X1080000Y1241968D02*
X1077968Y1246032D01*
X1082032D01*
X1080000Y1241968D01*
X1100000Y1228968D02*
X1097968Y1233032D01*
X1102032D01*
X1100000Y1228968D01*
X1107000Y1236968D02*
X1104968Y1241032D01*
X1109032D01*
X1107000Y1236968D01*
X1097998Y1159966D02*
X1095966Y1164030D01*
X1100030D01*
X1097998Y1159966D01*
X1210000Y1206393D02*
X1207968Y1210457D01*
X1212032D01*
X1210000Y1206393D01*
X1038000Y1242968D02*
X1035968Y1247032D01*
X1040032D01*
X1038000Y1242968D01*
X1036000Y1173968D02*
X1033968Y1178032D01*
X1038032D01*
X1036000Y1173968D01*
X1086000Y1149068D02*
X1083968Y1153132D01*
X1088032D01*
X1086000Y1149068D01*
X1084000Y1129968D02*
X1081968Y1134032D01*
X1086032D01*
X1084000Y1129968D01*
X1119000Y1182968D02*
X1116968Y1187032D01*
X1121032D01*
X1119000Y1182968D01*
X1138000Y1137968D02*
X1139016Y1138984D01*
X1140032D01*
X1139016Y1140000D01*
X1140032Y1141016D01*
X1139016D01*
X1138000Y1142032D01*
X1136984Y1141016D01*
X1135968D01*
X1136984Y1140000D01*
X1135968Y1138984D01*
X1136984D01*
X1138000Y1137968D01*
X1017000Y1029968D02*
X1014968Y1034032D01*
X1019032D01*
X1017000Y1029968D01*
X1253780Y1273188D02*
X1251748Y1277252D01*
X1255812D01*
X1253780Y1273188D01*
X1277997Y1253966D02*
X1275965Y1258029D01*
X1280029D01*
X1277997Y1253966D01*
X1246000Y1249968D02*
X1243968Y1254032D01*
X1248032D01*
X1246000Y1249968D01*
X1303000Y1269968D02*
X1300968Y1274032D01*
X1305032D01*
X1303000Y1269968D01*
X1311000Y1246968D02*
X1308968Y1251032D01*
X1313032D01*
X1311000Y1246968D01*
X1053192Y792776D02*
X1051160Y796840D01*
X1055224D01*
X1053192Y792776D01*
X1146000Y792968D02*
X1143968Y797032D01*
X1148032D01*
X1146000Y792968D01*
X1153998Y789966D02*
X1151966Y794030D01*
X1156030D01*
X1153998Y789966D01*
X1478000Y1026968D02*
X1475968Y1031032D01*
X1480032D01*
X1478000Y1026968D01*
X1117000Y970968D02*
X1118016Y971984D01*
X1119032D01*
X1118016Y973000D01*
X1119032Y974016D01*
X1118016D01*
X1117000Y975032D01*
X1115984Y974016D01*
X1114968D01*
X1115984Y973000D01*
X1114968Y971984D01*
X1115984D01*
X1117000Y970968D01*
X824000Y942968D02*
X821968Y947032D01*
X826032D01*
X824000Y942968D01*
X818000D02*
X815968Y947032D01*
X820032D01*
X818000Y942968D01*
X812000D02*
X809968Y947032D01*
X814032D01*
X812000Y942968D01*
X806000D02*
X803968Y947032D01*
X808032D01*
X806000Y942968D01*
X1175000Y787968D02*
X1172968Y792032D01*
X1177032D01*
X1175000Y787968D01*
X1016000Y790968D02*
X1013968Y795032D01*
X1018032D01*
X1016000Y790968D01*
X1028000D02*
X1025968Y795032D01*
X1030032D01*
X1028000Y790968D01*
X1044000Y791968D02*
X1041968Y796032D01*
X1046032D01*
X1044000Y791968D01*
X1453000Y884968D02*
X1450968Y889032D01*
X1455032D01*
X1453000Y884968D01*
X817000Y852968D02*
X814968Y857032D01*
X819032D01*
X817000Y852968D01*
X1443000Y1083968D02*
X1440968Y1088032D01*
X1445032D01*
X1443000Y1083968D01*
X1378000Y916968D02*
X1375968Y921032D01*
X1380032D01*
X1378000Y916968D01*
X1379000Y1210968D02*
X1376968Y1215032D01*
X1381032D01*
X1379000Y1210968D01*
X1109000Y1204968D02*
X1110016Y1205984D01*
X1111032D01*
X1110016Y1207000D01*
X1111032Y1208016D01*
X1110016D01*
X1109000Y1209032D01*
X1107984Y1208016D01*
X1106968D01*
X1107984Y1207000D01*
X1106968Y1205984D01*
X1107984D01*
X1109000Y1204968D01*
X998000Y1115968D02*
X995968Y1120032D01*
X1000032D01*
X998000Y1115968D01*
X997998Y1127966D02*
X995966Y1132030D01*
X1000030D01*
X997998Y1127966D01*
X998998Y1046966D02*
X996966Y1051030D01*
X1001030D01*
X998998Y1046966D01*
X1178000Y864968D02*
X1175968Y869032D01*
X1180032D01*
X1178000Y864968D01*
X1262000Y1244968D02*
X1259968Y1249032D01*
X1264032D01*
X1262000Y1244968D01*
X1271000Y1241968D02*
X1268968Y1246032D01*
X1273032D01*
X1271000Y1241968D01*
X1086998Y1158966D02*
X1084966Y1163030D01*
X1089030D01*
X1086998Y1158966D01*
X1200000Y1252968D02*
X1197968Y1257032D01*
X1202032D01*
X1200000Y1252968D01*
X1207000Y1166968D02*
X1204968Y1171032D01*
X1209032D01*
X1207000Y1166968D01*
X1056000Y1022968D02*
X1057016Y1023984D01*
X1058032D01*
X1057016Y1025000D01*
X1058032Y1026016D01*
X1057016D01*
X1056000Y1027032D01*
X1054984Y1026016D01*
X1053968D01*
X1054984Y1025000D01*
X1053968Y1023984D01*
X1054984D01*
X1056000Y1022968D01*
X1043000Y904968D02*
X1044016Y905984D01*
X1045032D01*
X1044016Y907000D01*
X1045032Y908016D01*
X1044016D01*
X1043000Y909032D01*
X1041984Y908016D01*
X1040968D01*
X1041984Y907000D01*
X1040968Y905984D01*
X1041984D01*
X1043000Y904968D01*
X1073000Y953968D02*
X1074016Y954984D01*
X1075032D01*
X1074016Y956000D01*
X1075032Y957016D01*
X1074016D01*
X1073000Y958032D01*
X1071984Y957016D01*
X1070968D01*
X1071984Y956000D01*
X1070968Y954984D01*
X1071984D01*
X1073000Y953968D01*
X1094000Y1128968D02*
X1091968Y1133032D01*
X1096032D01*
X1094000Y1128968D01*
X1002000Y971968D02*
X999968Y976032D01*
X1004032D01*
X1002000Y971968D01*
X1031000Y1035968D02*
X1028968Y1040032D01*
X1033032D01*
X1031000Y1035968D01*
X1320000Y972968D02*
X1317968Y977032D01*
X1322032D01*
X1320000Y972968D01*
X1300000Y1141968D02*
X1297968Y1146032D01*
X1302032D01*
X1300000Y1141968D01*
X1319000Y927968D02*
X1316968Y932032D01*
X1321032D01*
X1319000Y927968D01*
X1377000Y1196968D02*
X1378016Y1197984D01*
X1379032D01*
X1378016Y1199000D01*
X1379032Y1200016D01*
X1378016D01*
X1377000Y1201032D01*
X1375984Y1200016D01*
X1374968D01*
X1375984Y1199000D01*
X1374968Y1197984D01*
X1375984D01*
X1377000Y1196968D01*
X1343000Y1153968D02*
X1340968Y1158032D01*
X1345032D01*
X1343000Y1153968D01*
X1365000Y907968D02*
X1362968Y912032D01*
X1367032D01*
X1365000Y907968D01*
X1110000Y1175968D02*
X1107968Y1180032D01*
X1112032D01*
X1110000Y1175968D01*
X1473997Y926966D02*
X1475013Y927982D01*
X1476029D01*
X1475013Y928998D01*
X1476029Y930014D01*
X1475013D01*
X1473997Y931030D01*
X1472981Y930014D01*
X1471965D01*
X1472981Y928998D01*
X1471965Y927982D01*
X1472981D01*
X1473997Y926966D01*
X912000Y1241968D02*
X909968Y1246032D01*
X914032D01*
X912000Y1241968D01*
X939000Y1240968D02*
X936968Y1245032D01*
X941032D01*
X939000Y1240968D01*
X1432000Y1166968D02*
X1429968Y1171032D01*
X1434032D01*
X1432000Y1166968D01*
X1106000Y912968D02*
X1103968Y917032D01*
X1108032D01*
X1106000Y912968D01*
X1107000Y1116968D02*
X1104968Y1121032D01*
X1109032D01*
X1107000Y1116968D01*
X858000Y1273968D02*
X855968Y1278032D01*
X860032D01*
X858000Y1273968D01*
X845000Y1271968D02*
X842968Y1276032D01*
X847032D01*
X845000Y1271968D01*
X860000Y1243968D02*
X857968Y1248032D01*
X862032D01*
X860000Y1243968D01*
X843998Y1230965D02*
X841966Y1235030D01*
X846030D01*
X843998Y1230965D01*
X849000Y1221968D02*
X846968Y1226032D01*
X851032D01*
X849000Y1221968D01*
X1645000Y746968D02*
X1642968Y751032D01*
X1647032D01*
X1645000Y746968D01*
X1644000Y718968D02*
X1641968Y723032D01*
X1646032D01*
X1644000Y718968D01*
X1570000Y864968D02*
X1567968Y869032D01*
X1572032D01*
X1570000Y864968D01*
X1645000Y1226968D02*
X1642968Y1231032D01*
X1647032D01*
X1645000Y1226968D01*
Y1198968D02*
X1642968Y1203032D01*
X1647032D01*
X1645000Y1198968D01*
X1589000Y1177968D02*
X1586968Y1182032D01*
X1591032D01*
X1589000Y1177968D01*
X1387750Y1125218D02*
X1388766Y1126234D01*
X1389782D01*
X1388766Y1127250D01*
X1389782Y1128266D01*
X1388766D01*
X1387750Y1129282D01*
X1386734Y1128266D01*
X1385718D01*
X1386734Y1127250D01*
X1385718Y1126234D01*
X1386734D01*
X1387750Y1125218D01*
X1413000Y929468D02*
X1410968Y933532D01*
X1415032D01*
X1413000Y929468D01*
D193*
X1519682Y1289050D02*
G03*
X1519682Y1289050I-2032J0D01*
G01*
X1494282D02*
G03*
X1494282Y1289050I-2032J0D01*
G01*
X1468882D02*
G03*
X1468882Y1289050I-2032J0D01*
G01*
X1443482D02*
G03*
X1443482Y1289050I-2032J0D01*
G01*
X1418082D02*
G03*
X1418082Y1289050I-2032J0D01*
G01*
X1392682D02*
G03*
X1392682Y1289050I-2032J0D01*
G01*
X1367282D02*
G03*
X1367282Y1289050I-2032J0D01*
G01*
X1341882D02*
G03*
X1341882Y1289050I-2032J0D01*
G01*
X1316482D02*
G03*
X1316482Y1289050I-2032J0D01*
G01*
X1291082D02*
G03*
X1291082Y1289050I-2032J0D01*
G01*
X1265682D02*
G03*
X1265682Y1289050I-2032J0D01*
G01*
X1240282D02*
G03*
X1240282Y1289050I-2032J0D01*
G01*
X1214882D02*
G03*
X1214882Y1289050I-2032J0D01*
G01*
X1189482D02*
G03*
X1189482Y1289050I-2032J0D01*
G01*
X1164082D02*
G03*
X1164082Y1289050I-2032J0D01*
G01*
X1138682D02*
G03*
X1138682Y1289050I-2032J0D01*
G01*
X1113282D02*
G03*
X1113282Y1289050I-2032J0D01*
G01*
X1087882D02*
G03*
X1087882Y1289050I-2032J0D01*
G01*
X1062482D02*
G03*
X1062482Y1289050I-2032J0D01*
G01*
X1037082D02*
G03*
X1037082Y1289050I-2032J0D01*
G01*
X1011682D02*
G03*
X1011682Y1289050I-2032J0D01*
G01*
X986282D02*
G03*
X986282Y1289050I-2032J0D01*
G01*
X960882D02*
G03*
X960882Y1289050I-2032J0D01*
G01*
X1519682Y1263650D02*
G03*
X1519682Y1263650I-2032J0D01*
G01*
X1494282D02*
G03*
X1494282Y1263650I-2032J0D01*
G01*
X1468882D02*
G03*
X1468882Y1263650I-2032J0D01*
G01*
X1443482D02*
G03*
X1443482Y1263650I-2032J0D01*
G01*
X1418082D02*
G03*
X1418082Y1263650I-2032J0D01*
G01*
X1392682D02*
G03*
X1392682Y1263650I-2032J0D01*
G01*
X1367282D02*
G03*
X1367282Y1263650I-2032J0D01*
G01*
X1341882D02*
G03*
X1341882Y1263650I-2032J0D01*
G01*
X1316482D02*
G03*
X1316482Y1263650I-2032J0D01*
G01*
X1291082D02*
G03*
X1291082Y1263650I-2032J0D01*
G01*
X1265682D02*
G03*
X1265682Y1263650I-2032J0D01*
G01*
X1240282D02*
G03*
X1240282Y1263650I-2032J0D01*
G01*
X1214882D02*
G03*
X1214882Y1263650I-2032J0D01*
G01*
X1189482D02*
G03*
X1189482Y1263650I-2032J0D01*
G01*
X1164082D02*
G03*
X1164082Y1263650I-2032J0D01*
G01*
X1138682D02*
G03*
X1138682Y1263650I-2032J0D01*
G01*
X1113282D02*
G03*
X1113282Y1263650I-2032J0D01*
G01*
X1087882D02*
G03*
X1087882Y1263650I-2032J0D01*
G01*
X1062482D02*
G03*
X1062482Y1263650I-2032J0D01*
G01*
X1037082D02*
G03*
X1037082Y1263650I-2032J0D01*
G01*
X1011682D02*
G03*
X1011682Y1263650I-2032J0D01*
G01*
X986282D02*
G03*
X986282Y1263650I-2032J0D01*
G01*
X960882D02*
G03*
X960882Y1263650I-2032J0D01*
G01*
Y781050D02*
G03*
X960882Y781050I-2032J0D01*
G01*
X986282D02*
G03*
X986282Y781050I-2032J0D01*
G01*
X1011682D02*
G03*
X1011682Y781050I-2032J0D01*
G01*
X1037082D02*
G03*
X1037082Y781050I-2032J0D01*
G01*
X1062482D02*
G03*
X1062482Y781050I-2032J0D01*
G01*
X1087882D02*
G03*
X1087882Y781050I-2032J0D01*
G01*
X1113282D02*
G03*
X1113282Y781050I-2032J0D01*
G01*
X1138682D02*
G03*
X1138682Y781050I-2032J0D01*
G01*
X1164082D02*
G03*
X1164082Y781050I-2032J0D01*
G01*
X1189482D02*
G03*
X1189482Y781050I-2032J0D01*
G01*
X1214882D02*
G03*
X1214882Y781050I-2032J0D01*
G01*
X1240282D02*
G03*
X1240282Y781050I-2032J0D01*
G01*
X1265682D02*
G03*
X1265682Y781050I-2032J0D01*
G01*
X1291082D02*
G03*
X1291082Y781050I-2032J0D01*
G01*
X1316482D02*
G03*
X1316482Y781050I-2032J0D01*
G01*
X1341882D02*
G03*
X1341882Y781050I-2032J0D01*
G01*
X1367282D02*
G03*
X1367282Y781050I-2032J0D01*
G01*
X1392682D02*
G03*
X1392682Y781050I-2032J0D01*
G01*
X1418082D02*
G03*
X1418082Y781050I-2032J0D01*
G01*
X1443482D02*
G03*
X1443482Y781050I-2032J0D01*
G01*
X1468882D02*
G03*
X1468882Y781050I-2032J0D01*
G01*
X1494282D02*
G03*
X1494282Y781050I-2032J0D01*
G01*
X1519682D02*
G03*
X1519682Y781050I-2032J0D01*
G01*
X960882Y806450D02*
G03*
X960882Y806450I-2032J0D01*
G01*
X986282D02*
G03*
X986282Y806450I-2032J0D01*
G01*
X1011682D02*
G03*
X1011682Y806450I-2032J0D01*
G01*
X1037082D02*
G03*
X1037082Y806450I-2032J0D01*
G01*
X1062482D02*
G03*
X1062482Y806450I-2032J0D01*
G01*
X1087882D02*
G03*
X1087882Y806450I-2032J0D01*
G01*
X1113282D02*
G03*
X1113282Y806450I-2032J0D01*
G01*
X1138682D02*
G03*
X1138682Y806450I-2032J0D01*
G01*
X1164082D02*
G03*
X1164082Y806450I-2032J0D01*
G01*
X1189482D02*
G03*
X1189482Y806450I-2032J0D01*
G01*
X1214882D02*
G03*
X1214882Y806450I-2032J0D01*
G01*
X1240282D02*
G03*
X1240282Y806450I-2032J0D01*
G01*
X1265682D02*
G03*
X1265682Y806450I-2032J0D01*
G01*
X1291082D02*
G03*
X1291082Y806450I-2032J0D01*
G01*
X1316482D02*
G03*
X1316482Y806450I-2032J0D01*
G01*
X1341882D02*
G03*
X1341882Y806450I-2032J0D01*
G01*
X1367282D02*
G03*
X1367282Y806450I-2032J0D01*
G01*
X1392682D02*
G03*
X1392682Y806450I-2032J0D01*
G01*
X1418082D02*
G03*
X1418082Y806450I-2032J0D01*
G01*
X1443482D02*
G03*
X1443482Y806450I-2032J0D01*
G01*
X1468882D02*
G03*
X1468882Y806450I-2032J0D01*
G01*
X1494282D02*
G03*
X1494282Y806450I-2032J0D01*
G01*
X1519682D02*
G03*
X1519682Y806450I-2032J0D01*
G01*
M02*
