G04 Layer_Color=8388736*
%FSLAX44Y44*%
%MOMM*%
G71*
G01*
G75*
%ADD59C,0.3500*%
%ADD60C,0.1250*%
%ADD61C,0.2000*%
%ADD70C,0.1200*%
%ADD102R,0.6700X0.6700*%
%ADD103R,0.6700X0.6700*%
%ADD104R,4.2500X1.1500*%
%ADD105R,1.1500X4.2500*%
%ADD106R,3.9500X1.1500*%
%ADD107R,1.1500X3.9500*%
%ADD108R,0.9500X0.9500*%
%ADD109R,0.6000X0.7000*%
%ADD110R,0.7000X0.6000*%
%ADD111R,1.0500X0.8500*%
%ADD112R,1.4500X1.4500*%
%ADD113R,1.0500X1.7500*%
%ADD114R,1.0500X1.1500*%
%ADD115R,0.8500X1.0500*%
%ADD116R,1.5000X1.1000*%
%ADD117O,0.5490X1.6500*%
%ADD118O,1.6500X0.5490*%
%ADD119R,0.9120X1.1500*%
%ADD120R,0.8000X1.0500*%
%ADD121R,2.7500X1.1000*%
%ADD122O,1.7000X0.4000*%
%ADD123O,0.4000X1.7000*%
%ADD124R,0.8000X0.6500*%
%ADD125R,1.4200X0.8100*%
%ADD126R,1.1700X0.8100*%
%ADD127R,1.4500X1.4500*%
%ADD128R,1.7500X1.0500*%
%ADD129O,2.0500X0.7500*%
%ADD130R,0.9120X1.2930*%
%ADD131R,1.2930X0.9120*%
%ADD132O,1.5500X0.5000*%
%ADD133R,1.5100X1.6100*%
%ADD134R,0.9000X0.4000*%
%ADD135O,0.9500X0.4000*%
%ADD136O,0.4000X0.9500*%
%ADD137R,2.6000X2.6000*%
%ADD138R,0.9500X0.9500*%
%ADD139O,1.6500X0.5500*%
%ADD140R,1.1300X2.2300*%
%ADD141R,0.6500X0.8000*%
%ADD142R,1.0500X0.8000*%
%ADD143R,1.4200X0.9100*%
%ADD144R,0.7500X0.5000*%
%ADD145R,4.1000X1.6500*%
%ADD146R,4.4000X1.6500*%
%ADD147R,0.6500X1.1500*%
%ADD148R,2.7500X0.7500*%
%ADD149R,0.7500X1.6500*%
%ADD150C,0.7500*%
%ADD151R,3.9600X4.0600*%
%ADD152C,1.6740*%
%ADD153R,1.6740X1.6740*%
%ADD154C,1.5500*%
%ADD155R,1.5500X1.5500*%
G36*
X918069Y944982D02*
X916199D01*
Y945037D01*
X916440Y946370D01*
X916181Y946111D01*
X915884Y945871D01*
X915588Y945667D01*
X915273Y945500D01*
X914958Y945352D01*
X914644Y945222D01*
X914347Y945130D01*
X914051Y945037D01*
X913773Y944982D01*
X913514Y944926D01*
X913273Y944908D01*
X913070Y944871D01*
X912903D01*
X912792Y944852D01*
X912681D01*
X912292Y944871D01*
X911940Y944926D01*
X911626Y945000D01*
X911348Y945093D01*
X911126Y945167D01*
X910959Y945241D01*
X910848Y945296D01*
X910829Y945315D01*
X910811D01*
X910515Y945500D01*
X910274Y945704D01*
X910052Y945926D01*
X909885Y946130D01*
X909737Y946315D01*
X909626Y946463D01*
X909570Y946556D01*
X909552Y946593D01*
X909404Y946907D01*
X909292Y947241D01*
X909218Y947555D01*
X909163Y947852D01*
X909126Y948111D01*
X909107Y948315D01*
Y948389D01*
Y948444D01*
Y948481D01*
Y948500D01*
X909126Y948907D01*
X909144Y949092D01*
X909181Y949277D01*
X909200Y949426D01*
X909218Y949555D01*
X909237Y949629D01*
Y949666D01*
X910885Y957943D01*
X912774D01*
X912755Y957925D01*
X911163Y949944D01*
X911126Y949703D01*
X911088Y949481D01*
X911070Y949277D01*
X911051Y949111D01*
X911033Y948963D01*
Y948852D01*
Y948778D01*
Y948759D01*
X911051Y948389D01*
X911126Y948055D01*
X911218Y947778D01*
X911348Y947537D01*
X911459Y947352D01*
X911551Y947222D01*
X911626Y947148D01*
X911644Y947111D01*
X911903Y946926D01*
X912181Y946778D01*
X912459Y946685D01*
X912737Y946611D01*
X912996Y946574D01*
X913181Y946556D01*
X913255Y946537D01*
X913366D01*
X913755Y946556D01*
X913922Y946593D01*
X914088Y946611D01*
X914218Y946648D01*
X914329Y946667D01*
X914403Y946685D01*
X914421D01*
X914755Y946796D01*
X915051Y946944D01*
X915310Y947093D01*
X915533Y947259D01*
X915718Y947389D01*
X915866Y947500D01*
X915940Y947574D01*
X915977Y947611D01*
X916273Y947981D01*
X916532Y948370D01*
X916736Y948778D01*
X916884Y949148D01*
X916995Y949500D01*
X917051Y949648D01*
X917088Y949778D01*
X917106Y949870D01*
X917125Y949944D01*
X917143Y950000D01*
Y950018D01*
X918717Y957943D01*
X920643D01*
X918069Y944982D01*
D02*
G37*
G36*
X946640Y958091D02*
X947048Y958036D01*
X947400Y957962D01*
X947714Y957888D01*
X947974Y957795D01*
X948159Y957721D01*
X948233Y957684D01*
X948288Y957665D01*
X948307Y957647D01*
X948325D01*
X948659Y957443D01*
X948955Y957221D01*
X949233Y956980D01*
X949473Y956740D01*
X949659Y956517D01*
X949807Y956351D01*
X949862Y956277D01*
X949899Y956221D01*
X949936Y956203D01*
Y956184D01*
X949955Y956166D01*
X948529Y954962D01*
X948511Y955018D01*
X948307Y955277D01*
X948122Y955499D01*
X947937Y955684D01*
X947770Y955832D01*
X947622Y955944D01*
X947511Y956036D01*
X947437Y956073D01*
X947418Y956092D01*
X947196Y956203D01*
X946974Y956277D01*
X946733Y956351D01*
X946511Y956388D01*
X946307Y956406D01*
X946159Y956425D01*
X946011D01*
X945715Y956406D01*
X945418Y956369D01*
X945141Y956314D01*
X944881Y956240D01*
X944400Y956036D01*
X944178Y955925D01*
X943992Y955814D01*
X943807Y955684D01*
X943641Y955573D01*
X943511Y955481D01*
X943400Y955388D01*
X943307Y955295D01*
X943233Y955240D01*
X943196Y955203D01*
X943178Y955184D01*
X942919Y954888D01*
X942696Y954592D01*
X942511Y954277D01*
X942345Y953981D01*
X942215Y953721D01*
X942104Y953518D01*
X942067Y953444D01*
X942048Y953388D01*
X942030Y953351D01*
Y953333D01*
X941900Y953018D01*
X941789Y952685D01*
X941715Y952370D01*
X941622Y952092D01*
X941567Y951833D01*
X941530Y951629D01*
X941511Y951555D01*
X941493Y951518D01*
Y951481D01*
Y951462D01*
X941419Y951074D01*
X941382Y950722D01*
X941345Y950388D01*
X941308Y950111D01*
Y949889D01*
X941289Y949703D01*
Y949592D01*
Y949574D01*
Y949555D01*
X941308Y949277D01*
X941326Y949000D01*
X941437Y948537D01*
X941567Y948130D01*
X941733Y947796D01*
X941900Y947518D01*
X941974Y947426D01*
X942048Y947333D01*
X942104Y947278D01*
X942141Y947222D01*
X942159Y947204D01*
X942178Y947185D01*
X942474Y946963D01*
X942789Y946815D01*
X943104Y946704D01*
X943400Y946611D01*
X943659Y946574D01*
X943881Y946556D01*
X943956Y946537D01*
X944067D01*
X944400Y946556D01*
X944696Y946593D01*
X944974Y946648D01*
X945215Y946704D01*
X945400Y946759D01*
X945548Y946815D01*
X945640Y946852D01*
X945677Y946870D01*
X945955Y947019D01*
X946233Y947185D01*
X946474Y947370D01*
X946714Y947555D01*
X946900Y947722D01*
X947048Y947870D01*
X947140Y947963D01*
X947177Y948000D01*
X947196Y948018D01*
Y948000D01*
X948288Y946667D01*
X948270Y946648D01*
X947937Y946333D01*
X947585Y946074D01*
X947270Y945852D01*
X946955Y945648D01*
X946677Y945500D01*
X946474Y945408D01*
X946400Y945370D01*
X946344Y945333D01*
X946307Y945315D01*
X946289D01*
X945881Y945167D01*
X945455Y945056D01*
X945067Y944963D01*
X944715Y944908D01*
X944400Y944871D01*
X944270D01*
X944159Y944852D01*
X943956D01*
X943456Y944871D01*
X942993Y944945D01*
X942585Y945037D01*
X942215Y945130D01*
X941937Y945241D01*
X941808Y945278D01*
X941715Y945315D01*
X941641Y945352D01*
X941585Y945389D01*
X941548Y945408D01*
X941530D01*
X941178Y945630D01*
X940863Y945889D01*
X940585Y946167D01*
X940363Y946426D01*
X940178Y946648D01*
X940067Y946852D01*
X940012Y946926D01*
X939974Y946982D01*
X939956Y947000D01*
Y947019D01*
X939771Y947426D01*
X939641Y947852D01*
X939530Y948259D01*
X939474Y948648D01*
X939437Y949000D01*
X939419Y949129D01*
Y949259D01*
X939400Y949370D01*
Y949444D01*
Y949481D01*
Y949500D01*
X939419Y949870D01*
X939437Y950240D01*
X939474Y950574D01*
X939511Y950870D01*
X939548Y951129D01*
X939567Y951333D01*
X939586Y951407D01*
X939604Y951462D01*
Y951481D01*
Y951499D01*
X939734Y952074D01*
X939863Y952610D01*
X940030Y953111D01*
X940197Y953592D01*
X940400Y954018D01*
X940585Y954425D01*
X940771Y954796D01*
X940974Y955110D01*
X941160Y955406D01*
X941326Y955666D01*
X941493Y955869D01*
X941622Y956055D01*
X941733Y956184D01*
X941826Y956295D01*
X941882Y956351D01*
X941900Y956369D01*
X942233Y956684D01*
X942585Y956943D01*
X942937Y957184D01*
X943307Y957369D01*
X943659Y957536D01*
X944011Y957684D01*
X944363Y957795D01*
X944696Y957888D01*
X945011Y957962D01*
X945289Y958017D01*
X945548Y958054D01*
X945770Y958091D01*
X945955D01*
X946085Y958110D01*
X946196D01*
X946640Y958091D01*
D02*
G37*
G36*
X955010Y956647D02*
X955288Y956906D01*
X955565Y957129D01*
X955880Y957332D01*
X956176Y957499D01*
X956491Y957628D01*
X956806Y957758D01*
X957102Y957851D01*
X957399Y957925D01*
X957658Y957980D01*
X957917Y958036D01*
X958139Y958073D01*
X958324Y958091D01*
X958491Y958110D01*
X958713D01*
X959102Y958091D01*
X959454Y958036D01*
X959769Y957962D01*
X960046Y957888D01*
X960269Y957795D01*
X960435Y957721D01*
X960546Y957665D01*
X960583Y957647D01*
X960880Y957462D01*
X961139Y957258D01*
X961361Y957036D01*
X961528Y956832D01*
X961676Y956647D01*
X961787Y956480D01*
X961842Y956388D01*
X961861Y956369D01*
Y956351D01*
X962009Y956036D01*
X962120Y955703D01*
X962213Y955388D01*
X962268Y955092D01*
X962305Y954833D01*
X962324Y954629D01*
Y954555D01*
Y954499D01*
Y954462D01*
Y954444D01*
Y954240D01*
X962305Y954018D01*
X962287Y953814D01*
X962250Y953610D01*
X962231Y953425D01*
X962194Y953277D01*
X962176Y953185D01*
Y953148D01*
X960509Y944982D01*
X958639D01*
X960232Y952962D01*
X960287Y953240D01*
X960324Y953499D01*
X960343Y953703D01*
X960361Y953870D01*
X960380Y953999D01*
Y954092D01*
Y954147D01*
Y954166D01*
X960361Y954536D01*
X960287Y954870D01*
X960176Y955147D01*
X960065Y955388D01*
X959954Y955573D01*
X959843Y955703D01*
X959769Y955795D01*
X959750Y955814D01*
X959509Y956018D01*
X959232Y956166D01*
X958954Y956277D01*
X958676Y956351D01*
X958436Y956388D01*
X958250Y956425D01*
X958065D01*
X957676Y956406D01*
X957491Y956388D01*
X957325Y956351D01*
X957195Y956332D01*
X957084Y956295D01*
X957010Y956277D01*
X956991D01*
X956658Y956147D01*
X956362Y956018D01*
X956102Y955851D01*
X955880Y955684D01*
X955695Y955555D01*
X955547Y955425D01*
X955473Y955351D01*
X955436Y955314D01*
X955139Y954962D01*
X954880Y954555D01*
X954677Y954166D01*
X954510Y953777D01*
X954399Y953444D01*
X954343Y953296D01*
X954306Y953166D01*
X954288Y953055D01*
X954269Y952981D01*
X954251Y952925D01*
Y952907D01*
X952677Y944982D01*
X950788D01*
X954603Y963869D01*
X956473D01*
X955010Y956647D01*
D02*
G37*
G36*
X907570Y956369D02*
X898960Y946667D01*
X905774D01*
X905460Y944982D01*
X896331D01*
X896646Y946593D01*
X905219Y956277D01*
X898775D01*
Y956314D01*
X899108Y957943D01*
X907885D01*
X907570Y956369D01*
D02*
G37*
G36*
X934975Y944982D02*
X933105D01*
Y945037D01*
X935697Y957943D01*
X937567D01*
X934975Y944982D01*
D02*
G37*
G36*
X919921Y961517D02*
X918032D01*
X918514Y963869D01*
X920402D01*
X919921Y961517D01*
D02*
G37*
G36*
X938289D02*
X936401D01*
X936882Y963869D01*
X938771D01*
X938289Y961517D01*
D02*
G37*
G36*
X914884D02*
X912996D01*
X913477Y963869D01*
X915366D01*
X914884Y961517D01*
D02*
G37*
G36*
X930346Y958091D02*
X930642Y958054D01*
X930938Y957999D01*
X931198Y957925D01*
X931457Y957832D01*
X931697Y957721D01*
X931901Y957610D01*
X932105Y957499D01*
X932271Y957388D01*
X932420Y957277D01*
X932549Y957166D01*
X932660Y957073D01*
X932734Y956999D01*
X932790Y956943D01*
X932827Y956906D01*
X932846Y956888D01*
X932864Y956869D01*
X931327Y955518D01*
Y955536D01*
X931179Y955684D01*
X931049Y955832D01*
X930735Y956055D01*
X930438Y956203D01*
X930142Y956314D01*
X929883Y956388D01*
X929679Y956406D01*
X929605Y956425D01*
X929494D01*
X929179Y956406D01*
X928883Y956351D01*
X928605Y956277D01*
X928364Y956203D01*
X928161Y956129D01*
X927994Y956055D01*
X927902Y955999D01*
X927865Y955981D01*
X927587Y955795D01*
X927328Y955592D01*
X927105Y955388D01*
X926902Y955184D01*
X926754Y954999D01*
X926624Y954851D01*
X926550Y954758D01*
X926531Y954740D01*
Y954721D01*
X926346Y954407D01*
X926180Y954092D01*
X926050Y953796D01*
X925939Y953518D01*
X925865Y953259D01*
X925809Y953073D01*
X925791Y952999D01*
Y952944D01*
X925772Y952925D01*
Y952907D01*
X924198Y944982D01*
X922291D01*
X922328Y945037D01*
X924883Y957943D01*
X926754D01*
X926735Y957925D01*
X926457Y956462D01*
X926698Y956740D01*
X926957Y956980D01*
X927216Y957203D01*
X927457Y957369D01*
X927661Y957499D01*
X927846Y957610D01*
X927957Y957665D01*
X927976Y957684D01*
X927994D01*
X928346Y957832D01*
X928698Y957925D01*
X929031Y957999D01*
X929346Y958054D01*
X929624Y958091D01*
X929827Y958110D01*
X930013D01*
X930346Y958091D01*
D02*
G37*
G36*
X891368Y944982D02*
X885443D01*
X886906Y952296D01*
X882665D01*
X881203Y944982D01*
X875296D01*
X878148Y959147D01*
X873185D01*
X870352Y944982D01*
X864427D01*
X867278Y959147D01*
X853798D01*
X853280Y956555D01*
X861779D01*
X860927Y952296D01*
X852428D01*
X851909Y949703D01*
X860427D01*
X859464Y944982D01*
X845077D01*
X848873Y963869D01*
X884999D01*
X883499Y956555D01*
X887758D01*
X889239Y963869D01*
X895164D01*
X891368Y944982D01*
D02*
G37*
D59*
X1569595Y1047819D02*
X1573096Y1051319D01*
X1484845Y1117650D02*
Y1129669D01*
X1569252Y1019681D02*
X1578000Y1010933D01*
X1569595Y1042819D02*
Y1047819D01*
X1484750Y1130350D02*
Y1142801D01*
X1564250Y1132000D02*
X1575000D01*
X1573096Y1051319D02*
Y1056096D01*
X1581922Y1064921D01*
Y1091078D01*
X1569252Y1019681D02*
Y1024681D01*
X1578000Y980000D02*
Y1010933D01*
X1560000Y1132000D02*
X1564250D01*
X1575000D02*
X1583000Y1140000D01*
D60*
X1554311Y1034625D02*
X1564550Y1044864D01*
X1580000Y932000D02*
X1611000D01*
X1471981Y934875D02*
X1491058D01*
X1504000Y1040000D02*
X1509375Y1034625D01*
X1504000Y1027843D02*
X1508657Y1032500D01*
X1497827Y1021671D02*
X1504000Y1027843D01*
X1497827Y1013440D02*
Y1021671D01*
X1581000Y927000D02*
X1583000Y925000D01*
X1565753Y921181D02*
X1579181D01*
X1536118Y970006D02*
X1537668Y971556D01*
X1515883Y970006D02*
X1536118D01*
X1562877Y918306D02*
X1565753Y921181D01*
X1464000Y939000D02*
X1468125Y934875D01*
X1429125Y924125D02*
Y928125D01*
X1428000Y923000D02*
X1429125Y924125D01*
X1412250Y1134250D02*
Y1152750D01*
X1458000Y1105377D02*
Y1110000D01*
Y1105377D02*
X1461252Y1102125D01*
X1471875D01*
X1509127Y1016000D02*
X1514377Y1021250D01*
X1509127Y976761D02*
X1515883Y970006D01*
X1620250Y865250D02*
X1645000D01*
X1616000Y861000D02*
X1620250Y865250D01*
X1613536Y861000D02*
X1616000D01*
X1610500Y864035D02*
X1613536Y861000D01*
X1574000Y891469D02*
X1576969Y888500D01*
X1574000Y891469D02*
Y899000D01*
X1570319Y902681D02*
X1574000Y899000D01*
X1569252Y902681D02*
X1570319D01*
X1620250Y844750D02*
X1645000D01*
X1605500Y859500D02*
X1620250Y844750D01*
X1605500Y859500D02*
Y876964D01*
X1576969Y888500D02*
X1601035D01*
X1610500Y879035D01*
Y864035D02*
Y879035D01*
X1598965Y883500D02*
X1605500Y876964D01*
X1574898Y883500D02*
X1598965D01*
X1572398Y886000D02*
X1574898Y883500D01*
X1559626Y886000D02*
X1572398D01*
X1554877Y863378D02*
Y879091D01*
X1545000Y853500D02*
X1554877Y863378D01*
X1620250Y745250D02*
X1645000D01*
X1577191Y737875D02*
X1612875D01*
X1541875Y773191D02*
X1577191Y737875D01*
X1541875Y773191D02*
Y843875D01*
X1545000Y847000D01*
Y853500D01*
X1620250Y724750D02*
X1644000D01*
X1612875Y732125D02*
X1620250Y724750D01*
X1612875Y737875D02*
X1620250Y745250D01*
X1574809Y732125D02*
X1612875D01*
X1536125Y770809D02*
X1574809Y732125D01*
X1536125Y770809D02*
Y842000D01*
X1527625Y850500D02*
X1536125Y842000D01*
X1526500Y850500D02*
X1527625D01*
X1603965Y1190500D02*
X1605500Y1192036D01*
Y1212036D01*
X1618714Y1225250D01*
X1645000D01*
X1571000Y1167500D02*
Y1169000D01*
X1620250Y1204750D02*
X1645250D01*
X1614000Y1211000D02*
X1620250Y1204750D01*
X1611536Y1211000D02*
X1614000D01*
X1610500Y1209965D02*
X1611536Y1211000D01*
X1610500Y1189965D02*
Y1209965D01*
X1606035Y1185500D02*
X1610500Y1189965D01*
X1583035Y1185500D02*
X1606035D01*
X1575750Y1178214D02*
X1583035Y1185500D01*
X1575750Y1174932D02*
Y1178214D01*
X1580965Y1190500D02*
X1603965D01*
X1487725Y1117650D02*
X1493250Y1112125D01*
X1452000Y1116000D02*
X1458000Y1110000D01*
X1452000Y1116000D02*
Y1129250D01*
X1449375Y1131875D02*
X1452000Y1129250D01*
X1414625Y1131875D02*
X1449375D01*
X1412250Y1134250D02*
X1414625Y1131875D01*
X1493250Y1100500D02*
Y1112125D01*
X1471875Y1102125D02*
X1473974Y1100026D01*
X1446000Y1101000D02*
Y1109000D01*
Y1101000D02*
X1452500Y1094500D01*
X1493750D01*
X1390750Y1121500D02*
X1433500D01*
X1446000Y1109000D01*
X1387750Y1124500D02*
X1390750Y1121500D01*
X1387750Y1124500D02*
Y1127250D01*
X1499750Y1044250D02*
Y1088500D01*
X1493750Y1094500D02*
X1499750Y1088500D01*
Y1044250D02*
X1504000Y1040000D01*
X1565753Y921181D02*
Y926248D01*
X1537668Y971556D02*
X1547444D01*
X1550500Y936433D02*
Y968500D01*
X1547444Y971556D02*
X1550500Y968500D01*
X1509127Y976761D02*
Y1016000D01*
X1554343Y1032500D02*
X1564207Y1022636D01*
X1451500Y945000D02*
Y962500D01*
X1462256Y973256D01*
X1421875Y932809D02*
X1432566Y943500D01*
X1450000D02*
X1451500Y945000D01*
X1432566Y943500D02*
X1446000D01*
X1450000D01*
X1419625Y928375D02*
X1421875Y930625D01*
Y932809D01*
X1419625Y925625D02*
Y928375D01*
X1417000Y923000D02*
X1419625Y925625D01*
X1417000Y913500D02*
Y923000D01*
X1429125Y928125D02*
X1433250Y932250D01*
X1444500D01*
X1446000Y933750D01*
Y933750D02*
X1451250Y939000D01*
X1464000D01*
X1446000Y933750D02*
Y943500D01*
X1468125Y934875D02*
X1471981D01*
X1468500Y931394D02*
X1471981Y934875D01*
X1468500Y925750D02*
Y931394D01*
Y925750D02*
X1470127Y924123D01*
X1491058Y934875D02*
X1496226Y929707D01*
X1476750Y920000D02*
X1478444Y918306D01*
X1476750Y920000D02*
Y922500D01*
X1496226Y918330D02*
Y929707D01*
X1478444Y918306D02*
X1496250D01*
X1562877D01*
X1560750Y931250D02*
X1565753Y926248D01*
X1550500Y936433D02*
X1555683Y931250D01*
X1560750D01*
X1618300Y947300D02*
X1645250D01*
X1614000Y943000D02*
X1618300Y947300D01*
X1611000Y932000D02*
X1614000Y935000D01*
Y943000D01*
X1583000Y925000D02*
Y929000D01*
X1580000Y932000D02*
X1583000Y929000D01*
Y990500D02*
X1592500Y1000000D01*
X1623750D01*
X1626450Y1002700D01*
D61*
X847000Y930000D02*
Y939997D01*
X851998D01*
X853664Y938331D01*
Y934998D01*
X851998Y933332D01*
X847000D01*
X850332D02*
X853664Y930000D01*
X858663D02*
X861995D01*
X863661Y931666D01*
Y934998D01*
X861995Y936665D01*
X858663D01*
X856997Y934998D01*
Y931666D01*
X858663Y930000D01*
X873658Y936665D02*
X868660D01*
X866994Y934998D01*
Y931666D01*
X868660Y930000D01*
X873658D01*
X876990D02*
Y939997D01*
Y933332D02*
X881989Y936665D01*
X876990Y933332D02*
X881989Y930000D01*
X891985D02*
X888653D01*
X886987Y931666D01*
Y934998D01*
X888653Y936665D01*
X891985D01*
X893652Y934998D01*
Y933332D01*
X886987D01*
X898650Y938331D02*
Y936665D01*
X896984D01*
X900316D01*
X898650D01*
Y931666D01*
X900316Y930000D01*
X905314Y939997D02*
Y930000D01*
X911979D01*
X916977D02*
X920310D01*
X921976Y931666D01*
Y934998D01*
X920310Y936665D01*
X916977D01*
X915311Y934998D01*
Y931666D01*
X916977Y930000D01*
X928640Y926668D02*
X930306D01*
X931973Y928334D01*
Y936665D01*
X926974D01*
X925308Y934998D01*
Y931666D01*
X926974Y930000D01*
X931973D01*
X938637Y926668D02*
X940303D01*
X941969Y928334D01*
Y936665D01*
X936971D01*
X935305Y934998D01*
Y931666D01*
X936971Y930000D01*
X941969D01*
X950300D02*
X946968D01*
X945302Y931666D01*
Y934998D01*
X946968Y936665D01*
X950300D01*
X951966Y934998D01*
Y933332D01*
X945302D01*
X955298Y936665D02*
Y930000D01*
Y933332D01*
X956965Y934998D01*
X958631Y936665D01*
X960297D01*
X1664000Y1307000D02*
Y1324750D01*
X1620250Y1345250D02*
X1664000D01*
X1531318Y1187500D02*
X1536500D01*
X1663750Y827250D02*
Y844750D01*
X1632000Y888400D02*
X1646000D01*
X1632000Y882096D02*
Y888400D01*
X1663000Y1187000D02*
Y1204750D01*
X1645250Y1187300D02*
Y1204750D01*
X1663750Y827250D02*
X1664000Y827000D01*
X1663750Y877750D02*
X1664000Y878000D01*
X1646000Y1349000D02*
Y1361950D01*
X1647000Y1324750D02*
X1664000D01*
X1543000Y1212000D02*
Y1220000D01*
X1542000Y1211000D02*
X1543000Y1212000D01*
X1534000Y1178000D02*
Y1180750D01*
Y1178000D02*
X1536750Y1180750D01*
X1534000D02*
X1536750D01*
X1527154D02*
X1534000D01*
X1532980Y1224458D02*
Y1285102D01*
X1586398Y1338520D01*
X1613520D01*
X1543000Y1220000D02*
X1549500D01*
X1646000Y888400D02*
X1646000Y888400D01*
X1622700Y1067300D02*
X1645250D01*
X1557000Y1135000D02*
X1560000Y1132000D01*
X1552000Y1135000D02*
X1557000D01*
X1552000Y1134000D02*
Y1135000D01*
X1549000Y1131000D02*
X1552000Y1134000D01*
X1549000Y1121722D02*
Y1131000D01*
Y1121722D02*
X1551861Y1118862D01*
X1589489Y1330511D02*
X1615489D01*
X1621250Y1324750D02*
X1646750D01*
X1647000Y1321000D02*
Y1324750D01*
Y1309050D02*
Y1321000D01*
X1540020Y1281042D02*
X1589489Y1330511D01*
X1541562Y1220000D02*
X1543000D01*
X1540020Y1221542D02*
X1541562Y1220000D01*
X1540020Y1221542D02*
Y1281042D01*
X1534000Y1190000D02*
X1536500Y1187500D01*
X1615489Y1330511D02*
X1621250Y1324750D01*
X1645000Y827550D02*
X1645250Y827300D01*
X1645000Y844750D02*
X1663750D01*
X1645000Y882450D02*
X1645250Y882700D01*
X1645000Y865250D02*
X1663750D01*
X1645000Y841000D02*
Y844750D01*
Y827550D02*
Y841000D01*
Y869000D02*
Y882450D01*
Y865250D02*
Y869000D01*
X1663750Y865250D02*
Y877750D01*
X1645000Y749000D02*
Y762450D01*
X1644000Y708550D02*
X1645250Y707300D01*
X1644000Y708550D02*
Y721000D01*
X1645000Y745250D02*
Y749000D01*
Y745250D02*
X1664000D01*
Y761000D01*
X1644000Y721000D02*
Y724750D01*
X1664000D01*
Y714000D02*
Y724750D01*
X1613520Y1338520D02*
X1620250Y1345250D01*
X1664000D02*
Y1355000D01*
X1656300Y1242700D02*
X1664000Y1235000D01*
Y1225250D02*
Y1235000D01*
X1645000Y1225250D02*
X1664000D01*
X1645000Y1229000D02*
Y1242450D01*
Y1225250D02*
Y1229000D01*
X1645250Y1204750D02*
X1663000D01*
Y1187000D02*
X1664000Y1186000D01*
X1588000Y1179000D02*
X1589000Y1180000D01*
X1531250Y1212772D02*
X1540020Y1221542D01*
X1531250Y1208500D02*
Y1212772D01*
X1522500Y1206750D02*
X1529500D01*
X1531250Y1208500D01*
X1513750Y1194154D02*
X1527154Y1180750D01*
X1526772Y1218250D02*
X1532980Y1224458D01*
X1511750Y1217000D02*
X1513000Y1218250D01*
X1526772D01*
X1511750Y1207750D02*
Y1217000D01*
Y1207750D02*
X1513750Y1205750D01*
Y1194154D02*
Y1205750D01*
X1560000Y1132000D02*
X1560250Y1132250D01*
X1484750Y1142801D02*
X1492051D01*
X1498000Y1148750D01*
X1558000D01*
X1564250Y1142500D01*
Y1132000D02*
Y1142500D01*
X1583000Y1078000D02*
X1592000Y1069000D01*
X1621000D01*
X1622700Y1067300D01*
X1583000Y1140000D02*
X1612000D01*
X1629300Y1122700D01*
D70*
X897784Y916332D02*
X899450Y913000D01*
X901116Y916332D01*
X902783Y913000D02*
X904449D01*
X903616D01*
Y917998D01*
X902783Y917165D01*
X906948Y913000D02*
Y913833D01*
X907781D01*
Y913000D01*
X906948D01*
X911113D02*
X912779D01*
X911946D01*
Y917998D01*
X911113Y917165D01*
X933606Y913000D02*
X930274D01*
X933606Y916332D01*
Y917165D01*
X932773Y917998D01*
X931107D01*
X930274Y917165D01*
X935272D02*
X936105Y917998D01*
X937771D01*
X938604Y917165D01*
Y913833D01*
X937771Y913000D01*
X936105D01*
X935272Y913833D01*
Y917165D01*
X940270Y913000D02*
X941936D01*
X941103D01*
Y917998D01*
X940270Y917165D01*
X944436Y917998D02*
X947768D01*
Y917165D01*
X944436Y913833D01*
Y913000D01*
X949434Y915499D02*
X952766D01*
X954432Y917165D02*
X955265Y917998D01*
X956932D01*
X957765Y917165D01*
Y913833D01*
X956932Y913000D01*
X955265D01*
X954432Y913833D01*
Y917165D01*
X962763Y917998D02*
X959431D01*
Y915499D01*
X961097Y916332D01*
X961930D01*
X962763Y915499D01*
Y913833D01*
X961930Y913000D01*
X960264D01*
X959431Y913833D01*
D102*
X872900Y891000D02*
D03*
X880900D02*
D03*
X1054000Y1045000D02*
D03*
X1062000D02*
D03*
X1054000Y1054000D02*
D03*
X1062000D02*
D03*
X1398000Y1129000D02*
D03*
X1406000D02*
D03*
X1403000Y1045000D02*
D03*
X1395000D02*
D03*
X1463000Y890000D02*
D03*
X1471000D02*
D03*
X1468000Y1178000D02*
D03*
X1476000D02*
D03*
X1562000Y1188000D02*
D03*
X1570000D02*
D03*
X1430000Y856000D02*
D03*
X1438000D02*
D03*
X1431000Y1024000D02*
D03*
X1423000D02*
D03*
X1449000Y1070000D02*
D03*
X1457000D02*
D03*
X1479000Y1038000D02*
D03*
X1487000D02*
D03*
X1454000Y1082000D02*
D03*
X1462000D02*
D03*
X1452753Y1020181D02*
D03*
X1460753D02*
D03*
X1144000Y1193000D02*
D03*
X1136000D02*
D03*
X1054000Y841000D02*
D03*
X1062000D02*
D03*
X1054000Y829000D02*
D03*
X1062000D02*
D03*
X1415000Y978000D02*
D03*
X1407000D02*
D03*
X1247000Y1005000D02*
D03*
X1255000D02*
D03*
X1268000Y1006000D02*
D03*
X1276000D02*
D03*
X1387000Y915000D02*
D03*
X1395000D02*
D03*
X878900Y867000D02*
D03*
X886900D02*
D03*
X1288000Y1052000D02*
D03*
X1296000D02*
D03*
X1211000Y1021000D02*
D03*
X1203000D02*
D03*
X1304000Y938000D02*
D03*
X1312000D02*
D03*
X1310000Y985000D02*
D03*
X1302000D02*
D03*
X1312000Y1130000D02*
D03*
X1304000D02*
D03*
X1460753Y986181D02*
D03*
X1452753D02*
D03*
X930000Y1246000D02*
D03*
X922000D02*
D03*
X1090000Y1063000D02*
D03*
X1082000D02*
D03*
X1066000D02*
D03*
X1074000D02*
D03*
D103*
X833900Y904000D02*
D03*
Y912000D02*
D03*
X899900Y860000D02*
D03*
Y852000D02*
D03*
X1273000Y952000D02*
D03*
Y944000D02*
D03*
X1147000Y924000D02*
D03*
Y916000D02*
D03*
Y1140000D02*
D03*
Y1132000D02*
D03*
X1167000Y883000D02*
D03*
Y875000D02*
D03*
Y1103000D02*
D03*
Y1095000D02*
D03*
X1560000Y880000D02*
D03*
Y872000D02*
D03*
X1444000Y915000D02*
D03*
Y907000D02*
D03*
X1147000Y1104000D02*
D03*
Y1096000D02*
D03*
Y884000D02*
D03*
Y876000D02*
D03*
X1167000Y1140000D02*
D03*
Y1132000D02*
D03*
Y924000D02*
D03*
Y916000D02*
D03*
X1147000Y894000D02*
D03*
Y902000D02*
D03*
Y1114000D02*
D03*
Y1122000D02*
D03*
X1148000Y1151000D02*
D03*
Y1159000D02*
D03*
X1142000Y976000D02*
D03*
Y984000D02*
D03*
X1449000Y1049000D02*
D03*
Y1057000D02*
D03*
X1161000Y1185000D02*
D03*
Y1193000D02*
D03*
Y969000D02*
D03*
Y977000D02*
D03*
X1166000Y1149000D02*
D03*
Y1157000D02*
D03*
X1167000Y933000D02*
D03*
Y941000D02*
D03*
X1167000Y1114000D02*
D03*
Y1122000D02*
D03*
Y894000D02*
D03*
Y902000D02*
D03*
X1148000Y934000D02*
D03*
Y942000D02*
D03*
X1053000Y1209000D02*
D03*
Y1217000D02*
D03*
X1065000Y1213000D02*
D03*
Y1221000D02*
D03*
X1029000Y1209000D02*
D03*
Y1217000D02*
D03*
X1053000Y993000D02*
D03*
Y1001000D02*
D03*
X1065000Y997000D02*
D03*
Y1005000D02*
D03*
X1029000Y993000D02*
D03*
Y1001000D02*
D03*
X1231000Y1036000D02*
D03*
Y1044000D02*
D03*
X1384500Y1197343D02*
D03*
Y1205343D02*
D03*
X1448000Y999000D02*
D03*
Y1007000D02*
D03*
X1273343Y1115500D02*
D03*
Y1123500D02*
D03*
X1142000Y1000000D02*
D03*
Y992000D02*
D03*
X1141000Y1212000D02*
D03*
Y1204000D02*
D03*
X1432250Y1160000D02*
D03*
Y1152000D02*
D03*
X1302000Y1084000D02*
D03*
Y1076000D02*
D03*
X1161000Y1214000D02*
D03*
Y1206000D02*
D03*
Y998000D02*
D03*
Y990000D02*
D03*
X856900Y893000D02*
D03*
Y901000D02*
D03*
X1077000Y1209000D02*
D03*
Y1217000D02*
D03*
Y993000D02*
D03*
Y1001000D02*
D03*
X1089000Y1209000D02*
D03*
Y1217000D02*
D03*
Y993000D02*
D03*
Y1001000D02*
D03*
X1101000Y1209000D02*
D03*
Y1217000D02*
D03*
Y993000D02*
D03*
Y1001000D02*
D03*
X1045000Y1055000D02*
D03*
Y1063000D02*
D03*
X1041000Y839000D02*
D03*
Y847000D02*
D03*
X1087000Y850000D02*
D03*
Y842000D02*
D03*
X1075000Y850000D02*
D03*
Y842000D02*
D03*
X1033000Y1066000D02*
D03*
Y1058000D02*
D03*
X1029000Y850000D02*
D03*
Y842000D02*
D03*
X1000000Y1094000D02*
D03*
Y1086000D02*
D03*
X999000Y878000D02*
D03*
Y870000D02*
D03*
X778000Y811000D02*
D03*
Y819000D02*
D03*
X808000Y845000D02*
D03*
Y853000D02*
D03*
D104*
X1567500Y838000D02*
D03*
Y1232000D02*
D03*
X1204500D02*
D03*
Y838000D02*
D03*
D105*
X1583000Y853500D02*
D03*
Y1216500D02*
D03*
X1189000D02*
D03*
Y853500D02*
D03*
D106*
X1506000Y838000D02*
D03*
X1446000D02*
D03*
X1386000D02*
D03*
X1326000D02*
D03*
X1266000D02*
D03*
X1266000Y1232000D02*
D03*
X1326000D02*
D03*
X1386000D02*
D03*
X1446000D02*
D03*
X1506000D02*
D03*
D107*
X1583000Y1155000D02*
D03*
Y1095000D02*
D03*
Y1035000D02*
D03*
Y975000D02*
D03*
Y915000D02*
D03*
X1189000Y1155000D02*
D03*
Y1095000D02*
D03*
Y1035000D02*
D03*
Y975000D02*
D03*
Y915000D02*
D03*
D108*
X933000Y1292000D02*
D03*
Y1276000D02*
D03*
X919000D02*
D03*
Y1292000D02*
D03*
D109*
X997500Y1165000D02*
D03*
X988500D02*
D03*
X1401500Y1022000D02*
D03*
X1410500D02*
D03*
X1384500D02*
D03*
X1393500D02*
D03*
X1571000Y1167500D02*
D03*
X1562000D02*
D03*
X1569252Y902681D02*
D03*
X1560253D02*
D03*
X1549500Y1220000D02*
D03*
X1558500D02*
D03*
X1571000Y1177500D02*
D03*
X1562000D02*
D03*
X1569252Y892681D02*
D03*
X1560253D02*
D03*
X1526000Y1212500D02*
D03*
X1517000D02*
D03*
X1444500Y1037000D02*
D03*
X1453500D02*
D03*
X862500Y1262000D02*
D03*
X853500D02*
D03*
X1119500Y1207000D02*
D03*
X1128500D02*
D03*
X1119500Y1216000D02*
D03*
X1128500D02*
D03*
X1119500Y991000D02*
D03*
X1128500D02*
D03*
X1119500Y1000000D02*
D03*
X1128500D02*
D03*
X1228500Y1021000D02*
D03*
X1219500D02*
D03*
X951500Y1234000D02*
D03*
X942500D02*
D03*
X942500Y1214000D02*
D03*
X951500D02*
D03*
X942500Y1225000D02*
D03*
X951500D02*
D03*
X890500Y848000D02*
D03*
X881500D02*
D03*
X888400Y878000D02*
D03*
X879400D02*
D03*
X826500Y784000D02*
D03*
X835500D02*
D03*
X1202500Y1010000D02*
D03*
X1211500D02*
D03*
X890400Y857000D02*
D03*
X881400D02*
D03*
X997500Y949000D02*
D03*
X988500D02*
D03*
X1406500Y1137000D02*
D03*
X1397500D02*
D03*
X1413500Y1207000D02*
D03*
X1404500D02*
D03*
X1406500Y858000D02*
D03*
X1415500D02*
D03*
X1569252Y912681D02*
D03*
X1560253D02*
D03*
X1562000Y1157500D02*
D03*
X1571000D02*
D03*
X1514252Y858681D02*
D03*
X1505253D02*
D03*
X1471500Y919000D02*
D03*
X1462500D02*
D03*
X1487752Y857681D02*
D03*
X1496752D02*
D03*
X847500Y812000D02*
D03*
X838500D02*
D03*
X1122500Y831000D02*
D03*
X1131500D02*
D03*
D110*
X1283000Y943500D02*
D03*
Y952500D02*
D03*
X933000Y1263500D02*
D03*
Y1254500D02*
D03*
X1177000Y884500D02*
D03*
Y875500D02*
D03*
X1176000Y1104500D02*
D03*
Y1095500D02*
D03*
Y902500D02*
D03*
Y893500D02*
D03*
Y1122500D02*
D03*
Y1113500D02*
D03*
Y941500D02*
D03*
Y932500D02*
D03*
Y1157500D02*
D03*
Y1148500D02*
D03*
X1171000Y977500D02*
D03*
Y968500D02*
D03*
Y1193500D02*
D03*
Y1184500D02*
D03*
X1157000Y884500D02*
D03*
Y875500D02*
D03*
Y1104500D02*
D03*
Y1095500D02*
D03*
Y902500D02*
D03*
Y893500D02*
D03*
Y1122500D02*
D03*
Y1113500D02*
D03*
X1151000Y975500D02*
D03*
Y966500D02*
D03*
X1152000Y1191500D02*
D03*
Y1182500D02*
D03*
X919000Y1263500D02*
D03*
Y1254500D02*
D03*
X1176000Y1131500D02*
D03*
Y1140500D02*
D03*
X1157000Y1131500D02*
D03*
Y1140500D02*
D03*
X1434000Y1035500D02*
D03*
Y1044500D02*
D03*
X1539000Y850500D02*
D03*
Y859500D02*
D03*
X1157000Y1147500D02*
D03*
Y1156500D02*
D03*
Y932500D02*
D03*
Y941500D02*
D03*
X1526500Y850500D02*
D03*
Y859500D02*
D03*
X1157000Y915500D02*
D03*
Y924500D02*
D03*
X1176000Y915500D02*
D03*
Y924500D02*
D03*
X1171000Y989500D02*
D03*
Y998500D02*
D03*
Y1205500D02*
D03*
Y1214500D02*
D03*
X1151000Y991500D02*
D03*
Y1000500D02*
D03*
X1151000Y1208000D02*
D03*
Y1217000D02*
D03*
X1363000Y956500D02*
D03*
Y965500D02*
D03*
X1362000Y1099500D02*
D03*
Y1108500D02*
D03*
X833000Y884500D02*
D03*
Y893500D02*
D03*
X845900Y909500D02*
D03*
Y900500D02*
D03*
X841900Y893500D02*
D03*
Y884500D02*
D03*
X1241000Y1032500D02*
D03*
Y1023500D02*
D03*
X1284000Y1110500D02*
D03*
Y1101500D02*
D03*
X891000Y1243500D02*
D03*
Y1252500D02*
D03*
X900000Y1243500D02*
D03*
Y1252500D02*
D03*
X1544000Y1080500D02*
D03*
Y1089500D02*
D03*
X1543752Y985681D02*
D03*
Y994681D02*
D03*
X1443000Y895500D02*
D03*
Y886500D02*
D03*
X1388000Y1173500D02*
D03*
Y1182500D02*
D03*
X1396000Y886500D02*
D03*
Y877500D02*
D03*
X1569000Y1219500D02*
D03*
Y1210500D02*
D03*
X1471500Y1197000D02*
D03*
Y1188000D02*
D03*
X1474000Y1155500D02*
D03*
Y1164500D02*
D03*
X799000Y844500D02*
D03*
Y853500D02*
D03*
D111*
X873000Y1262000D02*
D03*
Y1248000D02*
D03*
X1266343Y1091500D02*
D03*
Y1105500D02*
D03*
X1240000Y927000D02*
D03*
Y941000D02*
D03*
X1256343Y1126500D02*
D03*
Y1140500D02*
D03*
X1256000Y941000D02*
D03*
Y927000D02*
D03*
X1266000Y976000D02*
D03*
Y962000D02*
D03*
X1240343Y1140500D02*
D03*
Y1126500D02*
D03*
X826000Y826000D02*
D03*
Y812000D02*
D03*
D112*
X847000Y1207800D02*
D03*
D113*
X833050Y1232200D02*
D03*
X860950D02*
D03*
D114*
X872500Y1275999D02*
D03*
X831500D02*
D03*
X872500Y1291999D02*
D03*
X831500D02*
D03*
D115*
X1073000Y1232000D02*
D03*
X1059000D02*
D03*
X1073000Y1015000D02*
D03*
X1059000D02*
D03*
X1598000Y990000D02*
D03*
X1612000D02*
D03*
X1598000Y1081000D02*
D03*
X1612000D02*
D03*
X775000Y851000D02*
D03*
X789000D02*
D03*
D116*
X1041000Y1011000D02*
D03*
Y995000D02*
D03*
Y1227000D02*
D03*
Y1211000D02*
D03*
D117*
X1410250Y872750D02*
D03*
X1416750D02*
D03*
X1423250D02*
D03*
X1429750D02*
D03*
X1410250Y913250D02*
D03*
X1416750D02*
D03*
X1423250D02*
D03*
X1429750D02*
D03*
X1418750Y1193250D02*
D03*
X1412250D02*
D03*
X1405750D02*
D03*
X1399250D02*
D03*
X1418750Y1152750D02*
D03*
X1412250D02*
D03*
X1405750D02*
D03*
X1399250D02*
D03*
D118*
X1253750Y1038750D02*
D03*
Y1032250D02*
D03*
Y1025750D02*
D03*
Y1019250D02*
D03*
X1294250Y1038750D02*
D03*
Y1032250D02*
D03*
Y1025750D02*
D03*
Y1019250D02*
D03*
X1303750Y1114750D02*
D03*
Y1108250D02*
D03*
Y1101750D02*
D03*
Y1095250D02*
D03*
X1344250Y1114750D02*
D03*
Y1108250D02*
D03*
Y1101750D02*
D03*
Y1095250D02*
D03*
X1303250Y970750D02*
D03*
Y964250D02*
D03*
Y957750D02*
D03*
Y951250D02*
D03*
X1343750Y970750D02*
D03*
Y964250D02*
D03*
Y957750D02*
D03*
Y951250D02*
D03*
D119*
X1557673Y990070D02*
D03*
Y962290D02*
D03*
X1567833Y962290D02*
D03*
Y990070D02*
D03*
X1557921Y1079111D02*
D03*
Y1106891D02*
D03*
X1568081Y1106891D02*
D03*
Y1079111D02*
D03*
D120*
X1566500Y1065000D02*
D03*
X1557000D02*
D03*
X1547500D02*
D03*
Y1041000D02*
D03*
X1566500D02*
D03*
D121*
X911900Y788000D02*
D03*
Y816000D02*
D03*
X813900Y934000D02*
D03*
Y906000D02*
D03*
D122*
X1123250Y884500D02*
D03*
Y889500D02*
D03*
Y894500D02*
D03*
Y899500D02*
D03*
Y904500D02*
D03*
Y909500D02*
D03*
Y914500D02*
D03*
Y919500D02*
D03*
Y924500D02*
D03*
Y929500D02*
D03*
Y934500D02*
D03*
Y939500D02*
D03*
Y944500D02*
D03*
Y949500D02*
D03*
Y954500D02*
D03*
Y959500D02*
D03*
X1012750D02*
D03*
Y954500D02*
D03*
Y949500D02*
D03*
Y944500D02*
D03*
Y939500D02*
D03*
Y934500D02*
D03*
Y929500D02*
D03*
Y924500D02*
D03*
Y919500D02*
D03*
Y914500D02*
D03*
Y909500D02*
D03*
Y904500D02*
D03*
Y899500D02*
D03*
Y894500D02*
D03*
Y889500D02*
D03*
Y884500D02*
D03*
X1123250Y1100500D02*
D03*
Y1105500D02*
D03*
Y1110500D02*
D03*
Y1115500D02*
D03*
Y1120500D02*
D03*
Y1125500D02*
D03*
Y1130500D02*
D03*
Y1135500D02*
D03*
Y1140500D02*
D03*
Y1145500D02*
D03*
Y1150500D02*
D03*
Y1155500D02*
D03*
Y1160500D02*
D03*
Y1165500D02*
D03*
Y1170500D02*
D03*
Y1175500D02*
D03*
X1012750D02*
D03*
Y1170500D02*
D03*
Y1165500D02*
D03*
Y1160500D02*
D03*
Y1155500D02*
D03*
Y1150500D02*
D03*
Y1145500D02*
D03*
Y1140500D02*
D03*
Y1135500D02*
D03*
Y1130500D02*
D03*
Y1125500D02*
D03*
Y1120500D02*
D03*
Y1115500D02*
D03*
Y1110500D02*
D03*
Y1105500D02*
D03*
Y1100500D02*
D03*
D123*
X1105500Y977250D02*
D03*
X1100500D02*
D03*
X1095500D02*
D03*
X1090500D02*
D03*
X1085500D02*
D03*
X1080500D02*
D03*
X1075500D02*
D03*
X1070500D02*
D03*
X1065500D02*
D03*
X1060500D02*
D03*
X1055500D02*
D03*
X1050500D02*
D03*
X1045500D02*
D03*
X1040500D02*
D03*
X1035500D02*
D03*
X1030500D02*
D03*
Y866750D02*
D03*
X1035500D02*
D03*
X1040500D02*
D03*
X1045500D02*
D03*
X1050500D02*
D03*
X1055500D02*
D03*
X1060500D02*
D03*
X1065500D02*
D03*
X1070500D02*
D03*
X1075500D02*
D03*
X1080500D02*
D03*
X1085500D02*
D03*
X1090500D02*
D03*
X1095500D02*
D03*
X1100500D02*
D03*
X1105500D02*
D03*
Y1193250D02*
D03*
X1100500D02*
D03*
X1095500D02*
D03*
X1090500D02*
D03*
X1085500D02*
D03*
X1080500D02*
D03*
X1075500D02*
D03*
X1070500D02*
D03*
X1065500D02*
D03*
X1060500D02*
D03*
X1055500D02*
D03*
X1050500D02*
D03*
X1045500D02*
D03*
X1040500D02*
D03*
X1035500D02*
D03*
X1030500D02*
D03*
Y1082750D02*
D03*
X1035500D02*
D03*
X1040500D02*
D03*
X1045500D02*
D03*
X1050500D02*
D03*
X1055500D02*
D03*
X1060500D02*
D03*
X1065500D02*
D03*
X1070500D02*
D03*
X1075500D02*
D03*
X1080500D02*
D03*
X1085500D02*
D03*
X1090500D02*
D03*
X1095500D02*
D03*
X1100500D02*
D03*
X1105500D02*
D03*
D124*
X1438250Y950500D02*
D03*
Y937500D02*
D03*
X1457750Y944000D02*
D03*
D125*
X1486299Y949268D02*
D03*
Y936734D02*
D03*
Y924201D02*
D03*
Y961801D02*
D03*
X1484299Y1130267D02*
D03*
Y1117734D02*
D03*
Y1105201D02*
D03*
Y1142801D02*
D03*
D126*
X1540949Y961801D02*
D03*
Y949268D02*
D03*
Y936734D02*
D03*
Y924201D02*
D03*
X1538949Y1142801D02*
D03*
Y1130267D02*
D03*
Y1117734D02*
D03*
Y1105201D02*
D03*
D127*
X1249200Y976000D02*
D03*
X1249543Y1091500D02*
D03*
D128*
X1224800Y962050D02*
D03*
Y989950D02*
D03*
X1225143Y1077550D02*
D03*
Y1105450D02*
D03*
D129*
X1479252Y1016231D02*
D03*
Y1003531D02*
D03*
Y990831D02*
D03*
Y978131D02*
D03*
X1526252Y1016231D02*
D03*
Y1003531D02*
D03*
Y990831D02*
D03*
Y978131D02*
D03*
X1479500Y1089050D02*
D03*
Y1076350D02*
D03*
Y1063650D02*
D03*
Y1050950D02*
D03*
X1526500Y1089050D02*
D03*
Y1076350D02*
D03*
Y1063650D02*
D03*
Y1050950D02*
D03*
D130*
X813900Y891750D02*
D03*
Y868250D02*
D03*
D131*
X865250Y816000D02*
D03*
X888750D02*
D03*
D132*
X1547000Y1158500D02*
D03*
Y1165000D02*
D03*
Y1171500D02*
D03*
Y1178000D02*
D03*
Y1184500D02*
D03*
Y1191000D02*
D03*
Y1197500D02*
D03*
X1491000Y1158500D02*
D03*
Y1165000D02*
D03*
Y1171500D02*
D03*
Y1178000D02*
D03*
Y1184500D02*
D03*
Y1191000D02*
D03*
Y1197500D02*
D03*
X1543000Y870500D02*
D03*
Y877000D02*
D03*
Y883500D02*
D03*
Y890000D02*
D03*
Y896500D02*
D03*
Y903000D02*
D03*
Y909500D02*
D03*
X1487000Y870500D02*
D03*
Y877000D02*
D03*
Y883500D02*
D03*
Y890000D02*
D03*
Y896500D02*
D03*
Y903000D02*
D03*
Y909500D02*
D03*
D133*
X915000Y1228000D02*
D03*
D134*
X900000Y1235500D02*
D03*
Y1230500D02*
D03*
Y1225500D02*
D03*
Y1220500D02*
D03*
X930000D02*
D03*
Y1225500D02*
D03*
Y1230500D02*
D03*
Y1235500D02*
D03*
D135*
X827900Y868500D02*
D03*
Y863500D02*
D03*
Y858500D02*
D03*
Y853500D02*
D03*
Y848500D02*
D03*
Y843500D02*
D03*
X865900D02*
D03*
Y848500D02*
D03*
Y853500D02*
D03*
Y858500D02*
D03*
Y863500D02*
D03*
Y868500D02*
D03*
D136*
X834400Y837000D02*
D03*
X839400D02*
D03*
X844400D02*
D03*
X849400D02*
D03*
X854400D02*
D03*
X859400D02*
D03*
Y875000D02*
D03*
X854400D02*
D03*
X849400D02*
D03*
X844400D02*
D03*
X839400D02*
D03*
X834400D02*
D03*
D137*
X846900Y856000D02*
D03*
D138*
X794000Y784000D02*
D03*
X810000D02*
D03*
D139*
X1431250Y990250D02*
D03*
Y996750D02*
D03*
Y1003250D02*
D03*
Y1009750D02*
D03*
X1390750Y990250D02*
D03*
Y996750D02*
D03*
Y1003250D02*
D03*
Y1009750D02*
D03*
X1433250Y1057250D02*
D03*
Y1063750D02*
D03*
Y1070250D02*
D03*
Y1076750D02*
D03*
X1392750Y1057250D02*
D03*
Y1063750D02*
D03*
Y1070250D02*
D03*
Y1076750D02*
D03*
D140*
X886100Y794000D02*
D03*
X865900D02*
D03*
X796000Y870000D02*
D03*
X775800D02*
D03*
D141*
X1458500Y1125750D02*
D03*
X1445500D02*
D03*
X1452000Y1106250D02*
D03*
D142*
X1545253Y1024681D02*
D03*
Y1015181D02*
D03*
Y1005681D02*
D03*
X1569252D02*
D03*
Y1024681D02*
D03*
D143*
X915100Y1182350D02*
D03*
Y1169650D02*
D03*
X838900D02*
D03*
Y1182350D02*
D03*
D144*
X1207750Y1041000D02*
D03*
Y1036000D02*
D03*
Y1031000D02*
D03*
X1222250D02*
D03*
Y1041000D02*
D03*
D145*
X1645250Y762700D02*
D03*
Y707300D02*
D03*
Y1362700D02*
D03*
Y1307300D02*
D03*
Y1122700D02*
D03*
Y1067300D02*
D03*
Y1002700D02*
D03*
Y947300D02*
D03*
Y882700D02*
D03*
Y827300D02*
D03*
Y1242700D02*
D03*
Y1187300D02*
D03*
D146*
X1643750Y735000D02*
D03*
Y1335000D02*
D03*
Y1095000D02*
D03*
Y975000D02*
D03*
Y855000D02*
D03*
Y1215000D02*
D03*
D147*
X1605000Y976000D02*
D03*
Y944000D02*
D03*
Y1096000D02*
D03*
Y1128000D02*
D03*
D148*
Y960000D02*
D03*
Y1112000D02*
D03*
D149*
X801000Y828500D02*
D03*
X810500Y809500D02*
D03*
X791500D02*
D03*
D150*
X1556000Y1127000D02*
D03*
X1565000Y937000D02*
D03*
X1555000Y1142000D02*
D03*
X1556750Y924500D02*
D03*
X1426000Y1127000D02*
D03*
X1385000Y902000D02*
D03*
X1460000Y1048000D02*
D03*
Y997000D02*
D03*
Y1060000D02*
D03*
Y1009000D02*
D03*
X1396000Y1206000D02*
D03*
X1397000Y858000D02*
D03*
X1270343Y1134500D02*
D03*
X1270000Y933000D02*
D03*
X1266000Y1079000D02*
D03*
X1277000Y987000D02*
D03*
X878000Y1208000D02*
D03*
X845000Y794000D02*
D03*
X1466500Y1147500D02*
D03*
X1477253Y857681D02*
D03*
X1471000Y1205000D02*
D03*
X1454000Y920000D02*
D03*
D151*
X1519899Y943001D02*
D03*
X1517899Y1124001D02*
D03*
D152*
X1517650Y1289050D02*
D03*
X1492250D02*
D03*
X1466850D02*
D03*
X1441450D02*
D03*
X1416050D02*
D03*
X1390650D02*
D03*
X1365250D02*
D03*
X1339850D02*
D03*
X1314450D02*
D03*
X1289050D02*
D03*
X1263650D02*
D03*
X1238250D02*
D03*
X1212850D02*
D03*
X1187450D02*
D03*
X1162050D02*
D03*
X1136650D02*
D03*
X1111250D02*
D03*
X1085850D02*
D03*
X1060450D02*
D03*
X1035050D02*
D03*
X1009650D02*
D03*
X984250D02*
D03*
X958850D02*
D03*
X1517650Y1263650D02*
D03*
X1492250D02*
D03*
X1466850D02*
D03*
X1441450D02*
D03*
X1416050D02*
D03*
X1390650D02*
D03*
X1365250D02*
D03*
X1339850D02*
D03*
X1314450D02*
D03*
X1289050D02*
D03*
X1263650D02*
D03*
X1238250D02*
D03*
X1212850D02*
D03*
X1187450D02*
D03*
X1162050D02*
D03*
X1136650D02*
D03*
X1111250D02*
D03*
X1085850D02*
D03*
X1060450D02*
D03*
X1035050D02*
D03*
X1009650D02*
D03*
X984250D02*
D03*
Y781050D02*
D03*
X1009650D02*
D03*
X1035050D02*
D03*
X1060450D02*
D03*
X1085850D02*
D03*
X1111250D02*
D03*
X1136650D02*
D03*
X1162050D02*
D03*
X1187450D02*
D03*
X1212850D02*
D03*
X1238250D02*
D03*
X1263650D02*
D03*
X1289050D02*
D03*
X1314450D02*
D03*
X1339850D02*
D03*
X1365250D02*
D03*
X1390650D02*
D03*
X1416050D02*
D03*
X1441450D02*
D03*
X1466850D02*
D03*
X1492250D02*
D03*
X1517650D02*
D03*
X958850Y806450D02*
D03*
X984250D02*
D03*
X1009650D02*
D03*
X1035050D02*
D03*
X1060450D02*
D03*
X1085850D02*
D03*
X1111250D02*
D03*
X1136650D02*
D03*
X1162050D02*
D03*
X1187450D02*
D03*
X1212850D02*
D03*
X1238250D02*
D03*
X1263650D02*
D03*
X1289050D02*
D03*
X1314450D02*
D03*
X1339850D02*
D03*
X1365250D02*
D03*
X1390650D02*
D03*
X1416050D02*
D03*
X1441450D02*
D03*
X1466850D02*
D03*
X1492250D02*
D03*
X1517650D02*
D03*
D153*
X958850Y1263650D02*
D03*
Y781050D02*
D03*
D154*
X980000Y984600D02*
D03*
Y1010000D02*
D03*
Y1035400D02*
D03*
Y1086200D02*
D03*
Y1111600D02*
D03*
Y1060800D02*
D03*
D155*
Y1137000D02*
D03*
M02*
