G04 Layer_Physical_Order=5*
G04 Layer_Color=16737945*
%FSLAX44Y44*%
%MOMM*%
G71*
G01*
G75*
%ADD19C,0.6000*%
%ADD77C,0.2000*%
%ADD78C,1.0000*%
%ADD79C,0.3500*%
%ADD80C,0.5000*%
%ADD92C,1.5240*%
%ADD93R,1.5240X1.5240*%
%ADD94C,0.4500*%
G36*
X1106868Y1271436D02*
X1106777Y1271398D01*
X1104924Y1269976D01*
X1103502Y1268123D01*
X1102608Y1265965D01*
X1102303Y1263650D01*
X1102608Y1261335D01*
X1103502Y1259177D01*
X1104924Y1257324D01*
X1106777Y1255902D01*
X1108066Y1255368D01*
X1107814Y1254098D01*
X1089286D01*
X1089034Y1255368D01*
X1090323Y1255902D01*
X1092176Y1257324D01*
X1093598Y1259177D01*
X1094492Y1261335D01*
X1094797Y1263650D01*
X1094492Y1265965D01*
X1093598Y1268123D01*
X1092176Y1269976D01*
X1090323Y1271398D01*
X1090232Y1271436D01*
X1090484Y1272706D01*
X1106616D01*
X1106868Y1271436D01*
D02*
G37*
G36*
X1056068D02*
X1055977Y1271398D01*
X1054124Y1269976D01*
X1052702Y1268123D01*
X1051808Y1265965D01*
X1051504Y1263650D01*
X1051808Y1261335D01*
X1052702Y1259177D01*
X1054124Y1257324D01*
X1055977Y1255902D01*
X1057266Y1255368D01*
X1057014Y1254098D01*
X1041775D01*
X1041710Y1254085D01*
X1041644Y1254096D01*
X1040737Y1253891D01*
X1039824Y1253710D01*
X1039769Y1253673D01*
X1039703Y1253658D01*
X1038944Y1253122D01*
X1038170Y1252605D01*
X1038133Y1252549D01*
X1038079Y1252510D01*
X1037582Y1251724D01*
X1037065Y1250951D01*
X1037052Y1250885D01*
X1037017Y1250829D01*
X1036743Y1250116D01*
X1036368Y1249944D01*
X1035101Y1250758D01*
X1035098Y1250767D01*
Y1254710D01*
X1037365Y1255008D01*
X1039523Y1255902D01*
X1041376Y1257324D01*
X1042798Y1259177D01*
X1043692Y1261335D01*
X1043997Y1263650D01*
X1043692Y1265965D01*
X1042798Y1268123D01*
X1041376Y1269976D01*
X1039523Y1271398D01*
X1039432Y1271436D01*
X1039684Y1272706D01*
X1055816D01*
X1056068Y1271436D01*
D02*
G37*
G36*
X1081468D02*
X1081377Y1271398D01*
X1079524Y1269976D01*
X1078102Y1268123D01*
X1077208Y1265965D01*
X1076904Y1263650D01*
X1077208Y1261335D01*
X1078102Y1259177D01*
X1079524Y1257324D01*
X1081377Y1255902D01*
X1082666Y1255368D01*
X1082453Y1254098D01*
X1082205Y1254049D01*
X1081953Y1254073D01*
X1081236Y1253856D01*
X1080502Y1253710D01*
X1080292Y1253569D01*
X1080050Y1253496D01*
X1080000Y1253455D01*
X1079950Y1253496D01*
X1079708Y1253569D01*
X1079498Y1253710D01*
X1078764Y1253856D01*
X1078047Y1254073D01*
X1077795Y1254049D01*
X1077547Y1254098D01*
X1063886D01*
X1063634Y1255368D01*
X1064923Y1255902D01*
X1066776Y1257324D01*
X1068198Y1259177D01*
X1069092Y1261335D01*
X1069397Y1263650D01*
X1069092Y1265965D01*
X1068198Y1268123D01*
X1066776Y1269976D01*
X1064923Y1271398D01*
X1064832Y1271436D01*
X1065084Y1272706D01*
X1081216D01*
X1081468Y1271436D01*
D02*
G37*
G36*
X831924Y1304942D02*
X831937Y1304944D01*
X831950Y1304941D01*
X1030000D01*
Y1296355D01*
X1028724Y1295376D01*
X1027302Y1293523D01*
X1026408Y1291366D01*
X1026104Y1289050D01*
X1026408Y1286734D01*
X1027302Y1284577D01*
X1028724Y1282724D01*
X1030000Y1281745D01*
Y1277294D01*
X1026000D01*
X1025122Y1277119D01*
X1024378Y1276622D01*
X1020378Y1272622D01*
X1019881Y1271878D01*
X1019706Y1271000D01*
Y1264953D01*
X1018436Y1264870D01*
X1018292Y1265965D01*
X1017398Y1268123D01*
X1015976Y1269976D01*
X1014123Y1271398D01*
X1011965Y1272292D01*
X1009650Y1272597D01*
X1007335Y1272292D01*
X1005177Y1271398D01*
X1003324Y1269976D01*
X1001902Y1268123D01*
X1001008Y1265965D01*
X1000704Y1263650D01*
X1001008Y1261335D01*
X1001902Y1259177D01*
X1003324Y1257324D01*
X1005177Y1255902D01*
X1007335Y1255008D01*
X1009650Y1254704D01*
X1011965Y1255008D01*
X1014123Y1255902D01*
X1015976Y1257324D01*
X1016462Y1257957D01*
X1017755Y1257556D01*
X1017997Y1256342D01*
X1018936Y1254936D01*
X1020342Y1253997D01*
X1022000Y1253667D01*
X1023658Y1253997D01*
X1025064Y1254936D01*
X1026003Y1256342D01*
X1026333Y1258000D01*
X1026331Y1258011D01*
X1026482Y1258159D01*
X1028173Y1258041D01*
X1028724Y1257324D01*
X1030000Y1256345D01*
Y1249775D01*
X1028730Y1249287D01*
X1027658Y1250003D01*
X1026000Y1250333D01*
X1024342Y1250003D01*
X1022936Y1249064D01*
X1021997Y1247658D01*
X1021667Y1246000D01*
X1021997Y1244342D01*
X1022936Y1242936D01*
X1024342Y1241997D01*
X1026000Y1241667D01*
X1027658Y1241997D01*
X1028730Y1242713D01*
X1030000Y1242225D01*
Y1148599D01*
X1028730Y1148214D01*
X1028523Y1148523D01*
X1027366Y1149297D01*
X1026000Y1149569D01*
X1024634Y1149297D01*
X1023477Y1148523D01*
X1022703Y1147366D01*
X1022431Y1146000D01*
X1022703Y1144634D01*
X1023477Y1143477D01*
X1024634Y1142703D01*
X1026000Y1142431D01*
X1027366Y1142703D01*
X1028523Y1143477D01*
X1028730Y1143786D01*
X1030000Y1143401D01*
Y1110065D01*
X1028730Y1109023D01*
X1028500Y1109069D01*
X1027134Y1108797D01*
X1025976Y1108024D01*
X1025203Y1106866D01*
X1024931Y1105500D01*
X1025203Y1104135D01*
X1025976Y1102977D01*
X1027134Y1102203D01*
X1028500Y1101932D01*
X1028730Y1101977D01*
X1030000Y1100935D01*
Y1042134D01*
X1029342Y1042003D01*
X1027936Y1041064D01*
X1026997Y1039658D01*
X1026667Y1038000D01*
X1026997Y1036342D01*
X1027936Y1034936D01*
X1029342Y1033997D01*
X1030000Y1033866D01*
Y1022059D01*
X1028267D01*
X1020595Y1029731D01*
X1021003Y1030342D01*
X1021333Y1032000D01*
X1021003Y1033658D01*
X1020064Y1035064D01*
X1018658Y1036003D01*
X1017000Y1036333D01*
X1015342Y1036003D01*
X1013936Y1035064D01*
X1012997Y1033658D01*
X1012667Y1032000D01*
X1012997Y1030342D01*
X1013936Y1028936D01*
X1013957Y1028922D01*
X1014174Y1027830D01*
X1014837Y1026837D01*
X1024837Y1016837D01*
X1024837Y1016837D01*
X1025829Y1016174D01*
X1027000Y1015941D01*
X1030000D01*
Y920371D01*
X1029018Y919565D01*
X1029000Y919569D01*
X1027634Y919297D01*
X1026477Y918523D01*
X1025703Y917366D01*
X1025431Y916000D01*
X1025703Y914634D01*
X1026477Y913477D01*
X1027295Y912930D01*
X1027486Y911591D01*
X1027477Y911523D01*
X1026703Y910366D01*
X1026431Y909000D01*
X1026703Y907634D01*
X1027477Y906477D01*
X1028634Y905703D01*
X1030000Y905431D01*
Y838407D01*
X1028659Y837067D01*
X1028342Y837003D01*
X1026936Y836064D01*
X1025997Y834658D01*
X1025667Y833000D01*
X1025997Y831342D01*
X1026936Y829936D01*
X1028342Y828997D01*
X1030000Y828667D01*
Y813755D01*
X1028724Y812776D01*
X1027302Y810923D01*
X1026408Y808765D01*
X1026104Y806450D01*
X1026408Y804135D01*
X1027302Y801977D01*
X1028724Y800124D01*
X1029752Y799335D01*
X1029757Y797995D01*
X1028730Y797188D01*
X1028000Y797333D01*
X1026342Y797003D01*
X1024936Y796064D01*
X1023997Y794658D01*
X1023667Y793000D01*
X1023997Y791342D01*
X1024119Y791158D01*
X1023585Y790131D01*
X1022281Y789964D01*
X1020153Y792092D01*
X1020333Y793000D01*
X1020003Y794658D01*
X1019064Y796064D01*
X1017658Y797003D01*
X1016000Y797333D01*
X1014342Y797003D01*
X1012936Y796064D01*
X1011997Y794658D01*
X1011667Y793000D01*
X1011997Y791342D01*
X1012315Y790865D01*
X1012284Y790760D01*
X1011534Y789749D01*
X1009650Y789996D01*
X1007335Y789692D01*
X1005177Y788798D01*
X1003324Y787376D01*
X1001902Y785523D01*
X1001008Y783365D01*
X1000704Y781050D01*
X1001008Y778735D01*
X1001902Y776577D01*
X1003324Y774724D01*
X1005177Y773302D01*
X1007335Y772408D01*
X1009650Y772104D01*
X1011965Y772408D01*
X1014123Y773302D01*
X1015976Y774724D01*
X1017398Y776577D01*
X1018292Y778735D01*
X1018366Y779298D01*
X1019636Y779215D01*
Y775070D01*
X1019810Y774192D01*
X1020308Y773448D01*
X1027427Y766329D01*
X1027425Y766239D01*
X1027031Y765059D01*
X970000Y765059D01*
Y825667D01*
X971658Y825997D01*
X973000Y826893D01*
X974342Y825997D01*
X976000Y825667D01*
X977658Y825997D01*
X979064Y826936D01*
X980003Y828342D01*
X980333Y830000D01*
X980003Y831658D01*
X979064Y833064D01*
X977658Y834003D01*
X976000Y834333D01*
X974342Y834003D01*
X973000Y833107D01*
X971658Y834003D01*
X970000Y834333D01*
Y878628D01*
X989000D01*
X991439Y879113D01*
X993506Y880494D01*
X993783Y880909D01*
X995000Y880667D01*
X996658Y880997D01*
X997763Y881735D01*
X999092Y880847D01*
X1000750Y880517D01*
X1002408Y880847D01*
X1003814Y881786D01*
X1004753Y883192D01*
X1005083Y884850D01*
X1004753Y886508D01*
X1003814Y887914D01*
X1002408Y888853D01*
X1000750Y889183D01*
X999092Y888853D01*
X997987Y888115D01*
X996658Y889003D01*
X995000Y889333D01*
X993783Y889091D01*
X993506Y889506D01*
X991439Y890887D01*
X989000Y891373D01*
X971640D01*
X970000Y893012D01*
Y1150000D01*
X968129D01*
X968026Y1150520D01*
X967363Y1151513D01*
X966370Y1152176D01*
X965200Y1152409D01*
X831850Y1152409D01*
X831850Y1152409D01*
X831849Y1152409D01*
X830900Y1152409D01*
X829037Y1152779D01*
X827282Y1153505D01*
X825704Y1154560D01*
X824361Y1155903D01*
X823305Y1157483D01*
X822579Y1159237D01*
X822208Y1161100D01*
X822209Y1162049D01*
X822209Y1162050D01*
X822209Y1162050D01*
X822208Y1295388D01*
X822215Y1296327D01*
X822600Y1298187D01*
X823340Y1299936D01*
X824407Y1301507D01*
X825761Y1302839D01*
X827348Y1303882D01*
X829109Y1304594D01*
X830975Y1304949D01*
X831924Y1304942D01*
D02*
G37*
G36*
X774698Y968491D02*
X774699Y968492D01*
X774700Y968491D01*
X964902Y968491D01*
Y899769D01*
X963729Y899283D01*
X929506Y933506D01*
X927439Y934887D01*
X925000Y935372D01*
X807000D01*
X807000Y935372D01*
X804561Y934887D01*
X802494Y933506D01*
X788494Y919506D01*
X787113Y917439D01*
X786628Y915000D01*
Y906000D01*
Y900000D01*
X787113Y897561D01*
X788494Y895494D01*
X790561Y894113D01*
X793000Y893627D01*
X795439Y894113D01*
X797506Y895494D01*
X798887Y897561D01*
X799372Y900000D01*
Y912360D01*
X809640Y922627D01*
X922360D01*
X964494Y880494D01*
X965182Y880034D01*
X964902Y878628D01*
Y835449D01*
X964000Y834333D01*
X962342Y834003D01*
X961000Y833107D01*
X959658Y834003D01*
X958000Y834333D01*
X956342Y834003D01*
X955000Y833107D01*
X953658Y834003D01*
X952000Y834333D01*
X950342Y834003D01*
X948936Y833064D01*
X947997Y831658D01*
X947667Y830000D01*
X947997Y828342D01*
X948936Y826936D01*
X950342Y825997D01*
X952000Y825667D01*
X953658Y825997D01*
X955000Y826893D01*
X956342Y825997D01*
X958000Y825667D01*
X959658Y825997D01*
X961000Y826893D01*
X962342Y825997D01*
X964000Y825667D01*
X964902Y824551D01*
Y816056D01*
X963632Y815466D01*
X961502Y816348D01*
X959600Y816599D01*
Y806450D01*
Y796301D01*
X961502Y796552D01*
X963632Y797434D01*
X964902Y796844D01*
Y791210D01*
X959600D01*
Y781050D01*
Y770890D01*
X964902D01*
Y765059D01*
X963706Y765059D01*
X812794D01*
X809665Y765059D01*
X803461Y765875D01*
X797416Y767495D01*
X791635Y769890D01*
X786215Y773019D01*
X781251Y776829D01*
X776826Y781255D01*
X773016Y786220D01*
X769888Y791639D01*
X767494Y797421D01*
X765874Y803466D01*
X765058Y809670D01*
X765059Y812800D01*
X765059Y812800D01*
X765059Y812800D01*
X765059Y958850D01*
X765058Y958851D01*
X765059Y958852D01*
X765058Y959802D01*
X765427Y961665D01*
X766153Y963420D01*
X767208Y964999D01*
X768551Y966342D01*
X770130Y967397D01*
X771885Y968123D01*
X773748Y968492D01*
X774698Y968491D01*
D02*
G37*
G36*
X1202500Y1230000D02*
X1592500D01*
X1592792Y1184086D01*
X1591527Y1183423D01*
X1590658Y1184003D01*
X1589000Y1184333D01*
X1587342Y1184003D01*
X1585936Y1183064D01*
X1584997Y1181658D01*
X1584667Y1180000D01*
X1584997Y1178342D01*
X1585936Y1176936D01*
X1587342Y1175997D01*
X1589000Y1175667D01*
X1590658Y1175997D01*
X1591570Y1176606D01*
X1592844Y1175991D01*
X1592907Y1166116D01*
X1592342Y1166003D01*
X1590936Y1165064D01*
X1589997Y1163658D01*
X1589667Y1162000D01*
X1589997Y1160342D01*
X1590936Y1158936D01*
X1592342Y1157997D01*
X1592959Y1157874D01*
X1593702Y1041274D01*
X1592342Y1041003D01*
X1590936Y1040064D01*
X1589997Y1038658D01*
X1589667Y1037000D01*
X1589997Y1035342D01*
X1590936Y1033936D01*
X1592342Y1032997D01*
X1593757Y1032715D01*
X1594546Y908784D01*
X1594000Y908333D01*
X1592342Y908003D01*
X1590936Y907064D01*
X1589997Y905658D01*
X1589667Y904000D01*
X1589997Y902342D01*
X1590936Y900936D01*
X1592342Y899997D01*
X1594000Y899667D01*
X1594607Y899172D01*
X1594994Y838401D01*
X1594099Y837500D01*
X1200000D01*
Y908667D01*
X1201658Y908997D01*
X1203064Y909936D01*
X1204003Y911342D01*
X1204333Y913000D01*
X1204003Y914658D01*
X1203064Y916064D01*
X1201658Y917003D01*
X1200000Y917333D01*
Y961667D01*
X1201658Y961997D01*
X1203064Y962936D01*
X1204003Y964342D01*
X1204333Y966000D01*
X1204003Y967658D01*
X1203064Y969064D01*
X1201658Y970003D01*
X1200000Y970333D01*
Y1089914D01*
X1200982Y1090720D01*
X1201250Y1090667D01*
X1202908Y1090997D01*
X1204314Y1091936D01*
X1205253Y1093342D01*
X1205583Y1095000D01*
X1205253Y1096658D01*
X1204314Y1098064D01*
X1202908Y1099003D01*
X1201250Y1099333D01*
X1200982Y1099280D01*
X1200000Y1100086D01*
Y1142665D01*
X1201656Y1142994D01*
X1203062Y1143934D01*
X1204001Y1145339D01*
X1204331Y1146998D01*
X1204001Y1148656D01*
X1203062Y1150062D01*
X1201656Y1151001D01*
X1200000Y1151330D01*
Y1155865D01*
X1200982Y1156670D01*
X1201000Y1156667D01*
X1202658Y1156997D01*
X1204064Y1157936D01*
X1205003Y1159342D01*
X1205333Y1161000D01*
X1205003Y1162658D01*
X1204064Y1164064D01*
X1202658Y1165003D01*
X1201000Y1165333D01*
X1200982Y1165330D01*
X1200000Y1166135D01*
Y1201665D01*
X1201656Y1201994D01*
X1203062Y1202934D01*
X1204001Y1204339D01*
X1204331Y1205998D01*
X1204001Y1207656D01*
X1203062Y1209062D01*
X1201656Y1210001D01*
X1200000Y1210330D01*
Y1230841D01*
X1201173Y1231327D01*
X1202500Y1230000D01*
D02*
G37*
G36*
X1186230Y1272436D02*
X1185135Y1272292D01*
X1182977Y1271398D01*
X1181124Y1269976D01*
X1179702Y1268123D01*
X1178808Y1265965D01*
X1178503Y1263650D01*
X1178808Y1261335D01*
X1179702Y1259177D01*
X1181124Y1257324D01*
X1182977Y1255902D01*
X1184373Y1255324D01*
X1184225Y1254098D01*
X1182454D01*
X1181719Y1253952D01*
X1180974Y1253878D01*
X1180751Y1253759D01*
X1180503Y1253710D01*
X1179880Y1253294D01*
X1179220Y1252941D01*
X1179059Y1252745D01*
X1178849Y1252605D01*
X1178782Y1252504D01*
X1178453Y1252363D01*
X1177547D01*
X1177218Y1252504D01*
X1177151Y1252605D01*
X1176941Y1252745D01*
X1176780Y1252941D01*
X1176120Y1253294D01*
X1175497Y1253710D01*
X1175249Y1253759D01*
X1175026Y1253878D01*
X1174281Y1253952D01*
X1173546Y1254098D01*
X1165486D01*
X1165234Y1255368D01*
X1166523Y1255902D01*
X1168376Y1257324D01*
X1169798Y1259177D01*
X1170692Y1261335D01*
X1170996Y1263650D01*
X1170692Y1265965D01*
X1169798Y1268123D01*
X1168376Y1269976D01*
X1166523Y1271398D01*
X1164365Y1272292D01*
X1163270Y1272436D01*
X1163353Y1273706D01*
X1186147D01*
X1186230Y1272436D01*
D02*
G37*
G36*
X1184025Y814632D02*
X1182977Y814198D01*
X1181124Y812776D01*
X1179702Y810923D01*
X1178808Y808765D01*
X1178503Y806450D01*
X1178808Y804135D01*
X1179702Y801977D01*
X1181124Y800124D01*
X1182977Y798702D01*
X1185135Y797808D01*
X1187450Y797504D01*
X1189765Y797808D01*
X1191923Y798702D01*
X1193776Y800124D01*
X1194461Y801016D01*
X1195848Y801151D01*
X1196706Y800372D01*
Y785201D01*
X1195436Y784949D01*
X1195198Y785523D01*
X1193776Y787376D01*
X1191923Y788798D01*
X1189765Y789692D01*
X1187450Y789996D01*
X1185135Y789692D01*
X1182977Y788798D01*
X1181124Y787376D01*
X1179702Y785523D01*
X1178808Y783365D01*
X1178503Y781050D01*
X1178808Y778735D01*
X1179702Y776577D01*
X1181108Y774744D01*
X1181096Y774647D01*
X1180666Y773474D01*
X1168723D01*
X1168455Y774265D01*
X1168392Y774744D01*
X1169798Y776577D01*
X1170692Y778735D01*
X1170996Y781050D01*
X1170692Y783365D01*
X1169798Y785523D01*
X1168376Y787376D01*
X1166523Y788798D01*
X1164365Y789692D01*
X1162050Y789996D01*
X1159734Y789692D01*
X1158851Y789326D01*
X1158001Y790340D01*
X1158331Y791998D01*
X1158001Y793657D01*
X1157062Y795062D01*
X1155656Y796002D01*
X1153998Y796332D01*
X1152339Y796002D01*
X1151536Y795465D01*
X1150138Y795983D01*
X1150003Y796658D01*
X1149064Y798064D01*
X1147658Y799003D01*
X1146000Y799333D01*
X1144342Y799003D01*
X1142936Y798064D01*
X1141997Y796658D01*
X1141667Y795000D01*
X1141997Y793342D01*
X1142936Y791936D01*
X1144342Y790997D01*
X1146000Y790667D01*
X1147658Y790997D01*
X1148462Y791534D01*
X1149860Y791015D01*
X1149994Y790340D01*
X1150934Y788934D01*
X1152339Y787995D01*
X1153998Y787665D01*
X1154407Y787747D01*
X1155124Y786594D01*
X1154302Y785523D01*
X1153408Y783365D01*
X1153103Y781050D01*
X1153408Y778735D01*
X1154302Y776577D01*
X1155708Y774744D01*
X1155646Y774265D01*
X1155377Y773474D01*
X1143323D01*
X1143055Y774265D01*
X1142992Y774744D01*
X1144398Y776577D01*
X1145292Y778735D01*
X1145596Y781050D01*
X1145292Y783365D01*
X1144398Y785523D01*
X1142976Y787376D01*
X1141123Y788798D01*
X1138966Y789692D01*
X1136650Y789996D01*
X1134334Y789692D01*
X1132177Y788798D01*
X1130324Y787376D01*
X1128902Y785523D01*
X1128008Y783365D01*
X1127703Y781050D01*
X1128008Y778735D01*
X1128902Y776577D01*
X1130308Y774744D01*
X1130246Y774265D01*
X1129977Y773474D01*
X1117923D01*
X1117654Y774265D01*
X1117592Y774744D01*
X1118998Y776577D01*
X1119892Y778735D01*
X1120197Y781050D01*
X1119892Y783365D01*
X1118998Y785523D01*
X1117576Y787376D01*
X1115723Y788798D01*
X1113566Y789692D01*
X1111250Y789996D01*
X1108934Y789692D01*
X1106777Y788798D01*
X1104924Y787376D01*
X1103502Y785523D01*
X1102608Y783365D01*
X1102303Y781050D01*
X1102608Y778735D01*
X1103502Y776577D01*
X1104908Y774744D01*
X1104846Y774265D01*
X1104577Y773474D01*
X1092523D01*
X1092254Y774265D01*
X1092192Y774744D01*
X1093598Y776577D01*
X1094492Y778735D01*
X1094797Y781050D01*
X1094492Y783365D01*
X1093598Y785523D01*
X1092176Y787376D01*
X1090323Y788798D01*
X1088166Y789692D01*
X1085850Y789996D01*
X1083534Y789692D01*
X1081377Y788798D01*
X1079524Y787376D01*
X1078102Y785523D01*
X1077208Y783365D01*
X1076904Y781050D01*
X1077208Y778735D01*
X1078102Y776577D01*
X1079508Y774744D01*
X1079445Y774265D01*
X1079177Y773474D01*
X1067123D01*
X1066854Y774265D01*
X1066792Y774744D01*
X1068198Y776577D01*
X1069092Y778735D01*
X1069397Y781050D01*
X1069092Y783365D01*
X1068198Y785523D01*
X1066776Y787376D01*
X1064923Y788798D01*
X1062766Y789692D01*
X1060450Y789996D01*
X1058135Y789692D01*
X1055977Y788798D01*
X1054124Y787376D01*
X1052702Y785523D01*
X1051808Y783365D01*
X1051504Y781050D01*
X1051808Y778735D01*
X1052702Y776577D01*
X1054108Y774744D01*
X1054045Y774265D01*
X1053777Y773474D01*
X1041723D01*
X1041454Y774265D01*
X1041392Y774744D01*
X1042798Y776577D01*
X1043692Y778735D01*
X1043997Y781050D01*
X1043692Y783365D01*
X1042798Y785523D01*
X1041376Y787376D01*
X1039523Y788798D01*
X1037365Y789692D01*
X1035050Y789996D01*
X1032735Y789692D01*
X1032311Y789516D01*
X1031469Y790542D01*
X1032003Y791342D01*
X1032055Y791602D01*
X1032117Y791695D01*
X1032292Y792573D01*
X1032270Y792683D01*
X1032333Y793000D01*
X1032241Y793464D01*
X1032907Y793987D01*
X1033113Y794227D01*
X1033375Y794404D01*
X1033754Y794976D01*
X1034201Y795498D01*
X1034299Y795798D01*
X1034474Y796062D01*
X1034605Y796736D01*
X1034818Y797388D01*
X1034953Y797516D01*
X1035050Y797504D01*
X1037365Y797808D01*
X1039523Y798702D01*
X1041376Y800124D01*
X1042798Y801977D01*
X1043692Y804135D01*
X1043997Y806450D01*
X1043692Y808765D01*
X1042798Y810923D01*
X1041376Y812776D01*
X1039523Y814198D01*
X1038475Y814632D01*
X1038728Y815902D01*
X1056772D01*
X1057025Y814632D01*
X1055977Y814198D01*
X1054124Y812776D01*
X1052702Y810923D01*
X1051808Y808765D01*
X1051504Y806450D01*
X1051808Y804135D01*
X1052702Y801977D01*
X1054009Y800273D01*
X1053849Y799756D01*
X1053363Y799107D01*
X1053192Y799141D01*
X1051534Y798811D01*
X1050128Y797872D01*
X1049189Y796466D01*
X1049117Y796104D01*
X1049071Y796085D01*
X1047795Y795970D01*
X1047064Y797064D01*
X1045658Y798003D01*
X1044000Y798333D01*
X1042342Y798003D01*
X1040936Y797064D01*
X1039997Y795658D01*
X1039667Y794000D01*
X1039997Y792342D01*
X1040936Y790936D01*
X1042342Y789997D01*
X1044000Y789667D01*
X1045658Y789997D01*
X1047064Y790936D01*
X1048003Y792342D01*
X1048075Y792704D01*
X1048122Y792722D01*
X1049397Y792838D01*
X1050128Y791744D01*
X1051534Y790804D01*
X1053192Y790474D01*
X1054851Y790804D01*
X1056256Y791744D01*
X1057196Y793149D01*
X1057526Y794808D01*
X1057196Y796466D01*
X1056866Y796959D01*
X1057708Y797985D01*
X1058135Y797808D01*
X1060450Y797504D01*
X1062766Y797808D01*
X1064923Y798702D01*
X1066776Y800124D01*
X1068198Y801977D01*
X1069092Y804135D01*
X1069397Y806450D01*
X1069092Y808765D01*
X1068198Y810923D01*
X1066776Y812776D01*
X1064923Y814198D01*
X1063875Y814632D01*
X1064128Y815902D01*
X1082172D01*
X1082425Y814632D01*
X1081377Y814198D01*
X1079524Y812776D01*
X1078102Y810923D01*
X1077208Y808765D01*
X1076904Y806450D01*
X1077208Y804135D01*
X1078102Y801977D01*
X1079524Y800124D01*
X1081377Y798702D01*
X1083534Y797808D01*
X1085850Y797504D01*
X1088166Y797808D01*
X1090323Y798702D01*
X1092176Y800124D01*
X1093598Y801977D01*
X1094492Y804135D01*
X1094797Y806450D01*
X1094492Y808765D01*
X1093598Y810923D01*
X1092176Y812776D01*
X1090323Y814198D01*
X1089275Y814632D01*
X1089528Y815902D01*
X1107572D01*
X1107825Y814632D01*
X1106777Y814198D01*
X1104924Y812776D01*
X1103502Y810923D01*
X1102608Y808765D01*
X1102303Y806450D01*
X1102608Y804135D01*
X1103502Y801977D01*
X1104924Y800124D01*
X1106777Y798702D01*
X1108934Y797808D01*
X1111250Y797504D01*
X1113566Y797808D01*
X1115723Y798702D01*
X1117576Y800124D01*
X1118998Y801977D01*
X1119892Y804135D01*
X1120197Y806450D01*
X1119892Y808765D01*
X1118998Y810923D01*
X1117576Y812776D01*
X1115723Y814198D01*
X1114675Y814632D01*
X1114928Y815902D01*
X1132972D01*
X1133225Y814632D01*
X1132177Y814198D01*
X1130324Y812776D01*
X1128902Y810923D01*
X1128008Y808765D01*
X1127703Y806450D01*
X1128008Y804135D01*
X1128902Y801977D01*
X1130324Y800124D01*
X1132177Y798702D01*
X1134334Y797808D01*
X1136650Y797504D01*
X1138966Y797808D01*
X1141123Y798702D01*
X1142976Y800124D01*
X1144398Y801977D01*
X1145292Y804135D01*
X1145596Y806450D01*
X1145292Y808765D01*
X1144398Y810923D01*
X1142976Y812776D01*
X1141123Y814198D01*
X1140075Y814632D01*
X1140328Y815902D01*
X1158372D01*
X1158625Y814632D01*
X1157577Y814198D01*
X1155724Y812776D01*
X1154302Y810923D01*
X1153408Y808765D01*
X1153103Y806450D01*
X1153408Y804135D01*
X1154302Y801977D01*
X1155724Y800124D01*
X1157577Y798702D01*
X1159734Y797808D01*
X1162050Y797504D01*
X1164365Y797808D01*
X1166523Y798702D01*
X1168376Y800124D01*
X1169798Y801977D01*
X1170692Y804135D01*
X1170996Y806450D01*
X1170692Y808765D01*
X1169798Y810923D01*
X1168376Y812776D01*
X1166523Y814198D01*
X1165475Y814632D01*
X1165728Y815902D01*
X1183772D01*
X1184025Y814632D01*
D02*
G37*
G36*
X1199288Y1248836D02*
X1199713Y1247730D01*
X1198997Y1246658D01*
X1198667Y1245000D01*
X1198997Y1243342D01*
X1199936Y1241936D01*
X1200000Y1241893D01*
Y1236191D01*
X1199222Y1236037D01*
X1198049Y1235551D01*
X1196395Y1234445D01*
X1196395Y1234445D01*
X1195290Y1232792D01*
X1194902Y1230841D01*
Y1210330D01*
X1195000Y1209838D01*
Y1209336D01*
X1195192Y1208872D01*
X1195290Y1208380D01*
X1195569Y1207962D01*
X1195761Y1207498D01*
X1195929Y1207330D01*
X1195664Y1205998D01*
X1195929Y1204665D01*
X1195761Y1204497D01*
X1195569Y1204033D01*
X1195290Y1203616D01*
X1195192Y1203123D01*
X1195000Y1202659D01*
Y1202157D01*
X1194902Y1201665D01*
Y1166135D01*
X1194951Y1165887D01*
X1194927Y1165636D01*
X1195144Y1164919D01*
X1195290Y1164184D01*
X1195431Y1163974D01*
X1195504Y1163732D01*
X1195979Y1163153D01*
X1196395Y1162531D01*
X1196606Y1162390D01*
X1196766Y1162195D01*
X1196885Y1162097D01*
X1196667Y1161000D01*
X1196885Y1159903D01*
X1196766Y1159806D01*
X1196605Y1159610D01*
X1196395Y1159470D01*
X1195979Y1158847D01*
X1195504Y1158268D01*
X1195431Y1158026D01*
X1195290Y1157816D01*
X1195144Y1157081D01*
X1194927Y1156364D01*
X1194951Y1156113D01*
X1194902Y1155865D01*
Y1151330D01*
X1195000Y1150838D01*
Y1150336D01*
X1195192Y1149872D01*
X1195290Y1149380D01*
X1195569Y1148962D01*
X1195761Y1148498D01*
X1195929Y1148330D01*
X1195664Y1146998D01*
X1195929Y1145665D01*
X1195761Y1145497D01*
X1195569Y1145033D01*
X1195290Y1144616D01*
X1195192Y1144123D01*
X1195000Y1143660D01*
Y1143157D01*
X1194902Y1142665D01*
Y1100086D01*
X1194951Y1099837D01*
X1194927Y1099586D01*
X1195144Y1098869D01*
X1195290Y1098135D01*
X1195431Y1097924D01*
X1195504Y1097682D01*
X1195979Y1097103D01*
X1196395Y1096481D01*
X1196606Y1096340D01*
X1196766Y1096145D01*
X1197091Y1095878D01*
X1196917Y1095000D01*
X1197091Y1094122D01*
X1196766Y1093855D01*
X1196605Y1093660D01*
X1196395Y1093519D01*
X1195979Y1092896D01*
X1195504Y1092318D01*
X1195431Y1092076D01*
X1195290Y1091865D01*
X1195144Y1091131D01*
X1194927Y1090414D01*
X1194951Y1090163D01*
X1194902Y1089914D01*
Y970333D01*
X1195000Y969841D01*
Y969339D01*
X1195192Y968875D01*
X1195290Y968382D01*
X1195569Y967965D01*
X1195761Y967501D01*
X1195931Y967331D01*
X1195667Y966000D01*
X1195931Y964669D01*
X1195761Y964499D01*
X1195569Y964035D01*
X1195290Y963618D01*
X1195192Y963125D01*
X1195000Y962661D01*
Y962159D01*
X1194902Y961667D01*
Y917333D01*
X1195000Y916841D01*
Y916339D01*
X1195192Y915875D01*
X1195290Y915382D01*
X1195569Y914965D01*
X1195761Y914501D01*
X1195931Y914331D01*
X1195667Y913000D01*
X1195931Y911669D01*
X1195761Y911499D01*
X1195569Y911035D01*
X1195290Y910618D01*
X1195192Y910125D01*
X1195000Y909661D01*
Y909159D01*
X1194902Y908667D01*
Y837500D01*
X1195290Y835549D01*
X1196395Y833895D01*
X1198049Y832790D01*
X1200000Y832402D01*
Y821000D01*
X1035098D01*
Y828667D01*
X1035000Y829159D01*
Y829661D01*
X1034808Y830125D01*
X1034710Y830618D01*
X1034431Y831035D01*
X1034239Y831499D01*
X1033884Y831854D01*
X1033605Y832271D01*
X1033187Y832551D01*
X1032832Y832906D01*
X1033009Y834207D01*
X1033605Y834802D01*
X1034710Y836456D01*
X1035098Y838407D01*
Y905431D01*
X1035000Y905924D01*
Y906426D01*
X1034901Y906666D01*
X1035278Y907199D01*
X1035948Y907641D01*
X1037000Y907431D01*
X1038366Y907703D01*
X1039431Y907000D01*
X1039703Y905634D01*
X1040477Y904477D01*
X1041634Y903703D01*
X1043000Y903431D01*
X1044366Y903703D01*
X1045523Y904477D01*
X1046297Y905634D01*
X1046569Y907000D01*
X1046297Y908366D01*
X1045523Y909523D01*
X1044366Y910297D01*
X1043000Y910569D01*
X1041634Y910297D01*
X1040569Y911000D01*
X1040297Y912366D01*
X1039523Y913523D01*
X1038366Y914297D01*
X1037000Y914569D01*
X1035634Y914297D01*
X1034477Y913523D01*
X1033789Y912495D01*
X1033285Y912464D01*
X1032484Y912653D01*
X1032343Y913647D01*
X1032295Y913782D01*
Y913924D01*
X1032114Y914361D01*
X1032297Y914634D01*
X1032541Y915861D01*
X1033234Y916430D01*
X1033395Y916625D01*
X1033605Y916766D01*
X1034021Y917389D01*
X1034496Y917968D01*
X1034569Y918209D01*
X1034710Y918420D01*
X1034856Y919154D01*
X1035073Y919871D01*
X1035049Y920123D01*
X1035098Y920371D01*
Y949939D01*
X1061930D01*
X1061934Y949934D01*
X1063340Y948995D01*
X1064998Y948665D01*
X1066656Y948995D01*
X1068062Y949934D01*
X1069001Y951340D01*
X1069317Y952926D01*
X1069703Y953154D01*
X1070106Y953322D01*
X1070539Y953435D01*
X1071634Y952703D01*
X1073000Y952431D01*
X1074366Y952703D01*
X1075523Y953477D01*
X1076297Y954634D01*
X1076569Y956000D01*
X1076297Y957366D01*
X1075523Y958523D01*
X1074366Y959297D01*
X1073000Y959569D01*
X1071634Y959297D01*
X1070477Y958523D01*
X1069703Y957366D01*
X1069477Y956230D01*
X1068745Y955915D01*
X1068205Y955848D01*
X1068062Y956062D01*
X1066656Y957001D01*
X1064998Y957331D01*
X1063340Y957001D01*
X1061934Y956062D01*
X1061930Y956057D01*
X1035098D01*
Y1015941D01*
X1034710Y1017892D01*
X1033970Y1019000D01*
X1034710Y1020108D01*
X1035098Y1022059D01*
Y1029470D01*
X1035648Y1029837D01*
X1036752Y1030941D01*
X1053932D01*
X1053936Y1030936D01*
X1055342Y1029997D01*
X1057000Y1029667D01*
X1058658Y1029997D01*
X1060064Y1030936D01*
X1061003Y1032342D01*
X1061333Y1034000D01*
X1061003Y1035658D01*
X1060064Y1037064D01*
X1058658Y1038003D01*
X1057000Y1038333D01*
X1055342Y1038003D01*
X1053936Y1037064D01*
X1053932Y1037059D01*
X1036441D01*
X1035333Y1038000D01*
X1035003Y1039658D01*
X1034681Y1040141D01*
X1034710Y1040183D01*
X1034808Y1040676D01*
X1035000Y1041140D01*
Y1041642D01*
X1035098Y1042134D01*
Y1093451D01*
X1036366Y1093703D01*
X1037523Y1094477D01*
X1038297Y1095634D01*
X1038381Y1096055D01*
X1045267Y1102941D01*
X1064889D01*
X1065217Y1102752D01*
X1065240Y1102711D01*
X1064632Y1101295D01*
X1063475Y1100521D01*
X1062701Y1099363D01*
X1062429Y1097998D01*
X1062701Y1096632D01*
X1063475Y1095474D01*
X1064632Y1094701D01*
X1065998Y1094429D01*
X1067364Y1094701D01*
X1068521Y1095474D01*
X1069295Y1096632D01*
X1069566Y1097998D01*
X1069295Y1099363D01*
X1068563Y1100459D01*
X1068676Y1100891D01*
X1068845Y1101296D01*
X1069071Y1101681D01*
X1070658Y1101997D01*
X1072064Y1102936D01*
X1073003Y1104342D01*
X1073333Y1106000D01*
X1073003Y1107658D01*
X1072064Y1109064D01*
X1070658Y1110003D01*
X1069000Y1110333D01*
X1067342Y1110003D01*
X1065936Y1109064D01*
X1065932Y1109059D01*
X1044000D01*
X1044000Y1109059D01*
X1042830Y1108826D01*
X1041837Y1108163D01*
X1041837Y1108163D01*
X1036100Y1102426D01*
X1036092Y1102424D01*
X1034719Y1102841D01*
X1034710Y1102886D01*
X1034569Y1103096D01*
X1034496Y1103338D01*
X1034021Y1103917D01*
X1033605Y1104540D01*
X1033395Y1104680D01*
X1033276Y1105500D01*
X1033395Y1106320D01*
X1033605Y1106460D01*
X1034021Y1107083D01*
X1034496Y1107662D01*
X1034569Y1107904D01*
X1034710Y1108114D01*
X1034856Y1108849D01*
X1035073Y1109565D01*
X1035049Y1109817D01*
X1035098Y1110065D01*
Y1143401D01*
X1035049Y1143649D01*
X1035073Y1143900D01*
X1034856Y1144617D01*
X1034710Y1145351D01*
X1034569Y1145562D01*
X1034496Y1145804D01*
X1034335Y1146000D01*
X1034496Y1146196D01*
X1034569Y1146438D01*
X1034710Y1146648D01*
X1034856Y1147383D01*
X1035073Y1148100D01*
X1035049Y1148351D01*
X1035098Y1148599D01*
Y1170926D01*
X1036000Y1171667D01*
X1037658Y1171997D01*
X1039064Y1172936D01*
X1040003Y1174342D01*
X1040333Y1176000D01*
X1040003Y1177658D01*
X1039064Y1179064D01*
X1037658Y1180003D01*
X1036000Y1180333D01*
X1035098Y1181074D01*
Y1237772D01*
X1037994Y1240668D01*
X1038000Y1240667D01*
X1039658Y1240997D01*
X1041064Y1241936D01*
X1042003Y1243342D01*
X1042333Y1245000D01*
X1042003Y1246658D01*
X1041287Y1247730D01*
X1041775Y1249000D01*
X1077547D01*
X1077933Y1247730D01*
X1076936Y1247064D01*
X1075997Y1245658D01*
X1075667Y1244000D01*
X1075997Y1242342D01*
X1076936Y1240936D01*
X1078342Y1239997D01*
X1080000Y1239667D01*
X1081658Y1239997D01*
X1083064Y1240936D01*
X1084003Y1242342D01*
X1084333Y1244000D01*
X1084003Y1245658D01*
X1083064Y1247064D01*
X1082067Y1247730D01*
X1082453Y1249000D01*
X1146662D01*
X1146664Y1248997D01*
X1146994Y1247339D01*
X1147934Y1245933D01*
X1149339Y1244994D01*
X1150998Y1244664D01*
X1152656Y1244994D01*
X1154062Y1245933D01*
X1155001Y1247339D01*
X1155331Y1248997D01*
X1155333Y1249000D01*
X1173546D01*
X1174145Y1247880D01*
X1173997Y1247658D01*
X1173667Y1246000D01*
X1173997Y1244342D01*
X1174936Y1242936D01*
X1176342Y1241997D01*
X1178000Y1241667D01*
X1179658Y1241997D01*
X1181064Y1242936D01*
X1182003Y1244342D01*
X1182333Y1246000D01*
X1182003Y1247658D01*
X1181855Y1247880D01*
X1182454Y1249000D01*
X1184225D01*
X1184713Y1247730D01*
X1183997Y1246658D01*
X1183667Y1245000D01*
X1183997Y1243342D01*
X1184936Y1241936D01*
X1186342Y1240997D01*
X1188000Y1240667D01*
X1189658Y1240997D01*
X1191064Y1241936D01*
X1192003Y1243342D01*
X1192333Y1245000D01*
X1192003Y1246658D01*
X1191287Y1247730D01*
X1191775Y1249000D01*
X1199150D01*
X1199288Y1248836D01*
D02*
G37*
G36*
X1664941Y699059D02*
X1574000Y699059D01*
X1571740Y699059D01*
X1567308Y699940D01*
X1563133Y701670D01*
X1559376Y704180D01*
X1556180Y707376D01*
X1553670Y711133D01*
X1551940Y715308D01*
X1551059Y719740D01*
X1551059Y722000D01*
X1551059Y742000D01*
X1551044Y742075D01*
X1551055Y742150D01*
X1550959Y744110D01*
X1550903Y744330D01*
Y744557D01*
X1550139Y748402D01*
X1550023Y748680D01*
X1549965Y748976D01*
X1548464Y752598D01*
X1548297Y752849D01*
X1548182Y753127D01*
X1546003Y756387D01*
X1545790Y756600D01*
X1545623Y756851D01*
X1542851Y759623D01*
X1542600Y759790D01*
X1542387Y760003D01*
X1539127Y762181D01*
X1538849Y762297D01*
X1538598Y762464D01*
X1534976Y763965D01*
X1534681Y764023D01*
X1534402Y764139D01*
X1530557Y764904D01*
X1530330D01*
X1530110Y764959D01*
X1528150Y765055D01*
X1528075Y765044D01*
X1528000Y765059D01*
X1196969Y765059D01*
X1196575Y766239D01*
X1196573Y766329D01*
X1200622Y770378D01*
X1201119Y771122D01*
X1201294Y772000D01*
Y802000D01*
X1201119Y802878D01*
X1200622Y803622D01*
X1196185Y808060D01*
X1196092Y808765D01*
X1195198Y810923D01*
X1193776Y812776D01*
X1191923Y814198D01*
X1190875Y814632D01*
X1191128Y815902D01*
X1200000D01*
X1201951Y816290D01*
X1203605Y817395D01*
X1204710Y819049D01*
X1205098Y821000D01*
Y832402D01*
X1594099D01*
X1594107Y832404D01*
X1594115Y832402D01*
X1595077Y832597D01*
X1596050Y832790D01*
X1596057Y832795D01*
X1596065Y832796D01*
X1596884Y833347D01*
X1597704Y833895D01*
X1597708Y833902D01*
X1597715Y833907D01*
X1598611Y834808D01*
X1598615Y834815D01*
X1598622Y834819D01*
X1599165Y835644D01*
X1599710Y836465D01*
X1599712Y836473D01*
X1599716Y836480D01*
X1599903Y837450D01*
X1600092Y838417D01*
X1600091Y838425D01*
X1600092Y838433D01*
X1599705Y899204D01*
X1599656Y899444D01*
X1599679Y899687D01*
X1599457Y900411D01*
X1599305Y901152D01*
X1599167Y901355D01*
X1599095Y901589D01*
X1598613Y902173D01*
X1598189Y902799D01*
X1597985Y902934D01*
X1597829Y903123D01*
X1597734Y903200D01*
X1597706Y903242D01*
X1597623Y903450D01*
X1597630Y904584D01*
X1597708Y904770D01*
X1597731Y904803D01*
X1597793Y904854D01*
X1597958Y905056D01*
X1598174Y905202D01*
X1598581Y905821D01*
X1599050Y906395D01*
X1599124Y906646D01*
X1599268Y906863D01*
X1599408Y907591D01*
X1599621Y908301D01*
X1599595Y908560D01*
X1599644Y908817D01*
X1598855Y1032748D01*
X1598757Y1033224D01*
Y1033710D01*
X1598558Y1034188D01*
X1598454Y1034696D01*
X1598181Y1035098D01*
X1597995Y1035547D01*
X1597629Y1035914D01*
X1597338Y1036343D01*
X1597330Y1037692D01*
X1597597Y1038098D01*
X1597941Y1038442D01*
X1598139Y1038921D01*
X1598424Y1039353D01*
X1598516Y1039830D01*
X1598702Y1040279D01*
Y1040798D01*
X1598800Y1041307D01*
X1598057Y1157906D01*
X1597959Y1158382D01*
Y1158868D01*
X1597761Y1159347D01*
X1597657Y1159855D01*
X1597384Y1160257D01*
X1597198Y1160706D01*
X1596832Y1161072D01*
X1596541Y1161501D01*
X1596741Y1162847D01*
X1596802Y1162940D01*
X1597146Y1163284D01*
X1597344Y1163762D01*
X1597629Y1164195D01*
X1597721Y1164672D01*
X1597907Y1165121D01*
Y1165639D01*
X1598005Y1166148D01*
X1597942Y1176024D01*
X1597773Y1176843D01*
X1597657Y1177672D01*
X1597574Y1177812D01*
X1597541Y1177972D01*
X1597072Y1178664D01*
X1596648Y1179386D01*
X1596545Y1179889D01*
X1596545Y1180130D01*
X1596705Y1180818D01*
X1597082Y1181509D01*
X1597515Y1182165D01*
X1597555Y1182376D01*
X1597658Y1182564D01*
X1597742Y1183346D01*
X1597890Y1184118D01*
X1597598Y1230033D01*
X1597401Y1230991D01*
X1597210Y1231951D01*
X1597201Y1231965D01*
X1597197Y1231981D01*
X1596648Y1232791D01*
X1596105Y1233605D01*
X1596091Y1233614D01*
X1596082Y1233628D01*
X1595266Y1234165D01*
X1594451Y1234710D01*
X1594435Y1234713D01*
X1594421Y1234722D01*
X1593461Y1234907D01*
X1592500Y1235098D01*
X1206229D01*
X1205859Y1235279D01*
X1205098Y1236191D01*
Y1241893D01*
X1205000Y1242386D01*
X1205000Y1242888D01*
X1204808Y1243352D01*
X1204710Y1243844D01*
X1204431Y1244262D01*
X1204239Y1244726D01*
X1204132Y1244832D01*
X1204004Y1245024D01*
X1204119Y1245301D01*
X1204371Y1245658D01*
X1204496Y1246211D01*
X1204713Y1246735D01*
Y1247172D01*
X1204809Y1247598D01*
X1204713Y1248157D01*
Y1248725D01*
X1204546Y1249128D01*
X1204471Y1249559D01*
X1204046Y1250665D01*
X1203597Y1251376D01*
X1203192Y1252114D01*
X1203187Y1252120D01*
X1204003Y1253342D01*
X1204333Y1255000D01*
X1204003Y1256658D01*
X1203064Y1258064D01*
X1201658Y1259003D01*
X1200000Y1259333D01*
X1199614Y1259650D01*
Y1267738D01*
X1199467Y1268478D01*
X1199675Y1268941D01*
X1200234Y1269713D01*
X1201658Y1269997D01*
X1203064Y1270936D01*
X1204003Y1272342D01*
X1204333Y1274000D01*
X1204003Y1275658D01*
X1203064Y1277064D01*
X1201658Y1278003D01*
X1200000Y1278333D01*
X1198342Y1278003D01*
X1196936Y1277064D01*
X1195997Y1275658D01*
X1195738Y1274360D01*
X1194733Y1273893D01*
X1194443Y1273860D01*
X1190680Y1277622D01*
X1189936Y1278119D01*
X1189058Y1278294D01*
X1150650D01*
X1144385Y1284560D01*
X1144398Y1284577D01*
X1145292Y1286734D01*
X1145596Y1289050D01*
X1145292Y1291366D01*
X1144398Y1293523D01*
X1142976Y1295376D01*
X1141123Y1296798D01*
X1138966Y1297692D01*
X1136650Y1297997D01*
X1134334Y1297692D01*
X1132177Y1296798D01*
X1130324Y1295376D01*
X1128902Y1293523D01*
X1128008Y1291366D01*
X1127703Y1289050D01*
X1128008Y1286734D01*
X1128902Y1284577D01*
X1130324Y1282724D01*
X1132177Y1281302D01*
X1134334Y1280408D01*
X1136650Y1280103D01*
X1138966Y1280408D01*
X1141123Y1281302D01*
X1141140Y1281315D01*
X1148078Y1274378D01*
X1148822Y1273880D01*
X1149700Y1273706D01*
X1160747D01*
X1160830Y1272436D01*
X1159734Y1272292D01*
X1157577Y1271398D01*
X1155724Y1269976D01*
X1154302Y1268123D01*
X1153408Y1265965D01*
X1153103Y1263650D01*
X1153355Y1261739D01*
X1152858Y1260904D01*
X1152370Y1260522D01*
X1151008Y1260251D01*
X1149602Y1259312D01*
X1148662Y1257906D01*
X1148333Y1256247D01*
X1148578Y1255012D01*
X1148560Y1254966D01*
X1147738Y1254082D01*
X1147584Y1253997D01*
X1147416D01*
X1147170Y1254073D01*
X1146914Y1254048D01*
X1146662Y1254098D01*
X1140086D01*
X1139834Y1255368D01*
X1141123Y1255902D01*
X1142976Y1257324D01*
X1144398Y1259177D01*
X1145292Y1261335D01*
X1145596Y1263650D01*
X1145292Y1265965D01*
X1144398Y1268123D01*
X1142976Y1269976D01*
X1141123Y1271398D01*
X1138966Y1272292D01*
X1136650Y1272597D01*
X1134334Y1272292D01*
X1132177Y1271398D01*
X1130324Y1269976D01*
X1128902Y1268123D01*
X1128008Y1265965D01*
X1127703Y1263650D01*
X1128008Y1261335D01*
X1128902Y1259177D01*
X1130324Y1257324D01*
X1132177Y1255902D01*
X1133466Y1255368D01*
X1133214Y1254098D01*
X1129250D01*
X1128207Y1255368D01*
X1128333Y1256000D01*
X1128003Y1257658D01*
X1127064Y1259064D01*
X1126294Y1259579D01*
Y1270000D01*
X1126120Y1270878D01*
X1125622Y1271622D01*
X1120622Y1276622D01*
X1119878Y1277119D01*
X1119000Y1277294D01*
X1035098D01*
Y1280110D01*
X1037365Y1280408D01*
X1039523Y1281302D01*
X1041376Y1282724D01*
X1042798Y1284577D01*
X1043692Y1286734D01*
X1043997Y1289050D01*
X1043692Y1291366D01*
X1042798Y1293523D01*
X1041376Y1295376D01*
X1039523Y1296798D01*
X1037365Y1297692D01*
X1035098Y1297990D01*
Y1304941D01*
X1036368Y1304941D01*
X1528000Y1304941D01*
X1528075Y1304956D01*
X1528150Y1304945D01*
X1530110Y1305041D01*
X1530330Y1305096D01*
X1530557D01*
X1534402Y1305861D01*
X1534681Y1305977D01*
X1534976Y1306035D01*
X1538598Y1307536D01*
X1538849Y1307703D01*
X1539127Y1307818D01*
X1542387Y1309996D01*
X1542600Y1310210D01*
X1542851Y1310377D01*
X1545623Y1313149D01*
X1545791Y1313400D01*
X1546004Y1313613D01*
X1548182Y1316873D01*
X1548297Y1317151D01*
X1548464Y1317401D01*
X1549965Y1321024D01*
X1550023Y1321319D01*
X1550139Y1321598D01*
X1550904Y1325443D01*
Y1325670D01*
X1550959Y1325890D01*
X1551055Y1327850D01*
X1551044Y1327925D01*
X1551059Y1328000D01*
X1551059Y1358000D01*
X1551059Y1359275D01*
X1551556Y1361775D01*
X1552531Y1364130D01*
X1553948Y1366250D01*
X1555750Y1368052D01*
X1557870Y1369469D01*
X1560225Y1370444D01*
X1562725Y1370941D01*
X1564000Y1370941D01*
X1664941Y1370941D01*
Y699059D01*
D02*
G37*
%LPC*%
G36*
X995000Y937569D02*
X993634Y937297D01*
X992477Y936523D01*
X991703Y935366D01*
X991431Y934000D01*
X990366Y933297D01*
X989000Y933569D01*
X987634Y933297D01*
X986477Y932523D01*
X985703Y931366D01*
X985431Y930000D01*
X985703Y928634D01*
X986477Y927477D01*
X987634Y926703D01*
X989000Y926431D01*
X990366Y926703D01*
X991523Y927477D01*
X992297Y928634D01*
X992569Y930000D01*
X993634Y930703D01*
X995000Y930431D01*
X996366Y930703D01*
X997523Y931477D01*
X998297Y932634D01*
X998569Y934000D01*
X998297Y935366D01*
X997523Y936523D01*
X996366Y937297D01*
X995000Y937569D01*
D02*
G37*
G36*
X986998Y943567D02*
X985632Y943295D01*
X984475Y942522D01*
X983701Y941364D01*
X983429Y939998D01*
X983701Y938633D01*
X984475Y937475D01*
X985632Y936701D01*
X986998Y936430D01*
X988364Y936701D01*
X989521Y937475D01*
X990295Y938633D01*
X990567Y939998D01*
X990295Y941364D01*
X989521Y942522D01*
X988364Y943295D01*
X986998Y943567D01*
D02*
G37*
G36*
X980000Y1018321D02*
X977846Y1018038D01*
X975839Y1017206D01*
X974116Y1015884D01*
X972794Y1014161D01*
X971962Y1012154D01*
X971679Y1010000D01*
X971962Y1007846D01*
X972794Y1005839D01*
X974116Y1004116D01*
X975839Y1002794D01*
X977846Y1001962D01*
X980000Y1001679D01*
X982154Y1001962D01*
X984161Y1002794D01*
X985884Y1004116D01*
X987206Y1005839D01*
X988038Y1007846D01*
X988321Y1010000D01*
X988038Y1012154D01*
X987206Y1014161D01*
X985884Y1015884D01*
X984161Y1017206D01*
X982154Y1018038D01*
X980000Y1018321D01*
D02*
G37*
G36*
X1002000Y978333D02*
X1000342Y978003D01*
X998936Y977064D01*
X997997Y975658D01*
X997667Y974000D01*
X997997Y972342D01*
X998936Y970936D01*
X1000342Y969997D01*
X1002000Y969667D01*
X1003658Y969997D01*
X1005064Y970936D01*
X1006003Y972342D01*
X1006333Y974000D01*
X1006003Y975658D01*
X1005064Y977064D01*
X1003658Y978003D01*
X1002000Y978333D01*
D02*
G37*
G36*
X983000Y968569D02*
X981634Y968297D01*
X980477Y967523D01*
X979703Y966366D01*
X979431Y965000D01*
X979703Y963634D01*
X980477Y962477D01*
X981634Y961703D01*
X983000Y961431D01*
X984366Y961703D01*
X985523Y962477D01*
X986297Y963634D01*
X986569Y965000D01*
X986297Y966366D01*
X985523Y967523D01*
X984366Y968297D01*
X983000Y968569D01*
D02*
G37*
G36*
X980000Y992921D02*
X977846Y992638D01*
X975839Y991806D01*
X974116Y990484D01*
X972794Y988761D01*
X971962Y986754D01*
X971679Y984600D01*
X971962Y982446D01*
X972794Y980439D01*
X974116Y978716D01*
X975839Y977394D01*
X977846Y976562D01*
X980000Y976279D01*
X982154Y976562D01*
X984161Y977394D01*
X985884Y978716D01*
X987206Y980439D01*
X988038Y982446D01*
X988321Y984600D01*
X988038Y986754D01*
X987206Y988761D01*
X985884Y990484D01*
X984161Y991806D01*
X982154Y992638D01*
X980000Y992921D01*
D02*
G37*
G36*
X985000Y791199D02*
Y781800D01*
X994399D01*
X994148Y783702D01*
X993125Y786174D01*
X991496Y788296D01*
X989374Y789925D01*
X986902Y790948D01*
X985000Y791199D01*
D02*
G37*
G36*
X983500D02*
X981598Y790948D01*
X979126Y789925D01*
X977004Y788296D01*
X975375Y786174D01*
X974352Y783702D01*
X974101Y781800D01*
X983500D01*
Y791199D01*
D02*
G37*
G36*
X994399Y805700D02*
X985000D01*
Y796301D01*
X986902Y796552D01*
X989374Y797575D01*
X991496Y799204D01*
X993125Y801326D01*
X994148Y803798D01*
X994399Y805700D01*
D02*
G37*
G36*
X1009650Y815396D02*
X1007335Y815092D01*
X1005177Y814198D01*
X1003324Y812776D01*
X1001902Y810923D01*
X1001008Y808765D01*
X1000704Y806450D01*
X1001008Y804135D01*
X1001902Y801977D01*
X1003324Y800124D01*
X1005177Y798702D01*
X1007335Y797808D01*
X1009650Y797504D01*
X1011965Y797808D01*
X1014123Y798702D01*
X1015976Y800124D01*
X1017398Y801977D01*
X1018292Y804135D01*
X1018596Y806450D01*
X1018292Y808765D01*
X1017398Y810923D01*
X1015976Y812776D01*
X1014123Y814198D01*
X1011965Y815092D01*
X1009650Y815396D01*
D02*
G37*
G36*
X983500Y805700D02*
X974101D01*
X974352Y803798D01*
X975375Y801326D01*
X977004Y799204D01*
X979126Y797575D01*
X981598Y796552D01*
X983500Y796301D01*
Y805700D01*
D02*
G37*
G36*
X994399Y780300D02*
X985000D01*
Y770901D01*
X986902Y771152D01*
X989374Y772175D01*
X991496Y773804D01*
X993125Y775926D01*
X994148Y778398D01*
X994399Y780300D01*
D02*
G37*
G36*
X983500D02*
X974101D01*
X974352Y778398D01*
X975375Y775926D01*
X977004Y773804D01*
X979126Y772175D01*
X981598Y771152D01*
X983500Y770901D01*
Y780300D01*
D02*
G37*
G36*
X1020000Y845333D02*
X1018342Y845003D01*
X1016936Y844064D01*
X1015997Y842658D01*
X1015667Y841000D01*
X1015997Y839342D01*
X1016936Y837936D01*
X1018342Y836997D01*
X1020000Y836667D01*
X1021658Y836997D01*
X1023064Y837936D01*
X1024003Y839342D01*
X1024333Y841000D01*
X1024003Y842658D01*
X1023064Y844064D01*
X1021658Y845003D01*
X1020000Y845333D01*
D02*
G37*
G36*
X1022000Y872333D02*
X1020342Y872003D01*
X1018936Y871064D01*
X1017997Y869658D01*
X1017667Y868000D01*
X1017997Y866342D01*
X1018936Y864936D01*
X1020342Y863997D01*
X1022000Y863667D01*
X1023658Y863997D01*
X1025064Y864936D01*
X1026003Y866342D01*
X1026333Y868000D01*
X1026003Y869658D01*
X1025064Y871064D01*
X1023658Y872003D01*
X1022000Y872333D01*
D02*
G37*
G36*
X985000Y816599D02*
Y807200D01*
X994399D01*
X994148Y809102D01*
X993125Y811574D01*
X991496Y813696D01*
X989374Y815325D01*
X986902Y816348D01*
X985000Y816599D01*
D02*
G37*
G36*
X983500D02*
X981598Y816348D01*
X979126Y815325D01*
X977004Y813696D01*
X975375Y811574D01*
X974352Y809102D01*
X974101Y807200D01*
X983500D01*
Y816599D01*
D02*
G37*
G36*
X900000Y1217333D02*
X898342Y1217003D01*
X896936Y1216064D01*
X895997Y1214658D01*
X895667Y1213000D01*
X895997Y1211342D01*
X896936Y1209936D01*
X898342Y1208997D01*
X900000Y1208667D01*
X901658Y1208997D01*
X903064Y1209936D01*
X904003Y1211342D01*
X904333Y1213000D01*
X904003Y1214658D01*
X903064Y1216064D01*
X901658Y1217003D01*
X900000Y1217333D01*
D02*
G37*
G36*
X849000Y1228333D02*
X847342Y1228003D01*
X845936Y1227064D01*
X844997Y1225658D01*
X844667Y1224000D01*
X844997Y1222342D01*
X845936Y1220936D01*
X847342Y1219997D01*
X849000Y1219667D01*
X850658Y1219997D01*
X852064Y1220936D01*
X853003Y1222342D01*
X853333Y1224000D01*
X853003Y1225658D01*
X852064Y1227064D01*
X850658Y1228003D01*
X849000Y1228333D01*
D02*
G37*
G36*
X860000Y1250333D02*
X858342Y1250003D01*
X856936Y1249064D01*
X855997Y1247658D01*
X855667Y1246000D01*
X855997Y1244342D01*
X856936Y1242936D01*
X858342Y1241997D01*
X860000Y1241667D01*
X861658Y1241997D01*
X863064Y1242936D01*
X864003Y1244342D01*
X864333Y1246000D01*
X864003Y1247658D01*
X863064Y1249064D01*
X861658Y1250003D01*
X860000Y1250333D01*
D02*
G37*
G36*
X912000Y1248333D02*
X910342Y1248003D01*
X908936Y1247064D01*
X907997Y1245658D01*
X907667Y1244000D01*
X907997Y1242342D01*
X908936Y1240936D01*
X910342Y1239997D01*
X912000Y1239667D01*
X913658Y1239997D01*
X915064Y1240936D01*
X916003Y1242342D01*
X916333Y1244000D01*
X916003Y1245658D01*
X915064Y1247064D01*
X913658Y1248003D01*
X912000Y1248333D01*
D02*
G37*
G36*
X843998Y1237331D02*
X842340Y1237001D01*
X840934Y1236062D01*
X839995Y1234656D01*
X839665Y1232998D01*
X839995Y1231339D01*
X840934Y1229933D01*
X842340Y1228994D01*
X843998Y1228664D01*
X845657Y1228994D01*
X847062Y1229933D01*
X848002Y1231339D01*
X848332Y1232998D01*
X848002Y1234656D01*
X847062Y1236062D01*
X845657Y1237001D01*
X843998Y1237331D01*
D02*
G37*
G36*
X958000Y1194569D02*
X956634Y1194297D01*
X955477Y1193523D01*
X954703Y1192366D01*
X954548Y1191586D01*
X953637Y1191425D01*
X953229Y1191467D01*
X952523Y1192523D01*
X951366Y1193297D01*
X950000Y1193569D01*
X948634Y1193297D01*
X947477Y1192523D01*
X946703Y1191366D01*
X946431Y1190000D01*
X946703Y1188634D01*
X947477Y1187477D01*
X948634Y1186703D01*
X950000Y1186431D01*
X951366Y1186703D01*
X952523Y1187477D01*
X953297Y1188634D01*
X953452Y1189414D01*
X954363Y1189575D01*
X954771Y1189533D01*
X955477Y1188477D01*
X956634Y1187703D01*
X958000Y1187431D01*
X959366Y1187703D01*
X960523Y1188477D01*
X961297Y1189634D01*
X961569Y1191000D01*
X961297Y1192366D01*
X960523Y1193523D01*
X959366Y1194297D01*
X958000Y1194569D01*
D02*
G37*
G36*
X1009650Y1297997D02*
X1007335Y1297692D01*
X1005177Y1296798D01*
X1003324Y1295376D01*
X1001902Y1293523D01*
X1001008Y1291366D01*
X1000704Y1289050D01*
X1001008Y1286734D01*
X1001902Y1284577D01*
X1003324Y1282724D01*
X1005177Y1281302D01*
X1007335Y1280408D01*
X1009650Y1280103D01*
X1011965Y1280408D01*
X1014123Y1281302D01*
X1015976Y1282724D01*
X1017398Y1284577D01*
X1018292Y1286734D01*
X1018596Y1289050D01*
X1018292Y1291366D01*
X1017398Y1293523D01*
X1015976Y1295376D01*
X1014123Y1296798D01*
X1011965Y1297692D01*
X1009650Y1297997D01*
D02*
G37*
G36*
X984250D02*
X981935Y1297692D01*
X979777Y1296798D01*
X977924Y1295376D01*
X976502Y1293523D01*
X975608Y1291366D01*
X975303Y1289050D01*
X975608Y1286734D01*
X976502Y1284577D01*
X977924Y1282724D01*
X979777Y1281302D01*
X981935Y1280408D01*
X984250Y1280103D01*
X986565Y1280408D01*
X988723Y1281302D01*
X990576Y1282724D01*
X991998Y1284577D01*
X992892Y1286734D01*
X993196Y1289050D01*
X992892Y1291366D01*
X991998Y1293523D01*
X990576Y1295376D01*
X988723Y1296798D01*
X986565Y1297692D01*
X984250Y1297997D01*
D02*
G37*
G36*
X907000Y1293333D02*
X905342Y1293003D01*
X903936Y1292064D01*
X902997Y1290658D01*
X902667Y1289000D01*
X902997Y1287342D01*
X903936Y1285936D01*
X905342Y1284997D01*
X907000Y1284667D01*
X908658Y1284997D01*
X910064Y1285936D01*
X911003Y1287342D01*
X911333Y1289000D01*
X911003Y1290658D01*
X910064Y1292064D01*
X908658Y1293003D01*
X907000Y1293333D01*
D02*
G37*
G36*
X984250Y1272597D02*
X981935Y1272292D01*
X979777Y1271398D01*
X977924Y1269976D01*
X976502Y1268123D01*
X975608Y1265965D01*
X975303Y1263650D01*
X975608Y1261335D01*
X976502Y1259177D01*
X977924Y1257324D01*
X979777Y1255902D01*
X981935Y1255008D01*
X984250Y1254704D01*
X986565Y1255008D01*
X988723Y1255902D01*
X990576Y1257324D01*
X991998Y1259177D01*
X992892Y1261335D01*
X993196Y1263650D01*
X992892Y1265965D01*
X991998Y1268123D01*
X990576Y1269976D01*
X988723Y1271398D01*
X986565Y1272292D01*
X984250Y1272597D01*
D02*
G37*
G36*
X858000Y1280333D02*
X856342Y1280003D01*
X854936Y1279064D01*
X853997Y1277658D01*
X853667Y1276000D01*
X853997Y1274342D01*
X854936Y1272936D01*
X856342Y1271997D01*
X858000Y1271667D01*
X859658Y1271997D01*
X861064Y1272936D01*
X862003Y1274342D01*
X862333Y1276000D01*
X862003Y1277658D01*
X861064Y1279064D01*
X859658Y1280003D01*
X858000Y1280333D01*
D02*
G37*
G36*
X958850Y1297997D02*
X956535Y1297692D01*
X954377Y1296798D01*
X952524Y1295376D01*
X951102Y1293523D01*
X950208Y1291366D01*
X949903Y1289050D01*
X950208Y1286734D01*
X951102Y1284577D01*
X952524Y1282724D01*
X954377Y1281302D01*
X956535Y1280408D01*
X958850Y1280103D01*
X961165Y1280408D01*
X963323Y1281302D01*
X965176Y1282724D01*
X966598Y1284577D01*
X967492Y1286734D01*
X967796Y1289050D01*
X967492Y1291366D01*
X966598Y1293523D01*
X965176Y1295376D01*
X963323Y1296798D01*
X961165Y1297692D01*
X958850Y1297997D01*
D02*
G37*
G36*
X967720Y1272520D02*
X949980D01*
Y1254780D01*
X967720D01*
Y1272520D01*
D02*
G37*
G36*
X980000Y1094521D02*
X977846Y1094238D01*
X975839Y1093406D01*
X974116Y1092084D01*
X972794Y1090361D01*
X971962Y1088354D01*
X971679Y1086200D01*
X971962Y1084046D01*
X972794Y1082039D01*
X974116Y1080316D01*
X975839Y1078994D01*
X977846Y1078162D01*
X980000Y1077879D01*
X982154Y1078162D01*
X984161Y1078994D01*
X985884Y1080316D01*
X987206Y1082039D01*
X988038Y1084046D01*
X988321Y1086200D01*
X988038Y1088354D01*
X987206Y1090361D01*
X985884Y1092084D01*
X984161Y1093406D01*
X982154Y1094238D01*
X980000Y1094521D01*
D02*
G37*
G36*
X1024998Y1073566D02*
X1023632Y1073295D01*
X1022475Y1072521D01*
X1021701Y1071364D01*
X1021429Y1069998D01*
X1021701Y1068632D01*
X1022475Y1067475D01*
X1023632Y1066701D01*
X1024998Y1066429D01*
X1026364Y1066701D01*
X1027521Y1067475D01*
X1028295Y1068632D01*
X1028567Y1069998D01*
X1028295Y1071364D01*
X1027521Y1072521D01*
X1026364Y1073295D01*
X1024998Y1073566D01*
D02*
G37*
G36*
X980000Y1119921D02*
X977846Y1119638D01*
X975839Y1118806D01*
X974116Y1117484D01*
X972794Y1115761D01*
X971962Y1113754D01*
X971679Y1111600D01*
X971962Y1109446D01*
X972794Y1107439D01*
X974116Y1105716D01*
X975839Y1104394D01*
X977846Y1103562D01*
X980000Y1103279D01*
X982154Y1103562D01*
X984161Y1104394D01*
X985884Y1105716D01*
X987206Y1107439D01*
X988038Y1109446D01*
X988321Y1111600D01*
X988038Y1113754D01*
X987206Y1115761D01*
X985884Y1117484D01*
X984161Y1118806D01*
X982154Y1119638D01*
X980000Y1119921D01*
D02*
G37*
G36*
X1008000Y1089569D02*
X1006634Y1089297D01*
X1005477Y1088523D01*
X1004703Y1087366D01*
X1004431Y1086000D01*
X1004703Y1084634D01*
X1005477Y1083477D01*
X1006634Y1082703D01*
X1008000Y1082431D01*
X1009366Y1082703D01*
X1010523Y1083477D01*
X1011297Y1084634D01*
X1011569Y1086000D01*
X1011297Y1087366D01*
X1010523Y1088523D01*
X1009366Y1089297D01*
X1008000Y1089569D01*
D02*
G37*
G36*
X980000Y1043721D02*
X977846Y1043438D01*
X975839Y1042606D01*
X974116Y1041284D01*
X972794Y1039561D01*
X971962Y1037554D01*
X971679Y1035400D01*
X971962Y1033246D01*
X972794Y1031239D01*
X974116Y1029516D01*
X975839Y1028194D01*
X977846Y1027362D01*
X980000Y1027079D01*
X982154Y1027362D01*
X984161Y1028194D01*
X985884Y1029516D01*
X987206Y1031239D01*
X988038Y1033246D01*
X988321Y1035400D01*
X988038Y1037554D01*
X987206Y1039561D01*
X985884Y1041284D01*
X984161Y1042606D01*
X982154Y1043438D01*
X980000Y1043721D01*
D02*
G37*
G36*
Y1069121D02*
X977846Y1068838D01*
X975839Y1068006D01*
X974116Y1066684D01*
X972794Y1064961D01*
X971962Y1062954D01*
X971679Y1060800D01*
X971962Y1058646D01*
X972794Y1056639D01*
X974116Y1054916D01*
X975839Y1053594D01*
X977846Y1052762D01*
X980000Y1052479D01*
X982154Y1052762D01*
X984161Y1053594D01*
X985884Y1054916D01*
X987206Y1056639D01*
X988038Y1058646D01*
X988321Y1060800D01*
X988038Y1062954D01*
X987206Y1064961D01*
X985884Y1066684D01*
X984161Y1068006D01*
X982154Y1068838D01*
X980000Y1069121D01*
D02*
G37*
G36*
X998998Y1053331D02*
X997340Y1053001D01*
X995934Y1052062D01*
X994995Y1050656D01*
X994665Y1048998D01*
X994995Y1047340D01*
X995934Y1045934D01*
X997340Y1044995D01*
X998998Y1044665D01*
X1000656Y1044995D01*
X1002062Y1045934D01*
X1003001Y1047340D01*
X1003331Y1048998D01*
X1003001Y1050656D01*
X1002062Y1052062D01*
X1000656Y1053001D01*
X998998Y1053331D01*
D02*
G37*
G36*
X1000000Y1150569D02*
X998634Y1150297D01*
X997477Y1149523D01*
X996703Y1148366D01*
X996431Y1147000D01*
X996703Y1145634D01*
X997477Y1144477D01*
X998634Y1143703D01*
X1000000Y1143431D01*
X1001366Y1143703D01*
X1002523Y1144477D01*
X1003297Y1145634D01*
X1003569Y1147000D01*
X1003297Y1148366D01*
X1002523Y1149523D01*
X1001366Y1150297D01*
X1000000Y1150569D01*
D02*
G37*
G36*
X994000Y1143569D02*
X992634Y1143297D01*
X991477Y1142523D01*
X990703Y1141366D01*
X990431Y1140000D01*
X990703Y1138634D01*
X991477Y1137477D01*
X992634Y1136703D01*
X994000Y1136431D01*
X995366Y1136703D01*
X996523Y1137477D01*
X997297Y1138634D01*
X997569Y1140000D01*
X997297Y1141366D01*
X996523Y1142523D01*
X995366Y1143297D01*
X994000Y1143569D01*
D02*
G37*
G36*
X998000Y1122333D02*
X996342Y1122003D01*
X994936Y1121064D01*
X993997Y1119658D01*
X993667Y1118000D01*
X993997Y1116342D01*
X994936Y1114936D01*
X996342Y1113997D01*
X998000Y1113667D01*
X999658Y1113997D01*
X1001064Y1114936D01*
X1002003Y1116342D01*
X1002333Y1118000D01*
X1002003Y1119658D01*
X1001064Y1121064D01*
X999658Y1122003D01*
X998000Y1122333D01*
D02*
G37*
G36*
X988250Y1145250D02*
X971750D01*
Y1128750D01*
X988250D01*
Y1145250D01*
D02*
G37*
G36*
X997998Y1134331D02*
X996340Y1134001D01*
X994934Y1133062D01*
X993995Y1131656D01*
X993665Y1129998D01*
X993995Y1128339D01*
X994934Y1126934D01*
X996340Y1125994D01*
X997998Y1125665D01*
X999656Y1125994D01*
X1001062Y1126934D01*
X1002001Y1128339D01*
X1002331Y1129998D01*
X1002001Y1131656D01*
X1001062Y1133062D01*
X999656Y1134001D01*
X997998Y1134331D01*
D02*
G37*
G36*
X958100Y791210D02*
X948690D01*
Y781800D01*
X958100D01*
Y791210D01*
D02*
G37*
G36*
Y805700D02*
X948701D01*
X948951Y803798D01*
X949975Y801326D01*
X951604Y799204D01*
X953726Y797575D01*
X956198Y796552D01*
X958100Y796301D01*
Y805700D01*
D02*
G37*
G36*
Y780300D02*
X948690D01*
Y770890D01*
X958100D01*
Y780300D01*
D02*
G37*
G36*
X833000Y829333D02*
X831342Y829003D01*
X829936Y828064D01*
X828997Y826658D01*
X828667Y825000D01*
X828997Y823342D01*
X829936Y821936D01*
X831342Y820997D01*
X833000Y820667D01*
X834658Y820997D01*
X836064Y821936D01*
X837003Y823342D01*
X837333Y825000D01*
X837003Y826658D01*
X836064Y828064D01*
X834658Y829003D01*
X833000Y829333D01*
D02*
G37*
G36*
X812000Y840890D02*
X810342Y840560D01*
X808936Y839621D01*
X807997Y838215D01*
X807667Y836557D01*
X807997Y834899D01*
X808936Y833493D01*
X810342Y832553D01*
X812000Y832224D01*
X813658Y832553D01*
X815064Y833493D01*
X816003Y834899D01*
X816333Y836557D01*
X816003Y838215D01*
X815064Y839621D01*
X813658Y840560D01*
X812000Y840890D01*
D02*
G37*
G36*
X842000Y811333D02*
X840342Y811003D01*
X839389Y810367D01*
X838500Y810164D01*
X837611Y810367D01*
X836658Y811003D01*
X835000Y811333D01*
X833342Y811003D01*
X832389Y810367D01*
X831500Y810164D01*
X830611Y810367D01*
X829658Y811003D01*
X828000Y811333D01*
X826342Y811003D01*
X825389Y810367D01*
X824500Y810164D01*
X823611Y810367D01*
X822658Y811003D01*
X821000Y811333D01*
X819342Y811003D01*
X818389Y810367D01*
X817500Y810164D01*
X816611Y810367D01*
X815658Y811003D01*
X814000Y811333D01*
X812342Y811003D01*
X811389Y810367D01*
X810500Y810164D01*
X809611Y810367D01*
X808658Y811003D01*
X807000Y811333D01*
X805342Y811003D01*
X803936Y810064D01*
X802997Y808658D01*
X802667Y807000D01*
X802997Y805342D01*
X803936Y803936D01*
X805342Y802997D01*
X807000Y802667D01*
X808658Y802997D01*
X809611Y803633D01*
X810500Y803836D01*
X811389Y803633D01*
X812342Y802997D01*
X814000Y802667D01*
X815658Y802997D01*
X816611Y803633D01*
X817500Y803836D01*
X818389Y803633D01*
X819342Y802997D01*
X821000Y802667D01*
X822658Y802997D01*
X823611Y803633D01*
X824500Y803836D01*
X825389Y803633D01*
X826342Y802997D01*
X828000Y802667D01*
X829658Y802997D01*
X830611Y803633D01*
X831500Y803836D01*
X832389Y803633D01*
X833342Y802997D01*
X835000Y802667D01*
X836658Y802997D01*
X837611Y803633D01*
X838500Y803836D01*
X839389Y803633D01*
X840342Y802997D01*
X842000Y802667D01*
X843658Y802997D01*
X845064Y803936D01*
X846003Y805342D01*
X846333Y807000D01*
X846003Y808658D01*
X845064Y810064D01*
X843658Y811003D01*
X842000Y811333D01*
D02*
G37*
G36*
X958100Y816599D02*
X956198Y816348D01*
X953726Y815325D01*
X951604Y813696D01*
X949975Y811574D01*
X948951Y809102D01*
X948701Y807200D01*
X958100D01*
Y816599D01*
D02*
G37*
G36*
X1473997Y933331D02*
X1472339Y933002D01*
X1470933Y932062D01*
X1469994Y930656D01*
X1469664Y928998D01*
X1469994Y927340D01*
X1470933Y925934D01*
X1472339Y924995D01*
X1473997Y924665D01*
X1475655Y924995D01*
X1477061Y925934D01*
X1478000Y927340D01*
X1478330Y928998D01*
X1478000Y930656D01*
X1477061Y932062D01*
X1475655Y933002D01*
X1473997Y933331D01*
D02*
G37*
G36*
X1319000Y934333D02*
X1317342Y934003D01*
X1315936Y933064D01*
X1314997Y931658D01*
X1314667Y930000D01*
X1314997Y928342D01*
X1315936Y926936D01*
X1317342Y925997D01*
X1319000Y925667D01*
X1320658Y925997D01*
X1322064Y926936D01*
X1323003Y928342D01*
X1323333Y930000D01*
X1323003Y931658D01*
X1322064Y933064D01*
X1320658Y934003D01*
X1319000Y934333D01*
D02*
G37*
G36*
X1303000Y925333D02*
X1301342Y925003D01*
X1299936Y924064D01*
X1298997Y922658D01*
X1298667Y921000D01*
X1298997Y919342D01*
X1299936Y917936D01*
X1301342Y916997D01*
X1303000Y916667D01*
X1304658Y916997D01*
X1306064Y917936D01*
X1307003Y919342D01*
X1307333Y921000D01*
X1307003Y922658D01*
X1306064Y924064D01*
X1304658Y925003D01*
X1303000Y925333D01*
D02*
G37*
G36*
X1245000Y921333D02*
X1243342Y921003D01*
X1241936Y920064D01*
X1240997Y918658D01*
X1240667Y917000D01*
X1240997Y915342D01*
X1241936Y913936D01*
X1243342Y912997D01*
X1245000Y912667D01*
X1246658Y912997D01*
X1248064Y913936D01*
X1249003Y915342D01*
X1249333Y917000D01*
X1249003Y918658D01*
X1248064Y920064D01*
X1246658Y921003D01*
X1245000Y921333D01*
D02*
G37*
G36*
X1270000D02*
X1268342Y921003D01*
X1266936Y920064D01*
X1265997Y918658D01*
X1265667Y917000D01*
X1265997Y915342D01*
X1266936Y913936D01*
X1268342Y912997D01*
X1270000Y912667D01*
X1271658Y912997D01*
X1273064Y913936D01*
X1274003Y915342D01*
X1274333Y917000D01*
X1274003Y918658D01*
X1273064Y920064D01*
X1271658Y921003D01*
X1270000Y921333D01*
D02*
G37*
G36*
X1378000Y923333D02*
X1376342Y923003D01*
X1374936Y922064D01*
X1373997Y920658D01*
X1373667Y919000D01*
X1373997Y917342D01*
X1374936Y915936D01*
X1376342Y914997D01*
X1378000Y914667D01*
X1379658Y914997D01*
X1381064Y915936D01*
X1382003Y917342D01*
X1382333Y919000D01*
X1382003Y920658D01*
X1381064Y922064D01*
X1379658Y923003D01*
X1378000Y923333D01*
D02*
G37*
G36*
X1472750Y955333D02*
X1471092Y955003D01*
X1469686Y954064D01*
X1468747Y952658D01*
X1468417Y951000D01*
X1468747Y949342D01*
X1469686Y947936D01*
X1471092Y946997D01*
X1472750Y946667D01*
X1474408Y946997D01*
X1475814Y947936D01*
X1476753Y949342D01*
X1477083Y951000D01*
X1476753Y952658D01*
X1475814Y954064D01*
X1474408Y955003D01*
X1472750Y955333D01*
D02*
G37*
G36*
X1256000Y953333D02*
X1254342Y953003D01*
X1252936Y952064D01*
X1251997Y950658D01*
X1251667Y949000D01*
X1251997Y947342D01*
X1252936Y945936D01*
X1254342Y944997D01*
X1256000Y944667D01*
X1257658Y944997D01*
X1259064Y945936D01*
X1260003Y947342D01*
X1260333Y949000D01*
X1260003Y950658D01*
X1259064Y952064D01*
X1257658Y953003D01*
X1256000Y953333D01*
D02*
G37*
G36*
X1413000Y935833D02*
X1411342Y935503D01*
X1409936Y934564D01*
X1408997Y933158D01*
X1408667Y931500D01*
X1408997Y929842D01*
X1409936Y928436D01*
X1411342Y927497D01*
X1413000Y927167D01*
X1414658Y927497D01*
X1416064Y928436D01*
X1417003Y929842D01*
X1417333Y931500D01*
X1417003Y933158D01*
X1416064Y934564D01*
X1414658Y935503D01*
X1413000Y935833D01*
D02*
G37*
G36*
X1472500Y943333D02*
X1470842Y943003D01*
X1469436Y942064D01*
X1468497Y940658D01*
X1468167Y939000D01*
X1468497Y937342D01*
X1469436Y935936D01*
X1470842Y934997D01*
X1472500Y934667D01*
X1474158Y934997D01*
X1475564Y935936D01*
X1476503Y937342D01*
X1476833Y939000D01*
X1476503Y940658D01*
X1475564Y942064D01*
X1474158Y943003D01*
X1472500Y943333D01*
D02*
G37*
G36*
X1406000Y892333D02*
X1404342Y892003D01*
X1402936Y891064D01*
X1401997Y889658D01*
X1401667Y888000D01*
X1401997Y886342D01*
X1402936Y884936D01*
X1404342Y883997D01*
X1406000Y883667D01*
X1407658Y883997D01*
X1409064Y884936D01*
X1410003Y886342D01*
X1410333Y888000D01*
X1410003Y889658D01*
X1409064Y891064D01*
X1407658Y892003D01*
X1406000Y892333D01*
D02*
G37*
G36*
X1453000Y891333D02*
X1451342Y891003D01*
X1449936Y890064D01*
X1448997Y888658D01*
X1448667Y887000D01*
X1448997Y885342D01*
X1449936Y883936D01*
X1451342Y882997D01*
X1453000Y882667D01*
X1454658Y882997D01*
X1456064Y883936D01*
X1457003Y885342D01*
X1457333Y887000D01*
X1457003Y888658D01*
X1456064Y890064D01*
X1454658Y891003D01*
X1453000Y891333D01*
D02*
G37*
G36*
X1229000Y893333D02*
X1227342Y893003D01*
X1225936Y892064D01*
X1224997Y890658D01*
X1224667Y889000D01*
X1224997Y887342D01*
X1225936Y885936D01*
X1227342Y884997D01*
X1229000Y884667D01*
X1230658Y884997D01*
X1232064Y885936D01*
X1233003Y887342D01*
X1233333Y889000D01*
X1233003Y890658D01*
X1232064Y892064D01*
X1230658Y893003D01*
X1229000Y893333D01*
D02*
G37*
G36*
X1364000D02*
X1362342Y893003D01*
X1360936Y892064D01*
X1359997Y890658D01*
X1359667Y889000D01*
X1359997Y887342D01*
X1360936Y885936D01*
X1362342Y884997D01*
X1364000Y884667D01*
X1365658Y884997D01*
X1367064Y885936D01*
X1368003Y887342D01*
X1368333Y889000D01*
X1368003Y890658D01*
X1367064Y892064D01*
X1365658Y893003D01*
X1364000Y893333D01*
D02*
G37*
G36*
X1295000Y875333D02*
X1293342Y875003D01*
X1291936Y874064D01*
X1290997Y872658D01*
X1290667Y871000D01*
X1290997Y869342D01*
X1291936Y867936D01*
X1293342Y866997D01*
X1295000Y866667D01*
X1296658Y866997D01*
X1298064Y867936D01*
X1299003Y869342D01*
X1299333Y871000D01*
X1299003Y872658D01*
X1298064Y874064D01*
X1296658Y875003D01*
X1295000Y875333D01*
D02*
G37*
G36*
X1314000D02*
X1312342Y875003D01*
X1310936Y874064D01*
X1309997Y872658D01*
X1309667Y871000D01*
X1309997Y869342D01*
X1310936Y867936D01*
X1312342Y866997D01*
X1314000Y866667D01*
X1315658Y866997D01*
X1317064Y867936D01*
X1318003Y869342D01*
X1318333Y871000D01*
X1318003Y872658D01*
X1317064Y874064D01*
X1315658Y875003D01*
X1314000Y875333D01*
D02*
G37*
G36*
X1500500Y913833D02*
X1498842Y913503D01*
X1497436Y912564D01*
X1496496Y911158D01*
X1496167Y909500D01*
X1496496Y907842D01*
X1497436Y906436D01*
X1498842Y905497D01*
X1500500Y905167D01*
X1502158Y905497D01*
X1503564Y906436D01*
X1504503Y907842D01*
X1504833Y909500D01*
X1504503Y911158D01*
X1503564Y912564D01*
X1502158Y913503D01*
X1500500Y913833D01*
D02*
G37*
G36*
X1365000Y914333D02*
X1363342Y914003D01*
X1361936Y913064D01*
X1360997Y911658D01*
X1360667Y910000D01*
X1360997Y908342D01*
X1361936Y906936D01*
X1363342Y905997D01*
X1365000Y905667D01*
X1366658Y905997D01*
X1368064Y906936D01*
X1369003Y908342D01*
X1369333Y910000D01*
X1369003Y911658D01*
X1368064Y913064D01*
X1366658Y914003D01*
X1365000Y914333D01*
D02*
G37*
G36*
X1331000Y902333D02*
X1329342Y902003D01*
X1327936Y901064D01*
X1326997Y899658D01*
X1326667Y898000D01*
X1326997Y896342D01*
X1327936Y894936D01*
X1329342Y893997D01*
X1331000Y893667D01*
X1332658Y893997D01*
X1334064Y894936D01*
X1335003Y896342D01*
X1335333Y898000D01*
X1335003Y899658D01*
X1334064Y901064D01*
X1332658Y902003D01*
X1331000Y902333D01*
D02*
G37*
G36*
X1419000Y904333D02*
X1417342Y904003D01*
X1415936Y903064D01*
X1414997Y901658D01*
X1414667Y900000D01*
X1414997Y898342D01*
X1415936Y896936D01*
X1417342Y895997D01*
X1419000Y895667D01*
X1420658Y895997D01*
X1422064Y896936D01*
X1423003Y898342D01*
X1423333Y900000D01*
X1423003Y901658D01*
X1422064Y903064D01*
X1420658Y904003D01*
X1419000Y904333D01*
D02*
G37*
G36*
X1259000Y903333D02*
X1257342Y903003D01*
X1256000Y902107D01*
X1254658Y903003D01*
X1253000Y903333D01*
X1251342Y903003D01*
X1250000Y902107D01*
X1248658Y903003D01*
X1247000Y903333D01*
X1245342Y903003D01*
X1243936Y902064D01*
X1242997Y900658D01*
X1242667Y899000D01*
X1242997Y897342D01*
X1243936Y895936D01*
X1245342Y894997D01*
X1247000Y894667D01*
X1248658Y894997D01*
X1250000Y895893D01*
X1251342Y894997D01*
X1253000Y894667D01*
X1254658Y894997D01*
X1256000Y895893D01*
X1257342Y894997D01*
X1259000Y894667D01*
X1260658Y894997D01*
X1262064Y895936D01*
X1263003Y897342D01*
X1263333Y899000D01*
X1263003Y900658D01*
X1262064Y902064D01*
X1260658Y903003D01*
X1259000Y903333D01*
D02*
G37*
G36*
X1271000Y903569D02*
X1269634Y903297D01*
X1268477Y902523D01*
X1267703Y901366D01*
X1267431Y900000D01*
X1267703Y898634D01*
X1268477Y897477D01*
X1269634Y896703D01*
X1271000Y896431D01*
X1272366Y896703D01*
X1273523Y897477D01*
X1274297Y898634D01*
X1274569Y900000D01*
X1274297Y901366D01*
X1273523Y902523D01*
X1272366Y903297D01*
X1271000Y903569D01*
D02*
G37*
G36*
X1323000Y1010333D02*
X1321342Y1010003D01*
X1319936Y1009064D01*
X1318997Y1007658D01*
X1318667Y1006000D01*
X1318997Y1004342D01*
X1319936Y1002936D01*
X1321342Y1001997D01*
X1323000Y1001667D01*
X1324658Y1001997D01*
X1326064Y1002936D01*
X1327003Y1004342D01*
X1327333Y1006000D01*
X1327003Y1007658D01*
X1326064Y1009064D01*
X1324658Y1010003D01*
X1323000Y1010333D01*
D02*
G37*
G36*
X1555753Y1011514D02*
X1554094Y1011184D01*
X1552688Y1010245D01*
X1551749Y1008839D01*
X1551419Y1007181D01*
X1551749Y1005522D01*
X1552688Y1004117D01*
X1554094Y1003177D01*
X1555753Y1002847D01*
X1557411Y1003177D01*
X1558817Y1004117D01*
X1559756Y1005522D01*
X1560086Y1007181D01*
X1559756Y1008839D01*
X1558817Y1010245D01*
X1557411Y1011184D01*
X1555753Y1011514D01*
D02*
G37*
G36*
X1362000Y1005333D02*
X1360342Y1005003D01*
X1358936Y1004064D01*
X1357997Y1002658D01*
X1357965Y1002499D01*
X1356617Y1002231D01*
X1356061Y1003062D01*
X1354655Y1004001D01*
X1352997Y1004331D01*
X1351339Y1004001D01*
X1349933Y1003062D01*
X1348994Y1001656D01*
X1348664Y999998D01*
X1348994Y998340D01*
X1349933Y996934D01*
X1351339Y995995D01*
X1352997Y995665D01*
X1354655Y995995D01*
X1356061Y996934D01*
X1357001Y998340D01*
X1357032Y998499D01*
X1358381Y998767D01*
X1358936Y997936D01*
X1360342Y996997D01*
X1362000Y996667D01*
X1363658Y996997D01*
X1365064Y997936D01*
X1366003Y999342D01*
X1366333Y1001000D01*
X1366003Y1002658D01*
X1365064Y1004064D01*
X1363658Y1005003D01*
X1362000Y1005333D01*
D02*
G37*
G36*
X1283000Y1010333D02*
X1281342Y1010003D01*
X1279936Y1009064D01*
X1278997Y1007658D01*
X1278667Y1006000D01*
X1278997Y1004342D01*
X1279936Y1002936D01*
X1281342Y1001997D01*
X1283000Y1001667D01*
X1284658Y1001997D01*
X1286064Y1002936D01*
X1287003Y1004342D01*
X1287333Y1006000D01*
X1287003Y1007658D01*
X1286064Y1009064D01*
X1284658Y1010003D01*
X1283000Y1010333D01*
D02*
G37*
G36*
X1267500Y1003833D02*
X1265842Y1003503D01*
X1264436Y1002564D01*
X1263497Y1001158D01*
X1263167Y999500D01*
X1263497Y997842D01*
X1264436Y996436D01*
X1265842Y995497D01*
X1267500Y995167D01*
X1269158Y995497D01*
X1270564Y996436D01*
X1271503Y997842D01*
X1271833Y999500D01*
X1271503Y1001158D01*
X1270564Y1002564D01*
X1269158Y1003503D01*
X1267500Y1003833D01*
D02*
G37*
G36*
X1309000Y1006333D02*
X1307342Y1006003D01*
X1305936Y1005064D01*
X1304997Y1003658D01*
X1304667Y1002000D01*
X1304997Y1000342D01*
X1305936Y998936D01*
X1307342Y997997D01*
X1309000Y997667D01*
X1310658Y997997D01*
X1312064Y998936D01*
X1313003Y1000342D01*
X1313333Y1002000D01*
X1313003Y1003658D01*
X1312064Y1005064D01*
X1310658Y1006003D01*
X1309000Y1006333D01*
D02*
G37*
G36*
X1342997Y1004331D02*
X1341339Y1004001D01*
X1339933Y1003062D01*
X1338994Y1001656D01*
X1338664Y999998D01*
X1338994Y998340D01*
X1339933Y996934D01*
X1341339Y995995D01*
X1342997Y995665D01*
X1344656Y995995D01*
X1346061Y996934D01*
X1347001Y998340D01*
X1347331Y999998D01*
X1347001Y1001656D01*
X1346061Y1003062D01*
X1344656Y1004001D01*
X1342997Y1004331D01*
D02*
G37*
G36*
X1478000Y1033333D02*
X1476342Y1033003D01*
X1474936Y1032064D01*
X1473997Y1030658D01*
X1473667Y1029000D01*
X1473997Y1027342D01*
X1474936Y1025936D01*
X1476342Y1024997D01*
X1478000Y1024667D01*
X1479658Y1024997D01*
X1481064Y1025936D01*
X1482003Y1027342D01*
X1482333Y1029000D01*
X1482003Y1030658D01*
X1481064Y1032064D01*
X1479658Y1033003D01*
X1478000Y1033333D01*
D02*
G37*
G36*
X1574250Y1041333D02*
X1572592Y1041003D01*
X1571186Y1040064D01*
X1570247Y1038658D01*
X1569917Y1037000D01*
X1570247Y1035342D01*
X1571186Y1033936D01*
X1571761Y1033552D01*
X1570997Y1032408D01*
X1570667Y1030750D01*
X1570997Y1029092D01*
X1571936Y1027686D01*
X1573342Y1026747D01*
X1575000Y1026417D01*
X1576658Y1026747D01*
X1578064Y1027686D01*
X1579003Y1029092D01*
X1579333Y1030750D01*
X1579003Y1032408D01*
X1578064Y1033814D01*
X1577489Y1034198D01*
X1578253Y1035342D01*
X1578583Y1037000D01*
X1578253Y1038658D01*
X1577314Y1040064D01*
X1575908Y1041003D01*
X1574250Y1041333D01*
D02*
G37*
G36*
X1414000Y1034583D02*
X1412342Y1034253D01*
X1410936Y1033314D01*
X1409997Y1031908D01*
X1409667Y1030250D01*
X1409997Y1028592D01*
X1410936Y1027186D01*
X1412342Y1026247D01*
X1414000Y1025917D01*
X1415658Y1026247D01*
X1417064Y1027186D01*
X1418003Y1028592D01*
X1418333Y1030250D01*
X1418003Y1031908D01*
X1417064Y1033314D01*
X1415658Y1034253D01*
X1414000Y1034583D01*
D02*
G37*
G36*
X1268000Y1034333D02*
X1266342Y1034003D01*
X1264936Y1033064D01*
X1263997Y1031658D01*
X1263667Y1030000D01*
X1263997Y1028342D01*
X1264936Y1026936D01*
X1265764Y1026382D01*
X1265496Y1025034D01*
X1265342Y1025003D01*
X1263936Y1024064D01*
X1262997Y1022658D01*
X1262667Y1021000D01*
X1262997Y1019342D01*
X1263936Y1017936D01*
X1265342Y1016997D01*
X1267000Y1016667D01*
X1268658Y1016997D01*
X1270064Y1017936D01*
X1271003Y1019342D01*
X1271333Y1021000D01*
X1271003Y1022658D01*
X1270064Y1024064D01*
X1269236Y1024618D01*
X1269504Y1025966D01*
X1269658Y1025997D01*
X1271064Y1026936D01*
X1272003Y1028342D01*
X1272333Y1030000D01*
X1272003Y1031658D01*
X1271064Y1033064D01*
X1269658Y1034003D01*
X1268000Y1034333D01*
D02*
G37*
G36*
X1575250Y1022333D02*
X1573592Y1022003D01*
X1572186Y1021064D01*
X1571247Y1019658D01*
X1570917Y1018000D01*
X1571247Y1016342D01*
X1572186Y1014936D01*
X1573592Y1013997D01*
X1575250Y1013667D01*
X1576908Y1013997D01*
X1578314Y1014936D01*
X1579253Y1016342D01*
X1579583Y1018000D01*
X1579253Y1019658D01*
X1578314Y1021064D01*
X1576908Y1022003D01*
X1575250Y1022333D01*
D02*
G37*
G36*
X1441000Y1030333D02*
X1439342Y1030003D01*
X1437936Y1029064D01*
X1436997Y1027658D01*
X1436667Y1026000D01*
X1436997Y1024342D01*
X1437936Y1022936D01*
X1439342Y1021997D01*
X1439690Y1021927D01*
X1439958Y1020579D01*
X1439936Y1020564D01*
X1438997Y1019158D01*
X1438667Y1017500D01*
X1438997Y1015842D01*
X1439936Y1014436D01*
X1441342Y1013497D01*
X1443000Y1013167D01*
X1444658Y1013497D01*
X1446064Y1014436D01*
X1447003Y1015842D01*
X1447333Y1017500D01*
X1447003Y1019158D01*
X1446064Y1020564D01*
X1444658Y1021503D01*
X1444310Y1021573D01*
X1444042Y1022921D01*
X1444064Y1022936D01*
X1445003Y1024342D01*
X1445333Y1026000D01*
X1445003Y1027658D01*
X1444064Y1029064D01*
X1442658Y1030003D01*
X1441000Y1030333D01*
D02*
G37*
G36*
X1331997Y1001331D02*
X1330339Y1001001D01*
X1328933Y1000062D01*
X1327994Y998656D01*
X1327664Y996998D01*
X1327994Y995340D01*
X1328933Y993934D01*
X1330339Y992995D01*
X1331997Y992665D01*
X1333656Y992995D01*
X1335061Y993934D01*
X1336001Y995340D01*
X1336331Y996998D01*
X1336001Y998656D01*
X1335061Y1000062D01*
X1333656Y1001001D01*
X1331997Y1001331D01*
D02*
G37*
G36*
X1226998Y982331D02*
X1225339Y982001D01*
X1223933Y981062D01*
X1222994Y979656D01*
X1222664Y977998D01*
X1222994Y976340D01*
X1223933Y974934D01*
X1225339Y973995D01*
X1226998Y973665D01*
X1228656Y973995D01*
X1230062Y974934D01*
X1231001Y976340D01*
X1231331Y977998D01*
X1231001Y979656D01*
X1230062Y981062D01*
X1228656Y982001D01*
X1226998Y982331D01*
D02*
G37*
G36*
X1320000Y979333D02*
X1318342Y979003D01*
X1316936Y978064D01*
X1315997Y976658D01*
X1315667Y975000D01*
X1315997Y973342D01*
X1316936Y971936D01*
X1318342Y970997D01*
X1320000Y970667D01*
X1321658Y970997D01*
X1323064Y971936D01*
X1324003Y973342D01*
X1324333Y975000D01*
X1324003Y976658D01*
X1323064Y978064D01*
X1321658Y979003D01*
X1320000Y979333D01*
D02*
G37*
G36*
X1206000Y983333D02*
X1204342Y983003D01*
X1202936Y982064D01*
X1201997Y980658D01*
X1201667Y979000D01*
X1201997Y977342D01*
X1202936Y975936D01*
X1204342Y974997D01*
X1206000Y974667D01*
X1207658Y974997D01*
X1209064Y975936D01*
X1210003Y977342D01*
X1210333Y979000D01*
X1210003Y980658D01*
X1209064Y982064D01*
X1207658Y983003D01*
X1206000Y983333D01*
D02*
G37*
G36*
X1472750Y967583D02*
X1471092Y967253D01*
X1469686Y966314D01*
X1468747Y964908D01*
X1468417Y963250D01*
X1468747Y961592D01*
X1469686Y960186D01*
X1471092Y959247D01*
X1472750Y958917D01*
X1474408Y959247D01*
X1475814Y960186D01*
X1476753Y961592D01*
X1477083Y963250D01*
X1476753Y964908D01*
X1475814Y966314D01*
X1474408Y967253D01*
X1472750Y967583D01*
D02*
G37*
G36*
X1572000Y977333D02*
X1570342Y977003D01*
X1568936Y976064D01*
X1567997Y974658D01*
X1567667Y973000D01*
X1567997Y971342D01*
X1568936Y969936D01*
X1570342Y968997D01*
X1572000Y968667D01*
X1573658Y968997D01*
X1575064Y969936D01*
X1576003Y971342D01*
X1576333Y973000D01*
X1576003Y974658D01*
X1575064Y976064D01*
X1573658Y977003D01*
X1572000Y977333D01*
D02*
G37*
G36*
X1286000Y993333D02*
X1284342Y993003D01*
X1282936Y992064D01*
X1281997Y990658D01*
X1281667Y989000D01*
X1281997Y987342D01*
X1282936Y985936D01*
X1284342Y984997D01*
X1286000Y984667D01*
X1287658Y984997D01*
X1289064Y985936D01*
X1290003Y987342D01*
X1290333Y989000D01*
X1290003Y990658D01*
X1289064Y992064D01*
X1287658Y993003D01*
X1286000Y993333D01*
D02*
G37*
G36*
X1247000Y1000333D02*
X1245342Y1000003D01*
X1243936Y999064D01*
X1242997Y997658D01*
X1242667Y996000D01*
X1242997Y994342D01*
X1243936Y992936D01*
X1245342Y991997D01*
X1247000Y991667D01*
X1248658Y991997D01*
X1250064Y992936D01*
X1251003Y994342D01*
X1251333Y996000D01*
X1251003Y997658D01*
X1250064Y999064D01*
X1248658Y1000003D01*
X1247000Y1000333D01*
D02*
G37*
G36*
X1319000Y994333D02*
X1317342Y994003D01*
X1315936Y993064D01*
X1314997Y991658D01*
X1314667Y990000D01*
X1314997Y988342D01*
X1315936Y986936D01*
X1317342Y985997D01*
X1319000Y985667D01*
X1320658Y985997D01*
X1322064Y986936D01*
X1323003Y988342D01*
X1323333Y990000D01*
X1323003Y991658D01*
X1322064Y993064D01*
X1320658Y994003D01*
X1319000Y994333D01*
D02*
G37*
G36*
X1492000Y986333D02*
X1490342Y986003D01*
X1488936Y985064D01*
X1487997Y983658D01*
X1487667Y982000D01*
X1487997Y980342D01*
X1488936Y978936D01*
X1490342Y977997D01*
X1492000Y977667D01*
X1493658Y977997D01*
X1495064Y978936D01*
X1496003Y980342D01*
X1496333Y982000D01*
X1496003Y983658D01*
X1495064Y985064D01*
X1493658Y986003D01*
X1492000Y986333D01*
D02*
G37*
G36*
X1327997Y985331D02*
X1326339Y985002D01*
X1324933Y984062D01*
X1323994Y982656D01*
X1323664Y980998D01*
X1323994Y979340D01*
X1324933Y977934D01*
X1326339Y976995D01*
X1327997Y976665D01*
X1329656Y976995D01*
X1331061Y977934D01*
X1332001Y979340D01*
X1332331Y980998D01*
X1332001Y982656D01*
X1331061Y984062D01*
X1329656Y985002D01*
X1327997Y985331D01*
D02*
G37*
G36*
X1424000Y986333D02*
X1422342Y986003D01*
X1420936Y985064D01*
X1419997Y983658D01*
X1419667Y982000D01*
X1419997Y980342D01*
X1420936Y978936D01*
X1422342Y977997D01*
X1424000Y977667D01*
X1425658Y977997D01*
X1427064Y978936D01*
X1428003Y980342D01*
X1428333Y982000D01*
X1428003Y983658D01*
X1427064Y985064D01*
X1425658Y986003D01*
X1424000Y986333D01*
D02*
G37*
G36*
X1445000Y985333D02*
X1443342Y985003D01*
X1441936Y984064D01*
X1440997Y982658D01*
X1440667Y981000D01*
X1440997Y979342D01*
X1441936Y977936D01*
X1443342Y976997D01*
X1445000Y976667D01*
X1446658Y976997D01*
X1448064Y977936D01*
X1449003Y979342D01*
X1449333Y981000D01*
X1449003Y982658D01*
X1448064Y984064D01*
X1446658Y985003D01*
X1445000Y985333D01*
D02*
G37*
G36*
X1494000Y853333D02*
X1492342Y853003D01*
X1490936Y852064D01*
X1489997Y850658D01*
X1489667Y849000D01*
X1489997Y847342D01*
X1490936Y845936D01*
X1492342Y844997D01*
X1494000Y844667D01*
X1495658Y844997D01*
X1497064Y845936D01*
X1498003Y847342D01*
X1498333Y849000D01*
X1498003Y850658D01*
X1497064Y852064D01*
X1495658Y853003D01*
X1494000Y853333D01*
D02*
G37*
G36*
X1416997Y853332D02*
X1415339Y853002D01*
X1413933Y852062D01*
X1412994Y850657D01*
X1412664Y848998D01*
X1412994Y847340D01*
X1413933Y845934D01*
X1415339Y844995D01*
X1416997Y844665D01*
X1418655Y844995D01*
X1420061Y845934D01*
X1421001Y847340D01*
X1421330Y848998D01*
X1421001Y850657D01*
X1420061Y852062D01*
X1418655Y853002D01*
X1416997Y853332D01*
D02*
G37*
G36*
X1391000Y870333D02*
X1389342Y870003D01*
X1387936Y869064D01*
X1386997Y867658D01*
X1386667Y866000D01*
X1386997Y864342D01*
X1387936Y862936D01*
X1389342Y861997D01*
X1391000Y861667D01*
X1392658Y861997D01*
X1394064Y862936D01*
X1395003Y864342D01*
X1395333Y866000D01*
X1395003Y867658D01*
X1394064Y869064D01*
X1392658Y870003D01*
X1391000Y870333D01*
D02*
G37*
G36*
X1570000Y880333D02*
X1568342Y880003D01*
X1566936Y879064D01*
X1565997Y877658D01*
X1565667Y876000D01*
X1565997Y874342D01*
X1566936Y872936D01*
X1568029Y872206D01*
X1568107Y871904D01*
Y871096D01*
X1568029Y870794D01*
X1566936Y870064D01*
X1565997Y868658D01*
X1565667Y867000D01*
X1565997Y865342D01*
X1566936Y863936D01*
X1568342Y862997D01*
X1570000Y862667D01*
X1571658Y862997D01*
X1573064Y863936D01*
X1574003Y865342D01*
X1574333Y867000D01*
X1574003Y868658D01*
X1573064Y870064D01*
X1571971Y870794D01*
X1571893Y871096D01*
Y871904D01*
X1571971Y872206D01*
X1573064Y872936D01*
X1574003Y874342D01*
X1574333Y876000D01*
X1574003Y877658D01*
X1573064Y879064D01*
X1571658Y880003D01*
X1570000Y880333D01*
D02*
G37*
G36*
X1439000Y866333D02*
X1437342Y866003D01*
X1435936Y865064D01*
X1434997Y863658D01*
X1434667Y862000D01*
X1434997Y860342D01*
X1435936Y858936D01*
X1437342Y857997D01*
X1439000Y857667D01*
X1440658Y857997D01*
X1442064Y858936D01*
X1443003Y860342D01*
X1443333Y862000D01*
X1443003Y863658D01*
X1442064Y865064D01*
X1440658Y866003D01*
X1439000Y866333D01*
D02*
G37*
G36*
X1380997Y862331D02*
X1379339Y862002D01*
X1377933Y861062D01*
X1376994Y859657D01*
X1376664Y857998D01*
X1376994Y856340D01*
X1377933Y854934D01*
X1379339Y853995D01*
X1380997Y853665D01*
X1382655Y853995D01*
X1384061Y854934D01*
X1385001Y856340D01*
X1385331Y857998D01*
X1385001Y859657D01*
X1384061Y861062D01*
X1382655Y862002D01*
X1380997Y862331D01*
D02*
G37*
G36*
X1379000Y1217333D02*
X1377342Y1217003D01*
X1375936Y1216064D01*
X1374997Y1214658D01*
X1374667Y1213000D01*
X1374997Y1211342D01*
X1375936Y1209936D01*
X1377342Y1208997D01*
X1379000Y1208667D01*
X1380658Y1208997D01*
X1382064Y1209936D01*
X1383003Y1211342D01*
X1383333Y1213000D01*
X1383003Y1214658D01*
X1382064Y1216064D01*
X1380658Y1217003D01*
X1379000Y1217333D01*
D02*
G37*
G36*
X1479000Y1225333D02*
X1477342Y1225003D01*
X1475936Y1224064D01*
X1474997Y1222658D01*
X1474667Y1221000D01*
X1474997Y1219342D01*
X1475936Y1217936D01*
X1477342Y1216997D01*
X1479000Y1216667D01*
X1480658Y1216997D01*
X1482064Y1217936D01*
X1483003Y1219342D01*
X1483333Y1221000D01*
X1483003Y1222658D01*
X1482064Y1224064D01*
X1480658Y1225003D01*
X1479000Y1225333D01*
D02*
G37*
G36*
X1542000Y1215333D02*
X1540342Y1215003D01*
X1538936Y1214064D01*
X1537997Y1212658D01*
X1537667Y1211000D01*
X1537997Y1209342D01*
X1538936Y1207936D01*
X1540342Y1206997D01*
X1542000Y1206667D01*
X1543658Y1206997D01*
X1545064Y1207936D01*
X1546003Y1209342D01*
X1546333Y1211000D01*
X1546003Y1212658D01*
X1545064Y1214064D01*
X1543658Y1215003D01*
X1542000Y1215333D01*
D02*
G37*
G36*
X1569000Y1204333D02*
X1567342Y1204003D01*
X1565936Y1203064D01*
X1564997Y1201658D01*
X1564862Y1200982D01*
X1563464Y1200465D01*
X1562658Y1201003D01*
X1561000Y1201333D01*
X1559342Y1201003D01*
X1557936Y1200064D01*
X1556997Y1198658D01*
X1556667Y1197000D01*
X1556997Y1195342D01*
X1557936Y1193936D01*
X1559342Y1192997D01*
X1561000Y1192667D01*
X1562658Y1192997D01*
X1564064Y1193936D01*
X1565003Y1195342D01*
X1565138Y1196018D01*
X1566536Y1196535D01*
X1567342Y1195997D01*
X1569000Y1195667D01*
X1570658Y1195997D01*
X1572064Y1196936D01*
X1573003Y1198342D01*
X1573333Y1200000D01*
X1573003Y1201658D01*
X1572064Y1203064D01*
X1570658Y1204003D01*
X1569000Y1204333D01*
D02*
G37*
G36*
X1559500Y1214833D02*
X1557842Y1214503D01*
X1556436Y1213564D01*
X1555497Y1212158D01*
X1555167Y1210500D01*
X1555497Y1208842D01*
X1556436Y1207436D01*
X1557842Y1206497D01*
X1559500Y1206167D01*
X1561158Y1206497D01*
X1562564Y1207436D01*
X1563504Y1208842D01*
X1563833Y1210500D01*
X1563504Y1212158D01*
X1562564Y1213564D01*
X1561158Y1214503D01*
X1559500Y1214833D01*
D02*
G37*
G36*
X1293000Y1185333D02*
X1291342Y1185003D01*
X1289936Y1184064D01*
X1288997Y1182658D01*
X1288667Y1181000D01*
X1288997Y1179342D01*
X1289936Y1177936D01*
X1291342Y1176997D01*
X1293000Y1176667D01*
X1294658Y1176997D01*
X1296064Y1177936D01*
X1297003Y1179342D01*
X1297333Y1181000D01*
X1297003Y1182658D01*
X1296064Y1184064D01*
X1294658Y1185003D01*
X1293000Y1185333D01*
D02*
G37*
G36*
X1212998Y1183331D02*
X1211339Y1183001D01*
X1209933Y1182062D01*
X1208994Y1180656D01*
X1208664Y1178998D01*
X1208994Y1177339D01*
X1209933Y1175934D01*
X1211339Y1174994D01*
X1212998Y1174664D01*
X1214656Y1174994D01*
X1216062Y1175934D01*
X1217001Y1177339D01*
X1217331Y1178998D01*
X1217001Y1180656D01*
X1216062Y1182062D01*
X1214656Y1183001D01*
X1212998Y1183331D01*
D02*
G37*
G36*
X1534000Y1182333D02*
X1532342Y1182003D01*
X1530936Y1181064D01*
X1529997Y1179658D01*
X1529667Y1178000D01*
X1529997Y1176342D01*
X1530936Y1174936D01*
X1532342Y1173997D01*
X1534000Y1173667D01*
X1535658Y1173997D01*
X1537064Y1174936D01*
X1538003Y1176342D01*
X1538333Y1178000D01*
X1538003Y1179658D01*
X1537064Y1181064D01*
X1535658Y1182003D01*
X1534000Y1182333D01*
D02*
G37*
G36*
X1254000Y1177333D02*
X1252342Y1177003D01*
X1250936Y1176064D01*
X1249997Y1174658D01*
X1249667Y1173000D01*
X1249997Y1171342D01*
X1250936Y1169936D01*
X1252342Y1168997D01*
X1254000Y1168667D01*
X1255658Y1168997D01*
X1257064Y1169936D01*
X1258003Y1171342D01*
X1258333Y1173000D01*
X1258003Y1174658D01*
X1257064Y1176064D01*
X1255658Y1177003D01*
X1254000Y1177333D01*
D02*
G37*
G36*
X1232000Y1175333D02*
X1230342Y1175003D01*
X1228936Y1174064D01*
X1227997Y1172658D01*
X1227667Y1171000D01*
X1227997Y1169342D01*
X1228936Y1167936D01*
X1230342Y1166997D01*
X1232000Y1166667D01*
X1233658Y1166997D01*
X1235064Y1167936D01*
X1236003Y1169342D01*
X1236333Y1171000D01*
X1236003Y1172658D01*
X1235064Y1174064D01*
X1233658Y1175003D01*
X1232000Y1175333D01*
D02*
G37*
G36*
X1456500Y1181833D02*
X1454842Y1181504D01*
X1453436Y1180564D01*
X1452497Y1179158D01*
X1452167Y1177500D01*
X1452497Y1175842D01*
X1453436Y1174436D01*
X1454842Y1173497D01*
X1456500Y1173167D01*
X1458158Y1173497D01*
X1459564Y1174436D01*
X1460504Y1175842D01*
X1460833Y1177500D01*
X1460504Y1179158D01*
X1459564Y1180564D01*
X1458158Y1181504D01*
X1456500Y1181833D01*
D02*
G37*
G36*
X1377000Y1202569D02*
X1375634Y1202297D01*
X1374477Y1201523D01*
X1373703Y1200366D01*
X1373431Y1199000D01*
X1373703Y1197634D01*
X1374477Y1196477D01*
X1375634Y1195703D01*
X1377000Y1195431D01*
X1378366Y1195703D01*
X1379523Y1196477D01*
X1380297Y1197634D01*
X1380569Y1199000D01*
X1380297Y1200366D01*
X1379523Y1201523D01*
X1378366Y1202297D01*
X1377000Y1202569D01*
D02*
G37*
G36*
X1315250Y1201083D02*
X1313592Y1200753D01*
X1312186Y1199814D01*
X1311247Y1198408D01*
X1310917Y1196750D01*
X1311247Y1195092D01*
X1312186Y1193686D01*
X1313592Y1192747D01*
X1315250Y1192417D01*
X1316908Y1192747D01*
X1318314Y1193686D01*
X1319253Y1195092D01*
X1319583Y1196750D01*
X1319253Y1198408D01*
X1318314Y1199814D01*
X1316908Y1200753D01*
X1315250Y1201083D01*
D02*
G37*
G36*
X1210000Y1212758D02*
X1208342Y1212428D01*
X1206936Y1211489D01*
X1205997Y1210083D01*
X1205667Y1208425D01*
X1205997Y1206766D01*
X1206936Y1205360D01*
X1208342Y1204421D01*
X1210000Y1204091D01*
X1210268Y1204145D01*
X1210766Y1203334D01*
X1210872Y1202970D01*
X1209994Y1201656D01*
X1209664Y1199998D01*
X1209994Y1198339D01*
X1210934Y1196934D01*
X1212339Y1195994D01*
X1213998Y1195664D01*
X1215656Y1195994D01*
X1217062Y1196934D01*
X1218001Y1198339D01*
X1218331Y1199998D01*
X1218001Y1201656D01*
X1217062Y1203062D01*
X1215656Y1204001D01*
X1213998Y1204331D01*
X1213729Y1204277D01*
X1213231Y1205088D01*
X1213125Y1205452D01*
X1214003Y1206766D01*
X1214333Y1208425D01*
X1214003Y1210083D01*
X1213064Y1211489D01*
X1211658Y1212428D01*
X1210000Y1212758D01*
D02*
G37*
G36*
X1534000Y1194333D02*
X1532342Y1194003D01*
X1530936Y1193064D01*
X1529997Y1191658D01*
X1529667Y1190000D01*
X1529997Y1188342D01*
X1530936Y1186936D01*
X1532342Y1185997D01*
X1534000Y1185667D01*
X1535658Y1185997D01*
X1537064Y1186936D01*
X1538003Y1188342D01*
X1538333Y1190000D01*
X1538003Y1191658D01*
X1537064Y1193064D01*
X1535658Y1194003D01*
X1534000Y1194333D01*
D02*
G37*
G36*
X1506500D02*
X1504842Y1194003D01*
X1503436Y1193064D01*
X1502497Y1191658D01*
X1502167Y1190000D01*
X1502497Y1188342D01*
X1503436Y1186936D01*
X1504842Y1185997D01*
X1506500Y1185667D01*
X1508158Y1185997D01*
X1509564Y1186936D01*
X1510503Y1188342D01*
X1510833Y1190000D01*
X1510503Y1191658D01*
X1509564Y1193064D01*
X1508158Y1194003D01*
X1506500Y1194333D01*
D02*
G37*
G36*
X1222998Y1198331D02*
X1221339Y1198001D01*
X1219933Y1197062D01*
X1218994Y1195656D01*
X1218664Y1193998D01*
X1218994Y1192339D01*
X1219933Y1190934D01*
X1221339Y1189994D01*
X1222998Y1189664D01*
X1224656Y1189994D01*
X1226062Y1190934D01*
X1227001Y1192339D01*
X1227331Y1193998D01*
X1227001Y1195656D01*
X1226062Y1197062D01*
X1224656Y1198001D01*
X1222998Y1198331D01*
D02*
G37*
G36*
X1345000Y1196333D02*
X1343342Y1196003D01*
X1341936Y1195064D01*
X1340997Y1193658D01*
X1340667Y1192000D01*
X1340997Y1190342D01*
X1341936Y1188936D01*
X1343342Y1187997D01*
X1345000Y1187667D01*
X1346658Y1187997D01*
X1348064Y1188936D01*
X1349003Y1190342D01*
X1349333Y1192000D01*
X1349003Y1193658D01*
X1348064Y1195064D01*
X1346658Y1196003D01*
X1345000Y1196333D01*
D02*
G37*
G36*
X1432000Y1173333D02*
X1430342Y1173003D01*
X1428936Y1172064D01*
X1427997Y1170658D01*
X1427667Y1169000D01*
X1427997Y1167342D01*
X1428936Y1165936D01*
X1430342Y1164997D01*
X1432000Y1164667D01*
X1433658Y1164997D01*
X1435064Y1165936D01*
X1436003Y1167342D01*
X1436333Y1169000D01*
X1436003Y1170658D01*
X1435064Y1172064D01*
X1433658Y1173003D01*
X1432000Y1173333D01*
D02*
G37*
G36*
X1293250Y1084333D02*
X1291592Y1084003D01*
X1290186Y1083064D01*
X1289247Y1081658D01*
X1288917Y1080000D01*
X1289247Y1078342D01*
X1290186Y1076936D01*
X1291592Y1075997D01*
X1293250Y1075667D01*
X1294908Y1075997D01*
X1296314Y1076936D01*
X1297253Y1078342D01*
X1297583Y1080000D01*
X1297253Y1081658D01*
X1296314Y1083064D01*
X1294908Y1084003D01*
X1293250Y1084333D01*
D02*
G37*
G36*
X1311000Y1083333D02*
X1309342Y1083003D01*
X1307936Y1082064D01*
X1306997Y1080658D01*
X1306667Y1079000D01*
X1306997Y1077342D01*
X1307936Y1075936D01*
X1309342Y1074997D01*
X1311000Y1074667D01*
X1312658Y1074997D01*
X1314064Y1075936D01*
X1315003Y1077342D01*
X1315333Y1079000D01*
X1315003Y1080658D01*
X1314064Y1082064D01*
X1312658Y1083003D01*
X1311000Y1083333D01*
D02*
G37*
G36*
X1424000Y1088333D02*
X1422342Y1088003D01*
X1420936Y1087064D01*
X1419997Y1085658D01*
X1419667Y1084000D01*
X1419997Y1082342D01*
X1420936Y1080936D01*
X1422342Y1079997D01*
X1424000Y1079667D01*
X1425658Y1079997D01*
X1427064Y1080936D01*
X1428003Y1082342D01*
X1428333Y1084000D01*
X1428003Y1085658D01*
X1427064Y1087064D01*
X1425658Y1088003D01*
X1424000Y1088333D01*
D02*
G37*
G36*
X1280500Y1077583D02*
X1278842Y1077253D01*
X1277436Y1076314D01*
X1276497Y1074908D01*
X1276167Y1073250D01*
X1276497Y1071592D01*
X1277436Y1070186D01*
X1278842Y1069247D01*
X1280500Y1068917D01*
X1282158Y1069247D01*
X1283564Y1070186D01*
X1284503Y1071592D01*
X1284833Y1073250D01*
X1284503Y1074908D01*
X1283564Y1076314D01*
X1282158Y1077253D01*
X1280500Y1077583D01*
D02*
G37*
G36*
X1294250Y1072583D02*
X1292592Y1072253D01*
X1291186Y1071314D01*
X1290247Y1069908D01*
X1289917Y1068250D01*
X1290247Y1066592D01*
X1291186Y1065186D01*
X1292592Y1064247D01*
X1294250Y1063917D01*
X1295908Y1064247D01*
X1297314Y1065186D01*
X1298253Y1066592D01*
X1298583Y1068250D01*
X1298253Y1069908D01*
X1297314Y1071314D01*
X1295908Y1072253D01*
X1294250Y1072583D01*
D02*
G37*
G36*
X1465500Y1076583D02*
X1463842Y1076253D01*
X1462436Y1075314D01*
X1461497Y1073908D01*
X1461167Y1072250D01*
X1461497Y1070592D01*
X1462436Y1069186D01*
X1463842Y1068247D01*
X1465500Y1067917D01*
X1467158Y1068247D01*
X1468564Y1069186D01*
X1469503Y1070592D01*
X1469833Y1072250D01*
X1469503Y1073908D01*
X1468564Y1075314D01*
X1467158Y1076253D01*
X1465500Y1076583D01*
D02*
G37*
G36*
X1328657Y1076333D02*
X1326999Y1076003D01*
X1325593Y1075064D01*
X1324653Y1073658D01*
X1324324Y1072000D01*
X1324653Y1070342D01*
X1325593Y1068936D01*
X1326999Y1067997D01*
X1328657Y1067667D01*
X1330315Y1067997D01*
X1331721Y1068936D01*
X1332660Y1070342D01*
X1332990Y1072000D01*
X1332660Y1073658D01*
X1331721Y1075064D01*
X1330315Y1076003D01*
X1328657Y1076333D01*
D02*
G37*
G36*
X1574000Y1100333D02*
X1572342Y1100003D01*
X1570936Y1099064D01*
X1569997Y1097658D01*
X1569667Y1096000D01*
X1569997Y1094342D01*
X1570936Y1092936D01*
X1572342Y1091997D01*
X1574000Y1091667D01*
X1575658Y1091997D01*
X1577064Y1092936D01*
X1578003Y1094342D01*
X1578333Y1096000D01*
X1578003Y1097658D01*
X1577064Y1099064D01*
X1575658Y1100003D01*
X1574000Y1100333D01*
D02*
G37*
G36*
X1475000Y1112333D02*
X1473342Y1112003D01*
X1471936Y1111064D01*
X1470997Y1109658D01*
X1470667Y1108000D01*
X1470997Y1106342D01*
X1471936Y1104936D01*
X1473342Y1103997D01*
X1475000Y1103667D01*
X1476658Y1103997D01*
X1478064Y1104936D01*
X1479003Y1106342D01*
X1479333Y1108000D01*
X1479003Y1109658D01*
X1478064Y1111064D01*
X1476658Y1112003D01*
X1475000Y1112333D01*
D02*
G37*
G36*
X1443000Y1090333D02*
X1441342Y1090003D01*
X1439936Y1089064D01*
X1438997Y1087658D01*
X1438667Y1086000D01*
X1438997Y1084342D01*
X1439936Y1082936D01*
X1441342Y1081997D01*
X1443000Y1081667D01*
X1444658Y1081997D01*
X1446064Y1082936D01*
X1447003Y1084342D01*
X1447333Y1086000D01*
X1447003Y1087658D01*
X1446064Y1089064D01*
X1444658Y1090003D01*
X1443000Y1090333D01*
D02*
G37*
G36*
X1556000Y1095333D02*
X1554342Y1095003D01*
X1552936Y1094064D01*
X1551997Y1092658D01*
X1551667Y1091000D01*
X1551997Y1089342D01*
X1552936Y1087936D01*
X1554342Y1086997D01*
X1556000Y1086667D01*
X1557658Y1086997D01*
X1559064Y1087936D01*
X1560003Y1089342D01*
X1560333Y1091000D01*
X1560003Y1092658D01*
X1559064Y1094064D01*
X1557658Y1095003D01*
X1556000Y1095333D01*
D02*
G37*
G36*
X1378000Y1048333D02*
X1376342Y1048003D01*
X1374936Y1047064D01*
X1373997Y1045658D01*
X1373667Y1044000D01*
X1373997Y1042342D01*
X1374936Y1040936D01*
X1376342Y1039997D01*
X1378000Y1039667D01*
X1379658Y1039997D01*
X1381064Y1040936D01*
X1382003Y1042342D01*
X1382333Y1044000D01*
X1382003Y1045658D01*
X1381064Y1047064D01*
X1379658Y1048003D01*
X1378000Y1048333D01*
D02*
G37*
G36*
X1574750Y1052833D02*
X1573092Y1052503D01*
X1571686Y1051564D01*
X1570747Y1050158D01*
X1570417Y1048500D01*
X1570747Y1046842D01*
X1571686Y1045436D01*
X1573092Y1044497D01*
X1574750Y1044167D01*
X1576408Y1044497D01*
X1577814Y1045436D01*
X1578753Y1046842D01*
X1579083Y1048500D01*
X1578753Y1050158D01*
X1577814Y1051564D01*
X1576408Y1052503D01*
X1574750Y1052833D01*
D02*
G37*
G36*
X1418000Y1052333D02*
X1416342Y1052003D01*
X1414936Y1051064D01*
X1413997Y1049658D01*
X1413667Y1048000D01*
X1413997Y1046342D01*
X1414936Y1044936D01*
X1416342Y1043997D01*
X1418000Y1043667D01*
X1419658Y1043997D01*
X1421064Y1044936D01*
X1422003Y1046342D01*
X1422333Y1048000D01*
X1422003Y1049658D01*
X1421064Y1051064D01*
X1419658Y1052003D01*
X1418000Y1052333D01*
D02*
G37*
G36*
X1274000Y1044333D02*
X1272342Y1044003D01*
X1270936Y1043064D01*
X1269997Y1041658D01*
X1269667Y1040000D01*
X1269997Y1038342D01*
X1270936Y1036936D01*
X1272342Y1035997D01*
X1274000Y1035667D01*
X1275658Y1035997D01*
X1277064Y1036936D01*
X1278003Y1038342D01*
X1278333Y1040000D01*
X1278003Y1041658D01*
X1277064Y1043064D01*
X1275658Y1044003D01*
X1274000Y1044333D01*
D02*
G37*
G36*
X1307750Y1035819D02*
X1306384Y1035547D01*
X1305227Y1034773D01*
X1304453Y1033616D01*
X1304181Y1032250D01*
X1304453Y1030884D01*
X1305227Y1029727D01*
X1306384Y1028953D01*
X1307750Y1028681D01*
X1309116Y1028953D01*
X1310273Y1029727D01*
X1311047Y1030884D01*
X1311319Y1032250D01*
X1311047Y1033616D01*
X1310273Y1034773D01*
X1309116Y1035547D01*
X1307750Y1035819D01*
D02*
G37*
G36*
X1498000Y1040333D02*
X1496342Y1040003D01*
X1494936Y1039064D01*
X1493997Y1037658D01*
X1493667Y1036000D01*
X1493997Y1034342D01*
X1494936Y1032936D01*
X1496342Y1031997D01*
X1498000Y1031667D01*
X1499658Y1031997D01*
X1501064Y1032936D01*
X1502003Y1034342D01*
X1502333Y1036000D01*
X1502003Y1037658D01*
X1501064Y1039064D01*
X1499658Y1040003D01*
X1498000Y1040333D01*
D02*
G37*
G36*
X1285000Y1062333D02*
X1283342Y1062003D01*
X1281936Y1061064D01*
X1280997Y1059658D01*
X1280667Y1058000D01*
X1280997Y1056342D01*
X1281936Y1054936D01*
X1283342Y1053997D01*
X1285000Y1053667D01*
X1286658Y1053997D01*
X1288064Y1054936D01*
X1289003Y1056342D01*
X1289333Y1058000D01*
X1289003Y1059658D01*
X1288064Y1061064D01*
X1286658Y1062003D01*
X1285000Y1062333D01*
D02*
G37*
G36*
X1344047Y1067380D02*
X1342388Y1067050D01*
X1340983Y1066111D01*
X1340043Y1064705D01*
X1339713Y1063047D01*
X1340043Y1061388D01*
X1340983Y1059983D01*
X1342388Y1059043D01*
X1344047Y1058713D01*
X1345705Y1059043D01*
X1347111Y1059983D01*
X1348050Y1061388D01*
X1348380Y1063047D01*
X1348050Y1064705D01*
X1347111Y1066111D01*
X1345705Y1067050D01*
X1344047Y1067380D01*
D02*
G37*
G36*
X1548000Y1059333D02*
X1546342Y1059003D01*
X1544936Y1058064D01*
X1543997Y1056658D01*
X1543781Y1055573D01*
X1542472Y1055833D01*
X1540814Y1055503D01*
X1539408Y1054564D01*
X1538469Y1053158D01*
X1538139Y1051500D01*
X1538469Y1049842D01*
X1539408Y1048436D01*
X1540814Y1047497D01*
X1542472Y1047167D01*
X1544130Y1047497D01*
X1545536Y1048436D01*
X1546476Y1049842D01*
X1546691Y1050927D01*
X1548000Y1050667D01*
X1549658Y1050997D01*
X1551064Y1051936D01*
X1552003Y1053342D01*
X1552333Y1055000D01*
X1552003Y1056658D01*
X1551064Y1058064D01*
X1549658Y1059003D01*
X1548000Y1059333D01*
D02*
G37*
G36*
X1231000Y1053569D02*
X1229634Y1053297D01*
X1228477Y1052523D01*
X1227703Y1051366D01*
X1227431Y1050000D01*
X1227703Y1048634D01*
X1228477Y1047477D01*
X1229634Y1046703D01*
X1231000Y1046431D01*
X1232366Y1046703D01*
X1233523Y1047477D01*
X1234297Y1048634D01*
X1234569Y1050000D01*
X1234297Y1051366D01*
X1233523Y1052523D01*
X1232366Y1053297D01*
X1231000Y1053569D01*
D02*
G37*
G36*
X1247000Y1059333D02*
X1245342Y1059003D01*
X1243936Y1058064D01*
X1242997Y1056658D01*
X1242667Y1055000D01*
X1242997Y1053342D01*
X1243936Y1051936D01*
X1245342Y1050997D01*
X1247000Y1050667D01*
X1248658Y1050997D01*
X1250064Y1051936D01*
X1251003Y1053342D01*
X1251333Y1055000D01*
X1251003Y1056658D01*
X1250064Y1058064D01*
X1248658Y1059003D01*
X1247000Y1059333D01*
D02*
G37*
G36*
X1240343Y1154833D02*
X1238685Y1154503D01*
X1237279Y1153564D01*
X1236340Y1152158D01*
X1236010Y1150500D01*
X1236340Y1148842D01*
X1237279Y1147436D01*
X1238685Y1146497D01*
X1240343Y1146167D01*
X1242001Y1146497D01*
X1243407Y1147436D01*
X1244346Y1148842D01*
X1244676Y1150500D01*
X1244346Y1152158D01*
X1243407Y1153564D01*
X1242001Y1154503D01*
X1240343Y1154833D01*
D02*
G37*
G36*
X1355000Y1152333D02*
X1353342Y1152003D01*
X1351936Y1151064D01*
X1350997Y1149658D01*
X1350667Y1148000D01*
X1350997Y1146342D01*
X1351936Y1144936D01*
X1353342Y1143997D01*
X1355000Y1143667D01*
X1356658Y1143997D01*
X1358064Y1144936D01*
X1359003Y1146342D01*
X1359333Y1148000D01*
X1359003Y1149658D01*
X1358064Y1151064D01*
X1356658Y1152003D01*
X1355000Y1152333D01*
D02*
G37*
G36*
X1368000Y1157333D02*
X1366342Y1157003D01*
X1364936Y1156064D01*
X1363997Y1154658D01*
X1363667Y1153000D01*
X1363997Y1151342D01*
X1364936Y1149936D01*
X1366342Y1148997D01*
X1368000Y1148667D01*
X1369658Y1148997D01*
X1371064Y1149936D01*
X1372003Y1151342D01*
X1372333Y1153000D01*
X1372003Y1154658D01*
X1371064Y1156064D01*
X1369658Y1157003D01*
X1368000Y1157333D01*
D02*
G37*
G36*
X1471750Y1144833D02*
X1470092Y1144503D01*
X1468686Y1143564D01*
X1467747Y1142158D01*
X1467417Y1140500D01*
X1467747Y1138842D01*
X1468686Y1137436D01*
X1470092Y1136497D01*
X1471750Y1136167D01*
X1473408Y1136497D01*
X1474814Y1137436D01*
X1475753Y1138842D01*
X1476083Y1140500D01*
X1475753Y1142158D01*
X1474814Y1143564D01*
X1473408Y1144503D01*
X1471750Y1144833D01*
D02*
G37*
G36*
X1300000Y1148333D02*
X1298342Y1148003D01*
X1296936Y1147064D01*
X1295997Y1145658D01*
X1295667Y1144000D01*
X1295997Y1142342D01*
X1296936Y1140936D01*
X1298342Y1139997D01*
X1300000Y1139667D01*
X1301658Y1139997D01*
X1303064Y1140936D01*
X1304003Y1142342D01*
X1304333Y1144000D01*
X1304003Y1145658D01*
X1303064Y1147064D01*
X1301658Y1148003D01*
X1300000Y1148333D01*
D02*
G37*
G36*
X1405000Y1177333D02*
X1403342Y1177003D01*
X1401936Y1176064D01*
X1400997Y1174658D01*
X1400667Y1173000D01*
X1400997Y1171342D01*
X1401936Y1169936D01*
X1403342Y1168997D01*
X1405000Y1168667D01*
X1406318Y1168929D01*
X1407098Y1168031D01*
X1407158Y1167900D01*
X1406997Y1167658D01*
X1406667Y1166000D01*
X1406997Y1164342D01*
X1407936Y1162936D01*
X1409342Y1161997D01*
X1411000Y1161667D01*
X1412658Y1161997D01*
X1414064Y1162936D01*
X1415003Y1164342D01*
X1415333Y1166000D01*
X1415003Y1167658D01*
X1414064Y1169064D01*
X1412658Y1170003D01*
X1411000Y1170333D01*
X1409682Y1170071D01*
X1408902Y1170969D01*
X1408842Y1171100D01*
X1409003Y1171342D01*
X1409333Y1173000D01*
X1409003Y1174658D01*
X1408064Y1176064D01*
X1406658Y1177003D01*
X1405000Y1177333D01*
D02*
G37*
G36*
X1218000Y1169333D02*
X1216342Y1169003D01*
X1214936Y1168064D01*
X1213997Y1166658D01*
X1213667Y1165000D01*
X1213997Y1163342D01*
X1214936Y1161936D01*
X1216342Y1160997D01*
X1218000Y1160667D01*
X1219658Y1160997D01*
X1221064Y1161936D01*
X1222003Y1163342D01*
X1222333Y1165000D01*
X1222003Y1166658D01*
X1221064Y1168064D01*
X1219658Y1169003D01*
X1218000Y1169333D01*
D02*
G37*
G36*
X1207000Y1173333D02*
X1205342Y1173003D01*
X1203936Y1172064D01*
X1202997Y1170658D01*
X1202667Y1169000D01*
X1202997Y1167342D01*
X1203936Y1165936D01*
X1205342Y1164997D01*
X1207000Y1164667D01*
X1208658Y1164997D01*
X1210064Y1165936D01*
X1211003Y1167342D01*
X1211333Y1169000D01*
X1211003Y1170658D01*
X1210064Y1172064D01*
X1208658Y1173003D01*
X1207000Y1173333D01*
D02*
G37*
G36*
X1269000Y1172333D02*
X1267342Y1172003D01*
X1265936Y1171064D01*
X1264997Y1169658D01*
X1264667Y1168000D01*
X1264997Y1166342D01*
X1265936Y1164936D01*
X1267342Y1163997D01*
X1269000Y1163667D01*
X1270658Y1163997D01*
X1272064Y1164936D01*
X1273003Y1166342D01*
X1273333Y1168000D01*
X1273003Y1169658D01*
X1272064Y1171064D01*
X1270658Y1172003D01*
X1269000Y1172333D01*
D02*
G37*
G36*
X1504000Y1161333D02*
X1502342Y1161003D01*
X1500936Y1160064D01*
X1499997Y1158658D01*
X1499667Y1157000D01*
X1499997Y1155342D01*
X1500936Y1153936D01*
X1502342Y1152997D01*
X1504000Y1152667D01*
X1505658Y1152997D01*
X1507064Y1153936D01*
X1508003Y1155342D01*
X1508333Y1157000D01*
X1508003Y1158658D01*
X1507064Y1160064D01*
X1505658Y1161003D01*
X1504000Y1161333D01*
D02*
G37*
G36*
X1343000Y1160333D02*
X1341342Y1160003D01*
X1339936Y1159064D01*
X1338997Y1157658D01*
X1338667Y1156000D01*
X1338997Y1154342D01*
X1339936Y1152936D01*
X1341342Y1151997D01*
X1343000Y1151667D01*
X1344658Y1151997D01*
X1346064Y1152936D01*
X1347003Y1154342D01*
X1347333Y1156000D01*
X1347003Y1157658D01*
X1346064Y1159064D01*
X1344658Y1160003D01*
X1343000Y1160333D01*
D02*
G37*
G36*
X1302000Y1165333D02*
X1300342Y1165003D01*
X1298936Y1164064D01*
X1297997Y1162658D01*
X1297667Y1161000D01*
X1297997Y1159342D01*
X1298936Y1157936D01*
X1300342Y1156997D01*
X1302000Y1156667D01*
X1303658Y1156997D01*
X1305064Y1157936D01*
X1306003Y1159342D01*
X1306333Y1161000D01*
X1306003Y1162658D01*
X1305064Y1164064D01*
X1303658Y1165003D01*
X1302000Y1165333D01*
D02*
G37*
G36*
X1387750Y1130819D02*
X1386384Y1130547D01*
X1385227Y1129773D01*
X1384453Y1128616D01*
X1384181Y1127250D01*
X1384453Y1125884D01*
X1385227Y1124727D01*
X1386384Y1123953D01*
X1387750Y1123681D01*
X1389116Y1123953D01*
X1390273Y1124727D01*
X1391047Y1125884D01*
X1391319Y1127250D01*
X1391047Y1128616D01*
X1390273Y1129773D01*
X1389116Y1130547D01*
X1387750Y1130819D01*
D02*
G37*
G36*
X1352000Y1131333D02*
X1350342Y1131003D01*
X1348936Y1130064D01*
X1347997Y1128658D01*
X1347667Y1127000D01*
X1347997Y1125342D01*
X1348936Y1123936D01*
X1350342Y1122997D01*
X1352000Y1122667D01*
X1353658Y1122997D01*
X1355064Y1123936D01*
X1356003Y1125342D01*
X1356333Y1127000D01*
X1356003Y1128658D01*
X1355064Y1130064D01*
X1353658Y1131003D01*
X1352000Y1131333D01*
D02*
G37*
G36*
X1361000Y1123333D02*
X1359342Y1123003D01*
X1357936Y1122064D01*
X1356997Y1120658D01*
X1356667Y1119000D01*
X1356997Y1117342D01*
X1357936Y1115936D01*
X1359342Y1114997D01*
X1361000Y1114667D01*
X1362658Y1114997D01*
X1364064Y1115936D01*
X1365003Y1117342D01*
X1365333Y1119000D01*
X1365003Y1120658D01*
X1364064Y1122064D01*
X1362658Y1123003D01*
X1361000Y1123333D01*
D02*
G37*
G36*
X1472000Y1122333D02*
X1470342Y1122003D01*
X1468936Y1121064D01*
X1467997Y1119658D01*
X1467667Y1118000D01*
X1467997Y1116342D01*
X1468936Y1114936D01*
X1470342Y1113997D01*
X1472000Y1113667D01*
X1473658Y1113997D01*
X1475064Y1114936D01*
X1476003Y1116342D01*
X1476333Y1118000D01*
X1476003Y1119658D01*
X1475064Y1121064D01*
X1473658Y1122003D01*
X1472000Y1122333D01*
D02*
G37*
G36*
X1551997Y1123331D02*
X1550339Y1123001D01*
X1548933Y1122062D01*
X1547993Y1120656D01*
X1547664Y1118998D01*
X1547993Y1117339D01*
X1548933Y1115934D01*
X1550339Y1114994D01*
X1551997Y1114665D01*
X1553655Y1114994D01*
X1555061Y1115934D01*
X1556000Y1117339D01*
X1556330Y1118998D01*
X1556000Y1120656D01*
X1555061Y1122062D01*
X1553655Y1123001D01*
X1551997Y1123331D01*
D02*
G37*
G36*
X1256343Y1122833D02*
X1254685Y1122503D01*
X1253279Y1121564D01*
X1252340Y1120158D01*
X1252010Y1118500D01*
X1252340Y1116842D01*
X1253279Y1115436D01*
X1254685Y1114497D01*
X1256343Y1114167D01*
X1258001Y1114497D01*
X1259407Y1115436D01*
X1260347Y1116842D01*
X1260676Y1118500D01*
X1260347Y1120158D01*
X1259407Y1121564D01*
X1258001Y1122503D01*
X1256343Y1122833D01*
D02*
G37*
G36*
X1279000Y1138333D02*
X1277342Y1138003D01*
X1275936Y1137064D01*
X1274997Y1135658D01*
X1274667Y1134000D01*
X1274997Y1132342D01*
X1275936Y1130936D01*
X1277342Y1129997D01*
X1279000Y1129667D01*
X1280658Y1129997D01*
X1282064Y1130936D01*
X1283003Y1132342D01*
X1283333Y1134000D01*
X1283003Y1135658D01*
X1282064Y1137064D01*
X1280658Y1138003D01*
X1279000Y1138333D01*
D02*
G37*
G36*
X1320000Y1143333D02*
X1318342Y1143003D01*
X1316936Y1142064D01*
X1315997Y1140658D01*
X1315667Y1139000D01*
X1315997Y1137342D01*
X1316936Y1135936D01*
X1318342Y1134997D01*
X1320000Y1134667D01*
X1321658Y1134997D01*
X1323064Y1135936D01*
X1324003Y1137342D01*
X1324333Y1139000D01*
X1324003Y1140658D01*
X1323064Y1142064D01*
X1321658Y1143003D01*
X1320000Y1143333D01*
D02*
G37*
G36*
X1458000Y1140333D02*
X1456342Y1140003D01*
X1454936Y1139064D01*
X1453997Y1137658D01*
X1453667Y1136000D01*
X1453997Y1134342D01*
X1454936Y1132936D01*
X1456342Y1131997D01*
X1458000Y1131667D01*
X1459658Y1131997D01*
X1461064Y1132936D01*
X1462003Y1134342D01*
X1462333Y1136000D01*
X1462003Y1137658D01*
X1461064Y1139064D01*
X1459658Y1140003D01*
X1458000Y1140333D01*
D02*
G37*
G36*
X1471750Y1134833D02*
X1470092Y1134503D01*
X1468686Y1133564D01*
X1467747Y1132158D01*
X1467417Y1130500D01*
X1467747Y1128842D01*
X1468686Y1127436D01*
X1470092Y1126497D01*
X1471750Y1126167D01*
X1473408Y1126497D01*
X1474814Y1127436D01*
X1475753Y1128842D01*
X1476083Y1130500D01*
X1475753Y1132158D01*
X1474814Y1133564D01*
X1473408Y1134503D01*
X1471750Y1134833D01*
D02*
G37*
G36*
X1175000Y794333D02*
X1173342Y794003D01*
X1171936Y793064D01*
X1170997Y791658D01*
X1170667Y790000D01*
X1170997Y788342D01*
X1171936Y786936D01*
X1173342Y785997D01*
X1175000Y785667D01*
X1176658Y785997D01*
X1178064Y786936D01*
X1179003Y788342D01*
X1179333Y790000D01*
X1179003Y791658D01*
X1178064Y793064D01*
X1176658Y794003D01*
X1175000Y794333D01*
D02*
G37*
G36*
X1073000Y946569D02*
X1071634Y946297D01*
X1070477Y945523D01*
X1069703Y944366D01*
X1069431Y943000D01*
X1069703Y941634D01*
X1070477Y940477D01*
X1071634Y939703D01*
X1073000Y939431D01*
X1074366Y939703D01*
X1075523Y940477D01*
X1076297Y941634D01*
X1076569Y943000D01*
X1076297Y944366D01*
X1075523Y945523D01*
X1074366Y946297D01*
X1073000Y946569D01*
D02*
G37*
G36*
X1186000Y950333D02*
X1184342Y950003D01*
X1182936Y949064D01*
X1181997Y947658D01*
X1181667Y946000D01*
X1181997Y944342D01*
X1182936Y942936D01*
X1184342Y941997D01*
X1186000Y941667D01*
X1187658Y941997D01*
X1189064Y942936D01*
X1190003Y944342D01*
X1190333Y946000D01*
X1190003Y947658D01*
X1189064Y949064D01*
X1187658Y950003D01*
X1186000Y950333D01*
D02*
G37*
G36*
X1048000Y918568D02*
X1046634Y918297D01*
X1045477Y917523D01*
X1044703Y916366D01*
X1044431Y915000D01*
X1044703Y913634D01*
X1045477Y912477D01*
X1046634Y911703D01*
X1048000Y911431D01*
X1048124Y911456D01*
X1048275Y911374D01*
X1049102Y910356D01*
X1048932Y909500D01*
X1049203Y908134D01*
X1049977Y906977D01*
X1051134Y906203D01*
X1052500Y905931D01*
X1053866Y906203D01*
X1055023Y906977D01*
X1055797Y908134D01*
X1056069Y909500D01*
X1055828Y910712D01*
X1056257Y911240D01*
X1056786Y911671D01*
X1057998Y911430D01*
X1059363Y911701D01*
X1060521Y912475D01*
X1061295Y913633D01*
X1061566Y914998D01*
X1061295Y916364D01*
X1060521Y917522D01*
X1059363Y918295D01*
X1057998Y918567D01*
X1056632Y918295D01*
X1055474Y917522D01*
X1054701Y916364D01*
X1054429Y914998D01*
X1054670Y913787D01*
X1054240Y913258D01*
X1053711Y912828D01*
X1052500Y913069D01*
X1052376Y913044D01*
X1052226Y913126D01*
X1051398Y914144D01*
X1051569Y915000D01*
X1051297Y916366D01*
X1050523Y917523D01*
X1049366Y918297D01*
X1048000Y918568D01*
D02*
G37*
G36*
X1105750Y898583D02*
X1104092Y898253D01*
X1102686Y897314D01*
X1101747Y895908D01*
X1101417Y894250D01*
X1101747Y892592D01*
X1102686Y891186D01*
X1104092Y890247D01*
X1105750Y889917D01*
X1107408Y890247D01*
X1108814Y891186D01*
X1109753Y892592D01*
X1110083Y894250D01*
X1109753Y895908D01*
X1108814Y897314D01*
X1107408Y898253D01*
X1105750Y898583D01*
D02*
G37*
G36*
X1160000Y871569D02*
X1158634Y871297D01*
X1157477Y870523D01*
X1156703Y869366D01*
X1156431Y868000D01*
X1156703Y866634D01*
X1157477Y865477D01*
X1158634Y864703D01*
X1160000Y864431D01*
X1161366Y864703D01*
X1162523Y865477D01*
X1163297Y866634D01*
X1163569Y868000D01*
X1163297Y869366D01*
X1162523Y870523D01*
X1161366Y871297D01*
X1160000Y871569D01*
D02*
G37*
G36*
X1134000Y880333D02*
X1132342Y880003D01*
X1130936Y879064D01*
X1129997Y877658D01*
X1129667Y876000D01*
X1129997Y874342D01*
X1130936Y872936D01*
X1132342Y871997D01*
X1134000Y871667D01*
X1135658Y871997D01*
X1137064Y872936D01*
X1138003Y874342D01*
X1138333Y876000D01*
X1138003Y877658D01*
X1137064Y879064D01*
X1135658Y880003D01*
X1134000Y880333D01*
D02*
G37*
G36*
X1070000Y910569D02*
X1068634Y910297D01*
X1067477Y909523D01*
X1066703Y908366D01*
X1066431Y907000D01*
X1066703Y905634D01*
X1067477Y904477D01*
X1068634Y903703D01*
X1070000Y903431D01*
X1071366Y903703D01*
X1072523Y904477D01*
X1073297Y905634D01*
X1073569Y907000D01*
X1073297Y908366D01*
X1072523Y909523D01*
X1071366Y910297D01*
X1070000Y910569D01*
D02*
G37*
G36*
X1141998Y912567D02*
X1140632Y912295D01*
X1139474Y911522D01*
X1138701Y910364D01*
X1138429Y908998D01*
X1138701Y907633D01*
X1139474Y906475D01*
X1140632Y905701D01*
X1141998Y905430D01*
X1143363Y905701D01*
X1144521Y906475D01*
X1145295Y907633D01*
X1145566Y908998D01*
X1145295Y910364D01*
X1144521Y911522D01*
X1143363Y912295D01*
X1141998Y912567D01*
D02*
G37*
G36*
X1106000Y919333D02*
X1104342Y919003D01*
X1102936Y918064D01*
X1101997Y916658D01*
X1101667Y915000D01*
X1101997Y913342D01*
X1102936Y911936D01*
X1104342Y910997D01*
X1106000Y910667D01*
X1107658Y910997D01*
X1109064Y911936D01*
X1110003Y913342D01*
X1110333Y915000D01*
X1110003Y916658D01*
X1109064Y918064D01*
X1107658Y919003D01*
X1106000Y919333D01*
D02*
G37*
G36*
X1080998Y902567D02*
X1079632Y902295D01*
X1078475Y901522D01*
X1077701Y900364D01*
X1077429Y898998D01*
X1077701Y897633D01*
X1078475Y896475D01*
X1079632Y895701D01*
X1080998Y895430D01*
X1082364Y895701D01*
X1083521Y896475D01*
X1084295Y897633D01*
X1084566Y898998D01*
X1084295Y900364D01*
X1083521Y901522D01*
X1082364Y902295D01*
X1080998Y902567D01*
D02*
G37*
G36*
X1111000Y1003333D02*
X1109342Y1003003D01*
X1107936Y1002064D01*
X1106997Y1000658D01*
X1106667Y999000D01*
X1106997Y997342D01*
X1107936Y995936D01*
X1109342Y994997D01*
X1111000Y994667D01*
X1112658Y994997D01*
X1114064Y995936D01*
X1115003Y997342D01*
X1115333Y999000D01*
X1115003Y1000658D01*
X1114064Y1002064D01*
X1112658Y1003003D01*
X1111000Y1003333D01*
D02*
G37*
G36*
X1056000Y1028569D02*
X1054634Y1028297D01*
X1053477Y1027523D01*
X1052703Y1026366D01*
X1052431Y1025000D01*
X1052703Y1023634D01*
X1053477Y1022477D01*
X1054634Y1021703D01*
X1056000Y1021431D01*
X1057366Y1021703D01*
X1058523Y1022477D01*
X1059297Y1023634D01*
X1059569Y1025000D01*
X1059297Y1026366D01*
X1058523Y1027523D01*
X1057366Y1028297D01*
X1056000Y1028569D01*
D02*
G37*
G36*
X1090000Y1014333D02*
X1088342Y1014003D01*
X1086936Y1013064D01*
X1085997Y1011658D01*
X1085667Y1010000D01*
X1085997Y1008342D01*
X1086936Y1006936D01*
X1088342Y1005997D01*
X1090000Y1005667D01*
X1091658Y1005997D01*
X1093064Y1006936D01*
X1094003Y1008342D01*
X1094333Y1010000D01*
X1094003Y1011658D01*
X1093064Y1013064D01*
X1091658Y1014003D01*
X1090000Y1014333D01*
D02*
G37*
G36*
X1128000Y1013333D02*
X1126342Y1013003D01*
X1124936Y1012064D01*
X1123997Y1010658D01*
X1123667Y1009000D01*
X1123997Y1007342D01*
X1124936Y1005936D01*
X1126342Y1004997D01*
X1128000Y1004667D01*
X1129658Y1004997D01*
X1131064Y1005936D01*
X1132003Y1007342D01*
X1132333Y1009000D01*
X1132003Y1010658D01*
X1131064Y1012064D01*
X1129658Y1013003D01*
X1128000Y1013333D01*
D02*
G37*
G36*
X1122000Y976569D02*
X1120634Y976297D01*
X1119500Y975539D01*
X1118366Y976297D01*
X1117000Y976569D01*
X1115634Y976297D01*
X1114477Y975523D01*
X1113703Y974366D01*
X1113431Y973000D01*
X1113703Y971634D01*
X1114477Y970477D01*
X1115634Y969703D01*
X1117000Y969431D01*
X1118366Y969703D01*
X1119500Y970461D01*
X1120634Y969703D01*
X1122000Y969431D01*
X1123366Y969703D01*
X1124523Y970477D01*
X1125297Y971634D01*
X1125569Y973000D01*
X1125297Y974366D01*
X1124523Y975523D01*
X1123366Y976297D01*
X1122000Y976569D01*
D02*
G37*
G36*
X1133000Y976169D02*
X1131634Y975897D01*
X1130477Y975123D01*
X1129703Y973966D01*
X1129431Y972600D01*
X1129703Y971234D01*
X1130477Y970077D01*
X1131634Y969303D01*
X1133000Y969032D01*
X1134366Y969303D01*
X1135523Y970077D01*
X1136297Y971234D01*
X1136569Y972600D01*
X1136297Y973966D01*
X1135523Y975123D01*
X1134366Y975897D01*
X1133000Y976169D01*
D02*
G37*
G36*
X1150750Y987833D02*
X1149092Y987503D01*
X1147686Y986564D01*
X1146747Y985158D01*
X1146417Y983500D01*
X1146747Y981842D01*
X1147686Y980436D01*
X1149092Y979497D01*
X1150750Y979167D01*
X1152408Y979497D01*
X1153814Y980436D01*
X1154753Y981842D01*
X1155083Y983500D01*
X1154753Y985158D01*
X1153814Y986564D01*
X1152408Y987503D01*
X1150750Y987833D01*
D02*
G37*
G36*
X1178000Y841333D02*
X1176342Y841003D01*
X1174936Y840064D01*
X1173997Y838658D01*
X1173667Y837000D01*
X1173997Y835342D01*
X1174936Y833936D01*
X1176342Y832997D01*
X1178000Y832667D01*
X1179658Y832997D01*
X1181064Y833936D01*
X1182003Y835342D01*
X1182333Y837000D01*
X1182003Y838658D01*
X1181064Y840064D01*
X1179658Y841003D01*
X1178000Y841333D01*
D02*
G37*
G36*
X1041000Y834333D02*
X1039342Y834003D01*
X1037936Y833064D01*
X1036997Y831658D01*
X1036667Y830000D01*
X1036997Y828342D01*
X1037936Y826936D01*
X1039342Y825997D01*
X1041000Y825667D01*
X1042658Y825997D01*
X1044064Y826936D01*
X1045003Y828342D01*
X1045333Y830000D01*
X1045003Y831658D01*
X1044064Y833064D01*
X1042658Y834003D01*
X1041000Y834333D01*
D02*
G37*
G36*
X1103000Y838333D02*
X1101342Y838003D01*
X1099936Y837064D01*
X1098997Y835658D01*
X1098667Y834000D01*
X1098997Y832342D01*
X1099936Y830936D01*
X1101342Y829997D01*
X1103000Y829667D01*
X1104658Y829997D01*
X1106064Y830936D01*
X1107003Y832342D01*
X1107333Y834000D01*
X1107003Y835658D01*
X1106064Y837064D01*
X1104658Y838003D01*
X1103000Y838333D01*
D02*
G37*
G36*
X1178000Y871333D02*
X1176342Y871003D01*
X1174936Y870064D01*
X1173997Y868658D01*
X1173667Y867000D01*
X1173997Y865342D01*
X1174936Y863936D01*
X1176342Y862997D01*
X1178000Y862667D01*
X1179658Y862997D01*
X1181064Y863936D01*
X1182003Y865342D01*
X1182333Y867000D01*
X1182003Y868658D01*
X1181064Y870064D01*
X1179658Y871003D01*
X1178000Y871333D01*
D02*
G37*
G36*
X1136000Y867333D02*
X1134342Y867003D01*
X1132936Y866064D01*
X1131997Y864658D01*
X1131667Y863000D01*
X1131997Y861342D01*
X1132936Y859936D01*
X1134342Y858997D01*
X1136000Y858667D01*
X1137658Y858997D01*
X1139064Y859936D01*
X1140003Y861342D01*
X1140333Y863000D01*
X1140003Y864658D01*
X1139064Y866064D01*
X1137658Y867003D01*
X1136000Y867333D01*
D02*
G37*
G36*
X1095000Y853569D02*
X1093634Y853297D01*
X1092477Y852523D01*
X1091703Y851366D01*
X1091431Y850000D01*
X1091703Y848634D01*
X1092477Y847477D01*
X1093634Y846703D01*
X1095000Y846431D01*
X1096366Y846703D01*
X1097523Y847477D01*
X1098297Y848634D01*
X1098569Y850000D01*
X1098297Y851366D01*
X1097523Y852523D01*
X1096366Y853297D01*
X1095000Y853569D01*
D02*
G37*
G36*
X1066000Y854333D02*
X1064342Y854003D01*
X1062936Y853064D01*
X1061997Y851658D01*
X1061667Y850000D01*
X1061997Y848342D01*
X1062936Y846936D01*
X1064342Y845997D01*
X1066000Y845667D01*
X1067658Y845997D01*
X1069064Y846936D01*
X1070003Y848342D01*
X1070333Y850000D01*
X1070003Y851658D01*
X1069064Y853064D01*
X1067658Y854003D01*
X1066000Y854333D01*
D02*
G37*
G36*
X1109000Y1210569D02*
X1107634Y1210297D01*
X1106477Y1209523D01*
X1105703Y1208366D01*
X1105431Y1207000D01*
X1105703Y1205634D01*
X1106477Y1204477D01*
X1107634Y1203703D01*
X1109000Y1203431D01*
X1110366Y1203703D01*
X1111523Y1204477D01*
X1112297Y1205634D01*
X1112569Y1207000D01*
X1112297Y1208366D01*
X1111523Y1209523D01*
X1110366Y1210297D01*
X1109000Y1210569D01*
D02*
G37*
G36*
X1107000Y1243333D02*
X1105342Y1243003D01*
X1103936Y1242064D01*
X1102997Y1240658D01*
X1102667Y1239000D01*
X1102997Y1237342D01*
X1103936Y1235936D01*
X1105342Y1234997D01*
X1107000Y1234667D01*
X1108658Y1234997D01*
X1110064Y1235936D01*
X1111003Y1237342D01*
X1111333Y1239000D01*
X1111003Y1240658D01*
X1110064Y1242064D01*
X1108658Y1243003D01*
X1107000Y1243333D01*
D02*
G37*
G36*
X1137000Y1239333D02*
X1135342Y1239003D01*
X1133936Y1238064D01*
X1132997Y1236658D01*
X1132667Y1235000D01*
X1132997Y1233342D01*
X1133936Y1231936D01*
X1135342Y1230997D01*
X1137000Y1230667D01*
X1138658Y1230997D01*
X1140064Y1231936D01*
X1141003Y1233342D01*
X1141333Y1235000D01*
X1141003Y1236658D01*
X1140064Y1238064D01*
X1138658Y1239003D01*
X1137000Y1239333D01*
D02*
G37*
G36*
X1083250Y1231187D02*
X1081884Y1230915D01*
X1080727Y1230142D01*
X1079953Y1228984D01*
X1079681Y1227618D01*
X1079953Y1226253D01*
X1080727Y1225095D01*
X1081884Y1224321D01*
X1083250Y1224050D01*
X1084616Y1224321D01*
X1085773Y1225095D01*
X1086547Y1226253D01*
X1086819Y1227618D01*
X1086547Y1228984D01*
X1085773Y1230142D01*
X1084616Y1230915D01*
X1083250Y1231187D01*
D02*
G37*
G36*
X1134998Y1229331D02*
X1133339Y1229001D01*
X1131934Y1228062D01*
X1130994Y1226656D01*
X1130665Y1224997D01*
X1130994Y1223339D01*
X1131934Y1221934D01*
X1133339Y1220994D01*
X1134998Y1220664D01*
X1136656Y1220994D01*
X1138062Y1221934D01*
X1139001Y1223339D01*
X1139331Y1224997D01*
X1139001Y1226656D01*
X1138062Y1228062D01*
X1136656Y1229001D01*
X1134998Y1229331D01*
D02*
G37*
G36*
X1100000Y1235333D02*
X1098342Y1235003D01*
X1096936Y1234064D01*
X1095997Y1232658D01*
X1095667Y1231000D01*
X1095997Y1229342D01*
X1096936Y1227936D01*
X1098342Y1226997D01*
X1100000Y1226667D01*
X1101658Y1226997D01*
X1103064Y1227936D01*
X1104003Y1229342D01*
X1104333Y1231000D01*
X1104003Y1232658D01*
X1103064Y1234064D01*
X1101658Y1235003D01*
X1100000Y1235333D01*
D02*
G37*
G36*
X1131000Y1188569D02*
X1129634Y1188297D01*
X1128477Y1187523D01*
X1127703Y1186366D01*
X1127431Y1185000D01*
X1127703Y1183634D01*
X1128477Y1182477D01*
X1129634Y1181703D01*
X1131000Y1181431D01*
X1132366Y1181703D01*
X1133523Y1182477D01*
X1134297Y1183634D01*
X1134569Y1185000D01*
X1134297Y1186366D01*
X1133523Y1187523D01*
X1132366Y1188297D01*
X1131000Y1188569D01*
D02*
G37*
G36*
X1119000Y1189333D02*
X1117342Y1189003D01*
X1115936Y1188064D01*
X1114997Y1186658D01*
X1114667Y1185000D01*
X1114997Y1183342D01*
X1115936Y1181936D01*
X1117342Y1180997D01*
X1119000Y1180667D01*
X1120658Y1180997D01*
X1122064Y1181936D01*
X1123003Y1183342D01*
X1123333Y1185000D01*
X1123003Y1186658D01*
X1122064Y1188064D01*
X1120658Y1189003D01*
X1119000Y1189333D01*
D02*
G37*
G36*
X1110000Y1182333D02*
X1108342Y1182003D01*
X1106936Y1181064D01*
X1105997Y1179658D01*
X1105667Y1178000D01*
X1105997Y1176342D01*
X1106936Y1174936D01*
X1108342Y1173997D01*
X1110000Y1173667D01*
X1111658Y1173997D01*
X1113064Y1174936D01*
X1114003Y1176342D01*
X1114333Y1178000D01*
X1114003Y1179658D01*
X1113064Y1181064D01*
X1111658Y1182003D01*
X1110000Y1182333D01*
D02*
G37*
G36*
X1152000Y1204333D02*
X1150342Y1204003D01*
X1148936Y1203064D01*
X1147997Y1201658D01*
X1147667Y1200000D01*
X1147997Y1198342D01*
X1148936Y1196936D01*
X1150342Y1195997D01*
X1152000Y1195667D01*
X1153658Y1195997D01*
X1155064Y1196936D01*
X1156003Y1198342D01*
X1156333Y1200000D01*
X1156003Y1201658D01*
X1155064Y1203064D01*
X1153658Y1204003D01*
X1152000Y1204333D01*
D02*
G37*
G36*
X1079000Y1106205D02*
X1077634Y1105933D01*
X1076477Y1105159D01*
X1075703Y1104002D01*
X1075431Y1102636D01*
X1075703Y1101270D01*
X1076477Y1100113D01*
X1077634Y1099339D01*
X1079000Y1099067D01*
X1080366Y1099339D01*
X1081523Y1100113D01*
X1082297Y1101270D01*
X1082569Y1102636D01*
X1082297Y1104002D01*
X1081523Y1105159D01*
X1080366Y1105933D01*
X1079000Y1106205D01*
D02*
G37*
G36*
X1134000Y1096333D02*
X1132342Y1096003D01*
X1130936Y1095064D01*
X1129997Y1093658D01*
X1129667Y1092000D01*
X1129997Y1090342D01*
X1130936Y1088936D01*
X1132342Y1087997D01*
X1134000Y1087667D01*
X1135658Y1087997D01*
X1137064Y1088936D01*
X1138003Y1090342D01*
X1138333Y1092000D01*
X1138003Y1093658D01*
X1137064Y1095064D01*
X1135658Y1096003D01*
X1134000Y1096333D01*
D02*
G37*
G36*
X1160000Y1091569D02*
X1158634Y1091297D01*
X1157477Y1090523D01*
X1156703Y1089366D01*
X1156431Y1088000D01*
X1156703Y1086634D01*
X1157477Y1085477D01*
X1158634Y1084703D01*
X1160000Y1084431D01*
X1161366Y1084703D01*
X1162523Y1085477D01*
X1163297Y1086634D01*
X1163569Y1088000D01*
X1163297Y1089366D01*
X1162523Y1090523D01*
X1161366Y1091297D01*
X1160000Y1091569D01*
D02*
G37*
G36*
X1151000Y1050333D02*
X1149342Y1050003D01*
X1147936Y1049064D01*
X1146997Y1047658D01*
X1146667Y1046000D01*
X1146997Y1044342D01*
X1147936Y1042936D01*
X1149342Y1041997D01*
X1151000Y1041667D01*
X1152658Y1041997D01*
X1154064Y1042936D01*
X1155003Y1044342D01*
X1155333Y1046000D01*
X1155003Y1047658D01*
X1154064Y1049064D01*
X1152658Y1050003D01*
X1151000Y1050333D01*
D02*
G37*
G36*
X1173000Y1039333D02*
X1171342Y1039003D01*
X1169936Y1038064D01*
X1168997Y1036658D01*
X1168667Y1035000D01*
X1168997Y1033342D01*
X1169936Y1031936D01*
X1171342Y1030997D01*
X1173000Y1030667D01*
X1174658Y1030997D01*
X1176064Y1031936D01*
X1177003Y1033342D01*
X1177333Y1035000D01*
X1177003Y1036658D01*
X1176064Y1038064D01*
X1174658Y1039003D01*
X1173000Y1039333D01*
D02*
G37*
G36*
X1071000Y1058569D02*
X1069634Y1058297D01*
X1068477Y1057523D01*
X1067703Y1056366D01*
X1067431Y1055000D01*
X1067703Y1053634D01*
X1068477Y1052477D01*
X1069634Y1051703D01*
X1071000Y1051431D01*
X1072366Y1051703D01*
X1073523Y1052477D01*
X1074297Y1053634D01*
X1074569Y1055000D01*
X1074297Y1056366D01*
X1073523Y1057523D01*
X1072366Y1058297D01*
X1071000Y1058569D01*
D02*
G37*
G36*
X1087000Y1057569D02*
X1085634Y1057297D01*
X1084477Y1056523D01*
X1083703Y1055366D01*
X1083431Y1054000D01*
X1083703Y1052634D01*
X1084477Y1051477D01*
X1085634Y1050703D01*
X1087000Y1050431D01*
X1088366Y1050703D01*
X1089523Y1051477D01*
X1090297Y1052634D01*
X1090569Y1054000D01*
X1090297Y1055366D01*
X1089523Y1056523D01*
X1088366Y1057297D01*
X1087000Y1057569D01*
D02*
G37*
G36*
X1107000Y1123333D02*
X1105342Y1123003D01*
X1103936Y1122064D01*
X1102997Y1120658D01*
X1102667Y1119000D01*
X1102997Y1117342D01*
X1103936Y1115936D01*
X1105029Y1115206D01*
X1105107Y1114904D01*
Y1114096D01*
X1105029Y1113794D01*
X1103936Y1113064D01*
X1102997Y1111658D01*
X1102667Y1110000D01*
X1102997Y1108342D01*
X1103936Y1106936D01*
X1105204Y1106088D01*
X1104656Y1105001D01*
X1102998Y1105331D01*
X1101339Y1105001D01*
X1099934Y1104062D01*
X1098994Y1102656D01*
X1098664Y1100998D01*
X1098994Y1099340D01*
X1099934Y1097934D01*
X1101339Y1096994D01*
X1102998Y1096665D01*
X1104656Y1096994D01*
X1106062Y1097934D01*
X1107001Y1099340D01*
X1107331Y1100998D01*
X1107001Y1102656D01*
X1106062Y1104062D01*
X1104794Y1104909D01*
X1105342Y1105996D01*
X1107000Y1105667D01*
X1108658Y1105997D01*
X1110064Y1106936D01*
X1111003Y1108342D01*
X1111333Y1110000D01*
X1111003Y1111658D01*
X1110064Y1113064D01*
X1108971Y1113794D01*
X1108893Y1114096D01*
Y1114904D01*
X1108971Y1115206D01*
X1110064Y1115936D01*
X1111003Y1117342D01*
X1111333Y1119000D01*
X1111003Y1120658D01*
X1110064Y1122064D01*
X1108658Y1123003D01*
X1107000Y1123333D01*
D02*
G37*
G36*
X1086000Y1155433D02*
X1084342Y1155103D01*
X1082936Y1154164D01*
X1081997Y1152758D01*
X1081667Y1151100D01*
X1081997Y1149442D01*
X1082936Y1148036D01*
X1084342Y1147097D01*
X1086000Y1146767D01*
X1087658Y1147097D01*
X1089064Y1148036D01*
X1090003Y1149442D01*
X1090333Y1151100D01*
X1090003Y1152758D01*
X1089064Y1154164D01*
X1087658Y1155103D01*
X1086000Y1155433D01*
D02*
G37*
G36*
X1051000Y1146569D02*
X1049634Y1146297D01*
X1048477Y1145523D01*
X1047703Y1144366D01*
X1047431Y1143000D01*
X1047703Y1141634D01*
X1048477Y1140477D01*
X1049634Y1139703D01*
X1051000Y1139431D01*
X1052366Y1139703D01*
X1053523Y1140477D01*
X1054297Y1141634D01*
X1054569Y1143000D01*
X1054297Y1144366D01*
X1053523Y1145523D01*
X1052366Y1146297D01*
X1051000Y1146569D01*
D02*
G37*
G36*
X1097998Y1166331D02*
X1096339Y1166001D01*
X1094934Y1165062D01*
X1093994Y1163656D01*
X1093664Y1161998D01*
X1093994Y1160339D01*
X1094934Y1158934D01*
X1096339Y1157994D01*
X1097998Y1157664D01*
X1099656Y1157994D01*
X1101062Y1158934D01*
X1102001Y1160339D01*
X1102331Y1161998D01*
X1102001Y1163656D01*
X1101062Y1165062D01*
X1099656Y1166001D01*
X1097998Y1166331D01*
D02*
G37*
G36*
X1086998Y1165331D02*
X1085340Y1165001D01*
X1083934Y1164062D01*
X1082994Y1162656D01*
X1082665Y1160998D01*
X1082994Y1159339D01*
X1083934Y1157934D01*
X1085340Y1156994D01*
X1086998Y1156664D01*
X1088656Y1156994D01*
X1090062Y1157934D01*
X1091001Y1159339D01*
X1091331Y1160998D01*
X1091001Y1162656D01*
X1090062Y1164062D01*
X1088656Y1165001D01*
X1086998Y1165331D01*
D02*
G37*
G36*
X1185000Y1131333D02*
X1183342Y1131003D01*
X1181936Y1130064D01*
X1180997Y1128658D01*
X1180667Y1127000D01*
X1180997Y1125342D01*
X1181936Y1123936D01*
X1183342Y1122997D01*
X1185000Y1122667D01*
X1186658Y1122997D01*
X1188064Y1123936D01*
X1189003Y1125342D01*
X1189333Y1127000D01*
X1189003Y1128658D01*
X1188064Y1130064D01*
X1186658Y1131003D01*
X1185000Y1131333D01*
D02*
G37*
G36*
X1060000Y1129569D02*
X1058634Y1129297D01*
X1057477Y1128523D01*
X1056703Y1127366D01*
X1056431Y1126000D01*
X1056703Y1124634D01*
X1057477Y1123477D01*
X1058634Y1122703D01*
X1060000Y1122431D01*
X1061366Y1122703D01*
X1062523Y1123477D01*
X1063297Y1124634D01*
X1063569Y1126000D01*
X1063297Y1127366D01*
X1062523Y1128523D01*
X1061366Y1129297D01*
X1060000Y1129569D01*
D02*
G37*
G36*
X1052000Y1136569D02*
X1050634Y1136297D01*
X1049477Y1135523D01*
X1048703Y1134366D01*
X1048431Y1133000D01*
X1048703Y1131634D01*
X1049477Y1130477D01*
X1050634Y1129703D01*
X1052000Y1129431D01*
X1053366Y1129703D01*
X1054523Y1130477D01*
X1055297Y1131634D01*
X1055569Y1133000D01*
X1055297Y1134366D01*
X1054523Y1135523D01*
X1053366Y1136297D01*
X1052000Y1136569D01*
D02*
G37*
G36*
X1084000Y1136333D02*
X1082342Y1136003D01*
X1080936Y1135064D01*
X1079997Y1133658D01*
X1079667Y1132000D01*
X1079997Y1130342D01*
X1080936Y1128936D01*
X1082342Y1127997D01*
X1084000Y1127667D01*
X1085658Y1127997D01*
X1087064Y1128936D01*
X1088003Y1130342D01*
X1088333Y1132000D01*
X1088003Y1133658D01*
X1087064Y1135064D01*
X1085658Y1136003D01*
X1084000Y1136333D01*
D02*
G37*
G36*
X1094000Y1135333D02*
X1092342Y1135003D01*
X1090936Y1134064D01*
X1089997Y1132658D01*
X1089667Y1131000D01*
X1089997Y1129342D01*
X1090936Y1127936D01*
X1092342Y1126997D01*
X1094000Y1126667D01*
X1095658Y1126997D01*
X1097064Y1127936D01*
X1098003Y1129342D01*
X1098333Y1131000D01*
X1098003Y1132658D01*
X1097064Y1134064D01*
X1095658Y1135003D01*
X1094000Y1135333D01*
D02*
G37*
G36*
X1645000Y873333D02*
X1643342Y873003D01*
X1641936Y872064D01*
X1640997Y870658D01*
X1640667Y869000D01*
X1640997Y867342D01*
X1641936Y865936D01*
X1643342Y864997D01*
X1645000Y864667D01*
X1646658Y864997D01*
X1648064Y865936D01*
X1649003Y867342D01*
X1649333Y869000D01*
X1649003Y870658D01*
X1648064Y872064D01*
X1646658Y873003D01*
X1645000Y873333D01*
D02*
G37*
G36*
X1516900Y791199D02*
X1514998Y790948D01*
X1512526Y789925D01*
X1510404Y788296D01*
X1508775Y786174D01*
X1507751Y783702D01*
X1507501Y781800D01*
X1516900D01*
Y791199D01*
D02*
G37*
G36*
X1518400D02*
Y781800D01*
X1527799D01*
X1527549Y783702D01*
X1526525Y786174D01*
X1524896Y788296D01*
X1522774Y789925D01*
X1520302Y790948D01*
X1518400Y791199D01*
D02*
G37*
G36*
X1493000D02*
Y781800D01*
X1502399D01*
X1502148Y783702D01*
X1501125Y786174D01*
X1499496Y788296D01*
X1497374Y789925D01*
X1494902Y790948D01*
X1493000Y791199D01*
D02*
G37*
G36*
X1491500D02*
X1489598Y790948D01*
X1487126Y789925D01*
X1485004Y788296D01*
X1483375Y786174D01*
X1482352Y783702D01*
X1482101Y781800D01*
X1491500D01*
Y791199D01*
D02*
G37*
G36*
X1466850Y789996D02*
X1464534Y789692D01*
X1462377Y788798D01*
X1460524Y787376D01*
X1459102Y785523D01*
X1458208Y783365D01*
X1457903Y781050D01*
X1458208Y778735D01*
X1459102Y776577D01*
X1460524Y774724D01*
X1462377Y773302D01*
X1464534Y772408D01*
X1466850Y772104D01*
X1469165Y772408D01*
X1471323Y773302D01*
X1473176Y774724D01*
X1474598Y776577D01*
X1475492Y778735D01*
X1475797Y781050D01*
X1475492Y783365D01*
X1474598Y785523D01*
X1473176Y787376D01*
X1471323Y788798D01*
X1469165Y789692D01*
X1466850Y789996D01*
D02*
G37*
G36*
X1441450D02*
X1439135Y789692D01*
X1436977Y788798D01*
X1435124Y787376D01*
X1433702Y785523D01*
X1432808Y783365D01*
X1432504Y781050D01*
X1432808Y778735D01*
X1433702Y776577D01*
X1435124Y774724D01*
X1436977Y773302D01*
X1439135Y772408D01*
X1441450Y772104D01*
X1443766Y772408D01*
X1445923Y773302D01*
X1447776Y774724D01*
X1449198Y776577D01*
X1450092Y778735D01*
X1450397Y781050D01*
X1450092Y783365D01*
X1449198Y785523D01*
X1447776Y787376D01*
X1445923Y788798D01*
X1443766Y789692D01*
X1441450Y789996D01*
D02*
G37*
G36*
X1502399Y805700D02*
X1493000D01*
Y796301D01*
X1494902Y796552D01*
X1497374Y797575D01*
X1499496Y799204D01*
X1501125Y801326D01*
X1502148Y803798D01*
X1502399Y805700D01*
D02*
G37*
G36*
X1527799D02*
X1518400D01*
Y796301D01*
X1520302Y796552D01*
X1522774Y797575D01*
X1524896Y799204D01*
X1526525Y801326D01*
X1527549Y803798D01*
X1527799Y805700D01*
D02*
G37*
G36*
X1516900D02*
X1507501D01*
X1507751Y803798D01*
X1508775Y801326D01*
X1510404Y799204D01*
X1512526Y797575D01*
X1514998Y796552D01*
X1516900Y796301D01*
Y805700D01*
D02*
G37*
G36*
X1491500D02*
X1482101D01*
X1482352Y803798D01*
X1483375Y801326D01*
X1485004Y799204D01*
X1487126Y797575D01*
X1489598Y796552D01*
X1491500Y796301D01*
Y805700D01*
D02*
G37*
G36*
X1502399Y780300D02*
X1493000D01*
Y770901D01*
X1494902Y771152D01*
X1497374Y772175D01*
X1499496Y773804D01*
X1501125Y775926D01*
X1502148Y778398D01*
X1502399Y780300D01*
D02*
G37*
G36*
X1516900D02*
X1507501D01*
X1507751Y778398D01*
X1508775Y775926D01*
X1510404Y773804D01*
X1512526Y772175D01*
X1514998Y771152D01*
X1516900Y770901D01*
Y780300D01*
D02*
G37*
G36*
X1527799D02*
X1518400D01*
Y770901D01*
X1520302Y771152D01*
X1522774Y772175D01*
X1524896Y773804D01*
X1526525Y775926D01*
X1527549Y778398D01*
X1527799Y780300D01*
D02*
G37*
G36*
X1491500D02*
X1482101D01*
X1482352Y778398D01*
X1483375Y775926D01*
X1485004Y773804D01*
X1487126Y772175D01*
X1489598Y771152D01*
X1491500Y770901D01*
Y780300D01*
D02*
G37*
G36*
X1645000Y753333D02*
X1643342Y753003D01*
X1641936Y752064D01*
X1640997Y750658D01*
X1640667Y749000D01*
X1640997Y747342D01*
X1641936Y745936D01*
X1643342Y744997D01*
X1645000Y744667D01*
X1646658Y744997D01*
X1648064Y745936D01*
X1649003Y747342D01*
X1649333Y749000D01*
X1649003Y750658D01*
X1648064Y752064D01*
X1646658Y753003D01*
X1645000Y753333D01*
D02*
G37*
G36*
X1644000Y725333D02*
X1642342Y725003D01*
X1640936Y724064D01*
X1639997Y722658D01*
X1639667Y721000D01*
X1639997Y719342D01*
X1640936Y717936D01*
X1642342Y716997D01*
X1644000Y716667D01*
X1645658Y716997D01*
X1647064Y717936D01*
X1648003Y719342D01*
X1648333Y721000D01*
X1648003Y722658D01*
X1647064Y724064D01*
X1645658Y725003D01*
X1644000Y725333D01*
D02*
G37*
G36*
X1365250Y789996D02*
X1362935Y789692D01*
X1360777Y788798D01*
X1358924Y787376D01*
X1357502Y785523D01*
X1356608Y783365D01*
X1356304Y781050D01*
X1356608Y778735D01*
X1357502Y776577D01*
X1358924Y774724D01*
X1360777Y773302D01*
X1362935Y772408D01*
X1365250Y772104D01*
X1367565Y772408D01*
X1369723Y773302D01*
X1371576Y774724D01*
X1372998Y776577D01*
X1373892Y778735D01*
X1374196Y781050D01*
X1373892Y783365D01*
X1372998Y785523D01*
X1371576Y787376D01*
X1369723Y788798D01*
X1367565Y789692D01*
X1365250Y789996D01*
D02*
G37*
G36*
X1339850D02*
X1337534Y789692D01*
X1335377Y788798D01*
X1333524Y787376D01*
X1332102Y785523D01*
X1331208Y783365D01*
X1330903Y781050D01*
X1331208Y778735D01*
X1332102Y776577D01*
X1333524Y774724D01*
X1335377Y773302D01*
X1337534Y772408D01*
X1339850Y772104D01*
X1342166Y772408D01*
X1344323Y773302D01*
X1346176Y774724D01*
X1347598Y776577D01*
X1348492Y778735D01*
X1348797Y781050D01*
X1348492Y783365D01*
X1347598Y785523D01*
X1346176Y787376D01*
X1344323Y788798D01*
X1342166Y789692D01*
X1339850Y789996D01*
D02*
G37*
G36*
X1416050D02*
X1413734Y789692D01*
X1411577Y788798D01*
X1409724Y787376D01*
X1408302Y785523D01*
X1407408Y783365D01*
X1407103Y781050D01*
X1407408Y778735D01*
X1408302Y776577D01*
X1409724Y774724D01*
X1411577Y773302D01*
X1413734Y772408D01*
X1416050Y772104D01*
X1418365Y772408D01*
X1420523Y773302D01*
X1422376Y774724D01*
X1423798Y776577D01*
X1424692Y778735D01*
X1424996Y781050D01*
X1424692Y783365D01*
X1423798Y785523D01*
X1422376Y787376D01*
X1420523Y788798D01*
X1418365Y789692D01*
X1416050Y789996D01*
D02*
G37*
G36*
X1390650D02*
X1388335Y789692D01*
X1386177Y788798D01*
X1384324Y787376D01*
X1382902Y785523D01*
X1382008Y783365D01*
X1381703Y781050D01*
X1382008Y778735D01*
X1382902Y776577D01*
X1384324Y774724D01*
X1386177Y773302D01*
X1388335Y772408D01*
X1390650Y772104D01*
X1392966Y772408D01*
X1395123Y773302D01*
X1396976Y774724D01*
X1398398Y776577D01*
X1399292Y778735D01*
X1399597Y781050D01*
X1399292Y783365D01*
X1398398Y785523D01*
X1396976Y787376D01*
X1395123Y788798D01*
X1392966Y789692D01*
X1390650Y789996D01*
D02*
G37*
G36*
X1314450D02*
X1312135Y789692D01*
X1309977Y788798D01*
X1308124Y787376D01*
X1306702Y785523D01*
X1305808Y783365D01*
X1305504Y781050D01*
X1305808Y778735D01*
X1306702Y776577D01*
X1308124Y774724D01*
X1309977Y773302D01*
X1312135Y772408D01*
X1314450Y772104D01*
X1316765Y772408D01*
X1318923Y773302D01*
X1320776Y774724D01*
X1322198Y776577D01*
X1323092Y778735D01*
X1323396Y781050D01*
X1323092Y783365D01*
X1322198Y785523D01*
X1320776Y787376D01*
X1318923Y788798D01*
X1316765Y789692D01*
X1314450Y789996D01*
D02*
G37*
G36*
X1238250D02*
X1235935Y789692D01*
X1233777Y788798D01*
X1231924Y787376D01*
X1230502Y785523D01*
X1229608Y783365D01*
X1229304Y781050D01*
X1229608Y778735D01*
X1230502Y776577D01*
X1231924Y774724D01*
X1233777Y773302D01*
X1235935Y772408D01*
X1238250Y772104D01*
X1240565Y772408D01*
X1242723Y773302D01*
X1244576Y774724D01*
X1245998Y776577D01*
X1246892Y778735D01*
X1247197Y781050D01*
X1246892Y783365D01*
X1245998Y785523D01*
X1244576Y787376D01*
X1242723Y788798D01*
X1240565Y789692D01*
X1238250Y789996D01*
D02*
G37*
G36*
X1212850D02*
X1210535Y789692D01*
X1208377Y788798D01*
X1206524Y787376D01*
X1205102Y785523D01*
X1204208Y783365D01*
X1203904Y781050D01*
X1204208Y778735D01*
X1205102Y776577D01*
X1206524Y774724D01*
X1208377Y773302D01*
X1210535Y772408D01*
X1212850Y772104D01*
X1215165Y772408D01*
X1217323Y773302D01*
X1219176Y774724D01*
X1220598Y776577D01*
X1221492Y778735D01*
X1221796Y781050D01*
X1221492Y783365D01*
X1220598Y785523D01*
X1219176Y787376D01*
X1217323Y788798D01*
X1215165Y789692D01*
X1212850Y789996D01*
D02*
G37*
G36*
X1289050D02*
X1286734Y789692D01*
X1284577Y788798D01*
X1282724Y787376D01*
X1281302Y785523D01*
X1280408Y783365D01*
X1280103Y781050D01*
X1280408Y778735D01*
X1281302Y776577D01*
X1282724Y774724D01*
X1284577Y773302D01*
X1286734Y772408D01*
X1289050Y772104D01*
X1291366Y772408D01*
X1293523Y773302D01*
X1295376Y774724D01*
X1296798Y776577D01*
X1297692Y778735D01*
X1297997Y781050D01*
X1297692Y783365D01*
X1296798Y785523D01*
X1295376Y787376D01*
X1293523Y788798D01*
X1291366Y789692D01*
X1289050Y789996D01*
D02*
G37*
G36*
X1263650D02*
X1261335Y789692D01*
X1259177Y788798D01*
X1257324Y787376D01*
X1255902Y785523D01*
X1255008Y783365D01*
X1254704Y781050D01*
X1255008Y778735D01*
X1255902Y776577D01*
X1257324Y774724D01*
X1259177Y773302D01*
X1261335Y772408D01*
X1263650Y772104D01*
X1265965Y772408D01*
X1268123Y773302D01*
X1269976Y774724D01*
X1271398Y776577D01*
X1272292Y778735D01*
X1272597Y781050D01*
X1272292Y783365D01*
X1271398Y785523D01*
X1269976Y787376D01*
X1268123Y788798D01*
X1265965Y789692D01*
X1263650Y789996D01*
D02*
G37*
G36*
X1212850Y815396D02*
X1210535Y815092D01*
X1208377Y814198D01*
X1206524Y812776D01*
X1205102Y810923D01*
X1204208Y808765D01*
X1203904Y806450D01*
X1204208Y804135D01*
X1205102Y801977D01*
X1206524Y800124D01*
X1208377Y798702D01*
X1210535Y797808D01*
X1212850Y797504D01*
X1215165Y797808D01*
X1217323Y798702D01*
X1219176Y800124D01*
X1220598Y801977D01*
X1221492Y804135D01*
X1221796Y806450D01*
X1221492Y808765D01*
X1220598Y810923D01*
X1219176Y812776D01*
X1217323Y814198D01*
X1215165Y815092D01*
X1212850Y815396D01*
D02*
G37*
G36*
X1645000Y845333D02*
X1643342Y845003D01*
X1641936Y844064D01*
X1640997Y842658D01*
X1640667Y841000D01*
X1640997Y839342D01*
X1641936Y837936D01*
X1643342Y836997D01*
X1645000Y836667D01*
X1646658Y836997D01*
X1648064Y837936D01*
X1649003Y839342D01*
X1649333Y841000D01*
X1649003Y842658D01*
X1648064Y844064D01*
X1646658Y845003D01*
X1645000Y845333D01*
D02*
G37*
G36*
X1390650Y815396D02*
X1388335Y815092D01*
X1386177Y814198D01*
X1384324Y812776D01*
X1382902Y810923D01*
X1382008Y808765D01*
X1381703Y806450D01*
X1382008Y804135D01*
X1382902Y801977D01*
X1384324Y800124D01*
X1386177Y798702D01*
X1388335Y797808D01*
X1390650Y797504D01*
X1392966Y797808D01*
X1395123Y798702D01*
X1396976Y800124D01*
X1398398Y801977D01*
X1399292Y804135D01*
X1399597Y806450D01*
X1399292Y808765D01*
X1398398Y810923D01*
X1396976Y812776D01*
X1395123Y814198D01*
X1392966Y815092D01*
X1390650Y815396D01*
D02*
G37*
G36*
X1365250D02*
X1362935Y815092D01*
X1360777Y814198D01*
X1358924Y812776D01*
X1357502Y810923D01*
X1356608Y808765D01*
X1356304Y806450D01*
X1356608Y804135D01*
X1357502Y801977D01*
X1358924Y800124D01*
X1360777Y798702D01*
X1362935Y797808D01*
X1365250Y797504D01*
X1367565Y797808D01*
X1369723Y798702D01*
X1371576Y800124D01*
X1372998Y801977D01*
X1373892Y804135D01*
X1374196Y806450D01*
X1373892Y808765D01*
X1372998Y810923D01*
X1371576Y812776D01*
X1369723Y814198D01*
X1367565Y815092D01*
X1365250Y815396D01*
D02*
G37*
G36*
X1441450D02*
X1439135Y815092D01*
X1436977Y814198D01*
X1435124Y812776D01*
X1433702Y810923D01*
X1432808Y808765D01*
X1432504Y806450D01*
X1432808Y804135D01*
X1433702Y801977D01*
X1435124Y800124D01*
X1436977Y798702D01*
X1439135Y797808D01*
X1441450Y797504D01*
X1443766Y797808D01*
X1445923Y798702D01*
X1447776Y800124D01*
X1449198Y801977D01*
X1450092Y804135D01*
X1450397Y806450D01*
X1450092Y808765D01*
X1449198Y810923D01*
X1447776Y812776D01*
X1445923Y814198D01*
X1443766Y815092D01*
X1441450Y815396D01*
D02*
G37*
G36*
X1416050D02*
X1413734Y815092D01*
X1411577Y814198D01*
X1409724Y812776D01*
X1408302Y810923D01*
X1407408Y808765D01*
X1407103Y806450D01*
X1407408Y804135D01*
X1408302Y801977D01*
X1409724Y800124D01*
X1411577Y798702D01*
X1413734Y797808D01*
X1416050Y797504D01*
X1418365Y797808D01*
X1420523Y798702D01*
X1422376Y800124D01*
X1423798Y801977D01*
X1424692Y804135D01*
X1424996Y806450D01*
X1424692Y808765D01*
X1423798Y810923D01*
X1422376Y812776D01*
X1420523Y814198D01*
X1418365Y815092D01*
X1416050Y815396D01*
D02*
G37*
G36*
X1339850D02*
X1337534Y815092D01*
X1335377Y814198D01*
X1333524Y812776D01*
X1332102Y810923D01*
X1331208Y808765D01*
X1330903Y806450D01*
X1331208Y804135D01*
X1332102Y801977D01*
X1333524Y800124D01*
X1335377Y798702D01*
X1337534Y797808D01*
X1339850Y797504D01*
X1342166Y797808D01*
X1344323Y798702D01*
X1346176Y800124D01*
X1347598Y801977D01*
X1348492Y804135D01*
X1348797Y806450D01*
X1348492Y808765D01*
X1347598Y810923D01*
X1346176Y812776D01*
X1344323Y814198D01*
X1342166Y815092D01*
X1339850Y815396D01*
D02*
G37*
G36*
X1263650D02*
X1261335Y815092D01*
X1259177Y814198D01*
X1257324Y812776D01*
X1255902Y810923D01*
X1255008Y808765D01*
X1254704Y806450D01*
X1255008Y804135D01*
X1255902Y801977D01*
X1257324Y800124D01*
X1259177Y798702D01*
X1261335Y797808D01*
X1263650Y797504D01*
X1265965Y797808D01*
X1268123Y798702D01*
X1269976Y800124D01*
X1271398Y801977D01*
X1272292Y804135D01*
X1272597Y806450D01*
X1272292Y808765D01*
X1271398Y810923D01*
X1269976Y812776D01*
X1268123Y814198D01*
X1265965Y815092D01*
X1263650Y815396D01*
D02*
G37*
G36*
X1238250D02*
X1235935Y815092D01*
X1233777Y814198D01*
X1231924Y812776D01*
X1230502Y810923D01*
X1229608Y808765D01*
X1229304Y806450D01*
X1229608Y804135D01*
X1230502Y801977D01*
X1231924Y800124D01*
X1233777Y798702D01*
X1235935Y797808D01*
X1238250Y797504D01*
X1240565Y797808D01*
X1242723Y798702D01*
X1244576Y800124D01*
X1245998Y801977D01*
X1246892Y804135D01*
X1247197Y806450D01*
X1246892Y808765D01*
X1245998Y810923D01*
X1244576Y812776D01*
X1242723Y814198D01*
X1240565Y815092D01*
X1238250Y815396D01*
D02*
G37*
G36*
X1314450D02*
X1312135Y815092D01*
X1309977Y814198D01*
X1308124Y812776D01*
X1306702Y810923D01*
X1305808Y808765D01*
X1305504Y806450D01*
X1305808Y804135D01*
X1306702Y801977D01*
X1308124Y800124D01*
X1309977Y798702D01*
X1312135Y797808D01*
X1314450Y797504D01*
X1316765Y797808D01*
X1318923Y798702D01*
X1320776Y800124D01*
X1322198Y801977D01*
X1323092Y804135D01*
X1323396Y806450D01*
X1323092Y808765D01*
X1322198Y810923D01*
X1320776Y812776D01*
X1318923Y814198D01*
X1316765Y815092D01*
X1314450Y815396D01*
D02*
G37*
G36*
X1289050D02*
X1286734Y815092D01*
X1284577Y814198D01*
X1282724Y812776D01*
X1281302Y810923D01*
X1280408Y808765D01*
X1280103Y806450D01*
X1280408Y804135D01*
X1281302Y801977D01*
X1282724Y800124D01*
X1284577Y798702D01*
X1286734Y797808D01*
X1289050Y797504D01*
X1291366Y797808D01*
X1293523Y798702D01*
X1295376Y800124D01*
X1296798Y801977D01*
X1297692Y804135D01*
X1297997Y806450D01*
X1297692Y808765D01*
X1296798Y810923D01*
X1295376Y812776D01*
X1293523Y814198D01*
X1291366Y815092D01*
X1289050Y815396D01*
D02*
G37*
G36*
X1493000Y816599D02*
Y807200D01*
X1502399D01*
X1502148Y809102D01*
X1501125Y811574D01*
X1499496Y813696D01*
X1497374Y815325D01*
X1494902Y816348D01*
X1493000Y816599D01*
D02*
G37*
G36*
X1518400D02*
Y807200D01*
X1527799D01*
X1527549Y809102D01*
X1526525Y811574D01*
X1524896Y813696D01*
X1522774Y815325D01*
X1520302Y816348D01*
X1518400Y816599D01*
D02*
G37*
G36*
X1516900D02*
X1514998Y816348D01*
X1512526Y815325D01*
X1510404Y813696D01*
X1508775Y811574D01*
X1507751Y809102D01*
X1507501Y807200D01*
X1516900D01*
Y816599D01*
D02*
G37*
G36*
X1466850Y815396D02*
X1464534Y815092D01*
X1462377Y814198D01*
X1460524Y812776D01*
X1459102Y810923D01*
X1458208Y808765D01*
X1457903Y806450D01*
X1458208Y804135D01*
X1459102Y801977D01*
X1460524Y800124D01*
X1462377Y798702D01*
X1464534Y797808D01*
X1466850Y797504D01*
X1469165Y797808D01*
X1471323Y798702D01*
X1473176Y800124D01*
X1474598Y801977D01*
X1475492Y804135D01*
X1475797Y806450D01*
X1475492Y808765D01*
X1474598Y810923D01*
X1473176Y812776D01*
X1471323Y814198D01*
X1469165Y815092D01*
X1466850Y815396D01*
D02*
G37*
G36*
X1491500Y816599D02*
X1489598Y816348D01*
X1487126Y815325D01*
X1485004Y813696D01*
X1483375Y811574D01*
X1482352Y809102D01*
X1482101Y807200D01*
X1491500D01*
Y816599D01*
D02*
G37*
G36*
X1645000Y1205333D02*
X1643342Y1205003D01*
X1641936Y1204064D01*
X1640997Y1202658D01*
X1640667Y1201000D01*
X1640997Y1199342D01*
X1641936Y1197936D01*
X1643342Y1196997D01*
X1645000Y1196667D01*
X1646658Y1196997D01*
X1648064Y1197936D01*
X1649003Y1199342D01*
X1649333Y1201000D01*
X1649003Y1202658D01*
X1648064Y1204064D01*
X1646658Y1205003D01*
X1645000Y1205333D01*
D02*
G37*
G36*
Y1233333D02*
X1643342Y1233003D01*
X1641936Y1232064D01*
X1640997Y1230658D01*
X1640667Y1229000D01*
X1640997Y1227342D01*
X1641936Y1225936D01*
X1643342Y1224997D01*
X1645000Y1224667D01*
X1646658Y1224997D01*
X1648064Y1225936D01*
X1649003Y1227342D01*
X1649333Y1229000D01*
X1649003Y1230658D01*
X1648064Y1232064D01*
X1646658Y1233003D01*
X1645000Y1233333D01*
D02*
G37*
G36*
X1262000Y1251333D02*
X1260342Y1251003D01*
X1258936Y1250064D01*
X1257997Y1248658D01*
X1257667Y1247000D01*
X1257997Y1245342D01*
X1258936Y1243936D01*
X1260342Y1242997D01*
X1262000Y1242667D01*
X1263658Y1242997D01*
X1265064Y1243936D01*
X1266003Y1245342D01*
X1266333Y1247000D01*
X1266003Y1248658D01*
X1265064Y1250064D01*
X1263658Y1251003D01*
X1262000Y1251333D01*
D02*
G37*
G36*
X1187450Y1297997D02*
X1185135Y1297692D01*
X1182977Y1296798D01*
X1181124Y1295376D01*
X1179702Y1293523D01*
X1178808Y1291366D01*
X1178503Y1289050D01*
X1178808Y1286734D01*
X1179702Y1284577D01*
X1181124Y1282724D01*
X1182977Y1281302D01*
X1185135Y1280408D01*
X1187450Y1280103D01*
X1189765Y1280408D01*
X1191923Y1281302D01*
X1193776Y1282724D01*
X1195198Y1284577D01*
X1196092Y1286734D01*
X1196396Y1289050D01*
X1196092Y1291366D01*
X1195198Y1293523D01*
X1193776Y1295376D01*
X1191923Y1296798D01*
X1189765Y1297692D01*
X1187450Y1297997D01*
D02*
G37*
G36*
X1162050D02*
X1159734Y1297692D01*
X1157577Y1296798D01*
X1155724Y1295376D01*
X1154302Y1293523D01*
X1153408Y1291366D01*
X1153103Y1289050D01*
X1153408Y1286734D01*
X1154302Y1284577D01*
X1155724Y1282724D01*
X1157577Y1281302D01*
X1159734Y1280408D01*
X1162050Y1280103D01*
X1164365Y1280408D01*
X1166523Y1281302D01*
X1168376Y1282724D01*
X1169798Y1284577D01*
X1170692Y1286734D01*
X1170996Y1289050D01*
X1170692Y1291366D01*
X1169798Y1293523D01*
X1168376Y1295376D01*
X1166523Y1296798D01*
X1164365Y1297692D01*
X1162050Y1297997D01*
D02*
G37*
G36*
X1238250D02*
X1235935Y1297692D01*
X1233777Y1296798D01*
X1231924Y1295376D01*
X1230502Y1293523D01*
X1229608Y1291366D01*
X1229304Y1289050D01*
X1229608Y1286734D01*
X1230502Y1284577D01*
X1231924Y1282724D01*
X1233777Y1281302D01*
X1235935Y1280408D01*
X1238250Y1280103D01*
X1240565Y1280408D01*
X1242723Y1281302D01*
X1244576Y1282724D01*
X1245998Y1284577D01*
X1246892Y1286734D01*
X1247197Y1289050D01*
X1246892Y1291366D01*
X1245998Y1293523D01*
X1244576Y1295376D01*
X1242723Y1296798D01*
X1240565Y1297692D01*
X1238250Y1297997D01*
D02*
G37*
G36*
X1212850D02*
X1210535Y1297692D01*
X1208377Y1296798D01*
X1206524Y1295376D01*
X1205102Y1293523D01*
X1204208Y1291366D01*
X1203904Y1289050D01*
X1204208Y1286734D01*
X1205102Y1284577D01*
X1206524Y1282724D01*
X1208377Y1281302D01*
X1210535Y1280408D01*
X1212850Y1280103D01*
X1215165Y1280408D01*
X1217323Y1281302D01*
X1219176Y1282724D01*
X1220598Y1284577D01*
X1221492Y1286734D01*
X1221796Y1289050D01*
X1221492Y1291366D01*
X1220598Y1293523D01*
X1219176Y1295376D01*
X1217323Y1296798D01*
X1215165Y1297692D01*
X1212850Y1297997D01*
D02*
G37*
G36*
X1111250D02*
X1108934Y1297692D01*
X1106777Y1296798D01*
X1104924Y1295376D01*
X1103502Y1293523D01*
X1102608Y1291366D01*
X1102303Y1289050D01*
X1102608Y1286734D01*
X1103502Y1284577D01*
X1104924Y1282724D01*
X1106777Y1281302D01*
X1108934Y1280408D01*
X1111250Y1280103D01*
X1113566Y1280408D01*
X1115723Y1281302D01*
X1117576Y1282724D01*
X1118998Y1284577D01*
X1119892Y1286734D01*
X1120197Y1289050D01*
X1119892Y1291366D01*
X1118998Y1293523D01*
X1117576Y1295376D01*
X1115723Y1296798D01*
X1113566Y1297692D01*
X1111250Y1297997D01*
D02*
G37*
G36*
X1085850D02*
X1083534Y1297692D01*
X1081377Y1296798D01*
X1079524Y1295376D01*
X1078102Y1293523D01*
X1077208Y1291366D01*
X1076904Y1289050D01*
X1077208Y1286734D01*
X1078102Y1284577D01*
X1079524Y1282724D01*
X1081377Y1281302D01*
X1083534Y1280408D01*
X1085850Y1280103D01*
X1088166Y1280408D01*
X1090323Y1281302D01*
X1092176Y1282724D01*
X1093598Y1284577D01*
X1094492Y1286734D01*
X1094797Y1289050D01*
X1094492Y1291366D01*
X1093598Y1293523D01*
X1092176Y1295376D01*
X1090323Y1296798D01*
X1088166Y1297692D01*
X1085850Y1297997D01*
D02*
G37*
G36*
X1060450D02*
X1058135Y1297692D01*
X1055977Y1296798D01*
X1054124Y1295376D01*
X1052702Y1293523D01*
X1051808Y1291366D01*
X1051504Y1289050D01*
X1051808Y1286734D01*
X1052702Y1284577D01*
X1054124Y1282724D01*
X1055977Y1281302D01*
X1058135Y1280408D01*
X1060450Y1280103D01*
X1062766Y1280408D01*
X1064923Y1281302D01*
X1066776Y1282724D01*
X1068198Y1284577D01*
X1069092Y1286734D01*
X1069397Y1289050D01*
X1069092Y1291366D01*
X1068198Y1293523D01*
X1066776Y1295376D01*
X1064923Y1296798D01*
X1062766Y1297692D01*
X1060450Y1297997D01*
D02*
G37*
G36*
X1517650D02*
X1515334Y1297692D01*
X1513177Y1296798D01*
X1511324Y1295376D01*
X1509902Y1293523D01*
X1509008Y1291366D01*
X1508703Y1289050D01*
X1509008Y1286734D01*
X1509902Y1284577D01*
X1511324Y1282724D01*
X1513177Y1281302D01*
X1515334Y1280408D01*
X1517650Y1280103D01*
X1519966Y1280408D01*
X1522123Y1281302D01*
X1523976Y1282724D01*
X1525398Y1284577D01*
X1526292Y1286734D01*
X1526597Y1289050D01*
X1526292Y1291366D01*
X1525398Y1293523D01*
X1523976Y1295376D01*
X1522123Y1296798D01*
X1519966Y1297692D01*
X1517650Y1297997D01*
D02*
G37*
G36*
X1646000Y1353333D02*
X1644342Y1353003D01*
X1642936Y1352064D01*
X1641997Y1350658D01*
X1641667Y1349000D01*
X1641997Y1347342D01*
X1642936Y1345936D01*
X1644342Y1344997D01*
X1646000Y1344667D01*
X1647658Y1344997D01*
X1649064Y1345936D01*
X1650003Y1347342D01*
X1650333Y1349000D01*
X1650003Y1350658D01*
X1649064Y1352064D01*
X1647658Y1353003D01*
X1646000Y1353333D01*
D02*
G37*
G36*
X1647000Y1325333D02*
X1645342Y1325003D01*
X1643936Y1324064D01*
X1642997Y1322658D01*
X1642667Y1321000D01*
X1642997Y1319342D01*
X1643936Y1317936D01*
X1645342Y1316997D01*
X1647000Y1316667D01*
X1648658Y1316997D01*
X1650064Y1317936D01*
X1651003Y1319342D01*
X1651333Y1321000D01*
X1651003Y1322658D01*
X1650064Y1324064D01*
X1648658Y1325003D01*
X1647000Y1325333D01*
D02*
G37*
G36*
X1492250Y1297997D02*
X1489935Y1297692D01*
X1487777Y1296798D01*
X1485924Y1295376D01*
X1484502Y1293523D01*
X1483608Y1291366D01*
X1483304Y1289050D01*
X1483608Y1286734D01*
X1484502Y1284577D01*
X1485924Y1282724D01*
X1487777Y1281302D01*
X1489935Y1280408D01*
X1492250Y1280103D01*
X1494565Y1280408D01*
X1496723Y1281302D01*
X1498576Y1282724D01*
X1499998Y1284577D01*
X1500892Y1286734D01*
X1501196Y1289050D01*
X1500892Y1291366D01*
X1499998Y1293523D01*
X1498576Y1295376D01*
X1496723Y1296798D01*
X1494565Y1297692D01*
X1492250Y1297997D01*
D02*
G37*
G36*
X1289050D02*
X1286734Y1297692D01*
X1284577Y1296798D01*
X1282724Y1295376D01*
X1281302Y1293523D01*
X1280408Y1291366D01*
X1280103Y1289050D01*
X1280408Y1286734D01*
X1281302Y1284577D01*
X1282724Y1282724D01*
X1284577Y1281302D01*
X1286734Y1280408D01*
X1289050Y1280103D01*
X1291366Y1280408D01*
X1293523Y1281302D01*
X1295376Y1282724D01*
X1296798Y1284577D01*
X1297692Y1286734D01*
X1297997Y1289050D01*
X1297692Y1291366D01*
X1296798Y1293523D01*
X1295376Y1295376D01*
X1293523Y1296798D01*
X1291366Y1297692D01*
X1289050Y1297997D01*
D02*
G37*
G36*
X1263650D02*
X1261335Y1297692D01*
X1259177Y1296798D01*
X1257324Y1295376D01*
X1255902Y1293523D01*
X1255008Y1291366D01*
X1254704Y1289050D01*
X1255008Y1286734D01*
X1255902Y1284577D01*
X1257324Y1282724D01*
X1259177Y1281302D01*
X1261335Y1280408D01*
X1263650Y1280103D01*
X1265965Y1280408D01*
X1268123Y1281302D01*
X1269976Y1282724D01*
X1271398Y1284577D01*
X1272292Y1286734D01*
X1272597Y1289050D01*
X1272292Y1291366D01*
X1271398Y1293523D01*
X1269976Y1295376D01*
X1268123Y1296798D01*
X1265965Y1297692D01*
X1263650Y1297997D01*
D02*
G37*
G36*
X1466850D02*
X1464534Y1297692D01*
X1462377Y1296798D01*
X1460524Y1295376D01*
X1459102Y1293523D01*
X1458208Y1291366D01*
X1457903Y1289050D01*
X1458208Y1286734D01*
X1459102Y1284577D01*
X1460524Y1282724D01*
X1462377Y1281302D01*
X1464534Y1280408D01*
X1466850Y1280103D01*
X1469165Y1280408D01*
X1471323Y1281302D01*
X1473176Y1282724D01*
X1474598Y1284577D01*
X1475492Y1286734D01*
X1475797Y1289050D01*
X1475492Y1291366D01*
X1474598Y1293523D01*
X1473176Y1295376D01*
X1471323Y1296798D01*
X1469165Y1297692D01*
X1466850Y1297997D01*
D02*
G37*
G36*
X1314450D02*
X1312135Y1297692D01*
X1309977Y1296798D01*
X1308124Y1295376D01*
X1306702Y1293523D01*
X1305808Y1291366D01*
X1305504Y1289050D01*
X1305808Y1286734D01*
X1306702Y1284577D01*
X1308124Y1282724D01*
X1309977Y1281302D01*
X1312135Y1280408D01*
X1314450Y1280103D01*
X1316765Y1280408D01*
X1318923Y1281302D01*
X1320776Y1282724D01*
X1322198Y1284577D01*
X1323092Y1286734D01*
X1323396Y1289050D01*
X1323092Y1291366D01*
X1322198Y1293523D01*
X1320776Y1295376D01*
X1318923Y1296798D01*
X1316765Y1297692D01*
X1314450Y1297997D01*
D02*
G37*
G36*
X1365250Y1272597D02*
X1362935Y1272292D01*
X1360777Y1271398D01*
X1358924Y1269976D01*
X1357502Y1268123D01*
X1356608Y1265965D01*
X1356304Y1263650D01*
X1356608Y1261335D01*
X1357502Y1259177D01*
X1358924Y1257324D01*
X1360777Y1255902D01*
X1362935Y1255008D01*
X1365250Y1254704D01*
X1367565Y1255008D01*
X1369723Y1255902D01*
X1371576Y1257324D01*
X1372998Y1259177D01*
X1373892Y1261335D01*
X1374196Y1263650D01*
X1373892Y1265965D01*
X1372998Y1268123D01*
X1371576Y1269976D01*
X1369723Y1271398D01*
X1367565Y1272292D01*
X1365250Y1272597D01*
D02*
G37*
G36*
X1303000Y1276333D02*
X1301342Y1276003D01*
X1299936Y1275064D01*
X1298997Y1273658D01*
X1298667Y1272000D01*
X1298997Y1270342D01*
X1299936Y1268936D01*
X1301342Y1267997D01*
X1303000Y1267667D01*
X1304658Y1267997D01*
X1305511Y1268566D01*
X1306537Y1267724D01*
X1305808Y1265965D01*
X1305504Y1263650D01*
X1305808Y1261335D01*
X1306702Y1259177D01*
X1308124Y1257324D01*
X1309977Y1255902D01*
X1312135Y1255008D01*
X1314450Y1254704D01*
X1316765Y1255008D01*
X1318923Y1255902D01*
X1320776Y1257324D01*
X1322198Y1259177D01*
X1323092Y1261335D01*
X1323396Y1263650D01*
X1323092Y1265965D01*
X1322198Y1268123D01*
X1320776Y1269976D01*
X1318923Y1271398D01*
X1316765Y1272292D01*
X1314450Y1272597D01*
X1312135Y1272292D01*
X1309977Y1271398D01*
X1308219Y1270049D01*
X1307863Y1270154D01*
X1307073Y1270693D01*
X1307333Y1272000D01*
X1307003Y1273658D01*
X1306064Y1275064D01*
X1304658Y1276003D01*
X1303000Y1276333D01*
D02*
G37*
G36*
X1416050Y1272597D02*
X1413734Y1272292D01*
X1411577Y1271398D01*
X1409724Y1269976D01*
X1408302Y1268123D01*
X1407408Y1265965D01*
X1407103Y1263650D01*
X1407408Y1261335D01*
X1408302Y1259177D01*
X1409724Y1257324D01*
X1411577Y1255902D01*
X1413734Y1255008D01*
X1416050Y1254704D01*
X1418365Y1255008D01*
X1420523Y1255902D01*
X1422376Y1257324D01*
X1423798Y1259177D01*
X1424692Y1261335D01*
X1424996Y1263650D01*
X1424692Y1265965D01*
X1423798Y1268123D01*
X1422376Y1269976D01*
X1420523Y1271398D01*
X1418365Y1272292D01*
X1416050Y1272597D01*
D02*
G37*
G36*
X1390650D02*
X1388335Y1272292D01*
X1386177Y1271398D01*
X1384324Y1269976D01*
X1382902Y1268123D01*
X1382008Y1265965D01*
X1381703Y1263650D01*
X1382008Y1261335D01*
X1382902Y1259177D01*
X1384324Y1257324D01*
X1386177Y1255902D01*
X1388335Y1255008D01*
X1390650Y1254704D01*
X1392966Y1255008D01*
X1395123Y1255902D01*
X1396976Y1257324D01*
X1398398Y1259177D01*
X1399292Y1261335D01*
X1399597Y1263650D01*
X1399292Y1265965D01*
X1398398Y1268123D01*
X1396976Y1269976D01*
X1395123Y1271398D01*
X1392966Y1272292D01*
X1390650Y1272597D01*
D02*
G37*
G36*
X1263650D02*
X1261335Y1272292D01*
X1259177Y1271398D01*
X1257324Y1269976D01*
X1255902Y1268123D01*
X1255008Y1265965D01*
X1254704Y1263650D01*
X1255008Y1261335D01*
X1255902Y1259177D01*
X1257324Y1257324D01*
X1259177Y1255902D01*
X1261335Y1255008D01*
X1263650Y1254704D01*
X1265965Y1255008D01*
X1268123Y1255902D01*
X1269976Y1257324D01*
X1271398Y1259177D01*
X1272292Y1261335D01*
X1272597Y1263650D01*
X1272292Y1265965D01*
X1271398Y1268123D01*
X1269976Y1269976D01*
X1268123Y1271398D01*
X1265965Y1272292D01*
X1263650Y1272597D01*
D02*
G37*
G36*
X1224997Y1258331D02*
X1223339Y1258001D01*
X1221934Y1257062D01*
X1220994Y1255656D01*
X1220664Y1253997D01*
X1220994Y1252339D01*
X1221934Y1250933D01*
X1223339Y1249994D01*
X1224997Y1249664D01*
X1226656Y1249994D01*
X1228062Y1250933D01*
X1229001Y1252339D01*
X1229331Y1253997D01*
X1229001Y1255656D01*
X1228062Y1257062D01*
X1226656Y1258001D01*
X1224997Y1258331D01*
D02*
G37*
G36*
X1238250Y1272597D02*
X1235935Y1272292D01*
X1233777Y1271398D01*
X1231924Y1269976D01*
X1230502Y1268123D01*
X1229608Y1265965D01*
X1229304Y1263650D01*
X1229608Y1261335D01*
X1230502Y1259177D01*
X1231924Y1257324D01*
X1233777Y1255902D01*
X1235935Y1255008D01*
X1238250Y1254704D01*
X1240565Y1255008D01*
X1241680Y1255470D01*
X1242522Y1254444D01*
X1241997Y1253658D01*
X1241667Y1252000D01*
X1241997Y1250342D01*
X1242936Y1248936D01*
X1244342Y1247997D01*
X1246000Y1247667D01*
X1247658Y1247997D01*
X1249064Y1248936D01*
X1250003Y1250342D01*
X1250333Y1252000D01*
X1250003Y1253658D01*
X1249064Y1255064D01*
X1247658Y1256003D01*
X1246000Y1256333D01*
X1245152Y1256164D01*
X1244610Y1257256D01*
X1244595Y1257349D01*
X1245998Y1259177D01*
X1246892Y1261335D01*
X1247197Y1263650D01*
X1246892Y1265965D01*
X1245998Y1268123D01*
X1244576Y1269976D01*
X1242723Y1271398D01*
X1240565Y1272292D01*
X1238250Y1272597D01*
D02*
G37*
G36*
X1212850D02*
X1210535Y1272292D01*
X1208377Y1271398D01*
X1206524Y1269976D01*
X1205102Y1268123D01*
X1204208Y1265965D01*
X1203904Y1263650D01*
X1204208Y1261335D01*
X1205102Y1259177D01*
X1206524Y1257324D01*
X1208377Y1255902D01*
X1210535Y1255008D01*
X1212850Y1254704D01*
X1215165Y1255008D01*
X1217323Y1255902D01*
X1219176Y1257324D01*
X1220598Y1259177D01*
X1221492Y1261335D01*
X1221796Y1263650D01*
X1221492Y1265965D01*
X1220598Y1268123D01*
X1219176Y1269976D01*
X1217323Y1271398D01*
X1215165Y1272292D01*
X1212850Y1272597D01*
D02*
G37*
G36*
X1253780Y1279553D02*
X1252122Y1279223D01*
X1250716Y1278284D01*
X1249777Y1276878D01*
X1249447Y1275220D01*
X1249777Y1273562D01*
X1250716Y1272156D01*
X1252122Y1271217D01*
X1253780Y1270887D01*
X1255438Y1271217D01*
X1256844Y1272156D01*
X1257783Y1273562D01*
X1258113Y1275220D01*
X1257783Y1276878D01*
X1256844Y1278284D01*
X1255438Y1279223D01*
X1253780Y1279553D01*
D02*
G37*
G36*
X1441450Y1297997D02*
X1439135Y1297692D01*
X1436977Y1296798D01*
X1435124Y1295376D01*
X1433702Y1293523D01*
X1432808Y1291366D01*
X1432504Y1289050D01*
X1432808Y1286734D01*
X1433702Y1284577D01*
X1435124Y1282724D01*
X1436977Y1281302D01*
X1438758Y1280564D01*
X1438506Y1279294D01*
X1418994D01*
X1418742Y1280564D01*
X1420523Y1281302D01*
X1422376Y1282724D01*
X1423798Y1284577D01*
X1424692Y1286734D01*
X1424996Y1289050D01*
X1424692Y1291366D01*
X1423798Y1293523D01*
X1422376Y1295376D01*
X1420523Y1296798D01*
X1418365Y1297692D01*
X1416050Y1297997D01*
X1413734Y1297692D01*
X1411577Y1296798D01*
X1409724Y1295376D01*
X1408302Y1293523D01*
X1407408Y1291366D01*
X1407103Y1289050D01*
X1407408Y1286734D01*
X1408302Y1284577D01*
X1409724Y1282724D01*
X1411577Y1281302D01*
X1413358Y1280564D01*
X1413106Y1279294D01*
X1393594D01*
X1393342Y1280564D01*
X1395123Y1281302D01*
X1396976Y1282724D01*
X1398398Y1284577D01*
X1399292Y1286734D01*
X1399597Y1289050D01*
X1399292Y1291366D01*
X1398398Y1293523D01*
X1396976Y1295376D01*
X1395123Y1296798D01*
X1392966Y1297692D01*
X1390650Y1297997D01*
X1388335Y1297692D01*
X1386177Y1296798D01*
X1384324Y1295376D01*
X1382902Y1293523D01*
X1382008Y1291366D01*
X1381703Y1289050D01*
X1382008Y1286734D01*
X1382902Y1284577D01*
X1384324Y1282724D01*
X1386177Y1281302D01*
X1387958Y1280564D01*
X1387706Y1279294D01*
X1368194D01*
X1367942Y1280564D01*
X1369723Y1281302D01*
X1371576Y1282724D01*
X1372998Y1284577D01*
X1373892Y1286734D01*
X1374196Y1289050D01*
X1373892Y1291366D01*
X1372998Y1293523D01*
X1371576Y1295376D01*
X1369723Y1296798D01*
X1367565Y1297692D01*
X1365250Y1297997D01*
X1362935Y1297692D01*
X1360777Y1296798D01*
X1358924Y1295376D01*
X1357502Y1293523D01*
X1356608Y1291366D01*
X1356304Y1289050D01*
X1356608Y1286734D01*
X1357502Y1284577D01*
X1358924Y1282724D01*
X1360777Y1281302D01*
X1362558Y1280564D01*
X1362306Y1279294D01*
X1342794D01*
X1342542Y1280564D01*
X1344323Y1281302D01*
X1346176Y1282724D01*
X1347598Y1284577D01*
X1348492Y1286734D01*
X1348797Y1289050D01*
X1348492Y1291366D01*
X1347598Y1293523D01*
X1346176Y1295376D01*
X1344323Y1296798D01*
X1342166Y1297692D01*
X1339850Y1297997D01*
X1337534Y1297692D01*
X1335377Y1296798D01*
X1333524Y1295376D01*
X1332102Y1293523D01*
X1331208Y1291366D01*
X1330903Y1289050D01*
X1331208Y1286734D01*
X1332102Y1284577D01*
X1333524Y1282724D01*
X1335377Y1281302D01*
X1337158Y1280564D01*
X1336906Y1279294D01*
X1332000D01*
X1331122Y1279119D01*
X1330378Y1278622D01*
X1326378Y1274622D01*
X1325881Y1273878D01*
X1325706Y1273000D01*
Y1255950D01*
X1321050Y1251294D01*
X1314579D01*
X1314064Y1252064D01*
X1312658Y1253003D01*
X1311000Y1253333D01*
X1309342Y1253003D01*
X1307936Y1252064D01*
X1306997Y1250658D01*
X1306667Y1249000D01*
X1306997Y1247342D01*
X1307936Y1245936D01*
X1309342Y1244997D01*
X1311000Y1244667D01*
X1312658Y1244997D01*
X1312900Y1245158D01*
X1313031Y1245098D01*
X1313929Y1244318D01*
X1313667Y1243000D01*
X1313997Y1241342D01*
X1314936Y1239936D01*
X1316342Y1238997D01*
X1318000Y1238667D01*
X1319658Y1238997D01*
X1321064Y1239936D01*
X1322003Y1241342D01*
X1322333Y1243000D01*
X1322003Y1244658D01*
X1321484Y1245436D01*
X1321844Y1246322D01*
X1322144Y1246734D01*
X1322878Y1246880D01*
X1323622Y1247378D01*
X1329622Y1253378D01*
X1330119Y1254122D01*
X1330294Y1255000D01*
Y1260223D01*
X1331564Y1260475D01*
X1332102Y1259177D01*
X1333524Y1257324D01*
X1335377Y1255902D01*
X1337534Y1255008D01*
X1339850Y1254704D01*
X1342166Y1255008D01*
X1344323Y1255902D01*
X1346176Y1257324D01*
X1347598Y1259177D01*
X1348492Y1261335D01*
X1348797Y1263650D01*
X1348492Y1265965D01*
X1347598Y1268123D01*
X1346176Y1269976D01*
X1344323Y1271398D01*
X1342166Y1272292D01*
X1339850Y1272597D01*
X1337534Y1272292D01*
X1335377Y1271398D01*
X1333524Y1269976D01*
X1332102Y1268123D01*
X1331564Y1266824D01*
X1330294Y1267077D01*
Y1272050D01*
X1332950Y1274706D01*
X1459050D01*
X1461685Y1272071D01*
X1461602Y1270803D01*
X1460524Y1269976D01*
X1459102Y1268123D01*
X1458208Y1265965D01*
X1457903Y1263650D01*
X1458208Y1261335D01*
X1459102Y1259177D01*
X1460524Y1257324D01*
X1462377Y1255902D01*
X1464534Y1255008D01*
X1466850Y1254704D01*
X1469165Y1255008D01*
X1471323Y1255902D01*
X1473176Y1257324D01*
X1474598Y1259177D01*
X1475492Y1261335D01*
X1475797Y1263650D01*
X1475492Y1265965D01*
X1474598Y1268123D01*
X1473176Y1269976D01*
X1471323Y1271398D01*
X1469165Y1272292D01*
X1467769Y1272476D01*
X1461622Y1278622D01*
X1460878Y1279119D01*
X1460000Y1279294D01*
X1444394D01*
X1444142Y1280564D01*
X1445923Y1281302D01*
X1447776Y1282724D01*
X1449198Y1284577D01*
X1450092Y1286734D01*
X1450397Y1289050D01*
X1450092Y1291366D01*
X1449198Y1293523D01*
X1447776Y1295376D01*
X1445923Y1296798D01*
X1443766Y1297692D01*
X1441450Y1297997D01*
D02*
G37*
G36*
X1289050Y1272597D02*
X1286734Y1272292D01*
X1284577Y1271398D01*
X1282724Y1269976D01*
X1281302Y1268123D01*
X1280408Y1265965D01*
X1280103Y1263650D01*
X1280408Y1261335D01*
X1280585Y1260907D01*
X1279883Y1260223D01*
X1279580Y1260016D01*
X1277997Y1260331D01*
X1276339Y1260001D01*
X1274933Y1259062D01*
X1273994Y1257656D01*
X1273664Y1255997D01*
X1273994Y1254339D01*
X1274933Y1252933D01*
X1276339Y1251994D01*
X1277997Y1251664D01*
X1279656Y1251994D01*
X1281062Y1252933D01*
X1282001Y1254339D01*
X1282331Y1255997D01*
X1282324Y1256030D01*
X1283477Y1256746D01*
X1284577Y1255902D01*
X1286734Y1255008D01*
X1289050Y1254704D01*
X1291366Y1255008D01*
X1293523Y1255902D01*
X1295376Y1257324D01*
X1296798Y1259177D01*
X1297692Y1261335D01*
X1297997Y1263650D01*
X1297692Y1265965D01*
X1296798Y1268123D01*
X1295376Y1269976D01*
X1293523Y1271398D01*
X1291366Y1272292D01*
X1289050Y1272597D01*
D02*
G37*
G36*
X1492250D02*
X1489935Y1272292D01*
X1487777Y1271398D01*
X1485924Y1269976D01*
X1484502Y1268123D01*
X1483608Y1265965D01*
X1483304Y1263650D01*
X1483608Y1261335D01*
X1484502Y1259177D01*
X1485924Y1257324D01*
X1487777Y1255902D01*
X1489935Y1255008D01*
X1492250Y1254704D01*
X1494565Y1255008D01*
X1496723Y1255902D01*
X1498576Y1257324D01*
X1499998Y1259177D01*
X1500892Y1261335D01*
X1501196Y1263650D01*
X1500892Y1265965D01*
X1499998Y1268123D01*
X1498576Y1269976D01*
X1496723Y1271398D01*
X1494565Y1272292D01*
X1492250Y1272597D01*
D02*
G37*
G36*
X1441450D02*
X1439135Y1272292D01*
X1436977Y1271398D01*
X1435124Y1269976D01*
X1433702Y1268123D01*
X1432808Y1265965D01*
X1432504Y1263650D01*
X1432808Y1261335D01*
X1433702Y1259177D01*
X1435124Y1257324D01*
X1436977Y1255902D01*
X1439135Y1255008D01*
X1441450Y1254704D01*
X1443766Y1255008D01*
X1445923Y1255902D01*
X1447776Y1257324D01*
X1449198Y1259177D01*
X1450092Y1261335D01*
X1450397Y1263650D01*
X1450092Y1265965D01*
X1449198Y1268123D01*
X1447776Y1269976D01*
X1445923Y1271398D01*
X1443766Y1272292D01*
X1441450Y1272597D01*
D02*
G37*
G36*
X1517650D02*
X1515334Y1272292D01*
X1513177Y1271398D01*
X1511324Y1269976D01*
X1509902Y1268123D01*
X1509008Y1265965D01*
X1508703Y1263650D01*
X1509008Y1261335D01*
X1509902Y1259177D01*
X1511324Y1257324D01*
X1513177Y1255902D01*
X1515334Y1255008D01*
X1517650Y1254704D01*
X1519966Y1255008D01*
X1522123Y1255902D01*
X1523976Y1257324D01*
X1525398Y1259177D01*
X1526292Y1261335D01*
X1526597Y1263650D01*
X1526292Y1265965D01*
X1525398Y1268123D01*
X1523976Y1269976D01*
X1522123Y1271398D01*
X1519966Y1272292D01*
X1517650Y1272597D01*
D02*
G37*
%LPD*%
D19*
X768000Y814000D02*
D03*
X782000D02*
D03*
X1594000Y1162000D02*
D03*
X1328000Y1243000D02*
D03*
X1107000Y1007000D02*
D03*
X1069000Y1106000D02*
D03*
X1064998Y952998D02*
D03*
X912000Y828000D02*
D03*
X905000D02*
D03*
X898000D02*
D03*
X891000D02*
D03*
X793000Y900000D02*
D03*
Y913000D02*
D03*
Y906000D02*
D03*
X1019000Y876000D02*
D03*
X1023000Y859000D02*
D03*
X952000Y1241000D02*
D03*
X951500Y1205500D02*
D03*
X1506000Y1178000D02*
D03*
X1493750Y1082750D02*
D03*
X1432250Y1145000D02*
D03*
X1309000Y1140000D02*
D03*
X1501000Y889000D02*
D03*
X1406250Y989750D02*
D03*
X1403569Y922795D02*
D03*
X1256343Y1150500D02*
D03*
X1301500Y1057000D02*
D03*
X1301000Y995000D02*
D03*
X1621000Y1173000D02*
D03*
X1570000Y1243000D02*
D03*
X1506000Y1241000D02*
D03*
X1447000D02*
D03*
X1388000D02*
D03*
X1568000Y827000D02*
D03*
X1505000D02*
D03*
X1447000D02*
D03*
X1386000D02*
D03*
X1328000D02*
D03*
X1267000D02*
D03*
X856000D02*
D03*
X844600Y826600D02*
D03*
X848000Y786000D02*
D03*
X909000Y1257000D02*
D03*
X1030000Y833000D02*
D03*
X1408000Y1056000D02*
D03*
X1068000Y1032000D02*
D03*
X896000Y871000D02*
D03*
X864000Y885000D02*
D03*
X873000Y900000D02*
D03*
X857000Y911000D02*
D03*
X845900Y918900D02*
D03*
X775000Y814000D02*
D03*
X907000Y776000D02*
D03*
X913000D02*
D03*
X919000D02*
D03*
X901000D02*
D03*
X970000Y830000D02*
D03*
X1075000Y832000D02*
D03*
X1087000Y833000D02*
D03*
X1492997Y1009998D02*
D03*
X1203000Y1085000D02*
D03*
Y1079000D02*
D03*
Y1073000D02*
D03*
X1259000Y899000D02*
D03*
X958000Y830000D02*
D03*
X952000D02*
D03*
X1253000Y899000D02*
D03*
X1256000Y917000D02*
D03*
X964000Y830000D02*
D03*
X995000Y885000D02*
D03*
X989000D02*
D03*
X1178000Y1085000D02*
D03*
X1172000D02*
D03*
X1166000D02*
D03*
X1000750Y884850D02*
D03*
X1057000Y1034000D02*
D03*
X1203000Y1245000D02*
D03*
X1022000Y1258000D02*
D03*
X1124000Y1256000D02*
D03*
X1038000Y1245000D02*
D03*
X1017000Y1032000D02*
D03*
X1311000Y1249000D02*
D03*
X824000Y945000D02*
D03*
X818000D02*
D03*
X812000D02*
D03*
X806000D02*
D03*
X1016000Y793000D02*
D03*
X1028000D02*
D03*
X817000Y855000D02*
D03*
X1271000Y1244000D02*
D03*
X1200000Y1255000D02*
D03*
X939000Y1243000D02*
D03*
X845000Y1274000D02*
D03*
D77*
X1025180Y787755D02*
X1029998Y792573D01*
X1197320Y1256680D02*
Y1267738D01*
X1189058Y1276000D02*
X1197320Y1267738D01*
X1149700Y1276000D02*
X1189058D01*
X1136650Y1289050D02*
X1149700Y1276000D01*
X1022000Y1258000D02*
Y1271000D01*
X1124000Y1256000D02*
Y1270000D01*
X1311000Y1249000D02*
X1322000D01*
X1328000Y1255000D01*
Y1273000D01*
X1332000Y1277000D01*
X1460000D01*
X1466850Y1270150D01*
Y1263650D02*
Y1270150D01*
X1199000Y772000D02*
Y802000D01*
X1194550Y806450D02*
X1199000Y802000D01*
X1187450Y806450D02*
X1194550D01*
X1194930Y767930D02*
X1199000Y772000D01*
X1030962Y771180D02*
X1183000D01*
X1187450Y775630D01*
Y781050D01*
X1029070Y767930D02*
X1194930D01*
X1021930Y775070D02*
X1029070Y767930D01*
X1025180Y776962D02*
X1030962Y771180D01*
X1025180Y776962D02*
Y787755D01*
X1016000Y793000D02*
X1021930Y787070D01*
Y775070D02*
Y787070D01*
X1029571Y793000D02*
X1029998Y792573D01*
X1028000Y793000D02*
X1029571D01*
X1200000Y1254000D02*
Y1255000D01*
X1119000Y1275000D02*
X1124000Y1270000D01*
X1022000Y1271000D02*
X1026000Y1275000D01*
X1119000D01*
X1197320Y1256680D02*
X1200000Y1254000D01*
D78*
X969000Y885000D02*
X989000D01*
X925000Y929000D02*
X969000Y885000D01*
X807000Y929000D02*
X925000D01*
X793000Y915000D02*
X807000Y929000D01*
X793000Y913000D02*
Y915000D01*
Y906000D02*
Y913000D01*
Y900000D02*
Y906000D01*
D79*
X1068000Y1029575D02*
Y1032000D01*
X1057425Y1019000D02*
X1068000Y1029575D01*
X1027000Y1019000D02*
X1057425D01*
X1017000Y1029000D02*
X1027000Y1019000D01*
X1017000Y1029000D02*
Y1032000D01*
X1024000Y1098000D02*
X1025000Y1097000D01*
X1035000D01*
X1006000Y953000D02*
X1026000D01*
X1026002Y952998D01*
X1064998D01*
X1035000Y1097000D02*
X1044000Y1106000D01*
X1069000D01*
X1014000Y871000D02*
X1019000Y876000D01*
X1014000Y858000D02*
Y871000D01*
Y858000D02*
X1015000Y859000D01*
X1023000D01*
X1029000Y1236000D02*
X1038000Y1245000D01*
X957000Y1236000D02*
X1029000D01*
X952000Y1241000D02*
X957000Y1236000D01*
X1026000Y1034000D02*
X1026515D01*
X1028515Y1032000D01*
X1033485D01*
X1035485Y1034000D01*
X1057000D01*
D80*
X1030000Y833000D02*
X1037000Y840000D01*
X1068000D01*
X1075000Y833000D01*
Y832000D02*
Y833000D01*
D92*
X1136650Y1289050D02*
D03*
X1466850Y1263650D02*
D03*
X984250Y781050D02*
D03*
X1187450D02*
D03*
X1492250D02*
D03*
X1517650D02*
D03*
X958850Y806450D02*
D03*
X984250D02*
D03*
X1187450D02*
D03*
X1492250D02*
D03*
X1517650D02*
D03*
D93*
X958850Y781050D02*
D03*
D94*
X1660001Y1110001D02*
D03*
Y1050001D02*
D03*
Y1030001D02*
D03*
Y990001D02*
D03*
Y930001D02*
D03*
X1650001Y1110001D02*
D03*
X1655001Y1080001D02*
D03*
X1650001Y1050001D02*
D03*
X1655001Y1040001D02*
D03*
X1650001Y1030001D02*
D03*
X1655001Y1020001D02*
D03*
X1650001Y990001D02*
D03*
X1655001Y960001D02*
D03*
X1650001Y930001D02*
D03*
X1640001Y1110001D02*
D03*
X1645001Y1080001D02*
D03*
X1640001Y1050001D02*
D03*
X1645001Y1040001D02*
D03*
X1640001Y1030001D02*
D03*
X1645001Y1020001D02*
D03*
X1640001Y990001D02*
D03*
X1645001Y960001D02*
D03*
X1640001Y930001D02*
D03*
X1630001Y1110001D02*
D03*
X1635001Y1080001D02*
D03*
X1630001Y1050001D02*
D03*
X1635001Y1040001D02*
D03*
X1630001Y1030001D02*
D03*
X1635001Y1020001D02*
D03*
Y960001D02*
D03*
X1630001Y930001D02*
D03*
X1078000Y1054000D02*
D03*
X1035000Y1097000D02*
D03*
X1050000Y1240000D02*
D03*
X988500Y1171500D02*
D03*
X1138000Y926000D02*
D03*
X977000Y950000D02*
D03*
X1091000Y1230000D02*
D03*
X1138000Y1140000D02*
D03*
M02*
