M48
;Layer_Color=9474304
;FILE_FORMAT=2:5
INCH,LZ
;TYPE=PLATED
T1F00S00C0.00787
T2F00S00C0.01181
T3F00S00C0.03386
T4F00S00C0.04000
%
T01
X0306693Y0316142
X0306299Y0331102
X0304331
X0302362
X0308268
X0321654Y0315748
X0323622Y0315748
X032559
X0324803Y0312992
X0322835
X0320866
X0318898
X0328346Y0322441
X0334645Y0323621
X038937Y0366142
X0391732Y0367717
X0388582Y0370078
X0384646Y0374016
X0387008Y0379921
X0405118Y036063
X0405512Y0357874
X0408268Y0358661
X041063Y0357087
X041437Y0358071
X0412598Y0360236
X0416535Y0360236
X042126Y0357087
X042559Y0353936
X0422441Y037126
X0422441Y0376378
X0439764Y0383071
X0441732
X0446063Y0382913
X0449605Y0357873
X0456693Y0341732
X0431102Y0334646
X0427953Y0414961
X0424409
X0421654Y0415354
X0415748Y0403543
X0403543Y0421259
X039685Y0427559
X040748Y043189
X0404921Y0435236
X0403937Y0451181
X0393701Y0451575
X0391339Y0448819
X0389173Y0461221
X0374016Y0468504
X0413779Y045
X0414173Y0446063
X0417323Y0443307
X0419684Y0432283
X0424803Y0434109
X0456693Y0428346
X0484646Y0413386
X0483071Y0392913
X0514862Y0406398
X0546358Y0443799
X0580314Y0365747
X0641733Y0366142
X064567
X0649607
X0653544
X0651575Y0377953
X0647638
X0643701
X064567Y0389764
X0649607
X0653544
X0651575Y0401575
X0647638
X0643701
X0641733Y0405512
X064567
X0649607
X0653544
X0651575Y0409449
X0647638
X0643701
X0641733Y0413386
X064567
X0649607
X0653544
X0651575Y0425197
X0647638
X0643701
X0641733Y0437008
X064567
X0649607
X0653544
X0542126Y0472047
X0502756Y0494488
X0490945Y0493701
X0429528Y0484252
X0426476Y0483314
X0413386Y0488189
X0436614Y0475197
X0377165Y0468898
T02
X0647244Y0283858
X0647638Y0294882
X0462598Y0311024
X045433Y031181
X0404724Y0312205
X04
X0361811Y0305512
X0359449
X0357087
X0354724
X0333858Y0308661
X0312205Y0354331
Y0356693
Y0359449
X0317323Y0372047
X0319685
X0322047
X032441
X0333032Y0361772
X0337402Y0358661
X0343701Y0354331
X0340158Y0348425
X0352756Y0342913
X0351575Y0325984
X0354331
X0357087
X0359842
X0374803Y0326772
X0377165
X0379528
X038189
X0384252
X0401575Y0331102
X0405512Y0327953
X0409842Y0326772
X0423228Y0327559
X0427953Y0327953
X0434252Y0328346
X0419685Y0334646
X0402756Y0338189
X0402362Y0341732
X0401181Y0344882
X0393996Y0348366
X0391732Y0348425
X038937
X0394488Y0383465
X0400394Y0406299
X0405905Y0408661
X0416142Y0407087
X0420472Y0406299
X0429134Y0397638
X0435827Y0396457
X0437402Y0393307
X0444095Y0397244
X0453051Y0387205
X045315Y0411811
X0461811Y040748
X0461417Y0427165
X0459055
X0463779
X0466535Y0443701
X0435827Y0440551
Y0437008
X0434251Y0433464
X0430709Y0445276
X0426772Y0445669
X0427559Y0453189
X0427952Y0457086
X0432283Y0457479
X0437008Y0463779
X0440551Y0466535
X0407874Y0462992
X0392913Y0444881
X0392913Y0440158
X0393306Y0412991
X0420866Y0435433
X0446457Y0429921
X0466929Y0372441
X0463779Y0341339
Y0329528
X0447244Y0339764
X0446457Y0344882
X0435335Y0352067
X0435433Y0360236
X041929Y0375196
X0414643Y0312916
X0411024Y0312598
X0451181Y0312992
X0337008Y032559
X033252Y0325433
X0321654Y0336614
X0472441Y0359449
X0490158Y0361024
X0494488
X05
X0495669Y0353937
X0493307
X0490945
X0483858Y035
X0509842Y0342913
X0517323
X0524016Y0353543
X0537008Y035
X0537402Y0358268
X054252Y0361811
X0552586Y0363305
X0556299Y0366732
X0558661Y0354331
X0553543Y0349606
X0547638Y0340945
X05437Y0337795
X0545669Y032559
X0557873Y0334251
X0566535Y033937
X0572047Y0349213
X0590945Y035
X0590748Y0358071
X0579724Y0369685
X0579823Y037441
Y0379232
X0587402Y0386614
X0587794Y0397637
X0589764Y0407874
X058189Y0405118
X0567323Y0403937
X056811Y0400591
X0568898Y0386221
X056063Y0386614
X0553642Y0389665
X0556693Y040561
X0558268Y0412598
X0554331Y0415748
X054252Y0411024
X0529152Y0418522
X0523093Y0422047
X0516142Y0424803
X0509154Y0425197
X0509547Y0420571
X0512402Y0416142
X0505905Y0416535
X0504134Y0422539
X0501575Y0409449
X0499213Y0405512
X0498819Y0401968
X0499016Y0393504
X0505118Y0396063
X0506299Y038937
X0512205Y0391732
X0515354Y0394488
X0520866Y0396063
X0524408Y0392519
X0528739Y03937
X0532676
X0536221Y0394094
X0519291Y0389764
X0519685Y0383858
X0522834Y038622
X0519291Y0366142
X0512992Y0362598
X0494488Y0373622
X0490945Y0392126
X048307Y0385039
X0474803Y0385433
X0472441Y0380315
X0473622Y0422441
Y0424803
Y0427165
X0472933Y0431102
X047244Y0451574
X0472835Y0457087
X0475197Y0460236
X0479528Y0458661
X0477558Y0464172
X0485039Y0461024
X0493701Y0461811
X0499606Y0459842
X0494623Y0452953
X0488324
X0494623Y0440354
X0503543Y0446457
X0511811Y0450394
X0515354Y0448819
X0519685Y0448425
X052874Y0455118
X0533465Y0451968
X0538583Y0453937
X0535827Y0440551
X0532283Y0443701
X0512598Y0457087
X0509055Y0464961
X055315Y0461811
X0555512Y0459055
X0563779Y0460236
X0563878Y0450787
X0574016Y0447244
X0579429Y0449016
Y0445079
X0579528Y0440158
X0580709Y0436221
X0588091Y0426279
X0576968Y0422146
X056811Y0427559
X056063Y0426772
X0573425Y0463583
X0592913Y0463779
X059311Y0468504
X0603937
Y0463779
X0592126Y0455512
X0611022Y044055
X0612598Y0429528
X0619685Y0431496
X061998Y0412795
X0619783Y0408268
X0620079Y0405807
X0620177Y0400787
X0612501Y0396528
X0618898Y0383071
X061811Y0344882
X061811Y0341339
X0617323Y032559
X059252
X0588189Y0334252
X0569685Y032559
X0522835
X0498819
X0490945Y0415354
X0607272Y0413976
X0609449Y0415354
X0627559Y0408268
Y045748
X0625591Y0464567
X0638189Y0461811
X0627559Y0355906
X0647638Y0342126
Y0331102
Y0472835
Y0483858
X0648425Y0520079
X0648032Y0531102
X061811Y048937
X0613976Y0476575
X0614567Y047126
X0617717Y0472441
X0607087Y0476772
X0592913Y0488583
X0582283Y0480709
X0569685Y0488583
X0546457
X0542913Y0477559
X0529528Y0469291
X0517815Y0471161
X0518898Y048937
X0522835
X0516142Y0491732
X0512992Y0500787
X0493614Y0502055
X049685Y0490945
X0500394Y0489764
X0482282Y04937
X0472441Y0494095
X0473622Y0490158
X0472441Y0501575
X047244Y0474802
X0476378Y0475758
X0477952Y047244
X0481495Y0470078
X0453543Y0472441
X0446849Y0482282
X0447638Y0486221
X0453149Y0491731
X0453805Y0494586
X044252Y0494488
X0435827Y0487795
X0433071Y0484646
X0425197Y0489764
X0408661Y0490158
X0403937Y0490551
X0402362Y0495276
X0374803Y0488583
X0369685Y048937
X0359055Y0489764
X0357874Y0494882
X0354331Y0477559
X0374606Y0474606
X0334252Y048189
X0332283Y0485432
X0338583Y0490551
X0337795Y0502362
X0332677Y0501575
X0463779Y0490551
X0467717Y0490158
T03
X0385827Y0387638
Y0397638
Y0407638
Y0417638
Y0427638
Y0437638
Y0447638
T04
X04775Y03075
X04875
X04975
X05075
X05175
X05275
X05375
X05475
X05575
X05675
X05775
X05875
X05975
X04675
X04575
X04475
X04375
X04275
X04175
X04075
X03975
X03875
X03775
Y03175
X03875
X03975
X04075
X04175
X04275
X04375
X04475
X04575
X04675
X04775
X04875
X04975
X05075
X05175
X05275
X05375
X05475
X05575
X05675
X05775
X05875
X05975
Y04975
X05875
X05775
X05675
X05575
X05475
X05375
X05275
X05175
X05075
X04975
X04875
X04775
Y05075
X04875
X04975
X05075
X05175
X05275
X05375
X05475
X05575
X05675
X05775
X05875
X05975
X04675
Y04975
X04575
X04475
X04375
X04275
X04175
X04075
X03975
X03875
X03775
Y05075
X03875
X03975
X04075
X04175
X04275
X04375
X04475
X04575
M30
