<?xml version="1.0" encoding="UTF-8" standalone="no"?>
<!-- Created with Inkscape (http://www.inkscape.org/) -->

<svg
   xmlns:dc="http://purl.org/dc/elements/1.1/"
   xmlns:cc="http://creativecommons.org/ns#"
   xmlns:rdf="http://www.w3.org/1999/02/22-rdf-syntax-ns#"
   xmlns:svg="http://www.w3.org/2000/svg"
   xmlns="http://www.w3.org/2000/svg"
   xmlns:sodipodi="http://sodipodi.sourceforge.net/DTD/sodipodi-0.dtd"
   xmlns:inkscape="http://www.inkscape.org/namespaces/inkscape"
   width="10cm"
   height="9cm"
   viewBox="0 0 354.33071 318.89763"
   id="svg2"
   version="1.1"
   inkscape:version="0.91 r13725"
   sodipodi:docname="acrylic_cover_plate_v2.2.svg">
  <defs
     id="defs4" />
  <sodipodi:namedview
     id="base"
     pagecolor="#ffffff"
     bordercolor="#666666"
     borderopacity="1.0"
     inkscape:pageopacity="0.0"
     inkscape:pageshadow="2"
     inkscape:zoom="5.6568544"
     inkscape:cx="260.1879"
     inkscape:cy="228.94986"
     inkscape:document-units="px"
     inkscape:current-layer="g3344"
     showgrid="false"
     inkscape:window-width="1920"
     inkscape:window-height="1018"
     inkscape:window-x="-8"
     inkscape:window-y="-8"
     inkscape:window-maximized="1"
     units="cm" />
  <metadata
     id="metadata7">
    <rdf:RDF>
      <cc:Work
         rdf:about="">
        <dc:format>image/svg+xml</dc:format>
        <dc:type
           rdf:resource="http://purl.org/dc/dcmitype/StillImage" />
        <dc:title></dc:title>
      </cc:Work>
    </rdf:RDF>
  </metadata>
  <g
     inkscape:label="Layer 1"
     inkscape:groupmode="layer"
     id="layer1"
     transform="translate(0,-733.46462)">
    <g
       transform="matrix(1.25,0,0,-1.25,-119.66072,976.60324)"
       inkscape:label="rocket_cover_acrylic_v1_via_edited_drawing"
       id="g3344"
       style="display:inline">
      <circle
         style="display:inline;opacity:1;fill:none;fill-opacity:1;fill-rule:nonzero;stroke:#ff0000;stroke-width:0.79144591;stroke-linecap:round;stroke-linejoin:round;stroke-miterlimit:10;stroke-dasharray:none;stroke-dashoffset:0;stroke-opacity:1"
         id="path5998-9-8-2-7-0"
         cx="340.61472"
         cy="-138.55399"
         transform="scale(1,-1)"
         r="4.2105761" />
      <path
         inkscape:connector-curvature="0"
         id="path4539"
         d="m 292.21428,108.7857 v -68"
         style="fill:none;stroke:#ff0000;stroke-width:0.70899999;stroke-linecap:round;stroke-linejoin:round;stroke-miterlimit:10;stroke-dasharray:none;stroke-opacity:1" />
      <path
         inkscape:connector-curvature="0"
         id="path4537"
         d="m 292.21428,40.7857 h 22.7"
         style="fill:none;stroke:#ff0000;stroke-width:0.70899999;stroke-linecap:round;stroke-linejoin:round;stroke-miterlimit:10;stroke-dasharray:none;stroke-opacity:1" />
      <path
         inkscape:connector-curvature="0"
         id="path4535"
         d="m 314.91428,40.7857 v 68"
         style="fill:none;stroke:#ff0000;stroke-width:0.70899999;stroke-linecap:round;stroke-linejoin:round;stroke-miterlimit:10;stroke-dasharray:none;stroke-opacity:1" />
      <path
         inkscape:connector-curvature="0"
         id="path4533"
         d="m 314.91428,108.7857 h -22.7"
         style="fill:none;stroke:#ff0000;stroke-width:0.70899999;stroke-linecap:round;stroke-linejoin:round;stroke-miterlimit:10;stroke-dasharray:none;stroke-opacity:1" />
      <path
         inkscape:connector-curvature="0"
         id="path4525"
         d="m 252.61428,-15.9143 v 6"
         style="fill:none;stroke:#ff0000;stroke-width:0.70899999;stroke-linecap:round;stroke-linejoin:round;stroke-miterlimit:10;stroke-dasharray:none;stroke-opacity:1" />
      <path
         inkscape:connector-curvature="0"
         id="path4523"
         d="m 252.61428,-15.9143 h -53.9"
         style="fill:none;stroke:#ff0000;stroke-width:0.70899999;stroke-linecap:round;stroke-linejoin:round;stroke-miterlimit:10;stroke-dasharray:none;stroke-opacity:1" />
      <path
         inkscape:connector-curvature="0"
         id="path4521"
         d="m 198.71428,-15.9143 -85,-34"
         style="fill:none;stroke:#ff0000;stroke-width:0.70899999;stroke-linecap:round;stroke-linejoin:round;stroke-miterlimit:10;stroke-dasharray:none;stroke-opacity:1" />
      <path
         inkscape:connector-curvature="0"
         id="path4519"
         d="m 113.71428,-49.9143 h -14.2"
         style="fill:none;stroke:#ff0000;stroke-width:0.70899999;stroke-linecap:round;stroke-linejoin:round;stroke-miterlimit:10;stroke-dasharray:none;stroke-opacity:1" />
      <path
         inkscape:connector-curvature="0"
         id="path4517"
         d="m 99.51428,-49.9143 v 235.3"
         style="fill:none;stroke:#ff0000;stroke-width:0.70899999;stroke-linecap:round;stroke-linejoin:round;stroke-miterlimit:10;stroke-dasharray:none;stroke-opacity:1" />
      <path
         inkscape:connector-curvature="0"
         id="path4515"
         d="m 99.51428,185.3857 h 14.2"
         style="fill:none;stroke:#ff0000;stroke-width:0.70899999;stroke-linecap:round;stroke-linejoin:round;stroke-miterlimit:10;stroke-dasharray:none;stroke-opacity:1" />
      <path
         inkscape:connector-curvature="0"
         id="path4513"
         d="m 113.71428,185.3857 85,-34.1"
         style="fill:none;stroke:#ff0000;stroke-width:0.70899999;stroke-linecap:round;stroke-linejoin:round;stroke-miterlimit:10;stroke-dasharray:none;stroke-opacity:1" />
      <path
         inkscape:connector-curvature="0"
         id="path4511"
         d="m 198.71428,151.2857 h 30.61429 23.28571"
         style="fill:none;stroke:#ff0000;stroke-width:0.70899999;stroke-linecap:round;stroke-linejoin:round;stroke-miterlimit:10;stroke-dasharray:none;stroke-opacity:1" />
      <path
         inkscape:connector-curvature="0"
         id="path4509"
         d="m 252.61428,145.3857 v 5.9"
         style="fill:none;stroke:#ff0000;stroke-width:0.70899999;stroke-linecap:round;stroke-linejoin:round;stroke-miterlimit:10;stroke-dasharray:none;stroke-opacity:1" />
      <path
         inkscape:connector-curvature="0"
         id="path4507"
         d="m 283.71428,145.3857 h -31.1"
         style="fill:none;stroke:#ff0000;stroke-width:0.70899999;stroke-linecap:round;stroke-linejoin:round;stroke-miterlimit:10;stroke-dasharray:none;stroke-opacity:1" />
      <path
         inkscape:connector-curvature="0"
         id="path4505"
         d="m 283.71428,151.2857 v -5.9"
         style="fill:none;stroke:#ff0000;stroke-width:0.70899999;stroke-linecap:round;stroke-linejoin:round;stroke-miterlimit:10;stroke-dasharray:none;stroke-opacity:1" />
      <path
         inkscape:connector-curvature="0"
         id="path4503"
         d="m 283.71428,151.2857 h 93.6"
         style="fill:none;stroke:#ff0000;stroke-width:0.70875001;stroke-linecap:round;stroke-linejoin:round;stroke-miterlimit:10;stroke-dasharray:none;stroke-opacity:1" />
      <path
         sodipodi:nodetypes="cc"
         inkscape:connector-curvature="0"
         id="path4501"
         d="M 377.31428,151.2857 V 81.88415"
         style="fill:none;stroke:#ff0000;stroke-width:0.70899999;stroke-linecap:round;stroke-linejoin:round;stroke-miterlimit:10;stroke-dasharray:none;stroke-opacity:1" />
      <path
         sodipodi:nodetypes="cc"
         inkscape:connector-curvature="0"
         id="path4499"
         d="m 370.39629,81.88415 h 6.91799"
         style="fill:none;stroke:#ff0000;stroke-width:0.70899999;stroke-linecap:round;stroke-linejoin:round;stroke-miterlimit:10;stroke-dasharray:none;stroke-opacity:1" />
      <path
         sodipodi:nodetypes="cc"
         inkscape:connector-curvature="0"
         id="path4497"
         d="M 370.39629,53.5377 V 81.88415"
         style="fill:none;stroke:#ff0000;stroke-width:0.70899999;stroke-linecap:round;stroke-linejoin:round;stroke-miterlimit:10;stroke-dasharray:none;stroke-opacity:1" />
      <path
         sodipodi:nodetypes="cc"
         inkscape:connector-curvature="0"
         id="path4495"
         d="m 377.31428,53.5377 h -6.91799"
         style="fill:none;stroke:#ff0000;stroke-width:0.70899999;stroke-linecap:round;stroke-linejoin:round;stroke-miterlimit:10;stroke-dasharray:none;stroke-opacity:1" />
      <path
         sodipodi:nodetypes="cc"
         inkscape:connector-curvature="0"
         id="path4493"
         d="m 377.31428,53.5377 v -69.452"
         style="fill:none;stroke:#ff0000;stroke-width:0.70899999;stroke-linecap:round;stroke-linejoin:round;stroke-miterlimit:10;stroke-dasharray:none;stroke-opacity:1" />
      <path
         inkscape:connector-curvature="0"
         id="path4491"
         d="m 377.31428,-15.9143 h -93.6"
         style="fill:none;stroke:#ff0000;stroke-width:0.70899999;stroke-linecap:round;stroke-linejoin:round;stroke-miterlimit:10;stroke-dasharray:none;stroke-opacity:1" />
      <path
         inkscape:connector-curvature="0"
         id="path4489"
         d="m 283.71428,-9.9143 v -6"
         style="fill:none;stroke:#ff0000;stroke-width:0.70899999;stroke-linecap:round;stroke-linejoin:round;stroke-miterlimit:10;stroke-dasharray:none;stroke-opacity:1" />
      <path
         inkscape:connector-curvature="0"
         id="path4487"
         d="m 252.61428,-9.9143 h 31.1"
         style="fill:none;stroke:#ff0000;stroke-width:0.70899999;stroke-linecap:round;stroke-linejoin:round;stroke-miterlimit:10;stroke-dasharray:none;stroke-opacity:1" />
      <path
         style="fill:#000000;fill-opacity:1;stroke:#000000;stroke-width:0.07071068;stroke-miterlimit:4;stroke-dasharray:none;stroke-opacity:1"
         d=""
         id="path6031"
         inkscape:connector-curvature="0" />
      <path
         style="fill:#000000;fill-opacity:1;stroke:#000000;stroke-width:0.0375;stroke-miterlimit:4;stroke-dasharray:none;stroke-opacity:1"
         d=""
         id="path6041"
         inkscape:connector-curvature="0" />
      <path
         style="fill:#000000;fill-opacity:1;stroke:#000000;stroke-width:0.01325825;stroke-miterlimit:4;stroke-dasharray:none;stroke-opacity:1"
         d=""
         id="path6045"
         inkscape:connector-curvature="0" />
      <g
         transform="matrix(0,0.6,0.6,0,166.09887,9.7631)"
         inkscape:label="ink_ext_XXXXXX"
         id="g11908"
         style="stroke-width:1.66666663">
        <g
           transform="scale(0.1)"
           id="g11910"
           style="stroke-width:1.66666663">
          <g
             id="g4381"
             transform="translate(0,-56.97512)">
            <path
               d="m 795.563,625.645 c 8.175,0 15.769,0.859 22.773,2.582 6.996,1.718 13.082,4.464 18.246,8.238 5.164,3.765 9.258,8.558 12.273,14.375 3.016,5.808 4.52,12.808 4.52,20.992 0,8.606 -1.562,15.719 -4.684,21.313 -3.121,5.601 -7.32,10.015 -12.593,13.246 -5.278,3.226 -11.309,5.496 -18.086,6.785 -6.785,1.293 -13.836,1.937 -21.157,1.937 H 727.09 V 625.645 Z M 727.09,606.91 V 501.293 l -21.961,0.324 v 232.231 h 91.082 c 25.621,0 45.219,-4.793 58.785,-14.379 13.563,-9.582 20.348,-25.137 20.348,-46.664 0,-14.645 -2.965,-26.278 -8.891,-34.891 -5.918,-8.605 -15.555,-15.934 -28.902,-21.957 6.89,-2.379 12.273,-5.816 16.148,-10.336 3.875,-4.527 6.785,-9.691 8.723,-15.504 1.937,-5.816 3.176,-11.953 3.711,-18.414 0.543,-6.461 0.918,-12.711 1.133,-18.73 0.214,-8.832 0.589,-16.153 1.129,-21.965 0.535,-5.813 1.183,-10.555 1.937,-14.211 0.758,-3.668 1.664,-6.516 2.742,-8.559 1.086,-2.05 2.375,-3.609 3.879,-4.683 v -1.938 l -24.219,-0.324 c -2.379,3.875 -4.043,9.258 -5.007,16.148 -0.973,6.891 -1.727,14.102 -2.262,21.641 -0.539,7.539 -0.973,14.859 -1.289,21.969 -0.324,7.097 -0.922,12.914 -1.778,17.433 -1.293,6.243 -3.394,11.25 -6.3,15.028 -2.91,3.758 -6.41,6.617 -10.493,8.554 -4.101,1.938 -8.671,3.227 -13.73,3.875 -5.062,0.645 -10.289,0.969 -15.664,0.969 H 727.09"
               style="fill:#000000;fill-opacity:1;fill-rule:nonzero;stroke:none;stroke-width:1.66666663"
               id="path11912"
               inkscape:connector-curvature="0" />
            <path
               d="m 1049.43,584.945 c 0,9.903 -1.08,19.16 -3.23,27.782 -2.15,8.605 -5.49,16.089 -10.01,22.445 -4.52,6.351 -10.34,11.355 -17.44,15.019 -7.1,3.657 -15.83,5.489 -26.168,5.489 -10.121,0 -18.789,-1.989 -26,-5.973 -7.219,-3.988 -13.082,-9.262 -17.598,-15.824 -4.519,-6.574 -7.867,-14.11 -10.015,-22.61 -2.156,-8.515 -3.231,-17.281 -3.231,-26.328 0,-10.332 1.239,-19.863 3.715,-28.59 2.473,-8.714 6.082,-16.199 10.82,-22.445 4.739,-6.242 10.657,-11.094 17.762,-14.531 7.106,-3.445 15.289,-5.168 24.547,-5.168 10.128,0 18.788,1.984 26.008,5.977 7.21,3.984 13.08,9.308 17.6,15.984 4.52,6.676 7.86,14.215 10.01,22.613 2.15,8.395 3.23,17.117 3.23,26.16 z M 992.582,496.77 c -10.766,0.21 -20.836,2.156 -30.199,5.812 -9.363,3.656 -17.547,9.152 -24.539,16.477 -7.004,7.32 -12.551,16.472 -16.637,27.457 -4.098,10.972 -6.141,23.781 -6.141,38.429 0,12.278 1.618,23.743 4.844,34.395 3.235,10.664 8.078,19.973 14.539,27.945 6.457,7.965 14.535,14.258 24.223,18.899 9.691,4.621 20.996,6.941 33.91,6.941 13.138,0 24.548,-2.32 34.238,-6.941 9.69,-4.641 17.77,-10.879 24.23,-18.739 6.45,-7.859 11.24,-17.172 14.37,-27.937 3.12,-10.77 4.68,-22.285 4.68,-34.563 0,-13.347 -1.83,-25.41 -5.49,-36.172 -3.66,-10.769 -8.88,-20.027 -15.66,-27.777 -6.78,-7.754 -14.97,-13.73 -24.55,-17.926 -9.59,-4.199 -20.19,-6.3 -31.818,-6.3"
               style="fill:#000000;fill-opacity:1;fill-rule:nonzero;stroke:none;stroke-width:1.66666663"
               id="path11914"
               inkscape:connector-curvature="0" />
            <path
               d="m 1232.25,615.957 c -3.45,12.484 -9.37,22.231 -17.77,29.231 -8.4,6.992 -19.05,10.492 -31.98,10.492 -9.9,0 -18.4,-2.047 -25.51,-6.133 -7.1,-4.098 -12.92,-9.527 -17.44,-16.317 -4.53,-6.781 -7.87,-14.425 -10.01,-22.925 -2.16,-8.508 -3.23,-17.067 -3.23,-25.68 0,-8.828 1.01,-17.445 3.07,-25.84 2.04,-8.398 5.32,-15.937 9.84,-22.613 4.53,-6.676 10.34,-12 17.45,-15.984 7.1,-3.993 15.71,-5.977 25.83,-5.977 14.43,0 26.01,3.98 34.73,11.949 8.72,7.965 14.26,18.945 16.63,32.949 h 20.68 c -1.73,-9.261 -4.48,-17.714 -8.24,-25.355 -3.77,-7.645 -8.62,-14.211 -14.53,-19.699 -5.93,-5.496 -12.99,-9.746 -21.16,-12.762 -8.19,-3.012 -17.56,-4.523 -28.11,-4.523 -13.35,0 -24.86,2.257 -34.55,6.785 -9.69,4.519 -17.67,10.707 -23.9,18.57 -6.26,7.859 -10.88,17.168 -13.89,27.938 -3.02,10.761 -4.53,22.292 -4.53,34.562 0,11.629 1.67,22.773 5.01,33.426 3.33,10.664 8.24,20.078 14.7,28.262 6.46,8.183 14.47,14.699 24.06,19.546 9.58,4.84 20.61,7.266 33.1,7.266 19.38,0 35.05,-4.641 47,-13.887 11.96,-9.261 19.44,-23.691 22.45,-43.281 h -19.7"
               style="fill:#000000;fill-opacity:1;fill-rule:nonzero;stroke:none;stroke-width:1.66666663"
               id="path11916"
               inkscape:connector-curvature="0" />
            <path
               d="m 1300.08,501.293 v 232.555 h 19.38 V 589.145 l 82.03,79.46 h 26.49 l -62.66,-60.402 70.09,-106.91 h -21.64 l -62.66,93.348 -31.65,-30.039 v -63.309 h -19.38"
               style="fill:#000000;fill-opacity:1;fill-rule:nonzero;stroke:none;stroke-width:1.66666663"
               id="path11918"
               inkscape:connector-curvature="0" />
            <path
               d="m 1592.07,596.578 c 0,8.18 -1.13,15.871 -3.4,23.09 -2.26,7.211 -5.6,13.457 -10.01,18.734 -4.42,5.274 -9.96,9.473 -16.63,12.594 -6.68,3.121 -14.32,4.684 -22.94,4.684 -8.61,0 -16.2,-1.614 -22.77,-4.84 -6.57,-3.235 -12.17,-7.543 -16.79,-12.926 -4.64,-5.379 -8.35,-11.625 -11.15,-18.73 -2.8,-7.106 -4.63,-14.641 -5.49,-22.606 z m -109.18,-16.152 c 0,-9.047 1.18,-17.606 3.56,-25.68 2.36,-8.074 5.86,-15.074 10.49,-20.992 4.63,-5.926 10.5,-10.664 17.61,-14.211 7.1,-3.559 15.28,-5.332 24.54,-5.332 12.71,0 23.58,3.332 32.62,10.012 9.05,6.672 15.08,16.148 18.09,28.422 h 21.65 c -2.38,-7.961 -5.5,-15.34 -9.37,-22.118 -3.88,-6.789 -8.73,-12.714 -14.54,-17.769 -5.81,-5.063 -12.71,-8.992 -20.67,-11.789 -7.97,-2.793 -17.23,-4.199 -27.78,-4.199 -13.35,0 -24.87,2.257 -34.56,6.785 -9.69,4.519 -17.65,10.707 -23.9,18.57 -6.25,7.859 -10.87,17.117 -13.89,27.777 -3.01,10.657 -4.52,22.125 -4.52,34.399 0,12.277 1.77,23.789 5.33,34.562 3.55,10.762 8.61,20.184 15.18,28.254 6.57,8.078 14.58,14.426 24.07,19.067 9.47,4.621 20.23,6.941 32.29,6.941 23.04,0 41.12,-7.914 54.26,-23.738 13.14,-15.832 19.59,-38.821 19.38,-68.961 h -129.84"
               style="fill:#000000;fill-opacity:1;fill-rule:nonzero;stroke:none;stroke-width:1.66666663"
               id="path11920"
               inkscape:connector-curvature="0" />
            <path
               d="m 1717.38,500.645 c -2.37,-0.426 -5.49,-1.176 -9.37,-2.262 -3.87,-1.074 -8.18,-1.613 -12.91,-1.613 -9.69,0 -17.07,2.425 -22.13,7.269 -5.06,4.848 -7.59,13.504 -7.59,25.996 v 122.414 h -23.58 v 16.156 h 23.58 v 46.508 h 19.38 v -46.508 h 31.33 v -16.156 h -31.33 v -114.66 c 0,-4.094 0.11,-7.644 0.32,-10.656 0.21,-3.016 0.86,-5.492 1.94,-7.426 1.08,-1.937 2.75,-3.344 5.01,-4.199 2.26,-0.863 5.43,-1.297 9.52,-1.297 2.59,0 5.23,0.215 7.92,0.648 2.69,0.43 5.33,0.969 7.91,1.61 v -15.824"
               style="fill:#000000;fill-opacity:1;fill-rule:nonzero;stroke:none;stroke-width:1.66666663"
               id="path11922"
               inkscape:connector-curvature="0" />
            <path
               d="m 703.887,469.492 h 48.578 V 278.816 h 116.07 V 237.027 H 703.887 v 232.465"
               style="fill:#000000;fill-opacity:1;fill-rule:nonzero;stroke:none;stroke-width:1.66666663"
               id="path11924"
               inkscape:connector-curvature="0" />
            <path
               d="m 997.852,282.898 c 7.038,9.344 10.568,22.625 10.568,39.84 0,17.223 -3.53,30.477 -10.568,39.766 -7.047,9.293 -17.137,13.941 -30.278,13.941 -13.144,0 -23.265,-4.648 -30.367,-13.941 -7.09,-9.289 -10.641,-22.543 -10.641,-39.766 0,-17.215 3.551,-30.496 10.641,-39.84 7.102,-9.343 17.223,-14.011 30.367,-14.011 13.141,0 23.231,4.668 30.278,14.011 z m 35.958,-24.839 c -14.51,-17.914 -36.54,-26.868 -66.083,-26.868 -29.543,0 -51.567,8.954 -66.082,26.868 -14.504,17.91 -21.758,39.464 -21.758,64.679 0,24.789 7.254,46.282 21.758,64.453 14.515,18.176 36.539,27.262 66.082,27.262 29.543,0 51.573,-9.086 66.083,-27.262 14.51,-18.171 21.76,-39.664 21.76,-64.453 0,-25.215 -7.25,-46.769 -21.76,-64.679"
               style="fill:#000000;fill-opacity:1;fill-rule:nonzero;stroke:none;stroke-width:1.66666663"
               id="path11926"
               inkscape:connector-curvature="0" />
            <path
               d="m 1180.98,285.836 c 7.22,7.937 10.84,20.586 10.84,37.93 0,16.297 -3.43,28.707 -10.29,37.218 -6.86,8.524 -16.04,12.782 -27.56,12.782 -15.7,0 -26.54,-7.418 -32.51,-22.243 -3.14,-7.886 -4.71,-17.605 -4.71,-29.175 0,-9.989 1.68,-18.871 5.02,-26.649 6.08,-14.511 16.97,-21.769 32.67,-21.769 10.47,0 19.32,3.968 26.54,11.906 z m -15.31,123.25 c 10.93,-4.516 19.75,-12.824 26.47,-24.914 v 24.754 h 43.84 V 245.859 c 0,-22.183 -3.73,-38.902 -11.2,-50.152 -12.83,-19.344 -37.43,-29.019 -73.81,-29.019 -21.98,0 -39.9,4.312 -53.78,12.929 -13.87,8.625 -21.55,21.504 -23.02,38.645 h 48.89 c 1.26,-5.258 3.31,-9.043 6.15,-11.364 4.83,-4.093 12.98,-6.144 24.44,-6.144 16.19,0 27.02,5.414 32.49,16.25 3.58,6.937 5.36,18.601 5.36,35.004 v 11.039 c -4.31,-7.359 -8.93,-12.875 -13.87,-16.559 -8.94,-6.836 -20.56,-10.254 -34.86,-10.254 -22.08,0 -39.72,7.754 -52.91,23.27 -13.2,15.5 -19.79,36.508 -19.79,63 0,25.547 6.35,47.027 19.06,64.426 12.7,17.402 30.71,26.101 54.02,26.101 8.61,0 16.12,-1.316 22.52,-3.945"
               style="fill:#000000;fill-opacity:1;fill-rule:nonzero;stroke:none;stroke-width:1.66666663"
               id="path11928"
               inkscape:connector-curvature="0" />
            <path
               d="m 1371.17,285.836 c 7.22,7.937 10.84,20.586 10.84,37.93 0,16.297 -3.43,28.707 -10.29,37.218 -6.86,8.524 -16.05,12.782 -27.56,12.782 -15.71,0 -26.54,-7.418 -32.51,-22.243 -3.14,-7.886 -4.71,-17.605 -4.71,-29.175 0,-9.989 1.67,-18.871 5.02,-26.649 6.08,-14.511 16.97,-21.769 32.67,-21.769 10.47,0 19.32,3.968 26.54,11.906 z m -15.31,123.25 c 10.93,-4.516 19.75,-12.824 26.47,-24.914 v 24.754 h 43.84 V 245.859 c 0,-22.183 -3.73,-38.902 -11.2,-50.152 -12.83,-19.344 -37.43,-29.019 -73.81,-29.019 -21.98,0 -39.9,4.312 -53.78,12.929 -13.87,8.625 -21.55,21.504 -23.02,38.645 h 48.89 c 1.26,-5.258 3.31,-9.043 6.15,-11.364 4.83,-4.093 12.98,-6.144 24.44,-6.144 16.19,0 27.02,5.414 32.49,16.25 3.58,6.937 5.36,18.601 5.36,35.004 v 11.039 c -4.31,-7.359 -8.93,-12.875 -13.88,-16.559 -8.93,-6.836 -20.55,-10.254 -34.85,-10.254 -22.08,0 -39.72,7.754 -52.91,23.27 -13.2,15.5 -19.79,36.508 -19.79,63 0,25.547 6.35,47.027 19.06,64.426 12.7,17.402 30.71,26.101 54.02,26.101 8.61,0 16.12,-1.316 22.52,-3.945"
               style="fill:#000000;fill-opacity:1;fill-rule:nonzero;stroke:none;stroke-width:1.66666663"
               id="path11930"
               inkscape:connector-curvature="0" />
            <path
               d="m 1505.78,366.621 c -6.35,-6.547 -10.34,-15.422 -11.97,-26.609 h 77.44 c -0.82,11.929 -4.81,20.988 -11.97,27.168 -7.17,6.175 -16.06,9.265 -26.66,9.265 -11.55,0 -20.48,-3.281 -26.84,-9.824 z m 67.25,38.828 c 11.99,-5.375 21.89,-13.847 29.7,-25.429 7.05,-10.219 11.61,-22.059 13.7,-35.543 1.21,-7.899 1.7,-19.266 1.48,-34.11 h -125.2 c 0.7,-17.254 6.68,-29.336 17.97,-36.273 6.87,-4.321 15.13,-6.473 24.78,-6.473 10.24,0 18.56,2.629 24.96,7.887 3.49,2.836 6.58,6.781 9.26,11.832 h 45.89 c -1.21,-10.199 -6.77,-20.559 -16.67,-31.07 -15.4,-16.719 -36.95,-25.079 -64.68,-25.079 -22.87,0 -43.05,7.051 -60.55,21.153 -17.48,14.097 -26.23,37.043 -26.23,68.824 0,29.77 7.9,52.609 23.68,68.5 15.79,15.891 36.28,23.832 61.48,23.832 14.96,0 28.44,-2.68 40.43,-8.051"
               style="fill:#000000;fill-opacity:1;fill-rule:nonzero;stroke:none;stroke-width:1.66666663"
               id="path11932"
               inkscape:connector-curvature="0" />
            <path
               d="m 1729.03,412.949 c 0.57,-0.051 1.86,-0.129 3.87,-0.234 v -46.051 c -2.85,0.313 -5.37,0.524 -7.58,0.633 -2.2,0.101 -4,0.16 -5.36,0.16 -18.08,0 -30.23,-5.894 -36.43,-17.668 -3.47,-6.625 -5.21,-16.824 -5.21,-30.594 v -82.168 h -45.26 v 171.899 h 42.9 v -29.957 c 6.94,11.457 12.98,19.289 18.14,23.496 8.41,7.043 19.34,10.566 32.8,10.566 l 2.13,-0.082"
               style="fill:#000000;fill-opacity:1;fill-rule:nonzero;stroke:none;stroke-width:1.66666663"
               id="path11934"
               inkscape:connector-curvature="0" />
            <path
               d="m 527.887,381.688 c 18.414,-0.387 34.515,-17.391 52.519,-42.586 18.282,-25.594 39.164,-61.02 62.438,-95.442 -39.274,22.32 -71.539,32.309 -101.731,53.356 -16.125,11.25 -39.812,36.699 -42.91,42.031 -3.484,5.98 -8.879,17.926 2.008,32.238 10.324,13.598 27.676,10.403 27.676,10.403"
               style="fill:#000000;fill-opacity:1;fill-rule:evenodd;stroke:none;stroke-width:1.66666663"
               id="path11936"
               inkscape:connector-curvature="0" />
            <path
               d="m 470.094,526.594 c 56.758,-0.696 100.367,-56.364 102,-125.129 -28.156,3.617 -49.106,13.789 -60.313,43.215 -10.402,27.386 -26.476,52.593 -41.687,81.914"
               style="fill:#000000;fill-opacity:1;fill-rule:evenodd;stroke:none;stroke-width:1.66666663"
               id="path11938"
               inkscape:connector-curvature="0" />
            <path
               d="m 344.469,408.453 c -2.789,-56.691 50.105,-103.644 118.636,-109.488 -1.878,28.344 -10.75,49.875 -39.421,62.855 -26.707,12.067 -50.891,29.641 -79.215,46.633"
               style="fill:#000000;fill-opacity:1;fill-rule:evenodd;stroke:none;stroke-width:1.66666663"
               id="path11940"
               inkscape:connector-curvature="0" />
            <path
               d="m 487.758,447.551 -8.559,-9.684 C 463.363,419.684 446.191,402.656 430.203,385.938 297.555,446.719 200.82,527.359 199.52,684.414 c 73.64,-4.641 141.566,-24.609 189.019,-81.016 37.164,-44.183 63.805,-97.269 94.231,-146.953 l 4.988,-8.894"
               style="fill:#000000;fill-opacity:1;fill-rule:evenodd;stroke:none;stroke-width:1.66666663"
               id="path11942"
               inkscape:connector-curvature="0" />
            <path
               d="m 442.676,372.754 c 52.875,57.242 52.875,57.242 68.429,40.512 -41.804,-49.598 -51.32,-55.473 -68.429,-40.512"
               style="fill:#000000;fill-opacity:1;fill-rule:evenodd;stroke:none;stroke-width:1.66666663"
               id="path11944"
               inkscape:connector-curvature="0" />
          </g>
        </g>
      </g>
      <text
         xml:space="preserve"
         style="font-style:normal;font-weight:normal;font-size:8px;line-height:18.75px;font-family:sans-serif;letter-spacing:0px;word-spacing:0px;fill:#000000;fill-opacity:1;stroke:none;stroke-width:0.75px;stroke-linecap:butt;stroke-linejoin:miter;stroke-opacity:1"
         x="85.960548"
         y="-338.38034"
         id="text5996"
         transform="matrix(0,1,-1,0,0,0)"><tspan
           sodipodi:role="line"
           id="tspan5994"
           x="85.960548"
           y="-338.38034"
           style="font-style:normal;font-variant:normal;font-weight:bold;font-stretch:normal;font-size:8px;font-family:sans-serif;-inkscape-font-specification:'sans-serif Bold';stroke-width:0.75px">start/stop</tspan></text>
      <circle
         style="opacity:1;fill:#000000;fill-opacity:1;fill-rule:nonzero;stroke:none;stroke-width:0.70875001;stroke-linecap:round;stroke-linejoin:round;stroke-miterlimit:10;stroke-dasharray:none;stroke-dashoffset:0;stroke-opacity:1"
         id="path5998"
         cx="354.16428"
         cy="5.914731"
         transform="scale(1,-1)"
         r="3.1875005" />
      <text
         xml:space="preserve"
         style="font-style:normal;font-weight:normal;font-size:7.99999952px;line-height:18.75px;font-family:sans-serif;letter-spacing:0px;word-spacing:0px;display:inline;fill:#000000;fill-opacity:1;stroke:none;stroke-width:0.75px;stroke-linecap:butt;stroke-linejoin:miter;stroke-opacity:1"
         x="1.0110123"
         y="-351.25217"
         id="text5996-1"
         transform="rotate(90)"><tspan
           sodipodi:role="line"
           id="tspan5994-2"
           x="1.0110123"
           y="-351.25217"
           style="font-style:normal;font-variant:normal;font-weight:bold;font-stretch:normal;font-size:7.99999952px;font-family:sans-serif;-inkscape-font-specification:'sans-serif Bold';stroke-width:0.75px">POWER</tspan></text>
      <text
         xml:space="preserve"
         style="font-style:normal;font-weight:normal;font-size:7.99999952px;line-height:18.75px;font-family:sans-serif;letter-spacing:0px;word-spacing:0px;display:inline;fill:#000000;fill-opacity:1;stroke:none;stroke-width:0.75px;stroke-linecap:butt;stroke-linejoin:miter;stroke-opacity:1"
         x="269.09583"
         y="48.192432"
         id="text5996-1-6"><tspan
           sodipodi:role="line"
           id="tspan5994-2-1"
           x="269.09583"
           y="48.192432"
           style="font-style:normal;font-variant:normal;font-weight:bold;font-stretch:normal;font-size:7.99999952px;font-family:sans-serif;-inkscape-font-specification:'sans-serif Bold';stroke-width:0.75px">GND</tspan></text>
      <text
         xml:space="preserve"
         style="font-style:normal;font-weight:normal;font-size:7.5px;line-height:18.75px;font-family:sans-serif;letter-spacing:0px;word-spacing:0px;fill:#000000;fill-opacity:1;stroke:none;stroke-width:0.75px;stroke-linecap:butt;stroke-linejoin:miter;stroke-opacity:1"
         x="295.13269"
         y="62.198208"
         id="text6400"
         transform="scale(1,-1)"><tspan
           sodipodi:role="line"
           id="tspan6398"
           x="295.13269"
           y="73.521454"
           style="stroke-width:0.75px" /></text>
      <text
         xml:space="preserve"
         style="font-style:normal;font-weight:normal;font-size:7.99999952px;line-height:18.75px;font-family:sans-serif;letter-spacing:0px;word-spacing:0px;display:inline;fill:#000000;fill-opacity:1;stroke:none;stroke-width:0.75px;stroke-linecap:butt;stroke-linejoin:miter;stroke-opacity:1"
         x="268.75989"
         y="57.559101"
         id="text5996-1-6-2"><tspan
           sodipodi:role="line"
           id="tspan5994-2-1-9"
           x="268.75989"
           y="57.559101"
           style="font-style:normal;font-variant:normal;font-weight:bold;font-stretch:normal;font-size:7.99999952px;font-family:sans-serif;-inkscape-font-specification:'sans-serif Bold';stroke-width:0.75px">DI 6</tspan></text>
      <text
         xml:space="preserve"
         style="font-style:normal;font-weight:normal;font-size:7.99999952px;line-height:18.75px;font-family:sans-serif;letter-spacing:0px;word-spacing:0px;display:inline;fill:#000000;fill-opacity:1;stroke:none;stroke-width:0.75px;stroke-linecap:butt;stroke-linejoin:miter;stroke-opacity:1"
         x="268.75989"
         y="66.925758"
         id="text5996-1-6-2-6"><tspan
           sodipodi:role="line"
           id="tspan5994-2-1-9-1"
           x="268.75989"
           y="66.925758"
           style="font-style:normal;font-variant:normal;font-weight:bold;font-stretch:normal;font-size:7.99999952px;font-family:sans-serif;-inkscape-font-specification:'sans-serif Bold';stroke-width:0.75px">DI 5</tspan></text>
      <text
         xml:space="preserve"
         style="font-style:normal;font-weight:normal;font-size:7.99999952px;line-height:18.75px;font-family:sans-serif;letter-spacing:0px;word-spacing:0px;display:inline;fill:#000000;fill-opacity:1;stroke:none;stroke-width:0.75px;stroke-linecap:butt;stroke-linejoin:miter;stroke-opacity:1"
         x="268.75989"
         y="76.405708"
         id="text5996-1-6-2-0"><tspan
           sodipodi:role="line"
           id="tspan5994-2-1-9-6"
           x="268.75989"
           y="76.405708"
           style="font-style:normal;font-variant:normal;font-weight:bold;font-stretch:normal;font-size:7.99999952px;font-family:sans-serif;-inkscape-font-specification:'sans-serif Bold';stroke-width:0.75px">DI 4</tspan></text>
      <text
         xml:space="preserve"
         style="font-style:normal;font-weight:normal;font-size:7.99999952px;line-height:18.75px;font-family:sans-serif;letter-spacing:0px;word-spacing:0px;display:inline;fill:#000000;fill-opacity:1;stroke:none;stroke-width:0.75px;stroke-linecap:butt;stroke-linejoin:miter;stroke-opacity:1"
         x="268.75989"
         y="85.659096"
         id="text5996-1-6-2-3"><tspan
           sodipodi:role="line"
           id="tspan5994-2-1-9-2"
           x="268.75989"
           y="85.659096"
           style="font-style:normal;font-variant:normal;font-weight:bold;font-stretch:normal;font-size:7.99999952px;font-family:sans-serif;-inkscape-font-specification:'sans-serif Bold';stroke-width:0.75px">DI 3</tspan></text>
      <text
         xml:space="preserve"
         style="font-style:normal;font-weight:normal;font-size:7.99999952px;line-height:18.75px;font-family:sans-serif;letter-spacing:0px;word-spacing:0px;display:inline;fill:#000000;fill-opacity:1;stroke:none;stroke-width:0.75px;stroke-linecap:butt;stroke-linejoin:miter;stroke-opacity:1"
         x="268.75989"
         y="95.139046"
         id="text5996-1-6-2-06"><tspan
           sodipodi:role="line"
           id="tspan5994-2-1-9-15"
           x="268.75989"
           y="95.139046"
           style="font-style:normal;font-variant:normal;font-weight:bold;font-stretch:normal;font-size:7.99999952px;font-family:sans-serif;-inkscape-font-specification:'sans-serif Bold';stroke-width:0.75px">DI 2</tspan></text>
      <text
         xml:space="preserve"
         style="font-style:normal;font-weight:normal;font-size:7.99999952px;line-height:18.75px;font-family:sans-serif;letter-spacing:0px;word-spacing:0px;display:inline;fill:#000000;fill-opacity:1;stroke:none;stroke-width:0.75px;stroke-linecap:butt;stroke-linejoin:miter;stroke-opacity:1"
         x="268.75989"
         y="104.50571"
         id="text5996-1-6-2-5"><tspan
           sodipodi:role="line"
           id="tspan5994-2-1-9-4"
           x="268.75989"
           y="104.50571"
           style="font-style:normal;font-variant:normal;font-weight:bold;font-stretch:normal;font-size:7.99999952px;font-family:sans-serif;-inkscape-font-specification:'sans-serif Bold';stroke-width:0.75px">DI 1</tspan></text>
      <text
         xml:space="preserve"
         style="font-style:normal;font-weight:normal;font-size:7.99999952px;line-height:18.75px;font-family:sans-serif;letter-spacing:0px;word-spacing:0px;display:inline;fill:#000000;fill-opacity:1;stroke:none;stroke-width:0.75px;stroke-linecap:butt;stroke-linejoin:miter;stroke-opacity:1"
         x="109.31602"
         y="-320.50217"
         id="text5996-1-7"
         transform="rotate(90)"><tspan
           sodipodi:role="line"
           id="tspan5994-2-6"
           x="109.31602"
           y="-320.50217"
           style="font-style:normal;font-variant:normal;font-weight:bold;font-stretch:normal;font-size:7.99999952px;font-family:sans-serif;-inkscape-font-specification:'sans-serif Bold';stroke-width:0.75px">STAT</tspan></text>
      <text
         xml:space="preserve"
         style="font-style:normal;font-weight:normal;font-size:7.99999952px;line-height:18.75px;font-family:sans-serif;letter-spacing:0px;word-spacing:0px;display:inline;fill:#000000;fill-opacity:1;stroke:none;stroke-width:0.75px;stroke-linecap:butt;stroke-linejoin:miter;stroke-opacity:1"
         x="109.15587"
         y="-311.99826"
         id="text5996-1-5"
         transform="rotate(90)"><tspan
           sodipodi:role="line"
           id="tspan5994-2-69"
           x="109.15587"
           y="-311.99826"
           style="font-style:normal;font-variant:normal;font-weight:bold;font-stretch:normal;font-size:7.99999952px;font-family:sans-serif;-inkscape-font-specification:'sans-serif Bold';stroke-width:0.75px">ERR</tspan></text>
      <text
         xml:space="preserve"
         style="font-style:normal;font-weight:normal;font-size:7.99999952px;line-height:18.75px;font-family:sans-serif;letter-spacing:0px;word-spacing:0px;display:inline;fill:#000000;fill-opacity:1;stroke:none;stroke-width:0.75px;stroke-linecap:butt;stroke-linejoin:miter;stroke-opacity:1"
         x="141.54285"
         y="-109.05505"
         id="text5996-1-9"
         transform="rotate(90)"><tspan
           sodipodi:role="line"
           id="tspan5994-2-3"
           x="141.54285"
           y="-109.05505"
           style="font-style:normal;font-variant:normal;font-weight:bold;font-stretch:normal;font-size:16px;font-family:sans-serif;-inkscape-font-specification:'sans-serif Bold';stroke-width:0.75px">V1</tspan></text>
      <text
         xml:space="preserve"
         style="font-style:normal;font-weight:normal;font-size:7.99999952px;line-height:18.75px;font-family:sans-serif;letter-spacing:0px;word-spacing:0px;display:inline;fill:#000000;fill-opacity:1;stroke:none;stroke-width:0.75px;stroke-linecap:butt;stroke-linejoin:miter;stroke-opacity:1"
         x="107.66965"
         y="-109.05505"
         id="text5996-1-9-3"
         transform="rotate(90)"><tspan
           sodipodi:role="line"
           id="tspan5994-2-3-4"
           x="107.66965"
           y="-109.05505"
           style="font-style:normal;font-variant:normal;font-weight:bold;font-stretch:normal;font-size:15.99999905px;font-family:sans-serif;-inkscape-font-specification:'sans-serif Bold';stroke-width:0.75px">V2</tspan></text>
      <text
         xml:space="preserve"
         style="font-style:normal;font-weight:normal;font-size:7.99999952px;line-height:18.75px;font-family:sans-serif;letter-spacing:0px;word-spacing:0px;display:inline;fill:#000000;fill-opacity:1;stroke:none;stroke-width:0.75px;stroke-linecap:butt;stroke-linejoin:miter;stroke-opacity:1"
         x="5.5577888"
         y="-109.28162"
         id="text5996-1-9-6"
         transform="rotate(90)"><tspan
           sodipodi:role="line"
           id="tspan5994-2-3-1"
           x="5.5577888"
           y="-109.28162"
           style="font-style:normal;font-variant:normal;font-weight:bold;font-stretch:normal;font-size:15.99999905px;font-family:sans-serif;-inkscape-font-specification:'sans-serif Bold';stroke-width:0.75px">V3</tspan></text>
      <text
         xml:space="preserve"
         style="font-style:normal;font-weight:normal;font-size:7.99999952px;line-height:18.75px;font-family:sans-serif;letter-spacing:0px;word-spacing:0px;display:inline;fill:#000000;fill-opacity:1;stroke:none;stroke-width:0.75px;stroke-linecap:butt;stroke-linejoin:miter;stroke-opacity:1"
         x="-28.729494"
         y="-109.05505"
         id="text5996-1-9-5"
         transform="rotate(90)"><tspan
           sodipodi:role="line"
           id="tspan5994-2-3-6"
           x="-28.729494"
           y="-109.05505"
           style="font-style:normal;font-variant:normal;font-weight:bold;font-stretch:normal;font-size:15.99999905px;font-family:sans-serif;-inkscape-font-specification:'sans-serif Bold';stroke-width:0.75px">V4</tspan></text>
      <text
         xml:space="preserve"
         style="font-style:normal;font-weight:normal;font-size:7.99999952px;line-height:18.75px;font-family:sans-serif;letter-spacing:0px;word-spacing:0px;display:inline;fill:#000000;fill-opacity:1;stroke:none;stroke-width:0.75px;stroke-linecap:butt;stroke-linejoin:miter;stroke-opacity:1"
         x="76.015175"
         y="-109.05505"
         id="text5996-1-9-1"
         transform="rotate(90)"><tspan
           sodipodi:role="line"
           id="tspan5994-2-3-7"
           x="76.015175"
           y="-109.05505"
           style="font-style:normal;font-variant:normal;font-weight:bold;font-stretch:normal;font-size:15.99999905px;font-family:sans-serif;-inkscape-font-specification:'sans-serif Bold';stroke-width:0.75px">I1</tspan></text>
      <text
         xml:space="preserve"
         style="font-style:normal;font-weight:normal;font-size:7.99999952px;line-height:18.75px;font-family:sans-serif;letter-spacing:0px;word-spacing:0px;display:inline;fill:#000000;fill-opacity:1;stroke:none;stroke-width:0.75px;stroke-linecap:butt;stroke-linejoin:miter;stroke-opacity:1"
         x="42.141937"
         y="-109.05505"
         id="text5996-1-9-2"
         transform="rotate(90)"><tspan
           sodipodi:role="line"
           id="tspan5994-2-3-2"
           x="42.141937"
           y="-109.05505"
           style="font-style:normal;font-variant:normal;font-weight:bold;font-stretch:normal;font-size:15.99999905px;font-family:sans-serif;-inkscape-font-specification:'sans-serif Bold';stroke-width:0.75px">I2</tspan></text>
      <circle
         style="display:inline;opacity:1;fill:#000000;fill-opacity:1;fill-rule:nonzero;stroke:none;stroke-width:0.70875001;stroke-linecap:round;stroke-linejoin:round;stroke-miterlimit:10;stroke-dasharray:none;stroke-dashoffset:0;stroke-opacity:1"
         id="path5998-9"
         cx="323.41428"
         cy="-137.13519"
         r="3.1875002"
         transform="scale(1,-1)" />
      <circle
         style="display:inline;opacity:1;fill:#000000;fill-opacity:1;fill-rule:nonzero;stroke:none;stroke-width:0.70875001;stroke-linecap:round;stroke-linejoin:round;stroke-miterlimit:10;stroke-dasharray:none;stroke-dashoffset:0;stroke-opacity:1"
         id="path5998-2"
         cx="314.91428"
         cy="-137.13519"
         r="3.1875002"
         transform="scale(1,-1)" />
      <circle
         style="display:inline;opacity:1;fill:none;fill-opacity:1;fill-rule:nonzero;stroke:#ff0000;stroke-width:0.70875001;stroke-linecap:round;stroke-linejoin:round;stroke-miterlimit:10;stroke-dasharray:none;stroke-dashoffset:0;stroke-opacity:1"
         id="path5998-9-8"
         cx="156.16428"
         cy="-155.58611"
         transform="scale(1,-1)"
         r="4.7081251" />
      <circle
         style="display:inline;opacity:1;fill:none;fill-opacity:1;fill-rule:nonzero;stroke:#ff0000;stroke-width:0.70875001;stroke-linecap:round;stroke-linejoin:round;stroke-miterlimit:10;stroke-dasharray:none;stroke-dashoffset:0;stroke-opacity:1"
         id="path5998-9-8-1"
         cx="156.16428"
         cy="20.1639"
         r="4.7081251"
         transform="scale(1,-1)" />
    </g>
  </g>
</svg>
